<?xml version="1.0" encoding="utf-8" standalone="no"?>
<!DOCTYPE svg PUBLIC "-//W3C//DTD SVG 1.1//EN"
  "http://www.w3.org/Graphics/SVG/1.1/DTD/svg11.dtd">
<svg xmlns:xlink="http://www.w3.org/1999/xlink" width="711.459291pt" height="423.689375pt" viewBox="0 0 711.459291 423.689375" xmlns="http://www.w3.org/2000/svg" version="1.1">
 <metadata>
  <rdf:RDF xmlns:dc="http://purl.org/dc/elements/1.1/" xmlns:cc="http://creativecommons.org/ns#" xmlns:rdf="http://www.w3.org/1999/02/22-rdf-syntax-ns#">
   <cc:Work>
    <dc:type rdf:resource="http://purl.org/dc/dcmitype/StillImage"/>
    <dc:date>2026-01-28T17:49:41.727860</dc:date>
    <dc:format>image/svg+xml</dc:format>
    <dc:creator>
     <cc:Agent>
      <dc:title>Matplotlib v3.10.8, https://matplotlib.org/</dc:title>
     </cc:Agent>
    </dc:creator>
   </cc:Work>
  </rdf:RDF>
 </metadata>
 <defs>
  <style type="text/css">*{stroke-linejoin: round; stroke-linecap: butt}</style>
 </defs>
 <g id="figure_1">
  <g id="patch_1">
   <path d="M 0 423.689375 
L 711.459291 423.689375 
L 711.459291 0 
L 0 0 
L 0 423.689375 
z
" style="fill: none"/>
  </g>
  <g id="axes_1">
   <g id="patch_2">
    <path d="M 55.26375 384.1975 
L 704.259291 384.1975 
L 704.259291 39.3575 
L 55.26375 39.3575 
L 55.26375 384.1975 
z
" style="fill: none"/>
   </g>
   <g id="matplotlib.axis_1">
    <g id="xtick_1">
     <g id="line2d_1">
      <path d="M 55.26375 384.1975 
L 55.26375 39.3575 
" clip-path="url(#p7251f2d8a8)" style="fill: none; stroke-dasharray: 2.96,1.28; stroke-dashoffset: 0; stroke: #b0b0b0; stroke-opacity: 0.3; stroke-width: 0.8"/>
     </g>
     <g id="line2d_2">
      <defs>
       <path id="ma0127af9a9" d="M 0 0 
L 0 3.5 
" style="stroke: #000000; stroke-width: 0.8"/>
      </defs>
      <g>
       <use xlink:href="#ma0127af9a9" x="55.26375" y="384.1975" style="stroke: #000000; stroke-width: 0.8"/>
      </g>
     </g>
     <g id="text_1">
      <!-- Jan -->
      <g transform="translate(47.555938 398.795937) scale(0.1 -0.1)">
       <defs>
        <path id="DejaVuSans-4a" d="M 628 4666 
L 1259 4666 
L 1259 325 
Q 1259 -519 939 -900 
Q 619 -1281 -91 -1281 
L -331 -1281 
L -331 -750 
L -134 -750 
Q 284 -750 456 -515 
Q 628 -281 628 325 
L 628 4666 
z
" transform="scale(0.015625)"/>
        <path id="DejaVuSans-61" d="M 2194 1759 
Q 1497 1759 1228 1600 
Q 959 1441 959 1056 
Q 959 750 1161 570 
Q 1363 391 1709 391 
Q 2188 391 2477 730 
Q 2766 1069 2766 1631 
L 2766 1759 
L 2194 1759 
z
M 3341 1997 
L 3341 0 
L 2766 0 
L 2766 531 
Q 2569 213 2275 61 
Q 1981 -91 1556 -91 
Q 1019 -91 701 211 
Q 384 513 384 1019 
Q 384 1609 779 1909 
Q 1175 2209 1959 2209 
L 2766 2209 
L 2766 2266 
Q 2766 2663 2505 2880 
Q 2244 3097 1772 3097 
Q 1472 3097 1187 3025 
Q 903 2953 641 2809 
L 641 3341 
Q 956 3463 1253 3523 
Q 1550 3584 1831 3584 
Q 2591 3584 2966 3190 
Q 3341 2797 3341 1997 
z
" transform="scale(0.015625)"/>
        <path id="DejaVuSans-6e" d="M 3513 2113 
L 3513 0 
L 2938 0 
L 2938 2094 
Q 2938 2591 2744 2837 
Q 2550 3084 2163 3084 
Q 1697 3084 1428 2787 
Q 1159 2491 1159 1978 
L 1159 0 
L 581 0 
L 581 3500 
L 1159 3500 
L 1159 2956 
Q 1366 3272 1645 3428 
Q 1925 3584 2291 3584 
Q 2894 3584 3203 3211 
Q 3513 2838 3513 2113 
z
" transform="scale(0.015625)"/>
       </defs>
       <use xlink:href="#DejaVuSans-4a"/>
       <use xlink:href="#DejaVuSans-61" transform="translate(29.492188 0)"/>
       <use xlink:href="#DejaVuSans-6e" transform="translate(90.771484 0)"/>
      </g>
     </g>
    </g>
    <g id="xtick_2">
     <g id="line2d_3">
      <path d="M 109.639052 384.1975 
L 109.639052 39.3575 
" clip-path="url(#p7251f2d8a8)" style="fill: none; stroke-dasharray: 2.96,1.28; stroke-dashoffset: 0; stroke: #b0b0b0; stroke-opacity: 0.3; stroke-width: 0.8"/>
     </g>
     <g id="line2d_4">
      <g>
       <use xlink:href="#ma0127af9a9" x="109.639052" y="384.1975" style="stroke: #000000; stroke-width: 0.8"/>
      </g>
     </g>
     <g id="text_2">
      <!-- Feb -->
      <g transform="translate(100.78749 398.795937) scale(0.1 -0.1)">
       <defs>
        <path id="DejaVuSans-46" d="M 628 4666 
L 3309 4666 
L 3309 4134 
L 1259 4134 
L 1259 2759 
L 3109 2759 
L 3109 2228 
L 1259 2228 
L 1259 0 
L 628 0 
L 628 4666 
z
" transform="scale(0.015625)"/>
        <path id="DejaVuSans-65" d="M 3597 1894 
L 3597 1613 
L 953 1613 
Q 991 1019 1311 708 
Q 1631 397 2203 397 
Q 2534 397 2845 478 
Q 3156 559 3463 722 
L 3463 178 
Q 3153 47 2828 -22 
Q 2503 -91 2169 -91 
Q 1331 -91 842 396 
Q 353 884 353 1716 
Q 353 2575 817 3079 
Q 1281 3584 2069 3584 
Q 2775 3584 3186 3129 
Q 3597 2675 3597 1894 
z
M 3022 2063 
Q 3016 2534 2758 2815 
Q 2500 3097 2075 3097 
Q 1594 3097 1305 2825 
Q 1016 2553 972 2059 
L 3022 2063 
z
" transform="scale(0.015625)"/>
        <path id="DejaVuSans-62" d="M 3116 1747 
Q 3116 2381 2855 2742 
Q 2594 3103 2138 3103 
Q 1681 3103 1420 2742 
Q 1159 2381 1159 1747 
Q 1159 1113 1420 752 
Q 1681 391 2138 391 
Q 2594 391 2855 752 
Q 3116 1113 3116 1747 
z
M 1159 2969 
Q 1341 3281 1617 3432 
Q 1894 3584 2278 3584 
Q 2916 3584 3314 3078 
Q 3713 2572 3713 1747 
Q 3713 922 3314 415 
Q 2916 -91 2278 -91 
Q 1894 -91 1617 61 
Q 1341 213 1159 525 
L 1159 0 
L 581 0 
L 581 4863 
L 1159 4863 
L 1159 2969 
z
" transform="scale(0.015625)"/>
       </defs>
       <use xlink:href="#DejaVuSans-46"/>
       <use xlink:href="#DejaVuSans-65" transform="translate(52.019531 0)"/>
       <use xlink:href="#DejaVuSans-62" transform="translate(113.542969 0)"/>
      </g>
     </g>
    </g>
    <g id="xtick_3">
     <g id="line2d_5">
      <path d="M 158.752228 384.1975 
L 158.752228 39.3575 
" clip-path="url(#p7251f2d8a8)" style="fill: none; stroke-dasharray: 2.96,1.28; stroke-dashoffset: 0; stroke: #b0b0b0; stroke-opacity: 0.3; stroke-width: 0.8"/>
     </g>
     <g id="line2d_6">
      <g>
       <use xlink:href="#ma0127af9a9" x="158.752228" y="384.1975" style="stroke: #000000; stroke-width: 0.8"/>
      </g>
     </g>
     <g id="text_3">
      <!-- Mar -->
      <g transform="translate(149.318634 398.795937) scale(0.1 -0.1)">
       <defs>
        <path id="DejaVuSans-4d" d="M 628 4666 
L 1569 4666 
L 2759 1491 
L 3956 4666 
L 4897 4666 
L 4897 0 
L 4281 0 
L 4281 4097 
L 3078 897 
L 2444 897 
L 1241 4097 
L 1241 0 
L 628 0 
L 628 4666 
z
" transform="scale(0.015625)"/>
        <path id="DejaVuSans-72" d="M 2631 2963 
Q 2534 3019 2420 3045 
Q 2306 3072 2169 3072 
Q 1681 3072 1420 2755 
Q 1159 2438 1159 1844 
L 1159 0 
L 581 0 
L 581 3500 
L 1159 3500 
L 1159 2956 
Q 1341 3275 1631 3429 
Q 1922 3584 2338 3584 
Q 2397 3584 2469 3576 
Q 2541 3569 2628 3553 
L 2631 2963 
z
" transform="scale(0.015625)"/>
       </defs>
       <use xlink:href="#DejaVuSans-4d"/>
       <use xlink:href="#DejaVuSans-61" transform="translate(86.279297 0)"/>
       <use xlink:href="#DejaVuSans-72" transform="translate(147.558594 0)"/>
      </g>
     </g>
    </g>
    <g id="xtick_4">
     <g id="line2d_7">
      <path d="M 213.12753 384.1975 
L 213.12753 39.3575 
" clip-path="url(#p7251f2d8a8)" style="fill: none; stroke-dasharray: 2.96,1.28; stroke-dashoffset: 0; stroke: #b0b0b0; stroke-opacity: 0.3; stroke-width: 0.8"/>
     </g>
     <g id="line2d_8">
      <g>
       <use xlink:href="#ma0127af9a9" x="213.12753" y="384.1975" style="stroke: #000000; stroke-width: 0.8"/>
      </g>
     </g>
     <g id="text_4">
      <!-- Apr -->
      <g transform="translate(204.47753 398.795937) scale(0.1 -0.1)">
       <defs>
        <path id="DejaVuSans-41" d="M 2188 4044 
L 1331 1722 
L 3047 1722 
L 2188 4044 
z
M 1831 4666 
L 2547 4666 
L 4325 0 
L 3669 0 
L 3244 1197 
L 1141 1197 
L 716 0 
L 50 0 
L 1831 4666 
z
" transform="scale(0.015625)"/>
        <path id="DejaVuSans-70" d="M 1159 525 
L 1159 -1331 
L 581 -1331 
L 581 3500 
L 1159 3500 
L 1159 2969 
Q 1341 3281 1617 3432 
Q 1894 3584 2278 3584 
Q 2916 3584 3314 3078 
Q 3713 2572 3713 1747 
Q 3713 922 3314 415 
Q 2916 -91 2278 -91 
Q 1894 -91 1617 61 
Q 1341 213 1159 525 
z
M 3116 1747 
Q 3116 2381 2855 2742 
Q 2594 3103 2138 3103 
Q 1681 3103 1420 2742 
Q 1159 2381 1159 1747 
Q 1159 1113 1420 752 
Q 1681 391 2138 391 
Q 2594 391 2855 752 
Q 3116 1113 3116 1747 
z
" transform="scale(0.015625)"/>
       </defs>
       <use xlink:href="#DejaVuSans-41"/>
       <use xlink:href="#DejaVuSans-70" transform="translate(68.408203 0)"/>
       <use xlink:href="#DejaVuSans-72" transform="translate(131.884766 0)"/>
      </g>
     </g>
    </g>
    <g id="xtick_5">
     <g id="line2d_9">
      <path d="M 265.74879 384.1975 
L 265.74879 39.3575 
" clip-path="url(#p7251f2d8a8)" style="fill: none; stroke-dasharray: 2.96,1.28; stroke-dashoffset: 0; stroke: #b0b0b0; stroke-opacity: 0.3; stroke-width: 0.8"/>
     </g>
     <g id="line2d_10">
      <g>
       <use xlink:href="#ma0127af9a9" x="265.74879" y="384.1975" style="stroke: #000000; stroke-width: 0.8"/>
      </g>
     </g>
     <g id="text_5">
      <!-- May -->
      <g transform="translate(255.41129 398.795937) scale(0.1 -0.1)">
       <defs>
        <path id="DejaVuSans-79" d="M 2059 -325 
Q 1816 -950 1584 -1140 
Q 1353 -1331 966 -1331 
L 506 -1331 
L 506 -850 
L 844 -850 
Q 1081 -850 1212 -737 
Q 1344 -625 1503 -206 
L 1606 56 
L 191 3500 
L 800 3500 
L 1894 763 
L 2988 3500 
L 3597 3500 
L 2059 -325 
z
" transform="scale(0.015625)"/>
       </defs>
       <use xlink:href="#DejaVuSans-4d"/>
       <use xlink:href="#DejaVuSans-61" transform="translate(86.279297 0)"/>
       <use xlink:href="#DejaVuSans-79" transform="translate(147.558594 0)"/>
      </g>
     </g>
    </g>
    <g id="xtick_6">
     <g id="line2d_11">
      <path d="M 320.124092 384.1975 
L 320.124092 39.3575 
" clip-path="url(#p7251f2d8a8)" style="fill: none; stroke-dasharray: 2.96,1.28; stroke-dashoffset: 0; stroke: #b0b0b0; stroke-opacity: 0.3; stroke-width: 0.8"/>
     </g>
     <g id="line2d_12">
      <g>
       <use xlink:href="#ma0127af9a9" x="320.124092" y="384.1975" style="stroke: #000000; stroke-width: 0.8"/>
      </g>
     </g>
     <g id="text_6">
      <!-- Jun -->
      <g transform="translate(312.311592 398.795937) scale(0.1 -0.1)">
       <defs>
        <path id="DejaVuSans-75" d="M 544 1381 
L 544 3500 
L 1119 3500 
L 1119 1403 
Q 1119 906 1312 657 
Q 1506 409 1894 409 
Q 2359 409 2629 706 
Q 2900 1003 2900 1516 
L 2900 3500 
L 3475 3500 
L 3475 0 
L 2900 0 
L 2900 538 
Q 2691 219 2414 64 
Q 2138 -91 1772 -91 
Q 1169 -91 856 284 
Q 544 659 544 1381 
z
M 1991 3584 
L 1991 3584 
z
" transform="scale(0.015625)"/>
       </defs>
       <use xlink:href="#DejaVuSans-4a"/>
       <use xlink:href="#DejaVuSans-75" transform="translate(29.492188 0)"/>
       <use xlink:href="#DejaVuSans-6e" transform="translate(92.871094 0)"/>
      </g>
     </g>
    </g>
    <g id="xtick_7">
     <g id="line2d_13">
      <path d="M 372.745352 384.1975 
L 372.745352 39.3575 
" clip-path="url(#p7251f2d8a8)" style="fill: none; stroke-dasharray: 2.96,1.28; stroke-dashoffset: 0; stroke: #b0b0b0; stroke-opacity: 0.3; stroke-width: 0.8"/>
     </g>
     <g id="line2d_14">
      <g>
       <use xlink:href="#ma0127af9a9" x="372.745352" y="384.1975" style="stroke: #000000; stroke-width: 0.8"/>
      </g>
     </g>
     <g id="text_7">
      <!-- Jul -->
      <g transform="translate(366.71254 398.795937) scale(0.1 -0.1)">
       <defs>
        <path id="DejaVuSans-6c" d="M 603 4863 
L 1178 4863 
L 1178 0 
L 603 0 
L 603 4863 
z
" transform="scale(0.015625)"/>
       </defs>
       <use xlink:href="#DejaVuSans-4a"/>
       <use xlink:href="#DejaVuSans-75" transform="translate(29.492188 0)"/>
       <use xlink:href="#DejaVuSans-6c" transform="translate(92.871094 0)"/>
      </g>
     </g>
    </g>
    <g id="xtick_8">
     <g id="line2d_15">
      <path d="M 427.120654 384.1975 
L 427.120654 39.3575 
" clip-path="url(#p7251f2d8a8)" style="fill: none; stroke-dasharray: 2.96,1.28; stroke-dashoffset: 0; stroke: #b0b0b0; stroke-opacity: 0.3; stroke-width: 0.8"/>
     </g>
     <g id="line2d_16">
      <g>
       <use xlink:href="#ma0127af9a9" x="427.120654" y="384.1975" style="stroke: #000000; stroke-width: 0.8"/>
      </g>
     </g>
     <g id="text_8">
      <!-- Aug -->
      <g transform="translate(417.357373 398.795937) scale(0.1 -0.1)">
       <defs>
        <path id="DejaVuSans-67" d="M 2906 1791 
Q 2906 2416 2648 2759 
Q 2391 3103 1925 3103 
Q 1463 3103 1205 2759 
Q 947 2416 947 1791 
Q 947 1169 1205 825 
Q 1463 481 1925 481 
Q 2391 481 2648 825 
Q 2906 1169 2906 1791 
z
M 3481 434 
Q 3481 -459 3084 -895 
Q 2688 -1331 1869 -1331 
Q 1566 -1331 1297 -1286 
Q 1028 -1241 775 -1147 
L 775 -588 
Q 1028 -725 1275 -790 
Q 1522 -856 1778 -856 
Q 2344 -856 2625 -561 
Q 2906 -266 2906 331 
L 2906 616 
Q 2728 306 2450 153 
Q 2172 0 1784 0 
Q 1141 0 747 490 
Q 353 981 353 1791 
Q 353 2603 747 3093 
Q 1141 3584 1784 3584 
Q 2172 3584 2450 3431 
Q 2728 3278 2906 2969 
L 2906 3500 
L 3481 3500 
L 3481 434 
z
" transform="scale(0.015625)"/>
       </defs>
       <use xlink:href="#DejaVuSans-41"/>
       <use xlink:href="#DejaVuSans-75" transform="translate(68.408203 0)"/>
       <use xlink:href="#DejaVuSans-67" transform="translate(131.787109 0)"/>
      </g>
     </g>
    </g>
    <g id="xtick_9">
     <g id="line2d_17">
      <path d="M 481.495956 384.1975 
L 481.495956 39.3575 
" clip-path="url(#p7251f2d8a8)" style="fill: none; stroke-dasharray: 2.96,1.28; stroke-dashoffset: 0; stroke: #b0b0b0; stroke-opacity: 0.3; stroke-width: 0.8"/>
     </g>
     <g id="line2d_18">
      <g>
       <use xlink:href="#ma0127af9a9" x="481.495956" y="384.1975" style="stroke: #000000; stroke-width: 0.8"/>
      </g>
     </g>
     <g id="text_9">
      <!-- Sep -->
      <g transform="translate(472.070956 398.795937) scale(0.1 -0.1)">
       <defs>
        <path id="DejaVuSans-53" d="M 3425 4513 
L 3425 3897 
Q 3066 4069 2747 4153 
Q 2428 4238 2131 4238 
Q 1616 4238 1336 4038 
Q 1056 3838 1056 3469 
Q 1056 3159 1242 3001 
Q 1428 2844 1947 2747 
L 2328 2669 
Q 3034 2534 3370 2195 
Q 3706 1856 3706 1288 
Q 3706 609 3251 259 
Q 2797 -91 1919 -91 
Q 1588 -91 1214 -16 
Q 841 59 441 206 
L 441 856 
Q 825 641 1194 531 
Q 1563 422 1919 422 
Q 2459 422 2753 634 
Q 3047 847 3047 1241 
Q 3047 1584 2836 1778 
Q 2625 1972 2144 2069 
L 1759 2144 
Q 1053 2284 737 2584 
Q 422 2884 422 3419 
Q 422 4038 858 4394 
Q 1294 4750 2059 4750 
Q 2388 4750 2728 4690 
Q 3069 4631 3425 4513 
z
" transform="scale(0.015625)"/>
       </defs>
       <use xlink:href="#DejaVuSans-53"/>
       <use xlink:href="#DejaVuSans-65" transform="translate(63.476562 0)"/>
       <use xlink:href="#DejaVuSans-70" transform="translate(125 0)"/>
      </g>
     </g>
    </g>
    <g id="xtick_10">
     <g id="line2d_19">
      <path d="M 534.117216 384.1975 
L 534.117216 39.3575 
" clip-path="url(#p7251f2d8a8)" style="fill: none; stroke-dasharray: 2.96,1.28; stroke-dashoffset: 0; stroke: #b0b0b0; stroke-opacity: 0.3; stroke-width: 0.8"/>
     </g>
     <g id="line2d_20">
      <g>
       <use xlink:href="#ma0127af9a9" x="534.117216" y="384.1975" style="stroke: #000000; stroke-width: 0.8"/>
      </g>
     </g>
     <g id="text_10">
      <!-- Oct -->
      <g transform="translate(525.471904 398.795937) scale(0.1 -0.1)">
       <defs>
        <path id="DejaVuSans-4f" d="M 2522 4238 
Q 1834 4238 1429 3725 
Q 1025 3213 1025 2328 
Q 1025 1447 1429 934 
Q 1834 422 2522 422 
Q 3209 422 3611 934 
Q 4013 1447 4013 2328 
Q 4013 3213 3611 3725 
Q 3209 4238 2522 4238 
z
M 2522 4750 
Q 3503 4750 4090 4092 
Q 4678 3434 4678 2328 
Q 4678 1225 4090 567 
Q 3503 -91 2522 -91 
Q 1538 -91 948 565 
Q 359 1222 359 2328 
Q 359 3434 948 4092 
Q 1538 4750 2522 4750 
z
" transform="scale(0.015625)"/>
        <path id="DejaVuSans-63" d="M 3122 3366 
L 3122 2828 
Q 2878 2963 2633 3030 
Q 2388 3097 2138 3097 
Q 1578 3097 1268 2742 
Q 959 2388 959 1747 
Q 959 1106 1268 751 
Q 1578 397 2138 397 
Q 2388 397 2633 464 
Q 2878 531 3122 666 
L 3122 134 
Q 2881 22 2623 -34 
Q 2366 -91 2075 -91 
Q 1284 -91 818 406 
Q 353 903 353 1747 
Q 353 2603 823 3093 
Q 1294 3584 2113 3584 
Q 2378 3584 2631 3529 
Q 2884 3475 3122 3366 
z
" transform="scale(0.015625)"/>
        <path id="DejaVuSans-74" d="M 1172 4494 
L 1172 3500 
L 2356 3500 
L 2356 3053 
L 1172 3053 
L 1172 1153 
Q 1172 725 1289 603 
Q 1406 481 1766 481 
L 2356 481 
L 2356 0 
L 1766 0 
Q 1100 0 847 248 
Q 594 497 594 1153 
L 594 3053 
L 172 3053 
L 172 3500 
L 594 3500 
L 594 4494 
L 1172 4494 
z
" transform="scale(0.015625)"/>
       </defs>
       <use xlink:href="#DejaVuSans-4f"/>
       <use xlink:href="#DejaVuSans-63" transform="translate(78.710938 0)"/>
       <use xlink:href="#DejaVuSans-74" transform="translate(133.691406 0)"/>
      </g>
     </g>
    </g>
    <g id="xtick_11">
     <g id="line2d_21">
      <path d="M 588.492518 384.1975 
L 588.492518 39.3575 
" clip-path="url(#p7251f2d8a8)" style="fill: none; stroke-dasharray: 2.96,1.28; stroke-dashoffset: 0; stroke: #b0b0b0; stroke-opacity: 0.3; stroke-width: 0.8"/>
     </g>
     <g id="line2d_22">
      <g>
       <use xlink:href="#ma0127af9a9" x="588.492518" y="384.1975" style="stroke: #000000; stroke-width: 0.8"/>
      </g>
     </g>
     <g id="text_11">
      <!-- Nov -->
      <g transform="translate(578.733143 398.795937) scale(0.1 -0.1)">
       <defs>
        <path id="DejaVuSans-4e" d="M 628 4666 
L 1478 4666 
L 3547 763 
L 3547 4666 
L 4159 4666 
L 4159 0 
L 3309 0 
L 1241 3903 
L 1241 0 
L 628 0 
L 628 4666 
z
" transform="scale(0.015625)"/>
        <path id="DejaVuSans-6f" d="M 1959 3097 
Q 1497 3097 1228 2736 
Q 959 2375 959 1747 
Q 959 1119 1226 758 
Q 1494 397 1959 397 
Q 2419 397 2687 759 
Q 2956 1122 2956 1747 
Q 2956 2369 2687 2733 
Q 2419 3097 1959 3097 
z
M 1959 3584 
Q 2709 3584 3137 3096 
Q 3566 2609 3566 1747 
Q 3566 888 3137 398 
Q 2709 -91 1959 -91 
Q 1206 -91 779 398 
Q 353 888 353 1747 
Q 353 2609 779 3096 
Q 1206 3584 1959 3584 
z
" transform="scale(0.015625)"/>
        <path id="DejaVuSans-76" d="M 191 3500 
L 800 3500 
L 1894 563 
L 2988 3500 
L 3597 3500 
L 2284 0 
L 1503 0 
L 191 3500 
z
" transform="scale(0.015625)"/>
       </defs>
       <use xlink:href="#DejaVuSans-4e"/>
       <use xlink:href="#DejaVuSans-6f" transform="translate(74.804688 0)"/>
       <use xlink:href="#DejaVuSans-76" transform="translate(135.986328 0)"/>
      </g>
     </g>
    </g>
    <g id="xtick_12">
     <g id="line2d_23">
      <path d="M 641.113778 384.1975 
L 641.113778 39.3575 
" clip-path="url(#p7251f2d8a8)" style="fill: none; stroke-dasharray: 2.96,1.28; stroke-dashoffset: 0; stroke: #b0b0b0; stroke-opacity: 0.3; stroke-width: 0.8"/>
     </g>
     <g id="line2d_24">
      <g>
       <use xlink:href="#ma0127af9a9" x="641.113778" y="384.1975" style="stroke: #000000; stroke-width: 0.8"/>
      </g>
     </g>
     <g id="text_12">
      <!-- Dec -->
      <g transform="translate(631.437997 398.795937) scale(0.1 -0.1)">
       <defs>
        <path id="DejaVuSans-44" d="M 1259 4147 
L 1259 519 
L 2022 519 
Q 2988 519 3436 956 
Q 3884 1394 3884 2338 
Q 3884 3275 3436 3711 
Q 2988 4147 2022 4147 
L 1259 4147 
z
M 628 4666 
L 1925 4666 
Q 3281 4666 3915 4102 
Q 4550 3538 4550 2338 
Q 4550 1131 3912 565 
Q 3275 0 1925 0 
L 628 0 
L 628 4666 
z
" transform="scale(0.015625)"/>
       </defs>
       <use xlink:href="#DejaVuSans-44"/>
       <use xlink:href="#DejaVuSans-65" transform="translate(77.001953 0)"/>
       <use xlink:href="#DejaVuSans-63" transform="translate(138.525391 0)"/>
      </g>
     </g>
    </g>
    <g id="xtick_13">
     <g id="line2d_25">
      <path d="M 695.489081 384.1975 
L 695.489081 39.3575 
" clip-path="url(#p7251f2d8a8)" style="fill: none; stroke-dasharray: 2.96,1.28; stroke-dashoffset: 0; stroke: #b0b0b0; stroke-opacity: 0.3; stroke-width: 0.8"/>
     </g>
     <g id="line2d_26">
      <g>
       <use xlink:href="#ma0127af9a9" x="695.489081" y="384.1975" style="stroke: #000000; stroke-width: 0.8"/>
      </g>
     </g>
     <g id="text_13">
      <!-- Jan -->
      <g transform="translate(687.781268 398.795937) scale(0.1 -0.1)">
       <use xlink:href="#DejaVuSans-4a"/>
       <use xlink:href="#DejaVuSans-61" transform="translate(29.492188 0)"/>
       <use xlink:href="#DejaVuSans-6e" transform="translate(90.771484 0)"/>
      </g>
     </g>
    </g>
    <g id="text_14">
     <!-- Day of the year -->
     <g transform="translate(333.176208 413.99375) scale(0.12 -0.12)">
      <defs>
       <path id="DejaVuSans-20" transform="scale(0.015625)"/>
       <path id="DejaVuSans-66" d="M 2375 4863 
L 2375 4384 
L 1825 4384 
Q 1516 4384 1395 4259 
Q 1275 4134 1275 3809 
L 1275 3500 
L 2222 3500 
L 2222 3053 
L 1275 3053 
L 1275 0 
L 697 0 
L 697 3053 
L 147 3053 
L 147 3500 
L 697 3500 
L 697 3744 
Q 697 4328 969 4595 
Q 1241 4863 1831 4863 
L 2375 4863 
z
" transform="scale(0.015625)"/>
       <path id="DejaVuSans-68" d="M 3513 2113 
L 3513 0 
L 2938 0 
L 2938 2094 
Q 2938 2591 2744 2837 
Q 2550 3084 2163 3084 
Q 1697 3084 1428 2787 
Q 1159 2491 1159 1978 
L 1159 0 
L 581 0 
L 581 4863 
L 1159 4863 
L 1159 2956 
Q 1366 3272 1645 3428 
Q 1925 3584 2291 3584 
Q 2894 3584 3203 3211 
Q 3513 2838 3513 2113 
z
" transform="scale(0.015625)"/>
      </defs>
      <use xlink:href="#DejaVuSans-44"/>
      <use xlink:href="#DejaVuSans-61" transform="translate(77.001953 0)"/>
      <use xlink:href="#DejaVuSans-79" transform="translate(138.28125 0)"/>
      <use xlink:href="#DejaVuSans-20" transform="translate(197.460938 0)"/>
      <use xlink:href="#DejaVuSans-6f" transform="translate(229.248047 0)"/>
      <use xlink:href="#DejaVuSans-66" transform="translate(290.429688 0)"/>
      <use xlink:href="#DejaVuSans-20" transform="translate(325.634766 0)"/>
      <use xlink:href="#DejaVuSans-74" transform="translate(357.421875 0)"/>
      <use xlink:href="#DejaVuSans-68" transform="translate(396.630859 0)"/>
      <use xlink:href="#DejaVuSans-65" transform="translate(460.009766 0)"/>
      <use xlink:href="#DejaVuSans-20" transform="translate(521.533203 0)"/>
      <use xlink:href="#DejaVuSans-79" transform="translate(553.320312 0)"/>
      <use xlink:href="#DejaVuSans-65" transform="translate(612.5 0)"/>
      <use xlink:href="#DejaVuSans-61" transform="translate(674.023438 0)"/>
      <use xlink:href="#DejaVuSans-72" transform="translate(735.302734 0)"/>
     </g>
    </g>
   </g>
   <g id="matplotlib.axis_2">
    <g id="ytick_1">
     <g id="line2d_27">
      <path d="M 55.26375 384.1975 
L 704.259291 384.1975 
" clip-path="url(#p7251f2d8a8)" style="fill: none; stroke-dasharray: 2.96,1.28; stroke-dashoffset: 0; stroke: #b0b0b0; stroke-opacity: 0.3; stroke-width: 0.8"/>
     </g>
     <g id="line2d_28">
      <defs>
       <path id="me99e992e2d" d="M 0 0 
L -3.5 0 
" style="stroke: #000000; stroke-width: 0.8"/>
      </defs>
      <g>
       <use xlink:href="#me99e992e2d" x="55.26375" y="384.1975" style="stroke: #000000; stroke-width: 0.8"/>
      </g>
     </g>
     <g id="text_15">
      <!-- 0 -->
      <g transform="translate(41.90125 387.996719) scale(0.1 -0.1)">
       <defs>
        <path id="DejaVuSans-30" d="M 2034 4250 
Q 1547 4250 1301 3770 
Q 1056 3291 1056 2328 
Q 1056 1369 1301 889 
Q 1547 409 2034 409 
Q 2525 409 2770 889 
Q 3016 1369 3016 2328 
Q 3016 3291 2770 3770 
Q 2525 4250 2034 4250 
z
M 2034 4750 
Q 2819 4750 3233 4129 
Q 3647 3509 3647 2328 
Q 3647 1150 3233 529 
Q 2819 -91 2034 -91 
Q 1250 -91 836 529 
Q 422 1150 422 2328 
Q 422 3509 836 4129 
Q 1250 4750 2034 4750 
z
" transform="scale(0.015625)"/>
       </defs>
       <use xlink:href="#DejaVuSans-30"/>
      </g>
     </g>
    </g>
    <g id="ytick_2">
     <g id="line2d_29">
      <path d="M 55.26375 308.967342 
L 704.259291 308.967342 
" clip-path="url(#p7251f2d8a8)" style="fill: none; stroke-dasharray: 2.96,1.28; stroke-dashoffset: 0; stroke: #b0b0b0; stroke-opacity: 0.3; stroke-width: 0.8"/>
     </g>
     <g id="line2d_30">
      <g>
       <use xlink:href="#me99e992e2d" x="55.26375" y="308.967342" style="stroke: #000000; stroke-width: 0.8"/>
      </g>
     </g>
     <g id="text_16">
      <!-- 2000 -->
      <g transform="translate(22.81375 312.76656) scale(0.1 -0.1)">
       <defs>
        <path id="DejaVuSans-32" d="M 1228 531 
L 3431 531 
L 3431 0 
L 469 0 
L 469 531 
Q 828 903 1448 1529 
Q 2069 2156 2228 2338 
Q 2531 2678 2651 2914 
Q 2772 3150 2772 3378 
Q 2772 3750 2511 3984 
Q 2250 4219 1831 4219 
Q 1534 4219 1204 4116 
Q 875 4013 500 3803 
L 500 4441 
Q 881 4594 1212 4672 
Q 1544 4750 1819 4750 
Q 2544 4750 2975 4387 
Q 3406 4025 3406 3419 
Q 3406 3131 3298 2873 
Q 3191 2616 2906 2266 
Q 2828 2175 2409 1742 
Q 1991 1309 1228 531 
z
" transform="scale(0.015625)"/>
       </defs>
       <use xlink:href="#DejaVuSans-32"/>
       <use xlink:href="#DejaVuSans-30" transform="translate(63.623047 0)"/>
       <use xlink:href="#DejaVuSans-30" transform="translate(127.246094 0)"/>
       <use xlink:href="#DejaVuSans-30" transform="translate(190.869141 0)"/>
      </g>
     </g>
    </g>
    <g id="ytick_3">
     <g id="line2d_31">
      <path d="M 55.26375 233.737183 
L 704.259291 233.737183 
" clip-path="url(#p7251f2d8a8)" style="fill: none; stroke-dasharray: 2.96,1.28; stroke-dashoffset: 0; stroke: #b0b0b0; stroke-opacity: 0.3; stroke-width: 0.8"/>
     </g>
     <g id="line2d_32">
      <g>
       <use xlink:href="#me99e992e2d" x="55.26375" y="233.737183" style="stroke: #000000; stroke-width: 0.8"/>
      </g>
     </g>
     <g id="text_17">
      <!-- 4000 -->
      <g transform="translate(22.81375 237.536402) scale(0.1 -0.1)">
       <defs>
        <path id="DejaVuSans-34" d="M 2419 4116 
L 825 1625 
L 2419 1625 
L 2419 4116 
z
M 2253 4666 
L 3047 4666 
L 3047 1625 
L 3713 1625 
L 3713 1100 
L 3047 1100 
L 3047 0 
L 2419 0 
L 2419 1100 
L 313 1100 
L 313 1709 
L 2253 4666 
z
" transform="scale(0.015625)"/>
       </defs>
       <use xlink:href="#DejaVuSans-34"/>
       <use xlink:href="#DejaVuSans-30" transform="translate(63.623047 0)"/>
       <use xlink:href="#DejaVuSans-30" transform="translate(127.246094 0)"/>
       <use xlink:href="#DejaVuSans-30" transform="translate(190.869141 0)"/>
      </g>
     </g>
    </g>
    <g id="ytick_4">
     <g id="line2d_33">
      <path d="M 55.26375 158.507025 
L 704.259291 158.507025 
" clip-path="url(#p7251f2d8a8)" style="fill: none; stroke-dasharray: 2.96,1.28; stroke-dashoffset: 0; stroke: #b0b0b0; stroke-opacity: 0.3; stroke-width: 0.8"/>
     </g>
     <g id="line2d_34">
      <g>
       <use xlink:href="#me99e992e2d" x="55.26375" y="158.507025" style="stroke: #000000; stroke-width: 0.8"/>
      </g>
     </g>
     <g id="text_18">
      <!-- 6000 -->
      <g transform="translate(22.81375 162.306244) scale(0.1 -0.1)">
       <defs>
        <path id="DejaVuSans-36" d="M 2113 2584 
Q 1688 2584 1439 2293 
Q 1191 2003 1191 1497 
Q 1191 994 1439 701 
Q 1688 409 2113 409 
Q 2538 409 2786 701 
Q 3034 994 3034 1497 
Q 3034 2003 2786 2293 
Q 2538 2584 2113 2584 
z
M 3366 4563 
L 3366 3988 
Q 3128 4100 2886 4159 
Q 2644 4219 2406 4219 
Q 1781 4219 1451 3797 
Q 1122 3375 1075 2522 
Q 1259 2794 1537 2939 
Q 1816 3084 2150 3084 
Q 2853 3084 3261 2657 
Q 3669 2231 3669 1497 
Q 3669 778 3244 343 
Q 2819 -91 2113 -91 
Q 1303 -91 875 529 
Q 447 1150 447 2328 
Q 447 3434 972 4092 
Q 1497 4750 2381 4750 
Q 2619 4750 2861 4703 
Q 3103 4656 3366 4563 
z
" transform="scale(0.015625)"/>
       </defs>
       <use xlink:href="#DejaVuSans-36"/>
       <use xlink:href="#DejaVuSans-30" transform="translate(63.623047 0)"/>
       <use xlink:href="#DejaVuSans-30" transform="translate(127.246094 0)"/>
       <use xlink:href="#DejaVuSans-30" transform="translate(190.869141 0)"/>
      </g>
     </g>
    </g>
    <g id="ytick_5">
     <g id="line2d_35">
      <path d="M 55.26375 83.276866 
L 704.259291 83.276866 
" clip-path="url(#p7251f2d8a8)" style="fill: none; stroke-dasharray: 2.96,1.28; stroke-dashoffset: 0; stroke: #b0b0b0; stroke-opacity: 0.3; stroke-width: 0.8"/>
     </g>
     <g id="line2d_36">
      <g>
       <use xlink:href="#me99e992e2d" x="55.26375" y="83.276866" style="stroke: #000000; stroke-width: 0.8"/>
      </g>
     </g>
     <g id="text_19">
      <!-- 8000 -->
      <g transform="translate(22.81375 87.076085) scale(0.1 -0.1)">
       <defs>
        <path id="DejaVuSans-38" d="M 2034 2216 
Q 1584 2216 1326 1975 
Q 1069 1734 1069 1313 
Q 1069 891 1326 650 
Q 1584 409 2034 409 
Q 2484 409 2743 651 
Q 3003 894 3003 1313 
Q 3003 1734 2745 1975 
Q 2488 2216 2034 2216 
z
M 1403 2484 
Q 997 2584 770 2862 
Q 544 3141 544 3541 
Q 544 4100 942 4425 
Q 1341 4750 2034 4750 
Q 2731 4750 3128 4425 
Q 3525 4100 3525 3541 
Q 3525 3141 3298 2862 
Q 3072 2584 2669 2484 
Q 3125 2378 3379 2068 
Q 3634 1759 3634 1313 
Q 3634 634 3220 271 
Q 2806 -91 2034 -91 
Q 1263 -91 848 271 
Q 434 634 434 1313 
Q 434 1759 690 2068 
Q 947 2378 1403 2484 
z
M 1172 3481 
Q 1172 3119 1398 2916 
Q 1625 2713 2034 2713 
Q 2441 2713 2670 2916 
Q 2900 3119 2900 3481 
Q 2900 3844 2670 4047 
Q 2441 4250 2034 4250 
Q 1625 4250 1398 4047 
Q 1172 3844 1172 3481 
z
" transform="scale(0.015625)"/>
       </defs>
       <use xlink:href="#DejaVuSans-38"/>
       <use xlink:href="#DejaVuSans-30" transform="translate(63.623047 0)"/>
       <use xlink:href="#DejaVuSans-30" transform="translate(127.246094 0)"/>
       <use xlink:href="#DejaVuSans-30" transform="translate(190.869141 0)"/>
      </g>
     </g>
    </g>
    <g id="text_20">
     <!-- Daily pedestrian count -->
     <g transform="translate(16.318125 279.793125) rotate(-90) scale(0.12 -0.12)">
      <defs>
       <path id="DejaVuSans-69" d="M 603 3500 
L 1178 3500 
L 1178 0 
L 603 0 
L 603 3500 
z
M 603 4863 
L 1178 4863 
L 1178 4134 
L 603 4134 
L 603 4863 
z
" transform="scale(0.015625)"/>
       <path id="DejaVuSans-64" d="M 2906 2969 
L 2906 4863 
L 3481 4863 
L 3481 0 
L 2906 0 
L 2906 525 
Q 2725 213 2448 61 
Q 2172 -91 1784 -91 
Q 1150 -91 751 415 
Q 353 922 353 1747 
Q 353 2572 751 3078 
Q 1150 3584 1784 3584 
Q 2172 3584 2448 3432 
Q 2725 3281 2906 2969 
z
M 947 1747 
Q 947 1113 1208 752 
Q 1469 391 1925 391 
Q 2381 391 2643 752 
Q 2906 1113 2906 1747 
Q 2906 2381 2643 2742 
Q 2381 3103 1925 3103 
Q 1469 3103 1208 2742 
Q 947 2381 947 1747 
z
" transform="scale(0.015625)"/>
       <path id="DejaVuSans-73" d="M 2834 3397 
L 2834 2853 
Q 2591 2978 2328 3040 
Q 2066 3103 1784 3103 
Q 1356 3103 1142 2972 
Q 928 2841 928 2578 
Q 928 2378 1081 2264 
Q 1234 2150 1697 2047 
L 1894 2003 
Q 2506 1872 2764 1633 
Q 3022 1394 3022 966 
Q 3022 478 2636 193 
Q 2250 -91 1575 -91 
Q 1294 -91 989 -36 
Q 684 19 347 128 
L 347 722 
Q 666 556 975 473 
Q 1284 391 1588 391 
Q 1994 391 2212 530 
Q 2431 669 2431 922 
Q 2431 1156 2273 1281 
Q 2116 1406 1581 1522 
L 1381 1569 
Q 847 1681 609 1914 
Q 372 2147 372 2553 
Q 372 3047 722 3315 
Q 1072 3584 1716 3584 
Q 2034 3584 2315 3537 
Q 2597 3491 2834 3397 
z
" transform="scale(0.015625)"/>
      </defs>
      <use xlink:href="#DejaVuSans-44"/>
      <use xlink:href="#DejaVuSans-61" transform="translate(77.001953 0)"/>
      <use xlink:href="#DejaVuSans-69" transform="translate(138.28125 0)"/>
      <use xlink:href="#DejaVuSans-6c" transform="translate(166.064453 0)"/>
      <use xlink:href="#DejaVuSans-79" transform="translate(193.847656 0)"/>
      <use xlink:href="#DejaVuSans-20" transform="translate(253.027344 0)"/>
      <use xlink:href="#DejaVuSans-70" transform="translate(284.814453 0)"/>
      <use xlink:href="#DejaVuSans-65" transform="translate(348.291016 0)"/>
      <use xlink:href="#DejaVuSans-64" transform="translate(409.814453 0)"/>
      <use xlink:href="#DejaVuSans-65" transform="translate(473.291016 0)"/>
      <use xlink:href="#DejaVuSans-73" transform="translate(534.814453 0)"/>
      <use xlink:href="#DejaVuSans-74" transform="translate(586.914062 0)"/>
      <use xlink:href="#DejaVuSans-72" transform="translate(626.123047 0)"/>
      <use xlink:href="#DejaVuSans-69" transform="translate(667.236328 0)"/>
      <use xlink:href="#DejaVuSans-61" transform="translate(695.019531 0)"/>
      <use xlink:href="#DejaVuSans-6e" transform="translate(756.298828 0)"/>
      <use xlink:href="#DejaVuSans-20" transform="translate(819.677734 0)"/>
      <use xlink:href="#DejaVuSans-63" transform="translate(851.464844 0)"/>
      <use xlink:href="#DejaVuSans-6f" transform="translate(906.445312 0)"/>
      <use xlink:href="#DejaVuSans-75" transform="translate(967.626953 0)"/>
      <use xlink:href="#DejaVuSans-6e" transform="translate(1031.005859 0)"/>
      <use xlink:href="#DejaVuSans-74" transform="translate(1094.384766 0)"/>
     </g>
    </g>
   </g>
   <g id="line2d_37">
    <path d="M 57.017792 269.584354 
L 58.771834 279.47712 
L 60.525876 266.462302 
L 62.279918 282.14779 
L 64.03396 343.76129 
L 65.788002 340.263088 
L 67.542044 214.967259 
L 69.296086 206.992862 
L 71.050128 225.950862 
L 72.80417 202.516668 
L 74.558212 205.187338 
L 76.312254 336.50158 
L 78.066296 339.435556 
L 79.820338 199.469846 
L 81.57438 189.689925 
L 83.328422 196.68633 
L 85.082464 186.680719 
L 86.836506 181.602683 
L 88.590548 304.002151 
L 90.34459 340.526393 
L 92.098632 178.292557 
L 93.852674 169.753934 
L 95.606716 183.107287 
L 97.360758 166.067656 
L 99.1148 222.452659 
L 100.868842 266.988913 
L 102.622884 341.015389 
L 104.376926 347.635643 
L 106.130968 164.224517 
L 107.88501 170.581465 
L 109.639052 162.719914 
L 111.393094 174.98243 
L 113.147136 330.407937 
L 114.901178 343.272294 
L 116.65522 204.021271 
L 118.409262 165.315354 
L 120.163304 163.622676 
L 121.917346 154.783132 
L 123.671388 177.841176 
L 125.42543 311.562782 
L 127.179472 335.711663 
L 128.933514 179.571469 
L 130.687556 162.757529 
L 132.441598 160.199703 
L 134.19564 145.379362 
L 135.949682 167.685104 
L 137.703724 316.527973 
L 139.457766 320.06379 
L 141.211808 175.43381 
L 142.96585 158.920791 
L 144.719892 162.832759 
L 146.473934 159.974013 
L 148.227976 191.044068 
L 149.982018 306.748052 
L 151.73606 334.43275 
L 153.490102 156.362965 
L 155.244144 165.616275 
L 156.998186 157.754723 
L 158.752228 157.340957 
L 160.50627 167.760334 
L 162.260312 330.445552 
L 164.014354 348.162254 
L 165.768396 165.50343 
L 167.522438 167.647489 
L 169.27648 172.9136 
L 171.030522 158.920791 
L 172.784564 186.041263 
L 174.538606 326.307893 
L 176.292648 333.605218 
L 178.04669 329.46756 
L 179.800732 196.347795 
L 181.554774 172.274144 
L 183.308816 163.585061 
L 185.062858 159.635477 
L 186.8169 312.95454 
L 188.570942 335.410742 
L 190.324984 169.189707 
L 192.079026 182.430215 
L 193.833068 188.072477 
L 195.58711 171.935608 
L 197.341152 163.547445 
L 199.095194 322.960151 
L 200.849236 322.696846 
L 202.603278 175.43381 
L 204.35732 163.321755 
L 206.111362 161.516231 
L 207.865404 154.444596 
L 209.619446 172.98883 
L 211.373488 316.001361 
L 213.12753 335.109822 
L 214.881572 169.114477 
L 216.635614 144.062834 
L 218.389656 146.4702 
L 220.143698 127.73789 
L 221.89774 146.206894 
L 223.651782 309.682028 
L 225.405824 195.934029 
L 227.159866 153.88037 
L 228.913908 157.717108 
L 230.66795 160.387779 
L 232.421992 156.137275 
L 234.176034 161.629076 
L 235.930076 318.972953 
L 237.684118 314.534373 
L 239.43816 163.4346 
L 241.192202 159.033636 
L 242.946244 153.203299 
L 244.700286 180.09808 
L 246.454328 300.992945 
L 248.20837 311.449937 
L 249.962412 327.060195 
L 251.716454 355.271504 
L 253.470496 216.058096 
L 255.224538 204.924033 
L 256.97858 350.231083 
L 258.732622 217.78839 
L 260.486664 329.881326 
L 262.240706 345.341123 
L 263.994748 165.202509 
L 265.74879 147.034426 
L 267.502832 155.196898 
L 269.256874 162.418993 
L 271.010916 137.893961 
L 272.764958 317.91973 
L 274.519 325.555592 
L 276.273042 149.253715 
L 278.027084 134.320529 
L 279.781126 148.501414 
L 281.535168 139.549025 
L 283.28921 185.138501 
L 285.043252 325.292286 
L 286.797294 337.517187 
L 288.551336 153.278529 
L 290.305378 138.984799 
L 292.05942 157.152882 
L 293.813462 139.849946 
L 295.567504 153.993215 
L 297.321546 312.014163 
L 299.075588 337.404341 
L 300.82963 151.51062 
L 302.583672 147.523422 
L 304.337714 94.222855 
L 306.091756 138.345342 
L 307.845798 168.399791 
L 309.59984 327.962957 
L 311.353882 324.916135 
L 313.107924 171.220922 
L 314.861966 145.492207 
L 316.616008 163.20891 
L 318.37005 151.999616 
L 320.124092 157.905184 
L 321.878134 338.645639 
L 323.632176 351.058615 
L 325.386218 202.892818 
L 327.14026 150.194092 
L 328.894302 147.598652 
L 330.648344 143.498608 
L 332.402386 157.980414 
L 334.156428 316.904123 
L 335.91047 335.786893 
L 337.664512 339.962167 
L 339.418554 146.4702 
L 341.172596 174.418203 
L 342.926638 139.36095 
L 344.68068 136.577434 
L 346.434722 314.007762 
L 348.188764 342.181457 
L 349.942806 152.902378 
L 351.696848 149.479406 
L 353.45089 152.338152 
L 355.204932 162.268533 
L 356.958974 160.613469 
L 358.713016 331.009778 
L 360.467058 327.624421 
L 362.2211 150.720703 
L 363.975142 146.92158 
L 365.729184 141.918775 
L 367.483226 122.810315 
L 369.237268 75.791466 
L 370.99131 299.112191 
L 372.745352 263.641171 
L 374.499394 148.99041 
L 376.253436 147.485807 
L 378.007478 150.908779 
L 379.76152 146.92158 
L 381.515562 157.340957 
L 383.269604 305.356294 
L 385.023646 346.35673 
L 386.777688 172.274144 
L 388.53173 149.14087 
L 390.285772 165.541045 
L 392.039814 155.610664 
L 393.793856 186.304568 
L 395.547898 309.531568 
L 397.30194 340.676853 
L 399.055982 160.274934 
L 400.810024 144.852751 
L 402.564066 152.413382 
L 404.318108 125.405755 
L 406.07215 152.262922 
L 407.826192 318.483957 
L 409.580234 329.994171 
L 411.334276 138.082037 
L 413.088318 147.711497 
L 414.84236 135.411366 
L 416.596402 131.837934 
L 418.350444 166.330961 
L 420.104486 315.39952 
L 421.858528 330.144631 
L 423.61257 147.260116 
L 425.366612 142.18208 
L 427.120654 140.677477 
L 428.874696 147.184886 
L 430.628738 121.004791 
L 432.38278 309.155417 
L 434.136822 329.241869 
L 435.890864 147.297731 
L 437.644906 128.264501 
L 439.398948 144.627061 
L 441.15299 144.815136 
L 442.907032 174.643894 
L 444.661074 320.853707 
L 446.415116 337.592417 
L 448.169158 168.324561 
L 449.9232 147.598652 
L 451.677242 137.555426 
L 453.431284 130.671866 
L 455.185326 155.084053 
L 456.939368 315.813286 
L 458.69341 324.80329 
L 460.447452 146.018819 
L 462.201494 139.51141 
L 463.955536 136.238898 
L 465.709578 86.474148 
L 467.46362 134.809525 
L 469.217662 284.028544 
L 470.971704 342.068611 
L 472.725746 157.002422 
L 474.479788 149.178485 
L 476.23383 166.067656 
L 477.987872 137.781116 
L 479.741914 191.495449 
L 481.495956 323.261072 
L 483.249998 344.400746 
L 485.00404 154.783132 
L 486.758082 140.376557 
L 488.512124 139.398565 
L 490.266166 137.179275 
L 492.020208 152.225307 
L 493.77425 334.696056 
L 495.528292 349.930163 
L 497.282334 168.1741 
L 499.036376 152.375767 
L 500.790418 158.6951 
L 502.54446 162.005227 
L 504.298502 165.841965 
L 506.052544 332.852917 
L 507.806586 352.450373 
L 509.560628 174.117283 
L 511.31467 165.127279 
L 513.068712 164.525438 
L 514.822754 159.447402 
L 516.576796 172.123684 
L 518.330838 337.216266 
L 520.08488 341.767691 
L 521.838922 160.049243 
L 523.592964 153.504219 
L 525.347006 169.942009 
L 527.101048 134.69668 
L 528.85509 310.960941 
L 530.609132 340.601623 
L 532.363174 352.600833 
L 534.117216 196.53587 
L 535.871258 148.802334 
L 537.6253 133.192077 
L 539.379342 161.102465 
L 541.133384 165.992426 
L 542.887426 308.704036 
L 544.641468 271.427493 
L 546.39551 189.42662 
L 548.149552 162.531838 
L 549.903594 165.352969 
L 551.657636 176.148497 
L 553.411678 173.628287 
L 555.16572 313.067385 
L 556.919762 340.338318 
L 558.673804 169.227322 
L 560.427846 161.403386 
L 562.181888 145.040826 
L 563.93593 174.004437 
L 565.689972 166.782342 
L 567.444014 332.063 
L 569.198056 352.826524 
L 570.952098 177.765945 
L 572.70614 161.027235 
L 574.460182 145.529823 
L 576.214224 153.541834 
L 577.968266 185.928418 
L 579.722308 331.799695 
L 581.47635 349.290707 
L 583.230392 162.418993 
L 584.984434 151.172084 
L 586.738476 155.046438 
L 588.492518 154.519826 
L 590.24656 186.718334 
L 592.000602 328.715258 
L 593.754644 352.187068 
L 595.508686 229.373834 
L 597.262728 333.266683 
L 599.01677 192.811977 
L 600.770812 162.644684 
L 602.524854 172.650295 
L 604.278896 304.491147 
L 606.032938 347.485183 
L 607.78698 140.940783 
L 609.541022 159.673092 
L 611.295064 150.795934 
L 613.049106 160.538239 
L 614.803148 142.03162 
L 616.55719 318.258266 
L 618.311232 345.792504 
L 620.065274 145.642668 
L 621.819316 150.607858 
L 623.573358 146.507815 
L 625.3274 165.72912 
L 627.081442 118.33412 
L 628.835484 303.588385 
L 630.589526 319.8381 
L 632.343568 163.096065 
L 634.09761 154.707902 
L 635.851652 145.642668 
L 637.605694 141.655469 
L 639.359736 177.6531 
L 641.113778 293.432314 
L 642.86782 347.485183 
L 644.621862 197.513862 
L 646.375904 182.204525 
L 648.129946 162.531838 
L 649.883988 174.907199 
L 651.63803 192.548672 
L 653.392072 323.938143 
L 655.146114 341.278695 
L 656.900157 150.194092 
L 658.654199 142.821537 
L 660.408241 152.563842 
L 662.162283 158.46941 
L 663.916325 148.614259 
L 665.670367 323.750068 
L 667.424409 350.381544 
L 669.178451 147.636267 
L 670.932493 136.915969 
L 672.686535 96.028378 
L 674.440577 142.671077 
L 676.194619 172.198914 
L 677.948661 343.535599 
L 679.702703 348.049409 
L 681.456745 249.723592 
L 683.210787 274.436699 
L 684.964829 354.030206 
L 686.718871 355.7605 
L 688.472913 290.272647 
L 690.226955 342.595222 
L 691.980997 334.620826 
L 693.735039 294.635996 
L 695.489081 227.49308 
L 695.489081 227.49308 
" clip-path="url(#p7251f2d8a8)" style="fill: none; stroke: #0d6efc; stroke-opacity: 0.8; stroke-width: 2.5; stroke-linecap: square"/>
   </g>
   <g id="line2d_38">
    <path d="M 57.017792 101.67064 
L 58.771834 322.884921 
L 60.525876 335.335512 
L 62.279918 346.507191 
L 64.03396 353.052214 
L 65.788002 336.012584 
L 67.542044 296.479135 
L 69.296086 298.058969 
L 71.050128 295.839679 
L 72.80417 306.898512 
L 74.558212 328.903334 
L 76.312254 322.43354 
L 78.066296 293.244239 
L 79.820338 273.157786 
L 81.57438 291.664405 
L 83.328422 274.700004 
L 85.082464 296.855286 
L 86.836506 311.675627 
L 88.590548 337.667647 
L 90.34459 290.498338 
L 92.098632 262.926485 
L 93.852674 269.621969 
L 95.606716 278.423897 
L 97.360758 302.234242 
L 99.1148 324.389524 
L 100.868842 329.730865 
L 102.622884 353.202675 
L 104.376926 277.709211 
L 106.130968 289.4075 
L 107.88501 287.376286 
L 109.639052 301.10579 
L 111.393094 322.132619 
L 113.147136 350.306314 
L 114.901178 306.033365 
L 116.65522 273.910088 
L 118.409262 271.577953 
L 120.163304 275.903687 
L 121.917346 197.476247 
L 123.671388 194.39181 
L 125.42543 339.435556 
L 127.179472 286.6616 
L 128.933514 263.641171 
L 130.687556 281.545949 
L 132.441598 285.871683 
L 134.19564 290.724028 
L 135.949682 335.410742 
L 137.703724 350.532004 
L 139.457766 289.445116 
L 141.211808 267.7036 
L 142.96585 272.781635 
L 144.719892 275.076155 
L 146.473934 285.683608 
L 148.227976 326.495969 
L 149.982018 339.397941 
L 151.73606 290.385492 
L 153.490102 267.590755 
L 155.244144 267.85406 
L 156.998186 267.139374 
L 158.752228 291.062564 
L 160.50627 248.707985 
L 162.260312 339.736476 
L 164.014354 288.843274 
L 165.768396 270.487116 
L 167.522438 275.565151 
L 169.27648 278.649588 
L 171.030522 291.927711 
L 172.784564 330.520782 
L 174.538606 339.02179 
L 176.292648 348.876941 
L 178.04669 262.700794 
L 179.800732 262.9641 
L 181.554774 253.108949 
L 183.308816 283.088167 
L 185.062858 305.205834 
L 186.8169 350.231083 
L 188.570942 298.021354 
L 190.324984 253.108949 
L 192.079026 270.37427 
L 193.833068 277.10737 
L 195.58711 302.196627 
L 197.341152 301.406711 
L 199.095194 325.781282 
L 200.849236 283.878084 
L 202.603278 259.277822 
L 204.35732 271.540338 
L 206.111362 244.607941 
L 207.865404 245.774009 
L 209.619446 290.009342 
L 211.373488 345.453968 
L 213.12753 288.768044 
L 214.881572 256.870457 
L 216.635614 259.804433 
L 218.389656 276.956909 
L 220.143698 297.193822 
L 221.89774 305.243449 
L 223.651782 78.763057 
L 225.405824 288.429508 
L 227.159866 266.951298 
L 228.913908 279.176199 
L 230.66795 272.706405 
L 232.421992 294.861687 
L 234.176034 327.774881 
L 235.930076 341.730076 
L 237.684118 289.858881 
L 239.43816 263.152175 
L 241.192202 278.649588 
L 242.946244 286.398294 
L 244.700286 296.403905 
L 246.454328 320.778476 
L 248.20837 321.906929 
L 249.962412 353.842131 
L 251.716454 297.231437 
L 253.470496 290.611183 
L 255.224538 291.927711 
L 256.97858 350.043008 
L 258.732622 312.691234 
L 260.486664 330.972163 
L 262.240706 292.191016 
L 263.994748 273.985318 
L 265.74879 269.095358 
L 267.502832 248.59514 
L 269.256874 280.154191 
L 271.010916 334.395135 
L 272.764958 347.522798 
L 274.519 286.623985 
L 276.273042 249.685977 
L 278.027084 289.858881 
L 279.781126 276.580758 
L 281.535168 299.826877 
L 283.28921 308.13981 
L 285.043252 343.949365 
L 286.797294 295.651604 
L 288.551336 266.951298 
L 290.305378 270.524731 
L 292.05942 275.527536 
L 293.813462 297.419512 
L 295.567504 315.850901 
L 297.321546 348.312714 
L 299.075588 289.670806 
L 300.82963 263.11456 
L 302.583672 279.70281 
L 304.337714 281.019338 
L 306.091756 305.581984 
L 307.845798 277.55875 
L 309.59984 335.260282 
L 311.353882 300.992945 
L 313.107924 285.307457 
L 314.861966 286.210219 
L 316.616008 276.242223 
L 318.37005 262.512719 
L 320.124092 335.147437 
L 321.878134 357.942175 
L 323.632176 343.874135 
L 325.386218 299.262651 
L 327.14026 281.99733 
L 328.894302 255.817235 
L 330.648344 308.741651 
L 332.402386 381.75252 
L 334.156428 347.409953 
L 335.91047 361.666068 
L 337.664512 288.993735 
L 339.418554 282.373481 
L 341.172596 272.255024 
L 342.926638 302.986544 
L 344.68068 345.190663 
L 346.434722 382.617667 
L 348.188764 310.095794 
L 349.942806 280.906493 
L 351.696848 285.721223 
L 353.45089 293.84608 
L 355.204932 378.743314 
L 356.958974 305.732445 
L 358.713016 324.239064 
L 360.467058 307.951734 
L 362.2211 293.319469 
L 363.975142 319.8381 
L 365.729184 290.385492 
L 367.483226 301.782861 
L 369.237268 308.13981 
L 370.99131 349.027401 
L 372.745352 382.655282 
L 374.499394 280.041346 
L 376.253436 325.517976 
L 378.007478 374.56804 
L 379.76152 190.855993 
L 381.515562 66.011545 
L 383.269604 141.617854 
L 385.023646 295.162608 
L 386.777688 291.70202 
L 388.53173 289.219425 
L 390.285772 277.596366 
L 392.039814 276.844064 
L 393.793856 301.331481 
L 395.547898 332.740072 
L 397.30194 300.203028 
L 399.055982 281.771639 
L 400.810024 280.944108 
L 402.564066 278.160592 
L 404.318108 288.504739 
L 406.07215 340.263088 
L 407.826192 349.215476 
L 409.580234 286.623985 
L 411.334276 271.088957 
L 413.088318 271.164187 
L 414.84236 275.677997 
L 416.596402 271.878874 
L 418.350444 318.446342 
L 420.104486 338.006183 
L 421.858528 301.519556 
L 423.61257 272.4431 
L 425.366612 281.696409 
L 427.120654 271.615568 
L 428.874696 297.569973 
L 430.628738 326.270278 
L 432.38278 332.025385 
L 434.136822 302.610393 
L 435.890864 381.639675 
L 437.644906 292.454322 
L 439.398948 287.376286 
L 441.15299 301.895707 
L 442.907032 324.539984 
L 444.661074 345.529199 
L 446.415116 295.538758 
L 448.169158 287.714822 
L 449.9232 289.068965 
L 451.677242 280.417497 
L 453.431284 288.730429 
L 455.185326 329.204254 
L 456.939368 337.818107 
L 458.69341 295.952524 
L 460.447452 279.815655 
L 462.201494 271.954104 
L 463.955536 275.753227 
L 465.709578 297.005746 
L 467.46362 322.28308 
L 469.217662 321.305088 
L 470.971704 294.598381 
L 472.725746 295.162608 
L 474.479788 292.191016 
L 476.23383 273.270631 
L 477.987872 312.841695 
L 479.741914 339.510786 
L 481.495956 348.80171 
L 483.249998 302.760854 
L 485.00404 285.307457 
L 486.758082 288.768044 
L 488.512124 303.212234 
L 490.266166 300.165413 
L 492.020208 331.724465 
L 493.77425 350.532004 
L 495.528292 298.096584 
L 497.282334 290.084572 
L 499.036376 286.623985 
L 500.790418 296.44152 
L 502.54446 296.591981 
L 504.298502 335.674048 
L 506.052544 342.106226 
L 507.806586 293.695619 
L 509.560628 288.880889 
L 511.31467 278.912893 
L 513.068712 278.461512 
L 514.822754 294.786457 
L 516.576796 325.292286 
L 518.330838 349.591627 
L 520.08488 298.247044 
L 521.838922 281.207413 
L 523.592964 289.482731 
L 525.347006 290.724028 
L 527.101048 337.592417 
L 528.85509 336.952961 
L 530.609132 344.024595 
L 532.363174 294.635996 
L 534.117216 280.831262 
L 535.871258 283.802854 
L 537.6253 293.319469 
L 539.379342 292.642397 
L 541.133384 321.380318 
L 542.887426 346.996187 
L 544.641468 298.171814 
L 546.39551 277.144985 
L 548.149552 270.37427 
L 549.903594 281.433104 
L 551.657636 291.589175 
L 553.411678 317.69404 
L 555.16572 346.2815 
L 556.919762 296.704826 
L 558.673804 272.59356 
L 560.427846 279.326659 
L 562.181888 276.242223 
L 563.93593 286.360679 
L 565.689972 276.543143 
L 567.444014 335.147437 
L 569.198056 311.374707 
L 570.952098 277.897286 
L 572.70614 304.152611 
L 574.460182 288.805659 
L 576.214224 291.175409 
L 577.968266 253.673175 
L 579.722308 358.28071 
L 581.47635 302.723238 
L 583.230392 276.204608 
L 584.984434 279.47712 
L 586.738476 281.094568 
L 588.492518 206.278175 
L 590.24656 231.367433 
L 592.000602 335.862123 
L 593.754644 330.332707 
L 595.508686 273.797243 
L 597.262728 284.254235 
L 599.01677 285.307457 
L 600.770812 281.734024 
L 602.524854 255.328239 
L 604.278896 338.87133 
L 606.032938 297.156207 
L 607.78698 286.849675 
L 609.541022 271.502723 
L 611.295064 275.03854 
L 613.049106 288.730429 
L 614.803148 323.185842 
L 616.55719 344.927357 
L 618.311232 298.623195 
L 620.065274 276.994524 
L 621.819316 267.891675 
L 623.573358 270.261425 
L 625.3274 271.013727 
L 627.081442 270.261425 
L 628.835484 346.018195 
L 630.589526 296.892901 
L 632.343568 275.226616 
L 634.09761 290.347877 
L 635.851652 277.33306 
L 637.605694 294.222231 
L 639.359736 329.46756 
L 641.113778 350.343929 
L 642.86782 306.183826 
L 644.621862 271.314647 
L 646.375904 279.401889 
L 648.129946 275.489921 
L 649.883988 192.699132 
L 651.63803 221.474667 
L 653.392072 336.163044 
L 655.146114 295.162608 
L 656.900157 278.611973 
L 658.654199 269.922889 
L 660.408241 265.070544 
L 662.162283 270.035735 
L 663.916325 322.696846 
L 665.670367 341.504385 
L 667.424409 284.066159 
L 669.178451 272.555945 
L 670.932493 185.401806 
L 672.686535 287.601977 
L 674.440577 294.447921 
L 676.194619 330.031786 
L 677.948661 351.923762 
L 679.702703 312.239854 
L 681.456745 312.315084 
L 683.210787 333.605218 
L 684.964829 352.074222 
L 686.718871 347.372337 
L 688.472913 340.827314 
L 690.226955 337.479572 
L 691.980997 330.483167 
L 693.735039 332.664842 
L 695.489081 55.705013 
L 695.489081 55.705013 
" clip-path="url(#p7251f2d8a8)" style="fill: none; stroke: #83c966; stroke-opacity: 0.8; stroke-width: 2.5; stroke-linecap: square"/>
   </g>
   <g id="patch_3">
    <path d="M 55.26375 384.1975 
L 55.26375 39.3575 
" style="fill: none; stroke: #000000; stroke-width: 0.8; stroke-linejoin: miter; stroke-linecap: square"/>
   </g>
   <g id="patch_4">
    <path d="M 55.26375 384.1975 
L 704.259291 384.1975 
" style="fill: none; stroke: #000000; stroke-width: 0.8; stroke-linejoin: miter; stroke-linecap: square"/>
   </g>
   <g id="text_21">
    <!-- Pedestrian Traffic at Victoria Point -->
    <g transform="translate(244.94027 19.3575) scale(0.16 -0.16)">
     <defs>
      <path id="DejaVuSans-50" d="M 1259 4147 
L 1259 2394 
L 2053 2394 
Q 2494 2394 2734 2622 
Q 2975 2850 2975 3272 
Q 2975 3691 2734 3919 
Q 2494 4147 2053 4147 
L 1259 4147 
z
M 628 4666 
L 2053 4666 
Q 2838 4666 3239 4311 
Q 3641 3956 3641 3272 
Q 3641 2581 3239 2228 
Q 2838 1875 2053 1875 
L 1259 1875 
L 1259 0 
L 628 0 
L 628 4666 
z
" transform="scale(0.015625)"/>
      <path id="DejaVuSans-54" d="M -19 4666 
L 3928 4666 
L 3928 4134 
L 2272 4134 
L 2272 0 
L 1638 0 
L 1638 4134 
L -19 4134 
L -19 4666 
z
" transform="scale(0.015625)"/>
      <path id="DejaVuSans-56" d="M 1831 0 
L 50 4666 
L 709 4666 
L 2188 738 
L 3669 4666 
L 4325 4666 
L 2547 0 
L 1831 0 
z
" transform="scale(0.015625)"/>
     </defs>
     <use xlink:href="#DejaVuSans-50"/>
     <use xlink:href="#DejaVuSans-65" transform="translate(56.677734 0)"/>
     <use xlink:href="#DejaVuSans-64" transform="translate(118.201172 0)"/>
     <use xlink:href="#DejaVuSans-65" transform="translate(181.677734 0)"/>
     <use xlink:href="#DejaVuSans-73" transform="translate(243.201172 0)"/>
     <use xlink:href="#DejaVuSans-74" transform="translate(295.300781 0)"/>
     <use xlink:href="#DejaVuSans-72" transform="translate(334.509766 0)"/>
     <use xlink:href="#DejaVuSans-69" transform="translate(375.623047 0)"/>
     <use xlink:href="#DejaVuSans-61" transform="translate(403.40625 0)"/>
     <use xlink:href="#DejaVuSans-6e" transform="translate(464.685547 0)"/>
     <use xlink:href="#DejaVuSans-20" transform="translate(528.064453 0)"/>
     <use xlink:href="#DejaVuSans-54" transform="translate(559.851562 0)"/>
     <use xlink:href="#DejaVuSans-72" transform="translate(606.185547 0)"/>
     <use xlink:href="#DejaVuSans-61" transform="translate(647.298828 0)"/>
     <use xlink:href="#DejaVuSans-66" transform="translate(708.578125 0)"/>
     <use xlink:href="#DejaVuSans-66" transform="translate(743.783203 0)"/>
     <use xlink:href="#DejaVuSans-69" transform="translate(778.988281 0)"/>
     <use xlink:href="#DejaVuSans-63" transform="translate(806.771484 0)"/>
     <use xlink:href="#DejaVuSans-20" transform="translate(861.751953 0)"/>
     <use xlink:href="#DejaVuSans-61" transform="translate(893.539062 0)"/>
     <use xlink:href="#DejaVuSans-74" transform="translate(954.818359 0)"/>
     <use xlink:href="#DejaVuSans-20" transform="translate(994.027344 0)"/>
     <use xlink:href="#DejaVuSans-56" transform="translate(1025.814453 0)"/>
     <use xlink:href="#DejaVuSans-69" transform="translate(1091.972656 0)"/>
     <use xlink:href="#DejaVuSans-63" transform="translate(1119.755859 0)"/>
     <use xlink:href="#DejaVuSans-74" transform="translate(1174.736328 0)"/>
     <use xlink:href="#DejaVuSans-6f" transform="translate(1213.945312 0)"/>
     <use xlink:href="#DejaVuSans-72" transform="translate(1275.126953 0)"/>
     <use xlink:href="#DejaVuSans-69" transform="translate(1316.240234 0)"/>
     <use xlink:href="#DejaVuSans-61" transform="translate(1344.023438 0)"/>
     <use xlink:href="#DejaVuSans-20" transform="translate(1405.302734 0)"/>
     <use xlink:href="#DejaVuSans-50" transform="translate(1437.089844 0)"/>
     <use xlink:href="#DejaVuSans-6f" transform="translate(1493.767578 0)"/>
     <use xlink:href="#DejaVuSans-69" transform="translate(1554.949219 0)"/>
     <use xlink:href="#DejaVuSans-6e" transform="translate(1582.732422 0)"/>
     <use xlink:href="#DejaVuSans-74" transform="translate(1646.111328 0)"/>
    </g>
   </g>
   <g id="legend_1">
    <g id="patch_5">
     <path d="M 62.96375 80.449375 
L 126.15875 80.449375 
Q 128.35875 80.449375 128.35875 78.249375 
L 128.35875 47.0575 
Q 128.35875 44.8575 126.15875 44.8575 
L 62.96375 44.8575 
Q 60.76375 44.8575 60.76375 47.0575 
L 60.76375 78.249375 
Q 60.76375 80.449375 62.96375 80.449375 
z
" style="fill: #ffffff; opacity: 0.95; stroke: #cccccc; stroke-linejoin: miter"/>
    </g>
    <g id="line2d_39">
     <path d="M 65.16375 53.765781 
L 76.16375 53.765781 
L 87.16375 53.765781 
" style="fill: none; stroke: #0d6efc; stroke-opacity: 0.8; stroke-width: 2.5; stroke-linecap: square"/>
    </g>
    <g id="text_22">
     <!-- 2019 -->
     <g transform="translate(95.96375 57.615781) scale(0.11 -0.11)">
      <defs>
       <path id="DejaVuSans-31" d="M 794 531 
L 1825 531 
L 1825 4091 
L 703 3866 
L 703 4441 
L 1819 4666 
L 2450 4666 
L 2450 531 
L 3481 531 
L 3481 0 
L 794 0 
L 794 531 
z
" transform="scale(0.015625)"/>
       <path id="DejaVuSans-39" d="M 703 97 
L 703 672 
Q 941 559 1184 500 
Q 1428 441 1663 441 
Q 2288 441 2617 861 
Q 2947 1281 2994 2138 
Q 2813 1869 2534 1725 
Q 2256 1581 1919 1581 
Q 1219 1581 811 2004 
Q 403 2428 403 3163 
Q 403 3881 828 4315 
Q 1253 4750 1959 4750 
Q 2769 4750 3195 4129 
Q 3622 3509 3622 2328 
Q 3622 1225 3098 567 
Q 2575 -91 1691 -91 
Q 1453 -91 1209 -44 
Q 966 3 703 97 
z
M 1959 2075 
Q 2384 2075 2632 2365 
Q 2881 2656 2881 3163 
Q 2881 3666 2632 3958 
Q 2384 4250 1959 4250 
Q 1534 4250 1286 3958 
Q 1038 3666 1038 3163 
Q 1038 2656 1286 2365 
Q 1534 2075 1959 2075 
z
" transform="scale(0.015625)"/>
      </defs>
      <use xlink:href="#DejaVuSans-32"/>
      <use xlink:href="#DejaVuSans-30" transform="translate(63.623047 0)"/>
      <use xlink:href="#DejaVuSans-31" transform="translate(127.246094 0)"/>
      <use xlink:href="#DejaVuSans-39" transform="translate(190.869141 0)"/>
     </g>
    </g>
    <g id="line2d_40">
     <path d="M 65.16375 69.911719 
L 76.16375 69.911719 
L 87.16375 69.911719 
" style="fill: none; stroke: #83c966; stroke-opacity: 0.8; stroke-width: 2.5; stroke-linecap: square"/>
    </g>
    <g id="text_23">
     <!-- 2025 -->
     <g transform="translate(95.96375 73.761719) scale(0.11 -0.11)">
      <defs>
       <path id="DejaVuSans-35" d="M 691 4666 
L 3169 4666 
L 3169 4134 
L 1269 4134 
L 1269 2991 
Q 1406 3038 1543 3061 
Q 1681 3084 1819 3084 
Q 2600 3084 3056 2656 
Q 3513 2228 3513 1497 
Q 3513 744 3044 326 
Q 2575 -91 1722 -91 
Q 1428 -91 1123 -41 
Q 819 9 494 109 
L 494 744 
Q 775 591 1075 516 
Q 1375 441 1709 441 
Q 2250 441 2565 725 
Q 2881 1009 2881 1497 
Q 2881 1984 2565 2268 
Q 2250 2553 1709 2553 
Q 1456 2553 1204 2497 
Q 953 2441 691 2322 
L 691 4666 
z
" transform="scale(0.015625)"/>
      </defs>
      <use xlink:href="#DejaVuSans-32"/>
      <use xlink:href="#DejaVuSans-30" transform="translate(63.623047 0)"/>
      <use xlink:href="#DejaVuSans-32" transform="translate(127.246094 0)"/>
      <use xlink:href="#DejaVuSans-35" transform="translate(190.869141 0)"/>
     </g>
    </g>
   </g>
  </g>
 </g>
 <defs>
  <clipPath id="p7251f2d8a8">
   <rect x="55.26375" y="39.3575" width="648.995541" height="344.84"/>
  </clipPath>
 </defs>
</svg>
