<?xml version="1.0" encoding="utf-8" standalone="no"?>
<!DOCTYPE svg PUBLIC "-//W3C//DTD SVG 1.1//EN"
  "http://www.w3.org/Graphics/SVG/1.1/DTD/svg11.dtd">
<svg xmlns:xlink="http://www.w3.org/1999/xlink" width="855.67625pt" height="423.689375pt" viewBox="0 0 855.67625 423.689375" xmlns="http://www.w3.org/2000/svg" version="1.1">
 <metadata>
  <rdf:RDF xmlns:dc="http://purl.org/dc/elements/1.1/" xmlns:cc="http://creativecommons.org/ns#" xmlns:rdf="http://www.w3.org/1999/02/22-rdf-syntax-ns#">
   <cc:Work>
    <dc:type rdf:resource="http://purl.org/dc/dcmitype/StillImage"/>
    <dc:date>2026-01-22T12:48:44.557488</dc:date>
    <dc:format>image/svg+xml</dc:format>
    <dc:creator>
     <cc:Agent>
      <dc:title>Matplotlib v3.10.8, https://matplotlib.org/</dc:title>
     </cc:Agent>
    </dc:creator>
   </cc:Work>
  </rdf:RDF>
 </metadata>
 <defs>
  <style type="text/css">*{stroke-linejoin: round; stroke-linecap: butt}</style>
 </defs>
 <g id="figure_1">
  <g id="patch_1">
   <path d="M 0 423.689375 
L 855.67625 423.689375 
L 855.67625 0 
L 0 0 
L 0 423.689375 
z
" style="fill: none"/>
  </g>
  <g id="axes_1">
   <g id="patch_2">
    <path d="M 61.62625 384.1975 
L 848.47625 384.1975 
L 848.47625 39.3575 
L 61.62625 39.3575 
L 61.62625 384.1975 
z
" style="fill: none"/>
   </g>
   <g id="matplotlib.axis_1">
    <g id="xtick_1">
     <g id="line2d_1">
      <path d="M 61.62625 384.1975 
L 61.62625 39.3575 
" clip-path="url(#pf106f8d248)" style="fill: none; stroke-dasharray: 2.96,1.28; stroke-dashoffset: 0; stroke: #b0b0b0; stroke-opacity: 0.3; stroke-width: 0.8"/>
     </g>
     <g id="line2d_2">
      <defs>
       <path id="m9da58a6c34" d="M 0 0 
L 0 3.5 
" style="stroke: #000000; stroke-width: 0.8"/>
      </defs>
      <g>
       <use xlink:href="#m9da58a6c34" x="61.62625" y="384.1975" style="stroke: #000000; stroke-width: 0.8"/>
      </g>
     </g>
     <g id="text_1">
      <!-- Jan -->
      <g transform="translate(53.918438 398.795937) scale(0.1 -0.1)">
       <defs>
        <path id="DejaVuSans-4a" d="M 628 4666 
L 1259 4666 
L 1259 325 
Q 1259 -519 939 -900 
Q 619 -1281 -91 -1281 
L -331 -1281 
L -331 -750 
L -134 -750 
Q 284 -750 456 -515 
Q 628 -281 628 325 
L 628 4666 
z
" transform="scale(0.015625)"/>
        <path id="DejaVuSans-61" d="M 2194 1759 
Q 1497 1759 1228 1600 
Q 959 1441 959 1056 
Q 959 750 1161 570 
Q 1363 391 1709 391 
Q 2188 391 2477 730 
Q 2766 1069 2766 1631 
L 2766 1759 
L 2194 1759 
z
M 3341 1997 
L 3341 0 
L 2766 0 
L 2766 531 
Q 2569 213 2275 61 
Q 1981 -91 1556 -91 
Q 1019 -91 701 211 
Q 384 513 384 1019 
Q 384 1609 779 1909 
Q 1175 2209 1959 2209 
L 2766 2209 
L 2766 2266 
Q 2766 2663 2505 2880 
Q 2244 3097 1772 3097 
Q 1472 3097 1187 3025 
Q 903 2953 641 2809 
L 641 3341 
Q 956 3463 1253 3523 
Q 1550 3584 1831 3584 
Q 2591 3584 2966 3190 
Q 3341 2797 3341 1997 
z
" transform="scale(0.015625)"/>
        <path id="DejaVuSans-6e" d="M 3513 2113 
L 3513 0 
L 2938 0 
L 2938 2094 
Q 2938 2591 2744 2837 
Q 2550 3084 2163 3084 
Q 1697 3084 1428 2787 
Q 1159 2491 1159 1978 
L 1159 0 
L 581 0 
L 581 3500 
L 1159 3500 
L 1159 2956 
Q 1366 3272 1645 3428 
Q 1925 3584 2291 3584 
Q 2894 3584 3203 3211 
Q 3513 2838 3513 2113 
z
" transform="scale(0.015625)"/>
       </defs>
       <use xlink:href="#DejaVuSans-4a"/>
       <use xlink:href="#DejaVuSans-61" transform="translate(29.492188 0)"/>
       <use xlink:href="#DejaVuSans-6e" transform="translate(90.771484 0)"/>
      </g>
     </g>
    </g>
    <g id="xtick_2">
     <g id="line2d_3">
      <path d="M 127.55152 384.1975 
L 127.55152 39.3575 
" clip-path="url(#pf106f8d248)" style="fill: none; stroke-dasharray: 2.96,1.28; stroke-dashoffset: 0; stroke: #b0b0b0; stroke-opacity: 0.3; stroke-width: 0.8"/>
     </g>
     <g id="line2d_4">
      <g>
       <use xlink:href="#m9da58a6c34" x="127.55152" y="384.1975" style="stroke: #000000; stroke-width: 0.8"/>
      </g>
     </g>
     <g id="text_2">
      <!-- Feb -->
      <g transform="translate(118.699958 398.795937) scale(0.1 -0.1)">
       <defs>
        <path id="DejaVuSans-46" d="M 628 4666 
L 3309 4666 
L 3309 4134 
L 1259 4134 
L 1259 2759 
L 3109 2759 
L 3109 2228 
L 1259 2228 
L 1259 0 
L 628 0 
L 628 4666 
z
" transform="scale(0.015625)"/>
        <path id="DejaVuSans-65" d="M 3597 1894 
L 3597 1613 
L 953 1613 
Q 991 1019 1311 708 
Q 1631 397 2203 397 
Q 2534 397 2845 478 
Q 3156 559 3463 722 
L 3463 178 
Q 3153 47 2828 -22 
Q 2503 -91 2169 -91 
Q 1331 -91 842 396 
Q 353 884 353 1716 
Q 353 2575 817 3079 
Q 1281 3584 2069 3584 
Q 2775 3584 3186 3129 
Q 3597 2675 3597 1894 
z
M 3022 2063 
Q 3016 2534 2758 2815 
Q 2500 3097 2075 3097 
Q 1594 3097 1305 2825 
Q 1016 2553 972 2059 
L 3022 2063 
z
" transform="scale(0.015625)"/>
        <path id="DejaVuSans-62" d="M 3116 1747 
Q 3116 2381 2855 2742 
Q 2594 3103 2138 3103 
Q 1681 3103 1420 2742 
Q 1159 2381 1159 1747 
Q 1159 1113 1420 752 
Q 1681 391 2138 391 
Q 2594 391 2855 752 
Q 3116 1113 3116 1747 
z
M 1159 2969 
Q 1341 3281 1617 3432 
Q 1894 3584 2278 3584 
Q 2916 3584 3314 3078 
Q 3713 2572 3713 1747 
Q 3713 922 3314 415 
Q 2916 -91 2278 -91 
Q 1894 -91 1617 61 
Q 1341 213 1159 525 
L 1159 0 
L 581 0 
L 581 4863 
L 1159 4863 
L 1159 2969 
z
" transform="scale(0.015625)"/>
       </defs>
       <use xlink:href="#DejaVuSans-46"/>
       <use xlink:href="#DejaVuSans-65" transform="translate(52.019531 0)"/>
       <use xlink:href="#DejaVuSans-62" transform="translate(113.542969 0)"/>
      </g>
     </g>
    </g>
    <g id="xtick_3">
     <g id="line2d_5">
      <path d="M 187.096926 384.1975 
L 187.096926 39.3575 
" clip-path="url(#pf106f8d248)" style="fill: none; stroke-dasharray: 2.96,1.28; stroke-dashoffset: 0; stroke: #b0b0b0; stroke-opacity: 0.3; stroke-width: 0.8"/>
     </g>
     <g id="line2d_6">
      <g>
       <use xlink:href="#m9da58a6c34" x="187.096926" y="384.1975" style="stroke: #000000; stroke-width: 0.8"/>
      </g>
     </g>
     <g id="text_3">
      <!-- Mar -->
      <g transform="translate(177.663332 398.795937) scale(0.1 -0.1)">
       <defs>
        <path id="DejaVuSans-4d" d="M 628 4666 
L 1569 4666 
L 2759 1491 
L 3956 4666 
L 4897 4666 
L 4897 0 
L 4281 0 
L 4281 4097 
L 3078 897 
L 2444 897 
L 1241 4097 
L 1241 0 
L 628 0 
L 628 4666 
z
" transform="scale(0.015625)"/>
        <path id="DejaVuSans-72" d="M 2631 2963 
Q 2534 3019 2420 3045 
Q 2306 3072 2169 3072 
Q 1681 3072 1420 2755 
Q 1159 2438 1159 1844 
L 1159 0 
L 581 0 
L 581 3500 
L 1159 3500 
L 1159 2956 
Q 1341 3275 1631 3429 
Q 1922 3584 2338 3584 
Q 2397 3584 2469 3576 
Q 2541 3569 2628 3553 
L 2631 2963 
z
" transform="scale(0.015625)"/>
       </defs>
       <use xlink:href="#DejaVuSans-4d"/>
       <use xlink:href="#DejaVuSans-61" transform="translate(86.279297 0)"/>
       <use xlink:href="#DejaVuSans-72" transform="translate(147.558594 0)"/>
      </g>
     </g>
    </g>
    <g id="xtick_4">
     <g id="line2d_7">
      <path d="M 253.022196 384.1975 
L 253.022196 39.3575 
" clip-path="url(#pf106f8d248)" style="fill: none; stroke-dasharray: 2.96,1.28; stroke-dashoffset: 0; stroke: #b0b0b0; stroke-opacity: 0.3; stroke-width: 0.8"/>
     </g>
     <g id="line2d_8">
      <g>
       <use xlink:href="#m9da58a6c34" x="253.022196" y="384.1975" style="stroke: #000000; stroke-width: 0.8"/>
      </g>
     </g>
     <g id="text_4">
      <!-- Apr -->
      <g transform="translate(244.372196 398.795937) scale(0.1 -0.1)">
       <defs>
        <path id="DejaVuSans-41" d="M 2188 4044 
L 1331 1722 
L 3047 1722 
L 2188 4044 
z
M 1831 4666 
L 2547 4666 
L 4325 0 
L 3669 0 
L 3244 1197 
L 1141 1197 
L 716 0 
L 50 0 
L 1831 4666 
z
" transform="scale(0.015625)"/>
        <path id="DejaVuSans-70" d="M 1159 525 
L 1159 -1331 
L 581 -1331 
L 581 3500 
L 1159 3500 
L 1159 2969 
Q 1341 3281 1617 3432 
Q 1894 3584 2278 3584 
Q 2916 3584 3314 3078 
Q 3713 2572 3713 1747 
Q 3713 922 3314 415 
Q 2916 -91 2278 -91 
Q 1894 -91 1617 61 
Q 1341 213 1159 525 
z
M 3116 1747 
Q 3116 2381 2855 2742 
Q 2594 3103 2138 3103 
Q 1681 3103 1420 2742 
Q 1159 2381 1159 1747 
Q 1159 1113 1420 752 
Q 1681 391 2138 391 
Q 2594 391 2855 752 
Q 3116 1113 3116 1747 
z
" transform="scale(0.015625)"/>
       </defs>
       <use xlink:href="#DejaVuSans-41"/>
       <use xlink:href="#DejaVuSans-70" transform="translate(68.408203 0)"/>
       <use xlink:href="#DejaVuSans-72" transform="translate(131.884766 0)"/>
      </g>
     </g>
    </g>
    <g id="xtick_5">
     <g id="line2d_9">
      <path d="M 316.820845 384.1975 
L 316.820845 39.3575 
" clip-path="url(#pf106f8d248)" style="fill: none; stroke-dasharray: 2.96,1.28; stroke-dashoffset: 0; stroke: #b0b0b0; stroke-opacity: 0.3; stroke-width: 0.8"/>
     </g>
     <g id="line2d_10">
      <g>
       <use xlink:href="#m9da58a6c34" x="316.820845" y="384.1975" style="stroke: #000000; stroke-width: 0.8"/>
      </g>
     </g>
     <g id="text_5">
      <!-- May -->
      <g transform="translate(306.483345 398.795937) scale(0.1 -0.1)">
       <defs>
        <path id="DejaVuSans-79" d="M 2059 -325 
Q 1816 -950 1584 -1140 
Q 1353 -1331 966 -1331 
L 506 -1331 
L 506 -850 
L 844 -850 
Q 1081 -850 1212 -737 
Q 1344 -625 1503 -206 
L 1606 56 
L 191 3500 
L 800 3500 
L 1894 763 
L 2988 3500 
L 3597 3500 
L 2059 -325 
z
" transform="scale(0.015625)"/>
       </defs>
       <use xlink:href="#DejaVuSans-4d"/>
       <use xlink:href="#DejaVuSans-61" transform="translate(86.279297 0)"/>
       <use xlink:href="#DejaVuSans-79" transform="translate(147.558594 0)"/>
      </g>
     </g>
    </g>
    <g id="xtick_6">
     <g id="line2d_11">
      <path d="M 382.746115 384.1975 
L 382.746115 39.3575 
" clip-path="url(#pf106f8d248)" style="fill: none; stroke-dasharray: 2.96,1.28; stroke-dashoffset: 0; stroke: #b0b0b0; stroke-opacity: 0.3; stroke-width: 0.8"/>
     </g>
     <g id="line2d_12">
      <g>
       <use xlink:href="#m9da58a6c34" x="382.746115" y="384.1975" style="stroke: #000000; stroke-width: 0.8"/>
      </g>
     </g>
     <g id="text_6">
      <!-- Jun -->
      <g transform="translate(374.933615 398.795937) scale(0.1 -0.1)">
       <defs>
        <path id="DejaVuSans-75" d="M 544 1381 
L 544 3500 
L 1119 3500 
L 1119 1403 
Q 1119 906 1312 657 
Q 1506 409 1894 409 
Q 2359 409 2629 706 
Q 2900 1003 2900 1516 
L 2900 3500 
L 3475 3500 
L 3475 0 
L 2900 0 
L 2900 538 
Q 2691 219 2414 64 
Q 2138 -91 1772 -91 
Q 1169 -91 856 284 
Q 544 659 544 1381 
z
M 1991 3584 
L 1991 3584 
z
" transform="scale(0.015625)"/>
       </defs>
       <use xlink:href="#DejaVuSans-4a"/>
       <use xlink:href="#DejaVuSans-75" transform="translate(29.492188 0)"/>
       <use xlink:href="#DejaVuSans-6e" transform="translate(92.871094 0)"/>
      </g>
     </g>
    </g>
    <g id="xtick_7">
     <g id="line2d_13">
      <path d="M 446.544764 384.1975 
L 446.544764 39.3575 
" clip-path="url(#pf106f8d248)" style="fill: none; stroke-dasharray: 2.96,1.28; stroke-dashoffset: 0; stroke: #b0b0b0; stroke-opacity: 0.3; stroke-width: 0.8"/>
     </g>
     <g id="line2d_14">
      <g>
       <use xlink:href="#m9da58a6c34" x="446.544764" y="384.1975" style="stroke: #000000; stroke-width: 0.8"/>
      </g>
     </g>
     <g id="text_7">
      <!-- Jul -->
      <g transform="translate(440.511951 398.795937) scale(0.1 -0.1)">
       <defs>
        <path id="DejaVuSans-6c" d="M 603 4863 
L 1178 4863 
L 1178 0 
L 603 0 
L 603 4863 
z
" transform="scale(0.015625)"/>
       </defs>
       <use xlink:href="#DejaVuSans-4a"/>
       <use xlink:href="#DejaVuSans-75" transform="translate(29.492188 0)"/>
       <use xlink:href="#DejaVuSans-6c" transform="translate(92.871094 0)"/>
      </g>
     </g>
    </g>
    <g id="xtick_8">
     <g id="line2d_15">
      <path d="M 512.470034 384.1975 
L 512.470034 39.3575 
" clip-path="url(#pf106f8d248)" style="fill: none; stroke-dasharray: 2.96,1.28; stroke-dashoffset: 0; stroke: #b0b0b0; stroke-opacity: 0.3; stroke-width: 0.8"/>
     </g>
     <g id="line2d_16">
      <g>
       <use xlink:href="#m9da58a6c34" x="512.470034" y="384.1975" style="stroke: #000000; stroke-width: 0.8"/>
      </g>
     </g>
     <g id="text_8">
      <!-- Aug -->
      <g transform="translate(502.706753 398.795937) scale(0.1 -0.1)">
       <defs>
        <path id="DejaVuSans-67" d="M 2906 1791 
Q 2906 2416 2648 2759 
Q 2391 3103 1925 3103 
Q 1463 3103 1205 2759 
Q 947 2416 947 1791 
Q 947 1169 1205 825 
Q 1463 481 1925 481 
Q 2391 481 2648 825 
Q 2906 1169 2906 1791 
z
M 3481 434 
Q 3481 -459 3084 -895 
Q 2688 -1331 1869 -1331 
Q 1566 -1331 1297 -1286 
Q 1028 -1241 775 -1147 
L 775 -588 
Q 1028 -725 1275 -790 
Q 1522 -856 1778 -856 
Q 2344 -856 2625 -561 
Q 2906 -266 2906 331 
L 2906 616 
Q 2728 306 2450 153 
Q 2172 0 1784 0 
Q 1141 0 747 490 
Q 353 981 353 1791 
Q 353 2603 747 3093 
Q 1141 3584 1784 3584 
Q 2172 3584 2450 3431 
Q 2728 3278 2906 2969 
L 2906 3500 
L 3481 3500 
L 3481 434 
z
" transform="scale(0.015625)"/>
       </defs>
       <use xlink:href="#DejaVuSans-41"/>
       <use xlink:href="#DejaVuSans-75" transform="translate(68.408203 0)"/>
       <use xlink:href="#DejaVuSans-67" transform="translate(131.787109 0)"/>
      </g>
     </g>
    </g>
    <g id="xtick_9">
     <g id="line2d_17">
      <path d="M 578.395304 384.1975 
L 578.395304 39.3575 
" clip-path="url(#pf106f8d248)" style="fill: none; stroke-dasharray: 2.96,1.28; stroke-dashoffset: 0; stroke: #b0b0b0; stroke-opacity: 0.3; stroke-width: 0.8"/>
     </g>
     <g id="line2d_18">
      <g>
       <use xlink:href="#m9da58a6c34" x="578.395304" y="384.1975" style="stroke: #000000; stroke-width: 0.8"/>
      </g>
     </g>
     <g id="text_9">
      <!-- Sep -->
      <g transform="translate(568.970304 398.795937) scale(0.1 -0.1)">
       <defs>
        <path id="DejaVuSans-53" d="M 3425 4513 
L 3425 3897 
Q 3066 4069 2747 4153 
Q 2428 4238 2131 4238 
Q 1616 4238 1336 4038 
Q 1056 3838 1056 3469 
Q 1056 3159 1242 3001 
Q 1428 2844 1947 2747 
L 2328 2669 
Q 3034 2534 3370 2195 
Q 3706 1856 3706 1288 
Q 3706 609 3251 259 
Q 2797 -91 1919 -91 
Q 1588 -91 1214 -16 
Q 841 59 441 206 
L 441 856 
Q 825 641 1194 531 
Q 1563 422 1919 422 
Q 2459 422 2753 634 
Q 3047 847 3047 1241 
Q 3047 1584 2836 1778 
Q 2625 1972 2144 2069 
L 1759 2144 
Q 1053 2284 737 2584 
Q 422 2884 422 3419 
Q 422 4038 858 4394 
Q 1294 4750 2059 4750 
Q 2388 4750 2728 4690 
Q 3069 4631 3425 4513 
z
" transform="scale(0.015625)"/>
       </defs>
       <use xlink:href="#DejaVuSans-53"/>
       <use xlink:href="#DejaVuSans-65" transform="translate(63.476562 0)"/>
       <use xlink:href="#DejaVuSans-70" transform="translate(125 0)"/>
      </g>
     </g>
    </g>
    <g id="xtick_10">
     <g id="line2d_19">
      <path d="M 642.193953 384.1975 
L 642.193953 39.3575 
" clip-path="url(#pf106f8d248)" style="fill: none; stroke-dasharray: 2.96,1.28; stroke-dashoffset: 0; stroke: #b0b0b0; stroke-opacity: 0.3; stroke-width: 0.8"/>
     </g>
     <g id="line2d_20">
      <g>
       <use xlink:href="#m9da58a6c34" x="642.193953" y="384.1975" style="stroke: #000000; stroke-width: 0.8"/>
      </g>
     </g>
     <g id="text_10">
      <!-- Oct -->
      <g transform="translate(633.54864 398.795937) scale(0.1 -0.1)">
       <defs>
        <path id="DejaVuSans-4f" d="M 2522 4238 
Q 1834 4238 1429 3725 
Q 1025 3213 1025 2328 
Q 1025 1447 1429 934 
Q 1834 422 2522 422 
Q 3209 422 3611 934 
Q 4013 1447 4013 2328 
Q 4013 3213 3611 3725 
Q 3209 4238 2522 4238 
z
M 2522 4750 
Q 3503 4750 4090 4092 
Q 4678 3434 4678 2328 
Q 4678 1225 4090 567 
Q 3503 -91 2522 -91 
Q 1538 -91 948 565 
Q 359 1222 359 2328 
Q 359 3434 948 4092 
Q 1538 4750 2522 4750 
z
" transform="scale(0.015625)"/>
        <path id="DejaVuSans-63" d="M 3122 3366 
L 3122 2828 
Q 2878 2963 2633 3030 
Q 2388 3097 2138 3097 
Q 1578 3097 1268 2742 
Q 959 2388 959 1747 
Q 959 1106 1268 751 
Q 1578 397 2138 397 
Q 2388 397 2633 464 
Q 2878 531 3122 666 
L 3122 134 
Q 2881 22 2623 -34 
Q 2366 -91 2075 -91 
Q 1284 -91 818 406 
Q 353 903 353 1747 
Q 353 2603 823 3093 
Q 1294 3584 2113 3584 
Q 2378 3584 2631 3529 
Q 2884 3475 3122 3366 
z
" transform="scale(0.015625)"/>
        <path id="DejaVuSans-74" d="M 1172 4494 
L 1172 3500 
L 2356 3500 
L 2356 3053 
L 1172 3053 
L 1172 1153 
Q 1172 725 1289 603 
Q 1406 481 1766 481 
L 2356 481 
L 2356 0 
L 1766 0 
Q 1100 0 847 248 
Q 594 497 594 1153 
L 594 3053 
L 172 3053 
L 172 3500 
L 594 3500 
L 594 4494 
L 1172 4494 
z
" transform="scale(0.015625)"/>
       </defs>
       <use xlink:href="#DejaVuSans-4f"/>
       <use xlink:href="#DejaVuSans-63" transform="translate(78.710938 0)"/>
       <use xlink:href="#DejaVuSans-74" transform="translate(133.691406 0)"/>
      </g>
     </g>
    </g>
    <g id="xtick_11">
     <g id="line2d_21">
      <path d="M 708.119223 384.1975 
L 708.119223 39.3575 
" clip-path="url(#pf106f8d248)" style="fill: none; stroke-dasharray: 2.96,1.28; stroke-dashoffset: 0; stroke: #b0b0b0; stroke-opacity: 0.3; stroke-width: 0.8"/>
     </g>
     <g id="line2d_22">
      <g>
       <use xlink:href="#m9da58a6c34" x="708.119223" y="384.1975" style="stroke: #000000; stroke-width: 0.8"/>
      </g>
     </g>
     <g id="text_11">
      <!-- Nov -->
      <g transform="translate(698.359848 398.795937) scale(0.1 -0.1)">
       <defs>
        <path id="DejaVuSans-4e" d="M 628 4666 
L 1478 4666 
L 3547 763 
L 3547 4666 
L 4159 4666 
L 4159 0 
L 3309 0 
L 1241 3903 
L 1241 0 
L 628 0 
L 628 4666 
z
" transform="scale(0.015625)"/>
        <path id="DejaVuSans-6f" d="M 1959 3097 
Q 1497 3097 1228 2736 
Q 959 2375 959 1747 
Q 959 1119 1226 758 
Q 1494 397 1959 397 
Q 2419 397 2687 759 
Q 2956 1122 2956 1747 
Q 2956 2369 2687 2733 
Q 2419 3097 1959 3097 
z
M 1959 3584 
Q 2709 3584 3137 3096 
Q 3566 2609 3566 1747 
Q 3566 888 3137 398 
Q 2709 -91 1959 -91 
Q 1206 -91 779 398 
Q 353 888 353 1747 
Q 353 2609 779 3096 
Q 1206 3584 1959 3584 
z
" transform="scale(0.015625)"/>
        <path id="DejaVuSans-76" d="M 191 3500 
L 800 3500 
L 1894 563 
L 2988 3500 
L 3597 3500 
L 2284 0 
L 1503 0 
L 191 3500 
z
" transform="scale(0.015625)"/>
       </defs>
       <use xlink:href="#DejaVuSans-4e"/>
       <use xlink:href="#DejaVuSans-6f" transform="translate(74.804688 0)"/>
       <use xlink:href="#DejaVuSans-76" transform="translate(135.986328 0)"/>
      </g>
     </g>
    </g>
    <g id="xtick_12">
     <g id="line2d_23">
      <path d="M 771.917872 384.1975 
L 771.917872 39.3575 
" clip-path="url(#pf106f8d248)" style="fill: none; stroke-dasharray: 2.96,1.28; stroke-dashoffset: 0; stroke: #b0b0b0; stroke-opacity: 0.3; stroke-width: 0.8"/>
     </g>
     <g id="line2d_24">
      <g>
       <use xlink:href="#m9da58a6c34" x="771.917872" y="384.1975" style="stroke: #000000; stroke-width: 0.8"/>
      </g>
     </g>
     <g id="text_12">
      <!-- Dec -->
      <g transform="translate(762.24209 398.795937) scale(0.1 -0.1)">
       <defs>
        <path id="DejaVuSans-44" d="M 1259 4147 
L 1259 519 
L 2022 519 
Q 2988 519 3436 956 
Q 3884 1394 3884 2338 
Q 3884 3275 3436 3711 
Q 2988 4147 2022 4147 
L 1259 4147 
z
M 628 4666 
L 1925 4666 
Q 3281 4666 3915 4102 
Q 4550 3538 4550 2338 
Q 4550 1131 3912 565 
Q 3275 0 1925 0 
L 628 0 
L 628 4666 
z
" transform="scale(0.015625)"/>
       </defs>
       <use xlink:href="#DejaVuSans-44"/>
       <use xlink:href="#DejaVuSans-65" transform="translate(77.001953 0)"/>
       <use xlink:href="#DejaVuSans-63" transform="translate(138.525391 0)"/>
      </g>
     </g>
    </g>
    <g id="xtick_13">
     <g id="line2d_25">
      <path d="M 837.843142 384.1975 
L 837.843142 39.3575 
" clip-path="url(#pf106f8d248)" style="fill: none; stroke-dasharray: 2.96,1.28; stroke-dashoffset: 0; stroke: #b0b0b0; stroke-opacity: 0.3; stroke-width: 0.8"/>
     </g>
     <g id="line2d_26">
      <g>
       <use xlink:href="#m9da58a6c34" x="837.843142" y="384.1975" style="stroke: #000000; stroke-width: 0.8"/>
      </g>
     </g>
     <g id="text_13">
      <!-- Jan -->
      <g transform="translate(830.135329 398.795937) scale(0.1 -0.1)">
       <use xlink:href="#DejaVuSans-4a"/>
       <use xlink:href="#DejaVuSans-61" transform="translate(29.492188 0)"/>
       <use xlink:href="#DejaVuSans-6e" transform="translate(90.771484 0)"/>
      </g>
     </g>
    </g>
    <g id="text_14">
     <!-- Day of the year -->
     <g transform="translate(408.465938 413.99375) scale(0.12 -0.12)">
      <defs>
       <path id="DejaVuSans-20" transform="scale(0.015625)"/>
       <path id="DejaVuSans-66" d="M 2375 4863 
L 2375 4384 
L 1825 4384 
Q 1516 4384 1395 4259 
Q 1275 4134 1275 3809 
L 1275 3500 
L 2222 3500 
L 2222 3053 
L 1275 3053 
L 1275 0 
L 697 0 
L 697 3053 
L 147 3053 
L 147 3500 
L 697 3500 
L 697 3744 
Q 697 4328 969 4595 
Q 1241 4863 1831 4863 
L 2375 4863 
z
" transform="scale(0.015625)"/>
       <path id="DejaVuSans-68" d="M 3513 2113 
L 3513 0 
L 2938 0 
L 2938 2094 
Q 2938 2591 2744 2837 
Q 2550 3084 2163 3084 
Q 1697 3084 1428 2787 
Q 1159 2491 1159 1978 
L 1159 0 
L 581 0 
L 581 4863 
L 1159 4863 
L 1159 2956 
Q 1366 3272 1645 3428 
Q 1925 3584 2291 3584 
Q 2894 3584 3203 3211 
Q 3513 2838 3513 2113 
z
" transform="scale(0.015625)"/>
      </defs>
      <use xlink:href="#DejaVuSans-44"/>
      <use xlink:href="#DejaVuSans-61" transform="translate(77.001953 0)"/>
      <use xlink:href="#DejaVuSans-79" transform="translate(138.28125 0)"/>
      <use xlink:href="#DejaVuSans-20" transform="translate(197.460938 0)"/>
      <use xlink:href="#DejaVuSans-6f" transform="translate(229.248047 0)"/>
      <use xlink:href="#DejaVuSans-66" transform="translate(290.429688 0)"/>
      <use xlink:href="#DejaVuSans-20" transform="translate(325.634766 0)"/>
      <use xlink:href="#DejaVuSans-74" transform="translate(357.421875 0)"/>
      <use xlink:href="#DejaVuSans-68" transform="translate(396.630859 0)"/>
      <use xlink:href="#DejaVuSans-65" transform="translate(460.009766 0)"/>
      <use xlink:href="#DejaVuSans-20" transform="translate(521.533203 0)"/>
      <use xlink:href="#DejaVuSans-79" transform="translate(553.320312 0)"/>
      <use xlink:href="#DejaVuSans-65" transform="translate(612.5 0)"/>
      <use xlink:href="#DejaVuSans-61" transform="translate(674.023438 0)"/>
      <use xlink:href="#DejaVuSans-72" transform="translate(735.302734 0)"/>
     </g>
    </g>
   </g>
   <g id="matplotlib.axis_2">
    <g id="ytick_1">
     <g id="line2d_27">
      <path d="M 61.62625 368.804507 
L 848.47625 368.804507 
" clip-path="url(#pf106f8d248)" style="fill: none; stroke-dasharray: 2.96,1.28; stroke-dashoffset: 0; stroke: #b0b0b0; stroke-opacity: 0.3; stroke-width: 0.8"/>
     </g>
     <g id="line2d_28">
      <defs>
       <path id="m63127e1d6e" d="M 0 0 
L -3.5 0 
" style="stroke: #000000; stroke-width: 0.8"/>
      </defs>
      <g>
       <use xlink:href="#m63127e1d6e" x="61.62625" y="368.804507" style="stroke: #000000; stroke-width: 0.8"/>
      </g>
     </g>
     <g id="text_15">
      <!-- 0 -->
      <g transform="translate(48.26375 372.603726) scale(0.1 -0.1)">
       <defs>
        <path id="DejaVuSans-30" d="M 2034 4250 
Q 1547 4250 1301 3770 
Q 1056 3291 1056 2328 
Q 1056 1369 1301 889 
Q 1547 409 2034 409 
Q 2525 409 2770 889 
Q 3016 1369 3016 2328 
Q 3016 3291 2770 3770 
Q 2525 4250 2034 4250 
z
M 2034 4750 
Q 2819 4750 3233 4129 
Q 3647 3509 3647 2328 
Q 3647 1150 3233 529 
Q 2819 -91 2034 -91 
Q 1250 -91 836 529 
Q 422 1150 422 2328 
Q 422 3509 836 4129 
Q 1250 4750 2034 4750 
z
" transform="scale(0.015625)"/>
       </defs>
       <use xlink:href="#DejaVuSans-30"/>
      </g>
     </g>
    </g>
    <g id="ytick_2">
     <g id="line2d_29">
      <path d="M 61.62625 324.811957 
L 848.47625 324.811957 
" clip-path="url(#pf106f8d248)" style="fill: none; stroke-dasharray: 2.96,1.28; stroke-dashoffset: 0; stroke: #b0b0b0; stroke-opacity: 0.3; stroke-width: 0.8"/>
     </g>
     <g id="line2d_30">
      <g>
       <use xlink:href="#m63127e1d6e" x="61.62625" y="324.811957" style="stroke: #000000; stroke-width: 0.8"/>
      </g>
     </g>
     <g id="text_16">
      <!-- 2500 -->
      <g transform="translate(29.17625 328.611176) scale(0.1 -0.1)">
       <defs>
        <path id="DejaVuSans-32" d="M 1228 531 
L 3431 531 
L 3431 0 
L 469 0 
L 469 531 
Q 828 903 1448 1529 
Q 2069 2156 2228 2338 
Q 2531 2678 2651 2914 
Q 2772 3150 2772 3378 
Q 2772 3750 2511 3984 
Q 2250 4219 1831 4219 
Q 1534 4219 1204 4116 
Q 875 4013 500 3803 
L 500 4441 
Q 881 4594 1212 4672 
Q 1544 4750 1819 4750 
Q 2544 4750 2975 4387 
Q 3406 4025 3406 3419 
Q 3406 3131 3298 2873 
Q 3191 2616 2906 2266 
Q 2828 2175 2409 1742 
Q 1991 1309 1228 531 
z
" transform="scale(0.015625)"/>
        <path id="DejaVuSans-35" d="M 691 4666 
L 3169 4666 
L 3169 4134 
L 1269 4134 
L 1269 2991 
Q 1406 3038 1543 3061 
Q 1681 3084 1819 3084 
Q 2600 3084 3056 2656 
Q 3513 2228 3513 1497 
Q 3513 744 3044 326 
Q 2575 -91 1722 -91 
Q 1428 -91 1123 -41 
Q 819 9 494 109 
L 494 744 
Q 775 591 1075 516 
Q 1375 441 1709 441 
Q 2250 441 2565 725 
Q 2881 1009 2881 1497 
Q 2881 1984 2565 2268 
Q 2250 2553 1709 2553 
Q 1456 2553 1204 2497 
Q 953 2441 691 2322 
L 691 4666 
z
" transform="scale(0.015625)"/>
       </defs>
       <use xlink:href="#DejaVuSans-32"/>
       <use xlink:href="#DejaVuSans-35" transform="translate(63.623047 0)"/>
       <use xlink:href="#DejaVuSans-30" transform="translate(127.246094 0)"/>
       <use xlink:href="#DejaVuSans-30" transform="translate(190.869141 0)"/>
      </g>
     </g>
    </g>
    <g id="ytick_3">
     <g id="line2d_31">
      <path d="M 61.62625 280.819407 
L 848.47625 280.819407 
" clip-path="url(#pf106f8d248)" style="fill: none; stroke-dasharray: 2.96,1.28; stroke-dashoffset: 0; stroke: #b0b0b0; stroke-opacity: 0.3; stroke-width: 0.8"/>
     </g>
     <g id="line2d_32">
      <g>
       <use xlink:href="#m63127e1d6e" x="61.62625" y="280.819407" style="stroke: #000000; stroke-width: 0.8"/>
      </g>
     </g>
     <g id="text_17">
      <!-- 5000 -->
      <g transform="translate(29.17625 284.618626) scale(0.1 -0.1)">
       <use xlink:href="#DejaVuSans-35"/>
       <use xlink:href="#DejaVuSans-30" transform="translate(63.623047 0)"/>
       <use xlink:href="#DejaVuSans-30" transform="translate(127.246094 0)"/>
       <use xlink:href="#DejaVuSans-30" transform="translate(190.869141 0)"/>
      </g>
     </g>
    </g>
    <g id="ytick_4">
     <g id="line2d_33">
      <path d="M 61.62625 236.826858 
L 848.47625 236.826858 
" clip-path="url(#pf106f8d248)" style="fill: none; stroke-dasharray: 2.96,1.28; stroke-dashoffset: 0; stroke: #b0b0b0; stroke-opacity: 0.3; stroke-width: 0.8"/>
     </g>
     <g id="line2d_34">
      <g>
       <use xlink:href="#m63127e1d6e" x="61.62625" y="236.826858" style="stroke: #000000; stroke-width: 0.8"/>
      </g>
     </g>
     <g id="text_18">
      <!-- 7500 -->
      <g transform="translate(29.17625 240.626077) scale(0.1 -0.1)">
       <defs>
        <path id="DejaVuSans-37" d="M 525 4666 
L 3525 4666 
L 3525 4397 
L 1831 0 
L 1172 0 
L 2766 4134 
L 525 4134 
L 525 4666 
z
" transform="scale(0.015625)"/>
       </defs>
       <use xlink:href="#DejaVuSans-37"/>
       <use xlink:href="#DejaVuSans-35" transform="translate(63.623047 0)"/>
       <use xlink:href="#DejaVuSans-30" transform="translate(127.246094 0)"/>
       <use xlink:href="#DejaVuSans-30" transform="translate(190.869141 0)"/>
      </g>
     </g>
    </g>
    <g id="ytick_5">
     <g id="line2d_35">
      <path d="M 61.62625 192.834308 
L 848.47625 192.834308 
" clip-path="url(#pf106f8d248)" style="fill: none; stroke-dasharray: 2.96,1.28; stroke-dashoffset: 0; stroke: #b0b0b0; stroke-opacity: 0.3; stroke-width: 0.8"/>
     </g>
     <g id="line2d_36">
      <g>
       <use xlink:href="#m63127e1d6e" x="61.62625" y="192.834308" style="stroke: #000000; stroke-width: 0.8"/>
      </g>
     </g>
     <g id="text_19">
      <!-- 10000 -->
      <g transform="translate(22.81375 196.633527) scale(0.1 -0.1)">
       <defs>
        <path id="DejaVuSans-31" d="M 794 531 
L 1825 531 
L 1825 4091 
L 703 3866 
L 703 4441 
L 1819 4666 
L 2450 4666 
L 2450 531 
L 3481 531 
L 3481 0 
L 794 0 
L 794 531 
z
" transform="scale(0.015625)"/>
       </defs>
       <use xlink:href="#DejaVuSans-31"/>
       <use xlink:href="#DejaVuSans-30" transform="translate(63.623047 0)"/>
       <use xlink:href="#DejaVuSans-30" transform="translate(127.246094 0)"/>
       <use xlink:href="#DejaVuSans-30" transform="translate(190.869141 0)"/>
       <use xlink:href="#DejaVuSans-30" transform="translate(254.492188 0)"/>
      </g>
     </g>
    </g>
    <g id="ytick_6">
     <g id="line2d_37">
      <path d="M 61.62625 148.841758 
L 848.47625 148.841758 
" clip-path="url(#pf106f8d248)" style="fill: none; stroke-dasharray: 2.96,1.28; stroke-dashoffset: 0; stroke: #b0b0b0; stroke-opacity: 0.3; stroke-width: 0.8"/>
     </g>
     <g id="line2d_38">
      <g>
       <use xlink:href="#m63127e1d6e" x="61.62625" y="148.841758" style="stroke: #000000; stroke-width: 0.8"/>
      </g>
     </g>
     <g id="text_20">
      <!-- 12500 -->
      <g transform="translate(22.81375 152.640977) scale(0.1 -0.1)">
       <use xlink:href="#DejaVuSans-31"/>
       <use xlink:href="#DejaVuSans-32" transform="translate(63.623047 0)"/>
       <use xlink:href="#DejaVuSans-35" transform="translate(127.246094 0)"/>
       <use xlink:href="#DejaVuSans-30" transform="translate(190.869141 0)"/>
       <use xlink:href="#DejaVuSans-30" transform="translate(254.492188 0)"/>
      </g>
     </g>
    </g>
    <g id="ytick_7">
     <g id="line2d_39">
      <path d="M 61.62625 104.849209 
L 848.47625 104.849209 
" clip-path="url(#pf106f8d248)" style="fill: none; stroke-dasharray: 2.96,1.28; stroke-dashoffset: 0; stroke: #b0b0b0; stroke-opacity: 0.3; stroke-width: 0.8"/>
     </g>
     <g id="line2d_40">
      <g>
       <use xlink:href="#m63127e1d6e" x="61.62625" y="104.849209" style="stroke: #000000; stroke-width: 0.8"/>
      </g>
     </g>
     <g id="text_21">
      <!-- 15000 -->
      <g transform="translate(22.81375 108.648427) scale(0.1 -0.1)">
       <use xlink:href="#DejaVuSans-31"/>
       <use xlink:href="#DejaVuSans-35" transform="translate(63.623047 0)"/>
       <use xlink:href="#DejaVuSans-30" transform="translate(127.246094 0)"/>
       <use xlink:href="#DejaVuSans-30" transform="translate(190.869141 0)"/>
       <use xlink:href="#DejaVuSans-30" transform="translate(254.492188 0)"/>
      </g>
     </g>
    </g>
    <g id="ytick_8">
     <g id="line2d_41">
      <path d="M 61.62625 60.856659 
L 848.47625 60.856659 
" clip-path="url(#pf106f8d248)" style="fill: none; stroke-dasharray: 2.96,1.28; stroke-dashoffset: 0; stroke: #b0b0b0; stroke-opacity: 0.3; stroke-width: 0.8"/>
     </g>
     <g id="line2d_42">
      <g>
       <use xlink:href="#m63127e1d6e" x="61.62625" y="60.856659" style="stroke: #000000; stroke-width: 0.8"/>
      </g>
     </g>
     <g id="text_22">
      <!-- 17500 -->
      <g transform="translate(22.81375 64.655878) scale(0.1 -0.1)">
       <use xlink:href="#DejaVuSans-31"/>
       <use xlink:href="#DejaVuSans-37" transform="translate(63.623047 0)"/>
       <use xlink:href="#DejaVuSans-35" transform="translate(127.246094 0)"/>
       <use xlink:href="#DejaVuSans-30" transform="translate(190.869141 0)"/>
       <use xlink:href="#DejaVuSans-30" transform="translate(254.492188 0)"/>
      </g>
     </g>
    </g>
    <g id="text_23">
     <!-- Daily pedestrian count -->
     <g transform="translate(16.318125 279.793125) rotate(-90) scale(0.12 -0.12)">
      <defs>
       <path id="DejaVuSans-69" d="M 603 3500 
L 1178 3500 
L 1178 0 
L 603 0 
L 603 3500 
z
M 603 4863 
L 1178 4863 
L 1178 4134 
L 603 4134 
L 603 4863 
z
" transform="scale(0.015625)"/>
       <path id="DejaVuSans-64" d="M 2906 2969 
L 2906 4863 
L 3481 4863 
L 3481 0 
L 2906 0 
L 2906 525 
Q 2725 213 2448 61 
Q 2172 -91 1784 -91 
Q 1150 -91 751 415 
Q 353 922 353 1747 
Q 353 2572 751 3078 
Q 1150 3584 1784 3584 
Q 2172 3584 2448 3432 
Q 2725 3281 2906 2969 
z
M 947 1747 
Q 947 1113 1208 752 
Q 1469 391 1925 391 
Q 2381 391 2643 752 
Q 2906 1113 2906 1747 
Q 2906 2381 2643 2742 
Q 2381 3103 1925 3103 
Q 1469 3103 1208 2742 
Q 947 2381 947 1747 
z
" transform="scale(0.015625)"/>
       <path id="DejaVuSans-73" d="M 2834 3397 
L 2834 2853 
Q 2591 2978 2328 3040 
Q 2066 3103 1784 3103 
Q 1356 3103 1142 2972 
Q 928 2841 928 2578 
Q 928 2378 1081 2264 
Q 1234 2150 1697 2047 
L 1894 2003 
Q 2506 1872 2764 1633 
Q 3022 1394 3022 966 
Q 3022 478 2636 193 
Q 2250 -91 1575 -91 
Q 1294 -91 989 -36 
Q 684 19 347 128 
L 347 722 
Q 666 556 975 473 
Q 1284 391 1588 391 
Q 1994 391 2212 530 
Q 2431 669 2431 922 
Q 2431 1156 2273 1281 
Q 2116 1406 1581 1522 
L 1381 1569 
Q 847 1681 609 1914 
Q 372 2147 372 2553 
Q 372 3047 722 3315 
Q 1072 3584 1716 3584 
Q 2034 3584 2315 3537 
Q 2597 3491 2834 3397 
z
" transform="scale(0.015625)"/>
      </defs>
      <use xlink:href="#DejaVuSans-44"/>
      <use xlink:href="#DejaVuSans-61" transform="translate(77.001953 0)"/>
      <use xlink:href="#DejaVuSans-69" transform="translate(138.28125 0)"/>
      <use xlink:href="#DejaVuSans-6c" transform="translate(166.064453 0)"/>
      <use xlink:href="#DejaVuSans-79" transform="translate(193.847656 0)"/>
      <use xlink:href="#DejaVuSans-20" transform="translate(253.027344 0)"/>
      <use xlink:href="#DejaVuSans-70" transform="translate(284.814453 0)"/>
      <use xlink:href="#DejaVuSans-65" transform="translate(348.291016 0)"/>
      <use xlink:href="#DejaVuSans-64" transform="translate(409.814453 0)"/>
      <use xlink:href="#DejaVuSans-65" transform="translate(473.291016 0)"/>
      <use xlink:href="#DejaVuSans-73" transform="translate(534.814453 0)"/>
      <use xlink:href="#DejaVuSans-74" transform="translate(586.914062 0)"/>
      <use xlink:href="#DejaVuSans-72" transform="translate(626.123047 0)"/>
      <use xlink:href="#DejaVuSans-69" transform="translate(667.236328 0)"/>
      <use xlink:href="#DejaVuSans-61" transform="translate(695.019531 0)"/>
      <use xlink:href="#DejaVuSans-6e" transform="translate(756.298828 0)"/>
      <use xlink:href="#DejaVuSans-20" transform="translate(819.677734 0)"/>
      <use xlink:href="#DejaVuSans-63" transform="translate(851.464844 0)"/>
      <use xlink:href="#DejaVuSans-6f" transform="translate(906.445312 0)"/>
      <use xlink:href="#DejaVuSans-75" transform="translate(967.626953 0)"/>
      <use xlink:href="#DejaVuSans-6e" transform="translate(1031.005859 0)"/>
      <use xlink:href="#DejaVuSans-74" transform="translate(1094.384766 0)"/>
     </g>
    </g>
   </g>
   <g id="line2d_43">
    <path d="M 63.752872 79.703067 
L 65.879493 180.815544 
L 68.006115 187.695978 
L 70.132736 235.876619 
L 72.259358 204.096401 
L 74.38598 208.442865 
L 76.512601 149.052923 
L 78.639223 147.170042 
L 80.765845 137.086949 
L 82.892466 137.456487 
L 85.019088 142.594816 
L 87.145709 196.036966 
L 89.272331 218.649136 
L 91.398953 153.540163 
L 93.525574 147.082056 
L 95.652196 130.505664 
L 97.778818 129.748992 
L 99.905439 114.87951 
L 102.032061 155.440641 
L 104.158682 185.549142 
L 106.285304 128.235648 
L 108.411926 131.420709 
L 110.538547 128.270842 
L 112.665169 165.928465 
L 114.791791 175.941169 
L 116.918412 183.120753 
L 119.045034 187.766366 
L 121.171655 243.284964 
L 123.298277 169.641436 
L 125.424899 186.165038 
L 127.55152 144.864832 
L 129.678142 116.920764 
L 131.804764 200.277848 
L 133.931385 241.032546 
L 136.058007 133.004441 
L 138.184628 114.122838 
L 140.31125 160.103851 
L 142.437872 130.188917 
L 144.564493 86.495517 
L 146.691115 113.735704 
L 148.817736 103.42385 
L 150.944358 135.098486 
L 153.07098 155.792581 
L 155.197601 123.959572 
L 157.324223 111.536076 
L 159.450845 110.550643 
L 161.577466 169.606242 
L 163.704088 194.259667 
L 165.830709 141.239846 
L 167.957331 130.910395 
L 170.083953 130.47047 
L 172.210574 120.070631 
L 174.337196 93.604713 
L 176.463818 149.7744 
L 178.590439 173.9879 
L 180.717061 145.815071 
L 182.843682 125.877647 
L 184.970304 121.812736 
L 187.096926 148.612997 
L 189.223547 154.543193 
L 191.350169 232.322021 
L 193.476791 248.581667 
L 195.603412 138.61789 
L 197.730034 127.954096 
L 199.856655 137.227725 
L 201.983277 110.198703 
L 204.109899 119.947452 
L 206.23652 159.39997 
L 208.363142 155.370253 
L 210.489764 198.236593 
L 212.616385 136.453456 
L 214.743007 166.878704 
L 229.629358 186.780933 
L 233.882601 55.032045 
L 236.009223 185.566739 
L 238.135845 210.800865 
L 240.262466 146.466161 
L 242.389088 128.886738 
L 244.515709 126.68711 
L 246.642331 111.060957 
L 248.768953 122.639796 
L 250.895574 222.960406 
L 253.022196 222.062958 
L 255.148818 143.75622 
L 257.275439 129.64341 
L 259.402061 136.840591 
L 261.528682 128.622783 
L 263.655304 102.614387 
L 265.781926 168.004913 
L 267.908547 194.277264 
L 270.035169 156.813208 
L 272.161791 150.619057 
L 274.288412 148.24346 
L 276.415034 140.289607 
L 278.541655 106.679299 
L 280.668277 179.161424 
L 282.794899 210.272955 
L 284.92152 147.293221 
L 287.048142 144.600877 
L 289.174764 150.091147 
L 291.301385 133.585142 
L 293.428007 171.348347 
L 295.554628 164.151166 
L 297.68125 200.876146 
L 299.807872 212.736538 
L 301.934493 157.288328 
L 304.061115 116.05851 
L 306.187736 166.385987 
L 308.314358 160.860523 
L 310.44098 192.552756 
L 312.567601 231.477364 
L 314.694223 141.961324 
L 316.820845 136.752606 
L 318.947466 142.542025 
L 321.074088 143.809011 
L 323.200709 109.74118 
L 325.327331 198.658922 
L 327.453953 202.56546 
L 329.580574 139.79689 
L 331.707196 135.080889 
L 333.833818 141.80295 
L 335.960439 143.896996 
L 338.087061 168.568018 
L 340.213682 184.035798 
L 342.340304 226.251049 
L 344.466926 146.976474 
L 346.593547 144.671265 
L 348.720169 138.846651 
L 350.846791 125.420125 
L 352.973412 97.018535 
L 355.100034 172.50975 
L 357.226655 194.611607 
L 359.353277 154.507999 
L 361.479899 138.741069 
L 363.60652 140.676741 
L 365.733142 130.716828 
L 367.859764 142.717995 
L 369.986385 206.04967 
L 372.113007 216.273539 
L 374.239628 184.774873 
L 376.36625 157.147552 
L 378.492872 190.229949 
L 380.619493 169.518257 
L 382.746115 156.531656 
L 384.872736 189.983591 
L 386.999358 220.444032 
L 389.12598 200.788161 
L 391.252601 149.985565 
L 393.379223 135.802367 
L 395.505845 149.211296 
L 397.632466 111.113748 
L 399.759088 175.571632 
L 401.885709 191.901666 
L 404.012331 233.729782 
L 406.138953 148.947341 
L 408.265574 184.158977 
L 410.392196 139.304174 
L 412.518818 145.357548 
L 414.645439 202.354296 
L 416.772061 235.207932 
L 418.898682 150.689446 
L 421.025304 171.014003 
L 423.151926 155.933357 
L 425.278547 167.617779 
L 427.405169 117.36069 
L 429.531791 212.437388 
L 431.658412 226.761362 
L 433.785034 143.773817 
L 435.911655 146.096623 
L 438.038277 147.099653 
L 440.164899 135.978337 
L 442.29152 113.207793 
L 444.418142 244.833502 
L 446.544764 207.211073 
L 448.671385 146.395773 
L 450.798007 147.856325 
L 452.924628 141.222249 
L 455.05125 136.735009 
L 457.177872 97.300087 
L 461.431115 227.412452 
L 463.557736 145.955847 
L 465.684358 148.102684 
L 467.81098 151.164565 
L 469.937601 163.869613 
L 472.064223 161.687583 
L 474.190845 214.725001 
L 476.317466 257.591341 
L 478.444088 164.01039 
L 480.570709 161.300448 
L 482.697331 160.22703 
L 484.823953 137.720442 
L 486.950574 113.260584 
L 489.077196 180.146857 
L 491.203818 197.198369 
L 493.330439 150.777431 
L 495.457061 172.175407 
L 497.583682 141.591786 
L 499.710304 135.626396 
L 501.836926 143.580249 
L 503.963547 169.641436 
L 506.090169 186.62256 
L 508.216791 151.446117 
L 510.343412 148.489818 
L 512.470034 137.034158 
L 514.596655 136.523845 
L 516.723277 122.393438 
L 518.849899 182.592843 
L 520.97652 192.93989 
L 523.103142 147.134847 
L 525.229764 157.657865 
L 527.356385 146.237399 
L 529.483007 154.807148 
L 531.609628 173.002467 
L 533.73625 222.450093 
L 535.862872 233.184275 
L 537.989493 135.045695 
L 540.116115 139.304174 
L 542.242736 143.052339 
L 544.369358 139.409756 
L 546.49598 135.344844 
L 548.622601 139.44495 
L 550.749223 226.462213 
L 552.875845 156.707626 
L 555.002466 140.641547 
L 557.129088 145.445534 
L 559.255709 122.428632 
L 561.382331 63.531406 
L 563.508953 161.652389 
L 565.635574 195.262697 
L 567.762196 142.1021 
L 569.888818 139.673711 
L 572.015439 171.066795 
L 576.268682 102.983925 
L 578.395304 199.134041 
L 580.521926 259.474222 
L 582.648547 147.275624 
L 584.775169 132.793276 
L 586.901791 140.571159 
L 589.028412 130.945589 
L 591.155034 95.047669 
L 593.281655 203.146162 
L 595.408277 242.686665 
L 597.534899 170.750048 
L 599.66152 138.14277 
L 601.788142 126.968663 
L 603.914764 143.087533 
L 606.041385 102.192059 
L 608.168007 157.446701 
L 610.294628 234.240096 
L 612.42125 157.992209 
L 614.547872 141.239846 
L 616.674493 131.227142 
L 633.687466 108.245434 
L 635.814088 211.205597 
L 637.940709 169.32469 
L 640.067331 212.789329 
L 642.193953 161.582001 
L 644.320574 133.690724 
L 646.447196 127.81332 
L 648.573818 113.964465 
L 650.700439 142.682801 
L 652.827061 160.966105 
L 654.953682 196.723249 
L 657.080304 142.084503 
L 659.206926 158.22097 
L 661.333547 143.861802 
L 663.460169 143.439473 
L 665.586791 97.476057 
L 667.713412 145.11119 
L 669.840034 168.110495 
L 671.966655 130.752022 
L 674.093277 127.390991 
L 676.219899 157.939418 
L 678.34652 161.845956 
L 680.473142 114.545167 
L 682.599764 196.529682 
L 684.726385 215.552061 
L 686.853007 147.082056 
L 688.979628 128.605186 
L 691.10625 117.519063 
L 693.232872 127.672544 
L 695.359493 127.531767 
L 697.486115 211.135209 
L 699.612736 207.175879 
L 701.739358 137.826024 
L 703.86598 130.927992 
L 705.992601 127.602155 
L 708.119223 325.744599 
L 710.245845 358.791803 
L 712.372466 362.751132 
L 714.499088 363.402222 
L 716.625709 362.434386 
L 718.752331 363.930132 
L 720.878953 361.765699 
L 723.005574 360.938639 
L 725.132196 361.396161 
L 727.258818 362.803923 
L 729.385439 363.050281 
L 731.512061 361.325773 
L 733.638682 137.808427 
L 735.765304 140.377592 
L 740.018547 98.408699 
L 742.145169 174.621393 
L 744.271791 203.234147 
L 746.398412 134.552978 
L 748.525034 126.141603 
L 750.651655 136.31268 
L 752.778277 156.162119 
L 754.904899 80.846874 
L 757.03152 159.083224 
L 759.158142 175.043721 
L 761.284764 120.809706 
L 763.411385 133.866694 
L 765.538007 115.125868 
L 767.664628 99.851655 
L 769.79125 70.077497 
L 771.917872 159.294388 
L 774.044493 204.465938 
L 776.171115 130.927992 
L 778.297736 111.958405 
L 780.424358 115.988122 
L 782.55098 78.189724 
L 784.677601 71.045334 
L 786.804223 83.785576 
L 788.930845 147.909116 
L 791.057466 131.367918 
L 793.184088 120.8449 
L 816.576926 119.665899 
L 818.703547 110.515449 
L 820.830169 87.375368 
L 822.956791 121.724751 
L 825.083412 162.88418 
L 827.210034 90.877175 
L 831.463277 161.564404 
L 833.589899 188.523038 
L 835.71652 232.251633 
L 837.843142 106.186582 
L 837.843142 106.186582 
" clip-path="url(#pf106f8d248)" style="fill: none; stroke: #0d6efc; stroke-opacity: 0.8; stroke-width: 2.5; stroke-linecap: square"/>
   </g>
   <g id="line2d_44">
    <path d="M 63.752872 229.348124 
L 65.879493 225.687944 
L 68.006115 67.332362 
L 70.132736 286.819991 
L 72.259358 299.102711 
L 74.38598 309.344177 
L 76.512601 255.479699 
L 78.639223 289.793888 
L 80.765845 262.764865 
L 82.892466 261.797029 
L 85.019088 280.889796 
L 87.145709 305.701594 
L 89.272331 278.97172 
L 91.398953 227.869975 
L 93.525574 256.377147 
L 95.652196 230.192781 
L 97.778818 253.632012 
L 99.905439 252.171459 
L 102.032061 287.154335 
L 104.158682 255.004579 
L 106.285304 269.258165 
L 108.411926 226.004691 
L 110.538547 258.172043 
L 112.665169 276.719302 
L 114.791791 237.530739 
L 116.918412 281.241736 
L 119.045034 313.409088 
L 123.298277 252.628982 
L 125.424899 238.621754 
L 127.55152 276.332167 
L 129.678142 277.176824 
L 131.804764 309.256192 
L 133.931385 282.825468 
L 136.058007 251.291608 
L 138.184628 244.657532 
L 140.31125 276.103406 
L 142.437872 291.676769 
L 144.564493 255.497296 
L 146.691115 292.187082 
L 148.817736 284.831528 
L 150.944358 239.396023 
L 153.07098 267.16412 
L 155.197601 279.992348 
L 157.324223 277.651944 
L 159.450845 281.646467 
L 161.577466 288.77326 
L 163.704088 261.744238 
L 165.830709 241.718829 
L 167.957331 253.737594 
L 170.083953 243.971248 
L 172.210574 252.382623 
L 174.337196 256.53552 
L 176.463818 304.680966 
L 178.590439 283.564543 
L 180.717061 243.056203 
L 182.843682 256.306759 
L 184.970304 268.325523 
L 187.096926 273.710211 
L 189.223547 272.865554 
L 191.350169 292.785381 
L 193.476791 295.988039 
L 195.603412 214.988956 
L 197.730034 252.787355 
L 199.856655 261.832223 
L 201.983277 268.959016 
L 204.109899 298.768368 
L 206.23652 278.690168 
L 208.363142 305.719191 
L 210.489764 239.360829 
L 212.616385 289.441947 
L 214.743007 204.078804 
L 218.99625 269.909255 
L 221.122872 314.376924 
L 223.249493 281.505691 
L 225.376115 245.73095 
L 227.502736 251.485175 
L 229.629358 274.695645 
L 231.75598 273.692614 
L 233.882601 263.099208 
L 236.009223 278.654974 
L 238.135845 268.237538 
L 240.262466 250.499742 
L 242.389088 275.909839 
L 244.515709 231.864498 
L 246.642331 264.278209 
L 248.768953 274.431689 
L 250.895574 300.52807 
L 253.022196 309.220998 
L 255.148818 252.065877 
L 257.275439 259.949342 
L 259.402061 275.469913 
L 261.528682 253.385653 
L 263.655304 235.031962 
L 265.781926 295.829665 
L 267.908547 288.949231 
L 270.035169 260.793999 
L 272.161791 259.527013 
L 274.288412 239.906336 
L 276.415034 274.097346 
L 278.541655 276.349764 
L 280.668277 271.017867 
L 282.794899 278.303034 
L 284.92152 282.878259 
L 287.048142 250.763698 
L 289.174764 249.936638 
L 291.301385 296.287188 
L 293.428007 307.971609 
L 295.554628 271.405002 
L 297.68125 279.341258 
L 299.807872 297.360606 
L 301.934493 244.763114 
L 304.061115 273.745405 
L 306.187736 271.82733 
L 308.314358 281.611273 
L 310.44098 296.287188 
L 312.567601 271.862524 
L 314.694223 289.125201 
L 316.820845 244.939084 
L 318.947466 249.672682 
L 321.074088 276.121003 
L 323.200709 267.445672 
L 325.327331 285.728976 
L 327.453953 264.85891 
L 329.580574 246.540413 
L 331.707196 272.759972 
L 333.833818 243.267367 
L 335.960439 252.998519 
L 338.087061 246.857159 
L 340.213682 275.029988 
L 342.340304 278.303034 
L 344.466926 211.117612 
L 346.593547 305.032907 
L 463.557736 367.78388 
L 465.684358 288.808455 
L 467.81098 348.603128 
L 469.937601 335.704512 
L 472.064223 324.653584 
L 474.190845 330.460601 
L 476.317466 319.321687 
L 478.444088 294.650665 
L 480.570709 321.802867 
L 482.697331 322.489151 
L 484.823953 310.822326 
L 486.950574 322.401165 
L 489.077196 331.234869 
L 491.203818 317.245239 
L 493.330439 324.248853 
L 495.457061 321.908449 
L 497.583682 313.849014 
L 499.710304 313.585058 
L 501.836926 337.886543 
L 503.963547 334.543109 
L 506.090169 318.95215 
L 508.216791 300.967995 
L 510.343412 305.490429 
L 512.470034 326.589256 
L 514.596655 349.113442 
L 516.723277 339.892603 
L 518.849899 323.404196 
L 523.103142 368.522955 
L 525.229764 307.67246 
L 527.356385 295.477725 
L 529.483007 320.359911 
L 531.609628 320.447896 
L 533.73625 338.625618 
L 535.862872 287.365499 
L 537.989493 309.150609 
L 540.116115 316.611746 
L 542.242736 337.5522 
L 544.369358 314.359327 
L 546.49598 330.302227 
L 548.622601 327.733062 
L 550.749223 215.376091 
L 552.875845 299.771398 
L 555.002466 315.256775 
L 557.129088 284.690752 
L 559.255709 307.602072 
L 561.382331 334.631094 
L 563.508953 324.635987 
L 565.635574 308.464326 
L 567.762196 315.925462 
L 569.888818 324.776763 
L 572.015439 288.720469 
L 574.142061 318.336254 
L 576.268682 330.918123 
L 578.395304 338.467245 
L 580.521926 295.460128 
L 582.648547 292.521426 
L 584.775169 305.19128 
L 586.901791 311.209461 
L 589.028412 276.631317 
L 591.155034 262.923238 
L 593.281655 306.862997 
L 595.408277 278.637377 
L 597.534899 277.511168 
L 599.66152 293.278098 
L 601.788142 287.647051 
L 603.914764 261.286715 
L 606.041385 283.177408 
L 608.168007 297.923711 
L 610.294628 259.738178 
L 612.42125 273.006331 
L 614.547872 308.112385 
L 616.674493 284.479588 
L 618.801115 273.393465 
L 620.927736 271.580972 
L 623.054358 291.395216 
L 625.18098 288.544499 
L 627.307601 276.684108 
L 629.434223 271.880121 
L 631.560845 269.152583 
L 633.687466 305.613608 
L 635.814088 247.015532 
L 637.940709 299.771398 
L 640.067331 296.480755 
L 642.193953 260.881984 
L 644.320574 276.103406 
L 646.447196 256.957849 
L 648.573818 271.704151 
L 650.700439 270.437166 
L 652.827061 300.668846 
L 654.953682 313.109939 
L 657.080304 257.908088 
L 659.206926 250.077414 
L 661.333547 248.810428 
L 663.460169 265.650776 
L 665.586791 276.31457 
L 667.713412 285.095483 
L 669.840034 291.958321 
L 671.966655 271.915315 
L 674.093277 259.351043 
L 676.219899 269.363748 
L 678.34652 288.89644 
L 680.473142 290.462574 
L 682.599764 303.941892 
L 684.726385 305.754385 
L 686.853007 284.461991 
L 688.979628 327.785854 
L 691.10625 255.866833 
L 693.232872 299.771398 
L 695.359493 281.171348 
L 697.486115 330.689362 
L 699.612736 283.986871 
L 701.739358 264.718134 
L 703.86598 242.950621 
L 705.992601 240.293471 
L 708.119223 272.372838 
L 710.245845 264.894104 
L 712.372466 283.670125 
L 714.499088 332.325885 
L 716.625709 323.650554 
L 718.752331 279.658004 
L 720.878953 258.36561 
L 723.005574 121.337616 
L 725.132196 342.848903 
L 727.258818 312.670013 
L 729.385439 291.799948 
L 731.512061 291.975918 
L 733.638682 258.471192 
L 735.765304 230.192781 
L 737.891926 284.954707 
L 740.018547 254.564654 
L 742.145169 290.216216 
L 744.271791 306.282295 
L 746.398412 252.277041 
L 748.525034 236.844455 
L 750.651655 239.149664 
L 754.904899 270.366778 
L 757.03152 314.904835 
L 759.158142 260.142909 
L 761.284764 267.604046 
L 763.411385 284.602767 
L 765.538007 261.814626 
L 767.664628 283.670125 
L 769.79125 298.381233 
L 771.917872 300.334503 
L 774.044493 285.570603 
L 776.171115 261.638656 
L 778.297736 218.226808 
L 780.424358 264.348597 
L 782.55098 236.10538 
L 784.677601 253.368056 
L 786.804223 228.837811 
L 788.930845 258.277625 
L 791.057466 240.363859 
L 793.184088 255.444505 
L 795.310709 196.195339 
L 797.437331 215.217717 
L 799.563953 206.155252 
L 801.690574 151.780461 
L 803.817196 297.554173 
L 805.943818 217.399748 
L 808.070439 251.995489 
L 810.197061 227.430049 
L 812.323682 195.632234 
L 814.450304 175.008527 
L 816.576926 282.016005 
L 818.703547 177.683274 
L 820.830169 176.099542 
L 822.956791 234.328081 
L 825.083412 201.280878 
L 827.210034 241.789217 
L 829.336655 197.356742 
L 831.463277 245.607771 
L 833.589899 304.36422 
L 835.71652 327.09957 
L 837.843142 290.444977 
L 837.843142 290.444977 
" clip-path="url(#pf106f8d248)" style="fill: none; stroke: #83c966; stroke-opacity: 0.8; stroke-width: 2.5; stroke-linecap: square"/>
   </g>
   <g id="patch_3">
    <path d="M 61.62625 384.1975 
L 61.62625 39.3575 
" style="fill: none; stroke: #000000; stroke-width: 0.8; stroke-linejoin: miter; stroke-linecap: square"/>
   </g>
   <g id="patch_4">
    <path d="M 61.62625 384.1975 
L 848.47625 384.1975 
" style="fill: none; stroke: #000000; stroke-width: 0.8; stroke-linejoin: miter; stroke-linecap: square"/>
   </g>
   <g id="text_24">
    <!-- Pedestrian Traffic at Sandridge Bridge -->
    <g transform="translate(303.645 19.3575) scale(0.16 -0.16)">
     <defs>
      <path id="DejaVuSans-50" d="M 1259 4147 
L 1259 2394 
L 2053 2394 
Q 2494 2394 2734 2622 
Q 2975 2850 2975 3272 
Q 2975 3691 2734 3919 
Q 2494 4147 2053 4147 
L 1259 4147 
z
M 628 4666 
L 2053 4666 
Q 2838 4666 3239 4311 
Q 3641 3956 3641 3272 
Q 3641 2581 3239 2228 
Q 2838 1875 2053 1875 
L 1259 1875 
L 1259 0 
L 628 0 
L 628 4666 
z
" transform="scale(0.015625)"/>
      <path id="DejaVuSans-54" d="M -19 4666 
L 3928 4666 
L 3928 4134 
L 2272 4134 
L 2272 0 
L 1638 0 
L 1638 4134 
L -19 4134 
L -19 4666 
z
" transform="scale(0.015625)"/>
      <path id="DejaVuSans-42" d="M 1259 2228 
L 1259 519 
L 2272 519 
Q 2781 519 3026 730 
Q 3272 941 3272 1375 
Q 3272 1813 3026 2020 
Q 2781 2228 2272 2228 
L 1259 2228 
z
M 1259 4147 
L 1259 2741 
L 2194 2741 
Q 2656 2741 2882 2914 
Q 3109 3088 3109 3444 
Q 3109 3797 2882 3972 
Q 2656 4147 2194 4147 
L 1259 4147 
z
M 628 4666 
L 2241 4666 
Q 2963 4666 3353 4366 
Q 3744 4066 3744 3513 
Q 3744 3084 3544 2831 
Q 3344 2578 2956 2516 
Q 3422 2416 3680 2098 
Q 3938 1781 3938 1306 
Q 3938 681 3513 340 
Q 3088 0 2303 0 
L 628 0 
L 628 4666 
z
" transform="scale(0.015625)"/>
     </defs>
     <use xlink:href="#DejaVuSans-50"/>
     <use xlink:href="#DejaVuSans-65" transform="translate(56.677734 0)"/>
     <use xlink:href="#DejaVuSans-64" transform="translate(118.201172 0)"/>
     <use xlink:href="#DejaVuSans-65" transform="translate(181.677734 0)"/>
     <use xlink:href="#DejaVuSans-73" transform="translate(243.201172 0)"/>
     <use xlink:href="#DejaVuSans-74" transform="translate(295.300781 0)"/>
     <use xlink:href="#DejaVuSans-72" transform="translate(334.509766 0)"/>
     <use xlink:href="#DejaVuSans-69" transform="translate(375.623047 0)"/>
     <use xlink:href="#DejaVuSans-61" transform="translate(403.40625 0)"/>
     <use xlink:href="#DejaVuSans-6e" transform="translate(464.685547 0)"/>
     <use xlink:href="#DejaVuSans-20" transform="translate(528.064453 0)"/>
     <use xlink:href="#DejaVuSans-54" transform="translate(559.851562 0)"/>
     <use xlink:href="#DejaVuSans-72" transform="translate(606.185547 0)"/>
     <use xlink:href="#DejaVuSans-61" transform="translate(647.298828 0)"/>
     <use xlink:href="#DejaVuSans-66" transform="translate(708.578125 0)"/>
     <use xlink:href="#DejaVuSans-66" transform="translate(743.783203 0)"/>
     <use xlink:href="#DejaVuSans-69" transform="translate(778.988281 0)"/>
     <use xlink:href="#DejaVuSans-63" transform="translate(806.771484 0)"/>
     <use xlink:href="#DejaVuSans-20" transform="translate(861.751953 0)"/>
     <use xlink:href="#DejaVuSans-61" transform="translate(893.539062 0)"/>
     <use xlink:href="#DejaVuSans-74" transform="translate(954.818359 0)"/>
     <use xlink:href="#DejaVuSans-20" transform="translate(994.027344 0)"/>
     <use xlink:href="#DejaVuSans-53" transform="translate(1025.814453 0)"/>
     <use xlink:href="#DejaVuSans-61" transform="translate(1089.291016 0)"/>
     <use xlink:href="#DejaVuSans-6e" transform="translate(1150.570312 0)"/>
     <use xlink:href="#DejaVuSans-64" transform="translate(1213.949219 0)"/>
     <use xlink:href="#DejaVuSans-72" transform="translate(1277.425781 0)"/>
     <use xlink:href="#DejaVuSans-69" transform="translate(1318.539062 0)"/>
     <use xlink:href="#DejaVuSans-64" transform="translate(1346.322266 0)"/>
     <use xlink:href="#DejaVuSans-67" transform="translate(1409.798828 0)"/>
     <use xlink:href="#DejaVuSans-65" transform="translate(1473.275391 0)"/>
     <use xlink:href="#DejaVuSans-20" transform="translate(1534.798828 0)"/>
     <use xlink:href="#DejaVuSans-42" transform="translate(1566.585938 0)"/>
     <use xlink:href="#DejaVuSans-72" transform="translate(1635.189453 0)"/>
     <use xlink:href="#DejaVuSans-69" transform="translate(1676.302734 0)"/>
     <use xlink:href="#DejaVuSans-64" transform="translate(1704.085938 0)"/>
     <use xlink:href="#DejaVuSans-67" transform="translate(1767.5625 0)"/>
     <use xlink:href="#DejaVuSans-65" transform="translate(1831.039062 0)"/>
    </g>
   </g>
   <g id="legend_1">
    <g id="patch_5">
     <path d="M 69.32625 80.449375 
L 132.52125 80.449375 
Q 134.72125 80.449375 134.72125 78.249375 
L 134.72125 47.0575 
Q 134.72125 44.8575 132.52125 44.8575 
L 69.32625 44.8575 
Q 67.12625 44.8575 67.12625 47.0575 
L 67.12625 78.249375 
Q 67.12625 80.449375 69.32625 80.449375 
z
" style="fill: #ffffff; opacity: 0.95; stroke: #cccccc; stroke-linejoin: miter"/>
    </g>
    <g id="line2d_45">
     <path d="M 71.52625 53.765781 
L 82.52625 53.765781 
L 93.52625 53.765781 
" style="fill: none; stroke: #0d6efc; stroke-opacity: 0.8; stroke-width: 2.5; stroke-linecap: square"/>
    </g>
    <g id="text_25">
     <!-- 2019 -->
     <g transform="translate(102.32625 57.615781) scale(0.11 -0.11)">
      <defs>
       <path id="DejaVuSans-39" d="M 703 97 
L 703 672 
Q 941 559 1184 500 
Q 1428 441 1663 441 
Q 2288 441 2617 861 
Q 2947 1281 2994 2138 
Q 2813 1869 2534 1725 
Q 2256 1581 1919 1581 
Q 1219 1581 811 2004 
Q 403 2428 403 3163 
Q 403 3881 828 4315 
Q 1253 4750 1959 4750 
Q 2769 4750 3195 4129 
Q 3622 3509 3622 2328 
Q 3622 1225 3098 567 
Q 2575 -91 1691 -91 
Q 1453 -91 1209 -44 
Q 966 3 703 97 
z
M 1959 2075 
Q 2384 2075 2632 2365 
Q 2881 2656 2881 3163 
Q 2881 3666 2632 3958 
Q 2384 4250 1959 4250 
Q 1534 4250 1286 3958 
Q 1038 3666 1038 3163 
Q 1038 2656 1286 2365 
Q 1534 2075 1959 2075 
z
" transform="scale(0.015625)"/>
      </defs>
      <use xlink:href="#DejaVuSans-32"/>
      <use xlink:href="#DejaVuSans-30" transform="translate(63.623047 0)"/>
      <use xlink:href="#DejaVuSans-31" transform="translate(127.246094 0)"/>
      <use xlink:href="#DejaVuSans-39" transform="translate(190.869141 0)"/>
     </g>
    </g>
    <g id="line2d_46">
     <path d="M 71.52625 69.911719 
L 82.52625 69.911719 
L 93.52625 69.911719 
" style="fill: none; stroke: #83c966; stroke-opacity: 0.8; stroke-width: 2.5; stroke-linecap: square"/>
    </g>
    <g id="text_26">
     <!-- 2025 -->
     <g transform="translate(102.32625 73.761719) scale(0.11 -0.11)">
      <use xlink:href="#DejaVuSans-32"/>
      <use xlink:href="#DejaVuSans-30" transform="translate(63.623047 0)"/>
      <use xlink:href="#DejaVuSans-32" transform="translate(127.246094 0)"/>
      <use xlink:href="#DejaVuSans-35" transform="translate(190.869141 0)"/>
     </g>
    </g>
   </g>
  </g>
 </g>
 <defs>
  <clipPath id="pf106f8d248">
   <rect x="61.62625" y="39.3575" width="786.85" height="344.84"/>
  </clipPath>
 </defs>
</svg>
