<?xml version="1.0" encoding="utf-8" standalone="no"?>
<!DOCTYPE svg PUBLIC "-//W3C//DTD SVG 1.1//EN"
  "http://www.w3.org/Graphics/SVG/1.1/DTD/svg11.dtd">
<svg xmlns:xlink="http://www.w3.org/1999/xlink" width="711.521791pt" height="423.689375pt" viewBox="0 0 711.521791 423.689375" xmlns="http://www.w3.org/2000/svg" version="1.1">
 <metadata>
  <rdf:RDF xmlns:dc="http://purl.org/dc/elements/1.1/" xmlns:cc="http://creativecommons.org/ns#" xmlns:rdf="http://www.w3.org/1999/02/22-rdf-syntax-ns#">
   <cc:Work>
    <dc:type rdf:resource="http://purl.org/dc/dcmitype/StillImage"/>
    <dc:date>2026-01-27T17:22:31.972798</dc:date>
    <dc:format>image/svg+xml</dc:format>
    <dc:creator>
     <cc:Agent>
      <dc:title>Matplotlib v3.10.8, https://matplotlib.org/</dc:title>
     </cc:Agent>
    </dc:creator>
   </cc:Work>
  </rdf:RDF>
 </metadata>
 <defs>
  <style type="text/css">*{stroke-linejoin: round; stroke-linecap: butt}</style>
 </defs>
 <g id="figure_1">
  <g id="patch_1">
   <path d="M 0 423.689375 
L 711.521791 423.689375 
L 711.521791 0 
L 0 0 
L 0 423.689375 
z
" style="fill: none"/>
  </g>
  <g id="axes_1">
   <g id="patch_2">
    <path d="M 61.62625 384.1975 
L 704.321791 384.1975 
L 704.321791 39.3575 
L 61.62625 39.3575 
L 61.62625 384.1975 
z
" style="fill: none"/>
   </g>
   <g id="matplotlib.axis_1">
    <g id="xtick_1">
     <g id="line2d_1">
      <path d="M 61.62625 384.1975 
L 61.62625 39.3575 
" clip-path="url(#p104ac43f66)" style="fill: none; stroke-dasharray: 2.96,1.28; stroke-dashoffset: 0; stroke: #b0b0b0; stroke-opacity: 0.3; stroke-width: 0.8"/>
     </g>
     <g id="line2d_2">
      <defs>
       <path id="m9e2fdbd201" d="M 0 0 
L 0 3.5 
" style="stroke: #000000; stroke-width: 0.8"/>
      </defs>
      <g>
       <use xlink:href="#m9e2fdbd201" x="61.62625" y="384.1975" style="stroke: #000000; stroke-width: 0.8"/>
      </g>
     </g>
     <g id="text_1">
      <!-- Jan -->
      <g transform="translate(53.918438 398.795937) scale(0.1 -0.1)">
       <defs>
        <path id="DejaVuSans-4a" d="M 628 4666 
L 1259 4666 
L 1259 325 
Q 1259 -519 939 -900 
Q 619 -1281 -91 -1281 
L -331 -1281 
L -331 -750 
L -134 -750 
Q 284 -750 456 -515 
Q 628 -281 628 325 
L 628 4666 
z
" transform="scale(0.015625)"/>
        <path id="DejaVuSans-61" d="M 2194 1759 
Q 1497 1759 1228 1600 
Q 959 1441 959 1056 
Q 959 750 1161 570 
Q 1363 391 1709 391 
Q 2188 391 2477 730 
Q 2766 1069 2766 1631 
L 2766 1759 
L 2194 1759 
z
M 3341 1997 
L 3341 0 
L 2766 0 
L 2766 531 
Q 2569 213 2275 61 
Q 1981 -91 1556 -91 
Q 1019 -91 701 211 
Q 384 513 384 1019 
Q 384 1609 779 1909 
Q 1175 2209 1959 2209 
L 2766 2209 
L 2766 2266 
Q 2766 2663 2505 2880 
Q 2244 3097 1772 3097 
Q 1472 3097 1187 3025 
Q 903 2953 641 2809 
L 641 3341 
Q 956 3463 1253 3523 
Q 1550 3584 1831 3584 
Q 2591 3584 2966 3190 
Q 3341 2797 3341 1997 
z
" transform="scale(0.015625)"/>
        <path id="DejaVuSans-6e" d="M 3513 2113 
L 3513 0 
L 2938 0 
L 2938 2094 
Q 2938 2591 2744 2837 
Q 2550 3084 2163 3084 
Q 1697 3084 1428 2787 
Q 1159 2491 1159 1978 
L 1159 0 
L 581 0 
L 581 3500 
L 1159 3500 
L 1159 2956 
Q 1366 3272 1645 3428 
Q 1925 3584 2291 3584 
Q 2894 3584 3203 3211 
Q 3513 2838 3513 2113 
z
" transform="scale(0.015625)"/>
       </defs>
       <use xlink:href="#DejaVuSans-4a"/>
       <use xlink:href="#DejaVuSans-61" transform="translate(29.492188 0)"/>
       <use xlink:href="#DejaVuSans-6e" transform="translate(90.771484 0)"/>
      </g>
     </g>
    </g>
    <g id="xtick_2">
     <g id="line2d_3">
      <path d="M 115.473714 384.1975 
L 115.473714 39.3575 
" clip-path="url(#p104ac43f66)" style="fill: none; stroke-dasharray: 2.96,1.28; stroke-dashoffset: 0; stroke: #b0b0b0; stroke-opacity: 0.3; stroke-width: 0.8"/>
     </g>
     <g id="line2d_4">
      <g>
       <use xlink:href="#m9e2fdbd201" x="115.473714" y="384.1975" style="stroke: #000000; stroke-width: 0.8"/>
      </g>
     </g>
     <g id="text_2">
      <!-- Feb -->
      <g transform="translate(106.622152 398.795937) scale(0.1 -0.1)">
       <defs>
        <path id="DejaVuSans-46" d="M 628 4666 
L 3309 4666 
L 3309 4134 
L 1259 4134 
L 1259 2759 
L 3109 2759 
L 3109 2228 
L 1259 2228 
L 1259 0 
L 628 0 
L 628 4666 
z
" transform="scale(0.015625)"/>
        <path id="DejaVuSans-65" d="M 3597 1894 
L 3597 1613 
L 953 1613 
Q 991 1019 1311 708 
Q 1631 397 2203 397 
Q 2534 397 2845 478 
Q 3156 559 3463 722 
L 3463 178 
Q 3153 47 2828 -22 
Q 2503 -91 2169 -91 
Q 1331 -91 842 396 
Q 353 884 353 1716 
Q 353 2575 817 3079 
Q 1281 3584 2069 3584 
Q 2775 3584 3186 3129 
Q 3597 2675 3597 1894 
z
M 3022 2063 
Q 3016 2534 2758 2815 
Q 2500 3097 2075 3097 
Q 1594 3097 1305 2825 
Q 1016 2553 972 2059 
L 3022 2063 
z
" transform="scale(0.015625)"/>
        <path id="DejaVuSans-62" d="M 3116 1747 
Q 3116 2381 2855 2742 
Q 2594 3103 2138 3103 
Q 1681 3103 1420 2742 
Q 1159 2381 1159 1747 
Q 1159 1113 1420 752 
Q 1681 391 2138 391 
Q 2594 391 2855 752 
Q 3116 1113 3116 1747 
z
M 1159 2969 
Q 1341 3281 1617 3432 
Q 1894 3584 2278 3584 
Q 2916 3584 3314 3078 
Q 3713 2572 3713 1747 
Q 3713 922 3314 415 
Q 2916 -91 2278 -91 
Q 1894 -91 1617 61 
Q 1341 213 1159 525 
L 1159 0 
L 581 0 
L 581 4863 
L 1159 4863 
L 1159 2969 
z
" transform="scale(0.015625)"/>
       </defs>
       <use xlink:href="#DejaVuSans-46"/>
       <use xlink:href="#DejaVuSans-65" transform="translate(52.019531 0)"/>
       <use xlink:href="#DejaVuSans-62" transform="translate(113.542969 0)"/>
      </g>
     </g>
    </g>
    <g id="xtick_3">
     <g id="line2d_5">
      <path d="M 164.110133 384.1975 
L 164.110133 39.3575 
" clip-path="url(#p104ac43f66)" style="fill: none; stroke-dasharray: 2.96,1.28; stroke-dashoffset: 0; stroke: #b0b0b0; stroke-opacity: 0.3; stroke-width: 0.8"/>
     </g>
     <g id="line2d_6">
      <g>
       <use xlink:href="#m9e2fdbd201" x="164.110133" y="384.1975" style="stroke: #000000; stroke-width: 0.8"/>
      </g>
     </g>
     <g id="text_3">
      <!-- Mar -->
      <g transform="translate(154.67654 398.795937) scale(0.1 -0.1)">
       <defs>
        <path id="DejaVuSans-4d" d="M 628 4666 
L 1569 4666 
L 2759 1491 
L 3956 4666 
L 4897 4666 
L 4897 0 
L 4281 0 
L 4281 4097 
L 3078 897 
L 2444 897 
L 1241 4097 
L 1241 0 
L 628 0 
L 628 4666 
z
" transform="scale(0.015625)"/>
        <path id="DejaVuSans-72" d="M 2631 2963 
Q 2534 3019 2420 3045 
Q 2306 3072 2169 3072 
Q 1681 3072 1420 2755 
Q 1159 2438 1159 1844 
L 1159 0 
L 581 0 
L 581 3500 
L 1159 3500 
L 1159 2956 
Q 1341 3275 1631 3429 
Q 1922 3584 2338 3584 
Q 2397 3584 2469 3576 
Q 2541 3569 2628 3553 
L 2631 2963 
z
" transform="scale(0.015625)"/>
       </defs>
       <use xlink:href="#DejaVuSans-4d"/>
       <use xlink:href="#DejaVuSans-61" transform="translate(86.279297 0)"/>
       <use xlink:href="#DejaVuSans-72" transform="translate(147.558594 0)"/>
      </g>
     </g>
    </g>
    <g id="xtick_4">
     <g id="line2d_7">
      <path d="M 217.957598 384.1975 
L 217.957598 39.3575 
" clip-path="url(#p104ac43f66)" style="fill: none; stroke-dasharray: 2.96,1.28; stroke-dashoffset: 0; stroke: #b0b0b0; stroke-opacity: 0.3; stroke-width: 0.8"/>
     </g>
     <g id="line2d_8">
      <g>
       <use xlink:href="#m9e2fdbd201" x="217.957598" y="384.1975" style="stroke: #000000; stroke-width: 0.8"/>
      </g>
     </g>
     <g id="text_4">
      <!-- Apr -->
      <g transform="translate(209.307598 398.795937) scale(0.1 -0.1)">
       <defs>
        <path id="DejaVuSans-41" d="M 2188 4044 
L 1331 1722 
L 3047 1722 
L 2188 4044 
z
M 1831 4666 
L 2547 4666 
L 4325 0 
L 3669 0 
L 3244 1197 
L 1141 1197 
L 716 0 
L 50 0 
L 1831 4666 
z
" transform="scale(0.015625)"/>
        <path id="DejaVuSans-70" d="M 1159 525 
L 1159 -1331 
L 581 -1331 
L 581 3500 
L 1159 3500 
L 1159 2969 
Q 1341 3281 1617 3432 
Q 1894 3584 2278 3584 
Q 2916 3584 3314 3078 
Q 3713 2572 3713 1747 
Q 3713 922 3314 415 
Q 2916 -91 2278 -91 
Q 1894 -91 1617 61 
Q 1341 213 1159 525 
z
M 3116 1747 
Q 3116 2381 2855 2742 
Q 2594 3103 2138 3103 
Q 1681 3103 1420 2742 
Q 1159 2381 1159 1747 
Q 1159 1113 1420 752 
Q 1681 391 2138 391 
Q 2594 391 2855 752 
Q 3116 1113 3116 1747 
z
" transform="scale(0.015625)"/>
       </defs>
       <use xlink:href="#DejaVuSans-41"/>
       <use xlink:href="#DejaVuSans-70" transform="translate(68.408203 0)"/>
       <use xlink:href="#DejaVuSans-72" transform="translate(131.884766 0)"/>
      </g>
     </g>
    </g>
    <g id="xtick_5">
     <g id="line2d_9">
      <path d="M 270.068047 384.1975 
L 270.068047 39.3575 
" clip-path="url(#p104ac43f66)" style="fill: none; stroke-dasharray: 2.96,1.28; stroke-dashoffset: 0; stroke: #b0b0b0; stroke-opacity: 0.3; stroke-width: 0.8"/>
     </g>
     <g id="line2d_10">
      <g>
       <use xlink:href="#m9e2fdbd201" x="270.068047" y="384.1975" style="stroke: #000000; stroke-width: 0.8"/>
      </g>
     </g>
     <g id="text_5">
      <!-- May -->
      <g transform="translate(259.730547 398.795937) scale(0.1 -0.1)">
       <defs>
        <path id="DejaVuSans-79" d="M 2059 -325 
Q 1816 -950 1584 -1140 
Q 1353 -1331 966 -1331 
L 506 -1331 
L 506 -850 
L 844 -850 
Q 1081 -850 1212 -737 
Q 1344 -625 1503 -206 
L 1606 56 
L 191 3500 
L 800 3500 
L 1894 763 
L 2988 3500 
L 3597 3500 
L 2059 -325 
z
" transform="scale(0.015625)"/>
       </defs>
       <use xlink:href="#DejaVuSans-4d"/>
       <use xlink:href="#DejaVuSans-61" transform="translate(86.279297 0)"/>
       <use xlink:href="#DejaVuSans-79" transform="translate(147.558594 0)"/>
      </g>
     </g>
    </g>
    <g id="xtick_6">
     <g id="line2d_11">
      <path d="M 323.915511 384.1975 
L 323.915511 39.3575 
" clip-path="url(#p104ac43f66)" style="fill: none; stroke-dasharray: 2.96,1.28; stroke-dashoffset: 0; stroke: #b0b0b0; stroke-opacity: 0.3; stroke-width: 0.8"/>
     </g>
     <g id="line2d_12">
      <g>
       <use xlink:href="#m9e2fdbd201" x="323.915511" y="384.1975" style="stroke: #000000; stroke-width: 0.8"/>
      </g>
     </g>
     <g id="text_6">
      <!-- Jun -->
      <g transform="translate(316.103011 398.795937) scale(0.1 -0.1)">
       <defs>
        <path id="DejaVuSans-75" d="M 544 1381 
L 544 3500 
L 1119 3500 
L 1119 1403 
Q 1119 906 1312 657 
Q 1506 409 1894 409 
Q 2359 409 2629 706 
Q 2900 1003 2900 1516 
L 2900 3500 
L 3475 3500 
L 3475 0 
L 2900 0 
L 2900 538 
Q 2691 219 2414 64 
Q 2138 -91 1772 -91 
Q 1169 -91 856 284 
Q 544 659 544 1381 
z
M 1991 3584 
L 1991 3584 
z
" transform="scale(0.015625)"/>
       </defs>
       <use xlink:href="#DejaVuSans-4a"/>
       <use xlink:href="#DejaVuSans-75" transform="translate(29.492188 0)"/>
       <use xlink:href="#DejaVuSans-6e" transform="translate(92.871094 0)"/>
      </g>
     </g>
    </g>
    <g id="xtick_7">
     <g id="line2d_13">
      <path d="M 376.02596 384.1975 
L 376.02596 39.3575 
" clip-path="url(#p104ac43f66)" style="fill: none; stroke-dasharray: 2.96,1.28; stroke-dashoffset: 0; stroke: #b0b0b0; stroke-opacity: 0.3; stroke-width: 0.8"/>
     </g>
     <g id="line2d_14">
      <g>
       <use xlink:href="#m9e2fdbd201" x="376.02596" y="384.1975" style="stroke: #000000; stroke-width: 0.8"/>
      </g>
     </g>
     <g id="text_7">
      <!-- Jul -->
      <g transform="translate(369.993148 398.795937) scale(0.1 -0.1)">
       <defs>
        <path id="DejaVuSans-6c" d="M 603 4863 
L 1178 4863 
L 1178 0 
L 603 0 
L 603 4863 
z
" transform="scale(0.015625)"/>
       </defs>
       <use xlink:href="#DejaVuSans-4a"/>
       <use xlink:href="#DejaVuSans-75" transform="translate(29.492188 0)"/>
       <use xlink:href="#DejaVuSans-6c" transform="translate(92.871094 0)"/>
      </g>
     </g>
    </g>
    <g id="xtick_8">
     <g id="line2d_15">
      <path d="M 429.873425 384.1975 
L 429.873425 39.3575 
" clip-path="url(#p104ac43f66)" style="fill: none; stroke-dasharray: 2.96,1.28; stroke-dashoffset: 0; stroke: #b0b0b0; stroke-opacity: 0.3; stroke-width: 0.8"/>
     </g>
     <g id="line2d_16">
      <g>
       <use xlink:href="#m9e2fdbd201" x="429.873425" y="384.1975" style="stroke: #000000; stroke-width: 0.8"/>
      </g>
     </g>
     <g id="text_8">
      <!-- Aug -->
      <g transform="translate(420.110143 398.795937) scale(0.1 -0.1)">
       <defs>
        <path id="DejaVuSans-67" d="M 2906 1791 
Q 2906 2416 2648 2759 
Q 2391 3103 1925 3103 
Q 1463 3103 1205 2759 
Q 947 2416 947 1791 
Q 947 1169 1205 825 
Q 1463 481 1925 481 
Q 2391 481 2648 825 
Q 2906 1169 2906 1791 
z
M 3481 434 
Q 3481 -459 3084 -895 
Q 2688 -1331 1869 -1331 
Q 1566 -1331 1297 -1286 
Q 1028 -1241 775 -1147 
L 775 -588 
Q 1028 -725 1275 -790 
Q 1522 -856 1778 -856 
Q 2344 -856 2625 -561 
Q 2906 -266 2906 331 
L 2906 616 
Q 2728 306 2450 153 
Q 2172 0 1784 0 
Q 1141 0 747 490 
Q 353 981 353 1791 
Q 353 2603 747 3093 
Q 1141 3584 1784 3584 
Q 2172 3584 2450 3431 
Q 2728 3278 2906 2969 
L 2906 3500 
L 3481 3500 
L 3481 434 
z
" transform="scale(0.015625)"/>
       </defs>
       <use xlink:href="#DejaVuSans-41"/>
       <use xlink:href="#DejaVuSans-75" transform="translate(68.408203 0)"/>
       <use xlink:href="#DejaVuSans-67" transform="translate(131.787109 0)"/>
      </g>
     </g>
    </g>
    <g id="xtick_9">
     <g id="line2d_17">
      <path d="M 483.720889 384.1975 
L 483.720889 39.3575 
" clip-path="url(#p104ac43f66)" style="fill: none; stroke-dasharray: 2.96,1.28; stroke-dashoffset: 0; stroke: #b0b0b0; stroke-opacity: 0.3; stroke-width: 0.8"/>
     </g>
     <g id="line2d_18">
      <g>
       <use xlink:href="#m9e2fdbd201" x="483.720889" y="384.1975" style="stroke: #000000; stroke-width: 0.8"/>
      </g>
     </g>
     <g id="text_9">
      <!-- Sep -->
      <g transform="translate(474.295889 398.795937) scale(0.1 -0.1)">
       <defs>
        <path id="DejaVuSans-53" d="M 3425 4513 
L 3425 3897 
Q 3066 4069 2747 4153 
Q 2428 4238 2131 4238 
Q 1616 4238 1336 4038 
Q 1056 3838 1056 3469 
Q 1056 3159 1242 3001 
Q 1428 2844 1947 2747 
L 2328 2669 
Q 3034 2534 3370 2195 
Q 3706 1856 3706 1288 
Q 3706 609 3251 259 
Q 2797 -91 1919 -91 
Q 1588 -91 1214 -16 
Q 841 59 441 206 
L 441 856 
Q 825 641 1194 531 
Q 1563 422 1919 422 
Q 2459 422 2753 634 
Q 3047 847 3047 1241 
Q 3047 1584 2836 1778 
Q 2625 1972 2144 2069 
L 1759 2144 
Q 1053 2284 737 2584 
Q 422 2884 422 3419 
Q 422 4038 858 4394 
Q 1294 4750 2059 4750 
Q 2388 4750 2728 4690 
Q 3069 4631 3425 4513 
z
" transform="scale(0.015625)"/>
       </defs>
       <use xlink:href="#DejaVuSans-53"/>
       <use xlink:href="#DejaVuSans-65" transform="translate(63.476562 0)"/>
       <use xlink:href="#DejaVuSans-70" transform="translate(125 0)"/>
      </g>
     </g>
    </g>
    <g id="xtick_10">
     <g id="line2d_19">
      <path d="M 535.831338 384.1975 
L 535.831338 39.3575 
" clip-path="url(#p104ac43f66)" style="fill: none; stroke-dasharray: 2.96,1.28; stroke-dashoffset: 0; stroke: #b0b0b0; stroke-opacity: 0.3; stroke-width: 0.8"/>
     </g>
     <g id="line2d_20">
      <g>
       <use xlink:href="#m9e2fdbd201" x="535.831338" y="384.1975" style="stroke: #000000; stroke-width: 0.8"/>
      </g>
     </g>
     <g id="text_10">
      <!-- Oct -->
      <g transform="translate(527.186026 398.795937) scale(0.1 -0.1)">
       <defs>
        <path id="DejaVuSans-4f" d="M 2522 4238 
Q 1834 4238 1429 3725 
Q 1025 3213 1025 2328 
Q 1025 1447 1429 934 
Q 1834 422 2522 422 
Q 3209 422 3611 934 
Q 4013 1447 4013 2328 
Q 4013 3213 3611 3725 
Q 3209 4238 2522 4238 
z
M 2522 4750 
Q 3503 4750 4090 4092 
Q 4678 3434 4678 2328 
Q 4678 1225 4090 567 
Q 3503 -91 2522 -91 
Q 1538 -91 948 565 
Q 359 1222 359 2328 
Q 359 3434 948 4092 
Q 1538 4750 2522 4750 
z
" transform="scale(0.015625)"/>
        <path id="DejaVuSans-63" d="M 3122 3366 
L 3122 2828 
Q 2878 2963 2633 3030 
Q 2388 3097 2138 3097 
Q 1578 3097 1268 2742 
Q 959 2388 959 1747 
Q 959 1106 1268 751 
Q 1578 397 2138 397 
Q 2388 397 2633 464 
Q 2878 531 3122 666 
L 3122 134 
Q 2881 22 2623 -34 
Q 2366 -91 2075 -91 
Q 1284 -91 818 406 
Q 353 903 353 1747 
Q 353 2603 823 3093 
Q 1294 3584 2113 3584 
Q 2378 3584 2631 3529 
Q 2884 3475 3122 3366 
z
" transform="scale(0.015625)"/>
        <path id="DejaVuSans-74" d="M 1172 4494 
L 1172 3500 
L 2356 3500 
L 2356 3053 
L 1172 3053 
L 1172 1153 
Q 1172 725 1289 603 
Q 1406 481 1766 481 
L 2356 481 
L 2356 0 
L 1766 0 
Q 1100 0 847 248 
Q 594 497 594 1153 
L 594 3053 
L 172 3053 
L 172 3500 
L 594 3500 
L 594 4494 
L 1172 4494 
z
" transform="scale(0.015625)"/>
       </defs>
       <use xlink:href="#DejaVuSans-4f"/>
       <use xlink:href="#DejaVuSans-63" transform="translate(78.710938 0)"/>
       <use xlink:href="#DejaVuSans-74" transform="translate(133.691406 0)"/>
      </g>
     </g>
    </g>
    <g id="xtick_11">
     <g id="line2d_21">
      <path d="M 589.678802 384.1975 
L 589.678802 39.3575 
" clip-path="url(#p104ac43f66)" style="fill: none; stroke-dasharray: 2.96,1.28; stroke-dashoffset: 0; stroke: #b0b0b0; stroke-opacity: 0.3; stroke-width: 0.8"/>
     </g>
     <g id="line2d_22">
      <g>
       <use xlink:href="#m9e2fdbd201" x="589.678802" y="384.1975" style="stroke: #000000; stroke-width: 0.8"/>
      </g>
     </g>
     <g id="text_11">
      <!-- Nov -->
      <g transform="translate(579.919427 398.795937) scale(0.1 -0.1)">
       <defs>
        <path id="DejaVuSans-4e" d="M 628 4666 
L 1478 4666 
L 3547 763 
L 3547 4666 
L 4159 4666 
L 4159 0 
L 3309 0 
L 1241 3903 
L 1241 0 
L 628 0 
L 628 4666 
z
" transform="scale(0.015625)"/>
        <path id="DejaVuSans-6f" d="M 1959 3097 
Q 1497 3097 1228 2736 
Q 959 2375 959 1747 
Q 959 1119 1226 758 
Q 1494 397 1959 397 
Q 2419 397 2687 759 
Q 2956 1122 2956 1747 
Q 2956 2369 2687 2733 
Q 2419 3097 1959 3097 
z
M 1959 3584 
Q 2709 3584 3137 3096 
Q 3566 2609 3566 1747 
Q 3566 888 3137 398 
Q 2709 -91 1959 -91 
Q 1206 -91 779 398 
Q 353 888 353 1747 
Q 353 2609 779 3096 
Q 1206 3584 1959 3584 
z
" transform="scale(0.015625)"/>
        <path id="DejaVuSans-76" d="M 191 3500 
L 800 3500 
L 1894 563 
L 2988 3500 
L 3597 3500 
L 2284 0 
L 1503 0 
L 191 3500 
z
" transform="scale(0.015625)"/>
       </defs>
       <use xlink:href="#DejaVuSans-4e"/>
       <use xlink:href="#DejaVuSans-6f" transform="translate(74.804688 0)"/>
       <use xlink:href="#DejaVuSans-76" transform="translate(135.986328 0)"/>
      </g>
     </g>
    </g>
    <g id="xtick_12">
     <g id="line2d_23">
      <path d="M 641.789251 384.1975 
L 641.789251 39.3575 
" clip-path="url(#p104ac43f66)" style="fill: none; stroke-dasharray: 2.96,1.28; stroke-dashoffset: 0; stroke: #b0b0b0; stroke-opacity: 0.3; stroke-width: 0.8"/>
     </g>
     <g id="line2d_24">
      <g>
       <use xlink:href="#m9e2fdbd201" x="641.789251" y="384.1975" style="stroke: #000000; stroke-width: 0.8"/>
      </g>
     </g>
     <g id="text_12">
      <!-- Dec -->
      <g transform="translate(632.11347 398.795937) scale(0.1 -0.1)">
       <defs>
        <path id="DejaVuSans-44" d="M 1259 4147 
L 1259 519 
L 2022 519 
Q 2988 519 3436 956 
Q 3884 1394 3884 2338 
Q 3884 3275 3436 3711 
Q 2988 4147 2022 4147 
L 1259 4147 
z
M 628 4666 
L 1925 4666 
Q 3281 4666 3915 4102 
Q 4550 3538 4550 2338 
Q 4550 1131 3912 565 
Q 3275 0 1925 0 
L 628 0 
L 628 4666 
z
" transform="scale(0.015625)"/>
       </defs>
       <use xlink:href="#DejaVuSans-44"/>
       <use xlink:href="#DejaVuSans-65" transform="translate(77.001953 0)"/>
       <use xlink:href="#DejaVuSans-63" transform="translate(138.525391 0)"/>
      </g>
     </g>
    </g>
    <g id="xtick_13">
     <g id="line2d_25">
      <path d="M 695.636716 384.1975 
L 695.636716 39.3575 
" clip-path="url(#p104ac43f66)" style="fill: none; stroke-dasharray: 2.96,1.28; stroke-dashoffset: 0; stroke: #b0b0b0; stroke-opacity: 0.3; stroke-width: 0.8"/>
     </g>
     <g id="line2d_26">
      <g>
       <use xlink:href="#m9e2fdbd201" x="695.636716" y="384.1975" style="stroke: #000000; stroke-width: 0.8"/>
      </g>
     </g>
     <g id="text_13">
      <!-- Jan -->
      <g transform="translate(687.928903 398.795937) scale(0.1 -0.1)">
       <use xlink:href="#DejaVuSans-4a"/>
       <use xlink:href="#DejaVuSans-61" transform="translate(29.492188 0)"/>
       <use xlink:href="#DejaVuSans-6e" transform="translate(90.771484 0)"/>
      </g>
     </g>
    </g>
    <g id="text_14">
     <!-- Day of the year -->
     <g transform="translate(336.388708 413.99375) scale(0.12 -0.12)">
      <defs>
       <path id="DejaVuSans-20" transform="scale(0.015625)"/>
       <path id="DejaVuSans-66" d="M 2375 4863 
L 2375 4384 
L 1825 4384 
Q 1516 4384 1395 4259 
Q 1275 4134 1275 3809 
L 1275 3500 
L 2222 3500 
L 2222 3053 
L 1275 3053 
L 1275 0 
L 697 0 
L 697 3053 
L 147 3053 
L 147 3500 
L 697 3500 
L 697 3744 
Q 697 4328 969 4595 
Q 1241 4863 1831 4863 
L 2375 4863 
z
" transform="scale(0.015625)"/>
       <path id="DejaVuSans-68" d="M 3513 2113 
L 3513 0 
L 2938 0 
L 2938 2094 
Q 2938 2591 2744 2837 
Q 2550 3084 2163 3084 
Q 1697 3084 1428 2787 
Q 1159 2491 1159 1978 
L 1159 0 
L 581 0 
L 581 4863 
L 1159 4863 
L 1159 2956 
Q 1366 3272 1645 3428 
Q 1925 3584 2291 3584 
Q 2894 3584 3203 3211 
Q 3513 2838 3513 2113 
z
" transform="scale(0.015625)"/>
      </defs>
      <use xlink:href="#DejaVuSans-44"/>
      <use xlink:href="#DejaVuSans-61" transform="translate(77.001953 0)"/>
      <use xlink:href="#DejaVuSans-79" transform="translate(138.28125 0)"/>
      <use xlink:href="#DejaVuSans-20" transform="translate(197.460938 0)"/>
      <use xlink:href="#DejaVuSans-6f" transform="translate(229.248047 0)"/>
      <use xlink:href="#DejaVuSans-66" transform="translate(290.429688 0)"/>
      <use xlink:href="#DejaVuSans-20" transform="translate(325.634766 0)"/>
      <use xlink:href="#DejaVuSans-74" transform="translate(357.421875 0)"/>
      <use xlink:href="#DejaVuSans-68" transform="translate(396.630859 0)"/>
      <use xlink:href="#DejaVuSans-65" transform="translate(460.009766 0)"/>
      <use xlink:href="#DejaVuSans-20" transform="translate(521.533203 0)"/>
      <use xlink:href="#DejaVuSans-79" transform="translate(553.320312 0)"/>
      <use xlink:href="#DejaVuSans-65" transform="translate(612.5 0)"/>
      <use xlink:href="#DejaVuSans-61" transform="translate(674.023438 0)"/>
      <use xlink:href="#DejaVuSans-72" transform="translate(735.302734 0)"/>
     </g>
    </g>
   </g>
   <g id="matplotlib.axis_2">
    <g id="ytick_1">
     <g id="line2d_27">
      <path d="M 61.62625 368.74032 
L 704.321791 368.74032 
" clip-path="url(#p104ac43f66)" style="fill: none; stroke-dasharray: 2.96,1.28; stroke-dashoffset: 0; stroke: #b0b0b0; stroke-opacity: 0.3; stroke-width: 0.8"/>
     </g>
     <g id="line2d_28">
      <defs>
       <path id="m1ad4b72d92" d="M 0 0 
L -3.5 0 
" style="stroke: #000000; stroke-width: 0.8"/>
      </defs>
      <g>
       <use xlink:href="#m1ad4b72d92" x="61.62625" y="368.74032" style="stroke: #000000; stroke-width: 0.8"/>
      </g>
     </g>
     <g id="text_15">
      <!-- 0 -->
      <g transform="translate(48.26375 372.539539) scale(0.1 -0.1)">
       <defs>
        <path id="DejaVuSans-30" d="M 2034 4250 
Q 1547 4250 1301 3770 
Q 1056 3291 1056 2328 
Q 1056 1369 1301 889 
Q 1547 409 2034 409 
Q 2525 409 2770 889 
Q 3016 1369 3016 2328 
Q 3016 3291 2770 3770 
Q 2525 4250 2034 4250 
z
M 2034 4750 
Q 2819 4750 3233 4129 
Q 3647 3509 3647 2328 
Q 3647 1150 3233 529 
Q 2819 -91 2034 -91 
Q 1250 -91 836 529 
Q 422 1150 422 2328 
Q 422 3509 836 4129 
Q 1250 4750 2034 4750 
z
" transform="scale(0.015625)"/>
       </defs>
       <use xlink:href="#DejaVuSans-30"/>
      </g>
     </g>
    </g>
    <g id="ytick_2">
     <g id="line2d_29">
      <path d="M 61.62625 326.939303 
L 704.321791 326.939303 
" clip-path="url(#p104ac43f66)" style="fill: none; stroke-dasharray: 2.96,1.28; stroke-dashoffset: 0; stroke: #b0b0b0; stroke-opacity: 0.3; stroke-width: 0.8"/>
     </g>
     <g id="line2d_30">
      <g>
       <use xlink:href="#m1ad4b72d92" x="61.62625" y="326.939303" style="stroke: #000000; stroke-width: 0.8"/>
      </g>
     </g>
     <g id="text_16">
      <!-- 2500 -->
      <g transform="translate(29.17625 330.738521) scale(0.1 -0.1)">
       <defs>
        <path id="DejaVuSans-32" d="M 1228 531 
L 3431 531 
L 3431 0 
L 469 0 
L 469 531 
Q 828 903 1448 1529 
Q 2069 2156 2228 2338 
Q 2531 2678 2651 2914 
Q 2772 3150 2772 3378 
Q 2772 3750 2511 3984 
Q 2250 4219 1831 4219 
Q 1534 4219 1204 4116 
Q 875 4013 500 3803 
L 500 4441 
Q 881 4594 1212 4672 
Q 1544 4750 1819 4750 
Q 2544 4750 2975 4387 
Q 3406 4025 3406 3419 
Q 3406 3131 3298 2873 
Q 3191 2616 2906 2266 
Q 2828 2175 2409 1742 
Q 1991 1309 1228 531 
z
" transform="scale(0.015625)"/>
        <path id="DejaVuSans-35" d="M 691 4666 
L 3169 4666 
L 3169 4134 
L 1269 4134 
L 1269 2991 
Q 1406 3038 1543 3061 
Q 1681 3084 1819 3084 
Q 2600 3084 3056 2656 
Q 3513 2228 3513 1497 
Q 3513 744 3044 326 
Q 2575 -91 1722 -91 
Q 1428 -91 1123 -41 
Q 819 9 494 109 
L 494 744 
Q 775 591 1075 516 
Q 1375 441 1709 441 
Q 2250 441 2565 725 
Q 2881 1009 2881 1497 
Q 2881 1984 2565 2268 
Q 2250 2553 1709 2553 
Q 1456 2553 1204 2497 
Q 953 2441 691 2322 
L 691 4666 
z
" transform="scale(0.015625)"/>
       </defs>
       <use xlink:href="#DejaVuSans-32"/>
       <use xlink:href="#DejaVuSans-35" transform="translate(63.623047 0)"/>
       <use xlink:href="#DejaVuSans-30" transform="translate(127.246094 0)"/>
       <use xlink:href="#DejaVuSans-30" transform="translate(190.869141 0)"/>
      </g>
     </g>
    </g>
    <g id="ytick_3">
     <g id="line2d_31">
      <path d="M 61.62625 285.138285 
L 704.321791 285.138285 
" clip-path="url(#p104ac43f66)" style="fill: none; stroke-dasharray: 2.96,1.28; stroke-dashoffset: 0; stroke: #b0b0b0; stroke-opacity: 0.3; stroke-width: 0.8"/>
     </g>
     <g id="line2d_32">
      <g>
       <use xlink:href="#m1ad4b72d92" x="61.62625" y="285.138285" style="stroke: #000000; stroke-width: 0.8"/>
      </g>
     </g>
     <g id="text_17">
      <!-- 5000 -->
      <g transform="translate(29.17625 288.937504) scale(0.1 -0.1)">
       <use xlink:href="#DejaVuSans-35"/>
       <use xlink:href="#DejaVuSans-30" transform="translate(63.623047 0)"/>
       <use xlink:href="#DejaVuSans-30" transform="translate(127.246094 0)"/>
       <use xlink:href="#DejaVuSans-30" transform="translate(190.869141 0)"/>
      </g>
     </g>
    </g>
    <g id="ytick_4">
     <g id="line2d_33">
      <path d="M 61.62625 243.337268 
L 704.321791 243.337268 
" clip-path="url(#p104ac43f66)" style="fill: none; stroke-dasharray: 2.96,1.28; stroke-dashoffset: 0; stroke: #b0b0b0; stroke-opacity: 0.3; stroke-width: 0.8"/>
     </g>
     <g id="line2d_34">
      <g>
       <use xlink:href="#m1ad4b72d92" x="61.62625" y="243.337268" style="stroke: #000000; stroke-width: 0.8"/>
      </g>
     </g>
     <g id="text_18">
      <!-- 7500 -->
      <g transform="translate(29.17625 247.136487) scale(0.1 -0.1)">
       <defs>
        <path id="DejaVuSans-37" d="M 525 4666 
L 3525 4666 
L 3525 4397 
L 1831 0 
L 1172 0 
L 2766 4134 
L 525 4134 
L 525 4666 
z
" transform="scale(0.015625)"/>
       </defs>
       <use xlink:href="#DejaVuSans-37"/>
       <use xlink:href="#DejaVuSans-35" transform="translate(63.623047 0)"/>
       <use xlink:href="#DejaVuSans-30" transform="translate(127.246094 0)"/>
       <use xlink:href="#DejaVuSans-30" transform="translate(190.869141 0)"/>
      </g>
     </g>
    </g>
    <g id="ytick_5">
     <g id="line2d_35">
      <path d="M 61.62625 201.536251 
L 704.321791 201.536251 
" clip-path="url(#p104ac43f66)" style="fill: none; stroke-dasharray: 2.96,1.28; stroke-dashoffset: 0; stroke: #b0b0b0; stroke-opacity: 0.3; stroke-width: 0.8"/>
     </g>
     <g id="line2d_36">
      <g>
       <use xlink:href="#m1ad4b72d92" x="61.62625" y="201.536251" style="stroke: #000000; stroke-width: 0.8"/>
      </g>
     </g>
     <g id="text_19">
      <!-- 10000 -->
      <g transform="translate(22.81375 205.33547) scale(0.1 -0.1)">
       <defs>
        <path id="DejaVuSans-31" d="M 794 531 
L 1825 531 
L 1825 4091 
L 703 3866 
L 703 4441 
L 1819 4666 
L 2450 4666 
L 2450 531 
L 3481 531 
L 3481 0 
L 794 0 
L 794 531 
z
" transform="scale(0.015625)"/>
       </defs>
       <use xlink:href="#DejaVuSans-31"/>
       <use xlink:href="#DejaVuSans-30" transform="translate(63.623047 0)"/>
       <use xlink:href="#DejaVuSans-30" transform="translate(127.246094 0)"/>
       <use xlink:href="#DejaVuSans-30" transform="translate(190.869141 0)"/>
       <use xlink:href="#DejaVuSans-30" transform="translate(254.492188 0)"/>
      </g>
     </g>
    </g>
    <g id="ytick_6">
     <g id="line2d_37">
      <path d="M 61.62625 159.735234 
L 704.321791 159.735234 
" clip-path="url(#p104ac43f66)" style="fill: none; stroke-dasharray: 2.96,1.28; stroke-dashoffset: 0; stroke: #b0b0b0; stroke-opacity: 0.3; stroke-width: 0.8"/>
     </g>
     <g id="line2d_38">
      <g>
       <use xlink:href="#m1ad4b72d92" x="61.62625" y="159.735234" style="stroke: #000000; stroke-width: 0.8"/>
      </g>
     </g>
     <g id="text_20">
      <!-- 12500 -->
      <g transform="translate(22.81375 163.534452) scale(0.1 -0.1)">
       <use xlink:href="#DejaVuSans-31"/>
       <use xlink:href="#DejaVuSans-32" transform="translate(63.623047 0)"/>
       <use xlink:href="#DejaVuSans-35" transform="translate(127.246094 0)"/>
       <use xlink:href="#DejaVuSans-30" transform="translate(190.869141 0)"/>
       <use xlink:href="#DejaVuSans-30" transform="translate(254.492188 0)"/>
      </g>
     </g>
    </g>
    <g id="ytick_7">
     <g id="line2d_39">
      <path d="M 61.62625 117.934216 
L 704.321791 117.934216 
" clip-path="url(#p104ac43f66)" style="fill: none; stroke-dasharray: 2.96,1.28; stroke-dashoffset: 0; stroke: #b0b0b0; stroke-opacity: 0.3; stroke-width: 0.8"/>
     </g>
     <g id="line2d_40">
      <g>
       <use xlink:href="#m1ad4b72d92" x="61.62625" y="117.934216" style="stroke: #000000; stroke-width: 0.8"/>
      </g>
     </g>
     <g id="text_21">
      <!-- 15000 -->
      <g transform="translate(22.81375 121.733435) scale(0.1 -0.1)">
       <use xlink:href="#DejaVuSans-31"/>
       <use xlink:href="#DejaVuSans-35" transform="translate(63.623047 0)"/>
       <use xlink:href="#DejaVuSans-30" transform="translate(127.246094 0)"/>
       <use xlink:href="#DejaVuSans-30" transform="translate(190.869141 0)"/>
       <use xlink:href="#DejaVuSans-30" transform="translate(254.492188 0)"/>
      </g>
     </g>
    </g>
    <g id="ytick_8">
     <g id="line2d_41">
      <path d="M 61.62625 76.133199 
L 704.321791 76.133199 
" clip-path="url(#p104ac43f66)" style="fill: none; stroke-dasharray: 2.96,1.28; stroke-dashoffset: 0; stroke: #b0b0b0; stroke-opacity: 0.3; stroke-width: 0.8"/>
     </g>
     <g id="line2d_42">
      <g>
       <use xlink:href="#m1ad4b72d92" x="61.62625" y="76.133199" style="stroke: #000000; stroke-width: 0.8"/>
      </g>
     </g>
     <g id="text_22">
      <!-- 17500 -->
      <g transform="translate(22.81375 79.932418) scale(0.1 -0.1)">
       <use xlink:href="#DejaVuSans-31"/>
       <use xlink:href="#DejaVuSans-37" transform="translate(63.623047 0)"/>
       <use xlink:href="#DejaVuSans-35" transform="translate(127.246094 0)"/>
       <use xlink:href="#DejaVuSans-30" transform="translate(190.869141 0)"/>
       <use xlink:href="#DejaVuSans-30" transform="translate(254.492188 0)"/>
      </g>
     </g>
    </g>
    <g id="text_23">
     <!-- Daily pedestrian count -->
     <g transform="translate(16.318125 279.793125) rotate(-90) scale(0.12 -0.12)">
      <defs>
       <path id="DejaVuSans-69" d="M 603 3500 
L 1178 3500 
L 1178 0 
L 603 0 
L 603 3500 
z
M 603 4863 
L 1178 4863 
L 1178 4134 
L 603 4134 
L 603 4863 
z
" transform="scale(0.015625)"/>
       <path id="DejaVuSans-64" d="M 2906 2969 
L 2906 4863 
L 3481 4863 
L 3481 0 
L 2906 0 
L 2906 525 
Q 2725 213 2448 61 
Q 2172 -91 1784 -91 
Q 1150 -91 751 415 
Q 353 922 353 1747 
Q 353 2572 751 3078 
Q 1150 3584 1784 3584 
Q 2172 3584 2448 3432 
Q 2725 3281 2906 2969 
z
M 947 1747 
Q 947 1113 1208 752 
Q 1469 391 1925 391 
Q 2381 391 2643 752 
Q 2906 1113 2906 1747 
Q 2906 2381 2643 2742 
Q 2381 3103 1925 3103 
Q 1469 3103 1208 2742 
Q 947 2381 947 1747 
z
" transform="scale(0.015625)"/>
       <path id="DejaVuSans-73" d="M 2834 3397 
L 2834 2853 
Q 2591 2978 2328 3040 
Q 2066 3103 1784 3103 
Q 1356 3103 1142 2972 
Q 928 2841 928 2578 
Q 928 2378 1081 2264 
Q 1234 2150 1697 2047 
L 1894 2003 
Q 2506 1872 2764 1633 
Q 3022 1394 3022 966 
Q 3022 478 2636 193 
Q 2250 -91 1575 -91 
Q 1294 -91 989 -36 
Q 684 19 347 128 
L 347 722 
Q 666 556 975 473 
Q 1284 391 1588 391 
Q 1994 391 2212 530 
Q 2431 669 2431 922 
Q 2431 1156 2273 1281 
Q 2116 1406 1581 1522 
L 1381 1569 
Q 847 1681 609 1914 
Q 372 2147 372 2553 
Q 372 3047 722 3315 
Q 1072 3584 1716 3584 
Q 2034 3584 2315 3537 
Q 2597 3491 2834 3397 
z
" transform="scale(0.015625)"/>
      </defs>
      <use xlink:href="#DejaVuSans-44"/>
      <use xlink:href="#DejaVuSans-61" transform="translate(77.001953 0)"/>
      <use xlink:href="#DejaVuSans-69" transform="translate(138.28125 0)"/>
      <use xlink:href="#DejaVuSans-6c" transform="translate(166.064453 0)"/>
      <use xlink:href="#DejaVuSans-79" transform="translate(193.847656 0)"/>
      <use xlink:href="#DejaVuSans-20" transform="translate(253.027344 0)"/>
      <use xlink:href="#DejaVuSans-70" transform="translate(284.814453 0)"/>
      <use xlink:href="#DejaVuSans-65" transform="translate(348.291016 0)"/>
      <use xlink:href="#DejaVuSans-64" transform="translate(409.814453 0)"/>
      <use xlink:href="#DejaVuSans-65" transform="translate(473.291016 0)"/>
      <use xlink:href="#DejaVuSans-73" transform="translate(534.814453 0)"/>
      <use xlink:href="#DejaVuSans-74" transform="translate(586.914062 0)"/>
      <use xlink:href="#DejaVuSans-72" transform="translate(626.123047 0)"/>
      <use xlink:href="#DejaVuSans-69" transform="translate(667.236328 0)"/>
      <use xlink:href="#DejaVuSans-61" transform="translate(695.019531 0)"/>
      <use xlink:href="#DejaVuSans-6e" transform="translate(756.298828 0)"/>
      <use xlink:href="#DejaVuSans-20" transform="translate(819.677734 0)"/>
      <use xlink:href="#DejaVuSans-63" transform="translate(851.464844 0)"/>
      <use xlink:href="#DejaVuSans-6f" transform="translate(906.445312 0)"/>
      <use xlink:href="#DejaVuSans-75" transform="translate(967.626953 0)"/>
      <use xlink:href="#DejaVuSans-6e" transform="translate(1031.005859 0)"/>
      <use xlink:href="#DejaVuSans-74" transform="translate(1094.384766 0)"/>
     </g>
    </g>
   </g>
   <g id="line2d_43">
    <path d="M 63.363265 334.613969 
L 65.10028 274.203139 
L 66.837295 266.595354 
L 68.57431 288.315163 
L 70.311325 337.774126 
L 72.04834 344.044279 
L 73.785355 224.175682 
L 75.52237 225.931324 
L 77.259385 224.994982 
L 78.9964 222.85477 
L 80.733415 233.004057 
L 82.47043 332.490478 
L 84.207445 342.271916 
L 85.94446 189.698203 
L 87.681475 189.965729 
L 89.41849 188.093044 
L 91.155505 183.244126 
L 92.89252 194.864808 
L 94.629535 324.046672 
L 96.366549 334.864775 
L 98.103564 181.455042 
L 99.840579 176.221555 
L 101.577594 176.539242 
L 103.314609 177.960477 
L 105.051624 218.574345 
L 106.788639 316.672973 
L 108.525654 333.092412 
L 110.262669 343.910516 
L 111.999684 176.739887 
L 113.736699 178.729616 
L 115.473714 175.418975 
L 117.210729 178.51225 
L 118.947744 330.099459 
L 120.684759 346.803146 
L 122.421774 173.596451 
L 124.158789 169.8678 
L 125.895804 171.155271 
L 127.632819 164.383507 
L 129.369834 176.973973 
L 131.106849 329.831933 
L 132.843864 337.055149 
L 134.580879 171.004788 
L 136.317894 172.492904 
L 138.054909 164.400227 
L 139.791924 151.241267 
L 141.528939 173.211881 
L 143.265954 320.936676 
L 145.002969 333.961873 
L 146.739984 169.533392 
L 148.476999 162.159693 
L 150.214014 164.166141 
L 151.951029 166.624041 
L 153.688044 167.978394 
L 155.425059 326.82226 
L 157.162074 332.908488 
L 158.899089 164.851678 
L 160.636104 164.584152 
L 162.373119 160.136523 
L 164.110133 160.253566 
L 165.847148 182.374664 
L 167.584163 327.608119 
L 169.321178 339.061598 
L 171.058193 165.386731 
L 172.795208 166.456837 
L 174.532223 177.174618 
L 176.269238 163.998937 
L 178.006253 188.276968 
L 179.743268 326.705217 
L 181.480283 331.7715 
L 183.217298 336.235849 
L 184.954313 167.125653 
L 186.691328 166.406676 
L 188.428343 156.274109 
L 190.165358 88.757106 
L 191.902373 316.606091 
L 193.639388 331.37021 
L 195.376403 163.313401 
L 197.113418 164.53399 
L 198.850433 172.175216 
L 200.587448 168.162319 
L 202.324463 162.494101 
L 204.061478 325.852476 
L 205.798493 339.345844 
L 207.535508 176.940532 
L 209.272523 156.541636 
L 212.746553 165.637537 
L 214.483568 169.115382 
L 216.220583 325.718713 
L 217.957598 334.965098 
L 219.694613 172.175216 
L 221.431628 160.454211 
L 223.168643 163.781572 
L 224.905658 167.961674 
L 226.642673 174.482632 
L 228.379688 319.649205 
L 230.116703 332.657682 
L 231.853717 191.403684 
L 233.590732 193.594057 
L 235.327747 160.337168 
L 237.064762 174.666557 
L 238.801777 195.700829 
L 240.538792 315.301899 
L 242.275807 334.463486 
L 244.012822 193.911745 
L 245.749837 182.976599 
L 247.486852 187.474389 
L 249.223867 196.687333 
L 250.960882 333.192735 
L 252.697897 328.511021 
L 254.434912 338.626867 
L 256.171927 341.770303 
L 257.908942 221.433535 
L 259.645957 199.195394 
L 261.382972 327.022905 
L 263.119987 226.432937 
L 264.857002 331.169566 
L 266.594017 340.884122 
L 268.331032 177.2415 
L 270.068047 172.442743 
L 271.805062 172.292259 
L 273.542077 170.319251 
L 275.279092 169.198984 
L 277.016107 325.852476 
L 278.753122 339.429447 
L 280.490137 172.308979 
L 282.227152 165.838182 
L 283.964167 175.903867 
L 285.701182 179.214508 
L 287.438197 192.440349 
L 289.175212 321.538611 
L 290.912227 340.516273 
L 292.649242 180.284614 
L 294.386257 158.414321 
L 296.123272 170.620218 
L 297.860287 169.366188 
L 299.597301 179.164346 
L 301.334316 322.040223 
L 303.071331 342.02111 
L 304.808346 182.959879 
L 306.545361 174.198385 
L 308.282376 172.626667 
L 310.019391 169.901241 
L 311.756406 176.489081 
L 313.493421 326.755378 
L 315.230436 340.633316 
L 316.967451 181.873052 
L 318.704466 167.79447 
L 320.441481 182.307783 
L 322.178496 177.057575 
L 323.915511 191.085996 
L 325.652526 328.343817 
L 327.389541 343.25842 
L 329.126556 193.811423 
L 330.863571 177.776553 
L 332.600586 181.756009 
L 334.337601 173.847257 
L 336.074616 185.501381 
L 337.811631 327.457635 
L 339.548646 334.513647 
L 341.285661 340.131704 
L 343.022676 179.114185 
L 344.759691 185.033209 
L 346.496706 177.107736 
L 348.233721 186.972776 
L 349.970736 333.242896 
L 351.707751 345.682879 
L 353.444766 182.424826 
L 355.181781 176.589404 
L 356.918796 183.729017 
L 358.655811 174.516073 
L 360.392826 183.44477 
L 362.129841 326.571454 
L 363.866856 342.940732 
L 365.603871 183.060201 
L 367.340886 169.399629 
L 369.0779 171.807367 
L 370.814915 175.6029 
L 372.55193 183.227405 
L 374.288945 334.965098 
L 376.02596 343.642989 
L 377.762975 189.17987 
L 379.49999 178.144402 
L 381.237005 172.894194 
L 382.97402 183.361168 
L 384.711035 186.588207 
L 386.44805 322.842803 
L 388.185065 341.502777 
L 389.92208 209.31124 
L 391.659095 198.576739 
L 393.39611 203.96071 
L 395.133125 206.535652 
L 396.87014 208.876509 
L 398.607155 325.367584 
L 400.34417 342.305357 
L 402.081185 185.768907 
L 403.8182 177.208059 
L 405.555215 176.539242 
L 407.29223 174.934083 
L 409.029245 184.414554 
L 410.76626 322.943125 
L 412.503275 333.928433 
L 414.24029 185.802348 
L 415.977305 174.850481 
L 417.71432 174.917363 
L 419.451335 181.923213 
L 421.18835 180.033807 
L 422.925365 314.198353 
L 424.66238 337.389557 
L 426.399395 186.32068 
L 428.13641 178.729616 
L 429.873425 178.044079 
L 431.61044 181.906493 
L 433.347455 185.08337 
L 435.08447 324.882693 
L 436.821484 337.055149 
L 438.558499 177.224779 
L 440.295514 176.405479 
L 442.032529 176.154673 
L 443.769544 181.154075 
L 445.506559 197.38959 
L 447.243574 326.42097 
L 448.980589 339.513049 
L 450.717604 190.885352 
L 452.454619 178.729616 
L 454.191634 174.833761 
L 455.928649 177.458865 
L 457.665664 189.263472 
L 459.402679 318.161089 
L 461.139694 335.650635 
L 462.876709 189.965729 
L 464.613724 176.756608 
L 466.350739 183.227405 
L 468.087754 176.305157 
L 469.824769 150.689493 
L 471.561784 284.954361 
L 473.298799 332.507198 
L 475.035814 178.49553 
L 476.772829 176.288436 
L 478.509844 181.873052 
L 480.246859 177.358542 
L 481.983874 180.468538 
L 483.720889 332.306553 
L 485.457904 344.378687 
L 487.194919 177.425424 
L 488.931934 170.804143 
L 490.668949 168.597049 
L 492.405964 167.710868 
L 494.142979 182.19074 
L 495.879994 327.039625 
L 497.617009 344.228203 
L 499.354024 188.577935 
L 501.091039 170.737261 
L 502.828054 173.195161 
L 504.565068 177.960477 
L 506.302083 182.291062 
L 508.039098 326.705217 
L 509.776113 342.84041 
L 511.513128 183.394609 
L 513.250143 173.412526 
L 514.987158 177.341822 
L 516.724173 169.901241 
L 518.461188 55.032045 
L 520.198203 320.886515 
L 521.935218 337.071869 
L 523.672233 190.467341 
L 525.409248 175.519298 
L 527.146263 180.919989 
L 528.883278 167.627266 
L 530.620293 277.396737 
L 532.357308 320.384903 
L 534.094323 343.408903 
L 535.831338 206.635975 
L 537.568353 175.653061 
L 539.305368 175.61962 
L 541.042383 173.696773 
L 542.779398 195.199217 
L 544.516413 308.864543 
L 546.253428 339.680253 
L 547.990443 170.035004 
L 549.727458 161.457435 
L 551.464473 191.21976 
L 553.201488 187.173421 
L 554.938503 190.985674 
L 556.675518 318.110928 
L 558.412533 338.860953 
L 560.149548 187.257023 
L 561.886563 179.665959 
L 563.623578 182.742513 
L 565.360593 186.270519 
L 567.097608 196.001796 
L 568.834623 319.632485 
L 570.571638 343.475785 
L 572.308652 185.04993 
L 574.045667 173.061398 
L 575.782682 170.720541 
L 577.519697 181.070473 
L 579.256712 187.691754 
L 580.993727 334.864775 
L 582.730742 344.345246 
L 584.467757 185.90267 
L 586.204772 172.392582 
L 587.941787 181.020311 
L 589.678802 180.836387 
L 591.415817 188.77858 
L 593.152832 337.841008 
L 594.889847 339.17864 
L 596.626862 244.307052 
L 598.363877 339.897618 
L 600.100892 173.16172 
L 601.837907 175.820265 
L 603.574922 186.905895 
L 605.311937 324.631886 
L 607.048952 338.526545 
L 608.785967 168.63049 
L 610.522982 172.191937 
L 612.259997 180.351495 
L 613.997012 166.222751 
L 615.734027 181.78945 
L 617.471042 319.381679 
L 619.208057 334.965098 
L 620.945072 167.493502 
L 622.682087 168.580329 
L 624.419102 166.272913 
L 626.156117 171.071669 
L 627.893132 182.892997 
L 629.630147 315.101254 
L 631.367162 337.5066 
L 633.104177 158.865772 
L 634.841192 161.490876 
L 636.578207 161.858725 
L 638.315222 146.626434 
L 640.052236 176.4222 
L 641.789251 313.546257 
L 643.526266 336.70402 
L 645.263281 175.970749 
L 647.000296 158.949374 
L 648.737311 160.203405 
L 650.474326 158.046472 
L 652.211341 175.686502 
L 653.948356 323.361135 
L 655.685371 337.590202 
L 657.422386 171.52312 
L 659.159401 170.001563 
L 660.896416 165.821462 
L 662.633431 168.563608 
L 664.370446 174.114783 
L 666.107461 324.916133 
L 667.844476 332.440316 
L 669.581491 173.914139 
L 671.318506 164.416947 
L 673.055521 178.829938 
L 674.792536 159.501148 
L 676.529551 207.65592 
L 678.266566 329.497525 
L 680.003581 338.259018 
L 681.740596 240.578401 
L 683.477611 275.022439 
L 685.214626 350.66556 
L 686.951641 335.516871 
L 688.688656 297.879235 
L 690.425671 327.691721 
L 692.162686 338.409502 
L 693.899701 297.895956 
L 695.636716 284.971081 
L 695.636716 284.971081 
" clip-path="url(#p104ac43f66)" style="fill: none; stroke: #0d6efc; stroke-opacity: 0.8; stroke-width: 2.5; stroke-linecap: square"/>
   </g>
   <g id="line2d_44">
    <path d="M 63.363265 344.261644 
L 65.10028 326.103282 
L 66.837295 325.986239 
L 68.57431 346.418577 
L 70.311325 354.193566 
L 72.04834 325.100058 
L 73.785355 279.670712 
L 75.52237 283.131836 
L 77.259385 277.547221 
L 78.9964 300.253533 
L 80.733415 337.239073 
L 82.47043 350.799323 
L 84.207445 260.960577 
L 85.94446 238.789317 
L 87.681475 255.275639 
L 89.41849 238.672275 
L 91.155505 266.712397 
L 92.89252 327.106507 
L 94.629535 342.271916 
L 96.366549 251.011935 
L 98.103564 232.686369 
L 99.840579 237.033675 
L 101.577594 234.37513 
L 103.314609 271.912443 
L 105.051624 333.476982 
L 106.788639 329.564406 
L 108.525654 353.390986 
L 110.262669 235.378354 
L 111.999684 237.384803 
L 113.736699 232.703089 
L 115.473714 267.632019 
L 117.210729 331.7715 
L 118.947744 347.555564 
L 120.684759 258.134828 
L 122.421774 229.091481 
L 124.158789 225.797561 
L 125.895804 221.533857 
L 127.632819 257.750259 
L 129.369834 330.417147 
L 131.106849 341.669981 
L 132.843864 251.814514 
L 134.580879 220.229666 
L 136.317894 229.308847 
L 138.054909 235.378354 
L 139.791924 254.740586 
L 141.528939 333.677627 
L 143.265954 343.124656 
L 145.002969 242.685172 
L 146.739984 218.390421 
L 148.476999 229.676696 
L 150.214014 226.416216 
L 151.951029 260.124557 
L 153.688044 334.162518 
L 155.425059 344.395407 
L 157.162074 247.868498 
L 158.899089 214.812254 
L 160.636104 228.60659 
L 162.373119 217.704884 
L 164.110133 253.352792 
L 165.847148 328.009409 
L 167.584163 345.465513 
L 169.321178 251.246021 
L 171.058193 217.13639 
L 172.795208 232.184757 
L 174.532223 237.819534 
L 176.269238 258.803644 
L 178.006253 330.450588 
L 179.743268 342.84041 
L 181.480283 347.38836 
L 183.217298 229.927502 
L 184.954313 230.211749 
L 186.691328 220.898482 
L 188.428343 255.72709 
L 190.165358 333.4101 
L 191.902373 356.584584 
L 193.639388 242.785495 
L 195.376403 216.434133 
L 197.113418 226.081808 
L 198.850433 241.815711 
L 200.587448 265.826215 
L 202.324463 327.608119 
L 204.061478 343.27514 
L 205.798493 263.184391 
L 207.535508 237.602168 
L 209.272523 245.293556 
L 211.009538 250.075592 
L 214.483568 345.047503 
L 216.220583 352.688729 
L 217.957598 301.240037 
L 219.694613 280.540173 
L 221.431628 273.534323 
L 223.168643 279.369745 
L 224.905658 295.20397 
L 226.642673 340.298908 
L 228.379688 351.551742 
L 230.116703 288.733173 
L 231.853717 274.604429 
L 233.590732 277.380016 
L 235.327747 276.560717 
L 237.064762 280.239206 
L 238.801777 350.933086 
L 240.538792 356.517702 
L 242.275807 327.139947 
L 244.012822 292.980156 
L 245.749837 269.053254 
L 247.486852 286.99425 
L 249.223867 358.524151 
L 250.960882 352.772331 
L 252.697897 357.169798 
L 254.434912 357.370443 
L 256.171927 294.501713 
L 257.908942 300.13649 
L 259.645957 298.113321 
L 261.382972 354.561415 
L 263.119987 350.364593 
L 264.857002 359.192967 
L 266.594017 290.806503 
L 268.331032 282.981353 
L 270.068047 294.602036 
L 271.805062 298.431009 
L 273.542077 311.773894 
L 275.279092 351.652064 
L 277.016107 359.895225 
L 278.753122 302.076057 
L 280.490137 271.243627 
L 282.227152 280.255926 
L 283.964167 278.115714 
L 285.701182 296.157033 
L 287.438197 348.358144 
L 289.175212 357.621249 
L 290.912227 292.71263 
L 292.649242 267.949707 
L 294.386257 290.238009 
L 296.123272 280.306088 
L 297.860287 317.057542 
L 299.597301 357.387164 
L 301.334316 356.200015 
L 303.071331 291.859889 
L 304.808346 277.614102 
L 306.545361 292.378221 
L 308.282376 278.182596 
L 310.019391 302.878637 
L 311.756406 349.461691 
L 313.493421 359.527376 
L 315.230436 285.690059 
L 316.967451 291.308115 
L 318.704466 294.016821 
L 320.441481 276.778082 
L 322.178496 313.780342 
L 323.915511 356.634745 
L 325.652526 353.825717 
L 327.389541 351.434699 
L 329.126556 300.169931 
L 330.863571 289.385269 
L 332.600586 296.591764 
L 334.337601 325.735433 
L 336.074616 367.703655 
L 337.811631 359.627698 
L 339.548646 361.032212 
L 341.285661 288.499087 
L 343.022676 296.056711 
L 344.759691 269.187017 
L 346.496706 297.728752 
L 348.233721 352.906094 
L 349.970736 368.522955 
L 351.707751 309.433037 
L 353.444766 305.721106 
L 355.181781 288.081077 
L 356.918796 307.159061 
L 358.655811 367.10172 
L 360.392826 352.036633 
L 362.129841 356.049531 
L 363.866856 305.45358 
L 365.603871 282.295816 
L 367.340886 309.265832 
L 369.0779 294.000101 
L 370.814915 316.321844 
L 372.55193 352.872654 
L 374.288945 358.540872 
L 376.02596 368.456073 
L 377.762975 304.768043 
L 379.49999 318.61254 
L 381.237005 367.569891 
L 382.97402 306.406643 
L 384.711035 352.822492 
L 386.44805 355.798725 
L 388.185065 304.751323 
L 389.92208 305.620784 
L 391.659095 305.921751 
L 393.39611 314.382277 
L 395.133125 320.067215 
L 396.87014 343.174818 
L 398.607155 356.250176 
L 400.34417 301.541004 
L 402.081185 285.957585 
L 403.8182 298.029719 
L 405.555215 302.259982 
L 407.29223 305.386698 
L 409.029245 341.937508 
L 410.76626 357.153078 
L 412.503275 305.286376 
L 414.24029 299.885684 
L 415.977305 301.005951 
L 417.71432 270.173521 
L 419.451335 310.570024 
L 421.18835 346.702824 
L 422.925365 356.4341 
L 424.66238 304.049066 
L 426.399395 259.87375 
L 428.13641 286.860487 
L 429.873425 280.874582 
L 433.347455 340.917563 
L 435.08447 350.130507 
L 436.821484 299.651598 
L 438.558499 368.138385 
L 440.295514 295.60526 
L 442.032529 282.479741 
L 443.769544 305.604063 
L 445.506559 347.990295 
L 447.243574 358.724796 
L 448.980589 295.973109 
L 450.717604 288.415485 
L 452.454619 307.878039 
L 454.191634 267.64874 
L 455.928649 304.667721 
L 457.665664 345.799922 
L 459.402679 355.899047 
L 461.139694 301.541004 
L 462.876709 271.511154 
L 464.613724 269.755511 
L 466.350739 288.63285 
L 468.087754 300.002727 
L 469.824769 348.124058 
L 471.561784 344.529171 
L 473.298799 284.753716 
L 475.035814 290.722901 
L 476.772829 280.222486 
L 478.509844 290.221289 
L 480.246859 314.649803 
L 481.983874 350.163948 
L 483.720889 349.511852 
L 485.457904 289.719677 
L 487.194919 281.760763 
L 488.931934 307.51019 
L 490.668949 258.519398 
L 492.405964 297.026495 
L 494.142979 354.176845 
L 495.879994 358.958882 
L 497.617009 307.577071 
L 499.354024 295.789185 
L 501.091039 285.422532 
L 502.828054 296.290797 
L 504.565068 320.68587 
L 506.302083 329.480804 
L 508.039098 358.557592 
L 509.776113 301.440682 
L 511.513128 291.826448 
L 513.250143 269.872554 
L 514.987158 291.809728 
L 516.724173 310.436261 
L 518.461188 352.220558 
L 520.198203 354.628296 
L 521.935218 306.841373 
L 523.672233 284.586512 
L 525.409248 298.180203 
L 527.146263 276.142706 
L 528.883278 351.969752 
L 530.620293 352.019913 
L 532.357308 355.59808 
L 534.094323 303.213045 
L 535.831338 259.321977 
L 537.568353 291.960211 
L 539.305368 274.771633 
L 541.042383 321.638934 
L 542.779398 346.284813 
L 544.516413 353.758835 
L 546.253428 303.580894 
L 547.990443 277.881629 
L 549.727458 260.241599 
L 551.464473 278.968455 
L 553.201488 294.418111 
L 554.938503 339.195361 
L 556.675518 356.751788 
L 558.412533 265.123958 
L 560.149548 285.790381 
L 561.886563 282.329257 
L 563.623578 265.759334 
L 565.360593 299.333911 
L 567.097608 343.826914 
L 568.834623 341.820465 
L 570.571638 321.655654 
L 572.308652 255.961175 
L 574.045667 314.833728 
L 575.782682 297.344182 
L 577.519697 294.016821 
L 579.256712 355.012866 
L 580.993727 360.93189 
L 582.730742 291.191073 
L 584.467757 298.49789 
L 586.204772 277.179372 
L 587.941787 258.017785 
L 589.678802 306.088955 
L 591.415817 338.74391 
L 593.152832 350.548517 
L 594.889847 345.883524 
L 596.626862 357.403884 
L 598.363877 266.879601 
L 600.100892 273.116313 
L 601.837907 302.711433 
L 603.574922 360.062429 
L 605.311937 360.814847 
L 607.048952 285.639898 
L 608.785967 262.950305 
L 610.522982 282.84759 
L 612.259997 272.681582 
L 613.997012 295.638701 
L 615.734027 347.589005 
L 617.471042 352.003193 
L 619.208057 293.699134 
L 620.945072 270.892499 
L 622.682087 269.905995 
L 624.419102 254.188812 
L 626.156117 301.323639 
L 627.893132 353.892599 
L 629.630147 361.232857 
L 631.367162 238.605393 
L 633.104177 279.938239 
L 634.841192 267.983148 
L 636.578207 272.079648 
L 638.315222 306.991857 
L 640.052236 347.087393 
L 641.789251 352.404482 
L 643.526266 291.575642 
L 645.263281 249.925108 
L 647.000296 262.666058 
L 648.737311 272.146529 
L 650.474326 295.003325 
L 652.211341 351.234054 
L 653.948356 349.311207 
L 655.685371 286.425757 
L 657.422386 269.270619 
L 660.896416 292.929995 
L 662.633431 277.045608 
L 664.370446 347.956854 
L 666.107461 336.068645 
L 667.844476 261.947081 
L 671.318506 266.377989 
L 673.055521 258.268591 
L 674.792536 306.975137 
L 676.529551 343.208258 
L 678.266566 356.367219 
L 680.003581 314.90061 
L 681.740596 313.27873 
L 685.214626 359.243129 
L 686.951641 357.286841 
L 688.688656 349.695776 
L 690.425671 350.866205 
L 692.162686 340.415951 
L 693.899701 344.228203 
L 695.636716 340.951004 
L 695.636716 340.951004 
" clip-path="url(#p104ac43f66)" style="fill: none; stroke: #83c966; stroke-opacity: 0.8; stroke-width: 2.5; stroke-linecap: square"/>
   </g>
   <g id="patch_3">
    <path d="M 61.62625 384.1975 
L 61.62625 39.3575 
" style="fill: none; stroke: #000000; stroke-width: 0.8; stroke-linejoin: miter; stroke-linecap: square"/>
   </g>
   <g id="patch_4">
    <path d="M 61.62625 384.1975 
L 704.321791 384.1975 
" style="fill: none; stroke: #000000; stroke-width: 0.8; stroke-linejoin: miter; stroke-linecap: square"/>
   </g>
   <g id="text_24">
    <!-- Pedestrian Traffic at Collins Place (North) -->
    <g transform="translate(219.55277 19.3575) scale(0.16 -0.16)">
     <defs>
      <path id="DejaVuSans-50" d="M 1259 4147 
L 1259 2394 
L 2053 2394 
Q 2494 2394 2734 2622 
Q 2975 2850 2975 3272 
Q 2975 3691 2734 3919 
Q 2494 4147 2053 4147 
L 1259 4147 
z
M 628 4666 
L 2053 4666 
Q 2838 4666 3239 4311 
Q 3641 3956 3641 3272 
Q 3641 2581 3239 2228 
Q 2838 1875 2053 1875 
L 1259 1875 
L 1259 0 
L 628 0 
L 628 4666 
z
" transform="scale(0.015625)"/>
      <path id="DejaVuSans-54" d="M -19 4666 
L 3928 4666 
L 3928 4134 
L 2272 4134 
L 2272 0 
L 1638 0 
L 1638 4134 
L -19 4134 
L -19 4666 
z
" transform="scale(0.015625)"/>
      <path id="DejaVuSans-43" d="M 4122 4306 
L 4122 3641 
Q 3803 3938 3442 4084 
Q 3081 4231 2675 4231 
Q 1875 4231 1450 3742 
Q 1025 3253 1025 2328 
Q 1025 1406 1450 917 
Q 1875 428 2675 428 
Q 3081 428 3442 575 
Q 3803 722 4122 1019 
L 4122 359 
Q 3791 134 3420 21 
Q 3050 -91 2638 -91 
Q 1578 -91 968 557 
Q 359 1206 359 2328 
Q 359 3453 968 4101 
Q 1578 4750 2638 4750 
Q 3056 4750 3426 4639 
Q 3797 4528 4122 4306 
z
" transform="scale(0.015625)"/>
      <path id="DejaVuSans-28" d="M 1984 4856 
Q 1566 4138 1362 3434 
Q 1159 2731 1159 2009 
Q 1159 1288 1364 580 
Q 1569 -128 1984 -844 
L 1484 -844 
Q 1016 -109 783 600 
Q 550 1309 550 2009 
Q 550 2706 781 3412 
Q 1013 4119 1484 4856 
L 1984 4856 
z
" transform="scale(0.015625)"/>
      <path id="DejaVuSans-29" d="M 513 4856 
L 1013 4856 
Q 1481 4119 1714 3412 
Q 1947 2706 1947 2009 
Q 1947 1309 1714 600 
Q 1481 -109 1013 -844 
L 513 -844 
Q 928 -128 1133 580 
Q 1338 1288 1338 2009 
Q 1338 2731 1133 3434 
Q 928 4138 513 4856 
z
" transform="scale(0.015625)"/>
     </defs>
     <use xlink:href="#DejaVuSans-50"/>
     <use xlink:href="#DejaVuSans-65" transform="translate(56.677734 0)"/>
     <use xlink:href="#DejaVuSans-64" transform="translate(118.201172 0)"/>
     <use xlink:href="#DejaVuSans-65" transform="translate(181.677734 0)"/>
     <use xlink:href="#DejaVuSans-73" transform="translate(243.201172 0)"/>
     <use xlink:href="#DejaVuSans-74" transform="translate(295.300781 0)"/>
     <use xlink:href="#DejaVuSans-72" transform="translate(334.509766 0)"/>
     <use xlink:href="#DejaVuSans-69" transform="translate(375.623047 0)"/>
     <use xlink:href="#DejaVuSans-61" transform="translate(403.40625 0)"/>
     <use xlink:href="#DejaVuSans-6e" transform="translate(464.685547 0)"/>
     <use xlink:href="#DejaVuSans-20" transform="translate(528.064453 0)"/>
     <use xlink:href="#DejaVuSans-54" transform="translate(559.851562 0)"/>
     <use xlink:href="#DejaVuSans-72" transform="translate(606.185547 0)"/>
     <use xlink:href="#DejaVuSans-61" transform="translate(647.298828 0)"/>
     <use xlink:href="#DejaVuSans-66" transform="translate(708.578125 0)"/>
     <use xlink:href="#DejaVuSans-66" transform="translate(743.783203 0)"/>
     <use xlink:href="#DejaVuSans-69" transform="translate(778.988281 0)"/>
     <use xlink:href="#DejaVuSans-63" transform="translate(806.771484 0)"/>
     <use xlink:href="#DejaVuSans-20" transform="translate(861.751953 0)"/>
     <use xlink:href="#DejaVuSans-61" transform="translate(893.539062 0)"/>
     <use xlink:href="#DejaVuSans-74" transform="translate(954.818359 0)"/>
     <use xlink:href="#DejaVuSans-20" transform="translate(994.027344 0)"/>
     <use xlink:href="#DejaVuSans-43" transform="translate(1025.814453 0)"/>
     <use xlink:href="#DejaVuSans-6f" transform="translate(1095.638672 0)"/>
     <use xlink:href="#DejaVuSans-6c" transform="translate(1156.820312 0)"/>
     <use xlink:href="#DejaVuSans-6c" transform="translate(1184.603516 0)"/>
     <use xlink:href="#DejaVuSans-69" transform="translate(1212.386719 0)"/>
     <use xlink:href="#DejaVuSans-6e" transform="translate(1240.169922 0)"/>
     <use xlink:href="#DejaVuSans-73" transform="translate(1303.548828 0)"/>
     <use xlink:href="#DejaVuSans-20" transform="translate(1355.648438 0)"/>
     <use xlink:href="#DejaVuSans-50" transform="translate(1387.435547 0)"/>
     <use xlink:href="#DejaVuSans-6c" transform="translate(1447.738281 0)"/>
     <use xlink:href="#DejaVuSans-61" transform="translate(1475.521484 0)"/>
     <use xlink:href="#DejaVuSans-63" transform="translate(1536.800781 0)"/>
     <use xlink:href="#DejaVuSans-65" transform="translate(1591.78125 0)"/>
     <use xlink:href="#DejaVuSans-20" transform="translate(1653.304688 0)"/>
     <use xlink:href="#DejaVuSans-28" transform="translate(1685.091797 0)"/>
     <use xlink:href="#DejaVuSans-4e" transform="translate(1724.105469 0)"/>
     <use xlink:href="#DejaVuSans-6f" transform="translate(1798.910156 0)"/>
     <use xlink:href="#DejaVuSans-72" transform="translate(1860.091797 0)"/>
     <use xlink:href="#DejaVuSans-74" transform="translate(1901.205078 0)"/>
     <use xlink:href="#DejaVuSans-68" transform="translate(1940.414062 0)"/>
     <use xlink:href="#DejaVuSans-29" transform="translate(2003.792969 0)"/>
    </g>
   </g>
   <g id="legend_1">
    <g id="patch_5">
     <path d="M 69.32625 80.449375 
L 132.52125 80.449375 
Q 134.72125 80.449375 134.72125 78.249375 
L 134.72125 47.0575 
Q 134.72125 44.8575 132.52125 44.8575 
L 69.32625 44.8575 
Q 67.12625 44.8575 67.12625 47.0575 
L 67.12625 78.249375 
Q 67.12625 80.449375 69.32625 80.449375 
z
" style="fill: #ffffff; opacity: 0.95; stroke: #cccccc; stroke-linejoin: miter"/>
    </g>
    <g id="line2d_45">
     <path d="M 71.52625 53.765781 
L 82.52625 53.765781 
L 93.52625 53.765781 
" style="fill: none; stroke: #0d6efc; stroke-opacity: 0.8; stroke-width: 2.5; stroke-linecap: square"/>
    </g>
    <g id="text_25">
     <!-- 2019 -->
     <g transform="translate(102.32625 57.615781) scale(0.11 -0.11)">
      <defs>
       <path id="DejaVuSans-39" d="M 703 97 
L 703 672 
Q 941 559 1184 500 
Q 1428 441 1663 441 
Q 2288 441 2617 861 
Q 2947 1281 2994 2138 
Q 2813 1869 2534 1725 
Q 2256 1581 1919 1581 
Q 1219 1581 811 2004 
Q 403 2428 403 3163 
Q 403 3881 828 4315 
Q 1253 4750 1959 4750 
Q 2769 4750 3195 4129 
Q 3622 3509 3622 2328 
Q 3622 1225 3098 567 
Q 2575 -91 1691 -91 
Q 1453 -91 1209 -44 
Q 966 3 703 97 
z
M 1959 2075 
Q 2384 2075 2632 2365 
Q 2881 2656 2881 3163 
Q 2881 3666 2632 3958 
Q 2384 4250 1959 4250 
Q 1534 4250 1286 3958 
Q 1038 3666 1038 3163 
Q 1038 2656 1286 2365 
Q 1534 2075 1959 2075 
z
" transform="scale(0.015625)"/>
      </defs>
      <use xlink:href="#DejaVuSans-32"/>
      <use xlink:href="#DejaVuSans-30" transform="translate(63.623047 0)"/>
      <use xlink:href="#DejaVuSans-31" transform="translate(127.246094 0)"/>
      <use xlink:href="#DejaVuSans-39" transform="translate(190.869141 0)"/>
     </g>
    </g>
    <g id="line2d_46">
     <path d="M 71.52625 69.911719 
L 82.52625 69.911719 
L 93.52625 69.911719 
" style="fill: none; stroke: #83c966; stroke-opacity: 0.8; stroke-width: 2.5; stroke-linecap: square"/>
    </g>
    <g id="text_26">
     <!-- 2025 -->
     <g transform="translate(102.32625 73.761719) scale(0.11 -0.11)">
      <use xlink:href="#DejaVuSans-32"/>
      <use xlink:href="#DejaVuSans-30" transform="translate(63.623047 0)"/>
      <use xlink:href="#DejaVuSans-32" transform="translate(127.246094 0)"/>
      <use xlink:href="#DejaVuSans-35" transform="translate(190.869141 0)"/>
     </g>
    </g>
   </g>
  </g>
 </g>
 <defs>
  <clipPath id="p104ac43f66">
   <rect x="61.62625" y="39.3575" width="642.695541" height="344.84"/>
  </clipPath>
 </defs>
</svg>
