<?xml version="1.0" encoding="utf-8" standalone="no"?>
<!DOCTYPE svg PUBLIC "-//W3C//DTD SVG 1.1//EN"
  "http://www.w3.org/Graphics/SVG/1.1/DTD/svg11.dtd">
<svg xmlns:xlink="http://www.w3.org/1999/xlink" width="855.67625pt" height="423.689375pt" viewBox="0 0 855.67625 423.689375" xmlns="http://www.w3.org/2000/svg" version="1.1">
 <metadata>
  <rdf:RDF xmlns:dc="http://purl.org/dc/elements/1.1/" xmlns:cc="http://creativecommons.org/ns#" xmlns:rdf="http://www.w3.org/1999/02/22-rdf-syntax-ns#">
   <cc:Work>
    <dc:type rdf:resource="http://purl.org/dc/dcmitype/StillImage"/>
    <dc:date>2026-01-22T12:48:44.959188</dc:date>
    <dc:format>image/svg+xml</dc:format>
    <dc:creator>
     <cc:Agent>
      <dc:title>Matplotlib v3.10.8, https://matplotlib.org/</dc:title>
     </cc:Agent>
    </dc:creator>
   </cc:Work>
  </rdf:RDF>
 </metadata>
 <defs>
  <style type="text/css">*{stroke-linejoin: round; stroke-linecap: butt}</style>
 </defs>
 <g id="figure_1">
  <g id="patch_1">
   <path d="M 0 423.689375 
L 855.67625 423.689375 
L 855.67625 0 
L 0 0 
L 0 423.689375 
z
" style="fill: none"/>
  </g>
  <g id="axes_1">
   <g id="patch_2">
    <path d="M 61.62625 384.1975 
L 848.47625 384.1975 
L 848.47625 39.3575 
L 61.62625 39.3575 
L 61.62625 384.1975 
z
" style="fill: none"/>
   </g>
   <g id="matplotlib.axis_1">
    <g id="xtick_1">
     <g id="line2d_1">
      <path d="M 61.62625 384.1975 
L 61.62625 39.3575 
" clip-path="url(#pa8610132b0)" style="fill: none; stroke-dasharray: 2.96,1.28; stroke-dashoffset: 0; stroke: #b0b0b0; stroke-opacity: 0.3; stroke-width: 0.8"/>
     </g>
     <g id="line2d_2">
      <defs>
       <path id="m5863da6aba" d="M 0 0 
L 0 3.5 
" style="stroke: #000000; stroke-width: 0.8"/>
      </defs>
      <g>
       <use xlink:href="#m5863da6aba" x="61.62625" y="384.1975" style="stroke: #000000; stroke-width: 0.8"/>
      </g>
     </g>
     <g id="text_1">
      <!-- Jan -->
      <g transform="translate(53.918438 398.795937) scale(0.1 -0.1)">
       <defs>
        <path id="DejaVuSans-4a" d="M 628 4666 
L 1259 4666 
L 1259 325 
Q 1259 -519 939 -900 
Q 619 -1281 -91 -1281 
L -331 -1281 
L -331 -750 
L -134 -750 
Q 284 -750 456 -515 
Q 628 -281 628 325 
L 628 4666 
z
" transform="scale(0.015625)"/>
        <path id="DejaVuSans-61" d="M 2194 1759 
Q 1497 1759 1228 1600 
Q 959 1441 959 1056 
Q 959 750 1161 570 
Q 1363 391 1709 391 
Q 2188 391 2477 730 
Q 2766 1069 2766 1631 
L 2766 1759 
L 2194 1759 
z
M 3341 1997 
L 3341 0 
L 2766 0 
L 2766 531 
Q 2569 213 2275 61 
Q 1981 -91 1556 -91 
Q 1019 -91 701 211 
Q 384 513 384 1019 
Q 384 1609 779 1909 
Q 1175 2209 1959 2209 
L 2766 2209 
L 2766 2266 
Q 2766 2663 2505 2880 
Q 2244 3097 1772 3097 
Q 1472 3097 1187 3025 
Q 903 2953 641 2809 
L 641 3341 
Q 956 3463 1253 3523 
Q 1550 3584 1831 3584 
Q 2591 3584 2966 3190 
Q 3341 2797 3341 1997 
z
" transform="scale(0.015625)"/>
        <path id="DejaVuSans-6e" d="M 3513 2113 
L 3513 0 
L 2938 0 
L 2938 2094 
Q 2938 2591 2744 2837 
Q 2550 3084 2163 3084 
Q 1697 3084 1428 2787 
Q 1159 2491 1159 1978 
L 1159 0 
L 581 0 
L 581 3500 
L 1159 3500 
L 1159 2956 
Q 1366 3272 1645 3428 
Q 1925 3584 2291 3584 
Q 2894 3584 3203 3211 
Q 3513 2838 3513 2113 
z
" transform="scale(0.015625)"/>
       </defs>
       <use xlink:href="#DejaVuSans-4a"/>
       <use xlink:href="#DejaVuSans-61" transform="translate(29.492188 0)"/>
       <use xlink:href="#DejaVuSans-6e" transform="translate(90.771484 0)"/>
      </g>
     </g>
    </g>
    <g id="xtick_2">
     <g id="line2d_3">
      <path d="M 127.55152 384.1975 
L 127.55152 39.3575 
" clip-path="url(#pa8610132b0)" style="fill: none; stroke-dasharray: 2.96,1.28; stroke-dashoffset: 0; stroke: #b0b0b0; stroke-opacity: 0.3; stroke-width: 0.8"/>
     </g>
     <g id="line2d_4">
      <g>
       <use xlink:href="#m5863da6aba" x="127.55152" y="384.1975" style="stroke: #000000; stroke-width: 0.8"/>
      </g>
     </g>
     <g id="text_2">
      <!-- Feb -->
      <g transform="translate(118.699958 398.795937) scale(0.1 -0.1)">
       <defs>
        <path id="DejaVuSans-46" d="M 628 4666 
L 3309 4666 
L 3309 4134 
L 1259 4134 
L 1259 2759 
L 3109 2759 
L 3109 2228 
L 1259 2228 
L 1259 0 
L 628 0 
L 628 4666 
z
" transform="scale(0.015625)"/>
        <path id="DejaVuSans-65" d="M 3597 1894 
L 3597 1613 
L 953 1613 
Q 991 1019 1311 708 
Q 1631 397 2203 397 
Q 2534 397 2845 478 
Q 3156 559 3463 722 
L 3463 178 
Q 3153 47 2828 -22 
Q 2503 -91 2169 -91 
Q 1331 -91 842 396 
Q 353 884 353 1716 
Q 353 2575 817 3079 
Q 1281 3584 2069 3584 
Q 2775 3584 3186 3129 
Q 3597 2675 3597 1894 
z
M 3022 2063 
Q 3016 2534 2758 2815 
Q 2500 3097 2075 3097 
Q 1594 3097 1305 2825 
Q 1016 2553 972 2059 
L 3022 2063 
z
" transform="scale(0.015625)"/>
        <path id="DejaVuSans-62" d="M 3116 1747 
Q 3116 2381 2855 2742 
Q 2594 3103 2138 3103 
Q 1681 3103 1420 2742 
Q 1159 2381 1159 1747 
Q 1159 1113 1420 752 
Q 1681 391 2138 391 
Q 2594 391 2855 752 
Q 3116 1113 3116 1747 
z
M 1159 2969 
Q 1341 3281 1617 3432 
Q 1894 3584 2278 3584 
Q 2916 3584 3314 3078 
Q 3713 2572 3713 1747 
Q 3713 922 3314 415 
Q 2916 -91 2278 -91 
Q 1894 -91 1617 61 
Q 1341 213 1159 525 
L 1159 0 
L 581 0 
L 581 4863 
L 1159 4863 
L 1159 2969 
z
" transform="scale(0.015625)"/>
       </defs>
       <use xlink:href="#DejaVuSans-46"/>
       <use xlink:href="#DejaVuSans-65" transform="translate(52.019531 0)"/>
       <use xlink:href="#DejaVuSans-62" transform="translate(113.542969 0)"/>
      </g>
     </g>
    </g>
    <g id="xtick_3">
     <g id="line2d_5">
      <path d="M 187.096926 384.1975 
L 187.096926 39.3575 
" clip-path="url(#pa8610132b0)" style="fill: none; stroke-dasharray: 2.96,1.28; stroke-dashoffset: 0; stroke: #b0b0b0; stroke-opacity: 0.3; stroke-width: 0.8"/>
     </g>
     <g id="line2d_6">
      <g>
       <use xlink:href="#m5863da6aba" x="187.096926" y="384.1975" style="stroke: #000000; stroke-width: 0.8"/>
      </g>
     </g>
     <g id="text_3">
      <!-- Mar -->
      <g transform="translate(177.663332 398.795937) scale(0.1 -0.1)">
       <defs>
        <path id="DejaVuSans-4d" d="M 628 4666 
L 1569 4666 
L 2759 1491 
L 3956 4666 
L 4897 4666 
L 4897 0 
L 4281 0 
L 4281 4097 
L 3078 897 
L 2444 897 
L 1241 4097 
L 1241 0 
L 628 0 
L 628 4666 
z
" transform="scale(0.015625)"/>
        <path id="DejaVuSans-72" d="M 2631 2963 
Q 2534 3019 2420 3045 
Q 2306 3072 2169 3072 
Q 1681 3072 1420 2755 
Q 1159 2438 1159 1844 
L 1159 0 
L 581 0 
L 581 3500 
L 1159 3500 
L 1159 2956 
Q 1341 3275 1631 3429 
Q 1922 3584 2338 3584 
Q 2397 3584 2469 3576 
Q 2541 3569 2628 3553 
L 2631 2963 
z
" transform="scale(0.015625)"/>
       </defs>
       <use xlink:href="#DejaVuSans-4d"/>
       <use xlink:href="#DejaVuSans-61" transform="translate(86.279297 0)"/>
       <use xlink:href="#DejaVuSans-72" transform="translate(147.558594 0)"/>
      </g>
     </g>
    </g>
    <g id="xtick_4">
     <g id="line2d_7">
      <path d="M 253.022196 384.1975 
L 253.022196 39.3575 
" clip-path="url(#pa8610132b0)" style="fill: none; stroke-dasharray: 2.96,1.28; stroke-dashoffset: 0; stroke: #b0b0b0; stroke-opacity: 0.3; stroke-width: 0.8"/>
     </g>
     <g id="line2d_8">
      <g>
       <use xlink:href="#m5863da6aba" x="253.022196" y="384.1975" style="stroke: #000000; stroke-width: 0.8"/>
      </g>
     </g>
     <g id="text_4">
      <!-- Apr -->
      <g transform="translate(244.372196 398.795937) scale(0.1 -0.1)">
       <defs>
        <path id="DejaVuSans-41" d="M 2188 4044 
L 1331 1722 
L 3047 1722 
L 2188 4044 
z
M 1831 4666 
L 2547 4666 
L 4325 0 
L 3669 0 
L 3244 1197 
L 1141 1197 
L 716 0 
L 50 0 
L 1831 4666 
z
" transform="scale(0.015625)"/>
        <path id="DejaVuSans-70" d="M 1159 525 
L 1159 -1331 
L 581 -1331 
L 581 3500 
L 1159 3500 
L 1159 2969 
Q 1341 3281 1617 3432 
Q 1894 3584 2278 3584 
Q 2916 3584 3314 3078 
Q 3713 2572 3713 1747 
Q 3713 922 3314 415 
Q 2916 -91 2278 -91 
Q 1894 -91 1617 61 
Q 1341 213 1159 525 
z
M 3116 1747 
Q 3116 2381 2855 2742 
Q 2594 3103 2138 3103 
Q 1681 3103 1420 2742 
Q 1159 2381 1159 1747 
Q 1159 1113 1420 752 
Q 1681 391 2138 391 
Q 2594 391 2855 752 
Q 3116 1113 3116 1747 
z
" transform="scale(0.015625)"/>
       </defs>
       <use xlink:href="#DejaVuSans-41"/>
       <use xlink:href="#DejaVuSans-70" transform="translate(68.408203 0)"/>
       <use xlink:href="#DejaVuSans-72" transform="translate(131.884766 0)"/>
      </g>
     </g>
    </g>
    <g id="xtick_5">
     <g id="line2d_9">
      <path d="M 316.820845 384.1975 
L 316.820845 39.3575 
" clip-path="url(#pa8610132b0)" style="fill: none; stroke-dasharray: 2.96,1.28; stroke-dashoffset: 0; stroke: #b0b0b0; stroke-opacity: 0.3; stroke-width: 0.8"/>
     </g>
     <g id="line2d_10">
      <g>
       <use xlink:href="#m5863da6aba" x="316.820845" y="384.1975" style="stroke: #000000; stroke-width: 0.8"/>
      </g>
     </g>
     <g id="text_5">
      <!-- May -->
      <g transform="translate(306.483345 398.795937) scale(0.1 -0.1)">
       <defs>
        <path id="DejaVuSans-79" d="M 2059 -325 
Q 1816 -950 1584 -1140 
Q 1353 -1331 966 -1331 
L 506 -1331 
L 506 -850 
L 844 -850 
Q 1081 -850 1212 -737 
Q 1344 -625 1503 -206 
L 1606 56 
L 191 3500 
L 800 3500 
L 1894 763 
L 2988 3500 
L 3597 3500 
L 2059 -325 
z
" transform="scale(0.015625)"/>
       </defs>
       <use xlink:href="#DejaVuSans-4d"/>
       <use xlink:href="#DejaVuSans-61" transform="translate(86.279297 0)"/>
       <use xlink:href="#DejaVuSans-79" transform="translate(147.558594 0)"/>
      </g>
     </g>
    </g>
    <g id="xtick_6">
     <g id="line2d_11">
      <path d="M 382.746115 384.1975 
L 382.746115 39.3575 
" clip-path="url(#pa8610132b0)" style="fill: none; stroke-dasharray: 2.96,1.28; stroke-dashoffset: 0; stroke: #b0b0b0; stroke-opacity: 0.3; stroke-width: 0.8"/>
     </g>
     <g id="line2d_12">
      <g>
       <use xlink:href="#m5863da6aba" x="382.746115" y="384.1975" style="stroke: #000000; stroke-width: 0.8"/>
      </g>
     </g>
     <g id="text_6">
      <!-- Jun -->
      <g transform="translate(374.933615 398.795937) scale(0.1 -0.1)">
       <defs>
        <path id="DejaVuSans-75" d="M 544 1381 
L 544 3500 
L 1119 3500 
L 1119 1403 
Q 1119 906 1312 657 
Q 1506 409 1894 409 
Q 2359 409 2629 706 
Q 2900 1003 2900 1516 
L 2900 3500 
L 3475 3500 
L 3475 0 
L 2900 0 
L 2900 538 
Q 2691 219 2414 64 
Q 2138 -91 1772 -91 
Q 1169 -91 856 284 
Q 544 659 544 1381 
z
M 1991 3584 
L 1991 3584 
z
" transform="scale(0.015625)"/>
       </defs>
       <use xlink:href="#DejaVuSans-4a"/>
       <use xlink:href="#DejaVuSans-75" transform="translate(29.492188 0)"/>
       <use xlink:href="#DejaVuSans-6e" transform="translate(92.871094 0)"/>
      </g>
     </g>
    </g>
    <g id="xtick_7">
     <g id="line2d_13">
      <path d="M 446.544764 384.1975 
L 446.544764 39.3575 
" clip-path="url(#pa8610132b0)" style="fill: none; stroke-dasharray: 2.96,1.28; stroke-dashoffset: 0; stroke: #b0b0b0; stroke-opacity: 0.3; stroke-width: 0.8"/>
     </g>
     <g id="line2d_14">
      <g>
       <use xlink:href="#m5863da6aba" x="446.544764" y="384.1975" style="stroke: #000000; stroke-width: 0.8"/>
      </g>
     </g>
     <g id="text_7">
      <!-- Jul -->
      <g transform="translate(440.511951 398.795937) scale(0.1 -0.1)">
       <defs>
        <path id="DejaVuSans-6c" d="M 603 4863 
L 1178 4863 
L 1178 0 
L 603 0 
L 603 4863 
z
" transform="scale(0.015625)"/>
       </defs>
       <use xlink:href="#DejaVuSans-4a"/>
       <use xlink:href="#DejaVuSans-75" transform="translate(29.492188 0)"/>
       <use xlink:href="#DejaVuSans-6c" transform="translate(92.871094 0)"/>
      </g>
     </g>
    </g>
    <g id="xtick_8">
     <g id="line2d_15">
      <path d="M 512.470034 384.1975 
L 512.470034 39.3575 
" clip-path="url(#pa8610132b0)" style="fill: none; stroke-dasharray: 2.96,1.28; stroke-dashoffset: 0; stroke: #b0b0b0; stroke-opacity: 0.3; stroke-width: 0.8"/>
     </g>
     <g id="line2d_16">
      <g>
       <use xlink:href="#m5863da6aba" x="512.470034" y="384.1975" style="stroke: #000000; stroke-width: 0.8"/>
      </g>
     </g>
     <g id="text_8">
      <!-- Aug -->
      <g transform="translate(502.706753 398.795937) scale(0.1 -0.1)">
       <defs>
        <path id="DejaVuSans-67" d="M 2906 1791 
Q 2906 2416 2648 2759 
Q 2391 3103 1925 3103 
Q 1463 3103 1205 2759 
Q 947 2416 947 1791 
Q 947 1169 1205 825 
Q 1463 481 1925 481 
Q 2391 481 2648 825 
Q 2906 1169 2906 1791 
z
M 3481 434 
Q 3481 -459 3084 -895 
Q 2688 -1331 1869 -1331 
Q 1566 -1331 1297 -1286 
Q 1028 -1241 775 -1147 
L 775 -588 
Q 1028 -725 1275 -790 
Q 1522 -856 1778 -856 
Q 2344 -856 2625 -561 
Q 2906 -266 2906 331 
L 2906 616 
Q 2728 306 2450 153 
Q 2172 0 1784 0 
Q 1141 0 747 490 
Q 353 981 353 1791 
Q 353 2603 747 3093 
Q 1141 3584 1784 3584 
Q 2172 3584 2450 3431 
Q 2728 3278 2906 2969 
L 2906 3500 
L 3481 3500 
L 3481 434 
z
" transform="scale(0.015625)"/>
       </defs>
       <use xlink:href="#DejaVuSans-41"/>
       <use xlink:href="#DejaVuSans-75" transform="translate(68.408203 0)"/>
       <use xlink:href="#DejaVuSans-67" transform="translate(131.787109 0)"/>
      </g>
     </g>
    </g>
    <g id="xtick_9">
     <g id="line2d_17">
      <path d="M 578.395304 384.1975 
L 578.395304 39.3575 
" clip-path="url(#pa8610132b0)" style="fill: none; stroke-dasharray: 2.96,1.28; stroke-dashoffset: 0; stroke: #b0b0b0; stroke-opacity: 0.3; stroke-width: 0.8"/>
     </g>
     <g id="line2d_18">
      <g>
       <use xlink:href="#m5863da6aba" x="578.395304" y="384.1975" style="stroke: #000000; stroke-width: 0.8"/>
      </g>
     </g>
     <g id="text_9">
      <!-- Sep -->
      <g transform="translate(568.970304 398.795937) scale(0.1 -0.1)">
       <defs>
        <path id="DejaVuSans-53" d="M 3425 4513 
L 3425 3897 
Q 3066 4069 2747 4153 
Q 2428 4238 2131 4238 
Q 1616 4238 1336 4038 
Q 1056 3838 1056 3469 
Q 1056 3159 1242 3001 
Q 1428 2844 1947 2747 
L 2328 2669 
Q 3034 2534 3370 2195 
Q 3706 1856 3706 1288 
Q 3706 609 3251 259 
Q 2797 -91 1919 -91 
Q 1588 -91 1214 -16 
Q 841 59 441 206 
L 441 856 
Q 825 641 1194 531 
Q 1563 422 1919 422 
Q 2459 422 2753 634 
Q 3047 847 3047 1241 
Q 3047 1584 2836 1778 
Q 2625 1972 2144 2069 
L 1759 2144 
Q 1053 2284 737 2584 
Q 422 2884 422 3419 
Q 422 4038 858 4394 
Q 1294 4750 2059 4750 
Q 2388 4750 2728 4690 
Q 3069 4631 3425 4513 
z
" transform="scale(0.015625)"/>
       </defs>
       <use xlink:href="#DejaVuSans-53"/>
       <use xlink:href="#DejaVuSans-65" transform="translate(63.476562 0)"/>
       <use xlink:href="#DejaVuSans-70" transform="translate(125 0)"/>
      </g>
     </g>
    </g>
    <g id="xtick_10">
     <g id="line2d_19">
      <path d="M 642.193953 384.1975 
L 642.193953 39.3575 
" clip-path="url(#pa8610132b0)" style="fill: none; stroke-dasharray: 2.96,1.28; stroke-dashoffset: 0; stroke: #b0b0b0; stroke-opacity: 0.3; stroke-width: 0.8"/>
     </g>
     <g id="line2d_20">
      <g>
       <use xlink:href="#m5863da6aba" x="642.193953" y="384.1975" style="stroke: #000000; stroke-width: 0.8"/>
      </g>
     </g>
     <g id="text_10">
      <!-- Oct -->
      <g transform="translate(633.54864 398.795937) scale(0.1 -0.1)">
       <defs>
        <path id="DejaVuSans-4f" d="M 2522 4238 
Q 1834 4238 1429 3725 
Q 1025 3213 1025 2328 
Q 1025 1447 1429 934 
Q 1834 422 2522 422 
Q 3209 422 3611 934 
Q 4013 1447 4013 2328 
Q 4013 3213 3611 3725 
Q 3209 4238 2522 4238 
z
M 2522 4750 
Q 3503 4750 4090 4092 
Q 4678 3434 4678 2328 
Q 4678 1225 4090 567 
Q 3503 -91 2522 -91 
Q 1538 -91 948 565 
Q 359 1222 359 2328 
Q 359 3434 948 4092 
Q 1538 4750 2522 4750 
z
" transform="scale(0.015625)"/>
        <path id="DejaVuSans-63" d="M 3122 3366 
L 3122 2828 
Q 2878 2963 2633 3030 
Q 2388 3097 2138 3097 
Q 1578 3097 1268 2742 
Q 959 2388 959 1747 
Q 959 1106 1268 751 
Q 1578 397 2138 397 
Q 2388 397 2633 464 
Q 2878 531 3122 666 
L 3122 134 
Q 2881 22 2623 -34 
Q 2366 -91 2075 -91 
Q 1284 -91 818 406 
Q 353 903 353 1747 
Q 353 2603 823 3093 
Q 1294 3584 2113 3584 
Q 2378 3584 2631 3529 
Q 2884 3475 3122 3366 
z
" transform="scale(0.015625)"/>
        <path id="DejaVuSans-74" d="M 1172 4494 
L 1172 3500 
L 2356 3500 
L 2356 3053 
L 1172 3053 
L 1172 1153 
Q 1172 725 1289 603 
Q 1406 481 1766 481 
L 2356 481 
L 2356 0 
L 1766 0 
Q 1100 0 847 248 
Q 594 497 594 1153 
L 594 3053 
L 172 3053 
L 172 3500 
L 594 3500 
L 594 4494 
L 1172 4494 
z
" transform="scale(0.015625)"/>
       </defs>
       <use xlink:href="#DejaVuSans-4f"/>
       <use xlink:href="#DejaVuSans-63" transform="translate(78.710938 0)"/>
       <use xlink:href="#DejaVuSans-74" transform="translate(133.691406 0)"/>
      </g>
     </g>
    </g>
    <g id="xtick_11">
     <g id="line2d_21">
      <path d="M 708.119223 384.1975 
L 708.119223 39.3575 
" clip-path="url(#pa8610132b0)" style="fill: none; stroke-dasharray: 2.96,1.28; stroke-dashoffset: 0; stroke: #b0b0b0; stroke-opacity: 0.3; stroke-width: 0.8"/>
     </g>
     <g id="line2d_22">
      <g>
       <use xlink:href="#m5863da6aba" x="708.119223" y="384.1975" style="stroke: #000000; stroke-width: 0.8"/>
      </g>
     </g>
     <g id="text_11">
      <!-- Nov -->
      <g transform="translate(698.359848 398.795937) scale(0.1 -0.1)">
       <defs>
        <path id="DejaVuSans-4e" d="M 628 4666 
L 1478 4666 
L 3547 763 
L 3547 4666 
L 4159 4666 
L 4159 0 
L 3309 0 
L 1241 3903 
L 1241 0 
L 628 0 
L 628 4666 
z
" transform="scale(0.015625)"/>
        <path id="DejaVuSans-6f" d="M 1959 3097 
Q 1497 3097 1228 2736 
Q 959 2375 959 1747 
Q 959 1119 1226 758 
Q 1494 397 1959 397 
Q 2419 397 2687 759 
Q 2956 1122 2956 1747 
Q 2956 2369 2687 2733 
Q 2419 3097 1959 3097 
z
M 1959 3584 
Q 2709 3584 3137 3096 
Q 3566 2609 3566 1747 
Q 3566 888 3137 398 
Q 2709 -91 1959 -91 
Q 1206 -91 779 398 
Q 353 888 353 1747 
Q 353 2609 779 3096 
Q 1206 3584 1959 3584 
z
" transform="scale(0.015625)"/>
        <path id="DejaVuSans-76" d="M 191 3500 
L 800 3500 
L 1894 563 
L 2988 3500 
L 3597 3500 
L 2284 0 
L 1503 0 
L 191 3500 
z
" transform="scale(0.015625)"/>
       </defs>
       <use xlink:href="#DejaVuSans-4e"/>
       <use xlink:href="#DejaVuSans-6f" transform="translate(74.804688 0)"/>
       <use xlink:href="#DejaVuSans-76" transform="translate(135.986328 0)"/>
      </g>
     </g>
    </g>
    <g id="xtick_12">
     <g id="line2d_23">
      <path d="M 771.917872 384.1975 
L 771.917872 39.3575 
" clip-path="url(#pa8610132b0)" style="fill: none; stroke-dasharray: 2.96,1.28; stroke-dashoffset: 0; stroke: #b0b0b0; stroke-opacity: 0.3; stroke-width: 0.8"/>
     </g>
     <g id="line2d_24">
      <g>
       <use xlink:href="#m5863da6aba" x="771.917872" y="384.1975" style="stroke: #000000; stroke-width: 0.8"/>
      </g>
     </g>
     <g id="text_12">
      <!-- Dec -->
      <g transform="translate(762.24209 398.795937) scale(0.1 -0.1)">
       <defs>
        <path id="DejaVuSans-44" d="M 1259 4147 
L 1259 519 
L 2022 519 
Q 2988 519 3436 956 
Q 3884 1394 3884 2338 
Q 3884 3275 3436 3711 
Q 2988 4147 2022 4147 
L 1259 4147 
z
M 628 4666 
L 1925 4666 
Q 3281 4666 3915 4102 
Q 4550 3538 4550 2338 
Q 4550 1131 3912 565 
Q 3275 0 1925 0 
L 628 0 
L 628 4666 
z
" transform="scale(0.015625)"/>
       </defs>
       <use xlink:href="#DejaVuSans-44"/>
       <use xlink:href="#DejaVuSans-65" transform="translate(77.001953 0)"/>
       <use xlink:href="#DejaVuSans-63" transform="translate(138.525391 0)"/>
      </g>
     </g>
    </g>
    <g id="xtick_13">
     <g id="line2d_25">
      <path d="M 837.843142 384.1975 
L 837.843142 39.3575 
" clip-path="url(#pa8610132b0)" style="fill: none; stroke-dasharray: 2.96,1.28; stroke-dashoffset: 0; stroke: #b0b0b0; stroke-opacity: 0.3; stroke-width: 0.8"/>
     </g>
     <g id="line2d_26">
      <g>
       <use xlink:href="#m5863da6aba" x="837.843142" y="384.1975" style="stroke: #000000; stroke-width: 0.8"/>
      </g>
     </g>
     <g id="text_13">
      <!-- Jan -->
      <g transform="translate(830.135329 398.795937) scale(0.1 -0.1)">
       <use xlink:href="#DejaVuSans-4a"/>
       <use xlink:href="#DejaVuSans-61" transform="translate(29.492188 0)"/>
       <use xlink:href="#DejaVuSans-6e" transform="translate(90.771484 0)"/>
      </g>
     </g>
    </g>
    <g id="text_14">
     <!-- Day of the year -->
     <g transform="translate(408.465938 413.99375) scale(0.12 -0.12)">
      <defs>
       <path id="DejaVuSans-20" transform="scale(0.015625)"/>
       <path id="DejaVuSans-66" d="M 2375 4863 
L 2375 4384 
L 1825 4384 
Q 1516 4384 1395 4259 
Q 1275 4134 1275 3809 
L 1275 3500 
L 2222 3500 
L 2222 3053 
L 1275 3053 
L 1275 0 
L 697 0 
L 697 3053 
L 147 3053 
L 147 3500 
L 697 3500 
L 697 3744 
Q 697 4328 969 4595 
Q 1241 4863 1831 4863 
L 2375 4863 
z
" transform="scale(0.015625)"/>
       <path id="DejaVuSans-68" d="M 3513 2113 
L 3513 0 
L 2938 0 
L 2938 2094 
Q 2938 2591 2744 2837 
Q 2550 3084 2163 3084 
Q 1697 3084 1428 2787 
Q 1159 2491 1159 1978 
L 1159 0 
L 581 0 
L 581 4863 
L 1159 4863 
L 1159 2956 
Q 1366 3272 1645 3428 
Q 1925 3584 2291 3584 
Q 2894 3584 3203 3211 
Q 3513 2838 3513 2113 
z
" transform="scale(0.015625)"/>
      </defs>
      <use xlink:href="#DejaVuSans-44"/>
      <use xlink:href="#DejaVuSans-61" transform="translate(77.001953 0)"/>
      <use xlink:href="#DejaVuSans-79" transform="translate(138.28125 0)"/>
      <use xlink:href="#DejaVuSans-20" transform="translate(197.460938 0)"/>
      <use xlink:href="#DejaVuSans-6f" transform="translate(229.248047 0)"/>
      <use xlink:href="#DejaVuSans-66" transform="translate(290.429688 0)"/>
      <use xlink:href="#DejaVuSans-20" transform="translate(325.634766 0)"/>
      <use xlink:href="#DejaVuSans-74" transform="translate(357.421875 0)"/>
      <use xlink:href="#DejaVuSans-68" transform="translate(396.630859 0)"/>
      <use xlink:href="#DejaVuSans-65" transform="translate(460.009766 0)"/>
      <use xlink:href="#DejaVuSans-20" transform="translate(521.533203 0)"/>
      <use xlink:href="#DejaVuSans-79" transform="translate(553.320312 0)"/>
      <use xlink:href="#DejaVuSans-65" transform="translate(612.5 0)"/>
      <use xlink:href="#DejaVuSans-61" transform="translate(674.023438 0)"/>
      <use xlink:href="#DejaVuSans-72" transform="translate(735.302734 0)"/>
     </g>
    </g>
   </g>
   <g id="matplotlib.axis_2">
    <g id="ytick_1">
     <g id="line2d_27">
      <path d="M 61.62625 381.563342 
L 848.47625 381.563342 
" clip-path="url(#pa8610132b0)" style="fill: none; stroke-dasharray: 2.96,1.28; stroke-dashoffset: 0; stroke: #b0b0b0; stroke-opacity: 0.3; stroke-width: 0.8"/>
     </g>
     <g id="line2d_28">
      <defs>
       <path id="m6265ec8737" d="M 0 0 
L -3.5 0 
" style="stroke: #000000; stroke-width: 0.8"/>
      </defs>
      <g>
       <use xlink:href="#m6265ec8737" x="61.62625" y="381.563342" style="stroke: #000000; stroke-width: 0.8"/>
      </g>
     </g>
     <g id="text_15">
      <!-- 0 -->
      <g transform="translate(48.26375 385.362561) scale(0.1 -0.1)">
       <defs>
        <path id="DejaVuSans-30" d="M 2034 4250 
Q 1547 4250 1301 3770 
Q 1056 3291 1056 2328 
Q 1056 1369 1301 889 
Q 1547 409 2034 409 
Q 2525 409 2770 889 
Q 3016 1369 3016 2328 
Q 3016 3291 2770 3770 
Q 2525 4250 2034 4250 
z
M 2034 4750 
Q 2819 4750 3233 4129 
Q 3647 3509 3647 2328 
Q 3647 1150 3233 529 
Q 2819 -91 2034 -91 
Q 1250 -91 836 529 
Q 422 1150 422 2328 
Q 422 3509 836 4129 
Q 1250 4750 2034 4750 
z
" transform="scale(0.015625)"/>
       </defs>
       <use xlink:href="#DejaVuSans-30"/>
      </g>
     </g>
    </g>
    <g id="ytick_2">
     <g id="line2d_29">
      <path d="M 61.62625 311.074762 
L 848.47625 311.074762 
" clip-path="url(#pa8610132b0)" style="fill: none; stroke-dasharray: 2.96,1.28; stroke-dashoffset: 0; stroke: #b0b0b0; stroke-opacity: 0.3; stroke-width: 0.8"/>
     </g>
     <g id="line2d_30">
      <g>
       <use xlink:href="#m6265ec8737" x="61.62625" y="311.074762" style="stroke: #000000; stroke-width: 0.8"/>
      </g>
     </g>
     <g id="text_16">
      <!-- 5000 -->
      <g transform="translate(29.17625 314.873981) scale(0.1 -0.1)">
       <defs>
        <path id="DejaVuSans-35" d="M 691 4666 
L 3169 4666 
L 3169 4134 
L 1269 4134 
L 1269 2991 
Q 1406 3038 1543 3061 
Q 1681 3084 1819 3084 
Q 2600 3084 3056 2656 
Q 3513 2228 3513 1497 
Q 3513 744 3044 326 
Q 2575 -91 1722 -91 
Q 1428 -91 1123 -41 
Q 819 9 494 109 
L 494 744 
Q 775 591 1075 516 
Q 1375 441 1709 441 
Q 2250 441 2565 725 
Q 2881 1009 2881 1497 
Q 2881 1984 2565 2268 
Q 2250 2553 1709 2553 
Q 1456 2553 1204 2497 
Q 953 2441 691 2322 
L 691 4666 
z
" transform="scale(0.015625)"/>
       </defs>
       <use xlink:href="#DejaVuSans-35"/>
       <use xlink:href="#DejaVuSans-30" transform="translate(63.623047 0)"/>
       <use xlink:href="#DejaVuSans-30" transform="translate(127.246094 0)"/>
       <use xlink:href="#DejaVuSans-30" transform="translate(190.869141 0)"/>
      </g>
     </g>
    </g>
    <g id="ytick_3">
     <g id="line2d_31">
      <path d="M 61.62625 240.586182 
L 848.47625 240.586182 
" clip-path="url(#pa8610132b0)" style="fill: none; stroke-dasharray: 2.96,1.28; stroke-dashoffset: 0; stroke: #b0b0b0; stroke-opacity: 0.3; stroke-width: 0.8"/>
     </g>
     <g id="line2d_32">
      <g>
       <use xlink:href="#m6265ec8737" x="61.62625" y="240.586182" style="stroke: #000000; stroke-width: 0.8"/>
      </g>
     </g>
     <g id="text_17">
      <!-- 10000 -->
      <g transform="translate(22.81375 244.385401) scale(0.1 -0.1)">
       <defs>
        <path id="DejaVuSans-31" d="M 794 531 
L 1825 531 
L 1825 4091 
L 703 3866 
L 703 4441 
L 1819 4666 
L 2450 4666 
L 2450 531 
L 3481 531 
L 3481 0 
L 794 0 
L 794 531 
z
" transform="scale(0.015625)"/>
       </defs>
       <use xlink:href="#DejaVuSans-31"/>
       <use xlink:href="#DejaVuSans-30" transform="translate(63.623047 0)"/>
       <use xlink:href="#DejaVuSans-30" transform="translate(127.246094 0)"/>
       <use xlink:href="#DejaVuSans-30" transform="translate(190.869141 0)"/>
       <use xlink:href="#DejaVuSans-30" transform="translate(254.492188 0)"/>
      </g>
     </g>
    </g>
    <g id="ytick_4">
     <g id="line2d_33">
      <path d="M 61.62625 170.097603 
L 848.47625 170.097603 
" clip-path="url(#pa8610132b0)" style="fill: none; stroke-dasharray: 2.96,1.28; stroke-dashoffset: 0; stroke: #b0b0b0; stroke-opacity: 0.3; stroke-width: 0.8"/>
     </g>
     <g id="line2d_34">
      <g>
       <use xlink:href="#m6265ec8737" x="61.62625" y="170.097603" style="stroke: #000000; stroke-width: 0.8"/>
      </g>
     </g>
     <g id="text_18">
      <!-- 15000 -->
      <g transform="translate(22.81375 173.896822) scale(0.1 -0.1)">
       <use xlink:href="#DejaVuSans-31"/>
       <use xlink:href="#DejaVuSans-35" transform="translate(63.623047 0)"/>
       <use xlink:href="#DejaVuSans-30" transform="translate(127.246094 0)"/>
       <use xlink:href="#DejaVuSans-30" transform="translate(190.869141 0)"/>
       <use xlink:href="#DejaVuSans-30" transform="translate(254.492188 0)"/>
      </g>
     </g>
    </g>
    <g id="ytick_5">
     <g id="line2d_35">
      <path d="M 61.62625 99.609023 
L 848.47625 99.609023 
" clip-path="url(#pa8610132b0)" style="fill: none; stroke-dasharray: 2.96,1.28; stroke-dashoffset: 0; stroke: #b0b0b0; stroke-opacity: 0.3; stroke-width: 0.8"/>
     </g>
     <g id="line2d_36">
      <g>
       <use xlink:href="#m6265ec8737" x="61.62625" y="99.609023" style="stroke: #000000; stroke-width: 0.8"/>
      </g>
     </g>
     <g id="text_19">
      <!-- 20000 -->
      <g transform="translate(22.81375 103.408242) scale(0.1 -0.1)">
       <defs>
        <path id="DejaVuSans-32" d="M 1228 531 
L 3431 531 
L 3431 0 
L 469 0 
L 469 531 
Q 828 903 1448 1529 
Q 2069 2156 2228 2338 
Q 2531 2678 2651 2914 
Q 2772 3150 2772 3378 
Q 2772 3750 2511 3984 
Q 2250 4219 1831 4219 
Q 1534 4219 1204 4116 
Q 875 4013 500 3803 
L 500 4441 
Q 881 4594 1212 4672 
Q 1544 4750 1819 4750 
Q 2544 4750 2975 4387 
Q 3406 4025 3406 3419 
Q 3406 3131 3298 2873 
Q 3191 2616 2906 2266 
Q 2828 2175 2409 1742 
Q 1991 1309 1228 531 
z
" transform="scale(0.015625)"/>
       </defs>
       <use xlink:href="#DejaVuSans-32"/>
       <use xlink:href="#DejaVuSans-30" transform="translate(63.623047 0)"/>
       <use xlink:href="#DejaVuSans-30" transform="translate(127.246094 0)"/>
       <use xlink:href="#DejaVuSans-30" transform="translate(190.869141 0)"/>
       <use xlink:href="#DejaVuSans-30" transform="translate(254.492188 0)"/>
      </g>
     </g>
    </g>
    <g id="text_20">
     <!-- Daily pedestrian count -->
     <g transform="translate(16.318125 279.793125) rotate(-90) scale(0.12 -0.12)">
      <defs>
       <path id="DejaVuSans-69" d="M 603 3500 
L 1178 3500 
L 1178 0 
L 603 0 
L 603 3500 
z
M 603 4863 
L 1178 4863 
L 1178 4134 
L 603 4134 
L 603 4863 
z
" transform="scale(0.015625)"/>
       <path id="DejaVuSans-64" d="M 2906 2969 
L 2906 4863 
L 3481 4863 
L 3481 0 
L 2906 0 
L 2906 525 
Q 2725 213 2448 61 
Q 2172 -91 1784 -91 
Q 1150 -91 751 415 
Q 353 922 353 1747 
Q 353 2572 751 3078 
Q 1150 3584 1784 3584 
Q 2172 3584 2448 3432 
Q 2725 3281 2906 2969 
z
M 947 1747 
Q 947 1113 1208 752 
Q 1469 391 1925 391 
Q 2381 391 2643 752 
Q 2906 1113 2906 1747 
Q 2906 2381 2643 2742 
Q 2381 3103 1925 3103 
Q 1469 3103 1208 2742 
Q 947 2381 947 1747 
z
" transform="scale(0.015625)"/>
       <path id="DejaVuSans-73" d="M 2834 3397 
L 2834 2853 
Q 2591 2978 2328 3040 
Q 2066 3103 1784 3103 
Q 1356 3103 1142 2972 
Q 928 2841 928 2578 
Q 928 2378 1081 2264 
Q 1234 2150 1697 2047 
L 1894 2003 
Q 2506 1872 2764 1633 
Q 3022 1394 3022 966 
Q 3022 478 2636 193 
Q 2250 -91 1575 -91 
Q 1294 -91 989 -36 
Q 684 19 347 128 
L 347 722 
Q 666 556 975 473 
Q 1284 391 1588 391 
Q 1994 391 2212 530 
Q 2431 669 2431 922 
Q 2431 1156 2273 1281 
Q 2116 1406 1581 1522 
L 1381 1569 
Q 847 1681 609 1914 
Q 372 2147 372 2553 
Q 372 3047 722 3315 
Q 1072 3584 1716 3584 
Q 2034 3584 2315 3537 
Q 2597 3491 2834 3397 
z
" transform="scale(0.015625)"/>
      </defs>
      <use xlink:href="#DejaVuSans-44"/>
      <use xlink:href="#DejaVuSans-61" transform="translate(77.001953 0)"/>
      <use xlink:href="#DejaVuSans-69" transform="translate(138.28125 0)"/>
      <use xlink:href="#DejaVuSans-6c" transform="translate(166.064453 0)"/>
      <use xlink:href="#DejaVuSans-79" transform="translate(193.847656 0)"/>
      <use xlink:href="#DejaVuSans-20" transform="translate(253.027344 0)"/>
      <use xlink:href="#DejaVuSans-70" transform="translate(284.814453 0)"/>
      <use xlink:href="#DejaVuSans-65" transform="translate(348.291016 0)"/>
      <use xlink:href="#DejaVuSans-64" transform="translate(409.814453 0)"/>
      <use xlink:href="#DejaVuSans-65" transform="translate(473.291016 0)"/>
      <use xlink:href="#DejaVuSans-73" transform="translate(534.814453 0)"/>
      <use xlink:href="#DejaVuSans-74" transform="translate(586.914062 0)"/>
      <use xlink:href="#DejaVuSans-72" transform="translate(626.123047 0)"/>
      <use xlink:href="#DejaVuSans-69" transform="translate(667.236328 0)"/>
      <use xlink:href="#DejaVuSans-61" transform="translate(695.019531 0)"/>
      <use xlink:href="#DejaVuSans-6e" transform="translate(756.298828 0)"/>
      <use xlink:href="#DejaVuSans-20" transform="translate(819.677734 0)"/>
      <use xlink:href="#DejaVuSans-63" transform="translate(851.464844 0)"/>
      <use xlink:href="#DejaVuSans-6f" transform="translate(906.445312 0)"/>
      <use xlink:href="#DejaVuSans-75" transform="translate(967.626953 0)"/>
      <use xlink:href="#DejaVuSans-6e" transform="translate(1031.005859 0)"/>
      <use xlink:href="#DejaVuSans-74" transform="translate(1094.384766 0)"/>
     </g>
    </g>
   </g>
   <g id="line2d_37">
    <path d="M 63.752872 160.990478 
L 65.879493 183.518628 
L 68.006115 184.068439 
L 70.132736 218.396378 
L 72.259358 172.719778 
L 74.38598 201.338141 
L 76.512601 216.211232 
L 78.639223 212.799584 
L 80.765845 206.272342 
L 82.892466 208.809931 
L 85.019088 163.683142 
L 87.145709 171.53557 
L 89.272331 191.667108 
L 91.398953 229.167033 
L 93.525574 228.123802 
L 95.652196 220.948064 
L 97.778818 221.356898 
L 99.905439 184.914302 
L 102.032061 156.126766 
L 104.158682 185.689677 
L 106.285304 211.883233 
L 108.411926 213.871011 
L 110.538547 202.339079 
L 112.665169 214.434919 
L 114.791791 205.835313 
L 116.918412 145.24333 
L 119.045034 168.278998 
L 121.171655 193.119173 
L 123.298277 213.250711 
L 125.424899 246.295757 
L 127.55152 217.564612 
L 129.678142 163.711338 
L 131.804764 151.277152 
L 133.931385 183.955658 
L 136.058007 151.234859 
L 138.184628 139.942588 
L 140.31125 206.215951 
L 142.437872 170.774293 
L 144.564493 129.059152 
L 146.691115 125.844873 
L 148.817736 111.902232 
L 150.944358 199.900174 
L 153.07098 204.453737 
L 155.197601 202.860695 
L 157.324223 163.274308 
L 159.450845 150.685048 
L 161.577466 124.251831 
L 163.704088 168.166216 
L 165.830709 201.112578 
L 167.957331 194.994169 
L 170.083953 189.594744 
L 172.210574 185.393625 
L 174.337196 133.767789 
L 176.463818 91.953963 
L 178.590439 125.816677 
L 180.717061 184.040244 
L 182.843682 202.747913 
L 184.970304 189.242301 
L 187.096926 174.270527 
L 189.223547 150.713243 
L 191.350169 132.597678 
L 193.476791 187.254523 
L 195.603412 193.105075 
L 197.730034 201.140773 
L 199.856655 202.959379 
L 201.983277 179.232923 
L 204.109899 138.941651 
L 206.23652 105.107132 
L 210.489764 152.715119 
L 212.616385 202.268591 
L 214.743007 199.167093 
L 216.869628 186.803396 
L 218.99625 121.587362 
L 221.122872 103.655068 
L 223.249493 158.748942 
L 225.376115 195.022365 
L 227.502736 201.042089 
L 229.629358 203.086258 
L 231.75598 189.228203 
L 233.882601 142.46608 
L 236.009223 116.512185 
L 238.135845 86.061118 
L 240.262466 166.361708 
L 242.389088 150.924709 
L 244.515709 165.050621 
L 246.642331 127.635282 
L 248.768953 115.581735 
L 250.895574 121.615558 
L 253.022196 153.955718 
L 255.148818 194.613531 
L 257.275439 139.082628 
L 259.402061 148.105166 
L 261.528682 163.528067 
L 263.655304 109.0122 
L 265.781926 96.761285 
L 267.908547 125.224573 
L 270.035169 191.455642 
L 272.161791 176.41338 
L 274.288412 168.025239 
L 276.415034 162.513032 
L 278.541655 109.759379 
L 280.668277 83.692702 
L 282.794899 127.578892 
L 284.92152 174.467895 
L 287.048142 153.927523 
L 289.174764 166.234829 
L 291.301385 108.3919 
L 293.428007 66.000068 
L 295.554628 55.032045 
L 297.68125 94.576139 
L 299.807872 142.325102 
L 301.934493 174.834435 
L 304.061115 194.782703 
L 306.187736 128.791295 
L 308.314358 161.201944 
L 310.44098 133.260271 
L 312.567601 184.25171 
L 314.694223 206.399221 
L 316.820845 199.012018 
L 318.947466 186.281781 
L 321.074088 193.697179 
L 323.200709 132.597678 
L 325.327331 131.075125 
L 327.453953 171.267713 
L 329.580574 206.568394 
L 331.707196 200.168031 
L 333.833818 202.480056 
L 335.960439 217.310854 
L 338.087061 175.79308 
L 340.213682 121.009356 
L 342.340304 159.298752 
L 344.466926 209.500719 
L 346.593547 208.979103 
L 350.846791 184.026146 
L 352.973412 127.860846 
L 355.100034 96.747187 
L 357.226655 143.438822 
L 359.353277 206.300537 
L 361.479899 199.378559 
L 363.60652 187.733845 
L 365.733142 181.460362 
L 367.859764 140.774354 
L 369.986385 135.558199 
L 374.239628 221.568364 
L 376.36625 210.276093 
L 378.492872 221.808025 
L 380.619493 196.742286 
L 382.746115 140.717963 
L 384.872736 113.410687 
L 386.999358 184.350394 
L 389.12598 227.179255 
L 391.252601 198.715966 
L 393.379223 199.92837 
L 395.505845 181.305287 
L 397.632466 134.430382 
L 399.759088 104.656006 
L 401.885709 130.201067 
L 404.012331 177.146461 
L 406.138953 207.752602 
L 408.265574 223.358774 
L 410.392196 175.003608 
L 412.518818 132.160649 
L 414.645439 131.41347 
L 416.772061 184.702837 
L 418.898682 182.517691 
L 421.025304 230.407632 
L 423.151926 172.776169 
L 425.278547 147.639941 
L 427.405169 103.880631 
L 429.531791 130.793171 
L 431.658412 196.009205 
L 433.785034 218.07213 
L 435.911655 210.980979 
L 438.038277 202.804304 
L 440.164899 190.595682 
L 442.29152 147.174717 
L 444.418142 179.387998 
L 446.544764 175.271465 
L 448.671385 220.370058 
L 450.798007 213.109734 
L 452.924628 211.389813 
L 455.05125 208.401097 
L 457.177872 149.641817 
L 459.304493 139.153116 
L 461.431115 196.601309 
L 463.557736 198.293035 
L 465.684358 207.287377 
L 469.937601 205.539261 
L 472.064223 169.716965 
L 474.190845 167.475428 
L 476.317466 210.586243 
L 478.444088 224.853132 
L 480.570709 229.886016 
L 482.697331 225.72719 
L 484.823953 205.567456 
L 486.950574 155.661542 
L 489.077196 132.879633 
L 491.203818 175.581614 
L 493.330439 214.336235 
L 495.457061 228.391658 
L 497.583682 200.309008 
L 499.710304 204.087196 
L 501.836926 171.084443 
L 503.963547 122.856157 
L 506.090169 162.766791 
L 508.216791 223.683021 
L 510.343412 224.091855 
L 512.470034 217.874762 
L 514.596655 200.901112 
L 516.723277 159.49612 
L 518.849899 131.202005 
L 520.97652 173.354175 
L 523.103142 208.203729 
L 525.229764 215.91518 
L 527.356385 173.100416 
L 529.483007 200.830624 
L 531.609628 170.153994 
L 533.73625 148.908736 
L 535.862872 177.287438 
L 537.989493 227.602186 
L 540.116115 231.027931 
L 542.242736 221.568364 
L 544.369358 215.886984 
L 548.622601 141.761194 
L 550.749223 205.003547 
L 552.875845 236.258184 
L 555.002466 232.705559 
L 557.129088 226.178317 
L 559.255709 214.702776 
L 561.382331 155.760226 
L 563.508953 135.290342 
L 565.635574 201.605998 
L 567.762196 236.793897 
L 569.888818 231.563644 
L 572.015439 247.776018 
L 574.142061 220.313667 
L 576.268682 177.809053 
L 578.395304 161.483898 
L 580.521926 214.251649 
L 582.648547 246.676396 
L 584.775169 238.034496 
L 586.901791 231.972478 
L 589.028412 229.195228 
L 591.155034 196.262964 
L 593.281655 170.562827 
L 595.408277 231.366276 
L 597.534899 253.344615 
L 599.66152 240.924528 
L 601.788142 222.94994 
L 603.914764 227.094668 
L 606.041385 156.465112 
L 608.168007 160.623938 
L 610.294628 232.860634 
L 612.42125 248.621881 
L 614.547872 243.744071 
L 618.801115 217.310854 
L 620.927736 168.180313 
L 623.054358 195.755446 
L 625.18098 175.595712 
L 627.307601 242.714938 
L 629.434223 232.804243 
L 631.560845 225.149184 
L 633.687466 177.484806 
L 635.814088 195.966912 
L 637.940709 200.633256 
L 640.067331 210.995077 
L 642.193953 226.234708 
L 644.320574 205.327795 
L 646.447196 199.632318 
L 648.573818 204.059001 
L 650.700439 194.613531 
L 652.827061 159.707586 
L 657.080304 238.527916 
L 659.206926 245.915119 
L 661.333547 231.845599 
L 663.460169 229.886016 
L 665.586791 176.864507 
L 667.713412 169.74516 
L 669.840034 208.499781 
L 671.966655 236.244086 
L 674.093277 241.234677 
L 676.219899 242.165127 
L 678.34652 231.620035 
L 680.473142 175.680298 
L 682.599764 182.672765 
L 684.726385 217.860664 
L 686.853007 240.515694 
L 688.979628 224.162343 
L 691.10625 211.107858 
L 693.232872 209.55711 
L 695.359493 190.567486 
L 697.486115 198.123862 
L 699.612736 225.558017 
L 701.739358 230.985638 
L 703.86598 226.178317 
L 705.992601 220.059908 
L 708.119223 218.8757 
L 710.245845 184.110732 
L 712.372466 182.108857 
L 714.499088 205.398284 
L 716.625709 197.306195 
L 718.752331 191.554327 
L 720.878953 210.600341 
L 723.005574 227.151059 
L 725.132196 185.760165 
L 727.258818 173.466957 
L 729.385439 192.794926 
L 731.512061 204.947157 
L 733.638682 216.267623 
L 735.765304 206.596589 
L 737.891926 136.60143 
L 740.018547 98.57989 
L 742.145169 130.24336 
L 744.271791 184.984791 
L 746.398412 169.505499 
L 748.525034 167.193473 
L 750.651655 144.693519 
L 752.778277 158.156837 
L 754.904899 146.582613 
L 757.03152 155.280903 
L 759.158142 177.27334 
L 761.284764 179.712245 
L 763.411385 216.958411 
L 765.538007 162.231077 
L 767.664628 152.376774 
L 769.79125 91.009417 
L 774.044493 194.965974 
L 776.171115 190.511096 
L 778.297736 186.916178 
L 780.424358 166.122047 
L 782.55098 154.984851 
L 784.677601 112.268772 
L 786.804223 141.634314 
L 788.930845 167.6446 
L 791.057466 217.959348 
L 793.184088 204.665202 
L 797.437331 180.684988 
L 801.690574 143.692581 
L 803.817196 162.527129 
L 805.943818 186.958471 
L 808.070439 198.476305 
L 810.197061 194.458456 
L 812.323682 164.599494 
L 814.450304 197.898299 
L 816.576926 149.218886 
L 818.703547 156.71887 
L 820.830169 152.193504 
L 822.956791 152.320383 
L 825.083412 135.61459 
L 827.210034 90.191749 
L 829.336655 150.008358 
L 831.463277 147.879603 
L 833.589899 165.755506 
L 835.71652 217.240365 
L 837.843142 138.532817 
L 837.843142 138.532817 
" clip-path="url(#pa8610132b0)" style="fill: none; stroke: #0d6efc; stroke-opacity: 0.8; stroke-width: 2.5; stroke-linecap: square"/>
   </g>
   <g id="line2d_38">
    <path d="M 63.752872 160.722622 
L 65.879493 189.848503 
L 68.006115 176.159621 
L 70.132736 194.627629 
L 72.259358 221.526071 
L 74.38598 237.893519 
L 76.512601 207.865384 
L 78.639223 208.584367 
L 80.765845 209.74038 
L 82.892466 184.829716 
L 85.019088 166.869226 
L 87.145709 229.61816 
L 89.272331 228.560831 
L 91.398953 218.777016 
L 93.525574 227.672675 
L 95.652196 205.736629 
L 97.778818 179.204727 
L 99.905439 139.886198 
L 104.158682 231.986576 
L 106.285304 313.259908 
L 140.31125 254.810778 
L 142.437872 180.868258 
L 144.564493 146.624906 
L 146.691115 186.450953 
L 148.817736 231.09842 
L 150.944358 226.262903 
L 153.07098 219.792052 
L 155.197601 225.966851 
L 157.324223 174.355113 
L 159.450845 158.410596 
L 161.577466 193.358834 
L 163.704088 235.990327 
L 165.830709 231.95838 
L 167.957331 225.642604 
L 170.083953 212.122894 
L 174.337196 126.465172 
L 176.463818 164.881448 
L 178.590439 219.481902 
L 180.717061 217.508222 
L 182.843682 212.221578 
L 184.970304 198.335328 
L 187.096926 168.983883 
L 189.223547 121.798828 
L 191.350169 180.445326 
L 193.476791 225.769483 
L 195.603412 186.168999 
L 197.730034 160.243299 
L 199.856655 207.45655 
L 201.983277 169.984821 
L 204.109899 126.35239 
L 206.23652 132.809144 
L 208.363142 178.739503 
L 210.489764 219.806149 
L 212.616385 229.547671 
L 214.743007 207.625723 
L 218.99625 152.292188 
L 221.122872 212.136992 
L 223.249493 215.91518 
L 225.376115 217.240365 
L 227.502736 214.829655 
L 229.629358 230.252557 
L 233.882601 127.029081 
L 236.009223 167.757382 
L 238.135845 230.605 
L 240.262466 222.033588 
L 242.389088 218.297694 
L 244.515709 205.778922 
L 246.642331 159.735782 
L 248.768953 120.107102 
L 250.895574 168.814711 
L 253.022196 222.428324 
L 255.148818 210.600341 
L 257.275439 208.372902 
L 259.402061 217.39544 
L 263.655304 121.545069 
L 265.781926 174.665263 
L 267.908547 208.852224 
L 270.035169 201.873855 
L 272.161791 190.934027 
L 274.288412 171.859817 
L 276.415034 143.382431 
L 278.541655 106.432318 
L 280.668277 147.273401 
L 282.794899 207.259182 
L 284.92152 187.52238 
L 287.048142 184.181221 
L 289.174764 142.973597 
L 291.301385 130.779073 
L 293.428007 98.565792 
L 295.554628 137.672856 
L 297.68125 184.604153 
L 299.807872 206.65298 
L 301.934493 202.663327 
L 304.061115 169.110763 
L 306.187736 168.857004 
L 308.314358 148.415316 
L 310.44098 192.851316 
L 312.567601 245.463992 
L 314.694223 252.963977 
L 316.820845 231.789208 
L 318.947466 220.609719 
L 321.074088 177.075972 
L 323.200709 136.220791 
L 325.327331 180.98104 
L 327.453953 238.823968 
L 329.580574 230.689586 
L 331.707196 233.38225 
L 333.833818 220.017615 
L 335.960439 174.651165 
L 338.087061 120.572327 
L 340.213682 176.314696 
L 342.340304 238.725284 
L 344.466926 227.982824 
L 346.593547 230.280752 
L 348.720169 209.74038 
L 350.846791 172.21226 
L 352.973412 160.807208 
L 355.100034 188.38234 
L 357.226655 233.509129 
L 359.353277 227.940531 
L 361.479899 207.527039 
L 363.60652 219.67927 
L 365.733142 186.521442 
L 367.859764 134.021548 
L 369.986385 181.432166 
L 372.113007 239.754417 
L 374.239628 245.308917 
L 376.36625 237.118144 
L 378.492872 221.328703 
L 380.619493 184.843814 
L 382.746115 136.559137 
L 384.872736 201.958441 
L 386.999358 286.065414 
L 389.12598 251.483717 
L 391.252601 237.921714 
L 393.379223 228.349365 
L 395.505845 215.760105 
L 397.632466 347.094426 
L 399.759088 165.121109 
L 401.885709 212.108796 
L 404.012331 250.158532 
L 406.138953 239.049531 
L 408.265574 224.007269 
L 410.392196 184.759227 
L 412.518818 177.978226 
L 414.645439 366.492883 
L 416.772061 250.84932 
L 418.898682 242.559863 
L 421.025304 226.262903 
L 423.151926 234.383187 
L 425.278547 344.345372 
L 427.405169 146.342952 
L 429.531791 190.807148 
L 431.658412 245.590872 
L 433.785034 245.139745 
L 435.911655 251.356837 
L 438.038277 212.108796 
L 440.164899 175.948155 
L 442.29152 126.070436 
L 444.418142 203.340017 
L 446.544764 368.522955 
L 448.671385 233.0721 
L 450.798007 253.866231 
L 452.924628 360.614136 
L 455.05125 181.883293 
L 457.177872 128.1428 
L 459.304493 170.732 
L 461.431115 201.126676 
L 463.557736 213.208418 
L 465.684358 202.973476 
L 467.81098 201.859757 
L 472.064223 123.786606 
L 474.190845 190.877636 
L 476.317466 200.492278 
L 478.444088 213.701838 
L 480.570709 200.73194 
L 482.697331 203.579678 
L 484.823953 156.704773 
L 486.950574 146.667199 
L 489.077196 190.553389 
L 491.203818 229.886016 
L 493.330439 250.412291 
L 495.457061 233.607813 
L 497.583682 212.038308 
L 499.710304 185.675579 
L 501.836926 161.526192 
L 503.963547 195.304319 
L 506.090169 239.655733 
L 508.216791 239.528854 
L 510.343412 229.900114 
L 512.470034 221.977197 
L 514.596655 181.16431 
L 516.723277 130.595803 
L 518.849899 175.750787 
L 520.97652 238.457427 
L 523.103142 363.729731 
L 525.229764 230.280752 
L 527.356385 216.197134 
L 529.483007 166.855128 
L 531.609628 126.084534 
L 533.73625 155.915301 
L 535.862872 220.243178 
L 537.989493 234.566458 
L 540.116115 216.140743 
L 544.369358 191.342861 
L 546.49598 139.900295 
L 548.622601 183.32126 
L 550.749223 238.260059 
L 552.875845 230.830563 
L 555.002466 216.859727 
L 557.129088 197.137022 
L 559.255709 169.646476 
L 561.382331 126.028143 
L 563.508953 173.311882 
L 565.635574 234.439578 
L 567.762196 253.725254 
L 569.888818 240.614378 
L 572.015439 226.474369 
L 574.142061 201.605998 
L 576.268682 169.533694 
L 578.395304 233.650106 
L 580.521926 252.301384 
L 584.775169 236.173597 
L 586.901791 236.864385 
L 589.028412 190.79305 
L 591.155034 141.465142 
L 593.281655 209.43023 
L 595.408277 240.91043 
L 597.534899 242.785426 
L 599.66152 248.311731 
L 601.788142 235.863448 
L 603.914764 192.512971 
L 606.041385 171.620156 
L 608.168007 192.061844 
L 610.294628 238.485623 
L 612.42125 250.031652 
L 614.547872 235.623786 
L 616.674493 225.149184 
L 618.801115 187.494184 
L 620.927736 152.531849 
L 623.054358 203.847535 
L 625.18098 234.312699 
L 627.307601 222.724376 
L 629.434223 225.783581 
L 631.560845 182.306225 
L 633.687466 168.532756 
L 635.814088 175.003608 
L 637.940709 195.247928 
L 640.067331 207.653918 
L 642.193953 214.575897 
L 644.320574 202.226297 
L 646.447196 206.131365 
L 648.573818 161.610778 
L 650.700439 112.719899 
L 652.827061 196.403941 
L 654.953682 215.901082 
L 657.080304 222.865354 
L 659.206926 222.245054 
L 661.333547 210.529852 
L 663.460169 173.932182 
L 665.586791 151.150273 
L 667.713412 201.309946 
L 669.840034 240.60028 
L 671.966655 233.650106 
L 674.093277 227.672675 
L 676.219899 222.82306 
L 678.34652 180.783672 
L 680.473142 141.84578 
L 682.599764 195.924618 
L 684.726385 244.561738 
L 686.853007 234.904803 
L 688.979628 252.005332 
L 691.10625 218.142619 
L 693.232872 182.306225 
L 695.359493 162.0901 
L 697.486115 223.527946 
L 699.612736 234.876608 
L 701.739358 222.738474 
L 703.86598 216.704652 
L 705.992601 193.697179 
L 708.119223 175.045901 
L 710.245845 135.050681 
L 712.372466 173.311882 
L 714.499088 213.730034 
L 716.625709 215.633225 
L 718.752331 220.778892 
L 720.878953 212.193383 
L 723.005574 188.847565 
L 725.132196 181.389873 
L 727.258818 195.247928 
L 729.385439 241.446143 
L 731.512061 236.934874 
L 733.638682 220.792989 
L 735.765304 200.449985 
L 737.891926 164.754569 
L 740.018547 144.411564 
L 742.145169 202.874792 
L 744.271791 232.014771 
L 746.398412 223.26009 
L 748.525034 216.084352 
L 750.651655 211.981917 
L 752.778277 179.19063 
L 754.904899 152.517751 
L 757.03152 198.617282 
L 759.158142 223.584337 
L 761.284764 221.032651 
L 763.411385 222.653888 
L 767.664628 181.587241 
L 769.79125 155.027145 
L 771.917872 193.542104 
L 774.044493 237.879421 
L 776.171115 221.709341 
L 778.297736 201.521412 
L 780.424358 203.170844 
L 782.55098 171.380495 
L 784.677601 156.408721 
L 786.804223 166.559076 
L 788.930845 222.371934 
L 791.057466 218.861602 
L 793.184088 215.619128 
L 795.310709 199.110702 
L 797.437331 173.029928 
L 799.563953 128.001823 
L 801.690574 161.822244 
L 803.817196 222.14637 
L 805.943818 249.890675 
L 808.070439 188.974444 
L 810.197061 208.809931 
L 812.323682 176.10323 
L 814.450304 133.161587 
L 816.576926 196.601309 
L 818.703547 169.716965 
L 820.830169 163.471676 
L 822.956791 170.872977 
L 825.083412 182.249834 
L 827.210034 122.292248 
L 829.336655 127.127765 
L 831.463277 137.799736 
L 833.589899 190.553389 
L 835.71652 196.742286 
L 837.843142 162.978256 
L 837.843142 162.978256 
" clip-path="url(#pa8610132b0)" style="fill: none; stroke: #83c966; stroke-opacity: 0.8; stroke-width: 2.5; stroke-linecap: square"/>
   </g>
   <g id="patch_3">
    <path d="M 61.62625 384.1975 
L 61.62625 39.3575 
" style="fill: none; stroke: #000000; stroke-width: 0.8; stroke-linejoin: miter; stroke-linecap: square"/>
   </g>
   <g id="patch_4">
    <path d="M 61.62625 384.1975 
L 848.47625 384.1975 
" style="fill: none; stroke: #000000; stroke-width: 0.8; stroke-linejoin: miter; stroke-linecap: square"/>
   </g>
   <g id="text_21">
    <!-- Pedestrian Traffic at Chinatown-Swanston St (North) -->
    <g transform="translate(246.8275 19.3575) scale(0.16 -0.16)">
     <defs>
      <path id="DejaVuSans-50" d="M 1259 4147 
L 1259 2394 
L 2053 2394 
Q 2494 2394 2734 2622 
Q 2975 2850 2975 3272 
Q 2975 3691 2734 3919 
Q 2494 4147 2053 4147 
L 1259 4147 
z
M 628 4666 
L 2053 4666 
Q 2838 4666 3239 4311 
Q 3641 3956 3641 3272 
Q 3641 2581 3239 2228 
Q 2838 1875 2053 1875 
L 1259 1875 
L 1259 0 
L 628 0 
L 628 4666 
z
" transform="scale(0.015625)"/>
      <path id="DejaVuSans-54" d="M -19 4666 
L 3928 4666 
L 3928 4134 
L 2272 4134 
L 2272 0 
L 1638 0 
L 1638 4134 
L -19 4134 
L -19 4666 
z
" transform="scale(0.015625)"/>
      <path id="DejaVuSans-43" d="M 4122 4306 
L 4122 3641 
Q 3803 3938 3442 4084 
Q 3081 4231 2675 4231 
Q 1875 4231 1450 3742 
Q 1025 3253 1025 2328 
Q 1025 1406 1450 917 
Q 1875 428 2675 428 
Q 3081 428 3442 575 
Q 3803 722 4122 1019 
L 4122 359 
Q 3791 134 3420 21 
Q 3050 -91 2638 -91 
Q 1578 -91 968 557 
Q 359 1206 359 2328 
Q 359 3453 968 4101 
Q 1578 4750 2638 4750 
Q 3056 4750 3426 4639 
Q 3797 4528 4122 4306 
z
" transform="scale(0.015625)"/>
      <path id="DejaVuSans-77" d="M 269 3500 
L 844 3500 
L 1563 769 
L 2278 3500 
L 2956 3500 
L 3675 769 
L 4391 3500 
L 4966 3500 
L 4050 0 
L 3372 0 
L 2619 2869 
L 1863 0 
L 1184 0 
L 269 3500 
z
" transform="scale(0.015625)"/>
      <path id="DejaVuSans-2d" d="M 313 2009 
L 1997 2009 
L 1997 1497 
L 313 1497 
L 313 2009 
z
" transform="scale(0.015625)"/>
      <path id="DejaVuSans-28" d="M 1984 4856 
Q 1566 4138 1362 3434 
Q 1159 2731 1159 2009 
Q 1159 1288 1364 580 
Q 1569 -128 1984 -844 
L 1484 -844 
Q 1016 -109 783 600 
Q 550 1309 550 2009 
Q 550 2706 781 3412 
Q 1013 4119 1484 4856 
L 1984 4856 
z
" transform="scale(0.015625)"/>
      <path id="DejaVuSans-29" d="M 513 4856 
L 1013 4856 
Q 1481 4119 1714 3412 
Q 1947 2706 1947 2009 
Q 1947 1309 1714 600 
Q 1481 -109 1013 -844 
L 513 -844 
Q 928 -128 1133 580 
Q 1338 1288 1338 2009 
Q 1338 2731 1133 3434 
Q 928 4138 513 4856 
z
" transform="scale(0.015625)"/>
     </defs>
     <use xlink:href="#DejaVuSans-50"/>
     <use xlink:href="#DejaVuSans-65" transform="translate(56.677734 0)"/>
     <use xlink:href="#DejaVuSans-64" transform="translate(118.201172 0)"/>
     <use xlink:href="#DejaVuSans-65" transform="translate(181.677734 0)"/>
     <use xlink:href="#DejaVuSans-73" transform="translate(243.201172 0)"/>
     <use xlink:href="#DejaVuSans-74" transform="translate(295.300781 0)"/>
     <use xlink:href="#DejaVuSans-72" transform="translate(334.509766 0)"/>
     <use xlink:href="#DejaVuSans-69" transform="translate(375.623047 0)"/>
     <use xlink:href="#DejaVuSans-61" transform="translate(403.40625 0)"/>
     <use xlink:href="#DejaVuSans-6e" transform="translate(464.685547 0)"/>
     <use xlink:href="#DejaVuSans-20" transform="translate(528.064453 0)"/>
     <use xlink:href="#DejaVuSans-54" transform="translate(559.851562 0)"/>
     <use xlink:href="#DejaVuSans-72" transform="translate(606.185547 0)"/>
     <use xlink:href="#DejaVuSans-61" transform="translate(647.298828 0)"/>
     <use xlink:href="#DejaVuSans-66" transform="translate(708.578125 0)"/>
     <use xlink:href="#DejaVuSans-66" transform="translate(743.783203 0)"/>
     <use xlink:href="#DejaVuSans-69" transform="translate(778.988281 0)"/>
     <use xlink:href="#DejaVuSans-63" transform="translate(806.771484 0)"/>
     <use xlink:href="#DejaVuSans-20" transform="translate(861.751953 0)"/>
     <use xlink:href="#DejaVuSans-61" transform="translate(893.539062 0)"/>
     <use xlink:href="#DejaVuSans-74" transform="translate(954.818359 0)"/>
     <use xlink:href="#DejaVuSans-20" transform="translate(994.027344 0)"/>
     <use xlink:href="#DejaVuSans-43" transform="translate(1025.814453 0)"/>
     <use xlink:href="#DejaVuSans-68" transform="translate(1095.638672 0)"/>
     <use xlink:href="#DejaVuSans-69" transform="translate(1159.017578 0)"/>
     <use xlink:href="#DejaVuSans-6e" transform="translate(1186.800781 0)"/>
     <use xlink:href="#DejaVuSans-61" transform="translate(1250.179688 0)"/>
     <use xlink:href="#DejaVuSans-74" transform="translate(1311.458984 0)"/>
     <use xlink:href="#DejaVuSans-6f" transform="translate(1350.667969 0)"/>
     <use xlink:href="#DejaVuSans-77" transform="translate(1411.849609 0)"/>
     <use xlink:href="#DejaVuSans-6e" transform="translate(1493.636719 0)"/>
     <use xlink:href="#DejaVuSans-2d" transform="translate(1557.015625 0)"/>
     <use xlink:href="#DejaVuSans-53" transform="translate(1593.099609 0)"/>
     <use xlink:href="#DejaVuSans-77" transform="translate(1656.576172 0)"/>
     <use xlink:href="#DejaVuSans-61" transform="translate(1738.363281 0)"/>
     <use xlink:href="#DejaVuSans-6e" transform="translate(1799.642578 0)"/>
     <use xlink:href="#DejaVuSans-73" transform="translate(1863.021484 0)"/>
     <use xlink:href="#DejaVuSans-74" transform="translate(1915.121094 0)"/>
     <use xlink:href="#DejaVuSans-6f" transform="translate(1954.330078 0)"/>
     <use xlink:href="#DejaVuSans-6e" transform="translate(2015.511719 0)"/>
     <use xlink:href="#DejaVuSans-20" transform="translate(2078.890625 0)"/>
     <use xlink:href="#DejaVuSans-53" transform="translate(2110.677734 0)"/>
     <use xlink:href="#DejaVuSans-74" transform="translate(2174.154297 0)"/>
     <use xlink:href="#DejaVuSans-20" transform="translate(2213.363281 0)"/>
     <use xlink:href="#DejaVuSans-28" transform="translate(2245.150391 0)"/>
     <use xlink:href="#DejaVuSans-4e" transform="translate(2284.164062 0)"/>
     <use xlink:href="#DejaVuSans-6f" transform="translate(2358.96875 0)"/>
     <use xlink:href="#DejaVuSans-72" transform="translate(2420.150391 0)"/>
     <use xlink:href="#DejaVuSans-74" transform="translate(2461.263672 0)"/>
     <use xlink:href="#DejaVuSans-68" transform="translate(2500.472656 0)"/>
     <use xlink:href="#DejaVuSans-29" transform="translate(2563.851562 0)"/>
    </g>
   </g>
   <g id="legend_1">
    <g id="patch_5">
     <path d="M 69.32625 80.449375 
L 132.52125 80.449375 
Q 134.72125 80.449375 134.72125 78.249375 
L 134.72125 47.0575 
Q 134.72125 44.8575 132.52125 44.8575 
L 69.32625 44.8575 
Q 67.12625 44.8575 67.12625 47.0575 
L 67.12625 78.249375 
Q 67.12625 80.449375 69.32625 80.449375 
z
" style="fill: #ffffff; opacity: 0.95; stroke: #cccccc; stroke-linejoin: miter"/>
    </g>
    <g id="line2d_39">
     <path d="M 71.52625 53.765781 
L 82.52625 53.765781 
L 93.52625 53.765781 
" style="fill: none; stroke: #0d6efc; stroke-opacity: 0.8; stroke-width: 2.5; stroke-linecap: square"/>
    </g>
    <g id="text_22">
     <!-- 2019 -->
     <g transform="translate(102.32625 57.615781) scale(0.11 -0.11)">
      <defs>
       <path id="DejaVuSans-39" d="M 703 97 
L 703 672 
Q 941 559 1184 500 
Q 1428 441 1663 441 
Q 2288 441 2617 861 
Q 2947 1281 2994 2138 
Q 2813 1869 2534 1725 
Q 2256 1581 1919 1581 
Q 1219 1581 811 2004 
Q 403 2428 403 3163 
Q 403 3881 828 4315 
Q 1253 4750 1959 4750 
Q 2769 4750 3195 4129 
Q 3622 3509 3622 2328 
Q 3622 1225 3098 567 
Q 2575 -91 1691 -91 
Q 1453 -91 1209 -44 
Q 966 3 703 97 
z
M 1959 2075 
Q 2384 2075 2632 2365 
Q 2881 2656 2881 3163 
Q 2881 3666 2632 3958 
Q 2384 4250 1959 4250 
Q 1534 4250 1286 3958 
Q 1038 3666 1038 3163 
Q 1038 2656 1286 2365 
Q 1534 2075 1959 2075 
z
" transform="scale(0.015625)"/>
      </defs>
      <use xlink:href="#DejaVuSans-32"/>
      <use xlink:href="#DejaVuSans-30" transform="translate(63.623047 0)"/>
      <use xlink:href="#DejaVuSans-31" transform="translate(127.246094 0)"/>
      <use xlink:href="#DejaVuSans-39" transform="translate(190.869141 0)"/>
     </g>
    </g>
    <g id="line2d_40">
     <path d="M 71.52625 69.911719 
L 82.52625 69.911719 
L 93.52625 69.911719 
" style="fill: none; stroke: #83c966; stroke-opacity: 0.8; stroke-width: 2.5; stroke-linecap: square"/>
    </g>
    <g id="text_23">
     <!-- 2025 -->
     <g transform="translate(102.32625 73.761719) scale(0.11 -0.11)">
      <use xlink:href="#DejaVuSans-32"/>
      <use xlink:href="#DejaVuSans-30" transform="translate(63.623047 0)"/>
      <use xlink:href="#DejaVuSans-32" transform="translate(127.246094 0)"/>
      <use xlink:href="#DejaVuSans-35" transform="translate(190.869141 0)"/>
     </g>
    </g>
   </g>
  </g>
 </g>
 <defs>
  <clipPath id="pa8610132b0">
   <rect x="61.62625" y="39.3575" width="786.85" height="344.84"/>
  </clipPath>
 </defs>
</svg>
