<?xml version="1.0" encoding="utf-8" standalone="no"?>
<!DOCTYPE svg PUBLIC "-//W3C//DTD SVG 1.1//EN"
  "http://www.w3.org/Graphics/SVG/1.1/DTD/svg11.dtd">
<svg xmlns:xlink="http://www.w3.org/1999/xlink" width="711.521791pt" height="423.689375pt" viewBox="0 0 711.521791 423.689375" xmlns="http://www.w3.org/2000/svg" version="1.1">
 <metadata>
  <rdf:RDF xmlns:dc="http://purl.org/dc/elements/1.1/" xmlns:cc="http://creativecommons.org/ns#" xmlns:rdf="http://www.w3.org/1999/02/22-rdf-syntax-ns#">
   <cc:Work>
    <dc:type rdf:resource="http://purl.org/dc/dcmitype/StillImage"/>
    <dc:date>2026-01-28T17:49:42.960784</dc:date>
    <dc:format>image/svg+xml</dc:format>
    <dc:creator>
     <cc:Agent>
      <dc:title>Matplotlib v3.10.8, https://matplotlib.org/</dc:title>
     </cc:Agent>
    </dc:creator>
   </cc:Work>
  </rdf:RDF>
 </metadata>
 <defs>
  <style type="text/css">*{stroke-linejoin: round; stroke-linecap: butt}</style>
 </defs>
 <g id="figure_1">
  <g id="patch_1">
   <path d="M 0 423.689375 
L 711.521791 423.689375 
L 711.521791 0 
L 0 0 
L 0 423.689375 
z
" style="fill: none"/>
  </g>
  <g id="axes_1">
   <g id="patch_2">
    <path d="M 61.62625 384.1975 
L 704.321791 384.1975 
L 704.321791 39.3575 
L 61.62625 39.3575 
L 61.62625 384.1975 
z
" style="fill: none"/>
   </g>
   <g id="matplotlib.axis_1">
    <g id="xtick_1">
     <g id="line2d_1">
      <path d="M 61.62625 384.1975 
L 61.62625 39.3575 
" clip-path="url(#p615d3e9bd9)" style="fill: none; stroke-dasharray: 2.96,1.28; stroke-dashoffset: 0; stroke: #b0b0b0; stroke-opacity: 0.3; stroke-width: 0.8"/>
     </g>
     <g id="line2d_2">
      <defs>
       <path id="m10aa41312f" d="M 0 0 
L 0 3.5 
" style="stroke: #000000; stroke-width: 0.8"/>
      </defs>
      <g>
       <use xlink:href="#m10aa41312f" x="61.62625" y="384.1975" style="stroke: #000000; stroke-width: 0.8"/>
      </g>
     </g>
     <g id="text_1">
      <!-- Jan -->
      <g transform="translate(53.918438 398.795937) scale(0.1 -0.1)">
       <defs>
        <path id="DejaVuSans-4a" d="M 628 4666 
L 1259 4666 
L 1259 325 
Q 1259 -519 939 -900 
Q 619 -1281 -91 -1281 
L -331 -1281 
L -331 -750 
L -134 -750 
Q 284 -750 456 -515 
Q 628 -281 628 325 
L 628 4666 
z
" transform="scale(0.015625)"/>
        <path id="DejaVuSans-61" d="M 2194 1759 
Q 1497 1759 1228 1600 
Q 959 1441 959 1056 
Q 959 750 1161 570 
Q 1363 391 1709 391 
Q 2188 391 2477 730 
Q 2766 1069 2766 1631 
L 2766 1759 
L 2194 1759 
z
M 3341 1997 
L 3341 0 
L 2766 0 
L 2766 531 
Q 2569 213 2275 61 
Q 1981 -91 1556 -91 
Q 1019 -91 701 211 
Q 384 513 384 1019 
Q 384 1609 779 1909 
Q 1175 2209 1959 2209 
L 2766 2209 
L 2766 2266 
Q 2766 2663 2505 2880 
Q 2244 3097 1772 3097 
Q 1472 3097 1187 3025 
Q 903 2953 641 2809 
L 641 3341 
Q 956 3463 1253 3523 
Q 1550 3584 1831 3584 
Q 2591 3584 2966 3190 
Q 3341 2797 3341 1997 
z
" transform="scale(0.015625)"/>
        <path id="DejaVuSans-6e" d="M 3513 2113 
L 3513 0 
L 2938 0 
L 2938 2094 
Q 2938 2591 2744 2837 
Q 2550 3084 2163 3084 
Q 1697 3084 1428 2787 
Q 1159 2491 1159 1978 
L 1159 0 
L 581 0 
L 581 3500 
L 1159 3500 
L 1159 2956 
Q 1366 3272 1645 3428 
Q 1925 3584 2291 3584 
Q 2894 3584 3203 3211 
Q 3513 2838 3513 2113 
z
" transform="scale(0.015625)"/>
       </defs>
       <use xlink:href="#DejaVuSans-4a"/>
       <use xlink:href="#DejaVuSans-61" transform="translate(29.492188 0)"/>
       <use xlink:href="#DejaVuSans-6e" transform="translate(90.771484 0)"/>
      </g>
     </g>
    </g>
    <g id="xtick_2">
     <g id="line2d_3">
      <path d="M 115.473714 384.1975 
L 115.473714 39.3575 
" clip-path="url(#p615d3e9bd9)" style="fill: none; stroke-dasharray: 2.96,1.28; stroke-dashoffset: 0; stroke: #b0b0b0; stroke-opacity: 0.3; stroke-width: 0.8"/>
     </g>
     <g id="line2d_4">
      <g>
       <use xlink:href="#m10aa41312f" x="115.473714" y="384.1975" style="stroke: #000000; stroke-width: 0.8"/>
      </g>
     </g>
     <g id="text_2">
      <!-- Feb -->
      <g transform="translate(106.622152 398.795937) scale(0.1 -0.1)">
       <defs>
        <path id="DejaVuSans-46" d="M 628 4666 
L 3309 4666 
L 3309 4134 
L 1259 4134 
L 1259 2759 
L 3109 2759 
L 3109 2228 
L 1259 2228 
L 1259 0 
L 628 0 
L 628 4666 
z
" transform="scale(0.015625)"/>
        <path id="DejaVuSans-65" d="M 3597 1894 
L 3597 1613 
L 953 1613 
Q 991 1019 1311 708 
Q 1631 397 2203 397 
Q 2534 397 2845 478 
Q 3156 559 3463 722 
L 3463 178 
Q 3153 47 2828 -22 
Q 2503 -91 2169 -91 
Q 1331 -91 842 396 
Q 353 884 353 1716 
Q 353 2575 817 3079 
Q 1281 3584 2069 3584 
Q 2775 3584 3186 3129 
Q 3597 2675 3597 1894 
z
M 3022 2063 
Q 3016 2534 2758 2815 
Q 2500 3097 2075 3097 
Q 1594 3097 1305 2825 
Q 1016 2553 972 2059 
L 3022 2063 
z
" transform="scale(0.015625)"/>
        <path id="DejaVuSans-62" d="M 3116 1747 
Q 3116 2381 2855 2742 
Q 2594 3103 2138 3103 
Q 1681 3103 1420 2742 
Q 1159 2381 1159 1747 
Q 1159 1113 1420 752 
Q 1681 391 2138 391 
Q 2594 391 2855 752 
Q 3116 1113 3116 1747 
z
M 1159 2969 
Q 1341 3281 1617 3432 
Q 1894 3584 2278 3584 
Q 2916 3584 3314 3078 
Q 3713 2572 3713 1747 
Q 3713 922 3314 415 
Q 2916 -91 2278 -91 
Q 1894 -91 1617 61 
Q 1341 213 1159 525 
L 1159 0 
L 581 0 
L 581 4863 
L 1159 4863 
L 1159 2969 
z
" transform="scale(0.015625)"/>
       </defs>
       <use xlink:href="#DejaVuSans-46"/>
       <use xlink:href="#DejaVuSans-65" transform="translate(52.019531 0)"/>
       <use xlink:href="#DejaVuSans-62" transform="translate(113.542969 0)"/>
      </g>
     </g>
    </g>
    <g id="xtick_3">
     <g id="line2d_5">
      <path d="M 164.110133 384.1975 
L 164.110133 39.3575 
" clip-path="url(#p615d3e9bd9)" style="fill: none; stroke-dasharray: 2.96,1.28; stroke-dashoffset: 0; stroke: #b0b0b0; stroke-opacity: 0.3; stroke-width: 0.8"/>
     </g>
     <g id="line2d_6">
      <g>
       <use xlink:href="#m10aa41312f" x="164.110133" y="384.1975" style="stroke: #000000; stroke-width: 0.8"/>
      </g>
     </g>
     <g id="text_3">
      <!-- Mar -->
      <g transform="translate(154.67654 398.795937) scale(0.1 -0.1)">
       <defs>
        <path id="DejaVuSans-4d" d="M 628 4666 
L 1569 4666 
L 2759 1491 
L 3956 4666 
L 4897 4666 
L 4897 0 
L 4281 0 
L 4281 4097 
L 3078 897 
L 2444 897 
L 1241 4097 
L 1241 0 
L 628 0 
L 628 4666 
z
" transform="scale(0.015625)"/>
        <path id="DejaVuSans-72" d="M 2631 2963 
Q 2534 3019 2420 3045 
Q 2306 3072 2169 3072 
Q 1681 3072 1420 2755 
Q 1159 2438 1159 1844 
L 1159 0 
L 581 0 
L 581 3500 
L 1159 3500 
L 1159 2956 
Q 1341 3275 1631 3429 
Q 1922 3584 2338 3584 
Q 2397 3584 2469 3576 
Q 2541 3569 2628 3553 
L 2631 2963 
z
" transform="scale(0.015625)"/>
       </defs>
       <use xlink:href="#DejaVuSans-4d"/>
       <use xlink:href="#DejaVuSans-61" transform="translate(86.279297 0)"/>
       <use xlink:href="#DejaVuSans-72" transform="translate(147.558594 0)"/>
      </g>
     </g>
    </g>
    <g id="xtick_4">
     <g id="line2d_7">
      <path d="M 217.957598 384.1975 
L 217.957598 39.3575 
" clip-path="url(#p615d3e9bd9)" style="fill: none; stroke-dasharray: 2.96,1.28; stroke-dashoffset: 0; stroke: #b0b0b0; stroke-opacity: 0.3; stroke-width: 0.8"/>
     </g>
     <g id="line2d_8">
      <g>
       <use xlink:href="#m10aa41312f" x="217.957598" y="384.1975" style="stroke: #000000; stroke-width: 0.8"/>
      </g>
     </g>
     <g id="text_4">
      <!-- Apr -->
      <g transform="translate(209.307598 398.795937) scale(0.1 -0.1)">
       <defs>
        <path id="DejaVuSans-41" d="M 2188 4044 
L 1331 1722 
L 3047 1722 
L 2188 4044 
z
M 1831 4666 
L 2547 4666 
L 4325 0 
L 3669 0 
L 3244 1197 
L 1141 1197 
L 716 0 
L 50 0 
L 1831 4666 
z
" transform="scale(0.015625)"/>
        <path id="DejaVuSans-70" d="M 1159 525 
L 1159 -1331 
L 581 -1331 
L 581 3500 
L 1159 3500 
L 1159 2969 
Q 1341 3281 1617 3432 
Q 1894 3584 2278 3584 
Q 2916 3584 3314 3078 
Q 3713 2572 3713 1747 
Q 3713 922 3314 415 
Q 2916 -91 2278 -91 
Q 1894 -91 1617 61 
Q 1341 213 1159 525 
z
M 3116 1747 
Q 3116 2381 2855 2742 
Q 2594 3103 2138 3103 
Q 1681 3103 1420 2742 
Q 1159 2381 1159 1747 
Q 1159 1113 1420 752 
Q 1681 391 2138 391 
Q 2594 391 2855 752 
Q 3116 1113 3116 1747 
z
" transform="scale(0.015625)"/>
       </defs>
       <use xlink:href="#DejaVuSans-41"/>
       <use xlink:href="#DejaVuSans-70" transform="translate(68.408203 0)"/>
       <use xlink:href="#DejaVuSans-72" transform="translate(131.884766 0)"/>
      </g>
     </g>
    </g>
    <g id="xtick_5">
     <g id="line2d_9">
      <path d="M 270.068047 384.1975 
L 270.068047 39.3575 
" clip-path="url(#p615d3e9bd9)" style="fill: none; stroke-dasharray: 2.96,1.28; stroke-dashoffset: 0; stroke: #b0b0b0; stroke-opacity: 0.3; stroke-width: 0.8"/>
     </g>
     <g id="line2d_10">
      <g>
       <use xlink:href="#m10aa41312f" x="270.068047" y="384.1975" style="stroke: #000000; stroke-width: 0.8"/>
      </g>
     </g>
     <g id="text_5">
      <!-- May -->
      <g transform="translate(259.730547 398.795937) scale(0.1 -0.1)">
       <defs>
        <path id="DejaVuSans-79" d="M 2059 -325 
Q 1816 -950 1584 -1140 
Q 1353 -1331 966 -1331 
L 506 -1331 
L 506 -850 
L 844 -850 
Q 1081 -850 1212 -737 
Q 1344 -625 1503 -206 
L 1606 56 
L 191 3500 
L 800 3500 
L 1894 763 
L 2988 3500 
L 3597 3500 
L 2059 -325 
z
" transform="scale(0.015625)"/>
       </defs>
       <use xlink:href="#DejaVuSans-4d"/>
       <use xlink:href="#DejaVuSans-61" transform="translate(86.279297 0)"/>
       <use xlink:href="#DejaVuSans-79" transform="translate(147.558594 0)"/>
      </g>
     </g>
    </g>
    <g id="xtick_6">
     <g id="line2d_11">
      <path d="M 323.915511 384.1975 
L 323.915511 39.3575 
" clip-path="url(#p615d3e9bd9)" style="fill: none; stroke-dasharray: 2.96,1.28; stroke-dashoffset: 0; stroke: #b0b0b0; stroke-opacity: 0.3; stroke-width: 0.8"/>
     </g>
     <g id="line2d_12">
      <g>
       <use xlink:href="#m10aa41312f" x="323.915511" y="384.1975" style="stroke: #000000; stroke-width: 0.8"/>
      </g>
     </g>
     <g id="text_6">
      <!-- Jun -->
      <g transform="translate(316.103011 398.795937) scale(0.1 -0.1)">
       <defs>
        <path id="DejaVuSans-75" d="M 544 1381 
L 544 3500 
L 1119 3500 
L 1119 1403 
Q 1119 906 1312 657 
Q 1506 409 1894 409 
Q 2359 409 2629 706 
Q 2900 1003 2900 1516 
L 2900 3500 
L 3475 3500 
L 3475 0 
L 2900 0 
L 2900 538 
Q 2691 219 2414 64 
Q 2138 -91 1772 -91 
Q 1169 -91 856 284 
Q 544 659 544 1381 
z
M 1991 3584 
L 1991 3584 
z
" transform="scale(0.015625)"/>
       </defs>
       <use xlink:href="#DejaVuSans-4a"/>
       <use xlink:href="#DejaVuSans-75" transform="translate(29.492188 0)"/>
       <use xlink:href="#DejaVuSans-6e" transform="translate(92.871094 0)"/>
      </g>
     </g>
    </g>
    <g id="xtick_7">
     <g id="line2d_13">
      <path d="M 376.02596 384.1975 
L 376.02596 39.3575 
" clip-path="url(#p615d3e9bd9)" style="fill: none; stroke-dasharray: 2.96,1.28; stroke-dashoffset: 0; stroke: #b0b0b0; stroke-opacity: 0.3; stroke-width: 0.8"/>
     </g>
     <g id="line2d_14">
      <g>
       <use xlink:href="#m10aa41312f" x="376.02596" y="384.1975" style="stroke: #000000; stroke-width: 0.8"/>
      </g>
     </g>
     <g id="text_7">
      <!-- Jul -->
      <g transform="translate(369.993148 398.795937) scale(0.1 -0.1)">
       <defs>
        <path id="DejaVuSans-6c" d="M 603 4863 
L 1178 4863 
L 1178 0 
L 603 0 
L 603 4863 
z
" transform="scale(0.015625)"/>
       </defs>
       <use xlink:href="#DejaVuSans-4a"/>
       <use xlink:href="#DejaVuSans-75" transform="translate(29.492188 0)"/>
       <use xlink:href="#DejaVuSans-6c" transform="translate(92.871094 0)"/>
      </g>
     </g>
    </g>
    <g id="xtick_8">
     <g id="line2d_15">
      <path d="M 429.873425 384.1975 
L 429.873425 39.3575 
" clip-path="url(#p615d3e9bd9)" style="fill: none; stroke-dasharray: 2.96,1.28; stroke-dashoffset: 0; stroke: #b0b0b0; stroke-opacity: 0.3; stroke-width: 0.8"/>
     </g>
     <g id="line2d_16">
      <g>
       <use xlink:href="#m10aa41312f" x="429.873425" y="384.1975" style="stroke: #000000; stroke-width: 0.8"/>
      </g>
     </g>
     <g id="text_8">
      <!-- Aug -->
      <g transform="translate(420.110143 398.795937) scale(0.1 -0.1)">
       <defs>
        <path id="DejaVuSans-67" d="M 2906 1791 
Q 2906 2416 2648 2759 
Q 2391 3103 1925 3103 
Q 1463 3103 1205 2759 
Q 947 2416 947 1791 
Q 947 1169 1205 825 
Q 1463 481 1925 481 
Q 2391 481 2648 825 
Q 2906 1169 2906 1791 
z
M 3481 434 
Q 3481 -459 3084 -895 
Q 2688 -1331 1869 -1331 
Q 1566 -1331 1297 -1286 
Q 1028 -1241 775 -1147 
L 775 -588 
Q 1028 -725 1275 -790 
Q 1522 -856 1778 -856 
Q 2344 -856 2625 -561 
Q 2906 -266 2906 331 
L 2906 616 
Q 2728 306 2450 153 
Q 2172 0 1784 0 
Q 1141 0 747 490 
Q 353 981 353 1791 
Q 353 2603 747 3093 
Q 1141 3584 1784 3584 
Q 2172 3584 2450 3431 
Q 2728 3278 2906 2969 
L 2906 3500 
L 3481 3500 
L 3481 434 
z
" transform="scale(0.015625)"/>
       </defs>
       <use xlink:href="#DejaVuSans-41"/>
       <use xlink:href="#DejaVuSans-75" transform="translate(68.408203 0)"/>
       <use xlink:href="#DejaVuSans-67" transform="translate(131.787109 0)"/>
      </g>
     </g>
    </g>
    <g id="xtick_9">
     <g id="line2d_17">
      <path d="M 483.720889 384.1975 
L 483.720889 39.3575 
" clip-path="url(#p615d3e9bd9)" style="fill: none; stroke-dasharray: 2.96,1.28; stroke-dashoffset: 0; stroke: #b0b0b0; stroke-opacity: 0.3; stroke-width: 0.8"/>
     </g>
     <g id="line2d_18">
      <g>
       <use xlink:href="#m10aa41312f" x="483.720889" y="384.1975" style="stroke: #000000; stroke-width: 0.8"/>
      </g>
     </g>
     <g id="text_9">
      <!-- Sep -->
      <g transform="translate(474.295889 398.795937) scale(0.1 -0.1)">
       <defs>
        <path id="DejaVuSans-53" d="M 3425 4513 
L 3425 3897 
Q 3066 4069 2747 4153 
Q 2428 4238 2131 4238 
Q 1616 4238 1336 4038 
Q 1056 3838 1056 3469 
Q 1056 3159 1242 3001 
Q 1428 2844 1947 2747 
L 2328 2669 
Q 3034 2534 3370 2195 
Q 3706 1856 3706 1288 
Q 3706 609 3251 259 
Q 2797 -91 1919 -91 
Q 1588 -91 1214 -16 
Q 841 59 441 206 
L 441 856 
Q 825 641 1194 531 
Q 1563 422 1919 422 
Q 2459 422 2753 634 
Q 3047 847 3047 1241 
Q 3047 1584 2836 1778 
Q 2625 1972 2144 2069 
L 1759 2144 
Q 1053 2284 737 2584 
Q 422 2884 422 3419 
Q 422 4038 858 4394 
Q 1294 4750 2059 4750 
Q 2388 4750 2728 4690 
Q 3069 4631 3425 4513 
z
" transform="scale(0.015625)"/>
       </defs>
       <use xlink:href="#DejaVuSans-53"/>
       <use xlink:href="#DejaVuSans-65" transform="translate(63.476562 0)"/>
       <use xlink:href="#DejaVuSans-70" transform="translate(125 0)"/>
      </g>
     </g>
    </g>
    <g id="xtick_10">
     <g id="line2d_19">
      <path d="M 535.831338 384.1975 
L 535.831338 39.3575 
" clip-path="url(#p615d3e9bd9)" style="fill: none; stroke-dasharray: 2.96,1.28; stroke-dashoffset: 0; stroke: #b0b0b0; stroke-opacity: 0.3; stroke-width: 0.8"/>
     </g>
     <g id="line2d_20">
      <g>
       <use xlink:href="#m10aa41312f" x="535.831338" y="384.1975" style="stroke: #000000; stroke-width: 0.8"/>
      </g>
     </g>
     <g id="text_10">
      <!-- Oct -->
      <g transform="translate(527.186026 398.795937) scale(0.1 -0.1)">
       <defs>
        <path id="DejaVuSans-4f" d="M 2522 4238 
Q 1834 4238 1429 3725 
Q 1025 3213 1025 2328 
Q 1025 1447 1429 934 
Q 1834 422 2522 422 
Q 3209 422 3611 934 
Q 4013 1447 4013 2328 
Q 4013 3213 3611 3725 
Q 3209 4238 2522 4238 
z
M 2522 4750 
Q 3503 4750 4090 4092 
Q 4678 3434 4678 2328 
Q 4678 1225 4090 567 
Q 3503 -91 2522 -91 
Q 1538 -91 948 565 
Q 359 1222 359 2328 
Q 359 3434 948 4092 
Q 1538 4750 2522 4750 
z
" transform="scale(0.015625)"/>
        <path id="DejaVuSans-63" d="M 3122 3366 
L 3122 2828 
Q 2878 2963 2633 3030 
Q 2388 3097 2138 3097 
Q 1578 3097 1268 2742 
Q 959 2388 959 1747 
Q 959 1106 1268 751 
Q 1578 397 2138 397 
Q 2388 397 2633 464 
Q 2878 531 3122 666 
L 3122 134 
Q 2881 22 2623 -34 
Q 2366 -91 2075 -91 
Q 1284 -91 818 406 
Q 353 903 353 1747 
Q 353 2603 823 3093 
Q 1294 3584 2113 3584 
Q 2378 3584 2631 3529 
Q 2884 3475 3122 3366 
z
" transform="scale(0.015625)"/>
        <path id="DejaVuSans-74" d="M 1172 4494 
L 1172 3500 
L 2356 3500 
L 2356 3053 
L 1172 3053 
L 1172 1153 
Q 1172 725 1289 603 
Q 1406 481 1766 481 
L 2356 481 
L 2356 0 
L 1766 0 
Q 1100 0 847 248 
Q 594 497 594 1153 
L 594 3053 
L 172 3053 
L 172 3500 
L 594 3500 
L 594 4494 
L 1172 4494 
z
" transform="scale(0.015625)"/>
       </defs>
       <use xlink:href="#DejaVuSans-4f"/>
       <use xlink:href="#DejaVuSans-63" transform="translate(78.710938 0)"/>
       <use xlink:href="#DejaVuSans-74" transform="translate(133.691406 0)"/>
      </g>
     </g>
    </g>
    <g id="xtick_11">
     <g id="line2d_21">
      <path d="M 589.678802 384.1975 
L 589.678802 39.3575 
" clip-path="url(#p615d3e9bd9)" style="fill: none; stroke-dasharray: 2.96,1.28; stroke-dashoffset: 0; stroke: #b0b0b0; stroke-opacity: 0.3; stroke-width: 0.8"/>
     </g>
     <g id="line2d_22">
      <g>
       <use xlink:href="#m10aa41312f" x="589.678802" y="384.1975" style="stroke: #000000; stroke-width: 0.8"/>
      </g>
     </g>
     <g id="text_11">
      <!-- Nov -->
      <g transform="translate(579.919427 398.795937) scale(0.1 -0.1)">
       <defs>
        <path id="DejaVuSans-4e" d="M 628 4666 
L 1478 4666 
L 3547 763 
L 3547 4666 
L 4159 4666 
L 4159 0 
L 3309 0 
L 1241 3903 
L 1241 0 
L 628 0 
L 628 4666 
z
" transform="scale(0.015625)"/>
        <path id="DejaVuSans-6f" d="M 1959 3097 
Q 1497 3097 1228 2736 
Q 959 2375 959 1747 
Q 959 1119 1226 758 
Q 1494 397 1959 397 
Q 2419 397 2687 759 
Q 2956 1122 2956 1747 
Q 2956 2369 2687 2733 
Q 2419 3097 1959 3097 
z
M 1959 3584 
Q 2709 3584 3137 3096 
Q 3566 2609 3566 1747 
Q 3566 888 3137 398 
Q 2709 -91 1959 -91 
Q 1206 -91 779 398 
Q 353 888 353 1747 
Q 353 2609 779 3096 
Q 1206 3584 1959 3584 
z
" transform="scale(0.015625)"/>
        <path id="DejaVuSans-76" d="M 191 3500 
L 800 3500 
L 1894 563 
L 2988 3500 
L 3597 3500 
L 2284 0 
L 1503 0 
L 191 3500 
z
" transform="scale(0.015625)"/>
       </defs>
       <use xlink:href="#DejaVuSans-4e"/>
       <use xlink:href="#DejaVuSans-6f" transform="translate(74.804688 0)"/>
       <use xlink:href="#DejaVuSans-76" transform="translate(135.986328 0)"/>
      </g>
     </g>
    </g>
    <g id="xtick_12">
     <g id="line2d_23">
      <path d="M 641.789251 384.1975 
L 641.789251 39.3575 
" clip-path="url(#p615d3e9bd9)" style="fill: none; stroke-dasharray: 2.96,1.28; stroke-dashoffset: 0; stroke: #b0b0b0; stroke-opacity: 0.3; stroke-width: 0.8"/>
     </g>
     <g id="line2d_24">
      <g>
       <use xlink:href="#m10aa41312f" x="641.789251" y="384.1975" style="stroke: #000000; stroke-width: 0.8"/>
      </g>
     </g>
     <g id="text_12">
      <!-- Dec -->
      <g transform="translate(632.11347 398.795937) scale(0.1 -0.1)">
       <defs>
        <path id="DejaVuSans-44" d="M 1259 4147 
L 1259 519 
L 2022 519 
Q 2988 519 3436 956 
Q 3884 1394 3884 2338 
Q 3884 3275 3436 3711 
Q 2988 4147 2022 4147 
L 1259 4147 
z
M 628 4666 
L 1925 4666 
Q 3281 4666 3915 4102 
Q 4550 3538 4550 2338 
Q 4550 1131 3912 565 
Q 3275 0 1925 0 
L 628 0 
L 628 4666 
z
" transform="scale(0.015625)"/>
       </defs>
       <use xlink:href="#DejaVuSans-44"/>
       <use xlink:href="#DejaVuSans-65" transform="translate(77.001953 0)"/>
       <use xlink:href="#DejaVuSans-63" transform="translate(138.525391 0)"/>
      </g>
     </g>
    </g>
    <g id="xtick_13">
     <g id="line2d_25">
      <path d="M 695.636716 384.1975 
L 695.636716 39.3575 
" clip-path="url(#p615d3e9bd9)" style="fill: none; stroke-dasharray: 2.96,1.28; stroke-dashoffset: 0; stroke: #b0b0b0; stroke-opacity: 0.3; stroke-width: 0.8"/>
     </g>
     <g id="line2d_26">
      <g>
       <use xlink:href="#m10aa41312f" x="695.636716" y="384.1975" style="stroke: #000000; stroke-width: 0.8"/>
      </g>
     </g>
     <g id="text_13">
      <!-- Jan -->
      <g transform="translate(687.928903 398.795937) scale(0.1 -0.1)">
       <use xlink:href="#DejaVuSans-4a"/>
       <use xlink:href="#DejaVuSans-61" transform="translate(29.492188 0)"/>
       <use xlink:href="#DejaVuSans-6e" transform="translate(90.771484 0)"/>
      </g>
     </g>
    </g>
    <g id="text_14">
     <!-- Day of the year -->
     <g transform="translate(336.388708 413.99375) scale(0.12 -0.12)">
      <defs>
       <path id="DejaVuSans-20" transform="scale(0.015625)"/>
       <path id="DejaVuSans-66" d="M 2375 4863 
L 2375 4384 
L 1825 4384 
Q 1516 4384 1395 4259 
Q 1275 4134 1275 3809 
L 1275 3500 
L 2222 3500 
L 2222 3053 
L 1275 3053 
L 1275 0 
L 697 0 
L 697 3053 
L 147 3053 
L 147 3500 
L 697 3500 
L 697 3744 
Q 697 4328 969 4595 
Q 1241 4863 1831 4863 
L 2375 4863 
z
" transform="scale(0.015625)"/>
       <path id="DejaVuSans-68" d="M 3513 2113 
L 3513 0 
L 2938 0 
L 2938 2094 
Q 2938 2591 2744 2837 
Q 2550 3084 2163 3084 
Q 1697 3084 1428 2787 
Q 1159 2491 1159 1978 
L 1159 0 
L 581 0 
L 581 4863 
L 1159 4863 
L 1159 2956 
Q 1366 3272 1645 3428 
Q 1925 3584 2291 3584 
Q 2894 3584 3203 3211 
Q 3513 2838 3513 2113 
z
" transform="scale(0.015625)"/>
      </defs>
      <use xlink:href="#DejaVuSans-44"/>
      <use xlink:href="#DejaVuSans-61" transform="translate(77.001953 0)"/>
      <use xlink:href="#DejaVuSans-79" transform="translate(138.28125 0)"/>
      <use xlink:href="#DejaVuSans-20" transform="translate(197.460938 0)"/>
      <use xlink:href="#DejaVuSans-6f" transform="translate(229.248047 0)"/>
      <use xlink:href="#DejaVuSans-66" transform="translate(290.429688 0)"/>
      <use xlink:href="#DejaVuSans-20" transform="translate(325.634766 0)"/>
      <use xlink:href="#DejaVuSans-74" transform="translate(357.421875 0)"/>
      <use xlink:href="#DejaVuSans-68" transform="translate(396.630859 0)"/>
      <use xlink:href="#DejaVuSans-65" transform="translate(460.009766 0)"/>
      <use xlink:href="#DejaVuSans-20" transform="translate(521.533203 0)"/>
      <use xlink:href="#DejaVuSans-79" transform="translate(553.320312 0)"/>
      <use xlink:href="#DejaVuSans-65" transform="translate(612.5 0)"/>
      <use xlink:href="#DejaVuSans-61" transform="translate(674.023438 0)"/>
      <use xlink:href="#DejaVuSans-72" transform="translate(735.302734 0)"/>
     </g>
    </g>
   </g>
   <g id="matplotlib.axis_2">
    <g id="ytick_1">
     <g id="line2d_27">
      <path d="M 61.62625 384.1975 
L 704.321791 384.1975 
" clip-path="url(#p615d3e9bd9)" style="fill: none; stroke-dasharray: 2.96,1.28; stroke-dashoffset: 0; stroke: #b0b0b0; stroke-opacity: 0.3; stroke-width: 0.8"/>
     </g>
     <g id="line2d_28">
      <defs>
       <path id="m3d1f46efff" d="M 0 0 
L -3.5 0 
" style="stroke: #000000; stroke-width: 0.8"/>
      </defs>
      <g>
       <use xlink:href="#m3d1f46efff" x="61.62625" y="384.1975" style="stroke: #000000; stroke-width: 0.8"/>
      </g>
     </g>
     <g id="text_15">
      <!-- 0 -->
      <g transform="translate(48.26375 387.996719) scale(0.1 -0.1)">
       <defs>
        <path id="DejaVuSans-30" d="M 2034 4250 
Q 1547 4250 1301 3770 
Q 1056 3291 1056 2328 
Q 1056 1369 1301 889 
Q 1547 409 2034 409 
Q 2525 409 2770 889 
Q 3016 1369 3016 2328 
Q 3016 3291 2770 3770 
Q 2525 4250 2034 4250 
z
M 2034 4750 
Q 2819 4750 3233 4129 
Q 3647 3509 3647 2328 
Q 3647 1150 3233 529 
Q 2819 -91 2034 -91 
Q 1250 -91 836 529 
Q 422 1150 422 2328 
Q 422 3509 836 4129 
Q 1250 4750 2034 4750 
z
" transform="scale(0.015625)"/>
       </defs>
       <use xlink:href="#DejaVuSans-30"/>
      </g>
     </g>
    </g>
    <g id="ytick_2">
     <g id="line2d_29">
      <path d="M 61.62625 329.438915 
L 704.321791 329.438915 
" clip-path="url(#p615d3e9bd9)" style="fill: none; stroke-dasharray: 2.96,1.28; stroke-dashoffset: 0; stroke: #b0b0b0; stroke-opacity: 0.3; stroke-width: 0.8"/>
     </g>
     <g id="line2d_30">
      <g>
       <use xlink:href="#m3d1f46efff" x="61.62625" y="329.438915" style="stroke: #000000; stroke-width: 0.8"/>
      </g>
     </g>
     <g id="text_16">
      <!-- 5000 -->
      <g transform="translate(29.17625 333.238134) scale(0.1 -0.1)">
       <defs>
        <path id="DejaVuSans-35" d="M 691 4666 
L 3169 4666 
L 3169 4134 
L 1269 4134 
L 1269 2991 
Q 1406 3038 1543 3061 
Q 1681 3084 1819 3084 
Q 2600 3084 3056 2656 
Q 3513 2228 3513 1497 
Q 3513 744 3044 326 
Q 2575 -91 1722 -91 
Q 1428 -91 1123 -41 
Q 819 9 494 109 
L 494 744 
Q 775 591 1075 516 
Q 1375 441 1709 441 
Q 2250 441 2565 725 
Q 2881 1009 2881 1497 
Q 2881 1984 2565 2268 
Q 2250 2553 1709 2553 
Q 1456 2553 1204 2497 
Q 953 2441 691 2322 
L 691 4666 
z
" transform="scale(0.015625)"/>
       </defs>
       <use xlink:href="#DejaVuSans-35"/>
       <use xlink:href="#DejaVuSans-30" transform="translate(63.623047 0)"/>
       <use xlink:href="#DejaVuSans-30" transform="translate(127.246094 0)"/>
       <use xlink:href="#DejaVuSans-30" transform="translate(190.869141 0)"/>
      </g>
     </g>
    </g>
    <g id="ytick_3">
     <g id="line2d_31">
      <path d="M 61.62625 274.68033 
L 704.321791 274.68033 
" clip-path="url(#p615d3e9bd9)" style="fill: none; stroke-dasharray: 2.96,1.28; stroke-dashoffset: 0; stroke: #b0b0b0; stroke-opacity: 0.3; stroke-width: 0.8"/>
     </g>
     <g id="line2d_32">
      <g>
       <use xlink:href="#m3d1f46efff" x="61.62625" y="274.68033" style="stroke: #000000; stroke-width: 0.8"/>
      </g>
     </g>
     <g id="text_17">
      <!-- 10000 -->
      <g transform="translate(22.81375 278.479548) scale(0.1 -0.1)">
       <defs>
        <path id="DejaVuSans-31" d="M 794 531 
L 1825 531 
L 1825 4091 
L 703 3866 
L 703 4441 
L 1819 4666 
L 2450 4666 
L 2450 531 
L 3481 531 
L 3481 0 
L 794 0 
L 794 531 
z
" transform="scale(0.015625)"/>
       </defs>
       <use xlink:href="#DejaVuSans-31"/>
       <use xlink:href="#DejaVuSans-30" transform="translate(63.623047 0)"/>
       <use xlink:href="#DejaVuSans-30" transform="translate(127.246094 0)"/>
       <use xlink:href="#DejaVuSans-30" transform="translate(190.869141 0)"/>
       <use xlink:href="#DejaVuSans-30" transform="translate(254.492188 0)"/>
      </g>
     </g>
    </g>
    <g id="ytick_4">
     <g id="line2d_33">
      <path d="M 61.62625 219.921744 
L 704.321791 219.921744 
" clip-path="url(#p615d3e9bd9)" style="fill: none; stroke-dasharray: 2.96,1.28; stroke-dashoffset: 0; stroke: #b0b0b0; stroke-opacity: 0.3; stroke-width: 0.8"/>
     </g>
     <g id="line2d_34">
      <g>
       <use xlink:href="#m3d1f46efff" x="61.62625" y="219.921744" style="stroke: #000000; stroke-width: 0.8"/>
      </g>
     </g>
     <g id="text_18">
      <!-- 15000 -->
      <g transform="translate(22.81375 223.720963) scale(0.1 -0.1)">
       <use xlink:href="#DejaVuSans-31"/>
       <use xlink:href="#DejaVuSans-35" transform="translate(63.623047 0)"/>
       <use xlink:href="#DejaVuSans-30" transform="translate(127.246094 0)"/>
       <use xlink:href="#DejaVuSans-30" transform="translate(190.869141 0)"/>
       <use xlink:href="#DejaVuSans-30" transform="translate(254.492188 0)"/>
      </g>
     </g>
    </g>
    <g id="ytick_5">
     <g id="line2d_35">
      <path d="M 61.62625 165.163159 
L 704.321791 165.163159 
" clip-path="url(#p615d3e9bd9)" style="fill: none; stroke-dasharray: 2.96,1.28; stroke-dashoffset: 0; stroke: #b0b0b0; stroke-opacity: 0.3; stroke-width: 0.8"/>
     </g>
     <g id="line2d_36">
      <g>
       <use xlink:href="#m3d1f46efff" x="61.62625" y="165.163159" style="stroke: #000000; stroke-width: 0.8"/>
      </g>
     </g>
     <g id="text_19">
      <!-- 20000 -->
      <g transform="translate(22.81375 168.962378) scale(0.1 -0.1)">
       <defs>
        <path id="DejaVuSans-32" d="M 1228 531 
L 3431 531 
L 3431 0 
L 469 0 
L 469 531 
Q 828 903 1448 1529 
Q 2069 2156 2228 2338 
Q 2531 2678 2651 2914 
Q 2772 3150 2772 3378 
Q 2772 3750 2511 3984 
Q 2250 4219 1831 4219 
Q 1534 4219 1204 4116 
Q 875 4013 500 3803 
L 500 4441 
Q 881 4594 1212 4672 
Q 1544 4750 1819 4750 
Q 2544 4750 2975 4387 
Q 3406 4025 3406 3419 
Q 3406 3131 3298 2873 
Q 3191 2616 2906 2266 
Q 2828 2175 2409 1742 
Q 1991 1309 1228 531 
z
" transform="scale(0.015625)"/>
       </defs>
       <use xlink:href="#DejaVuSans-32"/>
       <use xlink:href="#DejaVuSans-30" transform="translate(63.623047 0)"/>
       <use xlink:href="#DejaVuSans-30" transform="translate(127.246094 0)"/>
       <use xlink:href="#DejaVuSans-30" transform="translate(190.869141 0)"/>
       <use xlink:href="#DejaVuSans-30" transform="translate(254.492188 0)"/>
      </g>
     </g>
    </g>
    <g id="ytick_6">
     <g id="line2d_37">
      <path d="M 61.62625 110.404574 
L 704.321791 110.404574 
" clip-path="url(#p615d3e9bd9)" style="fill: none; stroke-dasharray: 2.96,1.28; stroke-dashoffset: 0; stroke: #b0b0b0; stroke-opacity: 0.3; stroke-width: 0.8"/>
     </g>
     <g id="line2d_38">
      <g>
       <use xlink:href="#m3d1f46efff" x="61.62625" y="110.404574" style="stroke: #000000; stroke-width: 0.8"/>
      </g>
     </g>
     <g id="text_20">
      <!-- 25000 -->
      <g transform="translate(22.81375 114.203793) scale(0.1 -0.1)">
       <use xlink:href="#DejaVuSans-32"/>
       <use xlink:href="#DejaVuSans-35" transform="translate(63.623047 0)"/>
       <use xlink:href="#DejaVuSans-30" transform="translate(127.246094 0)"/>
       <use xlink:href="#DejaVuSans-30" transform="translate(190.869141 0)"/>
       <use xlink:href="#DejaVuSans-30" transform="translate(254.492188 0)"/>
      </g>
     </g>
    </g>
    <g id="ytick_7">
     <g id="line2d_39">
      <path d="M 61.62625 55.645989 
L 704.321791 55.645989 
" clip-path="url(#p615d3e9bd9)" style="fill: none; stroke-dasharray: 2.96,1.28; stroke-dashoffset: 0; stroke: #b0b0b0; stroke-opacity: 0.3; stroke-width: 0.8"/>
     </g>
     <g id="line2d_40">
      <g>
       <use xlink:href="#m3d1f46efff" x="61.62625" y="55.645989" style="stroke: #000000; stroke-width: 0.8"/>
      </g>
     </g>
     <g id="text_21">
      <!-- 30000 -->
      <g transform="translate(22.81375 59.445208) scale(0.1 -0.1)">
       <defs>
        <path id="DejaVuSans-33" d="M 2597 2516 
Q 3050 2419 3304 2112 
Q 3559 1806 3559 1356 
Q 3559 666 3084 287 
Q 2609 -91 1734 -91 
Q 1441 -91 1130 -33 
Q 819 25 488 141 
L 488 750 
Q 750 597 1062 519 
Q 1375 441 1716 441 
Q 2309 441 2620 675 
Q 2931 909 2931 1356 
Q 2931 1769 2642 2001 
Q 2353 2234 1838 2234 
L 1294 2234 
L 1294 2753 
L 1863 2753 
Q 2328 2753 2575 2939 
Q 2822 3125 2822 3475 
Q 2822 3834 2567 4026 
Q 2313 4219 1838 4219 
Q 1578 4219 1281 4162 
Q 984 4106 628 3988 
L 628 4550 
Q 988 4650 1302 4700 
Q 1616 4750 1894 4750 
Q 2613 4750 3031 4423 
Q 3450 4097 3450 3541 
Q 3450 3153 3228 2886 
Q 3006 2619 2597 2516 
z
" transform="scale(0.015625)"/>
       </defs>
       <use xlink:href="#DejaVuSans-33"/>
       <use xlink:href="#DejaVuSans-30" transform="translate(63.623047 0)"/>
       <use xlink:href="#DejaVuSans-30" transform="translate(127.246094 0)"/>
       <use xlink:href="#DejaVuSans-30" transform="translate(190.869141 0)"/>
       <use xlink:href="#DejaVuSans-30" transform="translate(254.492188 0)"/>
      </g>
     </g>
    </g>
    <g id="text_22">
     <!-- Daily pedestrian count -->
     <g transform="translate(16.318125 279.793125) rotate(-90) scale(0.12 -0.12)">
      <defs>
       <path id="DejaVuSans-69" d="M 603 3500 
L 1178 3500 
L 1178 0 
L 603 0 
L 603 3500 
z
M 603 4863 
L 1178 4863 
L 1178 4134 
L 603 4134 
L 603 4863 
z
" transform="scale(0.015625)"/>
       <path id="DejaVuSans-64" d="M 2906 2969 
L 2906 4863 
L 3481 4863 
L 3481 0 
L 2906 0 
L 2906 525 
Q 2725 213 2448 61 
Q 2172 -91 1784 -91 
Q 1150 -91 751 415 
Q 353 922 353 1747 
Q 353 2572 751 3078 
Q 1150 3584 1784 3584 
Q 2172 3584 2448 3432 
Q 2725 3281 2906 2969 
z
M 947 1747 
Q 947 1113 1208 752 
Q 1469 391 1925 391 
Q 2381 391 2643 752 
Q 2906 1113 2906 1747 
Q 2906 2381 2643 2742 
Q 2381 3103 1925 3103 
Q 1469 3103 1208 2742 
Q 947 2381 947 1747 
z
" transform="scale(0.015625)"/>
       <path id="DejaVuSans-73" d="M 2834 3397 
L 2834 2853 
Q 2591 2978 2328 3040 
Q 2066 3103 1784 3103 
Q 1356 3103 1142 2972 
Q 928 2841 928 2578 
Q 928 2378 1081 2264 
Q 1234 2150 1697 2047 
L 1894 2003 
Q 2506 1872 2764 1633 
Q 3022 1394 3022 966 
Q 3022 478 2636 193 
Q 2250 -91 1575 -91 
Q 1294 -91 989 -36 
Q 684 19 347 128 
L 347 722 
Q 666 556 975 473 
Q 1284 391 1588 391 
Q 1994 391 2212 530 
Q 2431 669 2431 922 
Q 2431 1156 2273 1281 
Q 2116 1406 1581 1522 
L 1381 1569 
Q 847 1681 609 1914 
Q 372 2147 372 2553 
Q 372 3047 722 3315 
Q 1072 3584 1716 3584 
Q 2034 3584 2315 3537 
Q 2597 3491 2834 3397 
z
" transform="scale(0.015625)"/>
      </defs>
      <use xlink:href="#DejaVuSans-44"/>
      <use xlink:href="#DejaVuSans-61" transform="translate(77.001953 0)"/>
      <use xlink:href="#DejaVuSans-69" transform="translate(138.28125 0)"/>
      <use xlink:href="#DejaVuSans-6c" transform="translate(166.064453 0)"/>
      <use xlink:href="#DejaVuSans-79" transform="translate(193.847656 0)"/>
      <use xlink:href="#DejaVuSans-20" transform="translate(253.027344 0)"/>
      <use xlink:href="#DejaVuSans-70" transform="translate(284.814453 0)"/>
      <use xlink:href="#DejaVuSans-65" transform="translate(348.291016 0)"/>
      <use xlink:href="#DejaVuSans-64" transform="translate(409.814453 0)"/>
      <use xlink:href="#DejaVuSans-65" transform="translate(473.291016 0)"/>
      <use xlink:href="#DejaVuSans-73" transform="translate(534.814453 0)"/>
      <use xlink:href="#DejaVuSans-74" transform="translate(586.914062 0)"/>
      <use xlink:href="#DejaVuSans-72" transform="translate(626.123047 0)"/>
      <use xlink:href="#DejaVuSans-69" transform="translate(667.236328 0)"/>
      <use xlink:href="#DejaVuSans-61" transform="translate(695.019531 0)"/>
      <use xlink:href="#DejaVuSans-6e" transform="translate(756.298828 0)"/>
      <use xlink:href="#DejaVuSans-20" transform="translate(819.677734 0)"/>
      <use xlink:href="#DejaVuSans-63" transform="translate(851.464844 0)"/>
      <use xlink:href="#DejaVuSans-6f" transform="translate(906.445312 0)"/>
      <use xlink:href="#DejaVuSans-75" transform="translate(967.626953 0)"/>
      <use xlink:href="#DejaVuSans-6e" transform="translate(1031.005859 0)"/>
      <use xlink:href="#DejaVuSans-74" transform="translate(1094.384766 0)"/>
     </g>
    </g>
   </g>
   <g id="line2d_41">
    <path d="M 63.363265 190.603998 
L 65.10028 214.161141 
L 66.837295 220.808833 
L 68.57431 249.524236 
L 70.311325 211.116564 
L 72.04834 237.104988 
L 73.785355 232.790012 
L 75.52237 226.186127 
L 77.259385 220.064117 
L 78.9964 233.195225 
L 80.733415 198.171634 
L 82.47043 206.30876 
L 84.207445 238.977732 
L 85.94446 242.668461 
L 87.681475 239.437704 
L 89.41849 230.106841 
L 91.155505 234.794176 
L 92.89252 202.530418 
L 94.629535 199.639164 
L 96.366549 217.348091 
L 98.103564 231.935778 
L 99.840579 235.889348 
L 101.577594 222.900611 
L 103.314609 244.048377 
L 105.051624 232.77906 
L 106.788639 195.127057 
L 108.525654 211.105612 
L 110.262669 255.711956 
L 111.999684 236.502644 
L 113.736699 255.48197 
L 115.473714 224.433852 
L 117.210729 181.459314 
L 118.947744 221.794488 
L 120.684759 239.065346 
L 122.421774 204.972651 
L 124.158789 201.13955 
L 125.895804 241.189979 
L 127.632819 217.709498 
L 129.369834 168.788178 
L 131.106849 185.664773 
L 132.843864 55.52552 
L 134.580879 219.494627 
L 136.317894 227.248443 
L 138.054909 206.275905 
L 139.791924 190.965405 
L 141.528939 177.845248 
L 143.265954 195.959387 
L 145.002969 224.247673 
L 146.739984 224.850017 
L 148.476999 209.035738 
L 150.214014 212.737418 
L 151.951029 204.961699 
L 153.688044 164.024181 
L 155.425059 150.925927 
L 157.162074 180.780308 
L 158.899089 224.455755 
L 160.636104 223.470101 
L 162.373119 218.498021 
L 164.110133 229.822097 
L 165.847148 199.014917 
L 167.584163 216.351485 
L 169.321178 230.632524 
L 171.058193 228.529794 
L 172.795208 224.87192 
L 174.532223 215.81485 
L 176.269238 207.743435 
L 178.006253 185.117188 
L 179.743268 178.414737 
L 181.480283 188.304137 
L 183.217298 222.287315 
L 184.954313 227.182733 
L 186.691328 217.052395 
L 188.428343 210.908481 
L 190.165358 145.669103 
L 191.902373 169.412425 
L 193.639388 212.967404 
L 195.376403 222.363977 
L 197.113418 226.788471 
L 198.850433 226.788471 
L 200.587448 211.609391 
L 202.324463 181.601686 
L 204.061478 196.496022 
L 205.798493 230.139696 
L 207.535508 227.631753 
L 209.272523 213.83259 
L 211.009538 202.979438 
L 212.746553 203.800817 
L 214.483568 178.338075 
L 216.220583 174.975898 
L 217.957598 208.597669 
L 219.694613 217.797111 
L 221.431628 204.666003 
L 223.168643 216.592422 
L 224.905658 207.71058 
L 226.642673 158.493563 
L 228.379688 142.285022 
L 230.116703 187.778455 
L 231.853717 224.313383 
L 233.590732 199.880102 
L 235.327747 193.210507 
L 237.064762 187.340386 
L 238.801777 130.577637 
L 240.538792 152.119664 
L 242.275807 193.878561 
L 244.012822 217.556173 
L 245.749837 200.909564 
L 247.486852 203.417507 
L 249.223867 150.860217 
L 250.960882 134.881662 
L 252.697897 136.491564 
L 254.434912 165.163159 
L 256.171927 212.540287 
L 257.908942 218.257083 
L 259.645957 136.349192 
L 261.382972 203.43941 
L 263.119987 200.416736 
L 264.857002 199.518696 
L 266.594017 238.868215 
L 268.331032 356.785352 
L 270.068047 227.796029 
L 271.805062 225.868527 
L 273.542077 225.167617 
L 275.279092 174.877332 
L 277.016107 197.591193 
L 278.753122 227.850788 
L 280.490137 229.099283 
L 282.227152 232.724302 
L 283.964167 226.383257 
L 285.701182 221.706874 
L 287.438197 217.632836 
L 289.175212 197.667855 
L 290.912227 230.676331 
L 292.649242 236.491692 
L 294.386257 233.885184 
L 296.123272 228.935008 
L 297.860287 219.396062 
L 299.597301 175.687759 
L 301.334316 181.62359 
L 303.071331 215.836754 
L 304.808346 234.706562 
L 306.545361 222.703481 
L 308.282376 219.407014 
L 310.019391 216.76765 
L 311.756406 185.434787 
L 313.493421 184.011064 
L 315.230436 233.326646 
L 316.967451 235.637458 
L 318.704466 240.576683 
L 320.441481 241.38711 
L 322.178496 229.844 
L 323.915511 198.993013 
L 325.652526 189.497874 
L 327.389541 223.053935 
L 329.126556 253.324481 
L 330.863571 228.102677 
L 332.600586 222.024474 
L 334.337601 212.978356 
L 336.074616 166.280234 
L 337.811631 184.62436 
L 339.548646 195.959387 
L 341.285661 240.719055 
L 343.022676 230.763944 
L 344.759691 254.890577 
L 346.496706 221.17024 
L 348.233721 198.007359 
L 349.970736 201.730942 
L 351.707751 236.513596 
L 353.444766 237.247361 
L 355.181781 241.419965 
L 356.918796 234.24659 
L 358.655811 224.192914 
L 360.392826 177.67002 
L 362.129841 196.791718 
L 363.866856 232.253378 
L 365.603871 231.793406 
L 367.340886 225.978044 
L 369.0779 228.201242 
L 370.814915 210.64564 
L 372.55193 175.424918 
L 374.288945 219.089414 
L 376.02596 219.987455 
L 377.762975 227.248443 
L 379.49999 231.69484 
L 381.237005 219.76842 
L 382.97402 206.735877 
L 384.711035 165.020787 
L 386.44805 179.170405 
L 388.185065 223.371535 
L 389.92208 218.61849 
L 391.659095 216.373388 
L 393.39611 223.853411 
L 395.133125 214.303514 
L 396.87014 182.247838 
L 398.607155 194.612326 
L 400.34417 240.171469 
L 402.081185 233.425211 
L 403.8182 229.548304 
L 405.555215 231.902923 
L 407.29223 205.640705 
L 409.029245 163.19185 
L 410.76626 185.719532 
L 412.503275 220.272199 
L 414.24029 223.524859 
L 415.977305 241.014751 
L 417.71432 225.550927 
L 419.451335 218.749911 
L 421.18835 196.047001 
L 422.925365 178.447592 
L 424.66238 210.733254 
L 426.399395 234.925597 
L 428.13641 224.80621 
L 429.873425 220.480282 
L 431.61044 218.246132 
L 433.347455 180.944583 
L 435.08447 184.547698 
L 436.821484 216.121499 
L 438.558499 219.461772 
L 440.295514 234.728466 
L 442.032529 215.803899 
L 443.769544 216.088643 
L 445.506559 185.818098 
L 447.243574 192.673872 
L 448.980589 220.797882 
L 450.717604 219.834131 
L 452.454619 226.372306 
L 454.191634 213.723073 
L 455.928649 207.228704 
L 457.665664 175.05256 
L 459.402679 149.567914 
L 461.139694 217.08525 
L 462.876709 224.992389 
L 464.613724 228.496939 
L 466.350739 221.23595 
L 468.087754 182.828279 
L 469.824769 103.559751 
L 471.561784 114.533371 
L 473.298799 181.3717 
L 475.035814 214.98252 
L 476.772829 216.756698 
L 478.509844 241.124269 
L 480.246859 198.489234 
L 481.983874 153.11627 
L 483.720889 169.510991 
L 485.457904 222.528253 
L 487.194919 223.612473 
L 488.931934 205.47643 
L 490.668949 219.76842 
L 492.405964 213.854493 
L 494.142979 167.189227 
L 495.879994 182.609244 
L 497.617009 227.587946 
L 499.354024 229.833048 
L 501.091039 217.665691 
L 502.828054 206.62636 
L 504.565068 209.024786 
L 506.302083 156.357979 
L 508.039098 178.677578 
L 509.776113 235.736024 
L 511.513128 223.820556 
L 513.250143 219.669855 
L 514.987158 210.426606 
L 516.724173 212.770273 
L 518.461188 153.028657 
L 520.198203 206.779684 
L 521.935218 216.38434 
L 523.672233 229.438786 
L 525.409248 217.895677 
L 527.146263 212.595046 
L 528.883278 173.749305 
L 530.620293 195.597981 
L 534.094323 215.530106 
L 535.831338 217.293332 
L 537.568353 200.022475 
L 539.305368 212.529335 
L 541.042383 200.471495 
L 542.779398 179.323729 
L 544.516413 166.170717 
L 546.253428 213.109776 
L 547.990443 210.492316 
L 549.727458 224.926679 
L 551.464473 213.985914 
L 553.201488 204.446968 
L 554.938503 158.78926 
L 556.675518 161.2753 
L 558.412533 210.404702 
L 560.149548 230.54491 
L 561.886563 227.204636 
L 563.623578 231.804357 
L 565.360593 226.492775 
L 567.097608 176.312007 
L 568.834623 186.595669 
L 570.571638 224.565272 
L 572.308652 230.238262 
L 574.045667 217.895677 
L 575.782682 208.170552 
L 577.519697 225.12381 
L 579.256712 188.818868 
L 580.993727 201.27097 
L 582.730742 222.933467 
L 584.467757 226.930843 
L 586.204772 228.683118 
L 587.941787 212.080315 
L 589.678802 232.77906 
L 591.415817 216.964781 
L 593.152832 231.464854 
L 594.889847 229.241656 
L 596.626862 229.942565 
L 598.363877 236.995471 
L 600.100892 227.478429 
L 601.837907 239.393897 
L 603.574922 197.799276 
L 605.311937 210.382799 
L 607.048952 228.924056 
L 608.785967 233.73186 
L 610.522982 231.212965 
L 612.259997 219.3194 
L 613.997012 208.214359 
L 615.734027 169.543846 
L 617.471042 181.952141 
L 619.208057 208.02818 
L 620.945072 217.479511 
L 622.682087 215.858657 
L 624.419102 221.772585 
L 626.156117 229.175945 
L 627.893132 169.105777 
L 629.630147 174.285939 
L 631.367162 210.853723 
L 633.104177 225.912334 
L 634.841192 224.4229 
L 636.578207 210.667543 
L 638.315222 201.52286 
L 640.052236 176.114876 
L 641.789251 183.419671 
L 643.526266 221.827343 
L 645.263281 223.820556 
L 647.000296 226.120416 
L 648.737311 217.972339 
L 650.474326 207.469642 
L 652.211341 166.674496 
L 653.948356 175.917745 
L 655.685371 207.809145 
L 657.422386 246.841065 
L 659.159401 223.251066 
L 660.896416 220.655509 
L 662.633431 208.761945 
L 664.370446 177.253855 
L 666.107461 197.591193 
L 667.844476 222.933467 
L 669.581491 220.009358 
L 671.318506 226.470871 
L 673.055521 242.624654 
L 674.792536 207.469642 
L 676.529551 235.144631 
L 678.266566 214.237803 
L 680.003581 220.436475 
L 681.740596 211.686053 
L 683.477611 216.241967 
L 685.214626 240.675248 
L 686.951641 191.611556 
L 688.688656 209.62713 
L 690.425671 214.522548 
L 692.162686 220.458379 
L 693.899701 259.096036 
L 695.636716 177.297662 
L 695.636716 177.297662 
" clip-path="url(#p615d3e9bd9)" style="fill: none; stroke: #0d6efc; stroke-opacity: 0.8; stroke-width: 2.5; stroke-linecap: square"/>
   </g>
   <g id="line2d_42">
    <path d="M 63.363265 280.572353 
L 65.10028 291.261229 
L 66.837295 283.7374 
L 68.57431 296.331874 
L 70.311325 316.472082 
L 72.04834 324.182091 
L 73.785355 297.766549 
L 75.52237 294.831489 
L 77.259385 296.550909 
L 78.9964 283.48551 
L 80.733415 284.175468 
L 82.47043 309.977714 
L 84.207445 300.219734 
L 85.94446 294.32771 
L 87.681475 300.471623 
L 89.41849 279.422423 
L 91.155505 277.23208 
L 92.89252 271.504332 
L 94.629535 326.909068 
L 96.366549 303.647621 
L 98.103564 299.6831 
L 99.840579 291.053147 
L 101.577594 285.763467 
L 103.314609 275.775501 
L 105.051624 262.81962 
L 106.788639 270.168222 
L 108.525654 318.092936 
L 110.262669 295.302413 
L 111.999684 295.006716 
L 113.736699 294.995765 
L 115.473714 283.660738 
L 117.210729 270.814373 
L 118.947744 243.741729 
L 120.684759 312.091395 
L 122.421774 315.026455 
L 124.158789 300.263541 
L 125.895804 296.364729 
L 127.632819 276.257377 
L 129.369834 260.278822 
L 131.106849 301.402519 
L 132.843864 303.713331 
L 134.580879 299.869279 
L 136.317894 301.742022 
L 138.054909 301.041113 
L 139.791924 279.01721 
L 141.528939 273.004717 
L 143.265954 281.798946 
L 145.002969 304.85231 
L 146.739984 298.675542 
L 148.476999 299.398355 
L 151.951029 273.628965 
L 153.688044 258.997471 
L 157.162074 297.251818 
L 158.899089 295.79524 
L 160.636104 303.231456 
L 162.373119 285.314447 
L 164.110133 273.935613 
L 165.847148 257.705168 
L 167.584163 293.550138 
L 169.321178 304.53471 
L 171.058193 296.868508 
L 172.795208 295.871902 
L 174.532223 287.198142 
L 178.006253 259.742188 
L 179.743268 261.472559 
L 181.480283 293.593945 
L 183.217298 302.30056 
L 184.954313 296.912315 
L 186.691328 280.189043 
L 188.428343 268.908775 
L 190.165358 276.355942 
L 191.902373 315.650703 
L 193.639388 289.552761 
L 195.376403 291.600732 
L 197.113418 290.943629 
L 198.850433 304.885165 
L 200.587448 270.737711 
L 202.324463 249.524236 
L 204.061478 286.67246 
L 205.798493 300.011651 
L 207.535508 294.831489 
L 209.272523 288.380928 
L 211.009538 279.91525 
L 212.746553 254.386798 
L 214.483568 237.641623 
L 216.220583 272.719972 
L 217.957598 296.704233 
L 219.694613 287.044818 
L 221.431628 283.375993 
L 223.168643 284.471165 
L 224.905658 255.438163 
L 226.642673 282.828407 
L 228.379688 345.997911 
L 230.116703 293.002552 
L 231.853717 279.750975 
L 233.590732 276.235473 
L 235.327747 286.562943 
L 237.064762 322.933595 
L 238.801777 230.084938 
L 240.538792 272.489986 
L 242.275807 290.571271 
L 244.012822 298.270328 
L 245.749837 343.971843 
L 247.486852 250.50989 
L 249.223867 248.65905 
L 250.960882 220.951206 
L 252.697897 252.327875 
L 254.434912 288.8409 
L 256.171927 307.217881 
L 259.645957 278.250589 
L 261.382972 277.987748 
L 263.119987 262.480117 
L 264.857002 296.189502 
L 266.594017 314.150318 
L 268.331032 367.036159 
L 270.068047 317.578205 
L 271.805062 342.077196 
L 273.542077 286.223439 
L 275.279092 261.855869 
L 277.016107 288.578059 
L 278.753122 311.259065 
L 280.490137 301.752974 
L 282.227152 303.373828 
L 283.964167 297.021832 
L 285.701182 277.801569 
L 287.438197 263.728613 
L 289.175212 288.391879 
L 290.912227 306.933136 
L 292.649242 303.789993 
L 294.386257 304.041883 
L 296.123272 292.060705 
L 297.860287 279.181485 
L 299.597301 289.421341 
L 301.334316 297.043736 
L 303.071331 325.58391 
L 304.808346 365.732905 
L 306.545361 305.005634 
L 308.282376 296.342826 
L 310.019391 289.530858 
L 311.756406 265.152336 
L 313.493421 360.563695 
L 315.230436 312.934677 
L 316.967451 329.165122 
L 318.704466 369.423634 
L 320.441481 298.073197 
L 323.915511 272.073821 
L 325.652526 299.945941 
L 327.389541 350.90428 
L 329.126556 369.390779 
L 330.863571 302.519594 
L 332.600586 300.154023 
L 334.337601 301.98296 
L 336.074616 367.748021 
L 337.811631 301.91725 
L 339.548646 364.900575 
L 341.285661 306.396502 
L 343.022676 301.128726 
L 344.759691 303.943318 
L 346.496706 286.584846 
L 348.233721 289.979878 
L 349.970736 378.885917 
L 351.707751 320.951334 
L 353.444766 325.156793 
L 355.181781 370.16835 
L 356.918796 310.043424 
L 358.655811 366.127167 
L 360.392826 272.172386 
L 362.129841 299.43121 
L 363.866856 315.44262 
L 365.603871 315.782124 
L 367.340886 327.336185 
L 369.0779 295.083378 
L 370.814915 282.565566 
L 372.55193 266.488445 
L 374.288945 302.486739 
L 376.02596 378.152152 
L 377.762975 367.200435 
L 379.49999 339.120233 
L 381.237005 373.103411 
L 382.97402 277.034949 
L 384.711035 257.201389 
L 386.44805 280.736629 
L 388.185065 293.232538 
L 389.92208 302.114381 
L 391.659095 291.929284 
L 393.39611 289.278968 
L 395.133125 269.741105 
L 396.87014 255.624342 
L 398.607155 290.428899 
L 400.34417 293.867738 
L 402.081185 294.77673 
L 403.8182 289.235162 
L 405.555215 287.43908 
L 407.29223 267.430293 
L 409.029245 343.106658 
L 410.76626 289.268017 
L 412.503275 305.202765 
L 414.24029 368.657014 
L 415.977305 304.709938 
L 417.71432 289.366582 
L 419.451335 281.098036 
L 421.18835 276.21357 
L 422.925365 297.470853 
L 424.66238 310.393879 
L 428.13641 301.698216 
L 429.873425 298.127956 
L 431.61044 282.817455 
L 433.347455 259.041278 
L 435.08447 288.008569 
L 436.821484 309.703921 
L 438.558499 376.345119 
L 440.295514 301.435374 
L 442.032529 290.330333 
L 443.769544 264.944253 
L 445.506559 261.023538 
L 447.243574 274.910316 
L 448.980589 297.361336 
L 450.717604 360.02706 
L 452.454619 293.002552 
L 454.191634 286.070115 
L 455.928649 312.036636 
L 457.665664 348.472999 
L 459.402679 286.332957 
L 461.139694 304.567565 
L 462.876709 294.579599 
L 464.613724 297.295625 
L 466.350739 287.723825 
L 469.824769 249.600898 
L 471.561784 269.828719 
L 473.298799 316.756826 
L 475.035814 371.82206 
L 476.772829 306.484116 
L 478.509844 299.902134 
L 480.246859 316.515889 
L 483.720889 373.716707 
L 485.457904 313.438456 
L 487.194919 316.504937 
L 488.931934 367.901345 
L 490.668949 304.08569 
L 492.405964 282.554614 
L 494.142979 272.446179 
L 495.879994 315.639751 
L 497.617009 370.902116 
L 499.354024 307.853081 
L 501.091039 309.178238 
L 502.828054 302.464836 
L 504.565068 288.282362 
L 506.302083 245.220211 
L 509.776113 310.174845 
L 511.513128 311.576664 
L 513.250143 302.881001 
L 514.987158 312.595174 
L 516.724173 354.321216 
L 518.461188 263.783371 
L 520.198203 301.522988 
L 521.935218 309.2549 
L 523.672233 296.999929 
L 525.409248 303.078132 
L 527.146263 275.249819 
L 528.883278 281.207553 
L 530.620293 312.135202 
L 532.357308 293.648704 
L 534.094323 298.127956 
L 535.831338 295.871902 
L 537.568353 288.118086 
L 539.305368 292.520677 
L 541.042383 271.997159 
L 542.779398 248.867133 
L 544.516413 293.221587 
L 546.253428 295.565254 
L 547.990443 295.203847 
L 549.727458 302.30056 
L 551.464473 291.403602 
L 553.201488 282.631276 
L 554.938503 269.64254 
L 556.675518 294.831489 
L 558.412533 311.335727 
L 560.149548 306.549826 
L 561.886563 297.010881 
L 563.623578 303.987124 
L 565.360593 280.145236 
L 567.097608 261.680641 
L 568.834623 294.64531 
L 570.571638 308.126873 
L 572.308652 297.383239 
L 574.045667 316.71302 
L 575.782682 283.222669 
L 577.519697 293.276345 
L 579.256712 350.301936 
L 580.993727 318.88146 
L 582.730742 304.337579 
L 584.467757 299.212176 
L 586.204772 286.661508 
L 587.941787 277.089707 
L 589.678802 273.015669 
L 591.415817 247.936237 
L 593.152832 278.798175 
L 594.889847 318.147695 
L 596.626862 370.617371 
L 598.363877 287.241949 
L 600.100892 290.516512 
L 601.837907 280.079526 
L 603.574922 312.408995 
L 605.311937 289.651327 
L 607.048952 300.548285 
L 608.785967 300.274492 
L 610.522982 283.080297 
L 612.259997 278.141072 
L 613.997012 254.375846 
L 615.734027 258.559402 
L 617.471042 299.036948 
L 619.208057 302.738629 
L 620.945072 292.181173 
L 622.682087 286.650556 
L 624.419102 283.584076 
L 626.156117 266.302266 
L 627.893132 258.011816 
L 629.630147 286.453425 
L 631.367162 297.602273 
L 633.104177 293.353007 
L 634.841192 297.930825 
L 636.578207 279.40052 
L 638.315222 271.767173 
L 640.052236 267.98883 
L 641.789251 298.489362 
L 643.526266 302.672918 
L 645.263281 289.268017 
L 647.000296 279.685264 
L 648.737311 271.329104 
L 652.211341 261.012587 
L 653.948356 276.947335 
L 655.685371 300.701609 
L 657.422386 289.892265 
L 659.159401 282.467 
L 660.896416 271.230539 
L 662.633431 238.090643 
L 664.370446 244.628818 
L 666.107461 254.189667 
L 667.844476 275.96168 
L 669.581491 265.886101 
L 671.318506 264.15573 
L 673.055521 266.849852 
L 674.792536 242.558944 
L 676.529551 225.561879 
L 678.266566 289.662278 
L 680.003581 246.928679 
L 681.740596 242.701316 
L 683.477611 259.161747 
L 685.214626 281.481346 
L 686.951641 244.95737 
L 688.688656 221.082626 
L 690.425671 244.869756 
L 692.162686 266.532252 
L 693.899701 262.447262 
L 695.636716 235.987913 
L 695.636716 235.987913 
" clip-path="url(#p615d3e9bd9)" style="fill: none; stroke: #83c966; stroke-opacity: 0.8; stroke-width: 2.5; stroke-linecap: square"/>
   </g>
   <g id="patch_3">
    <path d="M 61.62625 384.1975 
L 61.62625 39.3575 
" style="fill: none; stroke: #000000; stroke-width: 0.8; stroke-linejoin: miter; stroke-linecap: square"/>
   </g>
   <g id="patch_4">
    <path d="M 61.62625 384.1975 
L 704.321791 384.1975 
" style="fill: none; stroke: #000000; stroke-width: 0.8; stroke-linejoin: miter; stroke-linecap: square"/>
   </g>
   <g id="text_23">
    <!-- Pedestrian Traffic at 155-161 Russell Street -->
    <g transform="translate(210.12402 19.3575) scale(0.16 -0.16)">
     <defs>
      <path id="DejaVuSans-50" d="M 1259 4147 
L 1259 2394 
L 2053 2394 
Q 2494 2394 2734 2622 
Q 2975 2850 2975 3272 
Q 2975 3691 2734 3919 
Q 2494 4147 2053 4147 
L 1259 4147 
z
M 628 4666 
L 2053 4666 
Q 2838 4666 3239 4311 
Q 3641 3956 3641 3272 
Q 3641 2581 3239 2228 
Q 2838 1875 2053 1875 
L 1259 1875 
L 1259 0 
L 628 0 
L 628 4666 
z
" transform="scale(0.015625)"/>
      <path id="DejaVuSans-54" d="M -19 4666 
L 3928 4666 
L 3928 4134 
L 2272 4134 
L 2272 0 
L 1638 0 
L 1638 4134 
L -19 4134 
L -19 4666 
z
" transform="scale(0.015625)"/>
      <path id="DejaVuSans-2d" d="M 313 2009 
L 1997 2009 
L 1997 1497 
L 313 1497 
L 313 2009 
z
" transform="scale(0.015625)"/>
      <path id="DejaVuSans-36" d="M 2113 2584 
Q 1688 2584 1439 2293 
Q 1191 2003 1191 1497 
Q 1191 994 1439 701 
Q 1688 409 2113 409 
Q 2538 409 2786 701 
Q 3034 994 3034 1497 
Q 3034 2003 2786 2293 
Q 2538 2584 2113 2584 
z
M 3366 4563 
L 3366 3988 
Q 3128 4100 2886 4159 
Q 2644 4219 2406 4219 
Q 1781 4219 1451 3797 
Q 1122 3375 1075 2522 
Q 1259 2794 1537 2939 
Q 1816 3084 2150 3084 
Q 2853 3084 3261 2657 
Q 3669 2231 3669 1497 
Q 3669 778 3244 343 
Q 2819 -91 2113 -91 
Q 1303 -91 875 529 
Q 447 1150 447 2328 
Q 447 3434 972 4092 
Q 1497 4750 2381 4750 
Q 2619 4750 2861 4703 
Q 3103 4656 3366 4563 
z
" transform="scale(0.015625)"/>
      <path id="DejaVuSans-52" d="M 2841 2188 
Q 3044 2119 3236 1894 
Q 3428 1669 3622 1275 
L 4263 0 
L 3584 0 
L 2988 1197 
Q 2756 1666 2539 1819 
Q 2322 1972 1947 1972 
L 1259 1972 
L 1259 0 
L 628 0 
L 628 4666 
L 2053 4666 
Q 2853 4666 3247 4331 
Q 3641 3997 3641 3322 
Q 3641 2881 3436 2590 
Q 3231 2300 2841 2188 
z
M 1259 4147 
L 1259 2491 
L 2053 2491 
Q 2509 2491 2742 2702 
Q 2975 2913 2975 3322 
Q 2975 3731 2742 3939 
Q 2509 4147 2053 4147 
L 1259 4147 
z
" transform="scale(0.015625)"/>
     </defs>
     <use xlink:href="#DejaVuSans-50"/>
     <use xlink:href="#DejaVuSans-65" transform="translate(56.677734 0)"/>
     <use xlink:href="#DejaVuSans-64" transform="translate(118.201172 0)"/>
     <use xlink:href="#DejaVuSans-65" transform="translate(181.677734 0)"/>
     <use xlink:href="#DejaVuSans-73" transform="translate(243.201172 0)"/>
     <use xlink:href="#DejaVuSans-74" transform="translate(295.300781 0)"/>
     <use xlink:href="#DejaVuSans-72" transform="translate(334.509766 0)"/>
     <use xlink:href="#DejaVuSans-69" transform="translate(375.623047 0)"/>
     <use xlink:href="#DejaVuSans-61" transform="translate(403.40625 0)"/>
     <use xlink:href="#DejaVuSans-6e" transform="translate(464.685547 0)"/>
     <use xlink:href="#DejaVuSans-20" transform="translate(528.064453 0)"/>
     <use xlink:href="#DejaVuSans-54" transform="translate(559.851562 0)"/>
     <use xlink:href="#DejaVuSans-72" transform="translate(606.185547 0)"/>
     <use xlink:href="#DejaVuSans-61" transform="translate(647.298828 0)"/>
     <use xlink:href="#DejaVuSans-66" transform="translate(708.578125 0)"/>
     <use xlink:href="#DejaVuSans-66" transform="translate(743.783203 0)"/>
     <use xlink:href="#DejaVuSans-69" transform="translate(778.988281 0)"/>
     <use xlink:href="#DejaVuSans-63" transform="translate(806.771484 0)"/>
     <use xlink:href="#DejaVuSans-20" transform="translate(861.751953 0)"/>
     <use xlink:href="#DejaVuSans-61" transform="translate(893.539062 0)"/>
     <use xlink:href="#DejaVuSans-74" transform="translate(954.818359 0)"/>
     <use xlink:href="#DejaVuSans-20" transform="translate(994.027344 0)"/>
     <use xlink:href="#DejaVuSans-31" transform="translate(1025.814453 0)"/>
     <use xlink:href="#DejaVuSans-35" transform="translate(1089.4375 0)"/>
     <use xlink:href="#DejaVuSans-35" transform="translate(1153.060547 0)"/>
     <use xlink:href="#DejaVuSans-2d" transform="translate(1216.683594 0)"/>
     <use xlink:href="#DejaVuSans-31" transform="translate(1252.767578 0)"/>
     <use xlink:href="#DejaVuSans-36" transform="translate(1316.390625 0)"/>
     <use xlink:href="#DejaVuSans-31" transform="translate(1380.013672 0)"/>
     <use xlink:href="#DejaVuSans-20" transform="translate(1443.636719 0)"/>
     <use xlink:href="#DejaVuSans-52" transform="translate(1475.423828 0)"/>
     <use xlink:href="#DejaVuSans-75" transform="translate(1540.40625 0)"/>
     <use xlink:href="#DejaVuSans-73" transform="translate(1603.785156 0)"/>
     <use xlink:href="#DejaVuSans-73" transform="translate(1655.884766 0)"/>
     <use xlink:href="#DejaVuSans-65" transform="translate(1707.984375 0)"/>
     <use xlink:href="#DejaVuSans-6c" transform="translate(1769.507812 0)"/>
     <use xlink:href="#DejaVuSans-6c" transform="translate(1797.291016 0)"/>
     <use xlink:href="#DejaVuSans-20" transform="translate(1825.074219 0)"/>
     <use xlink:href="#DejaVuSans-53" transform="translate(1856.861328 0)"/>
     <use xlink:href="#DejaVuSans-74" transform="translate(1920.337891 0)"/>
     <use xlink:href="#DejaVuSans-72" transform="translate(1959.546875 0)"/>
     <use xlink:href="#DejaVuSans-65" transform="translate(1998.410156 0)"/>
     <use xlink:href="#DejaVuSans-65" transform="translate(2059.933594 0)"/>
     <use xlink:href="#DejaVuSans-74" transform="translate(2121.457031 0)"/>
    </g>
   </g>
   <g id="legend_1">
    <g id="patch_5">
     <path d="M 69.32625 80.449375 
L 132.52125 80.449375 
Q 134.72125 80.449375 134.72125 78.249375 
L 134.72125 47.0575 
Q 134.72125 44.8575 132.52125 44.8575 
L 69.32625 44.8575 
Q 67.12625 44.8575 67.12625 47.0575 
L 67.12625 78.249375 
Q 67.12625 80.449375 69.32625 80.449375 
z
" style="fill: #ffffff; opacity: 0.95; stroke: #cccccc; stroke-linejoin: miter"/>
    </g>
    <g id="line2d_43">
     <path d="M 71.52625 53.765781 
L 82.52625 53.765781 
L 93.52625 53.765781 
" style="fill: none; stroke: #0d6efc; stroke-opacity: 0.8; stroke-width: 2.5; stroke-linecap: square"/>
    </g>
    <g id="text_24">
     <!-- 2019 -->
     <g transform="translate(102.32625 57.615781) scale(0.11 -0.11)">
      <defs>
       <path id="DejaVuSans-39" d="M 703 97 
L 703 672 
Q 941 559 1184 500 
Q 1428 441 1663 441 
Q 2288 441 2617 861 
Q 2947 1281 2994 2138 
Q 2813 1869 2534 1725 
Q 2256 1581 1919 1581 
Q 1219 1581 811 2004 
Q 403 2428 403 3163 
Q 403 3881 828 4315 
Q 1253 4750 1959 4750 
Q 2769 4750 3195 4129 
Q 3622 3509 3622 2328 
Q 3622 1225 3098 567 
Q 2575 -91 1691 -91 
Q 1453 -91 1209 -44 
Q 966 3 703 97 
z
M 1959 2075 
Q 2384 2075 2632 2365 
Q 2881 2656 2881 3163 
Q 2881 3666 2632 3958 
Q 2384 4250 1959 4250 
Q 1534 4250 1286 3958 
Q 1038 3666 1038 3163 
Q 1038 2656 1286 2365 
Q 1534 2075 1959 2075 
z
" transform="scale(0.015625)"/>
      </defs>
      <use xlink:href="#DejaVuSans-32"/>
      <use xlink:href="#DejaVuSans-30" transform="translate(63.623047 0)"/>
      <use xlink:href="#DejaVuSans-31" transform="translate(127.246094 0)"/>
      <use xlink:href="#DejaVuSans-39" transform="translate(190.869141 0)"/>
     </g>
    </g>
    <g id="line2d_44">
     <path d="M 71.52625 69.911719 
L 82.52625 69.911719 
L 93.52625 69.911719 
" style="fill: none; stroke: #83c966; stroke-opacity: 0.8; stroke-width: 2.5; stroke-linecap: square"/>
    </g>
    <g id="text_25">
     <!-- 2025 -->
     <g transform="translate(102.32625 73.761719) scale(0.11 -0.11)">
      <use xlink:href="#DejaVuSans-32"/>
      <use xlink:href="#DejaVuSans-30" transform="translate(63.623047 0)"/>
      <use xlink:href="#DejaVuSans-32" transform="translate(127.246094 0)"/>
      <use xlink:href="#DejaVuSans-35" transform="translate(190.869141 0)"/>
     </g>
    </g>
   </g>
  </g>
 </g>
 <defs>
  <clipPath id="p615d3e9bd9">
   <rect x="61.62625" y="39.3575" width="642.695541" height="344.84"/>
  </clipPath>
 </defs>
</svg>
