<?xml version="1.0" encoding="utf-8" standalone="no"?>
<!DOCTYPE svg PUBLIC "-//W3C//DTD SVG 1.1//EN"
  "http://www.w3.org/Graphics/SVG/1.1/DTD/svg11.dtd">
<svg xmlns:xlink="http://www.w3.org/1999/xlink" width="711.431791pt" height="423.689375pt" viewBox="0 0 711.431791 423.689375" xmlns="http://www.w3.org/2000/svg" version="1.1">
 <metadata>
  <rdf:RDF xmlns:dc="http://purl.org/dc/elements/1.1/" xmlns:cc="http://creativecommons.org/ns#" xmlns:rdf="http://www.w3.org/1999/02/22-rdf-syntax-ns#">
   <cc:Work>
    <dc:type rdf:resource="http://purl.org/dc/dcmitype/StillImage"/>
    <dc:date>2026-01-28T17:49:43.103361</dc:date>
    <dc:format>image/svg+xml</dc:format>
    <dc:creator>
     <cc:Agent>
      <dc:title>Matplotlib v3.10.8, https://matplotlib.org/</dc:title>
     </cc:Agent>
    </dc:creator>
   </cc:Work>
  </rdf:RDF>
 </metadata>
 <defs>
  <style type="text/css">*{stroke-linejoin: round; stroke-linecap: butt}</style>
 </defs>
 <g id="figure_1">
  <g id="patch_1">
   <path d="M 0 423.689375 
L 711.431791 423.689375 
L 711.431791 0 
L 0 0 
L 0 423.689375 
z
" style="fill: none"/>
  </g>
  <g id="axes_1">
   <g id="patch_2">
    <path d="M 61.62625 384.1975 
L 704.231791 384.1975 
L 704.231791 39.3575 
L 61.62625 39.3575 
L 61.62625 384.1975 
z
" style="fill: none"/>
   </g>
   <g id="matplotlib.axis_1">
    <g id="xtick_1">
     <g id="line2d_1">
      <path d="M 61.62625 384.1975 
L 61.62625 39.3575 
" clip-path="url(#p7d66b0cb9f)" style="fill: none; stroke-dasharray: 2.96,1.28; stroke-dashoffset: 0; stroke: #b0b0b0; stroke-opacity: 0.3; stroke-width: 0.8"/>
     </g>
     <g id="line2d_2">
      <defs>
       <path id="m440076d406" d="M 0 0 
L 0 3.5 
" style="stroke: #000000; stroke-width: 0.8"/>
      </defs>
      <g>
       <use xlink:href="#m440076d406" x="61.62625" y="384.1975" style="stroke: #000000; stroke-width: 0.8"/>
      </g>
     </g>
     <g id="text_1">
      <!-- Jan -->
      <g transform="translate(53.918438 398.795937) scale(0.1 -0.1)">
       <defs>
        <path id="DejaVuSans-4a" d="M 628 4666 
L 1259 4666 
L 1259 325 
Q 1259 -519 939 -900 
Q 619 -1281 -91 -1281 
L -331 -1281 
L -331 -750 
L -134 -750 
Q 284 -750 456 -515 
Q 628 -281 628 325 
L 628 4666 
z
" transform="scale(0.015625)"/>
        <path id="DejaVuSans-61" d="M 2194 1759 
Q 1497 1759 1228 1600 
Q 959 1441 959 1056 
Q 959 750 1161 570 
Q 1363 391 1709 391 
Q 2188 391 2477 730 
Q 2766 1069 2766 1631 
L 2766 1759 
L 2194 1759 
z
M 3341 1997 
L 3341 0 
L 2766 0 
L 2766 531 
Q 2569 213 2275 61 
Q 1981 -91 1556 -91 
Q 1019 -91 701 211 
Q 384 513 384 1019 
Q 384 1609 779 1909 
Q 1175 2209 1959 2209 
L 2766 2209 
L 2766 2266 
Q 2766 2663 2505 2880 
Q 2244 3097 1772 3097 
Q 1472 3097 1187 3025 
Q 903 2953 641 2809 
L 641 3341 
Q 956 3463 1253 3523 
Q 1550 3584 1831 3584 
Q 2591 3584 2966 3190 
Q 3341 2797 3341 1997 
z
" transform="scale(0.015625)"/>
        <path id="DejaVuSans-6e" d="M 3513 2113 
L 3513 0 
L 2938 0 
L 2938 2094 
Q 2938 2591 2744 2837 
Q 2550 3084 2163 3084 
Q 1697 3084 1428 2787 
Q 1159 2491 1159 1978 
L 1159 0 
L 581 0 
L 581 3500 
L 1159 3500 
L 1159 2956 
Q 1366 3272 1645 3428 
Q 1925 3584 2291 3584 
Q 2894 3584 3203 3211 
Q 3513 2838 3513 2113 
z
" transform="scale(0.015625)"/>
       </defs>
       <use xlink:href="#DejaVuSans-4a"/>
       <use xlink:href="#DejaVuSans-61" transform="translate(29.492188 0)"/>
       <use xlink:href="#DejaVuSans-6e" transform="translate(90.771484 0)"/>
      </g>
     </g>
    </g>
    <g id="xtick_2">
     <g id="line2d_3">
      <path d="M 115.466174 384.1975 
L 115.466174 39.3575 
" clip-path="url(#p7d66b0cb9f)" style="fill: none; stroke-dasharray: 2.96,1.28; stroke-dashoffset: 0; stroke: #b0b0b0; stroke-opacity: 0.3; stroke-width: 0.8"/>
     </g>
     <g id="line2d_4">
      <g>
       <use xlink:href="#m440076d406" x="115.466174" y="384.1975" style="stroke: #000000; stroke-width: 0.8"/>
      </g>
     </g>
     <g id="text_2">
      <!-- Feb -->
      <g transform="translate(106.614611 398.795937) scale(0.1 -0.1)">
       <defs>
        <path id="DejaVuSans-46" d="M 628 4666 
L 3309 4666 
L 3309 4134 
L 1259 4134 
L 1259 2759 
L 3109 2759 
L 3109 2228 
L 1259 2228 
L 1259 0 
L 628 0 
L 628 4666 
z
" transform="scale(0.015625)"/>
        <path id="DejaVuSans-65" d="M 3597 1894 
L 3597 1613 
L 953 1613 
Q 991 1019 1311 708 
Q 1631 397 2203 397 
Q 2534 397 2845 478 
Q 3156 559 3463 722 
L 3463 178 
Q 3153 47 2828 -22 
Q 2503 -91 2169 -91 
Q 1331 -91 842 396 
Q 353 884 353 1716 
Q 353 2575 817 3079 
Q 1281 3584 2069 3584 
Q 2775 3584 3186 3129 
Q 3597 2675 3597 1894 
z
M 3022 2063 
Q 3016 2534 2758 2815 
Q 2500 3097 2075 3097 
Q 1594 3097 1305 2825 
Q 1016 2553 972 2059 
L 3022 2063 
z
" transform="scale(0.015625)"/>
        <path id="DejaVuSans-62" d="M 3116 1747 
Q 3116 2381 2855 2742 
Q 2594 3103 2138 3103 
Q 1681 3103 1420 2742 
Q 1159 2381 1159 1747 
Q 1159 1113 1420 752 
Q 1681 391 2138 391 
Q 2594 391 2855 752 
Q 3116 1113 3116 1747 
z
M 1159 2969 
Q 1341 3281 1617 3432 
Q 1894 3584 2278 3584 
Q 2916 3584 3314 3078 
Q 3713 2572 3713 1747 
Q 3713 922 3314 415 
Q 2916 -91 2278 -91 
Q 1894 -91 1617 61 
Q 1341 213 1159 525 
L 1159 0 
L 581 0 
L 581 4863 
L 1159 4863 
L 1159 2969 
z
" transform="scale(0.015625)"/>
       </defs>
       <use xlink:href="#DejaVuSans-46"/>
       <use xlink:href="#DejaVuSans-65" transform="translate(52.019531 0)"/>
       <use xlink:href="#DejaVuSans-62" transform="translate(113.542969 0)"/>
      </g>
     </g>
    </g>
    <g id="xtick_3">
     <g id="line2d_5">
      <path d="M 164.095782 384.1975 
L 164.095782 39.3575 
" clip-path="url(#p7d66b0cb9f)" style="fill: none; stroke-dasharray: 2.96,1.28; stroke-dashoffset: 0; stroke: #b0b0b0; stroke-opacity: 0.3; stroke-width: 0.8"/>
     </g>
     <g id="line2d_6">
      <g>
       <use xlink:href="#m440076d406" x="164.095782" y="384.1975" style="stroke: #000000; stroke-width: 0.8"/>
      </g>
     </g>
     <g id="text_3">
      <!-- Mar -->
      <g transform="translate(154.662188 398.795937) scale(0.1 -0.1)">
       <defs>
        <path id="DejaVuSans-4d" d="M 628 4666 
L 1569 4666 
L 2759 1491 
L 3956 4666 
L 4897 4666 
L 4897 0 
L 4281 0 
L 4281 4097 
L 3078 897 
L 2444 897 
L 1241 4097 
L 1241 0 
L 628 0 
L 628 4666 
z
" transform="scale(0.015625)"/>
        <path id="DejaVuSans-72" d="M 2631 2963 
Q 2534 3019 2420 3045 
Q 2306 3072 2169 3072 
Q 1681 3072 1420 2755 
Q 1159 2438 1159 1844 
L 1159 0 
L 581 0 
L 581 3500 
L 1159 3500 
L 1159 2956 
Q 1341 3275 1631 3429 
Q 1922 3584 2338 3584 
Q 2397 3584 2469 3576 
Q 2541 3569 2628 3553 
L 2631 2963 
z
" transform="scale(0.015625)"/>
       </defs>
       <use xlink:href="#DejaVuSans-4d"/>
       <use xlink:href="#DejaVuSans-61" transform="translate(86.279297 0)"/>
       <use xlink:href="#DejaVuSans-72" transform="translate(147.558594 0)"/>
      </g>
     </g>
    </g>
    <g id="xtick_4">
     <g id="line2d_7">
      <path d="M 217.935706 384.1975 
L 217.935706 39.3575 
" clip-path="url(#p7d66b0cb9f)" style="fill: none; stroke-dasharray: 2.96,1.28; stroke-dashoffset: 0; stroke: #b0b0b0; stroke-opacity: 0.3; stroke-width: 0.8"/>
     </g>
     <g id="line2d_8">
      <g>
       <use xlink:href="#m440076d406" x="217.935706" y="384.1975" style="stroke: #000000; stroke-width: 0.8"/>
      </g>
     </g>
     <g id="text_4">
      <!-- Apr -->
      <g transform="translate(209.285706 398.795937) scale(0.1 -0.1)">
       <defs>
        <path id="DejaVuSans-41" d="M 2188 4044 
L 1331 1722 
L 3047 1722 
L 2188 4044 
z
M 1831 4666 
L 2547 4666 
L 4325 0 
L 3669 0 
L 3244 1197 
L 1141 1197 
L 716 0 
L 50 0 
L 1831 4666 
z
" transform="scale(0.015625)"/>
        <path id="DejaVuSans-70" d="M 1159 525 
L 1159 -1331 
L 581 -1331 
L 581 3500 
L 1159 3500 
L 1159 2969 
Q 1341 3281 1617 3432 
Q 1894 3584 2278 3584 
Q 2916 3584 3314 3078 
Q 3713 2572 3713 1747 
Q 3713 922 3314 415 
Q 2916 -91 2278 -91 
Q 1894 -91 1617 61 
Q 1341 213 1159 525 
z
M 3116 1747 
Q 3116 2381 2855 2742 
Q 2594 3103 2138 3103 
Q 1681 3103 1420 2742 
Q 1159 2381 1159 1747 
Q 1159 1113 1420 752 
Q 1681 391 2138 391 
Q 2594 391 2855 752 
Q 3116 1113 3116 1747 
z
" transform="scale(0.015625)"/>
       </defs>
       <use xlink:href="#DejaVuSans-41"/>
       <use xlink:href="#DejaVuSans-70" transform="translate(68.408203 0)"/>
       <use xlink:href="#DejaVuSans-72" transform="translate(131.884766 0)"/>
      </g>
     </g>
    </g>
    <g id="xtick_5">
     <g id="line2d_9">
      <path d="M 270.038858 384.1975 
L 270.038858 39.3575 
" clip-path="url(#p7d66b0cb9f)" style="fill: none; stroke-dasharray: 2.96,1.28; stroke-dashoffset: 0; stroke: #b0b0b0; stroke-opacity: 0.3; stroke-width: 0.8"/>
     </g>
     <g id="line2d_10">
      <g>
       <use xlink:href="#m440076d406" x="270.038858" y="384.1975" style="stroke: #000000; stroke-width: 0.8"/>
      </g>
     </g>
     <g id="text_5">
      <!-- May -->
      <g transform="translate(259.701358 398.795937) scale(0.1 -0.1)">
       <defs>
        <path id="DejaVuSans-79" d="M 2059 -325 
Q 1816 -950 1584 -1140 
Q 1353 -1331 966 -1331 
L 506 -1331 
L 506 -850 
L 844 -850 
Q 1081 -850 1212 -737 
Q 1344 -625 1503 -206 
L 1606 56 
L 191 3500 
L 800 3500 
L 1894 763 
L 2988 3500 
L 3597 3500 
L 2059 -325 
z
" transform="scale(0.015625)"/>
       </defs>
       <use xlink:href="#DejaVuSans-4d"/>
       <use xlink:href="#DejaVuSans-61" transform="translate(86.279297 0)"/>
       <use xlink:href="#DejaVuSans-79" transform="translate(147.558594 0)"/>
      </g>
     </g>
    </g>
    <g id="xtick_6">
     <g id="line2d_11">
      <path d="M 323.878781 384.1975 
L 323.878781 39.3575 
" clip-path="url(#p7d66b0cb9f)" style="fill: none; stroke-dasharray: 2.96,1.28; stroke-dashoffset: 0; stroke: #b0b0b0; stroke-opacity: 0.3; stroke-width: 0.8"/>
     </g>
     <g id="line2d_12">
      <g>
       <use xlink:href="#m440076d406" x="323.878781" y="384.1975" style="stroke: #000000; stroke-width: 0.8"/>
      </g>
     </g>
     <g id="text_6">
      <!-- Jun -->
      <g transform="translate(316.066281 398.795937) scale(0.1 -0.1)">
       <defs>
        <path id="DejaVuSans-75" d="M 544 1381 
L 544 3500 
L 1119 3500 
L 1119 1403 
Q 1119 906 1312 657 
Q 1506 409 1894 409 
Q 2359 409 2629 706 
Q 2900 1003 2900 1516 
L 2900 3500 
L 3475 3500 
L 3475 0 
L 2900 0 
L 2900 538 
Q 2691 219 2414 64 
Q 2138 -91 1772 -91 
Q 1169 -91 856 284 
Q 544 659 544 1381 
z
M 1991 3584 
L 1991 3584 
z
" transform="scale(0.015625)"/>
       </defs>
       <use xlink:href="#DejaVuSans-4a"/>
       <use xlink:href="#DejaVuSans-75" transform="translate(29.492188 0)"/>
       <use xlink:href="#DejaVuSans-6e" transform="translate(92.871094 0)"/>
      </g>
     </g>
    </g>
    <g id="xtick_7">
     <g id="line2d_13">
      <path d="M 375.981933 384.1975 
L 375.981933 39.3575 
" clip-path="url(#p7d66b0cb9f)" style="fill: none; stroke-dasharray: 2.96,1.28; stroke-dashoffset: 0; stroke: #b0b0b0; stroke-opacity: 0.3; stroke-width: 0.8"/>
     </g>
     <g id="line2d_14">
      <g>
       <use xlink:href="#m440076d406" x="375.981933" y="384.1975" style="stroke: #000000; stroke-width: 0.8"/>
      </g>
     </g>
     <g id="text_7">
      <!-- Jul -->
      <g transform="translate(369.949121 398.795937) scale(0.1 -0.1)">
       <defs>
        <path id="DejaVuSans-6c" d="M 603 4863 
L 1178 4863 
L 1178 0 
L 603 0 
L 603 4863 
z
" transform="scale(0.015625)"/>
       </defs>
       <use xlink:href="#DejaVuSans-4a"/>
       <use xlink:href="#DejaVuSans-75" transform="translate(29.492188 0)"/>
       <use xlink:href="#DejaVuSans-6c" transform="translate(92.871094 0)"/>
      </g>
     </g>
    </g>
    <g id="xtick_8">
     <g id="line2d_15">
      <path d="M 429.821857 384.1975 
L 429.821857 39.3575 
" clip-path="url(#p7d66b0cb9f)" style="fill: none; stroke-dasharray: 2.96,1.28; stroke-dashoffset: 0; stroke: #b0b0b0; stroke-opacity: 0.3; stroke-width: 0.8"/>
     </g>
     <g id="line2d_16">
      <g>
       <use xlink:href="#m440076d406" x="429.821857" y="384.1975" style="stroke: #000000; stroke-width: 0.8"/>
      </g>
     </g>
     <g id="text_8">
      <!-- Aug -->
      <g transform="translate(420.058576 398.795937) scale(0.1 -0.1)">
       <defs>
        <path id="DejaVuSans-67" d="M 2906 1791 
Q 2906 2416 2648 2759 
Q 2391 3103 1925 3103 
Q 1463 3103 1205 2759 
Q 947 2416 947 1791 
Q 947 1169 1205 825 
Q 1463 481 1925 481 
Q 2391 481 2648 825 
Q 2906 1169 2906 1791 
z
M 3481 434 
Q 3481 -459 3084 -895 
Q 2688 -1331 1869 -1331 
Q 1566 -1331 1297 -1286 
Q 1028 -1241 775 -1147 
L 775 -588 
Q 1028 -725 1275 -790 
Q 1522 -856 1778 -856 
Q 2344 -856 2625 -561 
Q 2906 -266 2906 331 
L 2906 616 
Q 2728 306 2450 153 
Q 2172 0 1784 0 
Q 1141 0 747 490 
Q 353 981 353 1791 
Q 353 2603 747 3093 
Q 1141 3584 1784 3584 
Q 2172 3584 2450 3431 
Q 2728 3278 2906 2969 
L 2906 3500 
L 3481 3500 
L 3481 434 
z
" transform="scale(0.015625)"/>
       </defs>
       <use xlink:href="#DejaVuSans-41"/>
       <use xlink:href="#DejaVuSans-75" transform="translate(68.408203 0)"/>
       <use xlink:href="#DejaVuSans-67" transform="translate(131.787109 0)"/>
      </g>
     </g>
    </g>
    <g id="xtick_9">
     <g id="line2d_17">
      <path d="M 483.661781 384.1975 
L 483.661781 39.3575 
" clip-path="url(#p7d66b0cb9f)" style="fill: none; stroke-dasharray: 2.96,1.28; stroke-dashoffset: 0; stroke: #b0b0b0; stroke-opacity: 0.3; stroke-width: 0.8"/>
     </g>
     <g id="line2d_18">
      <g>
       <use xlink:href="#m440076d406" x="483.661781" y="384.1975" style="stroke: #000000; stroke-width: 0.8"/>
      </g>
     </g>
     <g id="text_9">
      <!-- Sep -->
      <g transform="translate(474.236781 398.795937) scale(0.1 -0.1)">
       <defs>
        <path id="DejaVuSans-53" d="M 3425 4513 
L 3425 3897 
Q 3066 4069 2747 4153 
Q 2428 4238 2131 4238 
Q 1616 4238 1336 4038 
Q 1056 3838 1056 3469 
Q 1056 3159 1242 3001 
Q 1428 2844 1947 2747 
L 2328 2669 
Q 3034 2534 3370 2195 
Q 3706 1856 3706 1288 
Q 3706 609 3251 259 
Q 2797 -91 1919 -91 
Q 1588 -91 1214 -16 
Q 841 59 441 206 
L 441 856 
Q 825 641 1194 531 
Q 1563 422 1919 422 
Q 2459 422 2753 634 
Q 3047 847 3047 1241 
Q 3047 1584 2836 1778 
Q 2625 1972 2144 2069 
L 1759 2144 
Q 1053 2284 737 2584 
Q 422 2884 422 3419 
Q 422 4038 858 4394 
Q 1294 4750 2059 4750 
Q 2388 4750 2728 4690 
Q 3069 4631 3425 4513 
z
" transform="scale(0.015625)"/>
       </defs>
       <use xlink:href="#DejaVuSans-53"/>
       <use xlink:href="#DejaVuSans-65" transform="translate(63.476562 0)"/>
       <use xlink:href="#DejaVuSans-70" transform="translate(125 0)"/>
      </g>
     </g>
    </g>
    <g id="xtick_10">
     <g id="line2d_19">
      <path d="M 535.764933 384.1975 
L 535.764933 39.3575 
" clip-path="url(#p7d66b0cb9f)" style="fill: none; stroke-dasharray: 2.96,1.28; stroke-dashoffset: 0; stroke: #b0b0b0; stroke-opacity: 0.3; stroke-width: 0.8"/>
     </g>
     <g id="line2d_20">
      <g>
       <use xlink:href="#m440076d406" x="535.764933" y="384.1975" style="stroke: #000000; stroke-width: 0.8"/>
      </g>
     </g>
     <g id="text_10">
      <!-- Oct -->
      <g transform="translate(527.11962 398.795937) scale(0.1 -0.1)">
       <defs>
        <path id="DejaVuSans-4f" d="M 2522 4238 
Q 1834 4238 1429 3725 
Q 1025 3213 1025 2328 
Q 1025 1447 1429 934 
Q 1834 422 2522 422 
Q 3209 422 3611 934 
Q 4013 1447 4013 2328 
Q 4013 3213 3611 3725 
Q 3209 4238 2522 4238 
z
M 2522 4750 
Q 3503 4750 4090 4092 
Q 4678 3434 4678 2328 
Q 4678 1225 4090 567 
Q 3503 -91 2522 -91 
Q 1538 -91 948 565 
Q 359 1222 359 2328 
Q 359 3434 948 4092 
Q 1538 4750 2522 4750 
z
" transform="scale(0.015625)"/>
        <path id="DejaVuSans-63" d="M 3122 3366 
L 3122 2828 
Q 2878 2963 2633 3030 
Q 2388 3097 2138 3097 
Q 1578 3097 1268 2742 
Q 959 2388 959 1747 
Q 959 1106 1268 751 
Q 1578 397 2138 397 
Q 2388 397 2633 464 
Q 2878 531 3122 666 
L 3122 134 
Q 2881 22 2623 -34 
Q 2366 -91 2075 -91 
Q 1284 -91 818 406 
Q 353 903 353 1747 
Q 353 2603 823 3093 
Q 1294 3584 2113 3584 
Q 2378 3584 2631 3529 
Q 2884 3475 3122 3366 
z
" transform="scale(0.015625)"/>
        <path id="DejaVuSans-74" d="M 1172 4494 
L 1172 3500 
L 2356 3500 
L 2356 3053 
L 1172 3053 
L 1172 1153 
Q 1172 725 1289 603 
Q 1406 481 1766 481 
L 2356 481 
L 2356 0 
L 1766 0 
Q 1100 0 847 248 
Q 594 497 594 1153 
L 594 3053 
L 172 3053 
L 172 3500 
L 594 3500 
L 594 4494 
L 1172 4494 
z
" transform="scale(0.015625)"/>
       </defs>
       <use xlink:href="#DejaVuSans-4f"/>
       <use xlink:href="#DejaVuSans-63" transform="translate(78.710938 0)"/>
       <use xlink:href="#DejaVuSans-74" transform="translate(133.691406 0)"/>
      </g>
     </g>
    </g>
    <g id="xtick_11">
     <g id="line2d_21">
      <path d="M 589.604856 384.1975 
L 589.604856 39.3575 
" clip-path="url(#p7d66b0cb9f)" style="fill: none; stroke-dasharray: 2.96,1.28; stroke-dashoffset: 0; stroke: #b0b0b0; stroke-opacity: 0.3; stroke-width: 0.8"/>
     </g>
     <g id="line2d_22">
      <g>
       <use xlink:href="#m440076d406" x="589.604856" y="384.1975" style="stroke: #000000; stroke-width: 0.8"/>
      </g>
     </g>
     <g id="text_11">
      <!-- Nov -->
      <g transform="translate(579.845481 398.795937) scale(0.1 -0.1)">
       <defs>
        <path id="DejaVuSans-4e" d="M 628 4666 
L 1478 4666 
L 3547 763 
L 3547 4666 
L 4159 4666 
L 4159 0 
L 3309 0 
L 1241 3903 
L 1241 0 
L 628 0 
L 628 4666 
z
" transform="scale(0.015625)"/>
        <path id="DejaVuSans-6f" d="M 1959 3097 
Q 1497 3097 1228 2736 
Q 959 2375 959 1747 
Q 959 1119 1226 758 
Q 1494 397 1959 397 
Q 2419 397 2687 759 
Q 2956 1122 2956 1747 
Q 2956 2369 2687 2733 
Q 2419 3097 1959 3097 
z
M 1959 3584 
Q 2709 3584 3137 3096 
Q 3566 2609 3566 1747 
Q 3566 888 3137 398 
Q 2709 -91 1959 -91 
Q 1206 -91 779 398 
Q 353 888 353 1747 
Q 353 2609 779 3096 
Q 1206 3584 1959 3584 
z
" transform="scale(0.015625)"/>
        <path id="DejaVuSans-76" d="M 191 3500 
L 800 3500 
L 1894 563 
L 2988 3500 
L 3597 3500 
L 2284 0 
L 1503 0 
L 191 3500 
z
" transform="scale(0.015625)"/>
       </defs>
       <use xlink:href="#DejaVuSans-4e"/>
       <use xlink:href="#DejaVuSans-6f" transform="translate(74.804688 0)"/>
       <use xlink:href="#DejaVuSans-76" transform="translate(135.986328 0)"/>
      </g>
     </g>
    </g>
    <g id="xtick_12">
     <g id="line2d_23">
      <path d="M 641.708008 384.1975 
L 641.708008 39.3575 
" clip-path="url(#p7d66b0cb9f)" style="fill: none; stroke-dasharray: 2.96,1.28; stroke-dashoffset: 0; stroke: #b0b0b0; stroke-opacity: 0.3; stroke-width: 0.8"/>
     </g>
     <g id="line2d_24">
      <g>
       <use xlink:href="#m440076d406" x="641.708008" y="384.1975" style="stroke: #000000; stroke-width: 0.8"/>
      </g>
     </g>
     <g id="text_12">
      <!-- Dec -->
      <g transform="translate(632.032227 398.795937) scale(0.1 -0.1)">
       <defs>
        <path id="DejaVuSans-44" d="M 1259 4147 
L 1259 519 
L 2022 519 
Q 2988 519 3436 956 
Q 3884 1394 3884 2338 
Q 3884 3275 3436 3711 
Q 2988 4147 2022 4147 
L 1259 4147 
z
M 628 4666 
L 1925 4666 
Q 3281 4666 3915 4102 
Q 4550 3538 4550 2338 
Q 4550 1131 3912 565 
Q 3275 0 1925 0 
L 628 0 
L 628 4666 
z
" transform="scale(0.015625)"/>
       </defs>
       <use xlink:href="#DejaVuSans-44"/>
       <use xlink:href="#DejaVuSans-65" transform="translate(77.001953 0)"/>
       <use xlink:href="#DejaVuSans-63" transform="translate(138.525391 0)"/>
      </g>
     </g>
    </g>
    <g id="xtick_13">
     <g id="line2d_25">
      <path d="M 695.547932 384.1975 
L 695.547932 39.3575 
" clip-path="url(#p7d66b0cb9f)" style="fill: none; stroke-dasharray: 2.96,1.28; stroke-dashoffset: 0; stroke: #b0b0b0; stroke-opacity: 0.3; stroke-width: 0.8"/>
     </g>
     <g id="line2d_26">
      <g>
       <use xlink:href="#m440076d406" x="695.547932" y="384.1975" style="stroke: #000000; stroke-width: 0.8"/>
      </g>
     </g>
     <g id="text_13">
      <!-- Jan -->
      <g transform="translate(687.840119 398.795937) scale(0.1 -0.1)">
       <use xlink:href="#DejaVuSans-4a"/>
       <use xlink:href="#DejaVuSans-61" transform="translate(29.492188 0)"/>
       <use xlink:href="#DejaVuSans-6e" transform="translate(90.771484 0)"/>
      </g>
     </g>
    </g>
    <g id="text_14">
     <!-- Day of the year -->
     <g transform="translate(336.343708 413.99375) scale(0.12 -0.12)">
      <defs>
       <path id="DejaVuSans-20" transform="scale(0.015625)"/>
       <path id="DejaVuSans-66" d="M 2375 4863 
L 2375 4384 
L 1825 4384 
Q 1516 4384 1395 4259 
Q 1275 4134 1275 3809 
L 1275 3500 
L 2222 3500 
L 2222 3053 
L 1275 3053 
L 1275 0 
L 697 0 
L 697 3053 
L 147 3053 
L 147 3500 
L 697 3500 
L 697 3744 
Q 697 4328 969 4595 
Q 1241 4863 1831 4863 
L 2375 4863 
z
" transform="scale(0.015625)"/>
       <path id="DejaVuSans-68" d="M 3513 2113 
L 3513 0 
L 2938 0 
L 2938 2094 
Q 2938 2591 2744 2837 
Q 2550 3084 2163 3084 
Q 1697 3084 1428 2787 
Q 1159 2491 1159 1978 
L 1159 0 
L 581 0 
L 581 4863 
L 1159 4863 
L 1159 2956 
Q 1366 3272 1645 3428 
Q 1925 3584 2291 3584 
Q 2894 3584 3203 3211 
Q 3513 2838 3513 2113 
z
" transform="scale(0.015625)"/>
      </defs>
      <use xlink:href="#DejaVuSans-44"/>
      <use xlink:href="#DejaVuSans-61" transform="translate(77.001953 0)"/>
      <use xlink:href="#DejaVuSans-79" transform="translate(138.28125 0)"/>
      <use xlink:href="#DejaVuSans-20" transform="translate(197.460938 0)"/>
      <use xlink:href="#DejaVuSans-6f" transform="translate(229.248047 0)"/>
      <use xlink:href="#DejaVuSans-66" transform="translate(290.429688 0)"/>
      <use xlink:href="#DejaVuSans-20" transform="translate(325.634766 0)"/>
      <use xlink:href="#DejaVuSans-74" transform="translate(357.421875 0)"/>
      <use xlink:href="#DejaVuSans-68" transform="translate(396.630859 0)"/>
      <use xlink:href="#DejaVuSans-65" transform="translate(460.009766 0)"/>
      <use xlink:href="#DejaVuSans-20" transform="translate(521.533203 0)"/>
      <use xlink:href="#DejaVuSans-79" transform="translate(553.320312 0)"/>
      <use xlink:href="#DejaVuSans-65" transform="translate(612.5 0)"/>
      <use xlink:href="#DejaVuSans-61" transform="translate(674.023438 0)"/>
      <use xlink:href="#DejaVuSans-72" transform="translate(735.302734 0)"/>
     </g>
    </g>
   </g>
   <g id="matplotlib.axis_2">
    <g id="ytick_1">
     <g id="line2d_27">
      <path d="M 61.62625 384.1975 
L 704.231791 384.1975 
" clip-path="url(#p7d66b0cb9f)" style="fill: none; stroke-dasharray: 2.96,1.28; stroke-dashoffset: 0; stroke: #b0b0b0; stroke-opacity: 0.3; stroke-width: 0.8"/>
     </g>
     <g id="line2d_28">
      <defs>
       <path id="mb92fabf700" d="M 0 0 
L -3.5 0 
" style="stroke: #000000; stroke-width: 0.8"/>
      </defs>
      <g>
       <use xlink:href="#mb92fabf700" x="61.62625" y="384.1975" style="stroke: #000000; stroke-width: 0.8"/>
      </g>
     </g>
     <g id="text_15">
      <!-- 0 -->
      <g transform="translate(48.26375 387.996719) scale(0.1 -0.1)">
       <defs>
        <path id="DejaVuSans-30" d="M 2034 4250 
Q 1547 4250 1301 3770 
Q 1056 3291 1056 2328 
Q 1056 1369 1301 889 
Q 1547 409 2034 409 
Q 2525 409 2770 889 
Q 3016 1369 3016 2328 
Q 3016 3291 2770 3770 
Q 2525 4250 2034 4250 
z
M 2034 4750 
Q 2819 4750 3233 4129 
Q 3647 3509 3647 2328 
Q 3647 1150 3233 529 
Q 2819 -91 2034 -91 
Q 1250 -91 836 529 
Q 422 1150 422 2328 
Q 422 3509 836 4129 
Q 1250 4750 2034 4750 
z
" transform="scale(0.015625)"/>
       </defs>
       <use xlink:href="#DejaVuSans-30"/>
      </g>
     </g>
    </g>
    <g id="ytick_2">
     <g id="line2d_29">
      <path d="M 61.62625 344.653216 
L 704.231791 344.653216 
" clip-path="url(#p7d66b0cb9f)" style="fill: none; stroke-dasharray: 2.96,1.28; stroke-dashoffset: 0; stroke: #b0b0b0; stroke-opacity: 0.3; stroke-width: 0.8"/>
     </g>
     <g id="line2d_30">
      <g>
       <use xlink:href="#mb92fabf700" x="61.62625" y="344.653216" style="stroke: #000000; stroke-width: 0.8"/>
      </g>
     </g>
     <g id="text_16">
      <!-- 2000 -->
      <g transform="translate(29.17625 348.452434) scale(0.1 -0.1)">
       <defs>
        <path id="DejaVuSans-32" d="M 1228 531 
L 3431 531 
L 3431 0 
L 469 0 
L 469 531 
Q 828 903 1448 1529 
Q 2069 2156 2228 2338 
Q 2531 2678 2651 2914 
Q 2772 3150 2772 3378 
Q 2772 3750 2511 3984 
Q 2250 4219 1831 4219 
Q 1534 4219 1204 4116 
Q 875 4013 500 3803 
L 500 4441 
Q 881 4594 1212 4672 
Q 1544 4750 1819 4750 
Q 2544 4750 2975 4387 
Q 3406 4025 3406 3419 
Q 3406 3131 3298 2873 
Q 3191 2616 2906 2266 
Q 2828 2175 2409 1742 
Q 1991 1309 1228 531 
z
" transform="scale(0.015625)"/>
       </defs>
       <use xlink:href="#DejaVuSans-32"/>
       <use xlink:href="#DejaVuSans-30" transform="translate(63.623047 0)"/>
       <use xlink:href="#DejaVuSans-30" transform="translate(127.246094 0)"/>
       <use xlink:href="#DejaVuSans-30" transform="translate(190.869141 0)"/>
      </g>
     </g>
    </g>
    <g id="ytick_3">
     <g id="line2d_31">
      <path d="M 61.62625 305.108931 
L 704.231791 305.108931 
" clip-path="url(#p7d66b0cb9f)" style="fill: none; stroke-dasharray: 2.96,1.28; stroke-dashoffset: 0; stroke: #b0b0b0; stroke-opacity: 0.3; stroke-width: 0.8"/>
     </g>
     <g id="line2d_32">
      <g>
       <use xlink:href="#mb92fabf700" x="61.62625" y="305.108931" style="stroke: #000000; stroke-width: 0.8"/>
      </g>
     </g>
     <g id="text_17">
      <!-- 4000 -->
      <g transform="translate(29.17625 308.90815) scale(0.1 -0.1)">
       <defs>
        <path id="DejaVuSans-34" d="M 2419 4116 
L 825 1625 
L 2419 1625 
L 2419 4116 
z
M 2253 4666 
L 3047 4666 
L 3047 1625 
L 3713 1625 
L 3713 1100 
L 3047 1100 
L 3047 0 
L 2419 0 
L 2419 1100 
L 313 1100 
L 313 1709 
L 2253 4666 
z
" transform="scale(0.015625)"/>
       </defs>
       <use xlink:href="#DejaVuSans-34"/>
       <use xlink:href="#DejaVuSans-30" transform="translate(63.623047 0)"/>
       <use xlink:href="#DejaVuSans-30" transform="translate(127.246094 0)"/>
       <use xlink:href="#DejaVuSans-30" transform="translate(190.869141 0)"/>
      </g>
     </g>
    </g>
    <g id="ytick_4">
     <g id="line2d_33">
      <path d="M 61.62625 265.564647 
L 704.231791 265.564647 
" clip-path="url(#p7d66b0cb9f)" style="fill: none; stroke-dasharray: 2.96,1.28; stroke-dashoffset: 0; stroke: #b0b0b0; stroke-opacity: 0.3; stroke-width: 0.8"/>
     </g>
     <g id="line2d_34">
      <g>
       <use xlink:href="#mb92fabf700" x="61.62625" y="265.564647" style="stroke: #000000; stroke-width: 0.8"/>
      </g>
     </g>
     <g id="text_18">
      <!-- 6000 -->
      <g transform="translate(29.17625 269.363866) scale(0.1 -0.1)">
       <defs>
        <path id="DejaVuSans-36" d="M 2113 2584 
Q 1688 2584 1439 2293 
Q 1191 2003 1191 1497 
Q 1191 994 1439 701 
Q 1688 409 2113 409 
Q 2538 409 2786 701 
Q 3034 994 3034 1497 
Q 3034 2003 2786 2293 
Q 2538 2584 2113 2584 
z
M 3366 4563 
L 3366 3988 
Q 3128 4100 2886 4159 
Q 2644 4219 2406 4219 
Q 1781 4219 1451 3797 
Q 1122 3375 1075 2522 
Q 1259 2794 1537 2939 
Q 1816 3084 2150 3084 
Q 2853 3084 3261 2657 
Q 3669 2231 3669 1497 
Q 3669 778 3244 343 
Q 2819 -91 2113 -91 
Q 1303 -91 875 529 
Q 447 1150 447 2328 
Q 447 3434 972 4092 
Q 1497 4750 2381 4750 
Q 2619 4750 2861 4703 
Q 3103 4656 3366 4563 
z
" transform="scale(0.015625)"/>
       </defs>
       <use xlink:href="#DejaVuSans-36"/>
       <use xlink:href="#DejaVuSans-30" transform="translate(63.623047 0)"/>
       <use xlink:href="#DejaVuSans-30" transform="translate(127.246094 0)"/>
       <use xlink:href="#DejaVuSans-30" transform="translate(190.869141 0)"/>
      </g>
     </g>
    </g>
    <g id="ytick_5">
     <g id="line2d_35">
      <path d="M 61.62625 226.020363 
L 704.231791 226.020363 
" clip-path="url(#p7d66b0cb9f)" style="fill: none; stroke-dasharray: 2.96,1.28; stroke-dashoffset: 0; stroke: #b0b0b0; stroke-opacity: 0.3; stroke-width: 0.8"/>
     </g>
     <g id="line2d_36">
      <g>
       <use xlink:href="#mb92fabf700" x="61.62625" y="226.020363" style="stroke: #000000; stroke-width: 0.8"/>
      </g>
     </g>
     <g id="text_19">
      <!-- 8000 -->
      <g transform="translate(29.17625 229.819581) scale(0.1 -0.1)">
       <defs>
        <path id="DejaVuSans-38" d="M 2034 2216 
Q 1584 2216 1326 1975 
Q 1069 1734 1069 1313 
Q 1069 891 1326 650 
Q 1584 409 2034 409 
Q 2484 409 2743 651 
Q 3003 894 3003 1313 
Q 3003 1734 2745 1975 
Q 2488 2216 2034 2216 
z
M 1403 2484 
Q 997 2584 770 2862 
Q 544 3141 544 3541 
Q 544 4100 942 4425 
Q 1341 4750 2034 4750 
Q 2731 4750 3128 4425 
Q 3525 4100 3525 3541 
Q 3525 3141 3298 2862 
Q 3072 2584 2669 2484 
Q 3125 2378 3379 2068 
Q 3634 1759 3634 1313 
Q 3634 634 3220 271 
Q 2806 -91 2034 -91 
Q 1263 -91 848 271 
Q 434 634 434 1313 
Q 434 1759 690 2068 
Q 947 2378 1403 2484 
z
M 1172 3481 
Q 1172 3119 1398 2916 
Q 1625 2713 2034 2713 
Q 2441 2713 2670 2916 
Q 2900 3119 2900 3481 
Q 2900 3844 2670 4047 
Q 2441 4250 2034 4250 
Q 1625 4250 1398 4047 
Q 1172 3844 1172 3481 
z
" transform="scale(0.015625)"/>
       </defs>
       <use xlink:href="#DejaVuSans-38"/>
       <use xlink:href="#DejaVuSans-30" transform="translate(63.623047 0)"/>
       <use xlink:href="#DejaVuSans-30" transform="translate(127.246094 0)"/>
       <use xlink:href="#DejaVuSans-30" transform="translate(190.869141 0)"/>
      </g>
     </g>
    </g>
    <g id="ytick_6">
     <g id="line2d_37">
      <path d="M 61.62625 186.476078 
L 704.231791 186.476078 
" clip-path="url(#p7d66b0cb9f)" style="fill: none; stroke-dasharray: 2.96,1.28; stroke-dashoffset: 0; stroke: #b0b0b0; stroke-opacity: 0.3; stroke-width: 0.8"/>
     </g>
     <g id="line2d_38">
      <g>
       <use xlink:href="#mb92fabf700" x="61.62625" y="186.476078" style="stroke: #000000; stroke-width: 0.8"/>
      </g>
     </g>
     <g id="text_20">
      <!-- 10000 -->
      <g transform="translate(22.81375 190.275297) scale(0.1 -0.1)">
       <defs>
        <path id="DejaVuSans-31" d="M 794 531 
L 1825 531 
L 1825 4091 
L 703 3866 
L 703 4441 
L 1819 4666 
L 2450 4666 
L 2450 531 
L 3481 531 
L 3481 0 
L 794 0 
L 794 531 
z
" transform="scale(0.015625)"/>
       </defs>
       <use xlink:href="#DejaVuSans-31"/>
       <use xlink:href="#DejaVuSans-30" transform="translate(63.623047 0)"/>
       <use xlink:href="#DejaVuSans-30" transform="translate(127.246094 0)"/>
       <use xlink:href="#DejaVuSans-30" transform="translate(190.869141 0)"/>
       <use xlink:href="#DejaVuSans-30" transform="translate(254.492188 0)"/>
      </g>
     </g>
    </g>
    <g id="ytick_7">
     <g id="line2d_39">
      <path d="M 61.62625 146.931794 
L 704.231791 146.931794 
" clip-path="url(#p7d66b0cb9f)" style="fill: none; stroke-dasharray: 2.96,1.28; stroke-dashoffset: 0; stroke: #b0b0b0; stroke-opacity: 0.3; stroke-width: 0.8"/>
     </g>
     <g id="line2d_40">
      <g>
       <use xlink:href="#mb92fabf700" x="61.62625" y="146.931794" style="stroke: #000000; stroke-width: 0.8"/>
      </g>
     </g>
     <g id="text_21">
      <!-- 12000 -->
      <g transform="translate(22.81375 150.731013) scale(0.1 -0.1)">
       <use xlink:href="#DejaVuSans-31"/>
       <use xlink:href="#DejaVuSans-32" transform="translate(63.623047 0)"/>
       <use xlink:href="#DejaVuSans-30" transform="translate(127.246094 0)"/>
       <use xlink:href="#DejaVuSans-30" transform="translate(190.869141 0)"/>
       <use xlink:href="#DejaVuSans-30" transform="translate(254.492188 0)"/>
      </g>
     </g>
    </g>
    <g id="ytick_8">
     <g id="line2d_41">
      <path d="M 61.62625 107.38751 
L 704.231791 107.38751 
" clip-path="url(#p7d66b0cb9f)" style="fill: none; stroke-dasharray: 2.96,1.28; stroke-dashoffset: 0; stroke: #b0b0b0; stroke-opacity: 0.3; stroke-width: 0.8"/>
     </g>
     <g id="line2d_42">
      <g>
       <use xlink:href="#mb92fabf700" x="61.62625" y="107.38751" style="stroke: #000000; stroke-width: 0.8"/>
      </g>
     </g>
     <g id="text_22">
      <!-- 14000 -->
      <g transform="translate(22.81375 111.186728) scale(0.1 -0.1)">
       <use xlink:href="#DejaVuSans-31"/>
       <use xlink:href="#DejaVuSans-34" transform="translate(63.623047 0)"/>
       <use xlink:href="#DejaVuSans-30" transform="translate(127.246094 0)"/>
       <use xlink:href="#DejaVuSans-30" transform="translate(190.869141 0)"/>
       <use xlink:href="#DejaVuSans-30" transform="translate(254.492188 0)"/>
      </g>
     </g>
    </g>
    <g id="ytick_9">
     <g id="line2d_43">
      <path d="M 61.62625 67.843225 
L 704.231791 67.843225 
" clip-path="url(#p7d66b0cb9f)" style="fill: none; stroke-dasharray: 2.96,1.28; stroke-dashoffset: 0; stroke: #b0b0b0; stroke-opacity: 0.3; stroke-width: 0.8"/>
     </g>
     <g id="line2d_44">
      <g>
       <use xlink:href="#mb92fabf700" x="61.62625" y="67.843225" style="stroke: #000000; stroke-width: 0.8"/>
      </g>
     </g>
     <g id="text_23">
      <!-- 16000 -->
      <g transform="translate(22.81375 71.642444) scale(0.1 -0.1)">
       <use xlink:href="#DejaVuSans-31"/>
       <use xlink:href="#DejaVuSans-36" transform="translate(63.623047 0)"/>
       <use xlink:href="#DejaVuSans-30" transform="translate(127.246094 0)"/>
       <use xlink:href="#DejaVuSans-30" transform="translate(190.869141 0)"/>
       <use xlink:href="#DejaVuSans-30" transform="translate(254.492188 0)"/>
      </g>
     </g>
    </g>
    <g id="text_24">
     <!-- Daily pedestrian count -->
     <g transform="translate(16.318125 279.793125) rotate(-90) scale(0.12 -0.12)">
      <defs>
       <path id="DejaVuSans-69" d="M 603 3500 
L 1178 3500 
L 1178 0 
L 603 0 
L 603 3500 
z
M 603 4863 
L 1178 4863 
L 1178 4134 
L 603 4134 
L 603 4863 
z
" transform="scale(0.015625)"/>
       <path id="DejaVuSans-64" d="M 2906 2969 
L 2906 4863 
L 3481 4863 
L 3481 0 
L 2906 0 
L 2906 525 
Q 2725 213 2448 61 
Q 2172 -91 1784 -91 
Q 1150 -91 751 415 
Q 353 922 353 1747 
Q 353 2572 751 3078 
Q 1150 3584 1784 3584 
Q 2172 3584 2448 3432 
Q 2725 3281 2906 2969 
z
M 947 1747 
Q 947 1113 1208 752 
Q 1469 391 1925 391 
Q 2381 391 2643 752 
Q 2906 1113 2906 1747 
Q 2906 2381 2643 2742 
Q 2381 3103 1925 3103 
Q 1469 3103 1208 2742 
Q 947 2381 947 1747 
z
" transform="scale(0.015625)"/>
       <path id="DejaVuSans-73" d="M 2834 3397 
L 2834 2853 
Q 2591 2978 2328 3040 
Q 2066 3103 1784 3103 
Q 1356 3103 1142 2972 
Q 928 2841 928 2578 
Q 928 2378 1081 2264 
Q 1234 2150 1697 2047 
L 1894 2003 
Q 2506 1872 2764 1633 
Q 3022 1394 3022 966 
Q 3022 478 2636 193 
Q 2250 -91 1575 -91 
Q 1294 -91 989 -36 
Q 684 19 347 128 
L 347 722 
Q 666 556 975 473 
Q 1284 391 1588 391 
Q 1994 391 2212 530 
Q 2431 669 2431 922 
Q 2431 1156 2273 1281 
Q 2116 1406 1581 1522 
L 1381 1569 
Q 847 1681 609 1914 
Q 372 2147 372 2553 
Q 372 3047 722 3315 
Q 1072 3584 1716 3584 
Q 2034 3584 2315 3537 
Q 2597 3491 2834 3397 
z
" transform="scale(0.015625)"/>
      </defs>
      <use xlink:href="#DejaVuSans-44"/>
      <use xlink:href="#DejaVuSans-61" transform="translate(77.001953 0)"/>
      <use xlink:href="#DejaVuSans-69" transform="translate(138.28125 0)"/>
      <use xlink:href="#DejaVuSans-6c" transform="translate(166.064453 0)"/>
      <use xlink:href="#DejaVuSans-79" transform="translate(193.847656 0)"/>
      <use xlink:href="#DejaVuSans-20" transform="translate(253.027344 0)"/>
      <use xlink:href="#DejaVuSans-70" transform="translate(284.814453 0)"/>
      <use xlink:href="#DejaVuSans-65" transform="translate(348.291016 0)"/>
      <use xlink:href="#DejaVuSans-64" transform="translate(409.814453 0)"/>
      <use xlink:href="#DejaVuSans-65" transform="translate(473.291016 0)"/>
      <use xlink:href="#DejaVuSans-73" transform="translate(534.814453 0)"/>
      <use xlink:href="#DejaVuSans-74" transform="translate(586.914062 0)"/>
      <use xlink:href="#DejaVuSans-72" transform="translate(626.123047 0)"/>
      <use xlink:href="#DejaVuSans-69" transform="translate(667.236328 0)"/>
      <use xlink:href="#DejaVuSans-61" transform="translate(695.019531 0)"/>
      <use xlink:href="#DejaVuSans-6e" transform="translate(756.298828 0)"/>
      <use xlink:href="#DejaVuSans-20" transform="translate(819.677734 0)"/>
      <use xlink:href="#DejaVuSans-63" transform="translate(851.464844 0)"/>
      <use xlink:href="#DejaVuSans-6f" transform="translate(906.445312 0)"/>
      <use xlink:href="#DejaVuSans-75" transform="translate(967.626953 0)"/>
      <use xlink:href="#DejaVuSans-6e" transform="translate(1031.005859 0)"/>
      <use xlink:href="#DejaVuSans-74" transform="translate(1094.384766 0)"/>
     </g>
    </g>
   </g>
   <g id="line2d_45">
    <path d="M 63.363022 297.397796 
L 65.099793 241.343773 
L 66.836565 239.524736 
L 68.573337 260.325029 
L 70.310109 314.737965 
L 72.04688 317.822419 
L 73.783652 171.745832 
L 75.520424 183.055498 
L 77.257196 163.026318 
L 78.993967 173.466009 
L 80.730739 169.175454 
L 82.467511 313.571408 
L 84.204283 318.731937 
L 85.941054 166.091 
L 87.677826 163.164723 
L 89.414598 163.401988 
L 91.151369 169.116137 
L 92.888141 165.853734 
L 94.624913 294.768101 
L 96.361685 308.78655 
L 98.098456 151.874829 
L 99.835228 158.676446 
L 101.572 129.433448 
L 103.308772 146.793389 
L 105.045543 205.259613 
L 106.782315 296.290556 
L 110.255858 329.132084 
L 111.99263 163.065862 
L 113.729402 171.488795 
L 115.466174 153.061158 
L 117.202945 142.680783 
L 118.939717 305.306653 
L 120.676489 320.491658 
L 122.413261 162.848368 
L 124.150032 148.948552 
L 125.886804 127.337601 
L 127.623576 147.485414 
L 129.360348 129.710258 
L 131.097119 244.705037 
L 132.833891 298.346859 
L 134.570663 149.521945 
L 136.307434 163.500849 
L 138.044206 133.981041 
L 139.780978 126.467627 
L 141.51775 137.520254 
L 143.254521 310.309005 
L 144.991293 302.340831 
L 146.728065 162.76928 
L 148.464837 136.254837 
L 150.201608 143.451897 
L 151.93838 138.31114 
L 153.675152 125.419703 
L 155.411923 292.316355 
L 157.148695 291.268432 
L 158.885467 138.568178 
L 160.622239 131.272257 
L 162.35901 125.874463 
L 164.095782 144.816175 
L 165.832554 153.555462 
L 167.569326 313.195737 
L 169.306097 313.947079 
L 171.042869 153.812499 
L 172.779641 133.625142 
L 174.516413 145.073213 
L 176.253184 123.837932 
L 177.989956 147.584275 
L 179.726728 296.666227 
L 183.200271 315.25204 
L 184.937043 150.648957 
L 186.673815 148.078578 
L 188.410586 108.237712 
L 190.147358 93.052706 
L 191.88413 206.030727 
L 193.620902 247.848808 
L 195.357673 137.006179 
L 197.094445 133.368104 
L 198.831217 141.731721 
L 200.567988 131.707244 
L 202.30476 129.45322 
L 204.041532 285.870637 
L 205.778304 310.1706 
L 207.515075 161.029331 
L 210.988619 126.744437 
L 212.725391 78.381777 
L 214.462162 130.204562 
L 216.198934 299.414554 
L 217.935706 316.537229 
L 219.672478 170.61882 
L 221.409249 144.519593 
L 223.146021 141.35605 
L 224.882793 135.562812 
L 226.619564 136.432786 
L 228.356336 286.8197 
L 230.093108 287.689674 
L 231.82988 154.168398 
L 233.566651 146.06182 
L 235.303423 147.880857 
L 238.776967 104.16465 
L 240.513738 287.037193 
L 242.25051 303.032856 
L 243.987282 158.656674 
L 245.724054 147.762224 
L 247.460825 155.829258 
L 249.197597 149.462628 
L 250.934369 289.785521 
L 252.67114 295.420582 
L 254.407912 310.131055 
L 256.144684 322.211834 
L 257.881456 204.350095 
L 259.618227 179.456968 
L 261.354999 311.93032 
L 263.091771 213.128926 
L 264.828543 308.648145 
L 266.565314 325.078795 
L 268.302086 164.627861 
L 270.038858 143.095998 
L 271.775629 140.940835 
L 273.512401 145.23139 
L 275.249173 116.542011 
L 276.985945 293.304962 
L 278.722716 309.676296 
L 280.459488 157.371485 
L 282.19626 140.901291 
L 283.933032 146.536351 
L 285.669803 148.137895 
L 287.406575 177.53907 
L 289.143347 302.182654 
L 290.880119 321.717531 
L 292.61689 160.317534 
L 294.353662 144.242783 
L 296.090434 139.853367 
L 297.827205 139.754506 
L 299.563977 131.549067 
L 301.300749 285.949726 
L 303.037521 302.854907 
L 304.774292 155.710625 
L 306.511064 141.613088 
L 308.247836 137.836609 
L 309.984608 126.012868 
L 311.721379 138.765899 
L 313.458151 298.188682 
L 315.194923 296.863948 
L 316.931694 169.432492 
L 318.668466 151.934146 
L 320.405238 166.387582 
L 322.14201 161.464318 
L 323.878781 148.711287 
L 325.615553 302.835135 
L 327.352325 314.302977 
L 329.089097 183.806839 
L 330.825868 148.533337 
L 332.56264 159.566193 
L 334.299412 139.220658 
L 336.036184 58.016471 
L 337.772955 273.651453 
L 339.509727 292.751342 
L 341.246499 304.08078 
L 342.98327 146.971338 
L 344.720042 171.983098 
L 346.456814 134.949876 
L 348.193586 128.62279 
L 349.930357 298.524808 
L 351.667129 318.415583 
L 353.403901 149.442856 
L 355.140673 158.636902 
L 356.877444 149.007869 
L 358.614216 147.287692 
L 360.350988 130.303422 
L 362.087759 296.05329 
L 363.824531 308.114297 
L 365.561303 150.451235 
L 367.298075 133.921724 
L 369.034846 138.627494 
L 370.771618 129.275271 
L 372.50839 128.998461 
L 374.245162 301.905844 
L 375.981933 296.962809 
L 377.718705 151.044399 
L 379.455477 155.433815 
L 381.192249 156.916726 
L 384.665792 135.028964 
L 386.402564 281.00669 
L 388.139335 306.196399 
L 389.876107 159.823231 
L 391.612879 154.109082 
L 393.349651 143.9462 
L 395.086422 157.766928 
L 396.823194 157.213308 
L 398.559966 288.85623 
L 400.296738 311.297612 
L 402.033509 167.000518 
L 403.770281 162.967001 
L 405.507053 161.444546 
L 407.243825 145.666377 
L 408.980596 127.930765 
L 410.717368 286.799928 
L 412.45414 301.352224 
L 414.190911 157.292396 
L 415.927683 150.550096 
L 417.664455 150.550096 
L 419.401227 143.9462 
L 421.137998 151.993462 
L 422.87477 283.082765 
L 424.611542 292.889747 
L 426.348314 161.325913 
L 428.085085 150.016248 
L 429.821857 152.942525 
L 431.558629 156.976042 
L 433.2954 135.305774 
L 435.032172 284.348182 
L 436.768944 306.275488 
L 438.505716 164.865127 
L 440.242487 153.535689 
L 441.979259 159.052117 
L 443.716031 155.84903 
L 445.452803 164.726722 
L 447.189574 298.030504 
L 448.926346 313.03756 
L 450.663118 168.068214 
L 452.39989 151.499159 
L 454.136661 148.394932 
L 455.873433 152.131867 
L 457.610205 146.200225 
L 459.346976 275.391402 
L 461.083748 293.107241 
L 462.82052 168.878872 
L 464.557292 161.088648 
L 466.294063 151.558475 
L 468.030835 125.993095 
L 469.767607 112.627127 
L 471.504379 265.505331 
L 473.24115 297.378024 
L 474.977922 161.839989 
L 476.714694 152.329589 
L 478.451465 172.576262 
L 480.188237 153.061158 
L 481.925009 105.430068 
L 483.661781 297.674606 
L 485.398552 319.483279 
L 487.135324 159.328927 
L 488.872096 129.018233 
L 490.608868 139.477696 
L 492.345639 140.288354 
L 494.082411 138.390229 
L 495.819183 297.852555 
L 497.555955 318.415583 
L 499.292726 175.581628 
L 501.029498 135.81985 
L 502.76627 128.939145 
L 504.503041 153.120474 
L 506.239813 136.274609 
L 507.976585 292.652482 
L 509.713357 310.526498 
L 511.450128 156.521283 
L 513.1869 132.003827 
L 514.923672 140.743113 
L 516.660444 134.238079 
L 518.397215 120.575528 
L 520.133987 303.685337 
L 521.870759 315.52885 
L 523.60753 175.067552 
L 525.344302 159.071889 
L 527.081074 145.804782 
L 528.817846 92.083872 
L 530.554617 291.861596 
L 532.291389 298.722529 
L 534.028161 308.173613 
L 535.764933 173.169427 
L 537.501704 143.39258 
L 539.238476 145.765238 
L 540.975248 88.505114 
L 542.71202 142.443518 
L 544.448791 272.821023 
L 546.185563 286.701067 
L 547.922335 144.994124 
L 549.659106 136.333926 
L 551.395878 137.105039 
L 553.13265 114.505481 
L 554.869422 103.709891 
L 556.606193 260.008675 
L 558.342965 285.850865 
L 560.079737 143.9462 
L 561.816509 126.922386 
L 563.55328 143.886884 
L 565.290052 146.180453 
L 567.026824 125.558108 
L 568.763596 295.163544 
L 570.500367 313.21551 
L 572.237139 156.976042 
L 573.973911 125.518564 
L 575.710682 112.330545 
L 577.447454 120.437123 
L 579.184226 146.753845 
L 580.920998 283.280486 
L 582.657769 311.851232 
L 584.394541 128.998461 
L 586.131313 118.400593 
L 587.868085 114.189126 
L 591.341628 149.93716 
L 593.0784 305.978906 
L 594.815171 313.235282 
L 596.551943 202.985817 
L 598.288715 312.345535 
L 600.025487 134.178762 
L 601.762258 151.400298 
L 603.49903 137.401621 
L 605.235802 299.058656 
L 606.972574 316.853584 
L 608.709345 139.398608 
L 610.446117 138.904304 
L 612.182889 136.887546 
L 613.919661 125.142893 
L 615.656432 124.292691 
L 617.393204 290.180964 
L 619.129976 308.569056 
L 620.866747 133.209927 
L 622.603519 116.324518 
L 624.340291 108.534294 
L 626.077063 139.675418 
L 627.813834 106.300042 
L 629.550606 302.97354 
L 631.287378 316.932672 
L 633.02415 134.495116 
L 634.760921 146.477035 
L 636.497693 89.592582 
L 638.234465 58.886445 
L 639.971236 55.525181 
L 641.708008 236.301877 
L 643.44478 272.168542 
L 645.181552 140.980379 
L 646.918323 132.320181 
L 648.655095 119.923048 
L 650.391867 79.904232 
L 652.128639 117.016543 
L 653.86541 282.746639 
L 655.602182 299.276149 
L 657.338954 150.49078 
L 659.075726 119.547377 
L 660.812497 120.21963 
L 662.549269 93.645871 
L 664.286041 116.858366 
L 666.022812 294.886734 
L 667.759584 310.506726 
L 669.496356 141.652632 
L 671.233128 126.783981 
L 672.969899 151.380526 
L 674.706671 121.781629 
L 676.443443 186.812205 
L 678.180215 301.114959 
L 679.916986 309.696068 
L 681.653758 221.927529 
L 683.39053 259.375966 
L 685.127301 325.039251 
L 686.864073 293.384051 
L 688.600845 266.098495 
L 690.337617 305.148476 
L 692.074388 306.453437 
L 693.81116 282.904816 
L 695.547932 240.908786 
L 695.547932 240.908786 
" clip-path="url(#p7d66b0cb9f)" style="fill: none; stroke: #0d6efc; stroke-opacity: 0.8; stroke-width: 2.5; stroke-linecap: square"/>
   </g>
   <g id="line2d_46">
    <path d="M 63.363022 269.10386 
L 65.099793 269.756341 
L 66.836565 282.825727 
L 68.573337 310.981258 
L 70.310109 325.49401 
L 72.04688 280.472842 
L 73.783652 225.545831 
L 75.520424 229.59912 
L 77.257196 219.851454 
L 78.993967 255.085412 
L 80.730739 297.140758 
L 82.467511 301.03587 
L 84.204283 229.282766 
L 85.941054 184.083649 
L 87.677826 208.442928 
L 89.414598 169.313859 
L 91.151369 221.868213 
L 92.888141 284.130688 
L 94.624913 298.722529 
L 96.361685 226.138995 
L 98.098456 190.905038 
L 99.835228 186.060863 
L 101.572 196.856453 
L 103.308772 229.520032 
L 105.045543 291.604558 
L 108.519087 335.676663 
L 110.255858 228.590741 
L 111.99263 225.763325 
L 113.729402 178.231095 
L 115.466174 226.297173 
L 117.202945 307.481588 
L 118.939717 328.400515 
L 120.676489 256.291512 
L 122.413261 228.037121 
L 124.150032 197.350756 
L 125.886804 193.930176 
L 129.360348 290.853217 
L 131.097119 290.279825 
L 132.833891 214.888647 
L 134.570663 187.484458 
L 136.307434 192.86248 
L 138.044206 224.181553 
L 139.780978 231.299525 
L 141.51775 295.005367 
L 143.254521 307.659538 
L 144.991293 214.295482 
L 146.728065 178.507905 
L 148.464837 186.812205 
L 150.201608 156.343334 
L 151.93838 224.201326 
L 153.675152 301.787211 
L 155.411923 320.748696 
L 157.148695 218.625581 
L 158.885467 166.36781 
L 160.622239 163.579938 
L 162.35901 146.06182 
L 164.095782 208.205663 
L 165.832554 261.867256 
L 167.569326 304.416906 
L 169.306097 214.651381 
L 171.042869 170.144289 
L 172.779641 179.061525 
L 174.516413 190.944582 
L 176.253184 225.031756 
L 177.989956 296.547594 
L 179.726728 308.687689 
L 181.463499 322.72591 
L 183.200271 189.086001 
L 184.937043 175.581628 
L 186.673815 125.676741 
L 188.410586 174.335983 
L 190.147358 230.390006 
L 191.88413 266.019406 
L 193.620902 189.778026 
L 195.357673 161.800445 
L 197.094445 166.525987 
L 198.831217 170.104745 
L 202.30476 274.027124 
L 204.041532 301.688351 
L 205.778304 222.678871 
L 207.515075 168.8591 
L 209.251847 193.119518 
L 210.988619 147.16906 
L 212.725391 204.053513 
L 214.462162 286.602206 
L 216.198934 308.865638 
L 217.935706 227.681223 
L 219.672478 177.81588 
L 221.409249 179.219702 
L 223.146021 175.166413 
L 224.882793 228.017349 
L 226.619564 272.386036 
L 228.356336 228.887323 
L 230.093108 220.780745 
L 231.82988 174.77097 
L 233.566651 170.302466 
L 235.303423 136.729369 
L 237.040195 208.779055 
L 238.776967 271.120619 
L 240.513738 295.124 
L 242.25051 219.950315 
L 243.987282 159.803458 
L 245.724054 169.887251 
L 247.460825 193.277695 
L 249.197597 285.257701 
L 250.934369 280.393754 
L 252.67114 296.310328 
L 254.407912 308.727233 
L 256.144684 228.313931 
L 257.881456 203.717386 
L 259.618227 193.337012 
L 261.354999 289.31099 
L 263.091771 280.532159 
L 264.828543 302.14311 
L 266.565314 220.08872 
L 268.302086 178.666082 
L 270.038858 161.088648 
L 271.775629 150.233742 
L 273.512401 199.268654 
L 275.249173 281.224184 
L 276.985945 294.768101 
L 278.722716 192.605442 
L 280.459488 153.496145 
L 282.19626 181.315549 
L 283.933032 144.519593 
L 285.669803 201.404046 
L 287.406575 268.510696 
L 289.143347 296.488277 
L 290.880119 198.734806 
L 292.61689 145.132529 
L 294.353662 154.326575 
L 296.090434 149.956932 
L 297.827205 208.442928 
L 299.563977 279.780817 
L 301.300749 288.441015 
L 303.037521 206.050499 
L 304.774292 149.838299 
L 306.511064 147.524958 
L 308.247836 145.468655 
L 309.984608 202.333336 
L 311.721379 251.882325 
L 313.458151 289.251673 
L 315.194923 204.883943 
L 316.931694 178.112462 
L 318.668466 173.545097 
L 320.405238 160.495483 
L 322.14201 200.949286 
L 323.878781 276.004338 
L 325.615553 301.016098 
L 327.352325 307.540905 
L 329.089097 178.626538 
L 330.825868 176.036387 
L 332.56264 151.044399 
L 334.299412 182.640283 
L 336.036184 371.859683 
L 337.772955 280.373981 
L 339.509727 309.300625 
L 341.246499 184.953623 
L 342.98327 176.886589 
L 344.720042 152.033007 
L 346.456814 209.431535 
L 348.193586 290.556635 
L 349.930357 378.878794 
L 351.667129 221.255276 
L 353.403901 175.720033 
L 355.140673 170.757225 
L 356.877444 161.167736 
L 358.614216 371.306063 
L 360.350988 265.426242 
L 362.087759 293.482912 
L 363.824531 200.692248 
L 365.561303 170.0652 
L 367.298075 194.661745 
L 369.034846 156.877181 
L 370.771618 199.466376 
L 372.50839 336.546637 
L 374.245162 305.998678 
L 375.981933 378.582212 
L 377.718705 178.586994 
L 379.455477 221.018011 
L 381.192249 372.353987 
L 382.92902 187.128559 
L 386.402564 277.40816 
L 388.139335 194.602429 
L 389.876107 175.581628 
L 391.612879 159.111434 
L 393.349651 160.436167 
L 395.086422 189.125545 
L 396.823194 251.269388 
L 398.559966 281.83712 
L 400.296738 205.753917 
L 402.033509 163.856748 
L 403.770281 168.068214 
L 405.507053 144.598681 
L 407.243825 189.26395 
L 408.980596 270.824037 
L 410.717368 292.45476 
L 412.45414 210.617864 
L 414.190911 178.191551 
L 415.927683 167.218012 
L 417.664455 126.724665 
L 419.401227 193.96972 
L 421.137998 267.403456 
L 422.87477 294.57038 
L 424.611542 212.970749 
L 426.348314 161.543407 
L 428.085085 157.846016 
L 429.821857 152.349361 
L 431.558629 196.915769 
L 433.2954 255.639032 
L 435.032172 269.182949 
L 436.768944 210.696952 
L 438.505716 377.652921 
L 440.242487 173.821907 
L 441.979259 152.230728 
L 443.716031 213.385964 
L 445.452803 269.538848 
L 447.189574 290.69504 
L 448.926346 200.61316 
L 450.663118 177.618159 
L 452.39989 166.92143 
L 454.136661 140.031316 
L 455.873433 190.845722 
L 457.610205 266.51371 
L 459.346976 298.149137 
L 461.083748 226.989198 
L 462.82052 163.777659 
L 464.557292 154.069537 
L 466.294063 135.54304 
L 468.030835 197.588022 
L 469.767607 249.885338 
L 471.504379 270.784492 
L 473.24115 210.064244 
L 474.977922 182.917093 
L 476.714694 176.471374 
L 478.451465 152.467994 
L 480.188237 226.494894 
L 481.925009 294.94605 
L 483.661781 306.57207 
L 485.398552 221.769352 
L 487.135324 178.033374 
L 490.608868 180.247853 
L 492.345639 213.465052 
L 494.082411 284.526131 
L 495.819183 311.416245 
L 497.555955 216.312241 
L 499.292726 194.701289 
L 501.029498 196.085339 
L 502.76627 169.610441 
L 504.503041 219.614189 
L 506.239813 278.910843 
L 507.976585 307.659538 
L 509.713357 222.224111 
L 511.450128 183.272991 
L 513.1869 181.908713 
L 514.923672 132.992434 
L 516.660444 215.580672 
L 518.397215 285.455422 
L 520.133987 303.626021 
L 521.870759 229.243222 
L 523.60753 189.619849 
L 525.344302 177.499526 
L 527.081074 175.364134 
L 528.817846 282.608234 
L 532.291389 305.524146 
L 534.028161 224.260642 
L 535.764933 194.206986 
L 537.501704 192.03205 
L 539.238476 177.024994 
L 540.975248 200.949286 
L 542.71202 277.625654 
L 544.448791 297.813011 
L 546.185563 198.853439 
L 547.922335 155.532676 
L 549.659106 181.216688 
L 551.395878 154.247487 
L 553.13265 201.324957 
L 554.869422 268.82705 
L 556.606193 283.794562 
L 558.342965 205.59574 
L 560.079737 169.353403 
L 561.816509 168.186847 
L 563.55328 164.924443 
L 567.026824 291.565014 
L 568.763596 300.48225 
L 570.500367 238.318635 
L 572.237139 186.021319 
L 573.973911 223.627933 
L 575.710682 170.421099 
L 577.447454 227.443957 
L 579.184226 273.414187 
L 580.920998 315.825432 
L 582.657769 228.847779 
L 584.394541 148.058806 
L 586.131313 126.289677 
L 587.868085 107.703864 
L 589.604856 174.335983 
L 591.341628 226.198312 
L 593.0784 285.020435 
L 594.815171 292.434988 
L 596.551943 277.803603 
L 598.288715 150.055792 
L 600.025487 134.119446 
L 601.762258 213.465052 
L 603.49903 310.210144 
L 605.235802 296.013746 
L 606.972574 205.635284 
L 608.709345 185.171117 
L 610.446117 133.941497 
L 612.182889 110.392875 
L 615.656432 270.784492 
L 617.393204 302.538553 
L 619.129976 197.904376 
L 620.866747 146.536351 
L 622.603519 131.608384 
L 624.340291 120.970971 
L 626.077063 176.728412 
L 627.813834 250.043515 
L 629.550606 292.276811 
L 631.287378 188.98714 
L 633.02415 133.249472 
L 634.760921 161.899306 
L 636.497693 117.688796 
L 638.234465 184.479092 
L 639.971236 272.959428 
L 641.708008 300.244984 
L 643.44478 213.544141 
L 645.181552 147.287692 
L 646.918323 132.676079 
L 648.655095 130.224334 
L 650.391867 160.258218 
L 652.128639 250.755312 
L 653.86541 277.111578 
L 655.602182 194.661745 
L 657.338954 139.833595 
L 659.075726 142.364429 
L 660.812497 108.415661 
L 662.549269 159.922091 
L 664.286041 253.661817 
L 666.022812 281.698715 
L 667.759584 199.545464 
L 669.496356 145.626833 
L 671.233128 149.363767 
L 672.969899 172.27968 
L 674.706671 215.580672 
L 676.443443 272.840795 
L 678.180215 317.268799 
L 679.916986 245.772733 
L 681.653758 245.298201 
L 683.39053 286.107903 
L 685.127301 309.814701 
L 686.864073 289.96347 
L 688.600845 272.168542 
L 690.337617 275.608895 
L 692.074388 279.484235 
L 693.81116 277.902464 
L 695.547932 231.754284 
L 695.547932 231.754284 
" clip-path="url(#p7d66b0cb9f)" style="fill: none; stroke: #83c966; stroke-opacity: 0.8; stroke-width: 2.5; stroke-linecap: square"/>
   </g>
   <g id="patch_3">
    <path d="M 61.62625 384.1975 
L 61.62625 39.3575 
" style="fill: none; stroke: #000000; stroke-width: 0.8; stroke-linejoin: miter; stroke-linecap: square"/>
   </g>
   <g id="patch_4">
    <path d="M 61.62625 384.1975 
L 704.231791 384.1975 
" style="fill: none; stroke: #000000; stroke-width: 0.8; stroke-linejoin: miter; stroke-linecap: square"/>
   </g>
   <g id="text_25">
    <!-- Pedestrian Traffic at Spencer St-Collins St (South) -->
    <g transform="translate(185.28402 19.3575) scale(0.16 -0.16)">
     <defs>
      <path id="DejaVuSans-50" d="M 1259 4147 
L 1259 2394 
L 2053 2394 
Q 2494 2394 2734 2622 
Q 2975 2850 2975 3272 
Q 2975 3691 2734 3919 
Q 2494 4147 2053 4147 
L 1259 4147 
z
M 628 4666 
L 2053 4666 
Q 2838 4666 3239 4311 
Q 3641 3956 3641 3272 
Q 3641 2581 3239 2228 
Q 2838 1875 2053 1875 
L 1259 1875 
L 1259 0 
L 628 0 
L 628 4666 
z
" transform="scale(0.015625)"/>
      <path id="DejaVuSans-54" d="M -19 4666 
L 3928 4666 
L 3928 4134 
L 2272 4134 
L 2272 0 
L 1638 0 
L 1638 4134 
L -19 4134 
L -19 4666 
z
" transform="scale(0.015625)"/>
      <path id="DejaVuSans-2d" d="M 313 2009 
L 1997 2009 
L 1997 1497 
L 313 1497 
L 313 2009 
z
" transform="scale(0.015625)"/>
      <path id="DejaVuSans-43" d="M 4122 4306 
L 4122 3641 
Q 3803 3938 3442 4084 
Q 3081 4231 2675 4231 
Q 1875 4231 1450 3742 
Q 1025 3253 1025 2328 
Q 1025 1406 1450 917 
Q 1875 428 2675 428 
Q 3081 428 3442 575 
Q 3803 722 4122 1019 
L 4122 359 
Q 3791 134 3420 21 
Q 3050 -91 2638 -91 
Q 1578 -91 968 557 
Q 359 1206 359 2328 
Q 359 3453 968 4101 
Q 1578 4750 2638 4750 
Q 3056 4750 3426 4639 
Q 3797 4528 4122 4306 
z
" transform="scale(0.015625)"/>
      <path id="DejaVuSans-28" d="M 1984 4856 
Q 1566 4138 1362 3434 
Q 1159 2731 1159 2009 
Q 1159 1288 1364 580 
Q 1569 -128 1984 -844 
L 1484 -844 
Q 1016 -109 783 600 
Q 550 1309 550 2009 
Q 550 2706 781 3412 
Q 1013 4119 1484 4856 
L 1984 4856 
z
" transform="scale(0.015625)"/>
      <path id="DejaVuSans-29" d="M 513 4856 
L 1013 4856 
Q 1481 4119 1714 3412 
Q 1947 2706 1947 2009 
Q 1947 1309 1714 600 
Q 1481 -109 1013 -844 
L 513 -844 
Q 928 -128 1133 580 
Q 1338 1288 1338 2009 
Q 1338 2731 1133 3434 
Q 928 4138 513 4856 
z
" transform="scale(0.015625)"/>
     </defs>
     <use xlink:href="#DejaVuSans-50"/>
     <use xlink:href="#DejaVuSans-65" transform="translate(56.677734 0)"/>
     <use xlink:href="#DejaVuSans-64" transform="translate(118.201172 0)"/>
     <use xlink:href="#DejaVuSans-65" transform="translate(181.677734 0)"/>
     <use xlink:href="#DejaVuSans-73" transform="translate(243.201172 0)"/>
     <use xlink:href="#DejaVuSans-74" transform="translate(295.300781 0)"/>
     <use xlink:href="#DejaVuSans-72" transform="translate(334.509766 0)"/>
     <use xlink:href="#DejaVuSans-69" transform="translate(375.623047 0)"/>
     <use xlink:href="#DejaVuSans-61" transform="translate(403.40625 0)"/>
     <use xlink:href="#DejaVuSans-6e" transform="translate(464.685547 0)"/>
     <use xlink:href="#DejaVuSans-20" transform="translate(528.064453 0)"/>
     <use xlink:href="#DejaVuSans-54" transform="translate(559.851562 0)"/>
     <use xlink:href="#DejaVuSans-72" transform="translate(606.185547 0)"/>
     <use xlink:href="#DejaVuSans-61" transform="translate(647.298828 0)"/>
     <use xlink:href="#DejaVuSans-66" transform="translate(708.578125 0)"/>
     <use xlink:href="#DejaVuSans-66" transform="translate(743.783203 0)"/>
     <use xlink:href="#DejaVuSans-69" transform="translate(778.988281 0)"/>
     <use xlink:href="#DejaVuSans-63" transform="translate(806.771484 0)"/>
     <use xlink:href="#DejaVuSans-20" transform="translate(861.751953 0)"/>
     <use xlink:href="#DejaVuSans-61" transform="translate(893.539062 0)"/>
     <use xlink:href="#DejaVuSans-74" transform="translate(954.818359 0)"/>
     <use xlink:href="#DejaVuSans-20" transform="translate(994.027344 0)"/>
     <use xlink:href="#DejaVuSans-53" transform="translate(1025.814453 0)"/>
     <use xlink:href="#DejaVuSans-70" transform="translate(1089.291016 0)"/>
     <use xlink:href="#DejaVuSans-65" transform="translate(1152.767578 0)"/>
     <use xlink:href="#DejaVuSans-6e" transform="translate(1214.291016 0)"/>
     <use xlink:href="#DejaVuSans-63" transform="translate(1277.669922 0)"/>
     <use xlink:href="#DejaVuSans-65" transform="translate(1332.650391 0)"/>
     <use xlink:href="#DejaVuSans-72" transform="translate(1394.173828 0)"/>
     <use xlink:href="#DejaVuSans-20" transform="translate(1435.287109 0)"/>
     <use xlink:href="#DejaVuSans-53" transform="translate(1467.074219 0)"/>
     <use xlink:href="#DejaVuSans-74" transform="translate(1530.550781 0)"/>
     <use xlink:href="#DejaVuSans-2d" transform="translate(1569.759766 0)"/>
     <use xlink:href="#DejaVuSans-43" transform="translate(1605.84375 0)"/>
     <use xlink:href="#DejaVuSans-6f" transform="translate(1675.667969 0)"/>
     <use xlink:href="#DejaVuSans-6c" transform="translate(1736.849609 0)"/>
     <use xlink:href="#DejaVuSans-6c" transform="translate(1764.632812 0)"/>
     <use xlink:href="#DejaVuSans-69" transform="translate(1792.416016 0)"/>
     <use xlink:href="#DejaVuSans-6e" transform="translate(1820.199219 0)"/>
     <use xlink:href="#DejaVuSans-73" transform="translate(1883.578125 0)"/>
     <use xlink:href="#DejaVuSans-20" transform="translate(1935.677734 0)"/>
     <use xlink:href="#DejaVuSans-53" transform="translate(1967.464844 0)"/>
     <use xlink:href="#DejaVuSans-74" transform="translate(2030.941406 0)"/>
     <use xlink:href="#DejaVuSans-20" transform="translate(2070.150391 0)"/>
     <use xlink:href="#DejaVuSans-28" transform="translate(2101.9375 0)"/>
     <use xlink:href="#DejaVuSans-53" transform="translate(2140.951172 0)"/>
     <use xlink:href="#DejaVuSans-6f" transform="translate(2204.427734 0)"/>
     <use xlink:href="#DejaVuSans-75" transform="translate(2265.609375 0)"/>
     <use xlink:href="#DejaVuSans-74" transform="translate(2328.988281 0)"/>
     <use xlink:href="#DejaVuSans-68" transform="translate(2368.197266 0)"/>
     <use xlink:href="#DejaVuSans-29" transform="translate(2431.576172 0)"/>
    </g>
   </g>
   <g id="legend_1">
    <g id="patch_5">
     <path d="M 69.32625 80.449375 
L 132.52125 80.449375 
Q 134.72125 80.449375 134.72125 78.249375 
L 134.72125 47.0575 
Q 134.72125 44.8575 132.52125 44.8575 
L 69.32625 44.8575 
Q 67.12625 44.8575 67.12625 47.0575 
L 67.12625 78.249375 
Q 67.12625 80.449375 69.32625 80.449375 
z
" style="fill: #ffffff; opacity: 0.95; stroke: #cccccc; stroke-linejoin: miter"/>
    </g>
    <g id="line2d_47">
     <path d="M 71.52625 53.765781 
L 82.52625 53.765781 
L 93.52625 53.765781 
" style="fill: none; stroke: #0d6efc; stroke-opacity: 0.8; stroke-width: 2.5; stroke-linecap: square"/>
    </g>
    <g id="text_26">
     <!-- 2019 -->
     <g transform="translate(102.32625 57.615781) scale(0.11 -0.11)">
      <defs>
       <path id="DejaVuSans-39" d="M 703 97 
L 703 672 
Q 941 559 1184 500 
Q 1428 441 1663 441 
Q 2288 441 2617 861 
Q 2947 1281 2994 2138 
Q 2813 1869 2534 1725 
Q 2256 1581 1919 1581 
Q 1219 1581 811 2004 
Q 403 2428 403 3163 
Q 403 3881 828 4315 
Q 1253 4750 1959 4750 
Q 2769 4750 3195 4129 
Q 3622 3509 3622 2328 
Q 3622 1225 3098 567 
Q 2575 -91 1691 -91 
Q 1453 -91 1209 -44 
Q 966 3 703 97 
z
M 1959 2075 
Q 2384 2075 2632 2365 
Q 2881 2656 2881 3163 
Q 2881 3666 2632 3958 
Q 2384 4250 1959 4250 
Q 1534 4250 1286 3958 
Q 1038 3666 1038 3163 
Q 1038 2656 1286 2365 
Q 1534 2075 1959 2075 
z
" transform="scale(0.015625)"/>
      </defs>
      <use xlink:href="#DejaVuSans-32"/>
      <use xlink:href="#DejaVuSans-30" transform="translate(63.623047 0)"/>
      <use xlink:href="#DejaVuSans-31" transform="translate(127.246094 0)"/>
      <use xlink:href="#DejaVuSans-39" transform="translate(190.869141 0)"/>
     </g>
    </g>
    <g id="line2d_48">
     <path d="M 71.52625 69.911719 
L 82.52625 69.911719 
L 93.52625 69.911719 
" style="fill: none; stroke: #83c966; stroke-opacity: 0.8; stroke-width: 2.5; stroke-linecap: square"/>
    </g>
    <g id="text_27">
     <!-- 2025 -->
     <g transform="translate(102.32625 73.761719) scale(0.11 -0.11)">
      <defs>
       <path id="DejaVuSans-35" d="M 691 4666 
L 3169 4666 
L 3169 4134 
L 1269 4134 
L 1269 2991 
Q 1406 3038 1543 3061 
Q 1681 3084 1819 3084 
Q 2600 3084 3056 2656 
Q 3513 2228 3513 1497 
Q 3513 744 3044 326 
Q 2575 -91 1722 -91 
Q 1428 -91 1123 -41 
Q 819 9 494 109 
L 494 744 
Q 775 591 1075 516 
Q 1375 441 1709 441 
Q 2250 441 2565 725 
Q 2881 1009 2881 1497 
Q 2881 1984 2565 2268 
Q 2250 2553 1709 2553 
Q 1456 2553 1204 2497 
Q 953 2441 691 2322 
L 691 4666 
z
" transform="scale(0.015625)"/>
      </defs>
      <use xlink:href="#DejaVuSans-32"/>
      <use xlink:href="#DejaVuSans-30" transform="translate(63.623047 0)"/>
      <use xlink:href="#DejaVuSans-32" transform="translate(127.246094 0)"/>
      <use xlink:href="#DejaVuSans-35" transform="translate(190.869141 0)"/>
     </g>
    </g>
   </g>
  </g>
 </g>
 <defs>
  <clipPath id="p7d66b0cb9f">
   <rect x="61.62625" y="39.3575" width="642.605541" height="344.84"/>
  </clipPath>
 </defs>
</svg>
