<?xml version="1.0" encoding="utf-8" standalone="no"?>
<!DOCTYPE svg PUBLIC "-//W3C//DTD SVG 1.1//EN"
  "http://www.w3.org/Graphics/SVG/1.1/DTD/svg11.dtd">
<svg xmlns:xlink="http://www.w3.org/1999/xlink" width="711.521791pt" height="423.689375pt" viewBox="0 0 711.521791 423.689375" xmlns="http://www.w3.org/2000/svg" version="1.1">
 <metadata>
  <rdf:RDF xmlns:dc="http://purl.org/dc/elements/1.1/" xmlns:cc="http://creativecommons.org/ns#" xmlns:rdf="http://www.w3.org/1999/02/22-rdf-syntax-ns#">
   <cc:Work>
    <dc:type rdf:resource="http://purl.org/dc/dcmitype/StillImage"/>
    <dc:date>2026-01-28T17:49:43.244302</dc:date>
    <dc:format>image/svg+xml</dc:format>
    <dc:creator>
     <cc:Agent>
      <dc:title>Matplotlib v3.10.8, https://matplotlib.org/</dc:title>
     </cc:Agent>
    </dc:creator>
   </cc:Work>
  </rdf:RDF>
 </metadata>
 <defs>
  <style type="text/css">*{stroke-linejoin: round; stroke-linecap: butt}</style>
 </defs>
 <g id="figure_1">
  <g id="patch_1">
   <path d="M 0 423.689375 
L 711.521791 423.689375 
L 711.521791 0 
L 0 0 
L 0 423.689375 
z
" style="fill: none"/>
  </g>
  <g id="axes_1">
   <g id="patch_2">
    <path d="M 61.62625 384.1975 
L 704.321791 384.1975 
L 704.321791 39.3575 
L 61.62625 39.3575 
L 61.62625 384.1975 
z
" style="fill: none"/>
   </g>
   <g id="matplotlib.axis_1">
    <g id="xtick_1">
     <g id="line2d_1">
      <path d="M 61.62625 384.1975 
L 61.62625 39.3575 
" clip-path="url(#p3ccde32a0c)" style="fill: none; stroke-dasharray: 2.96,1.28; stroke-dashoffset: 0; stroke: #b0b0b0; stroke-opacity: 0.3; stroke-width: 0.8"/>
     </g>
     <g id="line2d_2">
      <defs>
       <path id="m33d1272083" d="M 0 0 
L 0 3.5 
" style="stroke: #000000; stroke-width: 0.8"/>
      </defs>
      <g>
       <use xlink:href="#m33d1272083" x="61.62625" y="384.1975" style="stroke: #000000; stroke-width: 0.8"/>
      </g>
     </g>
     <g id="text_1">
      <!-- Jan -->
      <g transform="translate(53.918438 398.795937) scale(0.1 -0.1)">
       <defs>
        <path id="DejaVuSans-4a" d="M 628 4666 
L 1259 4666 
L 1259 325 
Q 1259 -519 939 -900 
Q 619 -1281 -91 -1281 
L -331 -1281 
L -331 -750 
L -134 -750 
Q 284 -750 456 -515 
Q 628 -281 628 325 
L 628 4666 
z
" transform="scale(0.015625)"/>
        <path id="DejaVuSans-61" d="M 2194 1759 
Q 1497 1759 1228 1600 
Q 959 1441 959 1056 
Q 959 750 1161 570 
Q 1363 391 1709 391 
Q 2188 391 2477 730 
Q 2766 1069 2766 1631 
L 2766 1759 
L 2194 1759 
z
M 3341 1997 
L 3341 0 
L 2766 0 
L 2766 531 
Q 2569 213 2275 61 
Q 1981 -91 1556 -91 
Q 1019 -91 701 211 
Q 384 513 384 1019 
Q 384 1609 779 1909 
Q 1175 2209 1959 2209 
L 2766 2209 
L 2766 2266 
Q 2766 2663 2505 2880 
Q 2244 3097 1772 3097 
Q 1472 3097 1187 3025 
Q 903 2953 641 2809 
L 641 3341 
Q 956 3463 1253 3523 
Q 1550 3584 1831 3584 
Q 2591 3584 2966 3190 
Q 3341 2797 3341 1997 
z
" transform="scale(0.015625)"/>
        <path id="DejaVuSans-6e" d="M 3513 2113 
L 3513 0 
L 2938 0 
L 2938 2094 
Q 2938 2591 2744 2837 
Q 2550 3084 2163 3084 
Q 1697 3084 1428 2787 
Q 1159 2491 1159 1978 
L 1159 0 
L 581 0 
L 581 3500 
L 1159 3500 
L 1159 2956 
Q 1366 3272 1645 3428 
Q 1925 3584 2291 3584 
Q 2894 3584 3203 3211 
Q 3513 2838 3513 2113 
z
" transform="scale(0.015625)"/>
       </defs>
       <use xlink:href="#DejaVuSans-4a"/>
       <use xlink:href="#DejaVuSans-61" transform="translate(29.492188 0)"/>
       <use xlink:href="#DejaVuSans-6e" transform="translate(90.771484 0)"/>
      </g>
     </g>
    </g>
    <g id="xtick_2">
     <g id="line2d_3">
      <path d="M 115.473714 384.1975 
L 115.473714 39.3575 
" clip-path="url(#p3ccde32a0c)" style="fill: none; stroke-dasharray: 2.96,1.28; stroke-dashoffset: 0; stroke: #b0b0b0; stroke-opacity: 0.3; stroke-width: 0.8"/>
     </g>
     <g id="line2d_4">
      <g>
       <use xlink:href="#m33d1272083" x="115.473714" y="384.1975" style="stroke: #000000; stroke-width: 0.8"/>
      </g>
     </g>
     <g id="text_2">
      <!-- Feb -->
      <g transform="translate(106.622152 398.795937) scale(0.1 -0.1)">
       <defs>
        <path id="DejaVuSans-46" d="M 628 4666 
L 3309 4666 
L 3309 4134 
L 1259 4134 
L 1259 2759 
L 3109 2759 
L 3109 2228 
L 1259 2228 
L 1259 0 
L 628 0 
L 628 4666 
z
" transform="scale(0.015625)"/>
        <path id="DejaVuSans-65" d="M 3597 1894 
L 3597 1613 
L 953 1613 
Q 991 1019 1311 708 
Q 1631 397 2203 397 
Q 2534 397 2845 478 
Q 3156 559 3463 722 
L 3463 178 
Q 3153 47 2828 -22 
Q 2503 -91 2169 -91 
Q 1331 -91 842 396 
Q 353 884 353 1716 
Q 353 2575 817 3079 
Q 1281 3584 2069 3584 
Q 2775 3584 3186 3129 
Q 3597 2675 3597 1894 
z
M 3022 2063 
Q 3016 2534 2758 2815 
Q 2500 3097 2075 3097 
Q 1594 3097 1305 2825 
Q 1016 2553 972 2059 
L 3022 2063 
z
" transform="scale(0.015625)"/>
        <path id="DejaVuSans-62" d="M 3116 1747 
Q 3116 2381 2855 2742 
Q 2594 3103 2138 3103 
Q 1681 3103 1420 2742 
Q 1159 2381 1159 1747 
Q 1159 1113 1420 752 
Q 1681 391 2138 391 
Q 2594 391 2855 752 
Q 3116 1113 3116 1747 
z
M 1159 2969 
Q 1341 3281 1617 3432 
Q 1894 3584 2278 3584 
Q 2916 3584 3314 3078 
Q 3713 2572 3713 1747 
Q 3713 922 3314 415 
Q 2916 -91 2278 -91 
Q 1894 -91 1617 61 
Q 1341 213 1159 525 
L 1159 0 
L 581 0 
L 581 4863 
L 1159 4863 
L 1159 2969 
z
" transform="scale(0.015625)"/>
       </defs>
       <use xlink:href="#DejaVuSans-46"/>
       <use xlink:href="#DejaVuSans-65" transform="translate(52.019531 0)"/>
       <use xlink:href="#DejaVuSans-62" transform="translate(113.542969 0)"/>
      </g>
     </g>
    </g>
    <g id="xtick_3">
     <g id="line2d_5">
      <path d="M 164.110133 384.1975 
L 164.110133 39.3575 
" clip-path="url(#p3ccde32a0c)" style="fill: none; stroke-dasharray: 2.96,1.28; stroke-dashoffset: 0; stroke: #b0b0b0; stroke-opacity: 0.3; stroke-width: 0.8"/>
     </g>
     <g id="line2d_6">
      <g>
       <use xlink:href="#m33d1272083" x="164.110133" y="384.1975" style="stroke: #000000; stroke-width: 0.8"/>
      </g>
     </g>
     <g id="text_3">
      <!-- Mar -->
      <g transform="translate(154.67654 398.795937) scale(0.1 -0.1)">
       <defs>
        <path id="DejaVuSans-4d" d="M 628 4666 
L 1569 4666 
L 2759 1491 
L 3956 4666 
L 4897 4666 
L 4897 0 
L 4281 0 
L 4281 4097 
L 3078 897 
L 2444 897 
L 1241 4097 
L 1241 0 
L 628 0 
L 628 4666 
z
" transform="scale(0.015625)"/>
        <path id="DejaVuSans-72" d="M 2631 2963 
Q 2534 3019 2420 3045 
Q 2306 3072 2169 3072 
Q 1681 3072 1420 2755 
Q 1159 2438 1159 1844 
L 1159 0 
L 581 0 
L 581 3500 
L 1159 3500 
L 1159 2956 
Q 1341 3275 1631 3429 
Q 1922 3584 2338 3584 
Q 2397 3584 2469 3576 
Q 2541 3569 2628 3553 
L 2631 2963 
z
" transform="scale(0.015625)"/>
       </defs>
       <use xlink:href="#DejaVuSans-4d"/>
       <use xlink:href="#DejaVuSans-61" transform="translate(86.279297 0)"/>
       <use xlink:href="#DejaVuSans-72" transform="translate(147.558594 0)"/>
      </g>
     </g>
    </g>
    <g id="xtick_4">
     <g id="line2d_7">
      <path d="M 217.957598 384.1975 
L 217.957598 39.3575 
" clip-path="url(#p3ccde32a0c)" style="fill: none; stroke-dasharray: 2.96,1.28; stroke-dashoffset: 0; stroke: #b0b0b0; stroke-opacity: 0.3; stroke-width: 0.8"/>
     </g>
     <g id="line2d_8">
      <g>
       <use xlink:href="#m33d1272083" x="217.957598" y="384.1975" style="stroke: #000000; stroke-width: 0.8"/>
      </g>
     </g>
     <g id="text_4">
      <!-- Apr -->
      <g transform="translate(209.307598 398.795937) scale(0.1 -0.1)">
       <defs>
        <path id="DejaVuSans-41" d="M 2188 4044 
L 1331 1722 
L 3047 1722 
L 2188 4044 
z
M 1831 4666 
L 2547 4666 
L 4325 0 
L 3669 0 
L 3244 1197 
L 1141 1197 
L 716 0 
L 50 0 
L 1831 4666 
z
" transform="scale(0.015625)"/>
        <path id="DejaVuSans-70" d="M 1159 525 
L 1159 -1331 
L 581 -1331 
L 581 3500 
L 1159 3500 
L 1159 2969 
Q 1341 3281 1617 3432 
Q 1894 3584 2278 3584 
Q 2916 3584 3314 3078 
Q 3713 2572 3713 1747 
Q 3713 922 3314 415 
Q 2916 -91 2278 -91 
Q 1894 -91 1617 61 
Q 1341 213 1159 525 
z
M 3116 1747 
Q 3116 2381 2855 2742 
Q 2594 3103 2138 3103 
Q 1681 3103 1420 2742 
Q 1159 2381 1159 1747 
Q 1159 1113 1420 752 
Q 1681 391 2138 391 
Q 2594 391 2855 752 
Q 3116 1113 3116 1747 
z
" transform="scale(0.015625)"/>
       </defs>
       <use xlink:href="#DejaVuSans-41"/>
       <use xlink:href="#DejaVuSans-70" transform="translate(68.408203 0)"/>
       <use xlink:href="#DejaVuSans-72" transform="translate(131.884766 0)"/>
      </g>
     </g>
    </g>
    <g id="xtick_5">
     <g id="line2d_9">
      <path d="M 270.068047 384.1975 
L 270.068047 39.3575 
" clip-path="url(#p3ccde32a0c)" style="fill: none; stroke-dasharray: 2.96,1.28; stroke-dashoffset: 0; stroke: #b0b0b0; stroke-opacity: 0.3; stroke-width: 0.8"/>
     </g>
     <g id="line2d_10">
      <g>
       <use xlink:href="#m33d1272083" x="270.068047" y="384.1975" style="stroke: #000000; stroke-width: 0.8"/>
      </g>
     </g>
     <g id="text_5">
      <!-- May -->
      <g transform="translate(259.730547 398.795937) scale(0.1 -0.1)">
       <defs>
        <path id="DejaVuSans-79" d="M 2059 -325 
Q 1816 -950 1584 -1140 
Q 1353 -1331 966 -1331 
L 506 -1331 
L 506 -850 
L 844 -850 
Q 1081 -850 1212 -737 
Q 1344 -625 1503 -206 
L 1606 56 
L 191 3500 
L 800 3500 
L 1894 763 
L 2988 3500 
L 3597 3500 
L 2059 -325 
z
" transform="scale(0.015625)"/>
       </defs>
       <use xlink:href="#DejaVuSans-4d"/>
       <use xlink:href="#DejaVuSans-61" transform="translate(86.279297 0)"/>
       <use xlink:href="#DejaVuSans-79" transform="translate(147.558594 0)"/>
      </g>
     </g>
    </g>
    <g id="xtick_6">
     <g id="line2d_11">
      <path d="M 323.915511 384.1975 
L 323.915511 39.3575 
" clip-path="url(#p3ccde32a0c)" style="fill: none; stroke-dasharray: 2.96,1.28; stroke-dashoffset: 0; stroke: #b0b0b0; stroke-opacity: 0.3; stroke-width: 0.8"/>
     </g>
     <g id="line2d_12">
      <g>
       <use xlink:href="#m33d1272083" x="323.915511" y="384.1975" style="stroke: #000000; stroke-width: 0.8"/>
      </g>
     </g>
     <g id="text_6">
      <!-- Jun -->
      <g transform="translate(316.103011 398.795937) scale(0.1 -0.1)">
       <defs>
        <path id="DejaVuSans-75" d="M 544 1381 
L 544 3500 
L 1119 3500 
L 1119 1403 
Q 1119 906 1312 657 
Q 1506 409 1894 409 
Q 2359 409 2629 706 
Q 2900 1003 2900 1516 
L 2900 3500 
L 3475 3500 
L 3475 0 
L 2900 0 
L 2900 538 
Q 2691 219 2414 64 
Q 2138 -91 1772 -91 
Q 1169 -91 856 284 
Q 544 659 544 1381 
z
M 1991 3584 
L 1991 3584 
z
" transform="scale(0.015625)"/>
       </defs>
       <use xlink:href="#DejaVuSans-4a"/>
       <use xlink:href="#DejaVuSans-75" transform="translate(29.492188 0)"/>
       <use xlink:href="#DejaVuSans-6e" transform="translate(92.871094 0)"/>
      </g>
     </g>
    </g>
    <g id="xtick_7">
     <g id="line2d_13">
      <path d="M 376.02596 384.1975 
L 376.02596 39.3575 
" clip-path="url(#p3ccde32a0c)" style="fill: none; stroke-dasharray: 2.96,1.28; stroke-dashoffset: 0; stroke: #b0b0b0; stroke-opacity: 0.3; stroke-width: 0.8"/>
     </g>
     <g id="line2d_14">
      <g>
       <use xlink:href="#m33d1272083" x="376.02596" y="384.1975" style="stroke: #000000; stroke-width: 0.8"/>
      </g>
     </g>
     <g id="text_7">
      <!-- Jul -->
      <g transform="translate(369.993148 398.795937) scale(0.1 -0.1)">
       <defs>
        <path id="DejaVuSans-6c" d="M 603 4863 
L 1178 4863 
L 1178 0 
L 603 0 
L 603 4863 
z
" transform="scale(0.015625)"/>
       </defs>
       <use xlink:href="#DejaVuSans-4a"/>
       <use xlink:href="#DejaVuSans-75" transform="translate(29.492188 0)"/>
       <use xlink:href="#DejaVuSans-6c" transform="translate(92.871094 0)"/>
      </g>
     </g>
    </g>
    <g id="xtick_8">
     <g id="line2d_15">
      <path d="M 429.873425 384.1975 
L 429.873425 39.3575 
" clip-path="url(#p3ccde32a0c)" style="fill: none; stroke-dasharray: 2.96,1.28; stroke-dashoffset: 0; stroke: #b0b0b0; stroke-opacity: 0.3; stroke-width: 0.8"/>
     </g>
     <g id="line2d_16">
      <g>
       <use xlink:href="#m33d1272083" x="429.873425" y="384.1975" style="stroke: #000000; stroke-width: 0.8"/>
      </g>
     </g>
     <g id="text_8">
      <!-- Aug -->
      <g transform="translate(420.110143 398.795937) scale(0.1 -0.1)">
       <defs>
        <path id="DejaVuSans-67" d="M 2906 1791 
Q 2906 2416 2648 2759 
Q 2391 3103 1925 3103 
Q 1463 3103 1205 2759 
Q 947 2416 947 1791 
Q 947 1169 1205 825 
Q 1463 481 1925 481 
Q 2391 481 2648 825 
Q 2906 1169 2906 1791 
z
M 3481 434 
Q 3481 -459 3084 -895 
Q 2688 -1331 1869 -1331 
Q 1566 -1331 1297 -1286 
Q 1028 -1241 775 -1147 
L 775 -588 
Q 1028 -725 1275 -790 
Q 1522 -856 1778 -856 
Q 2344 -856 2625 -561 
Q 2906 -266 2906 331 
L 2906 616 
Q 2728 306 2450 153 
Q 2172 0 1784 0 
Q 1141 0 747 490 
Q 353 981 353 1791 
Q 353 2603 747 3093 
Q 1141 3584 1784 3584 
Q 2172 3584 2450 3431 
Q 2728 3278 2906 2969 
L 2906 3500 
L 3481 3500 
L 3481 434 
z
" transform="scale(0.015625)"/>
       </defs>
       <use xlink:href="#DejaVuSans-41"/>
       <use xlink:href="#DejaVuSans-75" transform="translate(68.408203 0)"/>
       <use xlink:href="#DejaVuSans-67" transform="translate(131.787109 0)"/>
      </g>
     </g>
    </g>
    <g id="xtick_9">
     <g id="line2d_17">
      <path d="M 483.720889 384.1975 
L 483.720889 39.3575 
" clip-path="url(#p3ccde32a0c)" style="fill: none; stroke-dasharray: 2.96,1.28; stroke-dashoffset: 0; stroke: #b0b0b0; stroke-opacity: 0.3; stroke-width: 0.8"/>
     </g>
     <g id="line2d_18">
      <g>
       <use xlink:href="#m33d1272083" x="483.720889" y="384.1975" style="stroke: #000000; stroke-width: 0.8"/>
      </g>
     </g>
     <g id="text_9">
      <!-- Sep -->
      <g transform="translate(474.295889 398.795937) scale(0.1 -0.1)">
       <defs>
        <path id="DejaVuSans-53" d="M 3425 4513 
L 3425 3897 
Q 3066 4069 2747 4153 
Q 2428 4238 2131 4238 
Q 1616 4238 1336 4038 
Q 1056 3838 1056 3469 
Q 1056 3159 1242 3001 
Q 1428 2844 1947 2747 
L 2328 2669 
Q 3034 2534 3370 2195 
Q 3706 1856 3706 1288 
Q 3706 609 3251 259 
Q 2797 -91 1919 -91 
Q 1588 -91 1214 -16 
Q 841 59 441 206 
L 441 856 
Q 825 641 1194 531 
Q 1563 422 1919 422 
Q 2459 422 2753 634 
Q 3047 847 3047 1241 
Q 3047 1584 2836 1778 
Q 2625 1972 2144 2069 
L 1759 2144 
Q 1053 2284 737 2584 
Q 422 2884 422 3419 
Q 422 4038 858 4394 
Q 1294 4750 2059 4750 
Q 2388 4750 2728 4690 
Q 3069 4631 3425 4513 
z
" transform="scale(0.015625)"/>
       </defs>
       <use xlink:href="#DejaVuSans-53"/>
       <use xlink:href="#DejaVuSans-65" transform="translate(63.476562 0)"/>
       <use xlink:href="#DejaVuSans-70" transform="translate(125 0)"/>
      </g>
     </g>
    </g>
    <g id="xtick_10">
     <g id="line2d_19">
      <path d="M 535.831338 384.1975 
L 535.831338 39.3575 
" clip-path="url(#p3ccde32a0c)" style="fill: none; stroke-dasharray: 2.96,1.28; stroke-dashoffset: 0; stroke: #b0b0b0; stroke-opacity: 0.3; stroke-width: 0.8"/>
     </g>
     <g id="line2d_20">
      <g>
       <use xlink:href="#m33d1272083" x="535.831338" y="384.1975" style="stroke: #000000; stroke-width: 0.8"/>
      </g>
     </g>
     <g id="text_10">
      <!-- Oct -->
      <g transform="translate(527.186026 398.795937) scale(0.1 -0.1)">
       <defs>
        <path id="DejaVuSans-4f" d="M 2522 4238 
Q 1834 4238 1429 3725 
Q 1025 3213 1025 2328 
Q 1025 1447 1429 934 
Q 1834 422 2522 422 
Q 3209 422 3611 934 
Q 4013 1447 4013 2328 
Q 4013 3213 3611 3725 
Q 3209 4238 2522 4238 
z
M 2522 4750 
Q 3503 4750 4090 4092 
Q 4678 3434 4678 2328 
Q 4678 1225 4090 567 
Q 3503 -91 2522 -91 
Q 1538 -91 948 565 
Q 359 1222 359 2328 
Q 359 3434 948 4092 
Q 1538 4750 2522 4750 
z
" transform="scale(0.015625)"/>
        <path id="DejaVuSans-63" d="M 3122 3366 
L 3122 2828 
Q 2878 2963 2633 3030 
Q 2388 3097 2138 3097 
Q 1578 3097 1268 2742 
Q 959 2388 959 1747 
Q 959 1106 1268 751 
Q 1578 397 2138 397 
Q 2388 397 2633 464 
Q 2878 531 3122 666 
L 3122 134 
Q 2881 22 2623 -34 
Q 2366 -91 2075 -91 
Q 1284 -91 818 406 
Q 353 903 353 1747 
Q 353 2603 823 3093 
Q 1294 3584 2113 3584 
Q 2378 3584 2631 3529 
Q 2884 3475 3122 3366 
z
" transform="scale(0.015625)"/>
        <path id="DejaVuSans-74" d="M 1172 4494 
L 1172 3500 
L 2356 3500 
L 2356 3053 
L 1172 3053 
L 1172 1153 
Q 1172 725 1289 603 
Q 1406 481 1766 481 
L 2356 481 
L 2356 0 
L 1766 0 
Q 1100 0 847 248 
Q 594 497 594 1153 
L 594 3053 
L 172 3053 
L 172 3500 
L 594 3500 
L 594 4494 
L 1172 4494 
z
" transform="scale(0.015625)"/>
       </defs>
       <use xlink:href="#DejaVuSans-4f"/>
       <use xlink:href="#DejaVuSans-63" transform="translate(78.710938 0)"/>
       <use xlink:href="#DejaVuSans-74" transform="translate(133.691406 0)"/>
      </g>
     </g>
    </g>
    <g id="xtick_11">
     <g id="line2d_21">
      <path d="M 589.678802 384.1975 
L 589.678802 39.3575 
" clip-path="url(#p3ccde32a0c)" style="fill: none; stroke-dasharray: 2.96,1.28; stroke-dashoffset: 0; stroke: #b0b0b0; stroke-opacity: 0.3; stroke-width: 0.8"/>
     </g>
     <g id="line2d_22">
      <g>
       <use xlink:href="#m33d1272083" x="589.678802" y="384.1975" style="stroke: #000000; stroke-width: 0.8"/>
      </g>
     </g>
     <g id="text_11">
      <!-- Nov -->
      <g transform="translate(579.919427 398.795937) scale(0.1 -0.1)">
       <defs>
        <path id="DejaVuSans-4e" d="M 628 4666 
L 1478 4666 
L 3547 763 
L 3547 4666 
L 4159 4666 
L 4159 0 
L 3309 0 
L 1241 3903 
L 1241 0 
L 628 0 
L 628 4666 
z
" transform="scale(0.015625)"/>
        <path id="DejaVuSans-6f" d="M 1959 3097 
Q 1497 3097 1228 2736 
Q 959 2375 959 1747 
Q 959 1119 1226 758 
Q 1494 397 1959 397 
Q 2419 397 2687 759 
Q 2956 1122 2956 1747 
Q 2956 2369 2687 2733 
Q 2419 3097 1959 3097 
z
M 1959 3584 
Q 2709 3584 3137 3096 
Q 3566 2609 3566 1747 
Q 3566 888 3137 398 
Q 2709 -91 1959 -91 
Q 1206 -91 779 398 
Q 353 888 353 1747 
Q 353 2609 779 3096 
Q 1206 3584 1959 3584 
z
" transform="scale(0.015625)"/>
        <path id="DejaVuSans-76" d="M 191 3500 
L 800 3500 
L 1894 563 
L 2988 3500 
L 3597 3500 
L 2284 0 
L 1503 0 
L 191 3500 
z
" transform="scale(0.015625)"/>
       </defs>
       <use xlink:href="#DejaVuSans-4e"/>
       <use xlink:href="#DejaVuSans-6f" transform="translate(74.804688 0)"/>
       <use xlink:href="#DejaVuSans-76" transform="translate(135.986328 0)"/>
      </g>
     </g>
    </g>
    <g id="xtick_12">
     <g id="line2d_23">
      <path d="M 641.789251 384.1975 
L 641.789251 39.3575 
" clip-path="url(#p3ccde32a0c)" style="fill: none; stroke-dasharray: 2.96,1.28; stroke-dashoffset: 0; stroke: #b0b0b0; stroke-opacity: 0.3; stroke-width: 0.8"/>
     </g>
     <g id="line2d_24">
      <g>
       <use xlink:href="#m33d1272083" x="641.789251" y="384.1975" style="stroke: #000000; stroke-width: 0.8"/>
      </g>
     </g>
     <g id="text_12">
      <!-- Dec -->
      <g transform="translate(632.11347 398.795937) scale(0.1 -0.1)">
       <defs>
        <path id="DejaVuSans-44" d="M 1259 4147 
L 1259 519 
L 2022 519 
Q 2988 519 3436 956 
Q 3884 1394 3884 2338 
Q 3884 3275 3436 3711 
Q 2988 4147 2022 4147 
L 1259 4147 
z
M 628 4666 
L 1925 4666 
Q 3281 4666 3915 4102 
Q 4550 3538 4550 2338 
Q 4550 1131 3912 565 
Q 3275 0 1925 0 
L 628 0 
L 628 4666 
z
" transform="scale(0.015625)"/>
       </defs>
       <use xlink:href="#DejaVuSans-44"/>
       <use xlink:href="#DejaVuSans-65" transform="translate(77.001953 0)"/>
       <use xlink:href="#DejaVuSans-63" transform="translate(138.525391 0)"/>
      </g>
     </g>
    </g>
    <g id="xtick_13">
     <g id="line2d_25">
      <path d="M 695.636716 384.1975 
L 695.636716 39.3575 
" clip-path="url(#p3ccde32a0c)" style="fill: none; stroke-dasharray: 2.96,1.28; stroke-dashoffset: 0; stroke: #b0b0b0; stroke-opacity: 0.3; stroke-width: 0.8"/>
     </g>
     <g id="line2d_26">
      <g>
       <use xlink:href="#m33d1272083" x="695.636716" y="384.1975" style="stroke: #000000; stroke-width: 0.8"/>
      </g>
     </g>
     <g id="text_13">
      <!-- Jan -->
      <g transform="translate(687.928903 398.795937) scale(0.1 -0.1)">
       <use xlink:href="#DejaVuSans-4a"/>
       <use xlink:href="#DejaVuSans-61" transform="translate(29.492188 0)"/>
       <use xlink:href="#DejaVuSans-6e" transform="translate(90.771484 0)"/>
      </g>
     </g>
    </g>
    <g id="text_14">
     <!-- Day of the year -->
     <g transform="translate(336.388708 413.99375) scale(0.12 -0.12)">
      <defs>
       <path id="DejaVuSans-20" transform="scale(0.015625)"/>
       <path id="DejaVuSans-66" d="M 2375 4863 
L 2375 4384 
L 1825 4384 
Q 1516 4384 1395 4259 
Q 1275 4134 1275 3809 
L 1275 3500 
L 2222 3500 
L 2222 3053 
L 1275 3053 
L 1275 0 
L 697 0 
L 697 3053 
L 147 3053 
L 147 3500 
L 697 3500 
L 697 3744 
Q 697 4328 969 4595 
Q 1241 4863 1831 4863 
L 2375 4863 
z
" transform="scale(0.015625)"/>
       <path id="DejaVuSans-68" d="M 3513 2113 
L 3513 0 
L 2938 0 
L 2938 2094 
Q 2938 2591 2744 2837 
Q 2550 3084 2163 3084 
Q 1697 3084 1428 2787 
Q 1159 2491 1159 1978 
L 1159 0 
L 581 0 
L 581 4863 
L 1159 4863 
L 1159 2956 
Q 1366 3272 1645 3428 
Q 1925 3584 2291 3584 
Q 2894 3584 3203 3211 
Q 3513 2838 3513 2113 
z
" transform="scale(0.015625)"/>
      </defs>
      <use xlink:href="#DejaVuSans-44"/>
      <use xlink:href="#DejaVuSans-61" transform="translate(77.001953 0)"/>
      <use xlink:href="#DejaVuSans-79" transform="translate(138.28125 0)"/>
      <use xlink:href="#DejaVuSans-20" transform="translate(197.460938 0)"/>
      <use xlink:href="#DejaVuSans-6f" transform="translate(229.248047 0)"/>
      <use xlink:href="#DejaVuSans-66" transform="translate(290.429688 0)"/>
      <use xlink:href="#DejaVuSans-20" transform="translate(325.634766 0)"/>
      <use xlink:href="#DejaVuSans-74" transform="translate(357.421875 0)"/>
      <use xlink:href="#DejaVuSans-68" transform="translate(396.630859 0)"/>
      <use xlink:href="#DejaVuSans-65" transform="translate(460.009766 0)"/>
      <use xlink:href="#DejaVuSans-20" transform="translate(521.533203 0)"/>
      <use xlink:href="#DejaVuSans-79" transform="translate(553.320312 0)"/>
      <use xlink:href="#DejaVuSans-65" transform="translate(612.5 0)"/>
      <use xlink:href="#DejaVuSans-61" transform="translate(674.023438 0)"/>
      <use xlink:href="#DejaVuSans-72" transform="translate(735.302734 0)"/>
     </g>
    </g>
   </g>
   <g id="matplotlib.axis_2">
    <g id="ytick_1">
     <g id="line2d_27">
      <path d="M 61.62625 384.1975 
L 704.321791 384.1975 
" clip-path="url(#p3ccde32a0c)" style="fill: none; stroke-dasharray: 2.96,1.28; stroke-dashoffset: 0; stroke: #b0b0b0; stroke-opacity: 0.3; stroke-width: 0.8"/>
     </g>
     <g id="line2d_28">
      <defs>
       <path id="m57a32f5674" d="M 0 0 
L -3.5 0 
" style="stroke: #000000; stroke-width: 0.8"/>
      </defs>
      <g>
       <use xlink:href="#m57a32f5674" x="61.62625" y="384.1975" style="stroke: #000000; stroke-width: 0.8"/>
      </g>
     </g>
     <g id="text_15">
      <!-- 0 -->
      <g transform="translate(48.26375 387.996719) scale(0.1 -0.1)">
       <defs>
        <path id="DejaVuSans-30" d="M 2034 4250 
Q 1547 4250 1301 3770 
Q 1056 3291 1056 2328 
Q 1056 1369 1301 889 
Q 1547 409 2034 409 
Q 2525 409 2770 889 
Q 3016 1369 3016 2328 
Q 3016 3291 2770 3770 
Q 2525 4250 2034 4250 
z
M 2034 4750 
Q 2819 4750 3233 4129 
Q 3647 3509 3647 2328 
Q 3647 1150 3233 529 
Q 2819 -91 2034 -91 
Q 1250 -91 836 529 
Q 422 1150 422 2328 
Q 422 3509 836 4129 
Q 1250 4750 2034 4750 
z
" transform="scale(0.015625)"/>
       </defs>
       <use xlink:href="#DejaVuSans-30"/>
      </g>
     </g>
    </g>
    <g id="ytick_2">
     <g id="line2d_29">
      <path d="M 61.62625 321.621058 
L 704.321791 321.621058 
" clip-path="url(#p3ccde32a0c)" style="fill: none; stroke-dasharray: 2.96,1.28; stroke-dashoffset: 0; stroke: #b0b0b0; stroke-opacity: 0.3; stroke-width: 0.8"/>
     </g>
     <g id="line2d_30">
      <g>
       <use xlink:href="#m57a32f5674" x="61.62625" y="321.621058" style="stroke: #000000; stroke-width: 0.8"/>
      </g>
     </g>
     <g id="text_16">
      <!-- 10000 -->
      <g transform="translate(22.81375 325.420277) scale(0.1 -0.1)">
       <defs>
        <path id="DejaVuSans-31" d="M 794 531 
L 1825 531 
L 1825 4091 
L 703 3866 
L 703 4441 
L 1819 4666 
L 2450 4666 
L 2450 531 
L 3481 531 
L 3481 0 
L 794 0 
L 794 531 
z
" transform="scale(0.015625)"/>
       </defs>
       <use xlink:href="#DejaVuSans-31"/>
       <use xlink:href="#DejaVuSans-30" transform="translate(63.623047 0)"/>
       <use xlink:href="#DejaVuSans-30" transform="translate(127.246094 0)"/>
       <use xlink:href="#DejaVuSans-30" transform="translate(190.869141 0)"/>
       <use xlink:href="#DejaVuSans-30" transform="translate(254.492188 0)"/>
      </g>
     </g>
    </g>
    <g id="ytick_3">
     <g id="line2d_31">
      <path d="M 61.62625 259.044616 
L 704.321791 259.044616 
" clip-path="url(#p3ccde32a0c)" style="fill: none; stroke-dasharray: 2.96,1.28; stroke-dashoffset: 0; stroke: #b0b0b0; stroke-opacity: 0.3; stroke-width: 0.8"/>
     </g>
     <g id="line2d_32">
      <g>
       <use xlink:href="#m57a32f5674" x="61.62625" y="259.044616" style="stroke: #000000; stroke-width: 0.8"/>
      </g>
     </g>
     <g id="text_17">
      <!-- 20000 -->
      <g transform="translate(22.81375 262.843834) scale(0.1 -0.1)">
       <defs>
        <path id="DejaVuSans-32" d="M 1228 531 
L 3431 531 
L 3431 0 
L 469 0 
L 469 531 
Q 828 903 1448 1529 
Q 2069 2156 2228 2338 
Q 2531 2678 2651 2914 
Q 2772 3150 2772 3378 
Q 2772 3750 2511 3984 
Q 2250 4219 1831 4219 
Q 1534 4219 1204 4116 
Q 875 4013 500 3803 
L 500 4441 
Q 881 4594 1212 4672 
Q 1544 4750 1819 4750 
Q 2544 4750 2975 4387 
Q 3406 4025 3406 3419 
Q 3406 3131 3298 2873 
Q 3191 2616 2906 2266 
Q 2828 2175 2409 1742 
Q 1991 1309 1228 531 
z
" transform="scale(0.015625)"/>
       </defs>
       <use xlink:href="#DejaVuSans-32"/>
       <use xlink:href="#DejaVuSans-30" transform="translate(63.623047 0)"/>
       <use xlink:href="#DejaVuSans-30" transform="translate(127.246094 0)"/>
       <use xlink:href="#DejaVuSans-30" transform="translate(190.869141 0)"/>
       <use xlink:href="#DejaVuSans-30" transform="translate(254.492188 0)"/>
      </g>
     </g>
    </g>
    <g id="ytick_4">
     <g id="line2d_33">
      <path d="M 61.62625 196.468173 
L 704.321791 196.468173 
" clip-path="url(#p3ccde32a0c)" style="fill: none; stroke-dasharray: 2.96,1.28; stroke-dashoffset: 0; stroke: #b0b0b0; stroke-opacity: 0.3; stroke-width: 0.8"/>
     </g>
     <g id="line2d_34">
      <g>
       <use xlink:href="#m57a32f5674" x="61.62625" y="196.468173" style="stroke: #000000; stroke-width: 0.8"/>
      </g>
     </g>
     <g id="text_18">
      <!-- 30000 -->
      <g transform="translate(22.81375 200.267392) scale(0.1 -0.1)">
       <defs>
        <path id="DejaVuSans-33" d="M 2597 2516 
Q 3050 2419 3304 2112 
Q 3559 1806 3559 1356 
Q 3559 666 3084 287 
Q 2609 -91 1734 -91 
Q 1441 -91 1130 -33 
Q 819 25 488 141 
L 488 750 
Q 750 597 1062 519 
Q 1375 441 1716 441 
Q 2309 441 2620 675 
Q 2931 909 2931 1356 
Q 2931 1769 2642 2001 
Q 2353 2234 1838 2234 
L 1294 2234 
L 1294 2753 
L 1863 2753 
Q 2328 2753 2575 2939 
Q 2822 3125 2822 3475 
Q 2822 3834 2567 4026 
Q 2313 4219 1838 4219 
Q 1578 4219 1281 4162 
Q 984 4106 628 3988 
L 628 4550 
Q 988 4650 1302 4700 
Q 1616 4750 1894 4750 
Q 2613 4750 3031 4423 
Q 3450 4097 3450 3541 
Q 3450 3153 3228 2886 
Q 3006 2619 2597 2516 
z
" transform="scale(0.015625)"/>
       </defs>
       <use xlink:href="#DejaVuSans-33"/>
       <use xlink:href="#DejaVuSans-30" transform="translate(63.623047 0)"/>
       <use xlink:href="#DejaVuSans-30" transform="translate(127.246094 0)"/>
       <use xlink:href="#DejaVuSans-30" transform="translate(190.869141 0)"/>
       <use xlink:href="#DejaVuSans-30" transform="translate(254.492188 0)"/>
      </g>
     </g>
    </g>
    <g id="ytick_5">
     <g id="line2d_35">
      <path d="M 61.62625 133.891731 
L 704.321791 133.891731 
" clip-path="url(#p3ccde32a0c)" style="fill: none; stroke-dasharray: 2.96,1.28; stroke-dashoffset: 0; stroke: #b0b0b0; stroke-opacity: 0.3; stroke-width: 0.8"/>
     </g>
     <g id="line2d_36">
      <g>
       <use xlink:href="#m57a32f5674" x="61.62625" y="133.891731" style="stroke: #000000; stroke-width: 0.8"/>
      </g>
     </g>
     <g id="text_19">
      <!-- 40000 -->
      <g transform="translate(22.81375 137.69095) scale(0.1 -0.1)">
       <defs>
        <path id="DejaVuSans-34" d="M 2419 4116 
L 825 1625 
L 2419 1625 
L 2419 4116 
z
M 2253 4666 
L 3047 4666 
L 3047 1625 
L 3713 1625 
L 3713 1100 
L 3047 1100 
L 3047 0 
L 2419 0 
L 2419 1100 
L 313 1100 
L 313 1709 
L 2253 4666 
z
" transform="scale(0.015625)"/>
       </defs>
       <use xlink:href="#DejaVuSans-34"/>
       <use xlink:href="#DejaVuSans-30" transform="translate(63.623047 0)"/>
       <use xlink:href="#DejaVuSans-30" transform="translate(127.246094 0)"/>
       <use xlink:href="#DejaVuSans-30" transform="translate(190.869141 0)"/>
       <use xlink:href="#DejaVuSans-30" transform="translate(254.492188 0)"/>
      </g>
     </g>
    </g>
    <g id="ytick_6">
     <g id="line2d_37">
      <path d="M 61.62625 71.315289 
L 704.321791 71.315289 
" clip-path="url(#p3ccde32a0c)" style="fill: none; stroke-dasharray: 2.96,1.28; stroke-dashoffset: 0; stroke: #b0b0b0; stroke-opacity: 0.3; stroke-width: 0.8"/>
     </g>
     <g id="line2d_38">
      <g>
       <use xlink:href="#m57a32f5674" x="61.62625" y="71.315289" style="stroke: #000000; stroke-width: 0.8"/>
      </g>
     </g>
     <g id="text_20">
      <!-- 50000 -->
      <g transform="translate(22.81375 75.114508) scale(0.1 -0.1)">
       <defs>
        <path id="DejaVuSans-35" d="M 691 4666 
L 3169 4666 
L 3169 4134 
L 1269 4134 
L 1269 2991 
Q 1406 3038 1543 3061 
Q 1681 3084 1819 3084 
Q 2600 3084 3056 2656 
Q 3513 2228 3513 1497 
Q 3513 744 3044 326 
Q 2575 -91 1722 -91 
Q 1428 -91 1123 -41 
Q 819 9 494 109 
L 494 744 
Q 775 591 1075 516 
Q 1375 441 1709 441 
Q 2250 441 2565 725 
Q 2881 1009 2881 1497 
Q 2881 1984 2565 2268 
Q 2250 2553 1709 2553 
Q 1456 2553 1204 2497 
Q 953 2441 691 2322 
L 691 4666 
z
" transform="scale(0.015625)"/>
       </defs>
       <use xlink:href="#DejaVuSans-35"/>
       <use xlink:href="#DejaVuSans-30" transform="translate(63.623047 0)"/>
       <use xlink:href="#DejaVuSans-30" transform="translate(127.246094 0)"/>
       <use xlink:href="#DejaVuSans-30" transform="translate(190.869141 0)"/>
       <use xlink:href="#DejaVuSans-30" transform="translate(254.492188 0)"/>
      </g>
     </g>
    </g>
    <g id="text_21">
     <!-- Daily pedestrian count -->
     <g transform="translate(16.318125 279.793125) rotate(-90) scale(0.12 -0.12)">
      <defs>
       <path id="DejaVuSans-69" d="M 603 3500 
L 1178 3500 
L 1178 0 
L 603 0 
L 603 3500 
z
M 603 4863 
L 1178 4863 
L 1178 4134 
L 603 4134 
L 603 4863 
z
" transform="scale(0.015625)"/>
       <path id="DejaVuSans-64" d="M 2906 2969 
L 2906 4863 
L 3481 4863 
L 3481 0 
L 2906 0 
L 2906 525 
Q 2725 213 2448 61 
Q 2172 -91 1784 -91 
Q 1150 -91 751 415 
Q 353 922 353 1747 
Q 353 2572 751 3078 
Q 1150 3584 1784 3584 
Q 2172 3584 2448 3432 
Q 2725 3281 2906 2969 
z
M 947 1747 
Q 947 1113 1208 752 
Q 1469 391 1925 391 
Q 2381 391 2643 752 
Q 2906 1113 2906 1747 
Q 2906 2381 2643 2742 
Q 2381 3103 1925 3103 
Q 1469 3103 1208 2742 
Q 947 2381 947 1747 
z
" transform="scale(0.015625)"/>
       <path id="DejaVuSans-73" d="M 2834 3397 
L 2834 2853 
Q 2591 2978 2328 3040 
Q 2066 3103 1784 3103 
Q 1356 3103 1142 2972 
Q 928 2841 928 2578 
Q 928 2378 1081 2264 
Q 1234 2150 1697 2047 
L 1894 2003 
Q 2506 1872 2764 1633 
Q 3022 1394 3022 966 
Q 3022 478 2636 193 
Q 2250 -91 1575 -91 
Q 1294 -91 989 -36 
Q 684 19 347 128 
L 347 722 
Q 666 556 975 473 
Q 1284 391 1588 391 
Q 1994 391 2212 530 
Q 2431 669 2431 922 
Q 2431 1156 2273 1281 
Q 2116 1406 1581 1522 
L 1381 1569 
Q 847 1681 609 1914 
Q 372 2147 372 2553 
Q 372 3047 722 3315 
Q 1072 3584 1716 3584 
Q 2034 3584 2315 3537 
Q 2597 3491 2834 3397 
z
" transform="scale(0.015625)"/>
      </defs>
      <use xlink:href="#DejaVuSans-44"/>
      <use xlink:href="#DejaVuSans-61" transform="translate(77.001953 0)"/>
      <use xlink:href="#DejaVuSans-69" transform="translate(138.28125 0)"/>
      <use xlink:href="#DejaVuSans-6c" transform="translate(166.064453 0)"/>
      <use xlink:href="#DejaVuSans-79" transform="translate(193.847656 0)"/>
      <use xlink:href="#DejaVuSans-20" transform="translate(253.027344 0)"/>
      <use xlink:href="#DejaVuSans-70" transform="translate(284.814453 0)"/>
      <use xlink:href="#DejaVuSans-65" transform="translate(348.291016 0)"/>
      <use xlink:href="#DejaVuSans-64" transform="translate(409.814453 0)"/>
      <use xlink:href="#DejaVuSans-65" transform="translate(473.291016 0)"/>
      <use xlink:href="#DejaVuSans-73" transform="translate(534.814453 0)"/>
      <use xlink:href="#DejaVuSans-74" transform="translate(586.914062 0)"/>
      <use xlink:href="#DejaVuSans-72" transform="translate(626.123047 0)"/>
      <use xlink:href="#DejaVuSans-69" transform="translate(667.236328 0)"/>
      <use xlink:href="#DejaVuSans-61" transform="translate(695.019531 0)"/>
      <use xlink:href="#DejaVuSans-6e" transform="translate(756.298828 0)"/>
      <use xlink:href="#DejaVuSans-20" transform="translate(819.677734 0)"/>
      <use xlink:href="#DejaVuSans-63" transform="translate(851.464844 0)"/>
      <use xlink:href="#DejaVuSans-6f" transform="translate(906.445312 0)"/>
      <use xlink:href="#DejaVuSans-75" transform="translate(967.626953 0)"/>
      <use xlink:href="#DejaVuSans-6e" transform="translate(1031.005859 0)"/>
      <use xlink:href="#DejaVuSans-74" transform="translate(1094.384766 0)"/>
     </g>
    </g>
   </g>
   <g id="line2d_39">
    <path d="M 63.363265 261.879328 
L 65.10028 222.794083 
L 66.837295 219.014466 
L 68.57431 237.268014 
L 70.311325 287.404259 
L 72.04834 297.516612 
L 73.785355 162.220087 
L 75.52237 170.348766 
L 77.259385 162.614318 
L 78.9964 159.253963 
L 80.733415 160.19261 
L 82.47043 271.509843 
L 84.207445 285.602058 
L 85.94446 153.008834 
L 89.41849 147.170452 
L 91.155505 144.579788 
L 92.89252 146.557203 
L 94.629535 256.472724 
L 96.366549 285.520708 
L 98.103564 140.750109 
L 101.577594 132.890508 
L 103.314609 139.235759 
L 105.051624 182.795221 
L 106.788639 261.322398 
L 108.525654 294.800795 
L 110.262669 297.022258 
L 111.999684 150.962585 
L 113.736699 147.752413 
L 115.473714 149.598418 
L 117.210729 134.423631 
L 118.947744 260.752952 
L 120.684759 287.391744 
L 122.421774 135.524976 
L 125.895804 126.601576 
L 127.632819 127.327462 
L 129.369834 124.686737 
L 131.106849 256.61665 
L 132.843864 261.735403 
L 134.580879 132.11456 
L 136.317894 132.095787 
L 139.791924 112.490588 
L 141.528939 116.395358 
L 143.265954 246.735829 
L 145.002969 270.333406 
L 146.739984 132.533822 
L 148.476999 129.686594 
L 150.214014 127.86562 
L 151.951029 121.551657 
L 153.688044 107.17159 
L 155.425059 229.120561 
L 157.162074 249.658149 
L 158.899089 118.210075 
L 160.636104 120.875831 
L 162.373119 112.35292 
L 164.110133 114.455488 
L 165.847148 126.182314 
L 167.584163 257.81186 
L 169.321178 278.562208 
L 171.058193 128.072122 
L 172.795208 120.087368 
L 174.532223 125.68796 
L 176.269238 118.729459 
L 178.006253 119.774486 
L 179.743268 236.554642 
L 181.480283 270.608742 
L 183.217298 275.270687 
L 184.954313 123.8795 
L 186.691328 114.674506 
L 188.428343 97.703775 
L 190.165358 76.990972 
L 191.902373 193.589657 
L 193.639388 222.656414 
L 195.376403 111.82102 
L 197.113418 117.55928 
L 198.850433 114.155121 
L 200.587448 109.812316 
L 202.324463 110.775993 
L 204.061478 245.515589 
L 205.798493 279.288095 
L 207.535508 142.664948 
L 209.272523 121.132395 
L 211.009538 118.616822 
L 212.746553 107.903735 
L 214.483568 123.785636 
L 216.220583 245.083811 
L 217.957598 277.661107 
L 219.694613 135.068168 
L 221.431628 122.696806 
L 223.168643 121.67681 
L 224.905658 115.913519 
L 226.642673 111.107649 
L 228.379688 230.002889 
L 230.116703 253.731876 
L 231.853717 134.79909 
L 233.590732 132.22094 
L 235.327747 127.571511 
L 237.064762 128.028319 
L 238.801777 119.330193 
L 240.538792 241.836094 
L 242.275807 265.771583 
L 244.012822 145.293159 
L 245.749837 143.196848 
L 247.486852 148.259282 
L 249.223867 146.550945 
L 250.960882 257.818117 
L 252.697897 261.378717 
L 254.434912 281.697288 
L 256.171927 288.261556 
L 257.908942 170.035884 
L 259.645957 148.359405 
L 261.382972 280.38944 
L 263.119987 172.113422 
L 264.857002 255.496531 
L 266.594017 289.206461 
L 268.331032 135.556265 
L 270.068047 127.01458 
L 271.805062 123.291282 
L 273.542077 165.392712 
L 275.279092 98.291993 
L 277.016107 248.350302 
L 278.753122 265.189622 
L 280.490137 136.344728 
L 282.227152 124.780601 
L 283.964167 126.319982 
L 285.701182 123.96085 
L 287.438197 126.169798 
L 289.175212 253.256295 
L 290.912227 284.29421 
L 292.649242 137.233313 
L 294.386257 126.601576 
L 296.123272 129.824262 
L 297.860287 127.533965 
L 299.597301 119.20504 
L 301.334316 238.000158 
L 303.071331 278.080369 
L 304.808346 136.964235 
L 306.545361 130.462542 
L 308.282376 129.135922 
L 310.019391 121.288836 
L 311.756406 121.607976 
L 313.493421 251.260106 
L 315.230436 269.269606 
L 316.967451 146.732417 
L 318.704466 132.765355 
L 320.441481 134.192098 
L 322.178496 127.365008 
L 323.915511 105.025218 
L 325.652526 251.867098 
L 327.389541 281.597165 
L 329.126556 140.975384 
L 330.863571 125.612868 
L 332.600586 128.353716 
L 334.337601 122.252513 
L 336.074616 120.675587 
L 337.811631 244.013754 
L 339.548646 273.474743 
L 341.285661 284.644638 
L 343.022676 129.054572 
L 344.759691 136.006815 
L 346.496706 125.631641 
L 348.233721 97.50353 
L 349.970736 256.303767 
L 351.707751 292.798349 
L 353.444766 135.919208 
L 355.181781 132.245971 
L 356.918796 127.008323 
L 358.655811 130.781682 
L 360.392826 118.704429 
L 362.129841 252.974701 
L 369.0779 124.09226 
L 370.814915 112.916108 
L 372.55193 117.334005 
L 374.288945 248.957293 
L 376.02596 258.90069 
L 377.762975 140.180664 
L 379.49999 136.720186 
L 381.237005 136.651352 
L 382.97402 131.232232 
L 384.711035 120.093626 
L 386.44805 246.285279 
L 388.185065 286.797268 
L 389.92208 152.389328 
L 391.659095 141.382131 
L 393.39611 135.499946 
L 395.133125 134.367312 
L 396.87014 133.059465 
L 398.607155 251.447836 
L 400.34417 280.49582 
L 402.081185 133.341059 
L 403.8182 129.567699 
L 405.555215 125.406366 
L 407.29223 119.730682 
L 409.029245 110.707159 
L 410.76626 246.886013 
L 412.503275 276.153015 
L 414.24029 138.38472 
L 415.977305 124.937042 
L 417.71432 125.775567 
L 419.451335 120.525403 
L 421.18835 112.453042 
L 422.925365 245.1151 
L 424.66238 280.28306 
L 426.399395 135.587553 
L 428.13641 126.845624 
L 429.873425 128.522672 
L 431.61044 130.825486 
L 433.347455 108.072691 
L 435.08447 243.694614 
L 436.821484 272.273275 
L 438.558499 136.638837 
L 440.295514 125.68796 
L 442.032529 129.010769 
L 443.769544 128.216048 
L 445.506559 129.417516 
L 447.243574 249.439132 
L 448.980589 275.915224 
L 450.717604 125.024649 
L 452.454619 114.029968 
L 454.191634 118.704429 
L 455.928649 120.600495 
L 457.665664 114.987388 
L 459.402679 235.553419 
L 461.139694 268.33096 
L 462.876709 144.392058 
L 464.613724 126.432619 
L 466.350739 121.013499 
L 468.087754 95.707586 
L 469.824769 104.943869 
L 471.561784 224.020581 
L 473.298799 280.001466 
L 475.035814 131.745359 
L 476.772829 125.237409 
L 478.509844 133.478727 
L 480.246859 124.674221 
L 481.983874 129.098376 
L 483.720889 252.261329 
L 485.457904 287.992478 
L 487.194919 142.84642 
L 488.931934 129.367454 
L 490.668949 126.970777 
L 492.405964 129.473834 
L 494.142979 118.347743 
L 495.879994 263.875517 
L 497.617009 285.220341 
L 499.354024 143.997827 
L 501.091039 125.099741 
L 502.828054 127.077157 
L 504.565068 127.196052 
L 506.302083 121.826993 
L 508.039098 256.560331 
L 509.776113 289.450509 
L 511.513128 139.323366 
L 513.250143 126.639122 
L 514.987158 129.880581 
L 516.724173 128.672856 
L 518.461188 113.936104 
L 520.198203 262.91184 
L 521.935218 284.982551 
L 523.672233 136.720186 
L 525.409248 128.347458 
L 527.146263 127.302432 
L 528.883278 118.391546 
L 530.620293 263.762879 
L 532.357308 266.616365 
L 534.094323 288.586954 
L 535.831338 171.788025 
L 537.568353 157.883539 
L 539.305368 153.428096 
L 541.042383 150.217925 
L 542.779398 147.696094 
L 544.516413 245.596938 
L 546.253428 255.34009 
L 547.990443 131.926831 
L 549.727458 123.860728 
L 551.464473 120.043565 
L 553.201488 113.222732 
L 554.938503 108.016372 
L 556.675518 226.317136 
L 558.412533 267.198326 
L 560.149548 139.9241 
L 561.886563 130.318616 
L 563.623578 128.879358 
L 565.360593 128.61028 
L 567.097608 119.530438 
L 568.834623 265.483732 
L 570.571638 291.54682 
L 572.308652 133.491242 
L 574.045667 127.828074 
L 575.782682 120.975954 
L 577.519697 115.888489 
L 579.256712 127.358751 
L 580.993727 263.637726 
L 582.730742 281.102811 
L 584.467757 135.099457 
L 586.204772 125.325016 
L 587.941787 131.620206 
L 589.678802 125.062195 
L 591.415817 128.178502 
L 593.152832 255.308802 
L 594.889847 290.026212 
L 596.626862 181.44357 
L 598.363877 277.535954 
L 600.100892 125.975811 
L 601.837907 111.132679 
L 603.574922 120.168717 
L 605.311937 252.705622 
L 607.048952 286.584508 
L 608.785967 128.679114 
L 610.522982 125.963296 
L 612.259997 115.412908 
L 613.997012 116.026157 
L 615.734027 84.750451 
L 617.471042 257.367567 
L 619.208057 281.040235 
L 620.945072 127.840589 
L 622.682087 119.912154 
L 624.419102 109.968757 
L 626.156117 134.82412 
L 627.893132 104.699821 
L 629.630147 257.217383 
L 631.367162 282.679738 
L 633.104177 121.720613 
L 634.841192 134.217129 
L 636.578207 86.740382 
L 638.315222 76.221282 
L 640.052236 55.696209 
L 641.789251 178.527507 
L 643.526266 265.346063 
L 645.263281 130.950638 
L 647.000296 107.847416 
L 648.737311 111.620775 
L 650.474326 103.085349 
L 652.211341 105.056507 
L 653.948356 247.092515 
L 655.685371 274.538543 
L 657.422386 130.281071 
L 659.159401 120.337674 
L 660.896416 116.013642 
L 662.633431 117.377808 
L 664.370446 110.901146 
L 666.107461 249.808333 
L 667.844476 280.289318 
L 669.581491 131.620206 
L 671.318506 120.781967 
L 673.055521 123.353858 
L 674.792536 136.106937 
L 676.529551 163.271371 
L 678.266566 270.051812 
L 680.003581 280.239257 
L 681.740596 193.426958 
L 683.477611 223.376044 
L 685.214626 289.024989 
L 686.951641 259.864367 
L 688.688656 236.585931 
L 690.425671 274.895228 
L 692.162686 275.364552 
L 693.899701 252.693107 
L 695.636716 213.539027 
L 695.636716 213.539027 
" clip-path="url(#p3ccde32a0c)" style="fill: none; stroke: #0d6efc; stroke-opacity: 0.8; stroke-width: 2.5; stroke-linecap: square"/>
   </g>
   <g id="line2d_40">
    <path d="M 63.363265 288.856033 
L 65.10028 278.687361 
L 66.837295 283.486974 
L 68.57431 302.30371 
L 70.311325 317.528558 
L 72.04834 257.711737 
L 73.785355 250.90342 
L 75.52237 249.001097 
L 77.259385 252.061085 
L 78.9964 258.781795 
L 80.733415 287.579473 
L 82.47043 296.790726 
L 84.207445 249.282691 
L 85.94446 232.092942 
L 87.681475 239.420643 
L 89.41849 228.413447 
L 91.155505 244.495593 
L 92.89252 283.155319 
L 94.629535 298.330106 
L 96.366549 252.086115 
L 98.103564 234.927655 
L 99.840579 236.172926 
L 101.577594 234.095388 
L 103.314609 255.277514 
L 105.051624 289.95112 
L 106.788639 301.133531 
L 108.525654 317.716288 
L 110.262669 242.812287 
L 111.999684 237.111573 
L 113.736699 235.847528 
L 115.473714 253.381448 
L 117.210729 295.307664 
L 118.947744 311.896679 
L 120.684759 263.487543 
L 122.421774 256.122296 
L 124.158789 230.077981 
L 125.895804 222.556292 
L 127.632819 219.439985 
L 129.369834 257.467689 
L 131.106849 289.556889 
L 132.843864 234.0641 
L 134.580879 220.49127 
L 136.317894 224.877878 
L 138.054909 223.920459 
L 139.791924 240.190334 
L 141.528939 286.403036 
L 143.265954 292.829637 
L 145.002969 247.023681 
L 146.739984 227.593696 
L 148.476999 227.380936 
L 150.214014 221.511266 
L 151.951029 240.108984 
L 153.688044 286.76598 
L 155.425059 308.555097 
L 157.162074 247.18638 
L 158.899089 223.545 
L 160.636104 222.631384 
L 162.373119 218.689068 
L 164.110133 234.477104 
L 165.847148 254.670522 
L 167.584163 295.276376 
L 169.321178 243.275352 
L 171.058193 219.433728 
L 172.795208 227.34339 
L 174.532223 214.308717 
L 176.269238 239.37684 
L 178.006253 279.594719 
L 179.743268 286.121442 
L 181.480283 369.517067 
L 183.217298 260.214795 
L 184.954313 224.389782 
L 186.691328 178.73401 
L 188.428343 170.580299 
L 190.165358 225.641311 
L 191.902373 263.719076 
L 193.639388 229.189395 
L 195.376403 214.390066 
L 197.113418 209.978427 
L 198.850433 210.059777 
L 200.587448 227.005477 
L 202.324463 267.235872 
L 204.061478 291.152588 
L 205.798493 243.844798 
L 207.535508 217.237295 
L 209.272523 225.478612 
L 211.009538 206.94347 
L 212.746553 219.602684 
L 214.483568 266.015631 
L 216.220583 293.098715 
L 217.957598 243.982466 
L 219.694613 219.271029 
L 221.431628 218.782933 
L 223.168643 225.37849 
L 226.642673 270.715122 
L 228.379688 280.270545 
L 230.116703 243.100138 
L 231.853717 227.650015 
L 233.590732 228.388417 
L 235.327747 218.745387 
L 237.064762 241.829836 
L 238.801777 283.099 
L 240.538792 301.446413 
L 242.275807 241.892413 
L 244.012822 218.689068 
L 245.749837 218.000727 
L 247.486852 221.755314 
L 249.223867 289.531858 
L 250.960882 281.847471 
L 252.697897 293.874663 
L 254.434912 299.03722 
L 256.171927 234.364467 
L 257.908942 222.449912 
L 259.645957 223.826594 
L 261.382972 281.37189 
L 263.119987 272.711311 
L 264.857002 294.512943 
L 266.594017 245.521846 
L 268.331032 220.791636 
L 270.068047 222.468685 
L 271.805062 205.053661 
L 273.542077 237.555865 
L 275.279092 283.199122 
L 277.016107 300.44519 
L 278.753122 243.312898 
L 280.490137 219.352378 
L 282.227152 228.588661 
L 283.964167 221.329794 
L 285.701182 240.697203 
L 287.438197 276.960251 
L 289.175212 301.42764 
L 290.912227 244.213999 
L 292.649242 221.49875 
L 294.386257 223.469908 
L 296.123272 221.411143 
L 297.860287 238.219176 
L 299.597301 261.516385 
L 301.334316 293.480432 
L 303.071331 241.016343 
L 304.808346 212.656699 
L 306.545361 220.190903 
L 308.282376 221.47372 
L 310.019391 231.942758 
L 311.756406 249.739499 
L 313.493421 289.669526 
L 315.230436 244.026269 
L 316.967451 222.662672 
L 318.704466 222.56255 
L 320.441481 221.918012 
L 322.178496 230.39712 
L 323.915511 289.118854 
L 325.652526 309.387363 
L 327.389541 315.476051 
L 329.126556 221.523781 
L 330.863571 229.433443 
L 332.600586 215.610307 
L 334.337601 253.005989 
L 336.074616 372.301718 
L 337.811631 284.700957 
L 339.548646 308.185896 
L 341.285661 231.78006 
L 343.022676 240.722233 
L 344.759691 214.177307 
L 346.496706 241.12898 
L 348.233721 288.993701 
L 349.970736 377.933598 
L 351.707751 246.466751 
L 353.444766 222.080711 
L 355.181781 224.796529 
L 356.918796 240.403093 
L 358.655811 371.187858 
L 360.392826 266.691457 
L 362.129841 298.617958 
L 363.866856 245.509331 
L 365.603871 231.573557 
L 367.340886 225.885359 
L 369.0779 219.602684 
L 370.814915 244.633261 
L 372.55193 335.450452 
L 374.288945 304.287383 
L 376.02596 377.364153 
L 377.762975 221.110776 
L 379.49999 232.881405 
L 381.237005 371.093993 
L 382.97402 232.756252 
L 386.44805 296.452813 
L 388.185065 237.355621 
L 389.92208 226.511123 
L 391.659095 220.641453 
L 393.39611 201.305332 
L 395.133125 220.966851 
L 396.87014 260.846817 
L 398.607155 294.563004 
L 400.34417 241.297937 
L 402.081185 213.126022 
L 403.8182 219.990658 
L 405.555215 209.9972 
L 407.29223 229.62743 
L 409.029245 275.639888 
L 410.76626 298.154892 
L 412.503275 253.05605 
L 414.24029 213.357555 
L 415.977305 221.354824 
L 417.71432 217.174718 
L 419.451335 236.291821 
L 421.18835 282.01017 
L 422.925365 286.015062 
L 424.66238 230.828898 
L 426.399395 223.976777 
L 428.13641 220.62268 
L 429.873425 209.421497 
L 433.347455 263.23098 
L 435.08447 281.885017 
L 436.821484 244.708353 
L 438.558499 376.181458 
L 440.295514 222.656414 
L 442.032529 217.894347 
L 443.769544 240.378063 
L 445.506559 277.035343 
L 447.243574 295.79576 
L 448.980589 237.86249 
L 450.717604 214.584053 
L 452.454619 222.412366 
L 454.191634 218.188457 
L 455.928649 230.979081 
L 459.402679 298.336364 
L 461.139694 249.526739 
L 462.876709 219.565138 
L 464.613724 215.785521 
L 466.350739 214.771783 
L 468.087754 231.160553 
L 469.824769 267.605073 
L 471.561784 283.474459 
L 473.298799 241.147753 
L 475.035814 223.701441 
L 476.772829 226.504866 
L 478.509844 212.406393 
L 480.246859 245.67203 
L 481.983874 290.226457 
L 483.720889 312.797779 
L 485.457904 245.553135 
L 487.194919 229.007923 
L 488.931934 220.647711 
L 490.668949 206.480404 
L 492.405964 236.980162 
L 494.142979 286.753464 
L 495.879994 311.508705 
L 497.617009 249.288948 
L 499.354024 230.47847 
L 501.091039 231.066688 
L 502.828054 221.279733 
L 504.565068 248.024904 
L 506.302083 382.47039 
L 509.776113 296.202507 
L 511.513128 233.632322 
L 513.250143 221.311021 
L 514.987158 222.024392 
L 516.724173 239.408128 
L 518.461188 286.44684 
L 520.198203 306.665288 
L 521.935218 245.309087 
L 523.672233 232.349505 
L 525.409248 227.437255 
L 527.146263 220.641453 
L 528.883278 287.316652 
L 530.620293 286.872359 
L 532.357308 303.893152 
L 534.094323 250.42784 
L 535.831338 225.340944 
L 537.568353 229.796387 
L 539.305368 225.153215 
L 541.042383 242.868605 
L 542.779398 275.652403 
L 544.516413 298.023481 
L 546.253428 240.847386 
L 547.990443 219.314832 
L 549.727458 223.20083 
L 551.464473 214.496446 
L 553.201488 235.691087 
L 554.938503 281.734834 
L 556.675518 296.271341 
L 558.412533 238.494512 
L 560.149548 225.078123 
L 561.886563 224.352236 
L 563.623578 224.358494 
L 565.360593 249.539254 
L 567.097608 285.921198 
L 568.834623 298.736853 
L 570.571638 238.73856 
L 572.308652 230.390863 
L 575.782682 226.924128 
L 577.519697 245.659515 
L 579.256712 269.663838 
L 580.993727 304.612781 
L 582.730742 250.202564 
L 584.467757 225.459839 
L 586.204772 219.715322 
L 589.678802 203.48925 
L 591.415817 242.612042 
L 593.152832 290.883509 
L 594.889847 261.42252 
L 596.626862 277.373256 
L 598.363877 229.420928 
L 600.100892 217.919378 
L 601.837907 247.029939 
L 603.574922 257.962043 
L 605.311937 300.97709 
L 607.048952 241.435605 
L 608.785967 223.482424 
L 610.522982 214.56528 
L 612.259997 215.134726 
L 613.997012 245.765895 
L 615.734027 281.090296 
L 617.471042 295.213799 
L 619.208057 244.013754 
L 620.945072 227.524862 
L 624.419102 210.497812 
L 626.156117 234.226799 
L 627.893132 274.820137 
L 629.630147 297.804464 
L 631.367162 239.308006 
L 633.104177 223.100707 
L 634.841192 220.19716 
L 636.578207 218.319867 
L 638.315222 239.364325 
L 640.052236 283.399367 
L 641.789251 296.953424 
L 643.526266 245.521846 
L 645.263281 227.268298 
L 647.000296 217.775452 
L 648.737311 214.120988 
L 650.474326 208.13868 
L 652.211341 253.225006 
L 653.948356 290.764614 
L 655.685371 244.946143 
L 657.422386 225.941678 
L 659.159401 223.532485 
L 660.896416 209.903336 
L 662.633431 222.618869 
L 664.370446 279.594719 
L 666.107461 293.630615 
L 667.844476 248.293983 
L 669.581491 290.883509 
L 671.318506 211.179895 
L 673.055521 228.976635 
L 674.792536 251.904644 
L 676.529551 286.058866 
L 678.266566 303.304933 
L 680.003581 270.514877 
L 681.740596 271.353402 
L 683.477611 297.247534 
L 685.214626 317.440951 
L 686.951641 298.705565 
L 688.688656 287.435547 
L 690.425671 288.831002 
L 692.162686 289.137627 
L 693.899701 299.969609 
L 695.636716 279.888829 
L 695.636716 279.888829 
" clip-path="url(#p3ccde32a0c)" style="fill: none; stroke: #83c966; stroke-opacity: 0.8; stroke-width: 2.5; stroke-linecap: square"/>
   </g>
   <g id="patch_3">
    <path d="M 61.62625 384.1975 
L 61.62625 39.3575 
" style="fill: none; stroke: #000000; stroke-width: 0.8; stroke-linejoin: miter; stroke-linecap: square"/>
   </g>
   <g id="patch_4">
    <path d="M 61.62625 384.1975 
L 704.321791 384.1975 
" style="fill: none; stroke: #000000; stroke-width: 0.8; stroke-linejoin: miter; stroke-linecap: square"/>
   </g>
   <g id="text_22">
    <!-- Pedestrian Traffic at Spencer St-Collins St (North) -->
    <g transform="translate(186.20402 19.3575) scale(0.16 -0.16)">
     <defs>
      <path id="DejaVuSans-50" d="M 1259 4147 
L 1259 2394 
L 2053 2394 
Q 2494 2394 2734 2622 
Q 2975 2850 2975 3272 
Q 2975 3691 2734 3919 
Q 2494 4147 2053 4147 
L 1259 4147 
z
M 628 4666 
L 2053 4666 
Q 2838 4666 3239 4311 
Q 3641 3956 3641 3272 
Q 3641 2581 3239 2228 
Q 2838 1875 2053 1875 
L 1259 1875 
L 1259 0 
L 628 0 
L 628 4666 
z
" transform="scale(0.015625)"/>
      <path id="DejaVuSans-54" d="M -19 4666 
L 3928 4666 
L 3928 4134 
L 2272 4134 
L 2272 0 
L 1638 0 
L 1638 4134 
L -19 4134 
L -19 4666 
z
" transform="scale(0.015625)"/>
      <path id="DejaVuSans-2d" d="M 313 2009 
L 1997 2009 
L 1997 1497 
L 313 1497 
L 313 2009 
z
" transform="scale(0.015625)"/>
      <path id="DejaVuSans-43" d="M 4122 4306 
L 4122 3641 
Q 3803 3938 3442 4084 
Q 3081 4231 2675 4231 
Q 1875 4231 1450 3742 
Q 1025 3253 1025 2328 
Q 1025 1406 1450 917 
Q 1875 428 2675 428 
Q 3081 428 3442 575 
Q 3803 722 4122 1019 
L 4122 359 
Q 3791 134 3420 21 
Q 3050 -91 2638 -91 
Q 1578 -91 968 557 
Q 359 1206 359 2328 
Q 359 3453 968 4101 
Q 1578 4750 2638 4750 
Q 3056 4750 3426 4639 
Q 3797 4528 4122 4306 
z
" transform="scale(0.015625)"/>
      <path id="DejaVuSans-28" d="M 1984 4856 
Q 1566 4138 1362 3434 
Q 1159 2731 1159 2009 
Q 1159 1288 1364 580 
Q 1569 -128 1984 -844 
L 1484 -844 
Q 1016 -109 783 600 
Q 550 1309 550 2009 
Q 550 2706 781 3412 
Q 1013 4119 1484 4856 
L 1984 4856 
z
" transform="scale(0.015625)"/>
      <path id="DejaVuSans-29" d="M 513 4856 
L 1013 4856 
Q 1481 4119 1714 3412 
Q 1947 2706 1947 2009 
Q 1947 1309 1714 600 
Q 1481 -109 1013 -844 
L 513 -844 
Q 928 -128 1133 580 
Q 1338 1288 1338 2009 
Q 1338 2731 1133 3434 
Q 928 4138 513 4856 
z
" transform="scale(0.015625)"/>
     </defs>
     <use xlink:href="#DejaVuSans-50"/>
     <use xlink:href="#DejaVuSans-65" transform="translate(56.677734 0)"/>
     <use xlink:href="#DejaVuSans-64" transform="translate(118.201172 0)"/>
     <use xlink:href="#DejaVuSans-65" transform="translate(181.677734 0)"/>
     <use xlink:href="#DejaVuSans-73" transform="translate(243.201172 0)"/>
     <use xlink:href="#DejaVuSans-74" transform="translate(295.300781 0)"/>
     <use xlink:href="#DejaVuSans-72" transform="translate(334.509766 0)"/>
     <use xlink:href="#DejaVuSans-69" transform="translate(375.623047 0)"/>
     <use xlink:href="#DejaVuSans-61" transform="translate(403.40625 0)"/>
     <use xlink:href="#DejaVuSans-6e" transform="translate(464.685547 0)"/>
     <use xlink:href="#DejaVuSans-20" transform="translate(528.064453 0)"/>
     <use xlink:href="#DejaVuSans-54" transform="translate(559.851562 0)"/>
     <use xlink:href="#DejaVuSans-72" transform="translate(606.185547 0)"/>
     <use xlink:href="#DejaVuSans-61" transform="translate(647.298828 0)"/>
     <use xlink:href="#DejaVuSans-66" transform="translate(708.578125 0)"/>
     <use xlink:href="#DejaVuSans-66" transform="translate(743.783203 0)"/>
     <use xlink:href="#DejaVuSans-69" transform="translate(778.988281 0)"/>
     <use xlink:href="#DejaVuSans-63" transform="translate(806.771484 0)"/>
     <use xlink:href="#DejaVuSans-20" transform="translate(861.751953 0)"/>
     <use xlink:href="#DejaVuSans-61" transform="translate(893.539062 0)"/>
     <use xlink:href="#DejaVuSans-74" transform="translate(954.818359 0)"/>
     <use xlink:href="#DejaVuSans-20" transform="translate(994.027344 0)"/>
     <use xlink:href="#DejaVuSans-53" transform="translate(1025.814453 0)"/>
     <use xlink:href="#DejaVuSans-70" transform="translate(1089.291016 0)"/>
     <use xlink:href="#DejaVuSans-65" transform="translate(1152.767578 0)"/>
     <use xlink:href="#DejaVuSans-6e" transform="translate(1214.291016 0)"/>
     <use xlink:href="#DejaVuSans-63" transform="translate(1277.669922 0)"/>
     <use xlink:href="#DejaVuSans-65" transform="translate(1332.650391 0)"/>
     <use xlink:href="#DejaVuSans-72" transform="translate(1394.173828 0)"/>
     <use xlink:href="#DejaVuSans-20" transform="translate(1435.287109 0)"/>
     <use xlink:href="#DejaVuSans-53" transform="translate(1467.074219 0)"/>
     <use xlink:href="#DejaVuSans-74" transform="translate(1530.550781 0)"/>
     <use xlink:href="#DejaVuSans-2d" transform="translate(1569.759766 0)"/>
     <use xlink:href="#DejaVuSans-43" transform="translate(1605.84375 0)"/>
     <use xlink:href="#DejaVuSans-6f" transform="translate(1675.667969 0)"/>
     <use xlink:href="#DejaVuSans-6c" transform="translate(1736.849609 0)"/>
     <use xlink:href="#DejaVuSans-6c" transform="translate(1764.632812 0)"/>
     <use xlink:href="#DejaVuSans-69" transform="translate(1792.416016 0)"/>
     <use xlink:href="#DejaVuSans-6e" transform="translate(1820.199219 0)"/>
     <use xlink:href="#DejaVuSans-73" transform="translate(1883.578125 0)"/>
     <use xlink:href="#DejaVuSans-20" transform="translate(1935.677734 0)"/>
     <use xlink:href="#DejaVuSans-53" transform="translate(1967.464844 0)"/>
     <use xlink:href="#DejaVuSans-74" transform="translate(2030.941406 0)"/>
     <use xlink:href="#DejaVuSans-20" transform="translate(2070.150391 0)"/>
     <use xlink:href="#DejaVuSans-28" transform="translate(2101.9375 0)"/>
     <use xlink:href="#DejaVuSans-4e" transform="translate(2140.951172 0)"/>
     <use xlink:href="#DejaVuSans-6f" transform="translate(2215.755859 0)"/>
     <use xlink:href="#DejaVuSans-72" transform="translate(2276.9375 0)"/>
     <use xlink:href="#DejaVuSans-74" transform="translate(2318.050781 0)"/>
     <use xlink:href="#DejaVuSans-68" transform="translate(2357.259766 0)"/>
     <use xlink:href="#DejaVuSans-29" transform="translate(2420.638672 0)"/>
    </g>
   </g>
   <g id="legend_1">
    <g id="patch_5">
     <path d="M 69.32625 80.449375 
L 132.52125 80.449375 
Q 134.72125 80.449375 134.72125 78.249375 
L 134.72125 47.0575 
Q 134.72125 44.8575 132.52125 44.8575 
L 69.32625 44.8575 
Q 67.12625 44.8575 67.12625 47.0575 
L 67.12625 78.249375 
Q 67.12625 80.449375 69.32625 80.449375 
z
" style="fill: #ffffff; opacity: 0.95; stroke: #cccccc; stroke-linejoin: miter"/>
    </g>
    <g id="line2d_41">
     <path d="M 71.52625 53.765781 
L 82.52625 53.765781 
L 93.52625 53.765781 
" style="fill: none; stroke: #0d6efc; stroke-opacity: 0.8; stroke-width: 2.5; stroke-linecap: square"/>
    </g>
    <g id="text_23">
     <!-- 2019 -->
     <g transform="translate(102.32625 57.615781) scale(0.11 -0.11)">
      <defs>
       <path id="DejaVuSans-39" d="M 703 97 
L 703 672 
Q 941 559 1184 500 
Q 1428 441 1663 441 
Q 2288 441 2617 861 
Q 2947 1281 2994 2138 
Q 2813 1869 2534 1725 
Q 2256 1581 1919 1581 
Q 1219 1581 811 2004 
Q 403 2428 403 3163 
Q 403 3881 828 4315 
Q 1253 4750 1959 4750 
Q 2769 4750 3195 4129 
Q 3622 3509 3622 2328 
Q 3622 1225 3098 567 
Q 2575 -91 1691 -91 
Q 1453 -91 1209 -44 
Q 966 3 703 97 
z
M 1959 2075 
Q 2384 2075 2632 2365 
Q 2881 2656 2881 3163 
Q 2881 3666 2632 3958 
Q 2384 4250 1959 4250 
Q 1534 4250 1286 3958 
Q 1038 3666 1038 3163 
Q 1038 2656 1286 2365 
Q 1534 2075 1959 2075 
z
" transform="scale(0.015625)"/>
      </defs>
      <use xlink:href="#DejaVuSans-32"/>
      <use xlink:href="#DejaVuSans-30" transform="translate(63.623047 0)"/>
      <use xlink:href="#DejaVuSans-31" transform="translate(127.246094 0)"/>
      <use xlink:href="#DejaVuSans-39" transform="translate(190.869141 0)"/>
     </g>
    </g>
    <g id="line2d_42">
     <path d="M 71.52625 69.911719 
L 82.52625 69.911719 
L 93.52625 69.911719 
" style="fill: none; stroke: #83c966; stroke-opacity: 0.8; stroke-width: 2.5; stroke-linecap: square"/>
    </g>
    <g id="text_24">
     <!-- 2025 -->
     <g transform="translate(102.32625 73.761719) scale(0.11 -0.11)">
      <use xlink:href="#DejaVuSans-32"/>
      <use xlink:href="#DejaVuSans-30" transform="translate(63.623047 0)"/>
      <use xlink:href="#DejaVuSans-32" transform="translate(127.246094 0)"/>
      <use xlink:href="#DejaVuSans-35" transform="translate(190.869141 0)"/>
     </g>
    </g>
   </g>
  </g>
 </g>
 <defs>
  <clipPath id="p3ccde32a0c">
   <rect x="61.62625" y="39.3575" width="642.695541" height="344.84"/>
  </clipPath>
 </defs>
</svg>
