<?xml version="1.0" encoding="utf-8" standalone="no"?>
<!DOCTYPE svg PUBLIC "-//W3C//DTD SVG 1.1//EN"
  "http://www.w3.org/Graphics/SVG/1.1/DTD/svg11.dtd">
<svg xmlns:xlink="http://www.w3.org/1999/xlink" width="855.61375pt" height="423.689375pt" viewBox="0 0 855.61375 423.689375" xmlns="http://www.w3.org/2000/svg" version="1.1">
 <metadata>
  <rdf:RDF xmlns:dc="http://purl.org/dc/elements/1.1/" xmlns:cc="http://creativecommons.org/ns#" xmlns:rdf="http://www.w3.org/1999/02/22-rdf-syntax-ns#">
   <cc:Work>
    <dc:type rdf:resource="http://purl.org/dc/dcmitype/StillImage"/>
    <dc:date>2026-01-27T16:21:59.391544</dc:date>
    <dc:format>image/svg+xml</dc:format>
    <dc:creator>
     <cc:Agent>
      <dc:title>Matplotlib v3.10.8, https://matplotlib.org/</dc:title>
     </cc:Agent>
    </dc:creator>
   </cc:Work>
  </rdf:RDF>
 </metadata>
 <defs>
  <style type="text/css">*{stroke-linejoin: round; stroke-linecap: butt}</style>
 </defs>
 <g id="figure_1">
  <g id="patch_1">
   <path d="M 0 423.689375 
L 855.61375 423.689375 
L 855.61375 0 
L 0 0 
L 0 423.689375 
z
" style="fill: none"/>
  </g>
  <g id="axes_1">
   <g id="patch_2">
    <path d="M 55.26375 384.1975 
L 848.41375 384.1975 
L 848.41375 39.3575 
L 55.26375 39.3575 
L 55.26375 384.1975 
z
" style="fill: none"/>
   </g>
   <g id="matplotlib.axis_1">
    <g id="xtick_1">
     <g id="line2d_1">
      <path d="M 55.26375 384.1975 
L 55.26375 39.3575 
" clip-path="url(#pb19785e63d)" style="fill: none; stroke-dasharray: 2.96,1.28; stroke-dashoffset: 0; stroke: #b0b0b0; stroke-opacity: 0.3; stroke-width: 0.8"/>
     </g>
     <g id="line2d_2">
      <defs>
       <path id="m8be12169a8" d="M 0 0 
L 0 3.5 
" style="stroke: #000000; stroke-width: 0.8"/>
      </defs>
      <g>
       <use xlink:href="#m8be12169a8" x="55.26375" y="384.1975" style="stroke: #000000; stroke-width: 0.8"/>
      </g>
     </g>
     <g id="text_1">
      <!-- Jan -->
      <g transform="translate(47.555938 398.795937) scale(0.1 -0.1)">
       <defs>
        <path id="DejaVuSans-4a" d="M 628 4666 
L 1259 4666 
L 1259 325 
Q 1259 -519 939 -900 
Q 619 -1281 -91 -1281 
L -331 -1281 
L -331 -750 
L -134 -750 
Q 284 -750 456 -515 
Q 628 -281 628 325 
L 628 4666 
z
" transform="scale(0.015625)"/>
        <path id="DejaVuSans-61" d="M 2194 1759 
Q 1497 1759 1228 1600 
Q 959 1441 959 1056 
Q 959 750 1161 570 
Q 1363 391 1709 391 
Q 2188 391 2477 730 
Q 2766 1069 2766 1631 
L 2766 1759 
L 2194 1759 
z
M 3341 1997 
L 3341 0 
L 2766 0 
L 2766 531 
Q 2569 213 2275 61 
Q 1981 -91 1556 -91 
Q 1019 -91 701 211 
Q 384 513 384 1019 
Q 384 1609 779 1909 
Q 1175 2209 1959 2209 
L 2766 2209 
L 2766 2266 
Q 2766 2663 2505 2880 
Q 2244 3097 1772 3097 
Q 1472 3097 1187 3025 
Q 903 2953 641 2809 
L 641 3341 
Q 956 3463 1253 3523 
Q 1550 3584 1831 3584 
Q 2591 3584 2966 3190 
Q 3341 2797 3341 1997 
z
" transform="scale(0.015625)"/>
        <path id="DejaVuSans-6e" d="M 3513 2113 
L 3513 0 
L 2938 0 
L 2938 2094 
Q 2938 2591 2744 2837 
Q 2550 3084 2163 3084 
Q 1697 3084 1428 2787 
Q 1159 2491 1159 1978 
L 1159 0 
L 581 0 
L 581 3500 
L 1159 3500 
L 1159 2956 
Q 1366 3272 1645 3428 
Q 1925 3584 2291 3584 
Q 2894 3584 3203 3211 
Q 3513 2838 3513 2113 
z
" transform="scale(0.015625)"/>
       </defs>
       <use xlink:href="#DejaVuSans-4a"/>
       <use xlink:href="#DejaVuSans-61" transform="translate(29.492188 0)"/>
       <use xlink:href="#DejaVuSans-6e" transform="translate(90.771484 0)"/>
      </g>
     </g>
    </g>
    <g id="xtick_2">
     <g id="line2d_3">
      <path d="M 121.716858 384.1975 
L 121.716858 39.3575 
" clip-path="url(#pb19785e63d)" style="fill: none; stroke-dasharray: 2.96,1.28; stroke-dashoffset: 0; stroke: #b0b0b0; stroke-opacity: 0.3; stroke-width: 0.8"/>
     </g>
     <g id="line2d_4">
      <g>
       <use xlink:href="#m8be12169a8" x="121.716858" y="384.1975" style="stroke: #000000; stroke-width: 0.8"/>
      </g>
     </g>
     <g id="text_2">
      <!-- Feb -->
      <g transform="translate(112.865296 398.795937) scale(0.1 -0.1)">
       <defs>
        <path id="DejaVuSans-46" d="M 628 4666 
L 3309 4666 
L 3309 4134 
L 1259 4134 
L 1259 2759 
L 3109 2759 
L 3109 2228 
L 1259 2228 
L 1259 0 
L 628 0 
L 628 4666 
z
" transform="scale(0.015625)"/>
        <path id="DejaVuSans-65" d="M 3597 1894 
L 3597 1613 
L 953 1613 
Q 991 1019 1311 708 
Q 1631 397 2203 397 
Q 2534 397 2845 478 
Q 3156 559 3463 722 
L 3463 178 
Q 3153 47 2828 -22 
Q 2503 -91 2169 -91 
Q 1331 -91 842 396 
Q 353 884 353 1716 
Q 353 2575 817 3079 
Q 1281 3584 2069 3584 
Q 2775 3584 3186 3129 
Q 3597 2675 3597 1894 
z
M 3022 2063 
Q 3016 2534 2758 2815 
Q 2500 3097 2075 3097 
Q 1594 3097 1305 2825 
Q 1016 2553 972 2059 
L 3022 2063 
z
" transform="scale(0.015625)"/>
        <path id="DejaVuSans-62" d="M 3116 1747 
Q 3116 2381 2855 2742 
Q 2594 3103 2138 3103 
Q 1681 3103 1420 2742 
Q 1159 2381 1159 1747 
Q 1159 1113 1420 752 
Q 1681 391 2138 391 
Q 2594 391 2855 752 
Q 3116 1113 3116 1747 
z
M 1159 2969 
Q 1341 3281 1617 3432 
Q 1894 3584 2278 3584 
Q 2916 3584 3314 3078 
Q 3713 2572 3713 1747 
Q 3713 922 3314 415 
Q 2916 -91 2278 -91 
Q 1894 -91 1617 61 
Q 1341 213 1159 525 
L 1159 0 
L 581 0 
L 581 4863 
L 1159 4863 
L 1159 2969 
z
" transform="scale(0.015625)"/>
       </defs>
       <use xlink:href="#DejaVuSans-46"/>
       <use xlink:href="#DejaVuSans-65" transform="translate(52.019531 0)"/>
       <use xlink:href="#DejaVuSans-62" transform="translate(113.542969 0)"/>
      </g>
     </g>
    </g>
    <g id="xtick_3">
     <g id="line2d_5">
      <path d="M 181.73902 384.1975 
L 181.73902 39.3575 
" clip-path="url(#pb19785e63d)" style="fill: none; stroke-dasharray: 2.96,1.28; stroke-dashoffset: 0; stroke: #b0b0b0; stroke-opacity: 0.3; stroke-width: 0.8"/>
     </g>
     <g id="line2d_6">
      <g>
       <use xlink:href="#m8be12169a8" x="181.73902" y="384.1975" style="stroke: #000000; stroke-width: 0.8"/>
      </g>
     </g>
     <g id="text_3">
      <!-- Mar -->
      <g transform="translate(172.305427 398.795937) scale(0.1 -0.1)">
       <defs>
        <path id="DejaVuSans-4d" d="M 628 4666 
L 1569 4666 
L 2759 1491 
L 3956 4666 
L 4897 4666 
L 4897 0 
L 4281 0 
L 4281 4097 
L 3078 897 
L 2444 897 
L 1241 4097 
L 1241 0 
L 628 0 
L 628 4666 
z
" transform="scale(0.015625)"/>
        <path id="DejaVuSans-72" d="M 2631 2963 
Q 2534 3019 2420 3045 
Q 2306 3072 2169 3072 
Q 1681 3072 1420 2755 
Q 1159 2438 1159 1844 
L 1159 0 
L 581 0 
L 581 3500 
L 1159 3500 
L 1159 2956 
Q 1341 3275 1631 3429 
Q 1922 3584 2338 3584 
Q 2397 3584 2469 3576 
Q 2541 3569 2628 3553 
L 2631 2963 
z
" transform="scale(0.015625)"/>
       </defs>
       <use xlink:href="#DejaVuSans-4d"/>
       <use xlink:href="#DejaVuSans-61" transform="translate(86.279297 0)"/>
       <use xlink:href="#DejaVuSans-72" transform="translate(147.558594 0)"/>
      </g>
     </g>
    </g>
    <g id="xtick_4">
     <g id="line2d_7">
      <path d="M 248.192128 384.1975 
L 248.192128 39.3575 
" clip-path="url(#pb19785e63d)" style="fill: none; stroke-dasharray: 2.96,1.28; stroke-dashoffset: 0; stroke: #b0b0b0; stroke-opacity: 0.3; stroke-width: 0.8"/>
     </g>
     <g id="line2d_8">
      <g>
       <use xlink:href="#m8be12169a8" x="248.192128" y="384.1975" style="stroke: #000000; stroke-width: 0.8"/>
      </g>
     </g>
     <g id="text_4">
      <!-- Apr -->
      <g transform="translate(239.542128 398.795937) scale(0.1 -0.1)">
       <defs>
        <path id="DejaVuSans-41" d="M 2188 4044 
L 1331 1722 
L 3047 1722 
L 2188 4044 
z
M 1831 4666 
L 2547 4666 
L 4325 0 
L 3669 0 
L 3244 1197 
L 1141 1197 
L 716 0 
L 50 0 
L 1831 4666 
z
" transform="scale(0.015625)"/>
        <path id="DejaVuSans-70" d="M 1159 525 
L 1159 -1331 
L 581 -1331 
L 581 3500 
L 1159 3500 
L 1159 2969 
Q 1341 3281 1617 3432 
Q 1894 3584 2278 3584 
Q 2916 3584 3314 3078 
Q 3713 2572 3713 1747 
Q 3713 922 3314 415 
Q 2916 -91 2278 -91 
Q 1894 -91 1617 61 
Q 1341 213 1159 525 
z
M 3116 1747 
Q 3116 2381 2855 2742 
Q 2594 3103 2138 3103 
Q 1681 3103 1420 2742 
Q 1159 2381 1159 1747 
Q 1159 1113 1420 752 
Q 1681 391 2138 391 
Q 2594 391 2855 752 
Q 3116 1113 3116 1747 
z
" transform="scale(0.015625)"/>
       </defs>
       <use xlink:href="#DejaVuSans-41"/>
       <use xlink:href="#DejaVuSans-70" transform="translate(68.408203 0)"/>
       <use xlink:href="#DejaVuSans-72" transform="translate(131.884766 0)"/>
      </g>
     </g>
    </g>
    <g id="xtick_5">
     <g id="line2d_9">
      <path d="M 312.501588 384.1975 
L 312.501588 39.3575 
" clip-path="url(#pb19785e63d)" style="fill: none; stroke-dasharray: 2.96,1.28; stroke-dashoffset: 0; stroke: #b0b0b0; stroke-opacity: 0.3; stroke-width: 0.8"/>
     </g>
     <g id="line2d_10">
      <g>
       <use xlink:href="#m8be12169a8" x="312.501588" y="384.1975" style="stroke: #000000; stroke-width: 0.8"/>
      </g>
     </g>
     <g id="text_5">
      <!-- May -->
      <g transform="translate(302.164088 398.795937) scale(0.1 -0.1)">
       <defs>
        <path id="DejaVuSans-79" d="M 2059 -325 
Q 1816 -950 1584 -1140 
Q 1353 -1331 966 -1331 
L 506 -1331 
L 506 -850 
L 844 -850 
Q 1081 -850 1212 -737 
Q 1344 -625 1503 -206 
L 1606 56 
L 191 3500 
L 800 3500 
L 1894 763 
L 2988 3500 
L 3597 3500 
L 2059 -325 
z
" transform="scale(0.015625)"/>
       </defs>
       <use xlink:href="#DejaVuSans-4d"/>
       <use xlink:href="#DejaVuSans-61" transform="translate(86.279297 0)"/>
       <use xlink:href="#DejaVuSans-79" transform="translate(147.558594 0)"/>
      </g>
     </g>
    </g>
    <g id="xtick_6">
     <g id="line2d_11">
      <path d="M 378.954696 384.1975 
L 378.954696 39.3575 
" clip-path="url(#pb19785e63d)" style="fill: none; stroke-dasharray: 2.96,1.28; stroke-dashoffset: 0; stroke: #b0b0b0; stroke-opacity: 0.3; stroke-width: 0.8"/>
     </g>
     <g id="line2d_12">
      <g>
       <use xlink:href="#m8be12169a8" x="378.954696" y="384.1975" style="stroke: #000000; stroke-width: 0.8"/>
      </g>
     </g>
     <g id="text_6">
      <!-- Jun -->
      <g transform="translate(371.142196 398.795937) scale(0.1 -0.1)">
       <defs>
        <path id="DejaVuSans-75" d="M 544 1381 
L 544 3500 
L 1119 3500 
L 1119 1403 
Q 1119 906 1312 657 
Q 1506 409 1894 409 
Q 2359 409 2629 706 
Q 2900 1003 2900 1516 
L 2900 3500 
L 3475 3500 
L 3475 0 
L 2900 0 
L 2900 538 
Q 2691 219 2414 64 
Q 2138 -91 1772 -91 
Q 1169 -91 856 284 
Q 544 659 544 1381 
z
M 1991 3584 
L 1991 3584 
z
" transform="scale(0.015625)"/>
       </defs>
       <use xlink:href="#DejaVuSans-4a"/>
       <use xlink:href="#DejaVuSans-75" transform="translate(29.492188 0)"/>
       <use xlink:href="#DejaVuSans-6e" transform="translate(92.871094 0)"/>
      </g>
     </g>
    </g>
    <g id="xtick_7">
     <g id="line2d_13">
      <path d="M 443.264155 384.1975 
L 443.264155 39.3575 
" clip-path="url(#pb19785e63d)" style="fill: none; stroke-dasharray: 2.96,1.28; stroke-dashoffset: 0; stroke: #b0b0b0; stroke-opacity: 0.3; stroke-width: 0.8"/>
     </g>
     <g id="line2d_14">
      <g>
       <use xlink:href="#m8be12169a8" x="443.264155" y="384.1975" style="stroke: #000000; stroke-width: 0.8"/>
      </g>
     </g>
     <g id="text_7">
      <!-- Jul -->
      <g transform="translate(437.231343 398.795937) scale(0.1 -0.1)">
       <defs>
        <path id="DejaVuSans-6c" d="M 603 4863 
L 1178 4863 
L 1178 0 
L 603 0 
L 603 4863 
z
" transform="scale(0.015625)"/>
       </defs>
       <use xlink:href="#DejaVuSans-4a"/>
       <use xlink:href="#DejaVuSans-75" transform="translate(29.492188 0)"/>
       <use xlink:href="#DejaVuSans-6c" transform="translate(92.871094 0)"/>
      </g>
     </g>
    </g>
    <g id="xtick_8">
     <g id="line2d_15">
      <path d="M 509.717264 384.1975 
L 509.717264 39.3575 
" clip-path="url(#pb19785e63d)" style="fill: none; stroke-dasharray: 2.96,1.28; stroke-dashoffset: 0; stroke: #b0b0b0; stroke-opacity: 0.3; stroke-width: 0.8"/>
     </g>
     <g id="line2d_16">
      <g>
       <use xlink:href="#m8be12169a8" x="509.717264" y="384.1975" style="stroke: #000000; stroke-width: 0.8"/>
      </g>
     </g>
     <g id="text_8">
      <!-- Aug -->
      <g transform="translate(499.953982 398.795937) scale(0.1 -0.1)">
       <defs>
        <path id="DejaVuSans-67" d="M 2906 1791 
Q 2906 2416 2648 2759 
Q 2391 3103 1925 3103 
Q 1463 3103 1205 2759 
Q 947 2416 947 1791 
Q 947 1169 1205 825 
Q 1463 481 1925 481 
Q 2391 481 2648 825 
Q 2906 1169 2906 1791 
z
M 3481 434 
Q 3481 -459 3084 -895 
Q 2688 -1331 1869 -1331 
Q 1566 -1331 1297 -1286 
Q 1028 -1241 775 -1147 
L 775 -588 
Q 1028 -725 1275 -790 
Q 1522 -856 1778 -856 
Q 2344 -856 2625 -561 
Q 2906 -266 2906 331 
L 2906 616 
Q 2728 306 2450 153 
Q 2172 0 1784 0 
Q 1141 0 747 490 
Q 353 981 353 1791 
Q 353 2603 747 3093 
Q 1141 3584 1784 3584 
Q 2172 3584 2450 3431 
Q 2728 3278 2906 2969 
L 2906 3500 
L 3481 3500 
L 3481 434 
z
" transform="scale(0.015625)"/>
       </defs>
       <use xlink:href="#DejaVuSans-41"/>
       <use xlink:href="#DejaVuSans-75" transform="translate(68.408203 0)"/>
       <use xlink:href="#DejaVuSans-67" transform="translate(131.787109 0)"/>
      </g>
     </g>
    </g>
    <g id="xtick_9">
     <g id="line2d_17">
      <path d="M 576.170372 384.1975 
L 576.170372 39.3575 
" clip-path="url(#pb19785e63d)" style="fill: none; stroke-dasharray: 2.96,1.28; stroke-dashoffset: 0; stroke: #b0b0b0; stroke-opacity: 0.3; stroke-width: 0.8"/>
     </g>
     <g id="line2d_18">
      <g>
       <use xlink:href="#m8be12169a8" x="576.170372" y="384.1975" style="stroke: #000000; stroke-width: 0.8"/>
      </g>
     </g>
     <g id="text_9">
      <!-- Sep -->
      <g transform="translate(566.745372 398.795937) scale(0.1 -0.1)">
       <defs>
        <path id="DejaVuSans-53" d="M 3425 4513 
L 3425 3897 
Q 3066 4069 2747 4153 
Q 2428 4238 2131 4238 
Q 1616 4238 1336 4038 
Q 1056 3838 1056 3469 
Q 1056 3159 1242 3001 
Q 1428 2844 1947 2747 
L 2328 2669 
Q 3034 2534 3370 2195 
Q 3706 1856 3706 1288 
Q 3706 609 3251 259 
Q 2797 -91 1919 -91 
Q 1588 -91 1214 -16 
Q 841 59 441 206 
L 441 856 
Q 825 641 1194 531 
Q 1563 422 1919 422 
Q 2459 422 2753 634 
Q 3047 847 3047 1241 
Q 3047 1584 2836 1778 
Q 2625 1972 2144 2069 
L 1759 2144 
Q 1053 2284 737 2584 
Q 422 2884 422 3419 
Q 422 4038 858 4394 
Q 1294 4750 2059 4750 
Q 2388 4750 2728 4690 
Q 3069 4631 3425 4513 
z
" transform="scale(0.015625)"/>
       </defs>
       <use xlink:href="#DejaVuSans-53"/>
       <use xlink:href="#DejaVuSans-65" transform="translate(63.476562 0)"/>
       <use xlink:href="#DejaVuSans-70" transform="translate(125 0)"/>
      </g>
     </g>
    </g>
    <g id="xtick_10">
     <g id="line2d_19">
      <path d="M 640.479831 384.1975 
L 640.479831 39.3575 
" clip-path="url(#pb19785e63d)" style="fill: none; stroke-dasharray: 2.96,1.28; stroke-dashoffset: 0; stroke: #b0b0b0; stroke-opacity: 0.3; stroke-width: 0.8"/>
     </g>
     <g id="line2d_20">
      <g>
       <use xlink:href="#m8be12169a8" x="640.479831" y="384.1975" style="stroke: #000000; stroke-width: 0.8"/>
      </g>
     </g>
     <g id="text_10">
      <!-- Oct -->
      <g transform="translate(631.834519 398.795937) scale(0.1 -0.1)">
       <defs>
        <path id="DejaVuSans-4f" d="M 2522 4238 
Q 1834 4238 1429 3725 
Q 1025 3213 1025 2328 
Q 1025 1447 1429 934 
Q 1834 422 2522 422 
Q 3209 422 3611 934 
Q 4013 1447 4013 2328 
Q 4013 3213 3611 3725 
Q 3209 4238 2522 4238 
z
M 2522 4750 
Q 3503 4750 4090 4092 
Q 4678 3434 4678 2328 
Q 4678 1225 4090 567 
Q 3503 -91 2522 -91 
Q 1538 -91 948 565 
Q 359 1222 359 2328 
Q 359 3434 948 4092 
Q 1538 4750 2522 4750 
z
" transform="scale(0.015625)"/>
        <path id="DejaVuSans-63" d="M 3122 3366 
L 3122 2828 
Q 2878 2963 2633 3030 
Q 2388 3097 2138 3097 
Q 1578 3097 1268 2742 
Q 959 2388 959 1747 
Q 959 1106 1268 751 
Q 1578 397 2138 397 
Q 2388 397 2633 464 
Q 2878 531 3122 666 
L 3122 134 
Q 2881 22 2623 -34 
Q 2366 -91 2075 -91 
Q 1284 -91 818 406 
Q 353 903 353 1747 
Q 353 2603 823 3093 
Q 1294 3584 2113 3584 
Q 2378 3584 2631 3529 
Q 2884 3475 3122 3366 
z
" transform="scale(0.015625)"/>
        <path id="DejaVuSans-74" d="M 1172 4494 
L 1172 3500 
L 2356 3500 
L 2356 3053 
L 1172 3053 
L 1172 1153 
Q 1172 725 1289 603 
Q 1406 481 1766 481 
L 2356 481 
L 2356 0 
L 1766 0 
Q 1100 0 847 248 
Q 594 497 594 1153 
L 594 3053 
L 172 3053 
L 172 3500 
L 594 3500 
L 594 4494 
L 1172 4494 
z
" transform="scale(0.015625)"/>
       </defs>
       <use xlink:href="#DejaVuSans-4f"/>
       <use xlink:href="#DejaVuSans-63" transform="translate(78.710938 0)"/>
       <use xlink:href="#DejaVuSans-74" transform="translate(133.691406 0)"/>
      </g>
     </g>
    </g>
    <g id="xtick_11">
     <g id="line2d_21">
      <path d="M 706.932939 384.1975 
L 706.932939 39.3575 
" clip-path="url(#pb19785e63d)" style="fill: none; stroke-dasharray: 2.96,1.28; stroke-dashoffset: 0; stroke: #b0b0b0; stroke-opacity: 0.3; stroke-width: 0.8"/>
     </g>
     <g id="line2d_22">
      <g>
       <use xlink:href="#m8be12169a8" x="706.932939" y="384.1975" style="stroke: #000000; stroke-width: 0.8"/>
      </g>
     </g>
     <g id="text_11">
      <!-- Nov -->
      <g transform="translate(697.173564 398.795937) scale(0.1 -0.1)">
       <defs>
        <path id="DejaVuSans-4e" d="M 628 4666 
L 1478 4666 
L 3547 763 
L 3547 4666 
L 4159 4666 
L 4159 0 
L 3309 0 
L 1241 3903 
L 1241 0 
L 628 0 
L 628 4666 
z
" transform="scale(0.015625)"/>
        <path id="DejaVuSans-6f" d="M 1959 3097 
Q 1497 3097 1228 2736 
Q 959 2375 959 1747 
Q 959 1119 1226 758 
Q 1494 397 1959 397 
Q 2419 397 2687 759 
Q 2956 1122 2956 1747 
Q 2956 2369 2687 2733 
Q 2419 3097 1959 3097 
z
M 1959 3584 
Q 2709 3584 3137 3096 
Q 3566 2609 3566 1747 
Q 3566 888 3137 398 
Q 2709 -91 1959 -91 
Q 1206 -91 779 398 
Q 353 888 353 1747 
Q 353 2609 779 3096 
Q 1206 3584 1959 3584 
z
" transform="scale(0.015625)"/>
        <path id="DejaVuSans-76" d="M 191 3500 
L 800 3500 
L 1894 563 
L 2988 3500 
L 3597 3500 
L 2284 0 
L 1503 0 
L 191 3500 
z
" transform="scale(0.015625)"/>
       </defs>
       <use xlink:href="#DejaVuSans-4e"/>
       <use xlink:href="#DejaVuSans-6f" transform="translate(74.804688 0)"/>
       <use xlink:href="#DejaVuSans-76" transform="translate(135.986328 0)"/>
      </g>
     </g>
    </g>
    <g id="xtick_12">
     <g id="line2d_23">
      <path d="M 771.242399 384.1975 
L 771.242399 39.3575 
" clip-path="url(#pb19785e63d)" style="fill: none; stroke-dasharray: 2.96,1.28; stroke-dashoffset: 0; stroke: #b0b0b0; stroke-opacity: 0.3; stroke-width: 0.8"/>
     </g>
     <g id="line2d_24">
      <g>
       <use xlink:href="#m8be12169a8" x="771.242399" y="384.1975" style="stroke: #000000; stroke-width: 0.8"/>
      </g>
     </g>
     <g id="text_12">
      <!-- Dec -->
      <g transform="translate(761.566617 398.795937) scale(0.1 -0.1)">
       <defs>
        <path id="DejaVuSans-44" d="M 1259 4147 
L 1259 519 
L 2022 519 
Q 2988 519 3436 956 
Q 3884 1394 3884 2338 
Q 3884 3275 3436 3711 
Q 2988 4147 2022 4147 
L 1259 4147 
z
M 628 4666 
L 1925 4666 
Q 3281 4666 3915 4102 
Q 4550 3538 4550 2338 
Q 4550 1131 3912 565 
Q 3275 0 1925 0 
L 628 0 
L 628 4666 
z
" transform="scale(0.015625)"/>
       </defs>
       <use xlink:href="#DejaVuSans-44"/>
       <use xlink:href="#DejaVuSans-65" transform="translate(77.001953 0)"/>
       <use xlink:href="#DejaVuSans-63" transform="translate(138.525391 0)"/>
      </g>
     </g>
    </g>
    <g id="xtick_13">
     <g id="line2d_25">
      <path d="M 837.695507 384.1975 
L 837.695507 39.3575 
" clip-path="url(#pb19785e63d)" style="fill: none; stroke-dasharray: 2.96,1.28; stroke-dashoffset: 0; stroke: #b0b0b0; stroke-opacity: 0.3; stroke-width: 0.8"/>
     </g>
     <g id="line2d_26">
      <g>
       <use xlink:href="#m8be12169a8" x="837.695507" y="384.1975" style="stroke: #000000; stroke-width: 0.8"/>
      </g>
     </g>
     <g id="text_13">
      <!-- Jan -->
      <g transform="translate(829.987694 398.795937) scale(0.1 -0.1)">
       <use xlink:href="#DejaVuSans-4a"/>
       <use xlink:href="#DejaVuSans-61" transform="translate(29.492188 0)"/>
       <use xlink:href="#DejaVuSans-6e" transform="translate(90.771484 0)"/>
      </g>
     </g>
    </g>
    <g id="text_14">
     <!-- Day of the year -->
     <g transform="translate(405.253438 413.99375) scale(0.12 -0.12)">
      <defs>
       <path id="DejaVuSans-20" transform="scale(0.015625)"/>
       <path id="DejaVuSans-66" d="M 2375 4863 
L 2375 4384 
L 1825 4384 
Q 1516 4384 1395 4259 
Q 1275 4134 1275 3809 
L 1275 3500 
L 2222 3500 
L 2222 3053 
L 1275 3053 
L 1275 0 
L 697 0 
L 697 3053 
L 147 3053 
L 147 3500 
L 697 3500 
L 697 3744 
Q 697 4328 969 4595 
Q 1241 4863 1831 4863 
L 2375 4863 
z
" transform="scale(0.015625)"/>
       <path id="DejaVuSans-68" d="M 3513 2113 
L 3513 0 
L 2938 0 
L 2938 2094 
Q 2938 2591 2744 2837 
Q 2550 3084 2163 3084 
Q 1697 3084 1428 2787 
Q 1159 2491 1159 1978 
L 1159 0 
L 581 0 
L 581 4863 
L 1159 4863 
L 1159 2956 
Q 1366 3272 1645 3428 
Q 1925 3584 2291 3584 
Q 2894 3584 3203 3211 
Q 3513 2838 3513 2113 
z
" transform="scale(0.015625)"/>
      </defs>
      <use xlink:href="#DejaVuSans-44"/>
      <use xlink:href="#DejaVuSans-61" transform="translate(77.001953 0)"/>
      <use xlink:href="#DejaVuSans-79" transform="translate(138.28125 0)"/>
      <use xlink:href="#DejaVuSans-20" transform="translate(197.460938 0)"/>
      <use xlink:href="#DejaVuSans-6f" transform="translate(229.248047 0)"/>
      <use xlink:href="#DejaVuSans-66" transform="translate(290.429688 0)"/>
      <use xlink:href="#DejaVuSans-20" transform="translate(325.634766 0)"/>
      <use xlink:href="#DejaVuSans-74" transform="translate(357.421875 0)"/>
      <use xlink:href="#DejaVuSans-68" transform="translate(396.630859 0)"/>
      <use xlink:href="#DejaVuSans-65" transform="translate(460.009766 0)"/>
      <use xlink:href="#DejaVuSans-20" transform="translate(521.533203 0)"/>
      <use xlink:href="#DejaVuSans-79" transform="translate(553.320312 0)"/>
      <use xlink:href="#DejaVuSans-65" transform="translate(612.5 0)"/>
      <use xlink:href="#DejaVuSans-61" transform="translate(674.023438 0)"/>
      <use xlink:href="#DejaVuSans-72" transform="translate(735.302734 0)"/>
     </g>
    </g>
   </g>
   <g id="matplotlib.axis_2">
    <g id="ytick_1">
     <g id="line2d_27">
      <path d="M 55.26375 369.679012 
L 848.41375 369.679012 
" clip-path="url(#pb19785e63d)" style="fill: none; stroke-dasharray: 2.96,1.28; stroke-dashoffset: 0; stroke: #b0b0b0; stroke-opacity: 0.3; stroke-width: 0.8"/>
     </g>
     <g id="line2d_28">
      <defs>
       <path id="md0bca6eb0c" d="M 0 0 
L -3.5 0 
" style="stroke: #000000; stroke-width: 0.8"/>
      </defs>
      <g>
       <use xlink:href="#md0bca6eb0c" x="55.26375" y="369.679012" style="stroke: #000000; stroke-width: 0.8"/>
      </g>
     </g>
     <g id="text_15">
      <!-- 0 -->
      <g transform="translate(41.90125 373.478231) scale(0.1 -0.1)">
       <defs>
        <path id="DejaVuSans-30" d="M 2034 4250 
Q 1547 4250 1301 3770 
Q 1056 3291 1056 2328 
Q 1056 1369 1301 889 
Q 1547 409 2034 409 
Q 2525 409 2770 889 
Q 3016 1369 3016 2328 
Q 3016 3291 2770 3770 
Q 2525 4250 2034 4250 
z
M 2034 4750 
Q 2819 4750 3233 4129 
Q 3647 3509 3647 2328 
Q 3647 1150 3233 529 
Q 2819 -91 2034 -91 
Q 1250 -91 836 529 
Q 422 1150 422 2328 
Q 422 3509 836 4129 
Q 1250 4750 2034 4750 
z
" transform="scale(0.015625)"/>
       </defs>
       <use xlink:href="#DejaVuSans-30"/>
      </g>
     </g>
    </g>
    <g id="ytick_2">
     <g id="line2d_29">
      <path d="M 55.26375 329.81496 
L 848.41375 329.81496 
" clip-path="url(#pb19785e63d)" style="fill: none; stroke-dasharray: 2.96,1.28; stroke-dashoffset: 0; stroke: #b0b0b0; stroke-opacity: 0.3; stroke-width: 0.8"/>
     </g>
     <g id="line2d_30">
      <g>
       <use xlink:href="#md0bca6eb0c" x="55.26375" y="329.81496" style="stroke: #000000; stroke-width: 0.8"/>
      </g>
     </g>
     <g id="text_16">
      <!-- 1000 -->
      <g transform="translate(22.81375 333.614178) scale(0.1 -0.1)">
       <defs>
        <path id="DejaVuSans-31" d="M 794 531 
L 1825 531 
L 1825 4091 
L 703 3866 
L 703 4441 
L 1819 4666 
L 2450 4666 
L 2450 531 
L 3481 531 
L 3481 0 
L 794 0 
L 794 531 
z
" transform="scale(0.015625)"/>
       </defs>
       <use xlink:href="#DejaVuSans-31"/>
       <use xlink:href="#DejaVuSans-30" transform="translate(63.623047 0)"/>
       <use xlink:href="#DejaVuSans-30" transform="translate(127.246094 0)"/>
       <use xlink:href="#DejaVuSans-30" transform="translate(190.869141 0)"/>
      </g>
     </g>
    </g>
    <g id="ytick_3">
     <g id="line2d_31">
      <path d="M 55.26375 289.950907 
L 848.41375 289.950907 
" clip-path="url(#pb19785e63d)" style="fill: none; stroke-dasharray: 2.96,1.28; stroke-dashoffset: 0; stroke: #b0b0b0; stroke-opacity: 0.3; stroke-width: 0.8"/>
     </g>
     <g id="line2d_32">
      <g>
       <use xlink:href="#md0bca6eb0c" x="55.26375" y="289.950907" style="stroke: #000000; stroke-width: 0.8"/>
      </g>
     </g>
     <g id="text_17">
      <!-- 2000 -->
      <g transform="translate(22.81375 293.750126) scale(0.1 -0.1)">
       <defs>
        <path id="DejaVuSans-32" d="M 1228 531 
L 3431 531 
L 3431 0 
L 469 0 
L 469 531 
Q 828 903 1448 1529 
Q 2069 2156 2228 2338 
Q 2531 2678 2651 2914 
Q 2772 3150 2772 3378 
Q 2772 3750 2511 3984 
Q 2250 4219 1831 4219 
Q 1534 4219 1204 4116 
Q 875 4013 500 3803 
L 500 4441 
Q 881 4594 1212 4672 
Q 1544 4750 1819 4750 
Q 2544 4750 2975 4387 
Q 3406 4025 3406 3419 
Q 3406 3131 3298 2873 
Q 3191 2616 2906 2266 
Q 2828 2175 2409 1742 
Q 1991 1309 1228 531 
z
" transform="scale(0.015625)"/>
       </defs>
       <use xlink:href="#DejaVuSans-32"/>
       <use xlink:href="#DejaVuSans-30" transform="translate(63.623047 0)"/>
       <use xlink:href="#DejaVuSans-30" transform="translate(127.246094 0)"/>
       <use xlink:href="#DejaVuSans-30" transform="translate(190.869141 0)"/>
      </g>
     </g>
    </g>
    <g id="ytick_4">
     <g id="line2d_33">
      <path d="M 55.26375 250.086854 
L 848.41375 250.086854 
" clip-path="url(#pb19785e63d)" style="fill: none; stroke-dasharray: 2.96,1.28; stroke-dashoffset: 0; stroke: #b0b0b0; stroke-opacity: 0.3; stroke-width: 0.8"/>
     </g>
     <g id="line2d_34">
      <g>
       <use xlink:href="#md0bca6eb0c" x="55.26375" y="250.086854" style="stroke: #000000; stroke-width: 0.8"/>
      </g>
     </g>
     <g id="text_18">
      <!-- 3000 -->
      <g transform="translate(22.81375 253.886073) scale(0.1 -0.1)">
       <defs>
        <path id="DejaVuSans-33" d="M 2597 2516 
Q 3050 2419 3304 2112 
Q 3559 1806 3559 1356 
Q 3559 666 3084 287 
Q 2609 -91 1734 -91 
Q 1441 -91 1130 -33 
Q 819 25 488 141 
L 488 750 
Q 750 597 1062 519 
Q 1375 441 1716 441 
Q 2309 441 2620 675 
Q 2931 909 2931 1356 
Q 2931 1769 2642 2001 
Q 2353 2234 1838 2234 
L 1294 2234 
L 1294 2753 
L 1863 2753 
Q 2328 2753 2575 2939 
Q 2822 3125 2822 3475 
Q 2822 3834 2567 4026 
Q 2313 4219 1838 4219 
Q 1578 4219 1281 4162 
Q 984 4106 628 3988 
L 628 4550 
Q 988 4650 1302 4700 
Q 1616 4750 1894 4750 
Q 2613 4750 3031 4423 
Q 3450 4097 3450 3541 
Q 3450 3153 3228 2886 
Q 3006 2619 2597 2516 
z
" transform="scale(0.015625)"/>
       </defs>
       <use xlink:href="#DejaVuSans-33"/>
       <use xlink:href="#DejaVuSans-30" transform="translate(63.623047 0)"/>
       <use xlink:href="#DejaVuSans-30" transform="translate(127.246094 0)"/>
       <use xlink:href="#DejaVuSans-30" transform="translate(190.869141 0)"/>
      </g>
     </g>
    </g>
    <g id="ytick_5">
     <g id="line2d_35">
      <path d="M 55.26375 210.222802 
L 848.41375 210.222802 
" clip-path="url(#pb19785e63d)" style="fill: none; stroke-dasharray: 2.96,1.28; stroke-dashoffset: 0; stroke: #b0b0b0; stroke-opacity: 0.3; stroke-width: 0.8"/>
     </g>
     <g id="line2d_36">
      <g>
       <use xlink:href="#md0bca6eb0c" x="55.26375" y="210.222802" style="stroke: #000000; stroke-width: 0.8"/>
      </g>
     </g>
     <g id="text_19">
      <!-- 4000 -->
      <g transform="translate(22.81375 214.022021) scale(0.1 -0.1)">
       <defs>
        <path id="DejaVuSans-34" d="M 2419 4116 
L 825 1625 
L 2419 1625 
L 2419 4116 
z
M 2253 4666 
L 3047 4666 
L 3047 1625 
L 3713 1625 
L 3713 1100 
L 3047 1100 
L 3047 0 
L 2419 0 
L 2419 1100 
L 313 1100 
L 313 1709 
L 2253 4666 
z
" transform="scale(0.015625)"/>
       </defs>
       <use xlink:href="#DejaVuSans-34"/>
       <use xlink:href="#DejaVuSans-30" transform="translate(63.623047 0)"/>
       <use xlink:href="#DejaVuSans-30" transform="translate(127.246094 0)"/>
       <use xlink:href="#DejaVuSans-30" transform="translate(190.869141 0)"/>
      </g>
     </g>
    </g>
    <g id="ytick_6">
     <g id="line2d_37">
      <path d="M 55.26375 170.358749 
L 848.41375 170.358749 
" clip-path="url(#pb19785e63d)" style="fill: none; stroke-dasharray: 2.96,1.28; stroke-dashoffset: 0; stroke: #b0b0b0; stroke-opacity: 0.3; stroke-width: 0.8"/>
     </g>
     <g id="line2d_38">
      <g>
       <use xlink:href="#md0bca6eb0c" x="55.26375" y="170.358749" style="stroke: #000000; stroke-width: 0.8"/>
      </g>
     </g>
     <g id="text_20">
      <!-- 5000 -->
      <g transform="translate(22.81375 174.157968) scale(0.1 -0.1)">
       <defs>
        <path id="DejaVuSans-35" d="M 691 4666 
L 3169 4666 
L 3169 4134 
L 1269 4134 
L 1269 2991 
Q 1406 3038 1543 3061 
Q 1681 3084 1819 3084 
Q 2600 3084 3056 2656 
Q 3513 2228 3513 1497 
Q 3513 744 3044 326 
Q 2575 -91 1722 -91 
Q 1428 -91 1123 -41 
Q 819 9 494 109 
L 494 744 
Q 775 591 1075 516 
Q 1375 441 1709 441 
Q 2250 441 2565 725 
Q 2881 1009 2881 1497 
Q 2881 1984 2565 2268 
Q 2250 2553 1709 2553 
Q 1456 2553 1204 2497 
Q 953 2441 691 2322 
L 691 4666 
z
" transform="scale(0.015625)"/>
       </defs>
       <use xlink:href="#DejaVuSans-35"/>
       <use xlink:href="#DejaVuSans-30" transform="translate(63.623047 0)"/>
       <use xlink:href="#DejaVuSans-30" transform="translate(127.246094 0)"/>
       <use xlink:href="#DejaVuSans-30" transform="translate(190.869141 0)"/>
      </g>
     </g>
    </g>
    <g id="ytick_7">
     <g id="line2d_39">
      <path d="M 55.26375 130.494697 
L 848.41375 130.494697 
" clip-path="url(#pb19785e63d)" style="fill: none; stroke-dasharray: 2.96,1.28; stroke-dashoffset: 0; stroke: #b0b0b0; stroke-opacity: 0.3; stroke-width: 0.8"/>
     </g>
     <g id="line2d_40">
      <g>
       <use xlink:href="#md0bca6eb0c" x="55.26375" y="130.494697" style="stroke: #000000; stroke-width: 0.8"/>
      </g>
     </g>
     <g id="text_21">
      <!-- 6000 -->
      <g transform="translate(22.81375 134.293916) scale(0.1 -0.1)">
       <defs>
        <path id="DejaVuSans-36" d="M 2113 2584 
Q 1688 2584 1439 2293 
Q 1191 2003 1191 1497 
Q 1191 994 1439 701 
Q 1688 409 2113 409 
Q 2538 409 2786 701 
Q 3034 994 3034 1497 
Q 3034 2003 2786 2293 
Q 2538 2584 2113 2584 
z
M 3366 4563 
L 3366 3988 
Q 3128 4100 2886 4159 
Q 2644 4219 2406 4219 
Q 1781 4219 1451 3797 
Q 1122 3375 1075 2522 
Q 1259 2794 1537 2939 
Q 1816 3084 2150 3084 
Q 2853 3084 3261 2657 
Q 3669 2231 3669 1497 
Q 3669 778 3244 343 
Q 2819 -91 2113 -91 
Q 1303 -91 875 529 
Q 447 1150 447 2328 
Q 447 3434 972 4092 
Q 1497 4750 2381 4750 
Q 2619 4750 2861 4703 
Q 3103 4656 3366 4563 
z
" transform="scale(0.015625)"/>
       </defs>
       <use xlink:href="#DejaVuSans-36"/>
       <use xlink:href="#DejaVuSans-30" transform="translate(63.623047 0)"/>
       <use xlink:href="#DejaVuSans-30" transform="translate(127.246094 0)"/>
       <use xlink:href="#DejaVuSans-30" transform="translate(190.869141 0)"/>
      </g>
     </g>
    </g>
    <g id="ytick_8">
     <g id="line2d_41">
      <path d="M 55.26375 90.630644 
L 848.41375 90.630644 
" clip-path="url(#pb19785e63d)" style="fill: none; stroke-dasharray: 2.96,1.28; stroke-dashoffset: 0; stroke: #b0b0b0; stroke-opacity: 0.3; stroke-width: 0.8"/>
     </g>
     <g id="line2d_42">
      <g>
       <use xlink:href="#md0bca6eb0c" x="55.26375" y="90.630644" style="stroke: #000000; stroke-width: 0.8"/>
      </g>
     </g>
     <g id="text_22">
      <!-- 7000 -->
      <g transform="translate(22.81375 94.429863) scale(0.1 -0.1)">
       <defs>
        <path id="DejaVuSans-37" d="M 525 4666 
L 3525 4666 
L 3525 4397 
L 1831 0 
L 1172 0 
L 2766 4134 
L 525 4134 
L 525 4666 
z
" transform="scale(0.015625)"/>
       </defs>
       <use xlink:href="#DejaVuSans-37"/>
       <use xlink:href="#DejaVuSans-30" transform="translate(63.623047 0)"/>
       <use xlink:href="#DejaVuSans-30" transform="translate(127.246094 0)"/>
       <use xlink:href="#DejaVuSans-30" transform="translate(190.869141 0)"/>
      </g>
     </g>
    </g>
    <g id="ytick_9">
     <g id="line2d_43">
      <path d="M 55.26375 50.766592 
L 848.41375 50.766592 
" clip-path="url(#pb19785e63d)" style="fill: none; stroke-dasharray: 2.96,1.28; stroke-dashoffset: 0; stroke: #b0b0b0; stroke-opacity: 0.3; stroke-width: 0.8"/>
     </g>
     <g id="line2d_44">
      <g>
       <use xlink:href="#md0bca6eb0c" x="55.26375" y="50.766592" style="stroke: #000000; stroke-width: 0.8"/>
      </g>
     </g>
     <g id="text_23">
      <!-- 8000 -->
      <g transform="translate(22.81375 54.565811) scale(0.1 -0.1)">
       <defs>
        <path id="DejaVuSans-38" d="M 2034 2216 
Q 1584 2216 1326 1975 
Q 1069 1734 1069 1313 
Q 1069 891 1326 650 
Q 1584 409 2034 409 
Q 2484 409 2743 651 
Q 3003 894 3003 1313 
Q 3003 1734 2745 1975 
Q 2488 2216 2034 2216 
z
M 1403 2484 
Q 997 2584 770 2862 
Q 544 3141 544 3541 
Q 544 4100 942 4425 
Q 1341 4750 2034 4750 
Q 2731 4750 3128 4425 
Q 3525 4100 3525 3541 
Q 3525 3141 3298 2862 
Q 3072 2584 2669 2484 
Q 3125 2378 3379 2068 
Q 3634 1759 3634 1313 
Q 3634 634 3220 271 
Q 2806 -91 2034 -91 
Q 1263 -91 848 271 
Q 434 634 434 1313 
Q 434 1759 690 2068 
Q 947 2378 1403 2484 
z
M 1172 3481 
Q 1172 3119 1398 2916 
Q 1625 2713 2034 2713 
Q 2441 2713 2670 2916 
Q 2900 3119 2900 3481 
Q 2900 3844 2670 4047 
Q 2441 4250 2034 4250 
Q 1625 4250 1398 4047 
Q 1172 3844 1172 3481 
z
" transform="scale(0.015625)"/>
       </defs>
       <use xlink:href="#DejaVuSans-38"/>
       <use xlink:href="#DejaVuSans-30" transform="translate(63.623047 0)"/>
       <use xlink:href="#DejaVuSans-30" transform="translate(127.246094 0)"/>
       <use xlink:href="#DejaVuSans-30" transform="translate(190.869141 0)"/>
      </g>
     </g>
    </g>
    <g id="text_24">
     <!-- Daily pedestrian count -->
     <g transform="translate(16.318125 279.793125) rotate(-90) scale(0.12 -0.12)">
      <defs>
       <path id="DejaVuSans-69" d="M 603 3500 
L 1178 3500 
L 1178 0 
L 603 0 
L 603 3500 
z
M 603 4863 
L 1178 4863 
L 1178 4134 
L 603 4134 
L 603 4863 
z
" transform="scale(0.015625)"/>
       <path id="DejaVuSans-64" d="M 2906 2969 
L 2906 4863 
L 3481 4863 
L 3481 0 
L 2906 0 
L 2906 525 
Q 2725 213 2448 61 
Q 2172 -91 1784 -91 
Q 1150 -91 751 415 
Q 353 922 353 1747 
Q 353 2572 751 3078 
Q 1150 3584 1784 3584 
Q 2172 3584 2448 3432 
Q 2725 3281 2906 2969 
z
M 947 1747 
Q 947 1113 1208 752 
Q 1469 391 1925 391 
Q 2381 391 2643 752 
Q 2906 1113 2906 1747 
Q 2906 2381 2643 2742 
Q 2381 3103 1925 3103 
Q 1469 3103 1208 2742 
Q 947 2381 947 1747 
z
" transform="scale(0.015625)"/>
       <path id="DejaVuSans-73" d="M 2834 3397 
L 2834 2853 
Q 2591 2978 2328 3040 
Q 2066 3103 1784 3103 
Q 1356 3103 1142 2972 
Q 928 2841 928 2578 
Q 928 2378 1081 2264 
Q 1234 2150 1697 2047 
L 1894 2003 
Q 2506 1872 2764 1633 
Q 3022 1394 3022 966 
Q 3022 478 2636 193 
Q 2250 -91 1575 -91 
Q 1294 -91 989 -36 
Q 684 19 347 128 
L 347 722 
Q 666 556 975 473 
Q 1284 391 1588 391 
Q 1994 391 2212 530 
Q 2431 669 2431 922 
Q 2431 1156 2273 1281 
Q 2116 1406 1581 1522 
L 1381 1569 
Q 847 1681 609 1914 
Q 372 2147 372 2553 
Q 372 3047 722 3315 
Q 1072 3584 1716 3584 
Q 2034 3584 2315 3537 
Q 2597 3491 2834 3397 
z
" transform="scale(0.015625)"/>
      </defs>
      <use xlink:href="#DejaVuSans-44"/>
      <use xlink:href="#DejaVuSans-61" transform="translate(77.001953 0)"/>
      <use xlink:href="#DejaVuSans-69" transform="translate(138.28125 0)"/>
      <use xlink:href="#DejaVuSans-6c" transform="translate(166.064453 0)"/>
      <use xlink:href="#DejaVuSans-79" transform="translate(193.847656 0)"/>
      <use xlink:href="#DejaVuSans-20" transform="translate(253.027344 0)"/>
      <use xlink:href="#DejaVuSans-70" transform="translate(284.814453 0)"/>
      <use xlink:href="#DejaVuSans-65" transform="translate(348.291016 0)"/>
      <use xlink:href="#DejaVuSans-64" transform="translate(409.814453 0)"/>
      <use xlink:href="#DejaVuSans-65" transform="translate(473.291016 0)"/>
      <use xlink:href="#DejaVuSans-73" transform="translate(534.814453 0)"/>
      <use xlink:href="#DejaVuSans-74" transform="translate(586.914062 0)"/>
      <use xlink:href="#DejaVuSans-72" transform="translate(626.123047 0)"/>
      <use xlink:href="#DejaVuSans-69" transform="translate(667.236328 0)"/>
      <use xlink:href="#DejaVuSans-61" transform="translate(695.019531 0)"/>
      <use xlink:href="#DejaVuSans-6e" transform="translate(756.298828 0)"/>
      <use xlink:href="#DejaVuSans-20" transform="translate(819.677734 0)"/>
      <use xlink:href="#DejaVuSans-63" transform="translate(851.464844 0)"/>
      <use xlink:href="#DejaVuSans-6f" transform="translate(906.445312 0)"/>
      <use xlink:href="#DejaVuSans-75" transform="translate(967.626953 0)"/>
      <use xlink:href="#DejaVuSans-6e" transform="translate(1031.005859 0)"/>
      <use xlink:href="#DejaVuSans-74" transform="translate(1094.384766 0)"/>
     </g>
    </g>
   </g>
   <g id="line2d_45">
    <path d="M 57.407399 298.003446 
L 59.551047 244.944392 
L 61.694696 248.17338 
L 63.838345 282.177417 
L 65.981993 213.970023 
L 68.125642 230.991973 
L 70.269291 277.951827 
L 72.412939 247.216643 
L 74.556588 210.581578 
L 76.700236 239.921521 
L 78.843885 241.476219 
L 80.987534 219.590854 
L 83.131182 230.035236 
L 85.274831 278.788972 
L 87.41848 260.491372 
L 89.562128 222.182018 
L 91.705777 254.113124 
L 93.849426 240.479618 
L 95.993074 202.289855 
L 98.136723 222.580658 
L 100.280372 278.390332 
L 102.42402 243.230237 
L 104.567669 215.684177 
L 106.711318 257.381976 
L 108.854966 277.792371 
L 110.998615 219.989495 
L 113.142264 238.287095 
L 115.285912 306.01612 
L 117.429561 260.810285 
L 119.573209 260.292052 
L 121.716858 239.562745 
L 123.860507 233.304088 
L 126.004155 219.35167 
L 128.147804 259.255587 
L 130.291453 273.168141 
L 132.435101 247.97406 
L 134.57875 250.445631 
L 136.722399 242.233636 
L 138.866047 231.988575 
L 141.009696 214.687576 
L 143.153345 216.042954 
L 145.296993 272.410724 
L 147.440642 253.196251 
L 149.584291 220.707048 
L 151.727939 223.218483 
L 153.871588 228.60013 
L 156.015236 196.190655 
L 158.158885 215.803769 
L 160.302534 263.401448 
L 162.446182 234.380418 
L 164.589831 203.406049 
L 166.73348 224.015764 
L 168.877128 209.505249 
L 171.020777 179.328161 
L 173.164426 216.082818 
L 175.308074 242.871461 
L 177.451723 232.586535 
L 179.595372 194.715686 
L 181.73902 226.527199 
L 183.882669 252.159785 
L 186.026318 238.685735 
L 188.169966 244.904528 
L 190.313615 261.248789 
L 192.457264 228.79945 
L 194.600912 219.55099 
L 196.744561 222.939435 
L 198.888209 224.374541 
L 201.031858 178.012648 
L 203.175507 191.845474 
L 205.319155 275.759304 
L 207.462804 231.430478 
L 209.606453 223.178619 
L 211.750101 224.17522 
L 213.89375 216.322002 
L 216.037399 200.456109 
L 218.181047 213.770703 
L 220.324696 261.527838 
L 222.468345 240.639074 
L 224.611993 207.990415 
L 226.755642 225.570462 
L 228.899291 227.922441 
L 231.042939 213.690975 
L 233.186588 180.563947 
L 235.330236 265.554107 
L 237.473885 229.87578 
L 239.617534 233.104768 
L 241.761182 212.255869 
L 243.904831 242.07418 
L 246.04848 210.382258 
L 248.192128 220.427999 
L 250.335777 266.510844 
L 252.479426 231.669662 
L 254.623074 250.246311 
L 256.766723 239.243832 
L 258.910372 236.1743 
L 261.05402 177.574143 
L 263.197669 167.329081 
L 265.341318 269.2216 
L 267.484966 231.948711 
L 269.628615 231.191294 
L 271.772264 226.806248 
L 273.915912 212.973422 
L 276.059561 195.871743 
L 278.203209 159.994096 
L 280.346858 270.377657 
L 282.490507 239.164104 
L 284.634155 230.513605 
L 286.777804 210.581578 
L 288.921453 281.340272 
L 291.065101 196.031199 
L 293.20875 245.303168 
L 295.352399 300.913521 
L 297.496047 245.263304 
L 299.639696 238.845192 
L 301.783345 281.61932 
L 303.926993 231.310886 
L 306.070642 202.130399 
L 308.214291 225.131958 
L 310.357939 275.201208 
L 312.501588 250.007126 
L 314.645236 244.944392 
L 316.788885 234.659466 
L 318.932534 230.114964 
L 321.076182 204.043874 
L 323.219831 199.658828 
L 325.36348 274.603247 
L 327.507128 243.628878 
L 329.650777 240.120841 
L 331.794426 255.149589 
L 333.938074 238.287095 
L 336.081723 189.613087 
L 338.225372 239.004648 
L 340.36902 275.121479 
L 342.512669 249.728078 
L 344.656318 248.651749 
L 346.799966 237.330358 
L 348.943615 228.719722 
L 351.087264 193.200852 
L 353.230912 221.065824 
L 355.374561 280.503127 
L 357.518209 233.902049 
L 359.661858 251.761145 
L 361.805507 239.164104 
L 363.949155 241.356627 
L 366.092804 191.247513 
L 368.236453 216.880099 
L 370.380101 285.366541 
L 372.52375 258.059665 
L 374.667399 270.058745 
L 376.811047 248.17338 
L 378.954696 243.389694 
L 381.098345 212.096412 
L 383.241993 226.208287 
L 385.385642 290.269819 
L 387.529291 245.303168 
L 389.672939 246.538954 
L 391.816588 245.303168 
L 393.960236 232.148031 
L 396.103885 199.339916 
L 398.247534 178.650472 
L 400.391182 301.511482 
L 402.534831 247.415963 
L 404.67848 267.148669 
L 406.822128 237.888454 
L 408.965777 237.888454 
L 411.109426 211.259267 
L 413.253074 213.013286 
L 415.396723 268.424319 
L 417.540372 258.019801 
L 419.68402 237.64927 
L 421.827669 254.07326 
L 426.114966 200.256789 
L 428.258615 209.266065 
L 430.402264 275.001887 
L 432.545912 259.813683 
L 451.83875 245.143712 
L 453.982399 224.693453 
L 456.126047 189.294174 
L 458.269696 220.069223 
L 460.413345 273.925558 
L 464.700642 217.916564 
L 466.844291 250.844271 
L 468.987939 237.84859 
L 471.131588 208.149871 
L 473.275236 239.921521 
L 475.418885 282.735514 
L 477.562534 244.226839 
L 479.706182 232.785856 
L 481.849831 235.77566 
L 483.99348 222.221882 
L 486.137128 199.658828 
L 488.280777 198.901411 
L 490.424426 276.99509 
L 492.568074 256.305647 
L 494.711723 219.790175 
L 496.855372 244.426159 
L 498.99902 235.177699 
L 501.142669 169.0831 
L 503.286318 191.088057 
L 505.429966 270.457385 
L 507.573615 241.755268 
L 509.717264 219.192214 
L 511.860912 245.382896 
L 514.004561 232.227759 
L 516.148209 205.040475 
L 518.291858 203.326321 
L 520.435507 272.610044 
L 522.579155 250.206447 
L 524.722804 224.613725 
L 526.866453 239.12424 
L 529.010101 244.147111 
L 531.15375 217.47806 
L 533.297399 197.027801 
L 535.441047 270.497249 
L 537.584696 242.153908 
L 539.728345 223.656988 
L 541.871993 239.522881 
L 544.015642 224.414405 
L 546.159291 167.089897 
L 548.302939 214.009887 
L 550.446588 269.580376 
L 552.590236 242.552549 
L 554.733885 232.626399 
L 556.877534 235.177699 
L 559.021182 206.475581 
L 561.164831 185.148313 
L 563.30848 206.515445 
L 565.452128 270.417521 
L 567.595777 237.728998 
L 569.739426 241.436355 
L 571.883074 242.632277 
L 574.026723 213.810567 
L 576.170372 174.823523 
L 578.31402 215.923361 
L 580.457669 271.812763 
L 582.601318 234.181098 
L 584.744966 245.861265 
L 586.888615 230.194692 
L 589.032264 219.112486 
L 591.175912 206.037076 
L 593.319561 220.746912 
L 595.463209 279.785574 
L 597.606858 232.82572 
L 599.750507 238.406687 
L 601.894155 240.439754 
L 604.037804 222.142154 
L 606.181453 190.450232 
L 608.325101 216.521322 
L 610.46875 259.215723 
L 612.612399 232.626399 
L 614.756047 217.358467 
L 616.899696 226.885976 
L 619.043345 225.690054 
L 621.186993 214.52812 
L 623.330642 176.776862 
L 625.474291 266.949349 
L 627.617939 233.543273 
L 629.761588 219.232078 
L 631.905236 202.92768 
L 634.048885 250.844271 
L 636.192534 220.707048 
L 638.336182 201.572303 
L 640.479831 261.527838 
L 642.62348 218.594253 
L 644.767128 221.384737 
L 646.910777 222.859707 
L 649.054426 216.282138 
L 651.198074 176.537678 
L 653.341723 210.541714 
L 655.485372 268.504047 
L 657.62902 229.038635 
L 659.772669 227.563665 
L 661.916318 223.57726 
L 664.059966 194.95487 
L 666.203615 181.122044 
L 668.347264 199.937876 
L 670.490912 258.458306 
L 672.634561 213.890295 
L 674.778209 243.429558 
L 676.921858 234.220962 
L 679.065507 215.644313 
L 681.209155 198.861547 
L 683.352804 214.129479 
L 685.496453 255.149589 
L 687.640101 199.77842 
L 689.78375 211.259267 
L 691.927399 241.237035 
L 694.071047 216.481458 
L 696.214696 207.472182 
L 698.358345 181.48082 
L 700.501993 256.305647 
L 702.645642 229.87578 
L 704.789291 232.905448 
L 706.932939 234.061505 
L 709.076588 244.904528 
L 711.220236 252.080057 
L 717.651182 287.838112 
L 719.794831 250.565223 
L 721.93848 237.968183 
L 724.082128 227.683257 
L 726.225777 209.425521 
L 728.369426 213.212606 
L 730.513074 259.813683 
L 732.656723 234.30069 
L 734.800372 246.738274 
L 736.94402 226.248151 
L 739.087669 217.398331 
L 741.231318 187.141516 
L 743.374966 199.339916 
L 745.518615 259.813683 
L 747.662264 229.118363 
L 749.805912 204.920883 
L 751.949561 249.488894 
L 756.236858 193.240716 
L 758.380507 195.114326 
L 760.524155 257.501568 
L 762.667804 220.188815 
L 764.811453 191.287377 
L 766.955101 229.67646 
L 786.247939 192.20425 
L 788.391588 202.648632 
L 790.535236 269.42092 
L 792.678885 221.743513 
L 794.822534 210.342394 
L 796.966182 224.294812 
L 799.109831 223.656988 
L 801.25348 189.931999 
L 803.397128 211.338995 
L 805.540777 265.593971 
L 807.684426 228.79945 
L 809.828074 238.087775 
L 811.971723 227.244752 
L 814.115372 269.460784 
L 816.25902 188.935398 
L 818.402669 203.326321 
L 820.546318 216.760507 
L 822.689966 183.792935 
L 824.833615 318.533433 
L 826.977264 288.475937 
L 829.120912 239.203968 
L 831.264561 226.407607 
L 833.408209 235.297291 
L 835.551858 307.212042 
L 837.695507 213.25247 
L 837.695507 213.25247 
" clip-path="url(#pb19785e63d)" style="fill: none; stroke: #0d6efc; stroke-opacity: 0.8; stroke-width: 2.5; stroke-linecap: square"/>
   </g>
   <g id="line2d_46">
    <path d="M 57.407399 273.84583 
L 59.551047 231.589934 
L 61.694696 238.047911 
L 63.838345 241.595811 
L 65.981993 248.133516 
L 68.125642 276.157945 
L 70.269291 239.483017 
L 72.412939 227.165024 
L 74.556588 249.090253 
L 76.700236 237.091173 
L 78.843885 218.992894 
L 80.987534 205.160067 
L 83.131182 270.297929 
L 85.274831 236.812125 
L 87.41848 227.922441 
L 89.562128 220.388135 
L 91.705777 216.242274 
L 93.849426 186.384099 
L 95.993074 208.269463 
L 98.136723 271.812763 
L 102.42402 220.188815 
L 104.567669 235.058107 
L 106.711318 220.667184 
L 108.854966 190.171184 
L 110.998615 195.194054 
L 113.142264 308.607284 
L 115.285912 239.841793 
L 117.429561 228.20149 
L 119.573209 235.895252 
L 121.716858 233.064904 
L 123.860507 194.117725 
L 126.004155 235.576339 
L 128.147804 297.285893 
L 132.435101 230.593333 
L 134.57875 246.49909 
L 136.722399 235.735796 
L 138.866047 167.209489 
L 141.009696 174.265427 
L 143.153345 276.237673 
L 145.296993 244.306567 
L 147.440642 235.616203 
L 149.584291 254.750949 
L 151.727939 212.096412 
L 153.871588 187.261108 
L 156.015236 173.587738 
L 158.158885 270.616842 
L 160.302534 232.905448 
L 162.446182 212.375461 
L 164.589831 227.284616 
L 166.73348 203.844554 
L 168.877128 201.970943 
L 171.020777 181.879461 
L 173.164426 258.458306 
L 175.308074 221.145552 
L 177.451723 224.892773 
L 179.595372 217.398331 
L 181.73902 204.362786 
L 183.882669 153.855032 
L 186.026318 158.000893 
L 188.169966 251.003728 
L 190.313615 229.317683 
L 192.457264 216.800371 
L 194.600912 214.966624 
L 196.744561 214.607848 
L 198.888209 186.862467 
L 201.031858 202.130399 
L 203.175507 287.638792 
L 205.319155 243.788334 
L 207.462804 215.604449 
L 209.606453 224.374541 
L 213.89375 203.206729 
L 216.037399 223.138755 
L 218.181047 241.954588 
L 220.324696 221.22528 
L 222.468345 244.426159 
L 224.611993 238.645871 
L 226.755642 209.305929 
L 228.899291 149.828762 
L 231.042939 161.90757 
L 233.186588 270.377657 
L 235.330236 226.92584 
L 237.473885 246.379498 
L 239.617534 221.863105 
L 241.761182 212.176141 
L 243.904831 172.03304 
L 246.04848 173.547874 
L 248.192128 263.999409 
L 250.335777 236.293892 
L 252.479426 250.565223 
L 254.623074 226.407607 
L 256.766723 221.265145 
L 258.910372 161.787978 
L 261.05402 160.751513 
L 263.197669 269.261464 
L 265.341318 235.576339 
L 267.484966 223.338075 
L 269.628615 227.165024 
L 271.772264 216.521322 
L 273.915912 178.809929 
L 276.059561 201.492574 
L 278.203209 260.17246 
L 280.346858 233.702729 
L 282.490507 226.367743 
L 284.634155 211.498452 
L 286.777804 261.84675 
L 288.921453 190.809008 
L 291.065101 212.853829 
L 293.20875 286.841511 
L 295.352399 231.031837 
L 297.496047 220.547592 
L 299.639696 216.122682 
L 301.783345 268.304726 
L 303.926993 144.526843 
L 306.070642 190.968465 
L 308.214291 265.952747 
L 310.357939 368.522955 
L 312.501588 236.971581 
L 314.645236 225.291414 
L 316.788885 212.415325 
L 318.932534 182.198373 
L 321.076182 363.978453 
L 323.219831 275.759304 
L 325.36348 247.455827 
L 327.507128 241.994452 
L 329.650777 219.909767 
L 331.794426 214.488256 
L 333.938074 161.070425 
L 336.081723 196.031199 
L 338.225372 268.14527 
L 340.36902 245.183576 
L 342.512669 253.834075 
L 344.656318 231.589934 
L 346.799966 193.041395 
L 348.943615 187.540156 
L 351.087264 162.067026 
L 353.230912 272.211404 
L 355.374561 232.387215 
L 357.518209 247.894332 
L 359.661858 231.15143 
L 361.805507 233.02504 
L 363.949155 168.724323 
L 366.092804 173.468146 
L 368.236453 275.958625 
L 370.380101 246.738274 
L 372.52375 258.89681 
L 374.667399 241.396491 
L 376.811047 228.759586 
L 378.954696 147.436919 
L 381.098345 159.83464 
L 383.241993 323.675895 
L 385.385642 249.728078 
L 387.529291 225.849511 
L 389.672939 367.964858 
L 391.816588 251.402368 
L 393.960236 360.271096 
L 396.103885 179.208569 
L 398.247534 283.29361 
L 400.391182 253.076658 
L 402.534831 213.611246 
L 404.67848 240.997851 
L 406.822128 225.092094 
L 408.965777 199.060867 
L 411.109426 363.141307 
L 413.253074 280.582855 
L 415.396723 249.050389 
L 417.540372 213.690975 
L 419.68402 253.116522 
L 421.827669 356.922515 
L 423.971318 169.0831 
L 426.114966 179.846394 
L 428.258615 274.643111 
L 430.402264 256.106326 
L 432.545912 240.838394 
L 434.689561 367.765538 
L 436.833209 220.587456 
L 438.976858 173.946514 
L 441.120507 198.064266 
L 443.264155 366.011519 
L 445.407804 247.057186 
L 447.551453 252.199649 
L 449.695101 361.506881 
L 451.83875 219.391534 
L 453.982399 152.619246 
L 456.126047 173.90665 
L 458.269696 267.627038 
L 460.413345 368.403362 
L 462.556993 146.280862 
L 464.700642 229.556867 
L 466.844291 228.40081 
L 468.987939 150.147675 
L 471.131588 170.717526 
L 473.275236 266.27166 
L 475.418885 236.1743 
L 477.562534 170.159429 
L 479.706182 225.45087 
L 481.849831 209.106608 
L 483.99348 189.015126 
L 486.137128 173.587738 
L 488.280777 270.138473 
L 490.424426 256.544831 
L 492.568074 208.309327 
L 494.711723 223.098891 
L 496.855372 221.504329 
L 498.99902 182.995654 
L 501.142669 194.596093 
L 503.286318 259.694091 
L 507.573615 207.751231 
L 509.717264 219.830039 
L 511.860912 191.526561 
L 514.004561 168.325683 
L 516.148209 159.475863 
L 518.291858 278.828836 
L 520.435507 362.822395 
L 522.579155 206.355989 
L 524.722804 216.042954 
L 526.866453 211.378859 
L 529.010101 158.678582 
L 531.15375 365.054782 
L 533.297399 320.088131 
L 535.441047 233.543273 
L 537.584696 200.495973 
L 539.728345 215.843633 
L 541.871993 224.932637 
L 544.015642 158.120485 
L 546.159291 174.584339 
L 548.302939 268.424319 
L 550.446588 229.158227 
L 552.590236 196.469704 
L 554.733885 223.338075 
L 556.877534 211.498452 
L 559.021182 151.064548 
L 561.164831 158.678582 
L 563.30848 255.229317 
L 565.452128 260.013004 
L 567.595777 233.064904 
L 569.739426 229.716324 
L 571.883074 235.058107 
L 574.026723 177.215366 
L 576.170372 211.219403 
L 578.31402 267.666902 
L 580.457669 243.628878 
L 582.601318 253.634755 
L 584.744966 233.184496 
L 586.888615 210.143074 
L 589.032264 168.564867 
L 591.175912 191.327241 
L 593.319561 263.1224 
L 595.463209 233.02504 
L 597.606858 256.704287 
L 599.750507 223.497531 
L 601.894155 220.308407 
L 604.037804 190.211048 
L 606.181453 185.985458 
L 608.325101 269.540512 
L 610.46875 251.282776 
L 612.612399 249.050389 
L 614.756047 220.348271 
L 616.899696 285.087493 
L 619.043345 301.910123 
L 621.186993 202.170263 
L 623.330642 309.324837 
L 625.474291 313.630154 
L 627.617939 233.662865 
L 629.761588 227.165024 
L 631.905236 219.431398 
L 634.048885 194.596093 
L 636.192534 174.185698 
L 638.336182 259.215723 
L 640.479831 226.367743 
L 642.62348 224.454269 
L 644.767128 223.57726 
L 646.910777 210.10321 
L 649.054426 147.157871 
L 653.341723 248.253108 
L 655.485372 95.613651 
L 657.62902 367.964858 
L 659.772669 135.83648 
L 661.916318 131.61089 
L 664.059966 84.451716 
L 666.203615 117.897656 
L 668.347264 165.375743 
L 670.490912 142.772825 
L 672.634561 151.622645 
L 674.778209 147.875424 
L 676.921858 368.004722 
L 679.065507 55.032045 
L 681.209155 140.022205 
L 683.352804 190.091455 
L 685.496453 180.922723 
L 687.640101 219.989495 
L 689.78375 169.242556 
L 691.927399 161.349474 
L 694.071047 129.019727 
L 696.214696 183.394295 
L 698.358345 267.866222 
L 700.501993 258.617762 
L 702.645642 247.734875 
L 706.932939 222.779978 
L 709.076588 167.329081 
L 711.220236 193.758948 
L 713.363885 295.452146 
L 715.507534 271.972219 
L 719.794831 234.021641 
L 721.93848 228.321082 
L 724.082128 251.681417 
L 726.225777 197.266985 
L 728.369426 277.274138 
L 730.513074 256.863743 
L 732.656723 247.256507 
L 734.800372 230.394013 
L 736.94402 215.564585 
L 739.087669 179.288297 
L 741.231318 207.55191 
L 743.374966 273.925558 
L 745.518615 246.618682 
L 747.662264 217.398331 
L 749.805912 223.816444 
L 751.949561 225.291414 
L 754.093209 190.33064 
L 756.236858 367.287169 
L 758.380507 272.57018 
L 760.524155 241.356627 
L 762.667804 239.32356 
L 764.811453 230.354148 
L 766.955101 239.004648 
L 769.09875 181.161908 
L 771.242399 196.031199 
L 773.386047 283.971299 
L 775.529696 245.502488 
L 777.673345 232.187895 
L 779.816993 242.432956 
L 781.960642 215.963226 
L 784.104291 211.7775 
L 786.247939 197.705489 
L 788.391588 271.414123 
L 790.535236 243.270101 
L 792.678885 229.556867 
L 794.822534 237.489814 
L 796.966182 237.489814 
L 799.109831 196.071063 
L 801.25348 196.389976 
L 803.397128 272.689772 
L 805.540777 234.380418 
L 807.684426 236.572941 
L 809.828074 261.408245 
L 811.971723 241.595811 
L 814.115372 189.015126 
L 816.25902 226.606928 
L 818.402669 257.700889 
L 820.546318 168.804051 
L 822.689966 194.117725 
L 824.833615 305.537752 
L 826.977264 278.230876 
L 829.120912 216.162546 
L 831.264561 208.309327 
L 833.408209 287.000967 
L 835.551858 232.82572 
L 837.695507 231.510206 
L 837.695507 231.510206 
" clip-path="url(#pb19785e63d)" style="fill: none; stroke: #83c966; stroke-opacity: 0.8; stroke-width: 2.5; stroke-linecap: square"/>
   </g>
   <g id="patch_3">
    <path d="M 55.26375 384.1975 
L 55.26375 39.3575 
" style="fill: none; stroke: #000000; stroke-width: 0.8; stroke-linejoin: miter; stroke-linecap: square"/>
   </g>
   <g id="patch_4">
    <path d="M 55.26375 384.1975 
L 848.41375 384.1975 
" style="fill: none; stroke: #000000; stroke-width: 0.8; stroke-linejoin: miter; stroke-linecap: square"/>
   </g>
   <g id="text_25">
    <!-- Pedestrian Traffic at QV Market-Peel St -->
    <g transform="translate(297.72375 19.3575) scale(0.16 -0.16)">
     <defs>
      <path id="DejaVuSans-50" d="M 1259 4147 
L 1259 2394 
L 2053 2394 
Q 2494 2394 2734 2622 
Q 2975 2850 2975 3272 
Q 2975 3691 2734 3919 
Q 2494 4147 2053 4147 
L 1259 4147 
z
M 628 4666 
L 2053 4666 
Q 2838 4666 3239 4311 
Q 3641 3956 3641 3272 
Q 3641 2581 3239 2228 
Q 2838 1875 2053 1875 
L 1259 1875 
L 1259 0 
L 628 0 
L 628 4666 
z
" transform="scale(0.015625)"/>
      <path id="DejaVuSans-54" d="M -19 4666 
L 3928 4666 
L 3928 4134 
L 2272 4134 
L 2272 0 
L 1638 0 
L 1638 4134 
L -19 4134 
L -19 4666 
z
" transform="scale(0.015625)"/>
      <path id="DejaVuSans-51" d="M 2522 4238 
Q 1834 4238 1429 3725 
Q 1025 3213 1025 2328 
Q 1025 1447 1429 934 
Q 1834 422 2522 422 
Q 3209 422 3611 934 
Q 4013 1447 4013 2328 
Q 4013 3213 3611 3725 
Q 3209 4238 2522 4238 
z
M 3406 84 
L 4238 -825 
L 3475 -825 
L 2784 -78 
Q 2681 -84 2626 -87 
Q 2572 -91 2522 -91 
Q 1538 -91 948 567 
Q 359 1225 359 2328 
Q 359 3434 948 4092 
Q 1538 4750 2522 4750 
Q 3503 4750 4090 4092 
Q 4678 3434 4678 2328 
Q 4678 1516 4351 937 
Q 4025 359 3406 84 
z
" transform="scale(0.015625)"/>
      <path id="DejaVuSans-56" d="M 1831 0 
L 50 4666 
L 709 4666 
L 2188 738 
L 3669 4666 
L 4325 4666 
L 2547 0 
L 1831 0 
z
" transform="scale(0.015625)"/>
      <path id="DejaVuSans-6b" d="M 581 4863 
L 1159 4863 
L 1159 1991 
L 2875 3500 
L 3609 3500 
L 1753 1863 
L 3688 0 
L 2938 0 
L 1159 1709 
L 1159 0 
L 581 0 
L 581 4863 
z
" transform="scale(0.015625)"/>
      <path id="DejaVuSans-2d" d="M 313 2009 
L 1997 2009 
L 1997 1497 
L 313 1497 
L 313 2009 
z
" transform="scale(0.015625)"/>
     </defs>
     <use xlink:href="#DejaVuSans-50"/>
     <use xlink:href="#DejaVuSans-65" transform="translate(56.677734 0)"/>
     <use xlink:href="#DejaVuSans-64" transform="translate(118.201172 0)"/>
     <use xlink:href="#DejaVuSans-65" transform="translate(181.677734 0)"/>
     <use xlink:href="#DejaVuSans-73" transform="translate(243.201172 0)"/>
     <use xlink:href="#DejaVuSans-74" transform="translate(295.300781 0)"/>
     <use xlink:href="#DejaVuSans-72" transform="translate(334.509766 0)"/>
     <use xlink:href="#DejaVuSans-69" transform="translate(375.623047 0)"/>
     <use xlink:href="#DejaVuSans-61" transform="translate(403.40625 0)"/>
     <use xlink:href="#DejaVuSans-6e" transform="translate(464.685547 0)"/>
     <use xlink:href="#DejaVuSans-20" transform="translate(528.064453 0)"/>
     <use xlink:href="#DejaVuSans-54" transform="translate(559.851562 0)"/>
     <use xlink:href="#DejaVuSans-72" transform="translate(606.185547 0)"/>
     <use xlink:href="#DejaVuSans-61" transform="translate(647.298828 0)"/>
     <use xlink:href="#DejaVuSans-66" transform="translate(708.578125 0)"/>
     <use xlink:href="#DejaVuSans-66" transform="translate(743.783203 0)"/>
     <use xlink:href="#DejaVuSans-69" transform="translate(778.988281 0)"/>
     <use xlink:href="#DejaVuSans-63" transform="translate(806.771484 0)"/>
     <use xlink:href="#DejaVuSans-20" transform="translate(861.751953 0)"/>
     <use xlink:href="#DejaVuSans-61" transform="translate(893.539062 0)"/>
     <use xlink:href="#DejaVuSans-74" transform="translate(954.818359 0)"/>
     <use xlink:href="#DejaVuSans-20" transform="translate(994.027344 0)"/>
     <use xlink:href="#DejaVuSans-51" transform="translate(1025.814453 0)"/>
     <use xlink:href="#DejaVuSans-56" transform="translate(1104.525391 0)"/>
     <use xlink:href="#DejaVuSans-20" transform="translate(1172.933594 0)"/>
     <use xlink:href="#DejaVuSans-4d" transform="translate(1204.720703 0)"/>
     <use xlink:href="#DejaVuSans-61" transform="translate(1291 0)"/>
     <use xlink:href="#DejaVuSans-72" transform="translate(1352.279297 0)"/>
     <use xlink:href="#DejaVuSans-6b" transform="translate(1393.392578 0)"/>
     <use xlink:href="#DejaVuSans-65" transform="translate(1447.677734 0)"/>
     <use xlink:href="#DejaVuSans-74" transform="translate(1509.201172 0)"/>
     <use xlink:href="#DejaVuSans-2d" transform="translate(1548.410156 0)"/>
     <use xlink:href="#DejaVuSans-50" transform="translate(1584.494141 0)"/>
     <use xlink:href="#DejaVuSans-65" transform="translate(1641.171875 0)"/>
     <use xlink:href="#DejaVuSans-65" transform="translate(1702.695312 0)"/>
     <use xlink:href="#DejaVuSans-6c" transform="translate(1764.21875 0)"/>
     <use xlink:href="#DejaVuSans-20" transform="translate(1792.001953 0)"/>
     <use xlink:href="#DejaVuSans-53" transform="translate(1823.789062 0)"/>
     <use xlink:href="#DejaVuSans-74" transform="translate(1887.265625 0)"/>
    </g>
   </g>
   <g id="legend_1">
    <g id="patch_5">
     <path d="M 62.96375 80.449375 
L 126.15875 80.449375 
Q 128.35875 80.449375 128.35875 78.249375 
L 128.35875 47.0575 
Q 128.35875 44.8575 126.15875 44.8575 
L 62.96375 44.8575 
Q 60.76375 44.8575 60.76375 47.0575 
L 60.76375 78.249375 
Q 60.76375 80.449375 62.96375 80.449375 
z
" style="fill: #ffffff; opacity: 0.95; stroke: #cccccc; stroke-linejoin: miter"/>
    </g>
    <g id="line2d_47">
     <path d="M 65.16375 53.765781 
L 76.16375 53.765781 
L 87.16375 53.765781 
" style="fill: none; stroke: #0d6efc; stroke-opacity: 0.8; stroke-width: 2.5; stroke-linecap: square"/>
    </g>
    <g id="text_26">
     <!-- 2019 -->
     <g transform="translate(95.96375 57.615781) scale(0.11 -0.11)">
      <defs>
       <path id="DejaVuSans-39" d="M 703 97 
L 703 672 
Q 941 559 1184 500 
Q 1428 441 1663 441 
Q 2288 441 2617 861 
Q 2947 1281 2994 2138 
Q 2813 1869 2534 1725 
Q 2256 1581 1919 1581 
Q 1219 1581 811 2004 
Q 403 2428 403 3163 
Q 403 3881 828 4315 
Q 1253 4750 1959 4750 
Q 2769 4750 3195 4129 
Q 3622 3509 3622 2328 
Q 3622 1225 3098 567 
Q 2575 -91 1691 -91 
Q 1453 -91 1209 -44 
Q 966 3 703 97 
z
M 1959 2075 
Q 2384 2075 2632 2365 
Q 2881 2656 2881 3163 
Q 2881 3666 2632 3958 
Q 2384 4250 1959 4250 
Q 1534 4250 1286 3958 
Q 1038 3666 1038 3163 
Q 1038 2656 1286 2365 
Q 1534 2075 1959 2075 
z
" transform="scale(0.015625)"/>
      </defs>
      <use xlink:href="#DejaVuSans-32"/>
      <use xlink:href="#DejaVuSans-30" transform="translate(63.623047 0)"/>
      <use xlink:href="#DejaVuSans-31" transform="translate(127.246094 0)"/>
      <use xlink:href="#DejaVuSans-39" transform="translate(190.869141 0)"/>
     </g>
    </g>
    <g id="line2d_48">
     <path d="M 65.16375 69.911719 
L 76.16375 69.911719 
L 87.16375 69.911719 
" style="fill: none; stroke: #83c966; stroke-opacity: 0.8; stroke-width: 2.5; stroke-linecap: square"/>
    </g>
    <g id="text_27">
     <!-- 2025 -->
     <g transform="translate(95.96375 73.761719) scale(0.11 -0.11)">
      <use xlink:href="#DejaVuSans-32"/>
      <use xlink:href="#DejaVuSans-30" transform="translate(63.623047 0)"/>
      <use xlink:href="#DejaVuSans-32" transform="translate(127.246094 0)"/>
      <use xlink:href="#DejaVuSans-35" transform="translate(190.869141 0)"/>
     </g>
    </g>
   </g>
  </g>
 </g>
 <defs>
  <clipPath id="pb19785e63d">
   <rect x="55.26375" y="39.3575" width="793.15" height="344.84"/>
  </clipPath>
 </defs>
</svg>
