<?xml version="1.0" encoding="utf-8" standalone="no"?>
<!DOCTYPE svg PUBLIC "-//W3C//DTD SVG 1.1//EN"
  "http://www.w3.org/Graphics/SVG/1.1/DTD/svg11.dtd">
<svg xmlns:xlink="http://www.w3.org/1999/xlink" width="711.521791pt" height="423.689375pt" viewBox="0 0 711.521791 423.689375" xmlns="http://www.w3.org/2000/svg" version="1.1">
 <metadata>
  <rdf:RDF xmlns:dc="http://purl.org/dc/elements/1.1/" xmlns:cc="http://creativecommons.org/ns#" xmlns:rdf="http://www.w3.org/1999/02/22-rdf-syntax-ns#">
   <cc:Work>
    <dc:type rdf:resource="http://purl.org/dc/dcmitype/StillImage"/>
    <dc:date>2026-01-28T17:49:43.671235</dc:date>
    <dc:format>image/svg+xml</dc:format>
    <dc:creator>
     <cc:Agent>
      <dc:title>Matplotlib v3.10.8, https://matplotlib.org/</dc:title>
     </cc:Agent>
    </dc:creator>
   </cc:Work>
  </rdf:RDF>
 </metadata>
 <defs>
  <style type="text/css">*{stroke-linejoin: round; stroke-linecap: butt}</style>
 </defs>
 <g id="figure_1">
  <g id="patch_1">
   <path d="M 0 423.689375 
L 711.521791 423.689375 
L 711.521791 0 
L 0 0 
L 0 423.689375 
z
" style="fill: none"/>
  </g>
  <g id="axes_1">
   <g id="patch_2">
    <path d="M 61.62625 384.1975 
L 704.321791 384.1975 
L 704.321791 39.3575 
L 61.62625 39.3575 
L 61.62625 384.1975 
z
" style="fill: none"/>
   </g>
   <g id="matplotlib.axis_1">
    <g id="xtick_1">
     <g id="line2d_1">
      <path d="M 61.62625 384.1975 
L 61.62625 39.3575 
" clip-path="url(#p7b291c9006)" style="fill: none; stroke-dasharray: 2.96,1.28; stroke-dashoffset: 0; stroke: #b0b0b0; stroke-opacity: 0.3; stroke-width: 0.8"/>
     </g>
     <g id="line2d_2">
      <defs>
       <path id="m097b5a8307" d="M 0 0 
L 0 3.5 
" style="stroke: #000000; stroke-width: 0.8"/>
      </defs>
      <g>
       <use xlink:href="#m097b5a8307" x="61.62625" y="384.1975" style="stroke: #000000; stroke-width: 0.8"/>
      </g>
     </g>
     <g id="text_1">
      <!-- Jan -->
      <g transform="translate(53.918438 398.795937) scale(0.1 -0.1)">
       <defs>
        <path id="DejaVuSans-4a" d="M 628 4666 
L 1259 4666 
L 1259 325 
Q 1259 -519 939 -900 
Q 619 -1281 -91 -1281 
L -331 -1281 
L -331 -750 
L -134 -750 
Q 284 -750 456 -515 
Q 628 -281 628 325 
L 628 4666 
z
" transform="scale(0.015625)"/>
        <path id="DejaVuSans-61" d="M 2194 1759 
Q 1497 1759 1228 1600 
Q 959 1441 959 1056 
Q 959 750 1161 570 
Q 1363 391 1709 391 
Q 2188 391 2477 730 
Q 2766 1069 2766 1631 
L 2766 1759 
L 2194 1759 
z
M 3341 1997 
L 3341 0 
L 2766 0 
L 2766 531 
Q 2569 213 2275 61 
Q 1981 -91 1556 -91 
Q 1019 -91 701 211 
Q 384 513 384 1019 
Q 384 1609 779 1909 
Q 1175 2209 1959 2209 
L 2766 2209 
L 2766 2266 
Q 2766 2663 2505 2880 
Q 2244 3097 1772 3097 
Q 1472 3097 1187 3025 
Q 903 2953 641 2809 
L 641 3341 
Q 956 3463 1253 3523 
Q 1550 3584 1831 3584 
Q 2591 3584 2966 3190 
Q 3341 2797 3341 1997 
z
" transform="scale(0.015625)"/>
        <path id="DejaVuSans-6e" d="M 3513 2113 
L 3513 0 
L 2938 0 
L 2938 2094 
Q 2938 2591 2744 2837 
Q 2550 3084 2163 3084 
Q 1697 3084 1428 2787 
Q 1159 2491 1159 1978 
L 1159 0 
L 581 0 
L 581 3500 
L 1159 3500 
L 1159 2956 
Q 1366 3272 1645 3428 
Q 1925 3584 2291 3584 
Q 2894 3584 3203 3211 
Q 3513 2838 3513 2113 
z
" transform="scale(0.015625)"/>
       </defs>
       <use xlink:href="#DejaVuSans-4a"/>
       <use xlink:href="#DejaVuSans-61" transform="translate(29.492188 0)"/>
       <use xlink:href="#DejaVuSans-6e" transform="translate(90.771484 0)"/>
      </g>
     </g>
    </g>
    <g id="xtick_2">
     <g id="line2d_3">
      <path d="M 115.473714 384.1975 
L 115.473714 39.3575 
" clip-path="url(#p7b291c9006)" style="fill: none; stroke-dasharray: 2.96,1.28; stroke-dashoffset: 0; stroke: #b0b0b0; stroke-opacity: 0.3; stroke-width: 0.8"/>
     </g>
     <g id="line2d_4">
      <g>
       <use xlink:href="#m097b5a8307" x="115.473714" y="384.1975" style="stroke: #000000; stroke-width: 0.8"/>
      </g>
     </g>
     <g id="text_2">
      <!-- Feb -->
      <g transform="translate(106.622152 398.795937) scale(0.1 -0.1)">
       <defs>
        <path id="DejaVuSans-46" d="M 628 4666 
L 3309 4666 
L 3309 4134 
L 1259 4134 
L 1259 2759 
L 3109 2759 
L 3109 2228 
L 1259 2228 
L 1259 0 
L 628 0 
L 628 4666 
z
" transform="scale(0.015625)"/>
        <path id="DejaVuSans-65" d="M 3597 1894 
L 3597 1613 
L 953 1613 
Q 991 1019 1311 708 
Q 1631 397 2203 397 
Q 2534 397 2845 478 
Q 3156 559 3463 722 
L 3463 178 
Q 3153 47 2828 -22 
Q 2503 -91 2169 -91 
Q 1331 -91 842 396 
Q 353 884 353 1716 
Q 353 2575 817 3079 
Q 1281 3584 2069 3584 
Q 2775 3584 3186 3129 
Q 3597 2675 3597 1894 
z
M 3022 2063 
Q 3016 2534 2758 2815 
Q 2500 3097 2075 3097 
Q 1594 3097 1305 2825 
Q 1016 2553 972 2059 
L 3022 2063 
z
" transform="scale(0.015625)"/>
        <path id="DejaVuSans-62" d="M 3116 1747 
Q 3116 2381 2855 2742 
Q 2594 3103 2138 3103 
Q 1681 3103 1420 2742 
Q 1159 2381 1159 1747 
Q 1159 1113 1420 752 
Q 1681 391 2138 391 
Q 2594 391 2855 752 
Q 3116 1113 3116 1747 
z
M 1159 2969 
Q 1341 3281 1617 3432 
Q 1894 3584 2278 3584 
Q 2916 3584 3314 3078 
Q 3713 2572 3713 1747 
Q 3713 922 3314 415 
Q 2916 -91 2278 -91 
Q 1894 -91 1617 61 
Q 1341 213 1159 525 
L 1159 0 
L 581 0 
L 581 4863 
L 1159 4863 
L 1159 2969 
z
" transform="scale(0.015625)"/>
       </defs>
       <use xlink:href="#DejaVuSans-46"/>
       <use xlink:href="#DejaVuSans-65" transform="translate(52.019531 0)"/>
       <use xlink:href="#DejaVuSans-62" transform="translate(113.542969 0)"/>
      </g>
     </g>
    </g>
    <g id="xtick_3">
     <g id="line2d_5">
      <path d="M 164.110133 384.1975 
L 164.110133 39.3575 
" clip-path="url(#p7b291c9006)" style="fill: none; stroke-dasharray: 2.96,1.28; stroke-dashoffset: 0; stroke: #b0b0b0; stroke-opacity: 0.3; stroke-width: 0.8"/>
     </g>
     <g id="line2d_6">
      <g>
       <use xlink:href="#m097b5a8307" x="164.110133" y="384.1975" style="stroke: #000000; stroke-width: 0.8"/>
      </g>
     </g>
     <g id="text_3">
      <!-- Mar -->
      <g transform="translate(154.67654 398.795937) scale(0.1 -0.1)">
       <defs>
        <path id="DejaVuSans-4d" d="M 628 4666 
L 1569 4666 
L 2759 1491 
L 3956 4666 
L 4897 4666 
L 4897 0 
L 4281 0 
L 4281 4097 
L 3078 897 
L 2444 897 
L 1241 4097 
L 1241 0 
L 628 0 
L 628 4666 
z
" transform="scale(0.015625)"/>
        <path id="DejaVuSans-72" d="M 2631 2963 
Q 2534 3019 2420 3045 
Q 2306 3072 2169 3072 
Q 1681 3072 1420 2755 
Q 1159 2438 1159 1844 
L 1159 0 
L 581 0 
L 581 3500 
L 1159 3500 
L 1159 2956 
Q 1341 3275 1631 3429 
Q 1922 3584 2338 3584 
Q 2397 3584 2469 3576 
Q 2541 3569 2628 3553 
L 2631 2963 
z
" transform="scale(0.015625)"/>
       </defs>
       <use xlink:href="#DejaVuSans-4d"/>
       <use xlink:href="#DejaVuSans-61" transform="translate(86.279297 0)"/>
       <use xlink:href="#DejaVuSans-72" transform="translate(147.558594 0)"/>
      </g>
     </g>
    </g>
    <g id="xtick_4">
     <g id="line2d_7">
      <path d="M 217.957598 384.1975 
L 217.957598 39.3575 
" clip-path="url(#p7b291c9006)" style="fill: none; stroke-dasharray: 2.96,1.28; stroke-dashoffset: 0; stroke: #b0b0b0; stroke-opacity: 0.3; stroke-width: 0.8"/>
     </g>
     <g id="line2d_8">
      <g>
       <use xlink:href="#m097b5a8307" x="217.957598" y="384.1975" style="stroke: #000000; stroke-width: 0.8"/>
      </g>
     </g>
     <g id="text_4">
      <!-- Apr -->
      <g transform="translate(209.307598 398.795937) scale(0.1 -0.1)">
       <defs>
        <path id="DejaVuSans-41" d="M 2188 4044 
L 1331 1722 
L 3047 1722 
L 2188 4044 
z
M 1831 4666 
L 2547 4666 
L 4325 0 
L 3669 0 
L 3244 1197 
L 1141 1197 
L 716 0 
L 50 0 
L 1831 4666 
z
" transform="scale(0.015625)"/>
        <path id="DejaVuSans-70" d="M 1159 525 
L 1159 -1331 
L 581 -1331 
L 581 3500 
L 1159 3500 
L 1159 2969 
Q 1341 3281 1617 3432 
Q 1894 3584 2278 3584 
Q 2916 3584 3314 3078 
Q 3713 2572 3713 1747 
Q 3713 922 3314 415 
Q 2916 -91 2278 -91 
Q 1894 -91 1617 61 
Q 1341 213 1159 525 
z
M 3116 1747 
Q 3116 2381 2855 2742 
Q 2594 3103 2138 3103 
Q 1681 3103 1420 2742 
Q 1159 2381 1159 1747 
Q 1159 1113 1420 752 
Q 1681 391 2138 391 
Q 2594 391 2855 752 
Q 3116 1113 3116 1747 
z
" transform="scale(0.015625)"/>
       </defs>
       <use xlink:href="#DejaVuSans-41"/>
       <use xlink:href="#DejaVuSans-70" transform="translate(68.408203 0)"/>
       <use xlink:href="#DejaVuSans-72" transform="translate(131.884766 0)"/>
      </g>
     </g>
    </g>
    <g id="xtick_5">
     <g id="line2d_9">
      <path d="M 270.068047 384.1975 
L 270.068047 39.3575 
" clip-path="url(#p7b291c9006)" style="fill: none; stroke-dasharray: 2.96,1.28; stroke-dashoffset: 0; stroke: #b0b0b0; stroke-opacity: 0.3; stroke-width: 0.8"/>
     </g>
     <g id="line2d_10">
      <g>
       <use xlink:href="#m097b5a8307" x="270.068047" y="384.1975" style="stroke: #000000; stroke-width: 0.8"/>
      </g>
     </g>
     <g id="text_5">
      <!-- May -->
      <g transform="translate(259.730547 398.795937) scale(0.1 -0.1)">
       <defs>
        <path id="DejaVuSans-79" d="M 2059 -325 
Q 1816 -950 1584 -1140 
Q 1353 -1331 966 -1331 
L 506 -1331 
L 506 -850 
L 844 -850 
Q 1081 -850 1212 -737 
Q 1344 -625 1503 -206 
L 1606 56 
L 191 3500 
L 800 3500 
L 1894 763 
L 2988 3500 
L 3597 3500 
L 2059 -325 
z
" transform="scale(0.015625)"/>
       </defs>
       <use xlink:href="#DejaVuSans-4d"/>
       <use xlink:href="#DejaVuSans-61" transform="translate(86.279297 0)"/>
       <use xlink:href="#DejaVuSans-79" transform="translate(147.558594 0)"/>
      </g>
     </g>
    </g>
    <g id="xtick_6">
     <g id="line2d_11">
      <path d="M 323.915511 384.1975 
L 323.915511 39.3575 
" clip-path="url(#p7b291c9006)" style="fill: none; stroke-dasharray: 2.96,1.28; stroke-dashoffset: 0; stroke: #b0b0b0; stroke-opacity: 0.3; stroke-width: 0.8"/>
     </g>
     <g id="line2d_12">
      <g>
       <use xlink:href="#m097b5a8307" x="323.915511" y="384.1975" style="stroke: #000000; stroke-width: 0.8"/>
      </g>
     </g>
     <g id="text_6">
      <!-- Jun -->
      <g transform="translate(316.103011 398.795937) scale(0.1 -0.1)">
       <defs>
        <path id="DejaVuSans-75" d="M 544 1381 
L 544 3500 
L 1119 3500 
L 1119 1403 
Q 1119 906 1312 657 
Q 1506 409 1894 409 
Q 2359 409 2629 706 
Q 2900 1003 2900 1516 
L 2900 3500 
L 3475 3500 
L 3475 0 
L 2900 0 
L 2900 538 
Q 2691 219 2414 64 
Q 2138 -91 1772 -91 
Q 1169 -91 856 284 
Q 544 659 544 1381 
z
M 1991 3584 
L 1991 3584 
z
" transform="scale(0.015625)"/>
       </defs>
       <use xlink:href="#DejaVuSans-4a"/>
       <use xlink:href="#DejaVuSans-75" transform="translate(29.492188 0)"/>
       <use xlink:href="#DejaVuSans-6e" transform="translate(92.871094 0)"/>
      </g>
     </g>
    </g>
    <g id="xtick_7">
     <g id="line2d_13">
      <path d="M 376.02596 384.1975 
L 376.02596 39.3575 
" clip-path="url(#p7b291c9006)" style="fill: none; stroke-dasharray: 2.96,1.28; stroke-dashoffset: 0; stroke: #b0b0b0; stroke-opacity: 0.3; stroke-width: 0.8"/>
     </g>
     <g id="line2d_14">
      <g>
       <use xlink:href="#m097b5a8307" x="376.02596" y="384.1975" style="stroke: #000000; stroke-width: 0.8"/>
      </g>
     </g>
     <g id="text_7">
      <!-- Jul -->
      <g transform="translate(369.993148 398.795937) scale(0.1 -0.1)">
       <defs>
        <path id="DejaVuSans-6c" d="M 603 4863 
L 1178 4863 
L 1178 0 
L 603 0 
L 603 4863 
z
" transform="scale(0.015625)"/>
       </defs>
       <use xlink:href="#DejaVuSans-4a"/>
       <use xlink:href="#DejaVuSans-75" transform="translate(29.492188 0)"/>
       <use xlink:href="#DejaVuSans-6c" transform="translate(92.871094 0)"/>
      </g>
     </g>
    </g>
    <g id="xtick_8">
     <g id="line2d_15">
      <path d="M 429.873425 384.1975 
L 429.873425 39.3575 
" clip-path="url(#p7b291c9006)" style="fill: none; stroke-dasharray: 2.96,1.28; stroke-dashoffset: 0; stroke: #b0b0b0; stroke-opacity: 0.3; stroke-width: 0.8"/>
     </g>
     <g id="line2d_16">
      <g>
       <use xlink:href="#m097b5a8307" x="429.873425" y="384.1975" style="stroke: #000000; stroke-width: 0.8"/>
      </g>
     </g>
     <g id="text_8">
      <!-- Aug -->
      <g transform="translate(420.110143 398.795937) scale(0.1 -0.1)">
       <defs>
        <path id="DejaVuSans-67" d="M 2906 1791 
Q 2906 2416 2648 2759 
Q 2391 3103 1925 3103 
Q 1463 3103 1205 2759 
Q 947 2416 947 1791 
Q 947 1169 1205 825 
Q 1463 481 1925 481 
Q 2391 481 2648 825 
Q 2906 1169 2906 1791 
z
M 3481 434 
Q 3481 -459 3084 -895 
Q 2688 -1331 1869 -1331 
Q 1566 -1331 1297 -1286 
Q 1028 -1241 775 -1147 
L 775 -588 
Q 1028 -725 1275 -790 
Q 1522 -856 1778 -856 
Q 2344 -856 2625 -561 
Q 2906 -266 2906 331 
L 2906 616 
Q 2728 306 2450 153 
Q 2172 0 1784 0 
Q 1141 0 747 490 
Q 353 981 353 1791 
Q 353 2603 747 3093 
Q 1141 3584 1784 3584 
Q 2172 3584 2450 3431 
Q 2728 3278 2906 2969 
L 2906 3500 
L 3481 3500 
L 3481 434 
z
" transform="scale(0.015625)"/>
       </defs>
       <use xlink:href="#DejaVuSans-41"/>
       <use xlink:href="#DejaVuSans-75" transform="translate(68.408203 0)"/>
       <use xlink:href="#DejaVuSans-67" transform="translate(131.787109 0)"/>
      </g>
     </g>
    </g>
    <g id="xtick_9">
     <g id="line2d_17">
      <path d="M 483.720889 384.1975 
L 483.720889 39.3575 
" clip-path="url(#p7b291c9006)" style="fill: none; stroke-dasharray: 2.96,1.28; stroke-dashoffset: 0; stroke: #b0b0b0; stroke-opacity: 0.3; stroke-width: 0.8"/>
     </g>
     <g id="line2d_18">
      <g>
       <use xlink:href="#m097b5a8307" x="483.720889" y="384.1975" style="stroke: #000000; stroke-width: 0.8"/>
      </g>
     </g>
     <g id="text_9">
      <!-- Sep -->
      <g transform="translate(474.295889 398.795937) scale(0.1 -0.1)">
       <defs>
        <path id="DejaVuSans-53" d="M 3425 4513 
L 3425 3897 
Q 3066 4069 2747 4153 
Q 2428 4238 2131 4238 
Q 1616 4238 1336 4038 
Q 1056 3838 1056 3469 
Q 1056 3159 1242 3001 
Q 1428 2844 1947 2747 
L 2328 2669 
Q 3034 2534 3370 2195 
Q 3706 1856 3706 1288 
Q 3706 609 3251 259 
Q 2797 -91 1919 -91 
Q 1588 -91 1214 -16 
Q 841 59 441 206 
L 441 856 
Q 825 641 1194 531 
Q 1563 422 1919 422 
Q 2459 422 2753 634 
Q 3047 847 3047 1241 
Q 3047 1584 2836 1778 
Q 2625 1972 2144 2069 
L 1759 2144 
Q 1053 2284 737 2584 
Q 422 2884 422 3419 
Q 422 4038 858 4394 
Q 1294 4750 2059 4750 
Q 2388 4750 2728 4690 
Q 3069 4631 3425 4513 
z
" transform="scale(0.015625)"/>
       </defs>
       <use xlink:href="#DejaVuSans-53"/>
       <use xlink:href="#DejaVuSans-65" transform="translate(63.476562 0)"/>
       <use xlink:href="#DejaVuSans-70" transform="translate(125 0)"/>
      </g>
     </g>
    </g>
    <g id="xtick_10">
     <g id="line2d_19">
      <path d="M 535.831338 384.1975 
L 535.831338 39.3575 
" clip-path="url(#p7b291c9006)" style="fill: none; stroke-dasharray: 2.96,1.28; stroke-dashoffset: 0; stroke: #b0b0b0; stroke-opacity: 0.3; stroke-width: 0.8"/>
     </g>
     <g id="line2d_20">
      <g>
       <use xlink:href="#m097b5a8307" x="535.831338" y="384.1975" style="stroke: #000000; stroke-width: 0.8"/>
      </g>
     </g>
     <g id="text_10">
      <!-- Oct -->
      <g transform="translate(527.186026 398.795937) scale(0.1 -0.1)">
       <defs>
        <path id="DejaVuSans-4f" d="M 2522 4238 
Q 1834 4238 1429 3725 
Q 1025 3213 1025 2328 
Q 1025 1447 1429 934 
Q 1834 422 2522 422 
Q 3209 422 3611 934 
Q 4013 1447 4013 2328 
Q 4013 3213 3611 3725 
Q 3209 4238 2522 4238 
z
M 2522 4750 
Q 3503 4750 4090 4092 
Q 4678 3434 4678 2328 
Q 4678 1225 4090 567 
Q 3503 -91 2522 -91 
Q 1538 -91 948 565 
Q 359 1222 359 2328 
Q 359 3434 948 4092 
Q 1538 4750 2522 4750 
z
" transform="scale(0.015625)"/>
        <path id="DejaVuSans-63" d="M 3122 3366 
L 3122 2828 
Q 2878 2963 2633 3030 
Q 2388 3097 2138 3097 
Q 1578 3097 1268 2742 
Q 959 2388 959 1747 
Q 959 1106 1268 751 
Q 1578 397 2138 397 
Q 2388 397 2633 464 
Q 2878 531 3122 666 
L 3122 134 
Q 2881 22 2623 -34 
Q 2366 -91 2075 -91 
Q 1284 -91 818 406 
Q 353 903 353 1747 
Q 353 2603 823 3093 
Q 1294 3584 2113 3584 
Q 2378 3584 2631 3529 
Q 2884 3475 3122 3366 
z
" transform="scale(0.015625)"/>
        <path id="DejaVuSans-74" d="M 1172 4494 
L 1172 3500 
L 2356 3500 
L 2356 3053 
L 1172 3053 
L 1172 1153 
Q 1172 725 1289 603 
Q 1406 481 1766 481 
L 2356 481 
L 2356 0 
L 1766 0 
Q 1100 0 847 248 
Q 594 497 594 1153 
L 594 3053 
L 172 3053 
L 172 3500 
L 594 3500 
L 594 4494 
L 1172 4494 
z
" transform="scale(0.015625)"/>
       </defs>
       <use xlink:href="#DejaVuSans-4f"/>
       <use xlink:href="#DejaVuSans-63" transform="translate(78.710938 0)"/>
       <use xlink:href="#DejaVuSans-74" transform="translate(133.691406 0)"/>
      </g>
     </g>
    </g>
    <g id="xtick_11">
     <g id="line2d_21">
      <path d="M 589.678802 384.1975 
L 589.678802 39.3575 
" clip-path="url(#p7b291c9006)" style="fill: none; stroke-dasharray: 2.96,1.28; stroke-dashoffset: 0; stroke: #b0b0b0; stroke-opacity: 0.3; stroke-width: 0.8"/>
     </g>
     <g id="line2d_22">
      <g>
       <use xlink:href="#m097b5a8307" x="589.678802" y="384.1975" style="stroke: #000000; stroke-width: 0.8"/>
      </g>
     </g>
     <g id="text_11">
      <!-- Nov -->
      <g transform="translate(579.919427 398.795937) scale(0.1 -0.1)">
       <defs>
        <path id="DejaVuSans-4e" d="M 628 4666 
L 1478 4666 
L 3547 763 
L 3547 4666 
L 4159 4666 
L 4159 0 
L 3309 0 
L 1241 3903 
L 1241 0 
L 628 0 
L 628 4666 
z
" transform="scale(0.015625)"/>
        <path id="DejaVuSans-6f" d="M 1959 3097 
Q 1497 3097 1228 2736 
Q 959 2375 959 1747 
Q 959 1119 1226 758 
Q 1494 397 1959 397 
Q 2419 397 2687 759 
Q 2956 1122 2956 1747 
Q 2956 2369 2687 2733 
Q 2419 3097 1959 3097 
z
M 1959 3584 
Q 2709 3584 3137 3096 
Q 3566 2609 3566 1747 
Q 3566 888 3137 398 
Q 2709 -91 1959 -91 
Q 1206 -91 779 398 
Q 353 888 353 1747 
Q 353 2609 779 3096 
Q 1206 3584 1959 3584 
z
" transform="scale(0.015625)"/>
        <path id="DejaVuSans-76" d="M 191 3500 
L 800 3500 
L 1894 563 
L 2988 3500 
L 3597 3500 
L 2284 0 
L 1503 0 
L 191 3500 
z
" transform="scale(0.015625)"/>
       </defs>
       <use xlink:href="#DejaVuSans-4e"/>
       <use xlink:href="#DejaVuSans-6f" transform="translate(74.804688 0)"/>
       <use xlink:href="#DejaVuSans-76" transform="translate(135.986328 0)"/>
      </g>
     </g>
    </g>
    <g id="xtick_12">
     <g id="line2d_23">
      <path d="M 641.789251 384.1975 
L 641.789251 39.3575 
" clip-path="url(#p7b291c9006)" style="fill: none; stroke-dasharray: 2.96,1.28; stroke-dashoffset: 0; stroke: #b0b0b0; stroke-opacity: 0.3; stroke-width: 0.8"/>
     </g>
     <g id="line2d_24">
      <g>
       <use xlink:href="#m097b5a8307" x="641.789251" y="384.1975" style="stroke: #000000; stroke-width: 0.8"/>
      </g>
     </g>
     <g id="text_12">
      <!-- Dec -->
      <g transform="translate(632.11347 398.795937) scale(0.1 -0.1)">
       <defs>
        <path id="DejaVuSans-44" d="M 1259 4147 
L 1259 519 
L 2022 519 
Q 2988 519 3436 956 
Q 3884 1394 3884 2338 
Q 3884 3275 3436 3711 
Q 2988 4147 2022 4147 
L 1259 4147 
z
M 628 4666 
L 1925 4666 
Q 3281 4666 3915 4102 
Q 4550 3538 4550 2338 
Q 4550 1131 3912 565 
Q 3275 0 1925 0 
L 628 0 
L 628 4666 
z
" transform="scale(0.015625)"/>
       </defs>
       <use xlink:href="#DejaVuSans-44"/>
       <use xlink:href="#DejaVuSans-65" transform="translate(77.001953 0)"/>
       <use xlink:href="#DejaVuSans-63" transform="translate(138.525391 0)"/>
      </g>
     </g>
    </g>
    <g id="xtick_13">
     <g id="line2d_25">
      <path d="M 695.636716 384.1975 
L 695.636716 39.3575 
" clip-path="url(#p7b291c9006)" style="fill: none; stroke-dasharray: 2.96,1.28; stroke-dashoffset: 0; stroke: #b0b0b0; stroke-opacity: 0.3; stroke-width: 0.8"/>
     </g>
     <g id="line2d_26">
      <g>
       <use xlink:href="#m097b5a8307" x="695.636716" y="384.1975" style="stroke: #000000; stroke-width: 0.8"/>
      </g>
     </g>
     <g id="text_13">
      <!-- Jan -->
      <g transform="translate(687.928903 398.795937) scale(0.1 -0.1)">
       <use xlink:href="#DejaVuSans-4a"/>
       <use xlink:href="#DejaVuSans-61" transform="translate(29.492188 0)"/>
       <use xlink:href="#DejaVuSans-6e" transform="translate(90.771484 0)"/>
      </g>
     </g>
    </g>
    <g id="text_14">
     <!-- Day of the year -->
     <g transform="translate(336.388708 413.99375) scale(0.12 -0.12)">
      <defs>
       <path id="DejaVuSans-20" transform="scale(0.015625)"/>
       <path id="DejaVuSans-66" d="M 2375 4863 
L 2375 4384 
L 1825 4384 
Q 1516 4384 1395 4259 
Q 1275 4134 1275 3809 
L 1275 3500 
L 2222 3500 
L 2222 3053 
L 1275 3053 
L 1275 0 
L 697 0 
L 697 3053 
L 147 3053 
L 147 3500 
L 697 3500 
L 697 3744 
Q 697 4328 969 4595 
Q 1241 4863 1831 4863 
L 2375 4863 
z
" transform="scale(0.015625)"/>
       <path id="DejaVuSans-68" d="M 3513 2113 
L 3513 0 
L 2938 0 
L 2938 2094 
Q 2938 2591 2744 2837 
Q 2550 3084 2163 3084 
Q 1697 3084 1428 2787 
Q 1159 2491 1159 1978 
L 1159 0 
L 581 0 
L 581 4863 
L 1159 4863 
L 1159 2956 
Q 1366 3272 1645 3428 
Q 1925 3584 2291 3584 
Q 2894 3584 3203 3211 
Q 3513 2838 3513 2113 
z
" transform="scale(0.015625)"/>
      </defs>
      <use xlink:href="#DejaVuSans-44"/>
      <use xlink:href="#DejaVuSans-61" transform="translate(77.001953 0)"/>
      <use xlink:href="#DejaVuSans-79" transform="translate(138.28125 0)"/>
      <use xlink:href="#DejaVuSans-20" transform="translate(197.460938 0)"/>
      <use xlink:href="#DejaVuSans-6f" transform="translate(229.248047 0)"/>
      <use xlink:href="#DejaVuSans-66" transform="translate(290.429688 0)"/>
      <use xlink:href="#DejaVuSans-20" transform="translate(325.634766 0)"/>
      <use xlink:href="#DejaVuSans-74" transform="translate(357.421875 0)"/>
      <use xlink:href="#DejaVuSans-68" transform="translate(396.630859 0)"/>
      <use xlink:href="#DejaVuSans-65" transform="translate(460.009766 0)"/>
      <use xlink:href="#DejaVuSans-20" transform="translate(521.533203 0)"/>
      <use xlink:href="#DejaVuSans-79" transform="translate(553.320312 0)"/>
      <use xlink:href="#DejaVuSans-65" transform="translate(612.5 0)"/>
      <use xlink:href="#DejaVuSans-61" transform="translate(674.023438 0)"/>
      <use xlink:href="#DejaVuSans-72" transform="translate(735.302734 0)"/>
     </g>
    </g>
   </g>
   <g id="matplotlib.axis_2">
    <g id="ytick_1">
     <g id="line2d_27">
      <path d="M 61.62625 384.1975 
L 704.321791 384.1975 
" clip-path="url(#p7b291c9006)" style="fill: none; stroke-dasharray: 2.96,1.28; stroke-dashoffset: 0; stroke: #b0b0b0; stroke-opacity: 0.3; stroke-width: 0.8"/>
     </g>
     <g id="line2d_28">
      <defs>
       <path id="m3d6718e52f" d="M 0 0 
L -3.5 0 
" style="stroke: #000000; stroke-width: 0.8"/>
      </defs>
      <g>
       <use xlink:href="#m3d6718e52f" x="61.62625" y="384.1975" style="stroke: #000000; stroke-width: 0.8"/>
      </g>
     </g>
     <g id="text_15">
      <!-- 0 -->
      <g transform="translate(48.26375 387.996719) scale(0.1 -0.1)">
       <defs>
        <path id="DejaVuSans-30" d="M 2034 4250 
Q 1547 4250 1301 3770 
Q 1056 3291 1056 2328 
Q 1056 1369 1301 889 
Q 1547 409 2034 409 
Q 2525 409 2770 889 
Q 3016 1369 3016 2328 
Q 3016 3291 2770 3770 
Q 2525 4250 2034 4250 
z
M 2034 4750 
Q 2819 4750 3233 4129 
Q 3647 3509 3647 2328 
Q 3647 1150 3233 529 
Q 2819 -91 2034 -91 
Q 1250 -91 836 529 
Q 422 1150 422 2328 
Q 422 3509 836 4129 
Q 1250 4750 2034 4750 
z
" transform="scale(0.015625)"/>
       </defs>
       <use xlink:href="#DejaVuSans-30"/>
      </g>
     </g>
    </g>
    <g id="ytick_2">
     <g id="line2d_29">
      <path d="M 61.62625 321.637178 
L 704.321791 321.637178 
" clip-path="url(#p7b291c9006)" style="fill: none; stroke-dasharray: 2.96,1.28; stroke-dashoffset: 0; stroke: #b0b0b0; stroke-opacity: 0.3; stroke-width: 0.8"/>
     </g>
     <g id="line2d_30">
      <g>
       <use xlink:href="#m3d6718e52f" x="61.62625" y="321.637178" style="stroke: #000000; stroke-width: 0.8"/>
      </g>
     </g>
     <g id="text_16">
      <!-- 10000 -->
      <g transform="translate(22.81375 325.436397) scale(0.1 -0.1)">
       <defs>
        <path id="DejaVuSans-31" d="M 794 531 
L 1825 531 
L 1825 4091 
L 703 3866 
L 703 4441 
L 1819 4666 
L 2450 4666 
L 2450 531 
L 3481 531 
L 3481 0 
L 794 0 
L 794 531 
z
" transform="scale(0.015625)"/>
       </defs>
       <use xlink:href="#DejaVuSans-31"/>
       <use xlink:href="#DejaVuSans-30" transform="translate(63.623047 0)"/>
       <use xlink:href="#DejaVuSans-30" transform="translate(127.246094 0)"/>
       <use xlink:href="#DejaVuSans-30" transform="translate(190.869141 0)"/>
       <use xlink:href="#DejaVuSans-30" transform="translate(254.492188 0)"/>
      </g>
     </g>
    </g>
    <g id="ytick_3">
     <g id="line2d_31">
      <path d="M 61.62625 259.076857 
L 704.321791 259.076857 
" clip-path="url(#p7b291c9006)" style="fill: none; stroke-dasharray: 2.96,1.28; stroke-dashoffset: 0; stroke: #b0b0b0; stroke-opacity: 0.3; stroke-width: 0.8"/>
     </g>
     <g id="line2d_32">
      <g>
       <use xlink:href="#m3d6718e52f" x="61.62625" y="259.076857" style="stroke: #000000; stroke-width: 0.8"/>
      </g>
     </g>
     <g id="text_17">
      <!-- 20000 -->
      <g transform="translate(22.81375 262.876076) scale(0.1 -0.1)">
       <defs>
        <path id="DejaVuSans-32" d="M 1228 531 
L 3431 531 
L 3431 0 
L 469 0 
L 469 531 
Q 828 903 1448 1529 
Q 2069 2156 2228 2338 
Q 2531 2678 2651 2914 
Q 2772 3150 2772 3378 
Q 2772 3750 2511 3984 
Q 2250 4219 1831 4219 
Q 1534 4219 1204 4116 
Q 875 4013 500 3803 
L 500 4441 
Q 881 4594 1212 4672 
Q 1544 4750 1819 4750 
Q 2544 4750 2975 4387 
Q 3406 4025 3406 3419 
Q 3406 3131 3298 2873 
Q 3191 2616 2906 2266 
Q 2828 2175 2409 1742 
Q 1991 1309 1228 531 
z
" transform="scale(0.015625)"/>
       </defs>
       <use xlink:href="#DejaVuSans-32"/>
       <use xlink:href="#DejaVuSans-30" transform="translate(63.623047 0)"/>
       <use xlink:href="#DejaVuSans-30" transform="translate(127.246094 0)"/>
       <use xlink:href="#DejaVuSans-30" transform="translate(190.869141 0)"/>
       <use xlink:href="#DejaVuSans-30" transform="translate(254.492188 0)"/>
      </g>
     </g>
    </g>
    <g id="ytick_4">
     <g id="line2d_33">
      <path d="M 61.62625 196.516535 
L 704.321791 196.516535 
" clip-path="url(#p7b291c9006)" style="fill: none; stroke-dasharray: 2.96,1.28; stroke-dashoffset: 0; stroke: #b0b0b0; stroke-opacity: 0.3; stroke-width: 0.8"/>
     </g>
     <g id="line2d_34">
      <g>
       <use xlink:href="#m3d6718e52f" x="61.62625" y="196.516535" style="stroke: #000000; stroke-width: 0.8"/>
      </g>
     </g>
     <g id="text_18">
      <!-- 30000 -->
      <g transform="translate(22.81375 200.315754) scale(0.1 -0.1)">
       <defs>
        <path id="DejaVuSans-33" d="M 2597 2516 
Q 3050 2419 3304 2112 
Q 3559 1806 3559 1356 
Q 3559 666 3084 287 
Q 2609 -91 1734 -91 
Q 1441 -91 1130 -33 
Q 819 25 488 141 
L 488 750 
Q 750 597 1062 519 
Q 1375 441 1716 441 
Q 2309 441 2620 675 
Q 2931 909 2931 1356 
Q 2931 1769 2642 2001 
Q 2353 2234 1838 2234 
L 1294 2234 
L 1294 2753 
L 1863 2753 
Q 2328 2753 2575 2939 
Q 2822 3125 2822 3475 
Q 2822 3834 2567 4026 
Q 2313 4219 1838 4219 
Q 1578 4219 1281 4162 
Q 984 4106 628 3988 
L 628 4550 
Q 988 4650 1302 4700 
Q 1616 4750 1894 4750 
Q 2613 4750 3031 4423 
Q 3450 4097 3450 3541 
Q 3450 3153 3228 2886 
Q 3006 2619 2597 2516 
z
" transform="scale(0.015625)"/>
       </defs>
       <use xlink:href="#DejaVuSans-33"/>
       <use xlink:href="#DejaVuSans-30" transform="translate(63.623047 0)"/>
       <use xlink:href="#DejaVuSans-30" transform="translate(127.246094 0)"/>
       <use xlink:href="#DejaVuSans-30" transform="translate(190.869141 0)"/>
       <use xlink:href="#DejaVuSans-30" transform="translate(254.492188 0)"/>
      </g>
     </g>
    </g>
    <g id="ytick_5">
     <g id="line2d_35">
      <path d="M 61.62625 133.956214 
L 704.321791 133.956214 
" clip-path="url(#p7b291c9006)" style="fill: none; stroke-dasharray: 2.96,1.28; stroke-dashoffset: 0; stroke: #b0b0b0; stroke-opacity: 0.3; stroke-width: 0.8"/>
     </g>
     <g id="line2d_36">
      <g>
       <use xlink:href="#m3d6718e52f" x="61.62625" y="133.956214" style="stroke: #000000; stroke-width: 0.8"/>
      </g>
     </g>
     <g id="text_19">
      <!-- 40000 -->
      <g transform="translate(22.81375 137.755432) scale(0.1 -0.1)">
       <defs>
        <path id="DejaVuSans-34" d="M 2419 4116 
L 825 1625 
L 2419 1625 
L 2419 4116 
z
M 2253 4666 
L 3047 4666 
L 3047 1625 
L 3713 1625 
L 3713 1100 
L 3047 1100 
L 3047 0 
L 2419 0 
L 2419 1100 
L 313 1100 
L 313 1709 
L 2253 4666 
z
" transform="scale(0.015625)"/>
       </defs>
       <use xlink:href="#DejaVuSans-34"/>
       <use xlink:href="#DejaVuSans-30" transform="translate(63.623047 0)"/>
       <use xlink:href="#DejaVuSans-30" transform="translate(127.246094 0)"/>
       <use xlink:href="#DejaVuSans-30" transform="translate(190.869141 0)"/>
       <use xlink:href="#DejaVuSans-30" transform="translate(254.492188 0)"/>
      </g>
     </g>
    </g>
    <g id="ytick_6">
     <g id="line2d_37">
      <path d="M 61.62625 71.395892 
L 704.321791 71.395892 
" clip-path="url(#p7b291c9006)" style="fill: none; stroke-dasharray: 2.96,1.28; stroke-dashoffset: 0; stroke: #b0b0b0; stroke-opacity: 0.3; stroke-width: 0.8"/>
     </g>
     <g id="line2d_38">
      <g>
       <use xlink:href="#m3d6718e52f" x="61.62625" y="71.395892" style="stroke: #000000; stroke-width: 0.8"/>
      </g>
     </g>
     <g id="text_20">
      <!-- 50000 -->
      <g transform="translate(22.81375 75.195111) scale(0.1 -0.1)">
       <defs>
        <path id="DejaVuSans-35" d="M 691 4666 
L 3169 4666 
L 3169 4134 
L 1269 4134 
L 1269 2991 
Q 1406 3038 1543 3061 
Q 1681 3084 1819 3084 
Q 2600 3084 3056 2656 
Q 3513 2228 3513 1497 
Q 3513 744 3044 326 
Q 2575 -91 1722 -91 
Q 1428 -91 1123 -41 
Q 819 9 494 109 
L 494 744 
Q 775 591 1075 516 
Q 1375 441 1709 441 
Q 2250 441 2565 725 
Q 2881 1009 2881 1497 
Q 2881 1984 2565 2268 
Q 2250 2553 1709 2553 
Q 1456 2553 1204 2497 
Q 953 2441 691 2322 
L 691 4666 
z
" transform="scale(0.015625)"/>
       </defs>
       <use xlink:href="#DejaVuSans-35"/>
       <use xlink:href="#DejaVuSans-30" transform="translate(63.623047 0)"/>
       <use xlink:href="#DejaVuSans-30" transform="translate(127.246094 0)"/>
       <use xlink:href="#DejaVuSans-30" transform="translate(190.869141 0)"/>
       <use xlink:href="#DejaVuSans-30" transform="translate(254.492188 0)"/>
      </g>
     </g>
    </g>
    <g id="text_21">
     <!-- Daily pedestrian count -->
     <g transform="translate(16.318125 279.793125) rotate(-90) scale(0.12 -0.12)">
      <defs>
       <path id="DejaVuSans-69" d="M 603 3500 
L 1178 3500 
L 1178 0 
L 603 0 
L 603 3500 
z
M 603 4863 
L 1178 4863 
L 1178 4134 
L 603 4134 
L 603 4863 
z
" transform="scale(0.015625)"/>
       <path id="DejaVuSans-64" d="M 2906 2969 
L 2906 4863 
L 3481 4863 
L 3481 0 
L 2906 0 
L 2906 525 
Q 2725 213 2448 61 
Q 2172 -91 1784 -91 
Q 1150 -91 751 415 
Q 353 922 353 1747 
Q 353 2572 751 3078 
Q 1150 3584 1784 3584 
Q 2172 3584 2448 3432 
Q 2725 3281 2906 2969 
z
M 947 1747 
Q 947 1113 1208 752 
Q 1469 391 1925 391 
Q 2381 391 2643 752 
Q 2906 1113 2906 1747 
Q 2906 2381 2643 2742 
Q 2381 3103 1925 3103 
Q 1469 3103 1208 2742 
Q 947 2381 947 1747 
z
" transform="scale(0.015625)"/>
       <path id="DejaVuSans-73" d="M 2834 3397 
L 2834 2853 
Q 2591 2978 2328 3040 
Q 2066 3103 1784 3103 
Q 1356 3103 1142 2972 
Q 928 2841 928 2578 
Q 928 2378 1081 2264 
Q 1234 2150 1697 2047 
L 1894 2003 
Q 2506 1872 2764 1633 
Q 3022 1394 3022 966 
Q 3022 478 2636 193 
Q 2250 -91 1575 -91 
Q 1294 -91 989 -36 
Q 684 19 347 128 
L 347 722 
Q 666 556 975 473 
Q 1284 391 1588 391 
Q 1994 391 2212 530 
Q 2431 669 2431 922 
Q 2431 1156 2273 1281 
Q 2116 1406 1581 1522 
L 1381 1569 
Q 847 1681 609 1914 
Q 372 2147 372 2553 
Q 372 3047 722 3315 
Q 1072 3584 1716 3584 
Q 2034 3584 2315 3537 
Q 2597 3491 2834 3397 
z
" transform="scale(0.015625)"/>
      </defs>
      <use xlink:href="#DejaVuSans-44"/>
      <use xlink:href="#DejaVuSans-61" transform="translate(77.001953 0)"/>
      <use xlink:href="#DejaVuSans-69" transform="translate(138.28125 0)"/>
      <use xlink:href="#DejaVuSans-6c" transform="translate(166.064453 0)"/>
      <use xlink:href="#DejaVuSans-79" transform="translate(193.847656 0)"/>
      <use xlink:href="#DejaVuSans-20" transform="translate(253.027344 0)"/>
      <use xlink:href="#DejaVuSans-70" transform="translate(284.814453 0)"/>
      <use xlink:href="#DejaVuSans-65" transform="translate(348.291016 0)"/>
      <use xlink:href="#DejaVuSans-64" transform="translate(409.814453 0)"/>
      <use xlink:href="#DejaVuSans-65" transform="translate(473.291016 0)"/>
      <use xlink:href="#DejaVuSans-73" transform="translate(534.814453 0)"/>
      <use xlink:href="#DejaVuSans-74" transform="translate(586.914062 0)"/>
      <use xlink:href="#DejaVuSans-72" transform="translate(626.123047 0)"/>
      <use xlink:href="#DejaVuSans-69" transform="translate(667.236328 0)"/>
      <use xlink:href="#DejaVuSans-61" transform="translate(695.019531 0)"/>
      <use xlink:href="#DejaVuSans-6e" transform="translate(756.298828 0)"/>
      <use xlink:href="#DejaVuSans-20" transform="translate(819.677734 0)"/>
      <use xlink:href="#DejaVuSans-63" transform="translate(851.464844 0)"/>
      <use xlink:href="#DejaVuSans-6f" transform="translate(906.445312 0)"/>
      <use xlink:href="#DejaVuSans-75" transform="translate(967.626953 0)"/>
      <use xlink:href="#DejaVuSans-6e" transform="translate(1031.005859 0)"/>
      <use xlink:href="#DejaVuSans-74" transform="translate(1094.384766 0)"/>
     </g>
    </g>
   </g>
   <g id="line2d_39">
    <path d="M 63.363265 253.302539 
L 65.10028 135.076043 
L 66.837295 144.835453 
L 68.57431 191.9684 
L 70.311325 172.656028 
L 72.04834 178.461626 
L 75.52237 154.388415 
L 77.259385 109.53892 
L 78.9964 140.243526 
L 80.733415 109.119766 
L 82.47043 162.75273 
L 84.207445 184.692634 
L 85.94446 261.097555 
L 87.681475 255.473382 
L 89.41849 228.703821 
L 91.155505 251.306865 
L 92.89252 213.33275 
L 94.629535 216.416973 
L 96.366549 207.946306 
L 98.103564 248.103776 
L 99.840579 229.216815 
L 101.577594 208.471813 
L 103.314609 242.479603 
L 105.051624 224.27455 
L 106.788639 198.337041 
L 108.525654 235.804417 
L 110.262669 281.911374 
L 111.999684 259.095625 
L 113.736699 264.450788 
L 115.473714 244.024843 
L 117.210729 219.100811 
L 118.947744 244.099916 
L 120.684759 261.635574 
L 122.421774 266.258782 
L 124.158789 245.238514 
L 125.895804 247.884815 
L 127.632819 236.211059 
L 129.369834 205.093555 
L 131.106849 208.246595 
L 132.843864 221.033925 
L 134.580879 237.837628 
L 136.317894 259.414682 
L 138.054909 195.834628 
L 139.791924 226.520465 
L 141.528939 206.763916 
L 143.265954 213.927073 
L 145.002969 231.863117 
L 146.739984 251.995028 
L 148.476999 248.310225 
L 150.214014 216.854896 
L 151.951029 227.946841 
L 153.688044 208.890967 
L 155.425059 224.30583 
L 157.162074 209.15372 
L 158.899089 252.633144 
L 160.636104 255.535943 
L 162.373119 234.553211 
L 164.110133 234.665819 
L 165.847148 217.217746 
L 167.584163 245.451219 
L 169.321178 283.306469 
L 171.058193 264.769846 
L 172.795208 243.186535 
L 174.532223 226.070031 
L 176.269238 227.152325 
L 178.006253 233.039251 
L 179.743268 227.72788 
L 181.480283 233.395845 
L 183.217298 213.689343 
L 184.954313 237.06188 
L 186.691328 218.09359 
L 188.428343 220.414578 
L 190.165358 206.03196 
L 191.902373 207.189326 
L 193.639388 236.261107 
L 195.376403 215.584921 
L 197.113418 235.929538 
L 198.850433 240.177384 
L 200.587448 219.920351 
L 202.324463 197.748973 
L 204.061478 56.92569 
L 205.798493 121.200164 
L 207.535508 226.288992 
L 209.272523 215.941515 
L 211.009538 179.18107 
L 212.746553 175.921677 
L 214.483568 184.323528 
L 216.220583 229.085439 
L 217.957598 235.773137 
L 219.694613 232.55128 
L 221.431628 177.629574 
L 223.168643 194.239339 
L 224.905658 181.08916 
L 226.642673 160.525582 
L 228.379688 84.671192 
L 230.116703 103.996076 
L 231.853717 62.518582 
L 233.590732 84.714984 
L 235.327747 67.335727 
L 237.064762 55.730787 
L 238.801777 59.184117 
L 242.275807 152.649238 
L 244.012822 122.926829 
L 245.749837 73.135069 
L 247.486852 89.982563 
L 249.223867 88.381019 
L 250.960882 154.425951 
L 252.697897 132.654959 
L 254.434912 162.790266 
L 256.171927 251.650947 
L 257.908942 161.983238 
L 259.645957 223.179744 
L 261.382972 188.583886 
L 263.119987 241.347262 
L 264.857002 246.420904 
L 266.594017 281.473452 
L 268.331032 261.985912 
L 270.068047 232.532512 
L 271.805062 253.609085 
L 273.542077 247.384333 
L 275.279092 225.294283 
L 277.016107 261.116323 
L 278.753122 265.301609 
L 280.490137 243.712042 
L 282.227152 228.904014 
L 283.964167 236.442532 
L 285.701182 248.360274 
L 287.438197 249.799161 
L 289.175212 247.828511 
L 290.912227 252.320342 
L 292.649242 245.601363 
L 294.386257 237.230792 
L 296.123272 235.904514 
L 297.860287 232.939154 
L 299.597301 221.603224 
L 301.334316 228.384763 
L 303.071331 260.547024 
L 304.808346 249.167302 
L 306.545361 225.750973 
L 308.282376 207.001645 
L 310.019391 196.579095 
L 311.756406 213.539199 
L 313.493421 214.508884 
L 315.230436 257.806882 
L 316.967451 230.730775 
L 318.704466 239.933398 
L 320.441481 221.190326 
L 322.178496 239.639365 
L 323.915511 234.165337 
L 325.652526 230.818359 
L 327.389541 271.801626 
L 329.126556 276.944085 
L 330.863571 252.501767 
L 332.600586 239.013762 
L 334.337601 253.302539 
L 336.074616 208.984807 
L 337.811631 220.308225 
L 339.548646 229.410752 
L 341.285661 260.278015 
L 343.022676 230.930968 
L 344.759691 252.013796 
L 346.496706 238.713472 
L 348.233721 163.265724 
L 349.970736 67.223118 
L 351.707751 161.470243 
L 353.444766 231.694204 
L 355.181781 258.432485 
L 356.918796 228.497372 
L 358.655811 230.436742 
L 360.392826 210.192221 
L 362.129841 222.748078 
L 363.866856 267.478708 
L 365.603871 229.054158 
L 367.340886 248.272689 
L 369.0779 229.266864 
L 370.814915 233.633574 
L 372.55193 210.173453 
L 374.288945 252.852105 
L 376.02596 260.284271 
L 377.762975 218.662889 
L 379.49999 234.09652 
L 381.237005 194.552141 
L 382.97402 200.658028 
L 384.711035 173.563153 
L 386.44805 120.030286 
L 388.185065 217.955957 
L 389.92208 133.705972 
L 391.659095 148.02603 
L 393.39611 137.803673 
L 395.133125 167.169488 
L 396.87014 148.351344 
L 398.607155 173.350448 
L 400.34417 221.647016 
L 402.081185 250.318412 
L 403.8182 244.694239 
L 405.555215 252.439207 
L 407.29223 234.603259 
L 409.029245 188.746543 
L 412.503275 249.060949 
L 414.24029 230.305365 
L 415.977305 239.589317 
L 417.71432 242.723589 
L 419.451335 250.781358 
L 421.18835 234.509418 
L 422.925365 213.582991 
L 424.66238 234.559467 
L 426.399395 238.844849 
L 428.13641 229.717298 
L 429.873425 234.027704 
L 431.61044 248.06624 
L 433.347455 215.672506 
L 435.08447 228.447323 
L 436.821484 230.017587 
L 438.558499 231.956957 
L 440.295514 247.240444 
L 442.032529 213.745648 
L 443.769544 215.503593 
L 445.506559 231.418939 
L 447.243574 230.430485 
L 448.980589 259.302074 
L 450.717604 246.858826 
L 452.454619 236.899223 
L 454.191634 241.997889 
L 455.928649 229.316912 
L 457.665664 233.076787 
L 459.402679 216.273085 
L 461.139694 267.472452 
L 462.876709 239.00125 
L 464.613724 265.464266 
L 466.350739 246.402136 
L 468.087754 197.773998 
L 469.824769 132.016844 
L 471.561784 124.121731 
L 473.298799 198.925108 
L 475.035814 233.896327 
L 476.772829 221.634504 
L 478.509844 262.505162 
L 480.246859 231.6379 
L 481.983874 141.38838 
L 483.720889 92.347344 
L 485.457904 187.044902 
L 487.194919 243.123975 
L 488.931934 218.631609 
L 490.668949 225.81979 
L 492.405964 221.621992 
L 494.142979 180.26962 
L 495.879994 224.843849 
L 497.617009 278.4643 
L 499.354024 247.440637 
L 501.091039 233.270724 
L 502.828054 207.771137 
L 504.565068 231.494011 
L 506.302083 216.87992 
L 508.039098 212.27548 
L 509.776113 265.151464 
L 511.513128 211.825046 
L 513.250143 228.628748 
L 514.987158 224.312086 
L 516.724173 197.711437 
L 518.461188 188.339901 
L 520.198203 222.116219 
L 521.935218 237.587386 
L 523.672233 234.040216 
L 525.409248 222.42902 
L 527.146263 198.549746 
L 528.883278 160.800848 
L 530.620293 240.146103 
L 532.357308 244.600398 
L 534.094323 242.266898 
L 535.831338 244.556606 
L 537.568353 221.334215 
L 539.305368 217.436707 
L 541.042383 190.992459 
L 542.779398 195.352913 
L 544.516413 211.512244 
L 546.253428 240.527721 
L 547.990443 199.319238 
L 549.727458 231.343866 
L 551.464473 223.936724 
L 553.201488 218.706681 
L 554.938503 186.531908 
L 556.675518 195.077648 
L 558.412533 194.439532 
L 560.149548 236.505093 
L 561.886563 233.151859 
L 563.623578 252.995994 
L 565.360593 241.916561 
L 567.097608 224.649912 
L 568.834623 257.888211 
L 570.571638 266.321342 
L 572.308652 239.639365 
L 574.045667 221.040181 
L 575.782682 201.139743 
L 577.519697 218.03103 
L 579.256712 217.611876 
L 580.993727 230.468022 
L 582.730742 260.478208 
L 584.467757 240.64033 
L 586.204772 243.868443 
L 587.941787 236.261107 
L 589.678802 253.164906 
L 591.415817 243.768346 
L 593.152832 280.497511 
L 594.889847 266.965713 
L 596.626862 231.081113 
L 598.363877 278.314156 
L 600.100892 223.54885 
L 601.837907 250.055658 
L 603.574922 236.774102 
L 605.311937 227.452614 
L 607.048952 244.844384 
L 608.785967 233.758695 
L 610.522982 256.261642 
L 612.259997 241.303469 
L 613.997012 234.546955 
L 615.734027 214.709077 
L 617.471042 145.848931 
L 619.208057 165.943306 
L 620.945072 212.225432 
L 622.682087 207.958818 
L 624.419102 216.104172 
L 626.156117 221.352983 
L 627.893132 201.646482 
L 629.630147 155.445684 
L 631.367162 188.583886 
L 633.104177 243.299144 
L 634.841192 236.611445 
L 636.578207 211.856326 
L 638.315222 177.17914 
L 640.052236 224.093125 
L 641.789251 207.289423 
L 643.526266 272.183244 
L 645.263281 224.324598 
L 647.000296 235.109998 
L 650.474326 195.459266 
L 652.211341 220.214385 
L 653.948356 202.803847 
L 655.685371 244.462766 
L 657.422386 237.806347 
L 659.159401 238.882385 
L 660.896416 226.420369 
L 662.633431 211.018018 
L 664.370446 210.830337 
L 666.107461 216.404461 
L 667.844476 210.6364 
L 669.581491 225.375612 
L 671.318506 226.945876 
L 673.055521 222.854431 
L 674.792536 234.578235 
L 676.529551 253.12737 
L 678.266566 238.7948 
L 680.003581 228.584956 
L 681.740596 261.379077 
L 683.477611 282.274224 
L 685.214626 327.198791 
L 686.951641 281.617341 
L 688.688656 222.153755 
L 690.425671 240.396345 
L 692.162686 236.473813 
L 693.899701 292.515349 
L 695.636716 190.304295 
L 695.636716 190.304295 
" clip-path="url(#p7b291c9006)" style="fill: none; stroke: #0d6efc; stroke-opacity: 0.8; stroke-width: 2.5; stroke-linecap: square"/>
   </g>
   <g id="line2d_40">
    <path d="M 63.363265 251.713507 
L 65.10028 232.119614 
L 66.837295 243.405496 
L 68.57431 275.667854 
L 70.311325 293.078392 
L 72.04834 306.253595 
L 73.785355 252.620632 
L 75.52237 244.231292 
L 77.259385 255.291957 
L 78.9964 228.303435 
L 80.733415 219.019483 
L 82.47043 285.934003 
L 84.207445 246.358343 
L 85.94446 261.31026 
L 87.681475 235.629248 
L 89.41849 227.008436 
L 91.155505 230.568118 
L 92.89252 225.663389 
L 94.629535 258.307365 
L 96.366549 272.139452 
L 98.103564 253.965678 
L 99.840579 228.103242 
L 101.577594 225.782254 
L 103.314609 212.901083 
L 105.051624 222.604189 
L 106.788639 203.479499 
L 108.525654 309.406636 
L 110.262669 259.527291 
L 111.999684 254.509953 
L 113.736699 252.520535 
L 115.473714 235.698065 
L 117.210729 239.038786 
L 118.947744 266.990737 
L 120.684759 288.893106 
L 122.421774 292.046146 
L 124.158789 268.2482 
L 125.895804 270.794405 
L 127.632819 239.339075 
L 129.369834 220.464626 
L 131.106849 247.715902 
L 132.843864 291.139022 
L 134.580879 304.00768 
L 136.317894 291.689552 
L 138.054909 303.457149 
L 139.791924 251.957492 
L 141.528939 239.132626 
L 143.265954 241.741392 
L 145.002969 269.574479 
L 146.739984 273.697204 
L 148.476999 274.629353 
L 150.214014 252.113893 
L 151.951029 247.772207 
L 153.688044 245.050833 
L 155.425059 274.172662 
L 157.162074 287.829581 
L 158.899089 267.591317 
L 160.636104 285.233327 
L 162.373119 267.42866 
L 164.110133 240.834267 
L 165.847148 218.500232 
L 167.584163 262.104776 
L 171.058193 277.18807 
L 172.795208 282.430625 
L 174.532223 261.460405 
L 176.269238 234.359274 
L 178.006253 215.134487 
L 179.743268 234.134057 
L 181.480283 243.636969 
L 183.217298 270.112497 
L 184.954313 261.942119 
L 186.691328 244.356413 
L 188.428343 202.159476 
L 190.165358 170.091055 
L 191.902373 247.077787 
L 193.639388 265.307865 
L 195.376403 251.000319 
L 197.113418 231.031065 
L 198.850433 270.969574 
L 200.587448 236.630213 
L 202.324463 199.244165 
L 204.061478 237.906444 
L 205.798493 263.005645 
L 207.535508 266.903153 
L 209.272523 278.601933 
L 211.009538 273.678436 
L 212.746553 227.752904 
L 214.483568 222.372716 
L 216.220583 252.382902 
L 217.957598 277.91377 
L 219.694613 265.251561 
L 221.431628 264.394484 
L 223.168643 257.550385 
L 224.905658 246.739961 
L 226.642673 216.12294 
L 228.379688 222.504093 
L 230.116703 253.246235 
L 231.853717 253.984447 
L 233.590732 247.759695 
L 235.327747 246.233223 
L 237.064762 221.177814 
L 238.801777 212.225432 
L 240.538792 212.30676 
L 242.275807 250.237083 
L 244.012822 213.639295 
L 245.749837 209.185 
L 247.486852 187.170023 
L 249.223867 199.800952 
L 250.960882 184.067031 
L 252.697897 172.887502 
L 254.434912 235.404031 
L 256.171927 316.438416 
L 257.908942 313.322912 
L 259.645957 306.416252 
L 261.382972 261.754439 
L 263.119987 289.393589 
L 264.857002 312.597212 
L 266.594017 303.619806 
L 268.331032 318.646795 
L 270.068047 296.888315 
L 271.805062 298.333459 
L 273.542077 308.993737 
L 275.279092 299.909979 
L 277.016107 317.883559 
L 278.753122 314.004819 
L 280.490137 289.543733 
L 282.227152 313.754578 
L 283.964167 293.284841 
L 285.701182 280.822825 
L 287.438197 290.363274 
L 289.175212 289.374821 
L 290.912227 314.386437 
L 292.649242 284.545164 
L 294.386257 296.412857 
L 296.123272 291.245374 
L 297.860287 289.768951 
L 299.597301 290.181849 
L 301.334316 275.198652 
L 303.071331 304.276689 
L 304.808346 290.419578 
L 306.545361 297.151068 
L 308.282376 291.276654 
L 310.019391 296.781963 
L 311.756406 284.476347 
L 313.493421 310.301248 
L 315.230436 317.889815 
L 316.967451 326.898501 
L 318.704466 318.296457 
L 320.441481 305.052437 
L 322.178496 315.456219 
L 323.915511 286.759799 
L 325.652526 311.783928 
L 327.389541 345.916839 
L 329.126556 329.144417 
L 330.863571 304.026448 
L 332.600586 290.338249 
L 334.337601 286.690983 
L 336.074616 379.061298 
L 337.811631 291.727089 
L 339.548646 312.766125 
L 341.285661 302.593816 
L 343.022676 298.633748 
L 344.759691 292.70303 
L 346.496706 284.870477 
L 348.233721 271.814138 
L 349.970736 379.361587 
L 351.707751 303.58227 
L 353.444766 309.19393 
L 355.181781 278.495581 
L 356.918796 304.376786 
L 358.655811 371.109881 
L 360.392826 278.295388 
L 362.129841 285.521105 
L 363.866856 306.710286 
L 365.603871 312.384507 
L 369.0779 291.633248 
L 370.814915 275.229932 
L 372.55193 265.777067 
L 374.288945 303.888815 
L 376.02596 382.308178 
L 377.762975 300.810847 
L 379.49999 332.166081 
L 381.237005 376.546373 
L 382.97402 275.417613 
L 384.711035 260.278015 
L 386.44805 280.872873 
L 388.185065 285.821394 
L 389.92208 289.912839 
L 391.659095 267.247235 
L 393.39611 283.344006 
L 395.133125 249.261142 
L 396.87014 253.94691 
L 398.607155 286.753543 
L 400.34417 277.632248 
L 402.081185 286.165476 
L 403.8182 272.051867 
L 405.555215 278.120219 
L 407.29223 251.031599 
L 409.029245 383.196535 
L 410.76626 295.868582 
L 412.503275 307.25456 
L 414.24029 324.683866 
L 415.977305 303.888815 
L 417.71432 300.591886 
L 419.451335 258.394949 
L 421.18835 242.166802 
L 422.925365 267.82279 
L 424.66238 282.418113 
L 426.399395 295.449428 
L 428.13641 283.162581 
L 429.873425 291.214094 
L 431.61044 272.001819 
L 433.347455 262.799196 
L 435.08447 279.277585 
L 436.821484 281.104346 
L 438.558499 374.269177 
L 440.295514 279.077392 
L 442.032529 252.726984 
L 443.769544 269.249165 
L 445.506559 253.133626 
L 447.243574 281.12937 
L 448.980589 277.494615 
L 450.717604 306.272363 
L 452.454619 267.860326 
L 454.191634 267.879094 
L 455.928649 287.654412 
L 457.665664 249.342471 
L 459.402679 281.148138 
L 461.139694 274.942154 
L 462.876709 292.033634 
L 464.613724 273.359378 
L 466.350739 267.535012 
L 468.087754 270.356483 
L 469.824769 261.623062 
L 471.561784 256.568188 
L 473.298799 280.897897 
L 475.035814 286.997528 
L 476.772829 279.415217 
L 478.509844 270.481603 
L 480.246859 296.494185 
L 481.983874 276.180849 
L 483.720889 292.083682 
L 485.457904 291.082717 
L 487.194919 289.562501 
L 488.931934 272.815103 
L 490.668949 295.874838 
L 492.405964 269.43059 
L 494.142979 248.848244 
L 495.879994 297.470126 
L 497.617009 271.476313 
L 499.354024 279.365169 
L 501.091039 288.148638 
L 502.828054 284.714077 
L 504.565068 246.721193 
L 506.302083 240.108567 
L 508.039098 280.879129 
L 509.776113 284.088473 
L 511.513128 303.238188 
L 513.250143 279.333889 
L 514.987158 279.602898 
L 516.724173 263.981586 
L 518.461188 263.162046 
L 520.198203 289.837767 
L 521.935218 282.418113 
L 523.672233 290.050472 
L 525.409248 276.274689 
L 527.146263 269.586991 
L 528.883278 265.952236 
L 530.620293 282.368065 
L 532.357308 280.397414 
L 534.094323 279.997028 
L 535.831338 282.530721 
L 537.568353 266.089869 
L 539.305368 265.839628 
L 541.042383 237.931468 
L 542.779398 237.887676 
L 544.516413 273.165441 
L 546.253428 304.107776 
L 547.990443 295.349331 
L 549.727458 287.291562 
L 551.464473 287.510523 
L 553.201488 280.222245 
L 554.938503 281.573548 
L 556.675518 255.085508 
L 558.412533 303.244444 
L 560.149548 294.104381 
L 561.886563 291.989842 
L 563.623578 292.552885 
L 565.360593 296.756938 
L 567.097608 288.636609 
L 568.834623 298.295922 
L 570.571638 303.576014 
L 572.308652 276.087008 
L 574.045667 315.149673 
L 575.782682 291.032669 
L 577.519697 286.61591 
L 579.256712 293.009575 
L 580.993727 323.257491 
L 582.730742 312.872477 
L 584.467757 294.01054 
L 586.204772 294.166941 
L 587.941787 288.905618 
L 589.678802 301.667924 
L 591.415817 382.796149 
L 593.152832 314.336389 
L 594.889847 334.274363 
L 596.626862 327.205047 
L 598.363877 295.693413 
L 600.100892 289.875303 
L 601.837907 296.212664 
L 603.574922 327.192535 
L 605.311937 264.469556 
L 607.048952 281.285771 
L 608.785967 294.329598 
L 610.522982 291.151534 
L 612.259997 293.741531 
L 613.997012 270.462835 
L 615.734027 258.201012 
L 617.471042 316.832546 
L 619.208057 319.303678 
L 620.945072 310.094799 
L 622.682087 301.574083 
L 624.419102 365.029017 
L 624.419102 365.029017 
" clip-path="url(#p7b291c9006)" style="fill: none; stroke: #83c966; stroke-opacity: 0.8; stroke-width: 2.5; stroke-linecap: square"/>
   </g>
   <g id="patch_3">
    <path d="M 61.62625 384.1975 
L 61.62625 39.3575 
" style="fill: none; stroke: #000000; stroke-width: 0.8; stroke-linejoin: miter; stroke-linecap: square"/>
   </g>
   <g id="patch_4">
    <path d="M 61.62625 384.1975 
L 704.321791 384.1975 
" style="fill: none; stroke: #000000; stroke-width: 0.8; stroke-linejoin: miter; stroke-linecap: square"/>
   </g>
   <g id="text_22">
    <!-- Pedestrian Traffic at The Arts Centre -->
    <g transform="translate(238.13652 19.3575) scale(0.16 -0.16)">
     <defs>
      <path id="DejaVuSans-50" d="M 1259 4147 
L 1259 2394 
L 2053 2394 
Q 2494 2394 2734 2622 
Q 2975 2850 2975 3272 
Q 2975 3691 2734 3919 
Q 2494 4147 2053 4147 
L 1259 4147 
z
M 628 4666 
L 2053 4666 
Q 2838 4666 3239 4311 
Q 3641 3956 3641 3272 
Q 3641 2581 3239 2228 
Q 2838 1875 2053 1875 
L 1259 1875 
L 1259 0 
L 628 0 
L 628 4666 
z
" transform="scale(0.015625)"/>
      <path id="DejaVuSans-54" d="M -19 4666 
L 3928 4666 
L 3928 4134 
L 2272 4134 
L 2272 0 
L 1638 0 
L 1638 4134 
L -19 4134 
L -19 4666 
z
" transform="scale(0.015625)"/>
      <path id="DejaVuSans-43" d="M 4122 4306 
L 4122 3641 
Q 3803 3938 3442 4084 
Q 3081 4231 2675 4231 
Q 1875 4231 1450 3742 
Q 1025 3253 1025 2328 
Q 1025 1406 1450 917 
Q 1875 428 2675 428 
Q 3081 428 3442 575 
Q 3803 722 4122 1019 
L 4122 359 
Q 3791 134 3420 21 
Q 3050 -91 2638 -91 
Q 1578 -91 968 557 
Q 359 1206 359 2328 
Q 359 3453 968 4101 
Q 1578 4750 2638 4750 
Q 3056 4750 3426 4639 
Q 3797 4528 4122 4306 
z
" transform="scale(0.015625)"/>
     </defs>
     <use xlink:href="#DejaVuSans-50"/>
     <use xlink:href="#DejaVuSans-65" transform="translate(56.677734 0)"/>
     <use xlink:href="#DejaVuSans-64" transform="translate(118.201172 0)"/>
     <use xlink:href="#DejaVuSans-65" transform="translate(181.677734 0)"/>
     <use xlink:href="#DejaVuSans-73" transform="translate(243.201172 0)"/>
     <use xlink:href="#DejaVuSans-74" transform="translate(295.300781 0)"/>
     <use xlink:href="#DejaVuSans-72" transform="translate(334.509766 0)"/>
     <use xlink:href="#DejaVuSans-69" transform="translate(375.623047 0)"/>
     <use xlink:href="#DejaVuSans-61" transform="translate(403.40625 0)"/>
     <use xlink:href="#DejaVuSans-6e" transform="translate(464.685547 0)"/>
     <use xlink:href="#DejaVuSans-20" transform="translate(528.064453 0)"/>
     <use xlink:href="#DejaVuSans-54" transform="translate(559.851562 0)"/>
     <use xlink:href="#DejaVuSans-72" transform="translate(606.185547 0)"/>
     <use xlink:href="#DejaVuSans-61" transform="translate(647.298828 0)"/>
     <use xlink:href="#DejaVuSans-66" transform="translate(708.578125 0)"/>
     <use xlink:href="#DejaVuSans-66" transform="translate(743.783203 0)"/>
     <use xlink:href="#DejaVuSans-69" transform="translate(778.988281 0)"/>
     <use xlink:href="#DejaVuSans-63" transform="translate(806.771484 0)"/>
     <use xlink:href="#DejaVuSans-20" transform="translate(861.751953 0)"/>
     <use xlink:href="#DejaVuSans-61" transform="translate(893.539062 0)"/>
     <use xlink:href="#DejaVuSans-74" transform="translate(954.818359 0)"/>
     <use xlink:href="#DejaVuSans-20" transform="translate(994.027344 0)"/>
     <use xlink:href="#DejaVuSans-54" transform="translate(1025.814453 0)"/>
     <use xlink:href="#DejaVuSans-68" transform="translate(1086.898438 0)"/>
     <use xlink:href="#DejaVuSans-65" transform="translate(1150.277344 0)"/>
     <use xlink:href="#DejaVuSans-20" transform="translate(1211.800781 0)"/>
     <use xlink:href="#DejaVuSans-41" transform="translate(1243.587891 0)"/>
     <use xlink:href="#DejaVuSans-72" transform="translate(1311.996094 0)"/>
     <use xlink:href="#DejaVuSans-74" transform="translate(1353.109375 0)"/>
     <use xlink:href="#DejaVuSans-73" transform="translate(1392.318359 0)"/>
     <use xlink:href="#DejaVuSans-20" transform="translate(1444.417969 0)"/>
     <use xlink:href="#DejaVuSans-43" transform="translate(1476.205078 0)"/>
     <use xlink:href="#DejaVuSans-65" transform="translate(1546.029297 0)"/>
     <use xlink:href="#DejaVuSans-6e" transform="translate(1607.552734 0)"/>
     <use xlink:href="#DejaVuSans-74" transform="translate(1670.931641 0)"/>
     <use xlink:href="#DejaVuSans-72" transform="translate(1710.140625 0)"/>
     <use xlink:href="#DejaVuSans-65" transform="translate(1749.003906 0)"/>
    </g>
   </g>
   <g id="legend_1">
    <g id="patch_5">
     <path d="M 69.32625 80.449375 
L 132.52125 80.449375 
Q 134.72125 80.449375 134.72125 78.249375 
L 134.72125 47.0575 
Q 134.72125 44.8575 132.52125 44.8575 
L 69.32625 44.8575 
Q 67.12625 44.8575 67.12625 47.0575 
L 67.12625 78.249375 
Q 67.12625 80.449375 69.32625 80.449375 
z
" style="fill: #ffffff; opacity: 0.95; stroke: #cccccc; stroke-linejoin: miter"/>
    </g>
    <g id="line2d_41">
     <path d="M 71.52625 53.765781 
L 82.52625 53.765781 
L 93.52625 53.765781 
" style="fill: none; stroke: #0d6efc; stroke-opacity: 0.8; stroke-width: 2.5; stroke-linecap: square"/>
    </g>
    <g id="text_23">
     <!-- 2019 -->
     <g transform="translate(102.32625 57.615781) scale(0.11 -0.11)">
      <defs>
       <path id="DejaVuSans-39" d="M 703 97 
L 703 672 
Q 941 559 1184 500 
Q 1428 441 1663 441 
Q 2288 441 2617 861 
Q 2947 1281 2994 2138 
Q 2813 1869 2534 1725 
Q 2256 1581 1919 1581 
Q 1219 1581 811 2004 
Q 403 2428 403 3163 
Q 403 3881 828 4315 
Q 1253 4750 1959 4750 
Q 2769 4750 3195 4129 
Q 3622 3509 3622 2328 
Q 3622 1225 3098 567 
Q 2575 -91 1691 -91 
Q 1453 -91 1209 -44 
Q 966 3 703 97 
z
M 1959 2075 
Q 2384 2075 2632 2365 
Q 2881 2656 2881 3163 
Q 2881 3666 2632 3958 
Q 2384 4250 1959 4250 
Q 1534 4250 1286 3958 
Q 1038 3666 1038 3163 
Q 1038 2656 1286 2365 
Q 1534 2075 1959 2075 
z
" transform="scale(0.015625)"/>
      </defs>
      <use xlink:href="#DejaVuSans-32"/>
      <use xlink:href="#DejaVuSans-30" transform="translate(63.623047 0)"/>
      <use xlink:href="#DejaVuSans-31" transform="translate(127.246094 0)"/>
      <use xlink:href="#DejaVuSans-39" transform="translate(190.869141 0)"/>
     </g>
    </g>
    <g id="line2d_42">
     <path d="M 71.52625 69.911719 
L 82.52625 69.911719 
L 93.52625 69.911719 
" style="fill: none; stroke: #83c966; stroke-opacity: 0.8; stroke-width: 2.5; stroke-linecap: square"/>
    </g>
    <g id="text_24">
     <!-- 2025 -->
     <g transform="translate(102.32625 73.761719) scale(0.11 -0.11)">
      <use xlink:href="#DejaVuSans-32"/>
      <use xlink:href="#DejaVuSans-30" transform="translate(63.623047 0)"/>
      <use xlink:href="#DejaVuSans-32" transform="translate(127.246094 0)"/>
      <use xlink:href="#DejaVuSans-35" transform="translate(190.869141 0)"/>
     </g>
    </g>
   </g>
  </g>
 </g>
 <defs>
  <clipPath id="p7b291c9006">
   <rect x="61.62625" y="39.3575" width="642.695541" height="344.84"/>
  </clipPath>
 </defs>
</svg>
