<?xml version="1.0" encoding="utf-8" standalone="no"?>
<!DOCTYPE svg PUBLIC "-//W3C//DTD SVG 1.1//EN"
  "http://www.w3.org/Graphics/SVG/1.1/DTD/svg11.dtd">
<svg xmlns:xlink="http://www.w3.org/1999/xlink" width="711.521791pt" height="423.689375pt" viewBox="0 0 711.521791 423.689375" xmlns="http://www.w3.org/2000/svg" version="1.1">
 <metadata>
  <rdf:RDF xmlns:dc="http://purl.org/dc/elements/1.1/" xmlns:cc="http://creativecommons.org/ns#" xmlns:rdf="http://www.w3.org/1999/02/22-rdf-syntax-ns#">
   <cc:Work>
    <dc:type rdf:resource="http://purl.org/dc/dcmitype/StillImage"/>
    <dc:date>2026-01-28T17:49:43.806864</dc:date>
    <dc:format>image/svg+xml</dc:format>
    <dc:creator>
     <cc:Agent>
      <dc:title>Matplotlib v3.10.8, https://matplotlib.org/</dc:title>
     </cc:Agent>
    </dc:creator>
   </cc:Work>
  </rdf:RDF>
 </metadata>
 <defs>
  <style type="text/css">*{stroke-linejoin: round; stroke-linecap: butt}</style>
 </defs>
 <g id="figure_1">
  <g id="patch_1">
   <path d="M 0 423.689375 
L 711.521791 423.689375 
L 711.521791 0 
L 0 0 
L 0 423.689375 
z
" style="fill: none"/>
  </g>
  <g id="axes_1">
   <g id="patch_2">
    <path d="M 61.62625 384.1975 
L 704.321791 384.1975 
L 704.321791 39.3575 
L 61.62625 39.3575 
L 61.62625 384.1975 
z
" style="fill: none"/>
   </g>
   <g id="matplotlib.axis_1">
    <g id="xtick_1">
     <g id="line2d_1">
      <path d="M 61.62625 384.1975 
L 61.62625 39.3575 
" clip-path="url(#p497d22b0ee)" style="fill: none; stroke-dasharray: 2.96,1.28; stroke-dashoffset: 0; stroke: #b0b0b0; stroke-opacity: 0.3; stroke-width: 0.8"/>
     </g>
     <g id="line2d_2">
      <defs>
       <path id="m5a3da46735" d="M 0 0 
L 0 3.5 
" style="stroke: #000000; stroke-width: 0.8"/>
      </defs>
      <g>
       <use xlink:href="#m5a3da46735" x="61.62625" y="384.1975" style="stroke: #000000; stroke-width: 0.8"/>
      </g>
     </g>
     <g id="text_1">
      <!-- Jan -->
      <g transform="translate(53.918438 398.795937) scale(0.1 -0.1)">
       <defs>
        <path id="DejaVuSans-4a" d="M 628 4666 
L 1259 4666 
L 1259 325 
Q 1259 -519 939 -900 
Q 619 -1281 -91 -1281 
L -331 -1281 
L -331 -750 
L -134 -750 
Q 284 -750 456 -515 
Q 628 -281 628 325 
L 628 4666 
z
" transform="scale(0.015625)"/>
        <path id="DejaVuSans-61" d="M 2194 1759 
Q 1497 1759 1228 1600 
Q 959 1441 959 1056 
Q 959 750 1161 570 
Q 1363 391 1709 391 
Q 2188 391 2477 730 
Q 2766 1069 2766 1631 
L 2766 1759 
L 2194 1759 
z
M 3341 1997 
L 3341 0 
L 2766 0 
L 2766 531 
Q 2569 213 2275 61 
Q 1981 -91 1556 -91 
Q 1019 -91 701 211 
Q 384 513 384 1019 
Q 384 1609 779 1909 
Q 1175 2209 1959 2209 
L 2766 2209 
L 2766 2266 
Q 2766 2663 2505 2880 
Q 2244 3097 1772 3097 
Q 1472 3097 1187 3025 
Q 903 2953 641 2809 
L 641 3341 
Q 956 3463 1253 3523 
Q 1550 3584 1831 3584 
Q 2591 3584 2966 3190 
Q 3341 2797 3341 1997 
z
" transform="scale(0.015625)"/>
        <path id="DejaVuSans-6e" d="M 3513 2113 
L 3513 0 
L 2938 0 
L 2938 2094 
Q 2938 2591 2744 2837 
Q 2550 3084 2163 3084 
Q 1697 3084 1428 2787 
Q 1159 2491 1159 1978 
L 1159 0 
L 581 0 
L 581 3500 
L 1159 3500 
L 1159 2956 
Q 1366 3272 1645 3428 
Q 1925 3584 2291 3584 
Q 2894 3584 3203 3211 
Q 3513 2838 3513 2113 
z
" transform="scale(0.015625)"/>
       </defs>
       <use xlink:href="#DejaVuSans-4a"/>
       <use xlink:href="#DejaVuSans-61" transform="translate(29.492188 0)"/>
       <use xlink:href="#DejaVuSans-6e" transform="translate(90.771484 0)"/>
      </g>
     </g>
    </g>
    <g id="xtick_2">
     <g id="line2d_3">
      <path d="M 115.473714 384.1975 
L 115.473714 39.3575 
" clip-path="url(#p497d22b0ee)" style="fill: none; stroke-dasharray: 2.96,1.28; stroke-dashoffset: 0; stroke: #b0b0b0; stroke-opacity: 0.3; stroke-width: 0.8"/>
     </g>
     <g id="line2d_4">
      <g>
       <use xlink:href="#m5a3da46735" x="115.473714" y="384.1975" style="stroke: #000000; stroke-width: 0.8"/>
      </g>
     </g>
     <g id="text_2">
      <!-- Feb -->
      <g transform="translate(106.622152 398.795937) scale(0.1 -0.1)">
       <defs>
        <path id="DejaVuSans-46" d="M 628 4666 
L 3309 4666 
L 3309 4134 
L 1259 4134 
L 1259 2759 
L 3109 2759 
L 3109 2228 
L 1259 2228 
L 1259 0 
L 628 0 
L 628 4666 
z
" transform="scale(0.015625)"/>
        <path id="DejaVuSans-65" d="M 3597 1894 
L 3597 1613 
L 953 1613 
Q 991 1019 1311 708 
Q 1631 397 2203 397 
Q 2534 397 2845 478 
Q 3156 559 3463 722 
L 3463 178 
Q 3153 47 2828 -22 
Q 2503 -91 2169 -91 
Q 1331 -91 842 396 
Q 353 884 353 1716 
Q 353 2575 817 3079 
Q 1281 3584 2069 3584 
Q 2775 3584 3186 3129 
Q 3597 2675 3597 1894 
z
M 3022 2063 
Q 3016 2534 2758 2815 
Q 2500 3097 2075 3097 
Q 1594 3097 1305 2825 
Q 1016 2553 972 2059 
L 3022 2063 
z
" transform="scale(0.015625)"/>
        <path id="DejaVuSans-62" d="M 3116 1747 
Q 3116 2381 2855 2742 
Q 2594 3103 2138 3103 
Q 1681 3103 1420 2742 
Q 1159 2381 1159 1747 
Q 1159 1113 1420 752 
Q 1681 391 2138 391 
Q 2594 391 2855 752 
Q 3116 1113 3116 1747 
z
M 1159 2969 
Q 1341 3281 1617 3432 
Q 1894 3584 2278 3584 
Q 2916 3584 3314 3078 
Q 3713 2572 3713 1747 
Q 3713 922 3314 415 
Q 2916 -91 2278 -91 
Q 1894 -91 1617 61 
Q 1341 213 1159 525 
L 1159 0 
L 581 0 
L 581 4863 
L 1159 4863 
L 1159 2969 
z
" transform="scale(0.015625)"/>
       </defs>
       <use xlink:href="#DejaVuSans-46"/>
       <use xlink:href="#DejaVuSans-65" transform="translate(52.019531 0)"/>
       <use xlink:href="#DejaVuSans-62" transform="translate(113.542969 0)"/>
      </g>
     </g>
    </g>
    <g id="xtick_3">
     <g id="line2d_5">
      <path d="M 164.110133 384.1975 
L 164.110133 39.3575 
" clip-path="url(#p497d22b0ee)" style="fill: none; stroke-dasharray: 2.96,1.28; stroke-dashoffset: 0; stroke: #b0b0b0; stroke-opacity: 0.3; stroke-width: 0.8"/>
     </g>
     <g id="line2d_6">
      <g>
       <use xlink:href="#m5a3da46735" x="164.110133" y="384.1975" style="stroke: #000000; stroke-width: 0.8"/>
      </g>
     </g>
     <g id="text_3">
      <!-- Mar -->
      <g transform="translate(154.67654 398.795937) scale(0.1 -0.1)">
       <defs>
        <path id="DejaVuSans-4d" d="M 628 4666 
L 1569 4666 
L 2759 1491 
L 3956 4666 
L 4897 4666 
L 4897 0 
L 4281 0 
L 4281 4097 
L 3078 897 
L 2444 897 
L 1241 4097 
L 1241 0 
L 628 0 
L 628 4666 
z
" transform="scale(0.015625)"/>
        <path id="DejaVuSans-72" d="M 2631 2963 
Q 2534 3019 2420 3045 
Q 2306 3072 2169 3072 
Q 1681 3072 1420 2755 
Q 1159 2438 1159 1844 
L 1159 0 
L 581 0 
L 581 3500 
L 1159 3500 
L 1159 2956 
Q 1341 3275 1631 3429 
Q 1922 3584 2338 3584 
Q 2397 3584 2469 3576 
Q 2541 3569 2628 3553 
L 2631 2963 
z
" transform="scale(0.015625)"/>
       </defs>
       <use xlink:href="#DejaVuSans-4d"/>
       <use xlink:href="#DejaVuSans-61" transform="translate(86.279297 0)"/>
       <use xlink:href="#DejaVuSans-72" transform="translate(147.558594 0)"/>
      </g>
     </g>
    </g>
    <g id="xtick_4">
     <g id="line2d_7">
      <path d="M 217.957598 384.1975 
L 217.957598 39.3575 
" clip-path="url(#p497d22b0ee)" style="fill: none; stroke-dasharray: 2.96,1.28; stroke-dashoffset: 0; stroke: #b0b0b0; stroke-opacity: 0.3; stroke-width: 0.8"/>
     </g>
     <g id="line2d_8">
      <g>
       <use xlink:href="#m5a3da46735" x="217.957598" y="384.1975" style="stroke: #000000; stroke-width: 0.8"/>
      </g>
     </g>
     <g id="text_4">
      <!-- Apr -->
      <g transform="translate(209.307598 398.795937) scale(0.1 -0.1)">
       <defs>
        <path id="DejaVuSans-41" d="M 2188 4044 
L 1331 1722 
L 3047 1722 
L 2188 4044 
z
M 1831 4666 
L 2547 4666 
L 4325 0 
L 3669 0 
L 3244 1197 
L 1141 1197 
L 716 0 
L 50 0 
L 1831 4666 
z
" transform="scale(0.015625)"/>
        <path id="DejaVuSans-70" d="M 1159 525 
L 1159 -1331 
L 581 -1331 
L 581 3500 
L 1159 3500 
L 1159 2969 
Q 1341 3281 1617 3432 
Q 1894 3584 2278 3584 
Q 2916 3584 3314 3078 
Q 3713 2572 3713 1747 
Q 3713 922 3314 415 
Q 2916 -91 2278 -91 
Q 1894 -91 1617 61 
Q 1341 213 1159 525 
z
M 3116 1747 
Q 3116 2381 2855 2742 
Q 2594 3103 2138 3103 
Q 1681 3103 1420 2742 
Q 1159 2381 1159 1747 
Q 1159 1113 1420 752 
Q 1681 391 2138 391 
Q 2594 391 2855 752 
Q 3116 1113 3116 1747 
z
" transform="scale(0.015625)"/>
       </defs>
       <use xlink:href="#DejaVuSans-41"/>
       <use xlink:href="#DejaVuSans-70" transform="translate(68.408203 0)"/>
       <use xlink:href="#DejaVuSans-72" transform="translate(131.884766 0)"/>
      </g>
     </g>
    </g>
    <g id="xtick_5">
     <g id="line2d_9">
      <path d="M 270.068047 384.1975 
L 270.068047 39.3575 
" clip-path="url(#p497d22b0ee)" style="fill: none; stroke-dasharray: 2.96,1.28; stroke-dashoffset: 0; stroke: #b0b0b0; stroke-opacity: 0.3; stroke-width: 0.8"/>
     </g>
     <g id="line2d_10">
      <g>
       <use xlink:href="#m5a3da46735" x="270.068047" y="384.1975" style="stroke: #000000; stroke-width: 0.8"/>
      </g>
     </g>
     <g id="text_5">
      <!-- May -->
      <g transform="translate(259.730547 398.795937) scale(0.1 -0.1)">
       <defs>
        <path id="DejaVuSans-79" d="M 2059 -325 
Q 1816 -950 1584 -1140 
Q 1353 -1331 966 -1331 
L 506 -1331 
L 506 -850 
L 844 -850 
Q 1081 -850 1212 -737 
Q 1344 -625 1503 -206 
L 1606 56 
L 191 3500 
L 800 3500 
L 1894 763 
L 2988 3500 
L 3597 3500 
L 2059 -325 
z
" transform="scale(0.015625)"/>
       </defs>
       <use xlink:href="#DejaVuSans-4d"/>
       <use xlink:href="#DejaVuSans-61" transform="translate(86.279297 0)"/>
       <use xlink:href="#DejaVuSans-79" transform="translate(147.558594 0)"/>
      </g>
     </g>
    </g>
    <g id="xtick_6">
     <g id="line2d_11">
      <path d="M 323.915511 384.1975 
L 323.915511 39.3575 
" clip-path="url(#p497d22b0ee)" style="fill: none; stroke-dasharray: 2.96,1.28; stroke-dashoffset: 0; stroke: #b0b0b0; stroke-opacity: 0.3; stroke-width: 0.8"/>
     </g>
     <g id="line2d_12">
      <g>
       <use xlink:href="#m5a3da46735" x="323.915511" y="384.1975" style="stroke: #000000; stroke-width: 0.8"/>
      </g>
     </g>
     <g id="text_6">
      <!-- Jun -->
      <g transform="translate(316.103011 398.795937) scale(0.1 -0.1)">
       <defs>
        <path id="DejaVuSans-75" d="M 544 1381 
L 544 3500 
L 1119 3500 
L 1119 1403 
Q 1119 906 1312 657 
Q 1506 409 1894 409 
Q 2359 409 2629 706 
Q 2900 1003 2900 1516 
L 2900 3500 
L 3475 3500 
L 3475 0 
L 2900 0 
L 2900 538 
Q 2691 219 2414 64 
Q 2138 -91 1772 -91 
Q 1169 -91 856 284 
Q 544 659 544 1381 
z
M 1991 3584 
L 1991 3584 
z
" transform="scale(0.015625)"/>
       </defs>
       <use xlink:href="#DejaVuSans-4a"/>
       <use xlink:href="#DejaVuSans-75" transform="translate(29.492188 0)"/>
       <use xlink:href="#DejaVuSans-6e" transform="translate(92.871094 0)"/>
      </g>
     </g>
    </g>
    <g id="xtick_7">
     <g id="line2d_13">
      <path d="M 376.02596 384.1975 
L 376.02596 39.3575 
" clip-path="url(#p497d22b0ee)" style="fill: none; stroke-dasharray: 2.96,1.28; stroke-dashoffset: 0; stroke: #b0b0b0; stroke-opacity: 0.3; stroke-width: 0.8"/>
     </g>
     <g id="line2d_14">
      <g>
       <use xlink:href="#m5a3da46735" x="376.02596" y="384.1975" style="stroke: #000000; stroke-width: 0.8"/>
      </g>
     </g>
     <g id="text_7">
      <!-- Jul -->
      <g transform="translate(369.993148 398.795937) scale(0.1 -0.1)">
       <defs>
        <path id="DejaVuSans-6c" d="M 603 4863 
L 1178 4863 
L 1178 0 
L 603 0 
L 603 4863 
z
" transform="scale(0.015625)"/>
       </defs>
       <use xlink:href="#DejaVuSans-4a"/>
       <use xlink:href="#DejaVuSans-75" transform="translate(29.492188 0)"/>
       <use xlink:href="#DejaVuSans-6c" transform="translate(92.871094 0)"/>
      </g>
     </g>
    </g>
    <g id="xtick_8">
     <g id="line2d_15">
      <path d="M 429.873425 384.1975 
L 429.873425 39.3575 
" clip-path="url(#p497d22b0ee)" style="fill: none; stroke-dasharray: 2.96,1.28; stroke-dashoffset: 0; stroke: #b0b0b0; stroke-opacity: 0.3; stroke-width: 0.8"/>
     </g>
     <g id="line2d_16">
      <g>
       <use xlink:href="#m5a3da46735" x="429.873425" y="384.1975" style="stroke: #000000; stroke-width: 0.8"/>
      </g>
     </g>
     <g id="text_8">
      <!-- Aug -->
      <g transform="translate(420.110143 398.795937) scale(0.1 -0.1)">
       <defs>
        <path id="DejaVuSans-67" d="M 2906 1791 
Q 2906 2416 2648 2759 
Q 2391 3103 1925 3103 
Q 1463 3103 1205 2759 
Q 947 2416 947 1791 
Q 947 1169 1205 825 
Q 1463 481 1925 481 
Q 2391 481 2648 825 
Q 2906 1169 2906 1791 
z
M 3481 434 
Q 3481 -459 3084 -895 
Q 2688 -1331 1869 -1331 
Q 1566 -1331 1297 -1286 
Q 1028 -1241 775 -1147 
L 775 -588 
Q 1028 -725 1275 -790 
Q 1522 -856 1778 -856 
Q 2344 -856 2625 -561 
Q 2906 -266 2906 331 
L 2906 616 
Q 2728 306 2450 153 
Q 2172 0 1784 0 
Q 1141 0 747 490 
Q 353 981 353 1791 
Q 353 2603 747 3093 
Q 1141 3584 1784 3584 
Q 2172 3584 2450 3431 
Q 2728 3278 2906 2969 
L 2906 3500 
L 3481 3500 
L 3481 434 
z
" transform="scale(0.015625)"/>
       </defs>
       <use xlink:href="#DejaVuSans-41"/>
       <use xlink:href="#DejaVuSans-75" transform="translate(68.408203 0)"/>
       <use xlink:href="#DejaVuSans-67" transform="translate(131.787109 0)"/>
      </g>
     </g>
    </g>
    <g id="xtick_9">
     <g id="line2d_17">
      <path d="M 483.720889 384.1975 
L 483.720889 39.3575 
" clip-path="url(#p497d22b0ee)" style="fill: none; stroke-dasharray: 2.96,1.28; stroke-dashoffset: 0; stroke: #b0b0b0; stroke-opacity: 0.3; stroke-width: 0.8"/>
     </g>
     <g id="line2d_18">
      <g>
       <use xlink:href="#m5a3da46735" x="483.720889" y="384.1975" style="stroke: #000000; stroke-width: 0.8"/>
      </g>
     </g>
     <g id="text_9">
      <!-- Sep -->
      <g transform="translate(474.295889 398.795937) scale(0.1 -0.1)">
       <defs>
        <path id="DejaVuSans-53" d="M 3425 4513 
L 3425 3897 
Q 3066 4069 2747 4153 
Q 2428 4238 2131 4238 
Q 1616 4238 1336 4038 
Q 1056 3838 1056 3469 
Q 1056 3159 1242 3001 
Q 1428 2844 1947 2747 
L 2328 2669 
Q 3034 2534 3370 2195 
Q 3706 1856 3706 1288 
Q 3706 609 3251 259 
Q 2797 -91 1919 -91 
Q 1588 -91 1214 -16 
Q 841 59 441 206 
L 441 856 
Q 825 641 1194 531 
Q 1563 422 1919 422 
Q 2459 422 2753 634 
Q 3047 847 3047 1241 
Q 3047 1584 2836 1778 
Q 2625 1972 2144 2069 
L 1759 2144 
Q 1053 2284 737 2584 
Q 422 2884 422 3419 
Q 422 4038 858 4394 
Q 1294 4750 2059 4750 
Q 2388 4750 2728 4690 
Q 3069 4631 3425 4513 
z
" transform="scale(0.015625)"/>
       </defs>
       <use xlink:href="#DejaVuSans-53"/>
       <use xlink:href="#DejaVuSans-65" transform="translate(63.476562 0)"/>
       <use xlink:href="#DejaVuSans-70" transform="translate(125 0)"/>
      </g>
     </g>
    </g>
    <g id="xtick_10">
     <g id="line2d_19">
      <path d="M 535.831338 384.1975 
L 535.831338 39.3575 
" clip-path="url(#p497d22b0ee)" style="fill: none; stroke-dasharray: 2.96,1.28; stroke-dashoffset: 0; stroke: #b0b0b0; stroke-opacity: 0.3; stroke-width: 0.8"/>
     </g>
     <g id="line2d_20">
      <g>
       <use xlink:href="#m5a3da46735" x="535.831338" y="384.1975" style="stroke: #000000; stroke-width: 0.8"/>
      </g>
     </g>
     <g id="text_10">
      <!-- Oct -->
      <g transform="translate(527.186026 398.795937) scale(0.1 -0.1)">
       <defs>
        <path id="DejaVuSans-4f" d="M 2522 4238 
Q 1834 4238 1429 3725 
Q 1025 3213 1025 2328 
Q 1025 1447 1429 934 
Q 1834 422 2522 422 
Q 3209 422 3611 934 
Q 4013 1447 4013 2328 
Q 4013 3213 3611 3725 
Q 3209 4238 2522 4238 
z
M 2522 4750 
Q 3503 4750 4090 4092 
Q 4678 3434 4678 2328 
Q 4678 1225 4090 567 
Q 3503 -91 2522 -91 
Q 1538 -91 948 565 
Q 359 1222 359 2328 
Q 359 3434 948 4092 
Q 1538 4750 2522 4750 
z
" transform="scale(0.015625)"/>
        <path id="DejaVuSans-63" d="M 3122 3366 
L 3122 2828 
Q 2878 2963 2633 3030 
Q 2388 3097 2138 3097 
Q 1578 3097 1268 2742 
Q 959 2388 959 1747 
Q 959 1106 1268 751 
Q 1578 397 2138 397 
Q 2388 397 2633 464 
Q 2878 531 3122 666 
L 3122 134 
Q 2881 22 2623 -34 
Q 2366 -91 2075 -91 
Q 1284 -91 818 406 
Q 353 903 353 1747 
Q 353 2603 823 3093 
Q 1294 3584 2113 3584 
Q 2378 3584 2631 3529 
Q 2884 3475 3122 3366 
z
" transform="scale(0.015625)"/>
        <path id="DejaVuSans-74" d="M 1172 4494 
L 1172 3500 
L 2356 3500 
L 2356 3053 
L 1172 3053 
L 1172 1153 
Q 1172 725 1289 603 
Q 1406 481 1766 481 
L 2356 481 
L 2356 0 
L 1766 0 
Q 1100 0 847 248 
Q 594 497 594 1153 
L 594 3053 
L 172 3053 
L 172 3500 
L 594 3500 
L 594 4494 
L 1172 4494 
z
" transform="scale(0.015625)"/>
       </defs>
       <use xlink:href="#DejaVuSans-4f"/>
       <use xlink:href="#DejaVuSans-63" transform="translate(78.710938 0)"/>
       <use xlink:href="#DejaVuSans-74" transform="translate(133.691406 0)"/>
      </g>
     </g>
    </g>
    <g id="xtick_11">
     <g id="line2d_21">
      <path d="M 589.678802 384.1975 
L 589.678802 39.3575 
" clip-path="url(#p497d22b0ee)" style="fill: none; stroke-dasharray: 2.96,1.28; stroke-dashoffset: 0; stroke: #b0b0b0; stroke-opacity: 0.3; stroke-width: 0.8"/>
     </g>
     <g id="line2d_22">
      <g>
       <use xlink:href="#m5a3da46735" x="589.678802" y="384.1975" style="stroke: #000000; stroke-width: 0.8"/>
      </g>
     </g>
     <g id="text_11">
      <!-- Nov -->
      <g transform="translate(579.919427 398.795937) scale(0.1 -0.1)">
       <defs>
        <path id="DejaVuSans-4e" d="M 628 4666 
L 1478 4666 
L 3547 763 
L 3547 4666 
L 4159 4666 
L 4159 0 
L 3309 0 
L 1241 3903 
L 1241 0 
L 628 0 
L 628 4666 
z
" transform="scale(0.015625)"/>
        <path id="DejaVuSans-6f" d="M 1959 3097 
Q 1497 3097 1228 2736 
Q 959 2375 959 1747 
Q 959 1119 1226 758 
Q 1494 397 1959 397 
Q 2419 397 2687 759 
Q 2956 1122 2956 1747 
Q 2956 2369 2687 2733 
Q 2419 3097 1959 3097 
z
M 1959 3584 
Q 2709 3584 3137 3096 
Q 3566 2609 3566 1747 
Q 3566 888 3137 398 
Q 2709 -91 1959 -91 
Q 1206 -91 779 398 
Q 353 888 353 1747 
Q 353 2609 779 3096 
Q 1206 3584 1959 3584 
z
" transform="scale(0.015625)"/>
        <path id="DejaVuSans-76" d="M 191 3500 
L 800 3500 
L 1894 563 
L 2988 3500 
L 3597 3500 
L 2284 0 
L 1503 0 
L 191 3500 
z
" transform="scale(0.015625)"/>
       </defs>
       <use xlink:href="#DejaVuSans-4e"/>
       <use xlink:href="#DejaVuSans-6f" transform="translate(74.804688 0)"/>
       <use xlink:href="#DejaVuSans-76" transform="translate(135.986328 0)"/>
      </g>
     </g>
    </g>
    <g id="xtick_12">
     <g id="line2d_23">
      <path d="M 641.789251 384.1975 
L 641.789251 39.3575 
" clip-path="url(#p497d22b0ee)" style="fill: none; stroke-dasharray: 2.96,1.28; stroke-dashoffset: 0; stroke: #b0b0b0; stroke-opacity: 0.3; stroke-width: 0.8"/>
     </g>
     <g id="line2d_24">
      <g>
       <use xlink:href="#m5a3da46735" x="641.789251" y="384.1975" style="stroke: #000000; stroke-width: 0.8"/>
      </g>
     </g>
     <g id="text_12">
      <!-- Dec -->
      <g transform="translate(632.11347 398.795937) scale(0.1 -0.1)">
       <defs>
        <path id="DejaVuSans-44" d="M 1259 4147 
L 1259 519 
L 2022 519 
Q 2988 519 3436 956 
Q 3884 1394 3884 2338 
Q 3884 3275 3436 3711 
Q 2988 4147 2022 4147 
L 1259 4147 
z
M 628 4666 
L 1925 4666 
Q 3281 4666 3915 4102 
Q 4550 3538 4550 2338 
Q 4550 1131 3912 565 
Q 3275 0 1925 0 
L 628 0 
L 628 4666 
z
" transform="scale(0.015625)"/>
       </defs>
       <use xlink:href="#DejaVuSans-44"/>
       <use xlink:href="#DejaVuSans-65" transform="translate(77.001953 0)"/>
       <use xlink:href="#DejaVuSans-63" transform="translate(138.525391 0)"/>
      </g>
     </g>
    </g>
    <g id="xtick_13">
     <g id="line2d_25">
      <path d="M 695.636716 384.1975 
L 695.636716 39.3575 
" clip-path="url(#p497d22b0ee)" style="fill: none; stroke-dasharray: 2.96,1.28; stroke-dashoffset: 0; stroke: #b0b0b0; stroke-opacity: 0.3; stroke-width: 0.8"/>
     </g>
     <g id="line2d_26">
      <g>
       <use xlink:href="#m5a3da46735" x="695.636716" y="384.1975" style="stroke: #000000; stroke-width: 0.8"/>
      </g>
     </g>
     <g id="text_13">
      <!-- Jan -->
      <g transform="translate(687.928903 398.795937) scale(0.1 -0.1)">
       <use xlink:href="#DejaVuSans-4a"/>
       <use xlink:href="#DejaVuSans-61" transform="translate(29.492188 0)"/>
       <use xlink:href="#DejaVuSans-6e" transform="translate(90.771484 0)"/>
      </g>
     </g>
    </g>
    <g id="text_14">
     <!-- Day of the year -->
     <g transform="translate(336.388708 413.99375) scale(0.12 -0.12)">
      <defs>
       <path id="DejaVuSans-20" transform="scale(0.015625)"/>
       <path id="DejaVuSans-66" d="M 2375 4863 
L 2375 4384 
L 1825 4384 
Q 1516 4384 1395 4259 
Q 1275 4134 1275 3809 
L 1275 3500 
L 2222 3500 
L 2222 3053 
L 1275 3053 
L 1275 0 
L 697 0 
L 697 3053 
L 147 3053 
L 147 3500 
L 697 3500 
L 697 3744 
Q 697 4328 969 4595 
Q 1241 4863 1831 4863 
L 2375 4863 
z
" transform="scale(0.015625)"/>
       <path id="DejaVuSans-68" d="M 3513 2113 
L 3513 0 
L 2938 0 
L 2938 2094 
Q 2938 2591 2744 2837 
Q 2550 3084 2163 3084 
Q 1697 3084 1428 2787 
Q 1159 2491 1159 1978 
L 1159 0 
L 581 0 
L 581 4863 
L 1159 4863 
L 1159 2956 
Q 1366 3272 1645 3428 
Q 1925 3584 2291 3584 
Q 2894 3584 3203 3211 
Q 3513 2838 3513 2113 
z
" transform="scale(0.015625)"/>
      </defs>
      <use xlink:href="#DejaVuSans-44"/>
      <use xlink:href="#DejaVuSans-61" transform="translate(77.001953 0)"/>
      <use xlink:href="#DejaVuSans-79" transform="translate(138.28125 0)"/>
      <use xlink:href="#DejaVuSans-20" transform="translate(197.460938 0)"/>
      <use xlink:href="#DejaVuSans-6f" transform="translate(229.248047 0)"/>
      <use xlink:href="#DejaVuSans-66" transform="translate(290.429688 0)"/>
      <use xlink:href="#DejaVuSans-20" transform="translate(325.634766 0)"/>
      <use xlink:href="#DejaVuSans-74" transform="translate(357.421875 0)"/>
      <use xlink:href="#DejaVuSans-68" transform="translate(396.630859 0)"/>
      <use xlink:href="#DejaVuSans-65" transform="translate(460.009766 0)"/>
      <use xlink:href="#DejaVuSans-20" transform="translate(521.533203 0)"/>
      <use xlink:href="#DejaVuSans-79" transform="translate(553.320312 0)"/>
      <use xlink:href="#DejaVuSans-65" transform="translate(612.5 0)"/>
      <use xlink:href="#DejaVuSans-61" transform="translate(674.023438 0)"/>
      <use xlink:href="#DejaVuSans-72" transform="translate(735.302734 0)"/>
     </g>
    </g>
   </g>
   <g id="matplotlib.axis_2">
    <g id="ytick_1">
     <g id="line2d_27">
      <path d="M 61.62625 384.1975 
L 704.321791 384.1975 
" clip-path="url(#p497d22b0ee)" style="fill: none; stroke-dasharray: 2.96,1.28; stroke-dashoffset: 0; stroke: #b0b0b0; stroke-opacity: 0.3; stroke-width: 0.8"/>
     </g>
     <g id="line2d_28">
      <defs>
       <path id="m3279b6bfd3" d="M 0 0 
L -3.5 0 
" style="stroke: #000000; stroke-width: 0.8"/>
      </defs>
      <g>
       <use xlink:href="#m3279b6bfd3" x="61.62625" y="384.1975" style="stroke: #000000; stroke-width: 0.8"/>
      </g>
     </g>
     <g id="text_15">
      <!-- 0 -->
      <g transform="translate(48.26375 387.996719) scale(0.1 -0.1)">
       <defs>
        <path id="DejaVuSans-30" d="M 2034 4250 
Q 1547 4250 1301 3770 
Q 1056 3291 1056 2328 
Q 1056 1369 1301 889 
Q 1547 409 2034 409 
Q 2525 409 2770 889 
Q 3016 1369 3016 2328 
Q 3016 3291 2770 3770 
Q 2525 4250 2034 4250 
z
M 2034 4750 
Q 2819 4750 3233 4129 
Q 3647 3509 3647 2328 
Q 3647 1150 3233 529 
Q 2819 -91 2034 -91 
Q 1250 -91 836 529 
Q 422 1150 422 2328 
Q 422 3509 836 4129 
Q 1250 4750 2034 4750 
z
" transform="scale(0.015625)"/>
       </defs>
       <use xlink:href="#DejaVuSans-30"/>
      </g>
     </g>
    </g>
    <g id="ytick_2">
     <g id="line2d_29">
      <path d="M 61.62625 333.418453 
L 704.321791 333.418453 
" clip-path="url(#p497d22b0ee)" style="fill: none; stroke-dasharray: 2.96,1.28; stroke-dashoffset: 0; stroke: #b0b0b0; stroke-opacity: 0.3; stroke-width: 0.8"/>
     </g>
     <g id="line2d_30">
      <g>
       <use xlink:href="#m3279b6bfd3" x="61.62625" y="333.418453" style="stroke: #000000; stroke-width: 0.8"/>
      </g>
     </g>
     <g id="text_16">
      <!-- 10000 -->
      <g transform="translate(22.81375 337.217672) scale(0.1 -0.1)">
       <defs>
        <path id="DejaVuSans-31" d="M 794 531 
L 1825 531 
L 1825 4091 
L 703 3866 
L 703 4441 
L 1819 4666 
L 2450 4666 
L 2450 531 
L 3481 531 
L 3481 0 
L 794 0 
L 794 531 
z
" transform="scale(0.015625)"/>
       </defs>
       <use xlink:href="#DejaVuSans-31"/>
       <use xlink:href="#DejaVuSans-30" transform="translate(63.623047 0)"/>
       <use xlink:href="#DejaVuSans-30" transform="translate(127.246094 0)"/>
       <use xlink:href="#DejaVuSans-30" transform="translate(190.869141 0)"/>
       <use xlink:href="#DejaVuSans-30" transform="translate(254.492188 0)"/>
      </g>
     </g>
    </g>
    <g id="ytick_3">
     <g id="line2d_31">
      <path d="M 61.62625 282.639406 
L 704.321791 282.639406 
" clip-path="url(#p497d22b0ee)" style="fill: none; stroke-dasharray: 2.96,1.28; stroke-dashoffset: 0; stroke: #b0b0b0; stroke-opacity: 0.3; stroke-width: 0.8"/>
     </g>
     <g id="line2d_32">
      <g>
       <use xlink:href="#m3279b6bfd3" x="61.62625" y="282.639406" style="stroke: #000000; stroke-width: 0.8"/>
      </g>
     </g>
     <g id="text_17">
      <!-- 20000 -->
      <g transform="translate(22.81375 286.438625) scale(0.1 -0.1)">
       <defs>
        <path id="DejaVuSans-32" d="M 1228 531 
L 3431 531 
L 3431 0 
L 469 0 
L 469 531 
Q 828 903 1448 1529 
Q 2069 2156 2228 2338 
Q 2531 2678 2651 2914 
Q 2772 3150 2772 3378 
Q 2772 3750 2511 3984 
Q 2250 4219 1831 4219 
Q 1534 4219 1204 4116 
Q 875 4013 500 3803 
L 500 4441 
Q 881 4594 1212 4672 
Q 1544 4750 1819 4750 
Q 2544 4750 2975 4387 
Q 3406 4025 3406 3419 
Q 3406 3131 3298 2873 
Q 3191 2616 2906 2266 
Q 2828 2175 2409 1742 
Q 1991 1309 1228 531 
z
" transform="scale(0.015625)"/>
       </defs>
       <use xlink:href="#DejaVuSans-32"/>
       <use xlink:href="#DejaVuSans-30" transform="translate(63.623047 0)"/>
       <use xlink:href="#DejaVuSans-30" transform="translate(127.246094 0)"/>
       <use xlink:href="#DejaVuSans-30" transform="translate(190.869141 0)"/>
       <use xlink:href="#DejaVuSans-30" transform="translate(254.492188 0)"/>
      </g>
     </g>
    </g>
    <g id="ytick_4">
     <g id="line2d_33">
      <path d="M 61.62625 231.860359 
L 704.321791 231.860359 
" clip-path="url(#p497d22b0ee)" style="fill: none; stroke-dasharray: 2.96,1.28; stroke-dashoffset: 0; stroke: #b0b0b0; stroke-opacity: 0.3; stroke-width: 0.8"/>
     </g>
     <g id="line2d_34">
      <g>
       <use xlink:href="#m3279b6bfd3" x="61.62625" y="231.860359" style="stroke: #000000; stroke-width: 0.8"/>
      </g>
     </g>
     <g id="text_18">
      <!-- 30000 -->
      <g transform="translate(22.81375 235.659578) scale(0.1 -0.1)">
       <defs>
        <path id="DejaVuSans-33" d="M 2597 2516 
Q 3050 2419 3304 2112 
Q 3559 1806 3559 1356 
Q 3559 666 3084 287 
Q 2609 -91 1734 -91 
Q 1441 -91 1130 -33 
Q 819 25 488 141 
L 488 750 
Q 750 597 1062 519 
Q 1375 441 1716 441 
Q 2309 441 2620 675 
Q 2931 909 2931 1356 
Q 2931 1769 2642 2001 
Q 2353 2234 1838 2234 
L 1294 2234 
L 1294 2753 
L 1863 2753 
Q 2328 2753 2575 2939 
Q 2822 3125 2822 3475 
Q 2822 3834 2567 4026 
Q 2313 4219 1838 4219 
Q 1578 4219 1281 4162 
Q 984 4106 628 3988 
L 628 4550 
Q 988 4650 1302 4700 
Q 1616 4750 1894 4750 
Q 2613 4750 3031 4423 
Q 3450 4097 3450 3541 
Q 3450 3153 3228 2886 
Q 3006 2619 2597 2516 
z
" transform="scale(0.015625)"/>
       </defs>
       <use xlink:href="#DejaVuSans-33"/>
       <use xlink:href="#DejaVuSans-30" transform="translate(63.623047 0)"/>
       <use xlink:href="#DejaVuSans-30" transform="translate(127.246094 0)"/>
       <use xlink:href="#DejaVuSans-30" transform="translate(190.869141 0)"/>
       <use xlink:href="#DejaVuSans-30" transform="translate(254.492188 0)"/>
      </g>
     </g>
    </g>
    <g id="ytick_5">
     <g id="line2d_35">
      <path d="M 61.62625 181.081312 
L 704.321791 181.081312 
" clip-path="url(#p497d22b0ee)" style="fill: none; stroke-dasharray: 2.96,1.28; stroke-dashoffset: 0; stroke: #b0b0b0; stroke-opacity: 0.3; stroke-width: 0.8"/>
     </g>
     <g id="line2d_36">
      <g>
       <use xlink:href="#m3279b6bfd3" x="61.62625" y="181.081312" style="stroke: #000000; stroke-width: 0.8"/>
      </g>
     </g>
     <g id="text_19">
      <!-- 40000 -->
      <g transform="translate(22.81375 184.880531) scale(0.1 -0.1)">
       <defs>
        <path id="DejaVuSans-34" d="M 2419 4116 
L 825 1625 
L 2419 1625 
L 2419 4116 
z
M 2253 4666 
L 3047 4666 
L 3047 1625 
L 3713 1625 
L 3713 1100 
L 3047 1100 
L 3047 0 
L 2419 0 
L 2419 1100 
L 313 1100 
L 313 1709 
L 2253 4666 
z
" transform="scale(0.015625)"/>
       </defs>
       <use xlink:href="#DejaVuSans-34"/>
       <use xlink:href="#DejaVuSans-30" transform="translate(63.623047 0)"/>
       <use xlink:href="#DejaVuSans-30" transform="translate(127.246094 0)"/>
       <use xlink:href="#DejaVuSans-30" transform="translate(190.869141 0)"/>
       <use xlink:href="#DejaVuSans-30" transform="translate(254.492188 0)"/>
      </g>
     </g>
    </g>
    <g id="ytick_6">
     <g id="line2d_37">
      <path d="M 61.62625 130.302265 
L 704.321791 130.302265 
" clip-path="url(#p497d22b0ee)" style="fill: none; stroke-dasharray: 2.96,1.28; stroke-dashoffset: 0; stroke: #b0b0b0; stroke-opacity: 0.3; stroke-width: 0.8"/>
     </g>
     <g id="line2d_38">
      <g>
       <use xlink:href="#m3279b6bfd3" x="61.62625" y="130.302265" style="stroke: #000000; stroke-width: 0.8"/>
      </g>
     </g>
     <g id="text_20">
      <!-- 50000 -->
      <g transform="translate(22.81375 134.101484) scale(0.1 -0.1)">
       <defs>
        <path id="DejaVuSans-35" d="M 691 4666 
L 3169 4666 
L 3169 4134 
L 1269 4134 
L 1269 2991 
Q 1406 3038 1543 3061 
Q 1681 3084 1819 3084 
Q 2600 3084 3056 2656 
Q 3513 2228 3513 1497 
Q 3513 744 3044 326 
Q 2575 -91 1722 -91 
Q 1428 -91 1123 -41 
Q 819 9 494 109 
L 494 744 
Q 775 591 1075 516 
Q 1375 441 1709 441 
Q 2250 441 2565 725 
Q 2881 1009 2881 1497 
Q 2881 1984 2565 2268 
Q 2250 2553 1709 2553 
Q 1456 2553 1204 2497 
Q 953 2441 691 2322 
L 691 4666 
z
" transform="scale(0.015625)"/>
       </defs>
       <use xlink:href="#DejaVuSans-35"/>
       <use xlink:href="#DejaVuSans-30" transform="translate(63.623047 0)"/>
       <use xlink:href="#DejaVuSans-30" transform="translate(127.246094 0)"/>
       <use xlink:href="#DejaVuSans-30" transform="translate(190.869141 0)"/>
       <use xlink:href="#DejaVuSans-30" transform="translate(254.492188 0)"/>
      </g>
     </g>
    </g>
    <g id="ytick_7">
     <g id="line2d_39">
      <path d="M 61.62625 79.523218 
L 704.321791 79.523218 
" clip-path="url(#p497d22b0ee)" style="fill: none; stroke-dasharray: 2.96,1.28; stroke-dashoffset: 0; stroke: #b0b0b0; stroke-opacity: 0.3; stroke-width: 0.8"/>
     </g>
     <g id="line2d_40">
      <g>
       <use xlink:href="#m3279b6bfd3" x="61.62625" y="79.523218" style="stroke: #000000; stroke-width: 0.8"/>
      </g>
     </g>
     <g id="text_21">
      <!-- 60000 -->
      <g transform="translate(22.81375 83.322437) scale(0.1 -0.1)">
       <defs>
        <path id="DejaVuSans-36" d="M 2113 2584 
Q 1688 2584 1439 2293 
Q 1191 2003 1191 1497 
Q 1191 994 1439 701 
Q 1688 409 2113 409 
Q 2538 409 2786 701 
Q 3034 994 3034 1497 
Q 3034 2003 2786 2293 
Q 2538 2584 2113 2584 
z
M 3366 4563 
L 3366 3988 
Q 3128 4100 2886 4159 
Q 2644 4219 2406 4219 
Q 1781 4219 1451 3797 
Q 1122 3375 1075 2522 
Q 1259 2794 1537 2939 
Q 1816 3084 2150 3084 
Q 2853 3084 3261 2657 
Q 3669 2231 3669 1497 
Q 3669 778 3244 343 
Q 2819 -91 2113 -91 
Q 1303 -91 875 529 
Q 447 1150 447 2328 
Q 447 3434 972 4092 
Q 1497 4750 2381 4750 
Q 2619 4750 2861 4703 
Q 3103 4656 3366 4563 
z
" transform="scale(0.015625)"/>
       </defs>
       <use xlink:href="#DejaVuSans-36"/>
       <use xlink:href="#DejaVuSans-30" transform="translate(63.623047 0)"/>
       <use xlink:href="#DejaVuSans-30" transform="translate(127.246094 0)"/>
       <use xlink:href="#DejaVuSans-30" transform="translate(190.869141 0)"/>
       <use xlink:href="#DejaVuSans-30" transform="translate(254.492188 0)"/>
      </g>
     </g>
    </g>
    <g id="text_22">
     <!-- Daily pedestrian count -->
     <g transform="translate(16.318125 279.793125) rotate(-90) scale(0.12 -0.12)">
      <defs>
       <path id="DejaVuSans-69" d="M 603 3500 
L 1178 3500 
L 1178 0 
L 603 0 
L 603 3500 
z
M 603 4863 
L 1178 4863 
L 1178 4134 
L 603 4134 
L 603 4863 
z
" transform="scale(0.015625)"/>
       <path id="DejaVuSans-64" d="M 2906 2969 
L 2906 4863 
L 3481 4863 
L 3481 0 
L 2906 0 
L 2906 525 
Q 2725 213 2448 61 
Q 2172 -91 1784 -91 
Q 1150 -91 751 415 
Q 353 922 353 1747 
Q 353 2572 751 3078 
Q 1150 3584 1784 3584 
Q 2172 3584 2448 3432 
Q 2725 3281 2906 2969 
z
M 947 1747 
Q 947 1113 1208 752 
Q 1469 391 1925 391 
Q 2381 391 2643 752 
Q 2906 1113 2906 1747 
Q 2906 2381 2643 2742 
Q 2381 3103 1925 3103 
Q 1469 3103 1208 2742 
Q 947 2381 947 1747 
z
" transform="scale(0.015625)"/>
       <path id="DejaVuSans-73" d="M 2834 3397 
L 2834 2853 
Q 2591 2978 2328 3040 
Q 2066 3103 1784 3103 
Q 1356 3103 1142 2972 
Q 928 2841 928 2578 
Q 928 2378 1081 2264 
Q 1234 2150 1697 2047 
L 1894 2003 
Q 2506 1872 2764 1633 
Q 3022 1394 3022 966 
Q 3022 478 2636 193 
Q 2250 -91 1575 -91 
Q 1294 -91 989 -36 
Q 684 19 347 128 
L 347 722 
Q 666 556 975 473 
Q 1284 391 1588 391 
Q 1994 391 2212 530 
Q 2431 669 2431 922 
Q 2431 1156 2273 1281 
Q 2116 1406 1581 1522 
L 1381 1569 
Q 847 1681 609 1914 
Q 372 2147 372 2553 
Q 372 3047 722 3315 
Q 1072 3584 1716 3584 
Q 2034 3584 2315 3537 
Q 2597 3491 2834 3397 
z
" transform="scale(0.015625)"/>
      </defs>
      <use xlink:href="#DejaVuSans-44"/>
      <use xlink:href="#DejaVuSans-61" transform="translate(77.001953 0)"/>
      <use xlink:href="#DejaVuSans-69" transform="translate(138.28125 0)"/>
      <use xlink:href="#DejaVuSans-6c" transform="translate(166.064453 0)"/>
      <use xlink:href="#DejaVuSans-79" transform="translate(193.847656 0)"/>
      <use xlink:href="#DejaVuSans-20" transform="translate(253.027344 0)"/>
      <use xlink:href="#DejaVuSans-70" transform="translate(284.814453 0)"/>
      <use xlink:href="#DejaVuSans-65" transform="translate(348.291016 0)"/>
      <use xlink:href="#DejaVuSans-64" transform="translate(409.814453 0)"/>
      <use xlink:href="#DejaVuSans-65" transform="translate(473.291016 0)"/>
      <use xlink:href="#DejaVuSans-73" transform="translate(534.814453 0)"/>
      <use xlink:href="#DejaVuSans-74" transform="translate(586.914062 0)"/>
      <use xlink:href="#DejaVuSans-72" transform="translate(626.123047 0)"/>
      <use xlink:href="#DejaVuSans-69" transform="translate(667.236328 0)"/>
      <use xlink:href="#DejaVuSans-61" transform="translate(695.019531 0)"/>
      <use xlink:href="#DejaVuSans-6e" transform="translate(756.298828 0)"/>
      <use xlink:href="#DejaVuSans-20" transform="translate(819.677734 0)"/>
      <use xlink:href="#DejaVuSans-63" transform="translate(851.464844 0)"/>
      <use xlink:href="#DejaVuSans-6f" transform="translate(906.445312 0)"/>
      <use xlink:href="#DejaVuSans-75" transform="translate(967.626953 0)"/>
      <use xlink:href="#DejaVuSans-6e" transform="translate(1031.005859 0)"/>
      <use xlink:href="#DejaVuSans-74" transform="translate(1094.384766 0)"/>
     </g>
    </g>
   </g>
   <g id="line2d_41">
    <path d="M 63.363265 307.653165 
L 65.10028 323.577474 
L 66.837295 328.817871 
L 68.57431 355.923727 
L 70.311325 328.183133 
L 72.04834 319.906149 
L 73.785355 329.42722 
L 75.52237 328.660456 
L 77.259385 322.186128 
L 78.9964 327.081228 
L 80.733415 315.264944 
L 82.47043 298.644962 
L 84.207445 313.523222 
L 85.94446 308.22189 
L 87.681475 270.625084 
L 89.41849 226.843389 
L 91.155505 242.879412 
L 92.89252 198.706719 
L 94.629535 275.19012 
L 96.366549 121.415932 
L 98.103564 239.878371 
L 99.840579 214.646262 
L 101.577594 194.344799 
L 105.051624 263.003149 
L 106.788639 186.209996 
L 110.262669 323.450526 
L 111.999684 275.108873 
L 113.736699 290.50508 
L 115.473714 270.36611 
L 117.210729 247.129619 
L 118.947744 265.740139 
L 120.684759 295.415414 
L 122.421774 276.809972 
L 124.158789 263.658198 
L 125.895804 279.01886 
L 127.632819 247.144852 
L 129.369834 223.720478 
L 131.106849 247.855759 
L 132.843864 235.028972 
L 136.317894 285.44241 
L 138.054909 232.337682 
L 139.791924 235.00866 
L 141.528939 240.081487 
L 143.265954 221.618225 
L 145.002969 250.460724 
L 146.739984 270.919602 
L 148.476999 273.676904 
L 150.214014 241.757195 
L 151.951029 260.306781 
L 153.688044 244.951197 
L 155.425059 246.18005 
L 157.162074 216.768826 
L 158.899089 281.735539 
L 160.636104 271.071939 
L 162.373119 263.043772 
L 164.110133 274.641706 
L 165.847148 268.441585 
L 167.584163 289.43872 
L 169.321178 303.453737 
L 171.058193 276.728725 
L 172.795208 267.923638 
L 174.532223 265.039388 
L 176.269238 258.148672 
L 178.006253 217.693005 
L 179.743268 157.265939 
L 181.480283 135.456339 
L 183.217298 129.946812 
L 184.954313 282.258563 
L 186.691328 241.924766 
L 188.428343 241.43221 
L 190.165358 243.707111 
L 191.902373 294.156094 
L 193.639388 316.067253 
L 195.376403 252.832106 
L 197.113418 262.449657 
L 198.850433 263.642965 
L 200.587448 248.99321 
L 202.324463 244.651601 
L 204.061478 226.853545 
L 205.798493 309.28825 
L 315.230436 364.855761 
L 316.967451 369.034877 
L 318.704466 364.25149 
L 320.441481 367.455648 
L 322.178496 363.55074 
L 323.915511 365.114734 
L 325.652526 348.408428 
L 327.389541 357.87872 
L 329.126556 372.889006 
L 330.863571 360.88484 
L 332.600586 359.960661 
L 334.337601 356.918996 
L 336.074616 345.93041 
L 337.811631 341.365374 
L 339.548646 344.909751 
L 341.285661 347.814313 
L 343.022676 354.67964 
L 344.759691 370.172327 
L 346.496706 358.879067 
L 348.233721 357.269371 
L 349.970736 344.803115 
L 351.707751 353.146113 
L 353.444766 357.218592 
L 355.181781 366.775209 
L 356.918796 364.474918 
L 358.655811 367.074805 
L 360.392826 359.168508 
L 362.129841 356.868217 
L 363.866856 355.857714 
L 365.603871 355.360079 
L 367.340886 356.533075 
L 369.0779 353.598046 
L 370.814915 353.745306 
L 372.55193 351.064172 
L 374.288945 368.994253 
L 376.02596 349.738839 
L 377.762975 357.238904 
L 381.237005 352.531686 
L 382.97402 352.01374 
L 384.711035 332.976675 
L 386.44805 324.257913 
L 388.185065 353.308606 
L 389.92208 348.611544 
L 391.659095 349.886098 
L 393.39611 349.652514 
L 395.133125 360.138388 
L 398.607155 351.424703 
L 400.34417 362.834755 
L 402.081185 358.736886 
L 403.8182 357.726383 
L 405.555215 361.047332 
L 407.29223 352.511375 
L 409.029245 339.151407 
L 410.76626 334.169983 
L 412.503275 343.173108 
L 414.24029 351.155574 
L 415.977305 360.057141 
L 417.71432 353.572657 
L 419.451335 351.993428 
L 421.18835 359.209131 
L 422.925365 332.458729 
L 424.66238 303.875204 
L 426.399395 355.085872 
L 428.13641 355.999895 
L 429.873425 350.855978 
L 431.61044 357.833019 
L 433.347455 351.191119 
L 435.08447 349.271672 
L 436.821484 348.652167 
L 438.558499 351.429781 
L 440.295514 358.513458 
L 442.032529 352.506297 
L 443.769544 355.847558 
L 445.506559 361.372318 
L 447.243574 352.485985 
L 448.980589 357.22367 
L 450.717604 351.495794 
L 454.191634 349.220892 
L 455.928649 348.855283 
L 457.665664 356.187778 
L 459.402679 317.737883 
L 461.139694 341.741139 
L 462.876709 355.989739 
L 464.613724 351.561807 
L 466.350739 351.551651 
L 468.087754 327.883537 
L 469.824769 286.950547 
L 471.561784 285.640448 
L 473.298799 323.516539 
L 475.035814 345.976111 
L 476.772829 348.15961 
L 478.509844 364.25149 
L 481.983874 334.814877 
L 483.720889 325.385208 
L 485.457904 354.080447 
L 487.194919 349.134568 
L 488.931934 342.29463 
L 490.668949 347.890481 
L 492.405964 346.773342 
L 494.142979 339.62873 
L 495.879994 353.714838 
L 497.617009 356.329959 
L 499.354024 358.005668 
L 501.091039 347.235432 
L 502.828054 340.431039 
L 504.565068 349.896254 
L 506.302083 338.597916 
L 508.039098 336.79526 
L 509.776113 348.144377 
L 511.513128 351.643053 
L 513.250143 344.737103 
L 514.987158 341.339984 
L 516.724173 336.419495 
L 518.461188 317.869909 
L 520.198203 347.418236 
L 521.935218 339.882626 
L 523.672233 353.603124 
L 525.409248 345.899943 
L 527.146263 339.735366 
L 528.883278 322.61775 
L 530.620293 345.625736 
L 532.357308 326.746086 
L 534.094323 338.211995 
L 535.831338 346.99677 
L 537.568353 328.36086 
L 539.305368 325.344585 
L 541.042383 327.649953 
L 542.779398 349.718527 
L 544.516413 321.256871 
L 546.253428 306.541104 
L 547.990443 331.016604 
L 549.727458 351.516105 
L 551.464473 345.839008 
L 553.201488 344.341026 
L 556.675518 311.116296 
L 558.412533 258.529515 
L 560.149548 339.090473 
L 561.886563 339.96895 
L 563.623578 352.673868 
L 565.360593 354.806588 
L 567.097608 341.13179 
L 568.834623 331.041994 
L 570.571638 323.171241 
L 572.308652 339.806457 
L 574.045667 334.03288 
L 575.782682 329.061611 
L 577.519697 340.1873 
L 579.256712 342.893823 
L 580.993727 350.642706 
L 582.730742 352.044207 
L 584.467757 335.480082 
L 586.204772 338.988915 
L 587.941787 336.541364 
L 589.678802 345.64097 
L 591.415817 345.691749 
L 593.152832 362.717963 
L 594.889847 352.633244 
L 596.626862 344.559376 
L 598.363877 333.753595 
L 600.100892 340.69509 
L 601.837907 355.507338 
L 603.574922 352.750036 
L 605.311937 340.791571 
L 607.048952 336.861272 
L 608.785967 325.166858 
L 610.522982 350.206006 
L 612.259997 341.248582 
L 613.997012 323.156008 
L 615.734027 329.244415 
L 617.471042 307.419581 
L 619.208057 295.146285 
L 620.945072 323.15093 
L 622.682087 313.787274 
L 624.419102 306.739142 
L 626.156117 314.929802 
L 627.893132 314.955192 
L 629.630147 302.011613 
L 631.367162 314.30522 
L 633.104177 331.336512 
L 634.841192 343.132485 
L 636.578207 328.315159 
L 638.315222 319.895993 
L 640.052236 330.310775 
L 641.789251 301.63077 
L 643.526266 352.917607 
L 645.263281 346.224929 
L 647.000296 335.282044 
L 648.737311 334.44419 
L 650.474326 325.593402 
L 652.211341 328.909274 
L 653.948356 277.622436 
L 655.685371 315.752423 
L 657.422386 349.383385 
L 659.159401 338.892434 
L 660.896416 349.114256 
L 662.633431 328.574132 
L 664.370446 343.833236 
L 666.107461 332.06773 
L 667.844476 330.681462 
L 669.581491 348.235779 
L 671.318506 349.068555 
L 673.055521 362.306653 
L 674.792536 345.123023 
L 676.529551 366.572093 
L 678.266566 337.638192 
L 680.003581 329.132701 
L 681.740596 332.509508 
L 683.477611 327.248799 
L 685.214626 334.073503 
L 686.951641 336.612455 
L 690.425671 342.375877 
L 692.162686 345.026543 
L 693.899701 367.465804 
L 695.636716 340.639234 
L 695.636716 340.639234 
" clip-path="url(#p497d22b0ee)" style="fill: none; stroke: #0d6efc; stroke-opacity: 0.8; stroke-width: 2.5; stroke-linecap: square"/>
   </g>
   <g id="line2d_42">
    <path d="M 63.363265 298.827766 
L 65.10028 317.499222 
L 68.57431 353.450787 
L 70.311325 356.797126 
L 72.04834 365.805329 
L 73.785355 335.962483 
L 75.52237 343.213731 
L 77.259385 343.858625 
L 78.9964 326.710541 
L 80.733415 325.608636 
L 82.47043 340.684935 
L 84.207445 330.437723 
L 85.94446 330.249841 
L 87.681475 340.618922 
L 89.41849 322.998593 
L 91.155505 317.905454 
L 92.89252 304.337293 
L 94.629535 196.756804 
L 96.366549 340.182222 
L 98.103564 324.334082 
L 99.840579 328.081575 
L 101.577594 316.747692 
L 103.314609 295.390025 
L 105.051624 308.465629 
L 106.788639 278.241941 
L 108.525654 359.67122 
L 110.262669 343.751989 
L 111.999684 343.787534 
L 113.736699 341.477088 
L 115.473714 335.454693 
L 117.210729 330.706852 
L 118.947744 357.873642 
L 120.684759 360.234868 
L 122.421774 354.958925 
L 124.158789 326.487113 
L 125.895804 347.250665 
L 127.632819 342.822733 
L 129.369834 330.722086 
L 131.106849 336.505819 
L 132.843864 282.431212 
L 134.580879 292.206179 
L 136.317894 293.673693 
L 138.054909 301.788185 
L 139.791924 294.983792 
L 141.528939 331.768134 
L 143.265954 342.599305 
L 145.002969 341.741139 
L 146.739984 349.043166 
L 148.476999 349.916565 
L 150.214014 324.745392 
L 151.951029 338.24754 
L 153.688044 326.096114 
L 155.425059 343.812924 
L 157.162074 346.615927 
L 158.899089 344.666012 
L 160.636104 351.734455 
L 162.373119 343.757067 
L 164.110133 341.405997 
L 165.847148 324.516886 
L 167.584163 341.512633 
L 169.321178 346.68194 
L 171.058193 348.829894 
L 172.795208 347.687365 
L 174.532223 284.85845 
L 176.269238 252.420795 
L 178.006253 108.21338 
L 179.743268 55.743391 
L 181.480283 78.715831 
L 183.217298 350.581771 
L 184.954313 350.084136 
L 186.691328 331.722433 
L 188.428343 327.314812 
L 190.165358 291.18552 
L 191.902373 357.970122 
L 193.639388 343.477782 
L 195.376403 341.929021 
L 197.113418 340.588454 
L 198.850433 353.181658 
L 200.587448 342.954758 
L 202.324463 311.095984 
L 204.061478 323.140774 
L 205.798493 351.094639 
L 207.535508 348.235779 
L 209.272523 351.186042 
L 211.009538 346.230007 
L 212.746553 337.094856 
L 214.483568 323.318501 
L 216.220583 330.097503 
L 217.957598 349.850553 
L 219.694613 348.220545 
L 221.431628 336.79526 
L 223.168643 347.692443 
L 224.905658 349.88102 
L 226.642673 319.728422 
L 228.379688 327.2945 
L 230.116703 257.194026 
L 231.853717 260.91613 
L 233.590732 248.206134 
L 235.327747 256.386639 
L 237.064762 288.793827 
L 238.801777 329.508466 
L 240.538792 320.256524 
L 242.275807 342.863356 
L 245.749837 338.511591 
L 247.486852 339.308823 
L 249.223867 322.236907 
L 250.960882 322.902112 
L 252.697897 317.986701 
L 254.434912 324.085264 
L 256.171927 353.034399 
L 257.908942 348.93653 
L 259.645957 343.335601 
L 261.382972 283.421403 
L 263.119987 343.442237 
L 264.857002 332.255613 
L 266.594017 356.710802 
L 268.331032 362.062913 
L 271.805062 351.018471 
L 273.542077 350.652862 
L 275.279092 335.109395 
L 277.016107 342.066125 
L 278.753122 354.156616 
L 280.490137 353.135957 
L 282.227152 358.868911 
L 283.964167 354.989392 
L 285.701182 343.960183 
L 287.438197 321.353352 
L 289.175212 262.084048 
L 290.912227 351.26221 
L 292.649242 350.876289 
L 294.386257 350.72903 
L 296.123272 351.470404 
L 297.860287 347.885404 
L 299.597301 361.448487 
L 301.334316 323.425137 
L 303.071331 353.689449 
L 304.808346 344.930063 
L 306.545361 351.841091 
L 310.019391 355.674909 
L 311.756406 327.578863 
L 313.493421 320.967431 
L 315.230436 311.522528 
L 316.967451 320.601822 
L 318.704466 318.078103 
L 320.441481 301.09759 
L 322.178496 324.318848 
L 323.915511 343.04616 
L 325.652526 344.219156 
L 327.389541 369.893042 
L 329.126556 370.852766 
L 330.863571 358.29003 
L 332.600586 356.705724 
L 334.337601 360.173933 
L 336.074616 381.069511 
L 337.811631 352.948075 
L 339.548646 356.644789 
L 341.285661 358.208784 
L 343.022676 358.366199 
L 344.759691 356.456907 
L 346.496706 353.27306 
L 348.233721 346.483902 
L 349.970736 383.22762 
L 351.707751 364.215945 
L 353.444766 364.053452 
L 355.181781 355.735844 
L 356.918796 362.347276 
L 358.655811 381.826119 
L 360.392826 340.497052 
L 362.129841 343.411769 
L 363.866856 361.214903 
L 365.603871 365.739316 
L 367.340886 371.832802 
L 369.0779 360.966086 
L 370.814915 355.004626 
L 372.55193 343.503172 
L 374.288945 355.197586 
L 376.02596 382.592882 
L 377.762975 305.423964 
L 381.237005 379.734022 
L 382.97402 304.377916 
L 384.711035 334.464501 
L 388.185065 344.25978 
L 389.92208 361.524656 
L 391.659095 354.110915 
L 393.39611 361.702382 
L 395.133125 349.195503 
L 396.87014 327.92416 
L 398.607155 334.591449 
L 400.34417 352.404739 
L 402.081185 356.126843 
L 403.8182 354.085525 
L 405.555215 358.188472 
L 407.29223 342.929369 
L 409.029245 343.157874 
L 410.76626 342.299708 
L 412.503275 359.879414 
L 414.24029 368.699735 
L 415.977305 360.001284 
L 417.71432 343.955105 
L 419.451335 349.312295 
L 421.18835 337.765139 
L 422.925365 346.798732 
L 424.66238 382.618272 
L 426.399395 383.461204 
L 428.13641 372.46754 
L 429.873425 359.102495 
L 431.61044 352.460596 
L 433.347455 333.093467 
L 435.08447 333.129012 
L 436.821484 358.584549 
L 440.295514 383.359646 
L 442.032529 364.586632 
L 443.769544 349.368152 
L 445.506559 335.546095 
L 447.243574 334.175061 
L 448.980589 354.14646 
L 450.717604 367.166208 
L 452.454619 356.040518 
L 454.191634 353.577735 
L 455.928649 365.663148 
L 457.665664 322.236907 
L 459.402679 344.54922 
L 461.139694 358.63025 
L 462.876709 355.852636 
L 464.613724 350.028279 
L 466.350739 347.362379 
L 468.087754 348.565843 
L 469.824769 335.810146 
L 471.561784 330.107659 
L 473.298799 354.65425 
L 475.035814 368.689579 
L 476.772829 359.752467 
L 478.509844 359.518883 
L 480.246859 365.460032 
L 481.983874 360.382127 
L 483.720889 353.267983 
L 485.457904 362.723041 
L 487.194919 359.000937 
L 488.931934 357.508033 
L 490.668949 362.14416 
L 492.405964 344.894518 
L 494.142979 321.688493 
L 495.879994 358.208784 
L 497.617009 355.436248 
L 499.354024 357.690837 
L 501.091039 361.5145 
L 502.828054 358.675951 
L 504.565068 354.187083 
L 506.302083 335.165252 
L 508.039098 326.720697 
L 509.776113 382.095247 
L 511.513128 383.181919 
L 514.987158 383.161607 
L 516.724173 364.59171 
L 518.461188 340.370105 
L 521.935218 359.630597 
L 523.672233 356.065908 
L 525.409248 360.112998 
L 527.146263 353.674215 
L 528.883278 337.506166 
L 530.620293 332.103276 
L 532.357308 339.867392 
L 534.094323 346.753031 
L 535.831338 360.001284 
L 537.568353 351.328223 
L 539.305368 357.868564 
L 541.042383 345.696827 
L 542.779398 325.359818 
L 544.516413 331.488849 
L 546.253428 355.096028 
L 547.990443 344.295325 
L 549.727458 352.501219 
L 551.464473 344.980842 
L 553.201488 321.490455 
L 554.938503 328.477652 
L 556.675518 297.878198 
L 558.412533 349.149802 
L 560.149548 351.323145 
L 561.886563 347.575651 
L 563.623578 346.001501 
L 565.360593 350.129837 
L 567.097608 332.560287 
L 568.834623 339.384991 
L 570.571638 382.922946 
L 572.308652 382.81631 
L 574.045667 382.948335 
L 575.782682 382.933102 
L 577.519697 358.701341 
L 579.256712 343.594574 
L 580.993727 367.308389 
L 582.730742 354.923379 
L 584.467757 347.037393 
L 586.204772 343.36099 
L 587.941787 343.345757 
L 589.678802 352.902373 
L 591.415817 333.895776 
L 593.152832 343.650431 
L 594.889847 370.908623 
L 596.626862 359.391936 
L 598.363877 350.322798 
L 600.100892 348.865439 
L 601.837907 355.685065 
L 603.574922 372.188255 
L 605.311937 346.90029 
L 607.048952 357.309995 
L 608.785967 358.894301 
L 610.522982 339.704899 
L 612.259997 346.316331 
L 613.997012 300.610111 
L 615.734027 295.684543 
L 617.471042 345.757761 
L 619.208057 305.74895 
L 620.945072 287.829025 
L 622.682087 272.833972 
L 624.419102 270.838356 
L 626.156117 314.93488 
L 627.893132 317.768351 
L 629.630147 347.255743 
L 631.367162 343.574262 
L 633.104177 334.672696 
L 634.841192 349.962267 
L 636.578207 344.980842 
L 638.315222 345.610502 
L 640.052236 324.044641 
L 641.789251 344.13791 
L 643.526266 359.513805 
L 645.263281 346.529603 
L 647.000296 339.197109 
L 648.737311 307.988306 
L 650.474326 296.837228 
L 652.211341 309.994079 
L 653.948356 231.504906 
L 655.685371 344.838661 
L 657.422386 326.283997 
L 659.159401 343.751989 
L 660.896416 336.846039 
L 664.370446 308.810927 
L 666.107461 333.052844 
L 667.844476 348.388116 
L 669.581491 341.563412 
L 671.318506 347.321756 
L 673.055521 354.248018 
L 674.792536 342.157527 
L 676.529551 319.581163 
L 678.266566 362.885534 
L 680.003581 321.419364 
L 681.740596 307.825813 
L 683.477611 312.588888 
L 685.214626 308.02893 
L 686.951641 331.646264 
L 688.688656 311.20262 
L 690.425671 321.226404 
L 692.162686 347.423314 
L 693.899701 345.092556 
L 695.636716 324.730158 
L 695.636716 324.730158 
" clip-path="url(#p497d22b0ee)" style="fill: none; stroke: #83c966; stroke-opacity: 0.8; stroke-width: 2.5; stroke-linecap: square"/>
   </g>
   <g id="patch_3">
    <path d="M 61.62625 384.1975 
L 61.62625 39.3575 
" style="fill: none; stroke: #000000; stroke-width: 0.8; stroke-linejoin: miter; stroke-linecap: square"/>
   </g>
   <g id="patch_4">
    <path d="M 61.62625 384.1975 
L 704.321791 384.1975 
" style="fill: none; stroke: #000000; stroke-width: 0.8; stroke-linejoin: miter; stroke-linecap: square"/>
   </g>
   <g id="text_23">
    <!-- Pedestrian Traffic at St Kilda Rd-Alexandra Gardens -->
    <g transform="translate(178.10902 19.3575) scale(0.16 -0.16)">
     <defs>
      <path id="DejaVuSans-50" d="M 1259 4147 
L 1259 2394 
L 2053 2394 
Q 2494 2394 2734 2622 
Q 2975 2850 2975 3272 
Q 2975 3691 2734 3919 
Q 2494 4147 2053 4147 
L 1259 4147 
z
M 628 4666 
L 2053 4666 
Q 2838 4666 3239 4311 
Q 3641 3956 3641 3272 
Q 3641 2581 3239 2228 
Q 2838 1875 2053 1875 
L 1259 1875 
L 1259 0 
L 628 0 
L 628 4666 
z
" transform="scale(0.015625)"/>
      <path id="DejaVuSans-54" d="M -19 4666 
L 3928 4666 
L 3928 4134 
L 2272 4134 
L 2272 0 
L 1638 0 
L 1638 4134 
L -19 4134 
L -19 4666 
z
" transform="scale(0.015625)"/>
      <path id="DejaVuSans-4b" d="M 628 4666 
L 1259 4666 
L 1259 2694 
L 3353 4666 
L 4166 4666 
L 1850 2491 
L 4331 0 
L 3500 0 
L 1259 2247 
L 1259 0 
L 628 0 
L 628 4666 
z
" transform="scale(0.015625)"/>
      <path id="DejaVuSans-52" d="M 2841 2188 
Q 3044 2119 3236 1894 
Q 3428 1669 3622 1275 
L 4263 0 
L 3584 0 
L 2988 1197 
Q 2756 1666 2539 1819 
Q 2322 1972 1947 1972 
L 1259 1972 
L 1259 0 
L 628 0 
L 628 4666 
L 2053 4666 
Q 2853 4666 3247 4331 
Q 3641 3997 3641 3322 
Q 3641 2881 3436 2590 
Q 3231 2300 2841 2188 
z
M 1259 4147 
L 1259 2491 
L 2053 2491 
Q 2509 2491 2742 2702 
Q 2975 2913 2975 3322 
Q 2975 3731 2742 3939 
Q 2509 4147 2053 4147 
L 1259 4147 
z
" transform="scale(0.015625)"/>
      <path id="DejaVuSans-2d" d="M 313 2009 
L 1997 2009 
L 1997 1497 
L 313 1497 
L 313 2009 
z
" transform="scale(0.015625)"/>
      <path id="DejaVuSans-78" d="M 3513 3500 
L 2247 1797 
L 3578 0 
L 2900 0 
L 1881 1375 
L 863 0 
L 184 0 
L 1544 1831 
L 300 3500 
L 978 3500 
L 1906 2253 
L 2834 3500 
L 3513 3500 
z
" transform="scale(0.015625)"/>
      <path id="DejaVuSans-47" d="M 3809 666 
L 3809 1919 
L 2778 1919 
L 2778 2438 
L 4434 2438 
L 4434 434 
Q 4069 175 3628 42 
Q 3188 -91 2688 -91 
Q 1594 -91 976 548 
Q 359 1188 359 2328 
Q 359 3472 976 4111 
Q 1594 4750 2688 4750 
Q 3144 4750 3555 4637 
Q 3966 4525 4313 4306 
L 4313 3634 
Q 3963 3931 3569 4081 
Q 3175 4231 2741 4231 
Q 1884 4231 1454 3753 
Q 1025 3275 1025 2328 
Q 1025 1384 1454 906 
Q 1884 428 2741 428 
Q 3075 428 3337 486 
Q 3600 544 3809 666 
z
" transform="scale(0.015625)"/>
     </defs>
     <use xlink:href="#DejaVuSans-50"/>
     <use xlink:href="#DejaVuSans-65" transform="translate(56.677734 0)"/>
     <use xlink:href="#DejaVuSans-64" transform="translate(118.201172 0)"/>
     <use xlink:href="#DejaVuSans-65" transform="translate(181.677734 0)"/>
     <use xlink:href="#DejaVuSans-73" transform="translate(243.201172 0)"/>
     <use xlink:href="#DejaVuSans-74" transform="translate(295.300781 0)"/>
     <use xlink:href="#DejaVuSans-72" transform="translate(334.509766 0)"/>
     <use xlink:href="#DejaVuSans-69" transform="translate(375.623047 0)"/>
     <use xlink:href="#DejaVuSans-61" transform="translate(403.40625 0)"/>
     <use xlink:href="#DejaVuSans-6e" transform="translate(464.685547 0)"/>
     <use xlink:href="#DejaVuSans-20" transform="translate(528.064453 0)"/>
     <use xlink:href="#DejaVuSans-54" transform="translate(559.851562 0)"/>
     <use xlink:href="#DejaVuSans-72" transform="translate(606.185547 0)"/>
     <use xlink:href="#DejaVuSans-61" transform="translate(647.298828 0)"/>
     <use xlink:href="#DejaVuSans-66" transform="translate(708.578125 0)"/>
     <use xlink:href="#DejaVuSans-66" transform="translate(743.783203 0)"/>
     <use xlink:href="#DejaVuSans-69" transform="translate(778.988281 0)"/>
     <use xlink:href="#DejaVuSans-63" transform="translate(806.771484 0)"/>
     <use xlink:href="#DejaVuSans-20" transform="translate(861.751953 0)"/>
     <use xlink:href="#DejaVuSans-61" transform="translate(893.539062 0)"/>
     <use xlink:href="#DejaVuSans-74" transform="translate(954.818359 0)"/>
     <use xlink:href="#DejaVuSans-20" transform="translate(994.027344 0)"/>
     <use xlink:href="#DejaVuSans-53" transform="translate(1025.814453 0)"/>
     <use xlink:href="#DejaVuSans-74" transform="translate(1089.291016 0)"/>
     <use xlink:href="#DejaVuSans-20" transform="translate(1128.5 0)"/>
     <use xlink:href="#DejaVuSans-4b" transform="translate(1160.287109 0)"/>
     <use xlink:href="#DejaVuSans-69" transform="translate(1225.863281 0)"/>
     <use xlink:href="#DejaVuSans-6c" transform="translate(1253.646484 0)"/>
     <use xlink:href="#DejaVuSans-64" transform="translate(1281.429688 0)"/>
     <use xlink:href="#DejaVuSans-61" transform="translate(1344.90625 0)"/>
     <use xlink:href="#DejaVuSans-20" transform="translate(1406.185547 0)"/>
     <use xlink:href="#DejaVuSans-52" transform="translate(1437.972656 0)"/>
     <use xlink:href="#DejaVuSans-64" transform="translate(1507.455078 0)"/>
     <use xlink:href="#DejaVuSans-2d" transform="translate(1570.931641 0)"/>
     <use xlink:href="#DejaVuSans-41" transform="translate(1604.765625 0)"/>
     <use xlink:href="#DejaVuSans-6c" transform="translate(1673.173828 0)"/>
     <use xlink:href="#DejaVuSans-65" transform="translate(1700.957031 0)"/>
     <use xlink:href="#DejaVuSans-78" transform="translate(1760.730469 0)"/>
     <use xlink:href="#DejaVuSans-61" transform="translate(1819.910156 0)"/>
     <use xlink:href="#DejaVuSans-6e" transform="translate(1881.189453 0)"/>
     <use xlink:href="#DejaVuSans-64" transform="translate(1944.568359 0)"/>
     <use xlink:href="#DejaVuSans-72" transform="translate(2008.044922 0)"/>
     <use xlink:href="#DejaVuSans-61" transform="translate(2049.158203 0)"/>
     <use xlink:href="#DejaVuSans-20" transform="translate(2110.4375 0)"/>
     <use xlink:href="#DejaVuSans-47" transform="translate(2142.224609 0)"/>
     <use xlink:href="#DejaVuSans-61" transform="translate(2219.714844 0)"/>
     <use xlink:href="#DejaVuSans-72" transform="translate(2280.994141 0)"/>
     <use xlink:href="#DejaVuSans-64" transform="translate(2320.357422 0)"/>
     <use xlink:href="#DejaVuSans-65" transform="translate(2383.833984 0)"/>
     <use xlink:href="#DejaVuSans-6e" transform="translate(2445.357422 0)"/>
     <use xlink:href="#DejaVuSans-73" transform="translate(2508.736328 0)"/>
    </g>
   </g>
   <g id="legend_1">
    <g id="patch_5">
     <path d="M 69.32625 80.449375 
L 132.52125 80.449375 
Q 134.72125 80.449375 134.72125 78.249375 
L 134.72125 47.0575 
Q 134.72125 44.8575 132.52125 44.8575 
L 69.32625 44.8575 
Q 67.12625 44.8575 67.12625 47.0575 
L 67.12625 78.249375 
Q 67.12625 80.449375 69.32625 80.449375 
z
" style="fill: #ffffff; opacity: 0.95; stroke: #cccccc; stroke-linejoin: miter"/>
    </g>
    <g id="line2d_43">
     <path d="M 71.52625 53.765781 
L 82.52625 53.765781 
L 93.52625 53.765781 
" style="fill: none; stroke: #0d6efc; stroke-opacity: 0.8; stroke-width: 2.5; stroke-linecap: square"/>
    </g>
    <g id="text_24">
     <!-- 2019 -->
     <g transform="translate(102.32625 57.615781) scale(0.11 -0.11)">
      <defs>
       <path id="DejaVuSans-39" d="M 703 97 
L 703 672 
Q 941 559 1184 500 
Q 1428 441 1663 441 
Q 2288 441 2617 861 
Q 2947 1281 2994 2138 
Q 2813 1869 2534 1725 
Q 2256 1581 1919 1581 
Q 1219 1581 811 2004 
Q 403 2428 403 3163 
Q 403 3881 828 4315 
Q 1253 4750 1959 4750 
Q 2769 4750 3195 4129 
Q 3622 3509 3622 2328 
Q 3622 1225 3098 567 
Q 2575 -91 1691 -91 
Q 1453 -91 1209 -44 
Q 966 3 703 97 
z
M 1959 2075 
Q 2384 2075 2632 2365 
Q 2881 2656 2881 3163 
Q 2881 3666 2632 3958 
Q 2384 4250 1959 4250 
Q 1534 4250 1286 3958 
Q 1038 3666 1038 3163 
Q 1038 2656 1286 2365 
Q 1534 2075 1959 2075 
z
" transform="scale(0.015625)"/>
      </defs>
      <use xlink:href="#DejaVuSans-32"/>
      <use xlink:href="#DejaVuSans-30" transform="translate(63.623047 0)"/>
      <use xlink:href="#DejaVuSans-31" transform="translate(127.246094 0)"/>
      <use xlink:href="#DejaVuSans-39" transform="translate(190.869141 0)"/>
     </g>
    </g>
    <g id="line2d_44">
     <path d="M 71.52625 69.911719 
L 82.52625 69.911719 
L 93.52625 69.911719 
" style="fill: none; stroke: #83c966; stroke-opacity: 0.8; stroke-width: 2.5; stroke-linecap: square"/>
    </g>
    <g id="text_25">
     <!-- 2025 -->
     <g transform="translate(102.32625 73.761719) scale(0.11 -0.11)">
      <use xlink:href="#DejaVuSans-32"/>
      <use xlink:href="#DejaVuSans-30" transform="translate(63.623047 0)"/>
      <use xlink:href="#DejaVuSans-32" transform="translate(127.246094 0)"/>
      <use xlink:href="#DejaVuSans-35" transform="translate(190.869141 0)"/>
     </g>
    </g>
   </g>
  </g>
 </g>
 <defs>
  <clipPath id="p497d22b0ee">
   <rect x="61.62625" y="39.3575" width="642.695541" height="344.84"/>
  </clipPath>
 </defs>
</svg>
