<?xml version="1.0" encoding="utf-8" standalone="no"?>
<!DOCTYPE svg PUBLIC "-//W3C//DTD SVG 1.1//EN"
  "http://www.w3.org/Graphics/SVG/1.1/DTD/svg11.dtd">
<svg xmlns:xlink="http://www.w3.org/1999/xlink" width="855.67625pt" height="423.689375pt" viewBox="0 0 855.67625 423.689375" xmlns="http://www.w3.org/2000/svg" version="1.1">
 <metadata>
  <rdf:RDF xmlns:dc="http://purl.org/dc/elements/1.1/" xmlns:cc="http://creativecommons.org/ns#" xmlns:rdf="http://www.w3.org/1999/02/22-rdf-syntax-ns#">
   <cc:Work>
    <dc:type rdf:resource="http://purl.org/dc/dcmitype/StillImage"/>
    <dc:date>2026-01-27T16:21:59.662272</dc:date>
    <dc:format>image/svg+xml</dc:format>
    <dc:creator>
     <cc:Agent>
      <dc:title>Matplotlib v3.10.8, https://matplotlib.org/</dc:title>
     </cc:Agent>
    </dc:creator>
   </cc:Work>
  </rdf:RDF>
 </metadata>
 <defs>
  <style type="text/css">*{stroke-linejoin: round; stroke-linecap: butt}</style>
 </defs>
 <g id="figure_1">
  <g id="patch_1">
   <path d="M 0 423.689375 
L 855.67625 423.689375 
L 855.67625 0 
L 0 0 
L 0 423.689375 
z
" style="fill: none"/>
  </g>
  <g id="axes_1">
   <g id="patch_2">
    <path d="M 61.62625 384.1975 
L 848.47625 384.1975 
L 848.47625 39.3575 
L 61.62625 39.3575 
L 61.62625 384.1975 
z
" style="fill: none"/>
   </g>
   <g id="matplotlib.axis_1">
    <g id="xtick_1">
     <g id="line2d_1">
      <path d="M 61.62625 384.1975 
L 61.62625 39.3575 
" clip-path="url(#p996e2ec8fb)" style="fill: none; stroke-dasharray: 2.96,1.28; stroke-dashoffset: 0; stroke: #b0b0b0; stroke-opacity: 0.3; stroke-width: 0.8"/>
     </g>
     <g id="line2d_2">
      <defs>
       <path id="mf2ce07e2ce" d="M 0 0 
L 0 3.5 
" style="stroke: #000000; stroke-width: 0.8"/>
      </defs>
      <g>
       <use xlink:href="#mf2ce07e2ce" x="61.62625" y="384.1975" style="stroke: #000000; stroke-width: 0.8"/>
      </g>
     </g>
     <g id="text_1">
      <!-- Jan -->
      <g transform="translate(53.918438 398.795937) scale(0.1 -0.1)">
       <defs>
        <path id="DejaVuSans-4a" d="M 628 4666 
L 1259 4666 
L 1259 325 
Q 1259 -519 939 -900 
Q 619 -1281 -91 -1281 
L -331 -1281 
L -331 -750 
L -134 -750 
Q 284 -750 456 -515 
Q 628 -281 628 325 
L 628 4666 
z
" transform="scale(0.015625)"/>
        <path id="DejaVuSans-61" d="M 2194 1759 
Q 1497 1759 1228 1600 
Q 959 1441 959 1056 
Q 959 750 1161 570 
Q 1363 391 1709 391 
Q 2188 391 2477 730 
Q 2766 1069 2766 1631 
L 2766 1759 
L 2194 1759 
z
M 3341 1997 
L 3341 0 
L 2766 0 
L 2766 531 
Q 2569 213 2275 61 
Q 1981 -91 1556 -91 
Q 1019 -91 701 211 
Q 384 513 384 1019 
Q 384 1609 779 1909 
Q 1175 2209 1959 2209 
L 2766 2209 
L 2766 2266 
Q 2766 2663 2505 2880 
Q 2244 3097 1772 3097 
Q 1472 3097 1187 3025 
Q 903 2953 641 2809 
L 641 3341 
Q 956 3463 1253 3523 
Q 1550 3584 1831 3584 
Q 2591 3584 2966 3190 
Q 3341 2797 3341 1997 
z
" transform="scale(0.015625)"/>
        <path id="DejaVuSans-6e" d="M 3513 2113 
L 3513 0 
L 2938 0 
L 2938 2094 
Q 2938 2591 2744 2837 
Q 2550 3084 2163 3084 
Q 1697 3084 1428 2787 
Q 1159 2491 1159 1978 
L 1159 0 
L 581 0 
L 581 3500 
L 1159 3500 
L 1159 2956 
Q 1366 3272 1645 3428 
Q 1925 3584 2291 3584 
Q 2894 3584 3203 3211 
Q 3513 2838 3513 2113 
z
" transform="scale(0.015625)"/>
       </defs>
       <use xlink:href="#DejaVuSans-4a"/>
       <use xlink:href="#DejaVuSans-61" transform="translate(29.492188 0)"/>
       <use xlink:href="#DejaVuSans-6e" transform="translate(90.771484 0)"/>
      </g>
     </g>
    </g>
    <g id="xtick_2">
     <g id="line2d_3">
      <path d="M 127.55152 384.1975 
L 127.55152 39.3575 
" clip-path="url(#p996e2ec8fb)" style="fill: none; stroke-dasharray: 2.96,1.28; stroke-dashoffset: 0; stroke: #b0b0b0; stroke-opacity: 0.3; stroke-width: 0.8"/>
     </g>
     <g id="line2d_4">
      <g>
       <use xlink:href="#mf2ce07e2ce" x="127.55152" y="384.1975" style="stroke: #000000; stroke-width: 0.8"/>
      </g>
     </g>
     <g id="text_2">
      <!-- Feb -->
      <g transform="translate(118.699958 398.795937) scale(0.1 -0.1)">
       <defs>
        <path id="DejaVuSans-46" d="M 628 4666 
L 3309 4666 
L 3309 4134 
L 1259 4134 
L 1259 2759 
L 3109 2759 
L 3109 2228 
L 1259 2228 
L 1259 0 
L 628 0 
L 628 4666 
z
" transform="scale(0.015625)"/>
        <path id="DejaVuSans-65" d="M 3597 1894 
L 3597 1613 
L 953 1613 
Q 991 1019 1311 708 
Q 1631 397 2203 397 
Q 2534 397 2845 478 
Q 3156 559 3463 722 
L 3463 178 
Q 3153 47 2828 -22 
Q 2503 -91 2169 -91 
Q 1331 -91 842 396 
Q 353 884 353 1716 
Q 353 2575 817 3079 
Q 1281 3584 2069 3584 
Q 2775 3584 3186 3129 
Q 3597 2675 3597 1894 
z
M 3022 2063 
Q 3016 2534 2758 2815 
Q 2500 3097 2075 3097 
Q 1594 3097 1305 2825 
Q 1016 2553 972 2059 
L 3022 2063 
z
" transform="scale(0.015625)"/>
        <path id="DejaVuSans-62" d="M 3116 1747 
Q 3116 2381 2855 2742 
Q 2594 3103 2138 3103 
Q 1681 3103 1420 2742 
Q 1159 2381 1159 1747 
Q 1159 1113 1420 752 
Q 1681 391 2138 391 
Q 2594 391 2855 752 
Q 3116 1113 3116 1747 
z
M 1159 2969 
Q 1341 3281 1617 3432 
Q 1894 3584 2278 3584 
Q 2916 3584 3314 3078 
Q 3713 2572 3713 1747 
Q 3713 922 3314 415 
Q 2916 -91 2278 -91 
Q 1894 -91 1617 61 
Q 1341 213 1159 525 
L 1159 0 
L 581 0 
L 581 4863 
L 1159 4863 
L 1159 2969 
z
" transform="scale(0.015625)"/>
       </defs>
       <use xlink:href="#DejaVuSans-46"/>
       <use xlink:href="#DejaVuSans-65" transform="translate(52.019531 0)"/>
       <use xlink:href="#DejaVuSans-62" transform="translate(113.542969 0)"/>
      </g>
     </g>
    </g>
    <g id="xtick_3">
     <g id="line2d_5">
      <path d="M 187.096926 384.1975 
L 187.096926 39.3575 
" clip-path="url(#p996e2ec8fb)" style="fill: none; stroke-dasharray: 2.96,1.28; stroke-dashoffset: 0; stroke: #b0b0b0; stroke-opacity: 0.3; stroke-width: 0.8"/>
     </g>
     <g id="line2d_6">
      <g>
       <use xlink:href="#mf2ce07e2ce" x="187.096926" y="384.1975" style="stroke: #000000; stroke-width: 0.8"/>
      </g>
     </g>
     <g id="text_3">
      <!-- Mar -->
      <g transform="translate(177.663332 398.795937) scale(0.1 -0.1)">
       <defs>
        <path id="DejaVuSans-4d" d="M 628 4666 
L 1569 4666 
L 2759 1491 
L 3956 4666 
L 4897 4666 
L 4897 0 
L 4281 0 
L 4281 4097 
L 3078 897 
L 2444 897 
L 1241 4097 
L 1241 0 
L 628 0 
L 628 4666 
z
" transform="scale(0.015625)"/>
        <path id="DejaVuSans-72" d="M 2631 2963 
Q 2534 3019 2420 3045 
Q 2306 3072 2169 3072 
Q 1681 3072 1420 2755 
Q 1159 2438 1159 1844 
L 1159 0 
L 581 0 
L 581 3500 
L 1159 3500 
L 1159 2956 
Q 1341 3275 1631 3429 
Q 1922 3584 2338 3584 
Q 2397 3584 2469 3576 
Q 2541 3569 2628 3553 
L 2631 2963 
z
" transform="scale(0.015625)"/>
       </defs>
       <use xlink:href="#DejaVuSans-4d"/>
       <use xlink:href="#DejaVuSans-61" transform="translate(86.279297 0)"/>
       <use xlink:href="#DejaVuSans-72" transform="translate(147.558594 0)"/>
      </g>
     </g>
    </g>
    <g id="xtick_4">
     <g id="line2d_7">
      <path d="M 253.022196 384.1975 
L 253.022196 39.3575 
" clip-path="url(#p996e2ec8fb)" style="fill: none; stroke-dasharray: 2.96,1.28; stroke-dashoffset: 0; stroke: #b0b0b0; stroke-opacity: 0.3; stroke-width: 0.8"/>
     </g>
     <g id="line2d_8">
      <g>
       <use xlink:href="#mf2ce07e2ce" x="253.022196" y="384.1975" style="stroke: #000000; stroke-width: 0.8"/>
      </g>
     </g>
     <g id="text_4">
      <!-- Apr -->
      <g transform="translate(244.372196 398.795937) scale(0.1 -0.1)">
       <defs>
        <path id="DejaVuSans-41" d="M 2188 4044 
L 1331 1722 
L 3047 1722 
L 2188 4044 
z
M 1831 4666 
L 2547 4666 
L 4325 0 
L 3669 0 
L 3244 1197 
L 1141 1197 
L 716 0 
L 50 0 
L 1831 4666 
z
" transform="scale(0.015625)"/>
        <path id="DejaVuSans-70" d="M 1159 525 
L 1159 -1331 
L 581 -1331 
L 581 3500 
L 1159 3500 
L 1159 2969 
Q 1341 3281 1617 3432 
Q 1894 3584 2278 3584 
Q 2916 3584 3314 3078 
Q 3713 2572 3713 1747 
Q 3713 922 3314 415 
Q 2916 -91 2278 -91 
Q 1894 -91 1617 61 
Q 1341 213 1159 525 
z
M 3116 1747 
Q 3116 2381 2855 2742 
Q 2594 3103 2138 3103 
Q 1681 3103 1420 2742 
Q 1159 2381 1159 1747 
Q 1159 1113 1420 752 
Q 1681 391 2138 391 
Q 2594 391 2855 752 
Q 3116 1113 3116 1747 
z
" transform="scale(0.015625)"/>
       </defs>
       <use xlink:href="#DejaVuSans-41"/>
       <use xlink:href="#DejaVuSans-70" transform="translate(68.408203 0)"/>
       <use xlink:href="#DejaVuSans-72" transform="translate(131.884766 0)"/>
      </g>
     </g>
    </g>
    <g id="xtick_5">
     <g id="line2d_9">
      <path d="M 316.820845 384.1975 
L 316.820845 39.3575 
" clip-path="url(#p996e2ec8fb)" style="fill: none; stroke-dasharray: 2.96,1.28; stroke-dashoffset: 0; stroke: #b0b0b0; stroke-opacity: 0.3; stroke-width: 0.8"/>
     </g>
     <g id="line2d_10">
      <g>
       <use xlink:href="#mf2ce07e2ce" x="316.820845" y="384.1975" style="stroke: #000000; stroke-width: 0.8"/>
      </g>
     </g>
     <g id="text_5">
      <!-- May -->
      <g transform="translate(306.483345 398.795937) scale(0.1 -0.1)">
       <defs>
        <path id="DejaVuSans-79" d="M 2059 -325 
Q 1816 -950 1584 -1140 
Q 1353 -1331 966 -1331 
L 506 -1331 
L 506 -850 
L 844 -850 
Q 1081 -850 1212 -737 
Q 1344 -625 1503 -206 
L 1606 56 
L 191 3500 
L 800 3500 
L 1894 763 
L 2988 3500 
L 3597 3500 
L 2059 -325 
z
" transform="scale(0.015625)"/>
       </defs>
       <use xlink:href="#DejaVuSans-4d"/>
       <use xlink:href="#DejaVuSans-61" transform="translate(86.279297 0)"/>
       <use xlink:href="#DejaVuSans-79" transform="translate(147.558594 0)"/>
      </g>
     </g>
    </g>
    <g id="xtick_6">
     <g id="line2d_11">
      <path d="M 382.746115 384.1975 
L 382.746115 39.3575 
" clip-path="url(#p996e2ec8fb)" style="fill: none; stroke-dasharray: 2.96,1.28; stroke-dashoffset: 0; stroke: #b0b0b0; stroke-opacity: 0.3; stroke-width: 0.8"/>
     </g>
     <g id="line2d_12">
      <g>
       <use xlink:href="#mf2ce07e2ce" x="382.746115" y="384.1975" style="stroke: #000000; stroke-width: 0.8"/>
      </g>
     </g>
     <g id="text_6">
      <!-- Jun -->
      <g transform="translate(374.933615 398.795937) scale(0.1 -0.1)">
       <defs>
        <path id="DejaVuSans-75" d="M 544 1381 
L 544 3500 
L 1119 3500 
L 1119 1403 
Q 1119 906 1312 657 
Q 1506 409 1894 409 
Q 2359 409 2629 706 
Q 2900 1003 2900 1516 
L 2900 3500 
L 3475 3500 
L 3475 0 
L 2900 0 
L 2900 538 
Q 2691 219 2414 64 
Q 2138 -91 1772 -91 
Q 1169 -91 856 284 
Q 544 659 544 1381 
z
M 1991 3584 
L 1991 3584 
z
" transform="scale(0.015625)"/>
       </defs>
       <use xlink:href="#DejaVuSans-4a"/>
       <use xlink:href="#DejaVuSans-75" transform="translate(29.492188 0)"/>
       <use xlink:href="#DejaVuSans-6e" transform="translate(92.871094 0)"/>
      </g>
     </g>
    </g>
    <g id="xtick_7">
     <g id="line2d_13">
      <path d="M 446.544764 384.1975 
L 446.544764 39.3575 
" clip-path="url(#p996e2ec8fb)" style="fill: none; stroke-dasharray: 2.96,1.28; stroke-dashoffset: 0; stroke: #b0b0b0; stroke-opacity: 0.3; stroke-width: 0.8"/>
     </g>
     <g id="line2d_14">
      <g>
       <use xlink:href="#mf2ce07e2ce" x="446.544764" y="384.1975" style="stroke: #000000; stroke-width: 0.8"/>
      </g>
     </g>
     <g id="text_7">
      <!-- Jul -->
      <g transform="translate(440.511951 398.795937) scale(0.1 -0.1)">
       <defs>
        <path id="DejaVuSans-6c" d="M 603 4863 
L 1178 4863 
L 1178 0 
L 603 0 
L 603 4863 
z
" transform="scale(0.015625)"/>
       </defs>
       <use xlink:href="#DejaVuSans-4a"/>
       <use xlink:href="#DejaVuSans-75" transform="translate(29.492188 0)"/>
       <use xlink:href="#DejaVuSans-6c" transform="translate(92.871094 0)"/>
      </g>
     </g>
    </g>
    <g id="xtick_8">
     <g id="line2d_15">
      <path d="M 512.470034 384.1975 
L 512.470034 39.3575 
" clip-path="url(#p996e2ec8fb)" style="fill: none; stroke-dasharray: 2.96,1.28; stroke-dashoffset: 0; stroke: #b0b0b0; stroke-opacity: 0.3; stroke-width: 0.8"/>
     </g>
     <g id="line2d_16">
      <g>
       <use xlink:href="#mf2ce07e2ce" x="512.470034" y="384.1975" style="stroke: #000000; stroke-width: 0.8"/>
      </g>
     </g>
     <g id="text_8">
      <!-- Aug -->
      <g transform="translate(502.706753 398.795937) scale(0.1 -0.1)">
       <defs>
        <path id="DejaVuSans-67" d="M 2906 1791 
Q 2906 2416 2648 2759 
Q 2391 3103 1925 3103 
Q 1463 3103 1205 2759 
Q 947 2416 947 1791 
Q 947 1169 1205 825 
Q 1463 481 1925 481 
Q 2391 481 2648 825 
Q 2906 1169 2906 1791 
z
M 3481 434 
Q 3481 -459 3084 -895 
Q 2688 -1331 1869 -1331 
Q 1566 -1331 1297 -1286 
Q 1028 -1241 775 -1147 
L 775 -588 
Q 1028 -725 1275 -790 
Q 1522 -856 1778 -856 
Q 2344 -856 2625 -561 
Q 2906 -266 2906 331 
L 2906 616 
Q 2728 306 2450 153 
Q 2172 0 1784 0 
Q 1141 0 747 490 
Q 353 981 353 1791 
Q 353 2603 747 3093 
Q 1141 3584 1784 3584 
Q 2172 3584 2450 3431 
Q 2728 3278 2906 2969 
L 2906 3500 
L 3481 3500 
L 3481 434 
z
" transform="scale(0.015625)"/>
       </defs>
       <use xlink:href="#DejaVuSans-41"/>
       <use xlink:href="#DejaVuSans-75" transform="translate(68.408203 0)"/>
       <use xlink:href="#DejaVuSans-67" transform="translate(131.787109 0)"/>
      </g>
     </g>
    </g>
    <g id="xtick_9">
     <g id="line2d_17">
      <path d="M 578.395304 384.1975 
L 578.395304 39.3575 
" clip-path="url(#p996e2ec8fb)" style="fill: none; stroke-dasharray: 2.96,1.28; stroke-dashoffset: 0; stroke: #b0b0b0; stroke-opacity: 0.3; stroke-width: 0.8"/>
     </g>
     <g id="line2d_18">
      <g>
       <use xlink:href="#mf2ce07e2ce" x="578.395304" y="384.1975" style="stroke: #000000; stroke-width: 0.8"/>
      </g>
     </g>
     <g id="text_9">
      <!-- Sep -->
      <g transform="translate(568.970304 398.795937) scale(0.1 -0.1)">
       <defs>
        <path id="DejaVuSans-53" d="M 3425 4513 
L 3425 3897 
Q 3066 4069 2747 4153 
Q 2428 4238 2131 4238 
Q 1616 4238 1336 4038 
Q 1056 3838 1056 3469 
Q 1056 3159 1242 3001 
Q 1428 2844 1947 2747 
L 2328 2669 
Q 3034 2534 3370 2195 
Q 3706 1856 3706 1288 
Q 3706 609 3251 259 
Q 2797 -91 1919 -91 
Q 1588 -91 1214 -16 
Q 841 59 441 206 
L 441 856 
Q 825 641 1194 531 
Q 1563 422 1919 422 
Q 2459 422 2753 634 
Q 3047 847 3047 1241 
Q 3047 1584 2836 1778 
Q 2625 1972 2144 2069 
L 1759 2144 
Q 1053 2284 737 2584 
Q 422 2884 422 3419 
Q 422 4038 858 4394 
Q 1294 4750 2059 4750 
Q 2388 4750 2728 4690 
Q 3069 4631 3425 4513 
z
" transform="scale(0.015625)"/>
       </defs>
       <use xlink:href="#DejaVuSans-53"/>
       <use xlink:href="#DejaVuSans-65" transform="translate(63.476562 0)"/>
       <use xlink:href="#DejaVuSans-70" transform="translate(125 0)"/>
      </g>
     </g>
    </g>
    <g id="xtick_10">
     <g id="line2d_19">
      <path d="M 642.193953 384.1975 
L 642.193953 39.3575 
" clip-path="url(#p996e2ec8fb)" style="fill: none; stroke-dasharray: 2.96,1.28; stroke-dashoffset: 0; stroke: #b0b0b0; stroke-opacity: 0.3; stroke-width: 0.8"/>
     </g>
     <g id="line2d_20">
      <g>
       <use xlink:href="#mf2ce07e2ce" x="642.193953" y="384.1975" style="stroke: #000000; stroke-width: 0.8"/>
      </g>
     </g>
     <g id="text_10">
      <!-- Oct -->
      <g transform="translate(633.54864 398.795937) scale(0.1 -0.1)">
       <defs>
        <path id="DejaVuSans-4f" d="M 2522 4238 
Q 1834 4238 1429 3725 
Q 1025 3213 1025 2328 
Q 1025 1447 1429 934 
Q 1834 422 2522 422 
Q 3209 422 3611 934 
Q 4013 1447 4013 2328 
Q 4013 3213 3611 3725 
Q 3209 4238 2522 4238 
z
M 2522 4750 
Q 3503 4750 4090 4092 
Q 4678 3434 4678 2328 
Q 4678 1225 4090 567 
Q 3503 -91 2522 -91 
Q 1538 -91 948 565 
Q 359 1222 359 2328 
Q 359 3434 948 4092 
Q 1538 4750 2522 4750 
z
" transform="scale(0.015625)"/>
        <path id="DejaVuSans-63" d="M 3122 3366 
L 3122 2828 
Q 2878 2963 2633 3030 
Q 2388 3097 2138 3097 
Q 1578 3097 1268 2742 
Q 959 2388 959 1747 
Q 959 1106 1268 751 
Q 1578 397 2138 397 
Q 2388 397 2633 464 
Q 2878 531 3122 666 
L 3122 134 
Q 2881 22 2623 -34 
Q 2366 -91 2075 -91 
Q 1284 -91 818 406 
Q 353 903 353 1747 
Q 353 2603 823 3093 
Q 1294 3584 2113 3584 
Q 2378 3584 2631 3529 
Q 2884 3475 3122 3366 
z
" transform="scale(0.015625)"/>
        <path id="DejaVuSans-74" d="M 1172 4494 
L 1172 3500 
L 2356 3500 
L 2356 3053 
L 1172 3053 
L 1172 1153 
Q 1172 725 1289 603 
Q 1406 481 1766 481 
L 2356 481 
L 2356 0 
L 1766 0 
Q 1100 0 847 248 
Q 594 497 594 1153 
L 594 3053 
L 172 3053 
L 172 3500 
L 594 3500 
L 594 4494 
L 1172 4494 
z
" transform="scale(0.015625)"/>
       </defs>
       <use xlink:href="#DejaVuSans-4f"/>
       <use xlink:href="#DejaVuSans-63" transform="translate(78.710938 0)"/>
       <use xlink:href="#DejaVuSans-74" transform="translate(133.691406 0)"/>
      </g>
     </g>
    </g>
    <g id="xtick_11">
     <g id="line2d_21">
      <path d="M 708.119223 384.1975 
L 708.119223 39.3575 
" clip-path="url(#p996e2ec8fb)" style="fill: none; stroke-dasharray: 2.96,1.28; stroke-dashoffset: 0; stroke: #b0b0b0; stroke-opacity: 0.3; stroke-width: 0.8"/>
     </g>
     <g id="line2d_22">
      <g>
       <use xlink:href="#mf2ce07e2ce" x="708.119223" y="384.1975" style="stroke: #000000; stroke-width: 0.8"/>
      </g>
     </g>
     <g id="text_11">
      <!-- Nov -->
      <g transform="translate(698.359848 398.795937) scale(0.1 -0.1)">
       <defs>
        <path id="DejaVuSans-4e" d="M 628 4666 
L 1478 4666 
L 3547 763 
L 3547 4666 
L 4159 4666 
L 4159 0 
L 3309 0 
L 1241 3903 
L 1241 0 
L 628 0 
L 628 4666 
z
" transform="scale(0.015625)"/>
        <path id="DejaVuSans-6f" d="M 1959 3097 
Q 1497 3097 1228 2736 
Q 959 2375 959 1747 
Q 959 1119 1226 758 
Q 1494 397 1959 397 
Q 2419 397 2687 759 
Q 2956 1122 2956 1747 
Q 2956 2369 2687 2733 
Q 2419 3097 1959 3097 
z
M 1959 3584 
Q 2709 3584 3137 3096 
Q 3566 2609 3566 1747 
Q 3566 888 3137 398 
Q 2709 -91 1959 -91 
Q 1206 -91 779 398 
Q 353 888 353 1747 
Q 353 2609 779 3096 
Q 1206 3584 1959 3584 
z
" transform="scale(0.015625)"/>
        <path id="DejaVuSans-76" d="M 191 3500 
L 800 3500 
L 1894 563 
L 2988 3500 
L 3597 3500 
L 2284 0 
L 1503 0 
L 191 3500 
z
" transform="scale(0.015625)"/>
       </defs>
       <use xlink:href="#DejaVuSans-4e"/>
       <use xlink:href="#DejaVuSans-6f" transform="translate(74.804688 0)"/>
       <use xlink:href="#DejaVuSans-76" transform="translate(135.986328 0)"/>
      </g>
     </g>
    </g>
    <g id="xtick_12">
     <g id="line2d_23">
      <path d="M 771.917872 384.1975 
L 771.917872 39.3575 
" clip-path="url(#p996e2ec8fb)" style="fill: none; stroke-dasharray: 2.96,1.28; stroke-dashoffset: 0; stroke: #b0b0b0; stroke-opacity: 0.3; stroke-width: 0.8"/>
     </g>
     <g id="line2d_24">
      <g>
       <use xlink:href="#mf2ce07e2ce" x="771.917872" y="384.1975" style="stroke: #000000; stroke-width: 0.8"/>
      </g>
     </g>
     <g id="text_12">
      <!-- Dec -->
      <g transform="translate(762.24209 398.795937) scale(0.1 -0.1)">
       <defs>
        <path id="DejaVuSans-44" d="M 1259 4147 
L 1259 519 
L 2022 519 
Q 2988 519 3436 956 
Q 3884 1394 3884 2338 
Q 3884 3275 3436 3711 
Q 2988 4147 2022 4147 
L 1259 4147 
z
M 628 4666 
L 1925 4666 
Q 3281 4666 3915 4102 
Q 4550 3538 4550 2338 
Q 4550 1131 3912 565 
Q 3275 0 1925 0 
L 628 0 
L 628 4666 
z
" transform="scale(0.015625)"/>
       </defs>
       <use xlink:href="#DejaVuSans-44"/>
       <use xlink:href="#DejaVuSans-65" transform="translate(77.001953 0)"/>
       <use xlink:href="#DejaVuSans-63" transform="translate(138.525391 0)"/>
      </g>
     </g>
    </g>
    <g id="xtick_13">
     <g id="line2d_25">
      <path d="M 837.843142 384.1975 
L 837.843142 39.3575 
" clip-path="url(#p996e2ec8fb)" style="fill: none; stroke-dasharray: 2.96,1.28; stroke-dashoffset: 0; stroke: #b0b0b0; stroke-opacity: 0.3; stroke-width: 0.8"/>
     </g>
     <g id="line2d_26">
      <g>
       <use xlink:href="#mf2ce07e2ce" x="837.843142" y="384.1975" style="stroke: #000000; stroke-width: 0.8"/>
      </g>
     </g>
     <g id="text_13">
      <!-- Jan -->
      <g transform="translate(830.135329 398.795937) scale(0.1 -0.1)">
       <use xlink:href="#DejaVuSans-4a"/>
       <use xlink:href="#DejaVuSans-61" transform="translate(29.492188 0)"/>
       <use xlink:href="#DejaVuSans-6e" transform="translate(90.771484 0)"/>
      </g>
     </g>
    </g>
    <g id="text_14">
     <!-- Day of the year -->
     <g transform="translate(408.465938 413.99375) scale(0.12 -0.12)">
      <defs>
       <path id="DejaVuSans-20" transform="scale(0.015625)"/>
       <path id="DejaVuSans-66" d="M 2375 4863 
L 2375 4384 
L 1825 4384 
Q 1516 4384 1395 4259 
Q 1275 4134 1275 3809 
L 1275 3500 
L 2222 3500 
L 2222 3053 
L 1275 3053 
L 1275 0 
L 697 0 
L 697 3053 
L 147 3053 
L 147 3500 
L 697 3500 
L 697 3744 
Q 697 4328 969 4595 
Q 1241 4863 1831 4863 
L 2375 4863 
z
" transform="scale(0.015625)"/>
       <path id="DejaVuSans-68" d="M 3513 2113 
L 3513 0 
L 2938 0 
L 2938 2094 
Q 2938 2591 2744 2837 
Q 2550 3084 2163 3084 
Q 1697 3084 1428 2787 
Q 1159 2491 1159 1978 
L 1159 0 
L 581 0 
L 581 4863 
L 1159 4863 
L 1159 2956 
Q 1366 3272 1645 3428 
Q 1925 3584 2291 3584 
Q 2894 3584 3203 3211 
Q 3513 2838 3513 2113 
z
" transform="scale(0.015625)"/>
      </defs>
      <use xlink:href="#DejaVuSans-44"/>
      <use xlink:href="#DejaVuSans-61" transform="translate(77.001953 0)"/>
      <use xlink:href="#DejaVuSans-79" transform="translate(138.28125 0)"/>
      <use xlink:href="#DejaVuSans-20" transform="translate(197.460938 0)"/>
      <use xlink:href="#DejaVuSans-6f" transform="translate(229.248047 0)"/>
      <use xlink:href="#DejaVuSans-66" transform="translate(290.429688 0)"/>
      <use xlink:href="#DejaVuSans-20" transform="translate(325.634766 0)"/>
      <use xlink:href="#DejaVuSans-74" transform="translate(357.421875 0)"/>
      <use xlink:href="#DejaVuSans-68" transform="translate(396.630859 0)"/>
      <use xlink:href="#DejaVuSans-65" transform="translate(460.009766 0)"/>
      <use xlink:href="#DejaVuSans-20" transform="translate(521.533203 0)"/>
      <use xlink:href="#DejaVuSans-79" transform="translate(553.320312 0)"/>
      <use xlink:href="#DejaVuSans-65" transform="translate(612.5 0)"/>
      <use xlink:href="#DejaVuSans-61" transform="translate(674.023438 0)"/>
      <use xlink:href="#DejaVuSans-72" transform="translate(735.302734 0)"/>
     </g>
    </g>
   </g>
   <g id="matplotlib.axis_2">
    <g id="ytick_1">
     <g id="line2d_27">
      <path d="M 61.62625 369.227287 
L 848.47625 369.227287 
" clip-path="url(#p996e2ec8fb)" style="fill: none; stroke-dasharray: 2.96,1.28; stroke-dashoffset: 0; stroke: #b0b0b0; stroke-opacity: 0.3; stroke-width: 0.8"/>
     </g>
     <g id="line2d_28">
      <defs>
       <path id="mbd2feb7315" d="M 0 0 
L -3.5 0 
" style="stroke: #000000; stroke-width: 0.8"/>
      </defs>
      <g>
       <use xlink:href="#mbd2feb7315" x="61.62625" y="369.227287" style="stroke: #000000; stroke-width: 0.8"/>
      </g>
     </g>
     <g id="text_15">
      <!-- 0 -->
      <g transform="translate(48.26375 373.026505) scale(0.1 -0.1)">
       <defs>
        <path id="DejaVuSans-30" d="M 2034 4250 
Q 1547 4250 1301 3770 
Q 1056 3291 1056 2328 
Q 1056 1369 1301 889 
Q 1547 409 2034 409 
Q 2525 409 2770 889 
Q 3016 1369 3016 2328 
Q 3016 3291 2770 3770 
Q 2525 4250 2034 4250 
z
M 2034 4750 
Q 2819 4750 3233 4129 
Q 3647 3509 3647 2328 
Q 3647 1150 3233 529 
Q 2819 -91 2034 -91 
Q 1250 -91 836 529 
Q 422 1150 422 2328 
Q 422 3509 836 4129 
Q 1250 4750 2034 4750 
z
" transform="scale(0.015625)"/>
       </defs>
       <use xlink:href="#DejaVuSans-30"/>
      </g>
     </g>
    </g>
    <g id="ytick_2">
     <g id="line2d_29">
      <path d="M 61.62625 320.652662 
L 848.47625 320.652662 
" clip-path="url(#p996e2ec8fb)" style="fill: none; stroke-dasharray: 2.96,1.28; stroke-dashoffset: 0; stroke: #b0b0b0; stroke-opacity: 0.3; stroke-width: 0.8"/>
     </g>
     <g id="line2d_30">
      <g>
       <use xlink:href="#mbd2feb7315" x="61.62625" y="320.652662" style="stroke: #000000; stroke-width: 0.8"/>
      </g>
     </g>
     <g id="text_16">
      <!-- 10000 -->
      <g transform="translate(22.81375 324.451881) scale(0.1 -0.1)">
       <defs>
        <path id="DejaVuSans-31" d="M 794 531 
L 1825 531 
L 1825 4091 
L 703 3866 
L 703 4441 
L 1819 4666 
L 2450 4666 
L 2450 531 
L 3481 531 
L 3481 0 
L 794 0 
L 794 531 
z
" transform="scale(0.015625)"/>
       </defs>
       <use xlink:href="#DejaVuSans-31"/>
       <use xlink:href="#DejaVuSans-30" transform="translate(63.623047 0)"/>
       <use xlink:href="#DejaVuSans-30" transform="translate(127.246094 0)"/>
       <use xlink:href="#DejaVuSans-30" transform="translate(190.869141 0)"/>
       <use xlink:href="#DejaVuSans-30" transform="translate(254.492188 0)"/>
      </g>
     </g>
    </g>
    <g id="ytick_3">
     <g id="line2d_31">
      <path d="M 61.62625 272.078038 
L 848.47625 272.078038 
" clip-path="url(#p996e2ec8fb)" style="fill: none; stroke-dasharray: 2.96,1.28; stroke-dashoffset: 0; stroke: #b0b0b0; stroke-opacity: 0.3; stroke-width: 0.8"/>
     </g>
     <g id="line2d_32">
      <g>
       <use xlink:href="#mbd2feb7315" x="61.62625" y="272.078038" style="stroke: #000000; stroke-width: 0.8"/>
      </g>
     </g>
     <g id="text_17">
      <!-- 20000 -->
      <g transform="translate(22.81375 275.877257) scale(0.1 -0.1)">
       <defs>
        <path id="DejaVuSans-32" d="M 1228 531 
L 3431 531 
L 3431 0 
L 469 0 
L 469 531 
Q 828 903 1448 1529 
Q 2069 2156 2228 2338 
Q 2531 2678 2651 2914 
Q 2772 3150 2772 3378 
Q 2772 3750 2511 3984 
Q 2250 4219 1831 4219 
Q 1534 4219 1204 4116 
Q 875 4013 500 3803 
L 500 4441 
Q 881 4594 1212 4672 
Q 1544 4750 1819 4750 
Q 2544 4750 2975 4387 
Q 3406 4025 3406 3419 
Q 3406 3131 3298 2873 
Q 3191 2616 2906 2266 
Q 2828 2175 2409 1742 
Q 1991 1309 1228 531 
z
" transform="scale(0.015625)"/>
       </defs>
       <use xlink:href="#DejaVuSans-32"/>
       <use xlink:href="#DejaVuSans-30" transform="translate(63.623047 0)"/>
       <use xlink:href="#DejaVuSans-30" transform="translate(127.246094 0)"/>
       <use xlink:href="#DejaVuSans-30" transform="translate(190.869141 0)"/>
       <use xlink:href="#DejaVuSans-30" transform="translate(254.492188 0)"/>
      </g>
     </g>
    </g>
    <g id="ytick_4">
     <g id="line2d_33">
      <path d="M 61.62625 223.503414 
L 848.47625 223.503414 
" clip-path="url(#p996e2ec8fb)" style="fill: none; stroke-dasharray: 2.96,1.28; stroke-dashoffset: 0; stroke: #b0b0b0; stroke-opacity: 0.3; stroke-width: 0.8"/>
     </g>
     <g id="line2d_34">
      <g>
       <use xlink:href="#mbd2feb7315" x="61.62625" y="223.503414" style="stroke: #000000; stroke-width: 0.8"/>
      </g>
     </g>
     <g id="text_18">
      <!-- 30000 -->
      <g transform="translate(22.81375 227.302633) scale(0.1 -0.1)">
       <defs>
        <path id="DejaVuSans-33" d="M 2597 2516 
Q 3050 2419 3304 2112 
Q 3559 1806 3559 1356 
Q 3559 666 3084 287 
Q 2609 -91 1734 -91 
Q 1441 -91 1130 -33 
Q 819 25 488 141 
L 488 750 
Q 750 597 1062 519 
Q 1375 441 1716 441 
Q 2309 441 2620 675 
Q 2931 909 2931 1356 
Q 2931 1769 2642 2001 
Q 2353 2234 1838 2234 
L 1294 2234 
L 1294 2753 
L 1863 2753 
Q 2328 2753 2575 2939 
Q 2822 3125 2822 3475 
Q 2822 3834 2567 4026 
Q 2313 4219 1838 4219 
Q 1578 4219 1281 4162 
Q 984 4106 628 3988 
L 628 4550 
Q 988 4650 1302 4700 
Q 1616 4750 1894 4750 
Q 2613 4750 3031 4423 
Q 3450 4097 3450 3541 
Q 3450 3153 3228 2886 
Q 3006 2619 2597 2516 
z
" transform="scale(0.015625)"/>
       </defs>
       <use xlink:href="#DejaVuSans-33"/>
       <use xlink:href="#DejaVuSans-30" transform="translate(63.623047 0)"/>
       <use xlink:href="#DejaVuSans-30" transform="translate(127.246094 0)"/>
       <use xlink:href="#DejaVuSans-30" transform="translate(190.869141 0)"/>
       <use xlink:href="#DejaVuSans-30" transform="translate(254.492188 0)"/>
      </g>
     </g>
    </g>
    <g id="ytick_5">
     <g id="line2d_35">
      <path d="M 61.62625 174.92879 
L 848.47625 174.92879 
" clip-path="url(#p996e2ec8fb)" style="fill: none; stroke-dasharray: 2.96,1.28; stroke-dashoffset: 0; stroke: #b0b0b0; stroke-opacity: 0.3; stroke-width: 0.8"/>
     </g>
     <g id="line2d_36">
      <g>
       <use xlink:href="#mbd2feb7315" x="61.62625" y="174.92879" style="stroke: #000000; stroke-width: 0.8"/>
      </g>
     </g>
     <g id="text_19">
      <!-- 40000 -->
      <g transform="translate(22.81375 178.728009) scale(0.1 -0.1)">
       <defs>
        <path id="DejaVuSans-34" d="M 2419 4116 
L 825 1625 
L 2419 1625 
L 2419 4116 
z
M 2253 4666 
L 3047 4666 
L 3047 1625 
L 3713 1625 
L 3713 1100 
L 3047 1100 
L 3047 0 
L 2419 0 
L 2419 1100 
L 313 1100 
L 313 1709 
L 2253 4666 
z
" transform="scale(0.015625)"/>
       </defs>
       <use xlink:href="#DejaVuSans-34"/>
       <use xlink:href="#DejaVuSans-30" transform="translate(63.623047 0)"/>
       <use xlink:href="#DejaVuSans-30" transform="translate(127.246094 0)"/>
       <use xlink:href="#DejaVuSans-30" transform="translate(190.869141 0)"/>
       <use xlink:href="#DejaVuSans-30" transform="translate(254.492188 0)"/>
      </g>
     </g>
    </g>
    <g id="ytick_6">
     <g id="line2d_37">
      <path d="M 61.62625 126.354166 
L 848.47625 126.354166 
" clip-path="url(#p996e2ec8fb)" style="fill: none; stroke-dasharray: 2.96,1.28; stroke-dashoffset: 0; stroke: #b0b0b0; stroke-opacity: 0.3; stroke-width: 0.8"/>
     </g>
     <g id="line2d_38">
      <g>
       <use xlink:href="#mbd2feb7315" x="61.62625" y="126.354166" style="stroke: #000000; stroke-width: 0.8"/>
      </g>
     </g>
     <g id="text_20">
      <!-- 50000 -->
      <g transform="translate(22.81375 130.153385) scale(0.1 -0.1)">
       <defs>
        <path id="DejaVuSans-35" d="M 691 4666 
L 3169 4666 
L 3169 4134 
L 1269 4134 
L 1269 2991 
Q 1406 3038 1543 3061 
Q 1681 3084 1819 3084 
Q 2600 3084 3056 2656 
Q 3513 2228 3513 1497 
Q 3513 744 3044 326 
Q 2575 -91 1722 -91 
Q 1428 -91 1123 -41 
Q 819 9 494 109 
L 494 744 
Q 775 591 1075 516 
Q 1375 441 1709 441 
Q 2250 441 2565 725 
Q 2881 1009 2881 1497 
Q 2881 1984 2565 2268 
Q 2250 2553 1709 2553 
Q 1456 2553 1204 2497 
Q 953 2441 691 2322 
L 691 4666 
z
" transform="scale(0.015625)"/>
       </defs>
       <use xlink:href="#DejaVuSans-35"/>
       <use xlink:href="#DejaVuSans-30" transform="translate(63.623047 0)"/>
       <use xlink:href="#DejaVuSans-30" transform="translate(127.246094 0)"/>
       <use xlink:href="#DejaVuSans-30" transform="translate(190.869141 0)"/>
       <use xlink:href="#DejaVuSans-30" transform="translate(254.492188 0)"/>
      </g>
     </g>
    </g>
    <g id="ytick_7">
     <g id="line2d_39">
      <path d="M 61.62625 77.779542 
L 848.47625 77.779542 
" clip-path="url(#p996e2ec8fb)" style="fill: none; stroke-dasharray: 2.96,1.28; stroke-dashoffset: 0; stroke: #b0b0b0; stroke-opacity: 0.3; stroke-width: 0.8"/>
     </g>
     <g id="line2d_40">
      <g>
       <use xlink:href="#mbd2feb7315" x="61.62625" y="77.779542" style="stroke: #000000; stroke-width: 0.8"/>
      </g>
     </g>
     <g id="text_21">
      <!-- 60000 -->
      <g transform="translate(22.81375 81.578761) scale(0.1 -0.1)">
       <defs>
        <path id="DejaVuSans-36" d="M 2113 2584 
Q 1688 2584 1439 2293 
Q 1191 2003 1191 1497 
Q 1191 994 1439 701 
Q 1688 409 2113 409 
Q 2538 409 2786 701 
Q 3034 994 3034 1497 
Q 3034 2003 2786 2293 
Q 2538 2584 2113 2584 
z
M 3366 4563 
L 3366 3988 
Q 3128 4100 2886 4159 
Q 2644 4219 2406 4219 
Q 1781 4219 1451 3797 
Q 1122 3375 1075 2522 
Q 1259 2794 1537 2939 
Q 1816 3084 2150 3084 
Q 2853 3084 3261 2657 
Q 3669 2231 3669 1497 
Q 3669 778 3244 343 
Q 2819 -91 2113 -91 
Q 1303 -91 875 529 
Q 447 1150 447 2328 
Q 447 3434 972 4092 
Q 1497 4750 2381 4750 
Q 2619 4750 2861 4703 
Q 3103 4656 3366 4563 
z
" transform="scale(0.015625)"/>
       </defs>
       <use xlink:href="#DejaVuSans-36"/>
       <use xlink:href="#DejaVuSans-30" transform="translate(63.623047 0)"/>
       <use xlink:href="#DejaVuSans-30" transform="translate(127.246094 0)"/>
       <use xlink:href="#DejaVuSans-30" transform="translate(190.869141 0)"/>
       <use xlink:href="#DejaVuSans-30" transform="translate(254.492188 0)"/>
      </g>
     </g>
    </g>
    <g id="text_22">
     <!-- Daily pedestrian count -->
     <g transform="translate(16.318125 279.793125) rotate(-90) scale(0.12 -0.12)">
      <defs>
       <path id="DejaVuSans-69" d="M 603 3500 
L 1178 3500 
L 1178 0 
L 603 0 
L 603 3500 
z
M 603 4863 
L 1178 4863 
L 1178 4134 
L 603 4134 
L 603 4863 
z
" transform="scale(0.015625)"/>
       <path id="DejaVuSans-64" d="M 2906 2969 
L 2906 4863 
L 3481 4863 
L 3481 0 
L 2906 0 
L 2906 525 
Q 2725 213 2448 61 
Q 2172 -91 1784 -91 
Q 1150 -91 751 415 
Q 353 922 353 1747 
Q 353 2572 751 3078 
Q 1150 3584 1784 3584 
Q 2172 3584 2448 3432 
Q 2725 3281 2906 2969 
z
M 947 1747 
Q 947 1113 1208 752 
Q 1469 391 1925 391 
Q 2381 391 2643 752 
Q 2906 1113 2906 1747 
Q 2906 2381 2643 2742 
Q 2381 3103 1925 3103 
Q 1469 3103 1208 2742 
Q 947 2381 947 1747 
z
" transform="scale(0.015625)"/>
       <path id="DejaVuSans-73" d="M 2834 3397 
L 2834 2853 
Q 2591 2978 2328 3040 
Q 2066 3103 1784 3103 
Q 1356 3103 1142 2972 
Q 928 2841 928 2578 
Q 928 2378 1081 2264 
Q 1234 2150 1697 2047 
L 1894 2003 
Q 2506 1872 2764 1633 
Q 3022 1394 3022 966 
Q 3022 478 2636 193 
Q 2250 -91 1575 -91 
Q 1294 -91 989 -36 
Q 684 19 347 128 
L 347 722 
Q 666 556 975 473 
Q 1284 391 1588 391 
Q 1994 391 2212 530 
Q 2431 669 2431 922 
Q 2431 1156 2273 1281 
Q 2116 1406 1581 1522 
L 1381 1569 
Q 847 1681 609 1914 
Q 372 2147 372 2553 
Q 372 3047 722 3315 
Q 1072 3584 1716 3584 
Q 2034 3584 2315 3537 
Q 2597 3491 2834 3397 
z
" transform="scale(0.015625)"/>
      </defs>
      <use xlink:href="#DejaVuSans-44"/>
      <use xlink:href="#DejaVuSans-61" transform="translate(77.001953 0)"/>
      <use xlink:href="#DejaVuSans-69" transform="translate(138.28125 0)"/>
      <use xlink:href="#DejaVuSans-6c" transform="translate(166.064453 0)"/>
      <use xlink:href="#DejaVuSans-79" transform="translate(193.847656 0)"/>
      <use xlink:href="#DejaVuSans-20" transform="translate(253.027344 0)"/>
      <use xlink:href="#DejaVuSans-70" transform="translate(284.814453 0)"/>
      <use xlink:href="#DejaVuSans-65" transform="translate(348.291016 0)"/>
      <use xlink:href="#DejaVuSans-64" transform="translate(409.814453 0)"/>
      <use xlink:href="#DejaVuSans-65" transform="translate(473.291016 0)"/>
      <use xlink:href="#DejaVuSans-73" transform="translate(534.814453 0)"/>
      <use xlink:href="#DejaVuSans-74" transform="translate(586.914062 0)"/>
      <use xlink:href="#DejaVuSans-72" transform="translate(626.123047 0)"/>
      <use xlink:href="#DejaVuSans-69" transform="translate(667.236328 0)"/>
      <use xlink:href="#DejaVuSans-61" transform="translate(695.019531 0)"/>
      <use xlink:href="#DejaVuSans-6e" transform="translate(756.298828 0)"/>
      <use xlink:href="#DejaVuSans-20" transform="translate(819.677734 0)"/>
      <use xlink:href="#DejaVuSans-63" transform="translate(851.464844 0)"/>
      <use xlink:href="#DejaVuSans-6f" transform="translate(906.445312 0)"/>
      <use xlink:href="#DejaVuSans-75" transform="translate(967.626953 0)"/>
      <use xlink:href="#DejaVuSans-6e" transform="translate(1031.005859 0)"/>
      <use xlink:href="#DejaVuSans-74" transform="translate(1094.384766 0)"/>
     </g>
    </g>
   </g>
   <g id="line2d_41">
    <path d="M 63.752872 296.005898 
L 65.879493 311.2389 
L 68.006115 316.251802 
L 70.132736 342.180936 
L 72.259358 315.644619 
L 74.38598 307.726955 
L 76.512601 316.834697 
L 78.639223 316.10122 
L 80.765845 309.907956 
L 82.892466 314.590549 
L 85.019088 303.287234 
L 87.145709 287.38876 
L 89.272331 301.621125 
L 91.398953 296.549934 
L 93.525574 260.585282 
L 95.652196 218.704241 
L 97.778818 234.044108 
L 99.905439 191.789042 
L 102.032061 264.952141 
L 104.158682 117.853607 
L 106.285304 231.173347 
L 108.411926 207.036617 
L 110.538547 187.616482 
L 114.791791 253.294231 
L 116.918412 179.834827 
L 121.171655 311.117464 
L 123.298277 264.874422 
L 125.424899 279.602248 
L 127.55152 260.337552 
L 129.678142 238.109804 
L 131.804764 255.912403 
L 133.931385 284.299414 
L 136.058007 266.501672 
L 138.184628 253.920844 
L 140.31125 268.614668 
L 142.437872 238.124376 
L 144.564493 215.716902 
L 146.691115 238.804421 
L 148.817736 226.534471 
L 153.07098 274.759358 
L 155.197601 223.960016 
L 157.324223 226.515041 
L 159.450845 231.367646 
L 161.577466 213.705913 
L 163.704088 241.296299 
L 165.830709 260.867015 
L 167.957331 263.504617 
L 170.083953 232.970608 
L 172.210574 250.714919 
L 174.337196 236.025952 
L 176.463818 237.201458 
L 178.590439 209.067036 
L 180.717061 271.21341 
L 182.843682 261.012739 
L 184.970304 253.333091 
L 187.096926 264.427535 
L 189.223547 258.496573 
L 191.350169 278.582181 
L 193.476791 291.988777 
L 195.603412 266.423952 
L 197.730034 258.001112 
L 199.856655 255.242074 
L 201.983277 248.650497 
L 204.109899 209.951094 
L 206.23652 152.147291 
L 208.363142 131.28449 
L 210.489764 126.014144 
L 212.616385 271.713729 
L 214.743007 233.130905 
L 216.869628 232.659731 
L 218.99625 234.835874 
L 221.122872 283.094763 
L 223.249493 304.054713 
L 225.376115 243.564734 
L 227.502736 252.764768 
L 229.629358 253.906271 
L 231.75598 239.892492 
L 233.882601 235.739362 
L 236.009223 218.713956 
L 238.135845 297.570001 
L 372.113007 350.725212 
L 374.239628 354.722904 
L 376.36625 350.147174 
L 378.492872 353.212233 
L 380.619493 349.476844 
L 382.746115 350.972943 
L 384.872736 334.991892 
L 386.999358 344.051059 
L 389.12598 358.409718 
L 391.252601 346.926677 
L 393.379223 346.042619 
L 395.505845 343.132999 
L 397.632466 332.62145 
L 399.759088 328.254591 
L 401.885709 331.6451 
L 404.012331 334.423568 
L 406.138953 340.990858 
L 408.265574 355.810975 
L 410.392196 345.007979 
L 412.518818 343.468163 
L 414.645439 331.543093 
L 416.772061 339.523904 
L 418.898682 343.419589 
L 421.025304 352.561333 
L 423.151926 350.360903 
L 425.278547 352.847923 
L 427.405169 345.284854 
L 429.531791 343.084424 
L 431.658412 342.117789 
L 433.785034 341.641758 
L 435.911655 342.763831 
L 438.038277 339.956218 
L 440.164899 340.097085 
L 442.29152 337.532344 
L 444.418142 354.684044 
L 446.544764 336.264547 
L 448.671385 343.439019 
L 452.924628 338.936151 
L 455.05125 338.44069 
L 457.177872 320.230063 
L 459.304493 311.8898 
L 461.431115 339.679343 
L 463.557736 335.18619 
L 465.684358 336.405413 
L 467.81098 336.18197 
L 469.937601 346.21263 
L 474.190845 337.877224 
L 476.317466 348.791942 
L 478.444088 344.87197 
L 480.570709 343.905335 
L 482.697331 347.082115 
L 484.823953 338.916721 
L 486.950574 326.136738 
L 489.077196 321.371567 
L 491.203818 329.983848 
L 493.330439 337.619779 
L 495.457061 346.13491 
L 497.583682 339.931931 
L 499.710304 338.42126 
L 501.836926 345.323714 
L 503.963547 319.734602 
L 506.090169 292.391946 
L 508.216791 341.379455 
L 510.343412 342.253798 
L 512.470034 337.333188 
L 514.596655 344.007342 
L 516.723277 337.653781 
L 518.849899 335.81766 
L 520.97652 335.22505 
L 523.103142 337.882082 
L 525.229764 344.658242 
L 527.356385 338.911864 
L 529.483007 342.108074 
L 531.609628 347.392993 
L 533.73625 338.892434 
L 535.862872 343.424446 
L 537.989493 337.945229 
L 542.242736 335.769086 
L 544.369358 335.419348 
L 546.49598 342.433524 
L 548.622601 305.652819 
L 550.749223 328.614043 
L 552.875845 342.244083 
L 555.002466 338.008376 
L 557.129088 337.998661 
L 559.255709 315.358028 
L 561.382331 276.202024 
L 563.508953 274.948799 
L 565.635574 311.180611 
L 567.762196 332.665167 
L 569.888818 334.753876 
L 572.015439 350.147174 
L 576.268682 321.988465 
L 578.395304 312.968157 
L 580.521926 340.417677 
L 582.648547 335.686509 
L 584.775169 329.143507 
L 586.901791 334.49643 
L 589.028412 333.427789 
L 591.155034 326.593339 
L 593.281655 340.06794 
L 595.408277 342.569533 
L 597.534899 344.172495 
L 599.66152 333.869818 
L 601.788142 327.360818 
L 603.914764 336.415128 
L 606.041385 325.607274 
L 608.168007 323.882875 
L 610.294628 334.739303 
L 612.42125 338.086095 
L 614.547872 331.479946 
L 616.674493 328.230304 
L 618.801115 323.523423 
L 620.927736 305.779113 
L 623.054358 334.044686 
L 625.18098 326.836212 
L 627.307601 339.961076 
L 629.434223 332.592305 
L 631.560845 326.695346 
L 633.687466 310.32084 
L 635.814088 332.330002 
L 637.940709 314.269957 
L 640.067331 325.238107 
L 642.193953 333.641517 
L 644.320574 315.81463 
L 646.447196 312.929297 
L 648.573818 315.134585 
L 650.700439 336.245117 
L 652.827061 309.01904 
L 654.953682 294.942114 
L 657.080304 318.355083 
L 659.206926 337.964659 
L 661.333547 332.534016 
L 663.460169 331.101064 
L 667.713412 299.318688 
L 669.840034 249.014807 
L 671.966655 326.078448 
L 674.093277 326.918789 
L 676.219899 339.07216 
L 678.34652 341.112294 
L 680.473142 328.031148 
L 682.599764 318.37937 
L 684.726385 310.850303 
L 686.853007 326.76335 
L 688.979628 321.240415 
L 691.10625 316.48496 
L 693.232872 327.12766 
L 695.359493 329.716687 
L 697.486115 337.129175 
L 699.612736 338.469835 
L 701.739358 322.624792 
L 703.86598 325.981299 
L 705.992601 323.640002 
L 708.119223 332.344575 
L 710.245845 332.393149 
L 712.372466 348.680221 
L 714.499088 339.0333 
L 716.625709 331.309935 
L 718.752331 320.973255 
L 720.878953 327.613406 
L 723.005574 341.782624 
L 725.132196 339.145022 
L 727.258818 327.705698 
L 729.385439 323.946022 
L 731.512061 312.759286 
L 733.638682 336.711433 
L 735.765304 328.14287 
L 737.891926 310.835731 
L 740.018547 316.659828 
L 742.145169 295.782455 
L 744.271791 284.041968 
L 746.398412 310.830873 
L 748.525034 301.873713 
L 750.651655 295.131555 
L 752.778277 302.966642 
L 754.904899 302.990929 
L 757.03152 290.609257 
L 759.158142 302.369174 
L 761.284764 318.661103 
L 763.411385 329.944988 
L 765.538007 315.770913 
L 767.664628 307.71724 
L 769.79125 317.679895 
L 771.917872 290.244948 
L 774.044493 339.305318 
L 776.171115 332.903183 
L 778.297736 322.435351 
L 780.424358 321.63387 
L 782.55098 313.167313 
L 784.677601 316.339236 
L 786.804223 267.278866 
L 788.930845 303.753551 
L 791.057466 335.924524 
L 793.184088 325.889007 
L 795.310709 335.667079 
L 797.437331 316.018643 
L 799.563953 330.615318 
L 801.690574 319.360577 
L 803.817196 318.03449 
L 805.943818 334.826738 
L 808.070439 335.623362 
L 810.197061 348.286766 
L 812.323682 331.849113 
L 814.450304 352.367035 
L 816.576926 324.689214 
L 818.703547 316.552964 
L 820.830169 319.783177 
L 822.956791 314.750846 
L 825.083412 321.279275 
L 827.210034 323.708006 
L 831.463277 329.221226 
L 833.589899 331.756822 
L 835.71652 353.221948 
L 837.843142 327.559974 
L 837.843142 327.559974 
" clip-path="url(#p996e2ec8fb)" style="fill: none; stroke: #0d6efc; stroke-opacity: 0.8; stroke-width: 2.5; stroke-linecap: square"/>
   </g>
   <g id="line2d_42">
    <path d="M 63.752872 287.563629 
L 65.879493 305.424518 
L 68.006115 322.085614 
L 70.132736 339.815352 
L 72.259358 343.016419 
L 74.38598 351.633558 
L 76.512601 323.086251 
L 78.639223 330.022707 
L 80.765845 330.639605 
L 82.892466 314.235955 
L 85.019088 313.181885 
L 87.145709 327.603691 
L 89.272331 317.801332 
L 91.398953 317.621606 
L 93.525574 327.540544 
L 95.652196 310.68515 
L 97.778818 305.813115 
L 99.905439 292.833975 
L 102.032061 189.923777 
L 104.158682 327.122802 
L 106.285304 311.962662 
L 108.411926 315.547469 
L 110.538547 304.705613 
L 112.665169 284.275126 
L 114.791791 296.783092 
L 116.918412 267.871476 
L 119.045034 345.765743 
L 121.171655 330.537598 
L 123.298277 330.571601 
L 125.424899 328.361455 
L 127.55152 322.600505 
L 129.678142 318.058778 
L 131.804764 344.046201 
L 133.931385 346.304921 
L 136.058007 341.258018 
L 138.184628 314.022226 
L 140.31125 333.88439 
L 142.437872 329.648683 
L 144.564493 318.07335 
L 146.691115 323.606 
L 148.817736 271.878882 
L 150.944358 281.229498 
L 153.07098 282.633304 
L 155.197601 290.395529 
L 157.324223 283.886529 
L 159.450845 319.073987 
L 161.577466 329.434955 
L 163.704088 328.614043 
L 165.830709 335.599074 
L 167.957331 336.434558 
L 170.083953 312.356117 
L 172.210574 325.272109 
L 174.337196 313.648202 
L 176.463818 330.595888 
L 178.590439 333.277207 
L 180.717061 331.411942 
L 182.843682 338.173529 
L 184.970304 330.542456 
L 187.096926 328.293451 
L 189.223547 312.137531 
L 191.350169 328.395458 
L 193.476791 333.340354 
L 195.603412 335.395061 
L 197.730034 334.302132 
L 199.856655 274.200749 
L 201.983277 243.17128 
L 204.109899 105.224205 
L 206.23652 55.032045 
L 208.363142 77.007205 
L 210.489764 337.070885 
L 212.616385 336.594854 
L 214.743007 319.03027 
L 216.869628 314.813993 
L 218.99625 280.253148 
L 221.122872 344.138493 
L 223.249493 330.275296 
L 225.376115 328.793769 
L 227.502736 327.511399 
L 229.629358 339.557906 
L 231.75598 329.774977 
L 233.882601 299.299258 
L 236.009223 310.821159 
L 238.135845 337.561489 
L 240.262466 334.826738 
L 242.389088 337.648923 
L 244.515709 332.90804 
L 246.642331 324.169465 
L 248.768953 310.99117 
L 250.895574 317.475882 
L 253.022196 336.371411 
L 255.148818 334.812165 
L 257.275439 323.882875 
L 259.402061 334.306989 
L 261.528682 336.400556 
L 263.655304 307.556944 
L 265.781926 314.794563 
L 267.908547 247.737294 
L 270.035169 251.297814 
L 272.161791 239.139586 
L 274.288412 246.964958 
L 276.415034 277.965283 
L 278.541655 316.912416 
L 280.668277 308.06212 
L 282.794899 329.687543 
L 287.048142 325.524697 
L 289.174764 326.287319 
L 291.301385 309.95653 
L 293.428007 310.592858 
L 295.554628 305.890834 
L 297.68125 311.724647 
L 299.807872 339.41704 
L 301.934493 335.497068 
L 304.061115 330.139287 
L 306.187736 272.826088 
L 308.314358 330.241293 
L 310.44098 319.540304 
L 312.567601 342.933843 
L 314.694223 348.053608 
L 318.947466 337.488627 
L 321.074088 337.13889 
L 323.200709 322.270197 
L 325.327331 328.924921 
L 327.453953 340.490539 
L 329.580574 339.514189 
L 331.707196 344.998264 
L 333.833818 341.287163 
L 335.960439 330.736754 
L 338.087061 309.111332 
L 340.213682 252.415031 
L 342.340304 337.721785 
L 344.466926 337.352618 
L 346.593547 337.211752 
L 348.720169 337.920941 
L 350.846791 334.491573 
L 352.973412 347.465855 
L 355.100034 311.093176 
L 357.226655 340.043652 
L 359.353277 331.66453 
L 361.479899 338.275536 
L 365.733142 341.94292 
L 367.859764 315.066581 
L 369.986385 308.742165 
L 372.113007 299.707285 
L 374.239628 308.392427 
L 376.36625 305.978269 
L 378.492872 289.734914 
L 380.619493 311.94809 
L 382.746115 329.862411 
L 384.872736 330.984485 
L 386.999358 355.543815 
L 389.12598 356.461875 
L 391.252601 344.444513 
L 393.379223 342.928985 
L 395.505845 346.246632 
L 397.632466 366.23509 
L 399.759088 339.334463 
L 401.885709 342.870696 
L 404.012331 344.366794 
L 406.138953 344.517375 
L 408.265574 342.690969 
L 410.392196 339.645341 
L 412.518818 333.150913 
L 414.645439 368.299511 
L 416.772061 350.113172 
L 418.898682 349.957733 
L 421.025304 342.00121 
L 423.151926 348.325626 
L 425.278547 366.958852 
L 427.405169 327.423965 
L 429.531791 330.212149 
L 431.658412 347.242412 
L 433.785034 351.570411 
L 435.911655 357.399366 
L 438.038277 347.004396 
L 440.164899 341.301735 
L 442.29152 330.299583 
L 444.418142 341.486319 
L 446.544764 367.692328 
L 448.671385 293.873472 
L 450.798007 330.372445 
L 452.924628 364.957577 
L 455.05125 292.872835 
L 457.177872 321.6533 
L 461.431115 331.023345 
L 463.557736 347.538717 
L 465.684358 340.446822 
L 467.81098 347.708728 
L 469.937601 335.744798 
L 472.064223 315.396888 
L 474.190845 321.774736 
L 476.317466 338.814714 
L 478.444088 342.375234 
L 480.570709 340.422534 
L 482.697331 344.347364 
L 484.823953 329.75069 
L 486.950574 329.969275 
L 489.077196 329.148364 
L 491.203818 345.964899 
L 493.330439 354.402311 
L 495.457061 346.081478 
L 497.583682 330.731897 
L 499.710304 335.85652 
L 501.836926 324.81065 
L 503.963547 333.452076 
L 506.090169 367.716616 
L 508.216791 368.522955 
L 510.343412 358.006548 
L 512.470034 345.221707 
L 514.596655 338.868147 
L 516.723277 320.341785 
L 518.849899 320.375787 
L 520.97652 344.726246 
L 525.229764 368.425805 
L 527.356385 350.467767 
L 529.483007 335.909952 
L 531.609628 322.687939 
L 533.73625 321.376424 
L 535.862872 340.480824 
L 537.989493 352.935358 
L 540.116115 342.292658 
L 542.242736 339.936788 
L 544.369358 351.497549 
L 546.49598 309.95653 
L 548.622601 331.30022 
L 550.749223 344.769963 
L 552.875845 342.112931 
L 555.002466 336.541422 
L 557.129088 333.991254 
L 559.255709 335.142473 
L 561.382331 322.940527 
L 563.508953 317.485597 
L 565.635574 340.96657 
L 567.762196 354.392596 
L 569.888818 345.843463 
L 572.015439 345.620019 
L 574.142061 351.30325 
L 576.268682 346.445788 
L 578.395304 339.640483 
L 580.521926 348.685078 
L 582.648547 345.124558 
L 584.775169 343.696464 
L 586.901791 348.131327 
L 589.028412 331.630528 
L 591.155034 309.431924 
L 593.281655 344.366794 
L 595.408277 341.714619 
L 597.534899 343.871333 
L 599.66152 347.529002 
L 601.788142 344.813681 
L 603.914764 340.519684 
L 606.041385 322.32363 
L 608.168007 314.24567 
L 610.294628 367.216297 
L 612.42125 368.255794 
L 616.674493 368.236364 
L 618.801115 350.472624 
L 620.927736 327.302529 
L 623.054358 336.803725 
L 625.18098 345.726883 
L 627.307601 342.316945 
L 629.434223 346.188342 
L 631.560845 340.02908 
L 633.687466 324.56292 
L 635.814088 319.39458 
L 637.940709 326.82164 
L 640.067331 333.408359 
L 642.193953 346.081478 
L 644.320574 337.784932 
L 646.447196 344.041344 
L 648.573818 332.398007 
L 650.700439 312.94387 
L 652.827061 318.806827 
L 654.953682 341.38917 
L 657.080304 331.057347 
L 659.206926 338.907006 
L 661.333547 331.713104 
L 663.460169 309.242483 
L 665.586791 315.926352 
L 667.713412 286.655283 
L 669.840034 335.701081 
L 671.966655 337.780075 
L 674.093277 334.195268 
L 676.219899 332.689454 
L 678.34652 336.638571 
L 680.473142 319.831751 
L 682.599764 326.360181 
L 684.726385 368.008064 
L 686.853007 367.906057 
L 688.979628 368.032351 
L 691.10625 368.017778 
L 693.232872 344.837968 
L 695.359493 330.387017 
L 697.486115 353.071367 
L 699.612736 341.224016 
L 701.739358 333.680377 
L 703.86598 330.163574 
L 705.992601 330.149001 
L 708.119223 339.290746 
L 710.245845 321.109264 
L 712.372466 330.440449 
L 714.499088 356.515307 
L 716.625709 345.498583 
L 718.752331 336.823155 
L 720.878953 335.429063 
L 723.005574 341.952635 
L 725.132196 357.739388 
L 727.258818 333.549225 
L 729.385439 343.507023 
L 731.512061 345.022551 
L 733.638682 326.666201 
L 735.765304 332.990617 
L 737.891926 289.268598 
L 740.018547 284.556859 
L 742.145169 332.456296 
L 744.271791 294.18435 
L 746.398412 277.042365 
L 748.525034 262.698278 
L 750.651655 260.789296 
L 752.778277 302.971499 
L 754.904899 305.681963 
L 757.03152 333.889248 
L 759.158142 330.367587 
L 761.284764 321.852456 
L 763.411385 336.478275 
L 765.538007 331.713104 
L 767.664628 332.31543 
L 769.79125 311.685787 
L 771.917872 330.906766 
L 774.044493 345.615162 
L 776.171115 333.19463 
L 778.297736 326.180455 
L 780.424358 296.326491 
L 782.55098 285.659503 
L 784.677601 298.245188 
L 786.804223 223.163392 
L 788.930845 331.577095 
L 791.057466 313.827928 
L 793.184088 330.537598 
L 795.310709 323.93145 
L 799.563953 297.1134 
L 801.690574 320.302925 
L 803.817196 334.972462 
L 805.943818 328.444032 
L 808.070439 333.952395 
L 810.197061 340.577973 
L 812.323682 329.012355 
L 814.450304 307.416077 
L 816.576926 348.840517 
L 818.703547 309.174479 
L 820.830169 296.171052 
L 822.956791 300.727352 
L 825.083412 296.36535 
L 827.210034 318.957408 
L 829.336655 299.401264 
L 831.463277 308.989895 
L 833.589899 334.049544 
L 835.71652 331.819969 
L 837.843142 312.341544 
L 837.843142 312.341544 
" clip-path="url(#p996e2ec8fb)" style="fill: none; stroke: #83c966; stroke-opacity: 0.8; stroke-width: 2.5; stroke-linecap: square"/>
   </g>
   <g id="patch_3">
    <path d="M 61.62625 384.1975 
L 61.62625 39.3575 
" style="fill: none; stroke: #000000; stroke-width: 0.8; stroke-linejoin: miter; stroke-linecap: square"/>
   </g>
   <g id="patch_4">
    <path d="M 61.62625 384.1975 
L 848.47625 384.1975 
" style="fill: none; stroke: #000000; stroke-width: 0.8; stroke-linejoin: miter; stroke-linecap: square"/>
   </g>
   <g id="text_23">
    <!-- Pedestrian Traffic at St Kilda Rd-Alexandra Gardens -->
    <g transform="translate(250.18625 19.3575) scale(0.16 -0.16)">
     <defs>
      <path id="DejaVuSans-50" d="M 1259 4147 
L 1259 2394 
L 2053 2394 
Q 2494 2394 2734 2622 
Q 2975 2850 2975 3272 
Q 2975 3691 2734 3919 
Q 2494 4147 2053 4147 
L 1259 4147 
z
M 628 4666 
L 2053 4666 
Q 2838 4666 3239 4311 
Q 3641 3956 3641 3272 
Q 3641 2581 3239 2228 
Q 2838 1875 2053 1875 
L 1259 1875 
L 1259 0 
L 628 0 
L 628 4666 
z
" transform="scale(0.015625)"/>
      <path id="DejaVuSans-54" d="M -19 4666 
L 3928 4666 
L 3928 4134 
L 2272 4134 
L 2272 0 
L 1638 0 
L 1638 4134 
L -19 4134 
L -19 4666 
z
" transform="scale(0.015625)"/>
      <path id="DejaVuSans-4b" d="M 628 4666 
L 1259 4666 
L 1259 2694 
L 3353 4666 
L 4166 4666 
L 1850 2491 
L 4331 0 
L 3500 0 
L 1259 2247 
L 1259 0 
L 628 0 
L 628 4666 
z
" transform="scale(0.015625)"/>
      <path id="DejaVuSans-52" d="M 2841 2188 
Q 3044 2119 3236 1894 
Q 3428 1669 3622 1275 
L 4263 0 
L 3584 0 
L 2988 1197 
Q 2756 1666 2539 1819 
Q 2322 1972 1947 1972 
L 1259 1972 
L 1259 0 
L 628 0 
L 628 4666 
L 2053 4666 
Q 2853 4666 3247 4331 
Q 3641 3997 3641 3322 
Q 3641 2881 3436 2590 
Q 3231 2300 2841 2188 
z
M 1259 4147 
L 1259 2491 
L 2053 2491 
Q 2509 2491 2742 2702 
Q 2975 2913 2975 3322 
Q 2975 3731 2742 3939 
Q 2509 4147 2053 4147 
L 1259 4147 
z
" transform="scale(0.015625)"/>
      <path id="DejaVuSans-2d" d="M 313 2009 
L 1997 2009 
L 1997 1497 
L 313 1497 
L 313 2009 
z
" transform="scale(0.015625)"/>
      <path id="DejaVuSans-78" d="M 3513 3500 
L 2247 1797 
L 3578 0 
L 2900 0 
L 1881 1375 
L 863 0 
L 184 0 
L 1544 1831 
L 300 3500 
L 978 3500 
L 1906 2253 
L 2834 3500 
L 3513 3500 
z
" transform="scale(0.015625)"/>
      <path id="DejaVuSans-47" d="M 3809 666 
L 3809 1919 
L 2778 1919 
L 2778 2438 
L 4434 2438 
L 4434 434 
Q 4069 175 3628 42 
Q 3188 -91 2688 -91 
Q 1594 -91 976 548 
Q 359 1188 359 2328 
Q 359 3472 976 4111 
Q 1594 4750 2688 4750 
Q 3144 4750 3555 4637 
Q 3966 4525 4313 4306 
L 4313 3634 
Q 3963 3931 3569 4081 
Q 3175 4231 2741 4231 
Q 1884 4231 1454 3753 
Q 1025 3275 1025 2328 
Q 1025 1384 1454 906 
Q 1884 428 2741 428 
Q 3075 428 3337 486 
Q 3600 544 3809 666 
z
" transform="scale(0.015625)"/>
     </defs>
     <use xlink:href="#DejaVuSans-50"/>
     <use xlink:href="#DejaVuSans-65" transform="translate(56.677734 0)"/>
     <use xlink:href="#DejaVuSans-64" transform="translate(118.201172 0)"/>
     <use xlink:href="#DejaVuSans-65" transform="translate(181.677734 0)"/>
     <use xlink:href="#DejaVuSans-73" transform="translate(243.201172 0)"/>
     <use xlink:href="#DejaVuSans-74" transform="translate(295.300781 0)"/>
     <use xlink:href="#DejaVuSans-72" transform="translate(334.509766 0)"/>
     <use xlink:href="#DejaVuSans-69" transform="translate(375.623047 0)"/>
     <use xlink:href="#DejaVuSans-61" transform="translate(403.40625 0)"/>
     <use xlink:href="#DejaVuSans-6e" transform="translate(464.685547 0)"/>
     <use xlink:href="#DejaVuSans-20" transform="translate(528.064453 0)"/>
     <use xlink:href="#DejaVuSans-54" transform="translate(559.851562 0)"/>
     <use xlink:href="#DejaVuSans-72" transform="translate(606.185547 0)"/>
     <use xlink:href="#DejaVuSans-61" transform="translate(647.298828 0)"/>
     <use xlink:href="#DejaVuSans-66" transform="translate(708.578125 0)"/>
     <use xlink:href="#DejaVuSans-66" transform="translate(743.783203 0)"/>
     <use xlink:href="#DejaVuSans-69" transform="translate(778.988281 0)"/>
     <use xlink:href="#DejaVuSans-63" transform="translate(806.771484 0)"/>
     <use xlink:href="#DejaVuSans-20" transform="translate(861.751953 0)"/>
     <use xlink:href="#DejaVuSans-61" transform="translate(893.539062 0)"/>
     <use xlink:href="#DejaVuSans-74" transform="translate(954.818359 0)"/>
     <use xlink:href="#DejaVuSans-20" transform="translate(994.027344 0)"/>
     <use xlink:href="#DejaVuSans-53" transform="translate(1025.814453 0)"/>
     <use xlink:href="#DejaVuSans-74" transform="translate(1089.291016 0)"/>
     <use xlink:href="#DejaVuSans-20" transform="translate(1128.5 0)"/>
     <use xlink:href="#DejaVuSans-4b" transform="translate(1160.287109 0)"/>
     <use xlink:href="#DejaVuSans-69" transform="translate(1225.863281 0)"/>
     <use xlink:href="#DejaVuSans-6c" transform="translate(1253.646484 0)"/>
     <use xlink:href="#DejaVuSans-64" transform="translate(1281.429688 0)"/>
     <use xlink:href="#DejaVuSans-61" transform="translate(1344.90625 0)"/>
     <use xlink:href="#DejaVuSans-20" transform="translate(1406.185547 0)"/>
     <use xlink:href="#DejaVuSans-52" transform="translate(1437.972656 0)"/>
     <use xlink:href="#DejaVuSans-64" transform="translate(1507.455078 0)"/>
     <use xlink:href="#DejaVuSans-2d" transform="translate(1570.931641 0)"/>
     <use xlink:href="#DejaVuSans-41" transform="translate(1604.765625 0)"/>
     <use xlink:href="#DejaVuSans-6c" transform="translate(1673.173828 0)"/>
     <use xlink:href="#DejaVuSans-65" transform="translate(1700.957031 0)"/>
     <use xlink:href="#DejaVuSans-78" transform="translate(1760.730469 0)"/>
     <use xlink:href="#DejaVuSans-61" transform="translate(1819.910156 0)"/>
     <use xlink:href="#DejaVuSans-6e" transform="translate(1881.189453 0)"/>
     <use xlink:href="#DejaVuSans-64" transform="translate(1944.568359 0)"/>
     <use xlink:href="#DejaVuSans-72" transform="translate(2008.044922 0)"/>
     <use xlink:href="#DejaVuSans-61" transform="translate(2049.158203 0)"/>
     <use xlink:href="#DejaVuSans-20" transform="translate(2110.4375 0)"/>
     <use xlink:href="#DejaVuSans-47" transform="translate(2142.224609 0)"/>
     <use xlink:href="#DejaVuSans-61" transform="translate(2219.714844 0)"/>
     <use xlink:href="#DejaVuSans-72" transform="translate(2280.994141 0)"/>
     <use xlink:href="#DejaVuSans-64" transform="translate(2320.357422 0)"/>
     <use xlink:href="#DejaVuSans-65" transform="translate(2383.833984 0)"/>
     <use xlink:href="#DejaVuSans-6e" transform="translate(2445.357422 0)"/>
     <use xlink:href="#DejaVuSans-73" transform="translate(2508.736328 0)"/>
    </g>
   </g>
   <g id="legend_1">
    <g id="patch_5">
     <path d="M 69.32625 80.449375 
L 132.52125 80.449375 
Q 134.72125 80.449375 134.72125 78.249375 
L 134.72125 47.0575 
Q 134.72125 44.8575 132.52125 44.8575 
L 69.32625 44.8575 
Q 67.12625 44.8575 67.12625 47.0575 
L 67.12625 78.249375 
Q 67.12625 80.449375 69.32625 80.449375 
z
" style="fill: #ffffff; opacity: 0.95; stroke: #cccccc; stroke-linejoin: miter"/>
    </g>
    <g id="line2d_43">
     <path d="M 71.52625 53.765781 
L 82.52625 53.765781 
L 93.52625 53.765781 
" style="fill: none; stroke: #0d6efc; stroke-opacity: 0.8; stroke-width: 2.5; stroke-linecap: square"/>
    </g>
    <g id="text_24">
     <!-- 2019 -->
     <g transform="translate(102.32625 57.615781) scale(0.11 -0.11)">
      <defs>
       <path id="DejaVuSans-39" d="M 703 97 
L 703 672 
Q 941 559 1184 500 
Q 1428 441 1663 441 
Q 2288 441 2617 861 
Q 2947 1281 2994 2138 
Q 2813 1869 2534 1725 
Q 2256 1581 1919 1581 
Q 1219 1581 811 2004 
Q 403 2428 403 3163 
Q 403 3881 828 4315 
Q 1253 4750 1959 4750 
Q 2769 4750 3195 4129 
Q 3622 3509 3622 2328 
Q 3622 1225 3098 567 
Q 2575 -91 1691 -91 
Q 1453 -91 1209 -44 
Q 966 3 703 97 
z
M 1959 2075 
Q 2384 2075 2632 2365 
Q 2881 2656 2881 3163 
Q 2881 3666 2632 3958 
Q 2384 4250 1959 4250 
Q 1534 4250 1286 3958 
Q 1038 3666 1038 3163 
Q 1038 2656 1286 2365 
Q 1534 2075 1959 2075 
z
" transform="scale(0.015625)"/>
      </defs>
      <use xlink:href="#DejaVuSans-32"/>
      <use xlink:href="#DejaVuSans-30" transform="translate(63.623047 0)"/>
      <use xlink:href="#DejaVuSans-31" transform="translate(127.246094 0)"/>
      <use xlink:href="#DejaVuSans-39" transform="translate(190.869141 0)"/>
     </g>
    </g>
    <g id="line2d_44">
     <path d="M 71.52625 69.911719 
L 82.52625 69.911719 
L 93.52625 69.911719 
" style="fill: none; stroke: #83c966; stroke-opacity: 0.8; stroke-width: 2.5; stroke-linecap: square"/>
    </g>
    <g id="text_25">
     <!-- 2025 -->
     <g transform="translate(102.32625 73.761719) scale(0.11 -0.11)">
      <use xlink:href="#DejaVuSans-32"/>
      <use xlink:href="#DejaVuSans-30" transform="translate(63.623047 0)"/>
      <use xlink:href="#DejaVuSans-32" transform="translate(127.246094 0)"/>
      <use xlink:href="#DejaVuSans-35" transform="translate(190.869141 0)"/>
     </g>
    </g>
   </g>
  </g>
 </g>
 <defs>
  <clipPath id="p996e2ec8fb">
   <rect x="61.62625" y="39.3575" width="786.85" height="344.84"/>
  </clipPath>
 </defs>
</svg>
