<?xml version="1.0" encoding="utf-8" standalone="no"?>
<!DOCTYPE svg PUBLIC "-//W3C//DTD SVG 1.1//EN"
  "http://www.w3.org/Graphics/SVG/1.1/DTD/svg11.dtd">
<svg xmlns:xlink="http://www.w3.org/1999/xlink" width="711.521791pt" height="423.689375pt" viewBox="0 0 711.521791 423.689375" xmlns="http://www.w3.org/2000/svg" version="1.1">
 <metadata>
  <rdf:RDF xmlns:dc="http://purl.org/dc/elements/1.1/" xmlns:cc="http://creativecommons.org/ns#" xmlns:rdf="http://www.w3.org/1999/02/22-rdf-syntax-ns#">
   <cc:Work>
    <dc:type rdf:resource="http://purl.org/dc/dcmitype/StillImage"/>
    <dc:date>2026-01-26T21:37:10.612742</dc:date>
    <dc:format>image/svg+xml</dc:format>
    <dc:creator>
     <cc:Agent>
      <dc:title>Matplotlib v3.10.8, https://matplotlib.org/</dc:title>
     </cc:Agent>
    </dc:creator>
   </cc:Work>
  </rdf:RDF>
 </metadata>
 <defs>
  <style type="text/css">*{stroke-linejoin: round; stroke-linecap: butt}</style>
 </defs>
 <g id="figure_1">
  <g id="patch_1">
   <path d="M 0 423.689375 
L 711.521791 423.689375 
L 711.521791 0 
L 0 0 
L 0 423.689375 
z
" style="fill: none"/>
  </g>
  <g id="axes_1">
   <g id="patch_2">
    <path d="M 61.62625 384.1975 
L 704.321791 384.1975 
L 704.321791 39.3575 
L 61.62625 39.3575 
L 61.62625 384.1975 
z
" style="fill: none"/>
   </g>
   <g id="matplotlib.axis_1">
    <g id="xtick_1">
     <g id="line2d_1">
      <path d="M 61.62625 384.1975 
L 61.62625 39.3575 
" clip-path="url(#pdff82aa125)" style="fill: none; stroke-dasharray: 2.96,1.28; stroke-dashoffset: 0; stroke: #b0b0b0; stroke-opacity: 0.3; stroke-width: 0.8"/>
     </g>
     <g id="line2d_2">
      <defs>
       <path id="ma1fcaa8634" d="M 0 0 
L 0 3.5 
" style="stroke: #000000; stroke-width: 0.8"/>
      </defs>
      <g>
       <use xlink:href="#ma1fcaa8634" x="61.62625" y="384.1975" style="stroke: #000000; stroke-width: 0.8"/>
      </g>
     </g>
     <g id="text_1">
      <!-- Jan -->
      <g transform="translate(53.918438 398.795937) scale(0.1 -0.1)">
       <defs>
        <path id="DejaVuSans-4a" d="M 628 4666 
L 1259 4666 
L 1259 325 
Q 1259 -519 939 -900 
Q 619 -1281 -91 -1281 
L -331 -1281 
L -331 -750 
L -134 -750 
Q 284 -750 456 -515 
Q 628 -281 628 325 
L 628 4666 
z
" transform="scale(0.015625)"/>
        <path id="DejaVuSans-61" d="M 2194 1759 
Q 1497 1759 1228 1600 
Q 959 1441 959 1056 
Q 959 750 1161 570 
Q 1363 391 1709 391 
Q 2188 391 2477 730 
Q 2766 1069 2766 1631 
L 2766 1759 
L 2194 1759 
z
M 3341 1997 
L 3341 0 
L 2766 0 
L 2766 531 
Q 2569 213 2275 61 
Q 1981 -91 1556 -91 
Q 1019 -91 701 211 
Q 384 513 384 1019 
Q 384 1609 779 1909 
Q 1175 2209 1959 2209 
L 2766 2209 
L 2766 2266 
Q 2766 2663 2505 2880 
Q 2244 3097 1772 3097 
Q 1472 3097 1187 3025 
Q 903 2953 641 2809 
L 641 3341 
Q 956 3463 1253 3523 
Q 1550 3584 1831 3584 
Q 2591 3584 2966 3190 
Q 3341 2797 3341 1997 
z
" transform="scale(0.015625)"/>
        <path id="DejaVuSans-6e" d="M 3513 2113 
L 3513 0 
L 2938 0 
L 2938 2094 
Q 2938 2591 2744 2837 
Q 2550 3084 2163 3084 
Q 1697 3084 1428 2787 
Q 1159 2491 1159 1978 
L 1159 0 
L 581 0 
L 581 3500 
L 1159 3500 
L 1159 2956 
Q 1366 3272 1645 3428 
Q 1925 3584 2291 3584 
Q 2894 3584 3203 3211 
Q 3513 2838 3513 2113 
z
" transform="scale(0.015625)"/>
       </defs>
       <use xlink:href="#DejaVuSans-4a"/>
       <use xlink:href="#DejaVuSans-61" transform="translate(29.492188 0)"/>
       <use xlink:href="#DejaVuSans-6e" transform="translate(90.771484 0)"/>
      </g>
     </g>
    </g>
    <g id="xtick_2">
     <g id="line2d_3">
      <path d="M 115.473714 384.1975 
L 115.473714 39.3575 
" clip-path="url(#pdff82aa125)" style="fill: none; stroke-dasharray: 2.96,1.28; stroke-dashoffset: 0; stroke: #b0b0b0; stroke-opacity: 0.3; stroke-width: 0.8"/>
     </g>
     <g id="line2d_4">
      <g>
       <use xlink:href="#ma1fcaa8634" x="115.473714" y="384.1975" style="stroke: #000000; stroke-width: 0.8"/>
      </g>
     </g>
     <g id="text_2">
      <!-- Feb -->
      <g transform="translate(106.622152 398.795937) scale(0.1 -0.1)">
       <defs>
        <path id="DejaVuSans-46" d="M 628 4666 
L 3309 4666 
L 3309 4134 
L 1259 4134 
L 1259 2759 
L 3109 2759 
L 3109 2228 
L 1259 2228 
L 1259 0 
L 628 0 
L 628 4666 
z
" transform="scale(0.015625)"/>
        <path id="DejaVuSans-65" d="M 3597 1894 
L 3597 1613 
L 953 1613 
Q 991 1019 1311 708 
Q 1631 397 2203 397 
Q 2534 397 2845 478 
Q 3156 559 3463 722 
L 3463 178 
Q 3153 47 2828 -22 
Q 2503 -91 2169 -91 
Q 1331 -91 842 396 
Q 353 884 353 1716 
Q 353 2575 817 3079 
Q 1281 3584 2069 3584 
Q 2775 3584 3186 3129 
Q 3597 2675 3597 1894 
z
M 3022 2063 
Q 3016 2534 2758 2815 
Q 2500 3097 2075 3097 
Q 1594 3097 1305 2825 
Q 1016 2553 972 2059 
L 3022 2063 
z
" transform="scale(0.015625)"/>
        <path id="DejaVuSans-62" d="M 3116 1747 
Q 3116 2381 2855 2742 
Q 2594 3103 2138 3103 
Q 1681 3103 1420 2742 
Q 1159 2381 1159 1747 
Q 1159 1113 1420 752 
Q 1681 391 2138 391 
Q 2594 391 2855 752 
Q 3116 1113 3116 1747 
z
M 1159 2969 
Q 1341 3281 1617 3432 
Q 1894 3584 2278 3584 
Q 2916 3584 3314 3078 
Q 3713 2572 3713 1747 
Q 3713 922 3314 415 
Q 2916 -91 2278 -91 
Q 1894 -91 1617 61 
Q 1341 213 1159 525 
L 1159 0 
L 581 0 
L 581 4863 
L 1159 4863 
L 1159 2969 
z
" transform="scale(0.015625)"/>
       </defs>
       <use xlink:href="#DejaVuSans-46"/>
       <use xlink:href="#DejaVuSans-65" transform="translate(52.019531 0)"/>
       <use xlink:href="#DejaVuSans-62" transform="translate(113.542969 0)"/>
      </g>
     </g>
    </g>
    <g id="xtick_3">
     <g id="line2d_5">
      <path d="M 164.110133 384.1975 
L 164.110133 39.3575 
" clip-path="url(#pdff82aa125)" style="fill: none; stroke-dasharray: 2.96,1.28; stroke-dashoffset: 0; stroke: #b0b0b0; stroke-opacity: 0.3; stroke-width: 0.8"/>
     </g>
     <g id="line2d_6">
      <g>
       <use xlink:href="#ma1fcaa8634" x="164.110133" y="384.1975" style="stroke: #000000; stroke-width: 0.8"/>
      </g>
     </g>
     <g id="text_3">
      <!-- Mar -->
      <g transform="translate(154.67654 398.795937) scale(0.1 -0.1)">
       <defs>
        <path id="DejaVuSans-4d" d="M 628 4666 
L 1569 4666 
L 2759 1491 
L 3956 4666 
L 4897 4666 
L 4897 0 
L 4281 0 
L 4281 4097 
L 3078 897 
L 2444 897 
L 1241 4097 
L 1241 0 
L 628 0 
L 628 4666 
z
" transform="scale(0.015625)"/>
        <path id="DejaVuSans-72" d="M 2631 2963 
Q 2534 3019 2420 3045 
Q 2306 3072 2169 3072 
Q 1681 3072 1420 2755 
Q 1159 2438 1159 1844 
L 1159 0 
L 581 0 
L 581 3500 
L 1159 3500 
L 1159 2956 
Q 1341 3275 1631 3429 
Q 1922 3584 2338 3584 
Q 2397 3584 2469 3576 
Q 2541 3569 2628 3553 
L 2631 2963 
z
" transform="scale(0.015625)"/>
       </defs>
       <use xlink:href="#DejaVuSans-4d"/>
       <use xlink:href="#DejaVuSans-61" transform="translate(86.279297 0)"/>
       <use xlink:href="#DejaVuSans-72" transform="translate(147.558594 0)"/>
      </g>
     </g>
    </g>
    <g id="xtick_4">
     <g id="line2d_7">
      <path d="M 217.957598 384.1975 
L 217.957598 39.3575 
" clip-path="url(#pdff82aa125)" style="fill: none; stroke-dasharray: 2.96,1.28; stroke-dashoffset: 0; stroke: #b0b0b0; stroke-opacity: 0.3; stroke-width: 0.8"/>
     </g>
     <g id="line2d_8">
      <g>
       <use xlink:href="#ma1fcaa8634" x="217.957598" y="384.1975" style="stroke: #000000; stroke-width: 0.8"/>
      </g>
     </g>
     <g id="text_4">
      <!-- Apr -->
      <g transform="translate(209.307598 398.795937) scale(0.1 -0.1)">
       <defs>
        <path id="DejaVuSans-41" d="M 2188 4044 
L 1331 1722 
L 3047 1722 
L 2188 4044 
z
M 1831 4666 
L 2547 4666 
L 4325 0 
L 3669 0 
L 3244 1197 
L 1141 1197 
L 716 0 
L 50 0 
L 1831 4666 
z
" transform="scale(0.015625)"/>
        <path id="DejaVuSans-70" d="M 1159 525 
L 1159 -1331 
L 581 -1331 
L 581 3500 
L 1159 3500 
L 1159 2969 
Q 1341 3281 1617 3432 
Q 1894 3584 2278 3584 
Q 2916 3584 3314 3078 
Q 3713 2572 3713 1747 
Q 3713 922 3314 415 
Q 2916 -91 2278 -91 
Q 1894 -91 1617 61 
Q 1341 213 1159 525 
z
M 3116 1747 
Q 3116 2381 2855 2742 
Q 2594 3103 2138 3103 
Q 1681 3103 1420 2742 
Q 1159 2381 1159 1747 
Q 1159 1113 1420 752 
Q 1681 391 2138 391 
Q 2594 391 2855 752 
Q 3116 1113 3116 1747 
z
" transform="scale(0.015625)"/>
       </defs>
       <use xlink:href="#DejaVuSans-41"/>
       <use xlink:href="#DejaVuSans-70" transform="translate(68.408203 0)"/>
       <use xlink:href="#DejaVuSans-72" transform="translate(131.884766 0)"/>
      </g>
     </g>
    </g>
    <g id="xtick_5">
     <g id="line2d_9">
      <path d="M 270.068047 384.1975 
L 270.068047 39.3575 
" clip-path="url(#pdff82aa125)" style="fill: none; stroke-dasharray: 2.96,1.28; stroke-dashoffset: 0; stroke: #b0b0b0; stroke-opacity: 0.3; stroke-width: 0.8"/>
     </g>
     <g id="line2d_10">
      <g>
       <use xlink:href="#ma1fcaa8634" x="270.068047" y="384.1975" style="stroke: #000000; stroke-width: 0.8"/>
      </g>
     </g>
     <g id="text_5">
      <!-- May -->
      <g transform="translate(259.730547 398.795937) scale(0.1 -0.1)">
       <defs>
        <path id="DejaVuSans-79" d="M 2059 -325 
Q 1816 -950 1584 -1140 
Q 1353 -1331 966 -1331 
L 506 -1331 
L 506 -850 
L 844 -850 
Q 1081 -850 1212 -737 
Q 1344 -625 1503 -206 
L 1606 56 
L 191 3500 
L 800 3500 
L 1894 763 
L 2988 3500 
L 3597 3500 
L 2059 -325 
z
" transform="scale(0.015625)"/>
       </defs>
       <use xlink:href="#DejaVuSans-4d"/>
       <use xlink:href="#DejaVuSans-61" transform="translate(86.279297 0)"/>
       <use xlink:href="#DejaVuSans-79" transform="translate(147.558594 0)"/>
      </g>
     </g>
    </g>
    <g id="xtick_6">
     <g id="line2d_11">
      <path d="M 323.915511 384.1975 
L 323.915511 39.3575 
" clip-path="url(#pdff82aa125)" style="fill: none; stroke-dasharray: 2.96,1.28; stroke-dashoffset: 0; stroke: #b0b0b0; stroke-opacity: 0.3; stroke-width: 0.8"/>
     </g>
     <g id="line2d_12">
      <g>
       <use xlink:href="#ma1fcaa8634" x="323.915511" y="384.1975" style="stroke: #000000; stroke-width: 0.8"/>
      </g>
     </g>
     <g id="text_6">
      <!-- Jun -->
      <g transform="translate(316.103011 398.795937) scale(0.1 -0.1)">
       <defs>
        <path id="DejaVuSans-75" d="M 544 1381 
L 544 3500 
L 1119 3500 
L 1119 1403 
Q 1119 906 1312 657 
Q 1506 409 1894 409 
Q 2359 409 2629 706 
Q 2900 1003 2900 1516 
L 2900 3500 
L 3475 3500 
L 3475 0 
L 2900 0 
L 2900 538 
Q 2691 219 2414 64 
Q 2138 -91 1772 -91 
Q 1169 -91 856 284 
Q 544 659 544 1381 
z
M 1991 3584 
L 1991 3584 
z
" transform="scale(0.015625)"/>
       </defs>
       <use xlink:href="#DejaVuSans-4a"/>
       <use xlink:href="#DejaVuSans-75" transform="translate(29.492188 0)"/>
       <use xlink:href="#DejaVuSans-6e" transform="translate(92.871094 0)"/>
      </g>
     </g>
    </g>
    <g id="xtick_7">
     <g id="line2d_13">
      <path d="M 376.02596 384.1975 
L 376.02596 39.3575 
" clip-path="url(#pdff82aa125)" style="fill: none; stroke-dasharray: 2.96,1.28; stroke-dashoffset: 0; stroke: #b0b0b0; stroke-opacity: 0.3; stroke-width: 0.8"/>
     </g>
     <g id="line2d_14">
      <g>
       <use xlink:href="#ma1fcaa8634" x="376.02596" y="384.1975" style="stroke: #000000; stroke-width: 0.8"/>
      </g>
     </g>
     <g id="text_7">
      <!-- Jul -->
      <g transform="translate(369.993148 398.795937) scale(0.1 -0.1)">
       <defs>
        <path id="DejaVuSans-6c" d="M 603 4863 
L 1178 4863 
L 1178 0 
L 603 0 
L 603 4863 
z
" transform="scale(0.015625)"/>
       </defs>
       <use xlink:href="#DejaVuSans-4a"/>
       <use xlink:href="#DejaVuSans-75" transform="translate(29.492188 0)"/>
       <use xlink:href="#DejaVuSans-6c" transform="translate(92.871094 0)"/>
      </g>
     </g>
    </g>
    <g id="xtick_8">
     <g id="line2d_15">
      <path d="M 429.873425 384.1975 
L 429.873425 39.3575 
" clip-path="url(#pdff82aa125)" style="fill: none; stroke-dasharray: 2.96,1.28; stroke-dashoffset: 0; stroke: #b0b0b0; stroke-opacity: 0.3; stroke-width: 0.8"/>
     </g>
     <g id="line2d_16">
      <g>
       <use xlink:href="#ma1fcaa8634" x="429.873425" y="384.1975" style="stroke: #000000; stroke-width: 0.8"/>
      </g>
     </g>
     <g id="text_8">
      <!-- Aug -->
      <g transform="translate(420.110143 398.795937) scale(0.1 -0.1)">
       <defs>
        <path id="DejaVuSans-67" d="M 2906 1791 
Q 2906 2416 2648 2759 
Q 2391 3103 1925 3103 
Q 1463 3103 1205 2759 
Q 947 2416 947 1791 
Q 947 1169 1205 825 
Q 1463 481 1925 481 
Q 2391 481 2648 825 
Q 2906 1169 2906 1791 
z
M 3481 434 
Q 3481 -459 3084 -895 
Q 2688 -1331 1869 -1331 
Q 1566 -1331 1297 -1286 
Q 1028 -1241 775 -1147 
L 775 -588 
Q 1028 -725 1275 -790 
Q 1522 -856 1778 -856 
Q 2344 -856 2625 -561 
Q 2906 -266 2906 331 
L 2906 616 
Q 2728 306 2450 153 
Q 2172 0 1784 0 
Q 1141 0 747 490 
Q 353 981 353 1791 
Q 353 2603 747 3093 
Q 1141 3584 1784 3584 
Q 2172 3584 2450 3431 
Q 2728 3278 2906 2969 
L 2906 3500 
L 3481 3500 
L 3481 434 
z
" transform="scale(0.015625)"/>
       </defs>
       <use xlink:href="#DejaVuSans-41"/>
       <use xlink:href="#DejaVuSans-75" transform="translate(68.408203 0)"/>
       <use xlink:href="#DejaVuSans-67" transform="translate(131.787109 0)"/>
      </g>
     </g>
    </g>
    <g id="xtick_9">
     <g id="line2d_17">
      <path d="M 483.720889 384.1975 
L 483.720889 39.3575 
" clip-path="url(#pdff82aa125)" style="fill: none; stroke-dasharray: 2.96,1.28; stroke-dashoffset: 0; stroke: #b0b0b0; stroke-opacity: 0.3; stroke-width: 0.8"/>
     </g>
     <g id="line2d_18">
      <g>
       <use xlink:href="#ma1fcaa8634" x="483.720889" y="384.1975" style="stroke: #000000; stroke-width: 0.8"/>
      </g>
     </g>
     <g id="text_9">
      <!-- Sep -->
      <g transform="translate(474.295889 398.795937) scale(0.1 -0.1)">
       <defs>
        <path id="DejaVuSans-53" d="M 3425 4513 
L 3425 3897 
Q 3066 4069 2747 4153 
Q 2428 4238 2131 4238 
Q 1616 4238 1336 4038 
Q 1056 3838 1056 3469 
Q 1056 3159 1242 3001 
Q 1428 2844 1947 2747 
L 2328 2669 
Q 3034 2534 3370 2195 
Q 3706 1856 3706 1288 
Q 3706 609 3251 259 
Q 2797 -91 1919 -91 
Q 1588 -91 1214 -16 
Q 841 59 441 206 
L 441 856 
Q 825 641 1194 531 
Q 1563 422 1919 422 
Q 2459 422 2753 634 
Q 3047 847 3047 1241 
Q 3047 1584 2836 1778 
Q 2625 1972 2144 2069 
L 1759 2144 
Q 1053 2284 737 2584 
Q 422 2884 422 3419 
Q 422 4038 858 4394 
Q 1294 4750 2059 4750 
Q 2388 4750 2728 4690 
Q 3069 4631 3425 4513 
z
" transform="scale(0.015625)"/>
       </defs>
       <use xlink:href="#DejaVuSans-53"/>
       <use xlink:href="#DejaVuSans-65" transform="translate(63.476562 0)"/>
       <use xlink:href="#DejaVuSans-70" transform="translate(125 0)"/>
      </g>
     </g>
    </g>
    <g id="xtick_10">
     <g id="line2d_19">
      <path d="M 535.831338 384.1975 
L 535.831338 39.3575 
" clip-path="url(#pdff82aa125)" style="fill: none; stroke-dasharray: 2.96,1.28; stroke-dashoffset: 0; stroke: #b0b0b0; stroke-opacity: 0.3; stroke-width: 0.8"/>
     </g>
     <g id="line2d_20">
      <g>
       <use xlink:href="#ma1fcaa8634" x="535.831338" y="384.1975" style="stroke: #000000; stroke-width: 0.8"/>
      </g>
     </g>
     <g id="text_10">
      <!-- Oct -->
      <g transform="translate(527.186026 398.795937) scale(0.1 -0.1)">
       <defs>
        <path id="DejaVuSans-4f" d="M 2522 4238 
Q 1834 4238 1429 3725 
Q 1025 3213 1025 2328 
Q 1025 1447 1429 934 
Q 1834 422 2522 422 
Q 3209 422 3611 934 
Q 4013 1447 4013 2328 
Q 4013 3213 3611 3725 
Q 3209 4238 2522 4238 
z
M 2522 4750 
Q 3503 4750 4090 4092 
Q 4678 3434 4678 2328 
Q 4678 1225 4090 567 
Q 3503 -91 2522 -91 
Q 1538 -91 948 565 
Q 359 1222 359 2328 
Q 359 3434 948 4092 
Q 1538 4750 2522 4750 
z
" transform="scale(0.015625)"/>
        <path id="DejaVuSans-63" d="M 3122 3366 
L 3122 2828 
Q 2878 2963 2633 3030 
Q 2388 3097 2138 3097 
Q 1578 3097 1268 2742 
Q 959 2388 959 1747 
Q 959 1106 1268 751 
Q 1578 397 2138 397 
Q 2388 397 2633 464 
Q 2878 531 3122 666 
L 3122 134 
Q 2881 22 2623 -34 
Q 2366 -91 2075 -91 
Q 1284 -91 818 406 
Q 353 903 353 1747 
Q 353 2603 823 3093 
Q 1294 3584 2113 3584 
Q 2378 3584 2631 3529 
Q 2884 3475 3122 3366 
z
" transform="scale(0.015625)"/>
        <path id="DejaVuSans-74" d="M 1172 4494 
L 1172 3500 
L 2356 3500 
L 2356 3053 
L 1172 3053 
L 1172 1153 
Q 1172 725 1289 603 
Q 1406 481 1766 481 
L 2356 481 
L 2356 0 
L 1766 0 
Q 1100 0 847 248 
Q 594 497 594 1153 
L 594 3053 
L 172 3053 
L 172 3500 
L 594 3500 
L 594 4494 
L 1172 4494 
z
" transform="scale(0.015625)"/>
       </defs>
       <use xlink:href="#DejaVuSans-4f"/>
       <use xlink:href="#DejaVuSans-63" transform="translate(78.710938 0)"/>
       <use xlink:href="#DejaVuSans-74" transform="translate(133.691406 0)"/>
      </g>
     </g>
    </g>
    <g id="xtick_11">
     <g id="line2d_21">
      <path d="M 589.678802 384.1975 
L 589.678802 39.3575 
" clip-path="url(#pdff82aa125)" style="fill: none; stroke-dasharray: 2.96,1.28; stroke-dashoffset: 0; stroke: #b0b0b0; stroke-opacity: 0.3; stroke-width: 0.8"/>
     </g>
     <g id="line2d_22">
      <g>
       <use xlink:href="#ma1fcaa8634" x="589.678802" y="384.1975" style="stroke: #000000; stroke-width: 0.8"/>
      </g>
     </g>
     <g id="text_11">
      <!-- Nov -->
      <g transform="translate(579.919427 398.795937) scale(0.1 -0.1)">
       <defs>
        <path id="DejaVuSans-4e" d="M 628 4666 
L 1478 4666 
L 3547 763 
L 3547 4666 
L 4159 4666 
L 4159 0 
L 3309 0 
L 1241 3903 
L 1241 0 
L 628 0 
L 628 4666 
z
" transform="scale(0.015625)"/>
        <path id="DejaVuSans-6f" d="M 1959 3097 
Q 1497 3097 1228 2736 
Q 959 2375 959 1747 
Q 959 1119 1226 758 
Q 1494 397 1959 397 
Q 2419 397 2687 759 
Q 2956 1122 2956 1747 
Q 2956 2369 2687 2733 
Q 2419 3097 1959 3097 
z
M 1959 3584 
Q 2709 3584 3137 3096 
Q 3566 2609 3566 1747 
Q 3566 888 3137 398 
Q 2709 -91 1959 -91 
Q 1206 -91 779 398 
Q 353 888 353 1747 
Q 353 2609 779 3096 
Q 1206 3584 1959 3584 
z
" transform="scale(0.015625)"/>
        <path id="DejaVuSans-76" d="M 191 3500 
L 800 3500 
L 1894 563 
L 2988 3500 
L 3597 3500 
L 2284 0 
L 1503 0 
L 191 3500 
z
" transform="scale(0.015625)"/>
       </defs>
       <use xlink:href="#DejaVuSans-4e"/>
       <use xlink:href="#DejaVuSans-6f" transform="translate(74.804688 0)"/>
       <use xlink:href="#DejaVuSans-76" transform="translate(135.986328 0)"/>
      </g>
     </g>
    </g>
    <g id="xtick_12">
     <g id="line2d_23">
      <path d="M 641.789251 384.1975 
L 641.789251 39.3575 
" clip-path="url(#pdff82aa125)" style="fill: none; stroke-dasharray: 2.96,1.28; stroke-dashoffset: 0; stroke: #b0b0b0; stroke-opacity: 0.3; stroke-width: 0.8"/>
     </g>
     <g id="line2d_24">
      <g>
       <use xlink:href="#ma1fcaa8634" x="641.789251" y="384.1975" style="stroke: #000000; stroke-width: 0.8"/>
      </g>
     </g>
     <g id="text_12">
      <!-- Dec -->
      <g transform="translate(632.11347 398.795937) scale(0.1 -0.1)">
       <defs>
        <path id="DejaVuSans-44" d="M 1259 4147 
L 1259 519 
L 2022 519 
Q 2988 519 3436 956 
Q 3884 1394 3884 2338 
Q 3884 3275 3436 3711 
Q 2988 4147 2022 4147 
L 1259 4147 
z
M 628 4666 
L 1925 4666 
Q 3281 4666 3915 4102 
Q 4550 3538 4550 2338 
Q 4550 1131 3912 565 
Q 3275 0 1925 0 
L 628 0 
L 628 4666 
z
" transform="scale(0.015625)"/>
       </defs>
       <use xlink:href="#DejaVuSans-44"/>
       <use xlink:href="#DejaVuSans-65" transform="translate(77.001953 0)"/>
       <use xlink:href="#DejaVuSans-63" transform="translate(138.525391 0)"/>
      </g>
     </g>
    </g>
    <g id="xtick_13">
     <g id="line2d_25">
      <path d="M 695.636716 384.1975 
L 695.636716 39.3575 
" clip-path="url(#pdff82aa125)" style="fill: none; stroke-dasharray: 2.96,1.28; stroke-dashoffset: 0; stroke: #b0b0b0; stroke-opacity: 0.3; stroke-width: 0.8"/>
     </g>
     <g id="line2d_26">
      <g>
       <use xlink:href="#ma1fcaa8634" x="695.636716" y="384.1975" style="stroke: #000000; stroke-width: 0.8"/>
      </g>
     </g>
     <g id="text_13">
      <!-- Jan -->
      <g transform="translate(687.928903 398.795937) scale(0.1 -0.1)">
       <use xlink:href="#DejaVuSans-4a"/>
       <use xlink:href="#DejaVuSans-61" transform="translate(29.492188 0)"/>
       <use xlink:href="#DejaVuSans-6e" transform="translate(90.771484 0)"/>
      </g>
     </g>
    </g>
    <g id="text_14">
     <!-- Day of the year -->
     <g transform="translate(336.388708 413.99375) scale(0.12 -0.12)">
      <defs>
       <path id="DejaVuSans-20" transform="scale(0.015625)"/>
       <path id="DejaVuSans-66" d="M 2375 4863 
L 2375 4384 
L 1825 4384 
Q 1516 4384 1395 4259 
Q 1275 4134 1275 3809 
L 1275 3500 
L 2222 3500 
L 2222 3053 
L 1275 3053 
L 1275 0 
L 697 0 
L 697 3053 
L 147 3053 
L 147 3500 
L 697 3500 
L 697 3744 
Q 697 4328 969 4595 
Q 1241 4863 1831 4863 
L 2375 4863 
z
" transform="scale(0.015625)"/>
       <path id="DejaVuSans-68" d="M 3513 2113 
L 3513 0 
L 2938 0 
L 2938 2094 
Q 2938 2591 2744 2837 
Q 2550 3084 2163 3084 
Q 1697 3084 1428 2787 
Q 1159 2491 1159 1978 
L 1159 0 
L 581 0 
L 581 4863 
L 1159 4863 
L 1159 2956 
Q 1366 3272 1645 3428 
Q 1925 3584 2291 3584 
Q 2894 3584 3203 3211 
Q 3513 2838 3513 2113 
z
" transform="scale(0.015625)"/>
      </defs>
      <use xlink:href="#DejaVuSans-44"/>
      <use xlink:href="#DejaVuSans-61" transform="translate(77.001953 0)"/>
      <use xlink:href="#DejaVuSans-79" transform="translate(138.28125 0)"/>
      <use xlink:href="#DejaVuSans-20" transform="translate(197.460938 0)"/>
      <use xlink:href="#DejaVuSans-6f" transform="translate(229.248047 0)"/>
      <use xlink:href="#DejaVuSans-66" transform="translate(290.429688 0)"/>
      <use xlink:href="#DejaVuSans-20" transform="translate(325.634766 0)"/>
      <use xlink:href="#DejaVuSans-74" transform="translate(357.421875 0)"/>
      <use xlink:href="#DejaVuSans-68" transform="translate(396.630859 0)"/>
      <use xlink:href="#DejaVuSans-65" transform="translate(460.009766 0)"/>
      <use xlink:href="#DejaVuSans-20" transform="translate(521.533203 0)"/>
      <use xlink:href="#DejaVuSans-79" transform="translate(553.320312 0)"/>
      <use xlink:href="#DejaVuSans-65" transform="translate(612.5 0)"/>
      <use xlink:href="#DejaVuSans-61" transform="translate(674.023438 0)"/>
      <use xlink:href="#DejaVuSans-72" transform="translate(735.302734 0)"/>
     </g>
    </g>
   </g>
   <g id="matplotlib.axis_2">
    <g id="ytick_1">
     <g id="line2d_27">
      <path d="M 61.62625 378.036544 
L 704.321791 378.036544 
" clip-path="url(#pdff82aa125)" style="fill: none; stroke-dasharray: 2.96,1.28; stroke-dashoffset: 0; stroke: #b0b0b0; stroke-opacity: 0.3; stroke-width: 0.8"/>
     </g>
     <g id="line2d_28">
      <defs>
       <path id="m479c35859a" d="M 0 0 
L -3.5 0 
" style="stroke: #000000; stroke-width: 0.8"/>
      </defs>
      <g>
       <use xlink:href="#m479c35859a" x="61.62625" y="378.036544" style="stroke: #000000; stroke-width: 0.8"/>
      </g>
     </g>
     <g id="text_15">
      <!-- 0 -->
      <g transform="translate(48.26375 381.835763) scale(0.1 -0.1)">
       <defs>
        <path id="DejaVuSans-30" d="M 2034 4250 
Q 1547 4250 1301 3770 
Q 1056 3291 1056 2328 
Q 1056 1369 1301 889 
Q 1547 409 2034 409 
Q 2525 409 2770 889 
Q 3016 1369 3016 2328 
Q 3016 3291 2770 3770 
Q 2525 4250 2034 4250 
z
M 2034 4750 
Q 2819 4750 3233 4129 
Q 3647 3509 3647 2328 
Q 3647 1150 3233 529 
Q 2819 -91 2034 -91 
Q 1250 -91 836 529 
Q 422 1150 422 2328 
Q 422 3509 836 4129 
Q 1250 4750 2034 4750 
z
" transform="scale(0.015625)"/>
       </defs>
       <use xlink:href="#DejaVuSans-30"/>
      </g>
     </g>
    </g>
    <g id="ytick_2">
     <g id="line2d_29">
      <path d="M 61.62625 338.593802 
L 704.321791 338.593802 
" clip-path="url(#pdff82aa125)" style="fill: none; stroke-dasharray: 2.96,1.28; stroke-dashoffset: 0; stroke: #b0b0b0; stroke-opacity: 0.3; stroke-width: 0.8"/>
     </g>
     <g id="line2d_30">
      <g>
       <use xlink:href="#m479c35859a" x="61.62625" y="338.593802" style="stroke: #000000; stroke-width: 0.8"/>
      </g>
     </g>
     <g id="text_16">
      <!-- 2500 -->
      <g transform="translate(29.17625 342.393021) scale(0.1 -0.1)">
       <defs>
        <path id="DejaVuSans-32" d="M 1228 531 
L 3431 531 
L 3431 0 
L 469 0 
L 469 531 
Q 828 903 1448 1529 
Q 2069 2156 2228 2338 
Q 2531 2678 2651 2914 
Q 2772 3150 2772 3378 
Q 2772 3750 2511 3984 
Q 2250 4219 1831 4219 
Q 1534 4219 1204 4116 
Q 875 4013 500 3803 
L 500 4441 
Q 881 4594 1212 4672 
Q 1544 4750 1819 4750 
Q 2544 4750 2975 4387 
Q 3406 4025 3406 3419 
Q 3406 3131 3298 2873 
Q 3191 2616 2906 2266 
Q 2828 2175 2409 1742 
Q 1991 1309 1228 531 
z
" transform="scale(0.015625)"/>
        <path id="DejaVuSans-35" d="M 691 4666 
L 3169 4666 
L 3169 4134 
L 1269 4134 
L 1269 2991 
Q 1406 3038 1543 3061 
Q 1681 3084 1819 3084 
Q 2600 3084 3056 2656 
Q 3513 2228 3513 1497 
Q 3513 744 3044 326 
Q 2575 -91 1722 -91 
Q 1428 -91 1123 -41 
Q 819 9 494 109 
L 494 744 
Q 775 591 1075 516 
Q 1375 441 1709 441 
Q 2250 441 2565 725 
Q 2881 1009 2881 1497 
Q 2881 1984 2565 2268 
Q 2250 2553 1709 2553 
Q 1456 2553 1204 2497 
Q 953 2441 691 2322 
L 691 4666 
z
" transform="scale(0.015625)"/>
       </defs>
       <use xlink:href="#DejaVuSans-32"/>
       <use xlink:href="#DejaVuSans-35" transform="translate(63.623047 0)"/>
       <use xlink:href="#DejaVuSans-30" transform="translate(127.246094 0)"/>
       <use xlink:href="#DejaVuSans-30" transform="translate(190.869141 0)"/>
      </g>
     </g>
    </g>
    <g id="ytick_3">
     <g id="line2d_31">
      <path d="M 61.62625 299.151061 
L 704.321791 299.151061 
" clip-path="url(#pdff82aa125)" style="fill: none; stroke-dasharray: 2.96,1.28; stroke-dashoffset: 0; stroke: #b0b0b0; stroke-opacity: 0.3; stroke-width: 0.8"/>
     </g>
     <g id="line2d_32">
      <g>
       <use xlink:href="#m479c35859a" x="61.62625" y="299.151061" style="stroke: #000000; stroke-width: 0.8"/>
      </g>
     </g>
     <g id="text_17">
      <!-- 5000 -->
      <g transform="translate(29.17625 302.95028) scale(0.1 -0.1)">
       <use xlink:href="#DejaVuSans-35"/>
       <use xlink:href="#DejaVuSans-30" transform="translate(63.623047 0)"/>
       <use xlink:href="#DejaVuSans-30" transform="translate(127.246094 0)"/>
       <use xlink:href="#DejaVuSans-30" transform="translate(190.869141 0)"/>
      </g>
     </g>
    </g>
    <g id="ytick_4">
     <g id="line2d_33">
      <path d="M 61.62625 259.708319 
L 704.321791 259.708319 
" clip-path="url(#pdff82aa125)" style="fill: none; stroke-dasharray: 2.96,1.28; stroke-dashoffset: 0; stroke: #b0b0b0; stroke-opacity: 0.3; stroke-width: 0.8"/>
     </g>
     <g id="line2d_34">
      <g>
       <use xlink:href="#m479c35859a" x="61.62625" y="259.708319" style="stroke: #000000; stroke-width: 0.8"/>
      </g>
     </g>
     <g id="text_18">
      <!-- 7500 -->
      <g transform="translate(29.17625 263.507538) scale(0.1 -0.1)">
       <defs>
        <path id="DejaVuSans-37" d="M 525 4666 
L 3525 4666 
L 3525 4397 
L 1831 0 
L 1172 0 
L 2766 4134 
L 525 4134 
L 525 4666 
z
" transform="scale(0.015625)"/>
       </defs>
       <use xlink:href="#DejaVuSans-37"/>
       <use xlink:href="#DejaVuSans-35" transform="translate(63.623047 0)"/>
       <use xlink:href="#DejaVuSans-30" transform="translate(127.246094 0)"/>
       <use xlink:href="#DejaVuSans-30" transform="translate(190.869141 0)"/>
      </g>
     </g>
    </g>
    <g id="ytick_5">
     <g id="line2d_35">
      <path d="M 61.62625 220.265578 
L 704.321791 220.265578 
" clip-path="url(#pdff82aa125)" style="fill: none; stroke-dasharray: 2.96,1.28; stroke-dashoffset: 0; stroke: #b0b0b0; stroke-opacity: 0.3; stroke-width: 0.8"/>
     </g>
     <g id="line2d_36">
      <g>
       <use xlink:href="#m479c35859a" x="61.62625" y="220.265578" style="stroke: #000000; stroke-width: 0.8"/>
      </g>
     </g>
     <g id="text_19">
      <!-- 10000 -->
      <g transform="translate(22.81375 224.064797) scale(0.1 -0.1)">
       <defs>
        <path id="DejaVuSans-31" d="M 794 531 
L 1825 531 
L 1825 4091 
L 703 3866 
L 703 4441 
L 1819 4666 
L 2450 4666 
L 2450 531 
L 3481 531 
L 3481 0 
L 794 0 
L 794 531 
z
" transform="scale(0.015625)"/>
       </defs>
       <use xlink:href="#DejaVuSans-31"/>
       <use xlink:href="#DejaVuSans-30" transform="translate(63.623047 0)"/>
       <use xlink:href="#DejaVuSans-30" transform="translate(127.246094 0)"/>
       <use xlink:href="#DejaVuSans-30" transform="translate(190.869141 0)"/>
       <use xlink:href="#DejaVuSans-30" transform="translate(254.492188 0)"/>
      </g>
     </g>
    </g>
    <g id="ytick_6">
     <g id="line2d_37">
      <path d="M 61.62625 180.822837 
L 704.321791 180.822837 
" clip-path="url(#pdff82aa125)" style="fill: none; stroke-dasharray: 2.96,1.28; stroke-dashoffset: 0; stroke: #b0b0b0; stroke-opacity: 0.3; stroke-width: 0.8"/>
     </g>
     <g id="line2d_38">
      <g>
       <use xlink:href="#m479c35859a" x="61.62625" y="180.822837" style="stroke: #000000; stroke-width: 0.8"/>
      </g>
     </g>
     <g id="text_20">
      <!-- 12500 -->
      <g transform="translate(22.81375 184.622055) scale(0.1 -0.1)">
       <use xlink:href="#DejaVuSans-31"/>
       <use xlink:href="#DejaVuSans-32" transform="translate(63.623047 0)"/>
       <use xlink:href="#DejaVuSans-35" transform="translate(127.246094 0)"/>
       <use xlink:href="#DejaVuSans-30" transform="translate(190.869141 0)"/>
       <use xlink:href="#DejaVuSans-30" transform="translate(254.492188 0)"/>
      </g>
     </g>
    </g>
    <g id="ytick_7">
     <g id="line2d_39">
      <path d="M 61.62625 141.380095 
L 704.321791 141.380095 
" clip-path="url(#pdff82aa125)" style="fill: none; stroke-dasharray: 2.96,1.28; stroke-dashoffset: 0; stroke: #b0b0b0; stroke-opacity: 0.3; stroke-width: 0.8"/>
     </g>
     <g id="line2d_40">
      <g>
       <use xlink:href="#m479c35859a" x="61.62625" y="141.380095" style="stroke: #000000; stroke-width: 0.8"/>
      </g>
     </g>
     <g id="text_21">
      <!-- 15000 -->
      <g transform="translate(22.81375 145.179314) scale(0.1 -0.1)">
       <use xlink:href="#DejaVuSans-31"/>
       <use xlink:href="#DejaVuSans-35" transform="translate(63.623047 0)"/>
       <use xlink:href="#DejaVuSans-30" transform="translate(127.246094 0)"/>
       <use xlink:href="#DejaVuSans-30" transform="translate(190.869141 0)"/>
       <use xlink:href="#DejaVuSans-30" transform="translate(254.492188 0)"/>
      </g>
     </g>
    </g>
    <g id="ytick_8">
     <g id="line2d_41">
      <path d="M 61.62625 101.937354 
L 704.321791 101.937354 
" clip-path="url(#pdff82aa125)" style="fill: none; stroke-dasharray: 2.96,1.28; stroke-dashoffset: 0; stroke: #b0b0b0; stroke-opacity: 0.3; stroke-width: 0.8"/>
     </g>
     <g id="line2d_42">
      <g>
       <use xlink:href="#m479c35859a" x="61.62625" y="101.937354" style="stroke: #000000; stroke-width: 0.8"/>
      </g>
     </g>
     <g id="text_22">
      <!-- 17500 -->
      <g transform="translate(22.81375 105.736572) scale(0.1 -0.1)">
       <use xlink:href="#DejaVuSans-31"/>
       <use xlink:href="#DejaVuSans-37" transform="translate(63.623047 0)"/>
       <use xlink:href="#DejaVuSans-35" transform="translate(127.246094 0)"/>
       <use xlink:href="#DejaVuSans-30" transform="translate(190.869141 0)"/>
       <use xlink:href="#DejaVuSans-30" transform="translate(254.492188 0)"/>
      </g>
     </g>
    </g>
    <g id="ytick_9">
     <g id="line2d_43">
      <path d="M 61.62625 62.494612 
L 704.321791 62.494612 
" clip-path="url(#pdff82aa125)" style="fill: none; stroke-dasharray: 2.96,1.28; stroke-dashoffset: 0; stroke: #b0b0b0; stroke-opacity: 0.3; stroke-width: 0.8"/>
     </g>
     <g id="line2d_44">
      <g>
       <use xlink:href="#m479c35859a" x="61.62625" y="62.494612" style="stroke: #000000; stroke-width: 0.8"/>
      </g>
     </g>
     <g id="text_23">
      <!-- 20000 -->
      <g transform="translate(22.81375 66.293831) scale(0.1 -0.1)">
       <use xlink:href="#DejaVuSans-32"/>
       <use xlink:href="#DejaVuSans-30" transform="translate(63.623047 0)"/>
       <use xlink:href="#DejaVuSans-30" transform="translate(127.246094 0)"/>
       <use xlink:href="#DejaVuSans-30" transform="translate(190.869141 0)"/>
       <use xlink:href="#DejaVuSans-30" transform="translate(254.492188 0)"/>
      </g>
     </g>
    </g>
    <g id="text_24">
     <!-- Daily pedestrian count -->
     <g transform="translate(16.318125 279.793125) rotate(-90) scale(0.12 -0.12)">
      <defs>
       <path id="DejaVuSans-69" d="M 603 3500 
L 1178 3500 
L 1178 0 
L 603 0 
L 603 3500 
z
M 603 4863 
L 1178 4863 
L 1178 4134 
L 603 4134 
L 603 4863 
z
" transform="scale(0.015625)"/>
       <path id="DejaVuSans-64" d="M 2906 2969 
L 2906 4863 
L 3481 4863 
L 3481 0 
L 2906 0 
L 2906 525 
Q 2725 213 2448 61 
Q 2172 -91 1784 -91 
Q 1150 -91 751 415 
Q 353 922 353 1747 
Q 353 2572 751 3078 
Q 1150 3584 1784 3584 
Q 2172 3584 2448 3432 
Q 2725 3281 2906 2969 
z
M 947 1747 
Q 947 1113 1208 752 
Q 1469 391 1925 391 
Q 2381 391 2643 752 
Q 2906 1113 2906 1747 
Q 2906 2381 2643 2742 
Q 2381 3103 1925 3103 
Q 1469 3103 1208 2742 
Q 947 2381 947 1747 
z
" transform="scale(0.015625)"/>
       <path id="DejaVuSans-73" d="M 2834 3397 
L 2834 2853 
Q 2591 2978 2328 3040 
Q 2066 3103 1784 3103 
Q 1356 3103 1142 2972 
Q 928 2841 928 2578 
Q 928 2378 1081 2264 
Q 1234 2150 1697 2047 
L 1894 2003 
Q 2506 1872 2764 1633 
Q 3022 1394 3022 966 
Q 3022 478 2636 193 
Q 2250 -91 1575 -91 
Q 1294 -91 989 -36 
Q 684 19 347 128 
L 347 722 
Q 666 556 975 473 
Q 1284 391 1588 391 
Q 1994 391 2212 530 
Q 2431 669 2431 922 
Q 2431 1156 2273 1281 
Q 2116 1406 1581 1522 
L 1381 1569 
Q 847 1681 609 1914 
Q 372 2147 372 2553 
Q 372 3047 722 3315 
Q 1072 3584 1716 3584 
Q 2034 3584 2315 3537 
Q 2597 3491 2834 3397 
z
" transform="scale(0.015625)"/>
      </defs>
      <use xlink:href="#DejaVuSans-44"/>
      <use xlink:href="#DejaVuSans-61" transform="translate(77.001953 0)"/>
      <use xlink:href="#DejaVuSans-69" transform="translate(138.28125 0)"/>
      <use xlink:href="#DejaVuSans-6c" transform="translate(166.064453 0)"/>
      <use xlink:href="#DejaVuSans-79" transform="translate(193.847656 0)"/>
      <use xlink:href="#DejaVuSans-20" transform="translate(253.027344 0)"/>
      <use xlink:href="#DejaVuSans-70" transform="translate(284.814453 0)"/>
      <use xlink:href="#DejaVuSans-65" transform="translate(348.291016 0)"/>
      <use xlink:href="#DejaVuSans-64" transform="translate(409.814453 0)"/>
      <use xlink:href="#DejaVuSans-65" transform="translate(473.291016 0)"/>
      <use xlink:href="#DejaVuSans-73" transform="translate(534.814453 0)"/>
      <use xlink:href="#DejaVuSans-74" transform="translate(586.914062 0)"/>
      <use xlink:href="#DejaVuSans-72" transform="translate(626.123047 0)"/>
      <use xlink:href="#DejaVuSans-69" transform="translate(667.236328 0)"/>
      <use xlink:href="#DejaVuSans-61" transform="translate(695.019531 0)"/>
      <use xlink:href="#DejaVuSans-6e" transform="translate(756.298828 0)"/>
      <use xlink:href="#DejaVuSans-20" transform="translate(819.677734 0)"/>
      <use xlink:href="#DejaVuSans-63" transform="translate(851.464844 0)"/>
      <use xlink:href="#DejaVuSans-6f" transform="translate(906.445312 0)"/>
      <use xlink:href="#DejaVuSans-75" transform="translate(967.626953 0)"/>
      <use xlink:href="#DejaVuSans-6e" transform="translate(1031.005859 0)"/>
      <use xlink:href="#DejaVuSans-74" transform="translate(1094.384766 0)"/>
     </g>
    </g>
   </g>
   <g id="line2d_45">
    <path d="M 63.363265 185.382417 
L 65.10028 200.670424 
L 66.837295 196.300168 
L 68.57431 222.348155 
L 70.311325 172.082325 
L 72.04834 204.772469 
L 73.785355 214.680486 
L 75.52237 215.422009 
L 77.259385 197.720107 
L 78.9964 199.329371 
L 80.733415 174.543552 
L 82.47043 199.076937 
L 84.207445 231.356877 
L 85.94446 249.043002 
L 87.681475 244.404536 
L 89.41849 231.483094 
L 91.155505 194.627796 
L 92.89252 152.092744 
L 94.629535 146.34988 
L 96.366549 187.764759 
L 98.103564 214.82248 
L 99.840579 207.281027 
L 101.577594 193.239412 
L 103.314609 213.686529 
L 105.051624 202.516344 
L 106.788639 155.26394 
L 108.525654 181.327704 
L 110.262669 230.899341 
L 111.999684 230.410251 
L 113.736699 234.480742 
L 115.473714 212.424361 
L 117.210729 150.893684 
L 118.947744 177.004779 
L 120.684759 209.268942 
L 122.421774 190.399534 
L 124.158789 187.480771 
L 125.895804 204.425373 
L 127.632819 191.34616 
L 129.369834 136.757406 
L 131.106849 134.106854 
L 132.843864 62.936371 
L 134.580879 199.644913 
L 136.317894 214.932919 
L 138.054909 194.927561 
L 139.791924 170.094411 
L 141.528939 147.896036 
L 143.265954 151.051455 
L 145.002969 188.03297 
L 146.739984 207.296805 
L 148.476999 208.606304 
L 150.214014 205.608655 
L 151.951029 182.100781 
L 153.688044 140.543909 
L 157.162074 277.47333 
L 158.899089 205.561324 
L 160.636104 201.632827 
L 162.373119 191.046395 
L 164.110133 195.921518 
L 165.847148 156.967866 
L 167.584163 163.357591 
L 169.321178 197.846324 
L 171.058193 260.46562 
L 172.795208 198.635179 
L 174.532223 198.177643 
L 176.269238 179.655331 
L 178.006253 130.888326 
L 179.743268 123.141771 
L 181.480283 137.940688 
L 183.217298 189.594902 
L 184.954313 204.772469 
L 186.691328 202.058809 
L 188.428343 198.761395 
L 190.165358 177.399207 
L 191.902373 114.969235 
L 193.639388 171.214585 
L 195.376403 205.561324 
L 197.113418 206.113522 
L 198.850433 194.406917 
L 200.587448 181.07527 
L 202.324463 135.179696 
L 204.061478 127.322702 
L 205.798493 168.264268 
L 207.535508 215.769105 
L 209.272523 206.160854 
L 211.009538 190.920178 
L 212.746553 169.226671 
L 214.483568 132.955125 
L 216.220583 126.281414 
L 219.694613 211.588175 
L 221.431628 195.116886 
L 223.168643 194.564688 
L 224.905658 183.331395 
L 226.642673 112.650002 
L 228.379688 104.871894 
L 231.853717 206.39751 
L 233.590732 230.536468 
L 235.327747 199.629136 
L 237.064762 164.162223 
L 238.801777 99.413018 
L 240.538792 92.250216 
L 242.275807 158.151149 
L 244.012822 193.870495 
L 245.749837 186.392152 
L 247.486852 174.969534 
L 249.223867 120.64899 
L 250.960882 120.601659 
L 252.697897 93.528161 
L 254.434912 112.460677 
L 256.171927 185.85573 
L 257.908942 195.25888 
L 259.645957 83.430819 
L 261.382972 171.02526 
L 263.119987 159.003112 
L 264.857002 150.467703 
L 266.594017 203.794289 
L 268.331032 191.630148 
L 270.068047 209.000731 
L 271.805062 197.057469 
L 273.542077 192.371671 
L 275.279092 174.291119 
L 277.016107 138.445555 
L 278.753122 183.14207 
L 280.490137 235.916458 
L 282.227152 214.759371 
L 283.964167 214.191396 
L 285.701182 185.918839 
L 287.438197 167.270311 
L 289.175212 137.909134 
L 292.649242 218.829862 
L 294.386257 205.214228 
L 296.123272 231.356877 
L 297.860287 188.853379 
L 299.597301 113.265309 
L 301.334316 96.368039 
L 303.071331 176.089708 
L 304.808346 247.133973 
L 306.545361 214.238727 
L 308.282376 199.566027 
L 310.019391 182.873859 
L 311.756406 129.799706 
L 313.493421 156.84165 
L 315.230436 194.990669 
L 316.967451 228.280343 
L 318.704466 221.511969 
L 320.441481 213.828523 
L 322.178496 196.994361 
L 323.915511 139.565729 
L 325.652526 136.173653 
L 327.389541 179.781548 
L 329.126556 229.400517 
L 330.863571 205.561324 
L 332.600586 202.894995 
L 334.337601 188.585168 
L 336.074616 137.309604 
L 337.811631 129.07396 
L 339.548646 142.011179 
L 341.285661 213.197439 
L 343.022676 220.155138 
L 344.759691 225.408911 
L 346.496706 198.351191 
L 348.233721 149.252866 
L 349.970736 140.796342 
L 351.707751 194.911784 
L 353.444766 220.533789 
L 355.181781 227.160169 
L 356.918796 214.743594 
L 358.655811 201.427725 
L 360.392826 142.05851 
L 362.129841 137.120279 
L 363.866856 188.821824 
L 365.603871 221.543523 
L 367.340886 208.637858 
L 369.0779 203.163205 
L 370.814915 183.441835 
L 372.55193 131.251199 
L 374.288945 207.691232 
L 376.02596 181.106824 
L 377.762975 213.607643 
L 379.49999 205.734872 
L 381.237005 194.028266 
L 382.97402 183.788931 
L 384.711035 108.816168 
L 386.44805 130.904103 
L 388.185065 186.187049 
L 391.659095 215.974208 
L 393.39611 210.609995 
L 395.133125 239.608298 
L 396.87014 130.493898 
L 398.607155 149.363306 
L 400.34417 193.949381 
L 402.081185 211.493512 
L 403.8182 210.90976 
L 405.555215 204.977571 
L 407.29223 180.018205 
L 409.029245 140.386138 
L 410.76626 136.946731 
L 412.503275 185.555965 
L 414.24029 218.435435 
L 415.977305 225.25114 
L 417.71432 201.61705 
L 419.451335 189.705342 
L 421.18835 147.564717 
L 422.925365 117.020258 
L 424.66238 173.802029 
L 426.399395 216.826171 
L 428.13641 207.249473 
L 429.873425 206.586835 
L 431.61044 191.961467 
L 433.347455 126.486516 
L 435.08447 140.81212 
L 436.821484 180.128644 
L 438.558499 207.233696 
L 440.295514 263.368606 
L 442.032529 185.555965 
L 443.769544 199.755352 
L 445.506559 147.05985 
L 447.243574 134.422395 
L 450.717604 202.090363 
L 452.454619 203.384085 
L 454.191634 244.877849 
L 455.928649 184.199135 
L 457.665664 115.631873 
L 459.402679 92.739306 
L 461.139694 173.770474 
L 462.876709 206.50795 
L 464.613724 248.8379 
L 466.350739 198.903389 
L 468.087754 165.108848 
L 469.824769 71.392895 
L 471.561784 55.032045 
L 473.298799 141.474758 
L 475.035814 205.277336 
L 476.772829 201.790598 
L 478.509844 205.340445 
L 480.246859 178.803368 
L 481.983874 119.150166 
L 483.720889 104.414358 
L 485.457904 163.972897 
L 487.194919 218.814085 
L 488.931934 205.498216 
L 490.668949 195.400874 
L 492.405964 188.127632 
L 494.142979 135.747672 
L 495.879994 116.752047 
L 497.617009 176.515689 
L 499.354024 215.564003 
L 501.091039 206.649944 
L 502.828054 186.171272 
L 504.565068 185.145761 
L 506.302083 114.085718 
L 508.039098 121.500953 
L 509.776113 178.677151 
L 511.513128 217.015496 
L 513.250143 213.923185 
L 514.987158 204.046723 
L 516.724173 177.146773 
L 518.461188 93.070625 
L 520.198203 140.906782 
L 521.935218 167.901394 
L 523.672233 197.388788 
L 527.146263 179.11891 
L 528.883278 117.020258 
L 530.620293 139.297518 
L 532.357308 163.326036 
L 534.094323 168.832243 
L 535.831338 201.206845 
L 537.568353 168.295822 
L 539.305368 152.313623 
L 541.042383 139.250187 
L 542.779398 106.544266 
L 544.516413 71.692659 
L 546.253428 138.74532 
L 547.990443 176.547243 
L 549.727458 192.908092 
L 551.464473 175.458624 
L 553.201488 162.126977 
L 556.675518 61.68998 
L 558.412533 149.39486 
L 560.149548 206.634167 
L 561.886563 188.916487 
L 563.623578 193.965158 
L 565.360593 180.807059 
L 567.097608 103.672834 
L 568.834623 121.753387 
L 572.308652 201.901038 
L 574.045667 190.636191 
L 575.782682 182.873859 
L 577.519697 190.25754 
L 579.256712 124.956138 
L 580.993727 126.802058 
L 582.730742 169.526435 
L 584.467757 198.650956 
L 586.204772 203.178982 
L 587.941787 181.264595 
L 589.678802 189.058481 
L 591.415817 148.132692 
L 593.152832 169.731538 
L 594.889847 181.879902 
L 596.626862 183.89937 
L 598.363877 216.210864 
L 600.100892 197.420342 
L 601.837907 200.165557 
L 603.574922 150.909461 
L 605.311937 157.835607 
L 607.048952 179.22935 
L 608.785967 197.120577 
L 610.522982 208.84296 
L 612.259997 182.069227 
L 613.997012 168.516701 
L 615.734027 116.389174 
L 617.471042 122.431802 
L 619.208057 171.924554 
L 620.945072 194.801344 
L 622.682087 199.408256 
L 624.419102 191.219943 
L 626.156117 200.938635 
L 627.893132 188.395843 
L 629.630147 116.073632 
L 631.367162 170.835934 
L 633.104177 189.247806 
L 634.841192 200.90708 
L 636.578207 171.577458 
L 638.315222 150.199492 
L 640.052236 171.67212 
L 641.789251 116.168295 
L 643.526266 155.816138 
L 645.263281 259.266561 
L 647.000296 263.037287 
L 648.737311 245.871806 
L 650.474326 217.977899 
L 653.948356 121.674501 
L 655.685371 148.022253 
L 657.422386 230.757347 
L 659.159401 255.290732 
L 660.896416 248.222593 
L 662.633431 221.212204 
L 664.370446 110.851413 
L 666.107461 130.178356 
L 667.844476 166.576118 
L 669.581491 236.484433 
L 671.318506 184.656671 
L 673.055521 257.657297 
L 674.792536 165.392836 
L 676.529551 184.199135 
L 678.266566 166.954769 
L 680.003581 169.8262 
L 681.740596 175.600618 
L 683.477611 189.658011 
L 685.214626 225.188032 
L 686.951641 154.112212 
L 688.688656 156.100126 
L 690.425671 158.514022 
L 692.162686 162.284748 
L 693.899701 224.257183 
L 695.636716 171.009482 
L 695.636716 171.009482 
" clip-path="url(#pdff82aa125)" style="fill: none; stroke: #0d6efc; stroke-opacity: 0.8; stroke-width: 2.5; stroke-linecap: square"/>
   </g>
   <g id="line2d_46">
    <path d="M 63.363265 210.720435 
L 65.10028 233.613002 
L 66.837295 221.054433 
L 68.57431 225.503574 
L 70.311325 238.787889 
L 72.04834 265.277635 
L 73.785355 246.99198 
L 75.52237 248.049045 
L 78.9964 216.684177 
L 80.733415 192.908092 
L 82.47043 223.594545 
L 84.207445 258.461929 
L 85.94446 245.30383 
L 87.681475 240.807358 
L 89.41849 227.870139 
L 91.155505 206.255516 
L 92.89252 179.734217 
L 94.629535 206.39751 
L 96.366549 259.739874 
L 98.103564 256.836888 
L 99.840579 248.522358 
L 101.577594 226.671079 
L 103.314609 212.219259 
L 105.051624 176.768123 
L 106.788639 203.242091 
L 108.525654 267.880855 
L 110.262669 251.109802 
L 111.999684 238.361908 
L 113.736699 240.807358 
L 115.473714 227.444157 
L 117.210729 182.621426 
L 118.947744 98.545278 
L 120.684759 275.343422 
L 122.421774 272.645539 
L 125.895804 236.389771 
L 127.632819 207.328359 
L 129.369834 171.687898 
L 131.106849 210.010465 
L 132.843864 256.600231 
L 134.580879 252.561295 
L 136.317894 250.273616 
L 138.054909 244.088994 
L 141.528939 184.483123 
L 143.265954 216.116202 
L 145.002969 265.324966 
L 146.739984 252.608626 
L 148.476999 246.266233 
L 150.214014 234.528073 
L 151.951029 207.233696 
L 153.688044 281.748923 
L 155.425059 298.725079 
L 157.162074 261.128258 
L 160.636104 240.980906 
L 162.373119 227.144392 
L 164.110133 198.714064 
L 165.847148 168.406261 
L 167.584163 207.517684 
L 169.321178 260.670722 
L 171.058193 246.155793 
L 172.795208 245.067174 
L 174.532223 231.893298 
L 176.269238 205.687541 
L 178.006253 169.841977 
L 179.743268 177.76208 
L 181.480283 240.41293 
L 183.217298 259.298115 
L 184.954313 242.889934 
L 186.691328 225.393134 
L 188.428343 196.931252 
L 190.165358 179.923542 
L 191.902373 217.520363 
L 193.639388 240.980906 
L 195.376403 242.953043 
L 197.113418 240.681141 
L 198.850433 239.876509 
L 200.587448 207.312582 
L 202.324463 161.73255 
L 204.061478 198.524739 
L 205.798493 260.765385 
L 207.535508 243.931223 
L 209.272523 234.875169 
L 211.009538 217.583472 
L 212.746553 179.371344 
L 214.483568 148.432457 
L 216.220583 188.001415 
L 217.957598 259.361223 
L 219.694613 236.847306 
L 221.431628 231.625088 
L 223.168643 231.861744 
L 224.905658 185.697959 
L 226.642673 148.30624 
L 228.379688 190.651968 
L 230.116703 245.90336 
L 231.853717 223.641877 
L 233.590732 218.214555 
L 235.327747 210.120905 
L 237.064762 172.634523 
L 238.801777 139.108193 
L 240.538792 175.679503 
L 242.275807 238.503902 
L 244.012822 214.270281 
L 245.749837 209.190056 
L 247.486852 164.903746 
L 249.223867 176.279033 
L 250.960882 134.595944 
L 252.697897 162.48985 
L 254.434912 231.593533 
L 256.171927 236.563319 
L 257.908942 233.707664 
L 259.645957 201.664381 
L 261.382972 198.714064 
L 263.119987 168.106497 
L 264.857002 206.981263 
L 266.594017 263.699925 
L 268.331032 264.630774 
L 270.068047 249.800303 
L 271.805062 237.793932 
L 275.279092 151.398551 
L 277.016107 190.888624 
L 278.753122 259.156121 
L 280.490137 250.399832 
L 282.227152 249.311213 
L 283.964167 235.821795 
L 285.701182 198.288082 
L 287.438197 142.563377 
L 289.175212 201.806375 
L 290.912227 265.530068 
L 292.649242 247.465292 
L 296.123272 232.839924 
L 297.860287 192.876538 
L 299.597301 167.333419 
L 301.334316 210.988645 
L 303.071331 266.44514 
L 304.808346 249.942297 
L 306.545361 246.171571 
L 308.282376 233.486785 
L 310.019391 203.983614 
L 311.756406 150.704359 
L 313.493421 199.408256 
L 315.230436 267.170886 
L 316.967451 256.190027 
L 318.704466 249.453207 
L 320.441481 237.683493 
L 322.178496 205.403553 
L 323.915511 160.722815 
L 325.652526 218.719422 
L 327.389541 308.790867 
L 329.126556 264.094352 
L 330.863571 258.525037 
L 332.600586 237.935926 
L 334.337601 244.483421 
L 336.074616 340.976144 
L 337.811631 171.072591 
L 339.548646 240.996683 
L 341.285661 257.183984 
L 343.022676 252.876837 
L 344.759691 249.405875 
L 346.496706 212.75568 
L 348.233721 205.245782 
L 349.970736 362.685429 
L 351.707751 273.245068 
L 353.444766 254.375661 
L 355.181781 246.045354 
L 356.918796 251.378012 
L 358.655811 341.386348 
L 360.392826 169.605321 
L 362.129841 209.663369 
L 363.866856 261.349137 
L 365.603871 249.563646 
L 367.340886 258.635477 
L 369.0779 226.465977 
L 370.814915 203.904729 
L 372.55193 169.747315 
L 374.288945 224.225629 
L 376.02596 368.522955 
L 377.762975 252.892614 
L 379.49999 277.804649 
L 381.237005 358.204733 
L 382.97402 207.849003 
L 384.711035 146.775862 
L 386.44805 195.479759 
L 388.185065 238.235691 
L 389.92208 240.081611 
L 391.659095 225.519351 
L 393.39611 220.770445 
L 395.133125 188.664054 
L 396.87014 140.181036 
L 398.607155 199.455588 
L 400.34417 244.641192 
L 402.081185 239.54519 
L 405.555215 221.622408 
L 407.29223 181.769462 
L 409.029245 224.525394 
L 410.76626 211.414627 
L 412.503275 260.434066 
L 414.24029 265.577399 
L 415.977305 250.494495 
L 419.451335 206.823492 
L 421.18835 180.617734 
L 422.925365 214.838257 
L 424.66238 260.702277 
L 428.13641 243.158145 
L 429.873425 239.340088 
L 431.61044 203.131651 
L 433.347455 155.390157 
L 435.08447 203.478747 
L 436.821484 266.208483 
L 438.558499 361.596809 
L 440.295514 243.142368 
L 442.032529 227.381049 
L 443.769544 188.648276 
L 445.506559 161.637887 
L 447.243574 187.338777 
L 448.980589 244.783186 
L 450.717604 256.521346 
L 452.454619 236.326662 
L 454.191634 221.212204 
L 455.928649 201.569719 
L 457.665664 154.490862 
L 461.139694 257.767737 
L 462.876709 246.692215 
L 464.613724 238.67745 
L 466.350739 225.156478 
L 468.087754 239.560967 
L 469.824769 161.637887 
L 471.561784 189.263583 
L 473.298799 253.097716 
L 475.035814 264.504557 
L 476.772829 245.019842 
L 478.509844 237.036632 
L 480.246859 218.782531 
L 481.983874 184.420015 
L 483.720889 238.598564 
L 485.457904 266.255814 
L 487.194919 256.5529 
L 488.931934 251.125579 
L 490.668949 248.506581 
L 492.405964 211.88794 
L 494.142979 178.393164 
L 495.879994 227.996355 
L 497.617009 263.857696 
L 499.354024 253.681469 
L 501.091039 254.864751 
L 502.828054 244.830517 
L 504.565068 215.895322 
L 506.302083 178.424718 
L 509.776113 257.625743 
L 511.513128 274.223248 
L 513.250143 248.964117 
L 514.987158 235.127603 
L 516.724173 214.191396 
L 518.461188 181.233041 
L 520.198203 216.005762 
L 521.935218 263.810365 
L 523.672233 247.118196 
L 525.409248 232.477051 
L 527.146263 186.155495 
L 528.883278 185.382417 
L 530.620293 182.226998 
L 532.357308 221.5593 
L 534.094323 250.41561 
L 535.831338 246.076908 
L 537.568353 229.179638 
L 539.305368 215.595557 
L 541.042383 182.447877 
L 542.779398 136.173653 
L 546.253428 256.237358 
L 547.990443 249.516315 
L 549.727458 241.296448 
L 551.464473 215.832214 
L 554.938503 146.933633 
L 556.675518 188.474728 
L 558.412533 258.777471 
L 561.886563 238.56701 
L 563.623578 235.14338 
L 565.360593 194.864452 
L 567.097608 159.034666 
L 568.834623 197.641221 
L 570.571638 262.04333 
L 572.308652 255.19607 
L 574.045667 258.114833 
L 575.782682 213.938962 
L 577.519697 183.820485 
L 579.256712 157.094083 
L 580.993727 215.564003 
L 582.730742 265.703616 
L 584.467757 248.885231 
L 586.204772 228.422337 
L 587.941787 201.475056 
L 589.678802 167.790955 
L 591.415817 186.928573 
L 593.152832 180.428409 
L 594.889847 228.043687 
L 596.626862 243.126591 
L 600.100892 221.196427 
L 601.837907 201.585496 
L 603.574922 191.677479 
L 605.311937 196.331722 
L 607.048952 258.241049 
L 608.785967 252.86106 
L 610.522982 222.837245 
L 612.259997 204.882909 
L 613.997012 173.565372 
L 615.734027 138.14579 
L 619.208057 255.211847 
L 620.945072 238.235691 
L 622.682087 226.986621 
L 624.419102 221.44886 
L 626.156117 191.204166 
L 627.893132 142.484492 
L 631.367162 251.220241 
L 634.841192 229.226969 
L 636.578207 200.244442 
L 638.315222 180.712397 
L 640.052236 148.132692 
L 641.789251 191.851027 
L 643.526266 256.805334 
L 645.263281 240.334045 
L 647.000296 213.008114 
L 648.737311 212.108819 
L 650.474326 169.147785 
L 652.211341 141.222324 
L 653.948356 181.801016 
L 655.685371 247.212859 
L 657.422386 240.649587 
L 659.159401 219.240067 
L 660.896416 196.394831 
L 664.370446 128.947743 
L 666.107461 171.640566 
L 667.844476 251.930211 
L 669.581491 276.526704 
L 671.318506 204.867132 
L 673.055521 211.209525 
L 674.792536 170.993705 
L 676.529551 159.318654 
L 678.266566 210.231345 
L 680.003581 213.796968 
L 681.740596 209.016508 
L 683.477611 227.633482 
L 685.214626 266.71335 
L 686.951641 192.986978 
L 688.688656 172.587192 
L 690.425671 171.419687 
L 692.162686 233.67611 
L 693.899701 234.464965 
L 695.636716 203.384085 
L 695.636716 203.384085 
" clip-path="url(#pdff82aa125)" style="fill: none; stroke: #83c966; stroke-opacity: 0.8; stroke-width: 2.5; stroke-linecap: square"/>
   </g>
   <g id="patch_3">
    <path d="M 61.62625 384.1975 
L 61.62625 39.3575 
" style="fill: none; stroke: #000000; stroke-width: 0.8; stroke-linejoin: miter; stroke-linecap: square"/>
   </g>
   <g id="patch_4">
    <path d="M 61.62625 384.1975 
L 704.321791 384.1975 
" style="fill: none; stroke: #000000; stroke-width: 0.8; stroke-linejoin: miter; stroke-linecap: square"/>
   </g>
   <g id="text_25">
    <!-- Pedestrian Traffic at Lonsdale St (South) -->
    <g transform="translate(222.54277 19.3575) scale(0.16 -0.16)">
     <defs>
      <path id="DejaVuSans-50" d="M 1259 4147 
L 1259 2394 
L 2053 2394 
Q 2494 2394 2734 2622 
Q 2975 2850 2975 3272 
Q 2975 3691 2734 3919 
Q 2494 4147 2053 4147 
L 1259 4147 
z
M 628 4666 
L 2053 4666 
Q 2838 4666 3239 4311 
Q 3641 3956 3641 3272 
Q 3641 2581 3239 2228 
Q 2838 1875 2053 1875 
L 1259 1875 
L 1259 0 
L 628 0 
L 628 4666 
z
" transform="scale(0.015625)"/>
      <path id="DejaVuSans-54" d="M -19 4666 
L 3928 4666 
L 3928 4134 
L 2272 4134 
L 2272 0 
L 1638 0 
L 1638 4134 
L -19 4134 
L -19 4666 
z
" transform="scale(0.015625)"/>
      <path id="DejaVuSans-4c" d="M 628 4666 
L 1259 4666 
L 1259 531 
L 3531 531 
L 3531 0 
L 628 0 
L 628 4666 
z
" transform="scale(0.015625)"/>
      <path id="DejaVuSans-28" d="M 1984 4856 
Q 1566 4138 1362 3434 
Q 1159 2731 1159 2009 
Q 1159 1288 1364 580 
Q 1569 -128 1984 -844 
L 1484 -844 
Q 1016 -109 783 600 
Q 550 1309 550 2009 
Q 550 2706 781 3412 
Q 1013 4119 1484 4856 
L 1984 4856 
z
" transform="scale(0.015625)"/>
      <path id="DejaVuSans-29" d="M 513 4856 
L 1013 4856 
Q 1481 4119 1714 3412 
Q 1947 2706 1947 2009 
Q 1947 1309 1714 600 
Q 1481 -109 1013 -844 
L 513 -844 
Q 928 -128 1133 580 
Q 1338 1288 1338 2009 
Q 1338 2731 1133 3434 
Q 928 4138 513 4856 
z
" transform="scale(0.015625)"/>
     </defs>
     <use xlink:href="#DejaVuSans-50"/>
     <use xlink:href="#DejaVuSans-65" transform="translate(56.677734 0)"/>
     <use xlink:href="#DejaVuSans-64" transform="translate(118.201172 0)"/>
     <use xlink:href="#DejaVuSans-65" transform="translate(181.677734 0)"/>
     <use xlink:href="#DejaVuSans-73" transform="translate(243.201172 0)"/>
     <use xlink:href="#DejaVuSans-74" transform="translate(295.300781 0)"/>
     <use xlink:href="#DejaVuSans-72" transform="translate(334.509766 0)"/>
     <use xlink:href="#DejaVuSans-69" transform="translate(375.623047 0)"/>
     <use xlink:href="#DejaVuSans-61" transform="translate(403.40625 0)"/>
     <use xlink:href="#DejaVuSans-6e" transform="translate(464.685547 0)"/>
     <use xlink:href="#DejaVuSans-20" transform="translate(528.064453 0)"/>
     <use xlink:href="#DejaVuSans-54" transform="translate(559.851562 0)"/>
     <use xlink:href="#DejaVuSans-72" transform="translate(606.185547 0)"/>
     <use xlink:href="#DejaVuSans-61" transform="translate(647.298828 0)"/>
     <use xlink:href="#DejaVuSans-66" transform="translate(708.578125 0)"/>
     <use xlink:href="#DejaVuSans-66" transform="translate(743.783203 0)"/>
     <use xlink:href="#DejaVuSans-69" transform="translate(778.988281 0)"/>
     <use xlink:href="#DejaVuSans-63" transform="translate(806.771484 0)"/>
     <use xlink:href="#DejaVuSans-20" transform="translate(861.751953 0)"/>
     <use xlink:href="#DejaVuSans-61" transform="translate(893.539062 0)"/>
     <use xlink:href="#DejaVuSans-74" transform="translate(954.818359 0)"/>
     <use xlink:href="#DejaVuSans-20" transform="translate(994.027344 0)"/>
     <use xlink:href="#DejaVuSans-4c" transform="translate(1025.814453 0)"/>
     <use xlink:href="#DejaVuSans-6f" transform="translate(1079.777344 0)"/>
     <use xlink:href="#DejaVuSans-6e" transform="translate(1140.958984 0)"/>
     <use xlink:href="#DejaVuSans-73" transform="translate(1204.337891 0)"/>
     <use xlink:href="#DejaVuSans-64" transform="translate(1256.4375 0)"/>
     <use xlink:href="#DejaVuSans-61" transform="translate(1319.914062 0)"/>
     <use xlink:href="#DejaVuSans-6c" transform="translate(1381.193359 0)"/>
     <use xlink:href="#DejaVuSans-65" transform="translate(1408.976562 0)"/>
     <use xlink:href="#DejaVuSans-20" transform="translate(1470.5 0)"/>
     <use xlink:href="#DejaVuSans-53" transform="translate(1502.287109 0)"/>
     <use xlink:href="#DejaVuSans-74" transform="translate(1565.763672 0)"/>
     <use xlink:href="#DejaVuSans-20" transform="translate(1604.972656 0)"/>
     <use xlink:href="#DejaVuSans-28" transform="translate(1636.759766 0)"/>
     <use xlink:href="#DejaVuSans-53" transform="translate(1675.773438 0)"/>
     <use xlink:href="#DejaVuSans-6f" transform="translate(1739.25 0)"/>
     <use xlink:href="#DejaVuSans-75" transform="translate(1800.431641 0)"/>
     <use xlink:href="#DejaVuSans-74" transform="translate(1863.810547 0)"/>
     <use xlink:href="#DejaVuSans-68" transform="translate(1903.019531 0)"/>
     <use xlink:href="#DejaVuSans-29" transform="translate(1966.398438 0)"/>
    </g>
   </g>
   <g id="legend_1">
    <g id="patch_5">
     <path d="M 69.32625 80.449375 
L 132.52125 80.449375 
Q 134.72125 80.449375 134.72125 78.249375 
L 134.72125 47.0575 
Q 134.72125 44.8575 132.52125 44.8575 
L 69.32625 44.8575 
Q 67.12625 44.8575 67.12625 47.0575 
L 67.12625 78.249375 
Q 67.12625 80.449375 69.32625 80.449375 
z
" style="fill: #ffffff; opacity: 0.95; stroke: #cccccc; stroke-linejoin: miter"/>
    </g>
    <g id="line2d_47">
     <path d="M 71.52625 53.765781 
L 82.52625 53.765781 
L 93.52625 53.765781 
" style="fill: none; stroke: #0d6efc; stroke-opacity: 0.8; stroke-width: 2.5; stroke-linecap: square"/>
    </g>
    <g id="text_26">
     <!-- 2019 -->
     <g transform="translate(102.32625 57.615781) scale(0.11 -0.11)">
      <defs>
       <path id="DejaVuSans-39" d="M 703 97 
L 703 672 
Q 941 559 1184 500 
Q 1428 441 1663 441 
Q 2288 441 2617 861 
Q 2947 1281 2994 2138 
Q 2813 1869 2534 1725 
Q 2256 1581 1919 1581 
Q 1219 1581 811 2004 
Q 403 2428 403 3163 
Q 403 3881 828 4315 
Q 1253 4750 1959 4750 
Q 2769 4750 3195 4129 
Q 3622 3509 3622 2328 
Q 3622 1225 3098 567 
Q 2575 -91 1691 -91 
Q 1453 -91 1209 -44 
Q 966 3 703 97 
z
M 1959 2075 
Q 2384 2075 2632 2365 
Q 2881 2656 2881 3163 
Q 2881 3666 2632 3958 
Q 2384 4250 1959 4250 
Q 1534 4250 1286 3958 
Q 1038 3666 1038 3163 
Q 1038 2656 1286 2365 
Q 1534 2075 1959 2075 
z
" transform="scale(0.015625)"/>
      </defs>
      <use xlink:href="#DejaVuSans-32"/>
      <use xlink:href="#DejaVuSans-30" transform="translate(63.623047 0)"/>
      <use xlink:href="#DejaVuSans-31" transform="translate(127.246094 0)"/>
      <use xlink:href="#DejaVuSans-39" transform="translate(190.869141 0)"/>
     </g>
    </g>
    <g id="line2d_48">
     <path d="M 71.52625 69.911719 
L 82.52625 69.911719 
L 93.52625 69.911719 
" style="fill: none; stroke: #83c966; stroke-opacity: 0.8; stroke-width: 2.5; stroke-linecap: square"/>
    </g>
    <g id="text_27">
     <!-- 2025 -->
     <g transform="translate(102.32625 73.761719) scale(0.11 -0.11)">
      <use xlink:href="#DejaVuSans-32"/>
      <use xlink:href="#DejaVuSans-30" transform="translate(63.623047 0)"/>
      <use xlink:href="#DejaVuSans-32" transform="translate(127.246094 0)"/>
      <use xlink:href="#DejaVuSans-35" transform="translate(190.869141 0)"/>
     </g>
    </g>
   </g>
  </g>
 </g>
 <defs>
  <clipPath id="pdff82aa125">
   <rect x="61.62625" y="39.3575" width="642.695541" height="344.84"/>
  </clipPath>
 </defs>
</svg>
