<?xml version="1.0" encoding="utf-8" standalone="no"?>
<!DOCTYPE svg PUBLIC "-//W3C//DTD SVG 1.1//EN"
  "http://www.w3.org/Graphics/SVG/1.1/DTD/svg11.dtd">
<svg xmlns:xlink="http://www.w3.org/1999/xlink" width="711.521791pt" height="423.689375pt" viewBox="0 0 711.521791 423.689375" xmlns="http://www.w3.org/2000/svg" version="1.1">
 <metadata>
  <rdf:RDF xmlns:dc="http://purl.org/dc/elements/1.1/" xmlns:cc="http://creativecommons.org/ns#" xmlns:rdf="http://www.w3.org/1999/02/22-rdf-syntax-ns#">
   <cc:Work>
    <dc:type rdf:resource="http://purl.org/dc/dcmitype/StillImage"/>
    <dc:date>2026-01-28T17:49:44.091668</dc:date>
    <dc:format>image/svg+xml</dc:format>
    <dc:creator>
     <cc:Agent>
      <dc:title>Matplotlib v3.10.8, https://matplotlib.org/</dc:title>
     </cc:Agent>
    </dc:creator>
   </cc:Work>
  </rdf:RDF>
 </metadata>
 <defs>
  <style type="text/css">*{stroke-linejoin: round; stroke-linecap: butt}</style>
 </defs>
 <g id="figure_1">
  <g id="patch_1">
   <path d="M 0 423.689375 
L 711.521791 423.689375 
L 711.521791 0 
L 0 0 
L 0 423.689375 
z
" style="fill: none"/>
  </g>
  <g id="axes_1">
   <g id="patch_2">
    <path d="M 61.62625 384.1975 
L 704.321791 384.1975 
L 704.321791 39.3575 
L 61.62625 39.3575 
L 61.62625 384.1975 
z
" style="fill: none"/>
   </g>
   <g id="matplotlib.axis_1">
    <g id="xtick_1">
     <g id="line2d_1">
      <path d="M 61.62625 384.1975 
L 61.62625 39.3575 
" clip-path="url(#pbf496854e7)" style="fill: none; stroke-dasharray: 2.96,1.28; stroke-dashoffset: 0; stroke: #b0b0b0; stroke-opacity: 0.3; stroke-width: 0.8"/>
     </g>
     <g id="line2d_2">
      <defs>
       <path id="m9ebc69afde" d="M 0 0 
L 0 3.5 
" style="stroke: #000000; stroke-width: 0.8"/>
      </defs>
      <g>
       <use xlink:href="#m9ebc69afde" x="61.62625" y="384.1975" style="stroke: #000000; stroke-width: 0.8"/>
      </g>
     </g>
     <g id="text_1">
      <!-- Jan -->
      <g transform="translate(53.918438 398.795937) scale(0.1 -0.1)">
       <defs>
        <path id="DejaVuSans-4a" d="M 628 4666 
L 1259 4666 
L 1259 325 
Q 1259 -519 939 -900 
Q 619 -1281 -91 -1281 
L -331 -1281 
L -331 -750 
L -134 -750 
Q 284 -750 456 -515 
Q 628 -281 628 325 
L 628 4666 
z
" transform="scale(0.015625)"/>
        <path id="DejaVuSans-61" d="M 2194 1759 
Q 1497 1759 1228 1600 
Q 959 1441 959 1056 
Q 959 750 1161 570 
Q 1363 391 1709 391 
Q 2188 391 2477 730 
Q 2766 1069 2766 1631 
L 2766 1759 
L 2194 1759 
z
M 3341 1997 
L 3341 0 
L 2766 0 
L 2766 531 
Q 2569 213 2275 61 
Q 1981 -91 1556 -91 
Q 1019 -91 701 211 
Q 384 513 384 1019 
Q 384 1609 779 1909 
Q 1175 2209 1959 2209 
L 2766 2209 
L 2766 2266 
Q 2766 2663 2505 2880 
Q 2244 3097 1772 3097 
Q 1472 3097 1187 3025 
Q 903 2953 641 2809 
L 641 3341 
Q 956 3463 1253 3523 
Q 1550 3584 1831 3584 
Q 2591 3584 2966 3190 
Q 3341 2797 3341 1997 
z
" transform="scale(0.015625)"/>
        <path id="DejaVuSans-6e" d="M 3513 2113 
L 3513 0 
L 2938 0 
L 2938 2094 
Q 2938 2591 2744 2837 
Q 2550 3084 2163 3084 
Q 1697 3084 1428 2787 
Q 1159 2491 1159 1978 
L 1159 0 
L 581 0 
L 581 3500 
L 1159 3500 
L 1159 2956 
Q 1366 3272 1645 3428 
Q 1925 3584 2291 3584 
Q 2894 3584 3203 3211 
Q 3513 2838 3513 2113 
z
" transform="scale(0.015625)"/>
       </defs>
       <use xlink:href="#DejaVuSans-4a"/>
       <use xlink:href="#DejaVuSans-61" transform="translate(29.492188 0)"/>
       <use xlink:href="#DejaVuSans-6e" transform="translate(90.771484 0)"/>
      </g>
     </g>
    </g>
    <g id="xtick_2">
     <g id="line2d_3">
      <path d="M 115.473714 384.1975 
L 115.473714 39.3575 
" clip-path="url(#pbf496854e7)" style="fill: none; stroke-dasharray: 2.96,1.28; stroke-dashoffset: 0; stroke: #b0b0b0; stroke-opacity: 0.3; stroke-width: 0.8"/>
     </g>
     <g id="line2d_4">
      <g>
       <use xlink:href="#m9ebc69afde" x="115.473714" y="384.1975" style="stroke: #000000; stroke-width: 0.8"/>
      </g>
     </g>
     <g id="text_2">
      <!-- Feb -->
      <g transform="translate(106.622152 398.795937) scale(0.1 -0.1)">
       <defs>
        <path id="DejaVuSans-46" d="M 628 4666 
L 3309 4666 
L 3309 4134 
L 1259 4134 
L 1259 2759 
L 3109 2759 
L 3109 2228 
L 1259 2228 
L 1259 0 
L 628 0 
L 628 4666 
z
" transform="scale(0.015625)"/>
        <path id="DejaVuSans-65" d="M 3597 1894 
L 3597 1613 
L 953 1613 
Q 991 1019 1311 708 
Q 1631 397 2203 397 
Q 2534 397 2845 478 
Q 3156 559 3463 722 
L 3463 178 
Q 3153 47 2828 -22 
Q 2503 -91 2169 -91 
Q 1331 -91 842 396 
Q 353 884 353 1716 
Q 353 2575 817 3079 
Q 1281 3584 2069 3584 
Q 2775 3584 3186 3129 
Q 3597 2675 3597 1894 
z
M 3022 2063 
Q 3016 2534 2758 2815 
Q 2500 3097 2075 3097 
Q 1594 3097 1305 2825 
Q 1016 2553 972 2059 
L 3022 2063 
z
" transform="scale(0.015625)"/>
        <path id="DejaVuSans-62" d="M 3116 1747 
Q 3116 2381 2855 2742 
Q 2594 3103 2138 3103 
Q 1681 3103 1420 2742 
Q 1159 2381 1159 1747 
Q 1159 1113 1420 752 
Q 1681 391 2138 391 
Q 2594 391 2855 752 
Q 3116 1113 3116 1747 
z
M 1159 2969 
Q 1341 3281 1617 3432 
Q 1894 3584 2278 3584 
Q 2916 3584 3314 3078 
Q 3713 2572 3713 1747 
Q 3713 922 3314 415 
Q 2916 -91 2278 -91 
Q 1894 -91 1617 61 
Q 1341 213 1159 525 
L 1159 0 
L 581 0 
L 581 4863 
L 1159 4863 
L 1159 2969 
z
" transform="scale(0.015625)"/>
       </defs>
       <use xlink:href="#DejaVuSans-46"/>
       <use xlink:href="#DejaVuSans-65" transform="translate(52.019531 0)"/>
       <use xlink:href="#DejaVuSans-62" transform="translate(113.542969 0)"/>
      </g>
     </g>
    </g>
    <g id="xtick_3">
     <g id="line2d_5">
      <path d="M 164.110133 384.1975 
L 164.110133 39.3575 
" clip-path="url(#pbf496854e7)" style="fill: none; stroke-dasharray: 2.96,1.28; stroke-dashoffset: 0; stroke: #b0b0b0; stroke-opacity: 0.3; stroke-width: 0.8"/>
     </g>
     <g id="line2d_6">
      <g>
       <use xlink:href="#m9ebc69afde" x="164.110133" y="384.1975" style="stroke: #000000; stroke-width: 0.8"/>
      </g>
     </g>
     <g id="text_3">
      <!-- Mar -->
      <g transform="translate(154.67654 398.795937) scale(0.1 -0.1)">
       <defs>
        <path id="DejaVuSans-4d" d="M 628 4666 
L 1569 4666 
L 2759 1491 
L 3956 4666 
L 4897 4666 
L 4897 0 
L 4281 0 
L 4281 4097 
L 3078 897 
L 2444 897 
L 1241 4097 
L 1241 0 
L 628 0 
L 628 4666 
z
" transform="scale(0.015625)"/>
        <path id="DejaVuSans-72" d="M 2631 2963 
Q 2534 3019 2420 3045 
Q 2306 3072 2169 3072 
Q 1681 3072 1420 2755 
Q 1159 2438 1159 1844 
L 1159 0 
L 581 0 
L 581 3500 
L 1159 3500 
L 1159 2956 
Q 1341 3275 1631 3429 
Q 1922 3584 2338 3584 
Q 2397 3584 2469 3576 
Q 2541 3569 2628 3553 
L 2631 2963 
z
" transform="scale(0.015625)"/>
       </defs>
       <use xlink:href="#DejaVuSans-4d"/>
       <use xlink:href="#DejaVuSans-61" transform="translate(86.279297 0)"/>
       <use xlink:href="#DejaVuSans-72" transform="translate(147.558594 0)"/>
      </g>
     </g>
    </g>
    <g id="xtick_4">
     <g id="line2d_7">
      <path d="M 217.957598 384.1975 
L 217.957598 39.3575 
" clip-path="url(#pbf496854e7)" style="fill: none; stroke-dasharray: 2.96,1.28; stroke-dashoffset: 0; stroke: #b0b0b0; stroke-opacity: 0.3; stroke-width: 0.8"/>
     </g>
     <g id="line2d_8">
      <g>
       <use xlink:href="#m9ebc69afde" x="217.957598" y="384.1975" style="stroke: #000000; stroke-width: 0.8"/>
      </g>
     </g>
     <g id="text_4">
      <!-- Apr -->
      <g transform="translate(209.307598 398.795937) scale(0.1 -0.1)">
       <defs>
        <path id="DejaVuSans-41" d="M 2188 4044 
L 1331 1722 
L 3047 1722 
L 2188 4044 
z
M 1831 4666 
L 2547 4666 
L 4325 0 
L 3669 0 
L 3244 1197 
L 1141 1197 
L 716 0 
L 50 0 
L 1831 4666 
z
" transform="scale(0.015625)"/>
        <path id="DejaVuSans-70" d="M 1159 525 
L 1159 -1331 
L 581 -1331 
L 581 3500 
L 1159 3500 
L 1159 2969 
Q 1341 3281 1617 3432 
Q 1894 3584 2278 3584 
Q 2916 3584 3314 3078 
Q 3713 2572 3713 1747 
Q 3713 922 3314 415 
Q 2916 -91 2278 -91 
Q 1894 -91 1617 61 
Q 1341 213 1159 525 
z
M 3116 1747 
Q 3116 2381 2855 2742 
Q 2594 3103 2138 3103 
Q 1681 3103 1420 2742 
Q 1159 2381 1159 1747 
Q 1159 1113 1420 752 
Q 1681 391 2138 391 
Q 2594 391 2855 752 
Q 3116 1113 3116 1747 
z
" transform="scale(0.015625)"/>
       </defs>
       <use xlink:href="#DejaVuSans-41"/>
       <use xlink:href="#DejaVuSans-70" transform="translate(68.408203 0)"/>
       <use xlink:href="#DejaVuSans-72" transform="translate(131.884766 0)"/>
      </g>
     </g>
    </g>
    <g id="xtick_5">
     <g id="line2d_9">
      <path d="M 270.068047 384.1975 
L 270.068047 39.3575 
" clip-path="url(#pbf496854e7)" style="fill: none; stroke-dasharray: 2.96,1.28; stroke-dashoffset: 0; stroke: #b0b0b0; stroke-opacity: 0.3; stroke-width: 0.8"/>
     </g>
     <g id="line2d_10">
      <g>
       <use xlink:href="#m9ebc69afde" x="270.068047" y="384.1975" style="stroke: #000000; stroke-width: 0.8"/>
      </g>
     </g>
     <g id="text_5">
      <!-- May -->
      <g transform="translate(259.730547 398.795937) scale(0.1 -0.1)">
       <defs>
        <path id="DejaVuSans-79" d="M 2059 -325 
Q 1816 -950 1584 -1140 
Q 1353 -1331 966 -1331 
L 506 -1331 
L 506 -850 
L 844 -850 
Q 1081 -850 1212 -737 
Q 1344 -625 1503 -206 
L 1606 56 
L 191 3500 
L 800 3500 
L 1894 763 
L 2988 3500 
L 3597 3500 
L 2059 -325 
z
" transform="scale(0.015625)"/>
       </defs>
       <use xlink:href="#DejaVuSans-4d"/>
       <use xlink:href="#DejaVuSans-61" transform="translate(86.279297 0)"/>
       <use xlink:href="#DejaVuSans-79" transform="translate(147.558594 0)"/>
      </g>
     </g>
    </g>
    <g id="xtick_6">
     <g id="line2d_11">
      <path d="M 323.915511 384.1975 
L 323.915511 39.3575 
" clip-path="url(#pbf496854e7)" style="fill: none; stroke-dasharray: 2.96,1.28; stroke-dashoffset: 0; stroke: #b0b0b0; stroke-opacity: 0.3; stroke-width: 0.8"/>
     </g>
     <g id="line2d_12">
      <g>
       <use xlink:href="#m9ebc69afde" x="323.915511" y="384.1975" style="stroke: #000000; stroke-width: 0.8"/>
      </g>
     </g>
     <g id="text_6">
      <!-- Jun -->
      <g transform="translate(316.103011 398.795937) scale(0.1 -0.1)">
       <defs>
        <path id="DejaVuSans-75" d="M 544 1381 
L 544 3500 
L 1119 3500 
L 1119 1403 
Q 1119 906 1312 657 
Q 1506 409 1894 409 
Q 2359 409 2629 706 
Q 2900 1003 2900 1516 
L 2900 3500 
L 3475 3500 
L 3475 0 
L 2900 0 
L 2900 538 
Q 2691 219 2414 64 
Q 2138 -91 1772 -91 
Q 1169 -91 856 284 
Q 544 659 544 1381 
z
M 1991 3584 
L 1991 3584 
z
" transform="scale(0.015625)"/>
       </defs>
       <use xlink:href="#DejaVuSans-4a"/>
       <use xlink:href="#DejaVuSans-75" transform="translate(29.492188 0)"/>
       <use xlink:href="#DejaVuSans-6e" transform="translate(92.871094 0)"/>
      </g>
     </g>
    </g>
    <g id="xtick_7">
     <g id="line2d_13">
      <path d="M 376.02596 384.1975 
L 376.02596 39.3575 
" clip-path="url(#pbf496854e7)" style="fill: none; stroke-dasharray: 2.96,1.28; stroke-dashoffset: 0; stroke: #b0b0b0; stroke-opacity: 0.3; stroke-width: 0.8"/>
     </g>
     <g id="line2d_14">
      <g>
       <use xlink:href="#m9ebc69afde" x="376.02596" y="384.1975" style="stroke: #000000; stroke-width: 0.8"/>
      </g>
     </g>
     <g id="text_7">
      <!-- Jul -->
      <g transform="translate(369.993148 398.795937) scale(0.1 -0.1)">
       <defs>
        <path id="DejaVuSans-6c" d="M 603 4863 
L 1178 4863 
L 1178 0 
L 603 0 
L 603 4863 
z
" transform="scale(0.015625)"/>
       </defs>
       <use xlink:href="#DejaVuSans-4a"/>
       <use xlink:href="#DejaVuSans-75" transform="translate(29.492188 0)"/>
       <use xlink:href="#DejaVuSans-6c" transform="translate(92.871094 0)"/>
      </g>
     </g>
    </g>
    <g id="xtick_8">
     <g id="line2d_15">
      <path d="M 429.873425 384.1975 
L 429.873425 39.3575 
" clip-path="url(#pbf496854e7)" style="fill: none; stroke-dasharray: 2.96,1.28; stroke-dashoffset: 0; stroke: #b0b0b0; stroke-opacity: 0.3; stroke-width: 0.8"/>
     </g>
     <g id="line2d_16">
      <g>
       <use xlink:href="#m9ebc69afde" x="429.873425" y="384.1975" style="stroke: #000000; stroke-width: 0.8"/>
      </g>
     </g>
     <g id="text_8">
      <!-- Aug -->
      <g transform="translate(420.110143 398.795937) scale(0.1 -0.1)">
       <defs>
        <path id="DejaVuSans-67" d="M 2906 1791 
Q 2906 2416 2648 2759 
Q 2391 3103 1925 3103 
Q 1463 3103 1205 2759 
Q 947 2416 947 1791 
Q 947 1169 1205 825 
Q 1463 481 1925 481 
Q 2391 481 2648 825 
Q 2906 1169 2906 1791 
z
M 3481 434 
Q 3481 -459 3084 -895 
Q 2688 -1331 1869 -1331 
Q 1566 -1331 1297 -1286 
Q 1028 -1241 775 -1147 
L 775 -588 
Q 1028 -725 1275 -790 
Q 1522 -856 1778 -856 
Q 2344 -856 2625 -561 
Q 2906 -266 2906 331 
L 2906 616 
Q 2728 306 2450 153 
Q 2172 0 1784 0 
Q 1141 0 747 490 
Q 353 981 353 1791 
Q 353 2603 747 3093 
Q 1141 3584 1784 3584 
Q 2172 3584 2450 3431 
Q 2728 3278 2906 2969 
L 2906 3500 
L 3481 3500 
L 3481 434 
z
" transform="scale(0.015625)"/>
       </defs>
       <use xlink:href="#DejaVuSans-41"/>
       <use xlink:href="#DejaVuSans-75" transform="translate(68.408203 0)"/>
       <use xlink:href="#DejaVuSans-67" transform="translate(131.787109 0)"/>
      </g>
     </g>
    </g>
    <g id="xtick_9">
     <g id="line2d_17">
      <path d="M 483.720889 384.1975 
L 483.720889 39.3575 
" clip-path="url(#pbf496854e7)" style="fill: none; stroke-dasharray: 2.96,1.28; stroke-dashoffset: 0; stroke: #b0b0b0; stroke-opacity: 0.3; stroke-width: 0.8"/>
     </g>
     <g id="line2d_18">
      <g>
       <use xlink:href="#m9ebc69afde" x="483.720889" y="384.1975" style="stroke: #000000; stroke-width: 0.8"/>
      </g>
     </g>
     <g id="text_9">
      <!-- Sep -->
      <g transform="translate(474.295889 398.795937) scale(0.1 -0.1)">
       <defs>
        <path id="DejaVuSans-53" d="M 3425 4513 
L 3425 3897 
Q 3066 4069 2747 4153 
Q 2428 4238 2131 4238 
Q 1616 4238 1336 4038 
Q 1056 3838 1056 3469 
Q 1056 3159 1242 3001 
Q 1428 2844 1947 2747 
L 2328 2669 
Q 3034 2534 3370 2195 
Q 3706 1856 3706 1288 
Q 3706 609 3251 259 
Q 2797 -91 1919 -91 
Q 1588 -91 1214 -16 
Q 841 59 441 206 
L 441 856 
Q 825 641 1194 531 
Q 1563 422 1919 422 
Q 2459 422 2753 634 
Q 3047 847 3047 1241 
Q 3047 1584 2836 1778 
Q 2625 1972 2144 2069 
L 1759 2144 
Q 1053 2284 737 2584 
Q 422 2884 422 3419 
Q 422 4038 858 4394 
Q 1294 4750 2059 4750 
Q 2388 4750 2728 4690 
Q 3069 4631 3425 4513 
z
" transform="scale(0.015625)"/>
       </defs>
       <use xlink:href="#DejaVuSans-53"/>
       <use xlink:href="#DejaVuSans-65" transform="translate(63.476562 0)"/>
       <use xlink:href="#DejaVuSans-70" transform="translate(125 0)"/>
      </g>
     </g>
    </g>
    <g id="xtick_10">
     <g id="line2d_19">
      <path d="M 535.831338 384.1975 
L 535.831338 39.3575 
" clip-path="url(#pbf496854e7)" style="fill: none; stroke-dasharray: 2.96,1.28; stroke-dashoffset: 0; stroke: #b0b0b0; stroke-opacity: 0.3; stroke-width: 0.8"/>
     </g>
     <g id="line2d_20">
      <g>
       <use xlink:href="#m9ebc69afde" x="535.831338" y="384.1975" style="stroke: #000000; stroke-width: 0.8"/>
      </g>
     </g>
     <g id="text_10">
      <!-- Oct -->
      <g transform="translate(527.186026 398.795937) scale(0.1 -0.1)">
       <defs>
        <path id="DejaVuSans-4f" d="M 2522 4238 
Q 1834 4238 1429 3725 
Q 1025 3213 1025 2328 
Q 1025 1447 1429 934 
Q 1834 422 2522 422 
Q 3209 422 3611 934 
Q 4013 1447 4013 2328 
Q 4013 3213 3611 3725 
Q 3209 4238 2522 4238 
z
M 2522 4750 
Q 3503 4750 4090 4092 
Q 4678 3434 4678 2328 
Q 4678 1225 4090 567 
Q 3503 -91 2522 -91 
Q 1538 -91 948 565 
Q 359 1222 359 2328 
Q 359 3434 948 4092 
Q 1538 4750 2522 4750 
z
" transform="scale(0.015625)"/>
        <path id="DejaVuSans-63" d="M 3122 3366 
L 3122 2828 
Q 2878 2963 2633 3030 
Q 2388 3097 2138 3097 
Q 1578 3097 1268 2742 
Q 959 2388 959 1747 
Q 959 1106 1268 751 
Q 1578 397 2138 397 
Q 2388 397 2633 464 
Q 2878 531 3122 666 
L 3122 134 
Q 2881 22 2623 -34 
Q 2366 -91 2075 -91 
Q 1284 -91 818 406 
Q 353 903 353 1747 
Q 353 2603 823 3093 
Q 1294 3584 2113 3584 
Q 2378 3584 2631 3529 
Q 2884 3475 3122 3366 
z
" transform="scale(0.015625)"/>
        <path id="DejaVuSans-74" d="M 1172 4494 
L 1172 3500 
L 2356 3500 
L 2356 3053 
L 1172 3053 
L 1172 1153 
Q 1172 725 1289 603 
Q 1406 481 1766 481 
L 2356 481 
L 2356 0 
L 1766 0 
Q 1100 0 847 248 
Q 594 497 594 1153 
L 594 3053 
L 172 3053 
L 172 3500 
L 594 3500 
L 594 4494 
L 1172 4494 
z
" transform="scale(0.015625)"/>
       </defs>
       <use xlink:href="#DejaVuSans-4f"/>
       <use xlink:href="#DejaVuSans-63" transform="translate(78.710938 0)"/>
       <use xlink:href="#DejaVuSans-74" transform="translate(133.691406 0)"/>
      </g>
     </g>
    </g>
    <g id="xtick_11">
     <g id="line2d_21">
      <path d="M 589.678802 384.1975 
L 589.678802 39.3575 
" clip-path="url(#pbf496854e7)" style="fill: none; stroke-dasharray: 2.96,1.28; stroke-dashoffset: 0; stroke: #b0b0b0; stroke-opacity: 0.3; stroke-width: 0.8"/>
     </g>
     <g id="line2d_22">
      <g>
       <use xlink:href="#m9ebc69afde" x="589.678802" y="384.1975" style="stroke: #000000; stroke-width: 0.8"/>
      </g>
     </g>
     <g id="text_11">
      <!-- Nov -->
      <g transform="translate(579.919427 398.795937) scale(0.1 -0.1)">
       <defs>
        <path id="DejaVuSans-4e" d="M 628 4666 
L 1478 4666 
L 3547 763 
L 3547 4666 
L 4159 4666 
L 4159 0 
L 3309 0 
L 1241 3903 
L 1241 0 
L 628 0 
L 628 4666 
z
" transform="scale(0.015625)"/>
        <path id="DejaVuSans-6f" d="M 1959 3097 
Q 1497 3097 1228 2736 
Q 959 2375 959 1747 
Q 959 1119 1226 758 
Q 1494 397 1959 397 
Q 2419 397 2687 759 
Q 2956 1122 2956 1747 
Q 2956 2369 2687 2733 
Q 2419 3097 1959 3097 
z
M 1959 3584 
Q 2709 3584 3137 3096 
Q 3566 2609 3566 1747 
Q 3566 888 3137 398 
Q 2709 -91 1959 -91 
Q 1206 -91 779 398 
Q 353 888 353 1747 
Q 353 2609 779 3096 
Q 1206 3584 1959 3584 
z
" transform="scale(0.015625)"/>
        <path id="DejaVuSans-76" d="M 191 3500 
L 800 3500 
L 1894 563 
L 2988 3500 
L 3597 3500 
L 2284 0 
L 1503 0 
L 191 3500 
z
" transform="scale(0.015625)"/>
       </defs>
       <use xlink:href="#DejaVuSans-4e"/>
       <use xlink:href="#DejaVuSans-6f" transform="translate(74.804688 0)"/>
       <use xlink:href="#DejaVuSans-76" transform="translate(135.986328 0)"/>
      </g>
     </g>
    </g>
    <g id="xtick_12">
     <g id="line2d_23">
      <path d="M 641.789251 384.1975 
L 641.789251 39.3575 
" clip-path="url(#pbf496854e7)" style="fill: none; stroke-dasharray: 2.96,1.28; stroke-dashoffset: 0; stroke: #b0b0b0; stroke-opacity: 0.3; stroke-width: 0.8"/>
     </g>
     <g id="line2d_24">
      <g>
       <use xlink:href="#m9ebc69afde" x="641.789251" y="384.1975" style="stroke: #000000; stroke-width: 0.8"/>
      </g>
     </g>
     <g id="text_12">
      <!-- Dec -->
      <g transform="translate(632.11347 398.795937) scale(0.1 -0.1)">
       <defs>
        <path id="DejaVuSans-44" d="M 1259 4147 
L 1259 519 
L 2022 519 
Q 2988 519 3436 956 
Q 3884 1394 3884 2338 
Q 3884 3275 3436 3711 
Q 2988 4147 2022 4147 
L 1259 4147 
z
M 628 4666 
L 1925 4666 
Q 3281 4666 3915 4102 
Q 4550 3538 4550 2338 
Q 4550 1131 3912 565 
Q 3275 0 1925 0 
L 628 0 
L 628 4666 
z
" transform="scale(0.015625)"/>
       </defs>
       <use xlink:href="#DejaVuSans-44"/>
       <use xlink:href="#DejaVuSans-65" transform="translate(77.001953 0)"/>
       <use xlink:href="#DejaVuSans-63" transform="translate(138.525391 0)"/>
      </g>
     </g>
    </g>
    <g id="xtick_13">
     <g id="line2d_25">
      <path d="M 695.636716 384.1975 
L 695.636716 39.3575 
" clip-path="url(#pbf496854e7)" style="fill: none; stroke-dasharray: 2.96,1.28; stroke-dashoffset: 0; stroke: #b0b0b0; stroke-opacity: 0.3; stroke-width: 0.8"/>
     </g>
     <g id="line2d_26">
      <g>
       <use xlink:href="#m9ebc69afde" x="695.636716" y="384.1975" style="stroke: #000000; stroke-width: 0.8"/>
      </g>
     </g>
     <g id="text_13">
      <!-- Jan -->
      <g transform="translate(687.928903 398.795937) scale(0.1 -0.1)">
       <use xlink:href="#DejaVuSans-4a"/>
       <use xlink:href="#DejaVuSans-61" transform="translate(29.492188 0)"/>
       <use xlink:href="#DejaVuSans-6e" transform="translate(90.771484 0)"/>
      </g>
     </g>
    </g>
    <g id="text_14">
     <!-- Day of the year -->
     <g transform="translate(336.388708 413.99375) scale(0.12 -0.12)">
      <defs>
       <path id="DejaVuSans-20" transform="scale(0.015625)"/>
       <path id="DejaVuSans-66" d="M 2375 4863 
L 2375 4384 
L 1825 4384 
Q 1516 4384 1395 4259 
Q 1275 4134 1275 3809 
L 1275 3500 
L 2222 3500 
L 2222 3053 
L 1275 3053 
L 1275 0 
L 697 0 
L 697 3053 
L 147 3053 
L 147 3500 
L 697 3500 
L 697 3744 
Q 697 4328 969 4595 
Q 1241 4863 1831 4863 
L 2375 4863 
z
" transform="scale(0.015625)"/>
       <path id="DejaVuSans-68" d="M 3513 2113 
L 3513 0 
L 2938 0 
L 2938 2094 
Q 2938 2591 2744 2837 
Q 2550 3084 2163 3084 
Q 1697 3084 1428 2787 
Q 1159 2491 1159 1978 
L 1159 0 
L 581 0 
L 581 4863 
L 1159 4863 
L 1159 2956 
Q 1366 3272 1645 3428 
Q 1925 3584 2291 3584 
Q 2894 3584 3203 3211 
Q 3513 2838 3513 2113 
z
" transform="scale(0.015625)"/>
      </defs>
      <use xlink:href="#DejaVuSans-44"/>
      <use xlink:href="#DejaVuSans-61" transform="translate(77.001953 0)"/>
      <use xlink:href="#DejaVuSans-79" transform="translate(138.28125 0)"/>
      <use xlink:href="#DejaVuSans-20" transform="translate(197.460938 0)"/>
      <use xlink:href="#DejaVuSans-6f" transform="translate(229.248047 0)"/>
      <use xlink:href="#DejaVuSans-66" transform="translate(290.429688 0)"/>
      <use xlink:href="#DejaVuSans-20" transform="translate(325.634766 0)"/>
      <use xlink:href="#DejaVuSans-74" transform="translate(357.421875 0)"/>
      <use xlink:href="#DejaVuSans-68" transform="translate(396.630859 0)"/>
      <use xlink:href="#DejaVuSans-65" transform="translate(460.009766 0)"/>
      <use xlink:href="#DejaVuSans-20" transform="translate(521.533203 0)"/>
      <use xlink:href="#DejaVuSans-79" transform="translate(553.320312 0)"/>
      <use xlink:href="#DejaVuSans-65" transform="translate(612.5 0)"/>
      <use xlink:href="#DejaVuSans-61" transform="translate(674.023438 0)"/>
      <use xlink:href="#DejaVuSans-72" transform="translate(735.302734 0)"/>
     </g>
    </g>
   </g>
   <g id="matplotlib.axis_2">
    <g id="ytick_1">
     <g id="line2d_27">
      <path d="M 61.62625 384.1975 
L 704.321791 384.1975 
" clip-path="url(#pbf496854e7)" style="fill: none; stroke-dasharray: 2.96,1.28; stroke-dashoffset: 0; stroke: #b0b0b0; stroke-opacity: 0.3; stroke-width: 0.8"/>
     </g>
     <g id="line2d_28">
      <defs>
       <path id="m610b1b8f4d" d="M 0 0 
L -3.5 0 
" style="stroke: #000000; stroke-width: 0.8"/>
      </defs>
      <g>
       <use xlink:href="#m610b1b8f4d" x="61.62625" y="384.1975" style="stroke: #000000; stroke-width: 0.8"/>
      </g>
     </g>
     <g id="text_15">
      <!-- 0 -->
      <g transform="translate(48.26375 387.996719) scale(0.1 -0.1)">
       <defs>
        <path id="DejaVuSans-30" d="M 2034 4250 
Q 1547 4250 1301 3770 
Q 1056 3291 1056 2328 
Q 1056 1369 1301 889 
Q 1547 409 2034 409 
Q 2525 409 2770 889 
Q 3016 1369 3016 2328 
Q 3016 3291 2770 3770 
Q 2525 4250 2034 4250 
z
M 2034 4750 
Q 2819 4750 3233 4129 
Q 3647 3509 3647 2328 
Q 3647 1150 3233 529 
Q 2819 -91 2034 -91 
Q 1250 -91 836 529 
Q 422 1150 422 2328 
Q 422 3509 836 4129 
Q 1250 4750 2034 4750 
z
" transform="scale(0.015625)"/>
       </defs>
       <use xlink:href="#DejaVuSans-30"/>
      </g>
     </g>
    </g>
    <g id="ytick_2">
     <g id="line2d_29">
      <path d="M 61.62625 340.481986 
L 704.321791 340.481986 
" clip-path="url(#pbf496854e7)" style="fill: none; stroke-dasharray: 2.96,1.28; stroke-dashoffset: 0; stroke: #b0b0b0; stroke-opacity: 0.3; stroke-width: 0.8"/>
     </g>
     <g id="line2d_30">
      <g>
       <use xlink:href="#m610b1b8f4d" x="61.62625" y="340.481986" style="stroke: #000000; stroke-width: 0.8"/>
      </g>
     </g>
     <g id="text_16">
      <!-- 2000 -->
      <g transform="translate(29.17625 344.281204) scale(0.1 -0.1)">
       <defs>
        <path id="DejaVuSans-32" d="M 1228 531 
L 3431 531 
L 3431 0 
L 469 0 
L 469 531 
Q 828 903 1448 1529 
Q 2069 2156 2228 2338 
Q 2531 2678 2651 2914 
Q 2772 3150 2772 3378 
Q 2772 3750 2511 3984 
Q 2250 4219 1831 4219 
Q 1534 4219 1204 4116 
Q 875 4013 500 3803 
L 500 4441 
Q 881 4594 1212 4672 
Q 1544 4750 1819 4750 
Q 2544 4750 2975 4387 
Q 3406 4025 3406 3419 
Q 3406 3131 3298 2873 
Q 3191 2616 2906 2266 
Q 2828 2175 2409 1742 
Q 1991 1309 1228 531 
z
" transform="scale(0.015625)"/>
       </defs>
       <use xlink:href="#DejaVuSans-32"/>
       <use xlink:href="#DejaVuSans-30" transform="translate(63.623047 0)"/>
       <use xlink:href="#DejaVuSans-30" transform="translate(127.246094 0)"/>
       <use xlink:href="#DejaVuSans-30" transform="translate(190.869141 0)"/>
      </g>
     </g>
    </g>
    <g id="ytick_3">
     <g id="line2d_31">
      <path d="M 61.62625 296.766471 
L 704.321791 296.766471 
" clip-path="url(#pbf496854e7)" style="fill: none; stroke-dasharray: 2.96,1.28; stroke-dashoffset: 0; stroke: #b0b0b0; stroke-opacity: 0.3; stroke-width: 0.8"/>
     </g>
     <g id="line2d_32">
      <g>
       <use xlink:href="#m610b1b8f4d" x="61.62625" y="296.766471" style="stroke: #000000; stroke-width: 0.8"/>
      </g>
     </g>
     <g id="text_17">
      <!-- 4000 -->
      <g transform="translate(29.17625 300.56569) scale(0.1 -0.1)">
       <defs>
        <path id="DejaVuSans-34" d="M 2419 4116 
L 825 1625 
L 2419 1625 
L 2419 4116 
z
M 2253 4666 
L 3047 4666 
L 3047 1625 
L 3713 1625 
L 3713 1100 
L 3047 1100 
L 3047 0 
L 2419 0 
L 2419 1100 
L 313 1100 
L 313 1709 
L 2253 4666 
z
" transform="scale(0.015625)"/>
       </defs>
       <use xlink:href="#DejaVuSans-34"/>
       <use xlink:href="#DejaVuSans-30" transform="translate(63.623047 0)"/>
       <use xlink:href="#DejaVuSans-30" transform="translate(127.246094 0)"/>
       <use xlink:href="#DejaVuSans-30" transform="translate(190.869141 0)"/>
      </g>
     </g>
    </g>
    <g id="ytick_4">
     <g id="line2d_33">
      <path d="M 61.62625 253.050957 
L 704.321791 253.050957 
" clip-path="url(#pbf496854e7)" style="fill: none; stroke-dasharray: 2.96,1.28; stroke-dashoffset: 0; stroke: #b0b0b0; stroke-opacity: 0.3; stroke-width: 0.8"/>
     </g>
     <g id="line2d_34">
      <g>
       <use xlink:href="#m610b1b8f4d" x="61.62625" y="253.050957" style="stroke: #000000; stroke-width: 0.8"/>
      </g>
     </g>
     <g id="text_18">
      <!-- 6000 -->
      <g transform="translate(29.17625 256.850175) scale(0.1 -0.1)">
       <defs>
        <path id="DejaVuSans-36" d="M 2113 2584 
Q 1688 2584 1439 2293 
Q 1191 2003 1191 1497 
Q 1191 994 1439 701 
Q 1688 409 2113 409 
Q 2538 409 2786 701 
Q 3034 994 3034 1497 
Q 3034 2003 2786 2293 
Q 2538 2584 2113 2584 
z
M 3366 4563 
L 3366 3988 
Q 3128 4100 2886 4159 
Q 2644 4219 2406 4219 
Q 1781 4219 1451 3797 
Q 1122 3375 1075 2522 
Q 1259 2794 1537 2939 
Q 1816 3084 2150 3084 
Q 2853 3084 3261 2657 
Q 3669 2231 3669 1497 
Q 3669 778 3244 343 
Q 2819 -91 2113 -91 
Q 1303 -91 875 529 
Q 447 1150 447 2328 
Q 447 3434 972 4092 
Q 1497 4750 2381 4750 
Q 2619 4750 2861 4703 
Q 3103 4656 3366 4563 
z
" transform="scale(0.015625)"/>
       </defs>
       <use xlink:href="#DejaVuSans-36"/>
       <use xlink:href="#DejaVuSans-30" transform="translate(63.623047 0)"/>
       <use xlink:href="#DejaVuSans-30" transform="translate(127.246094 0)"/>
       <use xlink:href="#DejaVuSans-30" transform="translate(190.869141 0)"/>
      </g>
     </g>
    </g>
    <g id="ytick_5">
     <g id="line2d_35">
      <path d="M 61.62625 209.335442 
L 704.321791 209.335442 
" clip-path="url(#pbf496854e7)" style="fill: none; stroke-dasharray: 2.96,1.28; stroke-dashoffset: 0; stroke: #b0b0b0; stroke-opacity: 0.3; stroke-width: 0.8"/>
     </g>
     <g id="line2d_36">
      <g>
       <use xlink:href="#m610b1b8f4d" x="61.62625" y="209.335442" style="stroke: #000000; stroke-width: 0.8"/>
      </g>
     </g>
     <g id="text_19">
      <!-- 8000 -->
      <g transform="translate(29.17625 213.134661) scale(0.1 -0.1)">
       <defs>
        <path id="DejaVuSans-38" d="M 2034 2216 
Q 1584 2216 1326 1975 
Q 1069 1734 1069 1313 
Q 1069 891 1326 650 
Q 1584 409 2034 409 
Q 2484 409 2743 651 
Q 3003 894 3003 1313 
Q 3003 1734 2745 1975 
Q 2488 2216 2034 2216 
z
M 1403 2484 
Q 997 2584 770 2862 
Q 544 3141 544 3541 
Q 544 4100 942 4425 
Q 1341 4750 2034 4750 
Q 2731 4750 3128 4425 
Q 3525 4100 3525 3541 
Q 3525 3141 3298 2862 
Q 3072 2584 2669 2484 
Q 3125 2378 3379 2068 
Q 3634 1759 3634 1313 
Q 3634 634 3220 271 
Q 2806 -91 2034 -91 
Q 1263 -91 848 271 
Q 434 634 434 1313 
Q 434 1759 690 2068 
Q 947 2378 1403 2484 
z
M 1172 3481 
Q 1172 3119 1398 2916 
Q 1625 2713 2034 2713 
Q 2441 2713 2670 2916 
Q 2900 3119 2900 3481 
Q 2900 3844 2670 4047 
Q 2441 4250 2034 4250 
Q 1625 4250 1398 4047 
Q 1172 3844 1172 3481 
z
" transform="scale(0.015625)"/>
       </defs>
       <use xlink:href="#DejaVuSans-38"/>
       <use xlink:href="#DejaVuSans-30" transform="translate(63.623047 0)"/>
       <use xlink:href="#DejaVuSans-30" transform="translate(127.246094 0)"/>
       <use xlink:href="#DejaVuSans-30" transform="translate(190.869141 0)"/>
      </g>
     </g>
    </g>
    <g id="ytick_6">
     <g id="line2d_37">
      <path d="M 61.62625 165.619928 
L 704.321791 165.619928 
" clip-path="url(#pbf496854e7)" style="fill: none; stroke-dasharray: 2.96,1.28; stroke-dashoffset: 0; stroke: #b0b0b0; stroke-opacity: 0.3; stroke-width: 0.8"/>
     </g>
     <g id="line2d_38">
      <g>
       <use xlink:href="#m610b1b8f4d" x="61.62625" y="165.619928" style="stroke: #000000; stroke-width: 0.8"/>
      </g>
     </g>
     <g id="text_20">
      <!-- 10000 -->
      <g transform="translate(22.81375 169.419146) scale(0.1 -0.1)">
       <defs>
        <path id="DejaVuSans-31" d="M 794 531 
L 1825 531 
L 1825 4091 
L 703 3866 
L 703 4441 
L 1819 4666 
L 2450 4666 
L 2450 531 
L 3481 531 
L 3481 0 
L 794 0 
L 794 531 
z
" transform="scale(0.015625)"/>
       </defs>
       <use xlink:href="#DejaVuSans-31"/>
       <use xlink:href="#DejaVuSans-30" transform="translate(63.623047 0)"/>
       <use xlink:href="#DejaVuSans-30" transform="translate(127.246094 0)"/>
       <use xlink:href="#DejaVuSans-30" transform="translate(190.869141 0)"/>
       <use xlink:href="#DejaVuSans-30" transform="translate(254.492188 0)"/>
      </g>
     </g>
    </g>
    <g id="ytick_7">
     <g id="line2d_39">
      <path d="M 61.62625 121.904413 
L 704.321791 121.904413 
" clip-path="url(#pbf496854e7)" style="fill: none; stroke-dasharray: 2.96,1.28; stroke-dashoffset: 0; stroke: #b0b0b0; stroke-opacity: 0.3; stroke-width: 0.8"/>
     </g>
     <g id="line2d_40">
      <g>
       <use xlink:href="#m610b1b8f4d" x="61.62625" y="121.904413" style="stroke: #000000; stroke-width: 0.8"/>
      </g>
     </g>
     <g id="text_21">
      <!-- 12000 -->
      <g transform="translate(22.81375 125.703632) scale(0.1 -0.1)">
       <use xlink:href="#DejaVuSans-31"/>
       <use xlink:href="#DejaVuSans-32" transform="translate(63.623047 0)"/>
       <use xlink:href="#DejaVuSans-30" transform="translate(127.246094 0)"/>
       <use xlink:href="#DejaVuSans-30" transform="translate(190.869141 0)"/>
       <use xlink:href="#DejaVuSans-30" transform="translate(254.492188 0)"/>
      </g>
     </g>
    </g>
    <g id="ytick_8">
     <g id="line2d_41">
      <path d="M 61.62625 78.188899 
L 704.321791 78.188899 
" clip-path="url(#pbf496854e7)" style="fill: none; stroke-dasharray: 2.96,1.28; stroke-dashoffset: 0; stroke: #b0b0b0; stroke-opacity: 0.3; stroke-width: 0.8"/>
     </g>
     <g id="line2d_42">
      <g>
       <use xlink:href="#m610b1b8f4d" x="61.62625" y="78.188899" style="stroke: #000000; stroke-width: 0.8"/>
      </g>
     </g>
     <g id="text_22">
      <!-- 14000 -->
      <g transform="translate(22.81375 81.988117) scale(0.1 -0.1)">
       <use xlink:href="#DejaVuSans-31"/>
       <use xlink:href="#DejaVuSans-34" transform="translate(63.623047 0)"/>
       <use xlink:href="#DejaVuSans-30" transform="translate(127.246094 0)"/>
       <use xlink:href="#DejaVuSans-30" transform="translate(190.869141 0)"/>
       <use xlink:href="#DejaVuSans-30" transform="translate(254.492188 0)"/>
      </g>
     </g>
    </g>
    <g id="text_23">
     <!-- Daily pedestrian count -->
     <g transform="translate(16.318125 279.793125) rotate(-90) scale(0.12 -0.12)">
      <defs>
       <path id="DejaVuSans-69" d="M 603 3500 
L 1178 3500 
L 1178 0 
L 603 0 
L 603 3500 
z
M 603 4863 
L 1178 4863 
L 1178 4134 
L 603 4134 
L 603 4863 
z
" transform="scale(0.015625)"/>
       <path id="DejaVuSans-64" d="M 2906 2969 
L 2906 4863 
L 3481 4863 
L 3481 0 
L 2906 0 
L 2906 525 
Q 2725 213 2448 61 
Q 2172 -91 1784 -91 
Q 1150 -91 751 415 
Q 353 922 353 1747 
Q 353 2572 751 3078 
Q 1150 3584 1784 3584 
Q 2172 3584 2448 3432 
Q 2725 3281 2906 2969 
z
M 947 1747 
Q 947 1113 1208 752 
Q 1469 391 1925 391 
Q 2381 391 2643 752 
Q 2906 1113 2906 1747 
Q 2906 2381 2643 2742 
Q 2381 3103 1925 3103 
Q 1469 3103 1208 2742 
Q 947 2381 947 1747 
z
" transform="scale(0.015625)"/>
       <path id="DejaVuSans-73" d="M 2834 3397 
L 2834 2853 
Q 2591 2978 2328 3040 
Q 2066 3103 1784 3103 
Q 1356 3103 1142 2972 
Q 928 2841 928 2578 
Q 928 2378 1081 2264 
Q 1234 2150 1697 2047 
L 1894 2003 
Q 2506 1872 2764 1633 
Q 3022 1394 3022 966 
Q 3022 478 2636 193 
Q 2250 -91 1575 -91 
Q 1294 -91 989 -36 
Q 684 19 347 128 
L 347 722 
Q 666 556 975 473 
Q 1284 391 1588 391 
Q 1994 391 2212 530 
Q 2431 669 2431 922 
Q 2431 1156 2273 1281 
Q 2116 1406 1581 1522 
L 1381 1569 
Q 847 1681 609 1914 
Q 372 2147 372 2553 
Q 372 3047 722 3315 
Q 1072 3584 1716 3584 
Q 2034 3584 2315 3537 
Q 2597 3491 2834 3397 
z
" transform="scale(0.015625)"/>
      </defs>
      <use xlink:href="#DejaVuSans-44"/>
      <use xlink:href="#DejaVuSans-61" transform="translate(77.001953 0)"/>
      <use xlink:href="#DejaVuSans-69" transform="translate(138.28125 0)"/>
      <use xlink:href="#DejaVuSans-6c" transform="translate(166.064453 0)"/>
      <use xlink:href="#DejaVuSans-79" transform="translate(193.847656 0)"/>
      <use xlink:href="#DejaVuSans-20" transform="translate(253.027344 0)"/>
      <use xlink:href="#DejaVuSans-70" transform="translate(284.814453 0)"/>
      <use xlink:href="#DejaVuSans-65" transform="translate(348.291016 0)"/>
      <use xlink:href="#DejaVuSans-64" transform="translate(409.814453 0)"/>
      <use xlink:href="#DejaVuSans-65" transform="translate(473.291016 0)"/>
      <use xlink:href="#DejaVuSans-73" transform="translate(534.814453 0)"/>
      <use xlink:href="#DejaVuSans-74" transform="translate(586.914062 0)"/>
      <use xlink:href="#DejaVuSans-72" transform="translate(626.123047 0)"/>
      <use xlink:href="#DejaVuSans-69" transform="translate(667.236328 0)"/>
      <use xlink:href="#DejaVuSans-61" transform="translate(695.019531 0)"/>
      <use xlink:href="#DejaVuSans-6e" transform="translate(756.298828 0)"/>
      <use xlink:href="#DejaVuSans-20" transform="translate(819.677734 0)"/>
      <use xlink:href="#DejaVuSans-63" transform="translate(851.464844 0)"/>
      <use xlink:href="#DejaVuSans-6f" transform="translate(906.445312 0)"/>
      <use xlink:href="#DejaVuSans-75" transform="translate(967.626953 0)"/>
      <use xlink:href="#DejaVuSans-6e" transform="translate(1031.005859 0)"/>
      <use xlink:href="#DejaVuSans-74" transform="translate(1094.384766 0)"/>
     </g>
    </g>
   </g>
   <g id="line2d_43">
    <path d="M 63.363265 231.717785 
L 65.10028 242.799668 
L 66.837295 233.510122 
L 68.57431 271.455188 
L 70.311325 217.706963 
L 72.04834 228.635842 
L 73.785355 264.154697 
L 75.52237 269.269412 
L 77.259385 280.089002 
L 78.9964 270.471589 
L 80.733415 218.340838 
L 82.47043 223.870851 
L 84.207445 208.745283 
L 85.94446 270.012576 
L 87.681475 266.340473 
L 89.41849 259.455279 
L 91.155505 250.165733 
L 92.89252 238.340686 
L 94.629535 177.576121 
L 96.366549 191.827379 
L 98.103564 271.586335 
L 99.840579 264.679283 
L 101.577594 267.957947 
L 103.314609 267.324072 
L 105.051624 259.06184 
L 106.788639 192.701689 
L 108.525654 207.237097 
L 110.262669 248.657547 
L 111.999684 287.105342 
L 113.736699 301.990475 
L 115.473714 271.498904 
L 117.210729 238.428117 
L 118.947744 110.101224 
L 120.684759 244.766867 
L 122.421774 286.384036 
L 124.158789 270.515305 
L 125.895804 302.777354 
L 129.369834 236.74507 
L 131.106849 228.198687 
L 132.843864 216.810795 
L 134.580879 276.526188 
L 136.317894 284.088972 
L 138.054909 276.810339 
L 139.791924 231.761501 
L 141.528939 229.816161 
L 143.265954 187.324681 
L 145.002969 207.171524 
L 146.739984 268.504391 
L 148.476999 282.493356 
L 150.214014 268.744826 
L 151.951029 266.799486 
L 153.688044 224.810734 
L 155.425059 188.439426 
L 157.162074 213.64142 
L 158.899089 269.313128 
L 160.636104 276.919627 
L 162.373119 269.444274 
L 164.110133 260.482594 
L 165.847148 237.160367 
L 167.584163 201.728943 
L 169.321178 237.553807 
L 171.058193 282.318493 
L 172.795208 283.826679 
L 174.532223 277.619076 
L 176.269238 273.531675 
L 178.006253 249.138418 
L 179.743268 198.428421 
L 181.480283 210.187895 
L 184.954313 294.056109 
L 188.428343 274.537132 
L 190.165358 226.209631 
L 191.902373 170.690927 
L 193.639388 170.690927 
L 195.376403 269.116408 
L 197.113418 278.777537 
L 198.850433 270.930602 
L 200.587448 272.919658 
L 204.061478 199.739887 
L 205.798493 228.417264 
L 207.535508 291.586183 
L 209.272523 289.618984 
L 211.009538 268.460675 
L 212.746553 268.832257 
L 214.483568 253.356965 
L 216.220583 246.143905 
L 217.957598 225.859907 
L 219.694613 291.323889 
L 221.431628 280.198291 
L 223.168643 290.121713 
L 224.905658 282.274778 
L 226.642673 242.29694 
L 228.379688 237.182225 
L 230.116703 234.493721 
L 231.853717 292.1982 
L 233.590732 287.455066 
L 235.327747 270.253012 
L 237.064762 272.198352 
L 238.801777 222.646816 
L 240.538792 228.810704 
L 242.275807 233.247828 
L 244.012822 270.646451 
L 245.749837 249.029129 
L 247.486852 255.083728 
L 249.223867 238.646695 
L 250.960882 229.444579 
L 252.697897 171.215513 
L 254.434912 230.821617 
L 256.171927 265.00715 
L 257.908942 273.422386 
L 259.645957 252.613801 
L 261.382972 331.432874 
L 263.119987 261.488051 
L 264.857002 225.313463 
L 266.594017 261.2039 
L 268.331032 291.586183 
L 270.068047 286.187317 
L 271.805062 282.318493 
L 273.542077 278.996114 
L 275.279092 246.253194 
L 277.016107 210.62505 
L 278.753122 243.630263 
L 280.490137 296.351174 
L 282.227152 283.411381 
L 283.964167 285.269291 
L 285.701182 288.919536 
L 287.438197 272.198352 
L 289.175212 210.887343 
L 290.912227 215.870911 
L 292.649242 292.504208 
L 294.386257 283.433239 
L 296.123272 279.586274 
L 297.860287 274.209266 
L 299.597301 237.269656 
L 301.334316 204.723455 
L 304.808346 291.695471 
L 306.545361 282.624502 
L 308.282376 239.499147 
L 310.019391 271.739339 
L 311.756406 246.10019 
L 313.493421 243.236824 
L 315.230436 272.744796 
L 316.967451 300.28557 
L 318.704466 286.537041 
L 320.441481 291.236458 
L 322.178496 289.006967 
L 323.915511 251.433483 
L 325.652526 220.592187 
L 327.389541 274.580847 
L 329.126556 307.280052 
L 330.863571 285.968739 
L 332.600586 276.154606 
L 334.337601 285.334864 
L 336.074616 258.253103 
L 337.811631 212.286239 
L 339.548646 222.384523 
L 341.285661 287.039769 
L 343.022676 296.635324 
L 344.759691 304.307397 
L 346.496706 292.285631 
L 348.233721 261.466193 
L 349.970736 213.007545 
L 351.707751 272.591792 
L 353.444766 293.138083 
L 355.181781 295.651725 
L 356.918796 275.127291 
L 358.655811 285.400437 
L 360.392826 246.887069 
L 362.129841 240.745039 
L 363.866856 267.520792 
L 365.603871 284.220118 
L 367.340886 285.706446 
L 369.0779 276.613619 
L 370.814915 270.930602 
L 372.55193 248.63569 
L 374.288945 266.427904 
L 376.02596 257.291361 
L 377.762975 290.690015 
L 379.49999 287.848506 
L 381.237005 277.444214 
L 382.97402 279.695563 
L 384.711035 241.247768 
L 386.44805 206.056778 
L 388.185065 252.285935 
L 389.92208 276.50433 
L 391.659095 286.690045 
L 393.39611 285.903166 
L 395.133125 283.848537 
L 396.87014 250.755892 
L 398.607155 235.2806 
L 400.34417 282.558929 
L 402.081185 302.099764 
L 403.8182 296.263743 
L 405.555215 297.225484 
L 407.29223 279.782994 
L 409.029245 251.979926 
L 410.76626 227.805247 
L 414.24029 296.547893 
L 415.977305 303.323798 
L 417.71432 287.367635 
L 419.451335 274.821283 
L 421.18835 268.591822 
L 422.925365 210.23161 
L 424.66238 247.826953 
L 426.399395 299.564264 
L 428.13641 289.094398 
L 429.873425 283.651817 
L 431.61044 291.083454 
L 433.347455 253.837836 
L 435.08447 240.439031 
L 436.821484 258.843262 
L 438.558499 288.416808 
L 440.295514 296.373031 
L 442.032529 290.821161 
L 443.769544 285.815735 
L 445.506559 270.777598 
L 447.243574 252.810521 
L 448.980589 263.34596 
L 450.717604 288.897678 
L 452.454619 285.597157 
L 454.191634 278.711964 
L 455.928649 286.121743 
L 457.665664 263.171098 
L 459.402679 216.810795 
L 461.139694 260.941607 
L 462.876709 281.57533 
L 464.613724 279.695563 
L 466.350739 277.619076 
L 468.087754 273.269382 
L 469.824769 238.537406 
L 471.561784 220.635903 
L 473.298799 252.111073 
L 475.035814 291.083454 
L 476.772829 276.460615 
L 478.509844 300.176281 
L 480.246859 285.269291 
L 481.983874 237.378945 
L 483.720889 209.991175 
L 485.457904 229.226001 
L 487.194919 293.968678 
L 488.931934 283.826679 
L 490.668949 286.690045 
L 492.405964 276.154606 
L 494.142979 257.247646 
L 495.879994 253.466254 
L 497.617009 277.007058 
L 499.354024 288.373092 
L 501.091039 282.362209 
L 502.828054 266.559051 
L 504.565068 275.455158 
L 506.302083 255.979896 
L 508.039098 196.789089 
L 509.776113 270.602736 
L 511.513128 289.924993 
L 513.250143 292.87579 
L 514.987158 267.892374 
L 516.724173 263.630111 
L 518.461188 231.193199 
L 520.198203 242.384371 
L 521.935218 246.624776 
L 523.672233 290.821161 
L 525.409248 283.826679 
L 527.146263 264.963434 
L 528.883278 230.777902 
L 530.620293 256.591913 
L 532.357308 247.695806 
L 534.094323 231.258773 
L 535.831338 280.701019 
L 537.568353 257.313219 
L 539.305368 246.384341 
L 541.042383 239.302427 
L 542.779398 257.182073 
L 544.516413 190.953068 
L 546.253428 224.526583 
L 547.990443 285.575299 
L 549.727458 293.597096 
L 551.464473 277.597218 
L 553.201488 268.788542 
L 554.938503 230.952764 
L 556.675518 196.701658 
L 558.412533 205.991205 
L 560.149548 289.094398 
L 561.886563 268.504391 
L 563.623578 283.870394 
L 565.360593 280.941455 
L 567.097608 251.193047 
L 568.834623 236.613923 
L 570.571638 254.602857 
L 572.308652 281.160032 
L 574.045667 279.892282 
L 575.782682 230.40632 
L 577.519697 234.909018 
L 579.256712 233.728699 
L 580.993727 241.925358 
L 582.730742 256.548198 
L 584.467757 279.629989 
L 586.204772 262.580939 
L 587.941787 261.40062 
L 589.678802 246.209479 
L 591.415817 243.608405 
L 593.152832 253.706689 
L 594.889847 251.695776 
L 596.626862 277.531645 
L 598.363877 248.24225 
L 600.100892 277.77208 
L 601.837907 286.864907 
L 603.574922 262.493508 
L 605.311937 251.280478 
L 607.048952 249.050987 
L 608.785967 270.843171 
L 610.522982 286.974196 
L 612.259997 274.996145 
L 613.997012 261.2039 
L 615.734027 243.346112 
L 617.471042 210.996632 
L 619.208057 55.456831 
L 620.945072 270.996175 
L 622.682087 269.050835 
L 624.419102 232.111225 
L 626.156117 273.203809 
L 627.893132 241.750496 
L 629.630147 219.739735 
L 631.367162 154.844053 
L 633.104177 270.209296 
L 634.841192 282.558929 
L 636.578207 267.127352 
L 638.315222 266.056322 
L 640.052236 265.335016 
L 641.789251 228.176829 
L 643.526266 276.722908 
L 645.263281 287.083485 
L 647.000296 282.821222 
L 648.737311 276.854054 
L 650.474326 273.203809 
L 652.211341 260.723029 
L 653.948356 218.865424 
L 655.685371 208.373701 
L 657.422386 277.225636 
L 659.159401 275.586304 
L 662.633431 259.149271 
L 664.370446 238.100251 
L 666.107461 206.668796 
L 669.581491 259.039982 
L 671.318506 245.794181 
L 673.055521 249.663004 
L 674.792536 246.9745 
L 676.529551 263.783115 
L 678.266566 228.023825 
L 680.003581 233.81613 
L 681.740596 257.925236 
L 683.477611 272.416929 
L 685.214626 314.427539 
L 686.951641 257.728517 
L 688.688656 221.422782 
L 690.425671 195.040469 
L 692.162686 203.521279 
L 693.899701 267.739369 
L 695.636716 259.958008 
L 695.636716 259.958008 
" clip-path="url(#pbf496854e7)" style="fill: none; stroke: #0d6efc; stroke-opacity: 0.8; stroke-width: 2.5; stroke-linecap: square"/>
   </g>
   <g id="line2d_44">
    <path d="M 63.363265 291.629898 
L 65.10028 273.050804 
L 66.837295 244.023703 
L 68.57431 258.253103 
L 70.311325 284.657274 
L 72.04834 313.618802 
L 73.785355 282.711933 
L 75.52237 281.269321 
L 77.259385 280.154576 
L 78.9964 245.160306 
L 80.733415 220.592187 
L 82.47043 285.793877 
L 84.207445 299.739126 
L 85.94446 291.214601 
L 87.681475 299.586122 
L 89.41849 284.810278 
L 91.155505 264.832288 
L 92.89252 210.712481 
L 94.629535 266.624624 
L 96.366549 302.952216 
L 98.103564 303.957673 
L 99.840579 294.383975 
L 101.577594 294.318402 
L 103.314609 264.591852 
L 105.051624 214.865455 
L 106.788639 244.679436 
L 108.525654 298.493234 
L 110.262669 308.678949 
L 111.999684 306.274595 
L 113.736699 300.722725 
L 115.473714 270.274869 
L 117.210729 228.919993 
L 118.947744 276.176464 
L 120.684759 311.957612 
L 122.421774 326.034008 
L 124.158789 310.208992 
L 125.895804 301.575178 
L 127.632819 273.946972 
L 129.369834 222.646816 
L 131.106849 274.952429 
L 132.843864 310.427569 
L 134.580879 299.804699 
L 136.317894 300.547863 
L 138.054909 309.290966 
L 139.791924 267.673796 
L 141.528939 256.220331 
L 143.265954 270.799455 
L 145.002969 305.203565 
L 146.739984 309.83741 
L 148.476999 297.771928 
L 150.214014 293.378519 
L 151.951029 248.766836 
L 153.688044 218.056687 
L 155.425059 265.925176 
L 157.162074 298.318372 
L 158.899089 296.307458 
L 160.636104 296.220027 
L 162.373119 285.116286 
L 164.110133 251.870638 
L 165.847148 223.040256 
L 167.584163 252.941668 
L 169.321178 299.170824 
L 171.058193 297.181768 
L 172.795208 294.821131 
L 174.532223 290.646299 
L 176.269238 263.411533 
L 178.006253 231.215057 
L 179.743268 221.466497 
L 181.480283 283.017942 
L 183.217298 300.744583 
L 184.954313 301.006876 
L 190.165358 206.734369 
L 191.902373 267.236641 
L 193.639388 290.996023 
L 195.376403 294.689984 
L 197.113418 284.897709 
L 198.850433 300.67901 
L 202.324463 206.974804 
L 205.798493 305.050561 
L 207.535508 292.373062 
L 209.272523 284.045256 
L 211.009538 272.373214 
L 212.746553 248.089246 
L 214.483568 227.717816 
L 216.220583 250.122017 
L 217.957598 282.427782 
L 219.694613 287.170916 
L 221.431628 297.181768 
L 223.168643 298.8211 
L 226.642673 221.007484 
L 228.379688 231.848932 
L 230.116703 303.30194 
L 231.853717 295.892161 
L 233.590732 282.515213 
L 235.327747 274.056261 
L 238.801777 217.029373 
L 240.538792 253.335107 
L 242.275807 295.083424 
L 244.012822 284.504269 
L 245.749837 279.280265 
L 247.486852 255.25859 
L 249.223867 259.06184 
L 250.960882 231.105768 
L 252.697897 264.242128 
L 254.434912 280.526157 
L 256.171927 298.034221 
L 257.908942 290.646299 
L 259.645957 268.832257 
L 261.382972 268.351387 
L 263.119987 231.717785 
L 264.857002 273.116378 
L 266.594017 311.280022 
L 268.331032 316.416595 
L 270.068047 300.066992 
L 271.805062 286.340321 
L 273.542077 264.548137 
L 275.279092 229.619441 
L 277.016107 204.854602 
L 278.753122 306.099733 
L 280.490137 303.30194 
L 282.227152 304.372971 
L 283.964167 293.750101 
L 285.701182 259.324133 
L 287.438197 220.17689 
L 289.175212 210.734339 
L 290.912227 310.296423 
L 292.649242 302.23091 
L 294.386257 303.433087 
L 296.123272 302.099764 
L 297.860287 267.455219 
L 299.597301 263.892404 
L 301.334316 269.444274 
L 303.071331 310.03413 
L 304.808346 306.03416 
L 306.545361 297.924932 
L 308.282376 303.870242 
L 310.019391 276.176464 
L 311.756406 225.422751 
L 313.493421 266.427904 
L 315.230436 311.433026 
L 316.967451 320.416564 
L 318.704466 311.127018 
L 320.441481 304.657121 
L 322.178496 272.22021 
L 323.915511 227.368092 
L 325.652526 252.744948 
L 327.389541 343.214205 
L 330.863571 319.039526 
L 332.600586 305.400285 
L 334.337601 299.89213 
L 336.074616 359.651239 
L 337.811631 255.105586 
L 339.548646 304.198108 
L 341.285661 320.547711 
L 343.022676 312.088759 
L 346.496706 284.416838 
L 348.233721 266.143753 
L 349.970736 374.25222 
L 351.707751 318.187073 
L 353.444766 308.76638 
L 355.181781 295.564294 
L 356.918796 316.788177 
L 358.655811 359.323372 
L 360.392826 253.203961 
L 362.129841 283.892252 
L 363.866856 309.487686 
L 365.603871 314.449397 
L 367.340886 329.268956 
L 369.0779 310.099703 
L 370.814915 288.045226 
L 372.55193 252.307793 
L 374.288945 297.159911 
L 376.02596 377.443453 
L 377.762975 323.607797 
L 379.49999 341.684162 
L 381.237005 373.793208 
L 382.97402 283.083515 
L 384.711035 241.597492 
L 386.44805 218.887282 
L 388.185065 302.646208 
L 389.92208 307.367483 
L 391.659095 300.985018 
L 393.39611 302.558777 
L 395.133125 267.477076 
L 396.87014 220.220605 
L 398.607155 276.526188 
L 400.34417 305.050561 
L 402.081185 309.815552 
L 403.8182 298.318372 
L 405.555215 303.717238 
L 407.29223 255.389737 
L 409.029245 239.499147 
L 410.76626 264.81043 
L 412.503275 316.394737 
L 414.24029 332.044891 
L 415.977305 311.083302 
L 417.71432 300.045135 
L 421.18835 262.121926 
L 422.925365 287.71736 
L 424.66238 306.886613 
L 426.399395 297.640781 
L 428.13641 300.67901 
L 429.873425 290.908592 
L 431.61044 256.32962 
L 433.347455 232.54838 
L 435.08447 221.379066 
L 436.821484 308.154363 
L 438.558499 376.241276 
L 440.295514 308.438513 
L 442.032529 297.575208 
L 443.769544 267.14921 
L 445.506559 222.362665 
L 447.243574 251.236763 
L 448.980589 295.629868 
L 450.717604 316.635172 
L 452.454619 301.597035 
L 454.191634 288.985109 
L 455.928649 288.985109 
L 457.665664 245.204022 
L 459.402679 263.870546 
L 461.139694 307.520488 
L 462.876709 305.116134 
L 464.613724 298.777385 
L 466.350739 294.602553 
L 468.087754 270.056292 
L 469.824769 227.062083 
L 471.561784 258.777689 
L 473.298799 309.990414 
L 475.035814 321.33459 
L 476.772829 308.438513 
L 478.509844 303.411229 
L 480.246859 280.98517 
L 481.983874 250.253164 
L 483.720889 294.209113 
L 485.457904 313.64066 
L 487.194919 316.023155 
L 488.931934 311.280022 
L 490.668949 307.564203 
L 492.405964 275.214722 
L 494.142979 231.062053 
L 495.879994 261.00718 
L 497.617009 306.974044 
L 499.354024 310.361996 
L 501.091039 311.411168 
L 502.828054 305.815583 
L 504.565068 282.864937 
L 506.302083 241.116621 
L 508.039098 255.979896 
L 509.776113 303.30194 
L 511.513128 316.351022 
L 513.250143 305.006846 
L 514.987158 291.782902 
L 516.724173 281.400468 
L 518.461188 246.843353 
L 520.198203 283.586243 
L 521.935218 304.700837 
L 523.672233 300.700867 
L 525.409248 302.252768 
L 528.883278 248.04553 
L 530.620293 233.007393 
L 534.094323 288.613528 
L 535.831338 305.465858 
L 537.568353 294.624411 
L 539.305368 296.744613 
L 541.042383 251.630202 
L 542.779398 187.783693 
L 544.516413 235.870759 
L 546.253428 301.531462 
L 547.990443 295.41129 
L 549.727458 287.302062 
L 551.464473 287.170916 
L 554.938503 216.635933 
L 556.675518 269.597279 
L 558.412533 303.739096 
L 560.149548 301.487747 
L 561.886563 276.89777 
L 563.623578 294.995993 
L 565.360593 260.941607 
L 567.097608 193.969439 
L 568.834623 219.717877 
L 570.571638 307.607919 
L 572.308652 305.575147 
L 574.045667 317.72806 
L 575.782682 282.821222 
L 577.519697 264.788572 
L 579.256712 245.116591 
L 580.993727 291.739187 
L 582.730742 309.094246 
L 584.467757 304.810126 
L 586.204772 287.389493 
L 587.941787 287.761075 
L 589.678802 236.810643 
L 593.152832 204.242585 
L 594.889847 295.01785 
L 596.626862 309.618832 
L 598.363877 290.73373 
L 600.100892 286.143601 
L 601.837907 267.739369 
L 603.574922 290.449579 
L 605.311937 278.252951 
L 607.048952 306.03416 
L 608.785967 309.509544 
L 610.522982 293.181799 
L 612.259997 281.859481 
L 613.997012 257.269504 
L 615.734027 221.772506 
L 617.471042 287.673644 
L 619.208057 304.941272 
L 620.945072 301.662609 
L 622.682087 287.608071 
L 624.419102 292.67907 
L 626.156117 261.072753 
L 627.893132 226.79979 
L 629.630147 262.07821 
L 631.367162 288.176372 
L 633.104177 297.444062 
L 634.841192 302.580634 
L 636.578207 295.083424 
L 638.315222 291.498752 
L 640.052236 248.43897 
L 641.789251 292.067053 
L 643.526266 319.258103 
L 645.263281 294.580695 
L 647.000296 290.515152 
L 648.737311 297.640781 
L 650.474326 274.886856 
L 652.211341 269.88143 
L 653.948356 235.324315 
L 655.685371 302.296484 
L 657.422386 304.76641 
L 659.159401 297.924932 
L 660.896416 292.241915 
L 662.633431 244.963586 
L 664.370446 263.280387 
L 666.107461 274.537132 
L 667.844476 304.744552 
L 671.318506 279.170976 
L 673.055521 287.433209 
L 674.792536 258.493538 
L 676.529551 247.564659 
L 678.266566 308.700806 
L 680.003581 277.706507 
L 681.740596 282.427782 
L 683.477611 308.722664 
L 685.214626 336.919171 
L 686.951641 297.400346 
L 688.688656 205.903774 
L 690.425671 217.925541 
L 692.162686 251.236763 
L 693.899701 276.285753 
L 695.636716 293.706385 
L 695.636716 293.706385 
" clip-path="url(#pbf496854e7)" style="fill: none; stroke: #83c966; stroke-opacity: 0.8; stroke-width: 2.5; stroke-linecap: square"/>
   </g>
   <g id="patch_3">
    <path d="M 61.62625 384.1975 
L 61.62625 39.3575 
" style="fill: none; stroke: #000000; stroke-width: 0.8; stroke-linejoin: miter; stroke-linecap: square"/>
   </g>
   <g id="patch_4">
    <path d="M 61.62625 384.1975 
L 704.321791 384.1975 
" style="fill: none; stroke: #000000; stroke-width: 0.8; stroke-linejoin: miter; stroke-linecap: square"/>
   </g>
   <g id="text_24">
    <!-- Pedestrian Traffic at Lygon St (West) -->
    <g transform="translate(238.19652 19.3575) scale(0.16 -0.16)">
     <defs>
      <path id="DejaVuSans-50" d="M 1259 4147 
L 1259 2394 
L 2053 2394 
Q 2494 2394 2734 2622 
Q 2975 2850 2975 3272 
Q 2975 3691 2734 3919 
Q 2494 4147 2053 4147 
L 1259 4147 
z
M 628 4666 
L 2053 4666 
Q 2838 4666 3239 4311 
Q 3641 3956 3641 3272 
Q 3641 2581 3239 2228 
Q 2838 1875 2053 1875 
L 1259 1875 
L 1259 0 
L 628 0 
L 628 4666 
z
" transform="scale(0.015625)"/>
      <path id="DejaVuSans-54" d="M -19 4666 
L 3928 4666 
L 3928 4134 
L 2272 4134 
L 2272 0 
L 1638 0 
L 1638 4134 
L -19 4134 
L -19 4666 
z
" transform="scale(0.015625)"/>
      <path id="DejaVuSans-4c" d="M 628 4666 
L 1259 4666 
L 1259 531 
L 3531 531 
L 3531 0 
L 628 0 
L 628 4666 
z
" transform="scale(0.015625)"/>
      <path id="DejaVuSans-28" d="M 1984 4856 
Q 1566 4138 1362 3434 
Q 1159 2731 1159 2009 
Q 1159 1288 1364 580 
Q 1569 -128 1984 -844 
L 1484 -844 
Q 1016 -109 783 600 
Q 550 1309 550 2009 
Q 550 2706 781 3412 
Q 1013 4119 1484 4856 
L 1984 4856 
z
" transform="scale(0.015625)"/>
      <path id="DejaVuSans-57" d="M 213 4666 
L 850 4666 
L 1831 722 
L 2809 4666 
L 3519 4666 
L 4500 722 
L 5478 4666 
L 6119 4666 
L 4947 0 
L 4153 0 
L 3169 4050 
L 2175 0 
L 1381 0 
L 213 4666 
z
" transform="scale(0.015625)"/>
      <path id="DejaVuSans-29" d="M 513 4856 
L 1013 4856 
Q 1481 4119 1714 3412 
Q 1947 2706 1947 2009 
Q 1947 1309 1714 600 
Q 1481 -109 1013 -844 
L 513 -844 
Q 928 -128 1133 580 
Q 1338 1288 1338 2009 
Q 1338 2731 1133 3434 
Q 928 4138 513 4856 
z
" transform="scale(0.015625)"/>
     </defs>
     <use xlink:href="#DejaVuSans-50"/>
     <use xlink:href="#DejaVuSans-65" transform="translate(56.677734 0)"/>
     <use xlink:href="#DejaVuSans-64" transform="translate(118.201172 0)"/>
     <use xlink:href="#DejaVuSans-65" transform="translate(181.677734 0)"/>
     <use xlink:href="#DejaVuSans-73" transform="translate(243.201172 0)"/>
     <use xlink:href="#DejaVuSans-74" transform="translate(295.300781 0)"/>
     <use xlink:href="#DejaVuSans-72" transform="translate(334.509766 0)"/>
     <use xlink:href="#DejaVuSans-69" transform="translate(375.623047 0)"/>
     <use xlink:href="#DejaVuSans-61" transform="translate(403.40625 0)"/>
     <use xlink:href="#DejaVuSans-6e" transform="translate(464.685547 0)"/>
     <use xlink:href="#DejaVuSans-20" transform="translate(528.064453 0)"/>
     <use xlink:href="#DejaVuSans-54" transform="translate(559.851562 0)"/>
     <use xlink:href="#DejaVuSans-72" transform="translate(606.185547 0)"/>
     <use xlink:href="#DejaVuSans-61" transform="translate(647.298828 0)"/>
     <use xlink:href="#DejaVuSans-66" transform="translate(708.578125 0)"/>
     <use xlink:href="#DejaVuSans-66" transform="translate(743.783203 0)"/>
     <use xlink:href="#DejaVuSans-69" transform="translate(778.988281 0)"/>
     <use xlink:href="#DejaVuSans-63" transform="translate(806.771484 0)"/>
     <use xlink:href="#DejaVuSans-20" transform="translate(861.751953 0)"/>
     <use xlink:href="#DejaVuSans-61" transform="translate(893.539062 0)"/>
     <use xlink:href="#DejaVuSans-74" transform="translate(954.818359 0)"/>
     <use xlink:href="#DejaVuSans-20" transform="translate(994.027344 0)"/>
     <use xlink:href="#DejaVuSans-4c" transform="translate(1025.814453 0)"/>
     <use xlink:href="#DejaVuSans-79" transform="translate(1072.402344 0)"/>
     <use xlink:href="#DejaVuSans-67" transform="translate(1131.582031 0)"/>
     <use xlink:href="#DejaVuSans-6f" transform="translate(1195.058594 0)"/>
     <use xlink:href="#DejaVuSans-6e" transform="translate(1256.240234 0)"/>
     <use xlink:href="#DejaVuSans-20" transform="translate(1319.619141 0)"/>
     <use xlink:href="#DejaVuSans-53" transform="translate(1351.40625 0)"/>
     <use xlink:href="#DejaVuSans-74" transform="translate(1414.882812 0)"/>
     <use xlink:href="#DejaVuSans-20" transform="translate(1454.091797 0)"/>
     <use xlink:href="#DejaVuSans-28" transform="translate(1485.878906 0)"/>
     <use xlink:href="#DejaVuSans-57" transform="translate(1524.892578 0)"/>
     <use xlink:href="#DejaVuSans-65" transform="translate(1617.894531 0)"/>
     <use xlink:href="#DejaVuSans-73" transform="translate(1679.417969 0)"/>
     <use xlink:href="#DejaVuSans-74" transform="translate(1731.517578 0)"/>
     <use xlink:href="#DejaVuSans-29" transform="translate(1770.726562 0)"/>
    </g>
   </g>
   <g id="legend_1">
    <g id="patch_5">
     <path d="M 69.32625 80.449375 
L 132.52125 80.449375 
Q 134.72125 80.449375 134.72125 78.249375 
L 134.72125 47.0575 
Q 134.72125 44.8575 132.52125 44.8575 
L 69.32625 44.8575 
Q 67.12625 44.8575 67.12625 47.0575 
L 67.12625 78.249375 
Q 67.12625 80.449375 69.32625 80.449375 
z
" style="fill: #ffffff; opacity: 0.95; stroke: #cccccc; stroke-linejoin: miter"/>
    </g>
    <g id="line2d_45">
     <path d="M 71.52625 53.765781 
L 82.52625 53.765781 
L 93.52625 53.765781 
" style="fill: none; stroke: #0d6efc; stroke-opacity: 0.8; stroke-width: 2.5; stroke-linecap: square"/>
    </g>
    <g id="text_25">
     <!-- 2019 -->
     <g transform="translate(102.32625 57.615781) scale(0.11 -0.11)">
      <defs>
       <path id="DejaVuSans-39" d="M 703 97 
L 703 672 
Q 941 559 1184 500 
Q 1428 441 1663 441 
Q 2288 441 2617 861 
Q 2947 1281 2994 2138 
Q 2813 1869 2534 1725 
Q 2256 1581 1919 1581 
Q 1219 1581 811 2004 
Q 403 2428 403 3163 
Q 403 3881 828 4315 
Q 1253 4750 1959 4750 
Q 2769 4750 3195 4129 
Q 3622 3509 3622 2328 
Q 3622 1225 3098 567 
Q 2575 -91 1691 -91 
Q 1453 -91 1209 -44 
Q 966 3 703 97 
z
M 1959 2075 
Q 2384 2075 2632 2365 
Q 2881 2656 2881 3163 
Q 2881 3666 2632 3958 
Q 2384 4250 1959 4250 
Q 1534 4250 1286 3958 
Q 1038 3666 1038 3163 
Q 1038 2656 1286 2365 
Q 1534 2075 1959 2075 
z
" transform="scale(0.015625)"/>
      </defs>
      <use xlink:href="#DejaVuSans-32"/>
      <use xlink:href="#DejaVuSans-30" transform="translate(63.623047 0)"/>
      <use xlink:href="#DejaVuSans-31" transform="translate(127.246094 0)"/>
      <use xlink:href="#DejaVuSans-39" transform="translate(190.869141 0)"/>
     </g>
    </g>
    <g id="line2d_46">
     <path d="M 71.52625 69.911719 
L 82.52625 69.911719 
L 93.52625 69.911719 
" style="fill: none; stroke: #83c966; stroke-opacity: 0.8; stroke-width: 2.5; stroke-linecap: square"/>
    </g>
    <g id="text_26">
     <!-- 2025 -->
     <g transform="translate(102.32625 73.761719) scale(0.11 -0.11)">
      <defs>
       <path id="DejaVuSans-35" d="M 691 4666 
L 3169 4666 
L 3169 4134 
L 1269 4134 
L 1269 2991 
Q 1406 3038 1543 3061 
Q 1681 3084 1819 3084 
Q 2600 3084 3056 2656 
Q 3513 2228 3513 1497 
Q 3513 744 3044 326 
Q 2575 -91 1722 -91 
Q 1428 -91 1123 -41 
Q 819 9 494 109 
L 494 744 
Q 775 591 1075 516 
Q 1375 441 1709 441 
Q 2250 441 2565 725 
Q 2881 1009 2881 1497 
Q 2881 1984 2565 2268 
Q 2250 2553 1709 2553 
Q 1456 2553 1204 2497 
Q 953 2441 691 2322 
L 691 4666 
z
" transform="scale(0.015625)"/>
      </defs>
      <use xlink:href="#DejaVuSans-32"/>
      <use xlink:href="#DejaVuSans-30" transform="translate(63.623047 0)"/>
      <use xlink:href="#DejaVuSans-32" transform="translate(127.246094 0)"/>
      <use xlink:href="#DejaVuSans-35" transform="translate(190.869141 0)"/>
     </g>
    </g>
   </g>
  </g>
 </g>
 <defs>
  <clipPath id="pbf496854e7">
   <rect x="61.62625" y="39.3575" width="642.695541" height="344.84"/>
  </clipPath>
 </defs>
</svg>
