<?xml version="1.0" encoding="utf-8" standalone="no"?>
<!DOCTYPE svg PUBLIC "-//W3C//DTD SVG 1.1//EN"
  "http://www.w3.org/Graphics/SVG/1.1/DTD/svg11.dtd">
<svg xmlns:xlink="http://www.w3.org/1999/xlink" width="711.521791pt" height="423.689375pt" viewBox="0 0 711.521791 423.689375" xmlns="http://www.w3.org/2000/svg" version="1.1">
 <metadata>
  <rdf:RDF xmlns:dc="http://purl.org/dc/elements/1.1/" xmlns:cc="http://creativecommons.org/ns#" xmlns:rdf="http://www.w3.org/1999/02/22-rdf-syntax-ns#">
   <cc:Work>
    <dc:type rdf:resource="http://purl.org/dc/dcmitype/StillImage"/>
    <dc:date>2026-01-28T17:49:44.236341</dc:date>
    <dc:format>image/svg+xml</dc:format>
    <dc:creator>
     <cc:Agent>
      <dc:title>Matplotlib v3.10.8, https://matplotlib.org/</dc:title>
     </cc:Agent>
    </dc:creator>
   </cc:Work>
  </rdf:RDF>
 </metadata>
 <defs>
  <style type="text/css">*{stroke-linejoin: round; stroke-linecap: butt}</style>
 </defs>
 <g id="figure_1">
  <g id="patch_1">
   <path d="M 0 423.689375 
L 711.521791 423.689375 
L 711.521791 0 
L 0 0 
L 0 423.689375 
z
" style="fill: none"/>
  </g>
  <g id="axes_1">
   <g id="patch_2">
    <path d="M 61.62625 384.1975 
L 704.321791 384.1975 
L 704.321791 39.3575 
L 61.62625 39.3575 
L 61.62625 384.1975 
z
" style="fill: none"/>
   </g>
   <g id="matplotlib.axis_1">
    <g id="xtick_1">
     <g id="line2d_1">
      <path d="M 61.62625 384.1975 
L 61.62625 39.3575 
" clip-path="url(#pb93468b9c9)" style="fill: none; stroke-dasharray: 2.96,1.28; stroke-dashoffset: 0; stroke: #b0b0b0; stroke-opacity: 0.3; stroke-width: 0.8"/>
     </g>
     <g id="line2d_2">
      <defs>
       <path id="m29ac79ab98" d="M 0 0 
L 0 3.5 
" style="stroke: #000000; stroke-width: 0.8"/>
      </defs>
      <g>
       <use xlink:href="#m29ac79ab98" x="61.62625" y="384.1975" style="stroke: #000000; stroke-width: 0.8"/>
      </g>
     </g>
     <g id="text_1">
      <!-- Jan -->
      <g transform="translate(53.918438 398.795937) scale(0.1 -0.1)">
       <defs>
        <path id="DejaVuSans-4a" d="M 628 4666 
L 1259 4666 
L 1259 325 
Q 1259 -519 939 -900 
Q 619 -1281 -91 -1281 
L -331 -1281 
L -331 -750 
L -134 -750 
Q 284 -750 456 -515 
Q 628 -281 628 325 
L 628 4666 
z
" transform="scale(0.015625)"/>
        <path id="DejaVuSans-61" d="M 2194 1759 
Q 1497 1759 1228 1600 
Q 959 1441 959 1056 
Q 959 750 1161 570 
Q 1363 391 1709 391 
Q 2188 391 2477 730 
Q 2766 1069 2766 1631 
L 2766 1759 
L 2194 1759 
z
M 3341 1997 
L 3341 0 
L 2766 0 
L 2766 531 
Q 2569 213 2275 61 
Q 1981 -91 1556 -91 
Q 1019 -91 701 211 
Q 384 513 384 1019 
Q 384 1609 779 1909 
Q 1175 2209 1959 2209 
L 2766 2209 
L 2766 2266 
Q 2766 2663 2505 2880 
Q 2244 3097 1772 3097 
Q 1472 3097 1187 3025 
Q 903 2953 641 2809 
L 641 3341 
Q 956 3463 1253 3523 
Q 1550 3584 1831 3584 
Q 2591 3584 2966 3190 
Q 3341 2797 3341 1997 
z
" transform="scale(0.015625)"/>
        <path id="DejaVuSans-6e" d="M 3513 2113 
L 3513 0 
L 2938 0 
L 2938 2094 
Q 2938 2591 2744 2837 
Q 2550 3084 2163 3084 
Q 1697 3084 1428 2787 
Q 1159 2491 1159 1978 
L 1159 0 
L 581 0 
L 581 3500 
L 1159 3500 
L 1159 2956 
Q 1366 3272 1645 3428 
Q 1925 3584 2291 3584 
Q 2894 3584 3203 3211 
Q 3513 2838 3513 2113 
z
" transform="scale(0.015625)"/>
       </defs>
       <use xlink:href="#DejaVuSans-4a"/>
       <use xlink:href="#DejaVuSans-61" transform="translate(29.492188 0)"/>
       <use xlink:href="#DejaVuSans-6e" transform="translate(90.771484 0)"/>
      </g>
     </g>
    </g>
    <g id="xtick_2">
     <g id="line2d_3">
      <path d="M 115.473714 384.1975 
L 115.473714 39.3575 
" clip-path="url(#pb93468b9c9)" style="fill: none; stroke-dasharray: 2.96,1.28; stroke-dashoffset: 0; stroke: #b0b0b0; stroke-opacity: 0.3; stroke-width: 0.8"/>
     </g>
     <g id="line2d_4">
      <g>
       <use xlink:href="#m29ac79ab98" x="115.473714" y="384.1975" style="stroke: #000000; stroke-width: 0.8"/>
      </g>
     </g>
     <g id="text_2">
      <!-- Feb -->
      <g transform="translate(106.622152 398.795937) scale(0.1 -0.1)">
       <defs>
        <path id="DejaVuSans-46" d="M 628 4666 
L 3309 4666 
L 3309 4134 
L 1259 4134 
L 1259 2759 
L 3109 2759 
L 3109 2228 
L 1259 2228 
L 1259 0 
L 628 0 
L 628 4666 
z
" transform="scale(0.015625)"/>
        <path id="DejaVuSans-65" d="M 3597 1894 
L 3597 1613 
L 953 1613 
Q 991 1019 1311 708 
Q 1631 397 2203 397 
Q 2534 397 2845 478 
Q 3156 559 3463 722 
L 3463 178 
Q 3153 47 2828 -22 
Q 2503 -91 2169 -91 
Q 1331 -91 842 396 
Q 353 884 353 1716 
Q 353 2575 817 3079 
Q 1281 3584 2069 3584 
Q 2775 3584 3186 3129 
Q 3597 2675 3597 1894 
z
M 3022 2063 
Q 3016 2534 2758 2815 
Q 2500 3097 2075 3097 
Q 1594 3097 1305 2825 
Q 1016 2553 972 2059 
L 3022 2063 
z
" transform="scale(0.015625)"/>
        <path id="DejaVuSans-62" d="M 3116 1747 
Q 3116 2381 2855 2742 
Q 2594 3103 2138 3103 
Q 1681 3103 1420 2742 
Q 1159 2381 1159 1747 
Q 1159 1113 1420 752 
Q 1681 391 2138 391 
Q 2594 391 2855 752 
Q 3116 1113 3116 1747 
z
M 1159 2969 
Q 1341 3281 1617 3432 
Q 1894 3584 2278 3584 
Q 2916 3584 3314 3078 
Q 3713 2572 3713 1747 
Q 3713 922 3314 415 
Q 2916 -91 2278 -91 
Q 1894 -91 1617 61 
Q 1341 213 1159 525 
L 1159 0 
L 581 0 
L 581 4863 
L 1159 4863 
L 1159 2969 
z
" transform="scale(0.015625)"/>
       </defs>
       <use xlink:href="#DejaVuSans-46"/>
       <use xlink:href="#DejaVuSans-65" transform="translate(52.019531 0)"/>
       <use xlink:href="#DejaVuSans-62" transform="translate(113.542969 0)"/>
      </g>
     </g>
    </g>
    <g id="xtick_3">
     <g id="line2d_5">
      <path d="M 164.110133 384.1975 
L 164.110133 39.3575 
" clip-path="url(#pb93468b9c9)" style="fill: none; stroke-dasharray: 2.96,1.28; stroke-dashoffset: 0; stroke: #b0b0b0; stroke-opacity: 0.3; stroke-width: 0.8"/>
     </g>
     <g id="line2d_6">
      <g>
       <use xlink:href="#m29ac79ab98" x="164.110133" y="384.1975" style="stroke: #000000; stroke-width: 0.8"/>
      </g>
     </g>
     <g id="text_3">
      <!-- Mar -->
      <g transform="translate(154.67654 398.795937) scale(0.1 -0.1)">
       <defs>
        <path id="DejaVuSans-4d" d="M 628 4666 
L 1569 4666 
L 2759 1491 
L 3956 4666 
L 4897 4666 
L 4897 0 
L 4281 0 
L 4281 4097 
L 3078 897 
L 2444 897 
L 1241 4097 
L 1241 0 
L 628 0 
L 628 4666 
z
" transform="scale(0.015625)"/>
        <path id="DejaVuSans-72" d="M 2631 2963 
Q 2534 3019 2420 3045 
Q 2306 3072 2169 3072 
Q 1681 3072 1420 2755 
Q 1159 2438 1159 1844 
L 1159 0 
L 581 0 
L 581 3500 
L 1159 3500 
L 1159 2956 
Q 1341 3275 1631 3429 
Q 1922 3584 2338 3584 
Q 2397 3584 2469 3576 
Q 2541 3569 2628 3553 
L 2631 2963 
z
" transform="scale(0.015625)"/>
       </defs>
       <use xlink:href="#DejaVuSans-4d"/>
       <use xlink:href="#DejaVuSans-61" transform="translate(86.279297 0)"/>
       <use xlink:href="#DejaVuSans-72" transform="translate(147.558594 0)"/>
      </g>
     </g>
    </g>
    <g id="xtick_4">
     <g id="line2d_7">
      <path d="M 217.957598 384.1975 
L 217.957598 39.3575 
" clip-path="url(#pb93468b9c9)" style="fill: none; stroke-dasharray: 2.96,1.28; stroke-dashoffset: 0; stroke: #b0b0b0; stroke-opacity: 0.3; stroke-width: 0.8"/>
     </g>
     <g id="line2d_8">
      <g>
       <use xlink:href="#m29ac79ab98" x="217.957598" y="384.1975" style="stroke: #000000; stroke-width: 0.8"/>
      </g>
     </g>
     <g id="text_4">
      <!-- Apr -->
      <g transform="translate(209.307598 398.795937) scale(0.1 -0.1)">
       <defs>
        <path id="DejaVuSans-41" d="M 2188 4044 
L 1331 1722 
L 3047 1722 
L 2188 4044 
z
M 1831 4666 
L 2547 4666 
L 4325 0 
L 3669 0 
L 3244 1197 
L 1141 1197 
L 716 0 
L 50 0 
L 1831 4666 
z
" transform="scale(0.015625)"/>
        <path id="DejaVuSans-70" d="M 1159 525 
L 1159 -1331 
L 581 -1331 
L 581 3500 
L 1159 3500 
L 1159 2969 
Q 1341 3281 1617 3432 
Q 1894 3584 2278 3584 
Q 2916 3584 3314 3078 
Q 3713 2572 3713 1747 
Q 3713 922 3314 415 
Q 2916 -91 2278 -91 
Q 1894 -91 1617 61 
Q 1341 213 1159 525 
z
M 3116 1747 
Q 3116 2381 2855 2742 
Q 2594 3103 2138 3103 
Q 1681 3103 1420 2742 
Q 1159 2381 1159 1747 
Q 1159 1113 1420 752 
Q 1681 391 2138 391 
Q 2594 391 2855 752 
Q 3116 1113 3116 1747 
z
" transform="scale(0.015625)"/>
       </defs>
       <use xlink:href="#DejaVuSans-41"/>
       <use xlink:href="#DejaVuSans-70" transform="translate(68.408203 0)"/>
       <use xlink:href="#DejaVuSans-72" transform="translate(131.884766 0)"/>
      </g>
     </g>
    </g>
    <g id="xtick_5">
     <g id="line2d_9">
      <path d="M 270.068047 384.1975 
L 270.068047 39.3575 
" clip-path="url(#pb93468b9c9)" style="fill: none; stroke-dasharray: 2.96,1.28; stroke-dashoffset: 0; stroke: #b0b0b0; stroke-opacity: 0.3; stroke-width: 0.8"/>
     </g>
     <g id="line2d_10">
      <g>
       <use xlink:href="#m29ac79ab98" x="270.068047" y="384.1975" style="stroke: #000000; stroke-width: 0.8"/>
      </g>
     </g>
     <g id="text_5">
      <!-- May -->
      <g transform="translate(259.730547 398.795937) scale(0.1 -0.1)">
       <defs>
        <path id="DejaVuSans-79" d="M 2059 -325 
Q 1816 -950 1584 -1140 
Q 1353 -1331 966 -1331 
L 506 -1331 
L 506 -850 
L 844 -850 
Q 1081 -850 1212 -737 
Q 1344 -625 1503 -206 
L 1606 56 
L 191 3500 
L 800 3500 
L 1894 763 
L 2988 3500 
L 3597 3500 
L 2059 -325 
z
" transform="scale(0.015625)"/>
       </defs>
       <use xlink:href="#DejaVuSans-4d"/>
       <use xlink:href="#DejaVuSans-61" transform="translate(86.279297 0)"/>
       <use xlink:href="#DejaVuSans-79" transform="translate(147.558594 0)"/>
      </g>
     </g>
    </g>
    <g id="xtick_6">
     <g id="line2d_11">
      <path d="M 323.915511 384.1975 
L 323.915511 39.3575 
" clip-path="url(#pb93468b9c9)" style="fill: none; stroke-dasharray: 2.96,1.28; stroke-dashoffset: 0; stroke: #b0b0b0; stroke-opacity: 0.3; stroke-width: 0.8"/>
     </g>
     <g id="line2d_12">
      <g>
       <use xlink:href="#m29ac79ab98" x="323.915511" y="384.1975" style="stroke: #000000; stroke-width: 0.8"/>
      </g>
     </g>
     <g id="text_6">
      <!-- Jun -->
      <g transform="translate(316.103011 398.795937) scale(0.1 -0.1)">
       <defs>
        <path id="DejaVuSans-75" d="M 544 1381 
L 544 3500 
L 1119 3500 
L 1119 1403 
Q 1119 906 1312 657 
Q 1506 409 1894 409 
Q 2359 409 2629 706 
Q 2900 1003 2900 1516 
L 2900 3500 
L 3475 3500 
L 3475 0 
L 2900 0 
L 2900 538 
Q 2691 219 2414 64 
Q 2138 -91 1772 -91 
Q 1169 -91 856 284 
Q 544 659 544 1381 
z
M 1991 3584 
L 1991 3584 
z
" transform="scale(0.015625)"/>
       </defs>
       <use xlink:href="#DejaVuSans-4a"/>
       <use xlink:href="#DejaVuSans-75" transform="translate(29.492188 0)"/>
       <use xlink:href="#DejaVuSans-6e" transform="translate(92.871094 0)"/>
      </g>
     </g>
    </g>
    <g id="xtick_7">
     <g id="line2d_13">
      <path d="M 376.02596 384.1975 
L 376.02596 39.3575 
" clip-path="url(#pb93468b9c9)" style="fill: none; stroke-dasharray: 2.96,1.28; stroke-dashoffset: 0; stroke: #b0b0b0; stroke-opacity: 0.3; stroke-width: 0.8"/>
     </g>
     <g id="line2d_14">
      <g>
       <use xlink:href="#m29ac79ab98" x="376.02596" y="384.1975" style="stroke: #000000; stroke-width: 0.8"/>
      </g>
     </g>
     <g id="text_7">
      <!-- Jul -->
      <g transform="translate(369.993148 398.795937) scale(0.1 -0.1)">
       <defs>
        <path id="DejaVuSans-6c" d="M 603 4863 
L 1178 4863 
L 1178 0 
L 603 0 
L 603 4863 
z
" transform="scale(0.015625)"/>
       </defs>
       <use xlink:href="#DejaVuSans-4a"/>
       <use xlink:href="#DejaVuSans-75" transform="translate(29.492188 0)"/>
       <use xlink:href="#DejaVuSans-6c" transform="translate(92.871094 0)"/>
      </g>
     </g>
    </g>
    <g id="xtick_8">
     <g id="line2d_15">
      <path d="M 429.873425 384.1975 
L 429.873425 39.3575 
" clip-path="url(#pb93468b9c9)" style="fill: none; stroke-dasharray: 2.96,1.28; stroke-dashoffset: 0; stroke: #b0b0b0; stroke-opacity: 0.3; stroke-width: 0.8"/>
     </g>
     <g id="line2d_16">
      <g>
       <use xlink:href="#m29ac79ab98" x="429.873425" y="384.1975" style="stroke: #000000; stroke-width: 0.8"/>
      </g>
     </g>
     <g id="text_8">
      <!-- Aug -->
      <g transform="translate(420.110143 398.795937) scale(0.1 -0.1)">
       <defs>
        <path id="DejaVuSans-67" d="M 2906 1791 
Q 2906 2416 2648 2759 
Q 2391 3103 1925 3103 
Q 1463 3103 1205 2759 
Q 947 2416 947 1791 
Q 947 1169 1205 825 
Q 1463 481 1925 481 
Q 2391 481 2648 825 
Q 2906 1169 2906 1791 
z
M 3481 434 
Q 3481 -459 3084 -895 
Q 2688 -1331 1869 -1331 
Q 1566 -1331 1297 -1286 
Q 1028 -1241 775 -1147 
L 775 -588 
Q 1028 -725 1275 -790 
Q 1522 -856 1778 -856 
Q 2344 -856 2625 -561 
Q 2906 -266 2906 331 
L 2906 616 
Q 2728 306 2450 153 
Q 2172 0 1784 0 
Q 1141 0 747 490 
Q 353 981 353 1791 
Q 353 2603 747 3093 
Q 1141 3584 1784 3584 
Q 2172 3584 2450 3431 
Q 2728 3278 2906 2969 
L 2906 3500 
L 3481 3500 
L 3481 434 
z
" transform="scale(0.015625)"/>
       </defs>
       <use xlink:href="#DejaVuSans-41"/>
       <use xlink:href="#DejaVuSans-75" transform="translate(68.408203 0)"/>
       <use xlink:href="#DejaVuSans-67" transform="translate(131.787109 0)"/>
      </g>
     </g>
    </g>
    <g id="xtick_9">
     <g id="line2d_17">
      <path d="M 483.720889 384.1975 
L 483.720889 39.3575 
" clip-path="url(#pb93468b9c9)" style="fill: none; stroke-dasharray: 2.96,1.28; stroke-dashoffset: 0; stroke: #b0b0b0; stroke-opacity: 0.3; stroke-width: 0.8"/>
     </g>
     <g id="line2d_18">
      <g>
       <use xlink:href="#m29ac79ab98" x="483.720889" y="384.1975" style="stroke: #000000; stroke-width: 0.8"/>
      </g>
     </g>
     <g id="text_9">
      <!-- Sep -->
      <g transform="translate(474.295889 398.795937) scale(0.1 -0.1)">
       <defs>
        <path id="DejaVuSans-53" d="M 3425 4513 
L 3425 3897 
Q 3066 4069 2747 4153 
Q 2428 4238 2131 4238 
Q 1616 4238 1336 4038 
Q 1056 3838 1056 3469 
Q 1056 3159 1242 3001 
Q 1428 2844 1947 2747 
L 2328 2669 
Q 3034 2534 3370 2195 
Q 3706 1856 3706 1288 
Q 3706 609 3251 259 
Q 2797 -91 1919 -91 
Q 1588 -91 1214 -16 
Q 841 59 441 206 
L 441 856 
Q 825 641 1194 531 
Q 1563 422 1919 422 
Q 2459 422 2753 634 
Q 3047 847 3047 1241 
Q 3047 1584 2836 1778 
Q 2625 1972 2144 2069 
L 1759 2144 
Q 1053 2284 737 2584 
Q 422 2884 422 3419 
Q 422 4038 858 4394 
Q 1294 4750 2059 4750 
Q 2388 4750 2728 4690 
Q 3069 4631 3425 4513 
z
" transform="scale(0.015625)"/>
       </defs>
       <use xlink:href="#DejaVuSans-53"/>
       <use xlink:href="#DejaVuSans-65" transform="translate(63.476562 0)"/>
       <use xlink:href="#DejaVuSans-70" transform="translate(125 0)"/>
      </g>
     </g>
    </g>
    <g id="xtick_10">
     <g id="line2d_19">
      <path d="M 535.831338 384.1975 
L 535.831338 39.3575 
" clip-path="url(#pb93468b9c9)" style="fill: none; stroke-dasharray: 2.96,1.28; stroke-dashoffset: 0; stroke: #b0b0b0; stroke-opacity: 0.3; stroke-width: 0.8"/>
     </g>
     <g id="line2d_20">
      <g>
       <use xlink:href="#m29ac79ab98" x="535.831338" y="384.1975" style="stroke: #000000; stroke-width: 0.8"/>
      </g>
     </g>
     <g id="text_10">
      <!-- Oct -->
      <g transform="translate(527.186026 398.795937) scale(0.1 -0.1)">
       <defs>
        <path id="DejaVuSans-4f" d="M 2522 4238 
Q 1834 4238 1429 3725 
Q 1025 3213 1025 2328 
Q 1025 1447 1429 934 
Q 1834 422 2522 422 
Q 3209 422 3611 934 
Q 4013 1447 4013 2328 
Q 4013 3213 3611 3725 
Q 3209 4238 2522 4238 
z
M 2522 4750 
Q 3503 4750 4090 4092 
Q 4678 3434 4678 2328 
Q 4678 1225 4090 567 
Q 3503 -91 2522 -91 
Q 1538 -91 948 565 
Q 359 1222 359 2328 
Q 359 3434 948 4092 
Q 1538 4750 2522 4750 
z
" transform="scale(0.015625)"/>
        <path id="DejaVuSans-63" d="M 3122 3366 
L 3122 2828 
Q 2878 2963 2633 3030 
Q 2388 3097 2138 3097 
Q 1578 3097 1268 2742 
Q 959 2388 959 1747 
Q 959 1106 1268 751 
Q 1578 397 2138 397 
Q 2388 397 2633 464 
Q 2878 531 3122 666 
L 3122 134 
Q 2881 22 2623 -34 
Q 2366 -91 2075 -91 
Q 1284 -91 818 406 
Q 353 903 353 1747 
Q 353 2603 823 3093 
Q 1294 3584 2113 3584 
Q 2378 3584 2631 3529 
Q 2884 3475 3122 3366 
z
" transform="scale(0.015625)"/>
        <path id="DejaVuSans-74" d="M 1172 4494 
L 1172 3500 
L 2356 3500 
L 2356 3053 
L 1172 3053 
L 1172 1153 
Q 1172 725 1289 603 
Q 1406 481 1766 481 
L 2356 481 
L 2356 0 
L 1766 0 
Q 1100 0 847 248 
Q 594 497 594 1153 
L 594 3053 
L 172 3053 
L 172 3500 
L 594 3500 
L 594 4494 
L 1172 4494 
z
" transform="scale(0.015625)"/>
       </defs>
       <use xlink:href="#DejaVuSans-4f"/>
       <use xlink:href="#DejaVuSans-63" transform="translate(78.710938 0)"/>
       <use xlink:href="#DejaVuSans-74" transform="translate(133.691406 0)"/>
      </g>
     </g>
    </g>
    <g id="xtick_11">
     <g id="line2d_21">
      <path d="M 589.678802 384.1975 
L 589.678802 39.3575 
" clip-path="url(#pb93468b9c9)" style="fill: none; stroke-dasharray: 2.96,1.28; stroke-dashoffset: 0; stroke: #b0b0b0; stroke-opacity: 0.3; stroke-width: 0.8"/>
     </g>
     <g id="line2d_22">
      <g>
       <use xlink:href="#m29ac79ab98" x="589.678802" y="384.1975" style="stroke: #000000; stroke-width: 0.8"/>
      </g>
     </g>
     <g id="text_11">
      <!-- Nov -->
      <g transform="translate(579.919427 398.795937) scale(0.1 -0.1)">
       <defs>
        <path id="DejaVuSans-4e" d="M 628 4666 
L 1478 4666 
L 3547 763 
L 3547 4666 
L 4159 4666 
L 4159 0 
L 3309 0 
L 1241 3903 
L 1241 0 
L 628 0 
L 628 4666 
z
" transform="scale(0.015625)"/>
        <path id="DejaVuSans-6f" d="M 1959 3097 
Q 1497 3097 1228 2736 
Q 959 2375 959 1747 
Q 959 1119 1226 758 
Q 1494 397 1959 397 
Q 2419 397 2687 759 
Q 2956 1122 2956 1747 
Q 2956 2369 2687 2733 
Q 2419 3097 1959 3097 
z
M 1959 3584 
Q 2709 3584 3137 3096 
Q 3566 2609 3566 1747 
Q 3566 888 3137 398 
Q 2709 -91 1959 -91 
Q 1206 -91 779 398 
Q 353 888 353 1747 
Q 353 2609 779 3096 
Q 1206 3584 1959 3584 
z
" transform="scale(0.015625)"/>
        <path id="DejaVuSans-76" d="M 191 3500 
L 800 3500 
L 1894 563 
L 2988 3500 
L 3597 3500 
L 2284 0 
L 1503 0 
L 191 3500 
z
" transform="scale(0.015625)"/>
       </defs>
       <use xlink:href="#DejaVuSans-4e"/>
       <use xlink:href="#DejaVuSans-6f" transform="translate(74.804688 0)"/>
       <use xlink:href="#DejaVuSans-76" transform="translate(135.986328 0)"/>
      </g>
     </g>
    </g>
    <g id="xtick_12">
     <g id="line2d_23">
      <path d="M 641.789251 384.1975 
L 641.789251 39.3575 
" clip-path="url(#pb93468b9c9)" style="fill: none; stroke-dasharray: 2.96,1.28; stroke-dashoffset: 0; stroke: #b0b0b0; stroke-opacity: 0.3; stroke-width: 0.8"/>
     </g>
     <g id="line2d_24">
      <g>
       <use xlink:href="#m29ac79ab98" x="641.789251" y="384.1975" style="stroke: #000000; stroke-width: 0.8"/>
      </g>
     </g>
     <g id="text_12">
      <!-- Dec -->
      <g transform="translate(632.11347 398.795937) scale(0.1 -0.1)">
       <defs>
        <path id="DejaVuSans-44" d="M 1259 4147 
L 1259 519 
L 2022 519 
Q 2988 519 3436 956 
Q 3884 1394 3884 2338 
Q 3884 3275 3436 3711 
Q 2988 4147 2022 4147 
L 1259 4147 
z
M 628 4666 
L 1925 4666 
Q 3281 4666 3915 4102 
Q 4550 3538 4550 2338 
Q 4550 1131 3912 565 
Q 3275 0 1925 0 
L 628 0 
L 628 4666 
z
" transform="scale(0.015625)"/>
       </defs>
       <use xlink:href="#DejaVuSans-44"/>
       <use xlink:href="#DejaVuSans-65" transform="translate(77.001953 0)"/>
       <use xlink:href="#DejaVuSans-63" transform="translate(138.525391 0)"/>
      </g>
     </g>
    </g>
    <g id="xtick_13">
     <g id="line2d_25">
      <path d="M 695.636716 384.1975 
L 695.636716 39.3575 
" clip-path="url(#pb93468b9c9)" style="fill: none; stroke-dasharray: 2.96,1.28; stroke-dashoffset: 0; stroke: #b0b0b0; stroke-opacity: 0.3; stroke-width: 0.8"/>
     </g>
     <g id="line2d_26">
      <g>
       <use xlink:href="#m29ac79ab98" x="695.636716" y="384.1975" style="stroke: #000000; stroke-width: 0.8"/>
      </g>
     </g>
     <g id="text_13">
      <!-- Jan -->
      <g transform="translate(687.928903 398.795937) scale(0.1 -0.1)">
       <use xlink:href="#DejaVuSans-4a"/>
       <use xlink:href="#DejaVuSans-61" transform="translate(29.492188 0)"/>
       <use xlink:href="#DejaVuSans-6e" transform="translate(90.771484 0)"/>
      </g>
     </g>
    </g>
    <g id="text_14">
     <!-- Day of the year -->
     <g transform="translate(336.388708 413.99375) scale(0.12 -0.12)">
      <defs>
       <path id="DejaVuSans-20" transform="scale(0.015625)"/>
       <path id="DejaVuSans-66" d="M 2375 4863 
L 2375 4384 
L 1825 4384 
Q 1516 4384 1395 4259 
Q 1275 4134 1275 3809 
L 1275 3500 
L 2222 3500 
L 2222 3053 
L 1275 3053 
L 1275 0 
L 697 0 
L 697 3053 
L 147 3053 
L 147 3500 
L 697 3500 
L 697 3744 
Q 697 4328 969 4595 
Q 1241 4863 1831 4863 
L 2375 4863 
z
" transform="scale(0.015625)"/>
       <path id="DejaVuSans-68" d="M 3513 2113 
L 3513 0 
L 2938 0 
L 2938 2094 
Q 2938 2591 2744 2837 
Q 2550 3084 2163 3084 
Q 1697 3084 1428 2787 
Q 1159 2491 1159 1978 
L 1159 0 
L 581 0 
L 581 4863 
L 1159 4863 
L 1159 2956 
Q 1366 3272 1645 3428 
Q 1925 3584 2291 3584 
Q 2894 3584 3203 3211 
Q 3513 2838 3513 2113 
z
" transform="scale(0.015625)"/>
      </defs>
      <use xlink:href="#DejaVuSans-44"/>
      <use xlink:href="#DejaVuSans-61" transform="translate(77.001953 0)"/>
      <use xlink:href="#DejaVuSans-79" transform="translate(138.28125 0)"/>
      <use xlink:href="#DejaVuSans-20" transform="translate(197.460938 0)"/>
      <use xlink:href="#DejaVuSans-6f" transform="translate(229.248047 0)"/>
      <use xlink:href="#DejaVuSans-66" transform="translate(290.429688 0)"/>
      <use xlink:href="#DejaVuSans-20" transform="translate(325.634766 0)"/>
      <use xlink:href="#DejaVuSans-74" transform="translate(357.421875 0)"/>
      <use xlink:href="#DejaVuSans-68" transform="translate(396.630859 0)"/>
      <use xlink:href="#DejaVuSans-65" transform="translate(460.009766 0)"/>
      <use xlink:href="#DejaVuSans-20" transform="translate(521.533203 0)"/>
      <use xlink:href="#DejaVuSans-79" transform="translate(553.320312 0)"/>
      <use xlink:href="#DejaVuSans-65" transform="translate(612.5 0)"/>
      <use xlink:href="#DejaVuSans-61" transform="translate(674.023438 0)"/>
      <use xlink:href="#DejaVuSans-72" transform="translate(735.302734 0)"/>
     </g>
    </g>
   </g>
   <g id="matplotlib.axis_2">
    <g id="ytick_1">
     <g id="line2d_27">
      <path d="M 61.62625 384.1975 
L 704.321791 384.1975 
" clip-path="url(#pb93468b9c9)" style="fill: none; stroke-dasharray: 2.96,1.28; stroke-dashoffset: 0; stroke: #b0b0b0; stroke-opacity: 0.3; stroke-width: 0.8"/>
     </g>
     <g id="line2d_28">
      <defs>
       <path id="m899952f582" d="M 0 0 
L -3.5 0 
" style="stroke: #000000; stroke-width: 0.8"/>
      </defs>
      <g>
       <use xlink:href="#m899952f582" x="61.62625" y="384.1975" style="stroke: #000000; stroke-width: 0.8"/>
      </g>
     </g>
     <g id="text_15">
      <!-- 0 -->
      <g transform="translate(48.26375 387.996719) scale(0.1 -0.1)">
       <defs>
        <path id="DejaVuSans-30" d="M 2034 4250 
Q 1547 4250 1301 3770 
Q 1056 3291 1056 2328 
Q 1056 1369 1301 889 
Q 1547 409 2034 409 
Q 2525 409 2770 889 
Q 3016 1369 3016 2328 
Q 3016 3291 2770 3770 
Q 2525 4250 2034 4250 
z
M 2034 4750 
Q 2819 4750 3233 4129 
Q 3647 3509 3647 2328 
Q 3647 1150 3233 529 
Q 2819 -91 2034 -91 
Q 1250 -91 836 529 
Q 422 1150 422 2328 
Q 422 3509 836 4129 
Q 1250 4750 2034 4750 
z
" transform="scale(0.015625)"/>
       </defs>
       <use xlink:href="#DejaVuSans-30"/>
      </g>
     </g>
    </g>
    <g id="ytick_2">
     <g id="line2d_29">
      <path d="M 61.62625 334.945056 
L 704.321791 334.945056 
" clip-path="url(#pb93468b9c9)" style="fill: none; stroke-dasharray: 2.96,1.28; stroke-dashoffset: 0; stroke: #b0b0b0; stroke-opacity: 0.3; stroke-width: 0.8"/>
     </g>
     <g id="line2d_30">
      <g>
       <use xlink:href="#m899952f582" x="61.62625" y="334.945056" style="stroke: #000000; stroke-width: 0.8"/>
      </g>
     </g>
     <g id="text_16">
      <!-- 10000 -->
      <g transform="translate(22.81375 338.744275) scale(0.1 -0.1)">
       <defs>
        <path id="DejaVuSans-31" d="M 794 531 
L 1825 531 
L 1825 4091 
L 703 3866 
L 703 4441 
L 1819 4666 
L 2450 4666 
L 2450 531 
L 3481 531 
L 3481 0 
L 794 0 
L 794 531 
z
" transform="scale(0.015625)"/>
       </defs>
       <use xlink:href="#DejaVuSans-31"/>
       <use xlink:href="#DejaVuSans-30" transform="translate(63.623047 0)"/>
       <use xlink:href="#DejaVuSans-30" transform="translate(127.246094 0)"/>
       <use xlink:href="#DejaVuSans-30" transform="translate(190.869141 0)"/>
       <use xlink:href="#DejaVuSans-30" transform="translate(254.492188 0)"/>
      </g>
     </g>
    </g>
    <g id="ytick_3">
     <g id="line2d_31">
      <path d="M 61.62625 285.692612 
L 704.321791 285.692612 
" clip-path="url(#pb93468b9c9)" style="fill: none; stroke-dasharray: 2.96,1.28; stroke-dashoffset: 0; stroke: #b0b0b0; stroke-opacity: 0.3; stroke-width: 0.8"/>
     </g>
     <g id="line2d_32">
      <g>
       <use xlink:href="#m899952f582" x="61.62625" y="285.692612" style="stroke: #000000; stroke-width: 0.8"/>
      </g>
     </g>
     <g id="text_17">
      <!-- 20000 -->
      <g transform="translate(22.81375 289.491831) scale(0.1 -0.1)">
       <defs>
        <path id="DejaVuSans-32" d="M 1228 531 
L 3431 531 
L 3431 0 
L 469 0 
L 469 531 
Q 828 903 1448 1529 
Q 2069 2156 2228 2338 
Q 2531 2678 2651 2914 
Q 2772 3150 2772 3378 
Q 2772 3750 2511 3984 
Q 2250 4219 1831 4219 
Q 1534 4219 1204 4116 
Q 875 4013 500 3803 
L 500 4441 
Q 881 4594 1212 4672 
Q 1544 4750 1819 4750 
Q 2544 4750 2975 4387 
Q 3406 4025 3406 3419 
Q 3406 3131 3298 2873 
Q 3191 2616 2906 2266 
Q 2828 2175 2409 1742 
Q 1991 1309 1228 531 
z
" transform="scale(0.015625)"/>
       </defs>
       <use xlink:href="#DejaVuSans-32"/>
       <use xlink:href="#DejaVuSans-30" transform="translate(63.623047 0)"/>
       <use xlink:href="#DejaVuSans-30" transform="translate(127.246094 0)"/>
       <use xlink:href="#DejaVuSans-30" transform="translate(190.869141 0)"/>
       <use xlink:href="#DejaVuSans-30" transform="translate(254.492188 0)"/>
      </g>
     </g>
    </g>
    <g id="ytick_4">
     <g id="line2d_33">
      <path d="M 61.62625 236.440169 
L 704.321791 236.440169 
" clip-path="url(#pb93468b9c9)" style="fill: none; stroke-dasharray: 2.96,1.28; stroke-dashoffset: 0; stroke: #b0b0b0; stroke-opacity: 0.3; stroke-width: 0.8"/>
     </g>
     <g id="line2d_34">
      <g>
       <use xlink:href="#m899952f582" x="61.62625" y="236.440169" style="stroke: #000000; stroke-width: 0.8"/>
      </g>
     </g>
     <g id="text_18">
      <!-- 30000 -->
      <g transform="translate(22.81375 240.239387) scale(0.1 -0.1)">
       <defs>
        <path id="DejaVuSans-33" d="M 2597 2516 
Q 3050 2419 3304 2112 
Q 3559 1806 3559 1356 
Q 3559 666 3084 287 
Q 2609 -91 1734 -91 
Q 1441 -91 1130 -33 
Q 819 25 488 141 
L 488 750 
Q 750 597 1062 519 
Q 1375 441 1716 441 
Q 2309 441 2620 675 
Q 2931 909 2931 1356 
Q 2931 1769 2642 2001 
Q 2353 2234 1838 2234 
L 1294 2234 
L 1294 2753 
L 1863 2753 
Q 2328 2753 2575 2939 
Q 2822 3125 2822 3475 
Q 2822 3834 2567 4026 
Q 2313 4219 1838 4219 
Q 1578 4219 1281 4162 
Q 984 4106 628 3988 
L 628 4550 
Q 988 4650 1302 4700 
Q 1616 4750 1894 4750 
Q 2613 4750 3031 4423 
Q 3450 4097 3450 3541 
Q 3450 3153 3228 2886 
Q 3006 2619 2597 2516 
z
" transform="scale(0.015625)"/>
       </defs>
       <use xlink:href="#DejaVuSans-33"/>
       <use xlink:href="#DejaVuSans-30" transform="translate(63.623047 0)"/>
       <use xlink:href="#DejaVuSans-30" transform="translate(127.246094 0)"/>
       <use xlink:href="#DejaVuSans-30" transform="translate(190.869141 0)"/>
       <use xlink:href="#DejaVuSans-30" transform="translate(254.492188 0)"/>
      </g>
     </g>
    </g>
    <g id="ytick_5">
     <g id="line2d_35">
      <path d="M 61.62625 187.187725 
L 704.321791 187.187725 
" clip-path="url(#pb93468b9c9)" style="fill: none; stroke-dasharray: 2.96,1.28; stroke-dashoffset: 0; stroke: #b0b0b0; stroke-opacity: 0.3; stroke-width: 0.8"/>
     </g>
     <g id="line2d_36">
      <g>
       <use xlink:href="#m899952f582" x="61.62625" y="187.187725" style="stroke: #000000; stroke-width: 0.8"/>
      </g>
     </g>
     <g id="text_19">
      <!-- 40000 -->
      <g transform="translate(22.81375 190.986944) scale(0.1 -0.1)">
       <defs>
        <path id="DejaVuSans-34" d="M 2419 4116 
L 825 1625 
L 2419 1625 
L 2419 4116 
z
M 2253 4666 
L 3047 4666 
L 3047 1625 
L 3713 1625 
L 3713 1100 
L 3047 1100 
L 3047 0 
L 2419 0 
L 2419 1100 
L 313 1100 
L 313 1709 
L 2253 4666 
z
" transform="scale(0.015625)"/>
       </defs>
       <use xlink:href="#DejaVuSans-34"/>
       <use xlink:href="#DejaVuSans-30" transform="translate(63.623047 0)"/>
       <use xlink:href="#DejaVuSans-30" transform="translate(127.246094 0)"/>
       <use xlink:href="#DejaVuSans-30" transform="translate(190.869141 0)"/>
       <use xlink:href="#DejaVuSans-30" transform="translate(254.492188 0)"/>
      </g>
     </g>
    </g>
    <g id="ytick_6">
     <g id="line2d_37">
      <path d="M 61.62625 137.935281 
L 704.321791 137.935281 
" clip-path="url(#pb93468b9c9)" style="fill: none; stroke-dasharray: 2.96,1.28; stroke-dashoffset: 0; stroke: #b0b0b0; stroke-opacity: 0.3; stroke-width: 0.8"/>
     </g>
     <g id="line2d_38">
      <g>
       <use xlink:href="#m899952f582" x="61.62625" y="137.935281" style="stroke: #000000; stroke-width: 0.8"/>
      </g>
     </g>
     <g id="text_20">
      <!-- 50000 -->
      <g transform="translate(22.81375 141.7345) scale(0.1 -0.1)">
       <defs>
        <path id="DejaVuSans-35" d="M 691 4666 
L 3169 4666 
L 3169 4134 
L 1269 4134 
L 1269 2991 
Q 1406 3038 1543 3061 
Q 1681 3084 1819 3084 
Q 2600 3084 3056 2656 
Q 3513 2228 3513 1497 
Q 3513 744 3044 326 
Q 2575 -91 1722 -91 
Q 1428 -91 1123 -41 
Q 819 9 494 109 
L 494 744 
Q 775 591 1075 516 
Q 1375 441 1709 441 
Q 2250 441 2565 725 
Q 2881 1009 2881 1497 
Q 2881 1984 2565 2268 
Q 2250 2553 1709 2553 
Q 1456 2553 1204 2497 
Q 953 2441 691 2322 
L 691 4666 
z
" transform="scale(0.015625)"/>
       </defs>
       <use xlink:href="#DejaVuSans-35"/>
       <use xlink:href="#DejaVuSans-30" transform="translate(63.623047 0)"/>
       <use xlink:href="#DejaVuSans-30" transform="translate(127.246094 0)"/>
       <use xlink:href="#DejaVuSans-30" transform="translate(190.869141 0)"/>
       <use xlink:href="#DejaVuSans-30" transform="translate(254.492188 0)"/>
      </g>
     </g>
    </g>
    <g id="ytick_7">
     <g id="line2d_39">
      <path d="M 61.62625 88.682837 
L 704.321791 88.682837 
" clip-path="url(#pb93468b9c9)" style="fill: none; stroke-dasharray: 2.96,1.28; stroke-dashoffset: 0; stroke: #b0b0b0; stroke-opacity: 0.3; stroke-width: 0.8"/>
     </g>
     <g id="line2d_40">
      <g>
       <use xlink:href="#m899952f582" x="61.62625" y="88.682837" style="stroke: #000000; stroke-width: 0.8"/>
      </g>
     </g>
     <g id="text_21">
      <!-- 60000 -->
      <g transform="translate(22.81375 92.482056) scale(0.1 -0.1)">
       <defs>
        <path id="DejaVuSans-36" d="M 2113 2584 
Q 1688 2584 1439 2293 
Q 1191 2003 1191 1497 
Q 1191 994 1439 701 
Q 1688 409 2113 409 
Q 2538 409 2786 701 
Q 3034 994 3034 1497 
Q 3034 2003 2786 2293 
Q 2538 2584 2113 2584 
z
M 3366 4563 
L 3366 3988 
Q 3128 4100 2886 4159 
Q 2644 4219 2406 4219 
Q 1781 4219 1451 3797 
Q 1122 3375 1075 2522 
Q 1259 2794 1537 2939 
Q 1816 3084 2150 3084 
Q 2853 3084 3261 2657 
Q 3669 2231 3669 1497 
Q 3669 778 3244 343 
Q 2819 -91 2113 -91 
Q 1303 -91 875 529 
Q 447 1150 447 2328 
Q 447 3434 972 4092 
Q 1497 4750 2381 4750 
Q 2619 4750 2861 4703 
Q 3103 4656 3366 4563 
z
" transform="scale(0.015625)"/>
       </defs>
       <use xlink:href="#DejaVuSans-36"/>
       <use xlink:href="#DejaVuSans-30" transform="translate(63.623047 0)"/>
       <use xlink:href="#DejaVuSans-30" transform="translate(127.246094 0)"/>
       <use xlink:href="#DejaVuSans-30" transform="translate(190.869141 0)"/>
       <use xlink:href="#DejaVuSans-30" transform="translate(254.492188 0)"/>
      </g>
     </g>
    </g>
    <g id="ytick_8">
     <g id="line2d_41">
      <path d="M 61.62625 39.430394 
L 704.321791 39.430394 
" clip-path="url(#pb93468b9c9)" style="fill: none; stroke-dasharray: 2.96,1.28; stroke-dashoffset: 0; stroke: #b0b0b0; stroke-opacity: 0.3; stroke-width: 0.8"/>
     </g>
     <g id="line2d_42">
      <g>
       <use xlink:href="#m899952f582" x="61.62625" y="39.430394" style="stroke: #000000; stroke-width: 0.8"/>
      </g>
     </g>
     <g id="text_22">
      <!-- 70000 -->
      <g transform="translate(22.81375 43.229612) scale(0.1 -0.1)">
       <defs>
        <path id="DejaVuSans-37" d="M 525 4666 
L 3525 4666 
L 3525 4397 
L 1831 0 
L 1172 0 
L 2766 4134 
L 525 4134 
L 525 4666 
z
" transform="scale(0.015625)"/>
       </defs>
       <use xlink:href="#DejaVuSans-37"/>
       <use xlink:href="#DejaVuSans-30" transform="translate(63.623047 0)"/>
       <use xlink:href="#DejaVuSans-30" transform="translate(127.246094 0)"/>
       <use xlink:href="#DejaVuSans-30" transform="translate(190.869141 0)"/>
       <use xlink:href="#DejaVuSans-30" transform="translate(254.492188 0)"/>
      </g>
     </g>
    </g>
    <g id="text_23">
     <!-- Daily pedestrian count -->
     <g transform="translate(16.318125 279.793125) rotate(-90) scale(0.12 -0.12)">
      <defs>
       <path id="DejaVuSans-69" d="M 603 3500 
L 1178 3500 
L 1178 0 
L 603 0 
L 603 3500 
z
M 603 4863 
L 1178 4863 
L 1178 4134 
L 603 4134 
L 603 4863 
z
" transform="scale(0.015625)"/>
       <path id="DejaVuSans-64" d="M 2906 2969 
L 2906 4863 
L 3481 4863 
L 3481 0 
L 2906 0 
L 2906 525 
Q 2725 213 2448 61 
Q 2172 -91 1784 -91 
Q 1150 -91 751 415 
Q 353 922 353 1747 
Q 353 2572 751 3078 
Q 1150 3584 1784 3584 
Q 2172 3584 2448 3432 
Q 2725 3281 2906 2969 
z
M 947 1747 
Q 947 1113 1208 752 
Q 1469 391 1925 391 
Q 2381 391 2643 752 
Q 2906 1113 2906 1747 
Q 2906 2381 2643 2742 
Q 2381 3103 1925 3103 
Q 1469 3103 1208 2742 
Q 947 2381 947 1747 
z
" transform="scale(0.015625)"/>
       <path id="DejaVuSans-73" d="M 2834 3397 
L 2834 2853 
Q 2591 2978 2328 3040 
Q 2066 3103 1784 3103 
Q 1356 3103 1142 2972 
Q 928 2841 928 2578 
Q 928 2378 1081 2264 
Q 1234 2150 1697 2047 
L 1894 2003 
Q 2506 1872 2764 1633 
Q 3022 1394 3022 966 
Q 3022 478 2636 193 
Q 2250 -91 1575 -91 
Q 1294 -91 989 -36 
Q 684 19 347 128 
L 347 722 
Q 666 556 975 473 
Q 1284 391 1588 391 
Q 1994 391 2212 530 
Q 2431 669 2431 922 
Q 2431 1156 2273 1281 
Q 2116 1406 1581 1522 
L 1381 1569 
Q 847 1681 609 1914 
Q 372 2147 372 2553 
Q 372 3047 722 3315 
Q 1072 3584 1716 3584 
Q 2034 3584 2315 3537 
Q 2597 3491 2834 3397 
z
" transform="scale(0.015625)"/>
      </defs>
      <use xlink:href="#DejaVuSans-44"/>
      <use xlink:href="#DejaVuSans-61" transform="translate(77.001953 0)"/>
      <use xlink:href="#DejaVuSans-69" transform="translate(138.28125 0)"/>
      <use xlink:href="#DejaVuSans-6c" transform="translate(166.064453 0)"/>
      <use xlink:href="#DejaVuSans-79" transform="translate(193.847656 0)"/>
      <use xlink:href="#DejaVuSans-20" transform="translate(253.027344 0)"/>
      <use xlink:href="#DejaVuSans-70" transform="translate(284.814453 0)"/>
      <use xlink:href="#DejaVuSans-65" transform="translate(348.291016 0)"/>
      <use xlink:href="#DejaVuSans-64" transform="translate(409.814453 0)"/>
      <use xlink:href="#DejaVuSans-65" transform="translate(473.291016 0)"/>
      <use xlink:href="#DejaVuSans-73" transform="translate(534.814453 0)"/>
      <use xlink:href="#DejaVuSans-74" transform="translate(586.914062 0)"/>
      <use xlink:href="#DejaVuSans-72" transform="translate(626.123047 0)"/>
      <use xlink:href="#DejaVuSans-69" transform="translate(667.236328 0)"/>
      <use xlink:href="#DejaVuSans-61" transform="translate(695.019531 0)"/>
      <use xlink:href="#DejaVuSans-6e" transform="translate(756.298828 0)"/>
      <use xlink:href="#DejaVuSans-20" transform="translate(819.677734 0)"/>
      <use xlink:href="#DejaVuSans-63" transform="translate(851.464844 0)"/>
      <use xlink:href="#DejaVuSans-6f" transform="translate(906.445312 0)"/>
      <use xlink:href="#DejaVuSans-75" transform="translate(967.626953 0)"/>
      <use xlink:href="#DejaVuSans-6e" transform="translate(1031.005859 0)"/>
      <use xlink:href="#DejaVuSans-74" transform="translate(1094.384766 0)"/>
     </g>
    </g>
   </g>
   <g id="line2d_43">
    <path d="M 63.363265 102.690232 
L 65.10028 163.684459 
L 66.837295 164.058777 
L 68.57431 215.158188 
L 70.311325 172.98332 
L 72.04834 178.775408 
L 73.785355 168.348665 
L 75.52237 150.420776 
L 77.259385 139.215845 
L 78.9964 143.540209 
L 80.733415 114.638875 
L 84.207445 174.327912 
L 85.94446 158.852794 
L 87.681475 139.52121 
L 89.41849 123.60282 
L 91.155505 130.079516 
L 92.89252 101.389968 
L 94.629535 95.716086 
L 96.366549 129.311178 
L 98.103564 139.777323 
L 99.840579 128.468961 
L 101.577594 115.683027 
L 103.314609 160.79334 
L 105.051624 196.77225 
L 106.788639 190.571368 
L 108.525654 198.451759 
L 110.262669 263.671845 
L 111.999684 243.369988 
L 113.736699 256.948886 
L 115.473714 233.997247 
L 117.210729 187.143398 
L 118.947744 192.344456 
L 120.684759 243.995494 
L 122.421774 210.87815 
L 124.158789 191.817455 
L 125.895804 230.391969 
L 127.632819 194.644545 
L 129.369834 172.727207 
L 131.106849 180.282532 
L 132.843864 175.49027 
L 134.580879 224.594956 
L 136.317894 233.632779 
L 138.054909 187.074444 
L 139.791924 166.368717 
L 141.528939 158.705037 
L 143.265954 161.49765 
L 145.002969 213.020632 
L 146.739984 220.989677 
L 148.476999 208.981931 
L 150.214014 203.179993 
L 151.951029 201.387204 
L 153.688044 159.798441 
L 155.425059 175.711906 
L 157.162074 194.812003 
L 158.899089 218.019755 
L 160.636104 200.535137 
L 162.373119 203.175068 
L 164.110133 215.438927 
L 165.847148 212.853173 
L 167.584163 239.602176 
L 169.321178 263.617667 
L 171.058193 207.144815 
L 172.795208 198.052814 
L 174.532223 210.952029 
L 176.269238 186.498191 
L 178.006253 173.239433 
L 179.743268 127.316454 
L 181.480283 106.945644 
L 183.217298 143.018133 
L 184.954313 229.372443 
L 186.691328 205.93813 
L 188.428343 196.732849 
L 190.165358 172.318412 
L 191.902373 185.803731 
L 193.639388 205.933205 
L 195.376403 199.569789 
L 197.113418 202.066888 
L 198.850433 205.470232 
L 200.587448 177.834686 
L 202.324463 133.207047 
L 204.061478 134.625517 
L 205.798493 166.747961 
L 207.535508 236.538674 
L 209.272523 216.300844 
L 211.009538 203.844901 
L 212.746553 199.313677 
L 214.483568 206.479907 
L 216.220583 264.346603 
L 217.957598 270.966132 
L 219.694613 247.95539 
L 221.431628 214.355373 
L 223.168643 223.240514 
L 224.905658 215.877273 
L 226.642673 179.046296 
L 228.379688 172.057374 
L 231.853717 236.711057 
L 233.590732 226.304016 
L 235.327747 220.94535 
L 237.064762 212.124237 
L 238.801777 155.572581 
L 240.538792 196.634344 
L 242.275807 217.911399 
L 244.012822 212.956604 
L 245.749837 194.989312 
L 247.486852 216.51263 
L 249.223867 189.665123 
L 250.960882 167.398093 
L 252.697897 172.968544 
L 254.434912 201.672869 
L 256.171927 243.547296 
L 257.908942 227.924421 
L 259.645957 228.781414 
L 261.382972 191.861782 
L 263.119987 268.602014 
L 264.857002 259.115994 
L 266.594017 297.537825 
L 268.331032 261.371756 
L 270.068047 246.458116 
L 271.805062 251.806931 
L 273.542077 259.918809 
L 275.279092 215.458628 
L 277.016107 256.574568 
L 278.753122 261.199372 
L 280.490137 262.85918 
L 282.227152 253.294355 
L 283.964167 267.863228 
L 285.701182 266.902805 
L 287.438197 275.822423 
L 289.175212 247.482567 
L 290.912227 257.840356 
L 292.649242 263.386181 
L 294.386257 253.58987 
L 296.123272 250.225928 
L 297.860287 245.423814 
L 299.597301 219.423449 
L 301.334316 219.073757 
L 303.071331 250.925312 
L 304.808346 260.509838 
L 306.545361 252.757503 
L 308.282376 241.271833 
L 310.019391 238.055649 
L 311.756406 243.049847 
L 313.493421 254.983714 
L 315.230436 278.807121 
L 316.967451 295.651457 
L 318.704466 284.702638 
L 320.441481 297.557526 
L 322.178496 285.475902 
L 323.915511 260.96296 
L 325.652526 255.10192 
L 327.389541 293.873443 
L 329.126556 302.955594 
L 330.863571 280.545732 
L 332.600586 278.836672 
L 334.337601 271.232095 
L 336.074616 226.565054 
L 337.811631 231.209559 
L 339.548646 243.42909 
L 341.285661 279.324271 
L 343.022676 274.891552 
L 344.759691 301.650404 
L 346.496706 271.202544 
L 348.233721 258.874657 
L 349.970736 250.738153 
L 351.707751 291.38127 
L 353.444766 273.581437 
L 355.181781 292.203786 
L 356.918796 282.496129 
L 358.655811 285.741865 
L 360.392826 256.086969 
L 362.129841 269.596914 
L 363.866856 294.031051 
L 365.603871 275.123038 
L 367.340886 272.591462 
L 369.0779 270.296299 
L 370.814915 268.483809 
L 372.55193 239.094875 
L 374.288945 302.586201 
L 376.02596 268.375453 
L 377.762975 276.378975 
L 379.49999 267.119516 
L 381.237005 254.437012 
L 382.97402 250.294881 
L 384.711035 212.38035 
L 386.44805 208.036284 
L 388.185065 277.536408 
L 389.92208 254.648797 
L 391.659095 254.412385 
L 393.39611 267.10474 
L 395.133125 275.438254 
L 396.87014 268.784249 
L 398.607155 273.748895 
L 400.34417 311.801333 
L 402.081185 278.221017 
L 403.8182 276.029283 
L 405.555215 282.574933 
L 407.29223 269.409755 
L 409.029245 243.872362 
L 410.76626 243.340436 
L 412.503275 275.984956 
L 414.24029 278.506681 
L 415.977305 291.760514 
L 417.71432 279.846347 
L 419.451335 270.838075 
L 421.18835 255.500864 
L 424.66238 236.932693 
L 426.399395 276.787771 
L 428.13641 276.625238 
L 429.873425 278.408176 
L 431.61044 273.379502 
L 433.347455 259.830154 
L 435.08447 260.687147 
L 436.821484 278.477129 
L 438.558499 275.063935 
L 440.295514 287.672561 
L 442.032529 272.039835 
L 443.769544 276.600611 
L 445.506559 284.53518 
L 447.243574 283.412224 
L 448.980589 298.616454 
L 450.717604 281.397799 
L 452.454619 271.547311 
L 454.191634 281.855847 
L 455.928649 274.970355 
L 457.665664 253.39286 
L 459.402679 208.55836 
L 461.139694 287.746439 
L 462.876709 288.682236 
L 464.613724 280.462003 
L 466.350739 278.132362 
L 468.087754 272.118639 
L 469.824769 190.733901 
L 471.561784 238.759959 
L 473.298799 259.106143 
L 475.035814 281.663763 
L 476.772829 272.680117 
L 478.509844 293.952247 
L 480.246859 280.166488 
L 481.983874 240.848262 
L 483.720889 244.409214 
L 485.457904 290.726212 
L 487.194919 275.467805 
L 488.931934 252.240353 
L 490.668949 268.946782 
L 492.405964 266.070439 
L 494.142979 244.271307 
L 495.879994 283.106859 
L 497.617009 311.94909 
L 499.354024 298.045125 
L 501.091039 279.206066 
L 502.828054 262.189346 
L 504.565068 279.861123 
L 506.302083 229.746762 
L 508.039098 216.803219 
L 509.776113 284.653386 
L 511.513128 281.274668 
L 513.250143 271.926554 
L 514.987158 264.139743 
L 516.724173 257.978262 
L 518.461188 210.065485 
L 520.198203 258.150646 
L 521.935218 283.491028 
L 523.672233 279.772469 
L 525.409248 265.641943 
L 527.146263 249.186701 
L 528.883278 224.107357 
L 530.620293 264.331828 
L 532.357308 235.36154 
L 534.094323 264.351529 
L 535.831338 261.962785 
L 537.568353 227.195485 
L 539.305368 217.773493 
L 541.042383 213.271819 
L 542.779398 241.931816 
L 544.516413 215.389674 
L 547.990443 261.795327 
L 549.727458 275.940629 
L 551.464473 270.380028 
L 553.201488 261.593392 
L 554.938503 231.140606 
L 556.675518 205.943056 
L 558.412533 231.874467 
L 560.149548 256.027866 
L 561.886563 242.247032 
L 563.623578 269.42453 
L 565.360593 281.156462 
L 567.097608 228.313515 
L 568.834623 260.199548 
L 570.571638 283.308794 
L 572.308652 253.99374 
L 574.045667 234.263211 
L 575.782682 229.835416 
L 577.519697 236.622403 
L 579.256712 248.418363 
L 580.993727 279.082935 
L 582.730742 285.288742 
L 584.467757 256.215025 
L 586.204772 238.804286 
L 587.941787 235.740784 
L 589.678802 255.796379 
L 591.415817 242.084499 
L 593.152832 287.076606 
L 596.626862 277.492081 
L 598.363877 268.587239 
L 600.100892 261.632794 
L 601.837907 281.309145 
L 603.574922 270.798673 
L 605.311937 279.866048 
L 607.048952 287.830169 
L 608.785967 241.266908 
L 610.522982 275.182141 
L 612.259997 264.666744 
L 613.997012 251.092771 
L 615.734027 245.187403 
L 617.471042 243.81326 
L 619.208057 263.558564 
L 620.945072 262.86903 
L 622.682087 249.107897 
L 624.419102 244.093998 
L 626.156117 272.818024 
L 627.893132 217.41395 
L 629.630147 237.494171 
L 634.841192 271.53746 
L 636.578207 247.329884 
L 638.315222 234.130229 
L 640.052236 218.817644 
L 641.789251 244.793383 
L 643.526266 294.449697 
L 645.263281 282.348372 
L 647.000296 262.745899 
L 648.737311 258.928835 
L 650.474326 244.340261 
L 653.948356 187.251753 
L 655.685371 232.593553 
L 657.422386 255.239826 
L 659.159401 256.461287 
L 660.896416 239.513521 
L 662.633431 232.997423 
L 664.370446 200.362754 
L 666.107461 186.473564 
L 667.844476 227.052653 
L 669.581491 240.986169 
L 671.318506 244.409214 
L 673.055521 257.973337 
L 674.792536 224.003927 
L 676.529551 240.439467 
L 678.266566 233.312639 
L 680.003581 212.050359 
L 681.740596 226.634007 
L 683.477611 219.201813 
L 685.214626 232.509824 
L 686.951641 221.171911 
L 688.688656 207.977181 
L 690.425671 216.665313 
L 692.162686 229.61378 
L 693.899701 255.495939 
L 695.636716 55.619672 
L 695.636716 55.619672 
" clip-path="url(#pb93468b9c9)" style="fill: none; stroke: #0d6efc; stroke-opacity: 0.8; stroke-width: 2.5; stroke-linecap: square"/>
   </g>
   <g id="line2d_44">
    <path d="M 63.363265 139.481808 
L 66.837295 235.386166 
L 68.57431 218.4187 
L 70.311325 258.185123 
L 72.04834 276.46763 
L 73.785355 204.962932 
L 75.52237 205.967682 
L 77.259385 202.638217 
L 78.9964 182.597397 
L 80.733415 171.914542 
L 82.47043 241.178254 
L 84.207445 183.66125 
L 85.94446 168.919994 
L 87.681475 206.312449 
L 89.41849 154.897823 
L 91.155505 149.366773 
L 92.89252 125.489189 
L 94.629535 176.844712 
L 96.366549 204.307874 
L 98.103564 191.773127 
L 99.840579 183.508567 
L 101.577594 195.141995 
L 103.314609 161.118406 
L 105.051624 138.078113 
L 106.788639 156.409873 
L 108.525654 271.53746 
L 110.262669 218.985103 
L 111.999684 215.645787 
L 113.736699 216.246667 
L 115.473714 198.501011 
L 117.210729 175.879364 
L 118.947744 264.957334 
L 120.684759 258.323029 
L 122.421774 238.198481 
L 124.158789 214.680439 
L 127.632819 192.285353 
L 129.369834 172.628703 
L 131.106849 225.264789 
L 132.843864 238.173855 
L 134.580879 218.857046 
L 136.317894 222.876046 
L 138.054909 236.139729 
L 139.791924 195.427659 
L 141.528939 222.368746 
L 143.265954 232.312814 
L 145.002969 227.820991 
L 146.739984 216.468303 
L 148.476999 226.505951 
L 150.214014 192.974887 
L 151.951029 186.975939 
L 153.688044 187.581744 
L 155.425059 229.31334 
L 157.162074 223.920197 
L 158.899089 200.835577 
L 160.636104 216.177713 
L 162.373119 195.925108 
L 164.110133 187.148323 
L 165.847148 170.786661 
L 167.584163 235.804812 
L 169.321178 232.13058 
L 171.058193 210.646664 
L 172.795208 222.088007 
L 174.532223 204.962932 
L 176.269238 172.392291 
L 178.006253 114.860511 
L 179.743268 118.721903 
L 181.480283 180.647 
L 183.217298 211.87305 
L 184.954313 210.730393 
L 186.691328 167.865991 
L 188.428343 162.591055 
L 190.165358 159.232038 
L 191.902373 281.9051 
L 193.639388 191.191949 
L 195.376403 174.78596 
L 198.850433 226.372969 
L 200.587448 192.354306 
L 202.324463 136.088315 
L 204.061478 205.662317 
L 205.798493 227.205335 
L 207.535508 209.129689 
L 209.272523 219.723889 
L 211.009538 194.191422 
L 212.746553 189.655272 
L 214.483568 173.914191 
L 216.220583 243.291184 
L 217.957598 243.42909 
L 219.694613 228.988274 
L 221.431628 211.843498 
L 223.168643 204.987558 
L 224.905658 210.912627 
L 226.642673 150.479879 
L 228.379688 180.119999 
L 230.116703 233.810088 
L 231.853717 210.823973 
L 233.590732 206.356776 
L 235.327747 197.501187 
L 237.064762 182.883061 
L 238.801777 156.114358 
L 240.538792 203.352377 
L 242.275807 226.58968 
L 244.012822 206.002158 
L 245.749837 204.608314 
L 247.486852 194.15202 
L 249.223867 176.884114 
L 250.960882 161.014976 
L 252.697897 189.980338 
L 254.434912 210.651589 
L 256.171927 240.129177 
L 257.908942 225.471649 
L 259.645957 195.506463 
L 261.382972 204.760997 
L 263.119987 213.409726 
L 264.857002 240.680804 
L 266.594017 255.574743 
L 268.331032 255.653547 
L 270.068047 249.147299 
L 271.805062 238.326537 
L 273.542077 231.071652 
L 275.279092 198.816227 
L 277.016107 240.124251 
L 278.753122 257.170522 
L 280.490137 234.637529 
L 282.227152 257.697523 
L 283.964167 231.741486 
L 285.701182 230.490473 
L 287.438197 211.725292 
L 289.175212 209.686241 
L 290.912227 258.293478 
L 292.649242 241.119151 
L 294.386257 242.926716 
L 296.123272 244.187578 
L 297.860287 241.473768 
L 299.597301 292.617506 
L 301.334316 241.380189 
L 303.071331 263.686621 
L 304.808346 252.131997 
L 306.545361 252.466914 
L 308.282376 244.547121 
L 310.019391 274.729018 
L 311.756406 212.321247 
L 313.493421 248.127774 
L 315.230436 271.665516 
L 316.967451 286.057081 
L 318.704466 286.391997 
L 320.441481 260.623119 
L 323.915511 217.497679 
L 325.652526 266.311776 
L 327.389541 330.098616 
L 329.126556 299.453745 
L 330.863571 265.68627 
L 332.600586 257.864982 
L 334.337601 280.570358 
L 336.074616 376.105323 
L 337.811631 266.740272 
L 339.548646 295.961747 
L 341.285661 271.305974 
L 343.022676 268.867978 
L 344.759691 254.959088 
L 346.496706 274.832449 
L 348.233721 250.408162 
L 349.970736 380.109547 
L 351.707751 294.617155 
L 353.444766 280.762443 
L 355.181781 270.53271 
L 356.918796 276.841948 
L 358.655811 371.89424 
L 360.392826 235.189157 
L 362.129841 270.517935 
L 363.866856 282.510905 
L 365.603871 275.778096 
L 367.340886 309.471692 
L 369.0779 259.012564 
L 370.814915 251.747828 
L 372.55193 234.100678 
L 374.288945 283.771767 
L 376.02596 380.86311 
L 377.762975 275.620488 
L 379.49999 334.565812 
L 381.237005 379.26733 
L 382.97402 240.035597 
L 384.711035 219.856871 
L 386.44805 252.560494 
L 388.185065 245.320384 
L 389.92208 266.932357 
L 391.659095 255.052667 
L 393.39611 267.257423 
L 395.133125 248.364185 
L 396.87014 197.003737 
L 398.607155 214.926701 
L 400.34417 254.638947 
L 402.081185 253.929711 
L 403.8182 248.807457 
L 405.555215 251.555744 
L 407.29223 222.565755 
L 409.029245 240.602 
L 410.76626 249.556094 
L 412.503275 269.193044 
L 414.24029 290.972474 
L 415.977305 258.155571 
L 417.71432 213.744643 
L 419.451335 212.646313 
L 421.18835 190.699424 
L 422.925365 268.769473 
L 424.66238 277.915652 
L 426.399395 257.500514 
L 428.13641 261.485036 
L 429.873425 252.762429 
L 431.61044 248.699102 
L 433.347455 210.883076 
L 435.08447 246.44334 
L 436.821484 266.740272 
L 438.558499 378.513768 
L 440.295514 268.075013 
L 442.032529 232.160131 
L 443.769544 248.423288 
L 445.506559 230.022575 
L 448.980589 252.673774 
L 450.717604 296.902469 
L 452.454619 251.959614 
L 454.191634 225.057929 
L 455.928649 286.864821 
L 457.665664 241.227506 
L 459.402679 272.143265 
L 461.139694 281.387949 
L 462.876709 252.39796 
L 464.613724 243.837886 
L 466.350739 219.162411 
L 468.087754 225.67851 
L 469.824769 193.157121 
L 471.561784 228.934096 
L 473.298799 251.324257 
L 475.035814 295.439671 
L 476.772829 264.164369 
L 478.509844 251.767529 
L 480.246859 270.453906 
L 481.983874 272.394453 
L 483.720889 288.47045 
L 485.457904 279.935002 
L 487.194919 259.889257 
L 488.931934 255.072368 
L 490.668949 261.928308 
L 492.405964 216.079208 
L 494.142979 202.776123 
L 495.879994 279.649338 
L 497.617009 256.574568 
L 499.354024 254.722676 
L 501.091039 264.622417 
L 504.565068 249.6743 
L 506.302083 237.16418 
L 508.039098 233.874116 
L 509.776113 256.998139 
L 511.513128 274.906327 
L 514.987158 232.63788 
L 516.724173 219.812544 
L 518.461188 219.556431 
L 520.198203 278.349073 
L 521.935218 269.51811 
L 523.672233 246.778257 
L 525.409248 267.400255 
L 527.146263 229.500499 
L 528.883278 217.862147 
L 530.620293 187.39951 
L 532.357308 246.95064 
L 534.094323 238.405341 
L 535.831338 260.480286 
L 537.568353 244.300859 
L 539.305368 259.357331 
L 541.042383 232.22416 
L 542.779398 166.73811 
L 544.516413 250.147124 
L 546.253428 261.652495 
L 547.990443 229.259162 
L 549.727458 235.96242 
L 551.464473 218.000054 
L 553.201488 219.453001 
L 554.938503 203.913855 
L 556.675518 242.572098 
L 558.412533 250.009217 
L 560.149548 237.341488 
L 561.886563 221.945174 
L 563.623578 234.263211 
L 565.360593 236.538674 
L 567.097608 205.913504 
L 568.834623 264.420482 
L 570.571638 283.106859 
L 572.308652 236.450019 
L 574.045667 291.110381 
L 575.782682 230.057052 
L 577.519697 227.619056 
L 579.256712 242.734631 
L 580.993727 314.195002 
L 584.467757 226.4961 
L 586.204772 220.896097 
L 587.941787 200.19037 
L 589.678802 227.79144 
L 591.415817 162.339867 
L 593.152832 203.51491 
L 594.889847 307.949792 
L 596.626862 275.004832 
L 598.363877 224.471825 
L 600.100892 214.788794 
L 601.837907 288.386721 
L 603.574922 332.122891 
L 605.311937 250.413087 
L 607.048952 271.350301 
L 608.785967 260.273426 
L 610.522982 207.24332 
L 612.259997 207.026609 
L 613.997012 198.299076 
L 615.734027 165.038901 
L 617.471042 244.389513 
L 619.208057 264.903156 
L 620.945072 229.362593 
L 622.682087 218.605859 
L 624.419102 215.31087 
L 626.156117 205.72142 
L 627.893132 195.452285 
L 629.630147 252.654073 
L 631.367162 226.594605 
L 633.104177 207.455106 
L 634.841192 232.613254 
L 636.578207 219.896273 
L 638.315222 228.692759 
L 640.052236 215.163113 
L 641.789251 261.243699 
L 643.526266 264.134818 
L 645.263281 221.309818 
L 647.000296 190.261077 
L 648.737311 183.114548 
L 650.474326 146.096411 
L 652.211341 209.208493 
L 653.948356 151.942676 
L 655.685371 219.920899 
L 657.422386 197.023438 
L 659.159401 198.919657 
L 660.896416 166.275137 
L 662.633431 118.800707 
L 664.370446 119.500091 
L 667.844476 233.007273 
L 669.581491 199.2792 
L 671.318506 187.88711 
L 673.055521 190.295554 
L 674.792536 147.401601 
L 676.529551 110.270183 
L 678.266566 268.331126 
L 680.003581 150.740917 
L 681.740596 127.129295 
L 683.477611 152.962202 
L 685.214626 130.833079 
L 686.951641 174.869689 
L 688.688656 115.052596 
L 690.425671 121.711526 
L 692.162686 200.008136 
L 693.899701 207.583162 
L 695.636716 100.577303 
L 695.636716 100.577303 
" clip-path="url(#pb93468b9c9)" style="fill: none; stroke: #83c966; stroke-opacity: 0.8; stroke-width: 2.5; stroke-linecap: square"/>
   </g>
   <g id="patch_3">
    <path d="M 61.62625 384.1975 
L 61.62625 39.3575 
" style="fill: none; stroke: #000000; stroke-width: 0.8; stroke-linejoin: miter; stroke-linecap: square"/>
   </g>
   <g id="patch_4">
    <path d="M 61.62625 384.1975 
L 704.321791 384.1975 
" style="fill: none; stroke: #000000; stroke-width: 0.8; stroke-linejoin: miter; stroke-linecap: square"/>
   </g>
   <g id="text_24">
    <!-- Pedestrian Traffic at Southbank -->
    <g transform="translate(257.97777 19.3575) scale(0.16 -0.16)">
     <defs>
      <path id="DejaVuSans-50" d="M 1259 4147 
L 1259 2394 
L 2053 2394 
Q 2494 2394 2734 2622 
Q 2975 2850 2975 3272 
Q 2975 3691 2734 3919 
Q 2494 4147 2053 4147 
L 1259 4147 
z
M 628 4666 
L 2053 4666 
Q 2838 4666 3239 4311 
Q 3641 3956 3641 3272 
Q 3641 2581 3239 2228 
Q 2838 1875 2053 1875 
L 1259 1875 
L 1259 0 
L 628 0 
L 628 4666 
z
" transform="scale(0.015625)"/>
      <path id="DejaVuSans-54" d="M -19 4666 
L 3928 4666 
L 3928 4134 
L 2272 4134 
L 2272 0 
L 1638 0 
L 1638 4134 
L -19 4134 
L -19 4666 
z
" transform="scale(0.015625)"/>
      <path id="DejaVuSans-6b" d="M 581 4863 
L 1159 4863 
L 1159 1991 
L 2875 3500 
L 3609 3500 
L 1753 1863 
L 3688 0 
L 2938 0 
L 1159 1709 
L 1159 0 
L 581 0 
L 581 4863 
z
" transform="scale(0.015625)"/>
     </defs>
     <use xlink:href="#DejaVuSans-50"/>
     <use xlink:href="#DejaVuSans-65" transform="translate(56.677734 0)"/>
     <use xlink:href="#DejaVuSans-64" transform="translate(118.201172 0)"/>
     <use xlink:href="#DejaVuSans-65" transform="translate(181.677734 0)"/>
     <use xlink:href="#DejaVuSans-73" transform="translate(243.201172 0)"/>
     <use xlink:href="#DejaVuSans-74" transform="translate(295.300781 0)"/>
     <use xlink:href="#DejaVuSans-72" transform="translate(334.509766 0)"/>
     <use xlink:href="#DejaVuSans-69" transform="translate(375.623047 0)"/>
     <use xlink:href="#DejaVuSans-61" transform="translate(403.40625 0)"/>
     <use xlink:href="#DejaVuSans-6e" transform="translate(464.685547 0)"/>
     <use xlink:href="#DejaVuSans-20" transform="translate(528.064453 0)"/>
     <use xlink:href="#DejaVuSans-54" transform="translate(559.851562 0)"/>
     <use xlink:href="#DejaVuSans-72" transform="translate(606.185547 0)"/>
     <use xlink:href="#DejaVuSans-61" transform="translate(647.298828 0)"/>
     <use xlink:href="#DejaVuSans-66" transform="translate(708.578125 0)"/>
     <use xlink:href="#DejaVuSans-66" transform="translate(743.783203 0)"/>
     <use xlink:href="#DejaVuSans-69" transform="translate(778.988281 0)"/>
     <use xlink:href="#DejaVuSans-63" transform="translate(806.771484 0)"/>
     <use xlink:href="#DejaVuSans-20" transform="translate(861.751953 0)"/>
     <use xlink:href="#DejaVuSans-61" transform="translate(893.539062 0)"/>
     <use xlink:href="#DejaVuSans-74" transform="translate(954.818359 0)"/>
     <use xlink:href="#DejaVuSans-20" transform="translate(994.027344 0)"/>
     <use xlink:href="#DejaVuSans-53" transform="translate(1025.814453 0)"/>
     <use xlink:href="#DejaVuSans-6f" transform="translate(1089.291016 0)"/>
     <use xlink:href="#DejaVuSans-75" transform="translate(1150.472656 0)"/>
     <use xlink:href="#DejaVuSans-74" transform="translate(1213.851562 0)"/>
     <use xlink:href="#DejaVuSans-68" transform="translate(1253.060547 0)"/>
     <use xlink:href="#DejaVuSans-62" transform="translate(1316.439453 0)"/>
     <use xlink:href="#DejaVuSans-61" transform="translate(1379.916016 0)"/>
     <use xlink:href="#DejaVuSans-6e" transform="translate(1441.195312 0)"/>
     <use xlink:href="#DejaVuSans-6b" transform="translate(1504.574219 0)"/>
    </g>
   </g>
   <g id="legend_1">
    <g id="patch_5">
     <path d="M 69.32625 80.449375 
L 132.52125 80.449375 
Q 134.72125 80.449375 134.72125 78.249375 
L 134.72125 47.0575 
Q 134.72125 44.8575 132.52125 44.8575 
L 69.32625 44.8575 
Q 67.12625 44.8575 67.12625 47.0575 
L 67.12625 78.249375 
Q 67.12625 80.449375 69.32625 80.449375 
z
" style="fill: #ffffff; opacity: 0.95; stroke: #cccccc; stroke-linejoin: miter"/>
    </g>
    <g id="line2d_45">
     <path d="M 71.52625 53.765781 
L 82.52625 53.765781 
L 93.52625 53.765781 
" style="fill: none; stroke: #0d6efc; stroke-opacity: 0.8; stroke-width: 2.5; stroke-linecap: square"/>
    </g>
    <g id="text_25">
     <!-- 2019 -->
     <g transform="translate(102.32625 57.615781) scale(0.11 -0.11)">
      <defs>
       <path id="DejaVuSans-39" d="M 703 97 
L 703 672 
Q 941 559 1184 500 
Q 1428 441 1663 441 
Q 2288 441 2617 861 
Q 2947 1281 2994 2138 
Q 2813 1869 2534 1725 
Q 2256 1581 1919 1581 
Q 1219 1581 811 2004 
Q 403 2428 403 3163 
Q 403 3881 828 4315 
Q 1253 4750 1959 4750 
Q 2769 4750 3195 4129 
Q 3622 3509 3622 2328 
Q 3622 1225 3098 567 
Q 2575 -91 1691 -91 
Q 1453 -91 1209 -44 
Q 966 3 703 97 
z
M 1959 2075 
Q 2384 2075 2632 2365 
Q 2881 2656 2881 3163 
Q 2881 3666 2632 3958 
Q 2384 4250 1959 4250 
Q 1534 4250 1286 3958 
Q 1038 3666 1038 3163 
Q 1038 2656 1286 2365 
Q 1534 2075 1959 2075 
z
" transform="scale(0.015625)"/>
      </defs>
      <use xlink:href="#DejaVuSans-32"/>
      <use xlink:href="#DejaVuSans-30" transform="translate(63.623047 0)"/>
      <use xlink:href="#DejaVuSans-31" transform="translate(127.246094 0)"/>
      <use xlink:href="#DejaVuSans-39" transform="translate(190.869141 0)"/>
     </g>
    </g>
    <g id="line2d_46">
     <path d="M 71.52625 69.911719 
L 82.52625 69.911719 
L 93.52625 69.911719 
" style="fill: none; stroke: #83c966; stroke-opacity: 0.8; stroke-width: 2.5; stroke-linecap: square"/>
    </g>
    <g id="text_26">
     <!-- 2025 -->
     <g transform="translate(102.32625 73.761719) scale(0.11 -0.11)">
      <use xlink:href="#DejaVuSans-32"/>
      <use xlink:href="#DejaVuSans-30" transform="translate(63.623047 0)"/>
      <use xlink:href="#DejaVuSans-32" transform="translate(127.246094 0)"/>
      <use xlink:href="#DejaVuSans-35" transform="translate(190.869141 0)"/>
     </g>
    </g>
   </g>
  </g>
 </g>
 <defs>
  <clipPath id="pb93468b9c9">
   <rect x="61.62625" y="39.3575" width="642.695541" height="344.84"/>
  </clipPath>
 </defs>
</svg>
