<?xml version="1.0" encoding="utf-8" standalone="no"?>
<!DOCTYPE svg PUBLIC "-//W3C//DTD SVG 1.1//EN"
  "http://www.w3.org/Graphics/SVG/1.1/DTD/svg11.dtd">
<svg xmlns:xlink="http://www.w3.org/1999/xlink" width="711.459291pt" height="423.689375pt" viewBox="0 0 711.459291 423.689375" xmlns="http://www.w3.org/2000/svg" version="1.1">
 <metadata>
  <rdf:RDF xmlns:dc="http://purl.org/dc/elements/1.1/" xmlns:cc="http://creativecommons.org/ns#" xmlns:rdf="http://www.w3.org/1999/02/22-rdf-syntax-ns#">
   <cc:Work>
    <dc:type rdf:resource="http://purl.org/dc/dcmitype/StillImage"/>
    <dc:date>2026-01-28T17:49:44.529230</dc:date>
    <dc:format>image/svg+xml</dc:format>
    <dc:creator>
     <cc:Agent>
      <dc:title>Matplotlib v3.10.8, https://matplotlib.org/</dc:title>
     </cc:Agent>
    </dc:creator>
   </cc:Work>
  </rdf:RDF>
 </metadata>
 <defs>
  <style type="text/css">*{stroke-linejoin: round; stroke-linecap: butt}</style>
 </defs>
 <g id="figure_1">
  <g id="patch_1">
   <path d="M 0 423.689375 
L 711.459291 423.689375 
L 711.459291 0 
L 0 0 
L 0 423.689375 
z
" style="fill: none"/>
  </g>
  <g id="axes_1">
   <g id="patch_2">
    <path d="M 55.26375 384.1975 
L 704.259291 384.1975 
L 704.259291 39.3575 
L 55.26375 39.3575 
L 55.26375 384.1975 
z
" style="fill: none"/>
   </g>
   <g id="matplotlib.axis_1">
    <g id="xtick_1">
     <g id="line2d_1">
      <path d="M 55.26375 384.1975 
L 55.26375 39.3575 
" clip-path="url(#p6674a8bf59)" style="fill: none; stroke-dasharray: 2.96,1.28; stroke-dashoffset: 0; stroke: #b0b0b0; stroke-opacity: 0.3; stroke-width: 0.8"/>
     </g>
     <g id="line2d_2">
      <defs>
       <path id="m7caa1098f9" d="M 0 0 
L 0 3.5 
" style="stroke: #000000; stroke-width: 0.8"/>
      </defs>
      <g>
       <use xlink:href="#m7caa1098f9" x="55.26375" y="384.1975" style="stroke: #000000; stroke-width: 0.8"/>
      </g>
     </g>
     <g id="text_1">
      <!-- Jan -->
      <g transform="translate(47.555938 398.795937) scale(0.1 -0.1)">
       <defs>
        <path id="DejaVuSans-4a" d="M 628 4666 
L 1259 4666 
L 1259 325 
Q 1259 -519 939 -900 
Q 619 -1281 -91 -1281 
L -331 -1281 
L -331 -750 
L -134 -750 
Q 284 -750 456 -515 
Q 628 -281 628 325 
L 628 4666 
z
" transform="scale(0.015625)"/>
        <path id="DejaVuSans-61" d="M 2194 1759 
Q 1497 1759 1228 1600 
Q 959 1441 959 1056 
Q 959 750 1161 570 
Q 1363 391 1709 391 
Q 2188 391 2477 730 
Q 2766 1069 2766 1631 
L 2766 1759 
L 2194 1759 
z
M 3341 1997 
L 3341 0 
L 2766 0 
L 2766 531 
Q 2569 213 2275 61 
Q 1981 -91 1556 -91 
Q 1019 -91 701 211 
Q 384 513 384 1019 
Q 384 1609 779 1909 
Q 1175 2209 1959 2209 
L 2766 2209 
L 2766 2266 
Q 2766 2663 2505 2880 
Q 2244 3097 1772 3097 
Q 1472 3097 1187 3025 
Q 903 2953 641 2809 
L 641 3341 
Q 956 3463 1253 3523 
Q 1550 3584 1831 3584 
Q 2591 3584 2966 3190 
Q 3341 2797 3341 1997 
z
" transform="scale(0.015625)"/>
        <path id="DejaVuSans-6e" d="M 3513 2113 
L 3513 0 
L 2938 0 
L 2938 2094 
Q 2938 2591 2744 2837 
Q 2550 3084 2163 3084 
Q 1697 3084 1428 2787 
Q 1159 2491 1159 1978 
L 1159 0 
L 581 0 
L 581 3500 
L 1159 3500 
L 1159 2956 
Q 1366 3272 1645 3428 
Q 1925 3584 2291 3584 
Q 2894 3584 3203 3211 
Q 3513 2838 3513 2113 
z
" transform="scale(0.015625)"/>
       </defs>
       <use xlink:href="#DejaVuSans-4a"/>
       <use xlink:href="#DejaVuSans-61" transform="translate(29.492188 0)"/>
       <use xlink:href="#DejaVuSans-6e" transform="translate(90.771484 0)"/>
      </g>
     </g>
    </g>
    <g id="xtick_2">
     <g id="line2d_3">
      <path d="M 109.639052 384.1975 
L 109.639052 39.3575 
" clip-path="url(#p6674a8bf59)" style="fill: none; stroke-dasharray: 2.96,1.28; stroke-dashoffset: 0; stroke: #b0b0b0; stroke-opacity: 0.3; stroke-width: 0.8"/>
     </g>
     <g id="line2d_4">
      <g>
       <use xlink:href="#m7caa1098f9" x="109.639052" y="384.1975" style="stroke: #000000; stroke-width: 0.8"/>
      </g>
     </g>
     <g id="text_2">
      <!-- Feb -->
      <g transform="translate(100.78749 398.795937) scale(0.1 -0.1)">
       <defs>
        <path id="DejaVuSans-46" d="M 628 4666 
L 3309 4666 
L 3309 4134 
L 1259 4134 
L 1259 2759 
L 3109 2759 
L 3109 2228 
L 1259 2228 
L 1259 0 
L 628 0 
L 628 4666 
z
" transform="scale(0.015625)"/>
        <path id="DejaVuSans-65" d="M 3597 1894 
L 3597 1613 
L 953 1613 
Q 991 1019 1311 708 
Q 1631 397 2203 397 
Q 2534 397 2845 478 
Q 3156 559 3463 722 
L 3463 178 
Q 3153 47 2828 -22 
Q 2503 -91 2169 -91 
Q 1331 -91 842 396 
Q 353 884 353 1716 
Q 353 2575 817 3079 
Q 1281 3584 2069 3584 
Q 2775 3584 3186 3129 
Q 3597 2675 3597 1894 
z
M 3022 2063 
Q 3016 2534 2758 2815 
Q 2500 3097 2075 3097 
Q 1594 3097 1305 2825 
Q 1016 2553 972 2059 
L 3022 2063 
z
" transform="scale(0.015625)"/>
        <path id="DejaVuSans-62" d="M 3116 1747 
Q 3116 2381 2855 2742 
Q 2594 3103 2138 3103 
Q 1681 3103 1420 2742 
Q 1159 2381 1159 1747 
Q 1159 1113 1420 752 
Q 1681 391 2138 391 
Q 2594 391 2855 752 
Q 3116 1113 3116 1747 
z
M 1159 2969 
Q 1341 3281 1617 3432 
Q 1894 3584 2278 3584 
Q 2916 3584 3314 3078 
Q 3713 2572 3713 1747 
Q 3713 922 3314 415 
Q 2916 -91 2278 -91 
Q 1894 -91 1617 61 
Q 1341 213 1159 525 
L 1159 0 
L 581 0 
L 581 4863 
L 1159 4863 
L 1159 2969 
z
" transform="scale(0.015625)"/>
       </defs>
       <use xlink:href="#DejaVuSans-46"/>
       <use xlink:href="#DejaVuSans-65" transform="translate(52.019531 0)"/>
       <use xlink:href="#DejaVuSans-62" transform="translate(113.542969 0)"/>
      </g>
     </g>
    </g>
    <g id="xtick_3">
     <g id="line2d_5">
      <path d="M 158.752228 384.1975 
L 158.752228 39.3575 
" clip-path="url(#p6674a8bf59)" style="fill: none; stroke-dasharray: 2.96,1.28; stroke-dashoffset: 0; stroke: #b0b0b0; stroke-opacity: 0.3; stroke-width: 0.8"/>
     </g>
     <g id="line2d_6">
      <g>
       <use xlink:href="#m7caa1098f9" x="158.752228" y="384.1975" style="stroke: #000000; stroke-width: 0.8"/>
      </g>
     </g>
     <g id="text_3">
      <!-- Mar -->
      <g transform="translate(149.318634 398.795937) scale(0.1 -0.1)">
       <defs>
        <path id="DejaVuSans-4d" d="M 628 4666 
L 1569 4666 
L 2759 1491 
L 3956 4666 
L 4897 4666 
L 4897 0 
L 4281 0 
L 4281 4097 
L 3078 897 
L 2444 897 
L 1241 4097 
L 1241 0 
L 628 0 
L 628 4666 
z
" transform="scale(0.015625)"/>
        <path id="DejaVuSans-72" d="M 2631 2963 
Q 2534 3019 2420 3045 
Q 2306 3072 2169 3072 
Q 1681 3072 1420 2755 
Q 1159 2438 1159 1844 
L 1159 0 
L 581 0 
L 581 3500 
L 1159 3500 
L 1159 2956 
Q 1341 3275 1631 3429 
Q 1922 3584 2338 3584 
Q 2397 3584 2469 3576 
Q 2541 3569 2628 3553 
L 2631 2963 
z
" transform="scale(0.015625)"/>
       </defs>
       <use xlink:href="#DejaVuSans-4d"/>
       <use xlink:href="#DejaVuSans-61" transform="translate(86.279297 0)"/>
       <use xlink:href="#DejaVuSans-72" transform="translate(147.558594 0)"/>
      </g>
     </g>
    </g>
    <g id="xtick_4">
     <g id="line2d_7">
      <path d="M 213.12753 384.1975 
L 213.12753 39.3575 
" clip-path="url(#p6674a8bf59)" style="fill: none; stroke-dasharray: 2.96,1.28; stroke-dashoffset: 0; stroke: #b0b0b0; stroke-opacity: 0.3; stroke-width: 0.8"/>
     </g>
     <g id="line2d_8">
      <g>
       <use xlink:href="#m7caa1098f9" x="213.12753" y="384.1975" style="stroke: #000000; stroke-width: 0.8"/>
      </g>
     </g>
     <g id="text_4">
      <!-- Apr -->
      <g transform="translate(204.47753 398.795937) scale(0.1 -0.1)">
       <defs>
        <path id="DejaVuSans-41" d="M 2188 4044 
L 1331 1722 
L 3047 1722 
L 2188 4044 
z
M 1831 4666 
L 2547 4666 
L 4325 0 
L 3669 0 
L 3244 1197 
L 1141 1197 
L 716 0 
L 50 0 
L 1831 4666 
z
" transform="scale(0.015625)"/>
        <path id="DejaVuSans-70" d="M 1159 525 
L 1159 -1331 
L 581 -1331 
L 581 3500 
L 1159 3500 
L 1159 2969 
Q 1341 3281 1617 3432 
Q 1894 3584 2278 3584 
Q 2916 3584 3314 3078 
Q 3713 2572 3713 1747 
Q 3713 922 3314 415 
Q 2916 -91 2278 -91 
Q 1894 -91 1617 61 
Q 1341 213 1159 525 
z
M 3116 1747 
Q 3116 2381 2855 2742 
Q 2594 3103 2138 3103 
Q 1681 3103 1420 2742 
Q 1159 2381 1159 1747 
Q 1159 1113 1420 752 
Q 1681 391 2138 391 
Q 2594 391 2855 752 
Q 3116 1113 3116 1747 
z
" transform="scale(0.015625)"/>
       </defs>
       <use xlink:href="#DejaVuSans-41"/>
       <use xlink:href="#DejaVuSans-70" transform="translate(68.408203 0)"/>
       <use xlink:href="#DejaVuSans-72" transform="translate(131.884766 0)"/>
      </g>
     </g>
    </g>
    <g id="xtick_5">
     <g id="line2d_9">
      <path d="M 265.74879 384.1975 
L 265.74879 39.3575 
" clip-path="url(#p6674a8bf59)" style="fill: none; stroke-dasharray: 2.96,1.28; stroke-dashoffset: 0; stroke: #b0b0b0; stroke-opacity: 0.3; stroke-width: 0.8"/>
     </g>
     <g id="line2d_10">
      <g>
       <use xlink:href="#m7caa1098f9" x="265.74879" y="384.1975" style="stroke: #000000; stroke-width: 0.8"/>
      </g>
     </g>
     <g id="text_5">
      <!-- May -->
      <g transform="translate(255.41129 398.795937) scale(0.1 -0.1)">
       <defs>
        <path id="DejaVuSans-79" d="M 2059 -325 
Q 1816 -950 1584 -1140 
Q 1353 -1331 966 -1331 
L 506 -1331 
L 506 -850 
L 844 -850 
Q 1081 -850 1212 -737 
Q 1344 -625 1503 -206 
L 1606 56 
L 191 3500 
L 800 3500 
L 1894 763 
L 2988 3500 
L 3597 3500 
L 2059 -325 
z
" transform="scale(0.015625)"/>
       </defs>
       <use xlink:href="#DejaVuSans-4d"/>
       <use xlink:href="#DejaVuSans-61" transform="translate(86.279297 0)"/>
       <use xlink:href="#DejaVuSans-79" transform="translate(147.558594 0)"/>
      </g>
     </g>
    </g>
    <g id="xtick_6">
     <g id="line2d_11">
      <path d="M 320.124092 384.1975 
L 320.124092 39.3575 
" clip-path="url(#p6674a8bf59)" style="fill: none; stroke-dasharray: 2.96,1.28; stroke-dashoffset: 0; stroke: #b0b0b0; stroke-opacity: 0.3; stroke-width: 0.8"/>
     </g>
     <g id="line2d_12">
      <g>
       <use xlink:href="#m7caa1098f9" x="320.124092" y="384.1975" style="stroke: #000000; stroke-width: 0.8"/>
      </g>
     </g>
     <g id="text_6">
      <!-- Jun -->
      <g transform="translate(312.311592 398.795937) scale(0.1 -0.1)">
       <defs>
        <path id="DejaVuSans-75" d="M 544 1381 
L 544 3500 
L 1119 3500 
L 1119 1403 
Q 1119 906 1312 657 
Q 1506 409 1894 409 
Q 2359 409 2629 706 
Q 2900 1003 2900 1516 
L 2900 3500 
L 3475 3500 
L 3475 0 
L 2900 0 
L 2900 538 
Q 2691 219 2414 64 
Q 2138 -91 1772 -91 
Q 1169 -91 856 284 
Q 544 659 544 1381 
z
M 1991 3584 
L 1991 3584 
z
" transform="scale(0.015625)"/>
       </defs>
       <use xlink:href="#DejaVuSans-4a"/>
       <use xlink:href="#DejaVuSans-75" transform="translate(29.492188 0)"/>
       <use xlink:href="#DejaVuSans-6e" transform="translate(92.871094 0)"/>
      </g>
     </g>
    </g>
    <g id="xtick_7">
     <g id="line2d_13">
      <path d="M 372.745352 384.1975 
L 372.745352 39.3575 
" clip-path="url(#p6674a8bf59)" style="fill: none; stroke-dasharray: 2.96,1.28; stroke-dashoffset: 0; stroke: #b0b0b0; stroke-opacity: 0.3; stroke-width: 0.8"/>
     </g>
     <g id="line2d_14">
      <g>
       <use xlink:href="#m7caa1098f9" x="372.745352" y="384.1975" style="stroke: #000000; stroke-width: 0.8"/>
      </g>
     </g>
     <g id="text_7">
      <!-- Jul -->
      <g transform="translate(366.71254 398.795937) scale(0.1 -0.1)">
       <defs>
        <path id="DejaVuSans-6c" d="M 603 4863 
L 1178 4863 
L 1178 0 
L 603 0 
L 603 4863 
z
" transform="scale(0.015625)"/>
       </defs>
       <use xlink:href="#DejaVuSans-4a"/>
       <use xlink:href="#DejaVuSans-75" transform="translate(29.492188 0)"/>
       <use xlink:href="#DejaVuSans-6c" transform="translate(92.871094 0)"/>
      </g>
     </g>
    </g>
    <g id="xtick_8">
     <g id="line2d_15">
      <path d="M 427.120654 384.1975 
L 427.120654 39.3575 
" clip-path="url(#p6674a8bf59)" style="fill: none; stroke-dasharray: 2.96,1.28; stroke-dashoffset: 0; stroke: #b0b0b0; stroke-opacity: 0.3; stroke-width: 0.8"/>
     </g>
     <g id="line2d_16">
      <g>
       <use xlink:href="#m7caa1098f9" x="427.120654" y="384.1975" style="stroke: #000000; stroke-width: 0.8"/>
      </g>
     </g>
     <g id="text_8">
      <!-- Aug -->
      <g transform="translate(417.357373 398.795937) scale(0.1 -0.1)">
       <defs>
        <path id="DejaVuSans-67" d="M 2906 1791 
Q 2906 2416 2648 2759 
Q 2391 3103 1925 3103 
Q 1463 3103 1205 2759 
Q 947 2416 947 1791 
Q 947 1169 1205 825 
Q 1463 481 1925 481 
Q 2391 481 2648 825 
Q 2906 1169 2906 1791 
z
M 3481 434 
Q 3481 -459 3084 -895 
Q 2688 -1331 1869 -1331 
Q 1566 -1331 1297 -1286 
Q 1028 -1241 775 -1147 
L 775 -588 
Q 1028 -725 1275 -790 
Q 1522 -856 1778 -856 
Q 2344 -856 2625 -561 
Q 2906 -266 2906 331 
L 2906 616 
Q 2728 306 2450 153 
Q 2172 0 1784 0 
Q 1141 0 747 490 
Q 353 981 353 1791 
Q 353 2603 747 3093 
Q 1141 3584 1784 3584 
Q 2172 3584 2450 3431 
Q 2728 3278 2906 2969 
L 2906 3500 
L 3481 3500 
L 3481 434 
z
" transform="scale(0.015625)"/>
       </defs>
       <use xlink:href="#DejaVuSans-41"/>
       <use xlink:href="#DejaVuSans-75" transform="translate(68.408203 0)"/>
       <use xlink:href="#DejaVuSans-67" transform="translate(131.787109 0)"/>
      </g>
     </g>
    </g>
    <g id="xtick_9">
     <g id="line2d_17">
      <path d="M 481.495956 384.1975 
L 481.495956 39.3575 
" clip-path="url(#p6674a8bf59)" style="fill: none; stroke-dasharray: 2.96,1.28; stroke-dashoffset: 0; stroke: #b0b0b0; stroke-opacity: 0.3; stroke-width: 0.8"/>
     </g>
     <g id="line2d_18">
      <g>
       <use xlink:href="#m7caa1098f9" x="481.495956" y="384.1975" style="stroke: #000000; stroke-width: 0.8"/>
      </g>
     </g>
     <g id="text_9">
      <!-- Sep -->
      <g transform="translate(472.070956 398.795937) scale(0.1 -0.1)">
       <defs>
        <path id="DejaVuSans-53" d="M 3425 4513 
L 3425 3897 
Q 3066 4069 2747 4153 
Q 2428 4238 2131 4238 
Q 1616 4238 1336 4038 
Q 1056 3838 1056 3469 
Q 1056 3159 1242 3001 
Q 1428 2844 1947 2747 
L 2328 2669 
Q 3034 2534 3370 2195 
Q 3706 1856 3706 1288 
Q 3706 609 3251 259 
Q 2797 -91 1919 -91 
Q 1588 -91 1214 -16 
Q 841 59 441 206 
L 441 856 
Q 825 641 1194 531 
Q 1563 422 1919 422 
Q 2459 422 2753 634 
Q 3047 847 3047 1241 
Q 3047 1584 2836 1778 
Q 2625 1972 2144 2069 
L 1759 2144 
Q 1053 2284 737 2584 
Q 422 2884 422 3419 
Q 422 4038 858 4394 
Q 1294 4750 2059 4750 
Q 2388 4750 2728 4690 
Q 3069 4631 3425 4513 
z
" transform="scale(0.015625)"/>
       </defs>
       <use xlink:href="#DejaVuSans-53"/>
       <use xlink:href="#DejaVuSans-65" transform="translate(63.476562 0)"/>
       <use xlink:href="#DejaVuSans-70" transform="translate(125 0)"/>
      </g>
     </g>
    </g>
    <g id="xtick_10">
     <g id="line2d_19">
      <path d="M 534.117216 384.1975 
L 534.117216 39.3575 
" clip-path="url(#p6674a8bf59)" style="fill: none; stroke-dasharray: 2.96,1.28; stroke-dashoffset: 0; stroke: #b0b0b0; stroke-opacity: 0.3; stroke-width: 0.8"/>
     </g>
     <g id="line2d_20">
      <g>
       <use xlink:href="#m7caa1098f9" x="534.117216" y="384.1975" style="stroke: #000000; stroke-width: 0.8"/>
      </g>
     </g>
     <g id="text_10">
      <!-- Oct -->
      <g transform="translate(525.471904 398.795937) scale(0.1 -0.1)">
       <defs>
        <path id="DejaVuSans-4f" d="M 2522 4238 
Q 1834 4238 1429 3725 
Q 1025 3213 1025 2328 
Q 1025 1447 1429 934 
Q 1834 422 2522 422 
Q 3209 422 3611 934 
Q 4013 1447 4013 2328 
Q 4013 3213 3611 3725 
Q 3209 4238 2522 4238 
z
M 2522 4750 
Q 3503 4750 4090 4092 
Q 4678 3434 4678 2328 
Q 4678 1225 4090 567 
Q 3503 -91 2522 -91 
Q 1538 -91 948 565 
Q 359 1222 359 2328 
Q 359 3434 948 4092 
Q 1538 4750 2522 4750 
z
" transform="scale(0.015625)"/>
        <path id="DejaVuSans-63" d="M 3122 3366 
L 3122 2828 
Q 2878 2963 2633 3030 
Q 2388 3097 2138 3097 
Q 1578 3097 1268 2742 
Q 959 2388 959 1747 
Q 959 1106 1268 751 
Q 1578 397 2138 397 
Q 2388 397 2633 464 
Q 2878 531 3122 666 
L 3122 134 
Q 2881 22 2623 -34 
Q 2366 -91 2075 -91 
Q 1284 -91 818 406 
Q 353 903 353 1747 
Q 353 2603 823 3093 
Q 1294 3584 2113 3584 
Q 2378 3584 2631 3529 
Q 2884 3475 3122 3366 
z
" transform="scale(0.015625)"/>
        <path id="DejaVuSans-74" d="M 1172 4494 
L 1172 3500 
L 2356 3500 
L 2356 3053 
L 1172 3053 
L 1172 1153 
Q 1172 725 1289 603 
Q 1406 481 1766 481 
L 2356 481 
L 2356 0 
L 1766 0 
Q 1100 0 847 248 
Q 594 497 594 1153 
L 594 3053 
L 172 3053 
L 172 3500 
L 594 3500 
L 594 4494 
L 1172 4494 
z
" transform="scale(0.015625)"/>
       </defs>
       <use xlink:href="#DejaVuSans-4f"/>
       <use xlink:href="#DejaVuSans-63" transform="translate(78.710938 0)"/>
       <use xlink:href="#DejaVuSans-74" transform="translate(133.691406 0)"/>
      </g>
     </g>
    </g>
    <g id="xtick_11">
     <g id="line2d_21">
      <path d="M 588.492518 384.1975 
L 588.492518 39.3575 
" clip-path="url(#p6674a8bf59)" style="fill: none; stroke-dasharray: 2.96,1.28; stroke-dashoffset: 0; stroke: #b0b0b0; stroke-opacity: 0.3; stroke-width: 0.8"/>
     </g>
     <g id="line2d_22">
      <g>
       <use xlink:href="#m7caa1098f9" x="588.492518" y="384.1975" style="stroke: #000000; stroke-width: 0.8"/>
      </g>
     </g>
     <g id="text_11">
      <!-- Nov -->
      <g transform="translate(578.733143 398.795937) scale(0.1 -0.1)">
       <defs>
        <path id="DejaVuSans-4e" d="M 628 4666 
L 1478 4666 
L 3547 763 
L 3547 4666 
L 4159 4666 
L 4159 0 
L 3309 0 
L 1241 3903 
L 1241 0 
L 628 0 
L 628 4666 
z
" transform="scale(0.015625)"/>
        <path id="DejaVuSans-6f" d="M 1959 3097 
Q 1497 3097 1228 2736 
Q 959 2375 959 1747 
Q 959 1119 1226 758 
Q 1494 397 1959 397 
Q 2419 397 2687 759 
Q 2956 1122 2956 1747 
Q 2956 2369 2687 2733 
Q 2419 3097 1959 3097 
z
M 1959 3584 
Q 2709 3584 3137 3096 
Q 3566 2609 3566 1747 
Q 3566 888 3137 398 
Q 2709 -91 1959 -91 
Q 1206 -91 779 398 
Q 353 888 353 1747 
Q 353 2609 779 3096 
Q 1206 3584 1959 3584 
z
" transform="scale(0.015625)"/>
        <path id="DejaVuSans-76" d="M 191 3500 
L 800 3500 
L 1894 563 
L 2988 3500 
L 3597 3500 
L 2284 0 
L 1503 0 
L 191 3500 
z
" transform="scale(0.015625)"/>
       </defs>
       <use xlink:href="#DejaVuSans-4e"/>
       <use xlink:href="#DejaVuSans-6f" transform="translate(74.804688 0)"/>
       <use xlink:href="#DejaVuSans-76" transform="translate(135.986328 0)"/>
      </g>
     </g>
    </g>
    <g id="xtick_12">
     <g id="line2d_23">
      <path d="M 641.113778 384.1975 
L 641.113778 39.3575 
" clip-path="url(#p6674a8bf59)" style="fill: none; stroke-dasharray: 2.96,1.28; stroke-dashoffset: 0; stroke: #b0b0b0; stroke-opacity: 0.3; stroke-width: 0.8"/>
     </g>
     <g id="line2d_24">
      <g>
       <use xlink:href="#m7caa1098f9" x="641.113778" y="384.1975" style="stroke: #000000; stroke-width: 0.8"/>
      </g>
     </g>
     <g id="text_12">
      <!-- Dec -->
      <g transform="translate(631.437997 398.795937) scale(0.1 -0.1)">
       <defs>
        <path id="DejaVuSans-44" d="M 1259 4147 
L 1259 519 
L 2022 519 
Q 2988 519 3436 956 
Q 3884 1394 3884 2338 
Q 3884 3275 3436 3711 
Q 2988 4147 2022 4147 
L 1259 4147 
z
M 628 4666 
L 1925 4666 
Q 3281 4666 3915 4102 
Q 4550 3538 4550 2338 
Q 4550 1131 3912 565 
Q 3275 0 1925 0 
L 628 0 
L 628 4666 
z
" transform="scale(0.015625)"/>
       </defs>
       <use xlink:href="#DejaVuSans-44"/>
       <use xlink:href="#DejaVuSans-65" transform="translate(77.001953 0)"/>
       <use xlink:href="#DejaVuSans-63" transform="translate(138.525391 0)"/>
      </g>
     </g>
    </g>
    <g id="xtick_13">
     <g id="line2d_25">
      <path d="M 695.489081 384.1975 
L 695.489081 39.3575 
" clip-path="url(#p6674a8bf59)" style="fill: none; stroke-dasharray: 2.96,1.28; stroke-dashoffset: 0; stroke: #b0b0b0; stroke-opacity: 0.3; stroke-width: 0.8"/>
     </g>
     <g id="line2d_26">
      <g>
       <use xlink:href="#m7caa1098f9" x="695.489081" y="384.1975" style="stroke: #000000; stroke-width: 0.8"/>
      </g>
     </g>
     <g id="text_13">
      <!-- Jan -->
      <g transform="translate(687.781268 398.795937) scale(0.1 -0.1)">
       <use xlink:href="#DejaVuSans-4a"/>
       <use xlink:href="#DejaVuSans-61" transform="translate(29.492188 0)"/>
       <use xlink:href="#DejaVuSans-6e" transform="translate(90.771484 0)"/>
      </g>
     </g>
    </g>
    <g id="text_14">
     <!-- Day of the year -->
     <g transform="translate(333.176208 413.99375) scale(0.12 -0.12)">
      <defs>
       <path id="DejaVuSans-20" transform="scale(0.015625)"/>
       <path id="DejaVuSans-66" d="M 2375 4863 
L 2375 4384 
L 1825 4384 
Q 1516 4384 1395 4259 
Q 1275 4134 1275 3809 
L 1275 3500 
L 2222 3500 
L 2222 3053 
L 1275 3053 
L 1275 0 
L 697 0 
L 697 3053 
L 147 3053 
L 147 3500 
L 697 3500 
L 697 3744 
Q 697 4328 969 4595 
Q 1241 4863 1831 4863 
L 2375 4863 
z
" transform="scale(0.015625)"/>
       <path id="DejaVuSans-68" d="M 3513 2113 
L 3513 0 
L 2938 0 
L 2938 2094 
Q 2938 2591 2744 2837 
Q 2550 3084 2163 3084 
Q 1697 3084 1428 2787 
Q 1159 2491 1159 1978 
L 1159 0 
L 581 0 
L 581 4863 
L 1159 4863 
L 1159 2956 
Q 1366 3272 1645 3428 
Q 1925 3584 2291 3584 
Q 2894 3584 3203 3211 
Q 3513 2838 3513 2113 
z
" transform="scale(0.015625)"/>
      </defs>
      <use xlink:href="#DejaVuSans-44"/>
      <use xlink:href="#DejaVuSans-61" transform="translate(77.001953 0)"/>
      <use xlink:href="#DejaVuSans-79" transform="translate(138.28125 0)"/>
      <use xlink:href="#DejaVuSans-20" transform="translate(197.460938 0)"/>
      <use xlink:href="#DejaVuSans-6f" transform="translate(229.248047 0)"/>
      <use xlink:href="#DejaVuSans-66" transform="translate(290.429688 0)"/>
      <use xlink:href="#DejaVuSans-20" transform="translate(325.634766 0)"/>
      <use xlink:href="#DejaVuSans-74" transform="translate(357.421875 0)"/>
      <use xlink:href="#DejaVuSans-68" transform="translate(396.630859 0)"/>
      <use xlink:href="#DejaVuSans-65" transform="translate(460.009766 0)"/>
      <use xlink:href="#DejaVuSans-20" transform="translate(521.533203 0)"/>
      <use xlink:href="#DejaVuSans-79" transform="translate(553.320312 0)"/>
      <use xlink:href="#DejaVuSans-65" transform="translate(612.5 0)"/>
      <use xlink:href="#DejaVuSans-61" transform="translate(674.023438 0)"/>
      <use xlink:href="#DejaVuSans-72" transform="translate(735.302734 0)"/>
     </g>
    </g>
   </g>
   <g id="matplotlib.axis_2">
    <g id="ytick_1">
     <g id="line2d_27">
      <path d="M 55.26375 384.1975 
L 704.259291 384.1975 
" clip-path="url(#p6674a8bf59)" style="fill: none; stroke-dasharray: 2.96,1.28; stroke-dashoffset: 0; stroke: #b0b0b0; stroke-opacity: 0.3; stroke-width: 0.8"/>
     </g>
     <g id="line2d_28">
      <defs>
       <path id="mee1d8a2a15" d="M 0 0 
L -3.5 0 
" style="stroke: #000000; stroke-width: 0.8"/>
      </defs>
      <g>
       <use xlink:href="#mee1d8a2a15" x="55.26375" y="384.1975" style="stroke: #000000; stroke-width: 0.8"/>
      </g>
     </g>
     <g id="text_15">
      <!-- 0 -->
      <g transform="translate(41.90125 387.996719) scale(0.1 -0.1)">
       <defs>
        <path id="DejaVuSans-30" d="M 2034 4250 
Q 1547 4250 1301 3770 
Q 1056 3291 1056 2328 
Q 1056 1369 1301 889 
Q 1547 409 2034 409 
Q 2525 409 2770 889 
Q 3016 1369 3016 2328 
Q 3016 3291 2770 3770 
Q 2525 4250 2034 4250 
z
M 2034 4750 
Q 2819 4750 3233 4129 
Q 3647 3509 3647 2328 
Q 3647 1150 3233 529 
Q 2819 -91 2034 -91 
Q 1250 -91 836 529 
Q 422 1150 422 2328 
Q 422 3509 836 4129 
Q 1250 4750 2034 4750 
z
" transform="scale(0.015625)"/>
       </defs>
       <use xlink:href="#DejaVuSans-30"/>
      </g>
     </g>
    </g>
    <g id="ytick_2">
     <g id="line2d_29">
      <path d="M 55.26375 345.173662 
L 704.259291 345.173662 
" clip-path="url(#p6674a8bf59)" style="fill: none; stroke-dasharray: 2.96,1.28; stroke-dashoffset: 0; stroke: #b0b0b0; stroke-opacity: 0.3; stroke-width: 0.8"/>
     </g>
     <g id="line2d_30">
      <g>
       <use xlink:href="#mee1d8a2a15" x="55.26375" y="345.173662" style="stroke: #000000; stroke-width: 0.8"/>
      </g>
     </g>
     <g id="text_16">
      <!-- 1000 -->
      <g transform="translate(22.81375 348.972881) scale(0.1 -0.1)">
       <defs>
        <path id="DejaVuSans-31" d="M 794 531 
L 1825 531 
L 1825 4091 
L 703 3866 
L 703 4441 
L 1819 4666 
L 2450 4666 
L 2450 531 
L 3481 531 
L 3481 0 
L 794 0 
L 794 531 
z
" transform="scale(0.015625)"/>
       </defs>
       <use xlink:href="#DejaVuSans-31"/>
       <use xlink:href="#DejaVuSans-30" transform="translate(63.623047 0)"/>
       <use xlink:href="#DejaVuSans-30" transform="translate(127.246094 0)"/>
       <use xlink:href="#DejaVuSans-30" transform="translate(190.869141 0)"/>
      </g>
     </g>
    </g>
    <g id="ytick_3">
     <g id="line2d_31">
      <path d="M 55.26375 306.149824 
L 704.259291 306.149824 
" clip-path="url(#p6674a8bf59)" style="fill: none; stroke-dasharray: 2.96,1.28; stroke-dashoffset: 0; stroke: #b0b0b0; stroke-opacity: 0.3; stroke-width: 0.8"/>
     </g>
     <g id="line2d_32">
      <g>
       <use xlink:href="#mee1d8a2a15" x="55.26375" y="306.149824" style="stroke: #000000; stroke-width: 0.8"/>
      </g>
     </g>
     <g id="text_17">
      <!-- 2000 -->
      <g transform="translate(22.81375 309.949042) scale(0.1 -0.1)">
       <defs>
        <path id="DejaVuSans-32" d="M 1228 531 
L 3431 531 
L 3431 0 
L 469 0 
L 469 531 
Q 828 903 1448 1529 
Q 2069 2156 2228 2338 
Q 2531 2678 2651 2914 
Q 2772 3150 2772 3378 
Q 2772 3750 2511 3984 
Q 2250 4219 1831 4219 
Q 1534 4219 1204 4116 
Q 875 4013 500 3803 
L 500 4441 
Q 881 4594 1212 4672 
Q 1544 4750 1819 4750 
Q 2544 4750 2975 4387 
Q 3406 4025 3406 3419 
Q 3406 3131 3298 2873 
Q 3191 2616 2906 2266 
Q 2828 2175 2409 1742 
Q 1991 1309 1228 531 
z
" transform="scale(0.015625)"/>
       </defs>
       <use xlink:href="#DejaVuSans-32"/>
       <use xlink:href="#DejaVuSans-30" transform="translate(63.623047 0)"/>
       <use xlink:href="#DejaVuSans-30" transform="translate(127.246094 0)"/>
       <use xlink:href="#DejaVuSans-30" transform="translate(190.869141 0)"/>
      </g>
     </g>
    </g>
    <g id="ytick_4">
     <g id="line2d_33">
      <path d="M 55.26375 267.125985 
L 704.259291 267.125985 
" clip-path="url(#p6674a8bf59)" style="fill: none; stroke-dasharray: 2.96,1.28; stroke-dashoffset: 0; stroke: #b0b0b0; stroke-opacity: 0.3; stroke-width: 0.8"/>
     </g>
     <g id="line2d_34">
      <g>
       <use xlink:href="#mee1d8a2a15" x="55.26375" y="267.125985" style="stroke: #000000; stroke-width: 0.8"/>
      </g>
     </g>
     <g id="text_18">
      <!-- 3000 -->
      <g transform="translate(22.81375 270.925204) scale(0.1 -0.1)">
       <defs>
        <path id="DejaVuSans-33" d="M 2597 2516 
Q 3050 2419 3304 2112 
Q 3559 1806 3559 1356 
Q 3559 666 3084 287 
Q 2609 -91 1734 -91 
Q 1441 -91 1130 -33 
Q 819 25 488 141 
L 488 750 
Q 750 597 1062 519 
Q 1375 441 1716 441 
Q 2309 441 2620 675 
Q 2931 909 2931 1356 
Q 2931 1769 2642 2001 
Q 2353 2234 1838 2234 
L 1294 2234 
L 1294 2753 
L 1863 2753 
Q 2328 2753 2575 2939 
Q 2822 3125 2822 3475 
Q 2822 3834 2567 4026 
Q 2313 4219 1838 4219 
Q 1578 4219 1281 4162 
Q 984 4106 628 3988 
L 628 4550 
Q 988 4650 1302 4700 
Q 1616 4750 1894 4750 
Q 2613 4750 3031 4423 
Q 3450 4097 3450 3541 
Q 3450 3153 3228 2886 
Q 3006 2619 2597 2516 
z
" transform="scale(0.015625)"/>
       </defs>
       <use xlink:href="#DejaVuSans-33"/>
       <use xlink:href="#DejaVuSans-30" transform="translate(63.623047 0)"/>
       <use xlink:href="#DejaVuSans-30" transform="translate(127.246094 0)"/>
       <use xlink:href="#DejaVuSans-30" transform="translate(190.869141 0)"/>
      </g>
     </g>
    </g>
    <g id="ytick_5">
     <g id="line2d_35">
      <path d="M 55.26375 228.102147 
L 704.259291 228.102147 
" clip-path="url(#p6674a8bf59)" style="fill: none; stroke-dasharray: 2.96,1.28; stroke-dashoffset: 0; stroke: #b0b0b0; stroke-opacity: 0.3; stroke-width: 0.8"/>
     </g>
     <g id="line2d_36">
      <g>
       <use xlink:href="#mee1d8a2a15" x="55.26375" y="228.102147" style="stroke: #000000; stroke-width: 0.8"/>
      </g>
     </g>
     <g id="text_19">
      <!-- 4000 -->
      <g transform="translate(22.81375 231.901366) scale(0.1 -0.1)">
       <defs>
        <path id="DejaVuSans-34" d="M 2419 4116 
L 825 1625 
L 2419 1625 
L 2419 4116 
z
M 2253 4666 
L 3047 4666 
L 3047 1625 
L 3713 1625 
L 3713 1100 
L 3047 1100 
L 3047 0 
L 2419 0 
L 2419 1100 
L 313 1100 
L 313 1709 
L 2253 4666 
z
" transform="scale(0.015625)"/>
       </defs>
       <use xlink:href="#DejaVuSans-34"/>
       <use xlink:href="#DejaVuSans-30" transform="translate(63.623047 0)"/>
       <use xlink:href="#DejaVuSans-30" transform="translate(127.246094 0)"/>
       <use xlink:href="#DejaVuSans-30" transform="translate(190.869141 0)"/>
      </g>
     </g>
    </g>
    <g id="ytick_6">
     <g id="line2d_37">
      <path d="M 55.26375 189.078309 
L 704.259291 189.078309 
" clip-path="url(#p6674a8bf59)" style="fill: none; stroke-dasharray: 2.96,1.28; stroke-dashoffset: 0; stroke: #b0b0b0; stroke-opacity: 0.3; stroke-width: 0.8"/>
     </g>
     <g id="line2d_38">
      <g>
       <use xlink:href="#mee1d8a2a15" x="55.26375" y="189.078309" style="stroke: #000000; stroke-width: 0.8"/>
      </g>
     </g>
     <g id="text_20">
      <!-- 5000 -->
      <g transform="translate(22.81375 192.877528) scale(0.1 -0.1)">
       <defs>
        <path id="DejaVuSans-35" d="M 691 4666 
L 3169 4666 
L 3169 4134 
L 1269 4134 
L 1269 2991 
Q 1406 3038 1543 3061 
Q 1681 3084 1819 3084 
Q 2600 3084 3056 2656 
Q 3513 2228 3513 1497 
Q 3513 744 3044 326 
Q 2575 -91 1722 -91 
Q 1428 -91 1123 -41 
Q 819 9 494 109 
L 494 744 
Q 775 591 1075 516 
Q 1375 441 1709 441 
Q 2250 441 2565 725 
Q 2881 1009 2881 1497 
Q 2881 1984 2565 2268 
Q 2250 2553 1709 2553 
Q 1456 2553 1204 2497 
Q 953 2441 691 2322 
L 691 4666 
z
" transform="scale(0.015625)"/>
       </defs>
       <use xlink:href="#DejaVuSans-35"/>
       <use xlink:href="#DejaVuSans-30" transform="translate(63.623047 0)"/>
       <use xlink:href="#DejaVuSans-30" transform="translate(127.246094 0)"/>
       <use xlink:href="#DejaVuSans-30" transform="translate(190.869141 0)"/>
      </g>
     </g>
    </g>
    <g id="ytick_7">
     <g id="line2d_39">
      <path d="M 55.26375 150.054471 
L 704.259291 150.054471 
" clip-path="url(#p6674a8bf59)" style="fill: none; stroke-dasharray: 2.96,1.28; stroke-dashoffset: 0; stroke: #b0b0b0; stroke-opacity: 0.3; stroke-width: 0.8"/>
     </g>
     <g id="line2d_40">
      <g>
       <use xlink:href="#mee1d8a2a15" x="55.26375" y="150.054471" style="stroke: #000000; stroke-width: 0.8"/>
      </g>
     </g>
     <g id="text_21">
      <!-- 6000 -->
      <g transform="translate(22.81375 153.853689) scale(0.1 -0.1)">
       <defs>
        <path id="DejaVuSans-36" d="M 2113 2584 
Q 1688 2584 1439 2293 
Q 1191 2003 1191 1497 
Q 1191 994 1439 701 
Q 1688 409 2113 409 
Q 2538 409 2786 701 
Q 3034 994 3034 1497 
Q 3034 2003 2786 2293 
Q 2538 2584 2113 2584 
z
M 3366 4563 
L 3366 3988 
Q 3128 4100 2886 4159 
Q 2644 4219 2406 4219 
Q 1781 4219 1451 3797 
Q 1122 3375 1075 2522 
Q 1259 2794 1537 2939 
Q 1816 3084 2150 3084 
Q 2853 3084 3261 2657 
Q 3669 2231 3669 1497 
Q 3669 778 3244 343 
Q 2819 -91 2113 -91 
Q 1303 -91 875 529 
Q 447 1150 447 2328 
Q 447 3434 972 4092 
Q 1497 4750 2381 4750 
Q 2619 4750 2861 4703 
Q 3103 4656 3366 4563 
z
" transform="scale(0.015625)"/>
       </defs>
       <use xlink:href="#DejaVuSans-36"/>
       <use xlink:href="#DejaVuSans-30" transform="translate(63.623047 0)"/>
       <use xlink:href="#DejaVuSans-30" transform="translate(127.246094 0)"/>
       <use xlink:href="#DejaVuSans-30" transform="translate(190.869141 0)"/>
      </g>
     </g>
    </g>
    <g id="ytick_8">
     <g id="line2d_41">
      <path d="M 55.26375 111.030632 
L 704.259291 111.030632 
" clip-path="url(#p6674a8bf59)" style="fill: none; stroke-dasharray: 2.96,1.28; stroke-dashoffset: 0; stroke: #b0b0b0; stroke-opacity: 0.3; stroke-width: 0.8"/>
     </g>
     <g id="line2d_42">
      <g>
       <use xlink:href="#mee1d8a2a15" x="55.26375" y="111.030632" style="stroke: #000000; stroke-width: 0.8"/>
      </g>
     </g>
     <g id="text_22">
      <!-- 7000 -->
      <g transform="translate(22.81375 114.829851) scale(0.1 -0.1)">
       <defs>
        <path id="DejaVuSans-37" d="M 525 4666 
L 3525 4666 
L 3525 4397 
L 1831 0 
L 1172 0 
L 2766 4134 
L 525 4134 
L 525 4666 
z
" transform="scale(0.015625)"/>
       </defs>
       <use xlink:href="#DejaVuSans-37"/>
       <use xlink:href="#DejaVuSans-30" transform="translate(63.623047 0)"/>
       <use xlink:href="#DejaVuSans-30" transform="translate(127.246094 0)"/>
       <use xlink:href="#DejaVuSans-30" transform="translate(190.869141 0)"/>
      </g>
     </g>
    </g>
    <g id="ytick_9">
     <g id="line2d_43">
      <path d="M 55.26375 72.006794 
L 704.259291 72.006794 
" clip-path="url(#p6674a8bf59)" style="fill: none; stroke-dasharray: 2.96,1.28; stroke-dashoffset: 0; stroke: #b0b0b0; stroke-opacity: 0.3; stroke-width: 0.8"/>
     </g>
     <g id="line2d_44">
      <g>
       <use xlink:href="#mee1d8a2a15" x="55.26375" y="72.006794" style="stroke: #000000; stroke-width: 0.8"/>
      </g>
     </g>
     <g id="text_23">
      <!-- 8000 -->
      <g transform="translate(22.81375 75.806013) scale(0.1 -0.1)">
       <defs>
        <path id="DejaVuSans-38" d="M 2034 2216 
Q 1584 2216 1326 1975 
Q 1069 1734 1069 1313 
Q 1069 891 1326 650 
Q 1584 409 2034 409 
Q 2484 409 2743 651 
Q 3003 894 3003 1313 
Q 3003 1734 2745 1975 
Q 2488 2216 2034 2216 
z
M 1403 2484 
Q 997 2584 770 2862 
Q 544 3141 544 3541 
Q 544 4100 942 4425 
Q 1341 4750 2034 4750 
Q 2731 4750 3128 4425 
Q 3525 4100 3525 3541 
Q 3525 3141 3298 2862 
Q 3072 2584 2669 2484 
Q 3125 2378 3379 2068 
Q 3634 1759 3634 1313 
Q 3634 634 3220 271 
Q 2806 -91 2034 -91 
Q 1263 -91 848 271 
Q 434 634 434 1313 
Q 434 1759 690 2068 
Q 947 2378 1403 2484 
z
M 1172 3481 
Q 1172 3119 1398 2916 
Q 1625 2713 2034 2713 
Q 2441 2713 2670 2916 
Q 2900 3119 2900 3481 
Q 2900 3844 2670 4047 
Q 2441 4250 2034 4250 
Q 1625 4250 1398 4047 
Q 1172 3844 1172 3481 
z
" transform="scale(0.015625)"/>
       </defs>
       <use xlink:href="#DejaVuSans-38"/>
       <use xlink:href="#DejaVuSans-30" transform="translate(63.623047 0)"/>
       <use xlink:href="#DejaVuSans-30" transform="translate(127.246094 0)"/>
       <use xlink:href="#DejaVuSans-30" transform="translate(190.869141 0)"/>
      </g>
     </g>
    </g>
    <g id="text_24">
     <!-- Daily pedestrian count -->
     <g transform="translate(16.318125 279.793125) rotate(-90) scale(0.12 -0.12)">
      <defs>
       <path id="DejaVuSans-69" d="M 603 3500 
L 1178 3500 
L 1178 0 
L 603 0 
L 603 3500 
z
M 603 4863 
L 1178 4863 
L 1178 4134 
L 603 4134 
L 603 4863 
z
" transform="scale(0.015625)"/>
       <path id="DejaVuSans-64" d="M 2906 2969 
L 2906 4863 
L 3481 4863 
L 3481 0 
L 2906 0 
L 2906 525 
Q 2725 213 2448 61 
Q 2172 -91 1784 -91 
Q 1150 -91 751 415 
Q 353 922 353 1747 
Q 353 2572 751 3078 
Q 1150 3584 1784 3584 
Q 2172 3584 2448 3432 
Q 2725 3281 2906 2969 
z
M 947 1747 
Q 947 1113 1208 752 
Q 1469 391 1925 391 
Q 2381 391 2643 752 
Q 2906 1113 2906 1747 
Q 2906 2381 2643 2742 
Q 2381 3103 1925 3103 
Q 1469 3103 1208 2742 
Q 947 2381 947 1747 
z
" transform="scale(0.015625)"/>
       <path id="DejaVuSans-73" d="M 2834 3397 
L 2834 2853 
Q 2591 2978 2328 3040 
Q 2066 3103 1784 3103 
Q 1356 3103 1142 2972 
Q 928 2841 928 2578 
Q 928 2378 1081 2264 
Q 1234 2150 1697 2047 
L 1894 2003 
Q 2506 1872 2764 1633 
Q 3022 1394 3022 966 
Q 3022 478 2636 193 
Q 2250 -91 1575 -91 
Q 1294 -91 989 -36 
Q 684 19 347 128 
L 347 722 
Q 666 556 975 473 
Q 1284 391 1588 391 
Q 1994 391 2212 530 
Q 2431 669 2431 922 
Q 2431 1156 2273 1281 
Q 2116 1406 1581 1522 
L 1381 1569 
Q 847 1681 609 1914 
Q 372 2147 372 2553 
Q 372 3047 722 3315 
Q 1072 3584 1716 3584 
Q 2034 3584 2315 3537 
Q 2597 3491 2834 3397 
z
" transform="scale(0.015625)"/>
      </defs>
      <use xlink:href="#DejaVuSans-44"/>
      <use xlink:href="#DejaVuSans-61" transform="translate(77.001953 0)"/>
      <use xlink:href="#DejaVuSans-69" transform="translate(138.28125 0)"/>
      <use xlink:href="#DejaVuSans-6c" transform="translate(166.064453 0)"/>
      <use xlink:href="#DejaVuSans-79" transform="translate(193.847656 0)"/>
      <use xlink:href="#DejaVuSans-20" transform="translate(253.027344 0)"/>
      <use xlink:href="#DejaVuSans-70" transform="translate(284.814453 0)"/>
      <use xlink:href="#DejaVuSans-65" transform="translate(348.291016 0)"/>
      <use xlink:href="#DejaVuSans-64" transform="translate(409.814453 0)"/>
      <use xlink:href="#DejaVuSans-65" transform="translate(473.291016 0)"/>
      <use xlink:href="#DejaVuSans-73" transform="translate(534.814453 0)"/>
      <use xlink:href="#DejaVuSans-74" transform="translate(586.914062 0)"/>
      <use xlink:href="#DejaVuSans-72" transform="translate(626.123047 0)"/>
      <use xlink:href="#DejaVuSans-69" transform="translate(667.236328 0)"/>
      <use xlink:href="#DejaVuSans-61" transform="translate(695.019531 0)"/>
      <use xlink:href="#DejaVuSans-6e" transform="translate(756.298828 0)"/>
      <use xlink:href="#DejaVuSans-20" transform="translate(819.677734 0)"/>
      <use xlink:href="#DejaVuSans-63" transform="translate(851.464844 0)"/>
      <use xlink:href="#DejaVuSans-6f" transform="translate(906.445312 0)"/>
      <use xlink:href="#DejaVuSans-75" transform="translate(967.626953 0)"/>
      <use xlink:href="#DejaVuSans-6e" transform="translate(1031.005859 0)"/>
      <use xlink:href="#DejaVuSans-74" transform="translate(1094.384766 0)"/>
     </g>
    </g>
   </g>
   <g id="line2d_45">
    <path d="M 57.017792 237.350797 
L 58.771834 243.009253 
L 60.525876 230.36553 
L 62.279918 268.725963 
L 64.03396 205.429297 
L 65.788002 257.370026 
L 67.542044 232.277698 
L 69.296086 259.672432 
L 71.050128 257.252954 
L 72.80417 251.477426 
L 74.558212 224.863169 
L 76.312254 228.297266 
L 78.066296 248.979901 
L 79.820338 266.345509 
L 81.57438 262.911411 
L 83.328422 242.658039 
L 85.082464 233.838651 
L 86.836506 212.219445 
L 88.590548 197.039172 
L 90.34459 244.258016 
L 92.098632 250.657926 
L 93.852674 254.287143 
L 95.606716 253.233499 
L 97.360758 274.033205 
L 99.1148 258.696836 
L 100.868842 226.189979 
L 102.622884 247.067732 
L 104.376926 273.760038 
L 106.130968 280.979448 
L 107.88501 280.237995 
L 109.639052 259.399265 
L 111.393094 239.887346 
L 113.147136 194.541646 
L 114.901178 285.194022 
L 116.65522 267.711343 
L 118.409262 263.847983 
L 120.163304 270.599107 
L 121.917346 253.194475 
L 125.42543 211.712135 
L 127.179472 243.126325 
L 128.933514 249.096972 
L 130.687556 285.115975 
L 132.441598 267.321105 
L 134.19564 231.146007 
L 135.949682 231.341126 
L 137.703724 198.44403 
L 139.457766 244.570207 
L 141.211808 262.482149 
L 142.96585 271.145441 
L 144.719892 263.301649 
L 146.473934 262.638244 
L 148.227976 219.751046 
L 149.982018 196.531862 
L 151.73606 258.384646 
L 153.490102 256.940764 
L 155.244144 258.852932 
L 156.998186 261.350457 
L 158.752228 259.672432 
L 160.50627 257.331002 
L 162.260312 245.740922 
L 164.014354 256.628573 
L 165.768396 260.7651 
L 167.522438 260.179742 
L 169.27648 262.989458 
L 171.030522 257.799288 
L 172.784564 233.019151 
L 174.538606 221.272975 
L 176.292648 233.604508 
L 178.04669 261.896791 
L 179.800732 269.350344 
L 183.308816 249.799401 
L 185.062858 216.394996 
L 186.8169 156.610476 
L 188.570942 199.302555 
L 190.324984 250.970116 
L 193.833068 260.921195 
L 195.58711 251.438402 
L 197.341152 219.126664 
L 199.095194 201.175699 
L 200.849236 251.828641 
L 202.603278 264.94065 
L 204.35732 252.492046 
L 206.111362 241.331228 
L 207.865404 244.882398 
L 209.619446 214.638923 
L 211.373488 209.5268 
L 213.12753 222.755881 
L 214.881572 258.384646 
L 216.635614 265.408936 
L 218.389656 270.247892 
L 220.143698 262.989458 
L 221.89774 226.229003 
L 223.651782 200.395222 
L 225.405824 243.906802 
L 227.159866 259.516337 
L 228.913908 253.623737 
L 230.66795 248.706734 
L 232.421992 251.555474 
L 234.176034 210.853611 
L 235.930076 200.824484 
L 237.684118 237.858107 
L 239.43816 249.760377 
L 241.192202 247.184804 
L 242.946244 257.955383 
L 244.700286 241.604395 
L 246.454328 243.165349 
L 248.20837 209.995086 
L 249.962412 214.795018 
L 251.716454 262.755315 
L 253.470496 257.760264 
L 255.224538 247.575042 
L 256.97858 242.579991 
L 258.732622 260.687052 
L 260.486664 233.331341 
L 262.240706 271.925917 
L 263.994748 275.008801 
L 265.74879 269.779606 
L 267.502832 276.569754 
L 269.256874 265.291865 
L 271.010916 238.872726 
L 272.764958 203.634201 
L 274.519 241.877562 
L 276.273042 271.418608 
L 278.027084 274.852705 
L 279.781126 279.457518 
L 283.28921 265.838199 
L 285.043252 224.199763 
L 286.797294 210.112158 
L 288.551336 280.940424 
L 290.305378 264.667484 
L 292.05942 274.618562 
L 293.813462 267.360128 
L 295.567504 235.906915 
L 297.321546 211.673111 
L 299.075588 256.667597 
L 300.82963 275.281968 
L 302.583672 270.208869 
L 304.337714 271.808846 
L 306.091756 265.526008 
L 307.845798 234.814247 
L 309.59984 241.136109 
L 311.353882 287.535453 
L 313.107924 289.096406 
L 314.861966 277.077064 
L 316.616008 286.794 
L 318.37005 284.491593 
L 320.124092 259.282194 
L 321.878134 219.751046 
L 323.632176 283.984283 
L 325.386218 293.310981 
L 327.14026 276.413659 
L 328.894302 279.57459 
L 330.648344 279.184351 
L 332.402386 244.062897 
L 334.156428 230.443577 
L 335.91047 246.404327 
L 337.664512 274.813681 
L 339.418554 274.69661 
L 341.172596 282.618449 
L 342.926638 277.584374 
L 344.68068 248.121376 
L 346.434722 216.355972 
L 348.188764 277.506326 
L 349.942806 264.082126 
L 351.696848 278.247779 
L 353.45089 265.799175 
L 355.204932 275.789277 
L 356.958974 229.819196 
L 358.713016 239.41906 
L 360.467058 281.837972 
L 362.2211 265.486984 
L 363.975142 265.44796 
L 365.729184 262.716292 
L 367.483226 255.262739 
L 369.237268 239.614179 
L 370.99131 277.155112 
L 372.745352 266.306485 
L 374.499394 270.677155 
L 376.253436 275.594158 
L 378.007478 276.842921 
L 379.76152 262.872387 
L 381.515562 233.292318 
L 383.269604 207.731704 
L 385.023646 274.540515 
L 386.777688 254.8725 
L 388.53173 261.662648 
L 390.285772 275.360015 
L 392.039814 268.413772 
L 393.793856 238.170297 
L 395.547898 227.477766 
L 397.30194 282.696497 
L 399.055982 270.872274 
L 400.810024 268.101581 
L 402.564066 255.926144 
L 404.318108 256.862716 
L 406.07215 219.79007 
L 407.826192 204.180534 
L 409.580234 263.574816 
L 411.334276 272.082013 
L 413.088318 285.076951 
L 414.84236 270.482035 
L 416.596402 258.813908 
L 418.350444 248.706734 
L 420.104486 185.683235 
L 421.858528 241.721467 
L 423.61257 271.418608 
L 425.366612 264.706507 
L 427.120654 267.243057 
L 428.874696 268.062557 
L 430.628738 239.731251 
L 432.38278 215.770614 
L 434.136822 259.477313 
L 435.890864 273.564919 
L 437.644906 274.033205 
L 439.398948 266.228437 
L 441.15299 261.506553 
L 442.907032 253.54569 
L 444.661074 239.770275 
L 446.415116 275.945373 
L 448.169158 276.803897 
L 449.9232 272.706394 
L 451.677242 269.428392 
L 453.431284 270.755202 
L 455.185326 242.345848 
L 456.939368 187.283212 
L 458.69341 271.067393 
L 460.447452 276.608778 
L 462.201494 268.882058 
L 463.955536 260.335837 
L 465.709578 260.452909 
L 467.46362 214.755994 
L 469.217662 199.029388 
L 470.971704 267.633295 
L 472.725746 270.911298 
L 474.479788 269.038153 
L 476.23383 289.018359 
L 477.987872 272.66737 
L 481.495956 207.146346 
L 483.249998 254.560309 
L 485.00404 274.618562 
L 486.758082 267.789391 
L 488.512124 270.286916 
L 490.266166 263.301649 
L 492.020208 252.062784 
L 493.77425 250.150616 
L 495.528292 279.769709 
L 497.282334 296.120697 
L 499.036376 284.725736 
L 500.790418 298.579199 
L 502.54446 270.482035 
L 504.298502 226.580217 
L 506.052544 202.775676 
L 507.806586 276.569754 
L 509.560628 273.330776 
L 511.31467 268.257677 
L 513.068712 257.291978 
L 514.822754 237.623964 
L 516.576796 215.263304 
L 518.330838 235.906915 
L 520.08488 260.335837 
L 521.838922 262.59922 
L 523.592964 252.296927 
L 525.347006 250.345735 
L 527.101048 216.434019 
L 528.85509 256.043215 
L 530.609132 243.165349 
L 532.363174 242.228777 
L 534.117216 255.809072 
L 535.871258 254.287143 
L 537.6253 241.136109 
L 539.379342 240.472704 
L 541.133384 227.00948 
L 542.887426 181.546708 
L 544.641468 255.418834 
L 546.39551 239.067846 
L 548.149552 272.433227 
L 549.903594 259.24317 
L 551.657636 249.760377 
L 553.411678 202.229342 
L 555.16572 186.151521 
L 556.919762 241.526347 
L 558.673804 254.833476 
L 560.427846 267.282081 
L 562.181888 267.828414 
L 563.93593 268.023534 
L 565.689972 226.463146 
L 567.444014 226.424122 
L 569.198056 249.48721 
L 570.952098 253.428618 
L 572.70614 262.248006 
L 574.460182 241.487324 
L 576.214224 250.970116 
L 577.968266 225.448526 
L 579.722308 244.609231 
L 581.47635 256.199311 
L 583.230392 253.85788 
L 584.984434 262.872387 
L 586.738476 247.340899 
L 588.492518 266.150389 
L 590.24656 239.380036 
L 592.000602 250.657926 
L 593.754644 250.345735 
L 595.508686 275.516111 
L 597.262728 254.560309 
L 599.01677 240.628799 
L 600.770812 259.906575 
L 602.524854 244.570207 
L 604.278896 250.462806 
L 606.032938 246.989685 
L 607.78698 244.101921 
L 609.541022 261.233386 
L 611.295064 242.033657 
L 613.049106 240.628799 
L 614.803148 219.633974 
L 616.55719 202.502509 
L 618.311232 55.616782 
L 620.065274 242.853158 
L 621.819316 240.901966 
L 623.573358 239.536132 
L 625.3274 237.662987 
L 627.081442 212.609683 
L 628.835484 211.634087 
L 630.589526 203.556153 
L 632.343568 244.80435 
L 634.09761 259.984623 
L 635.851652 251.984736 
L 637.605694 239.887346 
L 639.359736 237.58494 
L 641.113778 210.03411 
L 642.86782 258.813908 
L 644.621862 259.360242 
L 646.375904 258.501717 
L 648.129946 251.165236 
L 649.883988 249.253067 
L 651.63803 217.955949 
L 653.392072 209.995086 
L 655.146114 242.306824 
L 656.900157 262.872387 
L 658.654199 247.848209 
L 660.408241 241.76049 
L 662.162283 232.667936 
L 663.916325 204.024439 
L 665.670367 201.487889 
L 667.424409 253.974952 
L 669.178451 235.321557 
L 670.932493 241.331228 
L 672.686535 250.892069 
L 674.440577 234.306937 
L 676.194619 274.735634 
L 677.948661 248.082352 
L 679.702703 266.618675 
L 681.456745 240.472704 
L 683.210787 263.887007 
L 684.964829 310.598541 
L 686.718871 253.896904 
L 688.472913 219.204712 
L 690.226955 195.634314 
L 691.980997 242.736086 
L 693.735039 259.594385 
L 695.489081 183.966186 
L 695.489081 183.966186 
" clip-path="url(#p6674a8bf59)" style="fill: none; stroke: #0d6efc; stroke-opacity: 0.8; stroke-width: 2.5; stroke-linecap: square"/>
   </g>
   <g id="line2d_46">
    <path d="M 57.017792 344.120018 
L 58.771834 284.218426 
L 60.525876 302.871821 
L 62.279918 314.539949 
L 64.03396 350.871142 
L 65.788002 336.471346 
L 67.542044 281.564805 
L 69.296086 303.57425 
L 71.050128 305.369347 
L 72.80417 293.935362 
L 74.558212 300.413319 
L 76.312254 352.197953 
L 78.066296 273.252728 
L 79.820338 282.579425 
L 81.57438 309.700993 
L 83.328422 295.223149 
L 85.082464 295.964602 
L 86.836506 159.849454 
L 88.590548 339.905444 
L 90.34459 304.354727 
L 92.098632 298.69627 
L 93.852674 320.822787 
L 95.606716 303.886441 
L 97.360758 299.320652 
L 99.1148 263.223602 
L 100.868842 341.232254 
L 102.622884 349.817499 
L 104.376926 304.705942 
L 106.130968 306.266895 
L 107.88501 306.696157 
L 109.639052 317.310641 
L 111.393094 298.423104 
L 113.147136 345.759019 
L 114.901178 323.047146 
L 116.65522 306.657133 
L 118.409262 313.291186 
L 120.163304 327.378792 
L 121.917346 320.783763 
L 123.671388 294.598767 
L 125.42543 337.446942 
L 127.179472 297.096293 
L 128.933514 320.159381 
L 130.687556 330.695818 
L 132.441598 319.886215 
L 134.19564 324.139813 
L 135.949682 289.174454 
L 137.703724 349.544332 
L 139.457766 304.823013 
L 141.211808 302.24744 
L 142.96585 300.647462 
L 144.719892 293.232933 
L 146.473934 299.008461 
L 148.227976 310.832684 
L 149.982018 346.539496 
L 151.73606 298.774318 
L 153.490102 294.871934 
L 155.244144 301.545011 
L 156.998186 287.652524 
L 158.752228 291.47686 
L 160.50627 280.511162 
L 162.260312 340.68592 
L 164.014354 303.613274 
L 165.768396 288.706168 
L 167.522438 310.208303 
L 169.27648 302.520607 
L 171.030522 312.627781 
L 172.784564 304.823013 
L 174.538606 338.422538 
L 176.292648 311.535113 
L 178.04669 307.905896 
L 179.800732 311.457066 
L 181.554774 294.871934 
L 183.308816 341.037135 
L 185.062858 302.520607 
L 186.8169 349.232141 
L 188.570942 284.686713 
L 190.324984 304.705942 
L 192.079026 312.549733 
L 193.833068 302.55963 
L 195.58711 285.037927 
L 197.341152 278.989232 
L 199.095194 340.217634 
L 200.849236 301.115748 
L 202.603278 288.159834 
L 204.35732 294.130481 
L 206.111362 278.208755 
L 207.865404 337.720109 
L 209.619446 251.360355 
L 211.373488 338.773752 
L 213.12753 302.442559 
L 214.881572 292.140266 
L 216.635614 312.354614 
L 218.389656 301.037701 
L 220.143698 321.798383 
L 221.89774 272.199084 
L 223.651782 345.173662 
L 225.405824 355.085717 
L 227.159866 291.906123 
L 228.913908 290.032978 
L 230.66795 276.21854 
L 232.421992 294.052434 
L 234.176034 298.423104 
L 235.930076 346.851687 
L 237.684118 293.310981 
L 239.43816 278.169732 
L 241.192202 350.246761 
L 242.946244 278.208755 
L 244.700286 315.749688 
L 246.454328 283.086735 
L 248.20837 343.105398 
L 249.962412 292.647576 
L 251.716454 289.525668 
L 253.470496 295.84753 
L 255.224538 289.447621 
L 256.97858 342.402969 
L 258.732622 265.565032 
L 260.486664 353.954025 
L 262.240706 308.881492 
L 263.994748 321.408144 
L 265.74879 309.818064 
L 267.502832 307.94492 
L 269.256874 295.145101 
L 271.010916 257.760264 
L 272.764958 342.285898 
L 274.519 298.345056 
L 276.273042 314.617996 
L 278.027084 357.700314 
L 279.781126 305.135204 
L 281.535168 266.774771 
L 283.28921 248.199424 
L 285.043252 344.822447 
L 286.797294 311.691209 
L 288.551336 306.501038 
L 290.305378 327.144649 
L 292.05942 313.486305 
L 293.813462 291.008574 
L 295.567504 256.90174 
L 297.321546 349.42726 
L 299.075588 317.778927 
L 300.82963 313.174114 
L 302.583672 353.719882 
L 304.337714 293.740243 
L 306.091756 284.920856 
L 307.845798 242.892182 
L 309.59984 348.763855 
L 311.353882 305.837633 
L 313.107924 341.349326 
L 314.861966 321.174001 
L 316.616008 315.203354 
L 318.37005 288.003739 
L 320.124092 264.199197 
L 321.878134 354.071097 
L 323.632176 337.368894 
L 325.386218 323.944694 
L 327.14026 304.471799 
L 328.894302 310.130255 
L 330.648344 317.661856 
L 332.402386 368.158702 
L 334.156428 348.880926 
L 335.91047 360.275887 
L 337.664512 296.706055 
L 339.418554 293.584148 
L 341.172596 281.564805 
L 342.926638 289.681764 
L 344.68068 285.896452 
L 346.434722 378.929282 
L 348.188764 288.862263 
L 349.942806 303.06694 
L 351.696848 310.442446 
L 353.45089 289.369573 
L 355.204932 366.285558 
L 356.958974 275.281968 
L 358.713016 356.997885 
L 360.467058 290.501264 
L 362.2211 300.296248 
L 363.975142 325.73979 
L 365.729184 302.130368 
L 367.483226 288.62812 
L 369.237268 252.960332 
L 370.99131 360.744173 
L 372.745352 379.358544 
L 374.499394 360.51003 
L 376.253436 366.948964 
L 378.007478 378.109781 
L 379.76152 342.910279 
L 381.515562 333.739677 
L 383.269604 340.88104 
L 385.023646 354.656454 
L 386.777688 347.788259 
L 388.53173 353.29062 
L 390.285772 289.564692 
L 392.039814 254.092023 
L 393.793856 230.989911 
L 395.547898 344.276114 
L 397.30194 281.486758 
L 399.055982 281.057496 
L 400.810024 271.34056 
L 402.564066 288.354953 
L 404.318108 272.433227 
L 406.07215 259.945599 
L 407.826192 352.080881 
L 409.580234 302.715726 
L 411.334276 318.247213 
L 413.088318 300.491367 
L 414.84236 302.130368 
L 416.596402 304.862037 
L 418.350444 266.96989 
L 420.104486 348.91995 
L 421.858528 316.998451 
L 423.61257 310.208303 
L 425.366612 307.593706 
L 427.120654 296.745079 
L 428.874696 271.223488 
L 430.628738 271.652751 
L 432.38278 349.93457 
L 434.136822 310.091231 
L 435.890864 380.802426 
L 437.644906 299.515771 
L 439.398948 353.524763 
L 441.15299 340.724944 
L 442.907032 238.989798 
L 444.661074 350.012618 
L 446.415116 296.432888 
L 448.169158 307.983944 
L 449.9232 356.295456 
L 451.677242 293.428052 
L 453.431284 309.154659 
L 455.185326 255.184691 
L 456.939368 347.749235 
L 458.69341 347.241925 
L 460.447452 307.008348 
L 462.201494 319.808167 
L 463.955536 297.603603 
L 465.709578 254.599333 
L 467.46362 247.575042 
L 469.217662 350.94919 
L 470.971704 308.218087 
L 472.725746 324.998337 
L 474.479788 354.461335 
L 476.23383 358.012505 
L 477.987872 341.154206 
L 479.741914 338.422538 
L 481.495956 353.719882 
L 483.249998 359.69053 
L 485.00404 358.324695 
L 486.758082 358.597862 
L 488.512124 300.491367 
L 490.266166 284.374522 
L 492.020208 331.047032 
L 493.77425 352.627215 
L 495.528292 357.700314 
L 497.282334 358.441767 
L 499.036376 355.085717 
L 500.790418 356.256432 
L 504.298502 331.593366 
L 506.052544 346.773639 
L 507.806586 356.841789 
L 509.560628 357.583242 
L 511.31467 353.602811 
L 513.068712 354.071097 
L 514.822754 346.461448 
L 516.576796 330.422651 
L 518.330838 352.158929 
L 520.08488 358.558838 
L 521.838922 357.310075 
L 523.592964 355.593027 
L 525.347006 349.232141 
L 527.101048 339.554229 
L 528.85509 337.720109 
L 530.609132 353.602811 
L 532.363174 285.037927 
L 534.117216 355.046693 
L 535.871258 351.846738 
L 537.6253 351.534547 
L 539.379342 336.783537 
L 541.133384 320.432548 
L 542.887426 344.510257 
L 544.641468 347.749235 
L 546.39551 353.329644 
L 548.149552 347.241925 
L 549.903594 351.222357 
L 551.657636 345.798043 
L 553.411678 334.168939 
L 555.16572 345.329757 
L 556.919762 347.124854 
L 558.673804 351.222357 
L 560.427846 343.846851 
L 562.181888 349.856522 
L 563.93593 347.632164 
L 565.689972 336.354274 
L 567.444014 338.383514 
L 569.198056 350.207737 
L 570.952098 353.056477 
L 572.70614 354.656454 
L 574.460182 349.349212 
L 576.214224 348.256545 
L 577.968266 340.802992 
L 579.722308 353.915002 
L 581.47635 354.071097 
L 583.230392 352.315024 
L 584.984434 350.129689 
L 586.738476 351.300404 
L 588.492518 345.329757 
L 590.24656 330.344603 
L 592.000602 339.35911 
L 593.754644 362.53927 
L 595.508686 347.08583 
L 597.262728 342.481017 
L 599.01677 344.198066 
L 600.770812 346.500472 
L 602.524854 357.817385 
L 604.278896 347.476068 
L 606.032938 344.393185 
L 607.78698 350.012618 
L 609.541022 341.505421 
L 611.295064 342.090779 
L 613.049106 344.939519 
L 614.803148 338.695705 
L 616.55719 349.856522 
L 618.311232 349.42726 
L 620.065274 350.324808 
L 621.819316 348.880926 
L 623.573358 346.773639 
L 625.3274 353.836954 
L 627.081442 344.705376 
L 628.835484 349.271165 
L 630.589526 346.695591 
L 632.343568 346.929735 
L 634.09761 358.792981 
L 635.851652 351.651619 
L 637.605694 349.037022 
L 639.359736 348.178497 
L 641.113778 343.339541 
L 642.86782 354.110121 
L 644.621862 347.358997 
L 646.375904 351.612595 
L 648.129946 353.563787 
L 649.883988 343.534661 
L 651.63803 347.788259 
L 653.392072 350.324808 
L 655.146114 347.241925 
L 656.900157 349.973594 
L 658.654199 350.910166 
L 660.408241 347.788259 
L 662.162283 338.617657 
L 663.916325 343.885875 
L 665.670367 348.724831 
L 667.424409 350.558951 
L 669.178451 348.178497 
L 670.932493 346.929735 
L 672.686535 346.929735 
L 674.440577 344.54928 
L 676.194619 341.856636 
L 677.948661 347.983378 
L 679.702703 346.188282 
L 681.456745 350.832118 
L 683.210787 347.007782 
L 684.964829 360.00272 
L 686.718871 352.393072 
L 688.472913 342.051755 
L 690.226955 335.573798 
L 691.980997 337.485966 
L 693.735039 344.54928 
L 695.489081 347.90533 
L 695.489081 347.90533 
" clip-path="url(#p6674a8bf59)" style="fill: none; stroke: #83c966; stroke-opacity: 0.8; stroke-width: 2.5; stroke-linecap: square"/>
   </g>
   <g id="patch_3">
    <path d="M 55.26375 384.1975 
L 55.26375 39.3575 
" style="fill: none; stroke: #000000; stroke-width: 0.8; stroke-linejoin: miter; stroke-linecap: square"/>
   </g>
   <g id="patch_4">
    <path d="M 55.26375 384.1975 
L 704.259291 384.1975 
" style="fill: none; stroke: #000000; stroke-width: 0.8; stroke-linejoin: miter; stroke-linecap: square"/>
   </g>
   <g id="text_25">
    <!-- Pedestrian Traffic at Lygon St (East) -->
    <g transform="translate(237.38902 19.3575) scale(0.16 -0.16)">
     <defs>
      <path id="DejaVuSans-50" d="M 1259 4147 
L 1259 2394 
L 2053 2394 
Q 2494 2394 2734 2622 
Q 2975 2850 2975 3272 
Q 2975 3691 2734 3919 
Q 2494 4147 2053 4147 
L 1259 4147 
z
M 628 4666 
L 2053 4666 
Q 2838 4666 3239 4311 
Q 3641 3956 3641 3272 
Q 3641 2581 3239 2228 
Q 2838 1875 2053 1875 
L 1259 1875 
L 1259 0 
L 628 0 
L 628 4666 
z
" transform="scale(0.015625)"/>
      <path id="DejaVuSans-54" d="M -19 4666 
L 3928 4666 
L 3928 4134 
L 2272 4134 
L 2272 0 
L 1638 0 
L 1638 4134 
L -19 4134 
L -19 4666 
z
" transform="scale(0.015625)"/>
      <path id="DejaVuSans-4c" d="M 628 4666 
L 1259 4666 
L 1259 531 
L 3531 531 
L 3531 0 
L 628 0 
L 628 4666 
z
" transform="scale(0.015625)"/>
      <path id="DejaVuSans-28" d="M 1984 4856 
Q 1566 4138 1362 3434 
Q 1159 2731 1159 2009 
Q 1159 1288 1364 580 
Q 1569 -128 1984 -844 
L 1484 -844 
Q 1016 -109 783 600 
Q 550 1309 550 2009 
Q 550 2706 781 3412 
Q 1013 4119 1484 4856 
L 1984 4856 
z
" transform="scale(0.015625)"/>
      <path id="DejaVuSans-45" d="M 628 4666 
L 3578 4666 
L 3578 4134 
L 1259 4134 
L 1259 2753 
L 3481 2753 
L 3481 2222 
L 1259 2222 
L 1259 531 
L 3634 531 
L 3634 0 
L 628 0 
L 628 4666 
z
" transform="scale(0.015625)"/>
      <path id="DejaVuSans-29" d="M 513 4856 
L 1013 4856 
Q 1481 4119 1714 3412 
Q 1947 2706 1947 2009 
Q 1947 1309 1714 600 
Q 1481 -109 1013 -844 
L 513 -844 
Q 928 -128 1133 580 
Q 1338 1288 1338 2009 
Q 1338 2731 1133 3434 
Q 928 4138 513 4856 
z
" transform="scale(0.015625)"/>
     </defs>
     <use xlink:href="#DejaVuSans-50"/>
     <use xlink:href="#DejaVuSans-65" transform="translate(56.677734 0)"/>
     <use xlink:href="#DejaVuSans-64" transform="translate(118.201172 0)"/>
     <use xlink:href="#DejaVuSans-65" transform="translate(181.677734 0)"/>
     <use xlink:href="#DejaVuSans-73" transform="translate(243.201172 0)"/>
     <use xlink:href="#DejaVuSans-74" transform="translate(295.300781 0)"/>
     <use xlink:href="#DejaVuSans-72" transform="translate(334.509766 0)"/>
     <use xlink:href="#DejaVuSans-69" transform="translate(375.623047 0)"/>
     <use xlink:href="#DejaVuSans-61" transform="translate(403.40625 0)"/>
     <use xlink:href="#DejaVuSans-6e" transform="translate(464.685547 0)"/>
     <use xlink:href="#DejaVuSans-20" transform="translate(528.064453 0)"/>
     <use xlink:href="#DejaVuSans-54" transform="translate(559.851562 0)"/>
     <use xlink:href="#DejaVuSans-72" transform="translate(606.185547 0)"/>
     <use xlink:href="#DejaVuSans-61" transform="translate(647.298828 0)"/>
     <use xlink:href="#DejaVuSans-66" transform="translate(708.578125 0)"/>
     <use xlink:href="#DejaVuSans-66" transform="translate(743.783203 0)"/>
     <use xlink:href="#DejaVuSans-69" transform="translate(778.988281 0)"/>
     <use xlink:href="#DejaVuSans-63" transform="translate(806.771484 0)"/>
     <use xlink:href="#DejaVuSans-20" transform="translate(861.751953 0)"/>
     <use xlink:href="#DejaVuSans-61" transform="translate(893.539062 0)"/>
     <use xlink:href="#DejaVuSans-74" transform="translate(954.818359 0)"/>
     <use xlink:href="#DejaVuSans-20" transform="translate(994.027344 0)"/>
     <use xlink:href="#DejaVuSans-4c" transform="translate(1025.814453 0)"/>
     <use xlink:href="#DejaVuSans-79" transform="translate(1072.402344 0)"/>
     <use xlink:href="#DejaVuSans-67" transform="translate(1131.582031 0)"/>
     <use xlink:href="#DejaVuSans-6f" transform="translate(1195.058594 0)"/>
     <use xlink:href="#DejaVuSans-6e" transform="translate(1256.240234 0)"/>
     <use xlink:href="#DejaVuSans-20" transform="translate(1319.619141 0)"/>
     <use xlink:href="#DejaVuSans-53" transform="translate(1351.40625 0)"/>
     <use xlink:href="#DejaVuSans-74" transform="translate(1414.882812 0)"/>
     <use xlink:href="#DejaVuSans-20" transform="translate(1454.091797 0)"/>
     <use xlink:href="#DejaVuSans-28" transform="translate(1485.878906 0)"/>
     <use xlink:href="#DejaVuSans-45" transform="translate(1524.892578 0)"/>
     <use xlink:href="#DejaVuSans-61" transform="translate(1588.076172 0)"/>
     <use xlink:href="#DejaVuSans-73" transform="translate(1649.355469 0)"/>
     <use xlink:href="#DejaVuSans-74" transform="translate(1701.455078 0)"/>
     <use xlink:href="#DejaVuSans-29" transform="translate(1740.664062 0)"/>
    </g>
   </g>
   <g id="legend_1">
    <g id="patch_5">
     <path d="M 62.96375 80.449375 
L 126.15875 80.449375 
Q 128.35875 80.449375 128.35875 78.249375 
L 128.35875 47.0575 
Q 128.35875 44.8575 126.15875 44.8575 
L 62.96375 44.8575 
Q 60.76375 44.8575 60.76375 47.0575 
L 60.76375 78.249375 
Q 60.76375 80.449375 62.96375 80.449375 
z
" style="fill: #ffffff; opacity: 0.95; stroke: #cccccc; stroke-linejoin: miter"/>
    </g>
    <g id="line2d_47">
     <path d="M 65.16375 53.765781 
L 76.16375 53.765781 
L 87.16375 53.765781 
" style="fill: none; stroke: #0d6efc; stroke-opacity: 0.8; stroke-width: 2.5; stroke-linecap: square"/>
    </g>
    <g id="text_26">
     <!-- 2019 -->
     <g transform="translate(95.96375 57.615781) scale(0.11 -0.11)">
      <defs>
       <path id="DejaVuSans-39" d="M 703 97 
L 703 672 
Q 941 559 1184 500 
Q 1428 441 1663 441 
Q 2288 441 2617 861 
Q 2947 1281 2994 2138 
Q 2813 1869 2534 1725 
Q 2256 1581 1919 1581 
Q 1219 1581 811 2004 
Q 403 2428 403 3163 
Q 403 3881 828 4315 
Q 1253 4750 1959 4750 
Q 2769 4750 3195 4129 
Q 3622 3509 3622 2328 
Q 3622 1225 3098 567 
Q 2575 -91 1691 -91 
Q 1453 -91 1209 -44 
Q 966 3 703 97 
z
M 1959 2075 
Q 2384 2075 2632 2365 
Q 2881 2656 2881 3163 
Q 2881 3666 2632 3958 
Q 2384 4250 1959 4250 
Q 1534 4250 1286 3958 
Q 1038 3666 1038 3163 
Q 1038 2656 1286 2365 
Q 1534 2075 1959 2075 
z
" transform="scale(0.015625)"/>
      </defs>
      <use xlink:href="#DejaVuSans-32"/>
      <use xlink:href="#DejaVuSans-30" transform="translate(63.623047 0)"/>
      <use xlink:href="#DejaVuSans-31" transform="translate(127.246094 0)"/>
      <use xlink:href="#DejaVuSans-39" transform="translate(190.869141 0)"/>
     </g>
    </g>
    <g id="line2d_48">
     <path d="M 65.16375 69.911719 
L 76.16375 69.911719 
L 87.16375 69.911719 
" style="fill: none; stroke: #83c966; stroke-opacity: 0.8; stroke-width: 2.5; stroke-linecap: square"/>
    </g>
    <g id="text_27">
     <!-- 2025 -->
     <g transform="translate(95.96375 73.761719) scale(0.11 -0.11)">
      <use xlink:href="#DejaVuSans-32"/>
      <use xlink:href="#DejaVuSans-30" transform="translate(63.623047 0)"/>
      <use xlink:href="#DejaVuSans-32" transform="translate(127.246094 0)"/>
      <use xlink:href="#DejaVuSans-35" transform="translate(190.869141 0)"/>
     </g>
    </g>
   </g>
  </g>
 </g>
 <defs>
  <clipPath id="p6674a8bf59">
   <rect x="55.26375" y="39.3575" width="648.995541" height="344.84"/>
  </clipPath>
 </defs>
</svg>
