<?xml version="1.0" encoding="utf-8" standalone="no"?>
<!DOCTYPE svg PUBLIC "-//W3C//DTD SVG 1.1//EN"
  "http://www.w3.org/Graphics/SVG/1.1/DTD/svg11.dtd">
<svg xmlns:xlink="http://www.w3.org/1999/xlink" width="711.459291pt" height="423.689375pt" viewBox="0 0 711.459291 423.689375" xmlns="http://www.w3.org/2000/svg" version="1.1">
 <metadata>
  <rdf:RDF xmlns:dc="http://purl.org/dc/elements/1.1/" xmlns:cc="http://creativecommons.org/ns#" xmlns:rdf="http://www.w3.org/1999/02/22-rdf-syntax-ns#">
   <cc:Work>
    <dc:type rdf:resource="http://purl.org/dc/dcmitype/StillImage"/>
    <dc:date>2026-01-27T17:22:34.093387</dc:date>
    <dc:format>image/svg+xml</dc:format>
    <dc:creator>
     <cc:Agent>
      <dc:title>Matplotlib v3.10.8, https://matplotlib.org/</dc:title>
     </cc:Agent>
    </dc:creator>
   </cc:Work>
  </rdf:RDF>
 </metadata>
 <defs>
  <style type="text/css">*{stroke-linejoin: round; stroke-linecap: butt}</style>
 </defs>
 <g id="figure_1">
  <g id="patch_1">
   <path d="M 0 423.689375 
L 711.459291 423.689375 
L 711.459291 0 
L 0 0 
L 0 423.689375 
z
" style="fill: none"/>
  </g>
  <g id="axes_1">
   <g id="patch_2">
    <path d="M 55.26375 384.1975 
L 704.259291 384.1975 
L 704.259291 39.3575 
L 55.26375 39.3575 
L 55.26375 384.1975 
z
" style="fill: none"/>
   </g>
   <g id="matplotlib.axis_1">
    <g id="xtick_1">
     <g id="line2d_1">
      <path d="M 55.26375 384.1975 
L 55.26375 39.3575 
" clip-path="url(#pa754c3ca0b)" style="fill: none; stroke-dasharray: 2.96,1.28; stroke-dashoffset: 0; stroke: #b0b0b0; stroke-opacity: 0.3; stroke-width: 0.8"/>
     </g>
     <g id="line2d_2">
      <defs>
       <path id="macb361fb61" d="M 0 0 
L 0 3.5 
" style="stroke: #000000; stroke-width: 0.8"/>
      </defs>
      <g>
       <use xlink:href="#macb361fb61" x="55.26375" y="384.1975" style="stroke: #000000; stroke-width: 0.8"/>
      </g>
     </g>
     <g id="text_1">
      <!-- Jan -->
      <g transform="translate(47.555938 398.795937) scale(0.1 -0.1)">
       <defs>
        <path id="DejaVuSans-4a" d="M 628 4666 
L 1259 4666 
L 1259 325 
Q 1259 -519 939 -900 
Q 619 -1281 -91 -1281 
L -331 -1281 
L -331 -750 
L -134 -750 
Q 284 -750 456 -515 
Q 628 -281 628 325 
L 628 4666 
z
" transform="scale(0.015625)"/>
        <path id="DejaVuSans-61" d="M 2194 1759 
Q 1497 1759 1228 1600 
Q 959 1441 959 1056 
Q 959 750 1161 570 
Q 1363 391 1709 391 
Q 2188 391 2477 730 
Q 2766 1069 2766 1631 
L 2766 1759 
L 2194 1759 
z
M 3341 1997 
L 3341 0 
L 2766 0 
L 2766 531 
Q 2569 213 2275 61 
Q 1981 -91 1556 -91 
Q 1019 -91 701 211 
Q 384 513 384 1019 
Q 384 1609 779 1909 
Q 1175 2209 1959 2209 
L 2766 2209 
L 2766 2266 
Q 2766 2663 2505 2880 
Q 2244 3097 1772 3097 
Q 1472 3097 1187 3025 
Q 903 2953 641 2809 
L 641 3341 
Q 956 3463 1253 3523 
Q 1550 3584 1831 3584 
Q 2591 3584 2966 3190 
Q 3341 2797 3341 1997 
z
" transform="scale(0.015625)"/>
        <path id="DejaVuSans-6e" d="M 3513 2113 
L 3513 0 
L 2938 0 
L 2938 2094 
Q 2938 2591 2744 2837 
Q 2550 3084 2163 3084 
Q 1697 3084 1428 2787 
Q 1159 2491 1159 1978 
L 1159 0 
L 581 0 
L 581 3500 
L 1159 3500 
L 1159 2956 
Q 1366 3272 1645 3428 
Q 1925 3584 2291 3584 
Q 2894 3584 3203 3211 
Q 3513 2838 3513 2113 
z
" transform="scale(0.015625)"/>
       </defs>
       <use xlink:href="#DejaVuSans-4a"/>
       <use xlink:href="#DejaVuSans-61" transform="translate(29.492188 0)"/>
       <use xlink:href="#DejaVuSans-6e" transform="translate(90.771484 0)"/>
      </g>
     </g>
    </g>
    <g id="xtick_2">
     <g id="line2d_3">
      <path d="M 109.639052 384.1975 
L 109.639052 39.3575 
" clip-path="url(#pa754c3ca0b)" style="fill: none; stroke-dasharray: 2.96,1.28; stroke-dashoffset: 0; stroke: #b0b0b0; stroke-opacity: 0.3; stroke-width: 0.8"/>
     </g>
     <g id="line2d_4">
      <g>
       <use xlink:href="#macb361fb61" x="109.639052" y="384.1975" style="stroke: #000000; stroke-width: 0.8"/>
      </g>
     </g>
     <g id="text_2">
      <!-- Feb -->
      <g transform="translate(100.78749 398.795937) scale(0.1 -0.1)">
       <defs>
        <path id="DejaVuSans-46" d="M 628 4666 
L 3309 4666 
L 3309 4134 
L 1259 4134 
L 1259 2759 
L 3109 2759 
L 3109 2228 
L 1259 2228 
L 1259 0 
L 628 0 
L 628 4666 
z
" transform="scale(0.015625)"/>
        <path id="DejaVuSans-65" d="M 3597 1894 
L 3597 1613 
L 953 1613 
Q 991 1019 1311 708 
Q 1631 397 2203 397 
Q 2534 397 2845 478 
Q 3156 559 3463 722 
L 3463 178 
Q 3153 47 2828 -22 
Q 2503 -91 2169 -91 
Q 1331 -91 842 396 
Q 353 884 353 1716 
Q 353 2575 817 3079 
Q 1281 3584 2069 3584 
Q 2775 3584 3186 3129 
Q 3597 2675 3597 1894 
z
M 3022 2063 
Q 3016 2534 2758 2815 
Q 2500 3097 2075 3097 
Q 1594 3097 1305 2825 
Q 1016 2553 972 2059 
L 3022 2063 
z
" transform="scale(0.015625)"/>
        <path id="DejaVuSans-62" d="M 3116 1747 
Q 3116 2381 2855 2742 
Q 2594 3103 2138 3103 
Q 1681 3103 1420 2742 
Q 1159 2381 1159 1747 
Q 1159 1113 1420 752 
Q 1681 391 2138 391 
Q 2594 391 2855 752 
Q 3116 1113 3116 1747 
z
M 1159 2969 
Q 1341 3281 1617 3432 
Q 1894 3584 2278 3584 
Q 2916 3584 3314 3078 
Q 3713 2572 3713 1747 
Q 3713 922 3314 415 
Q 2916 -91 2278 -91 
Q 1894 -91 1617 61 
Q 1341 213 1159 525 
L 1159 0 
L 581 0 
L 581 4863 
L 1159 4863 
L 1159 2969 
z
" transform="scale(0.015625)"/>
       </defs>
       <use xlink:href="#DejaVuSans-46"/>
       <use xlink:href="#DejaVuSans-65" transform="translate(52.019531 0)"/>
       <use xlink:href="#DejaVuSans-62" transform="translate(113.542969 0)"/>
      </g>
     </g>
    </g>
    <g id="xtick_3">
     <g id="line2d_5">
      <path d="M 158.752228 384.1975 
L 158.752228 39.3575 
" clip-path="url(#pa754c3ca0b)" style="fill: none; stroke-dasharray: 2.96,1.28; stroke-dashoffset: 0; stroke: #b0b0b0; stroke-opacity: 0.3; stroke-width: 0.8"/>
     </g>
     <g id="line2d_6">
      <g>
       <use xlink:href="#macb361fb61" x="158.752228" y="384.1975" style="stroke: #000000; stroke-width: 0.8"/>
      </g>
     </g>
     <g id="text_3">
      <!-- Mar -->
      <g transform="translate(149.318634 398.795937) scale(0.1 -0.1)">
       <defs>
        <path id="DejaVuSans-4d" d="M 628 4666 
L 1569 4666 
L 2759 1491 
L 3956 4666 
L 4897 4666 
L 4897 0 
L 4281 0 
L 4281 4097 
L 3078 897 
L 2444 897 
L 1241 4097 
L 1241 0 
L 628 0 
L 628 4666 
z
" transform="scale(0.015625)"/>
        <path id="DejaVuSans-72" d="M 2631 2963 
Q 2534 3019 2420 3045 
Q 2306 3072 2169 3072 
Q 1681 3072 1420 2755 
Q 1159 2438 1159 1844 
L 1159 0 
L 581 0 
L 581 3500 
L 1159 3500 
L 1159 2956 
Q 1341 3275 1631 3429 
Q 1922 3584 2338 3584 
Q 2397 3584 2469 3576 
Q 2541 3569 2628 3553 
L 2631 2963 
z
" transform="scale(0.015625)"/>
       </defs>
       <use xlink:href="#DejaVuSans-4d"/>
       <use xlink:href="#DejaVuSans-61" transform="translate(86.279297 0)"/>
       <use xlink:href="#DejaVuSans-72" transform="translate(147.558594 0)"/>
      </g>
     </g>
    </g>
    <g id="xtick_4">
     <g id="line2d_7">
      <path d="M 213.12753 384.1975 
L 213.12753 39.3575 
" clip-path="url(#pa754c3ca0b)" style="fill: none; stroke-dasharray: 2.96,1.28; stroke-dashoffset: 0; stroke: #b0b0b0; stroke-opacity: 0.3; stroke-width: 0.8"/>
     </g>
     <g id="line2d_8">
      <g>
       <use xlink:href="#macb361fb61" x="213.12753" y="384.1975" style="stroke: #000000; stroke-width: 0.8"/>
      </g>
     </g>
     <g id="text_4">
      <!-- Apr -->
      <g transform="translate(204.47753 398.795937) scale(0.1 -0.1)">
       <defs>
        <path id="DejaVuSans-41" d="M 2188 4044 
L 1331 1722 
L 3047 1722 
L 2188 4044 
z
M 1831 4666 
L 2547 4666 
L 4325 0 
L 3669 0 
L 3244 1197 
L 1141 1197 
L 716 0 
L 50 0 
L 1831 4666 
z
" transform="scale(0.015625)"/>
        <path id="DejaVuSans-70" d="M 1159 525 
L 1159 -1331 
L 581 -1331 
L 581 3500 
L 1159 3500 
L 1159 2969 
Q 1341 3281 1617 3432 
Q 1894 3584 2278 3584 
Q 2916 3584 3314 3078 
Q 3713 2572 3713 1747 
Q 3713 922 3314 415 
Q 2916 -91 2278 -91 
Q 1894 -91 1617 61 
Q 1341 213 1159 525 
z
M 3116 1747 
Q 3116 2381 2855 2742 
Q 2594 3103 2138 3103 
Q 1681 3103 1420 2742 
Q 1159 2381 1159 1747 
Q 1159 1113 1420 752 
Q 1681 391 2138 391 
Q 2594 391 2855 752 
Q 3116 1113 3116 1747 
z
" transform="scale(0.015625)"/>
       </defs>
       <use xlink:href="#DejaVuSans-41"/>
       <use xlink:href="#DejaVuSans-70" transform="translate(68.408203 0)"/>
       <use xlink:href="#DejaVuSans-72" transform="translate(131.884766 0)"/>
      </g>
     </g>
    </g>
    <g id="xtick_5">
     <g id="line2d_9">
      <path d="M 265.74879 384.1975 
L 265.74879 39.3575 
" clip-path="url(#pa754c3ca0b)" style="fill: none; stroke-dasharray: 2.96,1.28; stroke-dashoffset: 0; stroke: #b0b0b0; stroke-opacity: 0.3; stroke-width: 0.8"/>
     </g>
     <g id="line2d_10">
      <g>
       <use xlink:href="#macb361fb61" x="265.74879" y="384.1975" style="stroke: #000000; stroke-width: 0.8"/>
      </g>
     </g>
     <g id="text_5">
      <!-- May -->
      <g transform="translate(255.41129 398.795937) scale(0.1 -0.1)">
       <defs>
        <path id="DejaVuSans-79" d="M 2059 -325 
Q 1816 -950 1584 -1140 
Q 1353 -1331 966 -1331 
L 506 -1331 
L 506 -850 
L 844 -850 
Q 1081 -850 1212 -737 
Q 1344 -625 1503 -206 
L 1606 56 
L 191 3500 
L 800 3500 
L 1894 763 
L 2988 3500 
L 3597 3500 
L 2059 -325 
z
" transform="scale(0.015625)"/>
       </defs>
       <use xlink:href="#DejaVuSans-4d"/>
       <use xlink:href="#DejaVuSans-61" transform="translate(86.279297 0)"/>
       <use xlink:href="#DejaVuSans-79" transform="translate(147.558594 0)"/>
      </g>
     </g>
    </g>
    <g id="xtick_6">
     <g id="line2d_11">
      <path d="M 320.124092 384.1975 
L 320.124092 39.3575 
" clip-path="url(#pa754c3ca0b)" style="fill: none; stroke-dasharray: 2.96,1.28; stroke-dashoffset: 0; stroke: #b0b0b0; stroke-opacity: 0.3; stroke-width: 0.8"/>
     </g>
     <g id="line2d_12">
      <g>
       <use xlink:href="#macb361fb61" x="320.124092" y="384.1975" style="stroke: #000000; stroke-width: 0.8"/>
      </g>
     </g>
     <g id="text_6">
      <!-- Jun -->
      <g transform="translate(312.311592 398.795937) scale(0.1 -0.1)">
       <defs>
        <path id="DejaVuSans-75" d="M 544 1381 
L 544 3500 
L 1119 3500 
L 1119 1403 
Q 1119 906 1312 657 
Q 1506 409 1894 409 
Q 2359 409 2629 706 
Q 2900 1003 2900 1516 
L 2900 3500 
L 3475 3500 
L 3475 0 
L 2900 0 
L 2900 538 
Q 2691 219 2414 64 
Q 2138 -91 1772 -91 
Q 1169 -91 856 284 
Q 544 659 544 1381 
z
M 1991 3584 
L 1991 3584 
z
" transform="scale(0.015625)"/>
       </defs>
       <use xlink:href="#DejaVuSans-4a"/>
       <use xlink:href="#DejaVuSans-75" transform="translate(29.492188 0)"/>
       <use xlink:href="#DejaVuSans-6e" transform="translate(92.871094 0)"/>
      </g>
     </g>
    </g>
    <g id="xtick_7">
     <g id="line2d_13">
      <path d="M 372.745352 384.1975 
L 372.745352 39.3575 
" clip-path="url(#pa754c3ca0b)" style="fill: none; stroke-dasharray: 2.96,1.28; stroke-dashoffset: 0; stroke: #b0b0b0; stroke-opacity: 0.3; stroke-width: 0.8"/>
     </g>
     <g id="line2d_14">
      <g>
       <use xlink:href="#macb361fb61" x="372.745352" y="384.1975" style="stroke: #000000; stroke-width: 0.8"/>
      </g>
     </g>
     <g id="text_7">
      <!-- Jul -->
      <g transform="translate(366.71254 398.795937) scale(0.1 -0.1)">
       <defs>
        <path id="DejaVuSans-6c" d="M 603 4863 
L 1178 4863 
L 1178 0 
L 603 0 
L 603 4863 
z
" transform="scale(0.015625)"/>
       </defs>
       <use xlink:href="#DejaVuSans-4a"/>
       <use xlink:href="#DejaVuSans-75" transform="translate(29.492188 0)"/>
       <use xlink:href="#DejaVuSans-6c" transform="translate(92.871094 0)"/>
      </g>
     </g>
    </g>
    <g id="xtick_8">
     <g id="line2d_15">
      <path d="M 427.120654 384.1975 
L 427.120654 39.3575 
" clip-path="url(#pa754c3ca0b)" style="fill: none; stroke-dasharray: 2.96,1.28; stroke-dashoffset: 0; stroke: #b0b0b0; stroke-opacity: 0.3; stroke-width: 0.8"/>
     </g>
     <g id="line2d_16">
      <g>
       <use xlink:href="#macb361fb61" x="427.120654" y="384.1975" style="stroke: #000000; stroke-width: 0.8"/>
      </g>
     </g>
     <g id="text_8">
      <!-- Aug -->
      <g transform="translate(417.357373 398.795937) scale(0.1 -0.1)">
       <defs>
        <path id="DejaVuSans-67" d="M 2906 1791 
Q 2906 2416 2648 2759 
Q 2391 3103 1925 3103 
Q 1463 3103 1205 2759 
Q 947 2416 947 1791 
Q 947 1169 1205 825 
Q 1463 481 1925 481 
Q 2391 481 2648 825 
Q 2906 1169 2906 1791 
z
M 3481 434 
Q 3481 -459 3084 -895 
Q 2688 -1331 1869 -1331 
Q 1566 -1331 1297 -1286 
Q 1028 -1241 775 -1147 
L 775 -588 
Q 1028 -725 1275 -790 
Q 1522 -856 1778 -856 
Q 2344 -856 2625 -561 
Q 2906 -266 2906 331 
L 2906 616 
Q 2728 306 2450 153 
Q 2172 0 1784 0 
Q 1141 0 747 490 
Q 353 981 353 1791 
Q 353 2603 747 3093 
Q 1141 3584 1784 3584 
Q 2172 3584 2450 3431 
Q 2728 3278 2906 2969 
L 2906 3500 
L 3481 3500 
L 3481 434 
z
" transform="scale(0.015625)"/>
       </defs>
       <use xlink:href="#DejaVuSans-41"/>
       <use xlink:href="#DejaVuSans-75" transform="translate(68.408203 0)"/>
       <use xlink:href="#DejaVuSans-67" transform="translate(131.787109 0)"/>
      </g>
     </g>
    </g>
    <g id="xtick_9">
     <g id="line2d_17">
      <path d="M 481.495956 384.1975 
L 481.495956 39.3575 
" clip-path="url(#pa754c3ca0b)" style="fill: none; stroke-dasharray: 2.96,1.28; stroke-dashoffset: 0; stroke: #b0b0b0; stroke-opacity: 0.3; stroke-width: 0.8"/>
     </g>
     <g id="line2d_18">
      <g>
       <use xlink:href="#macb361fb61" x="481.495956" y="384.1975" style="stroke: #000000; stroke-width: 0.8"/>
      </g>
     </g>
     <g id="text_9">
      <!-- Sep -->
      <g transform="translate(472.070956 398.795937) scale(0.1 -0.1)">
       <defs>
        <path id="DejaVuSans-53" d="M 3425 4513 
L 3425 3897 
Q 3066 4069 2747 4153 
Q 2428 4238 2131 4238 
Q 1616 4238 1336 4038 
Q 1056 3838 1056 3469 
Q 1056 3159 1242 3001 
Q 1428 2844 1947 2747 
L 2328 2669 
Q 3034 2534 3370 2195 
Q 3706 1856 3706 1288 
Q 3706 609 3251 259 
Q 2797 -91 1919 -91 
Q 1588 -91 1214 -16 
Q 841 59 441 206 
L 441 856 
Q 825 641 1194 531 
Q 1563 422 1919 422 
Q 2459 422 2753 634 
Q 3047 847 3047 1241 
Q 3047 1584 2836 1778 
Q 2625 1972 2144 2069 
L 1759 2144 
Q 1053 2284 737 2584 
Q 422 2884 422 3419 
Q 422 4038 858 4394 
Q 1294 4750 2059 4750 
Q 2388 4750 2728 4690 
Q 3069 4631 3425 4513 
z
" transform="scale(0.015625)"/>
       </defs>
       <use xlink:href="#DejaVuSans-53"/>
       <use xlink:href="#DejaVuSans-65" transform="translate(63.476562 0)"/>
       <use xlink:href="#DejaVuSans-70" transform="translate(125 0)"/>
      </g>
     </g>
    </g>
    <g id="xtick_10">
     <g id="line2d_19">
      <path d="M 534.117216 384.1975 
L 534.117216 39.3575 
" clip-path="url(#pa754c3ca0b)" style="fill: none; stroke-dasharray: 2.96,1.28; stroke-dashoffset: 0; stroke: #b0b0b0; stroke-opacity: 0.3; stroke-width: 0.8"/>
     </g>
     <g id="line2d_20">
      <g>
       <use xlink:href="#macb361fb61" x="534.117216" y="384.1975" style="stroke: #000000; stroke-width: 0.8"/>
      </g>
     </g>
     <g id="text_10">
      <!-- Oct -->
      <g transform="translate(525.471904 398.795937) scale(0.1 -0.1)">
       <defs>
        <path id="DejaVuSans-4f" d="M 2522 4238 
Q 1834 4238 1429 3725 
Q 1025 3213 1025 2328 
Q 1025 1447 1429 934 
Q 1834 422 2522 422 
Q 3209 422 3611 934 
Q 4013 1447 4013 2328 
Q 4013 3213 3611 3725 
Q 3209 4238 2522 4238 
z
M 2522 4750 
Q 3503 4750 4090 4092 
Q 4678 3434 4678 2328 
Q 4678 1225 4090 567 
Q 3503 -91 2522 -91 
Q 1538 -91 948 565 
Q 359 1222 359 2328 
Q 359 3434 948 4092 
Q 1538 4750 2522 4750 
z
" transform="scale(0.015625)"/>
        <path id="DejaVuSans-63" d="M 3122 3366 
L 3122 2828 
Q 2878 2963 2633 3030 
Q 2388 3097 2138 3097 
Q 1578 3097 1268 2742 
Q 959 2388 959 1747 
Q 959 1106 1268 751 
Q 1578 397 2138 397 
Q 2388 397 2633 464 
Q 2878 531 3122 666 
L 3122 134 
Q 2881 22 2623 -34 
Q 2366 -91 2075 -91 
Q 1284 -91 818 406 
Q 353 903 353 1747 
Q 353 2603 823 3093 
Q 1294 3584 2113 3584 
Q 2378 3584 2631 3529 
Q 2884 3475 3122 3366 
z
" transform="scale(0.015625)"/>
        <path id="DejaVuSans-74" d="M 1172 4494 
L 1172 3500 
L 2356 3500 
L 2356 3053 
L 1172 3053 
L 1172 1153 
Q 1172 725 1289 603 
Q 1406 481 1766 481 
L 2356 481 
L 2356 0 
L 1766 0 
Q 1100 0 847 248 
Q 594 497 594 1153 
L 594 3053 
L 172 3053 
L 172 3500 
L 594 3500 
L 594 4494 
L 1172 4494 
z
" transform="scale(0.015625)"/>
       </defs>
       <use xlink:href="#DejaVuSans-4f"/>
       <use xlink:href="#DejaVuSans-63" transform="translate(78.710938 0)"/>
       <use xlink:href="#DejaVuSans-74" transform="translate(133.691406 0)"/>
      </g>
     </g>
    </g>
    <g id="xtick_11">
     <g id="line2d_21">
      <path d="M 588.492518 384.1975 
L 588.492518 39.3575 
" clip-path="url(#pa754c3ca0b)" style="fill: none; stroke-dasharray: 2.96,1.28; stroke-dashoffset: 0; stroke: #b0b0b0; stroke-opacity: 0.3; stroke-width: 0.8"/>
     </g>
     <g id="line2d_22">
      <g>
       <use xlink:href="#macb361fb61" x="588.492518" y="384.1975" style="stroke: #000000; stroke-width: 0.8"/>
      </g>
     </g>
     <g id="text_11">
      <!-- Nov -->
      <g transform="translate(578.733143 398.795937) scale(0.1 -0.1)">
       <defs>
        <path id="DejaVuSans-4e" d="M 628 4666 
L 1478 4666 
L 3547 763 
L 3547 4666 
L 4159 4666 
L 4159 0 
L 3309 0 
L 1241 3903 
L 1241 0 
L 628 0 
L 628 4666 
z
" transform="scale(0.015625)"/>
        <path id="DejaVuSans-6f" d="M 1959 3097 
Q 1497 3097 1228 2736 
Q 959 2375 959 1747 
Q 959 1119 1226 758 
Q 1494 397 1959 397 
Q 2419 397 2687 759 
Q 2956 1122 2956 1747 
Q 2956 2369 2687 2733 
Q 2419 3097 1959 3097 
z
M 1959 3584 
Q 2709 3584 3137 3096 
Q 3566 2609 3566 1747 
Q 3566 888 3137 398 
Q 2709 -91 1959 -91 
Q 1206 -91 779 398 
Q 353 888 353 1747 
Q 353 2609 779 3096 
Q 1206 3584 1959 3584 
z
" transform="scale(0.015625)"/>
        <path id="DejaVuSans-76" d="M 191 3500 
L 800 3500 
L 1894 563 
L 2988 3500 
L 3597 3500 
L 2284 0 
L 1503 0 
L 191 3500 
z
" transform="scale(0.015625)"/>
       </defs>
       <use xlink:href="#DejaVuSans-4e"/>
       <use xlink:href="#DejaVuSans-6f" transform="translate(74.804688 0)"/>
       <use xlink:href="#DejaVuSans-76" transform="translate(135.986328 0)"/>
      </g>
     </g>
    </g>
    <g id="xtick_12">
     <g id="line2d_23">
      <path d="M 641.113778 384.1975 
L 641.113778 39.3575 
" clip-path="url(#pa754c3ca0b)" style="fill: none; stroke-dasharray: 2.96,1.28; stroke-dashoffset: 0; stroke: #b0b0b0; stroke-opacity: 0.3; stroke-width: 0.8"/>
     </g>
     <g id="line2d_24">
      <g>
       <use xlink:href="#macb361fb61" x="641.113778" y="384.1975" style="stroke: #000000; stroke-width: 0.8"/>
      </g>
     </g>
     <g id="text_12">
      <!-- Dec -->
      <g transform="translate(631.437997 398.795937) scale(0.1 -0.1)">
       <defs>
        <path id="DejaVuSans-44" d="M 1259 4147 
L 1259 519 
L 2022 519 
Q 2988 519 3436 956 
Q 3884 1394 3884 2338 
Q 3884 3275 3436 3711 
Q 2988 4147 2022 4147 
L 1259 4147 
z
M 628 4666 
L 1925 4666 
Q 3281 4666 3915 4102 
Q 4550 3538 4550 2338 
Q 4550 1131 3912 565 
Q 3275 0 1925 0 
L 628 0 
L 628 4666 
z
" transform="scale(0.015625)"/>
       </defs>
       <use xlink:href="#DejaVuSans-44"/>
       <use xlink:href="#DejaVuSans-65" transform="translate(77.001953 0)"/>
       <use xlink:href="#DejaVuSans-63" transform="translate(138.525391 0)"/>
      </g>
     </g>
    </g>
    <g id="xtick_13">
     <g id="line2d_25">
      <path d="M 695.489081 384.1975 
L 695.489081 39.3575 
" clip-path="url(#pa754c3ca0b)" style="fill: none; stroke-dasharray: 2.96,1.28; stroke-dashoffset: 0; stroke: #b0b0b0; stroke-opacity: 0.3; stroke-width: 0.8"/>
     </g>
     <g id="line2d_26">
      <g>
       <use xlink:href="#macb361fb61" x="695.489081" y="384.1975" style="stroke: #000000; stroke-width: 0.8"/>
      </g>
     </g>
     <g id="text_13">
      <!-- Jan -->
      <g transform="translate(687.781268 398.795937) scale(0.1 -0.1)">
       <use xlink:href="#DejaVuSans-4a"/>
       <use xlink:href="#DejaVuSans-61" transform="translate(29.492188 0)"/>
       <use xlink:href="#DejaVuSans-6e" transform="translate(90.771484 0)"/>
      </g>
     </g>
    </g>
    <g id="text_14">
     <!-- Day of the year -->
     <g transform="translate(333.176208 413.99375) scale(0.12 -0.12)">
      <defs>
       <path id="DejaVuSans-20" transform="scale(0.015625)"/>
       <path id="DejaVuSans-66" d="M 2375 4863 
L 2375 4384 
L 1825 4384 
Q 1516 4384 1395 4259 
Q 1275 4134 1275 3809 
L 1275 3500 
L 2222 3500 
L 2222 3053 
L 1275 3053 
L 1275 0 
L 697 0 
L 697 3053 
L 147 3053 
L 147 3500 
L 697 3500 
L 697 3744 
Q 697 4328 969 4595 
Q 1241 4863 1831 4863 
L 2375 4863 
z
" transform="scale(0.015625)"/>
       <path id="DejaVuSans-68" d="M 3513 2113 
L 3513 0 
L 2938 0 
L 2938 2094 
Q 2938 2591 2744 2837 
Q 2550 3084 2163 3084 
Q 1697 3084 1428 2787 
Q 1159 2491 1159 1978 
L 1159 0 
L 581 0 
L 581 4863 
L 1159 4863 
L 1159 2956 
Q 1366 3272 1645 3428 
Q 1925 3584 2291 3584 
Q 2894 3584 3203 3211 
Q 3513 2838 3513 2113 
z
" transform="scale(0.015625)"/>
      </defs>
      <use xlink:href="#DejaVuSans-44"/>
      <use xlink:href="#DejaVuSans-61" transform="translate(77.001953 0)"/>
      <use xlink:href="#DejaVuSans-79" transform="translate(138.28125 0)"/>
      <use xlink:href="#DejaVuSans-20" transform="translate(197.460938 0)"/>
      <use xlink:href="#DejaVuSans-6f" transform="translate(229.248047 0)"/>
      <use xlink:href="#DejaVuSans-66" transform="translate(290.429688 0)"/>
      <use xlink:href="#DejaVuSans-20" transform="translate(325.634766 0)"/>
      <use xlink:href="#DejaVuSans-74" transform="translate(357.421875 0)"/>
      <use xlink:href="#DejaVuSans-68" transform="translate(396.630859 0)"/>
      <use xlink:href="#DejaVuSans-65" transform="translate(460.009766 0)"/>
      <use xlink:href="#DejaVuSans-20" transform="translate(521.533203 0)"/>
      <use xlink:href="#DejaVuSans-79" transform="translate(553.320312 0)"/>
      <use xlink:href="#DejaVuSans-65" transform="translate(612.5 0)"/>
      <use xlink:href="#DejaVuSans-61" transform="translate(674.023438 0)"/>
      <use xlink:href="#DejaVuSans-72" transform="translate(735.302734 0)"/>
     </g>
    </g>
   </g>
   <g id="matplotlib.axis_2">
    <g id="ytick_1">
     <g id="line2d_27">
      <path d="M 55.26375 371.795931 
L 704.259291 371.795931 
" clip-path="url(#pa754c3ca0b)" style="fill: none; stroke-dasharray: 2.96,1.28; stroke-dashoffset: 0; stroke: #b0b0b0; stroke-opacity: 0.3; stroke-width: 0.8"/>
     </g>
     <g id="line2d_28">
      <defs>
       <path id="m480490565d" d="M 0 0 
L -3.5 0 
" style="stroke: #000000; stroke-width: 0.8"/>
      </defs>
      <g>
       <use xlink:href="#m480490565d" x="55.26375" y="371.795931" style="stroke: #000000; stroke-width: 0.8"/>
      </g>
     </g>
     <g id="text_15">
      <!-- 0 -->
      <g transform="translate(41.90125 375.595149) scale(0.1 -0.1)">
       <defs>
        <path id="DejaVuSans-30" d="M 2034 4250 
Q 1547 4250 1301 3770 
Q 1056 3291 1056 2328 
Q 1056 1369 1301 889 
Q 1547 409 2034 409 
Q 2525 409 2770 889 
Q 3016 1369 3016 2328 
Q 3016 3291 2770 3770 
Q 2525 4250 2034 4250 
z
M 2034 4750 
Q 2819 4750 3233 4129 
Q 3647 3509 3647 2328 
Q 3647 1150 3233 529 
Q 2819 -91 2034 -91 
Q 1250 -91 836 529 
Q 422 1150 422 2328 
Q 422 3509 836 4129 
Q 1250 4750 2034 4750 
z
" transform="scale(0.015625)"/>
       </defs>
       <use xlink:href="#DejaVuSans-30"/>
      </g>
     </g>
    </g>
    <g id="ytick_2">
     <g id="line2d_29">
      <path d="M 55.26375 296.555103 
L 704.259291 296.555103 
" clip-path="url(#pa754c3ca0b)" style="fill: none; stroke-dasharray: 2.96,1.28; stroke-dashoffset: 0; stroke: #b0b0b0; stroke-opacity: 0.3; stroke-width: 0.8"/>
     </g>
     <g id="line2d_30">
      <g>
       <use xlink:href="#m480490565d" x="55.26375" y="296.555103" style="stroke: #000000; stroke-width: 0.8"/>
      </g>
     </g>
     <g id="text_16">
      <!-- 2000 -->
      <g transform="translate(22.81375 300.354321) scale(0.1 -0.1)">
       <defs>
        <path id="DejaVuSans-32" d="M 1228 531 
L 3431 531 
L 3431 0 
L 469 0 
L 469 531 
Q 828 903 1448 1529 
Q 2069 2156 2228 2338 
Q 2531 2678 2651 2914 
Q 2772 3150 2772 3378 
Q 2772 3750 2511 3984 
Q 2250 4219 1831 4219 
Q 1534 4219 1204 4116 
Q 875 4013 500 3803 
L 500 4441 
Q 881 4594 1212 4672 
Q 1544 4750 1819 4750 
Q 2544 4750 2975 4387 
Q 3406 4025 3406 3419 
Q 3406 3131 3298 2873 
Q 3191 2616 2906 2266 
Q 2828 2175 2409 1742 
Q 1991 1309 1228 531 
z
" transform="scale(0.015625)"/>
       </defs>
       <use xlink:href="#DejaVuSans-32"/>
       <use xlink:href="#DejaVuSans-30" transform="translate(63.623047 0)"/>
       <use xlink:href="#DejaVuSans-30" transform="translate(127.246094 0)"/>
       <use xlink:href="#DejaVuSans-30" transform="translate(190.869141 0)"/>
      </g>
     </g>
    </g>
    <g id="ytick_3">
     <g id="line2d_31">
      <path d="M 55.26375 221.314275 
L 704.259291 221.314275 
" clip-path="url(#pa754c3ca0b)" style="fill: none; stroke-dasharray: 2.96,1.28; stroke-dashoffset: 0; stroke: #b0b0b0; stroke-opacity: 0.3; stroke-width: 0.8"/>
     </g>
     <g id="line2d_32">
      <g>
       <use xlink:href="#m480490565d" x="55.26375" y="221.314275" style="stroke: #000000; stroke-width: 0.8"/>
      </g>
     </g>
     <g id="text_17">
      <!-- 4000 -->
      <g transform="translate(22.81375 225.113494) scale(0.1 -0.1)">
       <defs>
        <path id="DejaVuSans-34" d="M 2419 4116 
L 825 1625 
L 2419 1625 
L 2419 4116 
z
M 2253 4666 
L 3047 4666 
L 3047 1625 
L 3713 1625 
L 3713 1100 
L 3047 1100 
L 3047 0 
L 2419 0 
L 2419 1100 
L 313 1100 
L 313 1709 
L 2253 4666 
z
" transform="scale(0.015625)"/>
       </defs>
       <use xlink:href="#DejaVuSans-34"/>
       <use xlink:href="#DejaVuSans-30" transform="translate(63.623047 0)"/>
       <use xlink:href="#DejaVuSans-30" transform="translate(127.246094 0)"/>
       <use xlink:href="#DejaVuSans-30" transform="translate(190.869141 0)"/>
      </g>
     </g>
    </g>
    <g id="ytick_4">
     <g id="line2d_33">
      <path d="M 55.26375 146.073447 
L 704.259291 146.073447 
" clip-path="url(#pa754c3ca0b)" style="fill: none; stroke-dasharray: 2.96,1.28; stroke-dashoffset: 0; stroke: #b0b0b0; stroke-opacity: 0.3; stroke-width: 0.8"/>
     </g>
     <g id="line2d_34">
      <g>
       <use xlink:href="#m480490565d" x="55.26375" y="146.073447" style="stroke: #000000; stroke-width: 0.8"/>
      </g>
     </g>
     <g id="text_18">
      <!-- 6000 -->
      <g transform="translate(22.81375 149.872666) scale(0.1 -0.1)">
       <defs>
        <path id="DejaVuSans-36" d="M 2113 2584 
Q 1688 2584 1439 2293 
Q 1191 2003 1191 1497 
Q 1191 994 1439 701 
Q 1688 409 2113 409 
Q 2538 409 2786 701 
Q 3034 994 3034 1497 
Q 3034 2003 2786 2293 
Q 2538 2584 2113 2584 
z
M 3366 4563 
L 3366 3988 
Q 3128 4100 2886 4159 
Q 2644 4219 2406 4219 
Q 1781 4219 1451 3797 
Q 1122 3375 1075 2522 
Q 1259 2794 1537 2939 
Q 1816 3084 2150 3084 
Q 2853 3084 3261 2657 
Q 3669 2231 3669 1497 
Q 3669 778 3244 343 
Q 2819 -91 2113 -91 
Q 1303 -91 875 529 
Q 447 1150 447 2328 
Q 447 3434 972 4092 
Q 1497 4750 2381 4750 
Q 2619 4750 2861 4703 
Q 3103 4656 3366 4563 
z
" transform="scale(0.015625)"/>
       </defs>
       <use xlink:href="#DejaVuSans-36"/>
       <use xlink:href="#DejaVuSans-30" transform="translate(63.623047 0)"/>
       <use xlink:href="#DejaVuSans-30" transform="translate(127.246094 0)"/>
       <use xlink:href="#DejaVuSans-30" transform="translate(190.869141 0)"/>
      </g>
     </g>
    </g>
    <g id="ytick_5">
     <g id="line2d_35">
      <path d="M 55.26375 70.832619 
L 704.259291 70.832619 
" clip-path="url(#pa754c3ca0b)" style="fill: none; stroke-dasharray: 2.96,1.28; stroke-dashoffset: 0; stroke: #b0b0b0; stroke-opacity: 0.3; stroke-width: 0.8"/>
     </g>
     <g id="line2d_36">
      <g>
       <use xlink:href="#m480490565d" x="55.26375" y="70.832619" style="stroke: #000000; stroke-width: 0.8"/>
      </g>
     </g>
     <g id="text_19">
      <!-- 8000 -->
      <g transform="translate(22.81375 74.631838) scale(0.1 -0.1)">
       <defs>
        <path id="DejaVuSans-38" d="M 2034 2216 
Q 1584 2216 1326 1975 
Q 1069 1734 1069 1313 
Q 1069 891 1326 650 
Q 1584 409 2034 409 
Q 2484 409 2743 651 
Q 3003 894 3003 1313 
Q 3003 1734 2745 1975 
Q 2488 2216 2034 2216 
z
M 1403 2484 
Q 997 2584 770 2862 
Q 544 3141 544 3541 
Q 544 4100 942 4425 
Q 1341 4750 2034 4750 
Q 2731 4750 3128 4425 
Q 3525 4100 3525 3541 
Q 3525 3141 3298 2862 
Q 3072 2584 2669 2484 
Q 3125 2378 3379 2068 
Q 3634 1759 3634 1313 
Q 3634 634 3220 271 
Q 2806 -91 2034 -91 
Q 1263 -91 848 271 
Q 434 634 434 1313 
Q 434 1759 690 2068 
Q 947 2378 1403 2484 
z
M 1172 3481 
Q 1172 3119 1398 2916 
Q 1625 2713 2034 2713 
Q 2441 2713 2670 2916 
Q 2900 3119 2900 3481 
Q 2900 3844 2670 4047 
Q 2441 4250 2034 4250 
Q 1625 4250 1398 4047 
Q 1172 3844 1172 3481 
z
" transform="scale(0.015625)"/>
       </defs>
       <use xlink:href="#DejaVuSans-38"/>
       <use xlink:href="#DejaVuSans-30" transform="translate(63.623047 0)"/>
       <use xlink:href="#DejaVuSans-30" transform="translate(127.246094 0)"/>
       <use xlink:href="#DejaVuSans-30" transform="translate(190.869141 0)"/>
      </g>
     </g>
    </g>
    <g id="text_20">
     <!-- Daily pedestrian count -->
     <g transform="translate(16.318125 279.793125) rotate(-90) scale(0.12 -0.12)">
      <defs>
       <path id="DejaVuSans-69" d="M 603 3500 
L 1178 3500 
L 1178 0 
L 603 0 
L 603 3500 
z
M 603 4863 
L 1178 4863 
L 1178 4134 
L 603 4134 
L 603 4863 
z
" transform="scale(0.015625)"/>
       <path id="DejaVuSans-64" d="M 2906 2969 
L 2906 4863 
L 3481 4863 
L 3481 0 
L 2906 0 
L 2906 525 
Q 2725 213 2448 61 
Q 2172 -91 1784 -91 
Q 1150 -91 751 415 
Q 353 922 353 1747 
Q 353 2572 751 3078 
Q 1150 3584 1784 3584 
Q 2172 3584 2448 3432 
Q 2725 3281 2906 2969 
z
M 947 1747 
Q 947 1113 1208 752 
Q 1469 391 1925 391 
Q 2381 391 2643 752 
Q 2906 1113 2906 1747 
Q 2906 2381 2643 2742 
Q 2381 3103 1925 3103 
Q 1469 3103 1208 2742 
Q 947 2381 947 1747 
z
" transform="scale(0.015625)"/>
       <path id="DejaVuSans-73" d="M 2834 3397 
L 2834 2853 
Q 2591 2978 2328 3040 
Q 2066 3103 1784 3103 
Q 1356 3103 1142 2972 
Q 928 2841 928 2578 
Q 928 2378 1081 2264 
Q 1234 2150 1697 2047 
L 1894 2003 
Q 2506 1872 2764 1633 
Q 3022 1394 3022 966 
Q 3022 478 2636 193 
Q 2250 -91 1575 -91 
Q 1294 -91 989 -36 
Q 684 19 347 128 
L 347 722 
Q 666 556 975 473 
Q 1284 391 1588 391 
Q 1994 391 2212 530 
Q 2431 669 2431 922 
Q 2431 1156 2273 1281 
Q 2116 1406 1581 1522 
L 1381 1569 
Q 847 1681 609 1914 
Q 372 2147 372 2553 
Q 372 3047 722 3315 
Q 1072 3584 1716 3584 
Q 2034 3584 2315 3537 
Q 2597 3491 2834 3397 
z
" transform="scale(0.015625)"/>
      </defs>
      <use xlink:href="#DejaVuSans-44"/>
      <use xlink:href="#DejaVuSans-61" transform="translate(77.001953 0)"/>
      <use xlink:href="#DejaVuSans-69" transform="translate(138.28125 0)"/>
      <use xlink:href="#DejaVuSans-6c" transform="translate(166.064453 0)"/>
      <use xlink:href="#DejaVuSans-79" transform="translate(193.847656 0)"/>
      <use xlink:href="#DejaVuSans-20" transform="translate(253.027344 0)"/>
      <use xlink:href="#DejaVuSans-70" transform="translate(284.814453 0)"/>
      <use xlink:href="#DejaVuSans-65" transform="translate(348.291016 0)"/>
      <use xlink:href="#DejaVuSans-64" transform="translate(409.814453 0)"/>
      <use xlink:href="#DejaVuSans-65" transform="translate(473.291016 0)"/>
      <use xlink:href="#DejaVuSans-73" transform="translate(534.814453 0)"/>
      <use xlink:href="#DejaVuSans-74" transform="translate(586.914062 0)"/>
      <use xlink:href="#DejaVuSans-72" transform="translate(626.123047 0)"/>
      <use xlink:href="#DejaVuSans-69" transform="translate(667.236328 0)"/>
      <use xlink:href="#DejaVuSans-61" transform="translate(695.019531 0)"/>
      <use xlink:href="#DejaVuSans-6e" transform="translate(756.298828 0)"/>
      <use xlink:href="#DejaVuSans-20" transform="translate(819.677734 0)"/>
      <use xlink:href="#DejaVuSans-63" transform="translate(851.464844 0)"/>
      <use xlink:href="#DejaVuSans-6f" transform="translate(906.445312 0)"/>
      <use xlink:href="#DejaVuSans-75" transform="translate(967.626953 0)"/>
      <use xlink:href="#DejaVuSans-6e" transform="translate(1031.005859 0)"/>
      <use xlink:href="#DejaVuSans-74" transform="translate(1094.384766 0)"/>
     </g>
    </g>
   </g>
   <g id="line2d_37">
    <path d="M 57.017792 230.230313 
L 58.771834 235.685273 
L 60.525876 223.496259 
L 62.279918 260.477126 
L 64.03396 199.456814 
L 65.788002 249.529585 
L 67.542044 225.339659 
L 69.296086 251.74919 
L 71.050128 249.416724 
L 72.80417 243.848903 
L 74.558212 218.191781 
L 76.312254 221.502377 
L 78.066296 241.441196 
L 79.820338 258.182281 
L 81.57438 254.871684 
L 83.328422 235.346689 
L 85.082464 226.844476 
L 86.836506 206.002766 
L 88.590548 191.368425 
L 90.34459 236.889126 
L 92.098632 243.058874 
L 93.852674 246.557573 
L 95.606716 245.541821 
L 97.360758 265.593502 
L 99.1148 250.808679 
L 100.868842 219.470875 
L 102.622884 239.597796 
L 104.376926 265.330159 
L 106.130968 272.289936 
L 107.88501 271.575148 
L 109.639052 251.485847 
L 111.393094 232.67564 
L 113.147136 188.960719 
L 114.901178 276.35294 
L 116.65522 259.498995 
L 118.409262 255.774574 
L 120.163304 262.282906 
L 121.917346 245.504201 
L 125.42543 205.513701 
L 127.179472 235.798134 
L 128.933514 241.554058 
L 130.687556 276.2777 
L 132.441598 259.122791 
L 134.19564 224.248667 
L 135.949682 224.436769 
L 137.703724 192.72276 
L 139.457766 237.19009 
L 141.211808 254.45786 
L 142.96585 262.809591 
L 144.719892 255.247888 
L 146.473934 254.608341 
L 148.227976 213.263506 
L 149.982018 190.87936 
L 151.73606 250.507716 
L 153.490102 249.115761 
L 155.244144 250.959161 
L 156.998186 253.366868 
L 158.752228 251.74919 
L 160.50627 249.491965 
L 162.260312 238.318702 
L 164.014354 248.814797 
L 165.768396 252.802561 
L 167.522438 252.238255 
L 169.27648 254.946925 
L 171.030522 249.94341 
L 172.784564 226.054447 
L 174.538606 214.730702 
L 176.292648 226.618753 
L 178.04669 253.893553 
L 179.800732 261.079052 
L 183.308816 242.231225 
L 185.062858 210.028151 
L 186.8169 152.393677 
L 188.570942 193.550409 
L 190.324984 243.359837 
L 193.833068 252.953043 
L 195.58711 243.811282 
L 197.341152 212.66158 
L 199.095194 195.356189 
L 200.849236 244.187487 
L 202.603278 256.827946 
L 204.35732 244.827034 
L 206.111362 234.067595 
L 207.865404 237.491053 
L 209.619446 208.335232 
L 211.373488 203.406958 
L 213.12753 216.160278 
L 214.881572 250.507716 
L 216.635614 257.279391 
L 218.389656 261.944322 
L 220.143698 254.946925 
L 221.89774 219.508495 
L 223.651782 194.603781 
L 225.405824 236.550543 
L 227.159866 251.598708 
L 228.913908 245.918026 
L 230.66795 241.177853 
L 232.421992 243.924144 
L 234.176034 204.686052 
L 235.930076 195.017606 
L 237.684118 230.719378 
L 239.43816 242.193605 
L 241.192202 239.710657 
L 242.946244 250.093892 
L 244.700286 234.330938 
L 246.454328 235.835755 
L 248.20837 203.858403 
L 249.962412 208.485714 
L 251.716454 254.721202 
L 253.470496 249.905789 
L 255.224538 240.086861 
L 256.97858 235.271448 
L 258.732622 252.727321 
L 260.486664 226.35541 
L 262.240706 263.562 
L 263.994748 266.534012 
L 265.74879 261.492877 
L 267.502832 268.038829 
L 269.256874 257.166529 
L 271.010916 231.697509 
L 272.764958 197.726275 
L 274.519 234.594281 
L 276.273042 263.072934 
L 278.027084 266.383531 
L 279.781126 270.82274 
L 283.28921 257.693215 
L 285.043252 217.552234 
L 286.797294 203.971264 
L 288.551336 272.252315 
L 290.305378 256.564603 
L 292.05942 266.157808 
L 293.813462 259.160411 
L 295.567504 228.838358 
L 297.321546 205.476081 
L 299.075588 248.852418 
L 300.82963 266.797355 
L 302.583672 261.906702 
L 304.337714 263.449139 
L 306.091756 257.392252 
L 307.845798 227.784986 
L 309.59984 233.879493 
L 311.353882 278.610165 
L 313.107924 280.114982 
L 314.861966 268.527894 
L 316.616008 277.895377 
L 318.37005 275.675773 
L 320.124092 251.372986 
L 321.878134 213.263506 
L 323.632176 275.186708 
L 325.386218 284.177987 
L 327.14026 267.888347 
L 328.894302 270.935601 
L 330.648344 270.559397 
L 332.402386 236.701024 
L 334.156428 223.5715 
L 335.91047 238.958249 
L 337.664512 266.34591 
L 339.418554 266.233049 
L 341.172596 273.869993 
L 342.926638 269.01696 
L 344.68068 240.613547 
L 346.434722 209.99053 
L 348.188764 268.941719 
L 349.942806 256.000297 
L 351.696848 269.656507 
L 353.45089 257.655595 
L 355.204932 267.286421 
L 356.958974 222.969573 
L 358.713016 232.224195 
L 360.467058 273.117585 
L 362.2211 257.354631 
L 363.975142 257.317011 
L 365.729184 254.683582 
L 367.483226 247.498083 
L 369.237268 232.412297 
L 370.99131 268.603135 
L 372.745352 258.14466 
L 374.499394 262.358146 
L 376.253436 267.098319 
L 378.007478 268.302172 
L 379.76152 254.834064 
L 381.515562 226.31779 
L 383.269604 201.676419 
L 385.023646 266.082567 
L 386.777688 247.121879 
L 388.53173 253.667831 
L 390.285772 266.872596 
L 392.039814 260.176162 
L 393.793856 231.020342 
L 395.547898 220.712348 
L 397.30194 273.945234 
L 399.055982 262.546249 
L 400.810024 259.875199 
L 402.564066 248.13763 
L 404.318108 249.04052 
L 406.07215 213.301127 
L 407.826192 198.252961 
L 409.580234 255.511231 
L 411.334276 263.712481 
L 413.088318 276.240079 
L 414.84236 262.170044 
L 416.596402 250.921541 
L 418.350444 241.177853 
L 420.104486 180.420885 
L 421.858528 234.443799 
L 423.61257 263.072934 
L 425.366612 256.602223 
L 427.120654 259.04755 
L 428.874696 259.837579 
L 430.628738 232.525158 
L 432.38278 209.426224 
L 434.136822 251.561088 
L 435.890864 265.142057 
L 437.644906 265.593502 
L 439.398948 258.069419 
L 441.15299 253.517349 
L 442.907032 245.842785 
L 444.661074 232.562779 
L 446.415116 267.436902 
L 448.169158 268.264551 
L 449.9232 264.314408 
L 451.677242 261.154293 
L 453.431284 262.433387 
L 455.185326 235.045726 
L 456.939368 181.963322 
L 458.69341 262.734351 
L 460.447452 268.076449 
L 462.201494 260.627607 
L 463.955536 252.388737 
L 465.709578 252.501598 
L 467.46362 208.448093 
L 469.217662 193.287067 
L 470.971704 259.423754 
L 472.725746 262.583869 
L 474.479788 260.778089 
L 476.23383 280.039741 
L 477.987872 264.276788 
L 481.495956 201.112113 
L 483.249998 246.820916 
L 485.00404 266.157808 
L 486.758082 259.574236 
L 488.512124 261.981942 
L 490.266166 255.247888 
L 492.020208 244.413209 
L 493.77425 242.569809 
L 495.528292 271.123703 
L 497.282334 286.886656 
L 499.036376 275.901496 
L 500.790418 289.256742 
L 502.54446 262.170044 
L 504.298502 219.847079 
L 506.052544 196.898626 
L 507.806586 268.038829 
L 509.560628 264.916335 
L 511.31467 260.025681 
L 513.068712 249.454345 
L 514.822754 230.493656 
L 516.576796 208.937159 
L 518.330838 228.838358 
L 520.08488 252.388737 
L 521.838922 254.570721 
L 523.592964 244.638932 
L 525.347006 242.757911 
L 527.101048 210.065771 
L 528.85509 248.250491 
L 530.609132 235.835755 
L 532.363174 234.932865 
L 534.117216 248.024769 
L 535.871258 246.557573 
L 537.6253 233.879493 
L 539.379342 233.239946 
L 541.133384 220.260903 
L 542.887426 176.433121 
L 544.641468 247.648565 
L 546.39551 231.885611 
L 548.149552 264.051065 
L 549.903594 251.335365 
L 551.657636 242.193605 
L 553.411678 196.371941 
L 555.16572 180.87233 
L 556.919762 234.255697 
L 558.673804 247.084258 
L 560.427846 259.08517 
L 562.181888 259.611856 
L 563.93593 259.799958 
L 565.689972 219.734218 
L 567.444014 219.696597 
L 569.198056 241.930262 
L 570.952098 245.729924 
L 572.70614 254.232137 
L 574.460182 234.218077 
L 576.214224 243.359837 
L 577.968266 218.756087 
L 579.722308 237.22771 
L 581.47635 248.400973 
L 583.230392 246.143748 
L 584.984434 254.834064 
L 586.738476 239.861139 
L 588.492518 257.994178 
L 590.24656 232.186575 
L 592.000602 243.058874 
L 593.754644 242.757911 
L 595.508686 267.023078 
L 597.262728 246.820916 
L 599.01677 233.390428 
L 600.770812 251.974912 
L 602.524854 237.19009 
L 604.278896 242.870772 
L 606.032938 239.522555 
L 607.78698 236.738645 
L 609.541022 253.254006 
L 611.295064 234.744763 
L 613.049106 233.390428 
L 614.803148 213.150645 
L 616.55719 196.635283 
L 618.311232 55.032045 
L 620.065274 235.534791 
L 621.819316 233.653771 
L 623.573358 232.337056 
L 625.3274 230.531276 
L 627.081442 206.378971 
L 628.835484 205.43846 
L 630.589526 197.651035 
L 632.343568 237.415812 
L 634.09761 252.050153 
L 635.851652 244.337968 
L 637.605694 232.67564 
L 639.359736 230.456036 
L 641.113778 203.896023 
L 642.86782 250.921541 
L 644.621862 251.448226 
L 646.375904 250.620577 
L 648.129946 243.54794 
L 649.883988 241.704539 
L 651.63803 211.532967 
L 653.392072 203.858403 
L 655.146114 235.008106 
L 656.900157 254.834064 
L 658.654199 240.350204 
L 660.408241 234.48142 
L 662.162283 225.715863 
L 663.916325 198.10248 
L 665.670367 195.657153 
L 667.424409 246.256609 
L 669.178451 228.274051 
L 670.932493 234.067595 
L 672.686535 243.284597 
L 674.440577 227.295921 
L 676.194619 266.27067 
L 677.948661 240.575927 
L 679.702703 258.445623 
L 681.456745 233.239946 
L 683.210787 255.812194 
L 684.964829 300.84383 
L 686.718871 246.181369 
L 688.472913 212.736821 
L 690.226955 190.014091 
L 691.980997 235.42193 
L 693.735039 251.673949 
L 695.489081 178.765587 
L 695.489081 178.765587 
" clip-path="url(#pa754c3ca0b)" style="fill: none; stroke: #0d6efc; stroke-opacity: 0.8; stroke-width: 2.5; stroke-linecap: square"/>
   </g>
   <g id="line2d_38">
    <path d="M 57.017792 333.159765 
L 58.771834 275.41243 
L 60.525876 293.394988 
L 62.279918 304.643492 
L 64.03396 339.668097 
L 65.788002 325.786164 
L 67.542044 272.854242 
L 69.296086 294.072155 
L 71.050128 295.802694 
L 72.80417 284.779913 
L 74.558212 291.024902 
L 76.312254 340.947191 
L 78.066296 264.841094 
L 79.820338 273.832373 
L 81.57438 299.97856 
L 83.328422 286.021387 
L 85.082464 286.736175 
L 86.836506 155.516171 
L 88.590548 329.096761 
L 90.34459 294.824564 
L 92.098632 289.369604 
L 93.852674 310.700378 
L 95.606716 294.373119 
L 97.360758 289.97153 
L 99.1148 255.172647 
L 100.868842 330.375855 
L 102.622884 338.652346 
L 104.376926 295.163147 
L 106.130968 296.667964 
L 107.88501 297.081789 
L 109.639052 307.314541 
L 111.393094 289.106261 
L 113.147136 334.739823 
L 114.901178 312.844742 
L 116.65522 297.044168 
L 118.409262 303.439638 
L 120.163304 317.020608 
L 121.917346 310.662758 
L 123.671388 285.41946 
L 125.42543 326.726675 
L 127.179472 287.827167 
L 128.933514 310.060831 
L 130.687556 320.218343 
L 132.441598 309.797488 
L 134.19564 313.898114 
L 135.949682 280.190223 
L 137.703724 338.389003 
L 139.457766 295.276009 
L 141.211808 292.793061 
L 142.96585 291.250624 
L 144.719892 284.102746 
L 146.473934 289.670567 
L 148.227976 301.069552 
L 149.982018 335.492231 
L 151.73606 289.444845 
L 153.490102 285.682803 
L 155.244144 292.115894 
L 156.998186 278.723027 
L 158.752228 282.409827 
L 160.50627 271.838491 
L 162.260312 329.849169 
L 164.014354 294.109776 
L 165.768396 279.738778 
L 167.522438 300.467626 
L 169.27648 293.056404 
L 171.030522 302.800091 
L 172.784564 295.276009 
L 174.538606 327.667185 
L 176.292648 301.74672 
L 178.04669 298.248021 
L 179.800732 301.671479 
L 181.554774 285.682803 
L 183.308816 330.187753 
L 185.062858 293.056404 
L 186.8169 338.08804 
L 188.570942 275.863875 
L 190.324984 295.163147 
L 192.079026 302.724851 
L 193.833068 293.094025 
L 195.58711 276.202459 
L 197.341152 270.371295 
L 199.095194 329.397724 
L 200.849236 291.702069 
L 202.603278 279.212092 
L 204.35732 284.968015 
L 206.111362 269.618886 
L 207.865404 326.990018 
L 209.619446 243.736042 
L 211.373488 328.005769 
L 213.12753 292.981163 
L 214.881572 283.049374 
L 216.635614 302.536749 
L 218.389656 291.626829 
L 220.143698 311.640889 
L 221.89774 263.825343 
L 223.651782 334.175517 
L 225.405824 343.731102 
L 227.159866 282.823652 
L 228.913908 281.017872 
L 230.66795 267.700245 
L 232.421992 284.892774 
L 234.176034 289.106261 
L 235.930076 335.793194 
L 237.684118 284.177987 
L 239.43816 269.581266 
L 241.192202 339.06617 
L 242.946244 269.618886 
L 244.700286 305.809725 
L 246.454328 274.321438 
L 248.20837 332.181635 
L 249.962412 283.53844 
L 251.716454 280.528806 
L 253.470496 286.623313 
L 255.224538 280.453566 
L 256.97858 331.504467 
L 258.732622 257.429872 
L 260.486664 342.64011 
L 262.240706 299.188532 
L 263.994748 311.264685 
L 265.74879 300.091422 
L 267.502832 298.285642 
L 269.256874 285.946146 
L 271.010916 249.905789 
L 272.764958 331.391606 
L 274.519 289.03102 
L 276.273042 304.718733 
L 278.027084 346.25167 
L 279.781126 295.576972 
L 281.535168 258.596105 
L 283.28921 240.688788 
L 285.043252 333.836933 
L 286.797294 301.897202 
L 288.551336 296.893686 
L 290.305378 316.794885 
L 292.05942 303.627741 
L 293.813462 281.958382 
L 295.567504 249.07814 
L 297.321546 338.276142 
L 299.075588 307.765986 
L 300.82963 303.326777 
L 302.583672 342.414387 
L 304.337714 284.591811 
L 306.091756 276.089598 
L 307.845798 235.572412 
L 309.59984 337.636595 
L 311.353882 296.254139 
L 313.107924 330.488716 
L 314.861966 311.038962 
L 316.616008 305.283039 
L 318.37005 279.06161 
L 320.124092 256.113158 
L 321.878134 342.752971 
L 323.632176 326.651434 
L 325.386218 313.710011 
L 327.14026 294.937425 
L 328.894302 300.392385 
L 330.648344 307.653125 
L 332.402386 356.33394 
L 334.156428 337.749456 
L 335.91047 348.734617 
L 337.664512 287.450963 
L 339.418554 284.441329 
L 341.172596 272.854242 
L 342.926638 280.679288 
L 344.68068 277.030108 
L 346.434722 366.717175 
L 348.188764 279.889259 
L 349.942806 293.58309 
L 351.696848 300.693348 
L 353.45089 280.378325 
L 355.204932 354.528161 
L 356.958974 266.797355 
L 358.713016 345.574502 
L 360.467058 281.469317 
L 362.2211 290.912041 
L 363.975142 315.440551 
L 365.729184 292.6802 
L 367.483226 279.663537 
L 369.237268 245.278479 
L 370.99131 349.186062 
L 372.745352 367.130999 
L 374.499394 348.960339 
L 376.253436 355.167708 
L 378.007478 365.927146 
L 379.76152 331.993533 
L 381.515562 323.152735 
L 383.269604 330.037271 
L 385.023646 343.317277 
L 386.777688 336.696084 
L 388.53173 342.000563 
L 390.285772 280.566427 
L 392.039814 246.369471 
L 393.793856 224.098186 
L 395.547898 333.310247 
L 397.30194 272.779001 
L 399.055982 272.365177 
L 400.810024 262.997694 
L 402.564066 279.400194 
L 404.318108 264.051065 
L 406.07215 252.012533 
L 407.826192 340.83433 
L 409.580234 293.244506 
L 411.334276 308.217431 
L 413.088318 291.100143 
L 414.84236 292.6802 
L 416.596402 295.313629 
L 418.350444 258.784207 
L 420.104486 337.787076 
L 421.858528 307.013578 
L 423.61257 300.467626 
L 425.366612 297.947058 
L 427.120654 287.488583 
L 428.874696 262.884832 
L 430.628738 263.298657 
L 432.38278 338.765207 
L 434.136822 300.354765 
L 435.890864 368.522955 
L 437.644906 290.159632 
L 439.398948 342.226285 
L 441.15299 329.886789 
L 442.907032 231.81037 
L 444.661074 338.840448 
L 446.415116 287.18762 
L 448.169158 298.323262 
L 449.9232 344.897335 
L 451.677242 284.290848 
L 453.431284 299.451875 
L 455.185326 247.422842 
L 456.939368 336.658464 
L 458.69341 336.169399 
L 460.447452 297.382752 
L 462.201494 309.722248 
L 463.955536 288.316232 
L 465.709578 246.858536 
L 467.46362 240.086861 
L 469.217662 339.743338 
L 470.971704 298.548985 
L 472.725746 314.725763 
L 474.479788 343.129175 
L 476.23383 346.552633 
L 477.987872 330.300614 
L 479.741914 327.667185 
L 481.495956 342.414387 
L 483.249998 348.170311 
L 485.00404 346.853596 
L 486.758082 347.116939 
L 488.512124 291.100143 
L 490.266166 275.562912 
L 492.020208 320.556927 
L 493.77425 341.361016 
L 495.528292 346.25167 
L 497.282334 346.966457 
L 499.036376 343.731102 
L 500.790418 344.859714 
L 504.298502 321.083613 
L 506.052544 335.717954 
L 507.806586 345.42402 
L 509.560628 346.138808 
L 511.31467 342.301526 
L 513.068712 342.752971 
L 514.822754 335.41699 
L 516.576796 319.955 
L 518.330838 340.909571 
L 520.08488 347.079319 
L 521.838922 345.875465 
L 523.592964 344.220167 
L 525.347006 338.08804 
L 527.101048 328.758177 
L 528.85509 326.990018 
L 530.609132 342.301526 
L 532.363174 276.202459 
L 534.117216 343.693481 
L 535.871258 340.608607 
L 537.6253 340.307644 
L 539.379342 326.087128 
L 541.133384 310.324174 
L 542.887426 333.53597 
L 544.641468 336.658464 
L 546.39551 342.038183 
L 548.149552 336.169399 
L 549.903594 340.006681 
L 551.657636 334.777443 
L 553.411678 323.56656 
L 555.16572 334.325998 
L 556.919762 336.056537 
L 558.673804 340.006681 
L 560.427846 332.896423 
L 562.181888 338.689966 
L 563.93593 336.545603 
L 565.689972 325.673303 
L 567.444014 327.629565 
L 569.198056 339.02855 
L 570.952098 341.77484 
L 572.70614 343.317277 
L 574.460182 338.200901 
L 576.214224 337.147529 
L 577.968266 329.96203 
L 579.722308 342.602489 
L 581.47635 342.752971 
L 583.230392 341.060052 
L 584.984434 338.953309 
L 586.738476 340.081922 
L 588.492518 334.325998 
L 590.24656 319.879759 
L 592.000602 328.570075 
L 593.754644 350.916601 
L 595.508686 336.018917 
L 597.262728 331.579708 
L 599.01677 333.235006 
L 600.770812 335.454611 
L 602.524854 346.364531 
L 604.278896 336.395121 
L 606.032938 333.423108 
L 607.78698 338.840448 
L 609.541022 330.639198 
L 611.295064 331.203504 
L 613.049106 333.949794 
L 614.803148 327.930528 
L 616.55719 338.689966 
L 618.311232 338.276142 
L 620.065274 339.141411 
L 621.819316 337.749456 
L 623.573358 335.717954 
L 625.3274 342.527249 
L 627.081442 333.724072 
L 628.835484 338.12566 
L 630.589526 335.642713 
L 632.343568 335.868435 
L 634.09761 347.305041 
L 635.851652 340.420505 
L 637.605694 337.899938 
L 639.359736 337.072289 
L 641.113778 332.407357 
L 642.86782 342.790591 
L 644.621862 336.28226 
L 646.375904 340.382885 
L 648.129946 342.263906 
L 649.883988 332.595459 
L 651.63803 336.696084 
L 653.392072 339.141411 
L 655.146114 336.169399 
L 656.900157 338.802828 
L 658.654199 339.705717 
L 660.408241 336.696084 
L 662.162283 327.855287 
L 663.916325 332.934043 
L 665.670367 337.598974 
L 667.424409 339.367134 
L 669.178451 337.072289 
L 670.932493 335.868435 
L 672.686535 335.868435 
L 674.440577 333.57359 
L 676.194619 330.977781 
L 677.948661 336.884186 
L 679.702703 335.153647 
L 681.456745 339.630477 
L 683.210787 335.943676 
L 684.964829 348.471274 
L 686.718871 341.135293 
L 688.472913 331.165884 
L 690.226955 324.920895 
L 691.980997 326.764295 
L 693.735039 333.57359 
L 695.489081 336.808946 
L 695.489081 336.808946 
" clip-path="url(#pa754c3ca0b)" style="fill: none; stroke: #83c966; stroke-opacity: 0.8; stroke-width: 2.5; stroke-linecap: square"/>
   </g>
   <g id="patch_3">
    <path d="M 55.26375 384.1975 
L 55.26375 39.3575 
" style="fill: none; stroke: #000000; stroke-width: 0.8; stroke-linejoin: miter; stroke-linecap: square"/>
   </g>
   <g id="patch_4">
    <path d="M 55.26375 384.1975 
L 704.259291 384.1975 
" style="fill: none; stroke: #000000; stroke-width: 0.8; stroke-linejoin: miter; stroke-linecap: square"/>
   </g>
   <g id="text_21">
    <!-- Pedestrian Traffic at Lygon St (East) -->
    <g transform="translate(237.38902 19.3575) scale(0.16 -0.16)">
     <defs>
      <path id="DejaVuSans-50" d="M 1259 4147 
L 1259 2394 
L 2053 2394 
Q 2494 2394 2734 2622 
Q 2975 2850 2975 3272 
Q 2975 3691 2734 3919 
Q 2494 4147 2053 4147 
L 1259 4147 
z
M 628 4666 
L 2053 4666 
Q 2838 4666 3239 4311 
Q 3641 3956 3641 3272 
Q 3641 2581 3239 2228 
Q 2838 1875 2053 1875 
L 1259 1875 
L 1259 0 
L 628 0 
L 628 4666 
z
" transform="scale(0.015625)"/>
      <path id="DejaVuSans-54" d="M -19 4666 
L 3928 4666 
L 3928 4134 
L 2272 4134 
L 2272 0 
L 1638 0 
L 1638 4134 
L -19 4134 
L -19 4666 
z
" transform="scale(0.015625)"/>
      <path id="DejaVuSans-4c" d="M 628 4666 
L 1259 4666 
L 1259 531 
L 3531 531 
L 3531 0 
L 628 0 
L 628 4666 
z
" transform="scale(0.015625)"/>
      <path id="DejaVuSans-28" d="M 1984 4856 
Q 1566 4138 1362 3434 
Q 1159 2731 1159 2009 
Q 1159 1288 1364 580 
Q 1569 -128 1984 -844 
L 1484 -844 
Q 1016 -109 783 600 
Q 550 1309 550 2009 
Q 550 2706 781 3412 
Q 1013 4119 1484 4856 
L 1984 4856 
z
" transform="scale(0.015625)"/>
      <path id="DejaVuSans-45" d="M 628 4666 
L 3578 4666 
L 3578 4134 
L 1259 4134 
L 1259 2753 
L 3481 2753 
L 3481 2222 
L 1259 2222 
L 1259 531 
L 3634 531 
L 3634 0 
L 628 0 
L 628 4666 
z
" transform="scale(0.015625)"/>
      <path id="DejaVuSans-29" d="M 513 4856 
L 1013 4856 
Q 1481 4119 1714 3412 
Q 1947 2706 1947 2009 
Q 1947 1309 1714 600 
Q 1481 -109 1013 -844 
L 513 -844 
Q 928 -128 1133 580 
Q 1338 1288 1338 2009 
Q 1338 2731 1133 3434 
Q 928 4138 513 4856 
z
" transform="scale(0.015625)"/>
     </defs>
     <use xlink:href="#DejaVuSans-50"/>
     <use xlink:href="#DejaVuSans-65" transform="translate(56.677734 0)"/>
     <use xlink:href="#DejaVuSans-64" transform="translate(118.201172 0)"/>
     <use xlink:href="#DejaVuSans-65" transform="translate(181.677734 0)"/>
     <use xlink:href="#DejaVuSans-73" transform="translate(243.201172 0)"/>
     <use xlink:href="#DejaVuSans-74" transform="translate(295.300781 0)"/>
     <use xlink:href="#DejaVuSans-72" transform="translate(334.509766 0)"/>
     <use xlink:href="#DejaVuSans-69" transform="translate(375.623047 0)"/>
     <use xlink:href="#DejaVuSans-61" transform="translate(403.40625 0)"/>
     <use xlink:href="#DejaVuSans-6e" transform="translate(464.685547 0)"/>
     <use xlink:href="#DejaVuSans-20" transform="translate(528.064453 0)"/>
     <use xlink:href="#DejaVuSans-54" transform="translate(559.851562 0)"/>
     <use xlink:href="#DejaVuSans-72" transform="translate(606.185547 0)"/>
     <use xlink:href="#DejaVuSans-61" transform="translate(647.298828 0)"/>
     <use xlink:href="#DejaVuSans-66" transform="translate(708.578125 0)"/>
     <use xlink:href="#DejaVuSans-66" transform="translate(743.783203 0)"/>
     <use xlink:href="#DejaVuSans-69" transform="translate(778.988281 0)"/>
     <use xlink:href="#DejaVuSans-63" transform="translate(806.771484 0)"/>
     <use xlink:href="#DejaVuSans-20" transform="translate(861.751953 0)"/>
     <use xlink:href="#DejaVuSans-61" transform="translate(893.539062 0)"/>
     <use xlink:href="#DejaVuSans-74" transform="translate(954.818359 0)"/>
     <use xlink:href="#DejaVuSans-20" transform="translate(994.027344 0)"/>
     <use xlink:href="#DejaVuSans-4c" transform="translate(1025.814453 0)"/>
     <use xlink:href="#DejaVuSans-79" transform="translate(1072.402344 0)"/>
     <use xlink:href="#DejaVuSans-67" transform="translate(1131.582031 0)"/>
     <use xlink:href="#DejaVuSans-6f" transform="translate(1195.058594 0)"/>
     <use xlink:href="#DejaVuSans-6e" transform="translate(1256.240234 0)"/>
     <use xlink:href="#DejaVuSans-20" transform="translate(1319.619141 0)"/>
     <use xlink:href="#DejaVuSans-53" transform="translate(1351.40625 0)"/>
     <use xlink:href="#DejaVuSans-74" transform="translate(1414.882812 0)"/>
     <use xlink:href="#DejaVuSans-20" transform="translate(1454.091797 0)"/>
     <use xlink:href="#DejaVuSans-28" transform="translate(1485.878906 0)"/>
     <use xlink:href="#DejaVuSans-45" transform="translate(1524.892578 0)"/>
     <use xlink:href="#DejaVuSans-61" transform="translate(1588.076172 0)"/>
     <use xlink:href="#DejaVuSans-73" transform="translate(1649.355469 0)"/>
     <use xlink:href="#DejaVuSans-74" transform="translate(1701.455078 0)"/>
     <use xlink:href="#DejaVuSans-29" transform="translate(1740.664062 0)"/>
    </g>
   </g>
   <g id="legend_1">
    <g id="patch_5">
     <path d="M 62.96375 80.449375 
L 126.15875 80.449375 
Q 128.35875 80.449375 128.35875 78.249375 
L 128.35875 47.0575 
Q 128.35875 44.8575 126.15875 44.8575 
L 62.96375 44.8575 
Q 60.76375 44.8575 60.76375 47.0575 
L 60.76375 78.249375 
Q 60.76375 80.449375 62.96375 80.449375 
z
" style="fill: #ffffff; opacity: 0.95; stroke: #cccccc; stroke-linejoin: miter"/>
    </g>
    <g id="line2d_39">
     <path d="M 65.16375 53.765781 
L 76.16375 53.765781 
L 87.16375 53.765781 
" style="fill: none; stroke: #0d6efc; stroke-opacity: 0.8; stroke-width: 2.5; stroke-linecap: square"/>
    </g>
    <g id="text_22">
     <!-- 2019 -->
     <g transform="translate(95.96375 57.615781) scale(0.11 -0.11)">
      <defs>
       <path id="DejaVuSans-31" d="M 794 531 
L 1825 531 
L 1825 4091 
L 703 3866 
L 703 4441 
L 1819 4666 
L 2450 4666 
L 2450 531 
L 3481 531 
L 3481 0 
L 794 0 
L 794 531 
z
" transform="scale(0.015625)"/>
       <path id="DejaVuSans-39" d="M 703 97 
L 703 672 
Q 941 559 1184 500 
Q 1428 441 1663 441 
Q 2288 441 2617 861 
Q 2947 1281 2994 2138 
Q 2813 1869 2534 1725 
Q 2256 1581 1919 1581 
Q 1219 1581 811 2004 
Q 403 2428 403 3163 
Q 403 3881 828 4315 
Q 1253 4750 1959 4750 
Q 2769 4750 3195 4129 
Q 3622 3509 3622 2328 
Q 3622 1225 3098 567 
Q 2575 -91 1691 -91 
Q 1453 -91 1209 -44 
Q 966 3 703 97 
z
M 1959 2075 
Q 2384 2075 2632 2365 
Q 2881 2656 2881 3163 
Q 2881 3666 2632 3958 
Q 2384 4250 1959 4250 
Q 1534 4250 1286 3958 
Q 1038 3666 1038 3163 
Q 1038 2656 1286 2365 
Q 1534 2075 1959 2075 
z
" transform="scale(0.015625)"/>
      </defs>
      <use xlink:href="#DejaVuSans-32"/>
      <use xlink:href="#DejaVuSans-30" transform="translate(63.623047 0)"/>
      <use xlink:href="#DejaVuSans-31" transform="translate(127.246094 0)"/>
      <use xlink:href="#DejaVuSans-39" transform="translate(190.869141 0)"/>
     </g>
    </g>
    <g id="line2d_40">
     <path d="M 65.16375 69.911719 
L 76.16375 69.911719 
L 87.16375 69.911719 
" style="fill: none; stroke: #83c966; stroke-opacity: 0.8; stroke-width: 2.5; stroke-linecap: square"/>
    </g>
    <g id="text_23">
     <!-- 2025 -->
     <g transform="translate(95.96375 73.761719) scale(0.11 -0.11)">
      <defs>
       <path id="DejaVuSans-35" d="M 691 4666 
L 3169 4666 
L 3169 4134 
L 1269 4134 
L 1269 2991 
Q 1406 3038 1543 3061 
Q 1681 3084 1819 3084 
Q 2600 3084 3056 2656 
Q 3513 2228 3513 1497 
Q 3513 744 3044 326 
Q 2575 -91 1722 -91 
Q 1428 -91 1123 -41 
Q 819 9 494 109 
L 494 744 
Q 775 591 1075 516 
Q 1375 441 1709 441 
Q 2250 441 2565 725 
Q 2881 1009 2881 1497 
Q 2881 1984 2565 2268 
Q 2250 2553 1709 2553 
Q 1456 2553 1204 2497 
Q 953 2441 691 2322 
L 691 4666 
z
" transform="scale(0.015625)"/>
      </defs>
      <use xlink:href="#DejaVuSans-32"/>
      <use xlink:href="#DejaVuSans-30" transform="translate(63.623047 0)"/>
      <use xlink:href="#DejaVuSans-32" transform="translate(127.246094 0)"/>
      <use xlink:href="#DejaVuSans-35" transform="translate(190.869141 0)"/>
     </g>
    </g>
   </g>
  </g>
 </g>
 <defs>
  <clipPath id="pa754c3ca0b">
   <rect x="55.26375" y="39.3575" width="648.995541" height="344.84"/>
  </clipPath>
 </defs>
</svg>
