<?xml version="1.0" encoding="utf-8" standalone="no"?>
<!DOCTYPE svg PUBLIC "-//W3C//DTD SVG 1.1//EN"
  "http://www.w3.org/Graphics/SVG/1.1/DTD/svg11.dtd">
<svg xmlns:xlink="http://www.w3.org/1999/xlink" width="855.67625pt" height="423.689375pt" viewBox="0 0 855.67625 423.689375" xmlns="http://www.w3.org/2000/svg" version="1.1">
 <metadata>
  <rdf:RDF xmlns:dc="http://purl.org/dc/elements/1.1/" xmlns:cc="http://creativecommons.org/ns#" xmlns:rdf="http://www.w3.org/1999/02/22-rdf-syntax-ns#">
   <cc:Work>
    <dc:type rdf:resource="http://purl.org/dc/dcmitype/StillImage"/>
    <dc:date>2026-01-27T16:22:01.103312</dc:date>
    <dc:format>image/svg+xml</dc:format>
    <dc:creator>
     <cc:Agent>
      <dc:title>Matplotlib v3.10.8, https://matplotlib.org/</dc:title>
     </cc:Agent>
    </dc:creator>
   </cc:Work>
  </rdf:RDF>
 </metadata>
 <defs>
  <style type="text/css">*{stroke-linejoin: round; stroke-linecap: butt}</style>
 </defs>
 <g id="figure_1">
  <g id="patch_1">
   <path d="M 0 423.689375 
L 855.67625 423.689375 
L 855.67625 0 
L 0 0 
L 0 423.689375 
z
" style="fill: none"/>
  </g>
  <g id="axes_1">
   <g id="patch_2">
    <path d="M 61.62625 384.1975 
L 848.47625 384.1975 
L 848.47625 39.3575 
L 61.62625 39.3575 
L 61.62625 384.1975 
z
" style="fill: none"/>
   </g>
   <g id="matplotlib.axis_1">
    <g id="xtick_1">
     <g id="line2d_1">
      <path d="M 61.62625 384.1975 
L 61.62625 39.3575 
" clip-path="url(#pb0fdf55e96)" style="fill: none; stroke-dasharray: 2.96,1.28; stroke-dashoffset: 0; stroke: #b0b0b0; stroke-opacity: 0.3; stroke-width: 0.8"/>
     </g>
     <g id="line2d_2">
      <defs>
       <path id="m81f4d3407d" d="M 0 0 
L 0 3.5 
" style="stroke: #000000; stroke-width: 0.8"/>
      </defs>
      <g>
       <use xlink:href="#m81f4d3407d" x="61.62625" y="384.1975" style="stroke: #000000; stroke-width: 0.8"/>
      </g>
     </g>
     <g id="text_1">
      <!-- Jan -->
      <g transform="translate(53.918438 398.795937) scale(0.1 -0.1)">
       <defs>
        <path id="DejaVuSans-4a" d="M 628 4666 
L 1259 4666 
L 1259 325 
Q 1259 -519 939 -900 
Q 619 -1281 -91 -1281 
L -331 -1281 
L -331 -750 
L -134 -750 
Q 284 -750 456 -515 
Q 628 -281 628 325 
L 628 4666 
z
" transform="scale(0.015625)"/>
        <path id="DejaVuSans-61" d="M 2194 1759 
Q 1497 1759 1228 1600 
Q 959 1441 959 1056 
Q 959 750 1161 570 
Q 1363 391 1709 391 
Q 2188 391 2477 730 
Q 2766 1069 2766 1631 
L 2766 1759 
L 2194 1759 
z
M 3341 1997 
L 3341 0 
L 2766 0 
L 2766 531 
Q 2569 213 2275 61 
Q 1981 -91 1556 -91 
Q 1019 -91 701 211 
Q 384 513 384 1019 
Q 384 1609 779 1909 
Q 1175 2209 1959 2209 
L 2766 2209 
L 2766 2266 
Q 2766 2663 2505 2880 
Q 2244 3097 1772 3097 
Q 1472 3097 1187 3025 
Q 903 2953 641 2809 
L 641 3341 
Q 956 3463 1253 3523 
Q 1550 3584 1831 3584 
Q 2591 3584 2966 3190 
Q 3341 2797 3341 1997 
z
" transform="scale(0.015625)"/>
        <path id="DejaVuSans-6e" d="M 3513 2113 
L 3513 0 
L 2938 0 
L 2938 2094 
Q 2938 2591 2744 2837 
Q 2550 3084 2163 3084 
Q 1697 3084 1428 2787 
Q 1159 2491 1159 1978 
L 1159 0 
L 581 0 
L 581 3500 
L 1159 3500 
L 1159 2956 
Q 1366 3272 1645 3428 
Q 1925 3584 2291 3584 
Q 2894 3584 3203 3211 
Q 3513 2838 3513 2113 
z
" transform="scale(0.015625)"/>
       </defs>
       <use xlink:href="#DejaVuSans-4a"/>
       <use xlink:href="#DejaVuSans-61" transform="translate(29.492188 0)"/>
       <use xlink:href="#DejaVuSans-6e" transform="translate(90.771484 0)"/>
      </g>
     </g>
    </g>
    <g id="xtick_2">
     <g id="line2d_3">
      <path d="M 127.55152 384.1975 
L 127.55152 39.3575 
" clip-path="url(#pb0fdf55e96)" style="fill: none; stroke-dasharray: 2.96,1.28; stroke-dashoffset: 0; stroke: #b0b0b0; stroke-opacity: 0.3; stroke-width: 0.8"/>
     </g>
     <g id="line2d_4">
      <g>
       <use xlink:href="#m81f4d3407d" x="127.55152" y="384.1975" style="stroke: #000000; stroke-width: 0.8"/>
      </g>
     </g>
     <g id="text_2">
      <!-- Feb -->
      <g transform="translate(118.699958 398.795937) scale(0.1 -0.1)">
       <defs>
        <path id="DejaVuSans-46" d="M 628 4666 
L 3309 4666 
L 3309 4134 
L 1259 4134 
L 1259 2759 
L 3109 2759 
L 3109 2228 
L 1259 2228 
L 1259 0 
L 628 0 
L 628 4666 
z
" transform="scale(0.015625)"/>
        <path id="DejaVuSans-65" d="M 3597 1894 
L 3597 1613 
L 953 1613 
Q 991 1019 1311 708 
Q 1631 397 2203 397 
Q 2534 397 2845 478 
Q 3156 559 3463 722 
L 3463 178 
Q 3153 47 2828 -22 
Q 2503 -91 2169 -91 
Q 1331 -91 842 396 
Q 353 884 353 1716 
Q 353 2575 817 3079 
Q 1281 3584 2069 3584 
Q 2775 3584 3186 3129 
Q 3597 2675 3597 1894 
z
M 3022 2063 
Q 3016 2534 2758 2815 
Q 2500 3097 2075 3097 
Q 1594 3097 1305 2825 
Q 1016 2553 972 2059 
L 3022 2063 
z
" transform="scale(0.015625)"/>
        <path id="DejaVuSans-62" d="M 3116 1747 
Q 3116 2381 2855 2742 
Q 2594 3103 2138 3103 
Q 1681 3103 1420 2742 
Q 1159 2381 1159 1747 
Q 1159 1113 1420 752 
Q 1681 391 2138 391 
Q 2594 391 2855 752 
Q 3116 1113 3116 1747 
z
M 1159 2969 
Q 1341 3281 1617 3432 
Q 1894 3584 2278 3584 
Q 2916 3584 3314 3078 
Q 3713 2572 3713 1747 
Q 3713 922 3314 415 
Q 2916 -91 2278 -91 
Q 1894 -91 1617 61 
Q 1341 213 1159 525 
L 1159 0 
L 581 0 
L 581 4863 
L 1159 4863 
L 1159 2969 
z
" transform="scale(0.015625)"/>
       </defs>
       <use xlink:href="#DejaVuSans-46"/>
       <use xlink:href="#DejaVuSans-65" transform="translate(52.019531 0)"/>
       <use xlink:href="#DejaVuSans-62" transform="translate(113.542969 0)"/>
      </g>
     </g>
    </g>
    <g id="xtick_3">
     <g id="line2d_5">
      <path d="M 187.096926 384.1975 
L 187.096926 39.3575 
" clip-path="url(#pb0fdf55e96)" style="fill: none; stroke-dasharray: 2.96,1.28; stroke-dashoffset: 0; stroke: #b0b0b0; stroke-opacity: 0.3; stroke-width: 0.8"/>
     </g>
     <g id="line2d_6">
      <g>
       <use xlink:href="#m81f4d3407d" x="187.096926" y="384.1975" style="stroke: #000000; stroke-width: 0.8"/>
      </g>
     </g>
     <g id="text_3">
      <!-- Mar -->
      <g transform="translate(177.663332 398.795937) scale(0.1 -0.1)">
       <defs>
        <path id="DejaVuSans-4d" d="M 628 4666 
L 1569 4666 
L 2759 1491 
L 3956 4666 
L 4897 4666 
L 4897 0 
L 4281 0 
L 4281 4097 
L 3078 897 
L 2444 897 
L 1241 4097 
L 1241 0 
L 628 0 
L 628 4666 
z
" transform="scale(0.015625)"/>
        <path id="DejaVuSans-72" d="M 2631 2963 
Q 2534 3019 2420 3045 
Q 2306 3072 2169 3072 
Q 1681 3072 1420 2755 
Q 1159 2438 1159 1844 
L 1159 0 
L 581 0 
L 581 3500 
L 1159 3500 
L 1159 2956 
Q 1341 3275 1631 3429 
Q 1922 3584 2338 3584 
Q 2397 3584 2469 3576 
Q 2541 3569 2628 3553 
L 2631 2963 
z
" transform="scale(0.015625)"/>
       </defs>
       <use xlink:href="#DejaVuSans-4d"/>
       <use xlink:href="#DejaVuSans-61" transform="translate(86.279297 0)"/>
       <use xlink:href="#DejaVuSans-72" transform="translate(147.558594 0)"/>
      </g>
     </g>
    </g>
    <g id="xtick_4">
     <g id="line2d_7">
      <path d="M 253.022196 384.1975 
L 253.022196 39.3575 
" clip-path="url(#pb0fdf55e96)" style="fill: none; stroke-dasharray: 2.96,1.28; stroke-dashoffset: 0; stroke: #b0b0b0; stroke-opacity: 0.3; stroke-width: 0.8"/>
     </g>
     <g id="line2d_8">
      <g>
       <use xlink:href="#m81f4d3407d" x="253.022196" y="384.1975" style="stroke: #000000; stroke-width: 0.8"/>
      </g>
     </g>
     <g id="text_4">
      <!-- Apr -->
      <g transform="translate(244.372196 398.795937) scale(0.1 -0.1)">
       <defs>
        <path id="DejaVuSans-41" d="M 2188 4044 
L 1331 1722 
L 3047 1722 
L 2188 4044 
z
M 1831 4666 
L 2547 4666 
L 4325 0 
L 3669 0 
L 3244 1197 
L 1141 1197 
L 716 0 
L 50 0 
L 1831 4666 
z
" transform="scale(0.015625)"/>
        <path id="DejaVuSans-70" d="M 1159 525 
L 1159 -1331 
L 581 -1331 
L 581 3500 
L 1159 3500 
L 1159 2969 
Q 1341 3281 1617 3432 
Q 1894 3584 2278 3584 
Q 2916 3584 3314 3078 
Q 3713 2572 3713 1747 
Q 3713 922 3314 415 
Q 2916 -91 2278 -91 
Q 1894 -91 1617 61 
Q 1341 213 1159 525 
z
M 3116 1747 
Q 3116 2381 2855 2742 
Q 2594 3103 2138 3103 
Q 1681 3103 1420 2742 
Q 1159 2381 1159 1747 
Q 1159 1113 1420 752 
Q 1681 391 2138 391 
Q 2594 391 2855 752 
Q 3116 1113 3116 1747 
z
" transform="scale(0.015625)"/>
       </defs>
       <use xlink:href="#DejaVuSans-41"/>
       <use xlink:href="#DejaVuSans-70" transform="translate(68.408203 0)"/>
       <use xlink:href="#DejaVuSans-72" transform="translate(131.884766 0)"/>
      </g>
     </g>
    </g>
    <g id="xtick_5">
     <g id="line2d_9">
      <path d="M 316.820845 384.1975 
L 316.820845 39.3575 
" clip-path="url(#pb0fdf55e96)" style="fill: none; stroke-dasharray: 2.96,1.28; stroke-dashoffset: 0; stroke: #b0b0b0; stroke-opacity: 0.3; stroke-width: 0.8"/>
     </g>
     <g id="line2d_10">
      <g>
       <use xlink:href="#m81f4d3407d" x="316.820845" y="384.1975" style="stroke: #000000; stroke-width: 0.8"/>
      </g>
     </g>
     <g id="text_5">
      <!-- May -->
      <g transform="translate(306.483345 398.795937) scale(0.1 -0.1)">
       <defs>
        <path id="DejaVuSans-79" d="M 2059 -325 
Q 1816 -950 1584 -1140 
Q 1353 -1331 966 -1331 
L 506 -1331 
L 506 -850 
L 844 -850 
Q 1081 -850 1212 -737 
Q 1344 -625 1503 -206 
L 1606 56 
L 191 3500 
L 800 3500 
L 1894 763 
L 2988 3500 
L 3597 3500 
L 2059 -325 
z
" transform="scale(0.015625)"/>
       </defs>
       <use xlink:href="#DejaVuSans-4d"/>
       <use xlink:href="#DejaVuSans-61" transform="translate(86.279297 0)"/>
       <use xlink:href="#DejaVuSans-79" transform="translate(147.558594 0)"/>
      </g>
     </g>
    </g>
    <g id="xtick_6">
     <g id="line2d_11">
      <path d="M 382.746115 384.1975 
L 382.746115 39.3575 
" clip-path="url(#pb0fdf55e96)" style="fill: none; stroke-dasharray: 2.96,1.28; stroke-dashoffset: 0; stroke: #b0b0b0; stroke-opacity: 0.3; stroke-width: 0.8"/>
     </g>
     <g id="line2d_12">
      <g>
       <use xlink:href="#m81f4d3407d" x="382.746115" y="384.1975" style="stroke: #000000; stroke-width: 0.8"/>
      </g>
     </g>
     <g id="text_6">
      <!-- Jun -->
      <g transform="translate(374.933615 398.795937) scale(0.1 -0.1)">
       <defs>
        <path id="DejaVuSans-75" d="M 544 1381 
L 544 3500 
L 1119 3500 
L 1119 1403 
Q 1119 906 1312 657 
Q 1506 409 1894 409 
Q 2359 409 2629 706 
Q 2900 1003 2900 1516 
L 2900 3500 
L 3475 3500 
L 3475 0 
L 2900 0 
L 2900 538 
Q 2691 219 2414 64 
Q 2138 -91 1772 -91 
Q 1169 -91 856 284 
Q 544 659 544 1381 
z
M 1991 3584 
L 1991 3584 
z
" transform="scale(0.015625)"/>
       </defs>
       <use xlink:href="#DejaVuSans-4a"/>
       <use xlink:href="#DejaVuSans-75" transform="translate(29.492188 0)"/>
       <use xlink:href="#DejaVuSans-6e" transform="translate(92.871094 0)"/>
      </g>
     </g>
    </g>
    <g id="xtick_7">
     <g id="line2d_13">
      <path d="M 446.544764 384.1975 
L 446.544764 39.3575 
" clip-path="url(#pb0fdf55e96)" style="fill: none; stroke-dasharray: 2.96,1.28; stroke-dashoffset: 0; stroke: #b0b0b0; stroke-opacity: 0.3; stroke-width: 0.8"/>
     </g>
     <g id="line2d_14">
      <g>
       <use xlink:href="#m81f4d3407d" x="446.544764" y="384.1975" style="stroke: #000000; stroke-width: 0.8"/>
      </g>
     </g>
     <g id="text_7">
      <!-- Jul -->
      <g transform="translate(440.511951 398.795937) scale(0.1 -0.1)">
       <defs>
        <path id="DejaVuSans-6c" d="M 603 4863 
L 1178 4863 
L 1178 0 
L 603 0 
L 603 4863 
z
" transform="scale(0.015625)"/>
       </defs>
       <use xlink:href="#DejaVuSans-4a"/>
       <use xlink:href="#DejaVuSans-75" transform="translate(29.492188 0)"/>
       <use xlink:href="#DejaVuSans-6c" transform="translate(92.871094 0)"/>
      </g>
     </g>
    </g>
    <g id="xtick_8">
     <g id="line2d_15">
      <path d="M 512.470034 384.1975 
L 512.470034 39.3575 
" clip-path="url(#pb0fdf55e96)" style="fill: none; stroke-dasharray: 2.96,1.28; stroke-dashoffset: 0; stroke: #b0b0b0; stroke-opacity: 0.3; stroke-width: 0.8"/>
     </g>
     <g id="line2d_16">
      <g>
       <use xlink:href="#m81f4d3407d" x="512.470034" y="384.1975" style="stroke: #000000; stroke-width: 0.8"/>
      </g>
     </g>
     <g id="text_8">
      <!-- Aug -->
      <g transform="translate(502.706753 398.795937) scale(0.1 -0.1)">
       <defs>
        <path id="DejaVuSans-67" d="M 2906 1791 
Q 2906 2416 2648 2759 
Q 2391 3103 1925 3103 
Q 1463 3103 1205 2759 
Q 947 2416 947 1791 
Q 947 1169 1205 825 
Q 1463 481 1925 481 
Q 2391 481 2648 825 
Q 2906 1169 2906 1791 
z
M 3481 434 
Q 3481 -459 3084 -895 
Q 2688 -1331 1869 -1331 
Q 1566 -1331 1297 -1286 
Q 1028 -1241 775 -1147 
L 775 -588 
Q 1028 -725 1275 -790 
Q 1522 -856 1778 -856 
Q 2344 -856 2625 -561 
Q 2906 -266 2906 331 
L 2906 616 
Q 2728 306 2450 153 
Q 2172 0 1784 0 
Q 1141 0 747 490 
Q 353 981 353 1791 
Q 353 2603 747 3093 
Q 1141 3584 1784 3584 
Q 2172 3584 2450 3431 
Q 2728 3278 2906 2969 
L 2906 3500 
L 3481 3500 
L 3481 434 
z
" transform="scale(0.015625)"/>
       </defs>
       <use xlink:href="#DejaVuSans-41"/>
       <use xlink:href="#DejaVuSans-75" transform="translate(68.408203 0)"/>
       <use xlink:href="#DejaVuSans-67" transform="translate(131.787109 0)"/>
      </g>
     </g>
    </g>
    <g id="xtick_9">
     <g id="line2d_17">
      <path d="M 578.395304 384.1975 
L 578.395304 39.3575 
" clip-path="url(#pb0fdf55e96)" style="fill: none; stroke-dasharray: 2.96,1.28; stroke-dashoffset: 0; stroke: #b0b0b0; stroke-opacity: 0.3; stroke-width: 0.8"/>
     </g>
     <g id="line2d_18">
      <g>
       <use xlink:href="#m81f4d3407d" x="578.395304" y="384.1975" style="stroke: #000000; stroke-width: 0.8"/>
      </g>
     </g>
     <g id="text_9">
      <!-- Sep -->
      <g transform="translate(568.970304 398.795937) scale(0.1 -0.1)">
       <defs>
        <path id="DejaVuSans-53" d="M 3425 4513 
L 3425 3897 
Q 3066 4069 2747 4153 
Q 2428 4238 2131 4238 
Q 1616 4238 1336 4038 
Q 1056 3838 1056 3469 
Q 1056 3159 1242 3001 
Q 1428 2844 1947 2747 
L 2328 2669 
Q 3034 2534 3370 2195 
Q 3706 1856 3706 1288 
Q 3706 609 3251 259 
Q 2797 -91 1919 -91 
Q 1588 -91 1214 -16 
Q 841 59 441 206 
L 441 856 
Q 825 641 1194 531 
Q 1563 422 1919 422 
Q 2459 422 2753 634 
Q 3047 847 3047 1241 
Q 3047 1584 2836 1778 
Q 2625 1972 2144 2069 
L 1759 2144 
Q 1053 2284 737 2584 
Q 422 2884 422 3419 
Q 422 4038 858 4394 
Q 1294 4750 2059 4750 
Q 2388 4750 2728 4690 
Q 3069 4631 3425 4513 
z
" transform="scale(0.015625)"/>
       </defs>
       <use xlink:href="#DejaVuSans-53"/>
       <use xlink:href="#DejaVuSans-65" transform="translate(63.476562 0)"/>
       <use xlink:href="#DejaVuSans-70" transform="translate(125 0)"/>
      </g>
     </g>
    </g>
    <g id="xtick_10">
     <g id="line2d_19">
      <path d="M 642.193953 384.1975 
L 642.193953 39.3575 
" clip-path="url(#pb0fdf55e96)" style="fill: none; stroke-dasharray: 2.96,1.28; stroke-dashoffset: 0; stroke: #b0b0b0; stroke-opacity: 0.3; stroke-width: 0.8"/>
     </g>
     <g id="line2d_20">
      <g>
       <use xlink:href="#m81f4d3407d" x="642.193953" y="384.1975" style="stroke: #000000; stroke-width: 0.8"/>
      </g>
     </g>
     <g id="text_10">
      <!-- Oct -->
      <g transform="translate(633.54864 398.795937) scale(0.1 -0.1)">
       <defs>
        <path id="DejaVuSans-4f" d="M 2522 4238 
Q 1834 4238 1429 3725 
Q 1025 3213 1025 2328 
Q 1025 1447 1429 934 
Q 1834 422 2522 422 
Q 3209 422 3611 934 
Q 4013 1447 4013 2328 
Q 4013 3213 3611 3725 
Q 3209 4238 2522 4238 
z
M 2522 4750 
Q 3503 4750 4090 4092 
Q 4678 3434 4678 2328 
Q 4678 1225 4090 567 
Q 3503 -91 2522 -91 
Q 1538 -91 948 565 
Q 359 1222 359 2328 
Q 359 3434 948 4092 
Q 1538 4750 2522 4750 
z
" transform="scale(0.015625)"/>
        <path id="DejaVuSans-63" d="M 3122 3366 
L 3122 2828 
Q 2878 2963 2633 3030 
Q 2388 3097 2138 3097 
Q 1578 3097 1268 2742 
Q 959 2388 959 1747 
Q 959 1106 1268 751 
Q 1578 397 2138 397 
Q 2388 397 2633 464 
Q 2878 531 3122 666 
L 3122 134 
Q 2881 22 2623 -34 
Q 2366 -91 2075 -91 
Q 1284 -91 818 406 
Q 353 903 353 1747 
Q 353 2603 823 3093 
Q 1294 3584 2113 3584 
Q 2378 3584 2631 3529 
Q 2884 3475 3122 3366 
z
" transform="scale(0.015625)"/>
        <path id="DejaVuSans-74" d="M 1172 4494 
L 1172 3500 
L 2356 3500 
L 2356 3053 
L 1172 3053 
L 1172 1153 
Q 1172 725 1289 603 
Q 1406 481 1766 481 
L 2356 481 
L 2356 0 
L 1766 0 
Q 1100 0 847 248 
Q 594 497 594 1153 
L 594 3053 
L 172 3053 
L 172 3500 
L 594 3500 
L 594 4494 
L 1172 4494 
z
" transform="scale(0.015625)"/>
       </defs>
       <use xlink:href="#DejaVuSans-4f"/>
       <use xlink:href="#DejaVuSans-63" transform="translate(78.710938 0)"/>
       <use xlink:href="#DejaVuSans-74" transform="translate(133.691406 0)"/>
      </g>
     </g>
    </g>
    <g id="xtick_11">
     <g id="line2d_21">
      <path d="M 708.119223 384.1975 
L 708.119223 39.3575 
" clip-path="url(#pb0fdf55e96)" style="fill: none; stroke-dasharray: 2.96,1.28; stroke-dashoffset: 0; stroke: #b0b0b0; stroke-opacity: 0.3; stroke-width: 0.8"/>
     </g>
     <g id="line2d_22">
      <g>
       <use xlink:href="#m81f4d3407d" x="708.119223" y="384.1975" style="stroke: #000000; stroke-width: 0.8"/>
      </g>
     </g>
     <g id="text_11">
      <!-- Nov -->
      <g transform="translate(698.359848 398.795937) scale(0.1 -0.1)">
       <defs>
        <path id="DejaVuSans-4e" d="M 628 4666 
L 1478 4666 
L 3547 763 
L 3547 4666 
L 4159 4666 
L 4159 0 
L 3309 0 
L 1241 3903 
L 1241 0 
L 628 0 
L 628 4666 
z
" transform="scale(0.015625)"/>
        <path id="DejaVuSans-6f" d="M 1959 3097 
Q 1497 3097 1228 2736 
Q 959 2375 959 1747 
Q 959 1119 1226 758 
Q 1494 397 1959 397 
Q 2419 397 2687 759 
Q 2956 1122 2956 1747 
Q 2956 2369 2687 2733 
Q 2419 3097 1959 3097 
z
M 1959 3584 
Q 2709 3584 3137 3096 
Q 3566 2609 3566 1747 
Q 3566 888 3137 398 
Q 2709 -91 1959 -91 
Q 1206 -91 779 398 
Q 353 888 353 1747 
Q 353 2609 779 3096 
Q 1206 3584 1959 3584 
z
" transform="scale(0.015625)"/>
        <path id="DejaVuSans-76" d="M 191 3500 
L 800 3500 
L 1894 563 
L 2988 3500 
L 3597 3500 
L 2284 0 
L 1503 0 
L 191 3500 
z
" transform="scale(0.015625)"/>
       </defs>
       <use xlink:href="#DejaVuSans-4e"/>
       <use xlink:href="#DejaVuSans-6f" transform="translate(74.804688 0)"/>
       <use xlink:href="#DejaVuSans-76" transform="translate(135.986328 0)"/>
      </g>
     </g>
    </g>
    <g id="xtick_12">
     <g id="line2d_23">
      <path d="M 771.917872 384.1975 
L 771.917872 39.3575 
" clip-path="url(#pb0fdf55e96)" style="fill: none; stroke-dasharray: 2.96,1.28; stroke-dashoffset: 0; stroke: #b0b0b0; stroke-opacity: 0.3; stroke-width: 0.8"/>
     </g>
     <g id="line2d_24">
      <g>
       <use xlink:href="#m81f4d3407d" x="771.917872" y="384.1975" style="stroke: #000000; stroke-width: 0.8"/>
      </g>
     </g>
     <g id="text_12">
      <!-- Dec -->
      <g transform="translate(762.24209 398.795937) scale(0.1 -0.1)">
       <defs>
        <path id="DejaVuSans-44" d="M 1259 4147 
L 1259 519 
L 2022 519 
Q 2988 519 3436 956 
Q 3884 1394 3884 2338 
Q 3884 3275 3436 3711 
Q 2988 4147 2022 4147 
L 1259 4147 
z
M 628 4666 
L 1925 4666 
Q 3281 4666 3915 4102 
Q 4550 3538 4550 2338 
Q 4550 1131 3912 565 
Q 3275 0 1925 0 
L 628 0 
L 628 4666 
z
" transform="scale(0.015625)"/>
       </defs>
       <use xlink:href="#DejaVuSans-44"/>
       <use xlink:href="#DejaVuSans-65" transform="translate(77.001953 0)"/>
       <use xlink:href="#DejaVuSans-63" transform="translate(138.525391 0)"/>
      </g>
     </g>
    </g>
    <g id="xtick_13">
     <g id="line2d_25">
      <path d="M 837.843142 384.1975 
L 837.843142 39.3575 
" clip-path="url(#pb0fdf55e96)" style="fill: none; stroke-dasharray: 2.96,1.28; stroke-dashoffset: 0; stroke: #b0b0b0; stroke-opacity: 0.3; stroke-width: 0.8"/>
     </g>
     <g id="line2d_26">
      <g>
       <use xlink:href="#m81f4d3407d" x="837.843142" y="384.1975" style="stroke: #000000; stroke-width: 0.8"/>
      </g>
     </g>
     <g id="text_13">
      <!-- Jan -->
      <g transform="translate(830.135329 398.795937) scale(0.1 -0.1)">
       <use xlink:href="#DejaVuSans-4a"/>
       <use xlink:href="#DejaVuSans-61" transform="translate(29.492188 0)"/>
       <use xlink:href="#DejaVuSans-6e" transform="translate(90.771484 0)"/>
      </g>
     </g>
    </g>
    <g id="text_14">
     <!-- Day of the year -->
     <g transform="translate(408.465938 413.99375) scale(0.12 -0.12)">
      <defs>
       <path id="DejaVuSans-20" transform="scale(0.015625)"/>
       <path id="DejaVuSans-66" d="M 2375 4863 
L 2375 4384 
L 1825 4384 
Q 1516 4384 1395 4259 
Q 1275 4134 1275 3809 
L 1275 3500 
L 2222 3500 
L 2222 3053 
L 1275 3053 
L 1275 0 
L 697 0 
L 697 3053 
L 147 3053 
L 147 3500 
L 697 3500 
L 697 3744 
Q 697 4328 969 4595 
Q 1241 4863 1831 4863 
L 2375 4863 
z
" transform="scale(0.015625)"/>
       <path id="DejaVuSans-68" d="M 3513 2113 
L 3513 0 
L 2938 0 
L 2938 2094 
Q 2938 2591 2744 2837 
Q 2550 3084 2163 3084 
Q 1697 3084 1428 2787 
Q 1159 2491 1159 1978 
L 1159 0 
L 581 0 
L 581 4863 
L 1159 4863 
L 1159 2956 
Q 1366 3272 1645 3428 
Q 1925 3584 2291 3584 
Q 2894 3584 3203 3211 
Q 3513 2838 3513 2113 
z
" transform="scale(0.015625)"/>
      </defs>
      <use xlink:href="#DejaVuSans-44"/>
      <use xlink:href="#DejaVuSans-61" transform="translate(77.001953 0)"/>
      <use xlink:href="#DejaVuSans-79" transform="translate(138.28125 0)"/>
      <use xlink:href="#DejaVuSans-20" transform="translate(197.460938 0)"/>
      <use xlink:href="#DejaVuSans-6f" transform="translate(229.248047 0)"/>
      <use xlink:href="#DejaVuSans-66" transform="translate(290.429688 0)"/>
      <use xlink:href="#DejaVuSans-20" transform="translate(325.634766 0)"/>
      <use xlink:href="#DejaVuSans-74" transform="translate(357.421875 0)"/>
      <use xlink:href="#DejaVuSans-68" transform="translate(396.630859 0)"/>
      <use xlink:href="#DejaVuSans-65" transform="translate(460.009766 0)"/>
      <use xlink:href="#DejaVuSans-20" transform="translate(521.533203 0)"/>
      <use xlink:href="#DejaVuSans-79" transform="translate(553.320312 0)"/>
      <use xlink:href="#DejaVuSans-65" transform="translate(612.5 0)"/>
      <use xlink:href="#DejaVuSans-61" transform="translate(674.023438 0)"/>
      <use xlink:href="#DejaVuSans-72" transform="translate(735.302734 0)"/>
     </g>
    </g>
   </g>
   <g id="matplotlib.axis_2">
    <g id="ytick_1">
     <g id="line2d_27">
      <path d="M 61.62625 368.721131 
L 848.47625 368.721131 
" clip-path="url(#pb0fdf55e96)" style="fill: none; stroke-dasharray: 2.96,1.28; stroke-dashoffset: 0; stroke: #b0b0b0; stroke-opacity: 0.3; stroke-width: 0.8"/>
     </g>
     <g id="line2d_28">
      <defs>
       <path id="m942b34b73e" d="M 0 0 
L -3.5 0 
" style="stroke: #000000; stroke-width: 0.8"/>
      </defs>
      <g>
       <use xlink:href="#m942b34b73e" x="61.62625" y="368.721131" style="stroke: #000000; stroke-width: 0.8"/>
      </g>
     </g>
     <g id="text_15">
      <!-- 0 -->
      <g transform="translate(48.26375 372.52035) scale(0.1 -0.1)">
       <defs>
        <path id="DejaVuSans-30" d="M 2034 4250 
Q 1547 4250 1301 3770 
Q 1056 3291 1056 2328 
Q 1056 1369 1301 889 
Q 1547 409 2034 409 
Q 2525 409 2770 889 
Q 3016 1369 3016 2328 
Q 3016 3291 2770 3770 
Q 2525 4250 2034 4250 
z
M 2034 4750 
Q 2819 4750 3233 4129 
Q 3647 3509 3647 2328 
Q 3647 1150 3233 529 
Q 2819 -91 2034 -91 
Q 1250 -91 836 529 
Q 422 1150 422 2328 
Q 422 3509 836 4129 
Q 1250 4750 2034 4750 
z
" transform="scale(0.015625)"/>
       </defs>
       <use xlink:href="#DejaVuSans-30"/>
      </g>
     </g>
    </g>
    <g id="ytick_2">
     <g id="line2d_29">
      <path d="M 61.62625 319.176934 
L 848.47625 319.176934 
" clip-path="url(#pb0fdf55e96)" style="fill: none; stroke-dasharray: 2.96,1.28; stroke-dashoffset: 0; stroke: #b0b0b0; stroke-opacity: 0.3; stroke-width: 0.8"/>
     </g>
     <g id="line2d_30">
      <g>
       <use xlink:href="#m942b34b73e" x="61.62625" y="319.176934" style="stroke: #000000; stroke-width: 0.8"/>
      </g>
     </g>
     <g id="text_16">
      <!-- 2000 -->
      <g transform="translate(29.17625 322.976153) scale(0.1 -0.1)">
       <defs>
        <path id="DejaVuSans-32" d="M 1228 531 
L 3431 531 
L 3431 0 
L 469 0 
L 469 531 
Q 828 903 1448 1529 
Q 2069 2156 2228 2338 
Q 2531 2678 2651 2914 
Q 2772 3150 2772 3378 
Q 2772 3750 2511 3984 
Q 2250 4219 1831 4219 
Q 1534 4219 1204 4116 
Q 875 4013 500 3803 
L 500 4441 
Q 881 4594 1212 4672 
Q 1544 4750 1819 4750 
Q 2544 4750 2975 4387 
Q 3406 4025 3406 3419 
Q 3406 3131 3298 2873 
Q 3191 2616 2906 2266 
Q 2828 2175 2409 1742 
Q 1991 1309 1228 531 
z
" transform="scale(0.015625)"/>
       </defs>
       <use xlink:href="#DejaVuSans-32"/>
       <use xlink:href="#DejaVuSans-30" transform="translate(63.623047 0)"/>
       <use xlink:href="#DejaVuSans-30" transform="translate(127.246094 0)"/>
       <use xlink:href="#DejaVuSans-30" transform="translate(190.869141 0)"/>
      </g>
     </g>
    </g>
    <g id="ytick_3">
     <g id="line2d_31">
      <path d="M 61.62625 269.632737 
L 848.47625 269.632737 
" clip-path="url(#pb0fdf55e96)" style="fill: none; stroke-dasharray: 2.96,1.28; stroke-dashoffset: 0; stroke: #b0b0b0; stroke-opacity: 0.3; stroke-width: 0.8"/>
     </g>
     <g id="line2d_32">
      <g>
       <use xlink:href="#m942b34b73e" x="61.62625" y="269.632737" style="stroke: #000000; stroke-width: 0.8"/>
      </g>
     </g>
     <g id="text_17">
      <!-- 4000 -->
      <g transform="translate(29.17625 273.431955) scale(0.1 -0.1)">
       <defs>
        <path id="DejaVuSans-34" d="M 2419 4116 
L 825 1625 
L 2419 1625 
L 2419 4116 
z
M 2253 4666 
L 3047 4666 
L 3047 1625 
L 3713 1625 
L 3713 1100 
L 3047 1100 
L 3047 0 
L 2419 0 
L 2419 1100 
L 313 1100 
L 313 1709 
L 2253 4666 
z
" transform="scale(0.015625)"/>
       </defs>
       <use xlink:href="#DejaVuSans-34"/>
       <use xlink:href="#DejaVuSans-30" transform="translate(63.623047 0)"/>
       <use xlink:href="#DejaVuSans-30" transform="translate(127.246094 0)"/>
       <use xlink:href="#DejaVuSans-30" transform="translate(190.869141 0)"/>
      </g>
     </g>
    </g>
    <g id="ytick_4">
     <g id="line2d_33">
      <path d="M 61.62625 220.088539 
L 848.47625 220.088539 
" clip-path="url(#pb0fdf55e96)" style="fill: none; stroke-dasharray: 2.96,1.28; stroke-dashoffset: 0; stroke: #b0b0b0; stroke-opacity: 0.3; stroke-width: 0.8"/>
     </g>
     <g id="line2d_34">
      <g>
       <use xlink:href="#m942b34b73e" x="61.62625" y="220.088539" style="stroke: #000000; stroke-width: 0.8"/>
      </g>
     </g>
     <g id="text_18">
      <!-- 6000 -->
      <g transform="translate(29.17625 223.887758) scale(0.1 -0.1)">
       <defs>
        <path id="DejaVuSans-36" d="M 2113 2584 
Q 1688 2584 1439 2293 
Q 1191 2003 1191 1497 
Q 1191 994 1439 701 
Q 1688 409 2113 409 
Q 2538 409 2786 701 
Q 3034 994 3034 1497 
Q 3034 2003 2786 2293 
Q 2538 2584 2113 2584 
z
M 3366 4563 
L 3366 3988 
Q 3128 4100 2886 4159 
Q 2644 4219 2406 4219 
Q 1781 4219 1451 3797 
Q 1122 3375 1075 2522 
Q 1259 2794 1537 2939 
Q 1816 3084 2150 3084 
Q 2853 3084 3261 2657 
Q 3669 2231 3669 1497 
Q 3669 778 3244 343 
Q 2819 -91 2113 -91 
Q 1303 -91 875 529 
Q 447 1150 447 2328 
Q 447 3434 972 4092 
Q 1497 4750 2381 4750 
Q 2619 4750 2861 4703 
Q 3103 4656 3366 4563 
z
" transform="scale(0.015625)"/>
       </defs>
       <use xlink:href="#DejaVuSans-36"/>
       <use xlink:href="#DejaVuSans-30" transform="translate(63.623047 0)"/>
       <use xlink:href="#DejaVuSans-30" transform="translate(127.246094 0)"/>
       <use xlink:href="#DejaVuSans-30" transform="translate(190.869141 0)"/>
      </g>
     </g>
    </g>
    <g id="ytick_5">
     <g id="line2d_35">
      <path d="M 61.62625 170.544342 
L 848.47625 170.544342 
" clip-path="url(#pb0fdf55e96)" style="fill: none; stroke-dasharray: 2.96,1.28; stroke-dashoffset: 0; stroke: #b0b0b0; stroke-opacity: 0.3; stroke-width: 0.8"/>
     </g>
     <g id="line2d_36">
      <g>
       <use xlink:href="#m942b34b73e" x="61.62625" y="170.544342" style="stroke: #000000; stroke-width: 0.8"/>
      </g>
     </g>
     <g id="text_19">
      <!-- 8000 -->
      <g transform="translate(29.17625 174.34356) scale(0.1 -0.1)">
       <defs>
        <path id="DejaVuSans-38" d="M 2034 2216 
Q 1584 2216 1326 1975 
Q 1069 1734 1069 1313 
Q 1069 891 1326 650 
Q 1584 409 2034 409 
Q 2484 409 2743 651 
Q 3003 894 3003 1313 
Q 3003 1734 2745 1975 
Q 2488 2216 2034 2216 
z
M 1403 2484 
Q 997 2584 770 2862 
Q 544 3141 544 3541 
Q 544 4100 942 4425 
Q 1341 4750 2034 4750 
Q 2731 4750 3128 4425 
Q 3525 4100 3525 3541 
Q 3525 3141 3298 2862 
Q 3072 2584 2669 2484 
Q 3125 2378 3379 2068 
Q 3634 1759 3634 1313 
Q 3634 634 3220 271 
Q 2806 -91 2034 -91 
Q 1263 -91 848 271 
Q 434 634 434 1313 
Q 434 1759 690 2068 
Q 947 2378 1403 2484 
z
M 1172 3481 
Q 1172 3119 1398 2916 
Q 1625 2713 2034 2713 
Q 2441 2713 2670 2916 
Q 2900 3119 2900 3481 
Q 2900 3844 2670 4047 
Q 2441 4250 2034 4250 
Q 1625 4250 1398 4047 
Q 1172 3844 1172 3481 
z
" transform="scale(0.015625)"/>
       </defs>
       <use xlink:href="#DejaVuSans-38"/>
       <use xlink:href="#DejaVuSans-30" transform="translate(63.623047 0)"/>
       <use xlink:href="#DejaVuSans-30" transform="translate(127.246094 0)"/>
       <use xlink:href="#DejaVuSans-30" transform="translate(190.869141 0)"/>
      </g>
     </g>
    </g>
    <g id="ytick_6">
     <g id="line2d_37">
      <path d="M 61.62625 121.000144 
L 848.47625 121.000144 
" clip-path="url(#pb0fdf55e96)" style="fill: none; stroke-dasharray: 2.96,1.28; stroke-dashoffset: 0; stroke: #b0b0b0; stroke-opacity: 0.3; stroke-width: 0.8"/>
     </g>
     <g id="line2d_38">
      <g>
       <use xlink:href="#m942b34b73e" x="61.62625" y="121.000144" style="stroke: #000000; stroke-width: 0.8"/>
      </g>
     </g>
     <g id="text_20">
      <!-- 10000 -->
      <g transform="translate(22.81375 124.799363) scale(0.1 -0.1)">
       <defs>
        <path id="DejaVuSans-31" d="M 794 531 
L 1825 531 
L 1825 4091 
L 703 3866 
L 703 4441 
L 1819 4666 
L 2450 4666 
L 2450 531 
L 3481 531 
L 3481 0 
L 794 0 
L 794 531 
z
" transform="scale(0.015625)"/>
       </defs>
       <use xlink:href="#DejaVuSans-31"/>
       <use xlink:href="#DejaVuSans-30" transform="translate(63.623047 0)"/>
       <use xlink:href="#DejaVuSans-30" transform="translate(127.246094 0)"/>
       <use xlink:href="#DejaVuSans-30" transform="translate(190.869141 0)"/>
       <use xlink:href="#DejaVuSans-30" transform="translate(254.492188 0)"/>
      </g>
     </g>
    </g>
    <g id="ytick_7">
     <g id="line2d_39">
      <path d="M 61.62625 71.455947 
L 848.47625 71.455947 
" clip-path="url(#pb0fdf55e96)" style="fill: none; stroke-dasharray: 2.96,1.28; stroke-dashoffset: 0; stroke: #b0b0b0; stroke-opacity: 0.3; stroke-width: 0.8"/>
     </g>
     <g id="line2d_40">
      <g>
       <use xlink:href="#m942b34b73e" x="61.62625" y="71.455947" style="stroke: #000000; stroke-width: 0.8"/>
      </g>
     </g>
     <g id="text_21">
      <!-- 12000 -->
      <g transform="translate(22.81375 75.255166) scale(0.1 -0.1)">
       <use xlink:href="#DejaVuSans-31"/>
       <use xlink:href="#DejaVuSans-32" transform="translate(63.623047 0)"/>
       <use xlink:href="#DejaVuSans-30" transform="translate(127.246094 0)"/>
       <use xlink:href="#DejaVuSans-30" transform="translate(190.869141 0)"/>
       <use xlink:href="#DejaVuSans-30" transform="translate(254.492188 0)"/>
      </g>
     </g>
    </g>
    <g id="text_22">
     <!-- Daily pedestrian count -->
     <g transform="translate(16.318125 279.793125) rotate(-90) scale(0.12 -0.12)">
      <defs>
       <path id="DejaVuSans-69" d="M 603 3500 
L 1178 3500 
L 1178 0 
L 603 0 
L 603 3500 
z
M 603 4863 
L 1178 4863 
L 1178 4134 
L 603 4134 
L 603 4863 
z
" transform="scale(0.015625)"/>
       <path id="DejaVuSans-64" d="M 2906 2969 
L 2906 4863 
L 3481 4863 
L 3481 0 
L 2906 0 
L 2906 525 
Q 2725 213 2448 61 
Q 2172 -91 1784 -91 
Q 1150 -91 751 415 
Q 353 922 353 1747 
Q 353 2572 751 3078 
Q 1150 3584 1784 3584 
Q 2172 3584 2448 3432 
Q 2725 3281 2906 2969 
z
M 947 1747 
Q 947 1113 1208 752 
Q 1469 391 1925 391 
Q 2381 391 2643 752 
Q 2906 1113 2906 1747 
Q 2906 2381 2643 2742 
Q 2381 3103 1925 3103 
Q 1469 3103 1208 2742 
Q 947 2381 947 1747 
z
" transform="scale(0.015625)"/>
       <path id="DejaVuSans-73" d="M 2834 3397 
L 2834 2853 
Q 2591 2978 2328 3040 
Q 2066 3103 1784 3103 
Q 1356 3103 1142 2972 
Q 928 2841 928 2578 
Q 928 2378 1081 2264 
Q 1234 2150 1697 2047 
L 1894 2003 
Q 2506 1872 2764 1633 
Q 3022 1394 3022 966 
Q 3022 478 2636 193 
Q 2250 -91 1575 -91 
Q 1294 -91 989 -36 
Q 684 19 347 128 
L 347 722 
Q 666 556 975 473 
Q 1284 391 1588 391 
Q 1994 391 2212 530 
Q 2431 669 2431 922 
Q 2431 1156 2273 1281 
Q 2116 1406 1581 1522 
L 1381 1569 
Q 847 1681 609 1914 
Q 372 2147 372 2553 
Q 372 3047 722 3315 
Q 1072 3584 1716 3584 
Q 2034 3584 2315 3537 
Q 2597 3491 2834 3397 
z
" transform="scale(0.015625)"/>
      </defs>
      <use xlink:href="#DejaVuSans-44"/>
      <use xlink:href="#DejaVuSans-61" transform="translate(77.001953 0)"/>
      <use xlink:href="#DejaVuSans-69" transform="translate(138.28125 0)"/>
      <use xlink:href="#DejaVuSans-6c" transform="translate(166.064453 0)"/>
      <use xlink:href="#DejaVuSans-79" transform="translate(193.847656 0)"/>
      <use xlink:href="#DejaVuSans-20" transform="translate(253.027344 0)"/>
      <use xlink:href="#DejaVuSans-70" transform="translate(284.814453 0)"/>
      <use xlink:href="#DejaVuSans-65" transform="translate(348.291016 0)"/>
      <use xlink:href="#DejaVuSans-64" transform="translate(409.814453 0)"/>
      <use xlink:href="#DejaVuSans-65" transform="translate(473.291016 0)"/>
      <use xlink:href="#DejaVuSans-73" transform="translate(534.814453 0)"/>
      <use xlink:href="#DejaVuSans-74" transform="translate(586.914062 0)"/>
      <use xlink:href="#DejaVuSans-72" transform="translate(626.123047 0)"/>
      <use xlink:href="#DejaVuSans-69" transform="translate(667.236328 0)"/>
      <use xlink:href="#DejaVuSans-61" transform="translate(695.019531 0)"/>
      <use xlink:href="#DejaVuSans-6e" transform="translate(756.298828 0)"/>
      <use xlink:href="#DejaVuSans-20" transform="translate(819.677734 0)"/>
      <use xlink:href="#DejaVuSans-63" transform="translate(851.464844 0)"/>
      <use xlink:href="#DejaVuSans-6f" transform="translate(906.445312 0)"/>
      <use xlink:href="#DejaVuSans-75" transform="translate(967.626953 0)"/>
      <use xlink:href="#DejaVuSans-6e" transform="translate(1031.005859 0)"/>
      <use xlink:href="#DejaVuSans-74" transform="translate(1094.384766 0)"/>
     </g>
    </g>
   </g>
   <g id="line2d_41">
    <path d="M 63.752872 355.988273 
L 65.879493 326.459931 
L 68.006115 325.023149 
L 70.132736 333.17317 
L 72.259358 352.644039 
L 74.38598 346.376698 
L 76.512601 291.209234 
L 78.639223 304.313675 
L 80.765845 297.872929 
L 82.892466 296.634324 
L 85.019088 307.806541 
L 87.145709 341.620455 
L 89.272331 344.345386 
L 91.398953 289.02929 
L 93.525574 292.720333 
L 95.652196 292.001942 
L 97.778818 340.604799 
L 99.905439 322.79366 
L 102.032061 341.422279 
L 104.158682 342.239758 
L 106.285304 286.601624 
L 108.411926 287.592508 
L 110.538547 269.756597 
L 114.791791 316.798812 
L 116.918412 343.949033 
L 119.045034 344.419703 
L 121.171655 342.85906 
L 123.298277 286.106182 
L 125.424899 289.673364 
L 127.55152 279.764525 
L 129.678142 294.7021 
L 131.804764 338.078045 
L 133.931385 343.626995 
L 136.058007 286.799801 
L 138.184628 300.845581 
L 140.31125 268.02255 
L 142.437872 250.013234 
L 144.564493 288.335671 
L 146.691115 348.779592 
L 148.817736 343.949033 
L 150.944358 274.611928 
L 153.07098 307.162466 
L 155.197601 274.611928 
L 157.324223 286.700713 
L 159.450845 281.349939 
L 161.577466 334.956761 
L 163.704088 328.540787 
L 165.830709 299.978557 
L 167.957331 245.380852 
L 170.083953 274.611928 
L 172.210574 284.694173 
L 174.337196 239.187827 
L 176.463818 331.340034 
L 178.590439 333.718156 
L 180.717061 221.550093 
L 182.843682 206.959327 
L 184.970304 212.557821 
L 187.096926 209.263132 
L 189.223547 225.835666 
L 191.350169 315.931789 
L 193.476791 318.879669 
L 195.603412 55.032045 
L 197.730034 99.126381 
L 199.856655 126.84636 
L 201.983277 86.145801 
L 204.109899 161.155716 
L 206.23652 313.330719 
L 208.363142 324.948833 
L 210.489764 133.609143 
L 212.616385 169.206648 
L 214.743007 92.660863 
L 216.869628 97.565739 
L 218.99625 138.489246 
L 221.122872 316.625408 
L 223.249493 320.143046 
L 225.376115 151.742319 
L 227.502736 201.2122 
L 229.629358 170.395709 
L 231.75598 181.543154 
L 233.882601 151.791863 
L 236.009223 327.921485 
L 238.135845 312.017797 
L 240.262466 183.995591 
L 242.389088 163.732015 
L 244.515709 134.377078 
L 246.642331 149.289881 
L 248.768953 179.635702 
L 250.895574 313.082998 
L 253.022196 321.802776 
L 255.148818 149.760551 
L 257.275439 117.606367 
L 259.402061 185.135108 
L 261.528682 171.981123 
L 263.655304 195.489845 
L 265.781926 314.247286 
L 267.908547 313.603212 
L 270.035169 185.581006 
L 272.161791 143.716159 
L 274.288412 150.701891 
L 276.415034 153.228645 
L 278.541655 142.0812 
L 280.668277 308.822197 
L 282.794899 314.247286 
L 284.92152 136.358845 
L 287.048142 169.652546 
L 289.174764 180.155916 
L 291.301385 179.635702 
L 293.428007 326.360843 
L 295.554628 328.714192 
L 297.68125 341.298418 
L 299.807872 341.149785 
L 301.934493 317.319027 
L 304.061115 285.908005 
L 306.187736 322.744116 
L 308.314358 296.857273 
L 310.44098 333.445663 
L 312.567601 321.480739 
L 314.694223 130.710807 
L 316.820845 124.245289 
L 318.947466 107.325946 
L 321.074088 156.523334 
L 323.200709 196.852311 
L 325.327331 290.589932 
L 327.453953 315.609752 
L 329.580574 136.631339 
L 331.707196 132.766891 
L 333.833818 109.604979 
L 335.960439 128.159281 
L 338.087061 189.098644 
L 340.213682 313.182086 
L 342.340304 314.470235 
L 344.466926 143.047312 
L 346.593547 151.370737 
L 348.720169 141.338037 
L 350.846791 158.183064 
L 352.973412 159.570302 
L 355.100034 295.816845 
L 357.226655 305.527508 
L 359.353277 124.146201 
L 361.479899 140.718735 
L 363.60652 117.110925 
L 365.733142 112.528087 
L 367.859764 156.47379 
L 369.986385 313.479351 
L 372.113007 321.976181 
L 374.239628 151.791863 
L 376.36625 127.663839 
L 378.492872 184.887387 
L 380.619493 122.114889 
L 382.746115 172.674742 
L 384.872736 308.896513 
L 386.999358 332.207058 
L 389.12598 264.381052 
L 391.252601 246.768089 
L 393.379223 256.850334 
L 395.505845 249.245299 
L 397.632466 255.364008 
L 399.759088 304.041182 
L 401.885709 306.221126 
L 404.012331 292.125802 
L 406.138953 227.42108 
L 408.265574 250.260955 
L 410.392196 235.744505 
L 412.518818 257.271459 
L 414.645439 311.126002 
L 416.772061 327.723308 
L 418.898682 247.95715 
L 421.025304 258.361432 
L 423.151926 249.641653 
L 425.278547 236.586757 
L 427.405169 254.075859 
L 429.531791 321.233018 
L 431.658412 327.15355 
L 433.785034 261.234995 
L 435.911655 254.274035 
L 440.164899 264.678317 
L 442.29152 270.920886 
L 444.418142 342.38839 
L 446.544764 334.956761 
L 448.671385 292.720333 
L 450.798007 294.528696 
L 452.924628 293.735989 
L 455.05125 291.134918 
L 457.177872 275.974394 
L 459.304493 332.380463 
L 461.431115 346.351926 
L 463.557736 287.394331 
L 465.684358 274.215575 
L 467.81098 289.698136 
L 469.937601 266.95735 
L 472.064223 276.965278 
L 474.190845 339.415739 
L 476.317466 343.626995 
L 478.444088 290.812881 
L 480.570709 279.021362 
L 482.697331 275.429408 
L 484.823953 265.223303 
L 486.950574 264.901266 
L 489.077196 334.535635 
L 491.203818 337.731236 
L 493.330439 254.422668 
L 495.457061 284.149186 
L 499.710304 228.461508 
L 501.836926 272.555844 
L 503.963547 322.174358 
L 506.090169 323.61114 
L 508.216791 144.484094 
L 510.343412 146.317229 
L 512.470034 114.311678 
L 514.596655 109.951788 
L 516.723277 155.433361 
L 518.849899 314.272058 
L 520.97652 326.236982 
L 523.103142 138.41493 
L 525.229764 91.447031 
L 527.356385 93.32971 
L 529.483007 130.661263 
L 531.609628 165.193568 
L 533.73625 311.745304 
L 535.862872 322.100042 
L 537.989493 160.784135 
L 540.116115 133.088928 
L 542.242736 117.284329 
L 544.369358 132.965068 
L 546.49598 171.58477 
L 548.622601 305.131154 
L 550.749223 243.844982 
L 552.875845 152.336849 
L 555.002466 134.476166 
L 557.129088 207.974983 
L 559.255709 167.150564 
L 561.382331 172.625198 
L 563.508953 316.749268 
L 565.635574 320.935753 
L 567.762196 171.23796 
L 569.888818 163.806331 
L 572.015439 164.871531 
L 574.142061 157.638078 
L 576.268682 172.501338 
L 578.395304 308.797425 
L 580.521926 321.901865 
L 582.648547 208.64383 
L 584.775169 182.187228 
L 586.901791 200.642442 
L 589.028412 191.823574 
L 591.155034 195.043947 
L 593.281655 313.281174 
L 595.408277 324.725884 
L 597.534899 197.496385 
L 599.66152 167.893727 
L 601.788142 155.879259 
L 603.914764 224.052075 
L 606.041385 246.569913 
L 608.168007 315.981333 
L 610.294628 319.350339 
L 612.42125 211.071495 
L 614.547872 186.026903 
L 616.674493 166.110136 
L 618.801115 156.325157 
L 623.054358 321.505511 
L 625.18098 333.792472 
L 627.307601 191.328133 
L 629.434223 234.85271 
L 631.560845 230.96349 
L 633.687466 212.111923 
L 635.814088 318.929213 
L 637.940709 331.885021 
L 640.067331 340.406623 
L 642.193953 315.485891 
L 644.320574 286.007094 
L 646.447196 285.95755 
L 648.573818 296.337059 
L 650.700439 298.368371 
L 652.827061 325.890173 
L 654.953682 328.392155 
L 657.080304 238.073083 
L 659.206926 211.294444 
L 661.333547 207.70249 
L 663.460169 238.320804 
L 665.586791 220.138083 
L 667.713412 320.539399 
L 669.840034 314.024337 
L 671.966655 219.642641 
L 674.093277 216.843394 
L 676.219899 216.91771 
L 678.34652 218.80039 
L 680.473142 214.762538 
L 682.599764 312.513239 
L 684.726385 338.325766 
L 686.853007 223.259368 
L 688.979628 202.227856 
L 691.10625 199.626786 
L 693.232872 207.82635 
L 695.359493 249.988462 
L 697.486115 309.837853 
L 699.612736 329.110546 
L 701.739358 265.916922 
L 703.86598 267.205071 
L 705.992601 258.559608 
L 708.119223 286.452992 
L 710.245845 271.317239 
L 712.372466 330.522555 
L 714.499088 328.045345 
L 716.625709 272.456756 
L 718.752331 286.353903 
L 720.878953 261.928614 
L 723.005574 290.589932 
L 725.132196 274.339435 
L 727.258818 330.175746 
L 729.385439 346.128977 
L 731.512061 279.12045 
L 733.638682 289.351327 
L 735.765304 294.380063 
L 737.891926 281.59766 
L 740.018547 313.206858 
L 744.271791 329.903253 
L 746.398412 270.673165 
L 748.525034 279.913157 
L 750.651655 291.011058 
L 752.778277 254.620845 
L 754.904899 285.833689 
L 757.03152 332.851132 
L 759.158142 334.411775 
L 761.284764 288.434759 
L 763.411385 307.534048 
L 765.538007 277.906617 
L 767.664628 284.6694 
L 769.79125 302.158502 
L 771.917872 337.012845 
L 774.044493 354.477175 
L 776.171115 297.030678 
L 778.297736 323.338647 
L 780.424358 303.743916 
L 782.55098 307.459731 
L 784.677601 312.934365 
L 786.804223 337.632147 
L 788.930845 339.861636 
L 791.057466 293.314863 
L 793.184088 301.365795 
L 795.310709 302.455767 
L 797.437331 311.770076 
L 799.563953 290.887197 
L 801.690574 344.122437 
L 803.817196 345.608763 
L 805.943818 305.329331 
L 808.070439 304.462307 
L 810.197061 311.968253 
L 812.323682 298.839041 
L 814.450304 330.299606 
L 816.576926 349.448439 
L 818.703547 350.88522 
L 820.830169 330.671188 
L 822.956791 348.903452 
L 825.083412 355.071705 
L 827.210034 356.855296 
L 829.336655 351.628383 
L 831.463277 355.294654 
L 833.589899 356.112133 
L 835.71652 357.994813 
L 837.843142 355.591919 
L 837.843142 355.591919 
" clip-path="url(#pb0fdf55e96)" style="fill: none; stroke: #0d6efc; stroke-opacity: 0.8; stroke-width: 2.5; stroke-linecap: square"/>
   </g>
   <g id="line2d_42">
    <path d="M 63.752872 352.470635 
L 65.879493 342.239758 
L 68.006115 339.812092 
L 70.132736 352.520179 
L 72.259358 352.470635 
L 74.38598 343.726084 
L 76.512601 315.684068 
L 78.639223 323.685456 
L 80.765845 320.440311 
L 82.892466 329.259178 
L 85.019088 348.085973 
L 87.145709 353.065165 
L 89.272331 306.171582 
L 91.398953 304.759572 
L 93.525574 319.449427 
L 95.652196 300.275823 
L 97.778818 315.733612 
L 99.905439 309.193778 
L 102.032061 339.836864 
L 104.158682 298.913357 
L 106.285304 302.257591 
L 108.411926 289.549504 
L 110.538547 298.467459 
L 112.665169 310.481927 
L 114.791791 339.217562 
L 116.918412 341.32319 
L 119.045034 349.597071 
L 121.171655 301.043758 
L 123.298277 296.237971 
L 125.424899 309.491043 
L 127.55152 320.167818 
L 129.678142 344.667423 
L 131.804764 348.829136 
L 133.931385 305.354103 
L 136.058007 293.909393 
L 138.184628 281.647204 
L 140.31125 294.330519 
L 142.437872 294.280975 
L 144.564493 338.945069 
L 146.691115 343.404046 
L 148.817736 293.735989 
L 150.944358 269.409788 
L 153.07098 285.784145 
L 157.324223 310.407611 
L 159.450845 343.899488 
L 161.577466 340.926837 
L 163.704088 292.69556 
L 165.830709 290.56516 
L 167.957331 291.878081 
L 170.083953 288.831113 
L 172.210574 296.213198 
L 174.337196 336.220138 
L 176.463818 327.27741 
L 178.590439 241.565949 
L 180.717061 197.991827 
L 182.843682 234.010459 
L 184.970304 213.350528 
L 187.096926 241.863214 
L 189.223547 320.836665 
L 191.350169 315.733612 
L 193.476791 172.823375 
L 195.603412 326.360843 
L 197.730034 152.832291 
L 199.856655 167.893727 
L 201.983277 206.835466 
L 204.109899 322.273446 
L 206.23652 329.853708 
L 208.363142 318.037417 
L 210.489764 167.769867 
L 212.616385 160.338237 
L 214.743007 158.331697 
L 216.869628 183.846959 
L 218.99625 323.561595 
L 221.122872 342.611339 
L 223.249493 173.789487 
L 225.376115 160.040972 
L 227.502736 159.768479 
L 229.629358 204.506889 
L 231.75598 226.876094 
L 233.882601 316.897901 
L 236.009223 323.660684 
L 238.135845 185.234196 
L 240.262466 176.415329 
L 242.389088 173.59131 
L 244.515709 178.719134 
L 246.642331 212.731226 
L 248.768953 316.922673 
L 250.895574 306.320215 
L 253.022196 204.828926 
L 255.148818 182.311089 
L 257.275439 171.089328 
L 259.402061 198.363409 
L 261.528682 213.152351 
L 263.655304 315.510663 
L 265.781926 323.462507 
L 267.908547 196.25778 
L 270.035169 183.202884 
L 272.161791 177.331897 
L 274.288412 186.398485 
L 276.415034 217.685646 
L 278.541655 313.405035 
L 280.668277 320.489855 
L 282.794899 209.733802 
L 284.92152 189.247276 
L 287.048142 187.042559 
L 289.174764 203.887587 
L 291.301385 332.207058 
L 293.428007 337.285338 
L 295.554628 343.131553 
L 297.68125 338.152362 
L 299.807872 320.514627 
L 301.934493 303.818233 
L 304.061115 300.052874 
L 306.187736 340.406623 
L 308.314358 336.492631 
L 310.44098 320.910981 
L 312.567601 237.181287 
L 314.694223 223.011647 
L 316.820845 203.838042 
L 318.947466 160.635502 
L 321.074088 222.367572 
L 323.200709 317.24471 
L 325.327331 322.917521 
L 327.453953 219.939907 
L 329.580574 201.261744 
L 331.707196 201.286516 
L 333.833818 194.796226 
L 335.960439 233.539789 
L 338.087061 295.64344 
L 340.213682 324.948833 
L 342.340304 224.126391 
L 344.466926 213.226668 
L 346.593547 206.141848 
L 348.720169 207.330908 
L 350.846791 236.611529 
L 352.973412 331.860248 
L 355.100034 321.307334 
L 357.226655 235.818822 
L 359.353277 217.437925 
L 361.479899 219.494009 
L 363.60652 211.393532 
L 365.733142 255.809905 
L 367.859764 322.149586 
L 369.986385 328.169206 
L 372.113007 240.847558 
L 374.239628 239.113511 
L 376.36625 226.306336 
L 378.492872 214.366184 
L 380.619493 233.737966 
L 382.746115 309.045146 
L 386.999358 330.423467 
L 389.12598 298.368371 
L 391.252601 272.580616 
L 393.379223 275.10737 
L 395.505845 289.128378 
L 397.632466 366.095289 
L 399.759088 330.423467 
L 401.885709 331.389579 
L 404.012331 275.57804 
L 406.138953 264.455368 
L 408.265574 267.006894 
L 410.392196 276.791873 
L 412.518818 312.686644 
L 414.645439 366.169605 
L 416.772061 296.213198 
L 418.898682 281.548116 
L 421.025304 279.863613 
L 423.151926 283.752833 
L 425.278547 365.178721 
L 427.405169 321.307334 
L 429.531791 336.789896 
L 431.658412 306.691796 
L 433.785034 289.648592 
L 435.911655 309.367183 
L 438.038277 258.955962 
L 440.164899 297.377487 
L 442.29152 316.526319 
L 444.418142 344.915144 
L 446.544764 367.011857 
L 448.671385 285.040982 
L 450.798007 339.490055 
L 452.924628 365.649391 
L 455.05125 295.247087 
L 457.177872 322.595484 
L 459.304493 335.229254 
L 461.431115 306.766112 
L 463.557736 294.058026 
L 465.684358 291.357867 
L 467.81098 297.080222 
L 469.937601 296.436147 
L 472.064223 321.579828 
L 474.190845 341.298418 
L 476.317466 299.978557 
L 478.444088 282.365595 
L 480.570709 285.685056 
L 482.697331 298.962901 
L 484.823953 284.322591 
L 486.950574 368.324778 
L 489.077196 338.994613 
L 491.203818 272.085174 
L 493.330439 285.065754 
L 495.457061 260.59092 
L 497.583682 263.514028 
L 499.710304 279.888385 
L 501.836926 323.512051 
L 503.963547 338.37531 
L 506.090169 212.087151 
L 508.216791 184.342401 
L 510.343412 187.463685 
L 512.470034 195.638478 
L 514.596655 205.423457 
L 516.723277 303.050298 
L 518.849899 324.057037 
L 520.97652 195.638478 
L 523.103142 363.791484 
L 525.229764 175.399673 
L 527.356385 164.177912 
L 529.483007 196.777994 
L 531.609628 302.232818 
L 533.73625 315.485891 
L 535.862872 195.762338 
L 537.989493 220.559209 
L 540.116115 170.073672 
L 542.242736 164.871531 
L 544.369358 228.783546 
L 546.49598 311.522355 
L 548.622601 178.496185 
L 550.749223 208.222704 
L 552.875845 189.618858 
L 555.002466 178.644818 
L 557.129088 187.983899 
L 559.255709 219.939907 
L 561.382331 309.590132 
L 563.508953 314.495007 
L 565.635574 218.775618 
L 567.762196 219.518781 
L 569.888818 192.59151 
L 572.015439 198.239548 
L 574.142061 239.658497 
L 576.268682 324.007493 
L 578.395304 336.963301 
L 580.521926 234.183863 
L 582.648547 198.412953 
L 584.775169 198.412953 
L 586.901791 206.29048 
L 589.028412 229.155127 
L 591.155034 311.10123 
L 593.281655 332.974993 
L 595.408277 228.015611 
L 597.534899 209.486081 
L 599.66152 206.934555 
L 601.788142 202.772842 
L 603.914764 234.704077 
L 606.041385 314.940905 
L 608.168007 316.600636 
L 610.294628 229.155127 
L 612.42125 215.555245 
L 614.547872 225.191591 
L 616.674493 368.522955 
L 618.801115 224.94387 
L 620.927736 314.841817 
L 623.054358 331.439123 
L 625.18098 238.172171 
L 627.307601 201.732414 
L 629.434223 222.491433 
L 631.560845 196.827538 
L 633.687466 327.054461 
L 635.814088 330.051885 
L 637.940709 334.461319 
L 640.067331 297.947245 
L 642.193953 287.320015 
L 644.320574 283.851921 
L 646.447196 304.412763 
L 648.573818 298.938129 
L 652.827061 334.064965 
L 654.953682 205.101419 
L 657.080304 191.030867 
L 659.206926 182.187228 
L 661.333547 172.848147 
L 663.460169 215.877282 
L 665.586791 306.567936 
L 667.713412 319.895325 
L 669.840034 211.121039 
L 671.966655 189.123416 
L 674.093277 178.174148 
L 676.219899 181.964279 
L 678.34652 206.860238 
L 680.473142 294.999366 
L 682.599764 316.551091 
L 684.726385 222.194168 
L 686.853007 174.235384 
L 688.979628 220.385804 
L 691.10625 186.472801 
L 693.232872 211.220128 
L 695.359493 366.367782 
L 697.486115 340.158902 
L 699.612736 267.973006 
L 701.739358 253.902454 
L 703.86598 254.967654 
L 705.992601 242.705465 
L 708.119223 279.665436 
L 710.245845 311.200318 
L 712.372466 326.261754 
L 714.499088 326.955373 
L 716.625709 322.768888 
L 718.752331 258.881646 
L 720.878953 255.364008 
L 723.005574 268.295043 
L 725.132196 346.178522 
L 727.258818 329.878481 
L 729.385439 286.329131 
L 731.512061 275.949622 
L 733.638682 252.143635 
L 735.765304 242.383428 
L 737.891926 280.408599 
L 740.018547 307.137694 
L 742.145169 335.898101 
L 744.271791 281.795837 
L 746.398412 260.095479 
L 748.525034 255.116287 
L 750.651655 234.010459 
L 752.778277 283.455568 
L 754.904899 310.556244 
L 757.03152 322.100042 
L 759.158142 295.816845 
L 761.284764 264.975582 
L 763.411385 274.215575 
L 765.538007 276.123026 
L 767.664628 308.425843 
L 769.79125 368.399094 
L 771.917872 346.228066 
L 774.044493 307.930401 
L 776.171115 298.318827 
L 778.297736 294.553468 
L 780.424358 293.785533 
L 782.55098 309.56536 
L 784.677601 345.361042 
L 786.804223 334.907217 
L 788.930845 309.268094 
L 791.057466 298.888585 
L 793.184088 302.530084 
L 795.310709 298.71518 
L 797.437331 315.560208 
L 799.563953 343.181098 
L 801.690574 367.928424 
L 803.817196 315.064766 
L 805.943818 301.06853 
L 808.070439 311.324179 
L 810.197061 322.298218 
L 812.323682 322.620256 
L 814.450304 343.626995 
L 816.576926 359.902264 
L 818.703547 328.268294 
L 820.830169 336.814668 
L 822.956791 350.860448 
L 825.083412 355.517603 
L 827.210034 356.954384 
L 829.336655 347.912568 
L 831.463277 349.473211 
L 833.589899 359.753632 
L 833.589899 359.753632 
" clip-path="url(#pb0fdf55e96)" style="fill: none; stroke: #83c966; stroke-opacity: 0.8; stroke-width: 2.5; stroke-linecap: square"/>
   </g>
   <g id="patch_3">
    <path d="M 61.62625 384.1975 
L 61.62625 39.3575 
" style="fill: none; stroke: #000000; stroke-width: 0.8; stroke-linejoin: miter; stroke-linecap: square"/>
   </g>
   <g id="patch_4">
    <path d="M 61.62625 384.1975 
L 848.47625 384.1975 
" style="fill: none; stroke: #000000; stroke-width: 0.8; stroke-linejoin: miter; stroke-linecap: square"/>
   </g>
   <g id="text_23">
    <!-- Pedestrian Traffic at Monash Rd-Swanston St (West) -->
    <g transform="translate(247.84375 19.3575) scale(0.16 -0.16)">
     <defs>
      <path id="DejaVuSans-50" d="M 1259 4147 
L 1259 2394 
L 2053 2394 
Q 2494 2394 2734 2622 
Q 2975 2850 2975 3272 
Q 2975 3691 2734 3919 
Q 2494 4147 2053 4147 
L 1259 4147 
z
M 628 4666 
L 2053 4666 
Q 2838 4666 3239 4311 
Q 3641 3956 3641 3272 
Q 3641 2581 3239 2228 
Q 2838 1875 2053 1875 
L 1259 1875 
L 1259 0 
L 628 0 
L 628 4666 
z
" transform="scale(0.015625)"/>
      <path id="DejaVuSans-54" d="M -19 4666 
L 3928 4666 
L 3928 4134 
L 2272 4134 
L 2272 0 
L 1638 0 
L 1638 4134 
L -19 4134 
L -19 4666 
z
" transform="scale(0.015625)"/>
      <path id="DejaVuSans-52" d="M 2841 2188 
Q 3044 2119 3236 1894 
Q 3428 1669 3622 1275 
L 4263 0 
L 3584 0 
L 2988 1197 
Q 2756 1666 2539 1819 
Q 2322 1972 1947 1972 
L 1259 1972 
L 1259 0 
L 628 0 
L 628 4666 
L 2053 4666 
Q 2853 4666 3247 4331 
Q 3641 3997 3641 3322 
Q 3641 2881 3436 2590 
Q 3231 2300 2841 2188 
z
M 1259 4147 
L 1259 2491 
L 2053 2491 
Q 2509 2491 2742 2702 
Q 2975 2913 2975 3322 
Q 2975 3731 2742 3939 
Q 2509 4147 2053 4147 
L 1259 4147 
z
" transform="scale(0.015625)"/>
      <path id="DejaVuSans-2d" d="M 313 2009 
L 1997 2009 
L 1997 1497 
L 313 1497 
L 313 2009 
z
" transform="scale(0.015625)"/>
      <path id="DejaVuSans-77" d="M 269 3500 
L 844 3500 
L 1563 769 
L 2278 3500 
L 2956 3500 
L 3675 769 
L 4391 3500 
L 4966 3500 
L 4050 0 
L 3372 0 
L 2619 2869 
L 1863 0 
L 1184 0 
L 269 3500 
z
" transform="scale(0.015625)"/>
      <path id="DejaVuSans-28" d="M 1984 4856 
Q 1566 4138 1362 3434 
Q 1159 2731 1159 2009 
Q 1159 1288 1364 580 
Q 1569 -128 1984 -844 
L 1484 -844 
Q 1016 -109 783 600 
Q 550 1309 550 2009 
Q 550 2706 781 3412 
Q 1013 4119 1484 4856 
L 1984 4856 
z
" transform="scale(0.015625)"/>
      <path id="DejaVuSans-57" d="M 213 4666 
L 850 4666 
L 1831 722 
L 2809 4666 
L 3519 4666 
L 4500 722 
L 5478 4666 
L 6119 4666 
L 4947 0 
L 4153 0 
L 3169 4050 
L 2175 0 
L 1381 0 
L 213 4666 
z
" transform="scale(0.015625)"/>
      <path id="DejaVuSans-29" d="M 513 4856 
L 1013 4856 
Q 1481 4119 1714 3412 
Q 1947 2706 1947 2009 
Q 1947 1309 1714 600 
Q 1481 -109 1013 -844 
L 513 -844 
Q 928 -128 1133 580 
Q 1338 1288 1338 2009 
Q 1338 2731 1133 3434 
Q 928 4138 513 4856 
z
" transform="scale(0.015625)"/>
     </defs>
     <use xlink:href="#DejaVuSans-50"/>
     <use xlink:href="#DejaVuSans-65" transform="translate(56.677734 0)"/>
     <use xlink:href="#DejaVuSans-64" transform="translate(118.201172 0)"/>
     <use xlink:href="#DejaVuSans-65" transform="translate(181.677734 0)"/>
     <use xlink:href="#DejaVuSans-73" transform="translate(243.201172 0)"/>
     <use xlink:href="#DejaVuSans-74" transform="translate(295.300781 0)"/>
     <use xlink:href="#DejaVuSans-72" transform="translate(334.509766 0)"/>
     <use xlink:href="#DejaVuSans-69" transform="translate(375.623047 0)"/>
     <use xlink:href="#DejaVuSans-61" transform="translate(403.40625 0)"/>
     <use xlink:href="#DejaVuSans-6e" transform="translate(464.685547 0)"/>
     <use xlink:href="#DejaVuSans-20" transform="translate(528.064453 0)"/>
     <use xlink:href="#DejaVuSans-54" transform="translate(559.851562 0)"/>
     <use xlink:href="#DejaVuSans-72" transform="translate(606.185547 0)"/>
     <use xlink:href="#DejaVuSans-61" transform="translate(647.298828 0)"/>
     <use xlink:href="#DejaVuSans-66" transform="translate(708.578125 0)"/>
     <use xlink:href="#DejaVuSans-66" transform="translate(743.783203 0)"/>
     <use xlink:href="#DejaVuSans-69" transform="translate(778.988281 0)"/>
     <use xlink:href="#DejaVuSans-63" transform="translate(806.771484 0)"/>
     <use xlink:href="#DejaVuSans-20" transform="translate(861.751953 0)"/>
     <use xlink:href="#DejaVuSans-61" transform="translate(893.539062 0)"/>
     <use xlink:href="#DejaVuSans-74" transform="translate(954.818359 0)"/>
     <use xlink:href="#DejaVuSans-20" transform="translate(994.027344 0)"/>
     <use xlink:href="#DejaVuSans-4d" transform="translate(1025.814453 0)"/>
     <use xlink:href="#DejaVuSans-6f" transform="translate(1112.09375 0)"/>
     <use xlink:href="#DejaVuSans-6e" transform="translate(1173.275391 0)"/>
     <use xlink:href="#DejaVuSans-61" transform="translate(1236.654297 0)"/>
     <use xlink:href="#DejaVuSans-73" transform="translate(1297.933594 0)"/>
     <use xlink:href="#DejaVuSans-68" transform="translate(1350.033203 0)"/>
     <use xlink:href="#DejaVuSans-20" transform="translate(1413.412109 0)"/>
     <use xlink:href="#DejaVuSans-52" transform="translate(1445.199219 0)"/>
     <use xlink:href="#DejaVuSans-64" transform="translate(1514.681641 0)"/>
     <use xlink:href="#DejaVuSans-2d" transform="translate(1578.158203 0)"/>
     <use xlink:href="#DejaVuSans-53" transform="translate(1614.242188 0)"/>
     <use xlink:href="#DejaVuSans-77" transform="translate(1677.71875 0)"/>
     <use xlink:href="#DejaVuSans-61" transform="translate(1759.505859 0)"/>
     <use xlink:href="#DejaVuSans-6e" transform="translate(1820.785156 0)"/>
     <use xlink:href="#DejaVuSans-73" transform="translate(1884.164062 0)"/>
     <use xlink:href="#DejaVuSans-74" transform="translate(1936.263672 0)"/>
     <use xlink:href="#DejaVuSans-6f" transform="translate(1975.472656 0)"/>
     <use xlink:href="#DejaVuSans-6e" transform="translate(2036.654297 0)"/>
     <use xlink:href="#DejaVuSans-20" transform="translate(2100.033203 0)"/>
     <use xlink:href="#DejaVuSans-53" transform="translate(2131.820312 0)"/>
     <use xlink:href="#DejaVuSans-74" transform="translate(2195.296875 0)"/>
     <use xlink:href="#DejaVuSans-20" transform="translate(2234.505859 0)"/>
     <use xlink:href="#DejaVuSans-28" transform="translate(2266.292969 0)"/>
     <use xlink:href="#DejaVuSans-57" transform="translate(2305.306641 0)"/>
     <use xlink:href="#DejaVuSans-65" transform="translate(2398.308594 0)"/>
     <use xlink:href="#DejaVuSans-73" transform="translate(2459.832031 0)"/>
     <use xlink:href="#DejaVuSans-74" transform="translate(2511.931641 0)"/>
     <use xlink:href="#DejaVuSans-29" transform="translate(2551.140625 0)"/>
    </g>
   </g>
   <g id="legend_1">
    <g id="patch_5">
     <path d="M 69.32625 80.449375 
L 132.52125 80.449375 
Q 134.72125 80.449375 134.72125 78.249375 
L 134.72125 47.0575 
Q 134.72125 44.8575 132.52125 44.8575 
L 69.32625 44.8575 
Q 67.12625 44.8575 67.12625 47.0575 
L 67.12625 78.249375 
Q 67.12625 80.449375 69.32625 80.449375 
z
" style="fill: #ffffff; opacity: 0.95; stroke: #cccccc; stroke-linejoin: miter"/>
    </g>
    <g id="line2d_43">
     <path d="M 71.52625 53.765781 
L 82.52625 53.765781 
L 93.52625 53.765781 
" style="fill: none; stroke: #0d6efc; stroke-opacity: 0.8; stroke-width: 2.5; stroke-linecap: square"/>
    </g>
    <g id="text_24">
     <!-- 2019 -->
     <g transform="translate(102.32625 57.615781) scale(0.11 -0.11)">
      <defs>
       <path id="DejaVuSans-39" d="M 703 97 
L 703 672 
Q 941 559 1184 500 
Q 1428 441 1663 441 
Q 2288 441 2617 861 
Q 2947 1281 2994 2138 
Q 2813 1869 2534 1725 
Q 2256 1581 1919 1581 
Q 1219 1581 811 2004 
Q 403 2428 403 3163 
Q 403 3881 828 4315 
Q 1253 4750 1959 4750 
Q 2769 4750 3195 4129 
Q 3622 3509 3622 2328 
Q 3622 1225 3098 567 
Q 2575 -91 1691 -91 
Q 1453 -91 1209 -44 
Q 966 3 703 97 
z
M 1959 2075 
Q 2384 2075 2632 2365 
Q 2881 2656 2881 3163 
Q 2881 3666 2632 3958 
Q 2384 4250 1959 4250 
Q 1534 4250 1286 3958 
Q 1038 3666 1038 3163 
Q 1038 2656 1286 2365 
Q 1534 2075 1959 2075 
z
" transform="scale(0.015625)"/>
      </defs>
      <use xlink:href="#DejaVuSans-32"/>
      <use xlink:href="#DejaVuSans-30" transform="translate(63.623047 0)"/>
      <use xlink:href="#DejaVuSans-31" transform="translate(127.246094 0)"/>
      <use xlink:href="#DejaVuSans-39" transform="translate(190.869141 0)"/>
     </g>
    </g>
    <g id="line2d_44">
     <path d="M 71.52625 69.911719 
L 82.52625 69.911719 
L 93.52625 69.911719 
" style="fill: none; stroke: #83c966; stroke-opacity: 0.8; stroke-width: 2.5; stroke-linecap: square"/>
    </g>
    <g id="text_25">
     <!-- 2025 -->
     <g transform="translate(102.32625 73.761719) scale(0.11 -0.11)">
      <defs>
       <path id="DejaVuSans-35" d="M 691 4666 
L 3169 4666 
L 3169 4134 
L 1269 4134 
L 1269 2991 
Q 1406 3038 1543 3061 
Q 1681 3084 1819 3084 
Q 2600 3084 3056 2656 
Q 3513 2228 3513 1497 
Q 3513 744 3044 326 
Q 2575 -91 1722 -91 
Q 1428 -91 1123 -41 
Q 819 9 494 109 
L 494 744 
Q 775 591 1075 516 
Q 1375 441 1709 441 
Q 2250 441 2565 725 
Q 2881 1009 2881 1497 
Q 2881 1984 2565 2268 
Q 2250 2553 1709 2553 
Q 1456 2553 1204 2497 
Q 953 2441 691 2322 
L 691 4666 
z
" transform="scale(0.015625)"/>
      </defs>
      <use xlink:href="#DejaVuSans-32"/>
      <use xlink:href="#DejaVuSans-30" transform="translate(63.623047 0)"/>
      <use xlink:href="#DejaVuSans-32" transform="translate(127.246094 0)"/>
      <use xlink:href="#DejaVuSans-35" transform="translate(190.869141 0)"/>
     </g>
    </g>
   </g>
  </g>
 </g>
 <defs>
  <clipPath id="pb0fdf55e96">
   <rect x="61.62625" y="39.3575" width="786.85" height="344.84"/>
  </clipPath>
 </defs>
</svg>
