<?xml version="1.0" encoding="utf-8" standalone="no"?>
<!DOCTYPE svg PUBLIC "-//W3C//DTD SVG 1.1//EN"
  "http://www.w3.org/Graphics/SVG/1.1/DTD/svg11.dtd">
<svg xmlns:xlink="http://www.w3.org/1999/xlink" width="711.521791pt" height="423.689375pt" viewBox="0 0 711.521791 423.689375" xmlns="http://www.w3.org/2000/svg" version="1.1">
 <metadata>
  <rdf:RDF xmlns:dc="http://purl.org/dc/elements/1.1/" xmlns:cc="http://creativecommons.org/ns#" xmlns:rdf="http://www.w3.org/1999/02/22-rdf-syntax-ns#">
   <cc:Work>
    <dc:type rdf:resource="http://purl.org/dc/dcmitype/StillImage"/>
    <dc:date>2026-01-28T17:49:45.237409</dc:date>
    <dc:format>image/svg+xml</dc:format>
    <dc:creator>
     <cc:Agent>
      <dc:title>Matplotlib v3.10.8, https://matplotlib.org/</dc:title>
     </cc:Agent>
    </dc:creator>
   </cc:Work>
  </rdf:RDF>
 </metadata>
 <defs>
  <style type="text/css">*{stroke-linejoin: round; stroke-linecap: butt}</style>
 </defs>
 <g id="figure_1">
  <g id="patch_1">
   <path d="M 0 423.689375 
L 711.521791 423.689375 
L 711.521791 0 
L 0 0 
L 0 423.689375 
z
" style="fill: none"/>
  </g>
  <g id="axes_1">
   <g id="patch_2">
    <path d="M 61.62625 384.1975 
L 704.321791 384.1975 
L 704.321791 39.3575 
L 61.62625 39.3575 
L 61.62625 384.1975 
z
" style="fill: none"/>
   </g>
   <g id="matplotlib.axis_1">
    <g id="xtick_1">
     <g id="line2d_1">
      <path d="M 61.62625 384.1975 
L 61.62625 39.3575 
" clip-path="url(#p27e18d34ec)" style="fill: none; stroke-dasharray: 2.96,1.28; stroke-dashoffset: 0; stroke: #b0b0b0; stroke-opacity: 0.3; stroke-width: 0.8"/>
     </g>
     <g id="line2d_2">
      <defs>
       <path id="mc185700ad3" d="M 0 0 
L 0 3.5 
" style="stroke: #000000; stroke-width: 0.8"/>
      </defs>
      <g>
       <use xlink:href="#mc185700ad3" x="61.62625" y="384.1975" style="stroke: #000000; stroke-width: 0.8"/>
      </g>
     </g>
     <g id="text_1">
      <!-- Jan -->
      <g transform="translate(53.918438 398.795937) scale(0.1 -0.1)">
       <defs>
        <path id="DejaVuSans-4a" d="M 628 4666 
L 1259 4666 
L 1259 325 
Q 1259 -519 939 -900 
Q 619 -1281 -91 -1281 
L -331 -1281 
L -331 -750 
L -134 -750 
Q 284 -750 456 -515 
Q 628 -281 628 325 
L 628 4666 
z
" transform="scale(0.015625)"/>
        <path id="DejaVuSans-61" d="M 2194 1759 
Q 1497 1759 1228 1600 
Q 959 1441 959 1056 
Q 959 750 1161 570 
Q 1363 391 1709 391 
Q 2188 391 2477 730 
Q 2766 1069 2766 1631 
L 2766 1759 
L 2194 1759 
z
M 3341 1997 
L 3341 0 
L 2766 0 
L 2766 531 
Q 2569 213 2275 61 
Q 1981 -91 1556 -91 
Q 1019 -91 701 211 
Q 384 513 384 1019 
Q 384 1609 779 1909 
Q 1175 2209 1959 2209 
L 2766 2209 
L 2766 2266 
Q 2766 2663 2505 2880 
Q 2244 3097 1772 3097 
Q 1472 3097 1187 3025 
Q 903 2953 641 2809 
L 641 3341 
Q 956 3463 1253 3523 
Q 1550 3584 1831 3584 
Q 2591 3584 2966 3190 
Q 3341 2797 3341 1997 
z
" transform="scale(0.015625)"/>
        <path id="DejaVuSans-6e" d="M 3513 2113 
L 3513 0 
L 2938 0 
L 2938 2094 
Q 2938 2591 2744 2837 
Q 2550 3084 2163 3084 
Q 1697 3084 1428 2787 
Q 1159 2491 1159 1978 
L 1159 0 
L 581 0 
L 581 3500 
L 1159 3500 
L 1159 2956 
Q 1366 3272 1645 3428 
Q 1925 3584 2291 3584 
Q 2894 3584 3203 3211 
Q 3513 2838 3513 2113 
z
" transform="scale(0.015625)"/>
       </defs>
       <use xlink:href="#DejaVuSans-4a"/>
       <use xlink:href="#DejaVuSans-61" transform="translate(29.492188 0)"/>
       <use xlink:href="#DejaVuSans-6e" transform="translate(90.771484 0)"/>
      </g>
     </g>
    </g>
    <g id="xtick_2">
     <g id="line2d_3">
      <path d="M 115.473714 384.1975 
L 115.473714 39.3575 
" clip-path="url(#p27e18d34ec)" style="fill: none; stroke-dasharray: 2.96,1.28; stroke-dashoffset: 0; stroke: #b0b0b0; stroke-opacity: 0.3; stroke-width: 0.8"/>
     </g>
     <g id="line2d_4">
      <g>
       <use xlink:href="#mc185700ad3" x="115.473714" y="384.1975" style="stroke: #000000; stroke-width: 0.8"/>
      </g>
     </g>
     <g id="text_2">
      <!-- Feb -->
      <g transform="translate(106.622152 398.795937) scale(0.1 -0.1)">
       <defs>
        <path id="DejaVuSans-46" d="M 628 4666 
L 3309 4666 
L 3309 4134 
L 1259 4134 
L 1259 2759 
L 3109 2759 
L 3109 2228 
L 1259 2228 
L 1259 0 
L 628 0 
L 628 4666 
z
" transform="scale(0.015625)"/>
        <path id="DejaVuSans-65" d="M 3597 1894 
L 3597 1613 
L 953 1613 
Q 991 1019 1311 708 
Q 1631 397 2203 397 
Q 2534 397 2845 478 
Q 3156 559 3463 722 
L 3463 178 
Q 3153 47 2828 -22 
Q 2503 -91 2169 -91 
Q 1331 -91 842 396 
Q 353 884 353 1716 
Q 353 2575 817 3079 
Q 1281 3584 2069 3584 
Q 2775 3584 3186 3129 
Q 3597 2675 3597 1894 
z
M 3022 2063 
Q 3016 2534 2758 2815 
Q 2500 3097 2075 3097 
Q 1594 3097 1305 2825 
Q 1016 2553 972 2059 
L 3022 2063 
z
" transform="scale(0.015625)"/>
        <path id="DejaVuSans-62" d="M 3116 1747 
Q 3116 2381 2855 2742 
Q 2594 3103 2138 3103 
Q 1681 3103 1420 2742 
Q 1159 2381 1159 1747 
Q 1159 1113 1420 752 
Q 1681 391 2138 391 
Q 2594 391 2855 752 
Q 3116 1113 3116 1747 
z
M 1159 2969 
Q 1341 3281 1617 3432 
Q 1894 3584 2278 3584 
Q 2916 3584 3314 3078 
Q 3713 2572 3713 1747 
Q 3713 922 3314 415 
Q 2916 -91 2278 -91 
Q 1894 -91 1617 61 
Q 1341 213 1159 525 
L 1159 0 
L 581 0 
L 581 4863 
L 1159 4863 
L 1159 2969 
z
" transform="scale(0.015625)"/>
       </defs>
       <use xlink:href="#DejaVuSans-46"/>
       <use xlink:href="#DejaVuSans-65" transform="translate(52.019531 0)"/>
       <use xlink:href="#DejaVuSans-62" transform="translate(113.542969 0)"/>
      </g>
     </g>
    </g>
    <g id="xtick_3">
     <g id="line2d_5">
      <path d="M 164.110133 384.1975 
L 164.110133 39.3575 
" clip-path="url(#p27e18d34ec)" style="fill: none; stroke-dasharray: 2.96,1.28; stroke-dashoffset: 0; stroke: #b0b0b0; stroke-opacity: 0.3; stroke-width: 0.8"/>
     </g>
     <g id="line2d_6">
      <g>
       <use xlink:href="#mc185700ad3" x="164.110133" y="384.1975" style="stroke: #000000; stroke-width: 0.8"/>
      </g>
     </g>
     <g id="text_3">
      <!-- Mar -->
      <g transform="translate(154.67654 398.795937) scale(0.1 -0.1)">
       <defs>
        <path id="DejaVuSans-4d" d="M 628 4666 
L 1569 4666 
L 2759 1491 
L 3956 4666 
L 4897 4666 
L 4897 0 
L 4281 0 
L 4281 4097 
L 3078 897 
L 2444 897 
L 1241 4097 
L 1241 0 
L 628 0 
L 628 4666 
z
" transform="scale(0.015625)"/>
        <path id="DejaVuSans-72" d="M 2631 2963 
Q 2534 3019 2420 3045 
Q 2306 3072 2169 3072 
Q 1681 3072 1420 2755 
Q 1159 2438 1159 1844 
L 1159 0 
L 581 0 
L 581 3500 
L 1159 3500 
L 1159 2956 
Q 1341 3275 1631 3429 
Q 1922 3584 2338 3584 
Q 2397 3584 2469 3576 
Q 2541 3569 2628 3553 
L 2631 2963 
z
" transform="scale(0.015625)"/>
       </defs>
       <use xlink:href="#DejaVuSans-4d"/>
       <use xlink:href="#DejaVuSans-61" transform="translate(86.279297 0)"/>
       <use xlink:href="#DejaVuSans-72" transform="translate(147.558594 0)"/>
      </g>
     </g>
    </g>
    <g id="xtick_4">
     <g id="line2d_7">
      <path d="M 217.957598 384.1975 
L 217.957598 39.3575 
" clip-path="url(#p27e18d34ec)" style="fill: none; stroke-dasharray: 2.96,1.28; stroke-dashoffset: 0; stroke: #b0b0b0; stroke-opacity: 0.3; stroke-width: 0.8"/>
     </g>
     <g id="line2d_8">
      <g>
       <use xlink:href="#mc185700ad3" x="217.957598" y="384.1975" style="stroke: #000000; stroke-width: 0.8"/>
      </g>
     </g>
     <g id="text_4">
      <!-- Apr -->
      <g transform="translate(209.307598 398.795937) scale(0.1 -0.1)">
       <defs>
        <path id="DejaVuSans-41" d="M 2188 4044 
L 1331 1722 
L 3047 1722 
L 2188 4044 
z
M 1831 4666 
L 2547 4666 
L 4325 0 
L 3669 0 
L 3244 1197 
L 1141 1197 
L 716 0 
L 50 0 
L 1831 4666 
z
" transform="scale(0.015625)"/>
        <path id="DejaVuSans-70" d="M 1159 525 
L 1159 -1331 
L 581 -1331 
L 581 3500 
L 1159 3500 
L 1159 2969 
Q 1341 3281 1617 3432 
Q 1894 3584 2278 3584 
Q 2916 3584 3314 3078 
Q 3713 2572 3713 1747 
Q 3713 922 3314 415 
Q 2916 -91 2278 -91 
Q 1894 -91 1617 61 
Q 1341 213 1159 525 
z
M 3116 1747 
Q 3116 2381 2855 2742 
Q 2594 3103 2138 3103 
Q 1681 3103 1420 2742 
Q 1159 2381 1159 1747 
Q 1159 1113 1420 752 
Q 1681 391 2138 391 
Q 2594 391 2855 752 
Q 3116 1113 3116 1747 
z
" transform="scale(0.015625)"/>
       </defs>
       <use xlink:href="#DejaVuSans-41"/>
       <use xlink:href="#DejaVuSans-70" transform="translate(68.408203 0)"/>
       <use xlink:href="#DejaVuSans-72" transform="translate(131.884766 0)"/>
      </g>
     </g>
    </g>
    <g id="xtick_5">
     <g id="line2d_9">
      <path d="M 270.068047 384.1975 
L 270.068047 39.3575 
" clip-path="url(#p27e18d34ec)" style="fill: none; stroke-dasharray: 2.96,1.28; stroke-dashoffset: 0; stroke: #b0b0b0; stroke-opacity: 0.3; stroke-width: 0.8"/>
     </g>
     <g id="line2d_10">
      <g>
       <use xlink:href="#mc185700ad3" x="270.068047" y="384.1975" style="stroke: #000000; stroke-width: 0.8"/>
      </g>
     </g>
     <g id="text_5">
      <!-- May -->
      <g transform="translate(259.730547 398.795937) scale(0.1 -0.1)">
       <defs>
        <path id="DejaVuSans-79" d="M 2059 -325 
Q 1816 -950 1584 -1140 
Q 1353 -1331 966 -1331 
L 506 -1331 
L 506 -850 
L 844 -850 
Q 1081 -850 1212 -737 
Q 1344 -625 1503 -206 
L 1606 56 
L 191 3500 
L 800 3500 
L 1894 763 
L 2988 3500 
L 3597 3500 
L 2059 -325 
z
" transform="scale(0.015625)"/>
       </defs>
       <use xlink:href="#DejaVuSans-4d"/>
       <use xlink:href="#DejaVuSans-61" transform="translate(86.279297 0)"/>
       <use xlink:href="#DejaVuSans-79" transform="translate(147.558594 0)"/>
      </g>
     </g>
    </g>
    <g id="xtick_6">
     <g id="line2d_11">
      <path d="M 323.915511 384.1975 
L 323.915511 39.3575 
" clip-path="url(#p27e18d34ec)" style="fill: none; stroke-dasharray: 2.96,1.28; stroke-dashoffset: 0; stroke: #b0b0b0; stroke-opacity: 0.3; stroke-width: 0.8"/>
     </g>
     <g id="line2d_12">
      <g>
       <use xlink:href="#mc185700ad3" x="323.915511" y="384.1975" style="stroke: #000000; stroke-width: 0.8"/>
      </g>
     </g>
     <g id="text_6">
      <!-- Jun -->
      <g transform="translate(316.103011 398.795937) scale(0.1 -0.1)">
       <defs>
        <path id="DejaVuSans-75" d="M 544 1381 
L 544 3500 
L 1119 3500 
L 1119 1403 
Q 1119 906 1312 657 
Q 1506 409 1894 409 
Q 2359 409 2629 706 
Q 2900 1003 2900 1516 
L 2900 3500 
L 3475 3500 
L 3475 0 
L 2900 0 
L 2900 538 
Q 2691 219 2414 64 
Q 2138 -91 1772 -91 
Q 1169 -91 856 284 
Q 544 659 544 1381 
z
M 1991 3584 
L 1991 3584 
z
" transform="scale(0.015625)"/>
       </defs>
       <use xlink:href="#DejaVuSans-4a"/>
       <use xlink:href="#DejaVuSans-75" transform="translate(29.492188 0)"/>
       <use xlink:href="#DejaVuSans-6e" transform="translate(92.871094 0)"/>
      </g>
     </g>
    </g>
    <g id="xtick_7">
     <g id="line2d_13">
      <path d="M 376.02596 384.1975 
L 376.02596 39.3575 
" clip-path="url(#p27e18d34ec)" style="fill: none; stroke-dasharray: 2.96,1.28; stroke-dashoffset: 0; stroke: #b0b0b0; stroke-opacity: 0.3; stroke-width: 0.8"/>
     </g>
     <g id="line2d_14">
      <g>
       <use xlink:href="#mc185700ad3" x="376.02596" y="384.1975" style="stroke: #000000; stroke-width: 0.8"/>
      </g>
     </g>
     <g id="text_7">
      <!-- Jul -->
      <g transform="translate(369.993148 398.795937) scale(0.1 -0.1)">
       <defs>
        <path id="DejaVuSans-6c" d="M 603 4863 
L 1178 4863 
L 1178 0 
L 603 0 
L 603 4863 
z
" transform="scale(0.015625)"/>
       </defs>
       <use xlink:href="#DejaVuSans-4a"/>
       <use xlink:href="#DejaVuSans-75" transform="translate(29.492188 0)"/>
       <use xlink:href="#DejaVuSans-6c" transform="translate(92.871094 0)"/>
      </g>
     </g>
    </g>
    <g id="xtick_8">
     <g id="line2d_15">
      <path d="M 429.873425 384.1975 
L 429.873425 39.3575 
" clip-path="url(#p27e18d34ec)" style="fill: none; stroke-dasharray: 2.96,1.28; stroke-dashoffset: 0; stroke: #b0b0b0; stroke-opacity: 0.3; stroke-width: 0.8"/>
     </g>
     <g id="line2d_16">
      <g>
       <use xlink:href="#mc185700ad3" x="429.873425" y="384.1975" style="stroke: #000000; stroke-width: 0.8"/>
      </g>
     </g>
     <g id="text_8">
      <!-- Aug -->
      <g transform="translate(420.110143 398.795937) scale(0.1 -0.1)">
       <defs>
        <path id="DejaVuSans-67" d="M 2906 1791 
Q 2906 2416 2648 2759 
Q 2391 3103 1925 3103 
Q 1463 3103 1205 2759 
Q 947 2416 947 1791 
Q 947 1169 1205 825 
Q 1463 481 1925 481 
Q 2391 481 2648 825 
Q 2906 1169 2906 1791 
z
M 3481 434 
Q 3481 -459 3084 -895 
Q 2688 -1331 1869 -1331 
Q 1566 -1331 1297 -1286 
Q 1028 -1241 775 -1147 
L 775 -588 
Q 1028 -725 1275 -790 
Q 1522 -856 1778 -856 
Q 2344 -856 2625 -561 
Q 2906 -266 2906 331 
L 2906 616 
Q 2728 306 2450 153 
Q 2172 0 1784 0 
Q 1141 0 747 490 
Q 353 981 353 1791 
Q 353 2603 747 3093 
Q 1141 3584 1784 3584 
Q 2172 3584 2450 3431 
Q 2728 3278 2906 2969 
L 2906 3500 
L 3481 3500 
L 3481 434 
z
" transform="scale(0.015625)"/>
       </defs>
       <use xlink:href="#DejaVuSans-41"/>
       <use xlink:href="#DejaVuSans-75" transform="translate(68.408203 0)"/>
       <use xlink:href="#DejaVuSans-67" transform="translate(131.787109 0)"/>
      </g>
     </g>
    </g>
    <g id="xtick_9">
     <g id="line2d_17">
      <path d="M 483.720889 384.1975 
L 483.720889 39.3575 
" clip-path="url(#p27e18d34ec)" style="fill: none; stroke-dasharray: 2.96,1.28; stroke-dashoffset: 0; stroke: #b0b0b0; stroke-opacity: 0.3; stroke-width: 0.8"/>
     </g>
     <g id="line2d_18">
      <g>
       <use xlink:href="#mc185700ad3" x="483.720889" y="384.1975" style="stroke: #000000; stroke-width: 0.8"/>
      </g>
     </g>
     <g id="text_9">
      <!-- Sep -->
      <g transform="translate(474.295889 398.795937) scale(0.1 -0.1)">
       <defs>
        <path id="DejaVuSans-53" d="M 3425 4513 
L 3425 3897 
Q 3066 4069 2747 4153 
Q 2428 4238 2131 4238 
Q 1616 4238 1336 4038 
Q 1056 3838 1056 3469 
Q 1056 3159 1242 3001 
Q 1428 2844 1947 2747 
L 2328 2669 
Q 3034 2534 3370 2195 
Q 3706 1856 3706 1288 
Q 3706 609 3251 259 
Q 2797 -91 1919 -91 
Q 1588 -91 1214 -16 
Q 841 59 441 206 
L 441 856 
Q 825 641 1194 531 
Q 1563 422 1919 422 
Q 2459 422 2753 634 
Q 3047 847 3047 1241 
Q 3047 1584 2836 1778 
Q 2625 1972 2144 2069 
L 1759 2144 
Q 1053 2284 737 2584 
Q 422 2884 422 3419 
Q 422 4038 858 4394 
Q 1294 4750 2059 4750 
Q 2388 4750 2728 4690 
Q 3069 4631 3425 4513 
z
" transform="scale(0.015625)"/>
       </defs>
       <use xlink:href="#DejaVuSans-53"/>
       <use xlink:href="#DejaVuSans-65" transform="translate(63.476562 0)"/>
       <use xlink:href="#DejaVuSans-70" transform="translate(125 0)"/>
      </g>
     </g>
    </g>
    <g id="xtick_10">
     <g id="line2d_19">
      <path d="M 535.831338 384.1975 
L 535.831338 39.3575 
" clip-path="url(#p27e18d34ec)" style="fill: none; stroke-dasharray: 2.96,1.28; stroke-dashoffset: 0; stroke: #b0b0b0; stroke-opacity: 0.3; stroke-width: 0.8"/>
     </g>
     <g id="line2d_20">
      <g>
       <use xlink:href="#mc185700ad3" x="535.831338" y="384.1975" style="stroke: #000000; stroke-width: 0.8"/>
      </g>
     </g>
     <g id="text_10">
      <!-- Oct -->
      <g transform="translate(527.186026 398.795937) scale(0.1 -0.1)">
       <defs>
        <path id="DejaVuSans-4f" d="M 2522 4238 
Q 1834 4238 1429 3725 
Q 1025 3213 1025 2328 
Q 1025 1447 1429 934 
Q 1834 422 2522 422 
Q 3209 422 3611 934 
Q 4013 1447 4013 2328 
Q 4013 3213 3611 3725 
Q 3209 4238 2522 4238 
z
M 2522 4750 
Q 3503 4750 4090 4092 
Q 4678 3434 4678 2328 
Q 4678 1225 4090 567 
Q 3503 -91 2522 -91 
Q 1538 -91 948 565 
Q 359 1222 359 2328 
Q 359 3434 948 4092 
Q 1538 4750 2522 4750 
z
" transform="scale(0.015625)"/>
        <path id="DejaVuSans-63" d="M 3122 3366 
L 3122 2828 
Q 2878 2963 2633 3030 
Q 2388 3097 2138 3097 
Q 1578 3097 1268 2742 
Q 959 2388 959 1747 
Q 959 1106 1268 751 
Q 1578 397 2138 397 
Q 2388 397 2633 464 
Q 2878 531 3122 666 
L 3122 134 
Q 2881 22 2623 -34 
Q 2366 -91 2075 -91 
Q 1284 -91 818 406 
Q 353 903 353 1747 
Q 353 2603 823 3093 
Q 1294 3584 2113 3584 
Q 2378 3584 2631 3529 
Q 2884 3475 3122 3366 
z
" transform="scale(0.015625)"/>
        <path id="DejaVuSans-74" d="M 1172 4494 
L 1172 3500 
L 2356 3500 
L 2356 3053 
L 1172 3053 
L 1172 1153 
Q 1172 725 1289 603 
Q 1406 481 1766 481 
L 2356 481 
L 2356 0 
L 1766 0 
Q 1100 0 847 248 
Q 594 497 594 1153 
L 594 3053 
L 172 3053 
L 172 3500 
L 594 3500 
L 594 4494 
L 1172 4494 
z
" transform="scale(0.015625)"/>
       </defs>
       <use xlink:href="#DejaVuSans-4f"/>
       <use xlink:href="#DejaVuSans-63" transform="translate(78.710938 0)"/>
       <use xlink:href="#DejaVuSans-74" transform="translate(133.691406 0)"/>
      </g>
     </g>
    </g>
    <g id="xtick_11">
     <g id="line2d_21">
      <path d="M 589.678802 384.1975 
L 589.678802 39.3575 
" clip-path="url(#p27e18d34ec)" style="fill: none; stroke-dasharray: 2.96,1.28; stroke-dashoffset: 0; stroke: #b0b0b0; stroke-opacity: 0.3; stroke-width: 0.8"/>
     </g>
     <g id="line2d_22">
      <g>
       <use xlink:href="#mc185700ad3" x="589.678802" y="384.1975" style="stroke: #000000; stroke-width: 0.8"/>
      </g>
     </g>
     <g id="text_11">
      <!-- Nov -->
      <g transform="translate(579.919427 398.795937) scale(0.1 -0.1)">
       <defs>
        <path id="DejaVuSans-4e" d="M 628 4666 
L 1478 4666 
L 3547 763 
L 3547 4666 
L 4159 4666 
L 4159 0 
L 3309 0 
L 1241 3903 
L 1241 0 
L 628 0 
L 628 4666 
z
" transform="scale(0.015625)"/>
        <path id="DejaVuSans-6f" d="M 1959 3097 
Q 1497 3097 1228 2736 
Q 959 2375 959 1747 
Q 959 1119 1226 758 
Q 1494 397 1959 397 
Q 2419 397 2687 759 
Q 2956 1122 2956 1747 
Q 2956 2369 2687 2733 
Q 2419 3097 1959 3097 
z
M 1959 3584 
Q 2709 3584 3137 3096 
Q 3566 2609 3566 1747 
Q 3566 888 3137 398 
Q 2709 -91 1959 -91 
Q 1206 -91 779 398 
Q 353 888 353 1747 
Q 353 2609 779 3096 
Q 1206 3584 1959 3584 
z
" transform="scale(0.015625)"/>
        <path id="DejaVuSans-76" d="M 191 3500 
L 800 3500 
L 1894 563 
L 2988 3500 
L 3597 3500 
L 2284 0 
L 1503 0 
L 191 3500 
z
" transform="scale(0.015625)"/>
       </defs>
       <use xlink:href="#DejaVuSans-4e"/>
       <use xlink:href="#DejaVuSans-6f" transform="translate(74.804688 0)"/>
       <use xlink:href="#DejaVuSans-76" transform="translate(135.986328 0)"/>
      </g>
     </g>
    </g>
    <g id="xtick_12">
     <g id="line2d_23">
      <path d="M 641.789251 384.1975 
L 641.789251 39.3575 
" clip-path="url(#p27e18d34ec)" style="fill: none; stroke-dasharray: 2.96,1.28; stroke-dashoffset: 0; stroke: #b0b0b0; stroke-opacity: 0.3; stroke-width: 0.8"/>
     </g>
     <g id="line2d_24">
      <g>
       <use xlink:href="#mc185700ad3" x="641.789251" y="384.1975" style="stroke: #000000; stroke-width: 0.8"/>
      </g>
     </g>
     <g id="text_12">
      <!-- Dec -->
      <g transform="translate(632.11347 398.795937) scale(0.1 -0.1)">
       <defs>
        <path id="DejaVuSans-44" d="M 1259 4147 
L 1259 519 
L 2022 519 
Q 2988 519 3436 956 
Q 3884 1394 3884 2338 
Q 3884 3275 3436 3711 
Q 2988 4147 2022 4147 
L 1259 4147 
z
M 628 4666 
L 1925 4666 
Q 3281 4666 3915 4102 
Q 4550 3538 4550 2338 
Q 4550 1131 3912 565 
Q 3275 0 1925 0 
L 628 0 
L 628 4666 
z
" transform="scale(0.015625)"/>
       </defs>
       <use xlink:href="#DejaVuSans-44"/>
       <use xlink:href="#DejaVuSans-65" transform="translate(77.001953 0)"/>
       <use xlink:href="#DejaVuSans-63" transform="translate(138.525391 0)"/>
      </g>
     </g>
    </g>
    <g id="xtick_13">
     <g id="line2d_25">
      <path d="M 695.636716 384.1975 
L 695.636716 39.3575 
" clip-path="url(#p27e18d34ec)" style="fill: none; stroke-dasharray: 2.96,1.28; stroke-dashoffset: 0; stroke: #b0b0b0; stroke-opacity: 0.3; stroke-width: 0.8"/>
     </g>
     <g id="line2d_26">
      <g>
       <use xlink:href="#mc185700ad3" x="695.636716" y="384.1975" style="stroke: #000000; stroke-width: 0.8"/>
      </g>
     </g>
     <g id="text_13">
      <!-- Jan -->
      <g transform="translate(687.928903 398.795937) scale(0.1 -0.1)">
       <use xlink:href="#DejaVuSans-4a"/>
       <use xlink:href="#DejaVuSans-61" transform="translate(29.492188 0)"/>
       <use xlink:href="#DejaVuSans-6e" transform="translate(90.771484 0)"/>
      </g>
     </g>
    </g>
    <g id="text_14">
     <!-- Day of the year -->
     <g transform="translate(336.388708 413.99375) scale(0.12 -0.12)">
      <defs>
       <path id="DejaVuSans-20" transform="scale(0.015625)"/>
       <path id="DejaVuSans-66" d="M 2375 4863 
L 2375 4384 
L 1825 4384 
Q 1516 4384 1395 4259 
Q 1275 4134 1275 3809 
L 1275 3500 
L 2222 3500 
L 2222 3053 
L 1275 3053 
L 1275 0 
L 697 0 
L 697 3053 
L 147 3053 
L 147 3500 
L 697 3500 
L 697 3744 
Q 697 4328 969 4595 
Q 1241 4863 1831 4863 
L 2375 4863 
z
" transform="scale(0.015625)"/>
       <path id="DejaVuSans-68" d="M 3513 2113 
L 3513 0 
L 2938 0 
L 2938 2094 
Q 2938 2591 2744 2837 
Q 2550 3084 2163 3084 
Q 1697 3084 1428 2787 
Q 1159 2491 1159 1978 
L 1159 0 
L 581 0 
L 581 4863 
L 1159 4863 
L 1159 2956 
Q 1366 3272 1645 3428 
Q 1925 3584 2291 3584 
Q 2894 3584 3203 3211 
Q 3513 2838 3513 2113 
z
" transform="scale(0.015625)"/>
      </defs>
      <use xlink:href="#DejaVuSans-44"/>
      <use xlink:href="#DejaVuSans-61" transform="translate(77.001953 0)"/>
      <use xlink:href="#DejaVuSans-79" transform="translate(138.28125 0)"/>
      <use xlink:href="#DejaVuSans-20" transform="translate(197.460938 0)"/>
      <use xlink:href="#DejaVuSans-6f" transform="translate(229.248047 0)"/>
      <use xlink:href="#DejaVuSans-66" transform="translate(290.429688 0)"/>
      <use xlink:href="#DejaVuSans-20" transform="translate(325.634766 0)"/>
      <use xlink:href="#DejaVuSans-74" transform="translate(357.421875 0)"/>
      <use xlink:href="#DejaVuSans-68" transform="translate(396.630859 0)"/>
      <use xlink:href="#DejaVuSans-65" transform="translate(460.009766 0)"/>
      <use xlink:href="#DejaVuSans-20" transform="translate(521.533203 0)"/>
      <use xlink:href="#DejaVuSans-79" transform="translate(553.320312 0)"/>
      <use xlink:href="#DejaVuSans-65" transform="translate(612.5 0)"/>
      <use xlink:href="#DejaVuSans-61" transform="translate(674.023438 0)"/>
      <use xlink:href="#DejaVuSans-72" transform="translate(735.302734 0)"/>
     </g>
    </g>
   </g>
   <g id="matplotlib.axis_2">
    <g id="ytick_1">
     <g id="line2d_27">
      <path d="M 61.62625 384.1975 
L 704.321791 384.1975 
" clip-path="url(#p27e18d34ec)" style="fill: none; stroke-dasharray: 2.96,1.28; stroke-dashoffset: 0; stroke: #b0b0b0; stroke-opacity: 0.3; stroke-width: 0.8"/>
     </g>
     <g id="line2d_28">
      <defs>
       <path id="m049d211c5d" d="M 0 0 
L -3.5 0 
" style="stroke: #000000; stroke-width: 0.8"/>
      </defs>
      <g>
       <use xlink:href="#m049d211c5d" x="61.62625" y="384.1975" style="stroke: #000000; stroke-width: 0.8"/>
      </g>
     </g>
     <g id="text_15">
      <!-- 0 -->
      <g transform="translate(48.26375 387.996719) scale(0.1 -0.1)">
       <defs>
        <path id="DejaVuSans-30" d="M 2034 4250 
Q 1547 4250 1301 3770 
Q 1056 3291 1056 2328 
Q 1056 1369 1301 889 
Q 1547 409 2034 409 
Q 2525 409 2770 889 
Q 3016 1369 3016 2328 
Q 3016 3291 2770 3770 
Q 2525 4250 2034 4250 
z
M 2034 4750 
Q 2819 4750 3233 4129 
Q 3647 3509 3647 2328 
Q 3647 1150 3233 529 
Q 2819 -91 2034 -91 
Q 1250 -91 836 529 
Q 422 1150 422 2328 
Q 422 3509 836 4129 
Q 1250 4750 2034 4750 
z
" transform="scale(0.015625)"/>
       </defs>
       <use xlink:href="#DejaVuSans-30"/>
      </g>
     </g>
    </g>
    <g id="ytick_2">
     <g id="line2d_29">
      <path d="M 61.62625 332.325285 
L 704.321791 332.325285 
" clip-path="url(#p27e18d34ec)" style="fill: none; stroke-dasharray: 2.96,1.28; stroke-dashoffset: 0; stroke: #b0b0b0; stroke-opacity: 0.3; stroke-width: 0.8"/>
     </g>
     <g id="line2d_30">
      <g>
       <use xlink:href="#m049d211c5d" x="61.62625" y="332.325285" style="stroke: #000000; stroke-width: 0.8"/>
      </g>
     </g>
     <g id="text_16">
      <!-- 2000 -->
      <g transform="translate(29.17625 336.124504) scale(0.1 -0.1)">
       <defs>
        <path id="DejaVuSans-32" d="M 1228 531 
L 3431 531 
L 3431 0 
L 469 0 
L 469 531 
Q 828 903 1448 1529 
Q 2069 2156 2228 2338 
Q 2531 2678 2651 2914 
Q 2772 3150 2772 3378 
Q 2772 3750 2511 3984 
Q 2250 4219 1831 4219 
Q 1534 4219 1204 4116 
Q 875 4013 500 3803 
L 500 4441 
Q 881 4594 1212 4672 
Q 1544 4750 1819 4750 
Q 2544 4750 2975 4387 
Q 3406 4025 3406 3419 
Q 3406 3131 3298 2873 
Q 3191 2616 2906 2266 
Q 2828 2175 2409 1742 
Q 1991 1309 1228 531 
z
" transform="scale(0.015625)"/>
       </defs>
       <use xlink:href="#DejaVuSans-32"/>
       <use xlink:href="#DejaVuSans-30" transform="translate(63.623047 0)"/>
       <use xlink:href="#DejaVuSans-30" transform="translate(127.246094 0)"/>
       <use xlink:href="#DejaVuSans-30" transform="translate(190.869141 0)"/>
      </g>
     </g>
    </g>
    <g id="ytick_3">
     <g id="line2d_31">
      <path d="M 61.62625 280.45307 
L 704.321791 280.45307 
" clip-path="url(#p27e18d34ec)" style="fill: none; stroke-dasharray: 2.96,1.28; stroke-dashoffset: 0; stroke: #b0b0b0; stroke-opacity: 0.3; stroke-width: 0.8"/>
     </g>
     <g id="line2d_32">
      <g>
       <use xlink:href="#m049d211c5d" x="61.62625" y="280.45307" style="stroke: #000000; stroke-width: 0.8"/>
      </g>
     </g>
     <g id="text_17">
      <!-- 4000 -->
      <g transform="translate(29.17625 284.252289) scale(0.1 -0.1)">
       <defs>
        <path id="DejaVuSans-34" d="M 2419 4116 
L 825 1625 
L 2419 1625 
L 2419 4116 
z
M 2253 4666 
L 3047 4666 
L 3047 1625 
L 3713 1625 
L 3713 1100 
L 3047 1100 
L 3047 0 
L 2419 0 
L 2419 1100 
L 313 1100 
L 313 1709 
L 2253 4666 
z
" transform="scale(0.015625)"/>
       </defs>
       <use xlink:href="#DejaVuSans-34"/>
       <use xlink:href="#DejaVuSans-30" transform="translate(63.623047 0)"/>
       <use xlink:href="#DejaVuSans-30" transform="translate(127.246094 0)"/>
       <use xlink:href="#DejaVuSans-30" transform="translate(190.869141 0)"/>
      </g>
     </g>
    </g>
    <g id="ytick_4">
     <g id="line2d_33">
      <path d="M 61.62625 228.580856 
L 704.321791 228.580856 
" clip-path="url(#p27e18d34ec)" style="fill: none; stroke-dasharray: 2.96,1.28; stroke-dashoffset: 0; stroke: #b0b0b0; stroke-opacity: 0.3; stroke-width: 0.8"/>
     </g>
     <g id="line2d_34">
      <g>
       <use xlink:href="#m049d211c5d" x="61.62625" y="228.580856" style="stroke: #000000; stroke-width: 0.8"/>
      </g>
     </g>
     <g id="text_18">
      <!-- 6000 -->
      <g transform="translate(29.17625 232.380074) scale(0.1 -0.1)">
       <defs>
        <path id="DejaVuSans-36" d="M 2113 2584 
Q 1688 2584 1439 2293 
Q 1191 2003 1191 1497 
Q 1191 994 1439 701 
Q 1688 409 2113 409 
Q 2538 409 2786 701 
Q 3034 994 3034 1497 
Q 3034 2003 2786 2293 
Q 2538 2584 2113 2584 
z
M 3366 4563 
L 3366 3988 
Q 3128 4100 2886 4159 
Q 2644 4219 2406 4219 
Q 1781 4219 1451 3797 
Q 1122 3375 1075 2522 
Q 1259 2794 1537 2939 
Q 1816 3084 2150 3084 
Q 2853 3084 3261 2657 
Q 3669 2231 3669 1497 
Q 3669 778 3244 343 
Q 2819 -91 2113 -91 
Q 1303 -91 875 529 
Q 447 1150 447 2328 
Q 447 3434 972 4092 
Q 1497 4750 2381 4750 
Q 2619 4750 2861 4703 
Q 3103 4656 3366 4563 
z
" transform="scale(0.015625)"/>
       </defs>
       <use xlink:href="#DejaVuSans-36"/>
       <use xlink:href="#DejaVuSans-30" transform="translate(63.623047 0)"/>
       <use xlink:href="#DejaVuSans-30" transform="translate(127.246094 0)"/>
       <use xlink:href="#DejaVuSans-30" transform="translate(190.869141 0)"/>
      </g>
     </g>
    </g>
    <g id="ytick_5">
     <g id="line2d_35">
      <path d="M 61.62625 176.708641 
L 704.321791 176.708641 
" clip-path="url(#p27e18d34ec)" style="fill: none; stroke-dasharray: 2.96,1.28; stroke-dashoffset: 0; stroke: #b0b0b0; stroke-opacity: 0.3; stroke-width: 0.8"/>
     </g>
     <g id="line2d_36">
      <g>
       <use xlink:href="#m049d211c5d" x="61.62625" y="176.708641" style="stroke: #000000; stroke-width: 0.8"/>
      </g>
     </g>
     <g id="text_19">
      <!-- 8000 -->
      <g transform="translate(29.17625 180.50786) scale(0.1 -0.1)">
       <defs>
        <path id="DejaVuSans-38" d="M 2034 2216 
Q 1584 2216 1326 1975 
Q 1069 1734 1069 1313 
Q 1069 891 1326 650 
Q 1584 409 2034 409 
Q 2484 409 2743 651 
Q 3003 894 3003 1313 
Q 3003 1734 2745 1975 
Q 2488 2216 2034 2216 
z
M 1403 2484 
Q 997 2584 770 2862 
Q 544 3141 544 3541 
Q 544 4100 942 4425 
Q 1341 4750 2034 4750 
Q 2731 4750 3128 4425 
Q 3525 4100 3525 3541 
Q 3525 3141 3298 2862 
Q 3072 2584 2669 2484 
Q 3125 2378 3379 2068 
Q 3634 1759 3634 1313 
Q 3634 634 3220 271 
Q 2806 -91 2034 -91 
Q 1263 -91 848 271 
Q 434 634 434 1313 
Q 434 1759 690 2068 
Q 947 2378 1403 2484 
z
M 1172 3481 
Q 1172 3119 1398 2916 
Q 1625 2713 2034 2713 
Q 2441 2713 2670 2916 
Q 2900 3119 2900 3481 
Q 2900 3844 2670 4047 
Q 2441 4250 2034 4250 
Q 1625 4250 1398 4047 
Q 1172 3844 1172 3481 
z
" transform="scale(0.015625)"/>
       </defs>
       <use xlink:href="#DejaVuSans-38"/>
       <use xlink:href="#DejaVuSans-30" transform="translate(63.623047 0)"/>
       <use xlink:href="#DejaVuSans-30" transform="translate(127.246094 0)"/>
       <use xlink:href="#DejaVuSans-30" transform="translate(190.869141 0)"/>
      </g>
     </g>
    </g>
    <g id="ytick_6">
     <g id="line2d_37">
      <path d="M 61.62625 124.836426 
L 704.321791 124.836426 
" clip-path="url(#p27e18d34ec)" style="fill: none; stroke-dasharray: 2.96,1.28; stroke-dashoffset: 0; stroke: #b0b0b0; stroke-opacity: 0.3; stroke-width: 0.8"/>
     </g>
     <g id="line2d_38">
      <g>
       <use xlink:href="#m049d211c5d" x="61.62625" y="124.836426" style="stroke: #000000; stroke-width: 0.8"/>
      </g>
     </g>
     <g id="text_20">
      <!-- 10000 -->
      <g transform="translate(22.81375 128.635645) scale(0.1 -0.1)">
       <defs>
        <path id="DejaVuSans-31" d="M 794 531 
L 1825 531 
L 1825 4091 
L 703 3866 
L 703 4441 
L 1819 4666 
L 2450 4666 
L 2450 531 
L 3481 531 
L 3481 0 
L 794 0 
L 794 531 
z
" transform="scale(0.015625)"/>
       </defs>
       <use xlink:href="#DejaVuSans-31"/>
       <use xlink:href="#DejaVuSans-30" transform="translate(63.623047 0)"/>
       <use xlink:href="#DejaVuSans-30" transform="translate(127.246094 0)"/>
       <use xlink:href="#DejaVuSans-30" transform="translate(190.869141 0)"/>
       <use xlink:href="#DejaVuSans-30" transform="translate(254.492188 0)"/>
      </g>
     </g>
    </g>
    <g id="ytick_7">
     <g id="line2d_39">
      <path d="M 61.62625 72.964211 
L 704.321791 72.964211 
" clip-path="url(#p27e18d34ec)" style="fill: none; stroke-dasharray: 2.96,1.28; stroke-dashoffset: 0; stroke: #b0b0b0; stroke-opacity: 0.3; stroke-width: 0.8"/>
     </g>
     <g id="line2d_40">
      <g>
       <use xlink:href="#m049d211c5d" x="61.62625" y="72.964211" style="stroke: #000000; stroke-width: 0.8"/>
      </g>
     </g>
     <g id="text_21">
      <!-- 12000 -->
      <g transform="translate(22.81375 76.76343) scale(0.1 -0.1)">
       <use xlink:href="#DejaVuSans-31"/>
       <use xlink:href="#DejaVuSans-32" transform="translate(63.623047 0)"/>
       <use xlink:href="#DejaVuSans-30" transform="translate(127.246094 0)"/>
       <use xlink:href="#DejaVuSans-30" transform="translate(190.869141 0)"/>
       <use xlink:href="#DejaVuSans-30" transform="translate(254.492188 0)"/>
      </g>
     </g>
    </g>
    <g id="text_22">
     <!-- Daily pedestrian count -->
     <g transform="translate(16.318125 279.793125) rotate(-90) scale(0.12 -0.12)">
      <defs>
       <path id="DejaVuSans-69" d="M 603 3500 
L 1178 3500 
L 1178 0 
L 603 0 
L 603 3500 
z
M 603 4863 
L 1178 4863 
L 1178 4134 
L 603 4134 
L 603 4863 
z
" transform="scale(0.015625)"/>
       <path id="DejaVuSans-64" d="M 2906 2969 
L 2906 4863 
L 3481 4863 
L 3481 0 
L 2906 0 
L 2906 525 
Q 2725 213 2448 61 
Q 2172 -91 1784 -91 
Q 1150 -91 751 415 
Q 353 922 353 1747 
Q 353 2572 751 3078 
Q 1150 3584 1784 3584 
Q 2172 3584 2448 3432 
Q 2725 3281 2906 2969 
z
M 947 1747 
Q 947 1113 1208 752 
Q 1469 391 1925 391 
Q 2381 391 2643 752 
Q 2906 1113 2906 1747 
Q 2906 2381 2643 2742 
Q 2381 3103 1925 3103 
Q 1469 3103 1208 2742 
Q 947 2381 947 1747 
z
" transform="scale(0.015625)"/>
       <path id="DejaVuSans-73" d="M 2834 3397 
L 2834 2853 
Q 2591 2978 2328 3040 
Q 2066 3103 1784 3103 
Q 1356 3103 1142 2972 
Q 928 2841 928 2578 
Q 928 2378 1081 2264 
Q 1234 2150 1697 2047 
L 1894 2003 
Q 2506 1872 2764 1633 
Q 3022 1394 3022 966 
Q 3022 478 2636 193 
Q 2250 -91 1575 -91 
Q 1294 -91 989 -36 
Q 684 19 347 128 
L 347 722 
Q 666 556 975 473 
Q 1284 391 1588 391 
Q 1994 391 2212 530 
Q 2431 669 2431 922 
Q 2431 1156 2273 1281 
Q 2116 1406 1581 1522 
L 1381 1569 
Q 847 1681 609 1914 
Q 372 2147 372 2553 
Q 372 3047 722 3315 
Q 1072 3584 1716 3584 
Q 2034 3584 2315 3537 
Q 2597 3491 2834 3397 
z
" transform="scale(0.015625)"/>
      </defs>
      <use xlink:href="#DejaVuSans-44"/>
      <use xlink:href="#DejaVuSans-61" transform="translate(77.001953 0)"/>
      <use xlink:href="#DejaVuSans-69" transform="translate(138.28125 0)"/>
      <use xlink:href="#DejaVuSans-6c" transform="translate(166.064453 0)"/>
      <use xlink:href="#DejaVuSans-79" transform="translate(193.847656 0)"/>
      <use xlink:href="#DejaVuSans-20" transform="translate(253.027344 0)"/>
      <use xlink:href="#DejaVuSans-70" transform="translate(284.814453 0)"/>
      <use xlink:href="#DejaVuSans-65" transform="translate(348.291016 0)"/>
      <use xlink:href="#DejaVuSans-64" transform="translate(409.814453 0)"/>
      <use xlink:href="#DejaVuSans-65" transform="translate(473.291016 0)"/>
      <use xlink:href="#DejaVuSans-73" transform="translate(534.814453 0)"/>
      <use xlink:href="#DejaVuSans-74" transform="translate(586.914062 0)"/>
      <use xlink:href="#DejaVuSans-72" transform="translate(626.123047 0)"/>
      <use xlink:href="#DejaVuSans-69" transform="translate(667.236328 0)"/>
      <use xlink:href="#DejaVuSans-61" transform="translate(695.019531 0)"/>
      <use xlink:href="#DejaVuSans-6e" transform="translate(756.298828 0)"/>
      <use xlink:href="#DejaVuSans-20" transform="translate(819.677734 0)"/>
      <use xlink:href="#DejaVuSans-63" transform="translate(851.464844 0)"/>
      <use xlink:href="#DejaVuSans-6f" transform="translate(906.445312 0)"/>
      <use xlink:href="#DejaVuSans-75" transform="translate(967.626953 0)"/>
      <use xlink:href="#DejaVuSans-6e" transform="translate(1031.005859 0)"/>
      <use xlink:href="#DejaVuSans-74" transform="translate(1094.384766 0)"/>
     </g>
    </g>
   </g>
   <g id="line2d_41">
    <path d="M 63.363265 370.866341 
L 65.10028 339.950501 
L 66.837295 338.446207 
L 68.57431 346.979186 
L 70.311325 367.364966 
L 72.04834 360.803131 
L 73.785355 303.04342 
L 75.52237 316.763621 
L 77.259385 310.020233 
L 78.9964 308.723427 
L 80.733415 320.420612 
L 82.47043 355.823399 
L 84.207445 358.67637 
L 85.94446 300.761042 
L 87.681475 304.625522 
L 89.41849 303.873375 
L 91.155505 354.760018 
L 92.89252 336.111957 
L 94.629535 355.61591 
L 96.366549 356.471801 
L 98.103564 298.219304 
L 99.840579 299.256748 
L 101.577594 280.582751 
L 105.051624 329.835419 
L 106.788639 358.261393 
L 108.525654 358.754179 
L 110.262669 357.120204 
L 111.999684 297.700582 
L 113.736699 301.435381 
L 115.473714 291.060938 
L 117.210729 306.700411 
L 118.947744 352.114535 
L 120.684759 357.924223 
L 122.421774 298.426793 
L 124.158789 313.132566 
L 125.895804 278.767223 
L 127.632819 259.911673 
L 129.369834 300.034831 
L 131.106849 363.318934 
L 132.843864 358.261393 
L 134.580879 285.666228 
L 136.317894 319.746273 
L 138.054909 285.666228 
L 139.791924 298.323048 
L 141.528939 292.720849 
L 143.265954 348.846586 
L 145.002969 342.129134 
L 146.739984 312.224802 
L 148.476999 255.061621 
L 150.214014 285.666228 
L 151.951029 296.222224 
L 153.688044 248.577594 
L 155.425059 345.059914 
L 157.162074 347.54978 
L 158.899089 230.111086 
L 160.636104 214.834719 
L 162.373119 220.696279 
L 164.110133 217.246777 
L 165.847148 234.598033 
L 167.584163 328.927655 
L 169.321178 332.014052 
L 171.058193 55.768572 
L 172.795208 101.934843 
L 174.532223 130.957347 
L 176.269238 88.344323 
L 178.006253 166.878856 
L 179.743268 326.204364 
L 181.480283 338.368398 
L 183.217298 138.037905 
L 184.954313 175.308091 
L 186.691328 95.165519 
L 188.428343 100.300868 
L 190.165358 143.147318 
L 191.902373 329.653866 
L 193.639388 333.336793 
L 195.376403 157.023135 
L 197.113418 208.817542 
L 198.850433 176.553024 
L 200.587448 188.224272 
L 202.324463 157.075007 
L 204.061478 341.480731 
L 205.798493 324.82975 
L 207.535508 190.791947 
L 209.272523 169.576211 
L 211.009538 138.841924 
L 212.746553 154.455461 
L 214.483568 186.227192 
L 216.220583 325.945003 
L 217.957598 335.074513 
L 219.694613 154.948247 
L 221.431628 121.283179 
L 223.168643 191.985008 
L 224.905658 178.212935 
L 226.642673 202.826301 
L 228.379688 327.164 
L 230.116703 326.489661 
L 231.853717 192.451858 
L 233.590732 148.619836 
L 235.327747 155.933819 
L 237.064762 158.579302 
L 238.801777 146.908053 
L 240.538792 321.483992 
L 242.275807 327.164 
L 244.012822 140.916813 
L 245.749837 175.774941 
L 247.486852 186.77185 
L 249.223867 186.227192 
L 250.960882 339.846756 
L 252.697897 342.310687 
L 254.434912 355.486229 
L 256.171927 355.330612 
L 257.908942 330.380077 
L 259.645957 297.493093 
L 261.382972 336.060085 
L 263.119987 308.956852 
L 264.857002 347.264483 
L 266.594017 334.737343 
L 268.331032 135.00338 
L 270.068047 128.234056 
L 271.805062 110.519695 
L 273.542077 162.028804 
L 275.279092 204.252787 
L 277.016107 302.395017 
L 278.753122 328.590486 
L 280.490137 141.20211 
L 282.227152 137.156077 
L 283.964167 112.905817 
L 285.701182 132.331961 
L 287.438197 196.134785 
L 289.175212 326.048747 
L 290.912227 327.397425 
L 292.649242 147.919562 
L 294.386257 156.634094 
L 296.123272 146.12997 
L 297.860287 163.766523 
L 299.597301 165.218945 
L 301.334316 307.867536 
L 303.071331 318.03449 
L 304.808346 128.130312 
L 306.545361 145.481567 
L 308.282376 120.764457 
L 310.019391 115.966277 
L 311.756406 161.976932 
L 313.493421 326.35998 
L 315.230436 335.256065 
L 316.967451 157.075007 
L 318.704466 131.813239 
L 320.441481 191.725647 
L 322.178496 126.003551 
L 323.915511 178.939146 
L 325.652526 321.561801 
L 327.389541 345.967678 
L 329.126556 274.954616 
L 330.863571 256.514043 
L 332.600586 267.070039 
L 334.337601 259.107654 
L 336.074616 265.513873 
L 337.811631 316.478324 
L 339.548646 318.760701 
L 341.285661 304.003056 
L 343.022676 236.257943 
L 344.759691 260.171034 
L 346.496706 244.972475 
L 348.233721 267.510953 
L 349.970736 323.89605 
L 351.707751 341.273242 
L 353.444766 257.758976 
L 355.181781 268.652142 
L 356.918796 259.522632 
L 358.655811 245.854303 
L 360.392826 264.165195 
L 362.129841 334.477982 
L 363.866856 340.676712 
L 365.603871 271.66073 
L 367.340886 264.372684 
L 370.814915 275.265849 
L 372.55193 281.801748 
L 374.288945 356.627418 
L 376.02596 348.846586 
L 377.762975 304.625522 
L 379.49999 306.518858 
L 381.237005 305.688903 
L 382.97402 302.965612 
L 384.711035 287.092714 
L 386.44805 346.14923 
L 388.185065 360.777195 
L 389.92208 299.049259 
L 391.659095 285.25125 
L 393.39611 301.461317 
L 395.133125 277.651971 
L 396.87014 288.130158 
L 398.607155 353.515085 
L 400.34417 357.924223 
L 402.081185 302.628442 
L 403.8182 290.282855 
L 405.555215 286.52212 
L 407.29223 275.836443 
L 409.029245 275.499274 
L 410.76626 348.405672 
L 412.503275 351.75143 
L 414.24029 264.5283 
L 415.977305 295.651629 
L 419.451335 237.34726 
L 421.18835 283.513531 
L 422.925365 335.463554 
L 424.66238 336.967848 
L 426.399395 149.423856 
L 428.13641 151.343128 
L 429.873425 117.833677 
L 431.61044 113.268922 
L 433.347455 160.887615 
L 435.08447 327.189936 
L 436.821484 339.717076 
L 438.558499 143.069509 
L 440.295514 93.89465 
L 442.032529 95.865794 
L 443.769544 134.951508 
L 445.506559 171.106442 
L 447.243574 324.544453 
L 448.980589 335.385746 
L 450.717604 166.489814 
L 452.454619 137.493246 
L 454.191634 120.94601 
L 455.928649 137.363566 
L 457.665664 177.797957 
L 459.402679 317.619512 
L 461.139694 253.453583 
L 462.876709 157.645602 
L 464.613724 138.945668 
L 466.350739 215.898099 
L 468.087754 173.155394 
L 469.824769 178.887274 
L 471.561784 329.783547 
L 473.298799 334.166749 
L 475.035814 177.434852 
L 476.772829 169.65402 
L 478.509844 170.769272 
L 480.246859 163.195929 
L 481.983874 178.757593 
L 483.720889 321.458056 
L 485.457904 335.178257 
L 487.194919 216.598374 
L 488.931934 188.898611 
L 490.668949 208.221011 
L 492.405964 198.987757 
L 494.142979 202.359451 
L 495.879994 326.152492 
L 497.617009 338.134973 
L 499.354024 204.927126 
L 501.091039 173.933477 
L 502.828054 161.354465 
L 504.565068 232.730633 
L 506.302083 256.306554 
L 508.039098 328.979527 
L 509.776113 332.506838 
L 511.513128 219.140112 
L 513.250143 192.918708 
L 514.987158 172.066078 
L 516.724173 161.821315 
L 520.198203 334.763279 
L 521.935218 347.627589 
L 523.672233 198.469035 
L 525.409248 244.038776 
L 527.146263 239.966807 
L 528.883278 220.229429 
L 530.620293 332.065924 
L 532.357308 345.630508 
L 534.094323 354.552529 
L 535.831338 328.460805 
L 537.568353 297.596837 
L 539.305368 297.544965 
L 541.042383 308.412194 
L 542.779398 310.538955 
L 544.516413 339.35397 
L 546.253428 341.973517 
L 547.990443 247.41047 
L 549.727458 219.373537 
L 551.464473 215.612802 
L 553.201488 247.669831 
L 554.938503 228.632728 
L 556.675518 333.751771 
L 558.412533 326.930575 
L 560.149548 228.114006 
L 561.886563 225.183226 
L 563.623578 225.261034 
L 565.360593 227.232178 
L 567.097608 223.004592 
L 568.834623 325.348472 
L 570.571638 352.373896 
L 572.308652 231.900677 
L 574.045667 209.880922 
L 575.782682 207.157631 
L 577.519697 215.742482 
L 579.256712 259.885737 
L 580.993727 322.547373 
L 582.730742 342.725664 
L 584.467757 276.562654 
L 586.204772 277.911332 
L 587.941787 268.85963 
L 589.678802 298.063687 
L 591.415817 282.216726 
L 593.152832 344.204022 
L 594.889847 341.610412 
L 596.626862 283.409787 
L 598.363877 297.959943 
L 600.100892 272.386941 
L 601.837907 302.395017 
L 603.574922 285.380931 
L 605.311937 343.840917 
L 607.048952 360.54377 
L 608.785967 290.3866 
L 610.522982 301.098212 
L 612.259997 306.363242 
L 613.997012 292.98021 
L 615.734027 326.074683 
L 619.208057 343.55562 
L 620.945072 281.542387 
L 622.682087 291.216555 
L 624.419102 302.835931 
L 626.156117 264.735789 
L 627.893132 297.415285 
L 629.630147 346.642016 
L 631.367162 348.275991 
L 633.104177 300.138576 
L 634.841192 320.135315 
L 636.578207 289.11573 
L 638.315222 296.196288 
L 640.052236 314.507179 
L 641.789251 350.999283 
L 643.526266 369.284238 
L 645.263281 309.138405 
L 647.000296 336.682551 
L 648.737311 316.16709 
L 650.474326 320.057506 
L 652.211341 325.789386 
L 653.948356 351.647685 
L 655.685371 353.981935 
L 657.422386 305.247989 
L 659.159401 313.677224 
L 660.896416 314.818413 
L 662.633431 324.570389 
L 664.370446 302.706251 
L 666.107461 358.442945 
L 667.844476 359.999112 
L 669.581491 317.827001 
L 671.318506 316.919237 
L 673.055521 324.777878 
L 674.792536 311.031741 
L 676.529551 343.970597 
L 678.266566 364.019208 
L 680.003581 365.523503 
L 681.740596 344.359639 
L 683.477611 363.448614 
L 685.214626 369.906705 
L 686.951641 371.774105 
L 688.688656 366.301586 
L 690.425671 370.14013 
L 692.162686 370.996021 
L 693.899701 372.967165 
L 695.636716 370.451363 
L 695.636716 370.451363 
" clip-path="url(#p27e18d34ec)" style="fill: none; stroke: #0d6efc; stroke-opacity: 0.8; stroke-width: 2.5; stroke-linecap: square"/>
   </g>
   <g id="line2d_42">
    <path d="M 63.363265 367.183414 
L 65.10028 356.471801 
L 66.837295 353.930063 
L 68.57431 367.235286 
L 70.311325 367.183414 
L 72.04834 358.027968 
L 73.785355 328.668294 
L 75.52237 337.045657 
L 77.259385 333.648027 
L 78.9964 342.881281 
L 80.733415 362.592723 
L 82.47043 367.80588 
L 84.207445 318.708829 
L 85.94446 317.230471 
L 87.681475 332.610582 
L 89.41849 312.536035 
L 91.155505 328.720166 
L 92.89252 321.873034 
L 94.629535 353.955999 
L 96.366549 311.109549 
L 98.103564 314.610924 
L 99.840579 301.305701 
L 101.577594 310.642699 
L 103.314609 323.221711 
L 105.051624 353.307596 
L 106.788639 355.512165 
L 108.525654 364.174825 
L 110.262669 313.340055 
L 111.999684 308.30845 
L 113.736699 322.184267 
L 115.473714 333.362729 
L 117.210729 359.01354 
L 118.947744 363.370806 
L 120.684759 317.852937 
L 122.421774 305.870456 
L 124.158789 293.032082 
L 125.895804 306.311369 
L 127.632819 306.259497 
L 129.369834 353.022299 
L 131.106849 357.690798 
L 132.843864 305.688903 
L 134.580879 280.219645 
L 136.317894 297.363412 
L 139.791924 323.143903 
L 141.528939 358.20952 
L 143.265954 355.097187 
L 145.002969 304.599586 
L 146.739984 302.369081 
L 148.476999 303.743695 
L 150.214014 300.553554 
L 151.951029 308.282514 
L 153.688044 350.169327 
L 155.425059 340.806392 
L 157.162074 251.067461 
L 158.899089 205.445848 
L 160.636104 243.156948 
L 162.373119 221.526234 
L 164.110133 251.378694 
L 165.847148 334.063004 
L 167.584163 328.720166 
L 169.321178 179.094763 
L 171.058193 339.846756 
L 172.795208 158.164324 
L 174.532223 173.933477 
L 176.269238 214.705038 
L 178.006253 335.567299 
L 179.743268 343.503747 
L 181.480283 331.132224 
L 183.217298 173.803797 
L 184.954313 166.022965 
L 186.691328 163.92214 
L 188.428343 190.63633 
L 190.165358 336.915976 
L 191.902373 356.860843 
L 193.639388 180.106271 
L 195.376403 165.711731 
L 197.113418 165.426434 
L 198.850433 212.267044 
L 200.587448 235.687349 
L 202.324463 329.939163 
L 204.061478 337.019721 
L 205.798493 192.088752 
L 207.535508 182.855498 
L 209.272523 179.898782 
L 211.009538 185.267556 
L 212.746553 220.877832 
L 214.483568 329.965099 
L 216.220583 318.864445 
L 217.957598 212.604213 
L 219.694613 189.028292 
L 221.431628 177.279235 
L 223.168643 205.834889 
L 224.905658 221.318746 
L 226.642673 328.486741 
L 228.379688 336.812232 
L 230.116703 203.63032 
L 231.853717 189.961992 
L 233.590732 183.815134 
L 235.327747 193.30775 
L 237.064762 226.065053 
L 238.801777 326.282172 
L 240.538792 333.699899 
L 242.275807 217.739563 
L 244.012822 196.290402 
L 245.749837 193.982088 
L 247.486852 211.618641 
L 249.223867 345.967678 
L 250.960882 351.28458 
L 252.697897 357.405501 
L 254.434912 352.192343 
L 257.908942 316.244899 
L 259.645957 312.30261 
L 261.382972 354.552529 
L 263.119987 350.454624 
L 264.857002 334.140813 
L 266.594017 246.47677 
L 268.331032 231.641316 
L 270.068047 211.566769 
L 271.805062 166.334198 
L 273.542077 230.966977 
L 275.279092 330.302269 
L 277.016107 336.241637 
L 278.753122 228.425239 
L 280.490137 208.869414 
L 282.227152 208.89535 
L 283.964167 202.10009 
L 285.701182 242.664162 
L 287.438197 307.685983 
L 289.175212 338.368398 
L 290.912227 232.808441 
L 292.649242 221.396554 
L 294.386257 213.978827 
L 296.123272 215.22376 
L 297.860287 245.880239 
L 299.597301 345.604572 
L 301.334316 334.55579 
L 303.071331 245.050284 
L 304.808346 225.805692 
L 306.545361 227.958389 
L 308.282376 219.477282 
L 310.019391 265.980722 
L 311.756406 335.437618 
L 313.493421 341.740092 
L 315.230436 250.315314 
L 316.967451 248.499786 
L 318.704466 235.090819 
L 320.441481 222.589615 
L 322.178496 242.871651 
L 323.915511 321.717417 
L 327.389541 344.100278 
L 329.126556 310.538955 
L 330.863571 283.539467 
L 332.600586 286.18495 
L 334.337601 300.864787 
L 336.074616 381.448273 
L 337.811631 344.100278 
L 339.548646 345.111786 
L 341.285661 286.677736 
L 343.022676 275.032424 
L 344.759691 277.703843 
L 346.496706 287.948605 
L 348.233721 325.530025 
L 349.970736 381.526081 
L 351.707751 308.282514 
L 353.444766 292.928338 
L 355.181781 291.164683 
L 356.918796 295.236652 
L 358.655811 380.488637 
L 360.392826 334.55579 
L 362.129841 350.765858 
L 363.866856 319.253487 
L 365.603871 301.409445 
L 367.340886 322.054587 
L 369.0779 269.274608 
L 370.814915 309.501511 
L 372.55193 329.550122 
L 374.288945 359.272901 
L 376.02596 382.407909 
L 377.762975 296.585329 
L 379.49999 353.592893 
L 381.237005 380.981423 
L 382.97402 307.271005 
L 384.711035 335.904468 
L 386.44805 349.131883 
L 388.185065 319.331295 
L 389.92208 306.026072 
L 391.659095 303.199037 
L 393.39611 309.190277 
L 395.133125 308.515939 
L 396.87014 334.841088 
L 398.607155 355.486229 
L 400.34417 312.224802 
L 402.081185 293.78423 
L 403.8182 297.259668 
L 405.555215 311.161422 
L 407.29223 295.833182 
L 409.029245 383.782522 
L 410.76626 353.074171 
L 412.503275 283.020745 
L 414.24029 296.611265 
L 415.977305 270.986391 
L 417.71432 274.046852 
L 419.451335 291.190619 
L 421.18835 336.864104 
L 422.925365 352.425768 
L 424.66238 220.203493 
L 426.399395 191.155053 
L 428.13641 194.423002 
L 429.873425 202.981918 
L 431.61044 213.22668 
L 433.347455 315.440879 
L 435.08447 337.434698 
L 436.821484 202.981918 
L 438.558499 379.036215 
L 440.295514 181.792118 
L 442.032529 170.043061 
L 443.769544 204.174979 
L 445.506559 314.584988 
L 447.243574 328.460805 
L 448.980589 203.111598 
L 450.717604 229.073642 
L 452.454619 176.215855 
L 454.191634 170.769272 
L 455.928649 237.684429 
L 457.665664 324.311028 
L 459.402679 185.034131 
L 461.139694 216.15746 
L 462.876709 196.679443 
L 464.613724 185.189748 
L 466.350739 194.96766 
L 468.087754 228.425239 
L 469.824769 322.288012 
L 471.561784 327.423361 
L 473.298799 227.206242 
L 475.035814 227.984325 
L 476.772829 199.791776 
L 478.509844 205.705209 
L 480.246859 249.07038 
L 481.983874 337.382826 
L 483.720889 350.94741 
L 485.457904 243.338501 
L 487.194919 205.886762 
L 488.931934 205.886762 
L 490.668949 214.134444 
L 492.405964 238.073471 
L 494.142979 323.870114 
L 495.879994 346.771697 
L 497.617009 236.88041 
L 499.354024 217.480202 
L 501.091039 214.808783 
L 502.828054 210.451517 
L 504.565068 243.883159 
L 506.302083 327.890211 
L 508.039098 329.62793 
L 509.776113 238.073471 
L 511.513128 223.834548 
L 513.250143 233.923694 
L 514.987158 383.990011 
L 516.724173 233.664333 
L 518.461188 327.786466 
L 520.198203 345.163658 
L 521.935218 247.514214 
L 523.672233 209.3622 
L 525.409248 231.096658 
L 527.146263 204.226851 
L 528.883278 340.572967 
L 530.620293 343.711236 
L 532.357308 348.327863 
L 534.094323 310.098041 
L 535.831338 298.971451 
L 537.568353 295.340396 
L 539.305368 316.867365 
L 541.042383 311.135485 
L 544.516413 347.912886 
L 546.253428 212.889511 
L 547.990443 198.157802 
L 551.464473 179.120699 
L 553.201488 224.171717 
L 554.938503 319.123807 
L 556.675518 333.077432 
L 558.412533 219.191985 
L 560.149548 196.160721 
L 561.886563 184.696962 
L 563.623578 188.665186 
L 565.360593 214.730974 
L 567.097608 307.011644 
L 568.834623 329.576058 
L 570.571638 230.785425 
L 572.308652 180.573121 
L 574.045667 228.892089 
L 575.782682 193.385558 
L 577.519697 219.295729 
L 579.256712 381.73357 
L 580.993727 354.293168 
L 582.730742 278.715351 
L 584.467757 263.983642 
L 586.204772 265.098895 
L 587.941787 252.260522 
L 589.678802 290.957194 
L 591.415817 323.973859 
L 593.152832 339.743012 
L 594.889847 340.469223 
L 596.626862 336.086021 
L 598.363877 269.1968 
L 600.100892 265.513873 
L 601.837907 279.052521 
L 603.574922 360.595642 
L 605.311937 343.529684 
L 607.048952 297.934007 
L 608.785967 287.066778 
L 610.522982 262.142179 
L 612.259997 251.923352 
L 613.997012 291.735277 
L 615.734027 319.720337 
L 617.471042 349.832158 
L 619.208057 293.187699 
L 620.945072 270.467669 
L 622.682087 265.254511 
L 624.419102 243.156948 
L 626.156117 294.925418 
L 627.893132 323.29952 
L 629.630147 335.385746 
L 631.367162 307.867536 
L 633.104177 275.577082 
L 634.841192 285.25125 
L 636.578207 287.248331 
L 638.315222 321.069015 
L 640.052236 383.860331 
L 641.789251 360.647514 
L 643.526266 320.550292 
L 645.263281 310.487083 
L 647.000296 306.544794 
L 648.737311 305.740775 
L 650.474326 322.262076 
L 652.211341 359.739751 
L 653.948356 348.794713 
L 655.685371 321.950842 
L 657.422386 311.083613 
L 659.159401 314.896221 
L 660.896416 310.90206 
L 662.633431 328.538614 
L 664.370446 357.457373 
L 666.107461 383.367545 
L 667.844476 328.019891 
L 669.581491 313.365991 
L 671.318506 324.103539 
L 673.055521 335.593235 
L 674.792536 335.930404 
L 676.529551 357.924223 
L 678.266566 374.964246 
L 680.003581 341.843837 
L 681.740596 350.791794 
L 683.477611 365.497567 
L 685.214626 370.373555 
L 686.951641 371.877849 
L 688.688656 362.41117 
L 690.425671 364.045145 
L 692.162686 374.808629 
L 692.162686 374.808629 
" clip-path="url(#p27e18d34ec)" style="fill: none; stroke: #83c966; stroke-opacity: 0.8; stroke-width: 2.5; stroke-linecap: square"/>
   </g>
   <g id="patch_3">
    <path d="M 61.62625 384.1975 
L 61.62625 39.3575 
" style="fill: none; stroke: #000000; stroke-width: 0.8; stroke-linejoin: miter; stroke-linecap: square"/>
   </g>
   <g id="patch_4">
    <path d="M 61.62625 384.1975 
L 704.321791 384.1975 
" style="fill: none; stroke: #000000; stroke-width: 0.8; stroke-linejoin: miter; stroke-linecap: square"/>
   </g>
   <g id="text_23">
    <!-- Pedestrian Traffic at Monash Rd-Swanston St (West) -->
    <g transform="translate(175.76652 19.3575) scale(0.16 -0.16)">
     <defs>
      <path id="DejaVuSans-50" d="M 1259 4147 
L 1259 2394 
L 2053 2394 
Q 2494 2394 2734 2622 
Q 2975 2850 2975 3272 
Q 2975 3691 2734 3919 
Q 2494 4147 2053 4147 
L 1259 4147 
z
M 628 4666 
L 2053 4666 
Q 2838 4666 3239 4311 
Q 3641 3956 3641 3272 
Q 3641 2581 3239 2228 
Q 2838 1875 2053 1875 
L 1259 1875 
L 1259 0 
L 628 0 
L 628 4666 
z
" transform="scale(0.015625)"/>
      <path id="DejaVuSans-54" d="M -19 4666 
L 3928 4666 
L 3928 4134 
L 2272 4134 
L 2272 0 
L 1638 0 
L 1638 4134 
L -19 4134 
L -19 4666 
z
" transform="scale(0.015625)"/>
      <path id="DejaVuSans-52" d="M 2841 2188 
Q 3044 2119 3236 1894 
Q 3428 1669 3622 1275 
L 4263 0 
L 3584 0 
L 2988 1197 
Q 2756 1666 2539 1819 
Q 2322 1972 1947 1972 
L 1259 1972 
L 1259 0 
L 628 0 
L 628 4666 
L 2053 4666 
Q 2853 4666 3247 4331 
Q 3641 3997 3641 3322 
Q 3641 2881 3436 2590 
Q 3231 2300 2841 2188 
z
M 1259 4147 
L 1259 2491 
L 2053 2491 
Q 2509 2491 2742 2702 
Q 2975 2913 2975 3322 
Q 2975 3731 2742 3939 
Q 2509 4147 2053 4147 
L 1259 4147 
z
" transform="scale(0.015625)"/>
      <path id="DejaVuSans-2d" d="M 313 2009 
L 1997 2009 
L 1997 1497 
L 313 1497 
L 313 2009 
z
" transform="scale(0.015625)"/>
      <path id="DejaVuSans-77" d="M 269 3500 
L 844 3500 
L 1563 769 
L 2278 3500 
L 2956 3500 
L 3675 769 
L 4391 3500 
L 4966 3500 
L 4050 0 
L 3372 0 
L 2619 2869 
L 1863 0 
L 1184 0 
L 269 3500 
z
" transform="scale(0.015625)"/>
      <path id="DejaVuSans-28" d="M 1984 4856 
Q 1566 4138 1362 3434 
Q 1159 2731 1159 2009 
Q 1159 1288 1364 580 
Q 1569 -128 1984 -844 
L 1484 -844 
Q 1016 -109 783 600 
Q 550 1309 550 2009 
Q 550 2706 781 3412 
Q 1013 4119 1484 4856 
L 1984 4856 
z
" transform="scale(0.015625)"/>
      <path id="DejaVuSans-57" d="M 213 4666 
L 850 4666 
L 1831 722 
L 2809 4666 
L 3519 4666 
L 4500 722 
L 5478 4666 
L 6119 4666 
L 4947 0 
L 4153 0 
L 3169 4050 
L 2175 0 
L 1381 0 
L 213 4666 
z
" transform="scale(0.015625)"/>
      <path id="DejaVuSans-29" d="M 513 4856 
L 1013 4856 
Q 1481 4119 1714 3412 
Q 1947 2706 1947 2009 
Q 1947 1309 1714 600 
Q 1481 -109 1013 -844 
L 513 -844 
Q 928 -128 1133 580 
Q 1338 1288 1338 2009 
Q 1338 2731 1133 3434 
Q 928 4138 513 4856 
z
" transform="scale(0.015625)"/>
     </defs>
     <use xlink:href="#DejaVuSans-50"/>
     <use xlink:href="#DejaVuSans-65" transform="translate(56.677734 0)"/>
     <use xlink:href="#DejaVuSans-64" transform="translate(118.201172 0)"/>
     <use xlink:href="#DejaVuSans-65" transform="translate(181.677734 0)"/>
     <use xlink:href="#DejaVuSans-73" transform="translate(243.201172 0)"/>
     <use xlink:href="#DejaVuSans-74" transform="translate(295.300781 0)"/>
     <use xlink:href="#DejaVuSans-72" transform="translate(334.509766 0)"/>
     <use xlink:href="#DejaVuSans-69" transform="translate(375.623047 0)"/>
     <use xlink:href="#DejaVuSans-61" transform="translate(403.40625 0)"/>
     <use xlink:href="#DejaVuSans-6e" transform="translate(464.685547 0)"/>
     <use xlink:href="#DejaVuSans-20" transform="translate(528.064453 0)"/>
     <use xlink:href="#DejaVuSans-54" transform="translate(559.851562 0)"/>
     <use xlink:href="#DejaVuSans-72" transform="translate(606.185547 0)"/>
     <use xlink:href="#DejaVuSans-61" transform="translate(647.298828 0)"/>
     <use xlink:href="#DejaVuSans-66" transform="translate(708.578125 0)"/>
     <use xlink:href="#DejaVuSans-66" transform="translate(743.783203 0)"/>
     <use xlink:href="#DejaVuSans-69" transform="translate(778.988281 0)"/>
     <use xlink:href="#DejaVuSans-63" transform="translate(806.771484 0)"/>
     <use xlink:href="#DejaVuSans-20" transform="translate(861.751953 0)"/>
     <use xlink:href="#DejaVuSans-61" transform="translate(893.539062 0)"/>
     <use xlink:href="#DejaVuSans-74" transform="translate(954.818359 0)"/>
     <use xlink:href="#DejaVuSans-20" transform="translate(994.027344 0)"/>
     <use xlink:href="#DejaVuSans-4d" transform="translate(1025.814453 0)"/>
     <use xlink:href="#DejaVuSans-6f" transform="translate(1112.09375 0)"/>
     <use xlink:href="#DejaVuSans-6e" transform="translate(1173.275391 0)"/>
     <use xlink:href="#DejaVuSans-61" transform="translate(1236.654297 0)"/>
     <use xlink:href="#DejaVuSans-73" transform="translate(1297.933594 0)"/>
     <use xlink:href="#DejaVuSans-68" transform="translate(1350.033203 0)"/>
     <use xlink:href="#DejaVuSans-20" transform="translate(1413.412109 0)"/>
     <use xlink:href="#DejaVuSans-52" transform="translate(1445.199219 0)"/>
     <use xlink:href="#DejaVuSans-64" transform="translate(1514.681641 0)"/>
     <use xlink:href="#DejaVuSans-2d" transform="translate(1578.158203 0)"/>
     <use xlink:href="#DejaVuSans-53" transform="translate(1614.242188 0)"/>
     <use xlink:href="#DejaVuSans-77" transform="translate(1677.71875 0)"/>
     <use xlink:href="#DejaVuSans-61" transform="translate(1759.505859 0)"/>
     <use xlink:href="#DejaVuSans-6e" transform="translate(1820.785156 0)"/>
     <use xlink:href="#DejaVuSans-73" transform="translate(1884.164062 0)"/>
     <use xlink:href="#DejaVuSans-74" transform="translate(1936.263672 0)"/>
     <use xlink:href="#DejaVuSans-6f" transform="translate(1975.472656 0)"/>
     <use xlink:href="#DejaVuSans-6e" transform="translate(2036.654297 0)"/>
     <use xlink:href="#DejaVuSans-20" transform="translate(2100.033203 0)"/>
     <use xlink:href="#DejaVuSans-53" transform="translate(2131.820312 0)"/>
     <use xlink:href="#DejaVuSans-74" transform="translate(2195.296875 0)"/>
     <use xlink:href="#DejaVuSans-20" transform="translate(2234.505859 0)"/>
     <use xlink:href="#DejaVuSans-28" transform="translate(2266.292969 0)"/>
     <use xlink:href="#DejaVuSans-57" transform="translate(2305.306641 0)"/>
     <use xlink:href="#DejaVuSans-65" transform="translate(2398.308594 0)"/>
     <use xlink:href="#DejaVuSans-73" transform="translate(2459.832031 0)"/>
     <use xlink:href="#DejaVuSans-74" transform="translate(2511.931641 0)"/>
     <use xlink:href="#DejaVuSans-29" transform="translate(2551.140625 0)"/>
    </g>
   </g>
   <g id="legend_1">
    <g id="patch_5">
     <path d="M 69.32625 80.449375 
L 132.52125 80.449375 
Q 134.72125 80.449375 134.72125 78.249375 
L 134.72125 47.0575 
Q 134.72125 44.8575 132.52125 44.8575 
L 69.32625 44.8575 
Q 67.12625 44.8575 67.12625 47.0575 
L 67.12625 78.249375 
Q 67.12625 80.449375 69.32625 80.449375 
z
" style="fill: #ffffff; opacity: 0.95; stroke: #cccccc; stroke-linejoin: miter"/>
    </g>
    <g id="line2d_43">
     <path d="M 71.52625 53.765781 
L 82.52625 53.765781 
L 93.52625 53.765781 
" style="fill: none; stroke: #0d6efc; stroke-opacity: 0.8; stroke-width: 2.5; stroke-linecap: square"/>
    </g>
    <g id="text_24">
     <!-- 2019 -->
     <g transform="translate(102.32625 57.615781) scale(0.11 -0.11)">
      <defs>
       <path id="DejaVuSans-39" d="M 703 97 
L 703 672 
Q 941 559 1184 500 
Q 1428 441 1663 441 
Q 2288 441 2617 861 
Q 2947 1281 2994 2138 
Q 2813 1869 2534 1725 
Q 2256 1581 1919 1581 
Q 1219 1581 811 2004 
Q 403 2428 403 3163 
Q 403 3881 828 4315 
Q 1253 4750 1959 4750 
Q 2769 4750 3195 4129 
Q 3622 3509 3622 2328 
Q 3622 1225 3098 567 
Q 2575 -91 1691 -91 
Q 1453 -91 1209 -44 
Q 966 3 703 97 
z
M 1959 2075 
Q 2384 2075 2632 2365 
Q 2881 2656 2881 3163 
Q 2881 3666 2632 3958 
Q 2384 4250 1959 4250 
Q 1534 4250 1286 3958 
Q 1038 3666 1038 3163 
Q 1038 2656 1286 2365 
Q 1534 2075 1959 2075 
z
" transform="scale(0.015625)"/>
      </defs>
      <use xlink:href="#DejaVuSans-32"/>
      <use xlink:href="#DejaVuSans-30" transform="translate(63.623047 0)"/>
      <use xlink:href="#DejaVuSans-31" transform="translate(127.246094 0)"/>
      <use xlink:href="#DejaVuSans-39" transform="translate(190.869141 0)"/>
     </g>
    </g>
    <g id="line2d_44">
     <path d="M 71.52625 69.911719 
L 82.52625 69.911719 
L 93.52625 69.911719 
" style="fill: none; stroke: #83c966; stroke-opacity: 0.8; stroke-width: 2.5; stroke-linecap: square"/>
    </g>
    <g id="text_25">
     <!-- 2025 -->
     <g transform="translate(102.32625 73.761719) scale(0.11 -0.11)">
      <defs>
       <path id="DejaVuSans-35" d="M 691 4666 
L 3169 4666 
L 3169 4134 
L 1269 4134 
L 1269 2991 
Q 1406 3038 1543 3061 
Q 1681 3084 1819 3084 
Q 2600 3084 3056 2656 
Q 3513 2228 3513 1497 
Q 3513 744 3044 326 
Q 2575 -91 1722 -91 
Q 1428 -91 1123 -41 
Q 819 9 494 109 
L 494 744 
Q 775 591 1075 516 
Q 1375 441 1709 441 
Q 2250 441 2565 725 
Q 2881 1009 2881 1497 
Q 2881 1984 2565 2268 
Q 2250 2553 1709 2553 
Q 1456 2553 1204 2497 
Q 953 2441 691 2322 
L 691 4666 
z
" transform="scale(0.015625)"/>
      </defs>
      <use xlink:href="#DejaVuSans-32"/>
      <use xlink:href="#DejaVuSans-30" transform="translate(63.623047 0)"/>
      <use xlink:href="#DejaVuSans-32" transform="translate(127.246094 0)"/>
      <use xlink:href="#DejaVuSans-35" transform="translate(190.869141 0)"/>
     </g>
    </g>
   </g>
  </g>
 </g>
 <defs>
  <clipPath id="p27e18d34ec">
   <rect x="61.62625" y="39.3575" width="642.695541" height="344.84"/>
  </clipPath>
 </defs>
</svg>
