<?xml version="1.0" encoding="utf-8" standalone="no"?>
<!DOCTYPE svg PUBLIC "-//W3C//DTD SVG 1.1//EN"
  "http://www.w3.org/Graphics/SVG/1.1/DTD/svg11.dtd">
<svg xmlns:xlink="http://www.w3.org/1999/xlink" width="711.459291pt" height="423.689375pt" viewBox="0 0 711.459291 423.689375" xmlns="http://www.w3.org/2000/svg" version="1.1">
 <metadata>
  <rdf:RDF xmlns:dc="http://purl.org/dc/elements/1.1/" xmlns:cc="http://creativecommons.org/ns#" xmlns:rdf="http://www.w3.org/1999/02/22-rdf-syntax-ns#">
   <cc:Work>
    <dc:type rdf:resource="http://purl.org/dc/dcmitype/StillImage"/>
    <dc:date>2026-01-28T17:49:45.373601</dc:date>
    <dc:format>image/svg+xml</dc:format>
    <dc:creator>
     <cc:Agent>
      <dc:title>Matplotlib v3.10.8, https://matplotlib.org/</dc:title>
     </cc:Agent>
    </dc:creator>
   </cc:Work>
  </rdf:RDF>
 </metadata>
 <defs>
  <style type="text/css">*{stroke-linejoin: round; stroke-linecap: butt}</style>
 </defs>
 <g id="figure_1">
  <g id="patch_1">
   <path d="M 0 423.689375 
L 711.459291 423.689375 
L 711.459291 0 
L 0 0 
L 0 423.689375 
z
" style="fill: none"/>
  </g>
  <g id="axes_1">
   <g id="patch_2">
    <path d="M 55.26375 384.1975 
L 704.259291 384.1975 
L 704.259291 39.3575 
L 55.26375 39.3575 
L 55.26375 384.1975 
z
" style="fill: none"/>
   </g>
   <g id="matplotlib.axis_1">
    <g id="xtick_1">
     <g id="line2d_1">
      <path d="M 55.26375 384.1975 
L 55.26375 39.3575 
" clip-path="url(#p9dad8e51a6)" style="fill: none; stroke-dasharray: 2.96,1.28; stroke-dashoffset: 0; stroke: #b0b0b0; stroke-opacity: 0.3; stroke-width: 0.8"/>
     </g>
     <g id="line2d_2">
      <defs>
       <path id="m3fa9fb957d" d="M 0 0 
L 0 3.5 
" style="stroke: #000000; stroke-width: 0.8"/>
      </defs>
      <g>
       <use xlink:href="#m3fa9fb957d" x="55.26375" y="384.1975" style="stroke: #000000; stroke-width: 0.8"/>
      </g>
     </g>
     <g id="text_1">
      <!-- Jan -->
      <g transform="translate(47.555938 398.795937) scale(0.1 -0.1)">
       <defs>
        <path id="DejaVuSans-4a" d="M 628 4666 
L 1259 4666 
L 1259 325 
Q 1259 -519 939 -900 
Q 619 -1281 -91 -1281 
L -331 -1281 
L -331 -750 
L -134 -750 
Q 284 -750 456 -515 
Q 628 -281 628 325 
L 628 4666 
z
" transform="scale(0.015625)"/>
        <path id="DejaVuSans-61" d="M 2194 1759 
Q 1497 1759 1228 1600 
Q 959 1441 959 1056 
Q 959 750 1161 570 
Q 1363 391 1709 391 
Q 2188 391 2477 730 
Q 2766 1069 2766 1631 
L 2766 1759 
L 2194 1759 
z
M 3341 1997 
L 3341 0 
L 2766 0 
L 2766 531 
Q 2569 213 2275 61 
Q 1981 -91 1556 -91 
Q 1019 -91 701 211 
Q 384 513 384 1019 
Q 384 1609 779 1909 
Q 1175 2209 1959 2209 
L 2766 2209 
L 2766 2266 
Q 2766 2663 2505 2880 
Q 2244 3097 1772 3097 
Q 1472 3097 1187 3025 
Q 903 2953 641 2809 
L 641 3341 
Q 956 3463 1253 3523 
Q 1550 3584 1831 3584 
Q 2591 3584 2966 3190 
Q 3341 2797 3341 1997 
z
" transform="scale(0.015625)"/>
        <path id="DejaVuSans-6e" d="M 3513 2113 
L 3513 0 
L 2938 0 
L 2938 2094 
Q 2938 2591 2744 2837 
Q 2550 3084 2163 3084 
Q 1697 3084 1428 2787 
Q 1159 2491 1159 1978 
L 1159 0 
L 581 0 
L 581 3500 
L 1159 3500 
L 1159 2956 
Q 1366 3272 1645 3428 
Q 1925 3584 2291 3584 
Q 2894 3584 3203 3211 
Q 3513 2838 3513 2113 
z
" transform="scale(0.015625)"/>
       </defs>
       <use xlink:href="#DejaVuSans-4a"/>
       <use xlink:href="#DejaVuSans-61" transform="translate(29.492188 0)"/>
       <use xlink:href="#DejaVuSans-6e" transform="translate(90.771484 0)"/>
      </g>
     </g>
    </g>
    <g id="xtick_2">
     <g id="line2d_3">
      <path d="M 109.639052 384.1975 
L 109.639052 39.3575 
" clip-path="url(#p9dad8e51a6)" style="fill: none; stroke-dasharray: 2.96,1.28; stroke-dashoffset: 0; stroke: #b0b0b0; stroke-opacity: 0.3; stroke-width: 0.8"/>
     </g>
     <g id="line2d_4">
      <g>
       <use xlink:href="#m3fa9fb957d" x="109.639052" y="384.1975" style="stroke: #000000; stroke-width: 0.8"/>
      </g>
     </g>
     <g id="text_2">
      <!-- Feb -->
      <g transform="translate(100.78749 398.795937) scale(0.1 -0.1)">
       <defs>
        <path id="DejaVuSans-46" d="M 628 4666 
L 3309 4666 
L 3309 4134 
L 1259 4134 
L 1259 2759 
L 3109 2759 
L 3109 2228 
L 1259 2228 
L 1259 0 
L 628 0 
L 628 4666 
z
" transform="scale(0.015625)"/>
        <path id="DejaVuSans-65" d="M 3597 1894 
L 3597 1613 
L 953 1613 
Q 991 1019 1311 708 
Q 1631 397 2203 397 
Q 2534 397 2845 478 
Q 3156 559 3463 722 
L 3463 178 
Q 3153 47 2828 -22 
Q 2503 -91 2169 -91 
Q 1331 -91 842 396 
Q 353 884 353 1716 
Q 353 2575 817 3079 
Q 1281 3584 2069 3584 
Q 2775 3584 3186 3129 
Q 3597 2675 3597 1894 
z
M 3022 2063 
Q 3016 2534 2758 2815 
Q 2500 3097 2075 3097 
Q 1594 3097 1305 2825 
Q 1016 2553 972 2059 
L 3022 2063 
z
" transform="scale(0.015625)"/>
        <path id="DejaVuSans-62" d="M 3116 1747 
Q 3116 2381 2855 2742 
Q 2594 3103 2138 3103 
Q 1681 3103 1420 2742 
Q 1159 2381 1159 1747 
Q 1159 1113 1420 752 
Q 1681 391 2138 391 
Q 2594 391 2855 752 
Q 3116 1113 3116 1747 
z
M 1159 2969 
Q 1341 3281 1617 3432 
Q 1894 3584 2278 3584 
Q 2916 3584 3314 3078 
Q 3713 2572 3713 1747 
Q 3713 922 3314 415 
Q 2916 -91 2278 -91 
Q 1894 -91 1617 61 
Q 1341 213 1159 525 
L 1159 0 
L 581 0 
L 581 4863 
L 1159 4863 
L 1159 2969 
z
" transform="scale(0.015625)"/>
       </defs>
       <use xlink:href="#DejaVuSans-46"/>
       <use xlink:href="#DejaVuSans-65" transform="translate(52.019531 0)"/>
       <use xlink:href="#DejaVuSans-62" transform="translate(113.542969 0)"/>
      </g>
     </g>
    </g>
    <g id="xtick_3">
     <g id="line2d_5">
      <path d="M 158.752228 384.1975 
L 158.752228 39.3575 
" clip-path="url(#p9dad8e51a6)" style="fill: none; stroke-dasharray: 2.96,1.28; stroke-dashoffset: 0; stroke: #b0b0b0; stroke-opacity: 0.3; stroke-width: 0.8"/>
     </g>
     <g id="line2d_6">
      <g>
       <use xlink:href="#m3fa9fb957d" x="158.752228" y="384.1975" style="stroke: #000000; stroke-width: 0.8"/>
      </g>
     </g>
     <g id="text_3">
      <!-- Mar -->
      <g transform="translate(149.318634 398.795937) scale(0.1 -0.1)">
       <defs>
        <path id="DejaVuSans-4d" d="M 628 4666 
L 1569 4666 
L 2759 1491 
L 3956 4666 
L 4897 4666 
L 4897 0 
L 4281 0 
L 4281 4097 
L 3078 897 
L 2444 897 
L 1241 4097 
L 1241 0 
L 628 0 
L 628 4666 
z
" transform="scale(0.015625)"/>
        <path id="DejaVuSans-72" d="M 2631 2963 
Q 2534 3019 2420 3045 
Q 2306 3072 2169 3072 
Q 1681 3072 1420 2755 
Q 1159 2438 1159 1844 
L 1159 0 
L 581 0 
L 581 3500 
L 1159 3500 
L 1159 2956 
Q 1341 3275 1631 3429 
Q 1922 3584 2338 3584 
Q 2397 3584 2469 3576 
Q 2541 3569 2628 3553 
L 2631 2963 
z
" transform="scale(0.015625)"/>
       </defs>
       <use xlink:href="#DejaVuSans-4d"/>
       <use xlink:href="#DejaVuSans-61" transform="translate(86.279297 0)"/>
       <use xlink:href="#DejaVuSans-72" transform="translate(147.558594 0)"/>
      </g>
     </g>
    </g>
    <g id="xtick_4">
     <g id="line2d_7">
      <path d="M 213.12753 384.1975 
L 213.12753 39.3575 
" clip-path="url(#p9dad8e51a6)" style="fill: none; stroke-dasharray: 2.96,1.28; stroke-dashoffset: 0; stroke: #b0b0b0; stroke-opacity: 0.3; stroke-width: 0.8"/>
     </g>
     <g id="line2d_8">
      <g>
       <use xlink:href="#m3fa9fb957d" x="213.12753" y="384.1975" style="stroke: #000000; stroke-width: 0.8"/>
      </g>
     </g>
     <g id="text_4">
      <!-- Apr -->
      <g transform="translate(204.47753 398.795937) scale(0.1 -0.1)">
       <defs>
        <path id="DejaVuSans-41" d="M 2188 4044 
L 1331 1722 
L 3047 1722 
L 2188 4044 
z
M 1831 4666 
L 2547 4666 
L 4325 0 
L 3669 0 
L 3244 1197 
L 1141 1197 
L 716 0 
L 50 0 
L 1831 4666 
z
" transform="scale(0.015625)"/>
        <path id="DejaVuSans-70" d="M 1159 525 
L 1159 -1331 
L 581 -1331 
L 581 3500 
L 1159 3500 
L 1159 2969 
Q 1341 3281 1617 3432 
Q 1894 3584 2278 3584 
Q 2916 3584 3314 3078 
Q 3713 2572 3713 1747 
Q 3713 922 3314 415 
Q 2916 -91 2278 -91 
Q 1894 -91 1617 61 
Q 1341 213 1159 525 
z
M 3116 1747 
Q 3116 2381 2855 2742 
Q 2594 3103 2138 3103 
Q 1681 3103 1420 2742 
Q 1159 2381 1159 1747 
Q 1159 1113 1420 752 
Q 1681 391 2138 391 
Q 2594 391 2855 752 
Q 3116 1113 3116 1747 
z
" transform="scale(0.015625)"/>
       </defs>
       <use xlink:href="#DejaVuSans-41"/>
       <use xlink:href="#DejaVuSans-70" transform="translate(68.408203 0)"/>
       <use xlink:href="#DejaVuSans-72" transform="translate(131.884766 0)"/>
      </g>
     </g>
    </g>
    <g id="xtick_5">
     <g id="line2d_9">
      <path d="M 265.74879 384.1975 
L 265.74879 39.3575 
" clip-path="url(#p9dad8e51a6)" style="fill: none; stroke-dasharray: 2.96,1.28; stroke-dashoffset: 0; stroke: #b0b0b0; stroke-opacity: 0.3; stroke-width: 0.8"/>
     </g>
     <g id="line2d_10">
      <g>
       <use xlink:href="#m3fa9fb957d" x="265.74879" y="384.1975" style="stroke: #000000; stroke-width: 0.8"/>
      </g>
     </g>
     <g id="text_5">
      <!-- May -->
      <g transform="translate(255.41129 398.795937) scale(0.1 -0.1)">
       <defs>
        <path id="DejaVuSans-79" d="M 2059 -325 
Q 1816 -950 1584 -1140 
Q 1353 -1331 966 -1331 
L 506 -1331 
L 506 -850 
L 844 -850 
Q 1081 -850 1212 -737 
Q 1344 -625 1503 -206 
L 1606 56 
L 191 3500 
L 800 3500 
L 1894 763 
L 2988 3500 
L 3597 3500 
L 2059 -325 
z
" transform="scale(0.015625)"/>
       </defs>
       <use xlink:href="#DejaVuSans-4d"/>
       <use xlink:href="#DejaVuSans-61" transform="translate(86.279297 0)"/>
       <use xlink:href="#DejaVuSans-79" transform="translate(147.558594 0)"/>
      </g>
     </g>
    </g>
    <g id="xtick_6">
     <g id="line2d_11">
      <path d="M 320.124092 384.1975 
L 320.124092 39.3575 
" clip-path="url(#p9dad8e51a6)" style="fill: none; stroke-dasharray: 2.96,1.28; stroke-dashoffset: 0; stroke: #b0b0b0; stroke-opacity: 0.3; stroke-width: 0.8"/>
     </g>
     <g id="line2d_12">
      <g>
       <use xlink:href="#m3fa9fb957d" x="320.124092" y="384.1975" style="stroke: #000000; stroke-width: 0.8"/>
      </g>
     </g>
     <g id="text_6">
      <!-- Jun -->
      <g transform="translate(312.311592 398.795937) scale(0.1 -0.1)">
       <defs>
        <path id="DejaVuSans-75" d="M 544 1381 
L 544 3500 
L 1119 3500 
L 1119 1403 
Q 1119 906 1312 657 
Q 1506 409 1894 409 
Q 2359 409 2629 706 
Q 2900 1003 2900 1516 
L 2900 3500 
L 3475 3500 
L 3475 0 
L 2900 0 
L 2900 538 
Q 2691 219 2414 64 
Q 2138 -91 1772 -91 
Q 1169 -91 856 284 
Q 544 659 544 1381 
z
M 1991 3584 
L 1991 3584 
z
" transform="scale(0.015625)"/>
       </defs>
       <use xlink:href="#DejaVuSans-4a"/>
       <use xlink:href="#DejaVuSans-75" transform="translate(29.492188 0)"/>
       <use xlink:href="#DejaVuSans-6e" transform="translate(92.871094 0)"/>
      </g>
     </g>
    </g>
    <g id="xtick_7">
     <g id="line2d_13">
      <path d="M 372.745352 384.1975 
L 372.745352 39.3575 
" clip-path="url(#p9dad8e51a6)" style="fill: none; stroke-dasharray: 2.96,1.28; stroke-dashoffset: 0; stroke: #b0b0b0; stroke-opacity: 0.3; stroke-width: 0.8"/>
     </g>
     <g id="line2d_14">
      <g>
       <use xlink:href="#m3fa9fb957d" x="372.745352" y="384.1975" style="stroke: #000000; stroke-width: 0.8"/>
      </g>
     </g>
     <g id="text_7">
      <!-- Jul -->
      <g transform="translate(366.71254 398.795937) scale(0.1 -0.1)">
       <defs>
        <path id="DejaVuSans-6c" d="M 603 4863 
L 1178 4863 
L 1178 0 
L 603 0 
L 603 4863 
z
" transform="scale(0.015625)"/>
       </defs>
       <use xlink:href="#DejaVuSans-4a"/>
       <use xlink:href="#DejaVuSans-75" transform="translate(29.492188 0)"/>
       <use xlink:href="#DejaVuSans-6c" transform="translate(92.871094 0)"/>
      </g>
     </g>
    </g>
    <g id="xtick_8">
     <g id="line2d_15">
      <path d="M 427.120654 384.1975 
L 427.120654 39.3575 
" clip-path="url(#p9dad8e51a6)" style="fill: none; stroke-dasharray: 2.96,1.28; stroke-dashoffset: 0; stroke: #b0b0b0; stroke-opacity: 0.3; stroke-width: 0.8"/>
     </g>
     <g id="line2d_16">
      <g>
       <use xlink:href="#m3fa9fb957d" x="427.120654" y="384.1975" style="stroke: #000000; stroke-width: 0.8"/>
      </g>
     </g>
     <g id="text_8">
      <!-- Aug -->
      <g transform="translate(417.357373 398.795937) scale(0.1 -0.1)">
       <defs>
        <path id="DejaVuSans-67" d="M 2906 1791 
Q 2906 2416 2648 2759 
Q 2391 3103 1925 3103 
Q 1463 3103 1205 2759 
Q 947 2416 947 1791 
Q 947 1169 1205 825 
Q 1463 481 1925 481 
Q 2391 481 2648 825 
Q 2906 1169 2906 1791 
z
M 3481 434 
Q 3481 -459 3084 -895 
Q 2688 -1331 1869 -1331 
Q 1566 -1331 1297 -1286 
Q 1028 -1241 775 -1147 
L 775 -588 
Q 1028 -725 1275 -790 
Q 1522 -856 1778 -856 
Q 2344 -856 2625 -561 
Q 2906 -266 2906 331 
L 2906 616 
Q 2728 306 2450 153 
Q 2172 0 1784 0 
Q 1141 0 747 490 
Q 353 981 353 1791 
Q 353 2603 747 3093 
Q 1141 3584 1784 3584 
Q 2172 3584 2450 3431 
Q 2728 3278 2906 2969 
L 2906 3500 
L 3481 3500 
L 3481 434 
z
" transform="scale(0.015625)"/>
       </defs>
       <use xlink:href="#DejaVuSans-41"/>
       <use xlink:href="#DejaVuSans-75" transform="translate(68.408203 0)"/>
       <use xlink:href="#DejaVuSans-67" transform="translate(131.787109 0)"/>
      </g>
     </g>
    </g>
    <g id="xtick_9">
     <g id="line2d_17">
      <path d="M 481.495956 384.1975 
L 481.495956 39.3575 
" clip-path="url(#p9dad8e51a6)" style="fill: none; stroke-dasharray: 2.96,1.28; stroke-dashoffset: 0; stroke: #b0b0b0; stroke-opacity: 0.3; stroke-width: 0.8"/>
     </g>
     <g id="line2d_18">
      <g>
       <use xlink:href="#m3fa9fb957d" x="481.495956" y="384.1975" style="stroke: #000000; stroke-width: 0.8"/>
      </g>
     </g>
     <g id="text_9">
      <!-- Sep -->
      <g transform="translate(472.070956 398.795937) scale(0.1 -0.1)">
       <defs>
        <path id="DejaVuSans-53" d="M 3425 4513 
L 3425 3897 
Q 3066 4069 2747 4153 
Q 2428 4238 2131 4238 
Q 1616 4238 1336 4038 
Q 1056 3838 1056 3469 
Q 1056 3159 1242 3001 
Q 1428 2844 1947 2747 
L 2328 2669 
Q 3034 2534 3370 2195 
Q 3706 1856 3706 1288 
Q 3706 609 3251 259 
Q 2797 -91 1919 -91 
Q 1588 -91 1214 -16 
Q 841 59 441 206 
L 441 856 
Q 825 641 1194 531 
Q 1563 422 1919 422 
Q 2459 422 2753 634 
Q 3047 847 3047 1241 
Q 3047 1584 2836 1778 
Q 2625 1972 2144 2069 
L 1759 2144 
Q 1053 2284 737 2584 
Q 422 2884 422 3419 
Q 422 4038 858 4394 
Q 1294 4750 2059 4750 
Q 2388 4750 2728 4690 
Q 3069 4631 3425 4513 
z
" transform="scale(0.015625)"/>
       </defs>
       <use xlink:href="#DejaVuSans-53"/>
       <use xlink:href="#DejaVuSans-65" transform="translate(63.476562 0)"/>
       <use xlink:href="#DejaVuSans-70" transform="translate(125 0)"/>
      </g>
     </g>
    </g>
    <g id="xtick_10">
     <g id="line2d_19">
      <path d="M 534.117216 384.1975 
L 534.117216 39.3575 
" clip-path="url(#p9dad8e51a6)" style="fill: none; stroke-dasharray: 2.96,1.28; stroke-dashoffset: 0; stroke: #b0b0b0; stroke-opacity: 0.3; stroke-width: 0.8"/>
     </g>
     <g id="line2d_20">
      <g>
       <use xlink:href="#m3fa9fb957d" x="534.117216" y="384.1975" style="stroke: #000000; stroke-width: 0.8"/>
      </g>
     </g>
     <g id="text_10">
      <!-- Oct -->
      <g transform="translate(525.471904 398.795937) scale(0.1 -0.1)">
       <defs>
        <path id="DejaVuSans-4f" d="M 2522 4238 
Q 1834 4238 1429 3725 
Q 1025 3213 1025 2328 
Q 1025 1447 1429 934 
Q 1834 422 2522 422 
Q 3209 422 3611 934 
Q 4013 1447 4013 2328 
Q 4013 3213 3611 3725 
Q 3209 4238 2522 4238 
z
M 2522 4750 
Q 3503 4750 4090 4092 
Q 4678 3434 4678 2328 
Q 4678 1225 4090 567 
Q 3503 -91 2522 -91 
Q 1538 -91 948 565 
Q 359 1222 359 2328 
Q 359 3434 948 4092 
Q 1538 4750 2522 4750 
z
" transform="scale(0.015625)"/>
        <path id="DejaVuSans-63" d="M 3122 3366 
L 3122 2828 
Q 2878 2963 2633 3030 
Q 2388 3097 2138 3097 
Q 1578 3097 1268 2742 
Q 959 2388 959 1747 
Q 959 1106 1268 751 
Q 1578 397 2138 397 
Q 2388 397 2633 464 
Q 2878 531 3122 666 
L 3122 134 
Q 2881 22 2623 -34 
Q 2366 -91 2075 -91 
Q 1284 -91 818 406 
Q 353 903 353 1747 
Q 353 2603 823 3093 
Q 1294 3584 2113 3584 
Q 2378 3584 2631 3529 
Q 2884 3475 3122 3366 
z
" transform="scale(0.015625)"/>
        <path id="DejaVuSans-74" d="M 1172 4494 
L 1172 3500 
L 2356 3500 
L 2356 3053 
L 1172 3053 
L 1172 1153 
Q 1172 725 1289 603 
Q 1406 481 1766 481 
L 2356 481 
L 2356 0 
L 1766 0 
Q 1100 0 847 248 
Q 594 497 594 1153 
L 594 3053 
L 172 3053 
L 172 3500 
L 594 3500 
L 594 4494 
L 1172 4494 
z
" transform="scale(0.015625)"/>
       </defs>
       <use xlink:href="#DejaVuSans-4f"/>
       <use xlink:href="#DejaVuSans-63" transform="translate(78.710938 0)"/>
       <use xlink:href="#DejaVuSans-74" transform="translate(133.691406 0)"/>
      </g>
     </g>
    </g>
    <g id="xtick_11">
     <g id="line2d_21">
      <path d="M 588.492518 384.1975 
L 588.492518 39.3575 
" clip-path="url(#p9dad8e51a6)" style="fill: none; stroke-dasharray: 2.96,1.28; stroke-dashoffset: 0; stroke: #b0b0b0; stroke-opacity: 0.3; stroke-width: 0.8"/>
     </g>
     <g id="line2d_22">
      <g>
       <use xlink:href="#m3fa9fb957d" x="588.492518" y="384.1975" style="stroke: #000000; stroke-width: 0.8"/>
      </g>
     </g>
     <g id="text_11">
      <!-- Nov -->
      <g transform="translate(578.733143 398.795937) scale(0.1 -0.1)">
       <defs>
        <path id="DejaVuSans-4e" d="M 628 4666 
L 1478 4666 
L 3547 763 
L 3547 4666 
L 4159 4666 
L 4159 0 
L 3309 0 
L 1241 3903 
L 1241 0 
L 628 0 
L 628 4666 
z
" transform="scale(0.015625)"/>
        <path id="DejaVuSans-6f" d="M 1959 3097 
Q 1497 3097 1228 2736 
Q 959 2375 959 1747 
Q 959 1119 1226 758 
Q 1494 397 1959 397 
Q 2419 397 2687 759 
Q 2956 1122 2956 1747 
Q 2956 2369 2687 2733 
Q 2419 3097 1959 3097 
z
M 1959 3584 
Q 2709 3584 3137 3096 
Q 3566 2609 3566 1747 
Q 3566 888 3137 398 
Q 2709 -91 1959 -91 
Q 1206 -91 779 398 
Q 353 888 353 1747 
Q 353 2609 779 3096 
Q 1206 3584 1959 3584 
z
" transform="scale(0.015625)"/>
        <path id="DejaVuSans-76" d="M 191 3500 
L 800 3500 
L 1894 563 
L 2988 3500 
L 3597 3500 
L 2284 0 
L 1503 0 
L 191 3500 
z
" transform="scale(0.015625)"/>
       </defs>
       <use xlink:href="#DejaVuSans-4e"/>
       <use xlink:href="#DejaVuSans-6f" transform="translate(74.804688 0)"/>
       <use xlink:href="#DejaVuSans-76" transform="translate(135.986328 0)"/>
      </g>
     </g>
    </g>
    <g id="xtick_12">
     <g id="line2d_23">
      <path d="M 641.113778 384.1975 
L 641.113778 39.3575 
" clip-path="url(#p9dad8e51a6)" style="fill: none; stroke-dasharray: 2.96,1.28; stroke-dashoffset: 0; stroke: #b0b0b0; stroke-opacity: 0.3; stroke-width: 0.8"/>
     </g>
     <g id="line2d_24">
      <g>
       <use xlink:href="#m3fa9fb957d" x="641.113778" y="384.1975" style="stroke: #000000; stroke-width: 0.8"/>
      </g>
     </g>
     <g id="text_12">
      <!-- Dec -->
      <g transform="translate(631.437997 398.795937) scale(0.1 -0.1)">
       <defs>
        <path id="DejaVuSans-44" d="M 1259 4147 
L 1259 519 
L 2022 519 
Q 2988 519 3436 956 
Q 3884 1394 3884 2338 
Q 3884 3275 3436 3711 
Q 2988 4147 2022 4147 
L 1259 4147 
z
M 628 4666 
L 1925 4666 
Q 3281 4666 3915 4102 
Q 4550 3538 4550 2338 
Q 4550 1131 3912 565 
Q 3275 0 1925 0 
L 628 0 
L 628 4666 
z
" transform="scale(0.015625)"/>
       </defs>
       <use xlink:href="#DejaVuSans-44"/>
       <use xlink:href="#DejaVuSans-65" transform="translate(77.001953 0)"/>
       <use xlink:href="#DejaVuSans-63" transform="translate(138.525391 0)"/>
      </g>
     </g>
    </g>
    <g id="xtick_13">
     <g id="line2d_25">
      <path d="M 695.489081 384.1975 
L 695.489081 39.3575 
" clip-path="url(#p9dad8e51a6)" style="fill: none; stroke-dasharray: 2.96,1.28; stroke-dashoffset: 0; stroke: #b0b0b0; stroke-opacity: 0.3; stroke-width: 0.8"/>
     </g>
     <g id="line2d_26">
      <g>
       <use xlink:href="#m3fa9fb957d" x="695.489081" y="384.1975" style="stroke: #000000; stroke-width: 0.8"/>
      </g>
     </g>
     <g id="text_13">
      <!-- Jan -->
      <g transform="translate(687.781268 398.795937) scale(0.1 -0.1)">
       <use xlink:href="#DejaVuSans-4a"/>
       <use xlink:href="#DejaVuSans-61" transform="translate(29.492188 0)"/>
       <use xlink:href="#DejaVuSans-6e" transform="translate(90.771484 0)"/>
      </g>
     </g>
    </g>
    <g id="text_14">
     <!-- Day of the year -->
     <g transform="translate(333.176208 413.99375) scale(0.12 -0.12)">
      <defs>
       <path id="DejaVuSans-20" transform="scale(0.015625)"/>
       <path id="DejaVuSans-66" d="M 2375 4863 
L 2375 4384 
L 1825 4384 
Q 1516 4384 1395 4259 
Q 1275 4134 1275 3809 
L 1275 3500 
L 2222 3500 
L 2222 3053 
L 1275 3053 
L 1275 0 
L 697 0 
L 697 3053 
L 147 3053 
L 147 3500 
L 697 3500 
L 697 3744 
Q 697 4328 969 4595 
Q 1241 4863 1831 4863 
L 2375 4863 
z
" transform="scale(0.015625)"/>
       <path id="DejaVuSans-68" d="M 3513 2113 
L 3513 0 
L 2938 0 
L 2938 2094 
Q 2938 2591 2744 2837 
Q 2550 3084 2163 3084 
Q 1697 3084 1428 2787 
Q 1159 2491 1159 1978 
L 1159 0 
L 581 0 
L 581 4863 
L 1159 4863 
L 1159 2956 
Q 1366 3272 1645 3428 
Q 1925 3584 2291 3584 
Q 2894 3584 3203 3211 
Q 3513 2838 3513 2113 
z
" transform="scale(0.015625)"/>
      </defs>
      <use xlink:href="#DejaVuSans-44"/>
      <use xlink:href="#DejaVuSans-61" transform="translate(77.001953 0)"/>
      <use xlink:href="#DejaVuSans-79" transform="translate(138.28125 0)"/>
      <use xlink:href="#DejaVuSans-20" transform="translate(197.460938 0)"/>
      <use xlink:href="#DejaVuSans-6f" transform="translate(229.248047 0)"/>
      <use xlink:href="#DejaVuSans-66" transform="translate(290.429688 0)"/>
      <use xlink:href="#DejaVuSans-20" transform="translate(325.634766 0)"/>
      <use xlink:href="#DejaVuSans-74" transform="translate(357.421875 0)"/>
      <use xlink:href="#DejaVuSans-68" transform="translate(396.630859 0)"/>
      <use xlink:href="#DejaVuSans-65" transform="translate(460.009766 0)"/>
      <use xlink:href="#DejaVuSans-20" transform="translate(521.533203 0)"/>
      <use xlink:href="#DejaVuSans-79" transform="translate(553.320312 0)"/>
      <use xlink:href="#DejaVuSans-65" transform="translate(612.5 0)"/>
      <use xlink:href="#DejaVuSans-61" transform="translate(674.023438 0)"/>
      <use xlink:href="#DejaVuSans-72" transform="translate(735.302734 0)"/>
     </g>
    </g>
   </g>
   <g id="matplotlib.axis_2">
    <g id="ytick_1">
     <g id="line2d_27">
      <path d="M 55.26375 384.1975 
L 704.259291 384.1975 
" clip-path="url(#p9dad8e51a6)" style="fill: none; stroke-dasharray: 2.96,1.28; stroke-dashoffset: 0; stroke: #b0b0b0; stroke-opacity: 0.3; stroke-width: 0.8"/>
     </g>
     <g id="line2d_28">
      <defs>
       <path id="m0746fbee1b" d="M 0 0 
L -3.5 0 
" style="stroke: #000000; stroke-width: 0.8"/>
      </defs>
      <g>
       <use xlink:href="#m0746fbee1b" x="55.26375" y="384.1975" style="stroke: #000000; stroke-width: 0.8"/>
      </g>
     </g>
     <g id="text_15">
      <!-- 0 -->
      <g transform="translate(41.90125 387.996719) scale(0.1 -0.1)">
       <defs>
        <path id="DejaVuSans-30" d="M 2034 4250 
Q 1547 4250 1301 3770 
Q 1056 3291 1056 2328 
Q 1056 1369 1301 889 
Q 1547 409 2034 409 
Q 2525 409 2770 889 
Q 3016 1369 3016 2328 
Q 3016 3291 2770 3770 
Q 2525 4250 2034 4250 
z
M 2034 4750 
Q 2819 4750 3233 4129 
Q 3647 3509 3647 2328 
Q 3647 1150 3233 529 
Q 2819 -91 2034 -91 
Q 1250 -91 836 529 
Q 422 1150 422 2328 
Q 422 3509 836 4129 
Q 1250 4750 2034 4750 
z
" transform="scale(0.015625)"/>
       </defs>
       <use xlink:href="#DejaVuSans-30"/>
      </g>
     </g>
    </g>
    <g id="ytick_2">
     <g id="line2d_29">
      <path d="M 55.26375 316.385025 
L 704.259291 316.385025 
" clip-path="url(#p9dad8e51a6)" style="fill: none; stroke-dasharray: 2.96,1.28; stroke-dashoffset: 0; stroke: #b0b0b0; stroke-opacity: 0.3; stroke-width: 0.8"/>
     </g>
     <g id="line2d_30">
      <g>
       <use xlink:href="#m0746fbee1b" x="55.26375" y="316.385025" style="stroke: #000000; stroke-width: 0.8"/>
      </g>
     </g>
     <g id="text_16">
      <!-- 1000 -->
      <g transform="translate(22.81375 320.184243) scale(0.1 -0.1)">
       <defs>
        <path id="DejaVuSans-31" d="M 794 531 
L 1825 531 
L 1825 4091 
L 703 3866 
L 703 4441 
L 1819 4666 
L 2450 4666 
L 2450 531 
L 3481 531 
L 3481 0 
L 794 0 
L 794 531 
z
" transform="scale(0.015625)"/>
       </defs>
       <use xlink:href="#DejaVuSans-31"/>
       <use xlink:href="#DejaVuSans-30" transform="translate(63.623047 0)"/>
       <use xlink:href="#DejaVuSans-30" transform="translate(127.246094 0)"/>
       <use xlink:href="#DejaVuSans-30" transform="translate(190.869141 0)"/>
      </g>
     </g>
    </g>
    <g id="ytick_3">
     <g id="line2d_31">
      <path d="M 55.26375 248.572549 
L 704.259291 248.572549 
" clip-path="url(#p9dad8e51a6)" style="fill: none; stroke-dasharray: 2.96,1.28; stroke-dashoffset: 0; stroke: #b0b0b0; stroke-opacity: 0.3; stroke-width: 0.8"/>
     </g>
     <g id="line2d_32">
      <g>
       <use xlink:href="#m0746fbee1b" x="55.26375" y="248.572549" style="stroke: #000000; stroke-width: 0.8"/>
      </g>
     </g>
     <g id="text_17">
      <!-- 2000 -->
      <g transform="translate(22.81375 252.371768) scale(0.1 -0.1)">
       <defs>
        <path id="DejaVuSans-32" d="M 1228 531 
L 3431 531 
L 3431 0 
L 469 0 
L 469 531 
Q 828 903 1448 1529 
Q 2069 2156 2228 2338 
Q 2531 2678 2651 2914 
Q 2772 3150 2772 3378 
Q 2772 3750 2511 3984 
Q 2250 4219 1831 4219 
Q 1534 4219 1204 4116 
Q 875 4013 500 3803 
L 500 4441 
Q 881 4594 1212 4672 
Q 1544 4750 1819 4750 
Q 2544 4750 2975 4387 
Q 3406 4025 3406 3419 
Q 3406 3131 3298 2873 
Q 3191 2616 2906 2266 
Q 2828 2175 2409 1742 
Q 1991 1309 1228 531 
z
" transform="scale(0.015625)"/>
       </defs>
       <use xlink:href="#DejaVuSans-32"/>
       <use xlink:href="#DejaVuSans-30" transform="translate(63.623047 0)"/>
       <use xlink:href="#DejaVuSans-30" transform="translate(127.246094 0)"/>
       <use xlink:href="#DejaVuSans-30" transform="translate(190.869141 0)"/>
      </g>
     </g>
    </g>
    <g id="ytick_4">
     <g id="line2d_33">
      <path d="M 55.26375 180.760074 
L 704.259291 180.760074 
" clip-path="url(#p9dad8e51a6)" style="fill: none; stroke-dasharray: 2.96,1.28; stroke-dashoffset: 0; stroke: #b0b0b0; stroke-opacity: 0.3; stroke-width: 0.8"/>
     </g>
     <g id="line2d_34">
      <g>
       <use xlink:href="#m0746fbee1b" x="55.26375" y="180.760074" style="stroke: #000000; stroke-width: 0.8"/>
      </g>
     </g>
     <g id="text_18">
      <!-- 3000 -->
      <g transform="translate(22.81375 184.559292) scale(0.1 -0.1)">
       <defs>
        <path id="DejaVuSans-33" d="M 2597 2516 
Q 3050 2419 3304 2112 
Q 3559 1806 3559 1356 
Q 3559 666 3084 287 
Q 2609 -91 1734 -91 
Q 1441 -91 1130 -33 
Q 819 25 488 141 
L 488 750 
Q 750 597 1062 519 
Q 1375 441 1716 441 
Q 2309 441 2620 675 
Q 2931 909 2931 1356 
Q 2931 1769 2642 2001 
Q 2353 2234 1838 2234 
L 1294 2234 
L 1294 2753 
L 1863 2753 
Q 2328 2753 2575 2939 
Q 2822 3125 2822 3475 
Q 2822 3834 2567 4026 
Q 2313 4219 1838 4219 
Q 1578 4219 1281 4162 
Q 984 4106 628 3988 
L 628 4550 
Q 988 4650 1302 4700 
Q 1616 4750 1894 4750 
Q 2613 4750 3031 4423 
Q 3450 4097 3450 3541 
Q 3450 3153 3228 2886 
Q 3006 2619 2597 2516 
z
" transform="scale(0.015625)"/>
       </defs>
       <use xlink:href="#DejaVuSans-33"/>
       <use xlink:href="#DejaVuSans-30" transform="translate(63.623047 0)"/>
       <use xlink:href="#DejaVuSans-30" transform="translate(127.246094 0)"/>
       <use xlink:href="#DejaVuSans-30" transform="translate(190.869141 0)"/>
      </g>
     </g>
    </g>
    <g id="ytick_5">
     <g id="line2d_35">
      <path d="M 55.26375 112.947598 
L 704.259291 112.947598 
" clip-path="url(#p9dad8e51a6)" style="fill: none; stroke-dasharray: 2.96,1.28; stroke-dashoffset: 0; stroke: #b0b0b0; stroke-opacity: 0.3; stroke-width: 0.8"/>
     </g>
     <g id="line2d_36">
      <g>
       <use xlink:href="#m0746fbee1b" x="55.26375" y="112.947598" style="stroke: #000000; stroke-width: 0.8"/>
      </g>
     </g>
     <g id="text_19">
      <!-- 4000 -->
      <g transform="translate(22.81375 116.746817) scale(0.1 -0.1)">
       <defs>
        <path id="DejaVuSans-34" d="M 2419 4116 
L 825 1625 
L 2419 1625 
L 2419 4116 
z
M 2253 4666 
L 3047 4666 
L 3047 1625 
L 3713 1625 
L 3713 1100 
L 3047 1100 
L 3047 0 
L 2419 0 
L 2419 1100 
L 313 1100 
L 313 1709 
L 2253 4666 
z
" transform="scale(0.015625)"/>
       </defs>
       <use xlink:href="#DejaVuSans-34"/>
       <use xlink:href="#DejaVuSans-30" transform="translate(63.623047 0)"/>
       <use xlink:href="#DejaVuSans-30" transform="translate(127.246094 0)"/>
       <use xlink:href="#DejaVuSans-30" transform="translate(190.869141 0)"/>
      </g>
     </g>
    </g>
    <g id="ytick_6">
     <g id="line2d_37">
      <path d="M 55.26375 45.135123 
L 704.259291 45.135123 
" clip-path="url(#p9dad8e51a6)" style="fill: none; stroke-dasharray: 2.96,1.28; stroke-dashoffset: 0; stroke: #b0b0b0; stroke-opacity: 0.3; stroke-width: 0.8"/>
     </g>
     <g id="line2d_38">
      <g>
       <use xlink:href="#m0746fbee1b" x="55.26375" y="45.135123" style="stroke: #000000; stroke-width: 0.8"/>
      </g>
     </g>
     <g id="text_20">
      <!-- 5000 -->
      <g transform="translate(22.81375 48.934342) scale(0.1 -0.1)">
       <defs>
        <path id="DejaVuSans-35" d="M 691 4666 
L 3169 4666 
L 3169 4134 
L 1269 4134 
L 1269 2991 
Q 1406 3038 1543 3061 
Q 1681 3084 1819 3084 
Q 2600 3084 3056 2656 
Q 3513 2228 3513 1497 
Q 3513 744 3044 326 
Q 2575 -91 1722 -91 
Q 1428 -91 1123 -41 
Q 819 9 494 109 
L 494 744 
Q 775 591 1075 516 
Q 1375 441 1709 441 
Q 2250 441 2565 725 
Q 2881 1009 2881 1497 
Q 2881 1984 2565 2268 
Q 2250 2553 1709 2553 
Q 1456 2553 1204 2497 
Q 953 2441 691 2322 
L 691 4666 
z
" transform="scale(0.015625)"/>
       </defs>
       <use xlink:href="#DejaVuSans-35"/>
       <use xlink:href="#DejaVuSans-30" transform="translate(63.623047 0)"/>
       <use xlink:href="#DejaVuSans-30" transform="translate(127.246094 0)"/>
       <use xlink:href="#DejaVuSans-30" transform="translate(190.869141 0)"/>
      </g>
     </g>
    </g>
    <g id="text_21">
     <!-- Daily pedestrian count -->
     <g transform="translate(16.318125 279.793125) rotate(-90) scale(0.12 -0.12)">
      <defs>
       <path id="DejaVuSans-69" d="M 603 3500 
L 1178 3500 
L 1178 0 
L 603 0 
L 603 3500 
z
M 603 4863 
L 1178 4863 
L 1178 4134 
L 603 4134 
L 603 4863 
z
" transform="scale(0.015625)"/>
       <path id="DejaVuSans-64" d="M 2906 2969 
L 2906 4863 
L 3481 4863 
L 3481 0 
L 2906 0 
L 2906 525 
Q 2725 213 2448 61 
Q 2172 -91 1784 -91 
Q 1150 -91 751 415 
Q 353 922 353 1747 
Q 353 2572 751 3078 
Q 1150 3584 1784 3584 
Q 2172 3584 2448 3432 
Q 2725 3281 2906 2969 
z
M 947 1747 
Q 947 1113 1208 752 
Q 1469 391 1925 391 
Q 2381 391 2643 752 
Q 2906 1113 2906 1747 
Q 2906 2381 2643 2742 
Q 2381 3103 1925 3103 
Q 1469 3103 1208 2742 
Q 947 2381 947 1747 
z
" transform="scale(0.015625)"/>
       <path id="DejaVuSans-73" d="M 2834 3397 
L 2834 2853 
Q 2591 2978 2328 3040 
Q 2066 3103 1784 3103 
Q 1356 3103 1142 2972 
Q 928 2841 928 2578 
Q 928 2378 1081 2264 
Q 1234 2150 1697 2047 
L 1894 2003 
Q 2506 1872 2764 1633 
Q 3022 1394 3022 966 
Q 3022 478 2636 193 
Q 2250 -91 1575 -91 
Q 1294 -91 989 -36 
Q 684 19 347 128 
L 347 722 
Q 666 556 975 473 
Q 1284 391 1588 391 
Q 1994 391 2212 530 
Q 2431 669 2431 922 
Q 2431 1156 2273 1281 
Q 2116 1406 1581 1522 
L 1381 1569 
Q 847 1681 609 1914 
Q 372 2147 372 2553 
Q 372 3047 722 3315 
Q 1072 3584 1716 3584 
Q 2034 3584 2315 3537 
Q 2597 3491 2834 3397 
z
" transform="scale(0.015625)"/>
      </defs>
      <use xlink:href="#DejaVuSans-44"/>
      <use xlink:href="#DejaVuSans-61" transform="translate(77.001953 0)"/>
      <use xlink:href="#DejaVuSans-69" transform="translate(138.28125 0)"/>
      <use xlink:href="#DejaVuSans-6c" transform="translate(166.064453 0)"/>
      <use xlink:href="#DejaVuSans-79" transform="translate(193.847656 0)"/>
      <use xlink:href="#DejaVuSans-20" transform="translate(253.027344 0)"/>
      <use xlink:href="#DejaVuSans-70" transform="translate(284.814453 0)"/>
      <use xlink:href="#DejaVuSans-65" transform="translate(348.291016 0)"/>
      <use xlink:href="#DejaVuSans-64" transform="translate(409.814453 0)"/>
      <use xlink:href="#DejaVuSans-65" transform="translate(473.291016 0)"/>
      <use xlink:href="#DejaVuSans-73" transform="translate(534.814453 0)"/>
      <use xlink:href="#DejaVuSans-74" transform="translate(586.914062 0)"/>
      <use xlink:href="#DejaVuSans-72" transform="translate(626.123047 0)"/>
      <use xlink:href="#DejaVuSans-69" transform="translate(667.236328 0)"/>
      <use xlink:href="#DejaVuSans-61" transform="translate(695.019531 0)"/>
      <use xlink:href="#DejaVuSans-6e" transform="translate(756.298828 0)"/>
      <use xlink:href="#DejaVuSans-20" transform="translate(819.677734 0)"/>
      <use xlink:href="#DejaVuSans-63" transform="translate(851.464844 0)"/>
      <use xlink:href="#DejaVuSans-6f" transform="translate(906.445312 0)"/>
      <use xlink:href="#DejaVuSans-75" transform="translate(967.626953 0)"/>
      <use xlink:href="#DejaVuSans-6e" transform="translate(1031.005859 0)"/>
      <use xlink:href="#DejaVuSans-74" transform="translate(1094.384766 0)"/>
     </g>
    </g>
   </g>
   <g id="line2d_39">
    <path d="M 57.017792 358.835634 
L 58.771834 320.860648 
L 60.525876 309.40034 
L 62.279918 335.101268 
L 64.03396 342.764078 
L 65.788002 336.79658 
L 67.542044 258.540983 
L 69.296086 285.598161 
L 71.050128 273.324103 
L 72.80417 280.512225 
L 74.558212 281.19035 
L 76.312254 337.406892 
L 78.066296 329.879707 
L 79.820338 270.136916 
L 81.57438 303.771904 
L 83.328422 294.278158 
L 85.082464 281.054725 
L 86.836506 288.988785 
L 88.590548 327.438458 
L 90.34459 325.878771 
L 92.098632 251.556298 
L 93.852674 255.760672 
L 95.606716 240.63849 
L 97.360758 264.711918 
L 99.1148 316.2494 
L 100.868842 341.068766 
L 102.622884 343.91689 
L 104.376926 339.780329 
L 106.130968 275.629727 
L 107.88501 256.303171 
L 109.639052 253.455047 
L 111.393094 257.930671 
L 113.147136 327.913145 
L 114.901178 347.443138 
L 116.65522 285.665973 
L 118.409262 207.613814 
L 120.163304 251.759736 
L 121.917346 193.237569 
L 123.671388 239.214428 
L 125.42543 332.524394 
L 127.179472 327.845333 
L 128.933514 254.540047 
L 130.687556 257.320358 
L 132.441598 234.399742 
L 134.19564 235.823804 
L 135.949682 256.913484 
L 137.703724 320.182523 
L 139.457766 322.420335 
L 141.211808 242.740676 
L 142.96585 231.483805 
L 144.719892 211.004438 
L 146.473934 213.988187 
L 148.227976 227.754119 
L 149.982018 296.787219 
L 151.73606 303.704092 
L 153.490102 170.384765 
L 155.244144 192.220382 
L 156.998186 158.178519 
L 158.752228 216.361623 
L 160.50627 250.132236 
L 162.260312 319.843461 
L 164.014354 292.718471 
L 165.768396 137.292277 
L 167.522438 193.508819 
L 169.27648 55.713869 
L 171.030522 104.877914 
L 172.784564 164.552892 
L 174.538606 299.160656 
L 176.292648 293.939095 
L 178.04669 157.229145 
L 179.800732 190.660695 
L 181.554774 127.256031 
L 183.308816 84.262921 
L 185.062858 88.87417 
L 186.8169 276.240039 
L 188.570942 291.090971 
L 190.324984 157.975082 
L 192.079026 111.387911 
L 193.833068 112.269474 
L 195.58711 97.350729 
L 197.341152 144.955087 
L 199.095194 288.58191 
L 200.849236 305.670653 
L 202.603278 188.626321 
L 204.35732 147.192898 
L 206.111362 116.134785 
L 207.865404 133.020091 
L 209.619446 144.141337 
L 211.373488 291.633471 
L 213.12753 291.362221 
L 214.881572 135.054465 
L 216.635614 107.319163 
L 218.389656 167.129766 
L 220.143698 155.059146 
L 221.89774 182.86226 
L 223.651782 292.718471 
L 225.405824 280.783475 
L 227.159866 182.251948 
L 228.913908 148.88821 
L 230.66795 131.189154 
L 232.421992 130.23978 
L 234.176034 121.017283 
L 235.930076 263.220044 
L 237.684118 274.88379 
L 239.43816 108.811037 
L 241.192202 144.683837 
L 242.946244 160.145081 
L 244.700286 192.627257 
L 246.454328 306.823466 
L 248.20837 317.876899 
L 249.962412 339.780329 
L 251.716454 329.472832 
L 253.470496 280.240975 
L 255.224538 251.759736 
L 256.97858 306.552216 
L 258.732622 262.745357 
L 260.486664 315.503462 
L 262.240706 290.412846 
L 263.994748 132.477591 
L 265.74879 117.897909 
L 267.502832 110.099474 
L 269.256874 114.236035 
L 271.010916 140.547276 
L 272.764958 247.148487 
L 274.519 280.715663 
L 276.273042 128.815718 
L 278.027084 132.884466 
L 279.781126 124.475719 
L 281.535168 135.46134 
L 283.28921 203.070378 
L 285.043252 288.920972 
L 286.797294 294.34597 
L 288.551336 166.858516 
L 290.305378 144.141337 
L 292.05942 131.121342 
L 293.813462 135.596965 
L 295.567504 143.259775 
L 297.321546 255.964109 
L 299.075588 282.885662 
L 300.82963 159.127894 
L 302.583672 137.08884 
L 304.337714 132.748841 
L 306.091756 127.662905 
L 307.845798 179.132574 
L 309.59984 283.902849 
L 311.353882 307.433778 
L 313.107924 170.113515 
L 314.861966 168.621641 
L 316.616008 189.914758 
L 318.37005 150.108835 
L 320.124092 177.708512 
L 321.878134 287.361285 
L 323.632176 315.43565 
L 325.386218 258.337546 
L 327.14026 217.853498 
L 328.894302 216.768498 
L 330.648344 223.210683 
L 332.402386 235.349116 
L 334.156428 297.329719 
L 335.91047 302.958154 
L 337.664512 289.327847 
L 339.418554 218.599435 
L 341.172596 242.198176 
L 342.926638 215.615686 
L 344.68068 234.670992 
L 346.434722 294.34597 
L 348.188764 306.755653 
L 349.942806 220.905059 
L 351.696848 239.417865 
L 353.45089 221.718809 
L 355.204932 218.328185 
L 356.958974 225.58412 
L 358.713016 294.278158 
L 360.467058 304.110967 
L 362.2211 229.245994 
L 363.975142 229.042556 
L 365.729184 224.160058 
L 367.483226 235.891616 
L 369.237268 248.911612 
L 370.99131 333.134706 
L 372.745352 321.335335 
L 374.499394 263.423481 
L 376.253436 260.236295 
L 378.007478 262.338482 
L 379.76152 269.323167 
L 381.515562 238.73974 
L 383.269604 316.181587 
L 385.023646 331.439394 
L 386.777688 250.267861 
L 388.53173 244.503801 
L 390.285772 265.322231 
L 392.039814 229.585056 
L 393.793856 260.64317 
L 395.547898 316.995337 
L 397.30194 325.946584 
L 399.055982 256.913484 
L 400.810024 256.031921 
L 402.564066 251.217236 
L 404.318108 237.044428 
L 406.07215 233.450367 
L 407.826192 311.434714 
L 409.580234 318.215961 
L 411.334276 230.873493 
L 413.088318 243.961301 
L 414.84236 218.328185 
L 416.596402 212.4285 
L 418.350444 247.419737 
L 420.104486 286.615348 
L 421.858528 278.003163 
L 423.61257 126.577906 
L 425.366612 116.473847 
L 427.120654 120.746033 
L 428.874696 121.152908 
L 430.628738 141.225401 
L 432.38278 270.543791 
L 434.136822 292.175971 
L 435.890864 149.837585 
L 437.644906 136.00384 
L 439.398948 126.577906 
L 441.15299 141.293213 
L 442.907032 185.167885 
L 444.661074 295.024095 
L 446.415116 287.971597 
L 448.169158 138.648527 
L 449.9232 145.904461 
L 451.677242 146.989461 
L 453.431284 160.212894 
L 455.185326 162.31508 
L 456.939368 262.474107 
L 458.69341 209.851626 
L 460.447452 166.248204 
L 462.201494 150.922585 
L 463.955536 157.90727 
L 465.709578 148.956023 
L 467.46362 158.924457 
L 469.217662 289.802534 
L 470.971704 291.226596 
L 472.725746 163.196643 
L 474.479788 163.94258 
L 476.23383 188.287259 
L 477.987872 177.437262 
L 479.741914 161.636956 
L 481.495956 275.426289 
L 483.249998 303.636279 
L 485.00404 193.237569 
L 486.758082 177.91195 
L 488.512124 187.948196 
L 490.266166 196.763818 
L 492.020208 194.254756 
L 493.77425 295.837845 
L 495.528292 314.0794 
L 497.282334 196.560381 
L 499.036376 168.825078 
L 500.790418 156.347583 
L 502.54446 219.752247 
L 504.298502 221.244122 
L 506.052544 290.209409 
L 507.806586 302.144405 
L 509.560628 215.412249 
L 511.31467 178.793512 
L 513.068712 168.892891 
L 514.822754 161.501331 
L 516.576796 215.480061 
L 518.330838 305.602841 
L 520.08488 315.096588 
L 521.838922 218.260373 
L 523.592964 210.733188 
L 525.347006 218.599435 
L 527.101048 169.231953 
L 528.85509 305.535029 
L 532.363174 322.488147 
L 534.117216 284.377536 
L 535.871258 251.89536 
L 537.6253 259.490358 
L 539.379342 276.579102 
L 541.133384 283.767224 
L 542.887426 318.080336 
L 544.641468 336.457517 
L 546.39551 250.335674 
L 548.149552 194.186944 
L 549.903594 183.743823 
L 551.657636 238.19724 
L 553.411678 228.500056 
L 555.16572 303.229404 
L 556.919762 298.007844 
L 558.673804 235.145679 
L 560.427846 179.878512 
L 562.181888 196.085693 
L 563.93593 194.932881 
L 565.689972 204.358815 
L 567.444014 312.587526 
L 569.198056 324.997209 
L 570.952098 201.646316 
L 572.70614 178.386637 
L 574.460182 171.469765 
L 576.214224 177.301637 
L 577.968266 238.061615 
L 579.722308 302.890342 
L 581.47635 319.640023 
L 583.230392 232.229743 
L 584.984434 215.005374 
L 586.738476 228.025369 
L 588.492518 238.400678 
L 590.24656 305.195966 
L 592.000602 321.19971 
L 593.754644 321.403148 
L 595.508686 277.053789 
L 597.262728 258.201921 
L 599.01677 266.203793 
L 600.770812 269.255354 
L 602.524854 259.897233 
L 604.278896 314.418463 
L 606.032938 325.404084 
L 607.78698 226.262245 
L 609.541022 261.863794 
L 613.049106 229.788493 
L 614.803148 282.817849 
L 616.55719 316.452837 
L 618.311232 309.468152 
L 620.065274 231.280368 
L 621.819316 242.333801 
L 623.573358 228.432244 
L 625.3274 275.833164 
L 627.081442 267.356605 
L 628.835484 332.320956 
L 630.589526 323.301897 
L 632.343568 271.696603 
L 634.09761 277.257226 
L 635.851652 241.113177 
L 637.605694 247.2163 
L 639.359736 273.866602 
L 641.113778 321.538773 
L 642.86782 352.393449 
L 644.621862 298.889406 
L 646.375904 261.253482 
L 648.129946 239.28224 
L 649.883988 268.645042 
L 651.63803 306.416591 
L 653.392072 329.40502 
L 655.146114 326.828146 
L 656.900157 286.140661 
L 658.654199 298.889406 
L 660.408241 298.346906 
L 662.162283 308.85784 
L 663.916325 307.365965 
L 665.670367 345.951264 
L 667.424409 354.020948 
L 669.178451 287.361285 
L 670.932493 281.936287 
L 672.686535 308.85784 
L 674.440577 294.278158 
L 676.194619 330.015332 
L 677.948661 361.005633 
L 679.702703 355.44501 
L 681.456745 335.779393 
L 683.210787 352.461262 
L 684.964829 366.837506 
L 686.718871 365.888132 
L 688.472913 354.427823 
L 690.226955 364.938757 
L 691.980997 365.277819 
L 693.735039 368.125943 
L 695.489081 360.530946 
L 695.489081 360.530946 
" clip-path="url(#p9dad8e51a6)" style="fill: none; stroke: #0d6efc; stroke-opacity: 0.8; stroke-width: 2.5; stroke-linecap: square"/>
   </g>
   <g id="line2d_40">
    <path d="M 57.017792 358.835634 
L 58.771834 348.799388 
L 60.525876 336.050642 
L 62.279918 360.124071 
L 64.03396 358.496572 
L 65.788002 346.697201 
L 67.542044 316.385025 
L 69.296086 319.707836 
L 71.050128 322.759397 
L 72.80417 331.914081 
L 74.558212 350.426887 
L 76.312254 357.479385 
L 78.066296 290.616284 
L 79.820338 294.549407 
L 81.57438 313.130026 
L 83.328422 283.563786 
L 85.082464 306.552216 
L 86.836506 303.907529 
L 88.590548 330.286582 
L 90.34459 274.680352 
L 92.098632 290.480659 
L 93.852674 262.541919 
L 95.606716 282.478787 
L 97.360758 283.089099 
L 99.1148 330.557832 
L 100.868842 346.629389 
L 102.622884 357.140322 
L 104.376926 294.549407 
L 106.130968 286.479723 
L 107.88501 310.620964 
L 109.639052 310.756589 
L 111.393094 349.070638 
L 113.147136 349.9522 
L 114.901178 297.668781 
L 116.65522 282.071912 
L 118.409262 251.488486 
L 120.163304 282.0041 
L 121.917346 263.287856 
L 123.671388 330.896894 
L 125.42543 345.612201 
L 127.179472 271.289728 
L 128.933514 237.180053 
L 130.687556 256.642234 
L 132.441598 288.514097 
L 134.19564 302.686905 
L 135.949682 341.679078 
L 137.703724 335.033455 
L 139.457766 288.446285 
L 141.211808 278.274413 
L 142.96585 288.107222 
L 144.719892 274.88379 
L 146.473934 275.968789 
L 148.227976 322.82721 
L 149.982018 317.741274 
L 151.73606 200.222254 
L 153.490102 135.054465 
L 155.244144 188.694133 
L 156.998186 169.571015 
L 158.752228 209.444751 
L 160.50627 300.245655 
L 162.260312 293.125346 
L 164.014354 120.94947 
L 165.768396 164.75633 
L 167.522438 141.157588 
L 169.27648 145.022899 
L 171.030522 174.521326 
L 172.784564 298.821593 
L 174.538606 313.062213 
L 176.292648 292.582846 
L 178.04669 150.651335 
L 179.800732 149.634148 
L 181.554774 133.359153 
L 183.308816 148.481335 
L 185.062858 300.65253 
L 186.8169 335.44033 
L 188.570942 164.552892 
L 190.324984 160.755393 
L 192.079026 156.211958 
L 193.833068 205.57944 
L 195.58711 222.396934 
L 197.341152 292.515033 
L 199.095194 311.773776 
L 200.849236 177.844137 
L 202.603278 172.215702 
L 204.35732 165.095392 
L 206.111362 172.826014 
L 207.865404 193.915694 
L 209.619446 296.176907 
L 211.373488 276.375664 
L 213.12753 194.729444 
L 214.881572 182.184136 
L 216.635614 163.12883 
L 218.389656 188.422883 
L 220.143698 184.082885 
L 221.89774 295.024095 
L 223.651782 309.061277 
L 225.405824 197.577568 
L 227.159866 187.609134 
L 228.913908 176.420075 
L 230.66795 181.438198 
L 232.421992 199.408504 
L 234.176034 297.058469 
L 235.930076 306.009716 
L 237.684118 203.545065 
L 239.43816 179.268199 
L 242.946244 184.625385 
L 244.700286 322.82721 
L 246.454328 334.219706 
L 248.20837 344.662827 
L 249.962412 334.762205 
L 251.716454 311.909401 
L 253.470496 297.940031 
L 255.224538 286.140661 
L 256.97858 339.509079 
L 258.732622 333.677206 
L 260.486664 313.943775 
L 262.240706 228.771306 
L 263.994748 238.332865 
L 265.74879 201.103816 
L 267.502832 180.895699 
L 269.256874 201.103816 
L 271.010916 295.70222 
L 272.764958 308.518777 
L 274.519 205.172565 
L 276.273042 199.069442 
L 278.027084 199.00163 
L 279.781126 193.034132 
L 281.535168 207.274752 
L 283.28921 232.229743 
L 285.043252 302.686905 
L 286.797294 206.596627 
L 288.551336 201.036004 
L 290.305378 193.373194 
L 292.05942 188.219446 
L 293.813462 206.393189 
L 295.567504 310.417527 
L 297.321546 289.734722 
L 299.075588 223.278496 
L 300.82963 213.649124 
L 302.583672 219.345372 
L 304.337714 211.750375 
L 306.091756 247.962237 
L 307.845798 298.957218 
L 309.59984 309.061277 
L 311.353882 235.959429 
L 313.107924 250.810361 
L 314.861966 216.497248 
L 316.616008 202.053191 
L 318.37005 216.836311 
L 320.124092 288.03941 
L 321.878134 306.009716 
L 323.632176 328.184395 
L 325.386218 288.446285 
L 327.14026 255.692859 
L 328.894302 366.973131 
L 330.648344 296.787219 
L 332.402386 380.467814 
L 334.156428 327.235021 
L 335.91047 328.726895 
L 337.664512 263.559106 
L 339.418554 248.640362 
L 341.172596 252.844735 
L 342.926638 261.456919 
L 344.68068 293.328783 
L 346.434722 381.213751 
L 348.188764 285.394723 
L 349.942806 260.236295 
L 351.696848 259.28692 
L 353.45089 268.916292 
L 355.204932 378.908127 
L 356.958974 309.264715 
L 358.713016 330.21877 
L 360.467058 293.600033 
L 362.2211 280.783475 
L 363.975142 307.094715 
L 365.729184 262.406294 
L 367.483226 277.867539 
L 369.237268 309.807214 
L 372.745352 382.366563 
L 374.499394 267.424417 
L 376.253436 340.390641 
L 378.007478 380.400001 
L 379.76152 285.598161 
L 381.515562 303.636279 
L 383.269604 325.404084 
L 385.023646 297.736594 
L 386.777688 299.770968 
L 388.53173 277.935351 
L 390.285772 287.090035 
L 392.039814 274.951602 
L 393.793856 311.163464 
L 395.547898 339.102204 
L 397.30194 284.241911 
L 399.055982 297.261907 
L 400.810024 268.238167 
L 402.564066 286.41191 
L 404.318108 265.390043 
L 406.07215 320.92846 
L 407.826192 333.473768 
L 409.580234 267.76348 
L 411.334276 287.22566 
L 413.088318 244.029113 
L 414.84236 235.959429 
L 416.596402 258.269733 
L 418.350444 306.213153 
L 420.104486 330.693457 
L 421.858528 205.03694 
L 423.61257 162.179455 
L 427.120654 194.119131 
L 428.874696 190.118195 
L 430.628738 270.408166 
L 432.38278 305.670653 
L 434.136822 198.526942 
L 435.890864 378.365627 
L 437.644906 172.283514 
L 439.398948 155.805083 
L 441.15299 181.709448 
L 442.907032 276.104414 
L 444.661074 298.821593 
L 446.415116 196.153506 
L 448.169158 222.532559 
L 449.9232 166.451641 
L 451.677242 144.548212 
L 453.431284 230.602243 
L 455.185326 290.412846 
L 456.939368 95.791042 
L 458.69341 208.698814 
L 460.447452 188.897571 
L 462.201494 184.557572 
L 463.955536 173.571951 
L 465.709578 205.511627 
L 467.46362 285.055661 
L 469.217662 288.717535 
L 470.971704 221.379747 
L 472.725746 216.225998 
L 474.479788 188.219446 
L 476.23383 184.964447 
L 477.987872 230.737868 
L 479.741914 305.602841 
L 481.495956 331.032519 
L 483.249998 245.86005 
L 485.00404 219.074122 
L 486.758082 208.698814 
L 488.512124 206.800064 
L 490.266166 206.528814 
L 492.020208 285.326911 
L 493.77425 317.944712 
L 495.528292 221.990059 
L 497.282334 219.345372 
L 499.036376 220.159122 
L 500.790418 210.52975 
L 502.54446 219.209747 
L 504.298502 295.837845 
L 506.052544 289.463472 
L 507.806586 227.415057 
L 509.560628 221.515371 
L 513.068712 193.508819 
L 514.822754 203.138191 
L 516.576796 297.600969 
L 518.330838 317.266587 
L 520.08488 234.806617 
L 521.838922 200.493504 
L 523.592964 221.650996 
L 525.347006 189.643508 
L 527.101048 313.197838 
L 528.85509 319.911273 
L 530.609132 324.997209 
L 532.363174 287.632535 
L 534.117216 276.918164 
L 535.871258 267.76348 
L 537.6253 267.695667 
L 539.379342 276.307852 
L 541.133384 300.042218 
L 542.887426 318.961899 
L 544.641468 379.043752 
L 546.39551 163.603517 
L 548.149552 161.501331 
L 549.903594 146.175711 
L 551.657636 181.099136 
L 553.411678 265.661293 
L 555.16572 289.531284 
L 556.919762 183.608198 
L 558.673804 159.263519 
L 560.427846 132.748841 
L 562.181888 152.075397 
L 563.93593 159.195707 
L 565.689972 253.52286 
L 567.444014 289.938159 
L 569.198056 196.696005 
L 570.952098 173.300701 
L 572.70614 194.322569 
L 574.460182 167.468829 
L 576.214224 163.40008 
L 577.968266 273.052853 
L 579.722308 327.574083 
L 581.47635 231.61943 
L 583.230392 225.04162 
L 584.984434 226.66912 
L 586.738476 219.480997 
L 590.24656 292.108158 
L 592.000602 314.6219 
L 593.754644 315.1644 
L 595.508686 312.112839 
L 597.262728 233.179117 
L 599.01677 231.483805 
L 600.770812 233.925054 
L 602.524854 335.304705 
L 604.278896 378.569065 
L 606.032938 267.22098 
L 607.78698 260.507545 
L 611.295064 197.306318 
L 613.049106 241.926927 
L 614.803148 275.968789 
L 616.55719 324.386897 
L 618.311232 266.13598 
L 620.065274 247.623175 
L 621.819316 234.331929 
L 623.573358 216.225998 
L 625.3274 266.203793 
L 627.081442 290.548471 
L 628.835484 299.364093 
L 630.589526 271.832228 
L 632.343568 220.091309 
L 634.09761 238.129428 
L 635.851652 242.944114 
L 637.605694 300.313468 
L 639.359736 334.558768 
L 641.113778 340.458453 
L 642.86782 302.483467 
L 644.621862 294.481595 
L 646.375904 285.598161 
L 648.129946 284.920036 
L 649.883988 305.331591 
L 651.63803 346.358139 
L 653.392072 330.693457 
L 656.900157 278.749101 
L 658.654199 290.684096 
L 660.408241 283.767224 
L 662.162283 308.993465 
L 663.916325 343.64564 
L 665.670367 381.281564 
L 667.424409 308.247528 
L 669.178451 302.076592 
L 670.932493 314.011588 
L 672.686535 318.080336 
L 674.440577 323.505335 
L 676.194619 343.849077 
L 677.948661 369.821255 
L 679.702703 327.167208 
L 681.456745 382.84125 
L 683.210787 359.920634 
L 686.718871 362.768758 
L 688.472913 355.44501 
L 691.980997 357.140322 
L 693.735039 355.173761 
L 695.489081 360.327509 
L 695.489081 360.327509 
" clip-path="url(#p9dad8e51a6)" style="fill: none; stroke: #83c966; stroke-opacity: 0.8; stroke-width: 2.5; stroke-linecap: square"/>
   </g>
   <g id="patch_3">
    <path d="M 55.26375 384.1975 
L 55.26375 39.3575 
" style="fill: none; stroke: #000000; stroke-width: 0.8; stroke-linejoin: miter; stroke-linecap: square"/>
   </g>
   <g id="patch_4">
    <path d="M 55.26375 384.1975 
L 704.259291 384.1975 
" style="fill: none; stroke: #000000; stroke-width: 0.8; stroke-linejoin: miter; stroke-linecap: square"/>
   </g>
   <g id="text_22">
    <!-- Pedestrian Traffic at Tin Alley-Swanston St (West) -->
    <g transform="translate(182.83527 19.3575) scale(0.16 -0.16)">
     <defs>
      <path id="DejaVuSans-50" d="M 1259 4147 
L 1259 2394 
L 2053 2394 
Q 2494 2394 2734 2622 
Q 2975 2850 2975 3272 
Q 2975 3691 2734 3919 
Q 2494 4147 2053 4147 
L 1259 4147 
z
M 628 4666 
L 2053 4666 
Q 2838 4666 3239 4311 
Q 3641 3956 3641 3272 
Q 3641 2581 3239 2228 
Q 2838 1875 2053 1875 
L 1259 1875 
L 1259 0 
L 628 0 
L 628 4666 
z
" transform="scale(0.015625)"/>
      <path id="DejaVuSans-54" d="M -19 4666 
L 3928 4666 
L 3928 4134 
L 2272 4134 
L 2272 0 
L 1638 0 
L 1638 4134 
L -19 4134 
L -19 4666 
z
" transform="scale(0.015625)"/>
      <path id="DejaVuSans-2d" d="M 313 2009 
L 1997 2009 
L 1997 1497 
L 313 1497 
L 313 2009 
z
" transform="scale(0.015625)"/>
      <path id="DejaVuSans-77" d="M 269 3500 
L 844 3500 
L 1563 769 
L 2278 3500 
L 2956 3500 
L 3675 769 
L 4391 3500 
L 4966 3500 
L 4050 0 
L 3372 0 
L 2619 2869 
L 1863 0 
L 1184 0 
L 269 3500 
z
" transform="scale(0.015625)"/>
      <path id="DejaVuSans-28" d="M 1984 4856 
Q 1566 4138 1362 3434 
Q 1159 2731 1159 2009 
Q 1159 1288 1364 580 
Q 1569 -128 1984 -844 
L 1484 -844 
Q 1016 -109 783 600 
Q 550 1309 550 2009 
Q 550 2706 781 3412 
Q 1013 4119 1484 4856 
L 1984 4856 
z
" transform="scale(0.015625)"/>
      <path id="DejaVuSans-57" d="M 213 4666 
L 850 4666 
L 1831 722 
L 2809 4666 
L 3519 4666 
L 4500 722 
L 5478 4666 
L 6119 4666 
L 4947 0 
L 4153 0 
L 3169 4050 
L 2175 0 
L 1381 0 
L 213 4666 
z
" transform="scale(0.015625)"/>
      <path id="DejaVuSans-29" d="M 513 4856 
L 1013 4856 
Q 1481 4119 1714 3412 
Q 1947 2706 1947 2009 
Q 1947 1309 1714 600 
Q 1481 -109 1013 -844 
L 513 -844 
Q 928 -128 1133 580 
Q 1338 1288 1338 2009 
Q 1338 2731 1133 3434 
Q 928 4138 513 4856 
z
" transform="scale(0.015625)"/>
     </defs>
     <use xlink:href="#DejaVuSans-50"/>
     <use xlink:href="#DejaVuSans-65" transform="translate(56.677734 0)"/>
     <use xlink:href="#DejaVuSans-64" transform="translate(118.201172 0)"/>
     <use xlink:href="#DejaVuSans-65" transform="translate(181.677734 0)"/>
     <use xlink:href="#DejaVuSans-73" transform="translate(243.201172 0)"/>
     <use xlink:href="#DejaVuSans-74" transform="translate(295.300781 0)"/>
     <use xlink:href="#DejaVuSans-72" transform="translate(334.509766 0)"/>
     <use xlink:href="#DejaVuSans-69" transform="translate(375.623047 0)"/>
     <use xlink:href="#DejaVuSans-61" transform="translate(403.40625 0)"/>
     <use xlink:href="#DejaVuSans-6e" transform="translate(464.685547 0)"/>
     <use xlink:href="#DejaVuSans-20" transform="translate(528.064453 0)"/>
     <use xlink:href="#DejaVuSans-54" transform="translate(559.851562 0)"/>
     <use xlink:href="#DejaVuSans-72" transform="translate(606.185547 0)"/>
     <use xlink:href="#DejaVuSans-61" transform="translate(647.298828 0)"/>
     <use xlink:href="#DejaVuSans-66" transform="translate(708.578125 0)"/>
     <use xlink:href="#DejaVuSans-66" transform="translate(743.783203 0)"/>
     <use xlink:href="#DejaVuSans-69" transform="translate(778.988281 0)"/>
     <use xlink:href="#DejaVuSans-63" transform="translate(806.771484 0)"/>
     <use xlink:href="#DejaVuSans-20" transform="translate(861.751953 0)"/>
     <use xlink:href="#DejaVuSans-61" transform="translate(893.539062 0)"/>
     <use xlink:href="#DejaVuSans-74" transform="translate(954.818359 0)"/>
     <use xlink:href="#DejaVuSans-20" transform="translate(994.027344 0)"/>
     <use xlink:href="#DejaVuSans-54" transform="translate(1025.814453 0)"/>
     <use xlink:href="#DejaVuSans-69" transform="translate(1083.773438 0)"/>
     <use xlink:href="#DejaVuSans-6e" transform="translate(1111.556641 0)"/>
     <use xlink:href="#DejaVuSans-20" transform="translate(1174.935547 0)"/>
     <use xlink:href="#DejaVuSans-41" transform="translate(1206.722656 0)"/>
     <use xlink:href="#DejaVuSans-6c" transform="translate(1275.130859 0)"/>
     <use xlink:href="#DejaVuSans-6c" transform="translate(1302.914062 0)"/>
     <use xlink:href="#DejaVuSans-65" transform="translate(1330.697266 0)"/>
     <use xlink:href="#DejaVuSans-79" transform="translate(1392.220703 0)"/>
     <use xlink:href="#DejaVuSans-2d" transform="translate(1449.650391 0)"/>
     <use xlink:href="#DejaVuSans-53" transform="translate(1485.734375 0)"/>
     <use xlink:href="#DejaVuSans-77" transform="translate(1549.210938 0)"/>
     <use xlink:href="#DejaVuSans-61" transform="translate(1630.998047 0)"/>
     <use xlink:href="#DejaVuSans-6e" transform="translate(1692.277344 0)"/>
     <use xlink:href="#DejaVuSans-73" transform="translate(1755.65625 0)"/>
     <use xlink:href="#DejaVuSans-74" transform="translate(1807.755859 0)"/>
     <use xlink:href="#DejaVuSans-6f" transform="translate(1846.964844 0)"/>
     <use xlink:href="#DejaVuSans-6e" transform="translate(1908.146484 0)"/>
     <use xlink:href="#DejaVuSans-20" transform="translate(1971.525391 0)"/>
     <use xlink:href="#DejaVuSans-53" transform="translate(2003.3125 0)"/>
     <use xlink:href="#DejaVuSans-74" transform="translate(2066.789062 0)"/>
     <use xlink:href="#DejaVuSans-20" transform="translate(2105.998047 0)"/>
     <use xlink:href="#DejaVuSans-28" transform="translate(2137.785156 0)"/>
     <use xlink:href="#DejaVuSans-57" transform="translate(2176.798828 0)"/>
     <use xlink:href="#DejaVuSans-65" transform="translate(2269.800781 0)"/>
     <use xlink:href="#DejaVuSans-73" transform="translate(2331.324219 0)"/>
     <use xlink:href="#DejaVuSans-74" transform="translate(2383.423828 0)"/>
     <use xlink:href="#DejaVuSans-29" transform="translate(2422.632812 0)"/>
    </g>
   </g>
   <g id="legend_1">
    <g id="patch_5">
     <path d="M 62.96375 80.449375 
L 126.15875 80.449375 
Q 128.35875 80.449375 128.35875 78.249375 
L 128.35875 47.0575 
Q 128.35875 44.8575 126.15875 44.8575 
L 62.96375 44.8575 
Q 60.76375 44.8575 60.76375 47.0575 
L 60.76375 78.249375 
Q 60.76375 80.449375 62.96375 80.449375 
z
" style="fill: #ffffff; opacity: 0.95; stroke: #cccccc; stroke-linejoin: miter"/>
    </g>
    <g id="line2d_41">
     <path d="M 65.16375 53.765781 
L 76.16375 53.765781 
L 87.16375 53.765781 
" style="fill: none; stroke: #0d6efc; stroke-opacity: 0.8; stroke-width: 2.5; stroke-linecap: square"/>
    </g>
    <g id="text_23">
     <!-- 2019 -->
     <g transform="translate(95.96375 57.615781) scale(0.11 -0.11)">
      <defs>
       <path id="DejaVuSans-39" d="M 703 97 
L 703 672 
Q 941 559 1184 500 
Q 1428 441 1663 441 
Q 2288 441 2617 861 
Q 2947 1281 2994 2138 
Q 2813 1869 2534 1725 
Q 2256 1581 1919 1581 
Q 1219 1581 811 2004 
Q 403 2428 403 3163 
Q 403 3881 828 4315 
Q 1253 4750 1959 4750 
Q 2769 4750 3195 4129 
Q 3622 3509 3622 2328 
Q 3622 1225 3098 567 
Q 2575 -91 1691 -91 
Q 1453 -91 1209 -44 
Q 966 3 703 97 
z
M 1959 2075 
Q 2384 2075 2632 2365 
Q 2881 2656 2881 3163 
Q 2881 3666 2632 3958 
Q 2384 4250 1959 4250 
Q 1534 4250 1286 3958 
Q 1038 3666 1038 3163 
Q 1038 2656 1286 2365 
Q 1534 2075 1959 2075 
z
" transform="scale(0.015625)"/>
      </defs>
      <use xlink:href="#DejaVuSans-32"/>
      <use xlink:href="#DejaVuSans-30" transform="translate(63.623047 0)"/>
      <use xlink:href="#DejaVuSans-31" transform="translate(127.246094 0)"/>
      <use xlink:href="#DejaVuSans-39" transform="translate(190.869141 0)"/>
     </g>
    </g>
    <g id="line2d_42">
     <path d="M 65.16375 69.911719 
L 76.16375 69.911719 
L 87.16375 69.911719 
" style="fill: none; stroke: #83c966; stroke-opacity: 0.8; stroke-width: 2.5; stroke-linecap: square"/>
    </g>
    <g id="text_24">
     <!-- 2025 -->
     <g transform="translate(95.96375 73.761719) scale(0.11 -0.11)">
      <use xlink:href="#DejaVuSans-32"/>
      <use xlink:href="#DejaVuSans-30" transform="translate(63.623047 0)"/>
      <use xlink:href="#DejaVuSans-32" transform="translate(127.246094 0)"/>
      <use xlink:href="#DejaVuSans-35" transform="translate(190.869141 0)"/>
     </g>
    </g>
   </g>
  </g>
 </g>
 <defs>
  <clipPath id="p9dad8e51a6">
   <rect x="55.26375" y="39.3575" width="648.995541" height="344.84"/>
  </clipPath>
 </defs>
</svg>
