<?xml version="1.0" encoding="utf-8" standalone="no"?>
<!DOCTYPE svg PUBLIC "-//W3C//DTD SVG 1.1//EN"
  "http://www.w3.org/Graphics/SVG/1.1/DTD/svg11.dtd">
<svg xmlns:xlink="http://www.w3.org/1999/xlink" width="855.61375pt" height="423.689375pt" viewBox="0 0 855.61375 423.689375" xmlns="http://www.w3.org/2000/svg" version="1.1">
 <metadata>
  <rdf:RDF xmlns:dc="http://purl.org/dc/elements/1.1/" xmlns:cc="http://creativecommons.org/ns#" xmlns:rdf="http://www.w3.org/1999/02/22-rdf-syntax-ns#">
   <cc:Work>
    <dc:type rdf:resource="http://purl.org/dc/dcmitype/StillImage"/>
    <dc:date>2026-01-22T17:08:43.631195</dc:date>
    <dc:format>image/svg+xml</dc:format>
    <dc:creator>
     <cc:Agent>
      <dc:title>Matplotlib v3.10.8, https://matplotlib.org/</dc:title>
     </cc:Agent>
    </dc:creator>
   </cc:Work>
  </rdf:RDF>
 </metadata>
 <defs>
  <style type="text/css">*{stroke-linejoin: round; stroke-linecap: butt}</style>
 </defs>
 <g id="figure_1">
  <g id="patch_1">
   <path d="M 0 423.689375 
L 855.61375 423.689375 
L 855.61375 0 
L 0 0 
L 0 423.689375 
z
" style="fill: none"/>
  </g>
  <g id="axes_1">
   <g id="patch_2">
    <path d="M 55.26375 384.1975 
L 848.41375 384.1975 
L 848.41375 39.3575 
L 55.26375 39.3575 
L 55.26375 384.1975 
z
" style="fill: none"/>
   </g>
   <g id="matplotlib.axis_1">
    <g id="xtick_1">
     <g id="line2d_1">
      <path d="M 55.26375 384.1975 
L 55.26375 39.3575 
" clip-path="url(#pd5d6163d1d)" style="fill: none; stroke-dasharray: 2.96,1.28; stroke-dashoffset: 0; stroke: #b0b0b0; stroke-opacity: 0.3; stroke-width: 0.8"/>
     </g>
     <g id="line2d_2">
      <defs>
       <path id="mf13be882ce" d="M 0 0 
L 0 3.5 
" style="stroke: #000000; stroke-width: 0.8"/>
      </defs>
      <g>
       <use xlink:href="#mf13be882ce" x="55.26375" y="384.1975" style="stroke: #000000; stroke-width: 0.8"/>
      </g>
     </g>
     <g id="text_1">
      <!-- Jan -->
      <g transform="translate(47.555938 398.795937) scale(0.1 -0.1)">
       <defs>
        <path id="DejaVuSans-4a" d="M 628 4666 
L 1259 4666 
L 1259 325 
Q 1259 -519 939 -900 
Q 619 -1281 -91 -1281 
L -331 -1281 
L -331 -750 
L -134 -750 
Q 284 -750 456 -515 
Q 628 -281 628 325 
L 628 4666 
z
" transform="scale(0.015625)"/>
        <path id="DejaVuSans-61" d="M 2194 1759 
Q 1497 1759 1228 1600 
Q 959 1441 959 1056 
Q 959 750 1161 570 
Q 1363 391 1709 391 
Q 2188 391 2477 730 
Q 2766 1069 2766 1631 
L 2766 1759 
L 2194 1759 
z
M 3341 1997 
L 3341 0 
L 2766 0 
L 2766 531 
Q 2569 213 2275 61 
Q 1981 -91 1556 -91 
Q 1019 -91 701 211 
Q 384 513 384 1019 
Q 384 1609 779 1909 
Q 1175 2209 1959 2209 
L 2766 2209 
L 2766 2266 
Q 2766 2663 2505 2880 
Q 2244 3097 1772 3097 
Q 1472 3097 1187 3025 
Q 903 2953 641 2809 
L 641 3341 
Q 956 3463 1253 3523 
Q 1550 3584 1831 3584 
Q 2591 3584 2966 3190 
Q 3341 2797 3341 1997 
z
" transform="scale(0.015625)"/>
        <path id="DejaVuSans-6e" d="M 3513 2113 
L 3513 0 
L 2938 0 
L 2938 2094 
Q 2938 2591 2744 2837 
Q 2550 3084 2163 3084 
Q 1697 3084 1428 2787 
Q 1159 2491 1159 1978 
L 1159 0 
L 581 0 
L 581 3500 
L 1159 3500 
L 1159 2956 
Q 1366 3272 1645 3428 
Q 1925 3584 2291 3584 
Q 2894 3584 3203 3211 
Q 3513 2838 3513 2113 
z
" transform="scale(0.015625)"/>
       </defs>
       <use xlink:href="#DejaVuSans-4a"/>
       <use xlink:href="#DejaVuSans-61" transform="translate(29.492188 0)"/>
       <use xlink:href="#DejaVuSans-6e" transform="translate(90.771484 0)"/>
      </g>
     </g>
    </g>
    <g id="xtick_2">
     <g id="line2d_3">
      <path d="M 121.716858 384.1975 
L 121.716858 39.3575 
" clip-path="url(#pd5d6163d1d)" style="fill: none; stroke-dasharray: 2.96,1.28; stroke-dashoffset: 0; stroke: #b0b0b0; stroke-opacity: 0.3; stroke-width: 0.8"/>
     </g>
     <g id="line2d_4">
      <g>
       <use xlink:href="#mf13be882ce" x="121.716858" y="384.1975" style="stroke: #000000; stroke-width: 0.8"/>
      </g>
     </g>
     <g id="text_2">
      <!-- Feb -->
      <g transform="translate(112.865296 398.795937) scale(0.1 -0.1)">
       <defs>
        <path id="DejaVuSans-46" d="M 628 4666 
L 3309 4666 
L 3309 4134 
L 1259 4134 
L 1259 2759 
L 3109 2759 
L 3109 2228 
L 1259 2228 
L 1259 0 
L 628 0 
L 628 4666 
z
" transform="scale(0.015625)"/>
        <path id="DejaVuSans-65" d="M 3597 1894 
L 3597 1613 
L 953 1613 
Q 991 1019 1311 708 
Q 1631 397 2203 397 
Q 2534 397 2845 478 
Q 3156 559 3463 722 
L 3463 178 
Q 3153 47 2828 -22 
Q 2503 -91 2169 -91 
Q 1331 -91 842 396 
Q 353 884 353 1716 
Q 353 2575 817 3079 
Q 1281 3584 2069 3584 
Q 2775 3584 3186 3129 
Q 3597 2675 3597 1894 
z
M 3022 2063 
Q 3016 2534 2758 2815 
Q 2500 3097 2075 3097 
Q 1594 3097 1305 2825 
Q 1016 2553 972 2059 
L 3022 2063 
z
" transform="scale(0.015625)"/>
        <path id="DejaVuSans-62" d="M 3116 1747 
Q 3116 2381 2855 2742 
Q 2594 3103 2138 3103 
Q 1681 3103 1420 2742 
Q 1159 2381 1159 1747 
Q 1159 1113 1420 752 
Q 1681 391 2138 391 
Q 2594 391 2855 752 
Q 3116 1113 3116 1747 
z
M 1159 2969 
Q 1341 3281 1617 3432 
Q 1894 3584 2278 3584 
Q 2916 3584 3314 3078 
Q 3713 2572 3713 1747 
Q 3713 922 3314 415 
Q 2916 -91 2278 -91 
Q 1894 -91 1617 61 
Q 1341 213 1159 525 
L 1159 0 
L 581 0 
L 581 4863 
L 1159 4863 
L 1159 2969 
z
" transform="scale(0.015625)"/>
       </defs>
       <use xlink:href="#DejaVuSans-46"/>
       <use xlink:href="#DejaVuSans-65" transform="translate(52.019531 0)"/>
       <use xlink:href="#DejaVuSans-62" transform="translate(113.542969 0)"/>
      </g>
     </g>
    </g>
    <g id="xtick_3">
     <g id="line2d_5">
      <path d="M 181.73902 384.1975 
L 181.73902 39.3575 
" clip-path="url(#pd5d6163d1d)" style="fill: none; stroke-dasharray: 2.96,1.28; stroke-dashoffset: 0; stroke: #b0b0b0; stroke-opacity: 0.3; stroke-width: 0.8"/>
     </g>
     <g id="line2d_6">
      <g>
       <use xlink:href="#mf13be882ce" x="181.73902" y="384.1975" style="stroke: #000000; stroke-width: 0.8"/>
      </g>
     </g>
     <g id="text_3">
      <!-- Mar -->
      <g transform="translate(172.305427 398.795937) scale(0.1 -0.1)">
       <defs>
        <path id="DejaVuSans-4d" d="M 628 4666 
L 1569 4666 
L 2759 1491 
L 3956 4666 
L 4897 4666 
L 4897 0 
L 4281 0 
L 4281 4097 
L 3078 897 
L 2444 897 
L 1241 4097 
L 1241 0 
L 628 0 
L 628 4666 
z
" transform="scale(0.015625)"/>
        <path id="DejaVuSans-72" d="M 2631 2963 
Q 2534 3019 2420 3045 
Q 2306 3072 2169 3072 
Q 1681 3072 1420 2755 
Q 1159 2438 1159 1844 
L 1159 0 
L 581 0 
L 581 3500 
L 1159 3500 
L 1159 2956 
Q 1341 3275 1631 3429 
Q 1922 3584 2338 3584 
Q 2397 3584 2469 3576 
Q 2541 3569 2628 3553 
L 2631 2963 
z
" transform="scale(0.015625)"/>
       </defs>
       <use xlink:href="#DejaVuSans-4d"/>
       <use xlink:href="#DejaVuSans-61" transform="translate(86.279297 0)"/>
       <use xlink:href="#DejaVuSans-72" transform="translate(147.558594 0)"/>
      </g>
     </g>
    </g>
    <g id="xtick_4">
     <g id="line2d_7">
      <path d="M 248.192128 384.1975 
L 248.192128 39.3575 
" clip-path="url(#pd5d6163d1d)" style="fill: none; stroke-dasharray: 2.96,1.28; stroke-dashoffset: 0; stroke: #b0b0b0; stroke-opacity: 0.3; stroke-width: 0.8"/>
     </g>
     <g id="line2d_8">
      <g>
       <use xlink:href="#mf13be882ce" x="248.192128" y="384.1975" style="stroke: #000000; stroke-width: 0.8"/>
      </g>
     </g>
     <g id="text_4">
      <!-- Apr -->
      <g transform="translate(239.542128 398.795937) scale(0.1 -0.1)">
       <defs>
        <path id="DejaVuSans-41" d="M 2188 4044 
L 1331 1722 
L 3047 1722 
L 2188 4044 
z
M 1831 4666 
L 2547 4666 
L 4325 0 
L 3669 0 
L 3244 1197 
L 1141 1197 
L 716 0 
L 50 0 
L 1831 4666 
z
" transform="scale(0.015625)"/>
        <path id="DejaVuSans-70" d="M 1159 525 
L 1159 -1331 
L 581 -1331 
L 581 3500 
L 1159 3500 
L 1159 2969 
Q 1341 3281 1617 3432 
Q 1894 3584 2278 3584 
Q 2916 3584 3314 3078 
Q 3713 2572 3713 1747 
Q 3713 922 3314 415 
Q 2916 -91 2278 -91 
Q 1894 -91 1617 61 
Q 1341 213 1159 525 
z
M 3116 1747 
Q 3116 2381 2855 2742 
Q 2594 3103 2138 3103 
Q 1681 3103 1420 2742 
Q 1159 2381 1159 1747 
Q 1159 1113 1420 752 
Q 1681 391 2138 391 
Q 2594 391 2855 752 
Q 3116 1113 3116 1747 
z
" transform="scale(0.015625)"/>
       </defs>
       <use xlink:href="#DejaVuSans-41"/>
       <use xlink:href="#DejaVuSans-70" transform="translate(68.408203 0)"/>
       <use xlink:href="#DejaVuSans-72" transform="translate(131.884766 0)"/>
      </g>
     </g>
    </g>
    <g id="xtick_5">
     <g id="line2d_9">
      <path d="M 312.501588 384.1975 
L 312.501588 39.3575 
" clip-path="url(#pd5d6163d1d)" style="fill: none; stroke-dasharray: 2.96,1.28; stroke-dashoffset: 0; stroke: #b0b0b0; stroke-opacity: 0.3; stroke-width: 0.8"/>
     </g>
     <g id="line2d_10">
      <g>
       <use xlink:href="#mf13be882ce" x="312.501588" y="384.1975" style="stroke: #000000; stroke-width: 0.8"/>
      </g>
     </g>
     <g id="text_5">
      <!-- May -->
      <g transform="translate(302.164088 398.795937) scale(0.1 -0.1)">
       <defs>
        <path id="DejaVuSans-79" d="M 2059 -325 
Q 1816 -950 1584 -1140 
Q 1353 -1331 966 -1331 
L 506 -1331 
L 506 -850 
L 844 -850 
Q 1081 -850 1212 -737 
Q 1344 -625 1503 -206 
L 1606 56 
L 191 3500 
L 800 3500 
L 1894 763 
L 2988 3500 
L 3597 3500 
L 2059 -325 
z
" transform="scale(0.015625)"/>
       </defs>
       <use xlink:href="#DejaVuSans-4d"/>
       <use xlink:href="#DejaVuSans-61" transform="translate(86.279297 0)"/>
       <use xlink:href="#DejaVuSans-79" transform="translate(147.558594 0)"/>
      </g>
     </g>
    </g>
    <g id="xtick_6">
     <g id="line2d_11">
      <path d="M 378.954696 384.1975 
L 378.954696 39.3575 
" clip-path="url(#pd5d6163d1d)" style="fill: none; stroke-dasharray: 2.96,1.28; stroke-dashoffset: 0; stroke: #b0b0b0; stroke-opacity: 0.3; stroke-width: 0.8"/>
     </g>
     <g id="line2d_12">
      <g>
       <use xlink:href="#mf13be882ce" x="378.954696" y="384.1975" style="stroke: #000000; stroke-width: 0.8"/>
      </g>
     </g>
     <g id="text_6">
      <!-- Jun -->
      <g transform="translate(371.142196 398.795937) scale(0.1 -0.1)">
       <defs>
        <path id="DejaVuSans-75" d="M 544 1381 
L 544 3500 
L 1119 3500 
L 1119 1403 
Q 1119 906 1312 657 
Q 1506 409 1894 409 
Q 2359 409 2629 706 
Q 2900 1003 2900 1516 
L 2900 3500 
L 3475 3500 
L 3475 0 
L 2900 0 
L 2900 538 
Q 2691 219 2414 64 
Q 2138 -91 1772 -91 
Q 1169 -91 856 284 
Q 544 659 544 1381 
z
M 1991 3584 
L 1991 3584 
z
" transform="scale(0.015625)"/>
       </defs>
       <use xlink:href="#DejaVuSans-4a"/>
       <use xlink:href="#DejaVuSans-75" transform="translate(29.492188 0)"/>
       <use xlink:href="#DejaVuSans-6e" transform="translate(92.871094 0)"/>
      </g>
     </g>
    </g>
    <g id="xtick_7">
     <g id="line2d_13">
      <path d="M 443.264155 384.1975 
L 443.264155 39.3575 
" clip-path="url(#pd5d6163d1d)" style="fill: none; stroke-dasharray: 2.96,1.28; stroke-dashoffset: 0; stroke: #b0b0b0; stroke-opacity: 0.3; stroke-width: 0.8"/>
     </g>
     <g id="line2d_14">
      <g>
       <use xlink:href="#mf13be882ce" x="443.264155" y="384.1975" style="stroke: #000000; stroke-width: 0.8"/>
      </g>
     </g>
     <g id="text_7">
      <!-- Jul -->
      <g transform="translate(437.231343 398.795937) scale(0.1 -0.1)">
       <defs>
        <path id="DejaVuSans-6c" d="M 603 4863 
L 1178 4863 
L 1178 0 
L 603 0 
L 603 4863 
z
" transform="scale(0.015625)"/>
       </defs>
       <use xlink:href="#DejaVuSans-4a"/>
       <use xlink:href="#DejaVuSans-75" transform="translate(29.492188 0)"/>
       <use xlink:href="#DejaVuSans-6c" transform="translate(92.871094 0)"/>
      </g>
     </g>
    </g>
    <g id="xtick_8">
     <g id="line2d_15">
      <path d="M 509.717264 384.1975 
L 509.717264 39.3575 
" clip-path="url(#pd5d6163d1d)" style="fill: none; stroke-dasharray: 2.96,1.28; stroke-dashoffset: 0; stroke: #b0b0b0; stroke-opacity: 0.3; stroke-width: 0.8"/>
     </g>
     <g id="line2d_16">
      <g>
       <use xlink:href="#mf13be882ce" x="509.717264" y="384.1975" style="stroke: #000000; stroke-width: 0.8"/>
      </g>
     </g>
     <g id="text_8">
      <!-- Aug -->
      <g transform="translate(499.953982 398.795937) scale(0.1 -0.1)">
       <defs>
        <path id="DejaVuSans-67" d="M 2906 1791 
Q 2906 2416 2648 2759 
Q 2391 3103 1925 3103 
Q 1463 3103 1205 2759 
Q 947 2416 947 1791 
Q 947 1169 1205 825 
Q 1463 481 1925 481 
Q 2391 481 2648 825 
Q 2906 1169 2906 1791 
z
M 3481 434 
Q 3481 -459 3084 -895 
Q 2688 -1331 1869 -1331 
Q 1566 -1331 1297 -1286 
Q 1028 -1241 775 -1147 
L 775 -588 
Q 1028 -725 1275 -790 
Q 1522 -856 1778 -856 
Q 2344 -856 2625 -561 
Q 2906 -266 2906 331 
L 2906 616 
Q 2728 306 2450 153 
Q 2172 0 1784 0 
Q 1141 0 747 490 
Q 353 981 353 1791 
Q 353 2603 747 3093 
Q 1141 3584 1784 3584 
Q 2172 3584 2450 3431 
Q 2728 3278 2906 2969 
L 2906 3500 
L 3481 3500 
L 3481 434 
z
" transform="scale(0.015625)"/>
       </defs>
       <use xlink:href="#DejaVuSans-41"/>
       <use xlink:href="#DejaVuSans-75" transform="translate(68.408203 0)"/>
       <use xlink:href="#DejaVuSans-67" transform="translate(131.787109 0)"/>
      </g>
     </g>
    </g>
    <g id="xtick_9">
     <g id="line2d_17">
      <path d="M 576.170372 384.1975 
L 576.170372 39.3575 
" clip-path="url(#pd5d6163d1d)" style="fill: none; stroke-dasharray: 2.96,1.28; stroke-dashoffset: 0; stroke: #b0b0b0; stroke-opacity: 0.3; stroke-width: 0.8"/>
     </g>
     <g id="line2d_18">
      <g>
       <use xlink:href="#mf13be882ce" x="576.170372" y="384.1975" style="stroke: #000000; stroke-width: 0.8"/>
      </g>
     </g>
     <g id="text_9">
      <!-- Sep -->
      <g transform="translate(566.745372 398.795937) scale(0.1 -0.1)">
       <defs>
        <path id="DejaVuSans-53" d="M 3425 4513 
L 3425 3897 
Q 3066 4069 2747 4153 
Q 2428 4238 2131 4238 
Q 1616 4238 1336 4038 
Q 1056 3838 1056 3469 
Q 1056 3159 1242 3001 
Q 1428 2844 1947 2747 
L 2328 2669 
Q 3034 2534 3370 2195 
Q 3706 1856 3706 1288 
Q 3706 609 3251 259 
Q 2797 -91 1919 -91 
Q 1588 -91 1214 -16 
Q 841 59 441 206 
L 441 856 
Q 825 641 1194 531 
Q 1563 422 1919 422 
Q 2459 422 2753 634 
Q 3047 847 3047 1241 
Q 3047 1584 2836 1778 
Q 2625 1972 2144 2069 
L 1759 2144 
Q 1053 2284 737 2584 
Q 422 2884 422 3419 
Q 422 4038 858 4394 
Q 1294 4750 2059 4750 
Q 2388 4750 2728 4690 
Q 3069 4631 3425 4513 
z
" transform="scale(0.015625)"/>
       </defs>
       <use xlink:href="#DejaVuSans-53"/>
       <use xlink:href="#DejaVuSans-65" transform="translate(63.476562 0)"/>
       <use xlink:href="#DejaVuSans-70" transform="translate(125 0)"/>
      </g>
     </g>
    </g>
    <g id="xtick_10">
     <g id="line2d_19">
      <path d="M 640.479831 384.1975 
L 640.479831 39.3575 
" clip-path="url(#pd5d6163d1d)" style="fill: none; stroke-dasharray: 2.96,1.28; stroke-dashoffset: 0; stroke: #b0b0b0; stroke-opacity: 0.3; stroke-width: 0.8"/>
     </g>
     <g id="line2d_20">
      <g>
       <use xlink:href="#mf13be882ce" x="640.479831" y="384.1975" style="stroke: #000000; stroke-width: 0.8"/>
      </g>
     </g>
     <g id="text_10">
      <!-- Oct -->
      <g transform="translate(631.834519 398.795937) scale(0.1 -0.1)">
       <defs>
        <path id="DejaVuSans-4f" d="M 2522 4238 
Q 1834 4238 1429 3725 
Q 1025 3213 1025 2328 
Q 1025 1447 1429 934 
Q 1834 422 2522 422 
Q 3209 422 3611 934 
Q 4013 1447 4013 2328 
Q 4013 3213 3611 3725 
Q 3209 4238 2522 4238 
z
M 2522 4750 
Q 3503 4750 4090 4092 
Q 4678 3434 4678 2328 
Q 4678 1225 4090 567 
Q 3503 -91 2522 -91 
Q 1538 -91 948 565 
Q 359 1222 359 2328 
Q 359 3434 948 4092 
Q 1538 4750 2522 4750 
z
" transform="scale(0.015625)"/>
        <path id="DejaVuSans-63" d="M 3122 3366 
L 3122 2828 
Q 2878 2963 2633 3030 
Q 2388 3097 2138 3097 
Q 1578 3097 1268 2742 
Q 959 2388 959 1747 
Q 959 1106 1268 751 
Q 1578 397 2138 397 
Q 2388 397 2633 464 
Q 2878 531 3122 666 
L 3122 134 
Q 2881 22 2623 -34 
Q 2366 -91 2075 -91 
Q 1284 -91 818 406 
Q 353 903 353 1747 
Q 353 2603 823 3093 
Q 1294 3584 2113 3584 
Q 2378 3584 2631 3529 
Q 2884 3475 3122 3366 
z
" transform="scale(0.015625)"/>
        <path id="DejaVuSans-74" d="M 1172 4494 
L 1172 3500 
L 2356 3500 
L 2356 3053 
L 1172 3053 
L 1172 1153 
Q 1172 725 1289 603 
Q 1406 481 1766 481 
L 2356 481 
L 2356 0 
L 1766 0 
Q 1100 0 847 248 
Q 594 497 594 1153 
L 594 3053 
L 172 3053 
L 172 3500 
L 594 3500 
L 594 4494 
L 1172 4494 
z
" transform="scale(0.015625)"/>
       </defs>
       <use xlink:href="#DejaVuSans-4f"/>
       <use xlink:href="#DejaVuSans-63" transform="translate(78.710938 0)"/>
       <use xlink:href="#DejaVuSans-74" transform="translate(133.691406 0)"/>
      </g>
     </g>
    </g>
    <g id="xtick_11">
     <g id="line2d_21">
      <path d="M 706.932939 384.1975 
L 706.932939 39.3575 
" clip-path="url(#pd5d6163d1d)" style="fill: none; stroke-dasharray: 2.96,1.28; stroke-dashoffset: 0; stroke: #b0b0b0; stroke-opacity: 0.3; stroke-width: 0.8"/>
     </g>
     <g id="line2d_22">
      <g>
       <use xlink:href="#mf13be882ce" x="706.932939" y="384.1975" style="stroke: #000000; stroke-width: 0.8"/>
      </g>
     </g>
     <g id="text_11">
      <!-- Nov -->
      <g transform="translate(697.173564 398.795937) scale(0.1 -0.1)">
       <defs>
        <path id="DejaVuSans-4e" d="M 628 4666 
L 1478 4666 
L 3547 763 
L 3547 4666 
L 4159 4666 
L 4159 0 
L 3309 0 
L 1241 3903 
L 1241 0 
L 628 0 
L 628 4666 
z
" transform="scale(0.015625)"/>
        <path id="DejaVuSans-6f" d="M 1959 3097 
Q 1497 3097 1228 2736 
Q 959 2375 959 1747 
Q 959 1119 1226 758 
Q 1494 397 1959 397 
Q 2419 397 2687 759 
Q 2956 1122 2956 1747 
Q 2956 2369 2687 2733 
Q 2419 3097 1959 3097 
z
M 1959 3584 
Q 2709 3584 3137 3096 
Q 3566 2609 3566 1747 
Q 3566 888 3137 398 
Q 2709 -91 1959 -91 
Q 1206 -91 779 398 
Q 353 888 353 1747 
Q 353 2609 779 3096 
Q 1206 3584 1959 3584 
z
" transform="scale(0.015625)"/>
        <path id="DejaVuSans-76" d="M 191 3500 
L 800 3500 
L 1894 563 
L 2988 3500 
L 3597 3500 
L 2284 0 
L 1503 0 
L 191 3500 
z
" transform="scale(0.015625)"/>
       </defs>
       <use xlink:href="#DejaVuSans-4e"/>
       <use xlink:href="#DejaVuSans-6f" transform="translate(74.804688 0)"/>
       <use xlink:href="#DejaVuSans-76" transform="translate(135.986328 0)"/>
      </g>
     </g>
    </g>
    <g id="xtick_12">
     <g id="line2d_23">
      <path d="M 771.242399 384.1975 
L 771.242399 39.3575 
" clip-path="url(#pd5d6163d1d)" style="fill: none; stroke-dasharray: 2.96,1.28; stroke-dashoffset: 0; stroke: #b0b0b0; stroke-opacity: 0.3; stroke-width: 0.8"/>
     </g>
     <g id="line2d_24">
      <g>
       <use xlink:href="#mf13be882ce" x="771.242399" y="384.1975" style="stroke: #000000; stroke-width: 0.8"/>
      </g>
     </g>
     <g id="text_12">
      <!-- Dec -->
      <g transform="translate(761.566617 398.795937) scale(0.1 -0.1)">
       <defs>
        <path id="DejaVuSans-44" d="M 1259 4147 
L 1259 519 
L 2022 519 
Q 2988 519 3436 956 
Q 3884 1394 3884 2338 
Q 3884 3275 3436 3711 
Q 2988 4147 2022 4147 
L 1259 4147 
z
M 628 4666 
L 1925 4666 
Q 3281 4666 3915 4102 
Q 4550 3538 4550 2338 
Q 4550 1131 3912 565 
Q 3275 0 1925 0 
L 628 0 
L 628 4666 
z
" transform="scale(0.015625)"/>
       </defs>
       <use xlink:href="#DejaVuSans-44"/>
       <use xlink:href="#DejaVuSans-65" transform="translate(77.001953 0)"/>
       <use xlink:href="#DejaVuSans-63" transform="translate(138.525391 0)"/>
      </g>
     </g>
    </g>
    <g id="xtick_13">
     <g id="line2d_25">
      <path d="M 837.695507 384.1975 
L 837.695507 39.3575 
" clip-path="url(#pd5d6163d1d)" style="fill: none; stroke-dasharray: 2.96,1.28; stroke-dashoffset: 0; stroke: #b0b0b0; stroke-opacity: 0.3; stroke-width: 0.8"/>
     </g>
     <g id="line2d_26">
      <g>
       <use xlink:href="#mf13be882ce" x="837.695507" y="384.1975" style="stroke: #000000; stroke-width: 0.8"/>
      </g>
     </g>
     <g id="text_13">
      <!-- Jan -->
      <g transform="translate(829.987694 398.795937) scale(0.1 -0.1)">
       <use xlink:href="#DejaVuSans-4a"/>
       <use xlink:href="#DejaVuSans-61" transform="translate(29.492188 0)"/>
       <use xlink:href="#DejaVuSans-6e" transform="translate(90.771484 0)"/>
      </g>
     </g>
    </g>
    <g id="text_14">
     <!-- Day of the year -->
     <g transform="translate(405.253438 413.99375) scale(0.12 -0.12)">
      <defs>
       <path id="DejaVuSans-20" transform="scale(0.015625)"/>
       <path id="DejaVuSans-66" d="M 2375 4863 
L 2375 4384 
L 1825 4384 
Q 1516 4384 1395 4259 
Q 1275 4134 1275 3809 
L 1275 3500 
L 2222 3500 
L 2222 3053 
L 1275 3053 
L 1275 0 
L 697 0 
L 697 3053 
L 147 3053 
L 147 3500 
L 697 3500 
L 697 3744 
Q 697 4328 969 4595 
Q 1241 4863 1831 4863 
L 2375 4863 
z
" transform="scale(0.015625)"/>
       <path id="DejaVuSans-68" d="M 3513 2113 
L 3513 0 
L 2938 0 
L 2938 2094 
Q 2938 2591 2744 2837 
Q 2550 3084 2163 3084 
Q 1697 3084 1428 2787 
Q 1159 2491 1159 1978 
L 1159 0 
L 581 0 
L 581 4863 
L 1159 4863 
L 1159 2956 
Q 1366 3272 1645 3428 
Q 1925 3584 2291 3584 
Q 2894 3584 3203 3211 
Q 3513 2838 3513 2113 
z
" transform="scale(0.015625)"/>
      </defs>
      <use xlink:href="#DejaVuSans-44"/>
      <use xlink:href="#DejaVuSans-61" transform="translate(77.001953 0)"/>
      <use xlink:href="#DejaVuSans-79" transform="translate(138.28125 0)"/>
      <use xlink:href="#DejaVuSans-20" transform="translate(197.460938 0)"/>
      <use xlink:href="#DejaVuSans-6f" transform="translate(229.248047 0)"/>
      <use xlink:href="#DejaVuSans-66" transform="translate(290.429688 0)"/>
      <use xlink:href="#DejaVuSans-20" transform="translate(325.634766 0)"/>
      <use xlink:href="#DejaVuSans-74" transform="translate(357.421875 0)"/>
      <use xlink:href="#DejaVuSans-68" transform="translate(396.630859 0)"/>
      <use xlink:href="#DejaVuSans-65" transform="translate(460.009766 0)"/>
      <use xlink:href="#DejaVuSans-20" transform="translate(521.533203 0)"/>
      <use xlink:href="#DejaVuSans-79" transform="translate(553.320312 0)"/>
      <use xlink:href="#DejaVuSans-65" transform="translate(612.5 0)"/>
      <use xlink:href="#DejaVuSans-61" transform="translate(674.023438 0)"/>
      <use xlink:href="#DejaVuSans-72" transform="translate(735.302734 0)"/>
     </g>
    </g>
   </g>
   <g id="matplotlib.axis_2">
    <g id="ytick_1">
     <g id="line2d_27">
      <path d="M 55.26375 369.822668 
L 848.41375 369.822668 
" clip-path="url(#pd5d6163d1d)" style="fill: none; stroke-dasharray: 2.96,1.28; stroke-dashoffset: 0; stroke: #b0b0b0; stroke-opacity: 0.3; stroke-width: 0.8"/>
     </g>
     <g id="line2d_28">
      <defs>
       <path id="m10bbfb6ac2" d="M 0 0 
L -3.5 0 
" style="stroke: #000000; stroke-width: 0.8"/>
      </defs>
      <g>
       <use xlink:href="#m10bbfb6ac2" x="55.26375" y="369.822668" style="stroke: #000000; stroke-width: 0.8"/>
      </g>
     </g>
     <g id="text_15">
      <!-- 0 -->
      <g transform="translate(41.90125 373.621887) scale(0.1 -0.1)">
       <defs>
        <path id="DejaVuSans-30" d="M 2034 4250 
Q 1547 4250 1301 3770 
Q 1056 3291 1056 2328 
Q 1056 1369 1301 889 
Q 1547 409 2034 409 
Q 2525 409 2770 889 
Q 3016 1369 3016 2328 
Q 3016 3291 2770 3770 
Q 2525 4250 2034 4250 
z
M 2034 4750 
Q 2819 4750 3233 4129 
Q 3647 3509 3647 2328 
Q 3647 1150 3233 529 
Q 2819 -91 2034 -91 
Q 1250 -91 836 529 
Q 422 1150 422 2328 
Q 422 3509 836 4129 
Q 1250 4750 2034 4750 
z
" transform="scale(0.015625)"/>
       </defs>
       <use xlink:href="#DejaVuSans-30"/>
      </g>
     </g>
    </g>
    <g id="ytick_2">
     <g id="line2d_29">
      <path d="M 55.26375 304.83699 
L 848.41375 304.83699 
" clip-path="url(#pd5d6163d1d)" style="fill: none; stroke-dasharray: 2.96,1.28; stroke-dashoffset: 0; stroke: #b0b0b0; stroke-opacity: 0.3; stroke-width: 0.8"/>
     </g>
     <g id="line2d_30">
      <g>
       <use xlink:href="#m10bbfb6ac2" x="55.26375" y="304.83699" style="stroke: #000000; stroke-width: 0.8"/>
      </g>
     </g>
     <g id="text_16">
      <!-- 1000 -->
      <g transform="translate(22.81375 308.636209) scale(0.1 -0.1)">
       <defs>
        <path id="DejaVuSans-31" d="M 794 531 
L 1825 531 
L 1825 4091 
L 703 3866 
L 703 4441 
L 1819 4666 
L 2450 4666 
L 2450 531 
L 3481 531 
L 3481 0 
L 794 0 
L 794 531 
z
" transform="scale(0.015625)"/>
       </defs>
       <use xlink:href="#DejaVuSans-31"/>
       <use xlink:href="#DejaVuSans-30" transform="translate(63.623047 0)"/>
       <use xlink:href="#DejaVuSans-30" transform="translate(127.246094 0)"/>
       <use xlink:href="#DejaVuSans-30" transform="translate(190.869141 0)"/>
      </g>
     </g>
    </g>
    <g id="ytick_3">
     <g id="line2d_31">
      <path d="M 55.26375 239.851313 
L 848.41375 239.851313 
" clip-path="url(#pd5d6163d1d)" style="fill: none; stroke-dasharray: 2.96,1.28; stroke-dashoffset: 0; stroke: #b0b0b0; stroke-opacity: 0.3; stroke-width: 0.8"/>
     </g>
     <g id="line2d_32">
      <g>
       <use xlink:href="#m10bbfb6ac2" x="55.26375" y="239.851313" style="stroke: #000000; stroke-width: 0.8"/>
      </g>
     </g>
     <g id="text_17">
      <!-- 2000 -->
      <g transform="translate(22.81375 243.650532) scale(0.1 -0.1)">
       <defs>
        <path id="DejaVuSans-32" d="M 1228 531 
L 3431 531 
L 3431 0 
L 469 0 
L 469 531 
Q 828 903 1448 1529 
Q 2069 2156 2228 2338 
Q 2531 2678 2651 2914 
Q 2772 3150 2772 3378 
Q 2772 3750 2511 3984 
Q 2250 4219 1831 4219 
Q 1534 4219 1204 4116 
Q 875 4013 500 3803 
L 500 4441 
Q 881 4594 1212 4672 
Q 1544 4750 1819 4750 
Q 2544 4750 2975 4387 
Q 3406 4025 3406 3419 
Q 3406 3131 3298 2873 
Q 3191 2616 2906 2266 
Q 2828 2175 2409 1742 
Q 1991 1309 1228 531 
z
" transform="scale(0.015625)"/>
       </defs>
       <use xlink:href="#DejaVuSans-32"/>
       <use xlink:href="#DejaVuSans-30" transform="translate(63.623047 0)"/>
       <use xlink:href="#DejaVuSans-30" transform="translate(127.246094 0)"/>
       <use xlink:href="#DejaVuSans-30" transform="translate(190.869141 0)"/>
      </g>
     </g>
    </g>
    <g id="ytick_4">
     <g id="line2d_33">
      <path d="M 55.26375 174.865635 
L 848.41375 174.865635 
" clip-path="url(#pd5d6163d1d)" style="fill: none; stroke-dasharray: 2.96,1.28; stroke-dashoffset: 0; stroke: #b0b0b0; stroke-opacity: 0.3; stroke-width: 0.8"/>
     </g>
     <g id="line2d_34">
      <g>
       <use xlink:href="#m10bbfb6ac2" x="55.26375" y="174.865635" style="stroke: #000000; stroke-width: 0.8"/>
      </g>
     </g>
     <g id="text_18">
      <!-- 3000 -->
      <g transform="translate(22.81375 178.664854) scale(0.1 -0.1)">
       <defs>
        <path id="DejaVuSans-33" d="M 2597 2516 
Q 3050 2419 3304 2112 
Q 3559 1806 3559 1356 
Q 3559 666 3084 287 
Q 2609 -91 1734 -91 
Q 1441 -91 1130 -33 
Q 819 25 488 141 
L 488 750 
Q 750 597 1062 519 
Q 1375 441 1716 441 
Q 2309 441 2620 675 
Q 2931 909 2931 1356 
Q 2931 1769 2642 2001 
Q 2353 2234 1838 2234 
L 1294 2234 
L 1294 2753 
L 1863 2753 
Q 2328 2753 2575 2939 
Q 2822 3125 2822 3475 
Q 2822 3834 2567 4026 
Q 2313 4219 1838 4219 
Q 1578 4219 1281 4162 
Q 984 4106 628 3988 
L 628 4550 
Q 988 4650 1302 4700 
Q 1616 4750 1894 4750 
Q 2613 4750 3031 4423 
Q 3450 4097 3450 3541 
Q 3450 3153 3228 2886 
Q 3006 2619 2597 2516 
z
" transform="scale(0.015625)"/>
       </defs>
       <use xlink:href="#DejaVuSans-33"/>
       <use xlink:href="#DejaVuSans-30" transform="translate(63.623047 0)"/>
       <use xlink:href="#DejaVuSans-30" transform="translate(127.246094 0)"/>
       <use xlink:href="#DejaVuSans-30" transform="translate(190.869141 0)"/>
      </g>
     </g>
    </g>
    <g id="ytick_5">
     <g id="line2d_35">
      <path d="M 55.26375 109.879957 
L 848.41375 109.879957 
" clip-path="url(#pd5d6163d1d)" style="fill: none; stroke-dasharray: 2.96,1.28; stroke-dashoffset: 0; stroke: #b0b0b0; stroke-opacity: 0.3; stroke-width: 0.8"/>
     </g>
     <g id="line2d_36">
      <g>
       <use xlink:href="#m10bbfb6ac2" x="55.26375" y="109.879957" style="stroke: #000000; stroke-width: 0.8"/>
      </g>
     </g>
     <g id="text_19">
      <!-- 4000 -->
      <g transform="translate(22.81375 113.679176) scale(0.1 -0.1)">
       <defs>
        <path id="DejaVuSans-34" d="M 2419 4116 
L 825 1625 
L 2419 1625 
L 2419 4116 
z
M 2253 4666 
L 3047 4666 
L 3047 1625 
L 3713 1625 
L 3713 1100 
L 3047 1100 
L 3047 0 
L 2419 0 
L 2419 1100 
L 313 1100 
L 313 1709 
L 2253 4666 
z
" transform="scale(0.015625)"/>
       </defs>
       <use xlink:href="#DejaVuSans-34"/>
       <use xlink:href="#DejaVuSans-30" transform="translate(63.623047 0)"/>
       <use xlink:href="#DejaVuSans-30" transform="translate(127.246094 0)"/>
       <use xlink:href="#DejaVuSans-30" transform="translate(190.869141 0)"/>
      </g>
     </g>
    </g>
    <g id="ytick_6">
     <g id="line2d_37">
      <path d="M 55.26375 44.89428 
L 848.41375 44.89428 
" clip-path="url(#pd5d6163d1d)" style="fill: none; stroke-dasharray: 2.96,1.28; stroke-dashoffset: 0; stroke: #b0b0b0; stroke-opacity: 0.3; stroke-width: 0.8"/>
     </g>
     <g id="line2d_38">
      <g>
       <use xlink:href="#m10bbfb6ac2" x="55.26375" y="44.89428" style="stroke: #000000; stroke-width: 0.8"/>
      </g>
     </g>
     <g id="text_20">
      <!-- 5000 -->
      <g transform="translate(22.81375 48.693498) scale(0.1 -0.1)">
       <defs>
        <path id="DejaVuSans-35" d="M 691 4666 
L 3169 4666 
L 3169 4134 
L 1269 4134 
L 1269 2991 
Q 1406 3038 1543 3061 
Q 1681 3084 1819 3084 
Q 2600 3084 3056 2656 
Q 3513 2228 3513 1497 
Q 3513 744 3044 326 
Q 2575 -91 1722 -91 
Q 1428 -91 1123 -41 
Q 819 9 494 109 
L 494 744 
Q 775 591 1075 516 
Q 1375 441 1709 441 
Q 2250 441 2565 725 
Q 2881 1009 2881 1497 
Q 2881 1984 2565 2268 
Q 2250 2553 1709 2553 
Q 1456 2553 1204 2497 
Q 953 2441 691 2322 
L 691 4666 
z
" transform="scale(0.015625)"/>
       </defs>
       <use xlink:href="#DejaVuSans-35"/>
       <use xlink:href="#DejaVuSans-30" transform="translate(63.623047 0)"/>
       <use xlink:href="#DejaVuSans-30" transform="translate(127.246094 0)"/>
       <use xlink:href="#DejaVuSans-30" transform="translate(190.869141 0)"/>
      </g>
     </g>
    </g>
    <g id="text_21">
     <!-- Daily pedestrian count -->
     <g transform="translate(16.318125 279.793125) rotate(-90) scale(0.12 -0.12)">
      <defs>
       <path id="DejaVuSans-69" d="M 603 3500 
L 1178 3500 
L 1178 0 
L 603 0 
L 603 3500 
z
M 603 4863 
L 1178 4863 
L 1178 4134 
L 603 4134 
L 603 4863 
z
" transform="scale(0.015625)"/>
       <path id="DejaVuSans-64" d="M 2906 2969 
L 2906 4863 
L 3481 4863 
L 3481 0 
L 2906 0 
L 2906 525 
Q 2725 213 2448 61 
Q 2172 -91 1784 -91 
Q 1150 -91 751 415 
Q 353 922 353 1747 
Q 353 2572 751 3078 
Q 1150 3584 1784 3584 
Q 2172 3584 2448 3432 
Q 2725 3281 2906 2969 
z
M 947 1747 
Q 947 1113 1208 752 
Q 1469 391 1925 391 
Q 2381 391 2643 752 
Q 2906 1113 2906 1747 
Q 2906 2381 2643 2742 
Q 2381 3103 1925 3103 
Q 1469 3103 1208 2742 
Q 947 2381 947 1747 
z
" transform="scale(0.015625)"/>
       <path id="DejaVuSans-73" d="M 2834 3397 
L 2834 2853 
Q 2591 2978 2328 3040 
Q 2066 3103 1784 3103 
Q 1356 3103 1142 2972 
Q 928 2841 928 2578 
Q 928 2378 1081 2264 
Q 1234 2150 1697 2047 
L 1894 2003 
Q 2506 1872 2764 1633 
Q 3022 1394 3022 966 
Q 3022 478 2636 193 
Q 2250 -91 1575 -91 
Q 1294 -91 989 -36 
Q 684 19 347 128 
L 347 722 
Q 666 556 975 473 
Q 1284 391 1588 391 
Q 1994 391 2212 530 
Q 2431 669 2431 922 
Q 2431 1156 2273 1281 
Q 2116 1406 1581 1522 
L 1381 1569 
Q 847 1681 609 1914 
Q 372 2147 372 2553 
Q 372 3047 722 3315 
Q 1072 3584 1716 3584 
Q 2034 3584 2315 3537 
Q 2597 3491 2834 3397 
z
" transform="scale(0.015625)"/>
      </defs>
      <use xlink:href="#DejaVuSans-44"/>
      <use xlink:href="#DejaVuSans-61" transform="translate(77.001953 0)"/>
      <use xlink:href="#DejaVuSans-69" transform="translate(138.28125 0)"/>
      <use xlink:href="#DejaVuSans-6c" transform="translate(166.064453 0)"/>
      <use xlink:href="#DejaVuSans-79" transform="translate(193.847656 0)"/>
      <use xlink:href="#DejaVuSans-20" transform="translate(253.027344 0)"/>
      <use xlink:href="#DejaVuSans-70" transform="translate(284.814453 0)"/>
      <use xlink:href="#DejaVuSans-65" transform="translate(348.291016 0)"/>
      <use xlink:href="#DejaVuSans-64" transform="translate(409.814453 0)"/>
      <use xlink:href="#DejaVuSans-65" transform="translate(473.291016 0)"/>
      <use xlink:href="#DejaVuSans-73" transform="translate(534.814453 0)"/>
      <use xlink:href="#DejaVuSans-74" transform="translate(586.914062 0)"/>
      <use xlink:href="#DejaVuSans-72" transform="translate(626.123047 0)"/>
      <use xlink:href="#DejaVuSans-69" transform="translate(667.236328 0)"/>
      <use xlink:href="#DejaVuSans-61" transform="translate(695.019531 0)"/>
      <use xlink:href="#DejaVuSans-6e" transform="translate(756.298828 0)"/>
      <use xlink:href="#DejaVuSans-20" transform="translate(819.677734 0)"/>
      <use xlink:href="#DejaVuSans-63" transform="translate(851.464844 0)"/>
      <use xlink:href="#DejaVuSans-6f" transform="translate(906.445312 0)"/>
      <use xlink:href="#DejaVuSans-75" transform="translate(967.626953 0)"/>
      <use xlink:href="#DejaVuSans-6e" transform="translate(1031.005859 0)"/>
      <use xlink:href="#DejaVuSans-74" transform="translate(1094.384766 0)"/>
     </g>
    </g>
   </g>
   <g id="line2d_39">
    <path d="M 57.407399 345.518025 
L 59.551047 309.126045 
L 61.694696 298.143466 
L 63.838345 322.773037 
L 65.981993 330.116419 
L 68.125642 324.397679 
L 70.269291 249.404207 
L 72.412939 275.333493 
L 74.556588 263.571085 
L 76.700236 270.459567 
L 78.843885 271.109424 
L 80.987534 324.982551 
L 83.131182 317.76914 
L 85.274831 260.516758 
L 87.41848 292.749654 
L 89.562128 283.65166 
L 91.705777 270.979452 
L 93.849426 278.582777 
L 95.993074 315.429656 
L 98.136723 313.934985 
L 100.280372 242.710683 
L 102.42402 246.739795 
L 104.567669 232.247988 
L 106.711318 255.317904 
L 108.854966 304.707019 
L 110.998615 328.491777 
L 113.142264 331.221176 
L 115.285912 327.257049 
L 117.429561 265.780598 
L 119.573209 247.25968 
L 121.716858 244.530282 
L 123.860507 248.819336 
L 126.004155 315.884556 
L 128.147804 334.600431 
L 130.291453 275.398478 
L 132.435101 200.599963 
L 134.57875 242.90564 
L 136.722399 186.823 
L 138.866047 230.883289 
L 141.009696 320.303582 
L 143.153345 315.81957 
L 145.296993 245.570052 
L 147.440642 248.234465 
L 149.584291 226.269306 
L 151.727939 227.634005 
L 153.871588 247.844551 
L 156.015236 308.476188 
L 158.158885 310.620716 
L 160.302534 234.262544 
L 162.446182 223.474922 
L 164.589831 203.849247 
L 166.73348 206.708617 
L 168.877128 219.90071 
L 171.020777 286.05613 
L 173.164426 292.684669 
L 175.308074 164.922826 
L 177.451723 185.848215 
L 179.595372 153.225404 
L 181.73902 208.983116 
L 183.882669 241.345983 
L 186.026318 308.15126 
L 188.169966 282.156989 
L 190.313615 133.209816 
L 192.457264 187.082942 
L 194.600912 55.032045 
L 196.744561 102.146662 
L 198.888209 159.334058 
L 201.031858 288.330628 
L 203.175507 283.326731 
L 205.319155 152.315605 
L 207.462804 184.353544 
L 209.606453 123.591935 
L 211.750101 82.391016 
L 213.89375 86.810042 
L 216.037399 266.365469 
L 218.181047 280.597333 
L 220.324696 153.030447 
L 222.468345 108.385287 
L 224.611993 109.230101 
L 226.755642 94.933252 
L 228.899291 140.553197 
L 231.042939 278.192863 
L 233.186588 294.569253 
L 235.330236 182.403974 
L 237.473885 142.697725 
L 239.617534 112.934284 
L 241.761182 129.115718 
L 243.904831 139.773369 
L 246.04848 281.117218 
L 248.192128 280.857275 
L 250.335777 131.065288 
L 252.479426 104.486146 
L 254.623074 161.803514 
L 256.766723 150.236063 
L 258.910372 176.880191 
L 261.05402 282.156989 
L 263.197669 270.71951 
L 265.341318 176.29532 
L 267.484966 144.322367 
L 269.628615 127.361105 
L 271.772264 126.451305 
L 273.915912 117.613253 
L 276.059561 253.888219 
L 278.203209 265.065756 
L 280.346858 105.915831 
L 282.490507 140.293255 
L 284.634155 155.109989 
L 286.777804 186.238129 
L 288.921453 295.67401 
L 291.065101 306.266675 
L 293.20875 327.257049 
L 295.352399 317.379226 
L 297.496047 270.199624 
L 299.639696 242.90564 
L 301.783345 295.414067 
L 303.926993 253.433319 
L 306.070642 303.992177 
L 308.214291 279.947476 
L 310.357939 128.595833 
L 312.501588 114.623912 
L 314.645236 107.150559 
L 316.788885 111.114685 
L 318.932534 136.329128 
L 321.076182 238.486614 
L 323.219831 270.654524 
L 325.36348 125.086606 
L 327.507128 128.985747 
L 329.650777 120.927523 
L 331.794426 131.455202 
L 333.938074 196.245923 
L 336.081723 278.517791 
L 338.225372 283.716645 
L 340.36902 161.543571 
L 342.512669 139.773369 
L 344.656318 127.296119 
L 346.799966 131.585174 
L 348.943615 138.928555 
L 351.087264 246.934752 
L 353.230912 272.734066 
L 355.374561 154.135204 
L 357.518209 133.014859 
L 359.661858 128.855775 
L 361.805507 123.981849 
L 363.949155 173.305979 
L 366.092804 273.708851 
L 368.236453 296.258881 
L 370.380101 164.662884 
L 372.52375 163.233199 
L 374.667399 183.638702 
L 376.811047 145.492109 
L 378.954696 171.94128 
L 381.098345 277.02312 
L 383.241993 303.927191 
L 385.385642 249.20925 
L 387.529291 210.412801 
L 389.672939 209.37303 
L 391.816588 215.546669 
L 393.960236 227.179106 
L 396.103885 286.576015 
L 398.247534 291.969826 
L 400.391182 278.907705 
L 402.534831 211.127643 
L 404.67848 233.742659 
L 406.822128 208.268273 
L 408.965777 226.529249 
L 411.109426 283.716645 
L 413.253074 295.609024 
L 415.396723 213.337156 
L 417.540372 231.078246 
L 419.68402 214.116984 
L 421.827669 210.867701 
L 423.971318 217.821168 
L 426.114966 283.65166 
L 428.258615 293.074583 
L 430.402264 221.330395 
L 432.545912 221.135438 
L 434.689561 216.456469 
L 436.833209 227.698991 
L 438.976858 240.176241 
L 441.120507 320.888453 
L 443.264155 309.580945 
L 445.407804 254.083176 
L 447.551453 251.028849 
L 449.695101 253.043405 
L 451.83875 259.73693 
L 453.982399 230.428389 
L 456.126047 304.642033 
L 458.269696 319.263811 
L 460.413345 241.475955 
L 462.556993 235.952172 
L 464.700642 255.902775 
L 466.844291 221.655323 
L 468.987939 251.418763 
L 471.131588 305.421862 
L 473.275236 313.999971 
L 475.418885 247.844551 
L 477.562534 246.999737 
L 479.706182 242.385754 
L 481.849831 228.803748 
L 483.99348 225.359507 
L 486.137128 300.093036 
L 488.280777 306.591604 
L 490.424426 222.890051 
L 492.568074 235.432287 
L 494.711723 210.867701 
L 496.855372 205.213947 
L 498.99902 238.746556 
L 501.142669 276.308278 
L 503.286318 268.055097 
L 505.429966 122.942079 
L 507.573615 113.259213 
L 509.717264 117.35331 
L 511.860912 117.743224 
L 514.004561 136.978985 
L 516.148209 260.906672 
L 518.291858 281.637103 
L 520.435507 145.232166 
L 522.579155 131.975088 
L 524.722804 122.942079 
L 526.866453 137.043971 
L 529.010101 179.089704 
L 531.15375 284.366502 
L 533.297399 277.607991 
L 535.441047 134.509529 
L 537.584696 141.462997 
L 539.728345 142.502768 
L 541.871993 155.174975 
L 544.015642 157.189531 
L 546.159291 253.173377 
L 548.302939 202.744491 
L 550.446588 160.9587 
L 552.590236 146.271937 
L 554.733885 152.965462 
L 556.877534 144.387352 
L 559.021182 153.940247 
L 561.164831 279.362605 
L 563.30848 280.727304 
L 565.452128 158.034345 
L 567.595777 158.749187 
L 569.739426 182.079045 
L 571.883074 171.681337 
L 574.026723 156.539674 
L 576.170372 265.585641 
L 578.31402 292.619683 
L 580.457669 186.823 
L 582.601318 172.136237 
L 584.744966 181.754117 
L 586.888615 190.202255 
L 589.032264 187.797785 
L 591.175912 285.14633 
L 593.319561 302.627477 
L 595.463209 190.007298 
L 597.606858 163.428156 
L 599.750507 151.470791 
L 601.894155 212.2324 
L 604.037804 213.662085 
L 606.181453 279.752519 
L 608.325101 291.189998 
L 610.46875 208.073316 
L 612.612399 172.98105 
L 614.756047 163.493141 
L 616.899696 156.409703 
L 619.043345 208.138302 
L 621.186993 294.504268 
L 623.330642 303.602263 
L 625.474291 210.802715 
L 627.617939 203.589305 
L 629.761588 211.127643 
L 631.905236 163.81807 
L 634.048885 294.439282 
L 636.192534 302.822434 
L 638.336182 310.685701 
L 640.479831 274.163751 
L 642.62348 243.035611 
L 644.767128 250.314007 
L 646.910777 266.690398 
L 649.054426 273.578879 
L 651.198074 306.461632 
L 653.341723 324.072751 
L 655.485372 241.54094 
L 657.62902 187.732799 
L 659.772669 177.725005 
L 661.916318 229.908504 
L 664.059966 220.615552 
L 666.203615 292.229769 
L 668.347264 287.225872 
L 670.490912 226.984149 
L 672.634561 174.020821 
L 674.778209 189.552398 
L 676.921858 188.447642 
L 679.065507 197.480651 
L 681.209155 301.197792 
L 683.352804 313.090171 
L 685.496453 194.881224 
L 687.640101 172.591136 
L 689.78375 165.962597 
L 691.927399 171.551366 
L 694.071047 229.778533 
L 696.214696 291.904841 
L 698.358345 307.956303 
L 700.501993 224.189764 
L 702.645642 207.683402 
L 704.789291 220.160652 
L 706.932939 230.103461 
L 709.076588 294.114354 
L 711.220236 309.450974 
L 713.363885 309.645931 
L 715.507534 267.145297 
L 717.651182 249.079279 
L 719.794831 256.747589 
L 721.93848 259.671944 
L 724.082128 250.703921 
L 726.225777 302.952406 
L 728.369426 313.480086 
L 730.513074 218.471025 
L 732.656723 252.588506 
L 734.800372 236.732 
L 736.94402 221.85028 
L 739.087669 272.66908 
L 741.231318 304.901976 
L 743.374966 298.208451 
L 745.518615 223.279965 
L 747.662264 233.87263 
L 749.805912 220.550566 
L 751.949561 265.975555 
L 754.093209 257.852345 
L 756.236858 320.108625 
L 758.380507 311.46553 
L 760.524155 262.011429 
L 762.667804 267.340254 
L 764.811453 232.702888 
L 766.955101 238.551599 
L 769.09875 264.090971 
L 771.242399 309.775902 
L 773.386047 339.344385 
L 775.529696 288.070686 
L 777.673345 252.003634 
L 779.816993 230.948275 
L 781.960642 259.087073 
L 784.104291 295.284096 
L 786.247939 317.314241 
L 788.391588 314.844785 
L 790.535236 275.853378 
L 792.678885 288.070686 
L 794.822534 287.5508 
L 796.966182 297.62358 
L 799.109831 296.193895 
L 801.25348 333.170746 
L 803.397128 340.904042 
L 805.540777 277.02312 
L 807.684426 271.824266 
L 809.828074 297.62358 
L 811.971723 283.65166 
L 814.115372 317.899112 
L 816.25902 347.597566 
L 818.402669 342.268741 
L 820.546318 323.422894 
L 822.689966 339.409371 
L 824.833615 353.186335 
L 826.977264 352.276535 
L 829.120912 341.293956 
L 831.264561 351.366736 
L 833.408209 351.691664 
L 835.551858 354.421062 
L 837.695507 347.142667 
L 837.695507 347.142667 
" clip-path="url(#pd5d6163d1d)" style="fill: none; stroke: #0d6efc; stroke-opacity: 0.8; stroke-width: 2.5; stroke-linecap: square"/>
   </g>
   <g id="line2d_40">
    <path d="M 57.407399 345.518025 
L 59.551047 335.900144 
L 61.694696 323.682837 
L 63.838345 346.752753 
L 65.981993 345.193096 
L 68.125642 333.885588 
L 70.269291 304.83699 
L 72.412939 308.021289 
L 74.556588 310.945644 
L 76.700236 319.718711 
L 78.843885 337.459801 
L 80.987534 344.218311 
L 83.131182 280.142433 
L 85.274831 283.911602 
L 87.41848 301.717678 
L 89.562128 273.383922 
L 91.705777 295.414067 
L 93.849426 292.879626 
L 95.993074 318.159054 
L 98.136723 264.870799 
L 100.280372 280.012462 
L 102.42402 253.238362 
L 104.567669 272.344152 
L 106.711318 272.929023 
L 108.854966 318.418997 
L 110.998615 333.820603 
L 113.142264 343.893383 
L 115.285912 283.911602 
L 117.429561 276.178307 
L 119.573209 299.313208 
L 121.716858 299.443179 
L 123.860507 336.160087 
L 126.004155 337.004901 
L 128.147804 286.900943 
L 130.291453 271.954238 
L 132.435101 242.645697 
L 134.57875 271.889252 
L 136.722399 253.953205 
L 138.866047 318.743925 
L 141.009696 332.845818 
L 143.153345 261.621515 
L 145.296993 228.933719 
L 147.440642 247.584608 
L 149.584291 278.127877 
L 151.727939 291.709884 
L 153.871588 329.076648 
L 156.015236 322.708052 
L 158.158885 278.062891 
L 160.302534 268.31504 
L 162.446182 277.737963 
L 164.589831 265.065756 
L 166.73348 266.105527 
L 168.877128 311.01063 
L 171.020777 306.136704 
L 173.164426 193.516525 
L 175.308074 131.065288 
L 177.451723 182.468959 
L 179.595372 164.142998 
L 181.73902 202.354577 
L 183.882669 289.370399 
L 186.026318 282.546903 
L 188.169966 117.548267 
L 190.313615 159.529015 
L 192.457264 136.913999 
L 194.600912 140.618183 
L 196.744561 168.886953 
L 198.888209 288.0057 
L 201.031858 301.652692 
L 203.175507 282.027018 
L 205.319155 146.011994 
L 207.462804 145.037209 
L 209.606453 129.440646 
L 211.750101 143.932453 
L 213.89375 289.760313 
L 216.037399 323.097966 
L 218.181047 159.334058 
L 220.324696 155.69486 
L 222.468345 151.34082 
L 224.611993 198.650393 
L 226.755642 214.766841 
L 228.899291 281.962032 
L 231.042939 300.417964 
L 233.186588 172.071251 
L 235.330236 166.67744 
L 237.473885 159.853944 
L 239.617534 167.262311 
L 241.761182 187.472857 
L 243.904831 285.471258 
L 246.04848 266.495441 
L 248.192128 188.252685 
L 250.335777 176.230334 
L 252.479426 157.969359 
L 254.623074 182.209017 
L 256.766723 178.049933 
L 258.910372 284.366502 
L 261.05402 297.818537 
L 263.197669 190.982083 
L 265.341318 181.429189 
L 267.484966 170.706552 
L 269.628615 175.515492 
L 271.772264 192.736696 
L 273.915912 286.316072 
L 276.059561 294.894182 
L 278.203209 196.700823 
L 280.346858 173.43595 
L 282.490507 176.100363 
L 284.634155 178.569819 
L 286.777804 311.01063 
L 288.921453 321.928224 
L 291.065101 331.936018 
L 293.20875 322.448109 
L 295.352399 300.547936 
L 297.496047 287.160886 
L 299.639696 275.853378 
L 301.783345 326.997107 
L 303.926993 321.408338 
L 306.070642 302.497506 
L 308.214291 220.875495 
L 310.357939 230.038475 
L 312.501588 194.361338 
L 314.645236 174.995606 
L 316.788885 194.361338 
L 318.932534 285.016359 
L 321.076182 297.298652 
L 323.219831 198.260479 
L 325.36348 192.411768 
L 327.507128 192.346782 
L 329.650777 186.628043 
L 331.794426 200.275035 
L 333.938074 224.189764 
L 336.081723 291.709884 
L 338.225372 199.625178 
L 340.36902 194.296353 
L 342.512669 186.952971 
L 344.656318 182.01406 
L 346.799966 199.430221 
L 348.943615 299.118251 
L 351.087264 279.297619 
L 353.230912 215.611655 
L 355.374561 206.383689 
L 357.518209 211.842486 
L 359.661858 204.56409 
L 361.805507 239.266442 
L 363.949155 288.135671 
L 366.092804 297.818537 
L 368.236453 227.763977 
L 370.380101 241.99584 
L 372.52375 209.113087 
L 374.667399 195.271138 
L 376.811047 209.438016 
L 378.954696 277.672977 
L 381.098345 294.894182 
L 383.241993 316.144498 
L 385.385642 278.062891 
L 387.529291 246.674809 
L 389.672939 353.316306 
L 391.816588 286.05613 
L 393.960236 366.248456 
L 396.103885 315.234699 
L 398.247534 316.664384 
L 400.391182 254.213148 
L 402.534831 239.916298 
L 404.67848 243.94541 
L 406.822128 252.198592 
L 408.965777 282.74186 
L 411.109426 366.963298 
L 413.253074 275.138536 
L 415.396723 251.028849 
L 417.540372 250.11905 
L 419.68402 259.347016 
L 421.827669 364.753785 
L 423.971318 298.013494 
L 426.114966 318.094069 
L 428.258615 283.001803 
L 430.402264 270.71951 
L 432.545912 295.933953 
L 434.689561 253.108391 
L 436.833209 267.925126 
L 438.976858 298.53338 
L 443.264155 368.068055 
L 445.407804 257.917331 
L 447.551453 327.84192 
L 449.695101 366.18347 
L 451.83875 275.333493 
L 453.982399 292.619683 
L 456.126047 313.480086 
L 458.269696 286.965929 
L 460.413345 288.915499 
L 462.556993 267.990111 
L 464.700642 276.763178 
L 466.844291 265.130741 
L 468.987939 299.833093 
L 471.131588 326.607192 
L 473.275236 274.033779 
L 475.418885 286.511029 
L 477.562534 258.697159 
L 479.706182 276.113321 
L 481.849831 255.967761 
L 483.99348 309.191031 
L 486.137128 321.213381 
L 488.280777 258.24226 
L 490.424426 276.893149 
L 492.568074 235.497272 
L 494.711723 227.763977 
L 496.855372 249.144265 
L 498.99902 295.089139 
L 501.142669 318.548968 
L 503.286318 198.130508 
L 505.429966 157.059559 
L 507.573615 171.94128 
L 509.717264 187.667814 
L 511.860912 183.833659 
L 514.004561 260.776701 
L 516.148209 294.569253 
L 518.291858 191.891883 
L 520.435507 364.2339 
L 522.579155 166.742425 
L 524.722804 150.950906 
L 526.866453 175.775435 
L 529.010101 266.235498 
L 531.15375 288.0057 
L 533.297399 189.617384 
L 535.441047 214.896813 
L 537.584696 161.153657 
L 539.728345 140.163283 
L 541.871993 222.630108 
L 544.015642 279.947476 
L 546.159291 93.438581 
L 548.302939 201.639734 
L 550.446588 182.663916 
L 552.590236 178.504833 
L 554.733885 167.977153 
L 556.877534 198.585407 
L 559.021182 274.813607 
L 561.164831 278.322834 
L 563.30848 213.792056 
L 565.452128 208.853145 
L 567.595777 182.01406 
L 569.739426 178.894747 
L 571.883074 222.76008 
L 574.026723 294.504268 
L 576.170372 318.873897 
L 578.31402 237.251886 
L 580.457669 211.582543 
L 582.601318 201.639734 
L 584.744966 199.820135 
L 586.888615 199.560193 
L 589.032264 275.07355 
L 591.175912 306.331661 
L 593.319561 214.376927 
L 595.463209 211.842486 
L 597.606858 212.622314 
L 599.750507 203.394348 
L 601.894155 211.712514 
L 604.037804 285.14633 
L 606.181453 279.037676 
L 608.325101 219.575781 
L 610.46875 213.922027 
L 614.756047 187.082942 
L 616.899696 196.310909 
L 619.043345 286.835958 
L 621.186993 305.681804 
L 623.330642 226.65922 
L 625.474291 193.776467 
L 627.617939 214.051999 
L 629.761588 183.378759 
L 631.905236 301.782664 
L 634.048885 308.216246 
L 636.192534 313.090171 
L 638.336182 277.283063 
L 640.479831 267.015326 
L 642.62348 258.24226 
L 644.767128 258.177274 
L 646.910777 266.430455 
L 649.054426 289.175442 
L 651.198074 307.306446 
L 653.341723 364.883757 
L 655.485372 158.424259 
L 657.62902 156.409703 
L 659.772669 141.722939 
L 661.916318 175.190563 
L 664.059966 256.227704 
L 666.203615 279.102662 
L 668.347264 177.595034 
L 670.490912 154.265175 
L 672.634561 128.855775 
L 674.778209 147.376693 
L 676.921858 154.20019 
L 679.065507 244.595267 
L 681.209155 279.492576 
L 683.352804 190.137269 
L 685.496453 167.717211 
L 687.640101 187.862771 
L 689.78375 162.128442 
L 691.927399 158.229302 
L 694.071047 263.311142 
L 696.214696 315.559627 
L 698.358345 223.604893 
L 700.501993 217.301283 
L 702.645642 218.860939 
L 704.789291 211.972457 
L 709.076588 281.572118 
L 711.220236 303.147363 
L 713.363885 303.667248 
L 715.507534 300.742893 
L 717.651182 225.099564 
L 719.794831 223.474922 
L 721.93848 225.814406 
L 724.082128 322.967994 
L 726.225777 364.428857 
L 728.369426 257.722374 
L 730.513074 251.288792 
L 734.800372 190.72214 
L 736.94402 233.482716 
L 739.087669 266.105527 
L 741.231318 312.5053 
L 743.374966 256.682603 
L 745.518615 238.941513 
L 747.662264 226.20432 
L 749.805912 208.853145 
L 751.949561 256.747589 
L 754.093209 280.077447 
L 756.236858 288.525585 
L 758.380507 262.1414 
L 760.524155 212.557328 
L 762.667804 229.843518 
L 764.811453 234.457502 
L 766.955101 289.435385 
L 769.09875 322.253152 
L 771.242399 327.906906 
L 773.386047 291.514927 
L 775.529696 283.846617 
L 777.673345 275.333493 
L 779.816993 274.683636 
L 781.960642 294.244325 
L 784.104291 333.56066 
L 786.247939 318.548968 
L 790.535236 268.769939 
L 792.678885 280.207419 
L 794.822534 273.578879 
L 796.966182 297.753552 
L 799.109831 330.961233 
L 801.25348 367.028284 
L 803.397128 297.038709 
L 805.540777 291.125012 
L 807.684426 302.562492 
L 809.828074 306.461632 
L 811.971723 311.660487 
L 814.115372 331.15619 
L 816.25902 356.045704 
L 818.402669 315.169713 
L 820.546318 368.522955 
L 822.689966 346.557795 
L 826.977264 349.287194 
L 829.120912 342.268741 
L 833.408209 343.893383 
L 835.551858 342.008798 
L 837.695507 346.94771 
L 837.695507 346.94771 
" clip-path="url(#pd5d6163d1d)" style="fill: none; stroke: #83c966; stroke-opacity: 0.8; stroke-width: 2.5; stroke-linecap: square"/>
   </g>
   <g id="patch_3">
    <path d="M 55.26375 384.1975 
L 55.26375 39.3575 
" style="fill: none; stroke: #000000; stroke-width: 0.8; stroke-linejoin: miter; stroke-linecap: square"/>
   </g>
   <g id="patch_4">
    <path d="M 55.26375 384.1975 
L 848.41375 384.1975 
" style="fill: none; stroke: #000000; stroke-width: 0.8; stroke-linejoin: miter; stroke-linecap: square"/>
   </g>
   <g id="text_22">
    <!-- Pedestrian Traffic at Tin Alley-Swanston St (West) -->
    <g transform="translate(254.9125 19.3575) scale(0.16 -0.16)">
     <defs>
      <path id="DejaVuSans-50" d="M 1259 4147 
L 1259 2394 
L 2053 2394 
Q 2494 2394 2734 2622 
Q 2975 2850 2975 3272 
Q 2975 3691 2734 3919 
Q 2494 4147 2053 4147 
L 1259 4147 
z
M 628 4666 
L 2053 4666 
Q 2838 4666 3239 4311 
Q 3641 3956 3641 3272 
Q 3641 2581 3239 2228 
Q 2838 1875 2053 1875 
L 1259 1875 
L 1259 0 
L 628 0 
L 628 4666 
z
" transform="scale(0.015625)"/>
      <path id="DejaVuSans-54" d="M -19 4666 
L 3928 4666 
L 3928 4134 
L 2272 4134 
L 2272 0 
L 1638 0 
L 1638 4134 
L -19 4134 
L -19 4666 
z
" transform="scale(0.015625)"/>
      <path id="DejaVuSans-2d" d="M 313 2009 
L 1997 2009 
L 1997 1497 
L 313 1497 
L 313 2009 
z
" transform="scale(0.015625)"/>
      <path id="DejaVuSans-77" d="M 269 3500 
L 844 3500 
L 1563 769 
L 2278 3500 
L 2956 3500 
L 3675 769 
L 4391 3500 
L 4966 3500 
L 4050 0 
L 3372 0 
L 2619 2869 
L 1863 0 
L 1184 0 
L 269 3500 
z
" transform="scale(0.015625)"/>
      <path id="DejaVuSans-28" d="M 1984 4856 
Q 1566 4138 1362 3434 
Q 1159 2731 1159 2009 
Q 1159 1288 1364 580 
Q 1569 -128 1984 -844 
L 1484 -844 
Q 1016 -109 783 600 
Q 550 1309 550 2009 
Q 550 2706 781 3412 
Q 1013 4119 1484 4856 
L 1984 4856 
z
" transform="scale(0.015625)"/>
      <path id="DejaVuSans-57" d="M 213 4666 
L 850 4666 
L 1831 722 
L 2809 4666 
L 3519 4666 
L 4500 722 
L 5478 4666 
L 6119 4666 
L 4947 0 
L 4153 0 
L 3169 4050 
L 2175 0 
L 1381 0 
L 213 4666 
z
" transform="scale(0.015625)"/>
      <path id="DejaVuSans-29" d="M 513 4856 
L 1013 4856 
Q 1481 4119 1714 3412 
Q 1947 2706 1947 2009 
Q 1947 1309 1714 600 
Q 1481 -109 1013 -844 
L 513 -844 
Q 928 -128 1133 580 
Q 1338 1288 1338 2009 
Q 1338 2731 1133 3434 
Q 928 4138 513 4856 
z
" transform="scale(0.015625)"/>
     </defs>
     <use xlink:href="#DejaVuSans-50"/>
     <use xlink:href="#DejaVuSans-65" transform="translate(56.677734 0)"/>
     <use xlink:href="#DejaVuSans-64" transform="translate(118.201172 0)"/>
     <use xlink:href="#DejaVuSans-65" transform="translate(181.677734 0)"/>
     <use xlink:href="#DejaVuSans-73" transform="translate(243.201172 0)"/>
     <use xlink:href="#DejaVuSans-74" transform="translate(295.300781 0)"/>
     <use xlink:href="#DejaVuSans-72" transform="translate(334.509766 0)"/>
     <use xlink:href="#DejaVuSans-69" transform="translate(375.623047 0)"/>
     <use xlink:href="#DejaVuSans-61" transform="translate(403.40625 0)"/>
     <use xlink:href="#DejaVuSans-6e" transform="translate(464.685547 0)"/>
     <use xlink:href="#DejaVuSans-20" transform="translate(528.064453 0)"/>
     <use xlink:href="#DejaVuSans-54" transform="translate(559.851562 0)"/>
     <use xlink:href="#DejaVuSans-72" transform="translate(606.185547 0)"/>
     <use xlink:href="#DejaVuSans-61" transform="translate(647.298828 0)"/>
     <use xlink:href="#DejaVuSans-66" transform="translate(708.578125 0)"/>
     <use xlink:href="#DejaVuSans-66" transform="translate(743.783203 0)"/>
     <use xlink:href="#DejaVuSans-69" transform="translate(778.988281 0)"/>
     <use xlink:href="#DejaVuSans-63" transform="translate(806.771484 0)"/>
     <use xlink:href="#DejaVuSans-20" transform="translate(861.751953 0)"/>
     <use xlink:href="#DejaVuSans-61" transform="translate(893.539062 0)"/>
     <use xlink:href="#DejaVuSans-74" transform="translate(954.818359 0)"/>
     <use xlink:href="#DejaVuSans-20" transform="translate(994.027344 0)"/>
     <use xlink:href="#DejaVuSans-54" transform="translate(1025.814453 0)"/>
     <use xlink:href="#DejaVuSans-69" transform="translate(1083.773438 0)"/>
     <use xlink:href="#DejaVuSans-6e" transform="translate(1111.556641 0)"/>
     <use xlink:href="#DejaVuSans-20" transform="translate(1174.935547 0)"/>
     <use xlink:href="#DejaVuSans-41" transform="translate(1206.722656 0)"/>
     <use xlink:href="#DejaVuSans-6c" transform="translate(1275.130859 0)"/>
     <use xlink:href="#DejaVuSans-6c" transform="translate(1302.914062 0)"/>
     <use xlink:href="#DejaVuSans-65" transform="translate(1330.697266 0)"/>
     <use xlink:href="#DejaVuSans-79" transform="translate(1392.220703 0)"/>
     <use xlink:href="#DejaVuSans-2d" transform="translate(1449.650391 0)"/>
     <use xlink:href="#DejaVuSans-53" transform="translate(1485.734375 0)"/>
     <use xlink:href="#DejaVuSans-77" transform="translate(1549.210938 0)"/>
     <use xlink:href="#DejaVuSans-61" transform="translate(1630.998047 0)"/>
     <use xlink:href="#DejaVuSans-6e" transform="translate(1692.277344 0)"/>
     <use xlink:href="#DejaVuSans-73" transform="translate(1755.65625 0)"/>
     <use xlink:href="#DejaVuSans-74" transform="translate(1807.755859 0)"/>
     <use xlink:href="#DejaVuSans-6f" transform="translate(1846.964844 0)"/>
     <use xlink:href="#DejaVuSans-6e" transform="translate(1908.146484 0)"/>
     <use xlink:href="#DejaVuSans-20" transform="translate(1971.525391 0)"/>
     <use xlink:href="#DejaVuSans-53" transform="translate(2003.3125 0)"/>
     <use xlink:href="#DejaVuSans-74" transform="translate(2066.789062 0)"/>
     <use xlink:href="#DejaVuSans-20" transform="translate(2105.998047 0)"/>
     <use xlink:href="#DejaVuSans-28" transform="translate(2137.785156 0)"/>
     <use xlink:href="#DejaVuSans-57" transform="translate(2176.798828 0)"/>
     <use xlink:href="#DejaVuSans-65" transform="translate(2269.800781 0)"/>
     <use xlink:href="#DejaVuSans-73" transform="translate(2331.324219 0)"/>
     <use xlink:href="#DejaVuSans-74" transform="translate(2383.423828 0)"/>
     <use xlink:href="#DejaVuSans-29" transform="translate(2422.632812 0)"/>
    </g>
   </g>
   <g id="legend_1">
    <g id="patch_5">
     <path d="M 62.96375 80.449375 
L 126.15875 80.449375 
Q 128.35875 80.449375 128.35875 78.249375 
L 128.35875 47.0575 
Q 128.35875 44.8575 126.15875 44.8575 
L 62.96375 44.8575 
Q 60.76375 44.8575 60.76375 47.0575 
L 60.76375 78.249375 
Q 60.76375 80.449375 62.96375 80.449375 
z
" style="fill: #ffffff; opacity: 0.95; stroke: #cccccc; stroke-linejoin: miter"/>
    </g>
    <g id="line2d_41">
     <path d="M 65.16375 53.765781 
L 76.16375 53.765781 
L 87.16375 53.765781 
" style="fill: none; stroke: #0d6efc; stroke-opacity: 0.8; stroke-width: 2.5; stroke-linecap: square"/>
    </g>
    <g id="text_23">
     <!-- 2019 -->
     <g transform="translate(95.96375 57.615781) scale(0.11 -0.11)">
      <defs>
       <path id="DejaVuSans-39" d="M 703 97 
L 703 672 
Q 941 559 1184 500 
Q 1428 441 1663 441 
Q 2288 441 2617 861 
Q 2947 1281 2994 2138 
Q 2813 1869 2534 1725 
Q 2256 1581 1919 1581 
Q 1219 1581 811 2004 
Q 403 2428 403 3163 
Q 403 3881 828 4315 
Q 1253 4750 1959 4750 
Q 2769 4750 3195 4129 
Q 3622 3509 3622 2328 
Q 3622 1225 3098 567 
Q 2575 -91 1691 -91 
Q 1453 -91 1209 -44 
Q 966 3 703 97 
z
M 1959 2075 
Q 2384 2075 2632 2365 
Q 2881 2656 2881 3163 
Q 2881 3666 2632 3958 
Q 2384 4250 1959 4250 
Q 1534 4250 1286 3958 
Q 1038 3666 1038 3163 
Q 1038 2656 1286 2365 
Q 1534 2075 1959 2075 
z
" transform="scale(0.015625)"/>
      </defs>
      <use xlink:href="#DejaVuSans-32"/>
      <use xlink:href="#DejaVuSans-30" transform="translate(63.623047 0)"/>
      <use xlink:href="#DejaVuSans-31" transform="translate(127.246094 0)"/>
      <use xlink:href="#DejaVuSans-39" transform="translate(190.869141 0)"/>
     </g>
    </g>
    <g id="line2d_42">
     <path d="M 65.16375 69.911719 
L 76.16375 69.911719 
L 87.16375 69.911719 
" style="fill: none; stroke: #83c966; stroke-opacity: 0.8; stroke-width: 2.5; stroke-linecap: square"/>
    </g>
    <g id="text_24">
     <!-- 2025 -->
     <g transform="translate(95.96375 73.761719) scale(0.11 -0.11)">
      <use xlink:href="#DejaVuSans-32"/>
      <use xlink:href="#DejaVuSans-30" transform="translate(63.623047 0)"/>
      <use xlink:href="#DejaVuSans-32" transform="translate(127.246094 0)"/>
      <use xlink:href="#DejaVuSans-35" transform="translate(190.869141 0)"/>
     </g>
    </g>
   </g>
  </g>
 </g>
 <defs>
  <clipPath id="pd5d6163d1d">
   <rect x="55.26375" y="39.3575" width="793.15" height="344.84"/>
  </clipPath>
 </defs>
</svg>
