<?xml version="1.0" encoding="utf-8" standalone="no"?>
<!DOCTYPE svg PUBLIC "-//W3C//DTD SVG 1.1//EN"
  "http://www.w3.org/Graphics/SVG/1.1/DTD/svg11.dtd">
<svg xmlns:xlink="http://www.w3.org/1999/xlink" width="855.67625pt" height="423.689375pt" viewBox="0 0 855.67625 423.689375" xmlns="http://www.w3.org/2000/svg" version="1.1">
 <metadata>
  <rdf:RDF xmlns:dc="http://purl.org/dc/elements/1.1/" xmlns:cc="http://creativecommons.org/ns#" xmlns:rdf="http://www.w3.org/1999/02/22-rdf-syntax-ns#">
   <cc:Work>
    <dc:type rdf:resource="http://purl.org/dc/dcmitype/StillImage"/>
    <dc:date>2026-01-22T12:48:47.795253</dc:date>
    <dc:format>image/svg+xml</dc:format>
    <dc:creator>
     <cc:Agent>
      <dc:title>Matplotlib v3.10.8, https://matplotlib.org/</dc:title>
     </cc:Agent>
    </dc:creator>
   </cc:Work>
  </rdf:RDF>
 </metadata>
 <defs>
  <style type="text/css">*{stroke-linejoin: round; stroke-linecap: butt}</style>
 </defs>
 <g id="figure_1">
  <g id="patch_1">
   <path d="M 0 423.689375 
L 855.67625 423.689375 
L 855.67625 0 
L 0 0 
L 0 423.689375 
z
" style="fill: none"/>
  </g>
  <g id="axes_1">
   <g id="patch_2">
    <path d="M 61.62625 384.1975 
L 848.47625 384.1975 
L 848.47625 39.3575 
L 61.62625 39.3575 
L 61.62625 384.1975 
z
" style="fill: none"/>
   </g>
   <g id="matplotlib.axis_1">
    <g id="xtick_1">
     <g id="line2d_1">
      <path d="M 61.62625 384.1975 
L 61.62625 39.3575 
" clip-path="url(#p7c5f76567a)" style="fill: none; stroke-dasharray: 2.96,1.28; stroke-dashoffset: 0; stroke: #b0b0b0; stroke-opacity: 0.3; stroke-width: 0.8"/>
     </g>
     <g id="line2d_2">
      <defs>
       <path id="md1ee952cf7" d="M 0 0 
L 0 3.5 
" style="stroke: #000000; stroke-width: 0.8"/>
      </defs>
      <g>
       <use xlink:href="#md1ee952cf7" x="61.62625" y="384.1975" style="stroke: #000000; stroke-width: 0.8"/>
      </g>
     </g>
     <g id="text_1">
      <!-- Jan -->
      <g transform="translate(53.918438 398.795937) scale(0.1 -0.1)">
       <defs>
        <path id="DejaVuSans-4a" d="M 628 4666 
L 1259 4666 
L 1259 325 
Q 1259 -519 939 -900 
Q 619 -1281 -91 -1281 
L -331 -1281 
L -331 -750 
L -134 -750 
Q 284 -750 456 -515 
Q 628 -281 628 325 
L 628 4666 
z
" transform="scale(0.015625)"/>
        <path id="DejaVuSans-61" d="M 2194 1759 
Q 1497 1759 1228 1600 
Q 959 1441 959 1056 
Q 959 750 1161 570 
Q 1363 391 1709 391 
Q 2188 391 2477 730 
Q 2766 1069 2766 1631 
L 2766 1759 
L 2194 1759 
z
M 3341 1997 
L 3341 0 
L 2766 0 
L 2766 531 
Q 2569 213 2275 61 
Q 1981 -91 1556 -91 
Q 1019 -91 701 211 
Q 384 513 384 1019 
Q 384 1609 779 1909 
Q 1175 2209 1959 2209 
L 2766 2209 
L 2766 2266 
Q 2766 2663 2505 2880 
Q 2244 3097 1772 3097 
Q 1472 3097 1187 3025 
Q 903 2953 641 2809 
L 641 3341 
Q 956 3463 1253 3523 
Q 1550 3584 1831 3584 
Q 2591 3584 2966 3190 
Q 3341 2797 3341 1997 
z
" transform="scale(0.015625)"/>
        <path id="DejaVuSans-6e" d="M 3513 2113 
L 3513 0 
L 2938 0 
L 2938 2094 
Q 2938 2591 2744 2837 
Q 2550 3084 2163 3084 
Q 1697 3084 1428 2787 
Q 1159 2491 1159 1978 
L 1159 0 
L 581 0 
L 581 3500 
L 1159 3500 
L 1159 2956 
Q 1366 3272 1645 3428 
Q 1925 3584 2291 3584 
Q 2894 3584 3203 3211 
Q 3513 2838 3513 2113 
z
" transform="scale(0.015625)"/>
       </defs>
       <use xlink:href="#DejaVuSans-4a"/>
       <use xlink:href="#DejaVuSans-61" transform="translate(29.492188 0)"/>
       <use xlink:href="#DejaVuSans-6e" transform="translate(90.771484 0)"/>
      </g>
     </g>
    </g>
    <g id="xtick_2">
     <g id="line2d_3">
      <path d="M 127.55152 384.1975 
L 127.55152 39.3575 
" clip-path="url(#p7c5f76567a)" style="fill: none; stroke-dasharray: 2.96,1.28; stroke-dashoffset: 0; stroke: #b0b0b0; stroke-opacity: 0.3; stroke-width: 0.8"/>
     </g>
     <g id="line2d_4">
      <g>
       <use xlink:href="#md1ee952cf7" x="127.55152" y="384.1975" style="stroke: #000000; stroke-width: 0.8"/>
      </g>
     </g>
     <g id="text_2">
      <!-- Feb -->
      <g transform="translate(118.699958 398.795937) scale(0.1 -0.1)">
       <defs>
        <path id="DejaVuSans-46" d="M 628 4666 
L 3309 4666 
L 3309 4134 
L 1259 4134 
L 1259 2759 
L 3109 2759 
L 3109 2228 
L 1259 2228 
L 1259 0 
L 628 0 
L 628 4666 
z
" transform="scale(0.015625)"/>
        <path id="DejaVuSans-65" d="M 3597 1894 
L 3597 1613 
L 953 1613 
Q 991 1019 1311 708 
Q 1631 397 2203 397 
Q 2534 397 2845 478 
Q 3156 559 3463 722 
L 3463 178 
Q 3153 47 2828 -22 
Q 2503 -91 2169 -91 
Q 1331 -91 842 396 
Q 353 884 353 1716 
Q 353 2575 817 3079 
Q 1281 3584 2069 3584 
Q 2775 3584 3186 3129 
Q 3597 2675 3597 1894 
z
M 3022 2063 
Q 3016 2534 2758 2815 
Q 2500 3097 2075 3097 
Q 1594 3097 1305 2825 
Q 1016 2553 972 2059 
L 3022 2063 
z
" transform="scale(0.015625)"/>
        <path id="DejaVuSans-62" d="M 3116 1747 
Q 3116 2381 2855 2742 
Q 2594 3103 2138 3103 
Q 1681 3103 1420 2742 
Q 1159 2381 1159 1747 
Q 1159 1113 1420 752 
Q 1681 391 2138 391 
Q 2594 391 2855 752 
Q 3116 1113 3116 1747 
z
M 1159 2969 
Q 1341 3281 1617 3432 
Q 1894 3584 2278 3584 
Q 2916 3584 3314 3078 
Q 3713 2572 3713 1747 
Q 3713 922 3314 415 
Q 2916 -91 2278 -91 
Q 1894 -91 1617 61 
Q 1341 213 1159 525 
L 1159 0 
L 581 0 
L 581 4863 
L 1159 4863 
L 1159 2969 
z
" transform="scale(0.015625)"/>
       </defs>
       <use xlink:href="#DejaVuSans-46"/>
       <use xlink:href="#DejaVuSans-65" transform="translate(52.019531 0)"/>
       <use xlink:href="#DejaVuSans-62" transform="translate(113.542969 0)"/>
      </g>
     </g>
    </g>
    <g id="xtick_3">
     <g id="line2d_5">
      <path d="M 187.096926 384.1975 
L 187.096926 39.3575 
" clip-path="url(#p7c5f76567a)" style="fill: none; stroke-dasharray: 2.96,1.28; stroke-dashoffset: 0; stroke: #b0b0b0; stroke-opacity: 0.3; stroke-width: 0.8"/>
     </g>
     <g id="line2d_6">
      <g>
       <use xlink:href="#md1ee952cf7" x="187.096926" y="384.1975" style="stroke: #000000; stroke-width: 0.8"/>
      </g>
     </g>
     <g id="text_3">
      <!-- Mar -->
      <g transform="translate(177.663332 398.795937) scale(0.1 -0.1)">
       <defs>
        <path id="DejaVuSans-4d" d="M 628 4666 
L 1569 4666 
L 2759 1491 
L 3956 4666 
L 4897 4666 
L 4897 0 
L 4281 0 
L 4281 4097 
L 3078 897 
L 2444 897 
L 1241 4097 
L 1241 0 
L 628 0 
L 628 4666 
z
" transform="scale(0.015625)"/>
        <path id="DejaVuSans-72" d="M 2631 2963 
Q 2534 3019 2420 3045 
Q 2306 3072 2169 3072 
Q 1681 3072 1420 2755 
Q 1159 2438 1159 1844 
L 1159 0 
L 581 0 
L 581 3500 
L 1159 3500 
L 1159 2956 
Q 1341 3275 1631 3429 
Q 1922 3584 2338 3584 
Q 2397 3584 2469 3576 
Q 2541 3569 2628 3553 
L 2631 2963 
z
" transform="scale(0.015625)"/>
       </defs>
       <use xlink:href="#DejaVuSans-4d"/>
       <use xlink:href="#DejaVuSans-61" transform="translate(86.279297 0)"/>
       <use xlink:href="#DejaVuSans-72" transform="translate(147.558594 0)"/>
      </g>
     </g>
    </g>
    <g id="xtick_4">
     <g id="line2d_7">
      <path d="M 253.022196 384.1975 
L 253.022196 39.3575 
" clip-path="url(#p7c5f76567a)" style="fill: none; stroke-dasharray: 2.96,1.28; stroke-dashoffset: 0; stroke: #b0b0b0; stroke-opacity: 0.3; stroke-width: 0.8"/>
     </g>
     <g id="line2d_8">
      <g>
       <use xlink:href="#md1ee952cf7" x="253.022196" y="384.1975" style="stroke: #000000; stroke-width: 0.8"/>
      </g>
     </g>
     <g id="text_4">
      <!-- Apr -->
      <g transform="translate(244.372196 398.795937) scale(0.1 -0.1)">
       <defs>
        <path id="DejaVuSans-41" d="M 2188 4044 
L 1331 1722 
L 3047 1722 
L 2188 4044 
z
M 1831 4666 
L 2547 4666 
L 4325 0 
L 3669 0 
L 3244 1197 
L 1141 1197 
L 716 0 
L 50 0 
L 1831 4666 
z
" transform="scale(0.015625)"/>
        <path id="DejaVuSans-70" d="M 1159 525 
L 1159 -1331 
L 581 -1331 
L 581 3500 
L 1159 3500 
L 1159 2969 
Q 1341 3281 1617 3432 
Q 1894 3584 2278 3584 
Q 2916 3584 3314 3078 
Q 3713 2572 3713 1747 
Q 3713 922 3314 415 
Q 2916 -91 2278 -91 
Q 1894 -91 1617 61 
Q 1341 213 1159 525 
z
M 3116 1747 
Q 3116 2381 2855 2742 
Q 2594 3103 2138 3103 
Q 1681 3103 1420 2742 
Q 1159 2381 1159 1747 
Q 1159 1113 1420 752 
Q 1681 391 2138 391 
Q 2594 391 2855 752 
Q 3116 1113 3116 1747 
z
" transform="scale(0.015625)"/>
       </defs>
       <use xlink:href="#DejaVuSans-41"/>
       <use xlink:href="#DejaVuSans-70" transform="translate(68.408203 0)"/>
       <use xlink:href="#DejaVuSans-72" transform="translate(131.884766 0)"/>
      </g>
     </g>
    </g>
    <g id="xtick_5">
     <g id="line2d_9">
      <path d="M 316.820845 384.1975 
L 316.820845 39.3575 
" clip-path="url(#p7c5f76567a)" style="fill: none; stroke-dasharray: 2.96,1.28; stroke-dashoffset: 0; stroke: #b0b0b0; stroke-opacity: 0.3; stroke-width: 0.8"/>
     </g>
     <g id="line2d_10">
      <g>
       <use xlink:href="#md1ee952cf7" x="316.820845" y="384.1975" style="stroke: #000000; stroke-width: 0.8"/>
      </g>
     </g>
     <g id="text_5">
      <!-- May -->
      <g transform="translate(306.483345 398.795937) scale(0.1 -0.1)">
       <defs>
        <path id="DejaVuSans-79" d="M 2059 -325 
Q 1816 -950 1584 -1140 
Q 1353 -1331 966 -1331 
L 506 -1331 
L 506 -850 
L 844 -850 
Q 1081 -850 1212 -737 
Q 1344 -625 1503 -206 
L 1606 56 
L 191 3500 
L 800 3500 
L 1894 763 
L 2988 3500 
L 3597 3500 
L 2059 -325 
z
" transform="scale(0.015625)"/>
       </defs>
       <use xlink:href="#DejaVuSans-4d"/>
       <use xlink:href="#DejaVuSans-61" transform="translate(86.279297 0)"/>
       <use xlink:href="#DejaVuSans-79" transform="translate(147.558594 0)"/>
      </g>
     </g>
    </g>
    <g id="xtick_6">
     <g id="line2d_11">
      <path d="M 382.746115 384.1975 
L 382.746115 39.3575 
" clip-path="url(#p7c5f76567a)" style="fill: none; stroke-dasharray: 2.96,1.28; stroke-dashoffset: 0; stroke: #b0b0b0; stroke-opacity: 0.3; stroke-width: 0.8"/>
     </g>
     <g id="line2d_12">
      <g>
       <use xlink:href="#md1ee952cf7" x="382.746115" y="384.1975" style="stroke: #000000; stroke-width: 0.8"/>
      </g>
     </g>
     <g id="text_6">
      <!-- Jun -->
      <g transform="translate(374.933615 398.795937) scale(0.1 -0.1)">
       <defs>
        <path id="DejaVuSans-75" d="M 544 1381 
L 544 3500 
L 1119 3500 
L 1119 1403 
Q 1119 906 1312 657 
Q 1506 409 1894 409 
Q 2359 409 2629 706 
Q 2900 1003 2900 1516 
L 2900 3500 
L 3475 3500 
L 3475 0 
L 2900 0 
L 2900 538 
Q 2691 219 2414 64 
Q 2138 -91 1772 -91 
Q 1169 -91 856 284 
Q 544 659 544 1381 
z
M 1991 3584 
L 1991 3584 
z
" transform="scale(0.015625)"/>
       </defs>
       <use xlink:href="#DejaVuSans-4a"/>
       <use xlink:href="#DejaVuSans-75" transform="translate(29.492188 0)"/>
       <use xlink:href="#DejaVuSans-6e" transform="translate(92.871094 0)"/>
      </g>
     </g>
    </g>
    <g id="xtick_7">
     <g id="line2d_13">
      <path d="M 446.544764 384.1975 
L 446.544764 39.3575 
" clip-path="url(#p7c5f76567a)" style="fill: none; stroke-dasharray: 2.96,1.28; stroke-dashoffset: 0; stroke: #b0b0b0; stroke-opacity: 0.3; stroke-width: 0.8"/>
     </g>
     <g id="line2d_14">
      <g>
       <use xlink:href="#md1ee952cf7" x="446.544764" y="384.1975" style="stroke: #000000; stroke-width: 0.8"/>
      </g>
     </g>
     <g id="text_7">
      <!-- Jul -->
      <g transform="translate(440.511951 398.795937) scale(0.1 -0.1)">
       <defs>
        <path id="DejaVuSans-6c" d="M 603 4863 
L 1178 4863 
L 1178 0 
L 603 0 
L 603 4863 
z
" transform="scale(0.015625)"/>
       </defs>
       <use xlink:href="#DejaVuSans-4a"/>
       <use xlink:href="#DejaVuSans-75" transform="translate(29.492188 0)"/>
       <use xlink:href="#DejaVuSans-6c" transform="translate(92.871094 0)"/>
      </g>
     </g>
    </g>
    <g id="xtick_8">
     <g id="line2d_15">
      <path d="M 512.470034 384.1975 
L 512.470034 39.3575 
" clip-path="url(#p7c5f76567a)" style="fill: none; stroke-dasharray: 2.96,1.28; stroke-dashoffset: 0; stroke: #b0b0b0; stroke-opacity: 0.3; stroke-width: 0.8"/>
     </g>
     <g id="line2d_16">
      <g>
       <use xlink:href="#md1ee952cf7" x="512.470034" y="384.1975" style="stroke: #000000; stroke-width: 0.8"/>
      </g>
     </g>
     <g id="text_8">
      <!-- Aug -->
      <g transform="translate(502.706753 398.795937) scale(0.1 -0.1)">
       <defs>
        <path id="DejaVuSans-67" d="M 2906 1791 
Q 2906 2416 2648 2759 
Q 2391 3103 1925 3103 
Q 1463 3103 1205 2759 
Q 947 2416 947 1791 
Q 947 1169 1205 825 
Q 1463 481 1925 481 
Q 2391 481 2648 825 
Q 2906 1169 2906 1791 
z
M 3481 434 
Q 3481 -459 3084 -895 
Q 2688 -1331 1869 -1331 
Q 1566 -1331 1297 -1286 
Q 1028 -1241 775 -1147 
L 775 -588 
Q 1028 -725 1275 -790 
Q 1522 -856 1778 -856 
Q 2344 -856 2625 -561 
Q 2906 -266 2906 331 
L 2906 616 
Q 2728 306 2450 153 
Q 2172 0 1784 0 
Q 1141 0 747 490 
Q 353 981 353 1791 
Q 353 2603 747 3093 
Q 1141 3584 1784 3584 
Q 2172 3584 2450 3431 
Q 2728 3278 2906 2969 
L 2906 3500 
L 3481 3500 
L 3481 434 
z
" transform="scale(0.015625)"/>
       </defs>
       <use xlink:href="#DejaVuSans-41"/>
       <use xlink:href="#DejaVuSans-75" transform="translate(68.408203 0)"/>
       <use xlink:href="#DejaVuSans-67" transform="translate(131.787109 0)"/>
      </g>
     </g>
    </g>
    <g id="xtick_9">
     <g id="line2d_17">
      <path d="M 578.395304 384.1975 
L 578.395304 39.3575 
" clip-path="url(#p7c5f76567a)" style="fill: none; stroke-dasharray: 2.96,1.28; stroke-dashoffset: 0; stroke: #b0b0b0; stroke-opacity: 0.3; stroke-width: 0.8"/>
     </g>
     <g id="line2d_18">
      <g>
       <use xlink:href="#md1ee952cf7" x="578.395304" y="384.1975" style="stroke: #000000; stroke-width: 0.8"/>
      </g>
     </g>
     <g id="text_9">
      <!-- Sep -->
      <g transform="translate(568.970304 398.795937) scale(0.1 -0.1)">
       <defs>
        <path id="DejaVuSans-53" d="M 3425 4513 
L 3425 3897 
Q 3066 4069 2747 4153 
Q 2428 4238 2131 4238 
Q 1616 4238 1336 4038 
Q 1056 3838 1056 3469 
Q 1056 3159 1242 3001 
Q 1428 2844 1947 2747 
L 2328 2669 
Q 3034 2534 3370 2195 
Q 3706 1856 3706 1288 
Q 3706 609 3251 259 
Q 2797 -91 1919 -91 
Q 1588 -91 1214 -16 
Q 841 59 441 206 
L 441 856 
Q 825 641 1194 531 
Q 1563 422 1919 422 
Q 2459 422 2753 634 
Q 3047 847 3047 1241 
Q 3047 1584 2836 1778 
Q 2625 1972 2144 2069 
L 1759 2144 
Q 1053 2284 737 2584 
Q 422 2884 422 3419 
Q 422 4038 858 4394 
Q 1294 4750 2059 4750 
Q 2388 4750 2728 4690 
Q 3069 4631 3425 4513 
z
" transform="scale(0.015625)"/>
       </defs>
       <use xlink:href="#DejaVuSans-53"/>
       <use xlink:href="#DejaVuSans-65" transform="translate(63.476562 0)"/>
       <use xlink:href="#DejaVuSans-70" transform="translate(125 0)"/>
      </g>
     </g>
    </g>
    <g id="xtick_10">
     <g id="line2d_19">
      <path d="M 642.193953 384.1975 
L 642.193953 39.3575 
" clip-path="url(#p7c5f76567a)" style="fill: none; stroke-dasharray: 2.96,1.28; stroke-dashoffset: 0; stroke: #b0b0b0; stroke-opacity: 0.3; stroke-width: 0.8"/>
     </g>
     <g id="line2d_20">
      <g>
       <use xlink:href="#md1ee952cf7" x="642.193953" y="384.1975" style="stroke: #000000; stroke-width: 0.8"/>
      </g>
     </g>
     <g id="text_10">
      <!-- Oct -->
      <g transform="translate(633.54864 398.795937) scale(0.1 -0.1)">
       <defs>
        <path id="DejaVuSans-4f" d="M 2522 4238 
Q 1834 4238 1429 3725 
Q 1025 3213 1025 2328 
Q 1025 1447 1429 934 
Q 1834 422 2522 422 
Q 3209 422 3611 934 
Q 4013 1447 4013 2328 
Q 4013 3213 3611 3725 
Q 3209 4238 2522 4238 
z
M 2522 4750 
Q 3503 4750 4090 4092 
Q 4678 3434 4678 2328 
Q 4678 1225 4090 567 
Q 3503 -91 2522 -91 
Q 1538 -91 948 565 
Q 359 1222 359 2328 
Q 359 3434 948 4092 
Q 1538 4750 2522 4750 
z
" transform="scale(0.015625)"/>
        <path id="DejaVuSans-63" d="M 3122 3366 
L 3122 2828 
Q 2878 2963 2633 3030 
Q 2388 3097 2138 3097 
Q 1578 3097 1268 2742 
Q 959 2388 959 1747 
Q 959 1106 1268 751 
Q 1578 397 2138 397 
Q 2388 397 2633 464 
Q 2878 531 3122 666 
L 3122 134 
Q 2881 22 2623 -34 
Q 2366 -91 2075 -91 
Q 1284 -91 818 406 
Q 353 903 353 1747 
Q 353 2603 823 3093 
Q 1294 3584 2113 3584 
Q 2378 3584 2631 3529 
Q 2884 3475 3122 3366 
z
" transform="scale(0.015625)"/>
        <path id="DejaVuSans-74" d="M 1172 4494 
L 1172 3500 
L 2356 3500 
L 2356 3053 
L 1172 3053 
L 1172 1153 
Q 1172 725 1289 603 
Q 1406 481 1766 481 
L 2356 481 
L 2356 0 
L 1766 0 
Q 1100 0 847 248 
Q 594 497 594 1153 
L 594 3053 
L 172 3053 
L 172 3500 
L 594 3500 
L 594 4494 
L 1172 4494 
z
" transform="scale(0.015625)"/>
       </defs>
       <use xlink:href="#DejaVuSans-4f"/>
       <use xlink:href="#DejaVuSans-63" transform="translate(78.710938 0)"/>
       <use xlink:href="#DejaVuSans-74" transform="translate(133.691406 0)"/>
      </g>
     </g>
    </g>
    <g id="xtick_11">
     <g id="line2d_21">
      <path d="M 708.119223 384.1975 
L 708.119223 39.3575 
" clip-path="url(#p7c5f76567a)" style="fill: none; stroke-dasharray: 2.96,1.28; stroke-dashoffset: 0; stroke: #b0b0b0; stroke-opacity: 0.3; stroke-width: 0.8"/>
     </g>
     <g id="line2d_22">
      <g>
       <use xlink:href="#md1ee952cf7" x="708.119223" y="384.1975" style="stroke: #000000; stroke-width: 0.8"/>
      </g>
     </g>
     <g id="text_11">
      <!-- Nov -->
      <g transform="translate(698.359848 398.795937) scale(0.1 -0.1)">
       <defs>
        <path id="DejaVuSans-4e" d="M 628 4666 
L 1478 4666 
L 3547 763 
L 3547 4666 
L 4159 4666 
L 4159 0 
L 3309 0 
L 1241 3903 
L 1241 0 
L 628 0 
L 628 4666 
z
" transform="scale(0.015625)"/>
        <path id="DejaVuSans-6f" d="M 1959 3097 
Q 1497 3097 1228 2736 
Q 959 2375 959 1747 
Q 959 1119 1226 758 
Q 1494 397 1959 397 
Q 2419 397 2687 759 
Q 2956 1122 2956 1747 
Q 2956 2369 2687 2733 
Q 2419 3097 1959 3097 
z
M 1959 3584 
Q 2709 3584 3137 3096 
Q 3566 2609 3566 1747 
Q 3566 888 3137 398 
Q 2709 -91 1959 -91 
Q 1206 -91 779 398 
Q 353 888 353 1747 
Q 353 2609 779 3096 
Q 1206 3584 1959 3584 
z
" transform="scale(0.015625)"/>
        <path id="DejaVuSans-76" d="M 191 3500 
L 800 3500 
L 1894 563 
L 2988 3500 
L 3597 3500 
L 2284 0 
L 1503 0 
L 191 3500 
z
" transform="scale(0.015625)"/>
       </defs>
       <use xlink:href="#DejaVuSans-4e"/>
       <use xlink:href="#DejaVuSans-6f" transform="translate(74.804688 0)"/>
       <use xlink:href="#DejaVuSans-76" transform="translate(135.986328 0)"/>
      </g>
     </g>
    </g>
    <g id="xtick_12">
     <g id="line2d_23">
      <path d="M 771.917872 384.1975 
L 771.917872 39.3575 
" clip-path="url(#p7c5f76567a)" style="fill: none; stroke-dasharray: 2.96,1.28; stroke-dashoffset: 0; stroke: #b0b0b0; stroke-opacity: 0.3; stroke-width: 0.8"/>
     </g>
     <g id="line2d_24">
      <g>
       <use xlink:href="#md1ee952cf7" x="771.917872" y="384.1975" style="stroke: #000000; stroke-width: 0.8"/>
      </g>
     </g>
     <g id="text_12">
      <!-- Dec -->
      <g transform="translate(762.24209 398.795937) scale(0.1 -0.1)">
       <defs>
        <path id="DejaVuSans-44" d="M 1259 4147 
L 1259 519 
L 2022 519 
Q 2988 519 3436 956 
Q 3884 1394 3884 2338 
Q 3884 3275 3436 3711 
Q 2988 4147 2022 4147 
L 1259 4147 
z
M 628 4666 
L 1925 4666 
Q 3281 4666 3915 4102 
Q 4550 3538 4550 2338 
Q 4550 1131 3912 565 
Q 3275 0 1925 0 
L 628 0 
L 628 4666 
z
" transform="scale(0.015625)"/>
       </defs>
       <use xlink:href="#DejaVuSans-44"/>
       <use xlink:href="#DejaVuSans-65" transform="translate(77.001953 0)"/>
       <use xlink:href="#DejaVuSans-63" transform="translate(138.525391 0)"/>
      </g>
     </g>
    </g>
    <g id="xtick_13">
     <g id="line2d_25">
      <path d="M 837.843142 384.1975 
L 837.843142 39.3575 
" clip-path="url(#p7c5f76567a)" style="fill: none; stroke-dasharray: 2.96,1.28; stroke-dashoffset: 0; stroke: #b0b0b0; stroke-opacity: 0.3; stroke-width: 0.8"/>
     </g>
     <g id="line2d_26">
      <g>
       <use xlink:href="#md1ee952cf7" x="837.843142" y="384.1975" style="stroke: #000000; stroke-width: 0.8"/>
      </g>
     </g>
     <g id="text_13">
      <!-- Jan -->
      <g transform="translate(830.135329 398.795937) scale(0.1 -0.1)">
       <use xlink:href="#DejaVuSans-4a"/>
       <use xlink:href="#DejaVuSans-61" transform="translate(29.492188 0)"/>
       <use xlink:href="#DejaVuSans-6e" transform="translate(90.771484 0)"/>
      </g>
     </g>
    </g>
    <g id="text_14">
     <!-- Day of the year -->
     <g transform="translate(408.465938 413.99375) scale(0.12 -0.12)">
      <defs>
       <path id="DejaVuSans-20" transform="scale(0.015625)"/>
       <path id="DejaVuSans-66" d="M 2375 4863 
L 2375 4384 
L 1825 4384 
Q 1516 4384 1395 4259 
Q 1275 4134 1275 3809 
L 1275 3500 
L 2222 3500 
L 2222 3053 
L 1275 3053 
L 1275 0 
L 697 0 
L 697 3053 
L 147 3053 
L 147 3500 
L 697 3500 
L 697 3744 
Q 697 4328 969 4595 
Q 1241 4863 1831 4863 
L 2375 4863 
z
" transform="scale(0.015625)"/>
       <path id="DejaVuSans-68" d="M 3513 2113 
L 3513 0 
L 2938 0 
L 2938 2094 
Q 2938 2591 2744 2837 
Q 2550 3084 2163 3084 
Q 1697 3084 1428 2787 
Q 1159 2491 1159 1978 
L 1159 0 
L 581 0 
L 581 4863 
L 1159 4863 
L 1159 2956 
Q 1366 3272 1645 3428 
Q 1925 3584 2291 3584 
Q 2894 3584 3203 3211 
Q 3513 2838 3513 2113 
z
" transform="scale(0.015625)"/>
      </defs>
      <use xlink:href="#DejaVuSans-44"/>
      <use xlink:href="#DejaVuSans-61" transform="translate(77.001953 0)"/>
      <use xlink:href="#DejaVuSans-79" transform="translate(138.28125 0)"/>
      <use xlink:href="#DejaVuSans-20" transform="translate(197.460938 0)"/>
      <use xlink:href="#DejaVuSans-6f" transform="translate(229.248047 0)"/>
      <use xlink:href="#DejaVuSans-66" transform="translate(290.429688 0)"/>
      <use xlink:href="#DejaVuSans-20" transform="translate(325.634766 0)"/>
      <use xlink:href="#DejaVuSans-74" transform="translate(357.421875 0)"/>
      <use xlink:href="#DejaVuSans-68" transform="translate(396.630859 0)"/>
      <use xlink:href="#DejaVuSans-65" transform="translate(460.009766 0)"/>
      <use xlink:href="#DejaVuSans-20" transform="translate(521.533203 0)"/>
      <use xlink:href="#DejaVuSans-79" transform="translate(553.320312 0)"/>
      <use xlink:href="#DejaVuSans-65" transform="translate(612.5 0)"/>
      <use xlink:href="#DejaVuSans-61" transform="translate(674.023438 0)"/>
      <use xlink:href="#DejaVuSans-72" transform="translate(735.302734 0)"/>
     </g>
    </g>
   </g>
   <g id="matplotlib.axis_2">
    <g id="ytick_1">
     <g id="line2d_27">
      <path d="M 61.62625 373.626295 
L 848.47625 373.626295 
" clip-path="url(#p7c5f76567a)" style="fill: none; stroke-dasharray: 2.96,1.28; stroke-dashoffset: 0; stroke: #b0b0b0; stroke-opacity: 0.3; stroke-width: 0.8"/>
     </g>
     <g id="line2d_28">
      <defs>
       <path id="m6ec2b6a19d" d="M 0 0 
L -3.5 0 
" style="stroke: #000000; stroke-width: 0.8"/>
      </defs>
      <g>
       <use xlink:href="#m6ec2b6a19d" x="61.62625" y="373.626295" style="stroke: #000000; stroke-width: 0.8"/>
      </g>
     </g>
     <g id="text_15">
      <!-- 0 -->
      <g transform="translate(48.26375 377.425514) scale(0.1 -0.1)">
       <defs>
        <path id="DejaVuSans-30" d="M 2034 4250 
Q 1547 4250 1301 3770 
Q 1056 3291 1056 2328 
Q 1056 1369 1301 889 
Q 1547 409 2034 409 
Q 2525 409 2770 889 
Q 3016 1369 3016 2328 
Q 3016 3291 2770 3770 
Q 2525 4250 2034 4250 
z
M 2034 4750 
Q 2819 4750 3233 4129 
Q 3647 3509 3647 2328 
Q 3647 1150 3233 529 
Q 2819 -91 2034 -91 
Q 1250 -91 836 529 
Q 422 1150 422 2328 
Q 422 3509 836 4129 
Q 1250 4750 2034 4750 
z
" transform="scale(0.015625)"/>
       </defs>
       <use xlink:href="#DejaVuSans-30"/>
      </g>
     </g>
    </g>
    <g id="ytick_2">
     <g id="line2d_29">
      <path d="M 61.62625 330.741082 
L 848.47625 330.741082 
" clip-path="url(#p7c5f76567a)" style="fill: none; stroke-dasharray: 2.96,1.28; stroke-dashoffset: 0; stroke: #b0b0b0; stroke-opacity: 0.3; stroke-width: 0.8"/>
     </g>
     <g id="line2d_30">
      <g>
       <use xlink:href="#m6ec2b6a19d" x="61.62625" y="330.741082" style="stroke: #000000; stroke-width: 0.8"/>
      </g>
     </g>
     <g id="text_16">
      <!-- 5000 -->
      <g transform="translate(29.17625 334.5403) scale(0.1 -0.1)">
       <defs>
        <path id="DejaVuSans-35" d="M 691 4666 
L 3169 4666 
L 3169 4134 
L 1269 4134 
L 1269 2991 
Q 1406 3038 1543 3061 
Q 1681 3084 1819 3084 
Q 2600 3084 3056 2656 
Q 3513 2228 3513 1497 
Q 3513 744 3044 326 
Q 2575 -91 1722 -91 
Q 1428 -91 1123 -41 
Q 819 9 494 109 
L 494 744 
Q 775 591 1075 516 
Q 1375 441 1709 441 
Q 2250 441 2565 725 
Q 2881 1009 2881 1497 
Q 2881 1984 2565 2268 
Q 2250 2553 1709 2553 
Q 1456 2553 1204 2497 
Q 953 2441 691 2322 
L 691 4666 
z
" transform="scale(0.015625)"/>
       </defs>
       <use xlink:href="#DejaVuSans-35"/>
       <use xlink:href="#DejaVuSans-30" transform="translate(63.623047 0)"/>
       <use xlink:href="#DejaVuSans-30" transform="translate(127.246094 0)"/>
       <use xlink:href="#DejaVuSans-30" transform="translate(190.869141 0)"/>
      </g>
     </g>
    </g>
    <g id="ytick_3">
     <g id="line2d_31">
      <path d="M 61.62625 287.855868 
L 848.47625 287.855868 
" clip-path="url(#p7c5f76567a)" style="fill: none; stroke-dasharray: 2.96,1.28; stroke-dashoffset: 0; stroke: #b0b0b0; stroke-opacity: 0.3; stroke-width: 0.8"/>
     </g>
     <g id="line2d_32">
      <g>
       <use xlink:href="#m6ec2b6a19d" x="61.62625" y="287.855868" style="stroke: #000000; stroke-width: 0.8"/>
      </g>
     </g>
     <g id="text_17">
      <!-- 10000 -->
      <g transform="translate(22.81375 291.655087) scale(0.1 -0.1)">
       <defs>
        <path id="DejaVuSans-31" d="M 794 531 
L 1825 531 
L 1825 4091 
L 703 3866 
L 703 4441 
L 1819 4666 
L 2450 4666 
L 2450 531 
L 3481 531 
L 3481 0 
L 794 0 
L 794 531 
z
" transform="scale(0.015625)"/>
       </defs>
       <use xlink:href="#DejaVuSans-31"/>
       <use xlink:href="#DejaVuSans-30" transform="translate(63.623047 0)"/>
       <use xlink:href="#DejaVuSans-30" transform="translate(127.246094 0)"/>
       <use xlink:href="#DejaVuSans-30" transform="translate(190.869141 0)"/>
       <use xlink:href="#DejaVuSans-30" transform="translate(254.492188 0)"/>
      </g>
     </g>
    </g>
    <g id="ytick_4">
     <g id="line2d_33">
      <path d="M 61.62625 244.970655 
L 848.47625 244.970655 
" clip-path="url(#p7c5f76567a)" style="fill: none; stroke-dasharray: 2.96,1.28; stroke-dashoffset: 0; stroke: #b0b0b0; stroke-opacity: 0.3; stroke-width: 0.8"/>
     </g>
     <g id="line2d_34">
      <g>
       <use xlink:href="#m6ec2b6a19d" x="61.62625" y="244.970655" style="stroke: #000000; stroke-width: 0.8"/>
      </g>
     </g>
     <g id="text_18">
      <!-- 15000 -->
      <g transform="translate(22.81375 248.769874) scale(0.1 -0.1)">
       <use xlink:href="#DejaVuSans-31"/>
       <use xlink:href="#DejaVuSans-35" transform="translate(63.623047 0)"/>
       <use xlink:href="#DejaVuSans-30" transform="translate(127.246094 0)"/>
       <use xlink:href="#DejaVuSans-30" transform="translate(190.869141 0)"/>
       <use xlink:href="#DejaVuSans-30" transform="translate(254.492188 0)"/>
      </g>
     </g>
    </g>
    <g id="ytick_5">
     <g id="line2d_35">
      <path d="M 61.62625 202.085442 
L 848.47625 202.085442 
" clip-path="url(#p7c5f76567a)" style="fill: none; stroke-dasharray: 2.96,1.28; stroke-dashoffset: 0; stroke: #b0b0b0; stroke-opacity: 0.3; stroke-width: 0.8"/>
     </g>
     <g id="line2d_36">
      <g>
       <use xlink:href="#m6ec2b6a19d" x="61.62625" y="202.085442" style="stroke: #000000; stroke-width: 0.8"/>
      </g>
     </g>
     <g id="text_19">
      <!-- 20000 -->
      <g transform="translate(22.81375 205.884661) scale(0.1 -0.1)">
       <defs>
        <path id="DejaVuSans-32" d="M 1228 531 
L 3431 531 
L 3431 0 
L 469 0 
L 469 531 
Q 828 903 1448 1529 
Q 2069 2156 2228 2338 
Q 2531 2678 2651 2914 
Q 2772 3150 2772 3378 
Q 2772 3750 2511 3984 
Q 2250 4219 1831 4219 
Q 1534 4219 1204 4116 
Q 875 4013 500 3803 
L 500 4441 
Q 881 4594 1212 4672 
Q 1544 4750 1819 4750 
Q 2544 4750 2975 4387 
Q 3406 4025 3406 3419 
Q 3406 3131 3298 2873 
Q 3191 2616 2906 2266 
Q 2828 2175 2409 1742 
Q 1991 1309 1228 531 
z
" transform="scale(0.015625)"/>
       </defs>
       <use xlink:href="#DejaVuSans-32"/>
       <use xlink:href="#DejaVuSans-30" transform="translate(63.623047 0)"/>
       <use xlink:href="#DejaVuSans-30" transform="translate(127.246094 0)"/>
       <use xlink:href="#DejaVuSans-30" transform="translate(190.869141 0)"/>
       <use xlink:href="#DejaVuSans-30" transform="translate(254.492188 0)"/>
      </g>
     </g>
    </g>
    <g id="ytick_6">
     <g id="line2d_37">
      <path d="M 61.62625 159.200229 
L 848.47625 159.200229 
" clip-path="url(#p7c5f76567a)" style="fill: none; stroke-dasharray: 2.96,1.28; stroke-dashoffset: 0; stroke: #b0b0b0; stroke-opacity: 0.3; stroke-width: 0.8"/>
     </g>
     <g id="line2d_38">
      <g>
       <use xlink:href="#m6ec2b6a19d" x="61.62625" y="159.200229" style="stroke: #000000; stroke-width: 0.8"/>
      </g>
     </g>
     <g id="text_20">
      <!-- 25000 -->
      <g transform="translate(22.81375 162.999447) scale(0.1 -0.1)">
       <use xlink:href="#DejaVuSans-32"/>
       <use xlink:href="#DejaVuSans-35" transform="translate(63.623047 0)"/>
       <use xlink:href="#DejaVuSans-30" transform="translate(127.246094 0)"/>
       <use xlink:href="#DejaVuSans-30" transform="translate(190.869141 0)"/>
       <use xlink:href="#DejaVuSans-30" transform="translate(254.492188 0)"/>
      </g>
     </g>
    </g>
    <g id="ytick_7">
     <g id="line2d_39">
      <path d="M 61.62625 116.315015 
L 848.47625 116.315015 
" clip-path="url(#p7c5f76567a)" style="fill: none; stroke-dasharray: 2.96,1.28; stroke-dashoffset: 0; stroke: #b0b0b0; stroke-opacity: 0.3; stroke-width: 0.8"/>
     </g>
     <g id="line2d_40">
      <g>
       <use xlink:href="#m6ec2b6a19d" x="61.62625" y="116.315015" style="stroke: #000000; stroke-width: 0.8"/>
      </g>
     </g>
     <g id="text_21">
      <!-- 30000 -->
      <g transform="translate(22.81375 120.114234) scale(0.1 -0.1)">
       <defs>
        <path id="DejaVuSans-33" d="M 2597 2516 
Q 3050 2419 3304 2112 
Q 3559 1806 3559 1356 
Q 3559 666 3084 287 
Q 2609 -91 1734 -91 
Q 1441 -91 1130 -33 
Q 819 25 488 141 
L 488 750 
Q 750 597 1062 519 
Q 1375 441 1716 441 
Q 2309 441 2620 675 
Q 2931 909 2931 1356 
Q 2931 1769 2642 2001 
Q 2353 2234 1838 2234 
L 1294 2234 
L 1294 2753 
L 1863 2753 
Q 2328 2753 2575 2939 
Q 2822 3125 2822 3475 
Q 2822 3834 2567 4026 
Q 2313 4219 1838 4219 
Q 1578 4219 1281 4162 
Q 984 4106 628 3988 
L 628 4550 
Q 988 4650 1302 4700 
Q 1616 4750 1894 4750 
Q 2613 4750 3031 4423 
Q 3450 4097 3450 3541 
Q 3450 3153 3228 2886 
Q 3006 2619 2597 2516 
z
" transform="scale(0.015625)"/>
       </defs>
       <use xlink:href="#DejaVuSans-33"/>
       <use xlink:href="#DejaVuSans-30" transform="translate(63.623047 0)"/>
       <use xlink:href="#DejaVuSans-30" transform="translate(127.246094 0)"/>
       <use xlink:href="#DejaVuSans-30" transform="translate(190.869141 0)"/>
       <use xlink:href="#DejaVuSans-30" transform="translate(254.492188 0)"/>
      </g>
     </g>
    </g>
    <g id="ytick_8">
     <g id="line2d_41">
      <path d="M 61.62625 73.429802 
L 848.47625 73.429802 
" clip-path="url(#p7c5f76567a)" style="fill: none; stroke-dasharray: 2.96,1.28; stroke-dashoffset: 0; stroke: #b0b0b0; stroke-opacity: 0.3; stroke-width: 0.8"/>
     </g>
     <g id="line2d_42">
      <g>
       <use xlink:href="#m6ec2b6a19d" x="61.62625" y="73.429802" style="stroke: #000000; stroke-width: 0.8"/>
      </g>
     </g>
     <g id="text_22">
      <!-- 35000 -->
      <g transform="translate(22.81375 77.229021) scale(0.1 -0.1)">
       <use xlink:href="#DejaVuSans-33"/>
       <use xlink:href="#DejaVuSans-35" transform="translate(63.623047 0)"/>
       <use xlink:href="#DejaVuSans-30" transform="translate(127.246094 0)"/>
       <use xlink:href="#DejaVuSans-30" transform="translate(190.869141 0)"/>
       <use xlink:href="#DejaVuSans-30" transform="translate(254.492188 0)"/>
      </g>
     </g>
    </g>
    <g id="text_23">
     <!-- Daily pedestrian count -->
     <g transform="translate(16.318125 279.793125) rotate(-90) scale(0.12 -0.12)">
      <defs>
       <path id="DejaVuSans-69" d="M 603 3500 
L 1178 3500 
L 1178 0 
L 603 0 
L 603 3500 
z
M 603 4863 
L 1178 4863 
L 1178 4134 
L 603 4134 
L 603 4863 
z
" transform="scale(0.015625)"/>
       <path id="DejaVuSans-64" d="M 2906 2969 
L 2906 4863 
L 3481 4863 
L 3481 0 
L 2906 0 
L 2906 525 
Q 2725 213 2448 61 
Q 2172 -91 1784 -91 
Q 1150 -91 751 415 
Q 353 922 353 1747 
Q 353 2572 751 3078 
Q 1150 3584 1784 3584 
Q 2172 3584 2448 3432 
Q 2725 3281 2906 2969 
z
M 947 1747 
Q 947 1113 1208 752 
Q 1469 391 1925 391 
Q 2381 391 2643 752 
Q 2906 1113 2906 1747 
Q 2906 2381 2643 2742 
Q 2381 3103 1925 3103 
Q 1469 3103 1208 2742 
Q 947 2381 947 1747 
z
" transform="scale(0.015625)"/>
       <path id="DejaVuSans-73" d="M 2834 3397 
L 2834 2853 
Q 2591 2978 2328 3040 
Q 2066 3103 1784 3103 
Q 1356 3103 1142 2972 
Q 928 2841 928 2578 
Q 928 2378 1081 2264 
Q 1234 2150 1697 2047 
L 1894 2003 
Q 2506 1872 2764 1633 
Q 3022 1394 3022 966 
Q 3022 478 2636 193 
Q 2250 -91 1575 -91 
Q 1294 -91 989 -36 
Q 684 19 347 128 
L 347 722 
Q 666 556 975 473 
Q 1284 391 1588 391 
Q 1994 391 2212 530 
Q 2431 669 2431 922 
Q 2431 1156 2273 1281 
Q 2116 1406 1581 1522 
L 1381 1569 
Q 847 1681 609 1914 
Q 372 2147 372 2553 
Q 372 3047 722 3315 
Q 1072 3584 1716 3584 
Q 2034 3584 2315 3537 
Q 2597 3491 2834 3397 
z
" transform="scale(0.015625)"/>
      </defs>
      <use xlink:href="#DejaVuSans-44"/>
      <use xlink:href="#DejaVuSans-61" transform="translate(77.001953 0)"/>
      <use xlink:href="#DejaVuSans-69" transform="translate(138.28125 0)"/>
      <use xlink:href="#DejaVuSans-6c" transform="translate(166.064453 0)"/>
      <use xlink:href="#DejaVuSans-79" transform="translate(193.847656 0)"/>
      <use xlink:href="#DejaVuSans-20" transform="translate(253.027344 0)"/>
      <use xlink:href="#DejaVuSans-70" transform="translate(284.814453 0)"/>
      <use xlink:href="#DejaVuSans-65" transform="translate(348.291016 0)"/>
      <use xlink:href="#DejaVuSans-64" transform="translate(409.814453 0)"/>
      <use xlink:href="#DejaVuSans-65" transform="translate(473.291016 0)"/>
      <use xlink:href="#DejaVuSans-73" transform="translate(534.814453 0)"/>
      <use xlink:href="#DejaVuSans-74" transform="translate(586.914062 0)"/>
      <use xlink:href="#DejaVuSans-72" transform="translate(626.123047 0)"/>
      <use xlink:href="#DejaVuSans-69" transform="translate(667.236328 0)"/>
      <use xlink:href="#DejaVuSans-61" transform="translate(695.019531 0)"/>
      <use xlink:href="#DejaVuSans-6e" transform="translate(756.298828 0)"/>
      <use xlink:href="#DejaVuSans-20" transform="translate(819.677734 0)"/>
      <use xlink:href="#DejaVuSans-63" transform="translate(851.464844 0)"/>
      <use xlink:href="#DejaVuSans-6f" transform="translate(906.445312 0)"/>
      <use xlink:href="#DejaVuSans-75" transform="translate(967.626953 0)"/>
      <use xlink:href="#DejaVuSans-6e" transform="translate(1031.005859 0)"/>
      <use xlink:href="#DejaVuSans-74" transform="translate(1094.384766 0)"/>
     </g>
    </g>
   </g>
   <g id="line2d_43">
    <path d="M 63.752872 187.847551 
L 65.879493 191.99884 
L 68.006115 193.980136 
L 70.132736 237.808824 
L 72.259358 204.761479 
L 74.38598 220.508929 
L 76.512601 188.782449 
L 78.639223 186.861191 
L 80.765845 174.252938 
L 82.892466 178.447112 
L 85.019088 152.098437 
L 87.145709 177.503638 
L 89.272331 218.416131 
L 91.398953 194.314641 
L 93.525574 185.480287 
L 372.113007 245.468124 
L 374.239628 231.401774 
L 376.36625 214.110456 
L 378.492872 216.872263 
L 380.619493 192.530616 
L 382.746115 175.479455 
L 384.872736 185.523172 
L 386.999358 227.730799 
L 389.12598 243.298132 
L 391.252601 204.881558 
L 393.379223 201.42501 
L 395.505845 201.862439 
L 397.632466 158.128098 
L 401.885709 205.447643 
L 404.012331 244.618996 
L 406.138953 196.012896 
L 408.265574 231.341734 
L 410.392196 196.124397 
L 412.518818 185.523172 
L 414.645439 194.160254 
L 416.772061 236.067685 
L 418.898682 209.701856 
L 421.025304 230.089486 
L 423.151926 215.105393 
L 425.278547 237.611552 
L 427.405169 149.310898 
L 429.531791 205.979419 
L 431.658412 250.32273 
L 433.785034 209.710433 
L 438.038277 188.971144 
L 440.164899 183.842072 
L 442.29152 154.81736 
L 444.418142 245.210812 
L 446.544764 226.692977 
L 448.671385 210.319403 
L 450.798007 200.026952 
L 452.924628 193.405475 
L 455.05125 189.12553 
L 457.177872 132.517049 
L 459.304493 164.355031 
L 461.431115 234.13785 
L 463.557736 176.525855 
L 465.684358 177.846719 
L 467.81098 178.181224 
L 469.937601 181.226074 
L 472.064223 169.381178 
L 474.190845 207.926408 
L 476.317466 259.894709 
L 478.444088 211.348648 
L 480.570709 209.924859 
L 482.697331 214.410652 
L 484.823953 183.756302 
L 486.950574 128.820343 
L 489.077196 158.196715 
L 491.203818 202.514294 
L 493.330439 197.591071 
L 495.457061 215.268356 
L 497.583682 190.832362 
L 499.710304 175.676727 
L 501.836926 191.278368 
L 503.963547 161.361643 
L 506.090169 197.496724 
L 508.216791 212.086274 
L 510.343412 203.689349 
L 512.470034 199.572368 
L 514.596655 194.031599 
L 516.723277 160.186588 
L 518.849899 196.793406 
L 520.97652 225.174841 
L 523.103142 189.56296 
L 525.229764 207.248821 
L 527.356385 195.635506 
L 529.483007 188.550868 
L 531.609628 188.310711 
L 533.73625 213.587256 
L 535.862872 235.870413 
L 537.989493 198.997706 
L 540.116115 194.040176 
L 542.242736 186.355146 
L 544.369358 181.191766 
L 546.49598 179.244777 
L 548.622601 148.719082 
L 550.749223 237.457166 
L 552.875845 209.984898 
L 555.002466 203.655041 
L 557.129088 194.709185 
L 559.255709 149.928445 
L 561.382331 55.032045 
L 563.508953 85.111734 
L 565.635574 200.944695 
L 567.762196 202.763028 
L 569.888818 196.381708 
L 572.015439 228.159651 
L 574.142061 175.633842 
L 576.268682 129.780972 
L 578.395304 158.951494 
L 580.521926 225.560808 
L 582.648547 194.829264 
L 584.775169 176.688818 
L 586.901791 180.668566 
L 589.028412 168.326202 
L 591.155034 167.451344 
L 595.408277 258.908349 
L 597.534899 220.345966 
L 599.66152 196.544672 
L 601.788142 176.920399 
L 603.914764 194.040176 
L 606.041385 143.178313 
L 608.168007 152.390057 
L 610.294628 248.847478 
L 612.42125 209.701856 
L 614.547872 192.341921 
L 616.674493 180.557065 
L 618.801115 173.515313 
L 620.927736 100.181598 
L 623.054358 222.327262 
L 625.18098 230.381106 
L 627.307601 211.151376 
L 629.434223 185.668982 
L 631.560845 178.893118 
L 633.687466 117.798844 
L 635.814088 220.629008 
L 637.940709 201.613704 
L 640.067331 225.946774 
L 642.193953 192.453423 
L 644.320574 169.930109 
L 646.447196 156.309765 
L 648.573818 151.455159 
L 650.700439 183.996459 
L 652.827061 163.780369 
L 654.953682 212.069119 
L 657.080304 167.674347 
L 659.206926 203.903775 
L 661.333547 176.766012 
L 663.460169 185.866254 
L 665.586791 134.018031 
L 667.713412 151.909742 
L 669.840034 192.69358 
L 671.966655 187.401545 
L 674.093277 191.509948 
L 676.219899 194.306064 
L 678.34652 206.210999 
L 680.473142 155.915221 
L 684.726385 230.509761 
L 686.853007 197.059295 
L 688.979628 184.348118 
L 691.10625 192.37623 
L 693.232872 173.721162 
L 695.359493 163.351517 
L 697.486115 220.663316 
L 699.612736 229.437631 
L 701.739358 195.180922 
L 703.86598 187.307197 
L 705.992601 170.79639 
L 708.119223 185.977756 
L 710.245845 164.809614 
L 712.372466 242.766355 
L 714.499088 242.457582 
L 716.625709 172.39172 
L 718.752331 238.486411 
L 720.878953 185.3259 
L 723.005574 218.913599 
L 725.132196 192.221843 
L 727.258818 196.295938 
L 729.385439 211.949041 
L 731.512061 175.676727 
L 733.638682 201.862439 
L 735.765304 180.642835 
L 737.891926 148.496079 
L 740.018547 144.233289 
L 742.145169 159.303153 
L 744.271791 192.333344 
L 746.398412 178.241263 
L 748.525034 174.184322 
L 750.651655 150.297258 
L 752.778277 169.34687 
L 754.904899 136.239485 
L 757.03152 158.17956 
L 759.158142 191.56141 
L 761.284764 182.51263 
L 763.411385 200.06126 
L 765.538007 171.791327 
L 767.664628 147.964303 
L 769.79125 134.901467 
L 771.917872 161.275873 
L 774.044493 229.146011 
L 776.171115 204.684286 
L 778.297736 183.215948 
L 780.424358 173.352349 
L 782.55098 150.571724 
L 784.677601 137.208691 
L 786.804223 143.452778 
L 788.930845 172.468914 
L 791.057466 189.168416 
L 793.184088 176.56874 
L 795.310709 166.464984 
L 797.437331 152.458673 
L 799.563953 115.045613 
L 801.690574 131.985272 
L 803.817196 151.360812 
L 805.943818 159.363192 
L 808.070439 152.938987 
L 810.197061 152.938987 
L 812.323682 132.842976 
L 814.450304 201.690898 
L 816.576926 147.869955 
L 818.703547 143.469932 
L 820.830169 113.364513 
L 822.956791 108.870142 
L 825.083412 169.72426 
L 827.210034 142.397802 
L 829.336655 166.379213 
L 831.463277 193.191049 
L 833.589899 195.807047 
L 835.71652 246.248634 
L 837.843142 109.702115 
L 837.843142 109.702115 
" clip-path="url(#p7c5f76567a)" style="fill: none; stroke: #0d6efc; stroke-opacity: 0.8; stroke-width: 2.5; stroke-linecap: square"/>
   </g>
   <g id="line2d_44">
    <path d="M 63.752872 232.525366 
L 65.879493 215.131124 
L 68.006115 231.70197 
L 70.132736 255.125874 
L 72.259358 276.328323 
L 74.38598 292.882015 
L 76.512601 235.167095 
L 78.639223 235.475869 
L 80.765845 237.011159 
L 82.892466 209.530315 
L 85.019088 222.378725 
L 87.145709 259.989057 
L 89.272331 238.992456 
L 91.398953 234.755397 
L 93.525574 242.534775 
L 95.652196 210.842602 
L 97.778818 201.785245 
L 99.905439 195.240962 
L 102.032061 208.483916 
L 104.158682 249.216291 
L 106.285304 243.606905 
L 108.411926 240.587786 
L 110.538547 227.078944 
L 112.665169 204.212548 
L 114.791791 197.771189 
L 116.918412 181.260382 
L 119.045034 295.686708 
L 121.171655 248.332856 
L 123.298277 246.042785 
L 125.424899 242.980781 
L 127.55152 223.536625 
L 129.678142 220.020038 
L 131.804764 255.691958 
L 133.931385 272.803159 
L 136.058007 265.152436 
L 138.184628 236.608038 
L 140.31125 235.347213 
L 142.437872 237.062622 
L 144.564493 214.144764 
L 146.691115 243.838485 
L 148.817736 263.051061 
L 150.944358 259.019851 
L 153.07098 256.695472 
L 155.197601 257.5446 
L 157.324223 228.262576 
L 159.450845 244.979232 
L 161.577466 247.895427 
L 163.704088 259.929017 
L 165.830709 257.518868 
L 167.957331 255.57188 
L 170.083953 240.330475 
L 172.210574 218.261744 
L 174.337196 225.586539 
L 176.463818 253.856471 
L 178.590439 254.834254 
L 180.717061 251.943791 
L 182.843682 248.641629 
L 184.970304 231.367465 
L 187.096926 224.522985 
L 189.223547 208.87846 
L 191.350169 266.078757 
L 193.476791 260.606604 
L 195.603412 247.792502 
L 197.730034 253.51339 
L 199.856655 221.718292 
L 201.983277 218.364669 
L 204.109899 191.904492 
L 206.23652 205.336141 
L 208.363142 236.908235 
L 210.489764 248.658783 
L 212.616385 243.238092 
L 214.743007 224.128441 
L 216.869628 198.663202 
L 218.99625 184.159423 
L 221.122872 280.488189 
L 223.249493 246.763257 
L 225.376115 241.522684 
L 227.502736 234.506663 
L 229.629358 252.00383 
L 231.75598 222.258646 
L 233.882601 205.825032 
L 236.009223 223.699589 
L 238.135845 258.61673 
L 240.262466 247.072031 
L 242.389088 241.479799 
L 244.515709 216.683568 
L 246.642331 183.430374 
L 248.768953 169.123867 
L 253.022196 249.765222 
L 255.148818 224.445792 
L 257.275439 222.636036 
L 259.402061 227.627875 
L 263.655304 154.602934 
L 265.781926 202.951723 
L 267.908547 248.461511 
L 270.035169 204.770056 
L 272.161791 205.413334 
L 274.288412 197.762612 
L 278.541655 159.388923 
L 280.668277 183.104446 
L 282.794899 241.82288 
L 284.92152 195.472542 
L 287.048142 191.750105 
L 289.174764 164.47511 
L 291.301385 193.808596 
L 293.428007 144.713603 
L 295.554628 176.748858 
L 297.68125 254.148091 
L 299.807872 250.502848 
L 301.934493 240.038856 
L 304.061115 221.967027 
L 306.187736 215.817287 
L 308.314358 205.301833 
L 310.44098 241.025215 
L 312.567601 265.564134 
L 314.694223 268.034323 
L 316.820845 251.266204 
L 318.947466 247.029145 
L 321.074088 232.405288 
L 323.200709 216.194677 
L 325.327331 245.76832 
L 327.453953 262.682248 
L 329.580574 251.060355 
L 331.707196 259.534474 
L 333.833818 240.810789 
L 335.960439 225.337804 
L 338.087061 174.312978 
L 340.213682 220.989244 
L 342.340304 256.541086 
L 344.466926 239.061073 
L 346.593547 230.526915 
L 348.720169 215.225471 
L 350.846791 195.644083 
L 352.973412 225.577962 
L 355.100034 206.605543 
L 357.226655 249.627989 
L 359.353277 228.082458 
L 361.479899 224.540139 
L 363.60652 213.913184 
L 365.733142 213.9818 
L 367.859764 142.766615 
L 369.986385 176.894668 
L 372.113007 243.469673 
L 374.239628 250.211228 
L 376.36625 246.059939 
L 378.492872 218.62198 
L 380.619493 230.321066 
L 382.746115 208.157988 
L 384.872736 237.654438 
L 386.999358 312.926564 
L 389.12598 280.839847 
L 391.252601 254.276746 
L 393.379223 243.821331 
L 395.505845 246.831873 
L 397.632466 353.624631 
L 399.759088 218.947908 
L 401.885709 277.975115 
L 404.012331 261.747351 
L 406.138953 256.626856 
L 408.265574 241.008061 
L 410.392196 221.52102 
L 412.518818 213.878875 
L 414.645439 365.392334 
L 416.772061 283.112764 
L 418.898682 268.300211 
L 421.025304 262.476399 
L 423.151926 257.218672 
L 425.278547 353.530284 
L 427.405169 220.234464 
L 431.658412 279.012937 
L 433.785034 278.172387 
L 435.911655 289.79428 
L 438.038277 247.603807 
L 440.164899 213.450023 
L 442.29152 202.385638 
L 444.418142 240.66498 
L 446.544764 366.292923 
L 448.671385 250.254113 
L 450.798007 282.160712 
L 452.924628 358.230503 
L 455.05125 200.104145 
L 457.177872 188.242095 
L 459.304493 210.722524 
L 461.431115 230.681302 
L 463.557736 244.55038 
L 465.684358 231.316003 
L 467.81098 228.631389 
L 469.937601 190.437818 
L 472.064223 162.476659 
L 474.190845 226.375627 
L 476.317466 234.961246 
L 478.444088 228.622812 
L 480.570709 221.43525 
L 482.697331 226.152623 
L 484.823953 197.01641 
L 486.950574 254.345363 
L 489.077196 216.897994 
L 491.203818 255.777729 
L 493.330439 268.669024 
L 495.457061 246.531677 
L 497.583682 213.492909 
L 499.710304 218.905022 
L 501.836926 198.731818 
L 503.963547 235.089902 
L 506.090169 258.436612 
L 510.343412 239.927354 
L 512.470034 231.830626 
L 514.596655 212.789591 
L 516.723277 177.0319 
L 518.849899 202.128327 
L 520.97652 256.704049 
L 523.103142 368.522955 
L 525.229764 255.546149 
L 527.356385 223.40797 
L 529.483007 209.453121 
L 531.609628 181.783582 
L 533.73625 187.264312 
L 535.862872 244.044334 
L 537.989493 249.65372 
L 542.242736 230.346797 
L 544.369358 243.769869 
L 546.49598 202.282714 
L 548.622601 209.281581 
L 550.749223 259.937595 
L 552.875845 248.247085 
L 555.002466 238.306293 
L 557.129088 215.542822 
L 559.255709 208.106526 
L 561.382331 162.673931 
L 563.508953 179.622167 
L 565.635574 247.380804 
L 567.762196 271.164943 
L 569.888818 232.645445 
L 572.015439 237.886018 
L 574.142061 242.543352 
L 576.268682 234.498086 
L 578.395304 261.978931 
L 580.521926 273.317781 
L 582.648547 257.990606 
L 584.775169 254.053743 
L 586.901791 253.796432 
L 589.028412 226.787325 
L 591.155034 209.007115 
L 593.281655 261.713042 
L 595.408277 265.109551 
L 597.534899 254.8171 
L 599.66152 258.951235 
L 601.788142 246.008477 
L 603.914764 236.693809 
L 606.041385 203.140418 
L 608.168007 253.384734 
L 610.294628 266.619111 
L 612.42125 265.203899 
L 616.674493 240.639249 
L 618.801115 231.659085 
L 620.927736 221.855525 
L 623.054358 256.343814 
L 625.18098 267.493969 
L 627.307601 246.60887 
L 629.434223 245.030694 
L 631.560845 207.446093 
L 633.687466 207.000087 
L 635.814088 215.208317 
L 637.940709 237.405703 
L 640.067331 233.546034 
L 642.193953 235.244289 
L 644.320574 211.219992 
L 646.447196 229.454785 
L 648.573818 211.280032 
L 650.700439 182.675594 
L 652.827061 238.409217 
L 654.953682 258.38515 
L 657.080304 226.101161 
L 659.206926 231.144462 
L 661.333547 219.651225 
L 663.460169 211.391533 
L 665.586791 186.852614 
L 667.713412 197.676842 
L 669.840034 244.63615 
L 671.966655 244.944924 
L 674.093277 239.515656 
L 676.219899 233.262992 
L 678.34652 215.645746 
L 680.473142 183.41322 
L 682.599764 220.36312 
L 684.726385 255.065834 
L 686.853007 206.434002 
L 688.979628 242.311772 
L 691.10625 194.81211 
L 693.232872 154.457124 
L 695.359493 173.206539 
L 697.486115 254.173822 
L 699.612736 243.632636 
L 701.739358 207.754867 
L 703.86598 199.572368 
L 705.992601 176.182773 
L 708.119223 198.028501 
L 710.245845 184.999973 
L 712.372466 207.943562 
L 714.499088 257.86195 
L 716.625709 262.236242 
L 718.752331 222.19003 
L 720.878953 222.310108 
L 723.005574 217.721391 
L 725.132196 365.152177 
L 733.638682 216.220408 
L 735.765304 214.890966 
L 737.891926 167.682924 
L 740.018547 167.89735 
L 742.145169 246.222903 
L 744.271791 309.204128 
L 746.398412 222.756115 
L 748.525034 218.930754 
L 750.651655 211.039874 
L 752.778277 194.692031 
L 754.904899 168.849402 
L 757.03152 226.91598 
L 759.158142 245.485278 
L 761.284764 220.800549 
L 763.411385 222.224338 
L 765.538007 194.400412 
L 767.664628 194.854995 
L 769.79125 180.625681 
L 771.917872 182.04947 
L 774.044493 239.129689 
L 776.171115 211.331494 
L 778.297736 189.425727 
L 780.424358 191.372716 
L 782.55098 153.582266 
L 784.677601 160.855598 
L 786.804223 128.382914 
L 788.930845 214.453537 
L 791.057466 204.487014 
L 793.184088 197.788343 
L 795.310709 187.427276 
L 797.437331 166.293443 
L 799.563953 113.904866 
L 801.690574 160.126549 
L 803.817196 222.927655 
L 805.943818 262.682248 
L 808.070439 201.587973 
L 810.197061 214.839504 
L 812.323682 171.602632 
L 814.450304 90.395192 
L 816.576926 232.979949 
L 818.703547 129.480776 
L 820.830169 123.759888 
L 822.956791 154.885976 
L 825.083412 220.646162 
L 829.336655 153.856731 
L 831.463277 181.337576 
L 833.589899 232.551097 
L 835.71652 231.041538 
L 837.843142 138.263667 
L 837.843142 138.263667 
" clip-path="url(#p7c5f76567a)" style="fill: none; stroke: #83c966; stroke-opacity: 0.8; stroke-width: 2.5; stroke-linecap: square"/>
   </g>
   <g id="patch_3">
    <path d="M 61.62625 384.1975 
L 61.62625 39.3575 
" style="fill: none; stroke: #000000; stroke-width: 0.8; stroke-linejoin: miter; stroke-linecap: square"/>
   </g>
   <g id="patch_4">
    <path d="M 61.62625 384.1975 
L 848.47625 384.1975 
" style="fill: none; stroke: #000000; stroke-width: 0.8; stroke-linejoin: miter; stroke-linecap: square"/>
   </g>
   <g id="text_24">
    <!-- Pedestrian Traffic at Little Collins St-Swanston St (East) -->
    <g transform="translate(234.6525 19.3575) scale(0.16 -0.16)">
     <defs>
      <path id="DejaVuSans-50" d="M 1259 4147 
L 1259 2394 
L 2053 2394 
Q 2494 2394 2734 2622 
Q 2975 2850 2975 3272 
Q 2975 3691 2734 3919 
Q 2494 4147 2053 4147 
L 1259 4147 
z
M 628 4666 
L 2053 4666 
Q 2838 4666 3239 4311 
Q 3641 3956 3641 3272 
Q 3641 2581 3239 2228 
Q 2838 1875 2053 1875 
L 1259 1875 
L 1259 0 
L 628 0 
L 628 4666 
z
" transform="scale(0.015625)"/>
      <path id="DejaVuSans-54" d="M -19 4666 
L 3928 4666 
L 3928 4134 
L 2272 4134 
L 2272 0 
L 1638 0 
L 1638 4134 
L -19 4134 
L -19 4666 
z
" transform="scale(0.015625)"/>
      <path id="DejaVuSans-4c" d="M 628 4666 
L 1259 4666 
L 1259 531 
L 3531 531 
L 3531 0 
L 628 0 
L 628 4666 
z
" transform="scale(0.015625)"/>
      <path id="DejaVuSans-43" d="M 4122 4306 
L 4122 3641 
Q 3803 3938 3442 4084 
Q 3081 4231 2675 4231 
Q 1875 4231 1450 3742 
Q 1025 3253 1025 2328 
Q 1025 1406 1450 917 
Q 1875 428 2675 428 
Q 3081 428 3442 575 
Q 3803 722 4122 1019 
L 4122 359 
Q 3791 134 3420 21 
Q 3050 -91 2638 -91 
Q 1578 -91 968 557 
Q 359 1206 359 2328 
Q 359 3453 968 4101 
Q 1578 4750 2638 4750 
Q 3056 4750 3426 4639 
Q 3797 4528 4122 4306 
z
" transform="scale(0.015625)"/>
      <path id="DejaVuSans-2d" d="M 313 2009 
L 1997 2009 
L 1997 1497 
L 313 1497 
L 313 2009 
z
" transform="scale(0.015625)"/>
      <path id="DejaVuSans-77" d="M 269 3500 
L 844 3500 
L 1563 769 
L 2278 3500 
L 2956 3500 
L 3675 769 
L 4391 3500 
L 4966 3500 
L 4050 0 
L 3372 0 
L 2619 2869 
L 1863 0 
L 1184 0 
L 269 3500 
z
" transform="scale(0.015625)"/>
      <path id="DejaVuSans-28" d="M 1984 4856 
Q 1566 4138 1362 3434 
Q 1159 2731 1159 2009 
Q 1159 1288 1364 580 
Q 1569 -128 1984 -844 
L 1484 -844 
Q 1016 -109 783 600 
Q 550 1309 550 2009 
Q 550 2706 781 3412 
Q 1013 4119 1484 4856 
L 1984 4856 
z
" transform="scale(0.015625)"/>
      <path id="DejaVuSans-45" d="M 628 4666 
L 3578 4666 
L 3578 4134 
L 1259 4134 
L 1259 2753 
L 3481 2753 
L 3481 2222 
L 1259 2222 
L 1259 531 
L 3634 531 
L 3634 0 
L 628 0 
L 628 4666 
z
" transform="scale(0.015625)"/>
      <path id="DejaVuSans-29" d="M 513 4856 
L 1013 4856 
Q 1481 4119 1714 3412 
Q 1947 2706 1947 2009 
Q 1947 1309 1714 600 
Q 1481 -109 1013 -844 
L 513 -844 
Q 928 -128 1133 580 
Q 1338 1288 1338 2009 
Q 1338 2731 1133 3434 
Q 928 4138 513 4856 
z
" transform="scale(0.015625)"/>
     </defs>
     <use xlink:href="#DejaVuSans-50"/>
     <use xlink:href="#DejaVuSans-65" transform="translate(56.677734 0)"/>
     <use xlink:href="#DejaVuSans-64" transform="translate(118.201172 0)"/>
     <use xlink:href="#DejaVuSans-65" transform="translate(181.677734 0)"/>
     <use xlink:href="#DejaVuSans-73" transform="translate(243.201172 0)"/>
     <use xlink:href="#DejaVuSans-74" transform="translate(295.300781 0)"/>
     <use xlink:href="#DejaVuSans-72" transform="translate(334.509766 0)"/>
     <use xlink:href="#DejaVuSans-69" transform="translate(375.623047 0)"/>
     <use xlink:href="#DejaVuSans-61" transform="translate(403.40625 0)"/>
     <use xlink:href="#DejaVuSans-6e" transform="translate(464.685547 0)"/>
     <use xlink:href="#DejaVuSans-20" transform="translate(528.064453 0)"/>
     <use xlink:href="#DejaVuSans-54" transform="translate(559.851562 0)"/>
     <use xlink:href="#DejaVuSans-72" transform="translate(606.185547 0)"/>
     <use xlink:href="#DejaVuSans-61" transform="translate(647.298828 0)"/>
     <use xlink:href="#DejaVuSans-66" transform="translate(708.578125 0)"/>
     <use xlink:href="#DejaVuSans-66" transform="translate(743.783203 0)"/>
     <use xlink:href="#DejaVuSans-69" transform="translate(778.988281 0)"/>
     <use xlink:href="#DejaVuSans-63" transform="translate(806.771484 0)"/>
     <use xlink:href="#DejaVuSans-20" transform="translate(861.751953 0)"/>
     <use xlink:href="#DejaVuSans-61" transform="translate(893.539062 0)"/>
     <use xlink:href="#DejaVuSans-74" transform="translate(954.818359 0)"/>
     <use xlink:href="#DejaVuSans-20" transform="translate(994.027344 0)"/>
     <use xlink:href="#DejaVuSans-4c" transform="translate(1025.814453 0)"/>
     <use xlink:href="#DejaVuSans-69" transform="translate(1081.527344 0)"/>
     <use xlink:href="#DejaVuSans-74" transform="translate(1109.310547 0)"/>
     <use xlink:href="#DejaVuSans-74" transform="translate(1148.519531 0)"/>
     <use xlink:href="#DejaVuSans-6c" transform="translate(1187.728516 0)"/>
     <use xlink:href="#DejaVuSans-65" transform="translate(1215.511719 0)"/>
     <use xlink:href="#DejaVuSans-20" transform="translate(1277.035156 0)"/>
     <use xlink:href="#DejaVuSans-43" transform="translate(1308.822266 0)"/>
     <use xlink:href="#DejaVuSans-6f" transform="translate(1378.646484 0)"/>
     <use xlink:href="#DejaVuSans-6c" transform="translate(1439.828125 0)"/>
     <use xlink:href="#DejaVuSans-6c" transform="translate(1467.611328 0)"/>
     <use xlink:href="#DejaVuSans-69" transform="translate(1495.394531 0)"/>
     <use xlink:href="#DejaVuSans-6e" transform="translate(1523.177734 0)"/>
     <use xlink:href="#DejaVuSans-73" transform="translate(1586.556641 0)"/>
     <use xlink:href="#DejaVuSans-20" transform="translate(1638.65625 0)"/>
     <use xlink:href="#DejaVuSans-53" transform="translate(1670.443359 0)"/>
     <use xlink:href="#DejaVuSans-74" transform="translate(1733.919922 0)"/>
     <use xlink:href="#DejaVuSans-2d" transform="translate(1773.128906 0)"/>
     <use xlink:href="#DejaVuSans-53" transform="translate(1809.212891 0)"/>
     <use xlink:href="#DejaVuSans-77" transform="translate(1872.689453 0)"/>
     <use xlink:href="#DejaVuSans-61" transform="translate(1954.476562 0)"/>
     <use xlink:href="#DejaVuSans-6e" transform="translate(2015.755859 0)"/>
     <use xlink:href="#DejaVuSans-73" transform="translate(2079.134766 0)"/>
     <use xlink:href="#DejaVuSans-74" transform="translate(2131.234375 0)"/>
     <use xlink:href="#DejaVuSans-6f" transform="translate(2170.443359 0)"/>
     <use xlink:href="#DejaVuSans-6e" transform="translate(2231.625 0)"/>
     <use xlink:href="#DejaVuSans-20" transform="translate(2295.003906 0)"/>
     <use xlink:href="#DejaVuSans-53" transform="translate(2326.791016 0)"/>
     <use xlink:href="#DejaVuSans-74" transform="translate(2390.267578 0)"/>
     <use xlink:href="#DejaVuSans-20" transform="translate(2429.476562 0)"/>
     <use xlink:href="#DejaVuSans-28" transform="translate(2461.263672 0)"/>
     <use xlink:href="#DejaVuSans-45" transform="translate(2500.277344 0)"/>
     <use xlink:href="#DejaVuSans-61" transform="translate(2563.460938 0)"/>
     <use xlink:href="#DejaVuSans-73" transform="translate(2624.740234 0)"/>
     <use xlink:href="#DejaVuSans-74" transform="translate(2676.839844 0)"/>
     <use xlink:href="#DejaVuSans-29" transform="translate(2716.048828 0)"/>
    </g>
   </g>
   <g id="legend_1">
    <g id="patch_5">
     <path d="M 69.32625 80.449375 
L 132.52125 80.449375 
Q 134.72125 80.449375 134.72125 78.249375 
L 134.72125 47.0575 
Q 134.72125 44.8575 132.52125 44.8575 
L 69.32625 44.8575 
Q 67.12625 44.8575 67.12625 47.0575 
L 67.12625 78.249375 
Q 67.12625 80.449375 69.32625 80.449375 
z
" style="fill: #ffffff; opacity: 0.95; stroke: #cccccc; stroke-linejoin: miter"/>
    </g>
    <g id="line2d_45">
     <path d="M 71.52625 53.765781 
L 82.52625 53.765781 
L 93.52625 53.765781 
" style="fill: none; stroke: #0d6efc; stroke-opacity: 0.8; stroke-width: 2.5; stroke-linecap: square"/>
    </g>
    <g id="text_25">
     <!-- 2019 -->
     <g transform="translate(102.32625 57.615781) scale(0.11 -0.11)">
      <defs>
       <path id="DejaVuSans-39" d="M 703 97 
L 703 672 
Q 941 559 1184 500 
Q 1428 441 1663 441 
Q 2288 441 2617 861 
Q 2947 1281 2994 2138 
Q 2813 1869 2534 1725 
Q 2256 1581 1919 1581 
Q 1219 1581 811 2004 
Q 403 2428 403 3163 
Q 403 3881 828 4315 
Q 1253 4750 1959 4750 
Q 2769 4750 3195 4129 
Q 3622 3509 3622 2328 
Q 3622 1225 3098 567 
Q 2575 -91 1691 -91 
Q 1453 -91 1209 -44 
Q 966 3 703 97 
z
M 1959 2075 
Q 2384 2075 2632 2365 
Q 2881 2656 2881 3163 
Q 2881 3666 2632 3958 
Q 2384 4250 1959 4250 
Q 1534 4250 1286 3958 
Q 1038 3666 1038 3163 
Q 1038 2656 1286 2365 
Q 1534 2075 1959 2075 
z
" transform="scale(0.015625)"/>
      </defs>
      <use xlink:href="#DejaVuSans-32"/>
      <use xlink:href="#DejaVuSans-30" transform="translate(63.623047 0)"/>
      <use xlink:href="#DejaVuSans-31" transform="translate(127.246094 0)"/>
      <use xlink:href="#DejaVuSans-39" transform="translate(190.869141 0)"/>
     </g>
    </g>
    <g id="line2d_46">
     <path d="M 71.52625 69.911719 
L 82.52625 69.911719 
L 93.52625 69.911719 
" style="fill: none; stroke: #83c966; stroke-opacity: 0.8; stroke-width: 2.5; stroke-linecap: square"/>
    </g>
    <g id="text_26">
     <!-- 2025 -->
     <g transform="translate(102.32625 73.761719) scale(0.11 -0.11)">
      <use xlink:href="#DejaVuSans-32"/>
      <use xlink:href="#DejaVuSans-30" transform="translate(63.623047 0)"/>
      <use xlink:href="#DejaVuSans-32" transform="translate(127.246094 0)"/>
      <use xlink:href="#DejaVuSans-35" transform="translate(190.869141 0)"/>
     </g>
    </g>
   </g>
  </g>
 </g>
 <defs>
  <clipPath id="p7c5f76567a">
   <rect x="61.62625" y="39.3575" width="786.85" height="344.84"/>
  </clipPath>
 </defs>
</svg>
