<?xml version="1.0" encoding="utf-8" standalone="no"?>
<!DOCTYPE svg PUBLIC "-//W3C//DTD SVG 1.1//EN"
  "http://www.w3.org/Graphics/SVG/1.1/DTD/svg11.dtd">
<svg xmlns:xlink="http://www.w3.org/1999/xlink" width="711.459291pt" height="423.689375pt" viewBox="0 0 711.459291 423.689375" xmlns="http://www.w3.org/2000/svg" version="1.1">
 <metadata>
  <rdf:RDF xmlns:dc="http://purl.org/dc/elements/1.1/" xmlns:cc="http://creativecommons.org/ns#" xmlns:rdf="http://www.w3.org/1999/02/22-rdf-syntax-ns#">
   <cc:Work>
    <dc:type rdf:resource="http://purl.org/dc/dcmitype/StillImage"/>
    <dc:date>2026-01-28T17:49:45.645514</dc:date>
    <dc:format>image/svg+xml</dc:format>
    <dc:creator>
     <cc:Agent>
      <dc:title>Matplotlib v3.10.8, https://matplotlib.org/</dc:title>
     </cc:Agent>
    </dc:creator>
   </cc:Work>
  </rdf:RDF>
 </metadata>
 <defs>
  <style type="text/css">*{stroke-linejoin: round; stroke-linecap: butt}</style>
 </defs>
 <g id="figure_1">
  <g id="patch_1">
   <path d="M 0 423.689375 
L 711.459291 423.689375 
L 711.459291 0 
L 0 0 
L 0 423.689375 
z
" style="fill: none"/>
  </g>
  <g id="axes_1">
   <g id="patch_2">
    <path d="M 55.26375 384.1975 
L 704.259291 384.1975 
L 704.259291 39.3575 
L 55.26375 39.3575 
L 55.26375 384.1975 
z
" style="fill: none"/>
   </g>
   <g id="matplotlib.axis_1">
    <g id="xtick_1">
     <g id="line2d_1">
      <path d="M 55.26375 384.1975 
L 55.26375 39.3575 
" clip-path="url(#p7aa6408dbe)" style="fill: none; stroke-dasharray: 2.96,1.28; stroke-dashoffset: 0; stroke: #b0b0b0; stroke-opacity: 0.3; stroke-width: 0.8"/>
     </g>
     <g id="line2d_2">
      <defs>
       <path id="mc3c8d753f6" d="M 0 0 
L 0 3.5 
" style="stroke: #000000; stroke-width: 0.8"/>
      </defs>
      <g>
       <use xlink:href="#mc3c8d753f6" x="55.26375" y="384.1975" style="stroke: #000000; stroke-width: 0.8"/>
      </g>
     </g>
     <g id="text_1">
      <!-- Jan -->
      <g transform="translate(47.555938 398.795937) scale(0.1 -0.1)">
       <defs>
        <path id="DejaVuSans-4a" d="M 628 4666 
L 1259 4666 
L 1259 325 
Q 1259 -519 939 -900 
Q 619 -1281 -91 -1281 
L -331 -1281 
L -331 -750 
L -134 -750 
Q 284 -750 456 -515 
Q 628 -281 628 325 
L 628 4666 
z
" transform="scale(0.015625)"/>
        <path id="DejaVuSans-61" d="M 2194 1759 
Q 1497 1759 1228 1600 
Q 959 1441 959 1056 
Q 959 750 1161 570 
Q 1363 391 1709 391 
Q 2188 391 2477 730 
Q 2766 1069 2766 1631 
L 2766 1759 
L 2194 1759 
z
M 3341 1997 
L 3341 0 
L 2766 0 
L 2766 531 
Q 2569 213 2275 61 
Q 1981 -91 1556 -91 
Q 1019 -91 701 211 
Q 384 513 384 1019 
Q 384 1609 779 1909 
Q 1175 2209 1959 2209 
L 2766 2209 
L 2766 2266 
Q 2766 2663 2505 2880 
Q 2244 3097 1772 3097 
Q 1472 3097 1187 3025 
Q 903 2953 641 2809 
L 641 3341 
Q 956 3463 1253 3523 
Q 1550 3584 1831 3584 
Q 2591 3584 2966 3190 
Q 3341 2797 3341 1997 
z
" transform="scale(0.015625)"/>
        <path id="DejaVuSans-6e" d="M 3513 2113 
L 3513 0 
L 2938 0 
L 2938 2094 
Q 2938 2591 2744 2837 
Q 2550 3084 2163 3084 
Q 1697 3084 1428 2787 
Q 1159 2491 1159 1978 
L 1159 0 
L 581 0 
L 581 3500 
L 1159 3500 
L 1159 2956 
Q 1366 3272 1645 3428 
Q 1925 3584 2291 3584 
Q 2894 3584 3203 3211 
Q 3513 2838 3513 2113 
z
" transform="scale(0.015625)"/>
       </defs>
       <use xlink:href="#DejaVuSans-4a"/>
       <use xlink:href="#DejaVuSans-61" transform="translate(29.492188 0)"/>
       <use xlink:href="#DejaVuSans-6e" transform="translate(90.771484 0)"/>
      </g>
     </g>
    </g>
    <g id="xtick_2">
     <g id="line2d_3">
      <path d="M 109.639052 384.1975 
L 109.639052 39.3575 
" clip-path="url(#p7aa6408dbe)" style="fill: none; stroke-dasharray: 2.96,1.28; stroke-dashoffset: 0; stroke: #b0b0b0; stroke-opacity: 0.3; stroke-width: 0.8"/>
     </g>
     <g id="line2d_4">
      <g>
       <use xlink:href="#mc3c8d753f6" x="109.639052" y="384.1975" style="stroke: #000000; stroke-width: 0.8"/>
      </g>
     </g>
     <g id="text_2">
      <!-- Feb -->
      <g transform="translate(100.78749 398.795937) scale(0.1 -0.1)">
       <defs>
        <path id="DejaVuSans-46" d="M 628 4666 
L 3309 4666 
L 3309 4134 
L 1259 4134 
L 1259 2759 
L 3109 2759 
L 3109 2228 
L 1259 2228 
L 1259 0 
L 628 0 
L 628 4666 
z
" transform="scale(0.015625)"/>
        <path id="DejaVuSans-65" d="M 3597 1894 
L 3597 1613 
L 953 1613 
Q 991 1019 1311 708 
Q 1631 397 2203 397 
Q 2534 397 2845 478 
Q 3156 559 3463 722 
L 3463 178 
Q 3153 47 2828 -22 
Q 2503 -91 2169 -91 
Q 1331 -91 842 396 
Q 353 884 353 1716 
Q 353 2575 817 3079 
Q 1281 3584 2069 3584 
Q 2775 3584 3186 3129 
Q 3597 2675 3597 1894 
z
M 3022 2063 
Q 3016 2534 2758 2815 
Q 2500 3097 2075 3097 
Q 1594 3097 1305 2825 
Q 1016 2553 972 2059 
L 3022 2063 
z
" transform="scale(0.015625)"/>
        <path id="DejaVuSans-62" d="M 3116 1747 
Q 3116 2381 2855 2742 
Q 2594 3103 2138 3103 
Q 1681 3103 1420 2742 
Q 1159 2381 1159 1747 
Q 1159 1113 1420 752 
Q 1681 391 2138 391 
Q 2594 391 2855 752 
Q 3116 1113 3116 1747 
z
M 1159 2969 
Q 1341 3281 1617 3432 
Q 1894 3584 2278 3584 
Q 2916 3584 3314 3078 
Q 3713 2572 3713 1747 
Q 3713 922 3314 415 
Q 2916 -91 2278 -91 
Q 1894 -91 1617 61 
Q 1341 213 1159 525 
L 1159 0 
L 581 0 
L 581 4863 
L 1159 4863 
L 1159 2969 
z
" transform="scale(0.015625)"/>
       </defs>
       <use xlink:href="#DejaVuSans-46"/>
       <use xlink:href="#DejaVuSans-65" transform="translate(52.019531 0)"/>
       <use xlink:href="#DejaVuSans-62" transform="translate(113.542969 0)"/>
      </g>
     </g>
    </g>
    <g id="xtick_3">
     <g id="line2d_5">
      <path d="M 158.752228 384.1975 
L 158.752228 39.3575 
" clip-path="url(#p7aa6408dbe)" style="fill: none; stroke-dasharray: 2.96,1.28; stroke-dashoffset: 0; stroke: #b0b0b0; stroke-opacity: 0.3; stroke-width: 0.8"/>
     </g>
     <g id="line2d_6">
      <g>
       <use xlink:href="#mc3c8d753f6" x="158.752228" y="384.1975" style="stroke: #000000; stroke-width: 0.8"/>
      </g>
     </g>
     <g id="text_3">
      <!-- Mar -->
      <g transform="translate(149.318634 398.795937) scale(0.1 -0.1)">
       <defs>
        <path id="DejaVuSans-4d" d="M 628 4666 
L 1569 4666 
L 2759 1491 
L 3956 4666 
L 4897 4666 
L 4897 0 
L 4281 0 
L 4281 4097 
L 3078 897 
L 2444 897 
L 1241 4097 
L 1241 0 
L 628 0 
L 628 4666 
z
" transform="scale(0.015625)"/>
        <path id="DejaVuSans-72" d="M 2631 2963 
Q 2534 3019 2420 3045 
Q 2306 3072 2169 3072 
Q 1681 3072 1420 2755 
Q 1159 2438 1159 1844 
L 1159 0 
L 581 0 
L 581 3500 
L 1159 3500 
L 1159 2956 
Q 1341 3275 1631 3429 
Q 1922 3584 2338 3584 
Q 2397 3584 2469 3576 
Q 2541 3569 2628 3553 
L 2631 2963 
z
" transform="scale(0.015625)"/>
       </defs>
       <use xlink:href="#DejaVuSans-4d"/>
       <use xlink:href="#DejaVuSans-61" transform="translate(86.279297 0)"/>
       <use xlink:href="#DejaVuSans-72" transform="translate(147.558594 0)"/>
      </g>
     </g>
    </g>
    <g id="xtick_4">
     <g id="line2d_7">
      <path d="M 213.12753 384.1975 
L 213.12753 39.3575 
" clip-path="url(#p7aa6408dbe)" style="fill: none; stroke-dasharray: 2.96,1.28; stroke-dashoffset: 0; stroke: #b0b0b0; stroke-opacity: 0.3; stroke-width: 0.8"/>
     </g>
     <g id="line2d_8">
      <g>
       <use xlink:href="#mc3c8d753f6" x="213.12753" y="384.1975" style="stroke: #000000; stroke-width: 0.8"/>
      </g>
     </g>
     <g id="text_4">
      <!-- Apr -->
      <g transform="translate(204.47753 398.795937) scale(0.1 -0.1)">
       <defs>
        <path id="DejaVuSans-41" d="M 2188 4044 
L 1331 1722 
L 3047 1722 
L 2188 4044 
z
M 1831 4666 
L 2547 4666 
L 4325 0 
L 3669 0 
L 3244 1197 
L 1141 1197 
L 716 0 
L 50 0 
L 1831 4666 
z
" transform="scale(0.015625)"/>
        <path id="DejaVuSans-70" d="M 1159 525 
L 1159 -1331 
L 581 -1331 
L 581 3500 
L 1159 3500 
L 1159 2969 
Q 1341 3281 1617 3432 
Q 1894 3584 2278 3584 
Q 2916 3584 3314 3078 
Q 3713 2572 3713 1747 
Q 3713 922 3314 415 
Q 2916 -91 2278 -91 
Q 1894 -91 1617 61 
Q 1341 213 1159 525 
z
M 3116 1747 
Q 3116 2381 2855 2742 
Q 2594 3103 2138 3103 
Q 1681 3103 1420 2742 
Q 1159 2381 1159 1747 
Q 1159 1113 1420 752 
Q 1681 391 2138 391 
Q 2594 391 2855 752 
Q 3116 1113 3116 1747 
z
" transform="scale(0.015625)"/>
       </defs>
       <use xlink:href="#DejaVuSans-41"/>
       <use xlink:href="#DejaVuSans-70" transform="translate(68.408203 0)"/>
       <use xlink:href="#DejaVuSans-72" transform="translate(131.884766 0)"/>
      </g>
     </g>
    </g>
    <g id="xtick_5">
     <g id="line2d_9">
      <path d="M 265.74879 384.1975 
L 265.74879 39.3575 
" clip-path="url(#p7aa6408dbe)" style="fill: none; stroke-dasharray: 2.96,1.28; stroke-dashoffset: 0; stroke: #b0b0b0; stroke-opacity: 0.3; stroke-width: 0.8"/>
     </g>
     <g id="line2d_10">
      <g>
       <use xlink:href="#mc3c8d753f6" x="265.74879" y="384.1975" style="stroke: #000000; stroke-width: 0.8"/>
      </g>
     </g>
     <g id="text_5">
      <!-- May -->
      <g transform="translate(255.41129 398.795937) scale(0.1 -0.1)">
       <defs>
        <path id="DejaVuSans-79" d="M 2059 -325 
Q 1816 -950 1584 -1140 
Q 1353 -1331 966 -1331 
L 506 -1331 
L 506 -850 
L 844 -850 
Q 1081 -850 1212 -737 
Q 1344 -625 1503 -206 
L 1606 56 
L 191 3500 
L 800 3500 
L 1894 763 
L 2988 3500 
L 3597 3500 
L 2059 -325 
z
" transform="scale(0.015625)"/>
       </defs>
       <use xlink:href="#DejaVuSans-4d"/>
       <use xlink:href="#DejaVuSans-61" transform="translate(86.279297 0)"/>
       <use xlink:href="#DejaVuSans-79" transform="translate(147.558594 0)"/>
      </g>
     </g>
    </g>
    <g id="xtick_6">
     <g id="line2d_11">
      <path d="M 320.124092 384.1975 
L 320.124092 39.3575 
" clip-path="url(#p7aa6408dbe)" style="fill: none; stroke-dasharray: 2.96,1.28; stroke-dashoffset: 0; stroke: #b0b0b0; stroke-opacity: 0.3; stroke-width: 0.8"/>
     </g>
     <g id="line2d_12">
      <g>
       <use xlink:href="#mc3c8d753f6" x="320.124092" y="384.1975" style="stroke: #000000; stroke-width: 0.8"/>
      </g>
     </g>
     <g id="text_6">
      <!-- Jun -->
      <g transform="translate(312.311592 398.795937) scale(0.1 -0.1)">
       <defs>
        <path id="DejaVuSans-75" d="M 544 1381 
L 544 3500 
L 1119 3500 
L 1119 1403 
Q 1119 906 1312 657 
Q 1506 409 1894 409 
Q 2359 409 2629 706 
Q 2900 1003 2900 1516 
L 2900 3500 
L 3475 3500 
L 3475 0 
L 2900 0 
L 2900 538 
Q 2691 219 2414 64 
Q 2138 -91 1772 -91 
Q 1169 -91 856 284 
Q 544 659 544 1381 
z
M 1991 3584 
L 1991 3584 
z
" transform="scale(0.015625)"/>
       </defs>
       <use xlink:href="#DejaVuSans-4a"/>
       <use xlink:href="#DejaVuSans-75" transform="translate(29.492188 0)"/>
       <use xlink:href="#DejaVuSans-6e" transform="translate(92.871094 0)"/>
      </g>
     </g>
    </g>
    <g id="xtick_7">
     <g id="line2d_13">
      <path d="M 372.745352 384.1975 
L 372.745352 39.3575 
" clip-path="url(#p7aa6408dbe)" style="fill: none; stroke-dasharray: 2.96,1.28; stroke-dashoffset: 0; stroke: #b0b0b0; stroke-opacity: 0.3; stroke-width: 0.8"/>
     </g>
     <g id="line2d_14">
      <g>
       <use xlink:href="#mc3c8d753f6" x="372.745352" y="384.1975" style="stroke: #000000; stroke-width: 0.8"/>
      </g>
     </g>
     <g id="text_7">
      <!-- Jul -->
      <g transform="translate(366.71254 398.795937) scale(0.1 -0.1)">
       <defs>
        <path id="DejaVuSans-6c" d="M 603 4863 
L 1178 4863 
L 1178 0 
L 603 0 
L 603 4863 
z
" transform="scale(0.015625)"/>
       </defs>
       <use xlink:href="#DejaVuSans-4a"/>
       <use xlink:href="#DejaVuSans-75" transform="translate(29.492188 0)"/>
       <use xlink:href="#DejaVuSans-6c" transform="translate(92.871094 0)"/>
      </g>
     </g>
    </g>
    <g id="xtick_8">
     <g id="line2d_15">
      <path d="M 427.120654 384.1975 
L 427.120654 39.3575 
" clip-path="url(#p7aa6408dbe)" style="fill: none; stroke-dasharray: 2.96,1.28; stroke-dashoffset: 0; stroke: #b0b0b0; stroke-opacity: 0.3; stroke-width: 0.8"/>
     </g>
     <g id="line2d_16">
      <g>
       <use xlink:href="#mc3c8d753f6" x="427.120654" y="384.1975" style="stroke: #000000; stroke-width: 0.8"/>
      </g>
     </g>
     <g id="text_8">
      <!-- Aug -->
      <g transform="translate(417.357373 398.795937) scale(0.1 -0.1)">
       <defs>
        <path id="DejaVuSans-67" d="M 2906 1791 
Q 2906 2416 2648 2759 
Q 2391 3103 1925 3103 
Q 1463 3103 1205 2759 
Q 947 2416 947 1791 
Q 947 1169 1205 825 
Q 1463 481 1925 481 
Q 2391 481 2648 825 
Q 2906 1169 2906 1791 
z
M 3481 434 
Q 3481 -459 3084 -895 
Q 2688 -1331 1869 -1331 
Q 1566 -1331 1297 -1286 
Q 1028 -1241 775 -1147 
L 775 -588 
Q 1028 -725 1275 -790 
Q 1522 -856 1778 -856 
Q 2344 -856 2625 -561 
Q 2906 -266 2906 331 
L 2906 616 
Q 2728 306 2450 153 
Q 2172 0 1784 0 
Q 1141 0 747 490 
Q 353 981 353 1791 
Q 353 2603 747 3093 
Q 1141 3584 1784 3584 
Q 2172 3584 2450 3431 
Q 2728 3278 2906 2969 
L 2906 3500 
L 3481 3500 
L 3481 434 
z
" transform="scale(0.015625)"/>
       </defs>
       <use xlink:href="#DejaVuSans-41"/>
       <use xlink:href="#DejaVuSans-75" transform="translate(68.408203 0)"/>
       <use xlink:href="#DejaVuSans-67" transform="translate(131.787109 0)"/>
      </g>
     </g>
    </g>
    <g id="xtick_9">
     <g id="line2d_17">
      <path d="M 481.495956 384.1975 
L 481.495956 39.3575 
" clip-path="url(#p7aa6408dbe)" style="fill: none; stroke-dasharray: 2.96,1.28; stroke-dashoffset: 0; stroke: #b0b0b0; stroke-opacity: 0.3; stroke-width: 0.8"/>
     </g>
     <g id="line2d_18">
      <g>
       <use xlink:href="#mc3c8d753f6" x="481.495956" y="384.1975" style="stroke: #000000; stroke-width: 0.8"/>
      </g>
     </g>
     <g id="text_9">
      <!-- Sep -->
      <g transform="translate(472.070956 398.795937) scale(0.1 -0.1)">
       <defs>
        <path id="DejaVuSans-53" d="M 3425 4513 
L 3425 3897 
Q 3066 4069 2747 4153 
Q 2428 4238 2131 4238 
Q 1616 4238 1336 4038 
Q 1056 3838 1056 3469 
Q 1056 3159 1242 3001 
Q 1428 2844 1947 2747 
L 2328 2669 
Q 3034 2534 3370 2195 
Q 3706 1856 3706 1288 
Q 3706 609 3251 259 
Q 2797 -91 1919 -91 
Q 1588 -91 1214 -16 
Q 841 59 441 206 
L 441 856 
Q 825 641 1194 531 
Q 1563 422 1919 422 
Q 2459 422 2753 634 
Q 3047 847 3047 1241 
Q 3047 1584 2836 1778 
Q 2625 1972 2144 2069 
L 1759 2144 
Q 1053 2284 737 2584 
Q 422 2884 422 3419 
Q 422 4038 858 4394 
Q 1294 4750 2059 4750 
Q 2388 4750 2728 4690 
Q 3069 4631 3425 4513 
z
" transform="scale(0.015625)"/>
       </defs>
       <use xlink:href="#DejaVuSans-53"/>
       <use xlink:href="#DejaVuSans-65" transform="translate(63.476562 0)"/>
       <use xlink:href="#DejaVuSans-70" transform="translate(125 0)"/>
      </g>
     </g>
    </g>
    <g id="xtick_10">
     <g id="line2d_19">
      <path d="M 534.117216 384.1975 
L 534.117216 39.3575 
" clip-path="url(#p7aa6408dbe)" style="fill: none; stroke-dasharray: 2.96,1.28; stroke-dashoffset: 0; stroke: #b0b0b0; stroke-opacity: 0.3; stroke-width: 0.8"/>
     </g>
     <g id="line2d_20">
      <g>
       <use xlink:href="#mc3c8d753f6" x="534.117216" y="384.1975" style="stroke: #000000; stroke-width: 0.8"/>
      </g>
     </g>
     <g id="text_10">
      <!-- Oct -->
      <g transform="translate(525.471904 398.795937) scale(0.1 -0.1)">
       <defs>
        <path id="DejaVuSans-4f" d="M 2522 4238 
Q 1834 4238 1429 3725 
Q 1025 3213 1025 2328 
Q 1025 1447 1429 934 
Q 1834 422 2522 422 
Q 3209 422 3611 934 
Q 4013 1447 4013 2328 
Q 4013 3213 3611 3725 
Q 3209 4238 2522 4238 
z
M 2522 4750 
Q 3503 4750 4090 4092 
Q 4678 3434 4678 2328 
Q 4678 1225 4090 567 
Q 3503 -91 2522 -91 
Q 1538 -91 948 565 
Q 359 1222 359 2328 
Q 359 3434 948 4092 
Q 1538 4750 2522 4750 
z
" transform="scale(0.015625)"/>
        <path id="DejaVuSans-63" d="M 3122 3366 
L 3122 2828 
Q 2878 2963 2633 3030 
Q 2388 3097 2138 3097 
Q 1578 3097 1268 2742 
Q 959 2388 959 1747 
Q 959 1106 1268 751 
Q 1578 397 2138 397 
Q 2388 397 2633 464 
Q 2878 531 3122 666 
L 3122 134 
Q 2881 22 2623 -34 
Q 2366 -91 2075 -91 
Q 1284 -91 818 406 
Q 353 903 353 1747 
Q 353 2603 823 3093 
Q 1294 3584 2113 3584 
Q 2378 3584 2631 3529 
Q 2884 3475 3122 3366 
z
" transform="scale(0.015625)"/>
        <path id="DejaVuSans-74" d="M 1172 4494 
L 1172 3500 
L 2356 3500 
L 2356 3053 
L 1172 3053 
L 1172 1153 
Q 1172 725 1289 603 
Q 1406 481 1766 481 
L 2356 481 
L 2356 0 
L 1766 0 
Q 1100 0 847 248 
Q 594 497 594 1153 
L 594 3053 
L 172 3053 
L 172 3500 
L 594 3500 
L 594 4494 
L 1172 4494 
z
" transform="scale(0.015625)"/>
       </defs>
       <use xlink:href="#DejaVuSans-4f"/>
       <use xlink:href="#DejaVuSans-63" transform="translate(78.710938 0)"/>
       <use xlink:href="#DejaVuSans-74" transform="translate(133.691406 0)"/>
      </g>
     </g>
    </g>
    <g id="xtick_11">
     <g id="line2d_21">
      <path d="M 588.492518 384.1975 
L 588.492518 39.3575 
" clip-path="url(#p7aa6408dbe)" style="fill: none; stroke-dasharray: 2.96,1.28; stroke-dashoffset: 0; stroke: #b0b0b0; stroke-opacity: 0.3; stroke-width: 0.8"/>
     </g>
     <g id="line2d_22">
      <g>
       <use xlink:href="#mc3c8d753f6" x="588.492518" y="384.1975" style="stroke: #000000; stroke-width: 0.8"/>
      </g>
     </g>
     <g id="text_11">
      <!-- Nov -->
      <g transform="translate(578.733143 398.795937) scale(0.1 -0.1)">
       <defs>
        <path id="DejaVuSans-4e" d="M 628 4666 
L 1478 4666 
L 3547 763 
L 3547 4666 
L 4159 4666 
L 4159 0 
L 3309 0 
L 1241 3903 
L 1241 0 
L 628 0 
L 628 4666 
z
" transform="scale(0.015625)"/>
        <path id="DejaVuSans-6f" d="M 1959 3097 
Q 1497 3097 1228 2736 
Q 959 2375 959 1747 
Q 959 1119 1226 758 
Q 1494 397 1959 397 
Q 2419 397 2687 759 
Q 2956 1122 2956 1747 
Q 2956 2369 2687 2733 
Q 2419 3097 1959 3097 
z
M 1959 3584 
Q 2709 3584 3137 3096 
Q 3566 2609 3566 1747 
Q 3566 888 3137 398 
Q 2709 -91 1959 -91 
Q 1206 -91 779 398 
Q 353 888 353 1747 
Q 353 2609 779 3096 
Q 1206 3584 1959 3584 
z
" transform="scale(0.015625)"/>
        <path id="DejaVuSans-76" d="M 191 3500 
L 800 3500 
L 1894 563 
L 2988 3500 
L 3597 3500 
L 2284 0 
L 1503 0 
L 191 3500 
z
" transform="scale(0.015625)"/>
       </defs>
       <use xlink:href="#DejaVuSans-4e"/>
       <use xlink:href="#DejaVuSans-6f" transform="translate(74.804688 0)"/>
       <use xlink:href="#DejaVuSans-76" transform="translate(135.986328 0)"/>
      </g>
     </g>
    </g>
    <g id="xtick_12">
     <g id="line2d_23">
      <path d="M 641.113778 384.1975 
L 641.113778 39.3575 
" clip-path="url(#p7aa6408dbe)" style="fill: none; stroke-dasharray: 2.96,1.28; stroke-dashoffset: 0; stroke: #b0b0b0; stroke-opacity: 0.3; stroke-width: 0.8"/>
     </g>
     <g id="line2d_24">
      <g>
       <use xlink:href="#mc3c8d753f6" x="641.113778" y="384.1975" style="stroke: #000000; stroke-width: 0.8"/>
      </g>
     </g>
     <g id="text_12">
      <!-- Dec -->
      <g transform="translate(631.437997 398.795937) scale(0.1 -0.1)">
       <defs>
        <path id="DejaVuSans-44" d="M 1259 4147 
L 1259 519 
L 2022 519 
Q 2988 519 3436 956 
Q 3884 1394 3884 2338 
Q 3884 3275 3436 3711 
Q 2988 4147 2022 4147 
L 1259 4147 
z
M 628 4666 
L 1925 4666 
Q 3281 4666 3915 4102 
Q 4550 3538 4550 2338 
Q 4550 1131 3912 565 
Q 3275 0 1925 0 
L 628 0 
L 628 4666 
z
" transform="scale(0.015625)"/>
       </defs>
       <use xlink:href="#DejaVuSans-44"/>
       <use xlink:href="#DejaVuSans-65" transform="translate(77.001953 0)"/>
       <use xlink:href="#DejaVuSans-63" transform="translate(138.525391 0)"/>
      </g>
     </g>
    </g>
    <g id="xtick_13">
     <g id="line2d_25">
      <path d="M 695.489081 384.1975 
L 695.489081 39.3575 
" clip-path="url(#p7aa6408dbe)" style="fill: none; stroke-dasharray: 2.96,1.28; stroke-dashoffset: 0; stroke: #b0b0b0; stroke-opacity: 0.3; stroke-width: 0.8"/>
     </g>
     <g id="line2d_26">
      <g>
       <use xlink:href="#mc3c8d753f6" x="695.489081" y="384.1975" style="stroke: #000000; stroke-width: 0.8"/>
      </g>
     </g>
     <g id="text_13">
      <!-- Jan -->
      <g transform="translate(687.781268 398.795937) scale(0.1 -0.1)">
       <use xlink:href="#DejaVuSans-4a"/>
       <use xlink:href="#DejaVuSans-61" transform="translate(29.492188 0)"/>
       <use xlink:href="#DejaVuSans-6e" transform="translate(90.771484 0)"/>
      </g>
     </g>
    </g>
    <g id="text_14">
     <!-- Day of the year -->
     <g transform="translate(333.176208 413.99375) scale(0.12 -0.12)">
      <defs>
       <path id="DejaVuSans-20" transform="scale(0.015625)"/>
       <path id="DejaVuSans-66" d="M 2375 4863 
L 2375 4384 
L 1825 4384 
Q 1516 4384 1395 4259 
Q 1275 4134 1275 3809 
L 1275 3500 
L 2222 3500 
L 2222 3053 
L 1275 3053 
L 1275 0 
L 697 0 
L 697 3053 
L 147 3053 
L 147 3500 
L 697 3500 
L 697 3744 
Q 697 4328 969 4595 
Q 1241 4863 1831 4863 
L 2375 4863 
z
" transform="scale(0.015625)"/>
       <path id="DejaVuSans-68" d="M 3513 2113 
L 3513 0 
L 2938 0 
L 2938 2094 
Q 2938 2591 2744 2837 
Q 2550 3084 2163 3084 
Q 1697 3084 1428 2787 
Q 1159 2491 1159 1978 
L 1159 0 
L 581 0 
L 581 4863 
L 1159 4863 
L 1159 2956 
Q 1366 3272 1645 3428 
Q 1925 3584 2291 3584 
Q 2894 3584 3203 3211 
Q 3513 2838 3513 2113 
z
" transform="scale(0.015625)"/>
      </defs>
      <use xlink:href="#DejaVuSans-44"/>
      <use xlink:href="#DejaVuSans-61" transform="translate(77.001953 0)"/>
      <use xlink:href="#DejaVuSans-79" transform="translate(138.28125 0)"/>
      <use xlink:href="#DejaVuSans-20" transform="translate(197.460938 0)"/>
      <use xlink:href="#DejaVuSans-6f" transform="translate(229.248047 0)"/>
      <use xlink:href="#DejaVuSans-66" transform="translate(290.429688 0)"/>
      <use xlink:href="#DejaVuSans-20" transform="translate(325.634766 0)"/>
      <use xlink:href="#DejaVuSans-74" transform="translate(357.421875 0)"/>
      <use xlink:href="#DejaVuSans-68" transform="translate(396.630859 0)"/>
      <use xlink:href="#DejaVuSans-65" transform="translate(460.009766 0)"/>
      <use xlink:href="#DejaVuSans-20" transform="translate(521.533203 0)"/>
      <use xlink:href="#DejaVuSans-79" transform="translate(553.320312 0)"/>
      <use xlink:href="#DejaVuSans-65" transform="translate(612.5 0)"/>
      <use xlink:href="#DejaVuSans-61" transform="translate(674.023438 0)"/>
      <use xlink:href="#DejaVuSans-72" transform="translate(735.302734 0)"/>
     </g>
    </g>
   </g>
   <g id="matplotlib.axis_2">
    <g id="ytick_1">
     <g id="line2d_27">
      <path d="M 55.26375 384.1975 
L 704.259291 384.1975 
" clip-path="url(#p7aa6408dbe)" style="fill: none; stroke-dasharray: 2.96,1.28; stroke-dashoffset: 0; stroke: #b0b0b0; stroke-opacity: 0.3; stroke-width: 0.8"/>
     </g>
     <g id="line2d_28">
      <defs>
       <path id="m8fa507d0df" d="M 0 0 
L -3.5 0 
" style="stroke: #000000; stroke-width: 0.8"/>
      </defs>
      <g>
       <use xlink:href="#m8fa507d0df" x="55.26375" y="384.1975" style="stroke: #000000; stroke-width: 0.8"/>
      </g>
     </g>
     <g id="text_15">
      <!-- 0 -->
      <g transform="translate(41.90125 387.996719) scale(0.1 -0.1)">
       <defs>
        <path id="DejaVuSans-30" d="M 2034 4250 
Q 1547 4250 1301 3770 
Q 1056 3291 1056 2328 
Q 1056 1369 1301 889 
Q 1547 409 2034 409 
Q 2525 409 2770 889 
Q 3016 1369 3016 2328 
Q 3016 3291 2770 3770 
Q 2525 4250 2034 4250 
z
M 2034 4750 
Q 2819 4750 3233 4129 
Q 3647 3509 3647 2328 
Q 3647 1150 3233 529 
Q 2819 -91 2034 -91 
Q 1250 -91 836 529 
Q 422 1150 422 2328 
Q 422 3509 836 4129 
Q 1250 4750 2034 4750 
z
" transform="scale(0.015625)"/>
       </defs>
       <use xlink:href="#DejaVuSans-30"/>
      </g>
     </g>
    </g>
    <g id="ytick_2">
     <g id="line2d_29">
      <path d="M 55.26375 325.137925 
L 704.259291 325.137925 
" clip-path="url(#p7aa6408dbe)" style="fill: none; stroke-dasharray: 2.96,1.28; stroke-dashoffset: 0; stroke: #b0b0b0; stroke-opacity: 0.3; stroke-width: 0.8"/>
     </g>
     <g id="line2d_30">
      <g>
       <use xlink:href="#m8fa507d0df" x="55.26375" y="325.137925" style="stroke: #000000; stroke-width: 0.8"/>
      </g>
     </g>
     <g id="text_16">
      <!-- 1000 -->
      <g transform="translate(22.81375 328.937144) scale(0.1 -0.1)">
       <defs>
        <path id="DejaVuSans-31" d="M 794 531 
L 1825 531 
L 1825 4091 
L 703 3866 
L 703 4441 
L 1819 4666 
L 2450 4666 
L 2450 531 
L 3481 531 
L 3481 0 
L 794 0 
L 794 531 
z
" transform="scale(0.015625)"/>
       </defs>
       <use xlink:href="#DejaVuSans-31"/>
       <use xlink:href="#DejaVuSans-30" transform="translate(63.623047 0)"/>
       <use xlink:href="#DejaVuSans-30" transform="translate(127.246094 0)"/>
       <use xlink:href="#DejaVuSans-30" transform="translate(190.869141 0)"/>
      </g>
     </g>
    </g>
    <g id="ytick_3">
     <g id="line2d_31">
      <path d="M 55.26375 266.07835 
L 704.259291 266.07835 
" clip-path="url(#p7aa6408dbe)" style="fill: none; stroke-dasharray: 2.96,1.28; stroke-dashoffset: 0; stroke: #b0b0b0; stroke-opacity: 0.3; stroke-width: 0.8"/>
     </g>
     <g id="line2d_32">
      <g>
       <use xlink:href="#m8fa507d0df" x="55.26375" y="266.07835" style="stroke: #000000; stroke-width: 0.8"/>
      </g>
     </g>
     <g id="text_17">
      <!-- 2000 -->
      <g transform="translate(22.81375 269.877569) scale(0.1 -0.1)">
       <defs>
        <path id="DejaVuSans-32" d="M 1228 531 
L 3431 531 
L 3431 0 
L 469 0 
L 469 531 
Q 828 903 1448 1529 
Q 2069 2156 2228 2338 
Q 2531 2678 2651 2914 
Q 2772 3150 2772 3378 
Q 2772 3750 2511 3984 
Q 2250 4219 1831 4219 
Q 1534 4219 1204 4116 
Q 875 4013 500 3803 
L 500 4441 
Q 881 4594 1212 4672 
Q 1544 4750 1819 4750 
Q 2544 4750 2975 4387 
Q 3406 4025 3406 3419 
Q 3406 3131 3298 2873 
Q 3191 2616 2906 2266 
Q 2828 2175 2409 1742 
Q 1991 1309 1228 531 
z
" transform="scale(0.015625)"/>
       </defs>
       <use xlink:href="#DejaVuSans-32"/>
       <use xlink:href="#DejaVuSans-30" transform="translate(63.623047 0)"/>
       <use xlink:href="#DejaVuSans-30" transform="translate(127.246094 0)"/>
       <use xlink:href="#DejaVuSans-30" transform="translate(190.869141 0)"/>
      </g>
     </g>
    </g>
    <g id="ytick_4">
     <g id="line2d_33">
      <path d="M 55.26375 207.018775 
L 704.259291 207.018775 
" clip-path="url(#p7aa6408dbe)" style="fill: none; stroke-dasharray: 2.96,1.28; stroke-dashoffset: 0; stroke: #b0b0b0; stroke-opacity: 0.3; stroke-width: 0.8"/>
     </g>
     <g id="line2d_34">
      <g>
       <use xlink:href="#m8fa507d0df" x="55.26375" y="207.018775" style="stroke: #000000; stroke-width: 0.8"/>
      </g>
     </g>
     <g id="text_18">
      <!-- 3000 -->
      <g transform="translate(22.81375 210.817993) scale(0.1 -0.1)">
       <defs>
        <path id="DejaVuSans-33" d="M 2597 2516 
Q 3050 2419 3304 2112 
Q 3559 1806 3559 1356 
Q 3559 666 3084 287 
Q 2609 -91 1734 -91 
Q 1441 -91 1130 -33 
Q 819 25 488 141 
L 488 750 
Q 750 597 1062 519 
Q 1375 441 1716 441 
Q 2309 441 2620 675 
Q 2931 909 2931 1356 
Q 2931 1769 2642 2001 
Q 2353 2234 1838 2234 
L 1294 2234 
L 1294 2753 
L 1863 2753 
Q 2328 2753 2575 2939 
Q 2822 3125 2822 3475 
Q 2822 3834 2567 4026 
Q 2313 4219 1838 4219 
Q 1578 4219 1281 4162 
Q 984 4106 628 3988 
L 628 4550 
Q 988 4650 1302 4700 
Q 1616 4750 1894 4750 
Q 2613 4750 3031 4423 
Q 3450 4097 3450 3541 
Q 3450 3153 3228 2886 
Q 3006 2619 2597 2516 
z
" transform="scale(0.015625)"/>
       </defs>
       <use xlink:href="#DejaVuSans-33"/>
       <use xlink:href="#DejaVuSans-30" transform="translate(63.623047 0)"/>
       <use xlink:href="#DejaVuSans-30" transform="translate(127.246094 0)"/>
       <use xlink:href="#DejaVuSans-30" transform="translate(190.869141 0)"/>
      </g>
     </g>
    </g>
    <g id="ytick_5">
     <g id="line2d_35">
      <path d="M 55.26375 147.9592 
L 704.259291 147.9592 
" clip-path="url(#p7aa6408dbe)" style="fill: none; stroke-dasharray: 2.96,1.28; stroke-dashoffset: 0; stroke: #b0b0b0; stroke-opacity: 0.3; stroke-width: 0.8"/>
     </g>
     <g id="line2d_36">
      <g>
       <use xlink:href="#m8fa507d0df" x="55.26375" y="147.9592" style="stroke: #000000; stroke-width: 0.8"/>
      </g>
     </g>
     <g id="text_19">
      <!-- 4000 -->
      <g transform="translate(22.81375 151.758418) scale(0.1 -0.1)">
       <defs>
        <path id="DejaVuSans-34" d="M 2419 4116 
L 825 1625 
L 2419 1625 
L 2419 4116 
z
M 2253 4666 
L 3047 4666 
L 3047 1625 
L 3713 1625 
L 3713 1100 
L 3047 1100 
L 3047 0 
L 2419 0 
L 2419 1100 
L 313 1100 
L 313 1709 
L 2253 4666 
z
" transform="scale(0.015625)"/>
       </defs>
       <use xlink:href="#DejaVuSans-34"/>
       <use xlink:href="#DejaVuSans-30" transform="translate(63.623047 0)"/>
       <use xlink:href="#DejaVuSans-30" transform="translate(127.246094 0)"/>
       <use xlink:href="#DejaVuSans-30" transform="translate(190.869141 0)"/>
      </g>
     </g>
    </g>
    <g id="ytick_6">
     <g id="line2d_37">
      <path d="M 55.26375 88.899625 
L 704.259291 88.899625 
" clip-path="url(#p7aa6408dbe)" style="fill: none; stroke-dasharray: 2.96,1.28; stroke-dashoffset: 0; stroke: #b0b0b0; stroke-opacity: 0.3; stroke-width: 0.8"/>
     </g>
     <g id="line2d_38">
      <g>
       <use xlink:href="#m8fa507d0df" x="55.26375" y="88.899625" style="stroke: #000000; stroke-width: 0.8"/>
      </g>
     </g>
     <g id="text_20">
      <!-- 5000 -->
      <g transform="translate(22.81375 92.698843) scale(0.1 -0.1)">
       <defs>
        <path id="DejaVuSans-35" d="M 691 4666 
L 3169 4666 
L 3169 4134 
L 1269 4134 
L 1269 2991 
Q 1406 3038 1543 3061 
Q 1681 3084 1819 3084 
Q 2600 3084 3056 2656 
Q 3513 2228 3513 1497 
Q 3513 744 3044 326 
Q 2575 -91 1722 -91 
Q 1428 -91 1123 -41 
Q 819 9 494 109 
L 494 744 
Q 775 591 1075 516 
Q 1375 441 1709 441 
Q 2250 441 2565 725 
Q 2881 1009 2881 1497 
Q 2881 1984 2565 2268 
Q 2250 2553 1709 2553 
Q 1456 2553 1204 2497 
Q 953 2441 691 2322 
L 691 4666 
z
" transform="scale(0.015625)"/>
       </defs>
       <use xlink:href="#DejaVuSans-35"/>
       <use xlink:href="#DejaVuSans-30" transform="translate(63.623047 0)"/>
       <use xlink:href="#DejaVuSans-30" transform="translate(127.246094 0)"/>
       <use xlink:href="#DejaVuSans-30" transform="translate(190.869141 0)"/>
      </g>
     </g>
    </g>
    <g id="text_21">
     <!-- Daily pedestrian count -->
     <g transform="translate(16.318125 279.793125) rotate(-90) scale(0.12 -0.12)">
      <defs>
       <path id="DejaVuSans-69" d="M 603 3500 
L 1178 3500 
L 1178 0 
L 603 0 
L 603 3500 
z
M 603 4863 
L 1178 4863 
L 1178 4134 
L 603 4134 
L 603 4863 
z
" transform="scale(0.015625)"/>
       <path id="DejaVuSans-64" d="M 2906 2969 
L 2906 4863 
L 3481 4863 
L 3481 0 
L 2906 0 
L 2906 525 
Q 2725 213 2448 61 
Q 2172 -91 1784 -91 
Q 1150 -91 751 415 
Q 353 922 353 1747 
Q 353 2572 751 3078 
Q 1150 3584 1784 3584 
Q 2172 3584 2448 3432 
Q 2725 3281 2906 2969 
z
M 947 1747 
Q 947 1113 1208 752 
Q 1469 391 1925 391 
Q 2381 391 2643 752 
Q 2906 1113 2906 1747 
Q 2906 2381 2643 2742 
Q 2381 3103 1925 3103 
Q 1469 3103 1208 2742 
Q 947 2381 947 1747 
z
" transform="scale(0.015625)"/>
       <path id="DejaVuSans-73" d="M 2834 3397 
L 2834 2853 
Q 2591 2978 2328 3040 
Q 2066 3103 1784 3103 
Q 1356 3103 1142 2972 
Q 928 2841 928 2578 
Q 928 2378 1081 2264 
Q 1234 2150 1697 2047 
L 1894 2003 
Q 2506 1872 2764 1633 
Q 3022 1394 3022 966 
Q 3022 478 2636 193 
Q 2250 -91 1575 -91 
Q 1294 -91 989 -36 
Q 684 19 347 128 
L 347 722 
Q 666 556 975 473 
Q 1284 391 1588 391 
Q 1994 391 2212 530 
Q 2431 669 2431 922 
Q 2431 1156 2273 1281 
Q 2116 1406 1581 1522 
L 1381 1569 
Q 847 1681 609 1914 
Q 372 2147 372 2553 
Q 372 3047 722 3315 
Q 1072 3584 1716 3584 
Q 2034 3584 2315 3537 
Q 2597 3491 2834 3397 
z
" transform="scale(0.015625)"/>
      </defs>
      <use xlink:href="#DejaVuSans-44"/>
      <use xlink:href="#DejaVuSans-61" transform="translate(77.001953 0)"/>
      <use xlink:href="#DejaVuSans-69" transform="translate(138.28125 0)"/>
      <use xlink:href="#DejaVuSans-6c" transform="translate(166.064453 0)"/>
      <use xlink:href="#DejaVuSans-79" transform="translate(193.847656 0)"/>
      <use xlink:href="#DejaVuSans-20" transform="translate(253.027344 0)"/>
      <use xlink:href="#DejaVuSans-70" transform="translate(284.814453 0)"/>
      <use xlink:href="#DejaVuSans-65" transform="translate(348.291016 0)"/>
      <use xlink:href="#DejaVuSans-64" transform="translate(409.814453 0)"/>
      <use xlink:href="#DejaVuSans-65" transform="translate(473.291016 0)"/>
      <use xlink:href="#DejaVuSans-73" transform="translate(534.814453 0)"/>
      <use xlink:href="#DejaVuSans-74" transform="translate(586.914062 0)"/>
      <use xlink:href="#DejaVuSans-72" transform="translate(626.123047 0)"/>
      <use xlink:href="#DejaVuSans-69" transform="translate(667.236328 0)"/>
      <use xlink:href="#DejaVuSans-61" transform="translate(695.019531 0)"/>
      <use xlink:href="#DejaVuSans-6e" transform="translate(756.298828 0)"/>
      <use xlink:href="#DejaVuSans-20" transform="translate(819.677734 0)"/>
      <use xlink:href="#DejaVuSans-63" transform="translate(851.464844 0)"/>
      <use xlink:href="#DejaVuSans-6f" transform="translate(906.445312 0)"/>
      <use xlink:href="#DejaVuSans-75" transform="translate(967.626953 0)"/>
      <use xlink:href="#DejaVuSans-6e" transform="translate(1031.005859 0)"/>
      <use xlink:href="#DejaVuSans-74" transform="translate(1094.384766 0)"/>
     </g>
    </g>
   </g>
   <g id="line2d_39">
    <path d="M 57.017792 357.79787 
L 58.771834 317.105823 
L 60.525876 317.164882 
L 62.279918 329.153976 
L 64.03396 344.332287 
L 65.788002 343.741691 
L 67.542044 272.574903 
L 69.296086 273.519856 
L 71.050128 261.589822 
L 72.80417 274.996346 
L 74.558212 271.157473 
L 76.312254 334.823695 
L 78.066296 335.650529 
L 79.820338 269.444746 
L 81.57438 279.366754 
L 83.328422 264.424682 
L 85.082464 276.295656 
L 86.836506 281.079482 
L 88.590548 330.335168 
L 90.34459 332.402253 
L 92.098632 272.633963 
L 93.852674 266.255529 
L 95.606716 256.746937 
L 97.360758 273.165499 
L 99.1148 299.978546 
L 100.868842 328.976797 
L 102.622884 331.457299 
L 104.376926 340.611534 
L 106.130968 274.819167 
L 107.88501 274.996346 
L 109.639052 265.960231 
L 111.393094 263.479729 
L 113.147136 340.139057 
L 114.901178 342.796738 
L 116.65522 267.49578 
L 118.409262 264.60186 
L 120.163304 269.799103 
L 121.917346 259.05026 
L 123.671388 262.889133 
L 125.42543 338.190091 
L 127.179472 331.043882 
L 128.933514 241.863924 
L 130.687556 244.344426 
L 132.441598 219.716583 
L 134.19564 223.437337 
L 135.949682 228.811758 
L 137.703724 322.184946 
L 139.457766 324.252031 
L 141.211808 226.803732 
L 142.96585 216.350188 
L 144.719892 209.440217 
L 146.473934 224.972886 
L 148.227976 222.197086 
L 149.982018 311.317984 
L 151.73606 329.744572 
L 153.490102 247.061167 
L 155.244144 223.082979 
L 156.998186 238.26129 
L 158.752228 232.591571 
L 160.50627 243.87195 
L 162.260312 306.179801 
L 164.014354 312.676355 
L 165.768396 155.814123 
L 167.522438 130.890982 
L 169.27648 138.450608 
L 171.030522 139.749919 
L 172.784564 159.948293 
L 174.538606 295.25378 
L 176.292648 304.053657 
L 178.04669 201.821532 
L 179.800732 121.50051 
L 181.554774 94.864642 
L 183.308816 94.569344 
L 185.062858 115.830791 
L 186.8169 285.745188 
L 188.570942 297.202746 
L 190.324984 87.305016 
L 192.079026 55.767203 
L 193.833068 103.073923 
L 195.58711 106.676557 
L 197.341152 136.147285 
L 199.095194 284.859295 
L 200.849236 293.777291 
L 202.603278 142.761957 
L 204.35732 120.909914 
L 206.111362 115.299255 
L 207.865404 139.454621 
L 209.619446 171.878328 
L 211.373488 287.044499 
L 213.12753 290.174656 
L 214.881572 141.757944 
L 216.635614 111.81474 
L 218.389656 120.437438 
L 220.143698 123.862893 
L 221.89774 145.478697 
L 223.651782 280.547946 
L 225.405824 288.048512 
L 227.159866 155.636944 
L 228.913908 112.877812 
L 230.66795 111.165084 
L 232.421992 112.346276 
L 234.176034 154.92823 
L 235.930076 262.416656 
L 237.684118 274.051392 
L 239.43816 170.1656 
L 241.192202 141.639825 
L 242.946244 159.00334 
L 244.700286 172.055506 
L 246.454328 331.752597 
L 248.20837 317.401121 
L 249.962412 337.658555 
L 251.716454 323.484257 
L 253.470496 265.015277 
L 255.224538 256.569758 
L 256.97858 320.944695 
L 258.732622 252.435588 
L 260.486664 311.495163 
L 262.240706 299.092652 
L 263.994748 146.48271 
L 265.74879 161.661021 
L 267.502832 131.599697 
L 269.256874 134.611736 
L 271.010916 160.47983 
L 272.764958 274.287631 
L 274.519 288.934405 
L 276.273042 154.337634 
L 278.027084 137.446595 
L 279.781126 132.839948 
L 281.535168 126.284336 
L 283.28921 165.440834 
L 285.043252 270.330639 
L 286.797294 282.910329 
L 288.551336 158.708042 
L 290.305378 137.269417 
L 292.05942 130.359446 
L 293.813462 136.147285 
L 295.567504 162.310676 
L 297.321546 271.511831 
L 299.075588 283.441865 
L 300.82963 156.522838 
L 302.583672 132.958068 
L 304.337714 134.139259 
L 306.091756 129.119195 
L 307.845798 156.522838 
L 309.59984 264.365622 
L 311.353882 280.193588 
L 313.107924 156.700017 
L 314.861966 139.159323 
L 316.616008 146.069293 
L 318.37005 131.894995 
L 320.124092 142.584778 
L 321.878134 273.342678 
L 323.632176 284.445878 
L 325.386218 185.521089 
L 327.14026 171.642089 
L 328.894302 185.580149 
L 330.648344 174.654128 
L 332.402386 181.564098 
L 334.156428 260.881107 
L 335.91047 263.893146 
L 337.664512 244.108188 
L 339.418554 178.020523 
L 341.172596 173.413877 
L 342.926638 194.202847 
L 344.68068 190.127736 
L 346.434722 249.42355 
L 348.188764 264.66092 
L 349.942806 183.276826 
L 351.696848 171.52397 
L 367.483226 347.462444 
L 369.237268 269.562865 
L 370.99131 342.5605 
L 372.745352 330.335168 
L 374.499394 274.464809 
L 376.253436 292.300801 
L 378.007478 275.941299 
L 379.76152 282.260673 
L 381.515562 284.327759 
L 383.269604 326.437236 
L 385.023646 336.477363 
L 386.777688 260.999226 
L 388.53173 263.30255 
L 390.285772 257.337533 
L 392.039814 259.581797 
L 393.793856 252.317469 
L 395.547898 331.634478 
L 397.30194 337.835734 
L 399.055982 244.875962 
L 400.810024 235.957967 
L 402.564066 253.853018 
L 404.318108 262.534775 
L 406.07215 383.725023 
L 411.334276 247.297405 
L 413.088318 248.00612 
L 414.84236 221.54743 
L 416.596402 213.987805 
L 418.350444 214.164983 
L 420.104486 301.573154 
L 421.858528 319.231967 
L 423.61257 173.472936 
L 425.366612 152.565847 
L 427.120654 155.400706 
L 428.874696 138.096251 
L 430.628738 164.495881 
L 432.38278 290.824312 
L 434.136822 295.726257 
L 435.890864 151.561834 
L 437.644906 126.99305 
L 439.398948 128.292361 
L 441.15299 151.798072 
L 442.907032 160.657008 
L 444.661074 289.052525 
L 446.415116 299.506069 
L 448.169158 139.690859 
L 449.9232 124.040072 
L 451.677242 116.067029 
L 455.185326 156.345659 
L 456.939368 280.01641 
L 458.69341 257.101294 
L 460.447452 154.86917 
L 462.201494 115.712672 
L 463.955536 218.83069 
L 465.709578 138.15531 
L 481.495956 260.231452 
L 483.249998 298.265818 
L 485.00404 172.9414 
L 486.758082 145.419638 
L 488.512124 172.291745 
L 490.266166 162.487855 
L 492.020208 185.46203 
L 493.77425 276.472835 
L 495.528292 289.820299 
L 497.282334 185.934506 
L 499.036376 174.890366 
L 500.790418 188.415009 
L 502.54446 190.777392 
L 504.298502 215.99583 
L 506.052544 297.498044 
L 507.806586 308.069708 
L 509.560628 201.585294 
L 511.31467 188.23783 
L 513.068712 192.43106 
L 514.822754 194.970621 
L 516.576796 210.975766 
L 518.330838 312.558235 
L 520.08488 313.857546 
L 521.838922 213.515328 
L 523.592964 183.808362 
L 525.347006 201.467175 
L 527.101048 199.28197 
L 528.85509 334.764636 
L 530.609132 331.102942 
L 532.363174 328.56338 
L 534.117216 270.153461 
L 535.871258 248.419537 
L 537.6253 247.002107 
L 539.379342 252.553707 
L 541.133384 255.034209 
L 542.887426 310.668329 
L 544.641468 322.244006 
L 546.39551 211.8026 
L 548.149552 184.812375 
L 549.903594 192.785417 
L 551.657636 190.777392 
L 553.411678 219.480345 
L 555.16572 293.186695 
L 556.919762 309.782435 
L 558.673804 204.83357 
L 560.427846 184.930494 
L 562.181888 188.533128 
L 563.93593 198.337017 
L 565.689972 220.425298 
L 567.444014 304.703312 
L 569.198056 309.19184 
L 570.952098 208.259026 
L 572.70614 191.781404 
L 574.460182 191.072689 
L 576.214224 196.210872 
L 577.968266 217.117962 
L 579.722308 312.794474 
L 581.47635 311.199865 
L 583.230392 225.031945 
L 584.984434 209.794575 
L 586.738476 205.719464 
L 588.492518 210.562349 
L 590.24656 229.697652 
L 592.000602 297.675222 
L 593.754644 294.840363 
L 595.508686 247.533643 
L 597.262728 254.030197 
L 599.01677 219.539405 
L 600.770812 213.042851 
L 602.524854 245.053141 
L 604.278896 299.506069 
L 606.032938 304.230835 
L 607.78698 213.633447 
L 609.541022 202.943664 
L 611.295064 212.275077 
L 613.049106 230.052009 
L 614.803148 214.105924 
L 616.55719 310.845508 
L 618.311232 297.084627 
L 620.065274 207.136894 
L 621.819316 218.299154 
L 623.573358 216.881724 
L 625.3274 257.455652 
L 627.081442 232.237213 
L 628.835484 315.511214 
L 630.589526 328.209023 
L 632.343568 248.773894 
L 634.09761 236.194205 
L 635.851652 221.252132 
L 637.605694 244.226307 
L 639.359736 251.372516 
L 641.113778 325.905699 
L 642.86782 345.3363 
L 644.621862 259.936154 
L 646.375904 230.583545 
L 648.129946 239.147184 
L 649.883988 245.17126 
L 651.63803 248.832954 
L 653.392072 334.410278 
L 655.146114 337.363257 
L 656.900157 269.976282 
L 658.654199 259.640856 
L 660.408241 271.866188 
L 662.162283 259.10932 
L 663.916325 278.362741 
L 665.670367 331.811657 
L 667.424409 337.245138 
L 669.178451 262.475716 
L 670.932493 256.27446 
L 672.686535 273.106439 
L 674.440577 275.882239 
L 676.194619 302.399989 
L 677.948661 353.014044 
L 679.702703 354.195236 
L 681.456745 323.307078 
L 683.210787 348.407397 
L 684.964829 367.5427 
L 686.718871 367.011164 
L 688.472913 354.96301 
L 690.226955 362.581696 
L 691.980997 363.231351 
L 693.735039 363.467589 
L 695.489081 357.148215 
L 695.489081 357.148215 
" clip-path="url(#p7aa6408dbe)" style="fill: none; stroke: #0d6efc; stroke-opacity: 0.8; stroke-width: 2.5; stroke-linecap: square"/>
   </g>
   <g id="line2d_40">
    <path d="M 57.017792 361.636742 
L 58.771834 338.30821 
L 60.525876 342.265202 
L 62.279918 352.718746 
L 64.03396 357.975049 
L 65.788002 345.159121 
L 67.542044 315.629333 
L 69.296086 317.873597 
L 71.050128 313.26695 
L 72.80417 324.547329 
L 74.558212 345.21818 
L 76.312254 361.400504 
L 78.066296 309.546197 
L 79.820338 303.167763 
L 81.57438 313.030712 
L 83.328422 301.277857 
L 86.836506 338.957865 
L 88.590548 348.702695 
L 90.34459 311.613282 
L 92.098632 300.982559 
L 93.852674 301.691274 
L 95.606716 301.514095 
L 97.360758 318.523253 
L 99.1148 344.863823 
L 100.868842 349.529529 
L 102.622884 353.191223 
L 104.376926 296.907448 
L 106.130968 297.143686 
L 107.88501 302.459048 
L 109.639052 306.002623 
L 111.393094 340.257176 
L 113.147136 353.250283 
L 114.901178 315.629333 
L 116.65522 306.593218 
L 118.409262 296.080614 
L 120.163304 274.819167 
L 121.917346 285.095533 
L 123.671388 341.851785 
L 125.42543 346.340312 
L 127.179472 272.693022 
L 128.933514 256.451639 
L 130.687556 281.670078 
L 132.441598 281.138541 
L 134.19564 295.430959 
L 135.949682 344.214168 
L 137.703724 346.989968 
L 139.457766 270.330639 
L 141.211808 268.381673 
L 142.96585 281.847256 
L 144.719892 272.574903 
L 146.473934 283.737163 
L 148.227976 339.66658 
L 149.982018 328.386202 
L 151.73606 267.318601 
L 153.490102 264.424682 
L 155.244144 269.031329 
L 156.998186 263.597848 
L 158.752228 262.889133 
L 160.50627 322.480244 
L 162.260312 323.129899 
L 164.014354 163.787166 
L 165.768396 166.444847 
L 167.522438 163.669047 
L 169.27648 189.478081 
L 171.030522 227.630566 
L 172.784564 322.066827 
L 174.538606 335.650529 
L 176.292648 323.661436 
L 178.04669 181.977515 
L 179.800732 167.566979 
L 181.554774 171.996447 
L 183.308816 219.480345 
L 185.062858 329.035857 
L 186.8169 354.313355 
L 188.570942 186.347923 
L 190.324984 174.29977 
L 192.079026 174.713187 
L 193.833068 216.940783 
L 195.58711 238.084111 
L 197.341152 309.428078 
L 199.095194 322.598363 
L 200.849236 191.663285 
L 202.603278 175.77626 
L 204.35732 178.197702 
L 206.111362 167.035442 
L 207.865404 226.862792 
L 209.619446 312.381057 
L 211.373488 326.437236 
L 213.12753 199.222911 
L 214.881572 181.150681 
L 216.635614 177.488987 
L 218.389656 176.780272 
L 220.143698 230.052009 
L 221.89774 315.924631 
L 223.651782 327.323129 
L 225.405824 207.963728 
L 227.159866 208.849622 
L 228.913908 187.647234 
L 230.66795 208.495264 
L 232.421992 243.87195 
L 234.176034 321.948708 
L 235.930076 336.123006 
L 237.684118 216.409247 
L 239.43816 216.527366 
L 241.192202 345.867836 
L 242.946244 336.182065 
L 244.700286 335.945827 
L 246.454328 338.898806 
L 248.20837 349.706708 
L 249.962412 339.843759 
L 251.716454 321.299053 
L 253.470496 334.351219 
L 255.224538 309.309959 
L 256.97858 351.301317 
L 258.732622 343.032976 
L 260.486664 342.678619 
L 262.240706 234.186179 
L 263.994748 237.080098 
L 265.74879 210.44423 
L 267.502832 212.393196 
L 269.256874 240.151196 
L 271.010916 322.362125 
L 272.764958 330.394227 
L 274.519 225.327243 
L 276.273042 209.558336 
L 278.027084 224.264171 
L 279.781126 210.385171 
L 281.535168 251.372516 
L 283.28921 323.307078 
L 285.043252 334.410278 
L 286.797294 225.445362 
L 288.551336 238.379409 
L 290.305378 242.513579 
L 292.05942 227.15809 
L 293.813462 271.748069 
L 295.567504 359.097181 
L 297.321546 341.024951 
L 299.075588 253.912077 
L 300.82963 230.111069 
L 302.583672 228.043983 
L 304.337714 226.449375 
L 306.091756 285.036473 
L 307.845798 323.661436 
L 309.59984 326.968772 
L 311.353882 218.240094 
L 313.107924 246.52963 
L 314.861966 231.056022 
L 316.616008 223.496396 
L 318.37005 257.75095 
L 320.124092 327.26407 
L 321.878134 329.331155 
L 323.632176 341.792725 
L 325.386218 292.359861 
L 327.14026 252.789945 
L 328.894302 261.294524 
L 330.648344 291.592086 
L 334.156428 341.497427 
L 335.91047 330.03987 
L 337.664512 267.909197 
L 339.418554 258.046248 
L 341.172596 266.491767 
L 342.926638 280.075469 
L 344.68068 330.866704 
L 348.188764 281.31572 
L 349.942806 290.883371 
L 351.696848 277.299669 
L 353.45089 285.036473 
L 355.204932 383.784083 
L 356.958974 339.016925 
L 358.713016 343.505453 
L 360.467058 301.100678 
L 362.2211 301.691274 
L 363.975142 327.736546 
L 365.729184 301.986571 
L 367.483226 319.704444 
L 369.237268 354.96301 
L 370.99131 356.616678 
L 372.745352 383.961262 
L 374.499394 313.916606 
L 376.253436 350.533542 
L 378.007478 383.665964 
L 379.76152 311.96764 
L 381.515562 344.332287 
L 383.269604 349.116112 
L 385.023646 303.699299 
L 386.777688 305.589206 
L 388.53173 304.644252 
L 390.285772 309.605257 
L 392.039814 306.711337 
L 393.793856 346.104074 
L 395.547898 353.427461 
L 397.30194 309.782435 
L 399.055982 309.664316 
L 400.810024 316.338048 
L 402.564066 319.113848 
L 404.318108 316.04275 
L 406.07215 349.706708 
L 407.826192 348.702695 
L 409.580234 308.069708 
L 411.334276 321.535291 
L 413.088318 293.83635 
L 414.84236 294.722244 
L 416.596402 307.892529 
L 418.350444 344.509466 
L 420.104486 352.423449 
L 421.858528 274.701048 
L 423.61257 233.300286 
L 425.366612 233.359345 
L 427.120654 240.505554 
L 428.874696 266.373648 
L 430.628738 335.886768 
L 432.38278 340.020938 
L 434.136822 248.301418 
L 435.890864 383.725023 
L 437.644906 227.984924 
L 439.398948 231.941915 
L 441.15299 259.640856 
L 442.907032 334.351219 
L 444.661074 333.347206 
L 446.415116 233.536524 
L 448.169158 245.289379 
L 449.9232 220.484358 
L 451.677242 211.566362 
L 453.431284 278.717099 
L 455.185326 336.004887 
L 456.939368 244.167247 
L 458.69341 256.569758 
L 460.447452 214.105924 
L 462.201494 211.448243 
L 463.955536 219.716583 
L 465.709578 264.070324 
L 467.46362 323.897674 
L 469.217662 335.709589 
L 470.971704 247.238345 
L 472.725746 247.297405 
L 474.479788 220.484358 
L 476.23383 237.611635 
L 477.987872 266.491767 
L 479.741914 335.945827 
L 481.495956 354.018057 
L 483.249998 248.773894 
L 485.00404 227.571507 
L 486.758082 221.488371 
L 488.512124 202.884604 
L 490.266166 255.565745 
L 492.020208 331.33918 
L 493.77425 344.745704 
L 495.528292 241.568626 
L 497.282334 246.58869 
L 499.036376 227.09903 
L 500.790418 222.9058 
L 502.54446 261.412643 
L 504.298502 325.78758 
L 506.052544 318.995729 
L 507.806586 202.11683 
L 509.560628 204.83357 
L 511.31467 212.393196 
L 513.068712 176.189677 
L 514.822754 210.621409 
L 516.576796 329.449274 
L 518.330838 341.733666 
L 520.08488 240.387435 
L 521.838922 205.837583 
L 523.592964 238.497528 
L 525.347006 227.217149 
L 527.101048 327.027831 
L 528.85509 329.094916 
L 530.609132 339.7847 
L 532.363174 289.170644 
L 534.117216 286.158605 
L 535.871258 276.768133 
L 537.6253 282.142554 
L 539.379342 293.127635 
L 541.133384 326.023819 
L 542.887426 334.646517 
L 544.641468 240.210256 
L 546.39551 167.980396 
L 548.149552 140.694872 
L 549.903594 137.860012 
L 551.657636 185.343911 
L 553.411678 283.678103 
L 555.16572 304.821431 
L 556.919762 163.432808 
L 558.673804 126.697753 
L 560.427846 128.646719 
L 562.181888 135.320451 
L 563.93593 180.028549 
L 565.689972 276.590954 
L 567.444014 282.260673 
L 569.198056 186.170745 
L 570.952098 128.823897 
L 572.70614 194.025668 
L 574.460182 134.316438 
L 576.214224 189.005604 
L 577.968266 286.690142 
L 579.722308 326.378176 
L 581.47635 241.982043 
L 583.230392 194.261907 
L 584.984434 226.390315 
L 586.738476 222.9058 
L 588.492518 267.791078 
L 590.24656 327.441248 
L 592.000602 298.08864 
L 593.754644 318.582312 
L 595.508686 293.89541 
L 597.262728 226.744673 
L 599.01677 216.940783 
L 600.770812 256.865056 
L 602.524854 363.054172 
L 606.032938 243.281354 
L 607.78698 257.69189 
L 609.541022 232.237213 
L 611.295064 231.35132 
L 613.049106 251.963111 
L 614.803148 314.093784 
L 616.55719 333.937802 
L 618.311232 275.82318 
L 620.065274 265.664933 
L 621.819316 275.291644 
L 623.573358 267.732018 
L 625.3274 286.749201 
L 627.081442 328.031844 
L 628.835484 341.556487 
L 630.589526 276.000358 
L 632.343568 258.164367 
L 634.09761 271.866188 
L 635.851652 262.652894 
L 637.605694 284.918354 
L 639.359736 339.194104 
L 641.113778 338.30821 
L 642.86782 294.958482 
L 644.621862 267.49578 
L 646.375904 275.527882 
L 648.129946 277.654027 
L 649.883988 291.651146 
L 651.63803 346.399372 
L 653.392072 334.882755 
L 655.146114 288.816286 
L 656.900157 288.166631 
L 658.654199 287.753214 
L 660.408241 276.709073 
L 662.162283 298.147699 
L 663.916325 336.182065 
L 665.670367 337.363257 
L 667.424409 296.257793 
L 669.178451 285.863307 
L 670.932493 291.828325 
L 672.686535 298.856414 
L 674.440577 312.381057 
L 676.194619 335.650529 
L 677.948661 361.046147 
L 679.702703 319.113848 
L 681.456745 322.952721 
L 683.210787 343.91887 
L 684.964829 355.848904 
L 686.718871 356.557619 
L 688.472913 341.733666 
L 690.226955 351.714734 
L 691.980997 347.285266 
L 693.735039 348.584576 
L 695.489081 347.403385 
L 695.489081 347.403385 
" clip-path="url(#p7aa6408dbe)" style="fill: none; stroke: #83c966; stroke-opacity: 0.8; stroke-width: 2.5; stroke-linecap: square"/>
   </g>
   <g id="patch_3">
    <path d="M 55.26375 384.1975 
L 55.26375 39.3575 
" style="fill: none; stroke: #000000; stroke-width: 0.8; stroke-linejoin: miter; stroke-linecap: square"/>
   </g>
   <g id="patch_4">
    <path d="M 55.26375 384.1975 
L 704.259291 384.1975 
" style="fill: none; stroke: #000000; stroke-width: 0.8; stroke-linejoin: miter; stroke-linecap: square"/>
   </g>
   <g id="text_22">
    <!-- Pedestrian Traffic at Pelham St (South) -->
    <g transform="translate(225.46277 19.3575) scale(0.16 -0.16)">
     <defs>
      <path id="DejaVuSans-50" d="M 1259 4147 
L 1259 2394 
L 2053 2394 
Q 2494 2394 2734 2622 
Q 2975 2850 2975 3272 
Q 2975 3691 2734 3919 
Q 2494 4147 2053 4147 
L 1259 4147 
z
M 628 4666 
L 2053 4666 
Q 2838 4666 3239 4311 
Q 3641 3956 3641 3272 
Q 3641 2581 3239 2228 
Q 2838 1875 2053 1875 
L 1259 1875 
L 1259 0 
L 628 0 
L 628 4666 
z
" transform="scale(0.015625)"/>
      <path id="DejaVuSans-54" d="M -19 4666 
L 3928 4666 
L 3928 4134 
L 2272 4134 
L 2272 0 
L 1638 0 
L 1638 4134 
L -19 4134 
L -19 4666 
z
" transform="scale(0.015625)"/>
      <path id="DejaVuSans-6d" d="M 3328 2828 
Q 3544 3216 3844 3400 
Q 4144 3584 4550 3584 
Q 5097 3584 5394 3201 
Q 5691 2819 5691 2113 
L 5691 0 
L 5113 0 
L 5113 2094 
Q 5113 2597 4934 2840 
Q 4756 3084 4391 3084 
Q 3944 3084 3684 2787 
Q 3425 2491 3425 1978 
L 3425 0 
L 2847 0 
L 2847 2094 
Q 2847 2600 2669 2842 
Q 2491 3084 2119 3084 
Q 1678 3084 1418 2786 
Q 1159 2488 1159 1978 
L 1159 0 
L 581 0 
L 581 3500 
L 1159 3500 
L 1159 2956 
Q 1356 3278 1631 3431 
Q 1906 3584 2284 3584 
Q 2666 3584 2933 3390 
Q 3200 3197 3328 2828 
z
" transform="scale(0.015625)"/>
      <path id="DejaVuSans-28" d="M 1984 4856 
Q 1566 4138 1362 3434 
Q 1159 2731 1159 2009 
Q 1159 1288 1364 580 
Q 1569 -128 1984 -844 
L 1484 -844 
Q 1016 -109 783 600 
Q 550 1309 550 2009 
Q 550 2706 781 3412 
Q 1013 4119 1484 4856 
L 1984 4856 
z
" transform="scale(0.015625)"/>
      <path id="DejaVuSans-29" d="M 513 4856 
L 1013 4856 
Q 1481 4119 1714 3412 
Q 1947 2706 1947 2009 
Q 1947 1309 1714 600 
Q 1481 -109 1013 -844 
L 513 -844 
Q 928 -128 1133 580 
Q 1338 1288 1338 2009 
Q 1338 2731 1133 3434 
Q 928 4138 513 4856 
z
" transform="scale(0.015625)"/>
     </defs>
     <use xlink:href="#DejaVuSans-50"/>
     <use xlink:href="#DejaVuSans-65" transform="translate(56.677734 0)"/>
     <use xlink:href="#DejaVuSans-64" transform="translate(118.201172 0)"/>
     <use xlink:href="#DejaVuSans-65" transform="translate(181.677734 0)"/>
     <use xlink:href="#DejaVuSans-73" transform="translate(243.201172 0)"/>
     <use xlink:href="#DejaVuSans-74" transform="translate(295.300781 0)"/>
     <use xlink:href="#DejaVuSans-72" transform="translate(334.509766 0)"/>
     <use xlink:href="#DejaVuSans-69" transform="translate(375.623047 0)"/>
     <use xlink:href="#DejaVuSans-61" transform="translate(403.40625 0)"/>
     <use xlink:href="#DejaVuSans-6e" transform="translate(464.685547 0)"/>
     <use xlink:href="#DejaVuSans-20" transform="translate(528.064453 0)"/>
     <use xlink:href="#DejaVuSans-54" transform="translate(559.851562 0)"/>
     <use xlink:href="#DejaVuSans-72" transform="translate(606.185547 0)"/>
     <use xlink:href="#DejaVuSans-61" transform="translate(647.298828 0)"/>
     <use xlink:href="#DejaVuSans-66" transform="translate(708.578125 0)"/>
     <use xlink:href="#DejaVuSans-66" transform="translate(743.783203 0)"/>
     <use xlink:href="#DejaVuSans-69" transform="translate(778.988281 0)"/>
     <use xlink:href="#DejaVuSans-63" transform="translate(806.771484 0)"/>
     <use xlink:href="#DejaVuSans-20" transform="translate(861.751953 0)"/>
     <use xlink:href="#DejaVuSans-61" transform="translate(893.539062 0)"/>
     <use xlink:href="#DejaVuSans-74" transform="translate(954.818359 0)"/>
     <use xlink:href="#DejaVuSans-20" transform="translate(994.027344 0)"/>
     <use xlink:href="#DejaVuSans-50" transform="translate(1025.814453 0)"/>
     <use xlink:href="#DejaVuSans-65" transform="translate(1082.492188 0)"/>
     <use xlink:href="#DejaVuSans-6c" transform="translate(1144.015625 0)"/>
     <use xlink:href="#DejaVuSans-68" transform="translate(1171.798828 0)"/>
     <use xlink:href="#DejaVuSans-61" transform="translate(1235.177734 0)"/>
     <use xlink:href="#DejaVuSans-6d" transform="translate(1296.457031 0)"/>
     <use xlink:href="#DejaVuSans-20" transform="translate(1393.869141 0)"/>
     <use xlink:href="#DejaVuSans-53" transform="translate(1425.65625 0)"/>
     <use xlink:href="#DejaVuSans-74" transform="translate(1489.132812 0)"/>
     <use xlink:href="#DejaVuSans-20" transform="translate(1528.341797 0)"/>
     <use xlink:href="#DejaVuSans-28" transform="translate(1560.128906 0)"/>
     <use xlink:href="#DejaVuSans-53" transform="translate(1599.142578 0)"/>
     <use xlink:href="#DejaVuSans-6f" transform="translate(1662.619141 0)"/>
     <use xlink:href="#DejaVuSans-75" transform="translate(1723.800781 0)"/>
     <use xlink:href="#DejaVuSans-74" transform="translate(1787.179688 0)"/>
     <use xlink:href="#DejaVuSans-68" transform="translate(1826.388672 0)"/>
     <use xlink:href="#DejaVuSans-29" transform="translate(1889.767578 0)"/>
    </g>
   </g>
   <g id="legend_1">
    <g id="patch_5">
     <path d="M 62.96375 80.449375 
L 126.15875 80.449375 
Q 128.35875 80.449375 128.35875 78.249375 
L 128.35875 47.0575 
Q 128.35875 44.8575 126.15875 44.8575 
L 62.96375 44.8575 
Q 60.76375 44.8575 60.76375 47.0575 
L 60.76375 78.249375 
Q 60.76375 80.449375 62.96375 80.449375 
z
" style="fill: #ffffff; opacity: 0.95; stroke: #cccccc; stroke-linejoin: miter"/>
    </g>
    <g id="line2d_41">
     <path d="M 65.16375 53.765781 
L 76.16375 53.765781 
L 87.16375 53.765781 
" style="fill: none; stroke: #0d6efc; stroke-opacity: 0.8; stroke-width: 2.5; stroke-linecap: square"/>
    </g>
    <g id="text_23">
     <!-- 2019 -->
     <g transform="translate(95.96375 57.615781) scale(0.11 -0.11)">
      <defs>
       <path id="DejaVuSans-39" d="M 703 97 
L 703 672 
Q 941 559 1184 500 
Q 1428 441 1663 441 
Q 2288 441 2617 861 
Q 2947 1281 2994 2138 
Q 2813 1869 2534 1725 
Q 2256 1581 1919 1581 
Q 1219 1581 811 2004 
Q 403 2428 403 3163 
Q 403 3881 828 4315 
Q 1253 4750 1959 4750 
Q 2769 4750 3195 4129 
Q 3622 3509 3622 2328 
Q 3622 1225 3098 567 
Q 2575 -91 1691 -91 
Q 1453 -91 1209 -44 
Q 966 3 703 97 
z
M 1959 2075 
Q 2384 2075 2632 2365 
Q 2881 2656 2881 3163 
Q 2881 3666 2632 3958 
Q 2384 4250 1959 4250 
Q 1534 4250 1286 3958 
Q 1038 3666 1038 3163 
Q 1038 2656 1286 2365 
Q 1534 2075 1959 2075 
z
" transform="scale(0.015625)"/>
      </defs>
      <use xlink:href="#DejaVuSans-32"/>
      <use xlink:href="#DejaVuSans-30" transform="translate(63.623047 0)"/>
      <use xlink:href="#DejaVuSans-31" transform="translate(127.246094 0)"/>
      <use xlink:href="#DejaVuSans-39" transform="translate(190.869141 0)"/>
     </g>
    </g>
    <g id="line2d_42">
     <path d="M 65.16375 69.911719 
L 76.16375 69.911719 
L 87.16375 69.911719 
" style="fill: none; stroke: #83c966; stroke-opacity: 0.8; stroke-width: 2.5; stroke-linecap: square"/>
    </g>
    <g id="text_24">
     <!-- 2025 -->
     <g transform="translate(95.96375 73.761719) scale(0.11 -0.11)">
      <use xlink:href="#DejaVuSans-32"/>
      <use xlink:href="#DejaVuSans-30" transform="translate(63.623047 0)"/>
      <use xlink:href="#DejaVuSans-32" transform="translate(127.246094 0)"/>
      <use xlink:href="#DejaVuSans-35" transform="translate(190.869141 0)"/>
     </g>
    </g>
   </g>
  </g>
 </g>
 <defs>
  <clipPath id="p7aa6408dbe">
   <rect x="55.26375" y="39.3575" width="648.995541" height="344.84"/>
  </clipPath>
 </defs>
</svg>
