<?xml version="1.0" encoding="utf-8" standalone="no"?>
<!DOCTYPE svg PUBLIC "-//W3C//DTD SVG 1.1//EN"
  "http://www.w3.org/Graphics/SVG/1.1/DTD/svg11.dtd">
<svg xmlns:xlink="http://www.w3.org/1999/xlink" width="711.521791pt" height="423.689375pt" viewBox="0 0 711.521791 423.689375" xmlns="http://www.w3.org/2000/svg" version="1.1">
 <metadata>
  <rdf:RDF xmlns:dc="http://purl.org/dc/elements/1.1/" xmlns:cc="http://creativecommons.org/ns#" xmlns:rdf="http://www.w3.org/1999/02/22-rdf-syntax-ns#">
   <cc:Work>
    <dc:type rdf:resource="http://purl.org/dc/dcmitype/StillImage"/>
    <dc:date>2026-01-26T21:37:12.418422</dc:date>
    <dc:format>image/svg+xml</dc:format>
    <dc:creator>
     <cc:Agent>
      <dc:title>Matplotlib v3.10.8, https://matplotlib.org/</dc:title>
     </cc:Agent>
    </dc:creator>
   </cc:Work>
  </rdf:RDF>
 </metadata>
 <defs>
  <style type="text/css">*{stroke-linejoin: round; stroke-linecap: butt}</style>
 </defs>
 <g id="figure_1">
  <g id="patch_1">
   <path d="M 0 423.689375 
L 711.521791 423.689375 
L 711.521791 0 
L 0 0 
L 0 423.689375 
z
" style="fill: none"/>
  </g>
  <g id="axes_1">
   <g id="patch_2">
    <path d="M 61.62625 384.1975 
L 704.321791 384.1975 
L 704.321791 39.3575 
L 61.62625 39.3575 
L 61.62625 384.1975 
z
" style="fill: none"/>
   </g>
   <g id="matplotlib.axis_1">
    <g id="xtick_1">
     <g id="line2d_1">
      <path d="M 61.62625 384.1975 
L 61.62625 39.3575 
" clip-path="url(#p3cfa0c3f63)" style="fill: none; stroke-dasharray: 2.96,1.28; stroke-dashoffset: 0; stroke: #b0b0b0; stroke-opacity: 0.3; stroke-width: 0.8"/>
     </g>
     <g id="line2d_2">
      <defs>
       <path id="m22b63aeb1c" d="M 0 0 
L 0 3.5 
" style="stroke: #000000; stroke-width: 0.8"/>
      </defs>
      <g>
       <use xlink:href="#m22b63aeb1c" x="61.62625" y="384.1975" style="stroke: #000000; stroke-width: 0.8"/>
      </g>
     </g>
     <g id="text_1">
      <!-- Jan -->
      <g transform="translate(53.918438 398.795937) scale(0.1 -0.1)">
       <defs>
        <path id="DejaVuSans-4a" d="M 628 4666 
L 1259 4666 
L 1259 325 
Q 1259 -519 939 -900 
Q 619 -1281 -91 -1281 
L -331 -1281 
L -331 -750 
L -134 -750 
Q 284 -750 456 -515 
Q 628 -281 628 325 
L 628 4666 
z
" transform="scale(0.015625)"/>
        <path id="DejaVuSans-61" d="M 2194 1759 
Q 1497 1759 1228 1600 
Q 959 1441 959 1056 
Q 959 750 1161 570 
Q 1363 391 1709 391 
Q 2188 391 2477 730 
Q 2766 1069 2766 1631 
L 2766 1759 
L 2194 1759 
z
M 3341 1997 
L 3341 0 
L 2766 0 
L 2766 531 
Q 2569 213 2275 61 
Q 1981 -91 1556 -91 
Q 1019 -91 701 211 
Q 384 513 384 1019 
Q 384 1609 779 1909 
Q 1175 2209 1959 2209 
L 2766 2209 
L 2766 2266 
Q 2766 2663 2505 2880 
Q 2244 3097 1772 3097 
Q 1472 3097 1187 3025 
Q 903 2953 641 2809 
L 641 3341 
Q 956 3463 1253 3523 
Q 1550 3584 1831 3584 
Q 2591 3584 2966 3190 
Q 3341 2797 3341 1997 
z
" transform="scale(0.015625)"/>
        <path id="DejaVuSans-6e" d="M 3513 2113 
L 3513 0 
L 2938 0 
L 2938 2094 
Q 2938 2591 2744 2837 
Q 2550 3084 2163 3084 
Q 1697 3084 1428 2787 
Q 1159 2491 1159 1978 
L 1159 0 
L 581 0 
L 581 3500 
L 1159 3500 
L 1159 2956 
Q 1366 3272 1645 3428 
Q 1925 3584 2291 3584 
Q 2894 3584 3203 3211 
Q 3513 2838 3513 2113 
z
" transform="scale(0.015625)"/>
       </defs>
       <use xlink:href="#DejaVuSans-4a"/>
       <use xlink:href="#DejaVuSans-61" transform="translate(29.492188 0)"/>
       <use xlink:href="#DejaVuSans-6e" transform="translate(90.771484 0)"/>
      </g>
     </g>
    </g>
    <g id="xtick_2">
     <g id="line2d_3">
      <path d="M 115.473714 384.1975 
L 115.473714 39.3575 
" clip-path="url(#p3cfa0c3f63)" style="fill: none; stroke-dasharray: 2.96,1.28; stroke-dashoffset: 0; stroke: #b0b0b0; stroke-opacity: 0.3; stroke-width: 0.8"/>
     </g>
     <g id="line2d_4">
      <g>
       <use xlink:href="#m22b63aeb1c" x="115.473714" y="384.1975" style="stroke: #000000; stroke-width: 0.8"/>
      </g>
     </g>
     <g id="text_2">
      <!-- Feb -->
      <g transform="translate(106.622152 398.795937) scale(0.1 -0.1)">
       <defs>
        <path id="DejaVuSans-46" d="M 628 4666 
L 3309 4666 
L 3309 4134 
L 1259 4134 
L 1259 2759 
L 3109 2759 
L 3109 2228 
L 1259 2228 
L 1259 0 
L 628 0 
L 628 4666 
z
" transform="scale(0.015625)"/>
        <path id="DejaVuSans-65" d="M 3597 1894 
L 3597 1613 
L 953 1613 
Q 991 1019 1311 708 
Q 1631 397 2203 397 
Q 2534 397 2845 478 
Q 3156 559 3463 722 
L 3463 178 
Q 3153 47 2828 -22 
Q 2503 -91 2169 -91 
Q 1331 -91 842 396 
Q 353 884 353 1716 
Q 353 2575 817 3079 
Q 1281 3584 2069 3584 
Q 2775 3584 3186 3129 
Q 3597 2675 3597 1894 
z
M 3022 2063 
Q 3016 2534 2758 2815 
Q 2500 3097 2075 3097 
Q 1594 3097 1305 2825 
Q 1016 2553 972 2059 
L 3022 2063 
z
" transform="scale(0.015625)"/>
        <path id="DejaVuSans-62" d="M 3116 1747 
Q 3116 2381 2855 2742 
Q 2594 3103 2138 3103 
Q 1681 3103 1420 2742 
Q 1159 2381 1159 1747 
Q 1159 1113 1420 752 
Q 1681 391 2138 391 
Q 2594 391 2855 752 
Q 3116 1113 3116 1747 
z
M 1159 2969 
Q 1341 3281 1617 3432 
Q 1894 3584 2278 3584 
Q 2916 3584 3314 3078 
Q 3713 2572 3713 1747 
Q 3713 922 3314 415 
Q 2916 -91 2278 -91 
Q 1894 -91 1617 61 
Q 1341 213 1159 525 
L 1159 0 
L 581 0 
L 581 4863 
L 1159 4863 
L 1159 2969 
z
" transform="scale(0.015625)"/>
       </defs>
       <use xlink:href="#DejaVuSans-46"/>
       <use xlink:href="#DejaVuSans-65" transform="translate(52.019531 0)"/>
       <use xlink:href="#DejaVuSans-62" transform="translate(113.542969 0)"/>
      </g>
     </g>
    </g>
    <g id="xtick_3">
     <g id="line2d_5">
      <path d="M 164.110133 384.1975 
L 164.110133 39.3575 
" clip-path="url(#p3cfa0c3f63)" style="fill: none; stroke-dasharray: 2.96,1.28; stroke-dashoffset: 0; stroke: #b0b0b0; stroke-opacity: 0.3; stroke-width: 0.8"/>
     </g>
     <g id="line2d_6">
      <g>
       <use xlink:href="#m22b63aeb1c" x="164.110133" y="384.1975" style="stroke: #000000; stroke-width: 0.8"/>
      </g>
     </g>
     <g id="text_3">
      <!-- Mar -->
      <g transform="translate(154.67654 398.795937) scale(0.1 -0.1)">
       <defs>
        <path id="DejaVuSans-4d" d="M 628 4666 
L 1569 4666 
L 2759 1491 
L 3956 4666 
L 4897 4666 
L 4897 0 
L 4281 0 
L 4281 4097 
L 3078 897 
L 2444 897 
L 1241 4097 
L 1241 0 
L 628 0 
L 628 4666 
z
" transform="scale(0.015625)"/>
        <path id="DejaVuSans-72" d="M 2631 2963 
Q 2534 3019 2420 3045 
Q 2306 3072 2169 3072 
Q 1681 3072 1420 2755 
Q 1159 2438 1159 1844 
L 1159 0 
L 581 0 
L 581 3500 
L 1159 3500 
L 1159 2956 
Q 1341 3275 1631 3429 
Q 1922 3584 2338 3584 
Q 2397 3584 2469 3576 
Q 2541 3569 2628 3553 
L 2631 2963 
z
" transform="scale(0.015625)"/>
       </defs>
       <use xlink:href="#DejaVuSans-4d"/>
       <use xlink:href="#DejaVuSans-61" transform="translate(86.279297 0)"/>
       <use xlink:href="#DejaVuSans-72" transform="translate(147.558594 0)"/>
      </g>
     </g>
    </g>
    <g id="xtick_4">
     <g id="line2d_7">
      <path d="M 217.957598 384.1975 
L 217.957598 39.3575 
" clip-path="url(#p3cfa0c3f63)" style="fill: none; stroke-dasharray: 2.96,1.28; stroke-dashoffset: 0; stroke: #b0b0b0; stroke-opacity: 0.3; stroke-width: 0.8"/>
     </g>
     <g id="line2d_8">
      <g>
       <use xlink:href="#m22b63aeb1c" x="217.957598" y="384.1975" style="stroke: #000000; stroke-width: 0.8"/>
      </g>
     </g>
     <g id="text_4">
      <!-- Apr -->
      <g transform="translate(209.307598 398.795937) scale(0.1 -0.1)">
       <defs>
        <path id="DejaVuSans-41" d="M 2188 4044 
L 1331 1722 
L 3047 1722 
L 2188 4044 
z
M 1831 4666 
L 2547 4666 
L 4325 0 
L 3669 0 
L 3244 1197 
L 1141 1197 
L 716 0 
L 50 0 
L 1831 4666 
z
" transform="scale(0.015625)"/>
        <path id="DejaVuSans-70" d="M 1159 525 
L 1159 -1331 
L 581 -1331 
L 581 3500 
L 1159 3500 
L 1159 2969 
Q 1341 3281 1617 3432 
Q 1894 3584 2278 3584 
Q 2916 3584 3314 3078 
Q 3713 2572 3713 1747 
Q 3713 922 3314 415 
Q 2916 -91 2278 -91 
Q 1894 -91 1617 61 
Q 1341 213 1159 525 
z
M 3116 1747 
Q 3116 2381 2855 2742 
Q 2594 3103 2138 3103 
Q 1681 3103 1420 2742 
Q 1159 2381 1159 1747 
Q 1159 1113 1420 752 
Q 1681 391 2138 391 
Q 2594 391 2855 752 
Q 3116 1113 3116 1747 
z
" transform="scale(0.015625)"/>
       </defs>
       <use xlink:href="#DejaVuSans-41"/>
       <use xlink:href="#DejaVuSans-70" transform="translate(68.408203 0)"/>
       <use xlink:href="#DejaVuSans-72" transform="translate(131.884766 0)"/>
      </g>
     </g>
    </g>
    <g id="xtick_5">
     <g id="line2d_9">
      <path d="M 270.068047 384.1975 
L 270.068047 39.3575 
" clip-path="url(#p3cfa0c3f63)" style="fill: none; stroke-dasharray: 2.96,1.28; stroke-dashoffset: 0; stroke: #b0b0b0; stroke-opacity: 0.3; stroke-width: 0.8"/>
     </g>
     <g id="line2d_10">
      <g>
       <use xlink:href="#m22b63aeb1c" x="270.068047" y="384.1975" style="stroke: #000000; stroke-width: 0.8"/>
      </g>
     </g>
     <g id="text_5">
      <!-- May -->
      <g transform="translate(259.730547 398.795937) scale(0.1 -0.1)">
       <defs>
        <path id="DejaVuSans-79" d="M 2059 -325 
Q 1816 -950 1584 -1140 
Q 1353 -1331 966 -1331 
L 506 -1331 
L 506 -850 
L 844 -850 
Q 1081 -850 1212 -737 
Q 1344 -625 1503 -206 
L 1606 56 
L 191 3500 
L 800 3500 
L 1894 763 
L 2988 3500 
L 3597 3500 
L 2059 -325 
z
" transform="scale(0.015625)"/>
       </defs>
       <use xlink:href="#DejaVuSans-4d"/>
       <use xlink:href="#DejaVuSans-61" transform="translate(86.279297 0)"/>
       <use xlink:href="#DejaVuSans-79" transform="translate(147.558594 0)"/>
      </g>
     </g>
    </g>
    <g id="xtick_6">
     <g id="line2d_11">
      <path d="M 323.915511 384.1975 
L 323.915511 39.3575 
" clip-path="url(#p3cfa0c3f63)" style="fill: none; stroke-dasharray: 2.96,1.28; stroke-dashoffset: 0; stroke: #b0b0b0; stroke-opacity: 0.3; stroke-width: 0.8"/>
     </g>
     <g id="line2d_12">
      <g>
       <use xlink:href="#m22b63aeb1c" x="323.915511" y="384.1975" style="stroke: #000000; stroke-width: 0.8"/>
      </g>
     </g>
     <g id="text_6">
      <!-- Jun -->
      <g transform="translate(316.103011 398.795937) scale(0.1 -0.1)">
       <defs>
        <path id="DejaVuSans-75" d="M 544 1381 
L 544 3500 
L 1119 3500 
L 1119 1403 
Q 1119 906 1312 657 
Q 1506 409 1894 409 
Q 2359 409 2629 706 
Q 2900 1003 2900 1516 
L 2900 3500 
L 3475 3500 
L 3475 0 
L 2900 0 
L 2900 538 
Q 2691 219 2414 64 
Q 2138 -91 1772 -91 
Q 1169 -91 856 284 
Q 544 659 544 1381 
z
M 1991 3584 
L 1991 3584 
z
" transform="scale(0.015625)"/>
       </defs>
       <use xlink:href="#DejaVuSans-4a"/>
       <use xlink:href="#DejaVuSans-75" transform="translate(29.492188 0)"/>
       <use xlink:href="#DejaVuSans-6e" transform="translate(92.871094 0)"/>
      </g>
     </g>
    </g>
    <g id="xtick_7">
     <g id="line2d_13">
      <path d="M 376.02596 384.1975 
L 376.02596 39.3575 
" clip-path="url(#p3cfa0c3f63)" style="fill: none; stroke-dasharray: 2.96,1.28; stroke-dashoffset: 0; stroke: #b0b0b0; stroke-opacity: 0.3; stroke-width: 0.8"/>
     </g>
     <g id="line2d_14">
      <g>
       <use xlink:href="#m22b63aeb1c" x="376.02596" y="384.1975" style="stroke: #000000; stroke-width: 0.8"/>
      </g>
     </g>
     <g id="text_7">
      <!-- Jul -->
      <g transform="translate(369.993148 398.795937) scale(0.1 -0.1)">
       <defs>
        <path id="DejaVuSans-6c" d="M 603 4863 
L 1178 4863 
L 1178 0 
L 603 0 
L 603 4863 
z
" transform="scale(0.015625)"/>
       </defs>
       <use xlink:href="#DejaVuSans-4a"/>
       <use xlink:href="#DejaVuSans-75" transform="translate(29.492188 0)"/>
       <use xlink:href="#DejaVuSans-6c" transform="translate(92.871094 0)"/>
      </g>
     </g>
    </g>
    <g id="xtick_8">
     <g id="line2d_15">
      <path d="M 429.873425 384.1975 
L 429.873425 39.3575 
" clip-path="url(#p3cfa0c3f63)" style="fill: none; stroke-dasharray: 2.96,1.28; stroke-dashoffset: 0; stroke: #b0b0b0; stroke-opacity: 0.3; stroke-width: 0.8"/>
     </g>
     <g id="line2d_16">
      <g>
       <use xlink:href="#m22b63aeb1c" x="429.873425" y="384.1975" style="stroke: #000000; stroke-width: 0.8"/>
      </g>
     </g>
     <g id="text_8">
      <!-- Aug -->
      <g transform="translate(420.110143 398.795937) scale(0.1 -0.1)">
       <defs>
        <path id="DejaVuSans-67" d="M 2906 1791 
Q 2906 2416 2648 2759 
Q 2391 3103 1925 3103 
Q 1463 3103 1205 2759 
Q 947 2416 947 1791 
Q 947 1169 1205 825 
Q 1463 481 1925 481 
Q 2391 481 2648 825 
Q 2906 1169 2906 1791 
z
M 3481 434 
Q 3481 -459 3084 -895 
Q 2688 -1331 1869 -1331 
Q 1566 -1331 1297 -1286 
Q 1028 -1241 775 -1147 
L 775 -588 
Q 1028 -725 1275 -790 
Q 1522 -856 1778 -856 
Q 2344 -856 2625 -561 
Q 2906 -266 2906 331 
L 2906 616 
Q 2728 306 2450 153 
Q 2172 0 1784 0 
Q 1141 0 747 490 
Q 353 981 353 1791 
Q 353 2603 747 3093 
Q 1141 3584 1784 3584 
Q 2172 3584 2450 3431 
Q 2728 3278 2906 2969 
L 2906 3500 
L 3481 3500 
L 3481 434 
z
" transform="scale(0.015625)"/>
       </defs>
       <use xlink:href="#DejaVuSans-41"/>
       <use xlink:href="#DejaVuSans-75" transform="translate(68.408203 0)"/>
       <use xlink:href="#DejaVuSans-67" transform="translate(131.787109 0)"/>
      </g>
     </g>
    </g>
    <g id="xtick_9">
     <g id="line2d_17">
      <path d="M 483.720889 384.1975 
L 483.720889 39.3575 
" clip-path="url(#p3cfa0c3f63)" style="fill: none; stroke-dasharray: 2.96,1.28; stroke-dashoffset: 0; stroke: #b0b0b0; stroke-opacity: 0.3; stroke-width: 0.8"/>
     </g>
     <g id="line2d_18">
      <g>
       <use xlink:href="#m22b63aeb1c" x="483.720889" y="384.1975" style="stroke: #000000; stroke-width: 0.8"/>
      </g>
     </g>
     <g id="text_9">
      <!-- Sep -->
      <g transform="translate(474.295889 398.795937) scale(0.1 -0.1)">
       <defs>
        <path id="DejaVuSans-53" d="M 3425 4513 
L 3425 3897 
Q 3066 4069 2747 4153 
Q 2428 4238 2131 4238 
Q 1616 4238 1336 4038 
Q 1056 3838 1056 3469 
Q 1056 3159 1242 3001 
Q 1428 2844 1947 2747 
L 2328 2669 
Q 3034 2534 3370 2195 
Q 3706 1856 3706 1288 
Q 3706 609 3251 259 
Q 2797 -91 1919 -91 
Q 1588 -91 1214 -16 
Q 841 59 441 206 
L 441 856 
Q 825 641 1194 531 
Q 1563 422 1919 422 
Q 2459 422 2753 634 
Q 3047 847 3047 1241 
Q 3047 1584 2836 1778 
Q 2625 1972 2144 2069 
L 1759 2144 
Q 1053 2284 737 2584 
Q 422 2884 422 3419 
Q 422 4038 858 4394 
Q 1294 4750 2059 4750 
Q 2388 4750 2728 4690 
Q 3069 4631 3425 4513 
z
" transform="scale(0.015625)"/>
       </defs>
       <use xlink:href="#DejaVuSans-53"/>
       <use xlink:href="#DejaVuSans-65" transform="translate(63.476562 0)"/>
       <use xlink:href="#DejaVuSans-70" transform="translate(125 0)"/>
      </g>
     </g>
    </g>
    <g id="xtick_10">
     <g id="line2d_19">
      <path d="M 535.831338 384.1975 
L 535.831338 39.3575 
" clip-path="url(#p3cfa0c3f63)" style="fill: none; stroke-dasharray: 2.96,1.28; stroke-dashoffset: 0; stroke: #b0b0b0; stroke-opacity: 0.3; stroke-width: 0.8"/>
     </g>
     <g id="line2d_20">
      <g>
       <use xlink:href="#m22b63aeb1c" x="535.831338" y="384.1975" style="stroke: #000000; stroke-width: 0.8"/>
      </g>
     </g>
     <g id="text_10">
      <!-- Oct -->
      <g transform="translate(527.186026 398.795937) scale(0.1 -0.1)">
       <defs>
        <path id="DejaVuSans-4f" d="M 2522 4238 
Q 1834 4238 1429 3725 
Q 1025 3213 1025 2328 
Q 1025 1447 1429 934 
Q 1834 422 2522 422 
Q 3209 422 3611 934 
Q 4013 1447 4013 2328 
Q 4013 3213 3611 3725 
Q 3209 4238 2522 4238 
z
M 2522 4750 
Q 3503 4750 4090 4092 
Q 4678 3434 4678 2328 
Q 4678 1225 4090 567 
Q 3503 -91 2522 -91 
Q 1538 -91 948 565 
Q 359 1222 359 2328 
Q 359 3434 948 4092 
Q 1538 4750 2522 4750 
z
" transform="scale(0.015625)"/>
        <path id="DejaVuSans-63" d="M 3122 3366 
L 3122 2828 
Q 2878 2963 2633 3030 
Q 2388 3097 2138 3097 
Q 1578 3097 1268 2742 
Q 959 2388 959 1747 
Q 959 1106 1268 751 
Q 1578 397 2138 397 
Q 2388 397 2633 464 
Q 2878 531 3122 666 
L 3122 134 
Q 2881 22 2623 -34 
Q 2366 -91 2075 -91 
Q 1284 -91 818 406 
Q 353 903 353 1747 
Q 353 2603 823 3093 
Q 1294 3584 2113 3584 
Q 2378 3584 2631 3529 
Q 2884 3475 3122 3366 
z
" transform="scale(0.015625)"/>
        <path id="DejaVuSans-74" d="M 1172 4494 
L 1172 3500 
L 2356 3500 
L 2356 3053 
L 1172 3053 
L 1172 1153 
Q 1172 725 1289 603 
Q 1406 481 1766 481 
L 2356 481 
L 2356 0 
L 1766 0 
Q 1100 0 847 248 
Q 594 497 594 1153 
L 594 3053 
L 172 3053 
L 172 3500 
L 594 3500 
L 594 4494 
L 1172 4494 
z
" transform="scale(0.015625)"/>
       </defs>
       <use xlink:href="#DejaVuSans-4f"/>
       <use xlink:href="#DejaVuSans-63" transform="translate(78.710938 0)"/>
       <use xlink:href="#DejaVuSans-74" transform="translate(133.691406 0)"/>
      </g>
     </g>
    </g>
    <g id="xtick_11">
     <g id="line2d_21">
      <path d="M 589.678802 384.1975 
L 589.678802 39.3575 
" clip-path="url(#p3cfa0c3f63)" style="fill: none; stroke-dasharray: 2.96,1.28; stroke-dashoffset: 0; stroke: #b0b0b0; stroke-opacity: 0.3; stroke-width: 0.8"/>
     </g>
     <g id="line2d_22">
      <g>
       <use xlink:href="#m22b63aeb1c" x="589.678802" y="384.1975" style="stroke: #000000; stroke-width: 0.8"/>
      </g>
     </g>
     <g id="text_11">
      <!-- Nov -->
      <g transform="translate(579.919427 398.795937) scale(0.1 -0.1)">
       <defs>
        <path id="DejaVuSans-4e" d="M 628 4666 
L 1478 4666 
L 3547 763 
L 3547 4666 
L 4159 4666 
L 4159 0 
L 3309 0 
L 1241 3903 
L 1241 0 
L 628 0 
L 628 4666 
z
" transform="scale(0.015625)"/>
        <path id="DejaVuSans-6f" d="M 1959 3097 
Q 1497 3097 1228 2736 
Q 959 2375 959 1747 
Q 959 1119 1226 758 
Q 1494 397 1959 397 
Q 2419 397 2687 759 
Q 2956 1122 2956 1747 
Q 2956 2369 2687 2733 
Q 2419 3097 1959 3097 
z
M 1959 3584 
Q 2709 3584 3137 3096 
Q 3566 2609 3566 1747 
Q 3566 888 3137 398 
Q 2709 -91 1959 -91 
Q 1206 -91 779 398 
Q 353 888 353 1747 
Q 353 2609 779 3096 
Q 1206 3584 1959 3584 
z
" transform="scale(0.015625)"/>
        <path id="DejaVuSans-76" d="M 191 3500 
L 800 3500 
L 1894 563 
L 2988 3500 
L 3597 3500 
L 2284 0 
L 1503 0 
L 191 3500 
z
" transform="scale(0.015625)"/>
       </defs>
       <use xlink:href="#DejaVuSans-4e"/>
       <use xlink:href="#DejaVuSans-6f" transform="translate(74.804688 0)"/>
       <use xlink:href="#DejaVuSans-76" transform="translate(135.986328 0)"/>
      </g>
     </g>
    </g>
    <g id="xtick_12">
     <g id="line2d_23">
      <path d="M 641.789251 384.1975 
L 641.789251 39.3575 
" clip-path="url(#p3cfa0c3f63)" style="fill: none; stroke-dasharray: 2.96,1.28; stroke-dashoffset: 0; stroke: #b0b0b0; stroke-opacity: 0.3; stroke-width: 0.8"/>
     </g>
     <g id="line2d_24">
      <g>
       <use xlink:href="#m22b63aeb1c" x="641.789251" y="384.1975" style="stroke: #000000; stroke-width: 0.8"/>
      </g>
     </g>
     <g id="text_12">
      <!-- Dec -->
      <g transform="translate(632.11347 398.795937) scale(0.1 -0.1)">
       <defs>
        <path id="DejaVuSans-44" d="M 1259 4147 
L 1259 519 
L 2022 519 
Q 2988 519 3436 956 
Q 3884 1394 3884 2338 
Q 3884 3275 3436 3711 
Q 2988 4147 2022 4147 
L 1259 4147 
z
M 628 4666 
L 1925 4666 
Q 3281 4666 3915 4102 
Q 4550 3538 4550 2338 
Q 4550 1131 3912 565 
Q 3275 0 1925 0 
L 628 0 
L 628 4666 
z
" transform="scale(0.015625)"/>
       </defs>
       <use xlink:href="#DejaVuSans-44"/>
       <use xlink:href="#DejaVuSans-65" transform="translate(77.001953 0)"/>
       <use xlink:href="#DejaVuSans-63" transform="translate(138.525391 0)"/>
      </g>
     </g>
    </g>
    <g id="xtick_13">
     <g id="line2d_25">
      <path d="M 695.636716 384.1975 
L 695.636716 39.3575 
" clip-path="url(#p3cfa0c3f63)" style="fill: none; stroke-dasharray: 2.96,1.28; stroke-dashoffset: 0; stroke: #b0b0b0; stroke-opacity: 0.3; stroke-width: 0.8"/>
     </g>
     <g id="line2d_26">
      <g>
       <use xlink:href="#m22b63aeb1c" x="695.636716" y="384.1975" style="stroke: #000000; stroke-width: 0.8"/>
      </g>
     </g>
     <g id="text_13">
      <!-- Jan -->
      <g transform="translate(687.928903 398.795937) scale(0.1 -0.1)">
       <use xlink:href="#DejaVuSans-4a"/>
       <use xlink:href="#DejaVuSans-61" transform="translate(29.492188 0)"/>
       <use xlink:href="#DejaVuSans-6e" transform="translate(90.771484 0)"/>
      </g>
     </g>
    </g>
    <g id="text_14">
     <!-- Day of the year -->
     <g transform="translate(336.388708 413.99375) scale(0.12 -0.12)">
      <defs>
       <path id="DejaVuSans-20" transform="scale(0.015625)"/>
       <path id="DejaVuSans-66" d="M 2375 4863 
L 2375 4384 
L 1825 4384 
Q 1516 4384 1395 4259 
Q 1275 4134 1275 3809 
L 1275 3500 
L 2222 3500 
L 2222 3053 
L 1275 3053 
L 1275 0 
L 697 0 
L 697 3053 
L 147 3053 
L 147 3500 
L 697 3500 
L 697 3744 
Q 697 4328 969 4595 
Q 1241 4863 1831 4863 
L 2375 4863 
z
" transform="scale(0.015625)"/>
       <path id="DejaVuSans-68" d="M 3513 2113 
L 3513 0 
L 2938 0 
L 2938 2094 
Q 2938 2591 2744 2837 
Q 2550 3084 2163 3084 
Q 1697 3084 1428 2787 
Q 1159 2491 1159 1978 
L 1159 0 
L 581 0 
L 581 4863 
L 1159 4863 
L 1159 2956 
Q 1366 3272 1645 3428 
Q 1925 3584 2291 3584 
Q 2894 3584 3203 3211 
Q 3513 2838 3513 2113 
z
" transform="scale(0.015625)"/>
      </defs>
      <use xlink:href="#DejaVuSans-44"/>
      <use xlink:href="#DejaVuSans-61" transform="translate(77.001953 0)"/>
      <use xlink:href="#DejaVuSans-79" transform="translate(138.28125 0)"/>
      <use xlink:href="#DejaVuSans-20" transform="translate(197.460938 0)"/>
      <use xlink:href="#DejaVuSans-6f" transform="translate(229.248047 0)"/>
      <use xlink:href="#DejaVuSans-66" transform="translate(290.429688 0)"/>
      <use xlink:href="#DejaVuSans-20" transform="translate(325.634766 0)"/>
      <use xlink:href="#DejaVuSans-74" transform="translate(357.421875 0)"/>
      <use xlink:href="#DejaVuSans-68" transform="translate(396.630859 0)"/>
      <use xlink:href="#DejaVuSans-65" transform="translate(460.009766 0)"/>
      <use xlink:href="#DejaVuSans-20" transform="translate(521.533203 0)"/>
      <use xlink:href="#DejaVuSans-79" transform="translate(553.320312 0)"/>
      <use xlink:href="#DejaVuSans-65" transform="translate(612.5 0)"/>
      <use xlink:href="#DejaVuSans-61" transform="translate(674.023438 0)"/>
      <use xlink:href="#DejaVuSans-72" transform="translate(735.302734 0)"/>
     </g>
    </g>
   </g>
   <g id="matplotlib.axis_2">
    <g id="ytick_1">
     <g id="line2d_27">
      <path d="M 61.62625 377.235137 
L 704.321791 377.235137 
" clip-path="url(#p3cfa0c3f63)" style="fill: none; stroke-dasharray: 2.96,1.28; stroke-dashoffset: 0; stroke: #b0b0b0; stroke-opacity: 0.3; stroke-width: 0.8"/>
     </g>
     <g id="line2d_28">
      <defs>
       <path id="m42dbc4cfc4" d="M 0 0 
L -3.5 0 
" style="stroke: #000000; stroke-width: 0.8"/>
      </defs>
      <g>
       <use xlink:href="#m42dbc4cfc4" x="61.62625" y="377.235137" style="stroke: #000000; stroke-width: 0.8"/>
      </g>
     </g>
     <g id="text_15">
      <!-- 0 -->
      <g transform="translate(48.26375 381.034356) scale(0.1 -0.1)">
       <defs>
        <path id="DejaVuSans-30" d="M 2034 4250 
Q 1547 4250 1301 3770 
Q 1056 3291 1056 2328 
Q 1056 1369 1301 889 
Q 1547 409 2034 409 
Q 2525 409 2770 889 
Q 3016 1369 3016 2328 
Q 3016 3291 2770 3770 
Q 2525 4250 2034 4250 
z
M 2034 4750 
Q 2819 4750 3233 4129 
Q 3647 3509 3647 2328 
Q 3647 1150 3233 529 
Q 2819 -91 2034 -91 
Q 1250 -91 836 529 
Q 422 1150 422 2328 
Q 422 3509 836 4129 
Q 1250 4750 2034 4750 
z
" transform="scale(0.015625)"/>
       </defs>
       <use xlink:href="#DejaVuSans-30"/>
      </g>
     </g>
    </g>
    <g id="ytick_2">
     <g id="line2d_29">
      <path d="M 61.62625 333.804516 
L 704.321791 333.804516 
" clip-path="url(#p3cfa0c3f63)" style="fill: none; stroke-dasharray: 2.96,1.28; stroke-dashoffset: 0; stroke: #b0b0b0; stroke-opacity: 0.3; stroke-width: 0.8"/>
     </g>
     <g id="line2d_30">
      <g>
       <use xlink:href="#m42dbc4cfc4" x="61.62625" y="333.804516" style="stroke: #000000; stroke-width: 0.8"/>
      </g>
     </g>
     <g id="text_16">
      <!-- 5000 -->
      <g transform="translate(29.17625 337.603735) scale(0.1 -0.1)">
       <defs>
        <path id="DejaVuSans-35" d="M 691 4666 
L 3169 4666 
L 3169 4134 
L 1269 4134 
L 1269 2991 
Q 1406 3038 1543 3061 
Q 1681 3084 1819 3084 
Q 2600 3084 3056 2656 
Q 3513 2228 3513 1497 
Q 3513 744 3044 326 
Q 2575 -91 1722 -91 
Q 1428 -91 1123 -41 
Q 819 9 494 109 
L 494 744 
Q 775 591 1075 516 
Q 1375 441 1709 441 
Q 2250 441 2565 725 
Q 2881 1009 2881 1497 
Q 2881 1984 2565 2268 
Q 2250 2553 1709 2553 
Q 1456 2553 1204 2497 
Q 953 2441 691 2322 
L 691 4666 
z
" transform="scale(0.015625)"/>
       </defs>
       <use xlink:href="#DejaVuSans-35"/>
       <use xlink:href="#DejaVuSans-30" transform="translate(63.623047 0)"/>
       <use xlink:href="#DejaVuSans-30" transform="translate(127.246094 0)"/>
       <use xlink:href="#DejaVuSans-30" transform="translate(190.869141 0)"/>
      </g>
     </g>
    </g>
    <g id="ytick_3">
     <g id="line2d_31">
      <path d="M 61.62625 290.373895 
L 704.321791 290.373895 
" clip-path="url(#p3cfa0c3f63)" style="fill: none; stroke-dasharray: 2.96,1.28; stroke-dashoffset: 0; stroke: #b0b0b0; stroke-opacity: 0.3; stroke-width: 0.8"/>
     </g>
     <g id="line2d_32">
      <g>
       <use xlink:href="#m42dbc4cfc4" x="61.62625" y="290.373895" style="stroke: #000000; stroke-width: 0.8"/>
      </g>
     </g>
     <g id="text_17">
      <!-- 10000 -->
      <g transform="translate(22.81375 294.173114) scale(0.1 -0.1)">
       <defs>
        <path id="DejaVuSans-31" d="M 794 531 
L 1825 531 
L 1825 4091 
L 703 3866 
L 703 4441 
L 1819 4666 
L 2450 4666 
L 2450 531 
L 3481 531 
L 3481 0 
L 794 0 
L 794 531 
z
" transform="scale(0.015625)"/>
       </defs>
       <use xlink:href="#DejaVuSans-31"/>
       <use xlink:href="#DejaVuSans-30" transform="translate(63.623047 0)"/>
       <use xlink:href="#DejaVuSans-30" transform="translate(127.246094 0)"/>
       <use xlink:href="#DejaVuSans-30" transform="translate(190.869141 0)"/>
       <use xlink:href="#DejaVuSans-30" transform="translate(254.492188 0)"/>
      </g>
     </g>
    </g>
    <g id="ytick_4">
     <g id="line2d_33">
      <path d="M 61.62625 246.943274 
L 704.321791 246.943274 
" clip-path="url(#p3cfa0c3f63)" style="fill: none; stroke-dasharray: 2.96,1.28; stroke-dashoffset: 0; stroke: #b0b0b0; stroke-opacity: 0.3; stroke-width: 0.8"/>
     </g>
     <g id="line2d_34">
      <g>
       <use xlink:href="#m42dbc4cfc4" x="61.62625" y="246.943274" style="stroke: #000000; stroke-width: 0.8"/>
      </g>
     </g>
     <g id="text_18">
      <!-- 15000 -->
      <g transform="translate(22.81375 250.742493) scale(0.1 -0.1)">
       <use xlink:href="#DejaVuSans-31"/>
       <use xlink:href="#DejaVuSans-35" transform="translate(63.623047 0)"/>
       <use xlink:href="#DejaVuSans-30" transform="translate(127.246094 0)"/>
       <use xlink:href="#DejaVuSans-30" transform="translate(190.869141 0)"/>
       <use xlink:href="#DejaVuSans-30" transform="translate(254.492188 0)"/>
      </g>
     </g>
    </g>
    <g id="ytick_5">
     <g id="line2d_35">
      <path d="M 61.62625 203.512653 
L 704.321791 203.512653 
" clip-path="url(#p3cfa0c3f63)" style="fill: none; stroke-dasharray: 2.96,1.28; stroke-dashoffset: 0; stroke: #b0b0b0; stroke-opacity: 0.3; stroke-width: 0.8"/>
     </g>
     <g id="line2d_36">
      <g>
       <use xlink:href="#m42dbc4cfc4" x="61.62625" y="203.512653" style="stroke: #000000; stroke-width: 0.8"/>
      </g>
     </g>
     <g id="text_19">
      <!-- 20000 -->
      <g transform="translate(22.81375 207.311872) scale(0.1 -0.1)">
       <defs>
        <path id="DejaVuSans-32" d="M 1228 531 
L 3431 531 
L 3431 0 
L 469 0 
L 469 531 
Q 828 903 1448 1529 
Q 2069 2156 2228 2338 
Q 2531 2678 2651 2914 
Q 2772 3150 2772 3378 
Q 2772 3750 2511 3984 
Q 2250 4219 1831 4219 
Q 1534 4219 1204 4116 
Q 875 4013 500 3803 
L 500 4441 
Q 881 4594 1212 4672 
Q 1544 4750 1819 4750 
Q 2544 4750 2975 4387 
Q 3406 4025 3406 3419 
Q 3406 3131 3298 2873 
Q 3191 2616 2906 2266 
Q 2828 2175 2409 1742 
Q 1991 1309 1228 531 
z
" transform="scale(0.015625)"/>
       </defs>
       <use xlink:href="#DejaVuSans-32"/>
       <use xlink:href="#DejaVuSans-30" transform="translate(63.623047 0)"/>
       <use xlink:href="#DejaVuSans-30" transform="translate(127.246094 0)"/>
       <use xlink:href="#DejaVuSans-30" transform="translate(190.869141 0)"/>
       <use xlink:href="#DejaVuSans-30" transform="translate(254.492188 0)"/>
      </g>
     </g>
    </g>
    <g id="ytick_6">
     <g id="line2d_37">
      <path d="M 61.62625 160.082032 
L 704.321791 160.082032 
" clip-path="url(#p3cfa0c3f63)" style="fill: none; stroke-dasharray: 2.96,1.28; stroke-dashoffset: 0; stroke: #b0b0b0; stroke-opacity: 0.3; stroke-width: 0.8"/>
     </g>
     <g id="line2d_38">
      <g>
       <use xlink:href="#m42dbc4cfc4" x="61.62625" y="160.082032" style="stroke: #000000; stroke-width: 0.8"/>
      </g>
     </g>
     <g id="text_20">
      <!-- 25000 -->
      <g transform="translate(22.81375 163.88125) scale(0.1 -0.1)">
       <use xlink:href="#DejaVuSans-32"/>
       <use xlink:href="#DejaVuSans-35" transform="translate(63.623047 0)"/>
       <use xlink:href="#DejaVuSans-30" transform="translate(127.246094 0)"/>
       <use xlink:href="#DejaVuSans-30" transform="translate(190.869141 0)"/>
       <use xlink:href="#DejaVuSans-30" transform="translate(254.492188 0)"/>
      </g>
     </g>
    </g>
    <g id="ytick_7">
     <g id="line2d_39">
      <path d="M 61.62625 116.651411 
L 704.321791 116.651411 
" clip-path="url(#p3cfa0c3f63)" style="fill: none; stroke-dasharray: 2.96,1.28; stroke-dashoffset: 0; stroke: #b0b0b0; stroke-opacity: 0.3; stroke-width: 0.8"/>
     </g>
     <g id="line2d_40">
      <g>
       <use xlink:href="#m42dbc4cfc4" x="61.62625" y="116.651411" style="stroke: #000000; stroke-width: 0.8"/>
      </g>
     </g>
     <g id="text_21">
      <!-- 30000 -->
      <g transform="translate(22.81375 120.450629) scale(0.1 -0.1)">
       <defs>
        <path id="DejaVuSans-33" d="M 2597 2516 
Q 3050 2419 3304 2112 
Q 3559 1806 3559 1356 
Q 3559 666 3084 287 
Q 2609 -91 1734 -91 
Q 1441 -91 1130 -33 
Q 819 25 488 141 
L 488 750 
Q 750 597 1062 519 
Q 1375 441 1716 441 
Q 2309 441 2620 675 
Q 2931 909 2931 1356 
Q 2931 1769 2642 2001 
Q 2353 2234 1838 2234 
L 1294 2234 
L 1294 2753 
L 1863 2753 
Q 2328 2753 2575 2939 
Q 2822 3125 2822 3475 
Q 2822 3834 2567 4026 
Q 2313 4219 1838 4219 
Q 1578 4219 1281 4162 
Q 984 4106 628 3988 
L 628 4550 
Q 988 4650 1302 4700 
Q 1616 4750 1894 4750 
Q 2613 4750 3031 4423 
Q 3450 4097 3450 3541 
Q 3450 3153 3228 2886 
Q 3006 2619 2597 2516 
z
" transform="scale(0.015625)"/>
       </defs>
       <use xlink:href="#DejaVuSans-33"/>
       <use xlink:href="#DejaVuSans-30" transform="translate(63.623047 0)"/>
       <use xlink:href="#DejaVuSans-30" transform="translate(127.246094 0)"/>
       <use xlink:href="#DejaVuSans-30" transform="translate(190.869141 0)"/>
       <use xlink:href="#DejaVuSans-30" transform="translate(254.492188 0)"/>
      </g>
     </g>
    </g>
    <g id="ytick_8">
     <g id="line2d_41">
      <path d="M 61.62625 73.22079 
L 704.321791 73.22079 
" clip-path="url(#p3cfa0c3f63)" style="fill: none; stroke-dasharray: 2.96,1.28; stroke-dashoffset: 0; stroke: #b0b0b0; stroke-opacity: 0.3; stroke-width: 0.8"/>
     </g>
     <g id="line2d_42">
      <g>
       <use xlink:href="#m42dbc4cfc4" x="61.62625" y="73.22079" style="stroke: #000000; stroke-width: 0.8"/>
      </g>
     </g>
     <g id="text_22">
      <!-- 35000 -->
      <g transform="translate(22.81375 77.020008) scale(0.1 -0.1)">
       <use xlink:href="#DejaVuSans-33"/>
       <use xlink:href="#DejaVuSans-35" transform="translate(63.623047 0)"/>
       <use xlink:href="#DejaVuSans-30" transform="translate(127.246094 0)"/>
       <use xlink:href="#DejaVuSans-30" transform="translate(190.869141 0)"/>
       <use xlink:href="#DejaVuSans-30" transform="translate(254.492188 0)"/>
      </g>
     </g>
    </g>
    <g id="text_23">
     <!-- Daily pedestrian count -->
     <g transform="translate(16.318125 279.793125) rotate(-90) scale(0.12 -0.12)">
      <defs>
       <path id="DejaVuSans-69" d="M 603 3500 
L 1178 3500 
L 1178 0 
L 603 0 
L 603 3500 
z
M 603 4863 
L 1178 4863 
L 1178 4134 
L 603 4134 
L 603 4863 
z
" transform="scale(0.015625)"/>
       <path id="DejaVuSans-64" d="M 2906 2969 
L 2906 4863 
L 3481 4863 
L 3481 0 
L 2906 0 
L 2906 525 
Q 2725 213 2448 61 
Q 2172 -91 1784 -91 
Q 1150 -91 751 415 
Q 353 922 353 1747 
Q 353 2572 751 3078 
Q 1150 3584 1784 3584 
Q 2172 3584 2448 3432 
Q 2725 3281 2906 2969 
z
M 947 1747 
Q 947 1113 1208 752 
Q 1469 391 1925 391 
Q 2381 391 2643 752 
Q 2906 1113 2906 1747 
Q 2906 2381 2643 2742 
Q 2381 3103 1925 3103 
Q 1469 3103 1208 2742 
Q 947 2381 947 1747 
z
" transform="scale(0.015625)"/>
       <path id="DejaVuSans-73" d="M 2834 3397 
L 2834 2853 
Q 2591 2978 2328 3040 
Q 2066 3103 1784 3103 
Q 1356 3103 1142 2972 
Q 928 2841 928 2578 
Q 928 2378 1081 2264 
Q 1234 2150 1697 2047 
L 1894 2003 
Q 2506 1872 2764 1633 
Q 3022 1394 3022 966 
Q 3022 478 2636 193 
Q 2250 -91 1575 -91 
Q 1294 -91 989 -36 
Q 684 19 347 128 
L 347 722 
Q 666 556 975 473 
Q 1284 391 1588 391 
Q 1994 391 2212 530 
Q 2431 669 2431 922 
Q 2431 1156 2273 1281 
Q 2116 1406 1581 1522 
L 1381 1569 
Q 847 1681 609 1914 
Q 372 2147 372 2553 
Q 372 3047 722 3315 
Q 1072 3584 1716 3584 
Q 2034 3584 2315 3537 
Q 2597 3491 2834 3397 
z
" transform="scale(0.015625)"/>
      </defs>
      <use xlink:href="#DejaVuSans-44"/>
      <use xlink:href="#DejaVuSans-61" transform="translate(77.001953 0)"/>
      <use xlink:href="#DejaVuSans-69" transform="translate(138.28125 0)"/>
      <use xlink:href="#DejaVuSans-6c" transform="translate(166.064453 0)"/>
      <use xlink:href="#DejaVuSans-79" transform="translate(193.847656 0)"/>
      <use xlink:href="#DejaVuSans-20" transform="translate(253.027344 0)"/>
      <use xlink:href="#DejaVuSans-70" transform="translate(284.814453 0)"/>
      <use xlink:href="#DejaVuSans-65" transform="translate(348.291016 0)"/>
      <use xlink:href="#DejaVuSans-64" transform="translate(409.814453 0)"/>
      <use xlink:href="#DejaVuSans-65" transform="translate(473.291016 0)"/>
      <use xlink:href="#DejaVuSans-73" transform="translate(534.814453 0)"/>
      <use xlink:href="#DejaVuSans-74" transform="translate(586.914062 0)"/>
      <use xlink:href="#DejaVuSans-72" transform="translate(626.123047 0)"/>
      <use xlink:href="#DejaVuSans-69" transform="translate(667.236328 0)"/>
      <use xlink:href="#DejaVuSans-61" transform="translate(695.019531 0)"/>
      <use xlink:href="#DejaVuSans-6e" transform="translate(756.298828 0)"/>
      <use xlink:href="#DejaVuSans-20" transform="translate(819.677734 0)"/>
      <use xlink:href="#DejaVuSans-63" transform="translate(851.464844 0)"/>
      <use xlink:href="#DejaVuSans-6f" transform="translate(906.445312 0)"/>
      <use xlink:href="#DejaVuSans-75" transform="translate(967.626953 0)"/>
      <use xlink:href="#DejaVuSans-6e" transform="translate(1031.005859 0)"/>
      <use xlink:href="#DejaVuSans-74" transform="translate(1094.384766 0)"/>
     </g>
    </g>
   </g>
   <g id="line2d_43">
    <path d="M 63.363265 200.880757 
L 65.10028 171.58246 
L 66.837295 180.720263 
L 68.57431 223.786067 
L 70.311325 191.39551 
L 72.04834 214.778556 
L 73.785355 180.54654 
L 75.52237 172.407642 
L 77.259385 160.498966 
L 78.9964 164.068963 
L 80.733415 163.860496 
L 82.47043 187.460695 
L 84.207445 217.314904 
L 85.94446 188.216388 
L 87.681475 184.87223 
L 89.41849 167.586843 
L 91.155505 168.212244 
L 92.89252 156.47729 
L 94.629535 172.798518 
L 96.366549 203.903528 
L 98.103564 178.722454 
L 99.840579 178.939607 
L 101.577594 167.25677 
L 103.314609 187.912374 
L 105.051624 185.167558 
L 106.788639 186.001426 
L 108.525654 202.522435 
L 110.262669 248.124587 
L 111.999684 196.607184 
L 113.736699 213.162937 
L 115.473714 171.165526 
L 117.210729 146.305839 
L 118.947744 221.353952 
L 120.684759 254.439399 
L 122.421774 184.264202 
L 124.158789 172.407642 
L 125.895804 191.352079 
L 127.632819 162.644438 
L 129.369834 144.855256 
L 131.106849 189.805949 
L 132.843864 185.619237 
L 134.580879 170.748592 
L 136.317894 191.056751 
L 138.054909 158.153712 
L 139.791924 147.756421 
L 141.528939 144.090877 
L 143.265954 178.965666 
L 145.002969 200.776524 
L 146.739984 164.242685 
L 148.476999 167.282829 
L 150.214014 161.906118 
L 151.951029 149.32861 
L 153.688044 120.030313 
L 155.425059 138.59256 
L 157.162074 183.221867 
L 158.899089 175.647566 
L 160.636104 161.619476 
L 162.373119 168.203558 
L 164.110133 173.884283 
L 165.847148 158.726996 
L 167.584163 207.50827 
L 169.321178 225.375627 
L 171.058193 169.593338 
L 172.795208 166.640056 
L 174.532223 163.087431 
L 176.269238 150.579412 
L 178.006253 135.891176 
L 179.743268 155.461014 
L 181.480283 179.208877 
L 183.217298 210.531041 
L 184.954313 172.23392 
L 186.691328 165.458743 
L 188.428343 149.450216 
L 190.165358 121.593815 
L 193.639388 202.739588 
L 195.376403 172.485817 
L 197.113418 177.853842 
L 198.850433 173.432605 
L 200.587448 159.560864 
L 202.324463 140.416647 
L 204.061478 191.690838 
L 205.798493 213.571185 
L 207.535508 185.376025 
L 209.272523 178.044937 
L 211.009538 176.168734 
L 212.746553 157.962617 
L 214.483568 155.704225 
L 216.220583 193.25434 
L 217.957598 211.173814 
L 219.694613 194.279303 
L 221.431628 186.444419 
L 223.168643 183.725662 
L 224.905658 165.884363 
L 226.642673 143.291754 
L 228.379688 174.553115 
L 230.116703 200.541998 
L 231.853717 184.012304 
L 233.590732 173.884283 
L 235.327747 175.882092 
L 237.064762 159.248164 
L 238.801777 125.268046 
L 242.275807 196.702731 
L 244.012822 175.951581 
L 245.749837 173.484721 
L 247.486852 166.718231 
L 249.223867 132.477529 
L 250.960882 195.469302 
L 252.697897 150.240653 
L 254.434912 186.68763 
L 256.171927 218.722056 
L 257.908942 175.117713 
L 259.645957 166.761661 
L 261.382972 205.067469 
L 263.119987 170.018958 
L 264.857002 185.367339 
L 266.594017 229.631828 
L 268.331032 197.050176 
L 270.068047 186.739747 
L 271.805062 171.017862 
L 273.542077 185.1415 
L 275.279092 138.792341 
L 277.016107 188.34668 
L 278.753122 213.058703 
L 280.490137 194.253244 
L 282.227152 184.29026 
L 283.964167 188.216388 
L 285.701182 177.245813 
L 287.438197 192.003538 
L 289.175212 170.496695 
L 290.912227 215.282351 
L 292.649242 192.350983 
L 294.386257 190.188138 
L 296.123272 191.543174 
L 297.860287 187.321717 
L 299.597301 146.314525 
L 303.071331 210.583158 
L 304.808346 198.170686 
L 306.545361 188.433541 
L 308.282376 181.979751 
L 310.019391 175.977639 
L 311.756406 148.772698 
L 313.493421 191.43894 
L 315.230436 222.118331 
L 316.967451 212.433302 
L 318.704466 200.003459 
L 320.441481 220.64169 
L 322.178496 191.12624 
L 323.915511 176.898368 
L 325.652526 168.785528 
L 327.389541 220.268186 
L 329.126556 224.176942 
L 330.863571 188.442227 
L 332.600586 185.584492 
L 334.337601 174.622604 
L 336.074616 138.635991 
L 337.811631 172.911437 
L 339.548646 192.159888 
L 341.285661 235.607882 
L 343.022676 193.297771 
L 344.759691 209.280239 
L 348.233721 159.734587 
L 349.970736 190.761422 
L 351.707751 228.042268 
L 353.444766 194.678864 
L 355.181781 215.568993 
L 356.918796 193.063245 
L 358.655811 195.22609 
L 360.392826 153.993059 
L 362.129841 195.425871 
L 363.866856 223.664461 
L 365.603871 197.241271 
L 367.340886 189.389015 
L 369.0779 178.835374 
L 370.814915 165.510859 
L 372.55193 140.156063 
L 374.288945 220.294245 
L 376.02596 198.031708 
L 377.762975 185.923251 
L 379.49999 182.014495 
L 381.237005 162.427285 
L 382.97402 162.991883 
L 384.711035 121.263743 
L 386.44805 174.031947 
L 388.185065 221.388696 
L 389.92208 183.004714 
L 391.659095 175.430413 
L 393.39611 179.26968 
L 395.133125 172.833262 
L 396.87014 172.807204 
L 398.607155 197.666891 
L 400.34417 236.641531 
L 402.081185 190.205511 
L 403.8182 197.666891 
L 405.555215 189.137117 
L 407.29223 166.718231 
L 409.029245 141.728251 
L 410.76626 174.987421 
L 412.503275 203.469222 
L 414.24029 188.016607 
L 415.977305 214.483228 
L 417.71432 175.109027 
L 419.451335 171.651949 
L 421.18835 179.417344 
L 422.925365 162.653124 
L 424.66238 193.871055 
L 426.399395 195.000251 
L 428.13641 192.976384 
L 429.873425 178.253404 
L 431.61044 173.945086 
L 433.347455 139.739129 
L 436.821484 206.934986 
L 438.558499 178.774571 
L 440.295514 193.349887 
L 442.032529 175.560705 
L 443.769544 183.187122 
L 445.506559 176.0645 
L 447.243574 186.939528 
L 448.980589 217.236729 
L 450.717604 182.266393 
L 452.454619 178.626907 
L 454.191634 180.789752 
L 455.928649 166.005968 
L 457.665664 167.421807 
L 459.402679 151.56963 
L 461.139694 225.697014 
L 462.876709 200.94156 
L 464.613724 182.909166 
L 466.350739 178.279462 
L 468.087754 167.239398 
L 469.824769 113.489661 
L 471.561784 144.716278 
L 473.298799 204.919805 
L 475.035814 187.243542 
L 476.772829 184.55953 
L 478.509844 224.090081 
L 480.246859 165.154728 
L 481.983874 118.73608 
L 483.720889 164.659619 
L 485.457904 225.227963 
L 487.194919 190.136022 
L 488.931934 180.468365 
L 490.668949 180.65946 
L 492.405964 165.901735 
L 494.142979 154.253642 
L 495.879994 209.810093 
L 497.617009 235.112773 
L 499.354024 209.74929 
L 501.091039 187.139309 
L 502.828054 169.801805 
L 504.565068 165.380567 
L 506.302083 140.295041 
L 508.039098 165.232903 
L 509.776113 230.847886 
L 511.513128 197.831928 
L 513.250143 189.719088 
L 514.987158 177.5672 
L 516.724173 160.307871 
L 518.461188 117.641629 
L 520.198203 201.384552 
L 521.935218 204.233601 
L 523.672233 191.777699 
L 525.409248 177.14158 
L 527.146263 157.693348 
L 528.883278 107.748133 
L 530.620293 202.131559 
L 532.357308 198.770029 
L 534.094323 209.818779 
L 535.831338 176.0645 
L 537.568353 151.925761 
L 539.305368 143.534965 
L 541.042383 142.822703 
L 542.779398 158.301376 
L 544.516413 150.796565 
L 546.253428 202.253165 
L 547.990443 165.780129 
L 549.727458 190.057846 
L 551.464473 172.39027 
L 553.201488 163.348014 
L 554.938503 126.623081 
L 556.675518 138.86183 
L 558.412533 190.917773 
L 560.149548 177.419536 
L 561.886563 181.606248 
L 565.360593 195.625652 
L 567.097608 139.191903 
L 568.834623 192.437844 
L 570.571638 200.472509 
L 572.308652 176.898368 
L 574.045667 168.707353 
L 575.782682 157.432764 
L 577.519697 166.153633 
L 579.256712 149.632624 
L 580.993727 189.62354 
L 582.730742 210.148852 
L 584.467757 171.643263 
L 586.204772 177.83647 
L 587.941787 167.161223 
L 589.678802 176.689901 
L 591.415817 160.637944 
L 593.152832 222.066214 
L 594.889847 217.59286 
L 596.626862 185.845076 
L 598.363877 228.450515 
L 600.100892 171.148154 
L 601.837907 205.136958 
L 603.574922 174.379392 
L 605.311937 191.777699 
L 607.048952 201.037107 
L 608.785967 176.681215 
L 610.522982 187.842885 
L 612.259997 162.601008 
L 615.734027 124.859798 
L 617.471042 152.047367 
L 619.208057 195.304265 
L 620.945072 153.92357 
L 622.682087 147.773794 
L 624.419102 157.215611 
L 626.156117 165.675896 
L 627.893132 117.693746 
L 629.630147 142.301535 
L 631.367162 185.045953 
L 633.104177 156.833421 
L 634.841192 157.458822 
L 636.578207 145.15927 
L 638.315222 114.123748 
L 640.052236 85.198955 
L 643.526266 204.294404 
L 645.263281 171.547716 
L 647.000296 167.352318 
L 648.737311 156.703129 
L 650.474326 125.563374 
L 652.211341 120.438561 
L 653.948356 153.906197 
L 655.685371 176.0645 
L 657.422386 179.608439 
L 659.159401 145.558832 
L 660.896416 142.770586 
L 662.633431 130.827165 
L 664.370446 121.637246 
L 666.107461 145.471971 
L 667.844476 174.179611 
L 669.581491 131.417822 
L 671.318506 138.59256 
L 673.055521 171.31319 
L 674.792536 114.332215 
L 676.529551 188.251133 
L 678.266566 151.126638 
L 680.003581 148.94642 
L 681.740596 107.079302 
L 683.477611 138.427524 
L 685.214626 238.022624 
L 686.951641 55.032045 
L 688.688656 145.246132 
L 690.425671 176.611726 
L 692.162686 193.193537 
L 693.899701 222.717673 
L 695.636716 90.506177 
L 695.636716 90.506177 
" clip-path="url(#p3cfa0c3f63)" style="fill: none; stroke: #0d6efc; stroke-opacity: 0.8; stroke-width: 2.5; stroke-linecap: square"/>
   </g>
   <g id="line2d_44">
    <path d="M 63.363265 163.417503 
L 65.10028 189.397701 
L 66.837295 208.151043 
L 68.57431 236.076932 
L 70.311325 250.191884 
L 72.04834 241.679483 
L 73.785355 200.906816 
L 75.52237 210.565786 
L 77.259385 208.950167 
L 78.9964 208.368196 
L 80.733415 212.763375 
L 82.47043 251.373197 
L 84.207445 210.461552 
L 85.94446 200.203239 
L 87.681475 211.304106 
L 89.41849 175.995011 
L 91.155505 180.598657 
L 92.89252 194.044777 
L 94.629535 223.247527 
L 96.366549 222.005411 
L 98.103564 203.712434 
L 99.840579 199.725503 
L 103.314609 183.586684 
L 105.051624 186.088288 
L 106.788639 209.367101 
L 108.525654 271.229677 
L 110.262669 207.525642 
L 111.999684 212.3725 
L 113.736699 206.248782 
L 115.473714 202.982799 
L 117.210729 213.927316 
L 118.947744 251.460058 
L 120.684759 246.109406 
L 122.421774 238.543792 
L 124.158789 217.801327 
L 125.895804 209.089145 
L 127.632819 186.765805 
L 129.369834 170.939687 
L 131.106849 204.45944 
L 132.843864 218.878407 
L 134.580879 212.181405 
L 136.317894 217.740524 
L 138.054909 217.86213 
L 139.791924 182.075298 
L 141.528939 194.444339 
L 143.265954 211.304106 
L 145.002969 214.109724 
L 146.739984 203.347616 
L 148.476999 203.052288 
L 150.214014 181.710481 
L 151.951029 178.818002 
L 153.688044 179.330483 
L 155.425059 201.879661 
L 157.162074 202.826449 
L 158.899089 183.543253 
L 160.636104 198.961124 
L 162.373119 171.069979 
L 164.110133 165.024436 
L 165.847148 151.99525 
L 167.584163 184.906975 
L 169.321178 198.040395 
L 171.058193 194.974193 
L 172.795208 193.688646 
L 174.532223 179.260994 
L 176.269238 168.863703 
L 178.006253 165.432684 
L 179.743268 181.945006 
L 181.480283 231.386425 
L 183.217298 211.694982 
L 184.954313 210.114107 
L 186.691328 166.475019 
L 188.428343 171.85173 
L 190.165358 180.859241 
L 191.902373 251.798817 
L 193.639388 179.547636 
L 195.376403 178.852746 
L 197.113418 188.372738 
L 198.850433 207.864401 
L 202.324463 145.793357 
L 204.061478 183.612742 
L 205.798493 217.801327 
L 207.535508 200.993677 
L 209.272523 205.788417 
L 211.009538 175.508588 
L 212.746553 158.049479 
L 214.483568 158.961522 
L 216.220583 198.648423 
L 217.957598 212.137974 
L 219.694613 195.417185 
L 221.431628 200.924188 
L 223.168643 204.268346 
L 224.905658 178.070995 
L 226.642673 159.986484 
L 228.379688 199.629955 
L 230.116703 207.039219 
L 231.853717 184.820113 
L 233.590732 174.813698 
L 235.327747 168.672609 
L 237.064762 159.048383 
L 238.801777 159.500061 
L 240.538792 185.237047 
L 242.275807 196.859082 
L 244.012822 171.261074 
L 245.749837 175.63888 
L 247.486852 144.342775 
L 249.223867 202.287909 
L 250.960882 140.529566 
L 252.697897 183.352159 
L 254.434912 217.071693 
L 256.171927 192.889523 
L 257.908942 187.104564 
L 259.645957 167.569471 
L 261.382972 212.137974 
L 263.119987 168.568375 
L 264.857002 213.701477 
L 266.594017 204.928491 
L 268.331032 193.09799 
L 270.068047 175.048224 
L 271.805062 176.620412 
L 273.542077 167.004873 
L 275.279092 155.530503 
L 277.016107 186.930842 
L 278.753122 204.659221 
L 280.490137 198.353095 
L 282.227152 216.185708 
L 283.964167 187.478068 
L 285.701182 169.176404 
L 287.438197 147.452407 
L 290.912227 211.45177 
L 292.649242 192.98507 
L 294.386257 198.622365 
L 296.123272 186.80055 
L 297.860287 153.332913 
L 299.597301 200.09032 
L 301.334316 189.397701 
L 303.071331 209.558195 
L 304.808346 194.852587 
L 306.545361 197.249957 
L 308.282376 183.569312 
L 310.019391 183.161064 
L 311.756406 138.088765 
L 313.493421 180.789752 
L 315.230436 217.367021 
L 316.967451 229.327814 
L 318.704466 216.220453 
L 320.441481 185.515003 
L 322.178496 175.725741 
L 323.915511 147.452407 
L 325.652526 200.637546 
L 327.389541 281.33164 
L 329.126556 230.03139 
L 330.863571 182.561721 
L 332.600586 186.322813 
L 334.337601 199.117474 
L 336.074616 361.044202 
L 337.811631 179.999315 
L 339.548646 227.538472 
L 341.285661 212.033741 
L 343.022676 203.773237 
L 344.759691 197.119665 
L 346.496706 174.839757 
L 348.233721 182.09267 
L 349.970736 368.522955 
L 351.707751 229.527595 
L 353.444766 209.393159 
L 355.181781 195.868863 
L 356.918796 196.285797 
L 358.655811 358.056175 
L 360.392826 164.225313 
L 362.129841 197.232585 
L 363.866856 219.312713 
L 365.603871 211.981624 
L 367.340886 244.28532 
L 369.0779 184.767997 
L 370.814915 177.932017 
L 372.55193 156.894224 
L 374.288945 204.815571 
L 376.02596 368.366604 
L 377.762975 213.22374 
L 379.49999 257.479543 
L 381.237005 364.822666 
L 382.97402 166.257866 
L 384.711035 141.988835 
L 386.44805 179.790848 
L 388.185065 178.870118 
L 389.92208 191.056751 
L 391.659095 179.339169 
L 393.39611 184.159968 
L 395.133125 158.909405 
L 396.87014 137.845554 
L 398.607155 230.821827 
L 400.34417 188.442227 
L 402.081185 176.768076 
L 403.8182 163.017942 
L 405.555215 168.029835 
L 407.29223 140.807522 
L 409.029245 169.489104 
L 410.76626 194.114266 
L 412.503275 211.460456 
L 414.24029 232.090001 
L 415.977305 202.479004 
L 417.71432 177.584572 
L 419.451335 165.728012 
L 421.18835 166.839836 
L 422.925365 214.92622 
L 424.66238 219.9468 
L 426.399395 204.607104 
L 428.13641 200.333531 
L 431.61044 168.750784 
L 433.347455 150.883426 
L 435.08447 165.606407 
L 436.821484 210.704764 
L 438.558499 366.681496 
L 440.295514 200.220612 
L 442.032529 167.230712 
L 445.506559 142.883506 
L 447.243574 154.583715 
L 448.980589 197.328132 
L 450.717604 222.18782 
L 452.454619 178.018878 
L 454.191634 163.122175 
L 455.928649 191.143612 
L 457.665664 152.611965 
L 459.402679 177.219755 
L 461.139694 210.28783 
L 464.613724 172.798518 
L 466.350739 160.403418 
L 468.087754 155.382839 
L 469.824769 128.794612 
L 471.561784 164.581444 
L 475.035814 227.607961 
L 476.772829 203.99039 
L 478.509844 187.521498 
L 480.246859 199.247766 
L 481.983874 185.549748 
L 483.720889 234.652408 
L 487.194919 206.483307 
L 488.931934 206.101118 
L 490.668949 203.999076 
L 494.142979 145.749927 
L 495.879994 210.652647 
L 497.617009 208.759072 
L 499.354024 209.705859 
L 501.091039 218.461473 
L 502.828054 203.382361 
L 504.565068 184.854858 
L 506.302083 176.854938 
L 508.039098 195.130543 
L 509.776113 212.155346 
L 511.513128 221.414755 
L 513.250143 212.25958 
L 514.987158 183.604056 
L 516.724173 181.171941 
L 518.461188 169.358812 
L 520.198203 205.440972 
L 521.935218 213.909943 
L 523.672233 187.486754 
L 525.409248 203.034916 
L 527.146263 156.103787 
L 528.883278 184.524785 
L 530.620293 186.37493 
L 532.357308 201.671194 
L 534.094323 186.791864 
L 535.831338 191.464999 
L 537.568353 175.673625 
L 539.305368 185.367339 
L 541.042383 156.824735 
L 542.779398 138.853144 
L 544.516413 198.709226 
L 546.253428 198.43127 
L 547.990443 145.246132 
L 549.727458 155.070138 
L 551.464473 142.970367 
L 553.201488 135.630592 
L 554.938503 121.220312 
L 556.675518 171.955964 
L 558.412533 181.267489 
L 560.149548 171.96465 
L 561.886563 166.223122 
L 563.623578 167.404434 
L 565.360593 154.974591 
L 567.097608 128.838043 
L 568.834623 187.156681 
L 570.571638 207.108708 
L 572.308652 176.142675 
L 574.045667 225.410372 
L 575.782682 170.401147 
L 577.519697 154.383934 
L 579.256712 153.914884 
L 580.993727 240.437367 
L 582.730742 216.507095 
L 584.467757 194.75704 
L 586.204772 179.773475 
L 587.941787 158.275318 
L 589.678802 168.542317 
L 591.415817 144.238541 
L 594.889847 245.24948 
L 596.626862 225.844678 
L 598.363877 197.597402 
L 600.100892 190.448722 
L 601.837907 193.888427 
L 603.574922 270.725882 
L 605.311937 199.351999 
L 607.048952 226.843582 
L 608.785967 218.98264 
L 610.522982 186.218579 
L 612.259997 176.29034 
L 613.997012 157.684661 
L 615.734027 140.295041 
L 617.471042 212.963156 
L 619.208057 215.438701 
L 620.945072 189.371643 
L 622.682087 185.150186 
L 624.419102 171.834358 
L 626.156117 160.142835 
L 627.893132 143.083287 
L 629.630147 188.146899 
L 631.367162 193.601785 
L 633.104177 182.422743 
L 634.841192 192.620253 
L 636.578207 162.123271 
L 640.052236 137.367817 
L 641.789251 178.913549 
L 643.526266 207.325861 
L 645.263281 190.631131 
L 647.000296 179.122016 
L 648.737311 171.512971 
L 650.474326 151.109265 
L 652.211341 166.448961 
L 653.948356 155.252547 
L 655.685371 192.255436 
L 657.422386 182.144787 
L 659.159401 176.264281 
L 660.896416 155.990867 
L 662.633431 166.51845 
L 664.370446 135.309205 
L 666.107461 160.055973 
L 667.844476 189.154489 
L 669.581491 171.069979 
L 671.318506 175.32618 
L 673.055521 197.249957 
L 674.792536 166.40553 
L 676.529551 130.575268 
L 678.266566 231.282192 
L 680.003581 140.277669 
L 681.740596 126.049797 
L 683.477611 149.75423 
L 685.214626 227.147597 
L 686.951641 84.399831 
L 688.688656 132.903149 
L 690.425671 161.002761 
L 692.162686 204.780827 
L 693.899701 178.600849 
L 695.636716 106.332295 
L 695.636716 106.332295 
" clip-path="url(#p3cfa0c3f63)" style="fill: none; stroke: #83c966; stroke-opacity: 0.8; stroke-width: 2.5; stroke-linecap: square"/>
   </g>
   <g id="patch_3">
    <path d="M 61.62625 384.1975 
L 61.62625 39.3575 
" style="fill: none; stroke: #000000; stroke-width: 0.8; stroke-linejoin: miter; stroke-linecap: square"/>
   </g>
   <g id="patch_4">
    <path d="M 61.62625 384.1975 
L 704.321791 384.1975 
" style="fill: none; stroke: #000000; stroke-width: 0.8; stroke-linejoin: miter; stroke-linecap: square"/>
   </g>
   <g id="text_24">
    <!-- Pedestrian Traffic at Melbourne Central-Elizabeth St (East) -->
    <g transform="translate(150.50902 19.3575) scale(0.16 -0.16)">
     <defs>
      <path id="DejaVuSans-50" d="M 1259 4147 
L 1259 2394 
L 2053 2394 
Q 2494 2394 2734 2622 
Q 2975 2850 2975 3272 
Q 2975 3691 2734 3919 
Q 2494 4147 2053 4147 
L 1259 4147 
z
M 628 4666 
L 2053 4666 
Q 2838 4666 3239 4311 
Q 3641 3956 3641 3272 
Q 3641 2581 3239 2228 
Q 2838 1875 2053 1875 
L 1259 1875 
L 1259 0 
L 628 0 
L 628 4666 
z
" transform="scale(0.015625)"/>
      <path id="DejaVuSans-54" d="M -19 4666 
L 3928 4666 
L 3928 4134 
L 2272 4134 
L 2272 0 
L 1638 0 
L 1638 4134 
L -19 4134 
L -19 4666 
z
" transform="scale(0.015625)"/>
      <path id="DejaVuSans-43" d="M 4122 4306 
L 4122 3641 
Q 3803 3938 3442 4084 
Q 3081 4231 2675 4231 
Q 1875 4231 1450 3742 
Q 1025 3253 1025 2328 
Q 1025 1406 1450 917 
Q 1875 428 2675 428 
Q 3081 428 3442 575 
Q 3803 722 4122 1019 
L 4122 359 
Q 3791 134 3420 21 
Q 3050 -91 2638 -91 
Q 1578 -91 968 557 
Q 359 1206 359 2328 
Q 359 3453 968 4101 
Q 1578 4750 2638 4750 
Q 3056 4750 3426 4639 
Q 3797 4528 4122 4306 
z
" transform="scale(0.015625)"/>
      <path id="DejaVuSans-2d" d="M 313 2009 
L 1997 2009 
L 1997 1497 
L 313 1497 
L 313 2009 
z
" transform="scale(0.015625)"/>
      <path id="DejaVuSans-45" d="M 628 4666 
L 3578 4666 
L 3578 4134 
L 1259 4134 
L 1259 2753 
L 3481 2753 
L 3481 2222 
L 1259 2222 
L 1259 531 
L 3634 531 
L 3634 0 
L 628 0 
L 628 4666 
z
" transform="scale(0.015625)"/>
      <path id="DejaVuSans-7a" d="M 353 3500 
L 3084 3500 
L 3084 2975 
L 922 459 
L 3084 459 
L 3084 0 
L 275 0 
L 275 525 
L 2438 3041 
L 353 3041 
L 353 3500 
z
" transform="scale(0.015625)"/>
      <path id="DejaVuSans-28" d="M 1984 4856 
Q 1566 4138 1362 3434 
Q 1159 2731 1159 2009 
Q 1159 1288 1364 580 
Q 1569 -128 1984 -844 
L 1484 -844 
Q 1016 -109 783 600 
Q 550 1309 550 2009 
Q 550 2706 781 3412 
Q 1013 4119 1484 4856 
L 1984 4856 
z
" transform="scale(0.015625)"/>
      <path id="DejaVuSans-29" d="M 513 4856 
L 1013 4856 
Q 1481 4119 1714 3412 
Q 1947 2706 1947 2009 
Q 1947 1309 1714 600 
Q 1481 -109 1013 -844 
L 513 -844 
Q 928 -128 1133 580 
Q 1338 1288 1338 2009 
Q 1338 2731 1133 3434 
Q 928 4138 513 4856 
z
" transform="scale(0.015625)"/>
     </defs>
     <use xlink:href="#DejaVuSans-50"/>
     <use xlink:href="#DejaVuSans-65" transform="translate(56.677734 0)"/>
     <use xlink:href="#DejaVuSans-64" transform="translate(118.201172 0)"/>
     <use xlink:href="#DejaVuSans-65" transform="translate(181.677734 0)"/>
     <use xlink:href="#DejaVuSans-73" transform="translate(243.201172 0)"/>
     <use xlink:href="#DejaVuSans-74" transform="translate(295.300781 0)"/>
     <use xlink:href="#DejaVuSans-72" transform="translate(334.509766 0)"/>
     <use xlink:href="#DejaVuSans-69" transform="translate(375.623047 0)"/>
     <use xlink:href="#DejaVuSans-61" transform="translate(403.40625 0)"/>
     <use xlink:href="#DejaVuSans-6e" transform="translate(464.685547 0)"/>
     <use xlink:href="#DejaVuSans-20" transform="translate(528.064453 0)"/>
     <use xlink:href="#DejaVuSans-54" transform="translate(559.851562 0)"/>
     <use xlink:href="#DejaVuSans-72" transform="translate(606.185547 0)"/>
     <use xlink:href="#DejaVuSans-61" transform="translate(647.298828 0)"/>
     <use xlink:href="#DejaVuSans-66" transform="translate(708.578125 0)"/>
     <use xlink:href="#DejaVuSans-66" transform="translate(743.783203 0)"/>
     <use xlink:href="#DejaVuSans-69" transform="translate(778.988281 0)"/>
     <use xlink:href="#DejaVuSans-63" transform="translate(806.771484 0)"/>
     <use xlink:href="#DejaVuSans-20" transform="translate(861.751953 0)"/>
     <use xlink:href="#DejaVuSans-61" transform="translate(893.539062 0)"/>
     <use xlink:href="#DejaVuSans-74" transform="translate(954.818359 0)"/>
     <use xlink:href="#DejaVuSans-20" transform="translate(994.027344 0)"/>
     <use xlink:href="#DejaVuSans-4d" transform="translate(1025.814453 0)"/>
     <use xlink:href="#DejaVuSans-65" transform="translate(1112.09375 0)"/>
     <use xlink:href="#DejaVuSans-6c" transform="translate(1173.617188 0)"/>
     <use xlink:href="#DejaVuSans-62" transform="translate(1201.400391 0)"/>
     <use xlink:href="#DejaVuSans-6f" transform="translate(1264.876953 0)"/>
     <use xlink:href="#DejaVuSans-75" transform="translate(1326.058594 0)"/>
     <use xlink:href="#DejaVuSans-72" transform="translate(1389.4375 0)"/>
     <use xlink:href="#DejaVuSans-6e" transform="translate(1428.800781 0)"/>
     <use xlink:href="#DejaVuSans-65" transform="translate(1492.179688 0)"/>
     <use xlink:href="#DejaVuSans-20" transform="translate(1553.703125 0)"/>
     <use xlink:href="#DejaVuSans-43" transform="translate(1585.490234 0)"/>
     <use xlink:href="#DejaVuSans-65" transform="translate(1655.314453 0)"/>
     <use xlink:href="#DejaVuSans-6e" transform="translate(1716.837891 0)"/>
     <use xlink:href="#DejaVuSans-74" transform="translate(1780.216797 0)"/>
     <use xlink:href="#DejaVuSans-72" transform="translate(1819.425781 0)"/>
     <use xlink:href="#DejaVuSans-61" transform="translate(1860.539062 0)"/>
     <use xlink:href="#DejaVuSans-6c" transform="translate(1921.818359 0)"/>
     <use xlink:href="#DejaVuSans-2d" transform="translate(1949.601562 0)"/>
     <use xlink:href="#DejaVuSans-45" transform="translate(1985.685547 0)"/>
     <use xlink:href="#DejaVuSans-6c" transform="translate(2048.869141 0)"/>
     <use xlink:href="#DejaVuSans-69" transform="translate(2076.652344 0)"/>
     <use xlink:href="#DejaVuSans-7a" transform="translate(2104.435547 0)"/>
     <use xlink:href="#DejaVuSans-61" transform="translate(2156.925781 0)"/>
     <use xlink:href="#DejaVuSans-62" transform="translate(2218.205078 0)"/>
     <use xlink:href="#DejaVuSans-65" transform="translate(2281.681641 0)"/>
     <use xlink:href="#DejaVuSans-74" transform="translate(2343.205078 0)"/>
     <use xlink:href="#DejaVuSans-68" transform="translate(2382.414062 0)"/>
     <use xlink:href="#DejaVuSans-20" transform="translate(2445.792969 0)"/>
     <use xlink:href="#DejaVuSans-53" transform="translate(2477.580078 0)"/>
     <use xlink:href="#DejaVuSans-74" transform="translate(2541.056641 0)"/>
     <use xlink:href="#DejaVuSans-20" transform="translate(2580.265625 0)"/>
     <use xlink:href="#DejaVuSans-28" transform="translate(2612.052734 0)"/>
     <use xlink:href="#DejaVuSans-45" transform="translate(2651.066406 0)"/>
     <use xlink:href="#DejaVuSans-61" transform="translate(2714.25 0)"/>
     <use xlink:href="#DejaVuSans-73" transform="translate(2775.529297 0)"/>
     <use xlink:href="#DejaVuSans-74" transform="translate(2827.628906 0)"/>
     <use xlink:href="#DejaVuSans-29" transform="translate(2866.837891 0)"/>
    </g>
   </g>
   <g id="legend_1">
    <g id="patch_5">
     <path d="M 69.32625 80.449375 
L 132.52125 80.449375 
Q 134.72125 80.449375 134.72125 78.249375 
L 134.72125 47.0575 
Q 134.72125 44.8575 132.52125 44.8575 
L 69.32625 44.8575 
Q 67.12625 44.8575 67.12625 47.0575 
L 67.12625 78.249375 
Q 67.12625 80.449375 69.32625 80.449375 
z
" style="fill: #ffffff; opacity: 0.95; stroke: #cccccc; stroke-linejoin: miter"/>
    </g>
    <g id="line2d_45">
     <path d="M 71.52625 53.765781 
L 82.52625 53.765781 
L 93.52625 53.765781 
" style="fill: none; stroke: #0d6efc; stroke-opacity: 0.8; stroke-width: 2.5; stroke-linecap: square"/>
    </g>
    <g id="text_25">
     <!-- 2019 -->
     <g transform="translate(102.32625 57.615781) scale(0.11 -0.11)">
      <defs>
       <path id="DejaVuSans-39" d="M 703 97 
L 703 672 
Q 941 559 1184 500 
Q 1428 441 1663 441 
Q 2288 441 2617 861 
Q 2947 1281 2994 2138 
Q 2813 1869 2534 1725 
Q 2256 1581 1919 1581 
Q 1219 1581 811 2004 
Q 403 2428 403 3163 
Q 403 3881 828 4315 
Q 1253 4750 1959 4750 
Q 2769 4750 3195 4129 
Q 3622 3509 3622 2328 
Q 3622 1225 3098 567 
Q 2575 -91 1691 -91 
Q 1453 -91 1209 -44 
Q 966 3 703 97 
z
M 1959 2075 
Q 2384 2075 2632 2365 
Q 2881 2656 2881 3163 
Q 2881 3666 2632 3958 
Q 2384 4250 1959 4250 
Q 1534 4250 1286 3958 
Q 1038 3666 1038 3163 
Q 1038 2656 1286 2365 
Q 1534 2075 1959 2075 
z
" transform="scale(0.015625)"/>
      </defs>
      <use xlink:href="#DejaVuSans-32"/>
      <use xlink:href="#DejaVuSans-30" transform="translate(63.623047 0)"/>
      <use xlink:href="#DejaVuSans-31" transform="translate(127.246094 0)"/>
      <use xlink:href="#DejaVuSans-39" transform="translate(190.869141 0)"/>
     </g>
    </g>
    <g id="line2d_46">
     <path d="M 71.52625 69.911719 
L 82.52625 69.911719 
L 93.52625 69.911719 
" style="fill: none; stroke: #83c966; stroke-opacity: 0.8; stroke-width: 2.5; stroke-linecap: square"/>
    </g>
    <g id="text_26">
     <!-- 2025 -->
     <g transform="translate(102.32625 73.761719) scale(0.11 -0.11)">
      <use xlink:href="#DejaVuSans-32"/>
      <use xlink:href="#DejaVuSans-30" transform="translate(63.623047 0)"/>
      <use xlink:href="#DejaVuSans-32" transform="translate(127.246094 0)"/>
      <use xlink:href="#DejaVuSans-35" transform="translate(190.869141 0)"/>
     </g>
    </g>
   </g>
  </g>
 </g>
 <defs>
  <clipPath id="p3cfa0c3f63">
   <rect x="61.62625" y="39.3575" width="642.695541" height="344.84"/>
  </clipPath>
 </defs>
</svg>
