<?xml version="1.0" encoding="utf-8" standalone="no"?>
<!DOCTYPE svg PUBLIC "-//W3C//DTD SVG 1.1//EN"
  "http://www.w3.org/Graphics/SVG/1.1/DTD/svg11.dtd">
<svg xmlns:xlink="http://www.w3.org/1999/xlink" width="855.58625pt" height="423.689375pt" viewBox="0 0 855.58625 423.689375" xmlns="http://www.w3.org/2000/svg" version="1.1">
 <metadata>
  <rdf:RDF xmlns:dc="http://purl.org/dc/elements/1.1/" xmlns:cc="http://creativecommons.org/ns#" xmlns:rdf="http://www.w3.org/1999/02/22-rdf-syntax-ns#">
   <cc:Work>
    <dc:type rdf:resource="http://purl.org/dc/dcmitype/StillImage"/>
    <dc:date>2026-01-22T17:08:44.354548</dc:date>
    <dc:format>image/svg+xml</dc:format>
    <dc:creator>
     <cc:Agent>
      <dc:title>Matplotlib v3.10.8, https://matplotlib.org/</dc:title>
     </cc:Agent>
    </dc:creator>
   </cc:Work>
  </rdf:RDF>
 </metadata>
 <defs>
  <style type="text/css">*{stroke-linejoin: round; stroke-linecap: butt}</style>
 </defs>
 <g id="figure_1">
  <g id="patch_1">
   <path d="M 0 423.689375 
L 855.58625 423.689375 
L 855.58625 0 
L 0 0 
L 0 423.689375 
z
" style="fill: none"/>
  </g>
  <g id="axes_1">
   <g id="patch_2">
    <path d="M 61.62625 384.1975 
L 848.38625 384.1975 
L 848.38625 39.3575 
L 61.62625 39.3575 
L 61.62625 384.1975 
z
" style="fill: none"/>
   </g>
   <g id="matplotlib.axis_1">
    <g id="xtick_1">
     <g id="line2d_1">
      <path d="M 61.62625 384.1975 
L 61.62625 39.3575 
" clip-path="url(#p0a29820d53)" style="fill: none; stroke-dasharray: 2.96,1.28; stroke-dashoffset: 0; stroke: #b0b0b0; stroke-opacity: 0.3; stroke-width: 0.8"/>
     </g>
     <g id="line2d_2">
      <defs>
       <path id="mdd68055846" d="M 0 0 
L 0 3.5 
" style="stroke: #000000; stroke-width: 0.8"/>
      </defs>
      <g>
       <use xlink:href="#mdd68055846" x="61.62625" y="384.1975" style="stroke: #000000; stroke-width: 0.8"/>
      </g>
     </g>
     <g id="text_1">
      <!-- Jan -->
      <g transform="translate(53.918438 398.795937) scale(0.1 -0.1)">
       <defs>
        <path id="DejaVuSans-4a" d="M 628 4666 
L 1259 4666 
L 1259 325 
Q 1259 -519 939 -900 
Q 619 -1281 -91 -1281 
L -331 -1281 
L -331 -750 
L -134 -750 
Q 284 -750 456 -515 
Q 628 -281 628 325 
L 628 4666 
z
" transform="scale(0.015625)"/>
        <path id="DejaVuSans-61" d="M 2194 1759 
Q 1497 1759 1228 1600 
Q 959 1441 959 1056 
Q 959 750 1161 570 
Q 1363 391 1709 391 
Q 2188 391 2477 730 
Q 2766 1069 2766 1631 
L 2766 1759 
L 2194 1759 
z
M 3341 1997 
L 3341 0 
L 2766 0 
L 2766 531 
Q 2569 213 2275 61 
Q 1981 -91 1556 -91 
Q 1019 -91 701 211 
Q 384 513 384 1019 
Q 384 1609 779 1909 
Q 1175 2209 1959 2209 
L 2766 2209 
L 2766 2266 
Q 2766 2663 2505 2880 
Q 2244 3097 1772 3097 
Q 1472 3097 1187 3025 
Q 903 2953 641 2809 
L 641 3341 
Q 956 3463 1253 3523 
Q 1550 3584 1831 3584 
Q 2591 3584 2966 3190 
Q 3341 2797 3341 1997 
z
" transform="scale(0.015625)"/>
        <path id="DejaVuSans-6e" d="M 3513 2113 
L 3513 0 
L 2938 0 
L 2938 2094 
Q 2938 2591 2744 2837 
Q 2550 3084 2163 3084 
Q 1697 3084 1428 2787 
Q 1159 2491 1159 1978 
L 1159 0 
L 581 0 
L 581 3500 
L 1159 3500 
L 1159 2956 
Q 1366 3272 1645 3428 
Q 1925 3584 2291 3584 
Q 2894 3584 3203 3211 
Q 3513 2838 3513 2113 
z
" transform="scale(0.015625)"/>
       </defs>
       <use xlink:href="#DejaVuSans-4a"/>
       <use xlink:href="#DejaVuSans-61" transform="translate(29.492188 0)"/>
       <use xlink:href="#DejaVuSans-6e" transform="translate(90.771484 0)"/>
      </g>
     </g>
    </g>
    <g id="xtick_2">
     <g id="line2d_3">
      <path d="M 127.54398 384.1975 
L 127.54398 39.3575 
" clip-path="url(#p0a29820d53)" style="fill: none; stroke-dasharray: 2.96,1.28; stroke-dashoffset: 0; stroke: #b0b0b0; stroke-opacity: 0.3; stroke-width: 0.8"/>
     </g>
     <g id="line2d_4">
      <g>
       <use xlink:href="#mdd68055846" x="127.54398" y="384.1975" style="stroke: #000000; stroke-width: 0.8"/>
      </g>
     </g>
     <g id="text_2">
      <!-- Feb -->
      <g transform="translate(118.692417 398.795937) scale(0.1 -0.1)">
       <defs>
        <path id="DejaVuSans-46" d="M 628 4666 
L 3309 4666 
L 3309 4134 
L 1259 4134 
L 1259 2759 
L 3109 2759 
L 3109 2228 
L 1259 2228 
L 1259 0 
L 628 0 
L 628 4666 
z
" transform="scale(0.015625)"/>
        <path id="DejaVuSans-65" d="M 3597 1894 
L 3597 1613 
L 953 1613 
Q 991 1019 1311 708 
Q 1631 397 2203 397 
Q 2534 397 2845 478 
Q 3156 559 3463 722 
L 3463 178 
Q 3153 47 2828 -22 
Q 2503 -91 2169 -91 
Q 1331 -91 842 396 
Q 353 884 353 1716 
Q 353 2575 817 3079 
Q 1281 3584 2069 3584 
Q 2775 3584 3186 3129 
Q 3597 2675 3597 1894 
z
M 3022 2063 
Q 3016 2534 2758 2815 
Q 2500 3097 2075 3097 
Q 1594 3097 1305 2825 
Q 1016 2553 972 2059 
L 3022 2063 
z
" transform="scale(0.015625)"/>
        <path id="DejaVuSans-62" d="M 3116 1747 
Q 3116 2381 2855 2742 
Q 2594 3103 2138 3103 
Q 1681 3103 1420 2742 
Q 1159 2381 1159 1747 
Q 1159 1113 1420 752 
Q 1681 391 2138 391 
Q 2594 391 2855 752 
Q 3116 1113 3116 1747 
z
M 1159 2969 
Q 1341 3281 1617 3432 
Q 1894 3584 2278 3584 
Q 2916 3584 3314 3078 
Q 3713 2572 3713 1747 
Q 3713 922 3314 415 
Q 2916 -91 2278 -91 
Q 1894 -91 1617 61 
Q 1341 213 1159 525 
L 1159 0 
L 581 0 
L 581 4863 
L 1159 4863 
L 1159 2969 
z
" transform="scale(0.015625)"/>
       </defs>
       <use xlink:href="#DejaVuSans-46"/>
       <use xlink:href="#DejaVuSans-65" transform="translate(52.019531 0)"/>
       <use xlink:href="#DejaVuSans-62" transform="translate(113.542969 0)"/>
      </g>
     </g>
    </g>
    <g id="xtick_3">
     <g id="line2d_5">
      <path d="M 187.082574 384.1975 
L 187.082574 39.3575 
" clip-path="url(#p0a29820d53)" style="fill: none; stroke-dasharray: 2.96,1.28; stroke-dashoffset: 0; stroke: #b0b0b0; stroke-opacity: 0.3; stroke-width: 0.8"/>
     </g>
     <g id="line2d_6">
      <g>
       <use xlink:href="#mdd68055846" x="187.082574" y="384.1975" style="stroke: #000000; stroke-width: 0.8"/>
      </g>
     </g>
     <g id="text_3">
      <!-- Mar -->
      <g transform="translate(177.648981 398.795937) scale(0.1 -0.1)">
       <defs>
        <path id="DejaVuSans-4d" d="M 628 4666 
L 1569 4666 
L 2759 1491 
L 3956 4666 
L 4897 4666 
L 4897 0 
L 4281 0 
L 4281 4097 
L 3078 897 
L 2444 897 
L 1241 4097 
L 1241 0 
L 628 0 
L 628 4666 
z
" transform="scale(0.015625)"/>
        <path id="DejaVuSans-72" d="M 2631 2963 
Q 2534 3019 2420 3045 
Q 2306 3072 2169 3072 
Q 1681 3072 1420 2755 
Q 1159 2438 1159 1844 
L 1159 0 
L 581 0 
L 581 3500 
L 1159 3500 
L 1159 2956 
Q 1341 3275 1631 3429 
Q 1922 3584 2338 3584 
Q 2397 3584 2469 3576 
Q 2541 3569 2628 3553 
L 2631 2963 
z
" transform="scale(0.015625)"/>
       </defs>
       <use xlink:href="#DejaVuSans-4d"/>
       <use xlink:href="#DejaVuSans-61" transform="translate(86.279297 0)"/>
       <use xlink:href="#DejaVuSans-72" transform="translate(147.558594 0)"/>
      </g>
     </g>
    </g>
    <g id="xtick_4">
     <g id="line2d_7">
      <path d="M 253.000304 384.1975 
L 253.000304 39.3575 
" clip-path="url(#p0a29820d53)" style="fill: none; stroke-dasharray: 2.96,1.28; stroke-dashoffset: 0; stroke: #b0b0b0; stroke-opacity: 0.3; stroke-width: 0.8"/>
     </g>
     <g id="line2d_8">
      <g>
       <use xlink:href="#mdd68055846" x="253.000304" y="384.1975" style="stroke: #000000; stroke-width: 0.8"/>
      </g>
     </g>
     <g id="text_4">
      <!-- Apr -->
      <g transform="translate(244.350304 398.795937) scale(0.1 -0.1)">
       <defs>
        <path id="DejaVuSans-41" d="M 2188 4044 
L 1331 1722 
L 3047 1722 
L 2188 4044 
z
M 1831 4666 
L 2547 4666 
L 4325 0 
L 3669 0 
L 3244 1197 
L 1141 1197 
L 716 0 
L 50 0 
L 1831 4666 
z
" transform="scale(0.015625)"/>
        <path id="DejaVuSans-70" d="M 1159 525 
L 1159 -1331 
L 581 -1331 
L 581 3500 
L 1159 3500 
L 1159 2969 
Q 1341 3281 1617 3432 
Q 1894 3584 2278 3584 
Q 2916 3584 3314 3078 
Q 3713 2572 3713 1747 
Q 3713 922 3314 415 
Q 2916 -91 2278 -91 
Q 1894 -91 1617 61 
Q 1341 213 1159 525 
z
M 3116 1747 
Q 3116 2381 2855 2742 
Q 2594 3103 2138 3103 
Q 1681 3103 1420 2742 
Q 1159 2381 1159 1747 
Q 1159 1113 1420 752 
Q 1681 391 2138 391 
Q 2594 391 2855 752 
Q 3116 1113 3116 1747 
z
" transform="scale(0.015625)"/>
       </defs>
       <use xlink:href="#DejaVuSans-41"/>
       <use xlink:href="#DejaVuSans-70" transform="translate(68.408203 0)"/>
       <use xlink:href="#DejaVuSans-72" transform="translate(131.884766 0)"/>
      </g>
     </g>
    </g>
    <g id="xtick_5">
     <g id="line2d_9">
      <path d="M 316.791655 384.1975 
L 316.791655 39.3575 
" clip-path="url(#p0a29820d53)" style="fill: none; stroke-dasharray: 2.96,1.28; stroke-dashoffset: 0; stroke: #b0b0b0; stroke-opacity: 0.3; stroke-width: 0.8"/>
     </g>
     <g id="line2d_10">
      <g>
       <use xlink:href="#mdd68055846" x="316.791655" y="384.1975" style="stroke: #000000; stroke-width: 0.8"/>
      </g>
     </g>
     <g id="text_5">
      <!-- May -->
      <g transform="translate(306.454155 398.795937) scale(0.1 -0.1)">
       <defs>
        <path id="DejaVuSans-79" d="M 2059 -325 
Q 1816 -950 1584 -1140 
Q 1353 -1331 966 -1331 
L 506 -1331 
L 506 -850 
L 844 -850 
Q 1081 -850 1212 -737 
Q 1344 -625 1503 -206 
L 1606 56 
L 191 3500 
L 800 3500 
L 1894 763 
L 2988 3500 
L 3597 3500 
L 2059 -325 
z
" transform="scale(0.015625)"/>
       </defs>
       <use xlink:href="#DejaVuSans-4d"/>
       <use xlink:href="#DejaVuSans-61" transform="translate(86.279297 0)"/>
       <use xlink:href="#DejaVuSans-79" transform="translate(147.558594 0)"/>
      </g>
     </g>
    </g>
    <g id="xtick_6">
     <g id="line2d_11">
      <path d="M 382.709385 384.1975 
L 382.709385 39.3575 
" clip-path="url(#p0a29820d53)" style="fill: none; stroke-dasharray: 2.96,1.28; stroke-dashoffset: 0; stroke: #b0b0b0; stroke-opacity: 0.3; stroke-width: 0.8"/>
     </g>
     <g id="line2d_12">
      <g>
       <use xlink:href="#mdd68055846" x="382.709385" y="384.1975" style="stroke: #000000; stroke-width: 0.8"/>
      </g>
     </g>
     <g id="text_6">
      <!-- Jun -->
      <g transform="translate(374.896885 398.795937) scale(0.1 -0.1)">
       <defs>
        <path id="DejaVuSans-75" d="M 544 1381 
L 544 3500 
L 1119 3500 
L 1119 1403 
Q 1119 906 1312 657 
Q 1506 409 1894 409 
Q 2359 409 2629 706 
Q 2900 1003 2900 1516 
L 2900 3500 
L 3475 3500 
L 3475 0 
L 2900 0 
L 2900 538 
Q 2691 219 2414 64 
Q 2138 -91 1772 -91 
Q 1169 -91 856 284 
Q 544 659 544 1381 
z
M 1991 3584 
L 1991 3584 
z
" transform="scale(0.015625)"/>
       </defs>
       <use xlink:href="#DejaVuSans-4a"/>
       <use xlink:href="#DejaVuSans-75" transform="translate(29.492188 0)"/>
       <use xlink:href="#DejaVuSans-6e" transform="translate(92.871094 0)"/>
      </g>
     </g>
    </g>
    <g id="xtick_7">
     <g id="line2d_13">
      <path d="M 446.500736 384.1975 
L 446.500736 39.3575 
" clip-path="url(#p0a29820d53)" style="fill: none; stroke-dasharray: 2.96,1.28; stroke-dashoffset: 0; stroke: #b0b0b0; stroke-opacity: 0.3; stroke-width: 0.8"/>
     </g>
     <g id="line2d_14">
      <g>
       <use xlink:href="#mdd68055846" x="446.500736" y="384.1975" style="stroke: #000000; stroke-width: 0.8"/>
      </g>
     </g>
     <g id="text_7">
      <!-- Jul -->
      <g transform="translate(440.467924 398.795937) scale(0.1 -0.1)">
       <defs>
        <path id="DejaVuSans-6c" d="M 603 4863 
L 1178 4863 
L 1178 0 
L 603 0 
L 603 4863 
z
" transform="scale(0.015625)"/>
       </defs>
       <use xlink:href="#DejaVuSans-4a"/>
       <use xlink:href="#DejaVuSans-75" transform="translate(29.492188 0)"/>
       <use xlink:href="#DejaVuSans-6c" transform="translate(92.871094 0)"/>
      </g>
     </g>
    </g>
    <g id="xtick_8">
     <g id="line2d_15">
      <path d="M 512.418466 384.1975 
L 512.418466 39.3575 
" clip-path="url(#p0a29820d53)" style="fill: none; stroke-dasharray: 2.96,1.28; stroke-dashoffset: 0; stroke: #b0b0b0; stroke-opacity: 0.3; stroke-width: 0.8"/>
     </g>
     <g id="line2d_16">
      <g>
       <use xlink:href="#mdd68055846" x="512.418466" y="384.1975" style="stroke: #000000; stroke-width: 0.8"/>
      </g>
     </g>
     <g id="text_8">
      <!-- Aug -->
      <g transform="translate(502.655185 398.795937) scale(0.1 -0.1)">
       <defs>
        <path id="DejaVuSans-67" d="M 2906 1791 
Q 2906 2416 2648 2759 
Q 2391 3103 1925 3103 
Q 1463 3103 1205 2759 
Q 947 2416 947 1791 
Q 947 1169 1205 825 
Q 1463 481 1925 481 
Q 2391 481 2648 825 
Q 2906 1169 2906 1791 
z
M 3481 434 
Q 3481 -459 3084 -895 
Q 2688 -1331 1869 -1331 
Q 1566 -1331 1297 -1286 
Q 1028 -1241 775 -1147 
L 775 -588 
Q 1028 -725 1275 -790 
Q 1522 -856 1778 -856 
Q 2344 -856 2625 -561 
Q 2906 -266 2906 331 
L 2906 616 
Q 2728 306 2450 153 
Q 2172 0 1784 0 
Q 1141 0 747 490 
Q 353 981 353 1791 
Q 353 2603 747 3093 
Q 1141 3584 1784 3584 
Q 2172 3584 2450 3431 
Q 2728 3278 2906 2969 
L 2906 3500 
L 3481 3500 
L 3481 434 
z
" transform="scale(0.015625)"/>
       </defs>
       <use xlink:href="#DejaVuSans-41"/>
       <use xlink:href="#DejaVuSans-75" transform="translate(68.408203 0)"/>
       <use xlink:href="#DejaVuSans-67" transform="translate(131.787109 0)"/>
      </g>
     </g>
    </g>
    <g id="xtick_9">
     <g id="line2d_17">
      <path d="M 578.336196 384.1975 
L 578.336196 39.3575 
" clip-path="url(#p0a29820d53)" style="fill: none; stroke-dasharray: 2.96,1.28; stroke-dashoffset: 0; stroke: #b0b0b0; stroke-opacity: 0.3; stroke-width: 0.8"/>
     </g>
     <g id="line2d_18">
      <g>
       <use xlink:href="#mdd68055846" x="578.336196" y="384.1975" style="stroke: #000000; stroke-width: 0.8"/>
      </g>
     </g>
     <g id="text_9">
      <!-- Sep -->
      <g transform="translate(568.911196 398.795937) scale(0.1 -0.1)">
       <defs>
        <path id="DejaVuSans-53" d="M 3425 4513 
L 3425 3897 
Q 3066 4069 2747 4153 
Q 2428 4238 2131 4238 
Q 1616 4238 1336 4038 
Q 1056 3838 1056 3469 
Q 1056 3159 1242 3001 
Q 1428 2844 1947 2747 
L 2328 2669 
Q 3034 2534 3370 2195 
Q 3706 1856 3706 1288 
Q 3706 609 3251 259 
Q 2797 -91 1919 -91 
Q 1588 -91 1214 -16 
Q 841 59 441 206 
L 441 856 
Q 825 641 1194 531 
Q 1563 422 1919 422 
Q 2459 422 2753 634 
Q 3047 847 3047 1241 
Q 3047 1584 2836 1778 
Q 2625 1972 2144 2069 
L 1759 2144 
Q 1053 2284 737 2584 
Q 422 2884 422 3419 
Q 422 4038 858 4394 
Q 1294 4750 2059 4750 
Q 2388 4750 2728 4690 
Q 3069 4631 3425 4513 
z
" transform="scale(0.015625)"/>
       </defs>
       <use xlink:href="#DejaVuSans-53"/>
       <use xlink:href="#DejaVuSans-65" transform="translate(63.476562 0)"/>
       <use xlink:href="#DejaVuSans-70" transform="translate(125 0)"/>
      </g>
     </g>
    </g>
    <g id="xtick_10">
     <g id="line2d_19">
      <path d="M 642.127547 384.1975 
L 642.127547 39.3575 
" clip-path="url(#p0a29820d53)" style="fill: none; stroke-dasharray: 2.96,1.28; stroke-dashoffset: 0; stroke: #b0b0b0; stroke-opacity: 0.3; stroke-width: 0.8"/>
     </g>
     <g id="line2d_20">
      <g>
       <use xlink:href="#mdd68055846" x="642.127547" y="384.1975" style="stroke: #000000; stroke-width: 0.8"/>
      </g>
     </g>
     <g id="text_10">
      <!-- Oct -->
      <g transform="translate(633.482235 398.795937) scale(0.1 -0.1)">
       <defs>
        <path id="DejaVuSans-4f" d="M 2522 4238 
Q 1834 4238 1429 3725 
Q 1025 3213 1025 2328 
Q 1025 1447 1429 934 
Q 1834 422 2522 422 
Q 3209 422 3611 934 
Q 4013 1447 4013 2328 
Q 4013 3213 3611 3725 
Q 3209 4238 2522 4238 
z
M 2522 4750 
Q 3503 4750 4090 4092 
Q 4678 3434 4678 2328 
Q 4678 1225 4090 567 
Q 3503 -91 2522 -91 
Q 1538 -91 948 565 
Q 359 1222 359 2328 
Q 359 3434 948 4092 
Q 1538 4750 2522 4750 
z
" transform="scale(0.015625)"/>
        <path id="DejaVuSans-63" d="M 3122 3366 
L 3122 2828 
Q 2878 2963 2633 3030 
Q 2388 3097 2138 3097 
Q 1578 3097 1268 2742 
Q 959 2388 959 1747 
Q 959 1106 1268 751 
Q 1578 397 2138 397 
Q 2388 397 2633 464 
Q 2878 531 3122 666 
L 3122 134 
Q 2881 22 2623 -34 
Q 2366 -91 2075 -91 
Q 1284 -91 818 406 
Q 353 903 353 1747 
Q 353 2603 823 3093 
Q 1294 3584 2113 3584 
Q 2378 3584 2631 3529 
Q 2884 3475 3122 3366 
z
" transform="scale(0.015625)"/>
        <path id="DejaVuSans-74" d="M 1172 4494 
L 1172 3500 
L 2356 3500 
L 2356 3053 
L 1172 3053 
L 1172 1153 
Q 1172 725 1289 603 
Q 1406 481 1766 481 
L 2356 481 
L 2356 0 
L 1766 0 
Q 1100 0 847 248 
Q 594 497 594 1153 
L 594 3053 
L 172 3053 
L 172 3500 
L 594 3500 
L 594 4494 
L 1172 4494 
z
" transform="scale(0.015625)"/>
       </defs>
       <use xlink:href="#DejaVuSans-4f"/>
       <use xlink:href="#DejaVuSans-63" transform="translate(78.710938 0)"/>
       <use xlink:href="#DejaVuSans-74" transform="translate(133.691406 0)"/>
      </g>
     </g>
    </g>
    <g id="xtick_11">
     <g id="line2d_21">
      <path d="M 708.045277 384.1975 
L 708.045277 39.3575 
" clip-path="url(#p0a29820d53)" style="fill: none; stroke-dasharray: 2.96,1.28; stroke-dashoffset: 0; stroke: #b0b0b0; stroke-opacity: 0.3; stroke-width: 0.8"/>
     </g>
     <g id="line2d_22">
      <g>
       <use xlink:href="#mdd68055846" x="708.045277" y="384.1975" style="stroke: #000000; stroke-width: 0.8"/>
      </g>
     </g>
     <g id="text_11">
      <!-- Nov -->
      <g transform="translate(698.285902 398.795937) scale(0.1 -0.1)">
       <defs>
        <path id="DejaVuSans-4e" d="M 628 4666 
L 1478 4666 
L 3547 763 
L 3547 4666 
L 4159 4666 
L 4159 0 
L 3309 0 
L 1241 3903 
L 1241 0 
L 628 0 
L 628 4666 
z
" transform="scale(0.015625)"/>
        <path id="DejaVuSans-6f" d="M 1959 3097 
Q 1497 3097 1228 2736 
Q 959 2375 959 1747 
Q 959 1119 1226 758 
Q 1494 397 1959 397 
Q 2419 397 2687 759 
Q 2956 1122 2956 1747 
Q 2956 2369 2687 2733 
Q 2419 3097 1959 3097 
z
M 1959 3584 
Q 2709 3584 3137 3096 
Q 3566 2609 3566 1747 
Q 3566 888 3137 398 
Q 2709 -91 1959 -91 
Q 1206 -91 779 398 
Q 353 888 353 1747 
Q 353 2609 779 3096 
Q 1206 3584 1959 3584 
z
" transform="scale(0.015625)"/>
        <path id="DejaVuSans-76" d="M 191 3500 
L 800 3500 
L 1894 563 
L 2988 3500 
L 3597 3500 
L 2284 0 
L 1503 0 
L 191 3500 
z
" transform="scale(0.015625)"/>
       </defs>
       <use xlink:href="#DejaVuSans-4e"/>
       <use xlink:href="#DejaVuSans-6f" transform="translate(74.804688 0)"/>
       <use xlink:href="#DejaVuSans-76" transform="translate(135.986328 0)"/>
      </g>
     </g>
    </g>
    <g id="xtick_12">
     <g id="line2d_23">
      <path d="M 771.836628 384.1975 
L 771.836628 39.3575 
" clip-path="url(#p0a29820d53)" style="fill: none; stroke-dasharray: 2.96,1.28; stroke-dashoffset: 0; stroke: #b0b0b0; stroke-opacity: 0.3; stroke-width: 0.8"/>
     </g>
     <g id="line2d_24">
      <g>
       <use xlink:href="#mdd68055846" x="771.836628" y="384.1975" style="stroke: #000000; stroke-width: 0.8"/>
      </g>
     </g>
     <g id="text_12">
      <!-- Dec -->
      <g transform="translate(762.160847 398.795937) scale(0.1 -0.1)">
       <defs>
        <path id="DejaVuSans-44" d="M 1259 4147 
L 1259 519 
L 2022 519 
Q 2988 519 3436 956 
Q 3884 1394 3884 2338 
Q 3884 3275 3436 3711 
Q 2988 4147 2022 4147 
L 1259 4147 
z
M 628 4666 
L 1925 4666 
Q 3281 4666 3915 4102 
Q 4550 3538 4550 2338 
Q 4550 1131 3912 565 
Q 3275 0 1925 0 
L 628 0 
L 628 4666 
z
" transform="scale(0.015625)"/>
       </defs>
       <use xlink:href="#DejaVuSans-44"/>
       <use xlink:href="#DejaVuSans-65" transform="translate(77.001953 0)"/>
       <use xlink:href="#DejaVuSans-63" transform="translate(138.525391 0)"/>
      </g>
     </g>
    </g>
    <g id="xtick_13">
     <g id="line2d_25">
      <path d="M 837.754358 384.1975 
L 837.754358 39.3575 
" clip-path="url(#p0a29820d53)" style="fill: none; stroke-dasharray: 2.96,1.28; stroke-dashoffset: 0; stroke: #b0b0b0; stroke-opacity: 0.3; stroke-width: 0.8"/>
     </g>
     <g id="line2d_26">
      <g>
       <use xlink:href="#mdd68055846" x="837.754358" y="384.1975" style="stroke: #000000; stroke-width: 0.8"/>
      </g>
     </g>
     <g id="text_13">
      <!-- Jan -->
      <g transform="translate(830.046546 398.795937) scale(0.1 -0.1)">
       <use xlink:href="#DejaVuSans-4a"/>
       <use xlink:href="#DejaVuSans-61" transform="translate(29.492188 0)"/>
       <use xlink:href="#DejaVuSans-6e" transform="translate(90.771484 0)"/>
      </g>
     </g>
    </g>
    <g id="text_14">
     <!-- Day of the year -->
     <g transform="translate(408.420938 413.99375) scale(0.12 -0.12)">
      <defs>
       <path id="DejaVuSans-20" transform="scale(0.015625)"/>
       <path id="DejaVuSans-66" d="M 2375 4863 
L 2375 4384 
L 1825 4384 
Q 1516 4384 1395 4259 
Q 1275 4134 1275 3809 
L 1275 3500 
L 2222 3500 
L 2222 3053 
L 1275 3053 
L 1275 0 
L 697 0 
L 697 3053 
L 147 3053 
L 147 3500 
L 697 3500 
L 697 3744 
Q 697 4328 969 4595 
Q 1241 4863 1831 4863 
L 2375 4863 
z
" transform="scale(0.015625)"/>
       <path id="DejaVuSans-68" d="M 3513 2113 
L 3513 0 
L 2938 0 
L 2938 2094 
Q 2938 2591 2744 2837 
Q 2550 3084 2163 3084 
Q 1697 3084 1428 2787 
Q 1159 2491 1159 1978 
L 1159 0 
L 581 0 
L 581 4863 
L 1159 4863 
L 1159 2956 
Q 1366 3272 1645 3428 
Q 1925 3584 2291 3584 
Q 2894 3584 3203 3211 
Q 3513 2838 3513 2113 
z
" transform="scale(0.015625)"/>
      </defs>
      <use xlink:href="#DejaVuSans-44"/>
      <use xlink:href="#DejaVuSans-61" transform="translate(77.001953 0)"/>
      <use xlink:href="#DejaVuSans-79" transform="translate(138.28125 0)"/>
      <use xlink:href="#DejaVuSans-20" transform="translate(197.460938 0)"/>
      <use xlink:href="#DejaVuSans-6f" transform="translate(229.248047 0)"/>
      <use xlink:href="#DejaVuSans-66" transform="translate(290.429688 0)"/>
      <use xlink:href="#DejaVuSans-20" transform="translate(325.634766 0)"/>
      <use xlink:href="#DejaVuSans-74" transform="translate(357.421875 0)"/>
      <use xlink:href="#DejaVuSans-68" transform="translate(396.630859 0)"/>
      <use xlink:href="#DejaVuSans-65" transform="translate(460.009766 0)"/>
      <use xlink:href="#DejaVuSans-20" transform="translate(521.533203 0)"/>
      <use xlink:href="#DejaVuSans-79" transform="translate(553.320312 0)"/>
      <use xlink:href="#DejaVuSans-65" transform="translate(612.5 0)"/>
      <use xlink:href="#DejaVuSans-61" transform="translate(674.023438 0)"/>
      <use xlink:href="#DejaVuSans-72" transform="translate(735.302734 0)"/>
     </g>
    </g>
   </g>
   <g id="matplotlib.axis_2">
    <g id="ytick_1">
     <g id="line2d_27">
      <path d="M 61.62625 377.049752 
L 848.38625 377.049752 
" clip-path="url(#p0a29820d53)" style="fill: none; stroke-dasharray: 2.96,1.28; stroke-dashoffset: 0; stroke: #b0b0b0; stroke-opacity: 0.3; stroke-width: 0.8"/>
     </g>
     <g id="line2d_28">
      <defs>
       <path id="m85030b4a29" d="M 0 0 
L -3.5 0 
" style="stroke: #000000; stroke-width: 0.8"/>
      </defs>
      <g>
       <use xlink:href="#m85030b4a29" x="61.62625" y="377.049752" style="stroke: #000000; stroke-width: 0.8"/>
      </g>
     </g>
     <g id="text_15">
      <!-- 0 -->
      <g transform="translate(48.26375 380.848971) scale(0.1 -0.1)">
       <defs>
        <path id="DejaVuSans-30" d="M 2034 4250 
Q 1547 4250 1301 3770 
Q 1056 3291 1056 2328 
Q 1056 1369 1301 889 
Q 1547 409 2034 409 
Q 2525 409 2770 889 
Q 3016 1369 3016 2328 
Q 3016 3291 2770 3770 
Q 2525 4250 2034 4250 
z
M 2034 4750 
Q 2819 4750 3233 4129 
Q 3647 3509 3647 2328 
Q 3647 1150 3233 529 
Q 2819 -91 2034 -91 
Q 1250 -91 836 529 
Q 422 1150 422 2328 
Q 422 3509 836 4129 
Q 1250 4750 2034 4750 
z
" transform="scale(0.015625)"/>
       </defs>
       <use xlink:href="#DejaVuSans-30"/>
      </g>
     </g>
    </g>
    <g id="ytick_2">
     <g id="line2d_29">
      <path d="M 61.62625 338.203295 
L 848.38625 338.203295 
" clip-path="url(#p0a29820d53)" style="fill: none; stroke-dasharray: 2.96,1.28; stroke-dashoffset: 0; stroke: #b0b0b0; stroke-opacity: 0.3; stroke-width: 0.8"/>
     </g>
     <g id="line2d_30">
      <g>
       <use xlink:href="#m85030b4a29" x="61.62625" y="338.203295" style="stroke: #000000; stroke-width: 0.8"/>
      </g>
     </g>
     <g id="text_16">
      <!-- 2000 -->
      <g transform="translate(29.17625 342.002514) scale(0.1 -0.1)">
       <defs>
        <path id="DejaVuSans-32" d="M 1228 531 
L 3431 531 
L 3431 0 
L 469 0 
L 469 531 
Q 828 903 1448 1529 
Q 2069 2156 2228 2338 
Q 2531 2678 2651 2914 
Q 2772 3150 2772 3378 
Q 2772 3750 2511 3984 
Q 2250 4219 1831 4219 
Q 1534 4219 1204 4116 
Q 875 4013 500 3803 
L 500 4441 
Q 881 4594 1212 4672 
Q 1544 4750 1819 4750 
Q 2544 4750 2975 4387 
Q 3406 4025 3406 3419 
Q 3406 3131 3298 2873 
Q 3191 2616 2906 2266 
Q 2828 2175 2409 1742 
Q 1991 1309 1228 531 
z
" transform="scale(0.015625)"/>
       </defs>
       <use xlink:href="#DejaVuSans-32"/>
       <use xlink:href="#DejaVuSans-30" transform="translate(63.623047 0)"/>
       <use xlink:href="#DejaVuSans-30" transform="translate(127.246094 0)"/>
       <use xlink:href="#DejaVuSans-30" transform="translate(190.869141 0)"/>
      </g>
     </g>
    </g>
    <g id="ytick_3">
     <g id="line2d_31">
      <path d="M 61.62625 299.356838 
L 848.38625 299.356838 
" clip-path="url(#p0a29820d53)" style="fill: none; stroke-dasharray: 2.96,1.28; stroke-dashoffset: 0; stroke: #b0b0b0; stroke-opacity: 0.3; stroke-width: 0.8"/>
     </g>
     <g id="line2d_32">
      <g>
       <use xlink:href="#m85030b4a29" x="61.62625" y="299.356838" style="stroke: #000000; stroke-width: 0.8"/>
      </g>
     </g>
     <g id="text_17">
      <!-- 4000 -->
      <g transform="translate(29.17625 303.156056) scale(0.1 -0.1)">
       <defs>
        <path id="DejaVuSans-34" d="M 2419 4116 
L 825 1625 
L 2419 1625 
L 2419 4116 
z
M 2253 4666 
L 3047 4666 
L 3047 1625 
L 3713 1625 
L 3713 1100 
L 3047 1100 
L 3047 0 
L 2419 0 
L 2419 1100 
L 313 1100 
L 313 1709 
L 2253 4666 
z
" transform="scale(0.015625)"/>
       </defs>
       <use xlink:href="#DejaVuSans-34"/>
       <use xlink:href="#DejaVuSans-30" transform="translate(63.623047 0)"/>
       <use xlink:href="#DejaVuSans-30" transform="translate(127.246094 0)"/>
       <use xlink:href="#DejaVuSans-30" transform="translate(190.869141 0)"/>
      </g>
     </g>
    </g>
    <g id="ytick_4">
     <g id="line2d_33">
      <path d="M 61.62625 260.51038 
L 848.38625 260.51038 
" clip-path="url(#p0a29820d53)" style="fill: none; stroke-dasharray: 2.96,1.28; stroke-dashoffset: 0; stroke: #b0b0b0; stroke-opacity: 0.3; stroke-width: 0.8"/>
     </g>
     <g id="line2d_34">
      <g>
       <use xlink:href="#m85030b4a29" x="61.62625" y="260.51038" style="stroke: #000000; stroke-width: 0.8"/>
      </g>
     </g>
     <g id="text_18">
      <!-- 6000 -->
      <g transform="translate(29.17625 264.309599) scale(0.1 -0.1)">
       <defs>
        <path id="DejaVuSans-36" d="M 2113 2584 
Q 1688 2584 1439 2293 
Q 1191 2003 1191 1497 
Q 1191 994 1439 701 
Q 1688 409 2113 409 
Q 2538 409 2786 701 
Q 3034 994 3034 1497 
Q 3034 2003 2786 2293 
Q 2538 2584 2113 2584 
z
M 3366 4563 
L 3366 3988 
Q 3128 4100 2886 4159 
Q 2644 4219 2406 4219 
Q 1781 4219 1451 3797 
Q 1122 3375 1075 2522 
Q 1259 2794 1537 2939 
Q 1816 3084 2150 3084 
Q 2853 3084 3261 2657 
Q 3669 2231 3669 1497 
Q 3669 778 3244 343 
Q 2819 -91 2113 -91 
Q 1303 -91 875 529 
Q 447 1150 447 2328 
Q 447 3434 972 4092 
Q 1497 4750 2381 4750 
Q 2619 4750 2861 4703 
Q 3103 4656 3366 4563 
z
" transform="scale(0.015625)"/>
       </defs>
       <use xlink:href="#DejaVuSans-36"/>
       <use xlink:href="#DejaVuSans-30" transform="translate(63.623047 0)"/>
       <use xlink:href="#DejaVuSans-30" transform="translate(127.246094 0)"/>
       <use xlink:href="#DejaVuSans-30" transform="translate(190.869141 0)"/>
      </g>
     </g>
    </g>
    <g id="ytick_5">
     <g id="line2d_35">
      <path d="M 61.62625 221.663923 
L 848.38625 221.663923 
" clip-path="url(#p0a29820d53)" style="fill: none; stroke-dasharray: 2.96,1.28; stroke-dashoffset: 0; stroke: #b0b0b0; stroke-opacity: 0.3; stroke-width: 0.8"/>
     </g>
     <g id="line2d_36">
      <g>
       <use xlink:href="#m85030b4a29" x="61.62625" y="221.663923" style="stroke: #000000; stroke-width: 0.8"/>
      </g>
     </g>
     <g id="text_19">
      <!-- 8000 -->
      <g transform="translate(29.17625 225.463142) scale(0.1 -0.1)">
       <defs>
        <path id="DejaVuSans-38" d="M 2034 2216 
Q 1584 2216 1326 1975 
Q 1069 1734 1069 1313 
Q 1069 891 1326 650 
Q 1584 409 2034 409 
Q 2484 409 2743 651 
Q 3003 894 3003 1313 
Q 3003 1734 2745 1975 
Q 2488 2216 2034 2216 
z
M 1403 2484 
Q 997 2584 770 2862 
Q 544 3141 544 3541 
Q 544 4100 942 4425 
Q 1341 4750 2034 4750 
Q 2731 4750 3128 4425 
Q 3525 4100 3525 3541 
Q 3525 3141 3298 2862 
Q 3072 2584 2669 2484 
Q 3125 2378 3379 2068 
Q 3634 1759 3634 1313 
Q 3634 634 3220 271 
Q 2806 -91 2034 -91 
Q 1263 -91 848 271 
Q 434 634 434 1313 
Q 434 1759 690 2068 
Q 947 2378 1403 2484 
z
M 1172 3481 
Q 1172 3119 1398 2916 
Q 1625 2713 2034 2713 
Q 2441 2713 2670 2916 
Q 2900 3119 2900 3481 
Q 2900 3844 2670 4047 
Q 2441 4250 2034 4250 
Q 1625 4250 1398 4047 
Q 1172 3844 1172 3481 
z
" transform="scale(0.015625)"/>
       </defs>
       <use xlink:href="#DejaVuSans-38"/>
       <use xlink:href="#DejaVuSans-30" transform="translate(63.623047 0)"/>
       <use xlink:href="#DejaVuSans-30" transform="translate(127.246094 0)"/>
       <use xlink:href="#DejaVuSans-30" transform="translate(190.869141 0)"/>
      </g>
     </g>
    </g>
    <g id="ytick_6">
     <g id="line2d_37">
      <path d="M 61.62625 182.817466 
L 848.38625 182.817466 
" clip-path="url(#p0a29820d53)" style="fill: none; stroke-dasharray: 2.96,1.28; stroke-dashoffset: 0; stroke: #b0b0b0; stroke-opacity: 0.3; stroke-width: 0.8"/>
     </g>
     <g id="line2d_38">
      <g>
       <use xlink:href="#m85030b4a29" x="61.62625" y="182.817466" style="stroke: #000000; stroke-width: 0.8"/>
      </g>
     </g>
     <g id="text_20">
      <!-- 10000 -->
      <g transform="translate(22.81375 186.616685) scale(0.1 -0.1)">
       <defs>
        <path id="DejaVuSans-31" d="M 794 531 
L 1825 531 
L 1825 4091 
L 703 3866 
L 703 4441 
L 1819 4666 
L 2450 4666 
L 2450 531 
L 3481 531 
L 3481 0 
L 794 0 
L 794 531 
z
" transform="scale(0.015625)"/>
       </defs>
       <use xlink:href="#DejaVuSans-31"/>
       <use xlink:href="#DejaVuSans-30" transform="translate(63.623047 0)"/>
       <use xlink:href="#DejaVuSans-30" transform="translate(127.246094 0)"/>
       <use xlink:href="#DejaVuSans-30" transform="translate(190.869141 0)"/>
       <use xlink:href="#DejaVuSans-30" transform="translate(254.492188 0)"/>
      </g>
     </g>
    </g>
    <g id="ytick_7">
     <g id="line2d_39">
      <path d="M 61.62625 143.971009 
L 848.38625 143.971009 
" clip-path="url(#p0a29820d53)" style="fill: none; stroke-dasharray: 2.96,1.28; stroke-dashoffset: 0; stroke: #b0b0b0; stroke-opacity: 0.3; stroke-width: 0.8"/>
     </g>
     <g id="line2d_40">
      <g>
       <use xlink:href="#m85030b4a29" x="61.62625" y="143.971009" style="stroke: #000000; stroke-width: 0.8"/>
      </g>
     </g>
     <g id="text_21">
      <!-- 12000 -->
      <g transform="translate(22.81375 147.770228) scale(0.1 -0.1)">
       <use xlink:href="#DejaVuSans-31"/>
       <use xlink:href="#DejaVuSans-32" transform="translate(63.623047 0)"/>
       <use xlink:href="#DejaVuSans-30" transform="translate(127.246094 0)"/>
       <use xlink:href="#DejaVuSans-30" transform="translate(190.869141 0)"/>
       <use xlink:href="#DejaVuSans-30" transform="translate(254.492188 0)"/>
      </g>
     </g>
    </g>
    <g id="ytick_8">
     <g id="line2d_41">
      <path d="M 61.62625 105.124552 
L 848.38625 105.124552 
" clip-path="url(#p0a29820d53)" style="fill: none; stroke-dasharray: 2.96,1.28; stroke-dashoffset: 0; stroke: #b0b0b0; stroke-opacity: 0.3; stroke-width: 0.8"/>
     </g>
     <g id="line2d_42">
      <g>
       <use xlink:href="#m85030b4a29" x="61.62625" y="105.124552" style="stroke: #000000; stroke-width: 0.8"/>
      </g>
     </g>
     <g id="text_22">
      <!-- 14000 -->
      <g transform="translate(22.81375 108.923771) scale(0.1 -0.1)">
       <use xlink:href="#DejaVuSans-31"/>
       <use xlink:href="#DejaVuSans-34" transform="translate(63.623047 0)"/>
       <use xlink:href="#DejaVuSans-30" transform="translate(127.246094 0)"/>
       <use xlink:href="#DejaVuSans-30" transform="translate(190.869141 0)"/>
       <use xlink:href="#DejaVuSans-30" transform="translate(254.492188 0)"/>
      </g>
     </g>
    </g>
    <g id="ytick_9">
     <g id="line2d_43">
      <path d="M 61.62625 66.278095 
L 848.38625 66.278095 
" clip-path="url(#p0a29820d53)" style="fill: none; stroke-dasharray: 2.96,1.28; stroke-dashoffset: 0; stroke: #b0b0b0; stroke-opacity: 0.3; stroke-width: 0.8"/>
     </g>
     <g id="line2d_44">
      <g>
       <use xlink:href="#m85030b4a29" x="61.62625" y="66.278095" style="stroke: #000000; stroke-width: 0.8"/>
      </g>
     </g>
     <g id="text_23">
      <!-- 16000 -->
      <g transform="translate(22.81375 70.077314) scale(0.1 -0.1)">
       <use xlink:href="#DejaVuSans-31"/>
       <use xlink:href="#DejaVuSans-36" transform="translate(63.623047 0)"/>
       <use xlink:href="#DejaVuSans-30" transform="translate(127.246094 0)"/>
       <use xlink:href="#DejaVuSans-30" transform="translate(190.869141 0)"/>
       <use xlink:href="#DejaVuSans-30" transform="translate(254.492188 0)"/>
      </g>
     </g>
    </g>
    <g id="text_24">
     <!-- Daily pedestrian count -->
     <g transform="translate(16.318125 279.793125) rotate(-90) scale(0.12 -0.12)">
      <defs>
       <path id="DejaVuSans-69" d="M 603 3500 
L 1178 3500 
L 1178 0 
L 603 0 
L 603 3500 
z
M 603 4863 
L 1178 4863 
L 1178 4134 
L 603 4134 
L 603 4863 
z
" transform="scale(0.015625)"/>
       <path id="DejaVuSans-64" d="M 2906 2969 
L 2906 4863 
L 3481 4863 
L 3481 0 
L 2906 0 
L 2906 525 
Q 2725 213 2448 61 
Q 2172 -91 1784 -91 
Q 1150 -91 751 415 
Q 353 922 353 1747 
Q 353 2572 751 3078 
Q 1150 3584 1784 3584 
Q 2172 3584 2448 3432 
Q 2725 3281 2906 2969 
z
M 947 1747 
Q 947 1113 1208 752 
Q 1469 391 1925 391 
Q 2381 391 2643 752 
Q 2906 1113 2906 1747 
Q 2906 2381 2643 2742 
Q 2381 3103 1925 3103 
Q 1469 3103 1208 2742 
Q 947 2381 947 1747 
z
" transform="scale(0.015625)"/>
       <path id="DejaVuSans-73" d="M 2834 3397 
L 2834 2853 
Q 2591 2978 2328 3040 
Q 2066 3103 1784 3103 
Q 1356 3103 1142 2972 
Q 928 2841 928 2578 
Q 928 2378 1081 2264 
Q 1234 2150 1697 2047 
L 1894 2003 
Q 2506 1872 2764 1633 
Q 3022 1394 3022 966 
Q 3022 478 2636 193 
Q 2250 -91 1575 -91 
Q 1294 -91 989 -36 
Q 684 19 347 128 
L 347 722 
Q 666 556 975 473 
Q 1284 391 1588 391 
Q 1994 391 2212 530 
Q 2431 669 2431 922 
Q 2431 1156 2273 1281 
Q 2116 1406 1581 1522 
L 1381 1569 
Q 847 1681 609 1914 
Q 372 2147 372 2553 
Q 372 3047 722 3315 
Q 1072 3584 1716 3584 
Q 2034 3584 2315 3537 
Q 2597 3491 2834 3397 
z
" transform="scale(0.015625)"/>
      </defs>
      <use xlink:href="#DejaVuSans-44"/>
      <use xlink:href="#DejaVuSans-61" transform="translate(77.001953 0)"/>
      <use xlink:href="#DejaVuSans-69" transform="translate(138.28125 0)"/>
      <use xlink:href="#DejaVuSans-6c" transform="translate(166.064453 0)"/>
      <use xlink:href="#DejaVuSans-79" transform="translate(193.847656 0)"/>
      <use xlink:href="#DejaVuSans-20" transform="translate(253.027344 0)"/>
      <use xlink:href="#DejaVuSans-70" transform="translate(284.814453 0)"/>
      <use xlink:href="#DejaVuSans-65" transform="translate(348.291016 0)"/>
      <use xlink:href="#DejaVuSans-64" transform="translate(409.814453 0)"/>
      <use xlink:href="#DejaVuSans-65" transform="translate(473.291016 0)"/>
      <use xlink:href="#DejaVuSans-73" transform="translate(534.814453 0)"/>
      <use xlink:href="#DejaVuSans-74" transform="translate(586.914062 0)"/>
      <use xlink:href="#DejaVuSans-72" transform="translate(626.123047 0)"/>
      <use xlink:href="#DejaVuSans-69" transform="translate(667.236328 0)"/>
      <use xlink:href="#DejaVuSans-61" transform="translate(695.019531 0)"/>
      <use xlink:href="#DejaVuSans-6e" transform="translate(756.298828 0)"/>
      <use xlink:href="#DejaVuSans-20" transform="translate(819.677734 0)"/>
      <use xlink:href="#DejaVuSans-63" transform="translate(851.464844 0)"/>
      <use xlink:href="#DejaVuSans-6f" transform="translate(906.445312 0)"/>
      <use xlink:href="#DejaVuSans-75" transform="translate(967.626953 0)"/>
      <use xlink:href="#DejaVuSans-6e" transform="translate(1031.005859 0)"/>
      <use xlink:href="#DejaVuSans-74" transform="translate(1094.384766 0)"/>
     </g>
    </g>
   </g>
   <g id="line2d_45">
    <path d="M 63.752628 326.976669 
L 65.879007 286.984241 
L 68.005385 294.054296 
L 70.131764 317.770058 
L 72.258142 283.915371 
L 74.38452 271.251426 
L 76.510899 329.948423 
L 78.637277 296.462777 
L 80.763655 268.299095 
L 82.890034 293.257944 
L 85.016412 299.123759 
L 87.142791 276.767623 
L 89.269169 281.254389 
L 91.395547 341.932555 
L 93.521926 315.400424 
L 95.648304 291.704086 
L 97.774682 317.148515 
L 99.901061 303.688218 
L 102.027439 272.106048 
L 104.153818 273.951255 
L 106.280196 336.280395 
L 108.406574 315.55581 
L 110.532953 287.644631 
L 112.659331 312.720019 
L 114.785709 324.723574 
L 116.912088 284.847686 
L 119.038466 276.806469 
L 121.164845 338.009062 
L 123.291223 318.391602 
L 125.417601 317.012552 
L 127.54398 302.483977 
L 129.670358 300.09492 
L 131.796736 295.724694 
L 133.923115 304.348607 
L 136.049493 333.561143 
L 138.175872 311.379816 
L 140.30225 306.504586 
L 142.428628 309.728842 
L 144.555007 300.580501 
L 146.681385 293.996027 
L 148.807764 284.051334 
L 150.934142 331.366318 
L 153.06052 316.740627 
L 155.186899 291.276775 
L 157.313277 296.326814 
L 159.439655 292.228513 
L 161.566034 273.465674 
L 163.692412 272.028355 
L 165.818791 332.182094 
L 167.945169 305.611117 
L 170.071547 283.293828 
L 172.197926 293.005442 
L 174.324304 288.071942 
L 176.450682 267.133701 
L 178.577061 282.244973 
L 180.703439 329.26861 
L 182.829818 297.200859 
L 184.956196 279.545144 
L 187.082574 307.359208 
L 189.208953 310.039613 
L 191.335331 297.861249 
L 193.461709 289.722916 
L 195.588088 322.043169 
L 197.714466 306.757088 
L 199.840845 279.389759 
L 201.967223 292.75294 
L 204.093601 295.200267 
L 206.21998 265.871192 
L 208.346358 278.49629 
L 210.472736 331.308049 
L 212.599115 301.998397 
L 214.725493 295.705271 
L 218.97825 294.267952 
L 221.104628 273.465674 
L 223.231007 277.039548 
L 225.357385 332.764791 
L 227.483764 306.582279 
L 229.610142 291.995434 
L 231.73652 297.200859 
L 233.862899 294.520454 
L 235.989277 286.945395 
L 238.115655 262.277894 
L 240.242034 335.115001 
L 242.368412 302.56167 
L 244.494791 313.302716 
L 246.621169 297.511631 
L 248.747547 296.171428 
L 250.873926 296.016042 
L 253.000304 288.810025 
L 255.126682 330.997277 
L 257.253061 298.210867 
L 259.379439 319.518149 
L 261.505818 298.83241 
L 263.632196 290.616385 
L 265.758574 274.16491 
L 267.884953 244.758142 
L 270.011331 330.492273 
L 272.137709 301.066082 
L 274.264088 295.511038 
L 276.390466 294.714686 
L 278.516845 285.663461 
L 280.643223 263.812329 
L 282.769601 259.053638 
L 284.89598 326.063777 
L 287.022358 299.978381 
L 289.148736 287.333859 
L 291.275115 278.068979 
L 293.401493 317.653519 
L 295.527872 255.110723 
L 297.65425 277.680515 
L 299.780628 335.658852 
L 301.907007 302.794749 
L 304.033385 291.5487 
L 306.159764 327.132054 
L 308.286142 297.006627 
L 310.41252 282.497475 
L 312.538899 289.450991 
L 314.665277 332.900753 
L 316.791655 305.514001 
L 318.918034 294.870072 
L 321.044412 306.504586 
L 323.170791 293.024865 
L 325.297169 285.508076 
L 327.423547 282.652861 
L 329.549926 336.125009 
L 331.676304 306.057851 
L 333.802682 303.008405 
L 335.929061 310.874812 
L 338.055439 321.732397 
L 340.181818 278.593406 
L 342.308196 292.616977 
L 344.434574 333.308641 
L 346.560953 304.018412 
L 348.687331 321.984899 
L 350.813709 303.027828 
L 352.940088 289.140219 
L 355.066466 271.309696 
L 357.192845 273.174326 
L 359.319223 327.326287 
L 361.445601 303.241483 
L 363.57198 327.034938 
L 365.698358 302.01782 
L 367.824736 303.435716 
L 369.951115 278.476867 
L 372.077493 282.555745 
L 374.203872 337.523482 
L 376.33025 306.757088 
L 378.456628 337.81483 
L 380.583007 314.448686 
L 382.709385 307.631133 
L 384.835764 278.049556 
L 386.962142 286.576353 
L 389.08852 340.301003 
L 391.214899 302.406284 
L 393.341277 283.293828 
L 395.467655 301.046658 
L 397.594034 287.236743 
L 399.720412 267.988323 
L 401.846791 257.189008 
L 403.973169 330.919584 
L 406.099547 303.047251 
L 408.225926 298.28856 
L 410.352304 304.639956 
L 412.478682 303.610525 
L 414.605061 273.582213 
L 416.731439 281.856509 
L 418.857818 329.171493 
L 420.984196 316.934859 
L 423.110574 292.75294 
L 425.236953 321.072007 
L 427.363331 299.298568 
L 429.489709 281.720546 
L 431.616088 280.788231 
L 433.742466 334.629421 
L 435.868845 298.851834 
L 437.995223 241.825235 
L 440.121601 299.939534 
L 442.24798 286.848278 
L 444.374358 307.029013 
L 446.500736 272.611052 
L 448.627115 330.939007 
L 450.753493 301.47397 
L 452.879872 215.642722 
L 455.00625 290.014265 
L 457.132628 273.096633 
L 459.259007 245.476802 
L 461.385385 270.668729 
L 463.511764 331.444011 
L 465.638142 299.4928 
L 467.76452 245.16603 
L 469.890899 298.754718 
L 472.017277 295.705271 
L 474.143655 277.486282 
L 476.270034 293.549292 
L 478.396412 336.06674 
L 480.522791 306.543432 
L 482.649169 263.734636 
L 484.775547 294.695263 
L 486.901926 286.323851 
L 489.028304 267.405627 
L 491.154682 270.862961 
L 493.281061 332.842484 
L 495.407439 312.700596 
L 497.533818 245.904113 
L 499.660196 300.75531 
L 501.786574 304.717649 
L 503.912953 248.972983 
L 506.039331 268.007747 
L 508.165709 330.764198 
L 510.292088 300.327999 
L 512.418466 260.607497 
L 514.544845 303.921296 
L 516.671223 289.353875 
L 518.797601 278.127249 
L 520.92398 277.563975 
L 523.050358 330.705929 
L 525.176736 311.049621 
L 527.303115 275.097225 
L 529.429493 309.379224 
L 531.555872 307.961328 
L 533.68225 291.043696 
L 535.808628 280.613422 
L 537.935007 333.075562 
L 540.061385 300.949542 
L 542.187764 250.313185 
L 544.314142 295.957773 
L 546.44052 297.511631 
L 548.566899 241.572733 
L 550.693277 287.256166 
L 552.819655 329.734767 
L 554.946034 300.405692 
L 557.072412 265.754652 
L 559.198791 291.665239 
L 561.325169 271.212579 
L 563.451547 263.75406 
L 565.577926 265.871192 
L 567.704304 328.763606 
L 569.830682 303.746487 
L 571.957061 283.915371 
L 574.083439 301.046658 
L 576.209818 289.392721 
L 578.336196 267.444473 
L 580.462574 283.837678 
L 582.588953 335.231541 
L 584.715331 289.101373 
L 586.841709 321.635281 
L 588.968088 294.947765 
L 591.094466 294.209682 
L 593.220845 281.837085 
L 595.347223 289.08195 
L 597.473601 336.727129 
L 599.59998 300.619347 
L 601.726358 316.138507 
L 603.852736 290.266767 
L 605.979115 284.983648 
L 608.105493 261.17077 
L 610.231872 285.003072 
L 612.35825 327.365133 
L 614.484628 293.782371 
L 616.611007 279.389759 
L 618.737385 293.471599 
L 620.863764 289.975418 
L 622.990142 285.546922 
L 625.11652 257.44151 
L 663.391331 297.531054 
L 665.517709 282.031318 
L 667.644088 236.891735 
L 669.770466 268.415635 
L 671.896845 326.296856 
L 674.023223 295.180843 
L 676.149601 308.87422 
L 678.27598 313.225023 
L 680.402358 288.96541 
L 682.528736 275.000109 
L 684.655115 277.544552 
L 686.781493 324.121454 
L 688.907872 292.170243 
L 691.03425 282.186704 
L 693.160628 295.180843 
L 695.287007 292.966595 
L 697.413385 284.226143 
L 699.539764 271.115463 
L 701.666142 320.60585 
L 703.79252 302.911288 
L 705.918899 308.81595 
L 708.045277 302.988981 
L 710.171655 293.996027 
L 712.298034 310.097883 
L 714.424412 279.448028 
L 716.550791 290.558115 
L 718.677169 312.215015 
L 720.803547 315.206192 
L 725.056304 300.599924 
L 727.182682 284.129026 
L 729.309061 277.428013 
L 731.435439 318.197369 
L 733.561818 289.295605 
L 735.688196 311.146737 
L 737.814574 271.795276 
L 739.940953 270.163725 
L 742.067331 244.291985 
L 744.193709 247.729896 
L 746.320088 314.448686 
L 748.446466 280.477459 
L 750.572845 281.254389 
L 752.699223 295.82181 
L 754.825601 286.751162 
L 756.95198 271.8147 
L 759.078358 268.998331 
L 761.204736 324.140877 
L 763.331115 304.562263 
L 765.457493 279.778223 
L 767.583872 288.285597 
L 769.71025 291.471007 
L 771.836628 268.182556 
L 773.963007 293.762948 
L 776.089385 328.161486 
L 778.215764 300.308576 
L 780.342142 289.004257 
L 782.46852 296.307391 
L 784.594899 292.364475 
L 786.721277 268.357365 
L 788.847655 276.418005 
L 790.974034 335.095578 
L 793.100412 290.053111 
L 795.226791 294.229105 
L 797.353169 291.43216 
L 801.605926 276.670507 
L 803.732304 275.738192 
L 805.858682 326.529934 
L 807.985061 296.870664 
L 810.111439 298.074905 
L 812.237818 292.09255 
L 814.364196 318.857759 
L 816.490574 263.656944 
L 818.616953 260.743459 
L 820.743331 287.275589 
L 822.869709 271.853546 
L 824.996088 335.542312 
L 827.122466 318.411025 
L 829.248845 281.273812 
L 831.375223 277.466859 
L 833.501601 282.439206 
L 835.62798 339.990232 
L 837.754358 267.619282 
L 837.754358 267.619282 
" clip-path="url(#p0a29820d53)" style="fill: none; stroke: #0d6efc; stroke-opacity: 0.8; stroke-width: 2.5; stroke-linecap: square"/>
   </g>
   <g id="line2d_46">
    <path d="M 63.752628 266.609274 
L 65.879007 191.32484 
L 68.005385 205.717453 
L 70.131764 217.895817 
L 72.258142 249.672219 
L 74.38452 293.121981 
L 76.510899 205.270718 
L 78.637277 217.779278 
L 80.763655 233.4344 
L 82.890034 230.462646 
L 85.016412 199.035862 
L 87.142791 247.555087 
L 89.269169 271.69816 
L 91.395547 232.288429 
L 93.521926 251.206654 
L 95.648304 218.03178 
L 97.774682 215.351374 
L 99.901061 194.859868 
L 102.027439 211.23365 
L 104.153818 280.322074 
L 106.280196 245.340839 
L 108.406574 220.576223 
L 110.532953 236.891735 
L 112.659331 223.295475 
L 114.785709 188.003468 
L 116.912088 204.746291 
L 119.038466 290.480422 
L 121.164845 231.084189 
L 123.291223 227.762817 
L 125.417601 226.675116 
L 127.54398 228.481477 
L 129.670358 206.533228 
L 133.923115 287.372706 
L 136.049493 261.306733 
L 138.175872 221.450268 
L 140.30225 227.29666 
L 142.428628 219.449675 
L 144.555007 206.591498 
L 146.681385 184.060553 
L 148.807764 266.686967 
L 150.934142 238.076551 
L 153.06052 236.386731 
L 155.186899 249.827605 
L 157.313277 200.473181 
L 159.439655 192.237732 
L 161.566034 192.004653 
L 163.692412 255.149569 
L 165.818791 220.537376 
L 167.945169 213.253665 
L 170.071547 218.206589 
L 172.197926 214.457906 
L 174.324304 206.416689 
L 176.450682 221.294882 
L 178.577061 248.89529 
L 180.703439 200.745106 
L 182.829818 208.514398 
L 184.956196 211.214226 
L 187.082574 188.91636 
L 189.208953 161.78211 
L 191.335331 178.583202 
L 193.461709 235.318453 
L 195.588088 209.485559 
L 197.714466 188.547319 
L 199.840845 205.989378 
L 201.967223 190.295409 
L 204.093601 176.660303 
L 206.21998 193.616781 
L 208.346358 266.958892 
L 210.472736 223.625669 
L 212.599115 198.666821 
L 214.725493 210.243065 
L 216.851872 191.635612 
L 218.97825 197.268348 
L 221.104628 234.366715 
L 223.231007 232.812857 
L 225.357385 191.946384 
L 227.483764 221.916425 
L 231.73652 201.19184 
L 233.862899 138.80443 
L 235.989277 154.129358 
L 238.115655 250.274339 
L 240.242034 197.268348 
L 242.368412 230.90938 
L 244.494791 185.653258 
L 246.621169 188.333663 
L 248.747547 165.200598 
L 250.873926 175.553179 
L 253.000304 237.455008 
L 255.126682 199.152401 
L 257.253061 221.061803 
L 259.379439 197.287771 
L 261.505818 198.142394 
L 263.632196 155.935718 
L 265.758574 180.991683 
L 267.884953 260.957115 
L 270.011331 193.131201 
L 272.137709 192.431964 
L 274.264088 192.0435 
L 276.390466 185.167677 
L 278.516845 155.139365 
L 280.643223 176.194145 
L 282.769601 254.858221 
L 284.89598 198.763937 
L 287.022358 189.304825 
L 289.148736 183.866321 
L 291.275115 237.319046 
L 293.401493 153.60493 
L 295.527872 190.878106 
L 297.65425 263.0354 
L 299.780628 215.545606 
L 301.907007 193.597358 
L 304.033385 197.753929 
L 306.159764 250.216069 
L 308.286142 157.703232 
L 310.41252 185.983452 
L 312.538899 253.925906 
L 314.665277 220.653915 
L 316.791655 204.940524 
L 318.918034 200.531451 
L 321.044412 190.897529 
L 323.170791 156.576684 
L 325.297169 172.562002 
L 327.423547 248.681634 
L 329.549926 208.397858 
L 331.676304 210.145949 
L 333.802682 206.960539 
L 335.929061 189.635019 
L 338.055439 147.272958 
L 340.181818 174.290669 
L 342.308196 250.857036 
L 344.434574 210.417874 
L 346.560953 226.150689 
L 348.687331 209.038825 
L 350.813709 179.65148 
L 352.940088 181.632649 
L 355.066466 166.327145 
L 357.192845 245.690457 
L 359.319223 198.200663 
L 361.445601 214.535598 
L 363.57198 189.499057 
L 365.698358 191.693882 
L 367.824736 162.209421 
L 369.951115 164.85098 
L 372.077493 237.280199 
L 374.203872 205.736876 
L 376.33025 216.516768 
L 378.456628 190.83926 
L 380.583007 181.632649 
L 382.709385 135.832676 
L 384.835764 169.026974 
L 386.962142 308.310946 
L 389.08852 220.634492 
L 391.214899 177.12646 
L 393.341277 210.126526 
L 395.467655 215.972917 
L 397.594034 364.230421 
L 399.720412 183.011698 
L 401.846791 276.320889 
L 403.973169 230.676301 
L 406.099547 169.648517 
L 408.225926 205.620337 
L 410.352304 202.493197 
L 412.478682 187.906352 
L 414.605061 365.861972 
L 416.731439 258.121323 
L 418.857818 221.120073 
L 420.984196 145.913332 
L 423.110574 223.489707 
L 425.236953 361.841364 
L 427.363331 181.846305 
L 429.489709 175.048175 
L 431.616088 264.725221 
L 433.742466 241.553309 
L 435.868845 222.751624 
L 437.995223 221.003534 
L 440.121601 214.943486 
L 442.24798 177.204153 
L 444.374358 198.958169 
L 446.500736 368.522955 
L 448.627115 230.268414 
L 450.753493 241.242538 
L 452.879872 365.415238 
L 455.00625 210.145949 
L 457.132628 170.44487 
L 459.259007 170.211791 
L 461.385385 249.905298 
L 463.511764 222.24662 
L 465.638142 115.496556 
L 467.76452 215.487337 
L 469.890899 186.469033 
L 472.017277 127.67492 
L 474.143655 166.793303 
L 476.270034 254.916491 
L 478.396412 203.192433 
L 480.522791 85.74017 
L 482.649169 194.782175 
L 484.775547 190.567334 
L 486.901926 189.032899 
L 489.028304 177.437232 
L 491.154682 261.636928 
L 493.281061 248.390286 
L 495.407439 177.378962 
L 497.533818 204.862831 
L 499.660196 191.946384 
L 501.786574 162.442499 
L 503.912953 189.227132 
L 506.039331 244.738719 
L 508.165709 211.83577 
L 510.292088 152.051072 
L 512.418466 198.744514 
L 514.544845 182.021114 
L 516.671223 149.195858 
L 518.797601 154.362436 
L 520.92398 241.805811 
L 523.050358 364.580039 
L 525.176736 157.819771 
L 527.303115 196.705075 
L 529.429493 177.709157 
L 531.555872 136.124025 
L 533.68225 144.747938 
L 535.808628 236.542116 
L 537.935007 196.899307 
L 540.061385 141.737338 
L 542.187764 181.360724 
L 544.314142 182.856313 
L 546.44052 141.834454 
L 548.566899 163.627316 
L 550.693277 249.342024 
L 552.819655 195.190063 
L 554.946034 150.225289 
L 557.072412 188.85809 
L 559.198791 180.175907 
L 561.325169 139.425974 
L 563.451547 161.374222 
L 565.577926 248.584518 
L 567.704304 226.403191 
L 569.830682 174.543171 
L 571.957061 203.425512 
L 574.083439 210.320758 
L 576.209818 171.610263 
L 578.336196 220.401413 
L 580.462574 257.130739 
L 582.588953 211.913463 
L 584.715331 229.996488 
L 586.841709 206.338996 
L 588.968088 184.701519 
L 591.094466 147.234111 
L 593.220845 194.199478 
L 595.347223 251.517426 
L 597.473601 216.982925 
L 599.59998 238.989443 
L 601.726358 200.570297 
L 603.852736 196.569112 
L 605.979115 188.333663 
L 608.105493 174.212976 
L 610.231872 255.751689 
L 612.35825 217.177158 
L 614.484628 221.722193 
L 616.611007 195.481411 
L 618.737385 203.17301 
L 620.863764 168.910435 
L 622.990142 179.903982 
L 625.11652 245.321416 
L 627.242899 197.909315 
L 629.369277 205.969955 
L 631.495655 172.25123 
L 633.622034 193.111777 
L 635.748412 167.453692 
L 637.874791 155.993988 
L 640.001169 244.719296 
L 642.127547 208.999978 
L 644.253926 209.446713 
L 646.380304 209.116518 
L 648.506682 191.519073 
L 650.633061 139.367704 
L 652.759439 178.408393 
L 654.885818 245.379685 
L 657.012196 160.422484 
L 659.138574 173.3972 
L 661.264953 161.06345 
L 663.391331 170.211791 
L 665.517709 133.094001 
L 667.644088 150.963371 
L 669.770466 217.721008 
L 671.896845 171.377185 
L 674.023223 174.11586 
L 676.149601 177.612041 
L 678.27598 143.524275 
L 680.402358 55.032045 
L 682.528736 128.87916 
L 684.655115 220.925841 
L 686.781493 154.828594 
L 688.907872 216.400228 
L 691.03425 159.664978 
L 693.160628 158.169389 
L 695.287007 134.123432 
L 699.539764 254.197831 
L 701.666142 184.429594 
L 703.79252 212.399043 
L 705.918899 188.547319 
L 708.045277 206.280726 
L 710.171655 126.742605 
L 712.298034 156.149373 
L 714.424412 267.696975 
L 716.550791 249.594526 
L 718.677169 223.683939 
L 720.803547 182.623234 
L 722.929926 197.443157 
L 725.056304 205.328988 
L 727.182682 173.824511 
L 729.309061 255.402071 
L 731.435439 219.138904 
L 733.561818 227.490892 
L 735.688196 187.65385 
L 737.814574 170.503139 
L 739.940953 146.26295 
L 742.067331 196.938153 
L 744.193709 266.22081 
L 746.320088 215.720415 
L 748.446466 209.796331 
L 750.572845 203.095317 
L 752.699223 190.761567 
L 754.825601 172.969889 
L 756.95198 211.311343 
L 759.078358 258.257286 
L 761.204736 212.185388 
L 763.331115 238.600979 
L 765.457493 234.405561 
L 767.583872 219.002941 
L 769.71025 190.256563 
L 771.836628 200.628567 
L 773.963007 274.16491 
L 776.089385 222.615662 
L 778.215764 225.198951 
L 780.342142 241.281384 
L 782.46852 207.213041 
L 784.594899 197.287771 
L 786.721277 172.659118 
L 788.847655 268.901215 
L 790.974034 219.527368 
L 793.100412 227.859933 
L 795.226791 204.454943 
L 797.353169 216.011764 
L 799.479547 175.37837 
L 801.605926 183.905167 
L 803.732304 254.392063 
L 805.858682 277.583398 
L 807.985061 214.593868 
L 812.237818 251.672811 
L 814.364196 195.306602 
L 816.490574 230.423799 
L 818.616953 259.500373 
L 820.743331 168.619086 
L 822.869709 212.496159 
L 824.996088 287.508668 
L 827.122466 264.045408 
L 829.248845 170.98872 
L 831.375223 177.72858 
L 833.501601 274.844723 
L 835.62798 200.414911 
L 837.754358 195.423142 
L 837.754358 195.423142 
" clip-path="url(#p0a29820d53)" style="fill: none; stroke: #83c966; stroke-opacity: 0.8; stroke-width: 2.5; stroke-linecap: square"/>
   </g>
   <g id="patch_3">
    <path d="M 61.62625 384.1975 
L 61.62625 39.3575 
" style="fill: none; stroke: #000000; stroke-width: 0.8; stroke-linejoin: miter; stroke-linecap: square"/>
   </g>
   <g id="patch_4">
    <path d="M 61.62625 384.1975 
L 848.38625 384.1975 
" style="fill: none; stroke: #000000; stroke-width: 0.8; stroke-linejoin: miter; stroke-linecap: square"/>
   </g>
   <g id="text_25">
    <!-- Pedestrian Traffic at QVM-Therry St (South) -->
    <g transform="translate(283.27125 19.3575) scale(0.16 -0.16)">
     <defs>
      <path id="DejaVuSans-50" d="M 1259 4147 
L 1259 2394 
L 2053 2394 
Q 2494 2394 2734 2622 
Q 2975 2850 2975 3272 
Q 2975 3691 2734 3919 
Q 2494 4147 2053 4147 
L 1259 4147 
z
M 628 4666 
L 2053 4666 
Q 2838 4666 3239 4311 
Q 3641 3956 3641 3272 
Q 3641 2581 3239 2228 
Q 2838 1875 2053 1875 
L 1259 1875 
L 1259 0 
L 628 0 
L 628 4666 
z
" transform="scale(0.015625)"/>
      <path id="DejaVuSans-54" d="M -19 4666 
L 3928 4666 
L 3928 4134 
L 2272 4134 
L 2272 0 
L 1638 0 
L 1638 4134 
L -19 4134 
L -19 4666 
z
" transform="scale(0.015625)"/>
      <path id="DejaVuSans-51" d="M 2522 4238 
Q 1834 4238 1429 3725 
Q 1025 3213 1025 2328 
Q 1025 1447 1429 934 
Q 1834 422 2522 422 
Q 3209 422 3611 934 
Q 4013 1447 4013 2328 
Q 4013 3213 3611 3725 
Q 3209 4238 2522 4238 
z
M 3406 84 
L 4238 -825 
L 3475 -825 
L 2784 -78 
Q 2681 -84 2626 -87 
Q 2572 -91 2522 -91 
Q 1538 -91 948 567 
Q 359 1225 359 2328 
Q 359 3434 948 4092 
Q 1538 4750 2522 4750 
Q 3503 4750 4090 4092 
Q 4678 3434 4678 2328 
Q 4678 1516 4351 937 
Q 4025 359 3406 84 
z
" transform="scale(0.015625)"/>
      <path id="DejaVuSans-56" d="M 1831 0 
L 50 4666 
L 709 4666 
L 2188 738 
L 3669 4666 
L 4325 4666 
L 2547 0 
L 1831 0 
z
" transform="scale(0.015625)"/>
      <path id="DejaVuSans-2d" d="M 313 2009 
L 1997 2009 
L 1997 1497 
L 313 1497 
L 313 2009 
z
" transform="scale(0.015625)"/>
      <path id="DejaVuSans-28" d="M 1984 4856 
Q 1566 4138 1362 3434 
Q 1159 2731 1159 2009 
Q 1159 1288 1364 580 
Q 1569 -128 1984 -844 
L 1484 -844 
Q 1016 -109 783 600 
Q 550 1309 550 2009 
Q 550 2706 781 3412 
Q 1013 4119 1484 4856 
L 1984 4856 
z
" transform="scale(0.015625)"/>
      <path id="DejaVuSans-29" d="M 513 4856 
L 1013 4856 
Q 1481 4119 1714 3412 
Q 1947 2706 1947 2009 
Q 1947 1309 1714 600 
Q 1481 -109 1013 -844 
L 513 -844 
Q 928 -128 1133 580 
Q 1338 1288 1338 2009 
Q 1338 2731 1133 3434 
Q 928 4138 513 4856 
z
" transform="scale(0.015625)"/>
     </defs>
     <use xlink:href="#DejaVuSans-50"/>
     <use xlink:href="#DejaVuSans-65" transform="translate(56.677734 0)"/>
     <use xlink:href="#DejaVuSans-64" transform="translate(118.201172 0)"/>
     <use xlink:href="#DejaVuSans-65" transform="translate(181.677734 0)"/>
     <use xlink:href="#DejaVuSans-73" transform="translate(243.201172 0)"/>
     <use xlink:href="#DejaVuSans-74" transform="translate(295.300781 0)"/>
     <use xlink:href="#DejaVuSans-72" transform="translate(334.509766 0)"/>
     <use xlink:href="#DejaVuSans-69" transform="translate(375.623047 0)"/>
     <use xlink:href="#DejaVuSans-61" transform="translate(403.40625 0)"/>
     <use xlink:href="#DejaVuSans-6e" transform="translate(464.685547 0)"/>
     <use xlink:href="#DejaVuSans-20" transform="translate(528.064453 0)"/>
     <use xlink:href="#DejaVuSans-54" transform="translate(559.851562 0)"/>
     <use xlink:href="#DejaVuSans-72" transform="translate(606.185547 0)"/>
     <use xlink:href="#DejaVuSans-61" transform="translate(647.298828 0)"/>
     <use xlink:href="#DejaVuSans-66" transform="translate(708.578125 0)"/>
     <use xlink:href="#DejaVuSans-66" transform="translate(743.783203 0)"/>
     <use xlink:href="#DejaVuSans-69" transform="translate(778.988281 0)"/>
     <use xlink:href="#DejaVuSans-63" transform="translate(806.771484 0)"/>
     <use xlink:href="#DejaVuSans-20" transform="translate(861.751953 0)"/>
     <use xlink:href="#DejaVuSans-61" transform="translate(893.539062 0)"/>
     <use xlink:href="#DejaVuSans-74" transform="translate(954.818359 0)"/>
     <use xlink:href="#DejaVuSans-20" transform="translate(994.027344 0)"/>
     <use xlink:href="#DejaVuSans-51" transform="translate(1025.814453 0)"/>
     <use xlink:href="#DejaVuSans-56" transform="translate(1104.525391 0)"/>
     <use xlink:href="#DejaVuSans-4d" transform="translate(1172.933594 0)"/>
     <use xlink:href="#DejaVuSans-2d" transform="translate(1259.212891 0)"/>
     <use xlink:href="#DejaVuSans-54" transform="translate(1286.171875 0)"/>
     <use xlink:href="#DejaVuSans-68" transform="translate(1347.255859 0)"/>
     <use xlink:href="#DejaVuSans-65" transform="translate(1410.634766 0)"/>
     <use xlink:href="#DejaVuSans-72" transform="translate(1472.158203 0)"/>
     <use xlink:href="#DejaVuSans-72" transform="translate(1511.521484 0)"/>
     <use xlink:href="#DejaVuSans-79" transform="translate(1552.634766 0)"/>
     <use xlink:href="#DejaVuSans-20" transform="translate(1611.814453 0)"/>
     <use xlink:href="#DejaVuSans-53" transform="translate(1643.601562 0)"/>
     <use xlink:href="#DejaVuSans-74" transform="translate(1707.078125 0)"/>
     <use xlink:href="#DejaVuSans-20" transform="translate(1746.287109 0)"/>
     <use xlink:href="#DejaVuSans-28" transform="translate(1778.074219 0)"/>
     <use xlink:href="#DejaVuSans-53" transform="translate(1817.087891 0)"/>
     <use xlink:href="#DejaVuSans-6f" transform="translate(1880.564453 0)"/>
     <use xlink:href="#DejaVuSans-75" transform="translate(1941.746094 0)"/>
     <use xlink:href="#DejaVuSans-74" transform="translate(2005.125 0)"/>
     <use xlink:href="#DejaVuSans-68" transform="translate(2044.333984 0)"/>
     <use xlink:href="#DejaVuSans-29" transform="translate(2107.712891 0)"/>
    </g>
   </g>
   <g id="legend_1">
    <g id="patch_5">
     <path d="M 69.32625 80.449375 
L 132.52125 80.449375 
Q 134.72125 80.449375 134.72125 78.249375 
L 134.72125 47.0575 
Q 134.72125 44.8575 132.52125 44.8575 
L 69.32625 44.8575 
Q 67.12625 44.8575 67.12625 47.0575 
L 67.12625 78.249375 
Q 67.12625 80.449375 69.32625 80.449375 
z
" style="fill: #ffffff; opacity: 0.95; stroke: #cccccc; stroke-linejoin: miter"/>
    </g>
    <g id="line2d_47">
     <path d="M 71.52625 53.765781 
L 82.52625 53.765781 
L 93.52625 53.765781 
" style="fill: none; stroke: #0d6efc; stroke-opacity: 0.8; stroke-width: 2.5; stroke-linecap: square"/>
    </g>
    <g id="text_26">
     <!-- 2019 -->
     <g transform="translate(102.32625 57.615781) scale(0.11 -0.11)">
      <defs>
       <path id="DejaVuSans-39" d="M 703 97 
L 703 672 
Q 941 559 1184 500 
Q 1428 441 1663 441 
Q 2288 441 2617 861 
Q 2947 1281 2994 2138 
Q 2813 1869 2534 1725 
Q 2256 1581 1919 1581 
Q 1219 1581 811 2004 
Q 403 2428 403 3163 
Q 403 3881 828 4315 
Q 1253 4750 1959 4750 
Q 2769 4750 3195 4129 
Q 3622 3509 3622 2328 
Q 3622 1225 3098 567 
Q 2575 -91 1691 -91 
Q 1453 -91 1209 -44 
Q 966 3 703 97 
z
M 1959 2075 
Q 2384 2075 2632 2365 
Q 2881 2656 2881 3163 
Q 2881 3666 2632 3958 
Q 2384 4250 1959 4250 
Q 1534 4250 1286 3958 
Q 1038 3666 1038 3163 
Q 1038 2656 1286 2365 
Q 1534 2075 1959 2075 
z
" transform="scale(0.015625)"/>
      </defs>
      <use xlink:href="#DejaVuSans-32"/>
      <use xlink:href="#DejaVuSans-30" transform="translate(63.623047 0)"/>
      <use xlink:href="#DejaVuSans-31" transform="translate(127.246094 0)"/>
      <use xlink:href="#DejaVuSans-39" transform="translate(190.869141 0)"/>
     </g>
    </g>
    <g id="line2d_48">
     <path d="M 71.52625 69.911719 
L 82.52625 69.911719 
L 93.52625 69.911719 
" style="fill: none; stroke: #83c966; stroke-opacity: 0.8; stroke-width: 2.5; stroke-linecap: square"/>
    </g>
    <g id="text_27">
     <!-- 2025 -->
     <g transform="translate(102.32625 73.761719) scale(0.11 -0.11)">
      <defs>
       <path id="DejaVuSans-35" d="M 691 4666 
L 3169 4666 
L 3169 4134 
L 1269 4134 
L 1269 2991 
Q 1406 3038 1543 3061 
Q 1681 3084 1819 3084 
Q 2600 3084 3056 2656 
Q 3513 2228 3513 1497 
Q 3513 744 3044 326 
Q 2575 -91 1722 -91 
Q 1428 -91 1123 -41 
Q 819 9 494 109 
L 494 744 
Q 775 591 1075 516 
Q 1375 441 1709 441 
Q 2250 441 2565 725 
Q 2881 1009 2881 1497 
Q 2881 1984 2565 2268 
Q 2250 2553 1709 2553 
Q 1456 2553 1204 2497 
Q 953 2441 691 2322 
L 691 4666 
z
" transform="scale(0.015625)"/>
      </defs>
      <use xlink:href="#DejaVuSans-32"/>
      <use xlink:href="#DejaVuSans-30" transform="translate(63.623047 0)"/>
      <use xlink:href="#DejaVuSans-32" transform="translate(127.246094 0)"/>
      <use xlink:href="#DejaVuSans-35" transform="translate(190.869141 0)"/>
     </g>
    </g>
   </g>
  </g>
 </g>
 <defs>
  <clipPath id="p0a29820d53">
   <rect x="61.62625" y="39.3575" width="786.76" height="344.84"/>
  </clipPath>
 </defs>
</svg>
