<?xml version="1.0" encoding="utf-8" standalone="no"?>
<!DOCTYPE svg PUBLIC "-//W3C//DTD SVG 1.1//EN"
  "http://www.w3.org/Graphics/SVG/1.1/DTD/svg11.dtd">
<svg xmlns:xlink="http://www.w3.org/1999/xlink" width="855.61375pt" height="423.689375pt" viewBox="0 0 855.61375 423.689375" xmlns="http://www.w3.org/2000/svg" version="1.1">
 <metadata>
  <rdf:RDF xmlns:dc="http://purl.org/dc/elements/1.1/" xmlns:cc="http://creativecommons.org/ns#" xmlns:rdf="http://www.w3.org/1999/02/22-rdf-syntax-ns#">
   <cc:Work>
    <dc:type rdf:resource="http://purl.org/dc/dcmitype/StillImage"/>
    <dc:date>2026-01-27T16:22:02.239377</dc:date>
    <dc:format>image/svg+xml</dc:format>
    <dc:creator>
     <cc:Agent>
      <dc:title>Matplotlib v3.10.8, https://matplotlib.org/</dc:title>
     </cc:Agent>
    </dc:creator>
   </cc:Work>
  </rdf:RDF>
 </metadata>
 <defs>
  <style type="text/css">*{stroke-linejoin: round; stroke-linecap: butt}</style>
 </defs>
 <g id="figure_1">
  <g id="patch_1">
   <path d="M 0 423.689375 
L 855.61375 423.689375 
L 855.61375 0 
L 0 0 
L 0 423.689375 
z
" style="fill: none"/>
  </g>
  <g id="axes_1">
   <g id="patch_2">
    <path d="M 55.26375 384.1975 
L 848.41375 384.1975 
L 848.41375 39.3575 
L 55.26375 39.3575 
L 55.26375 384.1975 
z
" style="fill: none"/>
   </g>
   <g id="matplotlib.axis_1">
    <g id="xtick_1">
     <g id="line2d_1">
      <path d="M 55.26375 384.1975 
L 55.26375 39.3575 
" clip-path="url(#p81e1a31d2d)" style="fill: none; stroke-dasharray: 2.96,1.28; stroke-dashoffset: 0; stroke: #b0b0b0; stroke-opacity: 0.3; stroke-width: 0.8"/>
     </g>
     <g id="line2d_2">
      <defs>
       <path id="mdedefb934a" d="M 0 0 
L 0 3.5 
" style="stroke: #000000; stroke-width: 0.8"/>
      </defs>
      <g>
       <use xlink:href="#mdedefb934a" x="55.26375" y="384.1975" style="stroke: #000000; stroke-width: 0.8"/>
      </g>
     </g>
     <g id="text_1">
      <!-- Jan -->
      <g transform="translate(47.555938 398.795937) scale(0.1 -0.1)">
       <defs>
        <path id="DejaVuSans-4a" d="M 628 4666 
L 1259 4666 
L 1259 325 
Q 1259 -519 939 -900 
Q 619 -1281 -91 -1281 
L -331 -1281 
L -331 -750 
L -134 -750 
Q 284 -750 456 -515 
Q 628 -281 628 325 
L 628 4666 
z
" transform="scale(0.015625)"/>
        <path id="DejaVuSans-61" d="M 2194 1759 
Q 1497 1759 1228 1600 
Q 959 1441 959 1056 
Q 959 750 1161 570 
Q 1363 391 1709 391 
Q 2188 391 2477 730 
Q 2766 1069 2766 1631 
L 2766 1759 
L 2194 1759 
z
M 3341 1997 
L 3341 0 
L 2766 0 
L 2766 531 
Q 2569 213 2275 61 
Q 1981 -91 1556 -91 
Q 1019 -91 701 211 
Q 384 513 384 1019 
Q 384 1609 779 1909 
Q 1175 2209 1959 2209 
L 2766 2209 
L 2766 2266 
Q 2766 2663 2505 2880 
Q 2244 3097 1772 3097 
Q 1472 3097 1187 3025 
Q 903 2953 641 2809 
L 641 3341 
Q 956 3463 1253 3523 
Q 1550 3584 1831 3584 
Q 2591 3584 2966 3190 
Q 3341 2797 3341 1997 
z
" transform="scale(0.015625)"/>
        <path id="DejaVuSans-6e" d="M 3513 2113 
L 3513 0 
L 2938 0 
L 2938 2094 
Q 2938 2591 2744 2837 
Q 2550 3084 2163 3084 
Q 1697 3084 1428 2787 
Q 1159 2491 1159 1978 
L 1159 0 
L 581 0 
L 581 3500 
L 1159 3500 
L 1159 2956 
Q 1366 3272 1645 3428 
Q 1925 3584 2291 3584 
Q 2894 3584 3203 3211 
Q 3513 2838 3513 2113 
z
" transform="scale(0.015625)"/>
       </defs>
       <use xlink:href="#DejaVuSans-4a"/>
       <use xlink:href="#DejaVuSans-61" transform="translate(29.492188 0)"/>
       <use xlink:href="#DejaVuSans-6e" transform="translate(90.771484 0)"/>
      </g>
     </g>
    </g>
    <g id="xtick_2">
     <g id="line2d_3">
      <path d="M 121.716858 384.1975 
L 121.716858 39.3575 
" clip-path="url(#p81e1a31d2d)" style="fill: none; stroke-dasharray: 2.96,1.28; stroke-dashoffset: 0; stroke: #b0b0b0; stroke-opacity: 0.3; stroke-width: 0.8"/>
     </g>
     <g id="line2d_4">
      <g>
       <use xlink:href="#mdedefb934a" x="121.716858" y="384.1975" style="stroke: #000000; stroke-width: 0.8"/>
      </g>
     </g>
     <g id="text_2">
      <!-- Feb -->
      <g transform="translate(112.865296 398.795937) scale(0.1 -0.1)">
       <defs>
        <path id="DejaVuSans-46" d="M 628 4666 
L 3309 4666 
L 3309 4134 
L 1259 4134 
L 1259 2759 
L 3109 2759 
L 3109 2228 
L 1259 2228 
L 1259 0 
L 628 0 
L 628 4666 
z
" transform="scale(0.015625)"/>
        <path id="DejaVuSans-65" d="M 3597 1894 
L 3597 1613 
L 953 1613 
Q 991 1019 1311 708 
Q 1631 397 2203 397 
Q 2534 397 2845 478 
Q 3156 559 3463 722 
L 3463 178 
Q 3153 47 2828 -22 
Q 2503 -91 2169 -91 
Q 1331 -91 842 396 
Q 353 884 353 1716 
Q 353 2575 817 3079 
Q 1281 3584 2069 3584 
Q 2775 3584 3186 3129 
Q 3597 2675 3597 1894 
z
M 3022 2063 
Q 3016 2534 2758 2815 
Q 2500 3097 2075 3097 
Q 1594 3097 1305 2825 
Q 1016 2553 972 2059 
L 3022 2063 
z
" transform="scale(0.015625)"/>
        <path id="DejaVuSans-62" d="M 3116 1747 
Q 3116 2381 2855 2742 
Q 2594 3103 2138 3103 
Q 1681 3103 1420 2742 
Q 1159 2381 1159 1747 
Q 1159 1113 1420 752 
Q 1681 391 2138 391 
Q 2594 391 2855 752 
Q 3116 1113 3116 1747 
z
M 1159 2969 
Q 1341 3281 1617 3432 
Q 1894 3584 2278 3584 
Q 2916 3584 3314 3078 
Q 3713 2572 3713 1747 
Q 3713 922 3314 415 
Q 2916 -91 2278 -91 
Q 1894 -91 1617 61 
Q 1341 213 1159 525 
L 1159 0 
L 581 0 
L 581 4863 
L 1159 4863 
L 1159 2969 
z
" transform="scale(0.015625)"/>
       </defs>
       <use xlink:href="#DejaVuSans-46"/>
       <use xlink:href="#DejaVuSans-65" transform="translate(52.019531 0)"/>
       <use xlink:href="#DejaVuSans-62" transform="translate(113.542969 0)"/>
      </g>
     </g>
    </g>
    <g id="xtick_3">
     <g id="line2d_5">
      <path d="M 181.73902 384.1975 
L 181.73902 39.3575 
" clip-path="url(#p81e1a31d2d)" style="fill: none; stroke-dasharray: 2.96,1.28; stroke-dashoffset: 0; stroke: #b0b0b0; stroke-opacity: 0.3; stroke-width: 0.8"/>
     </g>
     <g id="line2d_6">
      <g>
       <use xlink:href="#mdedefb934a" x="181.73902" y="384.1975" style="stroke: #000000; stroke-width: 0.8"/>
      </g>
     </g>
     <g id="text_3">
      <!-- Mar -->
      <g transform="translate(172.305427 398.795937) scale(0.1 -0.1)">
       <defs>
        <path id="DejaVuSans-4d" d="M 628 4666 
L 1569 4666 
L 2759 1491 
L 3956 4666 
L 4897 4666 
L 4897 0 
L 4281 0 
L 4281 4097 
L 3078 897 
L 2444 897 
L 1241 4097 
L 1241 0 
L 628 0 
L 628 4666 
z
" transform="scale(0.015625)"/>
        <path id="DejaVuSans-72" d="M 2631 2963 
Q 2534 3019 2420 3045 
Q 2306 3072 2169 3072 
Q 1681 3072 1420 2755 
Q 1159 2438 1159 1844 
L 1159 0 
L 581 0 
L 581 3500 
L 1159 3500 
L 1159 2956 
Q 1341 3275 1631 3429 
Q 1922 3584 2338 3584 
Q 2397 3584 2469 3576 
Q 2541 3569 2628 3553 
L 2631 2963 
z
" transform="scale(0.015625)"/>
       </defs>
       <use xlink:href="#DejaVuSans-4d"/>
       <use xlink:href="#DejaVuSans-61" transform="translate(86.279297 0)"/>
       <use xlink:href="#DejaVuSans-72" transform="translate(147.558594 0)"/>
      </g>
     </g>
    </g>
    <g id="xtick_4">
     <g id="line2d_7">
      <path d="M 248.192128 384.1975 
L 248.192128 39.3575 
" clip-path="url(#p81e1a31d2d)" style="fill: none; stroke-dasharray: 2.96,1.28; stroke-dashoffset: 0; stroke: #b0b0b0; stroke-opacity: 0.3; stroke-width: 0.8"/>
     </g>
     <g id="line2d_8">
      <g>
       <use xlink:href="#mdedefb934a" x="248.192128" y="384.1975" style="stroke: #000000; stroke-width: 0.8"/>
      </g>
     </g>
     <g id="text_4">
      <!-- Apr -->
      <g transform="translate(239.542128 398.795937) scale(0.1 -0.1)">
       <defs>
        <path id="DejaVuSans-41" d="M 2188 4044 
L 1331 1722 
L 3047 1722 
L 2188 4044 
z
M 1831 4666 
L 2547 4666 
L 4325 0 
L 3669 0 
L 3244 1197 
L 1141 1197 
L 716 0 
L 50 0 
L 1831 4666 
z
" transform="scale(0.015625)"/>
        <path id="DejaVuSans-70" d="M 1159 525 
L 1159 -1331 
L 581 -1331 
L 581 3500 
L 1159 3500 
L 1159 2969 
Q 1341 3281 1617 3432 
Q 1894 3584 2278 3584 
Q 2916 3584 3314 3078 
Q 3713 2572 3713 1747 
Q 3713 922 3314 415 
Q 2916 -91 2278 -91 
Q 1894 -91 1617 61 
Q 1341 213 1159 525 
z
M 3116 1747 
Q 3116 2381 2855 2742 
Q 2594 3103 2138 3103 
Q 1681 3103 1420 2742 
Q 1159 2381 1159 1747 
Q 1159 1113 1420 752 
Q 1681 391 2138 391 
Q 2594 391 2855 752 
Q 3116 1113 3116 1747 
z
" transform="scale(0.015625)"/>
       </defs>
       <use xlink:href="#DejaVuSans-41"/>
       <use xlink:href="#DejaVuSans-70" transform="translate(68.408203 0)"/>
       <use xlink:href="#DejaVuSans-72" transform="translate(131.884766 0)"/>
      </g>
     </g>
    </g>
    <g id="xtick_5">
     <g id="line2d_9">
      <path d="M 312.501588 384.1975 
L 312.501588 39.3575 
" clip-path="url(#p81e1a31d2d)" style="fill: none; stroke-dasharray: 2.96,1.28; stroke-dashoffset: 0; stroke: #b0b0b0; stroke-opacity: 0.3; stroke-width: 0.8"/>
     </g>
     <g id="line2d_10">
      <g>
       <use xlink:href="#mdedefb934a" x="312.501588" y="384.1975" style="stroke: #000000; stroke-width: 0.8"/>
      </g>
     </g>
     <g id="text_5">
      <!-- May -->
      <g transform="translate(302.164088 398.795937) scale(0.1 -0.1)">
       <defs>
        <path id="DejaVuSans-79" d="M 2059 -325 
Q 1816 -950 1584 -1140 
Q 1353 -1331 966 -1331 
L 506 -1331 
L 506 -850 
L 844 -850 
Q 1081 -850 1212 -737 
Q 1344 -625 1503 -206 
L 1606 56 
L 191 3500 
L 800 3500 
L 1894 763 
L 2988 3500 
L 3597 3500 
L 2059 -325 
z
" transform="scale(0.015625)"/>
       </defs>
       <use xlink:href="#DejaVuSans-4d"/>
       <use xlink:href="#DejaVuSans-61" transform="translate(86.279297 0)"/>
       <use xlink:href="#DejaVuSans-79" transform="translate(147.558594 0)"/>
      </g>
     </g>
    </g>
    <g id="xtick_6">
     <g id="line2d_11">
      <path d="M 378.954696 384.1975 
L 378.954696 39.3575 
" clip-path="url(#p81e1a31d2d)" style="fill: none; stroke-dasharray: 2.96,1.28; stroke-dashoffset: 0; stroke: #b0b0b0; stroke-opacity: 0.3; stroke-width: 0.8"/>
     </g>
     <g id="line2d_12">
      <g>
       <use xlink:href="#mdedefb934a" x="378.954696" y="384.1975" style="stroke: #000000; stroke-width: 0.8"/>
      </g>
     </g>
     <g id="text_6">
      <!-- Jun -->
      <g transform="translate(371.142196 398.795937) scale(0.1 -0.1)">
       <defs>
        <path id="DejaVuSans-75" d="M 544 1381 
L 544 3500 
L 1119 3500 
L 1119 1403 
Q 1119 906 1312 657 
Q 1506 409 1894 409 
Q 2359 409 2629 706 
Q 2900 1003 2900 1516 
L 2900 3500 
L 3475 3500 
L 3475 0 
L 2900 0 
L 2900 538 
Q 2691 219 2414 64 
Q 2138 -91 1772 -91 
Q 1169 -91 856 284 
Q 544 659 544 1381 
z
M 1991 3584 
L 1991 3584 
z
" transform="scale(0.015625)"/>
       </defs>
       <use xlink:href="#DejaVuSans-4a"/>
       <use xlink:href="#DejaVuSans-75" transform="translate(29.492188 0)"/>
       <use xlink:href="#DejaVuSans-6e" transform="translate(92.871094 0)"/>
      </g>
     </g>
    </g>
    <g id="xtick_7">
     <g id="line2d_13">
      <path d="M 443.264155 384.1975 
L 443.264155 39.3575 
" clip-path="url(#p81e1a31d2d)" style="fill: none; stroke-dasharray: 2.96,1.28; stroke-dashoffset: 0; stroke: #b0b0b0; stroke-opacity: 0.3; stroke-width: 0.8"/>
     </g>
     <g id="line2d_14">
      <g>
       <use xlink:href="#mdedefb934a" x="443.264155" y="384.1975" style="stroke: #000000; stroke-width: 0.8"/>
      </g>
     </g>
     <g id="text_7">
      <!-- Jul -->
      <g transform="translate(437.231343 398.795937) scale(0.1 -0.1)">
       <defs>
        <path id="DejaVuSans-6c" d="M 603 4863 
L 1178 4863 
L 1178 0 
L 603 0 
L 603 4863 
z
" transform="scale(0.015625)"/>
       </defs>
       <use xlink:href="#DejaVuSans-4a"/>
       <use xlink:href="#DejaVuSans-75" transform="translate(29.492188 0)"/>
       <use xlink:href="#DejaVuSans-6c" transform="translate(92.871094 0)"/>
      </g>
     </g>
    </g>
    <g id="xtick_8">
     <g id="line2d_15">
      <path d="M 509.717264 384.1975 
L 509.717264 39.3575 
" clip-path="url(#p81e1a31d2d)" style="fill: none; stroke-dasharray: 2.96,1.28; stroke-dashoffset: 0; stroke: #b0b0b0; stroke-opacity: 0.3; stroke-width: 0.8"/>
     </g>
     <g id="line2d_16">
      <g>
       <use xlink:href="#mdedefb934a" x="509.717264" y="384.1975" style="stroke: #000000; stroke-width: 0.8"/>
      </g>
     </g>
     <g id="text_8">
      <!-- Aug -->
      <g transform="translate(499.953982 398.795937) scale(0.1 -0.1)">
       <defs>
        <path id="DejaVuSans-67" d="M 2906 1791 
Q 2906 2416 2648 2759 
Q 2391 3103 1925 3103 
Q 1463 3103 1205 2759 
Q 947 2416 947 1791 
Q 947 1169 1205 825 
Q 1463 481 1925 481 
Q 2391 481 2648 825 
Q 2906 1169 2906 1791 
z
M 3481 434 
Q 3481 -459 3084 -895 
Q 2688 -1331 1869 -1331 
Q 1566 -1331 1297 -1286 
Q 1028 -1241 775 -1147 
L 775 -588 
Q 1028 -725 1275 -790 
Q 1522 -856 1778 -856 
Q 2344 -856 2625 -561 
Q 2906 -266 2906 331 
L 2906 616 
Q 2728 306 2450 153 
Q 2172 0 1784 0 
Q 1141 0 747 490 
Q 353 981 353 1791 
Q 353 2603 747 3093 
Q 1141 3584 1784 3584 
Q 2172 3584 2450 3431 
Q 2728 3278 2906 2969 
L 2906 3500 
L 3481 3500 
L 3481 434 
z
" transform="scale(0.015625)"/>
       </defs>
       <use xlink:href="#DejaVuSans-41"/>
       <use xlink:href="#DejaVuSans-75" transform="translate(68.408203 0)"/>
       <use xlink:href="#DejaVuSans-67" transform="translate(131.787109 0)"/>
      </g>
     </g>
    </g>
    <g id="xtick_9">
     <g id="line2d_17">
      <path d="M 576.170372 384.1975 
L 576.170372 39.3575 
" clip-path="url(#p81e1a31d2d)" style="fill: none; stroke-dasharray: 2.96,1.28; stroke-dashoffset: 0; stroke: #b0b0b0; stroke-opacity: 0.3; stroke-width: 0.8"/>
     </g>
     <g id="line2d_18">
      <g>
       <use xlink:href="#mdedefb934a" x="576.170372" y="384.1975" style="stroke: #000000; stroke-width: 0.8"/>
      </g>
     </g>
     <g id="text_9">
      <!-- Sep -->
      <g transform="translate(566.745372 398.795937) scale(0.1 -0.1)">
       <defs>
        <path id="DejaVuSans-53" d="M 3425 4513 
L 3425 3897 
Q 3066 4069 2747 4153 
Q 2428 4238 2131 4238 
Q 1616 4238 1336 4038 
Q 1056 3838 1056 3469 
Q 1056 3159 1242 3001 
Q 1428 2844 1947 2747 
L 2328 2669 
Q 3034 2534 3370 2195 
Q 3706 1856 3706 1288 
Q 3706 609 3251 259 
Q 2797 -91 1919 -91 
Q 1588 -91 1214 -16 
Q 841 59 441 206 
L 441 856 
Q 825 641 1194 531 
Q 1563 422 1919 422 
Q 2459 422 2753 634 
Q 3047 847 3047 1241 
Q 3047 1584 2836 1778 
Q 2625 1972 2144 2069 
L 1759 2144 
Q 1053 2284 737 2584 
Q 422 2884 422 3419 
Q 422 4038 858 4394 
Q 1294 4750 2059 4750 
Q 2388 4750 2728 4690 
Q 3069 4631 3425 4513 
z
" transform="scale(0.015625)"/>
       </defs>
       <use xlink:href="#DejaVuSans-53"/>
       <use xlink:href="#DejaVuSans-65" transform="translate(63.476562 0)"/>
       <use xlink:href="#DejaVuSans-70" transform="translate(125 0)"/>
      </g>
     </g>
    </g>
    <g id="xtick_10">
     <g id="line2d_19">
      <path d="M 640.479831 384.1975 
L 640.479831 39.3575 
" clip-path="url(#p81e1a31d2d)" style="fill: none; stroke-dasharray: 2.96,1.28; stroke-dashoffset: 0; stroke: #b0b0b0; stroke-opacity: 0.3; stroke-width: 0.8"/>
     </g>
     <g id="line2d_20">
      <g>
       <use xlink:href="#mdedefb934a" x="640.479831" y="384.1975" style="stroke: #000000; stroke-width: 0.8"/>
      </g>
     </g>
     <g id="text_10">
      <!-- Oct -->
      <g transform="translate(631.834519 398.795937) scale(0.1 -0.1)">
       <defs>
        <path id="DejaVuSans-4f" d="M 2522 4238 
Q 1834 4238 1429 3725 
Q 1025 3213 1025 2328 
Q 1025 1447 1429 934 
Q 1834 422 2522 422 
Q 3209 422 3611 934 
Q 4013 1447 4013 2328 
Q 4013 3213 3611 3725 
Q 3209 4238 2522 4238 
z
M 2522 4750 
Q 3503 4750 4090 4092 
Q 4678 3434 4678 2328 
Q 4678 1225 4090 567 
Q 3503 -91 2522 -91 
Q 1538 -91 948 565 
Q 359 1222 359 2328 
Q 359 3434 948 4092 
Q 1538 4750 2522 4750 
z
" transform="scale(0.015625)"/>
        <path id="DejaVuSans-63" d="M 3122 3366 
L 3122 2828 
Q 2878 2963 2633 3030 
Q 2388 3097 2138 3097 
Q 1578 3097 1268 2742 
Q 959 2388 959 1747 
Q 959 1106 1268 751 
Q 1578 397 2138 397 
Q 2388 397 2633 464 
Q 2878 531 3122 666 
L 3122 134 
Q 2881 22 2623 -34 
Q 2366 -91 2075 -91 
Q 1284 -91 818 406 
Q 353 903 353 1747 
Q 353 2603 823 3093 
Q 1294 3584 2113 3584 
Q 2378 3584 2631 3529 
Q 2884 3475 3122 3366 
z
" transform="scale(0.015625)"/>
        <path id="DejaVuSans-74" d="M 1172 4494 
L 1172 3500 
L 2356 3500 
L 2356 3053 
L 1172 3053 
L 1172 1153 
Q 1172 725 1289 603 
Q 1406 481 1766 481 
L 2356 481 
L 2356 0 
L 1766 0 
Q 1100 0 847 248 
Q 594 497 594 1153 
L 594 3053 
L 172 3053 
L 172 3500 
L 594 3500 
L 594 4494 
L 1172 4494 
z
" transform="scale(0.015625)"/>
       </defs>
       <use xlink:href="#DejaVuSans-4f"/>
       <use xlink:href="#DejaVuSans-63" transform="translate(78.710938 0)"/>
       <use xlink:href="#DejaVuSans-74" transform="translate(133.691406 0)"/>
      </g>
     </g>
    </g>
    <g id="xtick_11">
     <g id="line2d_21">
      <path d="M 706.932939 384.1975 
L 706.932939 39.3575 
" clip-path="url(#p81e1a31d2d)" style="fill: none; stroke-dasharray: 2.96,1.28; stroke-dashoffset: 0; stroke: #b0b0b0; stroke-opacity: 0.3; stroke-width: 0.8"/>
     </g>
     <g id="line2d_22">
      <g>
       <use xlink:href="#mdedefb934a" x="706.932939" y="384.1975" style="stroke: #000000; stroke-width: 0.8"/>
      </g>
     </g>
     <g id="text_11">
      <!-- Nov -->
      <g transform="translate(697.173564 398.795937) scale(0.1 -0.1)">
       <defs>
        <path id="DejaVuSans-4e" d="M 628 4666 
L 1478 4666 
L 3547 763 
L 3547 4666 
L 4159 4666 
L 4159 0 
L 3309 0 
L 1241 3903 
L 1241 0 
L 628 0 
L 628 4666 
z
" transform="scale(0.015625)"/>
        <path id="DejaVuSans-6f" d="M 1959 3097 
Q 1497 3097 1228 2736 
Q 959 2375 959 1747 
Q 959 1119 1226 758 
Q 1494 397 1959 397 
Q 2419 397 2687 759 
Q 2956 1122 2956 1747 
Q 2956 2369 2687 2733 
Q 2419 3097 1959 3097 
z
M 1959 3584 
Q 2709 3584 3137 3096 
Q 3566 2609 3566 1747 
Q 3566 888 3137 398 
Q 2709 -91 1959 -91 
Q 1206 -91 779 398 
Q 353 888 353 1747 
Q 353 2609 779 3096 
Q 1206 3584 1959 3584 
z
" transform="scale(0.015625)"/>
        <path id="DejaVuSans-76" d="M 191 3500 
L 800 3500 
L 1894 563 
L 2988 3500 
L 3597 3500 
L 2284 0 
L 1503 0 
L 191 3500 
z
" transform="scale(0.015625)"/>
       </defs>
       <use xlink:href="#DejaVuSans-4e"/>
       <use xlink:href="#DejaVuSans-6f" transform="translate(74.804688 0)"/>
       <use xlink:href="#DejaVuSans-76" transform="translate(135.986328 0)"/>
      </g>
     </g>
    </g>
    <g id="xtick_12">
     <g id="line2d_23">
      <path d="M 771.242399 384.1975 
L 771.242399 39.3575 
" clip-path="url(#p81e1a31d2d)" style="fill: none; stroke-dasharray: 2.96,1.28; stroke-dashoffset: 0; stroke: #b0b0b0; stroke-opacity: 0.3; stroke-width: 0.8"/>
     </g>
     <g id="line2d_24">
      <g>
       <use xlink:href="#mdedefb934a" x="771.242399" y="384.1975" style="stroke: #000000; stroke-width: 0.8"/>
      </g>
     </g>
     <g id="text_12">
      <!-- Dec -->
      <g transform="translate(761.566617 398.795937) scale(0.1 -0.1)">
       <defs>
        <path id="DejaVuSans-44" d="M 1259 4147 
L 1259 519 
L 2022 519 
Q 2988 519 3436 956 
Q 3884 1394 3884 2338 
Q 3884 3275 3436 3711 
Q 2988 4147 2022 4147 
L 1259 4147 
z
M 628 4666 
L 1925 4666 
Q 3281 4666 3915 4102 
Q 4550 3538 4550 2338 
Q 4550 1131 3912 565 
Q 3275 0 1925 0 
L 628 0 
L 628 4666 
z
" transform="scale(0.015625)"/>
       </defs>
       <use xlink:href="#DejaVuSans-44"/>
       <use xlink:href="#DejaVuSans-65" transform="translate(77.001953 0)"/>
       <use xlink:href="#DejaVuSans-63" transform="translate(138.525391 0)"/>
      </g>
     </g>
    </g>
    <g id="xtick_13">
     <g id="line2d_25">
      <path d="M 837.695507 384.1975 
L 837.695507 39.3575 
" clip-path="url(#p81e1a31d2d)" style="fill: none; stroke-dasharray: 2.96,1.28; stroke-dashoffset: 0; stroke: #b0b0b0; stroke-opacity: 0.3; stroke-width: 0.8"/>
     </g>
     <g id="line2d_26">
      <g>
       <use xlink:href="#mdedefb934a" x="837.695507" y="384.1975" style="stroke: #000000; stroke-width: 0.8"/>
      </g>
     </g>
     <g id="text_13">
      <!-- Jan -->
      <g transform="translate(829.987694 398.795937) scale(0.1 -0.1)">
       <use xlink:href="#DejaVuSans-4a"/>
       <use xlink:href="#DejaVuSans-61" transform="translate(29.492188 0)"/>
       <use xlink:href="#DejaVuSans-6e" transform="translate(90.771484 0)"/>
      </g>
     </g>
    </g>
    <g id="text_14">
     <!-- Day of the year -->
     <g transform="translate(405.253438 413.99375) scale(0.12 -0.12)">
      <defs>
       <path id="DejaVuSans-20" transform="scale(0.015625)"/>
       <path id="DejaVuSans-66" d="M 2375 4863 
L 2375 4384 
L 1825 4384 
Q 1516 4384 1395 4259 
Q 1275 4134 1275 3809 
L 1275 3500 
L 2222 3500 
L 2222 3053 
L 1275 3053 
L 1275 0 
L 697 0 
L 697 3053 
L 147 3053 
L 147 3500 
L 697 3500 
L 697 3744 
Q 697 4328 969 4595 
Q 1241 4863 1831 4863 
L 2375 4863 
z
" transform="scale(0.015625)"/>
       <path id="DejaVuSans-68" d="M 3513 2113 
L 3513 0 
L 2938 0 
L 2938 2094 
Q 2938 2591 2744 2837 
Q 2550 3084 2163 3084 
Q 1697 3084 1428 2787 
Q 1159 2491 1159 1978 
L 1159 0 
L 581 0 
L 581 4863 
L 1159 4863 
L 1159 2956 
Q 1366 3272 1645 3428 
Q 1925 3584 2291 3584 
Q 2894 3584 3203 3211 
Q 3513 2838 3513 2113 
z
" transform="scale(0.015625)"/>
      </defs>
      <use xlink:href="#DejaVuSans-44"/>
      <use xlink:href="#DejaVuSans-61" transform="translate(77.001953 0)"/>
      <use xlink:href="#DejaVuSans-79" transform="translate(138.28125 0)"/>
      <use xlink:href="#DejaVuSans-20" transform="translate(197.460938 0)"/>
      <use xlink:href="#DejaVuSans-6f" transform="translate(229.248047 0)"/>
      <use xlink:href="#DejaVuSans-66" transform="translate(290.429688 0)"/>
      <use xlink:href="#DejaVuSans-20" transform="translate(325.634766 0)"/>
      <use xlink:href="#DejaVuSans-74" transform="translate(357.421875 0)"/>
      <use xlink:href="#DejaVuSans-68" transform="translate(396.630859 0)"/>
      <use xlink:href="#DejaVuSans-65" transform="translate(460.009766 0)"/>
      <use xlink:href="#DejaVuSans-20" transform="translate(521.533203 0)"/>
      <use xlink:href="#DejaVuSans-79" transform="translate(553.320312 0)"/>
      <use xlink:href="#DejaVuSans-65" transform="translate(612.5 0)"/>
      <use xlink:href="#DejaVuSans-61" transform="translate(674.023438 0)"/>
      <use xlink:href="#DejaVuSans-72" transform="translate(735.302734 0)"/>
     </g>
    </g>
   </g>
   <g id="matplotlib.axis_2">
    <g id="ytick_1">
     <g id="line2d_27">
      <path d="M 55.26375 379.668397 
L 848.41375 379.668397 
" clip-path="url(#p81e1a31d2d)" style="fill: none; stroke-dasharray: 2.96,1.28; stroke-dashoffset: 0; stroke: #b0b0b0; stroke-opacity: 0.3; stroke-width: 0.8"/>
     </g>
     <g id="line2d_28">
      <defs>
       <path id="m2b093e4688" d="M 0 0 
L -3.5 0 
" style="stroke: #000000; stroke-width: 0.8"/>
      </defs>
      <g>
       <use xlink:href="#m2b093e4688" x="55.26375" y="379.668397" style="stroke: #000000; stroke-width: 0.8"/>
      </g>
     </g>
     <g id="text_15">
      <!-- 0 -->
      <g transform="translate(41.90125 383.467616) scale(0.1 -0.1)">
       <defs>
        <path id="DejaVuSans-30" d="M 2034 4250 
Q 1547 4250 1301 3770 
Q 1056 3291 1056 2328 
Q 1056 1369 1301 889 
Q 1547 409 2034 409 
Q 2525 409 2770 889 
Q 3016 1369 3016 2328 
Q 3016 3291 2770 3770 
Q 2525 4250 2034 4250 
z
M 2034 4750 
Q 2819 4750 3233 4129 
Q 3647 3509 3647 2328 
Q 3647 1150 3233 529 
Q 2819 -91 2034 -91 
Q 1250 -91 836 529 
Q 422 1150 422 2328 
Q 422 3509 836 4129 
Q 1250 4750 2034 4750 
z
" transform="scale(0.015625)"/>
       </defs>
       <use xlink:href="#DejaVuSans-30"/>
      </g>
     </g>
    </g>
    <g id="ytick_2">
     <g id="line2d_29">
      <path d="M 55.26375 312.120259 
L 848.41375 312.120259 
" clip-path="url(#p81e1a31d2d)" style="fill: none; stroke-dasharray: 2.96,1.28; stroke-dashoffset: 0; stroke: #b0b0b0; stroke-opacity: 0.3; stroke-width: 0.8"/>
     </g>
     <g id="line2d_30">
      <g>
       <use xlink:href="#m2b093e4688" x="55.26375" y="312.120259" style="stroke: #000000; stroke-width: 0.8"/>
      </g>
     </g>
     <g id="text_16">
      <!-- 1000 -->
      <g transform="translate(22.81375 315.919478) scale(0.1 -0.1)">
       <defs>
        <path id="DejaVuSans-31" d="M 794 531 
L 1825 531 
L 1825 4091 
L 703 3866 
L 703 4441 
L 1819 4666 
L 2450 4666 
L 2450 531 
L 3481 531 
L 3481 0 
L 794 0 
L 794 531 
z
" transform="scale(0.015625)"/>
       </defs>
       <use xlink:href="#DejaVuSans-31"/>
       <use xlink:href="#DejaVuSans-30" transform="translate(63.623047 0)"/>
       <use xlink:href="#DejaVuSans-30" transform="translate(127.246094 0)"/>
       <use xlink:href="#DejaVuSans-30" transform="translate(190.869141 0)"/>
      </g>
     </g>
    </g>
    <g id="ytick_3">
     <g id="line2d_31">
      <path d="M 55.26375 244.572121 
L 848.41375 244.572121 
" clip-path="url(#p81e1a31d2d)" style="fill: none; stroke-dasharray: 2.96,1.28; stroke-dashoffset: 0; stroke: #b0b0b0; stroke-opacity: 0.3; stroke-width: 0.8"/>
     </g>
     <g id="line2d_32">
      <g>
       <use xlink:href="#m2b093e4688" x="55.26375" y="244.572121" style="stroke: #000000; stroke-width: 0.8"/>
      </g>
     </g>
     <g id="text_17">
      <!-- 2000 -->
      <g transform="translate(22.81375 248.37134) scale(0.1 -0.1)">
       <defs>
        <path id="DejaVuSans-32" d="M 1228 531 
L 3431 531 
L 3431 0 
L 469 0 
L 469 531 
Q 828 903 1448 1529 
Q 2069 2156 2228 2338 
Q 2531 2678 2651 2914 
Q 2772 3150 2772 3378 
Q 2772 3750 2511 3984 
Q 2250 4219 1831 4219 
Q 1534 4219 1204 4116 
Q 875 4013 500 3803 
L 500 4441 
Q 881 4594 1212 4672 
Q 1544 4750 1819 4750 
Q 2544 4750 2975 4387 
Q 3406 4025 3406 3419 
Q 3406 3131 3298 2873 
Q 3191 2616 2906 2266 
Q 2828 2175 2409 1742 
Q 1991 1309 1228 531 
z
" transform="scale(0.015625)"/>
       </defs>
       <use xlink:href="#DejaVuSans-32"/>
       <use xlink:href="#DejaVuSans-30" transform="translate(63.623047 0)"/>
       <use xlink:href="#DejaVuSans-30" transform="translate(127.246094 0)"/>
       <use xlink:href="#DejaVuSans-30" transform="translate(190.869141 0)"/>
      </g>
     </g>
    </g>
    <g id="ytick_4">
     <g id="line2d_33">
      <path d="M 55.26375 177.023983 
L 848.41375 177.023983 
" clip-path="url(#p81e1a31d2d)" style="fill: none; stroke-dasharray: 2.96,1.28; stroke-dashoffset: 0; stroke: #b0b0b0; stroke-opacity: 0.3; stroke-width: 0.8"/>
     </g>
     <g id="line2d_34">
      <g>
       <use xlink:href="#m2b093e4688" x="55.26375" y="177.023983" style="stroke: #000000; stroke-width: 0.8"/>
      </g>
     </g>
     <g id="text_18">
      <!-- 3000 -->
      <g transform="translate(22.81375 180.823202) scale(0.1 -0.1)">
       <defs>
        <path id="DejaVuSans-33" d="M 2597 2516 
Q 3050 2419 3304 2112 
Q 3559 1806 3559 1356 
Q 3559 666 3084 287 
Q 2609 -91 1734 -91 
Q 1441 -91 1130 -33 
Q 819 25 488 141 
L 488 750 
Q 750 597 1062 519 
Q 1375 441 1716 441 
Q 2309 441 2620 675 
Q 2931 909 2931 1356 
Q 2931 1769 2642 2001 
Q 2353 2234 1838 2234 
L 1294 2234 
L 1294 2753 
L 1863 2753 
Q 2328 2753 2575 2939 
Q 2822 3125 2822 3475 
Q 2822 3834 2567 4026 
Q 2313 4219 1838 4219 
Q 1578 4219 1281 4162 
Q 984 4106 628 3988 
L 628 4550 
Q 988 4650 1302 4700 
Q 1616 4750 1894 4750 
Q 2613 4750 3031 4423 
Q 3450 4097 3450 3541 
Q 3450 3153 3228 2886 
Q 3006 2619 2597 2516 
z
" transform="scale(0.015625)"/>
       </defs>
       <use xlink:href="#DejaVuSans-33"/>
       <use xlink:href="#DejaVuSans-30" transform="translate(63.623047 0)"/>
       <use xlink:href="#DejaVuSans-30" transform="translate(127.246094 0)"/>
       <use xlink:href="#DejaVuSans-30" transform="translate(190.869141 0)"/>
      </g>
     </g>
    </g>
    <g id="ytick_5">
     <g id="line2d_35">
      <path d="M 55.26375 109.475845 
L 848.41375 109.475845 
" clip-path="url(#p81e1a31d2d)" style="fill: none; stroke-dasharray: 2.96,1.28; stroke-dashoffset: 0; stroke: #b0b0b0; stroke-opacity: 0.3; stroke-width: 0.8"/>
     </g>
     <g id="line2d_36">
      <g>
       <use xlink:href="#m2b093e4688" x="55.26375" y="109.475845" style="stroke: #000000; stroke-width: 0.8"/>
      </g>
     </g>
     <g id="text_19">
      <!-- 4000 -->
      <g transform="translate(22.81375 113.275064) scale(0.1 -0.1)">
       <defs>
        <path id="DejaVuSans-34" d="M 2419 4116 
L 825 1625 
L 2419 1625 
L 2419 4116 
z
M 2253 4666 
L 3047 4666 
L 3047 1625 
L 3713 1625 
L 3713 1100 
L 3047 1100 
L 3047 0 
L 2419 0 
L 2419 1100 
L 313 1100 
L 313 1709 
L 2253 4666 
z
" transform="scale(0.015625)"/>
       </defs>
       <use xlink:href="#DejaVuSans-34"/>
       <use xlink:href="#DejaVuSans-30" transform="translate(63.623047 0)"/>
       <use xlink:href="#DejaVuSans-30" transform="translate(127.246094 0)"/>
       <use xlink:href="#DejaVuSans-30" transform="translate(190.869141 0)"/>
      </g>
     </g>
    </g>
    <g id="ytick_6">
     <g id="line2d_37">
      <path d="M 55.26375 41.927707 
L 848.41375 41.927707 
" clip-path="url(#p81e1a31d2d)" style="fill: none; stroke-dasharray: 2.96,1.28; stroke-dashoffset: 0; stroke: #b0b0b0; stroke-opacity: 0.3; stroke-width: 0.8"/>
     </g>
     <g id="line2d_38">
      <g>
       <use xlink:href="#m2b093e4688" x="55.26375" y="41.927707" style="stroke: #000000; stroke-width: 0.8"/>
      </g>
     </g>
     <g id="text_20">
      <!-- 5000 -->
      <g transform="translate(22.81375 45.726925) scale(0.1 -0.1)">
       <defs>
        <path id="DejaVuSans-35" d="M 691 4666 
L 3169 4666 
L 3169 4134 
L 1269 4134 
L 1269 2991 
Q 1406 3038 1543 3061 
Q 1681 3084 1819 3084 
Q 2600 3084 3056 2656 
Q 3513 2228 3513 1497 
Q 3513 744 3044 326 
Q 2575 -91 1722 -91 
Q 1428 -91 1123 -41 
Q 819 9 494 109 
L 494 744 
Q 775 591 1075 516 
Q 1375 441 1709 441 
Q 2250 441 2565 725 
Q 2881 1009 2881 1497 
Q 2881 1984 2565 2268 
Q 2250 2553 1709 2553 
Q 1456 2553 1204 2497 
Q 953 2441 691 2322 
L 691 4666 
z
" transform="scale(0.015625)"/>
       </defs>
       <use xlink:href="#DejaVuSans-35"/>
       <use xlink:href="#DejaVuSans-30" transform="translate(63.623047 0)"/>
       <use xlink:href="#DejaVuSans-30" transform="translate(127.246094 0)"/>
       <use xlink:href="#DejaVuSans-30" transform="translate(190.869141 0)"/>
      </g>
     </g>
    </g>
    <g id="text_21">
     <!-- Daily pedestrian count -->
     <g transform="translate(16.318125 279.793125) rotate(-90) scale(0.12 -0.12)">
      <defs>
       <path id="DejaVuSans-69" d="M 603 3500 
L 1178 3500 
L 1178 0 
L 603 0 
L 603 3500 
z
M 603 4863 
L 1178 4863 
L 1178 4134 
L 603 4134 
L 603 4863 
z
" transform="scale(0.015625)"/>
       <path id="DejaVuSans-64" d="M 2906 2969 
L 2906 4863 
L 3481 4863 
L 3481 0 
L 2906 0 
L 2906 525 
Q 2725 213 2448 61 
Q 2172 -91 1784 -91 
Q 1150 -91 751 415 
Q 353 922 353 1747 
Q 353 2572 751 3078 
Q 1150 3584 1784 3584 
Q 2172 3584 2448 3432 
Q 2725 3281 2906 2969 
z
M 947 1747 
Q 947 1113 1208 752 
Q 1469 391 1925 391 
Q 2381 391 2643 752 
Q 2906 1113 2906 1747 
Q 2906 2381 2643 2742 
Q 2381 3103 1925 3103 
Q 1469 3103 1208 2742 
Q 947 2381 947 1747 
z
" transform="scale(0.015625)"/>
       <path id="DejaVuSans-73" d="M 2834 3397 
L 2834 2853 
Q 2591 2978 2328 3040 
Q 2066 3103 1784 3103 
Q 1356 3103 1142 2972 
Q 928 2841 928 2578 
Q 928 2378 1081 2264 
Q 1234 2150 1697 2047 
L 1894 2003 
Q 2506 1872 2764 1633 
Q 3022 1394 3022 966 
Q 3022 478 2636 193 
Q 2250 -91 1575 -91 
Q 1294 -91 989 -36 
Q 684 19 347 128 
L 347 722 
Q 666 556 975 473 
Q 1284 391 1588 391 
Q 1994 391 2212 530 
Q 2431 669 2431 922 
Q 2431 1156 2273 1281 
Q 2116 1406 1581 1522 
L 1381 1569 
Q 847 1681 609 1914 
Q 372 2147 372 2553 
Q 372 3047 722 3315 
Q 1072 3584 1716 3584 
Q 2034 3584 2315 3537 
Q 2597 3491 2834 3397 
z
" transform="scale(0.015625)"/>
      </defs>
      <use xlink:href="#DejaVuSans-44"/>
      <use xlink:href="#DejaVuSans-61" transform="translate(77.001953 0)"/>
      <use xlink:href="#DejaVuSans-69" transform="translate(138.28125 0)"/>
      <use xlink:href="#DejaVuSans-6c" transform="translate(166.064453 0)"/>
      <use xlink:href="#DejaVuSans-79" transform="translate(193.847656 0)"/>
      <use xlink:href="#DejaVuSans-20" transform="translate(253.027344 0)"/>
      <use xlink:href="#DejaVuSans-70" transform="translate(284.814453 0)"/>
      <use xlink:href="#DejaVuSans-65" transform="translate(348.291016 0)"/>
      <use xlink:href="#DejaVuSans-64" transform="translate(409.814453 0)"/>
      <use xlink:href="#DejaVuSans-65" transform="translate(473.291016 0)"/>
      <use xlink:href="#DejaVuSans-73" transform="translate(534.814453 0)"/>
      <use xlink:href="#DejaVuSans-74" transform="translate(586.914062 0)"/>
      <use xlink:href="#DejaVuSans-72" transform="translate(626.123047 0)"/>
      <use xlink:href="#DejaVuSans-69" transform="translate(667.236328 0)"/>
      <use xlink:href="#DejaVuSans-61" transform="translate(695.019531 0)"/>
      <use xlink:href="#DejaVuSans-6e" transform="translate(756.298828 0)"/>
      <use xlink:href="#DejaVuSans-20" transform="translate(819.677734 0)"/>
      <use xlink:href="#DejaVuSans-63" transform="translate(851.464844 0)"/>
      <use xlink:href="#DejaVuSans-6f" transform="translate(906.445312 0)"/>
      <use xlink:href="#DejaVuSans-75" transform="translate(967.626953 0)"/>
      <use xlink:href="#DejaVuSans-6e" transform="translate(1031.005859 0)"/>
      <use xlink:href="#DejaVuSans-74" transform="translate(1094.384766 0)"/>
     </g>
    </g>
   </g>
   <g id="line2d_39">
    <path d="M 57.407399 208.028578 
L 59.551047 138.386448 
L 61.694696 193.10044 
L 63.838345 235.723315 
L 65.981993 188.439618 
L 68.125642 179.185523 
L 70.269291 214.85094 
L 72.412939 193.43818 
L 74.556588 132.374664 
L 76.700236 193.032892 
L 78.843885 191.073996 
L 80.987534 169.053303 
L 83.131182 175.267731 
L 85.274831 216.336999 
L 87.41848 206.745164 
L 89.562128 146.424676 
L 91.705777 186.818463 
L 93.849426 177.631916 
L 95.993074 153.17949 
L 98.136723 162.095844 
L 100.280372 194.92424 
L 102.42402 185.940337 
L 104.567669 145.276358 
L 106.711318 198.301646 
L 108.854966 222.416332 
L 110.998615 160.947526 
L 113.142264 167.769888 
L 115.285912 237.34447 
L 117.429561 200.057898 
L 119.573209 180.604034 
L 121.716858 188.912455 
L 123.860507 164.05474 
L 126.004155 144.195588 
L 128.147804 179.050427 
L 130.291453 196.207654 
L 132.435101 167.364599 
L 134.57875 147.572995 
L 136.722399 156.962186 
L 138.866047 128.119131 
L 141.009696 167.567244 
L 143.153345 142.371788 
L 145.296993 184.994663 
L 147.440642 177.699464 
L 149.584291 112.853252 
L 151.727939 142.574432 
L 153.871588 133.793175 
L 156.015236 122.309991 
L 158.158885 137.643418 
L 160.302534 173.646576 
L 162.446182 139.264574 
L 164.589831 89.076307 
L 166.73348 119.945806 
L 168.877128 129.60519 
L 171.020777 120.756384 
L 173.164426 100.22175 
L 175.308074 154.395357 
L 177.451723 125.61985 
L 179.595372 88.400826 
L 181.73902 145.816743 
L 183.882669 146.357128 
L 186.026318 142.034047 
L 188.169966 165.135511 
L 190.313615 146.897513 
L 192.457264 131.293893 
L 194.600912 103.058772 
L 196.744561 125.552302 
L 198.888209 139.061929 
L 201.031858 119.202777 
L 203.175507 118.72994 
L 205.319155 175.402828 
L 207.462804 109.948682 
L 209.606453 93.466936 
L 211.750101 126.227783 
L 213.89375 86.644574 
L 216.037399 117.176333 
L 218.181047 133.658078 
L 220.324696 140.277796 
L 222.468345 125.754946 
L 224.611993 98.330402 
L 226.755642 136.224907 
L 228.899291 108.259978 
L 231.042939 119.878258 
L 233.186588 119.743162 
L 235.330236 173.443932 
L 237.473885 136.292456 
L 239.617534 141.291018 
L 241.761182 115.217437 
L 243.904831 134.603752 
L 246.04848 143.249914 
L 248.192128 138.724189 
L 250.335777 154.395357 
L 252.479426 136.022263 
L 254.623074 147.37035 
L 256.766723 127.038361 
L 258.910372 123.458309 
L 261.05402 128.119131 
L 263.197669 105.963342 
L 265.341318 157.502571 
L 267.484966 135.616974 
L 269.628615 55.032045 
L 271.772264 148.045832 
L 273.915912 139.264574 
L 276.059561 138.994381 
L 278.203209 123.79605 
L 280.346858 172.43071 
L 282.490507 137.778515 
L 284.634155 117.851814 
L 286.777804 129.807834 
L 288.921453 211.000696 
L 291.065101 88.468374 
L 293.20875 157.840312 
L 295.352399 210.527859 
L 297.496047 168.377821 
L 299.639696 114.474407 
L 301.783345 210.595408 
L 303.926993 166.62157 
L 306.070642 161.623007 
L 308.214291 175.470376 
L 310.357939 181.279516 
L 312.501588 163.244163 
L 314.645236 125.349657 
L 316.788885 153.517231 
L 318.932534 141.763855 
L 321.076182 168.512918 
L 323.219831 152.571557 
L 325.36348 182.157641 
L 327.507128 172.228065 
L 329.650777 158.921082 
L 331.794426 188.304522 
L 333.938074 184.521826 
L 336.081723 160.677333 
L 338.225372 182.22519 
L 340.36902 195.802365 
L 342.512669 175.537924 
L 344.656318 176.280953 
L 346.799966 176.483598 
L 348.943615 160.947526 
L 351.087264 171.417487 
L 353.230912 151.896076 
L 355.374561 187.561492 
L 357.518209 178.510042 
L 359.661858 165.87854 
L 361.805507 166.013636 
L 363.949155 179.455716 
L 366.092804 174.119413 
L 368.236453 173.84922 
L 370.380101 211.068245 
L 372.52375 166.148733 
L 374.667399 177.023983 
L 376.811047 186.886011 
L 378.954696 170.269169 
L 381.098345 155.543675 
L 383.241993 163.514355 
L 385.385642 221.470658 
L 387.529291 178.374946 
L 389.672939 126.835716 
L 391.816588 200.057898 
L 393.960236 161.082622 
L 396.103885 154.868194 
L 398.247534 151.220594 
L 400.391182 243.693995 
L 402.534831 200.260542 
L 404.67848 197.491069 
L 406.822128 196.545395 
L 408.965777 185.399952 
L 411.109426 154.462905 
L 413.253074 176.348502 
L 415.396723 211.135793 
L 417.540372 202.759824 
L 419.68402 147.708091 
L 421.827669 200.125446 
L 423.971318 178.307398 
L 426.114966 181.076871 
L 428.258615 180.266294 
L 430.402264 218.49854 
L 432.545912 200.665831 
L 434.689561 149.666987 
L 436.833209 192.01967 
L 438.976858 172.025421 
L 441.120507 221.065369 
L 443.264155 180.739131 
L 445.407804 219.106473 
L 447.551453 202.759824 
L 449.695101 122.512635 
L 451.83875 179.861005 
L 453.982399 172.835998 
L 456.126047 166.62157 
L 458.269696 194.856691 
L 460.413345 214.445651 
L 462.556993 204.786268 
L 464.700642 150.477565 
L 466.844291 186.886011 
L 468.987939 180.198745 
L 471.131588 187.899233 
L 473.275236 199.044676 
L 475.418885 225.118257 
L 477.562534 191.614381 
L 479.706182 148.045832 
L 481.849831 194.586499 
L 483.99348 177.49682 
L 486.137128 169.458591 
L 488.280777 171.957873 
L 490.424426 224.712968 
L 492.568074 214.986037 
L 494.711723 118.797488 
L 496.855372 186.953559 
L 498.99902 177.091531 
L 501.142669 139.940055 
L 503.286318 156.219156 
L 505.429966 191.344188 
L 507.573615 175.605472 
L 509.717264 112.447963 
L 511.860912 157.435023 
L 514.004561 112.17777 
L 516.148209 157.90786 
L 518.291858 166.081185 
L 520.435507 199.24732 
L 522.579155 185.399952 
L 524.722804 122.512635 
L 526.866453 175.943213 
L 529.010101 164.662674 
L 531.15375 163.244163 
L 533.297399 146.28958 
L 535.441047 193.505729 
L 537.584696 157.705215 
L 539.728345 102.518387 
L 541.871993 175.740568 
L 544.015642 165.067962 
L 546.159291 134.401108 
L 548.302939 181.954997 
L 550.446588 208.163675 
L 552.590236 185.805241 
L 554.733885 139.940055 
L 556.877534 164.257385 
L 559.021182 145.884291 
L 561.164831 159.393919 
L 563.30848 158.921082 
L 565.452128 206.745164 
L 567.595777 178.104753 
L 569.739426 171.822776 
L 571.883074 177.226627 
L 574.026723 146.897513 
L 576.170372 158.110504 
L 578.31402 173.714124 
L 580.457669 210.122571 
L 582.601318 178.982879 
L 584.744966 166.756666 
L 586.888615 196.477847 
L 589.032264 173.916769 
L 591.175912 185.737693 
L 593.319561 205.191557 
L 595.463209 213.77017 
L 597.606858 181.819901 
L 599.750507 193.032892 
L 601.894155 181.752353 
L 604.037804 173.51148 
L 606.181453 170.269169 
L 608.325101 188.169426 
L 610.46875 219.849503 
L 612.612399 188.439618 
L 614.756047 174.997539 
L 616.899696 195.397077 
L 619.043345 180.063649 
L 621.186993 177.361724 
L 623.330642 154.395357 
L 625.474291 205.05646 
L 627.617939 170.471814 
L 629.761588 132.712404 
L 631.905236 146.762417 
L 634.048885 202.89492 
L 636.192534 191.073996 
L 638.336182 165.675896 
L 640.479831 191.749477 
L 642.62348 156.556897 
L 644.767128 100.154202 
L 646.910777 145.20881 
L 649.054426 159.191274 
L 651.198074 133.725626 
L 653.341723 140.615536 
L 655.485372 183.441056 
L 659.772669 141.155922 
L 661.916318 167.364599 
L 664.059966 144.938617 
L 668.347264 166.486473 
L 670.490912 193.775921 
L 672.634561 169.391043 
L 674.778209 161.420363 
L 676.921858 178.442494 
L 679.065507 156.759541 
L 681.209155 158.448245 
L 683.352804 156.759541 
L 685.496453 189.520388 
L 687.640101 170.60691 
L 689.78375 128.659516 
L 691.927399 164.932866 
L 694.071047 147.167706 
L 696.214696 160.879978 
L 698.358345 163.581903 
L 700.501993 200.125446 
L 702.645642 176.618694 
L 704.789291 131.226345 
L 706.932939 170.877102 
L 709.076588 165.067962 
L 711.220236 202.354535 
L 713.363885 158.042956 
L 715.507534 167.972532 
L 717.651182 226.46922 
L 719.794831 177.023983 
L 721.93848 190.736255 
L 724.082128 171.349939 
L 726.225777 188.709811 
L 728.369426 152.706653 
L 730.513074 199.922802 
L 732.656723 177.834561 
L 734.800372 174.119413 
L 736.94402 157.975408 
L 739.087669 143.992943 
L 741.231318 152.571557 
L 743.374966 153.044394 
L 745.518615 194.113662 
L 747.662264 171.485036 
L 749.805912 122.985472 
L 751.949561 176.618694 
L 754.093209 149.802083 
L 756.236858 132.982597 
L 758.380507 151.693431 
L 760.524155 181.617256 
L 762.667804 160.204497 
L 764.811453 113.798926 
L 766.955101 161.623007 
L 769.09875 149.396794 
L 771.242399 151.085498 
L 773.386047 174.389606 
L 775.529696 217.485318 
L 777.673345 182.360286 
L 779.816993 132.915049 
L 781.960642 159.393919 
L 784.104291 147.910735 
L 786.247939 149.19415 
L 788.391588 164.460029 
L 790.535236 207.150453 
L 792.678885 166.013636 
L 794.822534 121.026576 
L 796.966182 150.882853 
L 799.109831 151.423239 
L 801.25348 158.245601 
L 803.397128 144.803521 
L 805.540777 172.498258 
L 807.684426 148.991506 
L 809.828074 151.220594 
L 811.971723 161.420363 
L 814.115372 218.160799 
L 816.25902 162.298489 
L 818.402669 145.681647 
L 820.546318 169.998977 
L 822.689966 153.584779 
L 824.833615 254.636794 
L 829.120912 164.595126 
L 831.264561 162.298489 
L 833.408209 161.555459 
L 835.551858 237.276922 
L 837.695507 108.530171 
L 837.695507 108.530171 
" clip-path="url(#p81e1a31d2d)" style="fill: none; stroke: #0d6efc; stroke-opacity: 0.8; stroke-width: 2.5; stroke-linecap: square"/>
   </g>
   <g id="line2d_40">
    <path d="M 57.407399 258.419489 
L 59.551047 209.987474 
L 61.694696 181.887449 
L 63.838345 216.269451 
L 65.981993 234.845189 
L 68.125642 257.000978 
L 70.269291 194.856691 
L 72.412939 207.488193 
L 74.556588 222.618976 
L 76.700236 207.62329 
L 78.843885 170.877102 
L 80.987534 226.671864 
L 83.131182 229.306242 
L 85.274831 203.502853 
L 87.41848 225.455998 
L 89.562128 203.570401 
L 91.705777 200.665831 
L 93.849426 172.43071 
L 95.993074 180.671582 
L 98.136723 226.942057 
L 100.280372 221.875947 
L 102.42402 220.66008 
L 104.567669 208.028578 
L 106.711318 197.018232 
L 108.854966 176.213405 
L 110.998615 187.629041 
L 113.142264 255.85266 
L 115.285912 186.54827 
L 117.429561 206.677616 
L 119.573209 211.203341 
L 121.716858 189.993225 
L 123.860507 171.282391 
L 126.004155 216.472096 
L 128.147804 234.845189 
L 130.291453 225.726191 
L 132.435101 213.635074 
L 134.57875 239.16827 
L 136.722399 242.07284 
L 138.866047 160.001852 
L 141.009696 187.561492 
L 143.153345 221.875947 
L 147.440642 193.911017 
L 149.584291 221.200465 
L 151.727939 190.938899 
L 153.871588 186.54827 
L 156.015236 202.962468 
L 158.158885 222.011043 
L 160.302534 215.526422 
L 162.446182 181.076871 
L 164.589831 207.758386 
L 166.73348 183.981441 
L 168.877128 140.277796 
L 171.020777 155.543675 
L 173.164426 207.218001 
L 175.308074 184.184086 
L 177.451723 147.437898 
L 179.595372 176.078309 
L 181.73902 168.310273 
L 183.882669 107.381853 
L 186.026318 151.828527 
L 188.169966 199.585061 
L 190.313615 239.16827 
L 192.457264 143.925395 
L 194.600912 165.743444 
L 196.744561 149.531891 
L 198.888209 128.254227 
L 201.031858 142.506884 
L 203.175507 217.823058 
L 205.319155 200.192994 
L 207.462804 173.443932 
L 209.606453 151.625883 
L 211.750101 161.15017 
L 213.89375 162.771326 
L 216.037399 228.29302 
L 218.181047 207.758386 
L 220.324696 173.443932 
L 222.468345 167.837436 
L 224.611993 211.541082 
L 226.755642 177.699464 
L 228.899291 116.16311 
L 231.042939 144.12804 
L 233.186588 205.867038 
L 235.330236 193.775921 
L 237.473885 193.032892 
L 241.761182 148.248476 
L 243.904831 139.804959 
L 246.04848 172.565806 
L 248.192128 202.692275 
L 250.335777 193.573277 
L 252.479426 190.466062 
L 254.623074 164.527577 
L 256.766723 186.750915 
L 258.910372 150.882853 
L 261.05402 194.586499 
L 263.197669 227.887731 
L 265.341318 194.721595 
L 267.484966 230.792301 
L 269.628615 200.800928 
L 271.772264 154.733097 
L 273.915912 134.063367 
L 276.059561 180.333842 
L 278.203209 213.162237 
L 280.346858 183.30596 
L 282.490507 185.535048 
L 284.634155 150.477565 
L 286.777804 215.864162 
L 288.921453 153.382135 
L 291.065101 173.376383 
L 293.20875 210.460311 
L 295.352399 215.661518 
L 297.496047 198.234098 
L 299.639696 170.269169 
L 301.783345 228.022827 
L 303.926993 161.960748 
L 308.214291 234.169708 
L 310.357939 228.63076 
L 312.501588 186.075433 
L 314.645236 214.580748 
L 316.788885 202.286987 
L 318.932534 167.972532 
L 321.076182 180.604034 
L 323.219831 223.902391 
L 325.36348 233.629323 
L 327.507128 220.592532 
L 329.650777 226.266576 
L 331.794426 209.311993 
L 333.938074 203.840594 
L 336.081723 179.861005 
L 338.225372 244.97741 
L 340.36902 220.997821 
L 342.512669 210.527859 
L 344.656318 217.958155 
L 346.799966 191.344188 
L 348.943615 198.504291 
L 351.087264 171.957873 
L 353.230912 225.253354 
L 355.374561 224.105035 
L 357.518209 203.502853 
L 359.661858 195.329528 
L 361.805507 200.733379 
L 363.949155 151.693431 
L 366.092804 169.188399 
L 368.236453 223.56465 
L 370.380101 216.404547 
L 372.52375 229.171146 
L 374.667399 196.815587 
L 376.811047 177.699464 
L 378.954696 145.073714 
L 381.098345 187.088656 
L 383.241993 291.923366 
L 385.385642 244.166832 
L 387.529291 192.762699 
L 389.672939 264.431274 
L 391.816588 211.000696 
L 393.960236 362.443622 
L 396.103885 197.220876 
L 398.247534 256.730786 
L 400.391182 230.522108 
L 402.534831 230.319464 
L 404.67848 225.996383 
L 406.822128 193.978566 
L 408.965777 193.978566 
L 411.109426 363.997229 
L 413.253074 243.693995 
L 415.396723 212.284111 
L 417.540372 199.179772 
L 419.68402 215.59397 
L 421.827669 360.957563 
L 423.971318 172.363161 
L 426.114966 202.557179 
L 428.258615 250.516357 
L 430.402264 211.878822 
L 432.545912 206.407423 
L 434.689561 212.824496 
L 436.833209 211.676178 
L 438.976858 158.650889 
L 441.120507 218.49854 
L 443.264155 368.455406 
L 445.407804 209.582186 
L 447.551453 236.736537 
L 449.695101 362.376074 
L 451.83875 194.248758 
L 453.982399 178.510042 
L 456.126047 184.184086 
L 458.269696 234.169708 
L 460.413345 213.77017 
L 462.556993 160.542237 
L 464.700642 209.0418 
L 466.844291 206.407423 
L 468.987939 141.831403 
L 471.131588 184.454278 
L 473.275236 215.256229 
L 475.418885 196.748039 
L 477.562534 144.46578 
L 479.706182 198.369195 
L 481.849831 183.778797 
L 483.99348 190.601159 
L 486.137128 189.1151 
L 488.280777 233.291582 
L 490.424426 229.643983 
L 492.568074 177.699464 
L 494.711723 185.12976 
L 496.855372 178.847783 
L 498.99902 165.405703 
L 501.142669 181.549708 
L 503.286318 209.379541 
L 505.429966 210.190119 
L 507.573615 190.128322 
L 509.717264 193.235536 
L 511.860912 189.047552 
L 514.004561 152.976846 
L 516.148209 153.111942 
L 518.291858 251.259387 
L 520.435507 368.522955 
L 522.579155 167.769888 
L 524.722804 147.03261 
L 526.866453 174.59225 
L 529.010101 144.330684 
L 531.15375 140.750633 
L 533.297399 184.724471 
L 535.441047 216.742288 
L 537.584696 166.756666 
L 539.728345 178.172301 
L 541.871993 205.259105 
L 544.015642 149.464343 
L 546.159291 182.360286 
L 548.302939 208.839156 
L 550.446588 192.762699 
L 552.590236 168.715562 
L 554.733885 181.887449 
L 556.877534 178.104753 
L 559.021182 151.828527 
L 561.164831 164.865318 
L 563.30848 222.078591 
L 565.452128 232.481004 
L 567.595777 189.790581 
L 569.739426 197.626165 
L 571.883074 201.408861 
L 574.026723 180.40139 
L 576.170372 224.240131 
L 578.31402 249.70578 
L 580.457669 221.538206 
L 582.601318 219.038925 
L 584.744966 202.962468 
L 586.888615 178.712686 
L 589.032264 161.420363 
L 591.175912 180.131197 
L 593.319561 234.237256 
L 595.463209 209.717282 
L 597.606858 214.175459 
L 599.750507 179.590812 
L 601.894155 177.631916 
L 604.037804 163.244163 
L 608.325101 236.128604 
L 610.46875 213.229785 
L 612.612399 223.429554 
L 614.756047 182.360286 
L 616.899696 185.872789 
L 619.043345 183.103315 
L 621.186993 203.367757 
L 623.330642 187.426396 
L 625.474291 195.599721 
L 627.617939 184.859567 
L 629.761588 181.752353 
L 631.905236 196.950684 
L 634.048885 185.332404 
L 638.336182 220.322339 
L 640.479831 209.78483 
L 642.62348 169.255947 
L 644.767128 171.957873 
L 646.910777 142.574432 
L 649.054426 133.117693 
L 651.198074 190.668707 
L 653.341723 184.319182 
L 655.485372 166.554022 
L 657.62902 164.527577 
L 659.772669 166.95931 
L 661.916318 164.662674 
L 664.059966 163.514355 
L 666.203615 171.552584 
L 668.347264 222.821621 
L 670.490912 158.178052 
L 672.634561 155.273482 
L 674.778209 183.170863 
L 676.921858 158.583341 
L 679.065507 131.361442 
L 681.209155 184.859567 
L 683.352804 213.837718 
L 685.496453 186.54827 
L 687.640101 213.499978 
L 689.78375 137.710967 
L 691.927399 151.288142 
L 694.071047 151.490787 
L 696.214696 224.577872 
L 698.358345 219.57931 
L 700.501993 199.720157 
L 702.645642 195.194432 
L 704.789291 204.516075 
L 709.076588 184.116537 
L 711.220236 174.929991 
L 713.363885 255.244727 
L 715.507534 248.827654 
L 717.651182 202.286987 
L 719.794831 175.808116 
L 721.93848 191.681929 
L 724.082128 211.878822 
L 726.225777 189.655485 
L 728.369426 226.063931 
L 730.513074 201.003572 
L 732.656723 171.349939 
L 734.800372 189.385292 
L 736.94402 178.915331 
L 739.087669 126.903264 
L 741.231318 193.505729 
L 743.374966 230.387012 
L 745.518615 205.596845 
L 747.662264 179.253071 
L 749.805912 188.574715 
L 751.949561 198.571839 
L 754.093209 153.17949 
L 758.380507 228.29302 
L 760.524155 203.908142 
L 762.667804 188.034329 
L 764.811453 193.505729 
L 766.955101 202.016794 
L 769.09875 180.941775 
L 771.242399 189.385292 
L 773.386047 241.937744 
L 775.529696 196.748039 
L 777.673345 163.176615 
L 779.816993 208.70406 
L 781.960642 204.178334 
L 784.104291 188.439618 
L 786.247939 175.065087 
L 788.391588 209.649734 
L 790.535236 199.449965 
L 792.678885 178.104753 
L 794.822534 174.929991 
L 796.966182 187.899233 
L 799.109831 176.280953 
L 801.25348 188.844907 
L 803.397128 212.284111 
L 805.540777 268.078873 
L 807.684426 162.163393 
L 809.828074 216.607192 
L 811.971723 215.661518 
L 814.115372 171.822776 
L 816.25902 212.892044 
L 818.402669 211.405985 
L 820.546318 174.862443 
L 822.689966 177.564368 
L 824.833615 267.943777 
L 826.977264 248.760106 
L 829.120912 182.698027 
L 831.264561 160.947526 
L 833.408209 233.088938 
L 835.551858 193.843469 
L 837.695507 142.574432 
L 837.695507 142.574432 
" clip-path="url(#p81e1a31d2d)" style="fill: none; stroke: #83c966; stroke-opacity: 0.8; stroke-width: 2.5; stroke-linecap: square"/>
   </g>
   <g id="patch_3">
    <path d="M 55.26375 384.1975 
L 55.26375 39.3575 
" style="fill: none; stroke: #000000; stroke-width: 0.8; stroke-linejoin: miter; stroke-linecap: square"/>
   </g>
   <g id="patch_4">
    <path d="M 55.26375 384.1975 
L 848.41375 384.1975 
" style="fill: none; stroke: #000000; stroke-width: 0.8; stroke-linejoin: miter; stroke-linecap: square"/>
   </g>
   <g id="text_22">
    <!-- Pedestrian Traffic at QVM-Franklin St (North) -->
    <g transform="translate(274.87 19.3575) scale(0.16 -0.16)">
     <defs>
      <path id="DejaVuSans-50" d="M 1259 4147 
L 1259 2394 
L 2053 2394 
Q 2494 2394 2734 2622 
Q 2975 2850 2975 3272 
Q 2975 3691 2734 3919 
Q 2494 4147 2053 4147 
L 1259 4147 
z
M 628 4666 
L 2053 4666 
Q 2838 4666 3239 4311 
Q 3641 3956 3641 3272 
Q 3641 2581 3239 2228 
Q 2838 1875 2053 1875 
L 1259 1875 
L 1259 0 
L 628 0 
L 628 4666 
z
" transform="scale(0.015625)"/>
      <path id="DejaVuSans-54" d="M -19 4666 
L 3928 4666 
L 3928 4134 
L 2272 4134 
L 2272 0 
L 1638 0 
L 1638 4134 
L -19 4134 
L -19 4666 
z
" transform="scale(0.015625)"/>
      <path id="DejaVuSans-51" d="M 2522 4238 
Q 1834 4238 1429 3725 
Q 1025 3213 1025 2328 
Q 1025 1447 1429 934 
Q 1834 422 2522 422 
Q 3209 422 3611 934 
Q 4013 1447 4013 2328 
Q 4013 3213 3611 3725 
Q 3209 4238 2522 4238 
z
M 3406 84 
L 4238 -825 
L 3475 -825 
L 2784 -78 
Q 2681 -84 2626 -87 
Q 2572 -91 2522 -91 
Q 1538 -91 948 567 
Q 359 1225 359 2328 
Q 359 3434 948 4092 
Q 1538 4750 2522 4750 
Q 3503 4750 4090 4092 
Q 4678 3434 4678 2328 
Q 4678 1516 4351 937 
Q 4025 359 3406 84 
z
" transform="scale(0.015625)"/>
      <path id="DejaVuSans-56" d="M 1831 0 
L 50 4666 
L 709 4666 
L 2188 738 
L 3669 4666 
L 4325 4666 
L 2547 0 
L 1831 0 
z
" transform="scale(0.015625)"/>
      <path id="DejaVuSans-2d" d="M 313 2009 
L 1997 2009 
L 1997 1497 
L 313 1497 
L 313 2009 
z
" transform="scale(0.015625)"/>
      <path id="DejaVuSans-6b" d="M 581 4863 
L 1159 4863 
L 1159 1991 
L 2875 3500 
L 3609 3500 
L 1753 1863 
L 3688 0 
L 2938 0 
L 1159 1709 
L 1159 0 
L 581 0 
L 581 4863 
z
" transform="scale(0.015625)"/>
      <path id="DejaVuSans-28" d="M 1984 4856 
Q 1566 4138 1362 3434 
Q 1159 2731 1159 2009 
Q 1159 1288 1364 580 
Q 1569 -128 1984 -844 
L 1484 -844 
Q 1016 -109 783 600 
Q 550 1309 550 2009 
Q 550 2706 781 3412 
Q 1013 4119 1484 4856 
L 1984 4856 
z
" transform="scale(0.015625)"/>
      <path id="DejaVuSans-29" d="M 513 4856 
L 1013 4856 
Q 1481 4119 1714 3412 
Q 1947 2706 1947 2009 
Q 1947 1309 1714 600 
Q 1481 -109 1013 -844 
L 513 -844 
Q 928 -128 1133 580 
Q 1338 1288 1338 2009 
Q 1338 2731 1133 3434 
Q 928 4138 513 4856 
z
" transform="scale(0.015625)"/>
     </defs>
     <use xlink:href="#DejaVuSans-50"/>
     <use xlink:href="#DejaVuSans-65" transform="translate(56.677734 0)"/>
     <use xlink:href="#DejaVuSans-64" transform="translate(118.201172 0)"/>
     <use xlink:href="#DejaVuSans-65" transform="translate(181.677734 0)"/>
     <use xlink:href="#DejaVuSans-73" transform="translate(243.201172 0)"/>
     <use xlink:href="#DejaVuSans-74" transform="translate(295.300781 0)"/>
     <use xlink:href="#DejaVuSans-72" transform="translate(334.509766 0)"/>
     <use xlink:href="#DejaVuSans-69" transform="translate(375.623047 0)"/>
     <use xlink:href="#DejaVuSans-61" transform="translate(403.40625 0)"/>
     <use xlink:href="#DejaVuSans-6e" transform="translate(464.685547 0)"/>
     <use xlink:href="#DejaVuSans-20" transform="translate(528.064453 0)"/>
     <use xlink:href="#DejaVuSans-54" transform="translate(559.851562 0)"/>
     <use xlink:href="#DejaVuSans-72" transform="translate(606.185547 0)"/>
     <use xlink:href="#DejaVuSans-61" transform="translate(647.298828 0)"/>
     <use xlink:href="#DejaVuSans-66" transform="translate(708.578125 0)"/>
     <use xlink:href="#DejaVuSans-66" transform="translate(743.783203 0)"/>
     <use xlink:href="#DejaVuSans-69" transform="translate(778.988281 0)"/>
     <use xlink:href="#DejaVuSans-63" transform="translate(806.771484 0)"/>
     <use xlink:href="#DejaVuSans-20" transform="translate(861.751953 0)"/>
     <use xlink:href="#DejaVuSans-61" transform="translate(893.539062 0)"/>
     <use xlink:href="#DejaVuSans-74" transform="translate(954.818359 0)"/>
     <use xlink:href="#DejaVuSans-20" transform="translate(994.027344 0)"/>
     <use xlink:href="#DejaVuSans-51" transform="translate(1025.814453 0)"/>
     <use xlink:href="#DejaVuSans-56" transform="translate(1104.525391 0)"/>
     <use xlink:href="#DejaVuSans-4d" transform="translate(1172.933594 0)"/>
     <use xlink:href="#DejaVuSans-2d" transform="translate(1259.212891 0)"/>
     <use xlink:href="#DejaVuSans-46" transform="translate(1295.296875 0)"/>
     <use xlink:href="#DejaVuSans-72" transform="translate(1345.566406 0)"/>
     <use xlink:href="#DejaVuSans-61" transform="translate(1386.679688 0)"/>
     <use xlink:href="#DejaVuSans-6e" transform="translate(1447.958984 0)"/>
     <use xlink:href="#DejaVuSans-6b" transform="translate(1511.337891 0)"/>
     <use xlink:href="#DejaVuSans-6c" transform="translate(1569.248047 0)"/>
     <use xlink:href="#DejaVuSans-69" transform="translate(1597.03125 0)"/>
     <use xlink:href="#DejaVuSans-6e" transform="translate(1624.814453 0)"/>
     <use xlink:href="#DejaVuSans-20" transform="translate(1688.193359 0)"/>
     <use xlink:href="#DejaVuSans-53" transform="translate(1719.980469 0)"/>
     <use xlink:href="#DejaVuSans-74" transform="translate(1783.457031 0)"/>
     <use xlink:href="#DejaVuSans-20" transform="translate(1822.666016 0)"/>
     <use xlink:href="#DejaVuSans-28" transform="translate(1854.453125 0)"/>
     <use xlink:href="#DejaVuSans-4e" transform="translate(1893.466797 0)"/>
     <use xlink:href="#DejaVuSans-6f" transform="translate(1968.271484 0)"/>
     <use xlink:href="#DejaVuSans-72" transform="translate(2029.453125 0)"/>
     <use xlink:href="#DejaVuSans-74" transform="translate(2070.566406 0)"/>
     <use xlink:href="#DejaVuSans-68" transform="translate(2109.775391 0)"/>
     <use xlink:href="#DejaVuSans-29" transform="translate(2173.154297 0)"/>
    </g>
   </g>
   <g id="legend_1">
    <g id="patch_5">
     <path d="M 62.96375 80.449375 
L 126.15875 80.449375 
Q 128.35875 80.449375 128.35875 78.249375 
L 128.35875 47.0575 
Q 128.35875 44.8575 126.15875 44.8575 
L 62.96375 44.8575 
Q 60.76375 44.8575 60.76375 47.0575 
L 60.76375 78.249375 
Q 60.76375 80.449375 62.96375 80.449375 
z
" style="fill: #ffffff; opacity: 0.95; stroke: #cccccc; stroke-linejoin: miter"/>
    </g>
    <g id="line2d_41">
     <path d="M 65.16375 53.765781 
L 76.16375 53.765781 
L 87.16375 53.765781 
" style="fill: none; stroke: #0d6efc; stroke-opacity: 0.8; stroke-width: 2.5; stroke-linecap: square"/>
    </g>
    <g id="text_23">
     <!-- 2019 -->
     <g transform="translate(95.96375 57.615781) scale(0.11 -0.11)">
      <defs>
       <path id="DejaVuSans-39" d="M 703 97 
L 703 672 
Q 941 559 1184 500 
Q 1428 441 1663 441 
Q 2288 441 2617 861 
Q 2947 1281 2994 2138 
Q 2813 1869 2534 1725 
Q 2256 1581 1919 1581 
Q 1219 1581 811 2004 
Q 403 2428 403 3163 
Q 403 3881 828 4315 
Q 1253 4750 1959 4750 
Q 2769 4750 3195 4129 
Q 3622 3509 3622 2328 
Q 3622 1225 3098 567 
Q 2575 -91 1691 -91 
Q 1453 -91 1209 -44 
Q 966 3 703 97 
z
M 1959 2075 
Q 2384 2075 2632 2365 
Q 2881 2656 2881 3163 
Q 2881 3666 2632 3958 
Q 2384 4250 1959 4250 
Q 1534 4250 1286 3958 
Q 1038 3666 1038 3163 
Q 1038 2656 1286 2365 
Q 1534 2075 1959 2075 
z
" transform="scale(0.015625)"/>
      </defs>
      <use xlink:href="#DejaVuSans-32"/>
      <use xlink:href="#DejaVuSans-30" transform="translate(63.623047 0)"/>
      <use xlink:href="#DejaVuSans-31" transform="translate(127.246094 0)"/>
      <use xlink:href="#DejaVuSans-39" transform="translate(190.869141 0)"/>
     </g>
    </g>
    <g id="line2d_42">
     <path d="M 65.16375 69.911719 
L 76.16375 69.911719 
L 87.16375 69.911719 
" style="fill: none; stroke: #83c966; stroke-opacity: 0.8; stroke-width: 2.5; stroke-linecap: square"/>
    </g>
    <g id="text_24">
     <!-- 2025 -->
     <g transform="translate(95.96375 73.761719) scale(0.11 -0.11)">
      <use xlink:href="#DejaVuSans-32"/>
      <use xlink:href="#DejaVuSans-30" transform="translate(63.623047 0)"/>
      <use xlink:href="#DejaVuSans-32" transform="translate(127.246094 0)"/>
      <use xlink:href="#DejaVuSans-35" transform="translate(190.869141 0)"/>
     </g>
    </g>
   </g>
  </g>
 </g>
 <defs>
  <clipPath id="p81e1a31d2d">
   <rect x="55.26375" y="39.3575" width="793.15" height="344.84"/>
  </clipPath>
 </defs>
</svg>
