<?xml version="1.0" encoding="utf-8" standalone="no"?>
<!DOCTYPE svg PUBLIC "-//W3C//DTD SVG 1.1//EN"
  "http://www.w3.org/Graphics/SVG/1.1/DTD/svg11.dtd">
<svg xmlns:xlink="http://www.w3.org/1999/xlink" width="711.521791pt" height="423.689375pt" viewBox="0 0 711.521791 423.689375" xmlns="http://www.w3.org/2000/svg" version="1.1">
 <metadata>
  <rdf:RDF xmlns:dc="http://purl.org/dc/elements/1.1/" xmlns:cc="http://creativecommons.org/ns#" xmlns:rdf="http://www.w3.org/1999/02/22-rdf-syntax-ns#">
   <cc:Work>
    <dc:type rdf:resource="http://purl.org/dc/dcmitype/StillImage"/>
    <dc:date>2026-01-28T17:49:46.619886</dc:date>
    <dc:format>image/svg+xml</dc:format>
    <dc:creator>
     <cc:Agent>
      <dc:title>Matplotlib v3.10.8, https://matplotlib.org/</dc:title>
     </cc:Agent>
    </dc:creator>
   </cc:Work>
  </rdf:RDF>
 </metadata>
 <defs>
  <style type="text/css">*{stroke-linejoin: round; stroke-linecap: butt}</style>
 </defs>
 <g id="figure_1">
  <g id="patch_1">
   <path d="M 0 423.689375 
L 711.521791 423.689375 
L 711.521791 0 
L 0 0 
L 0 423.689375 
z
" style="fill: none"/>
  </g>
  <g id="axes_1">
   <g id="patch_2">
    <path d="M 61.62625 384.1975 
L 704.321791 384.1975 
L 704.321791 39.3575 
L 61.62625 39.3575 
L 61.62625 384.1975 
z
" style="fill: none"/>
   </g>
   <g id="matplotlib.axis_1">
    <g id="xtick_1">
     <g id="line2d_1">
      <path d="M 61.62625 384.1975 
L 61.62625 39.3575 
" clip-path="url(#p032aba7984)" style="fill: none; stroke-dasharray: 2.96,1.28; stroke-dashoffset: 0; stroke: #b0b0b0; stroke-opacity: 0.3; stroke-width: 0.8"/>
     </g>
     <g id="line2d_2">
      <defs>
       <path id="mcae3c371b8" d="M 0 0 
L 0 3.5 
" style="stroke: #000000; stroke-width: 0.8"/>
      </defs>
      <g>
       <use xlink:href="#mcae3c371b8" x="61.62625" y="384.1975" style="stroke: #000000; stroke-width: 0.8"/>
      </g>
     </g>
     <g id="text_1">
      <!-- Jan -->
      <g transform="translate(53.918438 398.795937) scale(0.1 -0.1)">
       <defs>
        <path id="DejaVuSans-4a" d="M 628 4666 
L 1259 4666 
L 1259 325 
Q 1259 -519 939 -900 
Q 619 -1281 -91 -1281 
L -331 -1281 
L -331 -750 
L -134 -750 
Q 284 -750 456 -515 
Q 628 -281 628 325 
L 628 4666 
z
" transform="scale(0.015625)"/>
        <path id="DejaVuSans-61" d="M 2194 1759 
Q 1497 1759 1228 1600 
Q 959 1441 959 1056 
Q 959 750 1161 570 
Q 1363 391 1709 391 
Q 2188 391 2477 730 
Q 2766 1069 2766 1631 
L 2766 1759 
L 2194 1759 
z
M 3341 1997 
L 3341 0 
L 2766 0 
L 2766 531 
Q 2569 213 2275 61 
Q 1981 -91 1556 -91 
Q 1019 -91 701 211 
Q 384 513 384 1019 
Q 384 1609 779 1909 
Q 1175 2209 1959 2209 
L 2766 2209 
L 2766 2266 
Q 2766 2663 2505 2880 
Q 2244 3097 1772 3097 
Q 1472 3097 1187 3025 
Q 903 2953 641 2809 
L 641 3341 
Q 956 3463 1253 3523 
Q 1550 3584 1831 3584 
Q 2591 3584 2966 3190 
Q 3341 2797 3341 1997 
z
" transform="scale(0.015625)"/>
        <path id="DejaVuSans-6e" d="M 3513 2113 
L 3513 0 
L 2938 0 
L 2938 2094 
Q 2938 2591 2744 2837 
Q 2550 3084 2163 3084 
Q 1697 3084 1428 2787 
Q 1159 2491 1159 1978 
L 1159 0 
L 581 0 
L 581 3500 
L 1159 3500 
L 1159 2956 
Q 1366 3272 1645 3428 
Q 1925 3584 2291 3584 
Q 2894 3584 3203 3211 
Q 3513 2838 3513 2113 
z
" transform="scale(0.015625)"/>
       </defs>
       <use xlink:href="#DejaVuSans-4a"/>
       <use xlink:href="#DejaVuSans-61" transform="translate(29.492188 0)"/>
       <use xlink:href="#DejaVuSans-6e" transform="translate(90.771484 0)"/>
      </g>
     </g>
    </g>
    <g id="xtick_2">
     <g id="line2d_3">
      <path d="M 115.473714 384.1975 
L 115.473714 39.3575 
" clip-path="url(#p032aba7984)" style="fill: none; stroke-dasharray: 2.96,1.28; stroke-dashoffset: 0; stroke: #b0b0b0; stroke-opacity: 0.3; stroke-width: 0.8"/>
     </g>
     <g id="line2d_4">
      <g>
       <use xlink:href="#mcae3c371b8" x="115.473714" y="384.1975" style="stroke: #000000; stroke-width: 0.8"/>
      </g>
     </g>
     <g id="text_2">
      <!-- Feb -->
      <g transform="translate(106.622152 398.795937) scale(0.1 -0.1)">
       <defs>
        <path id="DejaVuSans-46" d="M 628 4666 
L 3309 4666 
L 3309 4134 
L 1259 4134 
L 1259 2759 
L 3109 2759 
L 3109 2228 
L 1259 2228 
L 1259 0 
L 628 0 
L 628 4666 
z
" transform="scale(0.015625)"/>
        <path id="DejaVuSans-65" d="M 3597 1894 
L 3597 1613 
L 953 1613 
Q 991 1019 1311 708 
Q 1631 397 2203 397 
Q 2534 397 2845 478 
Q 3156 559 3463 722 
L 3463 178 
Q 3153 47 2828 -22 
Q 2503 -91 2169 -91 
Q 1331 -91 842 396 
Q 353 884 353 1716 
Q 353 2575 817 3079 
Q 1281 3584 2069 3584 
Q 2775 3584 3186 3129 
Q 3597 2675 3597 1894 
z
M 3022 2063 
Q 3016 2534 2758 2815 
Q 2500 3097 2075 3097 
Q 1594 3097 1305 2825 
Q 1016 2553 972 2059 
L 3022 2063 
z
" transform="scale(0.015625)"/>
        <path id="DejaVuSans-62" d="M 3116 1747 
Q 3116 2381 2855 2742 
Q 2594 3103 2138 3103 
Q 1681 3103 1420 2742 
Q 1159 2381 1159 1747 
Q 1159 1113 1420 752 
Q 1681 391 2138 391 
Q 2594 391 2855 752 
Q 3116 1113 3116 1747 
z
M 1159 2969 
Q 1341 3281 1617 3432 
Q 1894 3584 2278 3584 
Q 2916 3584 3314 3078 
Q 3713 2572 3713 1747 
Q 3713 922 3314 415 
Q 2916 -91 2278 -91 
Q 1894 -91 1617 61 
Q 1341 213 1159 525 
L 1159 0 
L 581 0 
L 581 4863 
L 1159 4863 
L 1159 2969 
z
" transform="scale(0.015625)"/>
       </defs>
       <use xlink:href="#DejaVuSans-46"/>
       <use xlink:href="#DejaVuSans-65" transform="translate(52.019531 0)"/>
       <use xlink:href="#DejaVuSans-62" transform="translate(113.542969 0)"/>
      </g>
     </g>
    </g>
    <g id="xtick_3">
     <g id="line2d_5">
      <path d="M 164.110133 384.1975 
L 164.110133 39.3575 
" clip-path="url(#p032aba7984)" style="fill: none; stroke-dasharray: 2.96,1.28; stroke-dashoffset: 0; stroke: #b0b0b0; stroke-opacity: 0.3; stroke-width: 0.8"/>
     </g>
     <g id="line2d_6">
      <g>
       <use xlink:href="#mcae3c371b8" x="164.110133" y="384.1975" style="stroke: #000000; stroke-width: 0.8"/>
      </g>
     </g>
     <g id="text_3">
      <!-- Mar -->
      <g transform="translate(154.67654 398.795937) scale(0.1 -0.1)">
       <defs>
        <path id="DejaVuSans-4d" d="M 628 4666 
L 1569 4666 
L 2759 1491 
L 3956 4666 
L 4897 4666 
L 4897 0 
L 4281 0 
L 4281 4097 
L 3078 897 
L 2444 897 
L 1241 4097 
L 1241 0 
L 628 0 
L 628 4666 
z
" transform="scale(0.015625)"/>
        <path id="DejaVuSans-72" d="M 2631 2963 
Q 2534 3019 2420 3045 
Q 2306 3072 2169 3072 
Q 1681 3072 1420 2755 
Q 1159 2438 1159 1844 
L 1159 0 
L 581 0 
L 581 3500 
L 1159 3500 
L 1159 2956 
Q 1341 3275 1631 3429 
Q 1922 3584 2338 3584 
Q 2397 3584 2469 3576 
Q 2541 3569 2628 3553 
L 2631 2963 
z
" transform="scale(0.015625)"/>
       </defs>
       <use xlink:href="#DejaVuSans-4d"/>
       <use xlink:href="#DejaVuSans-61" transform="translate(86.279297 0)"/>
       <use xlink:href="#DejaVuSans-72" transform="translate(147.558594 0)"/>
      </g>
     </g>
    </g>
    <g id="xtick_4">
     <g id="line2d_7">
      <path d="M 217.957598 384.1975 
L 217.957598 39.3575 
" clip-path="url(#p032aba7984)" style="fill: none; stroke-dasharray: 2.96,1.28; stroke-dashoffset: 0; stroke: #b0b0b0; stroke-opacity: 0.3; stroke-width: 0.8"/>
     </g>
     <g id="line2d_8">
      <g>
       <use xlink:href="#mcae3c371b8" x="217.957598" y="384.1975" style="stroke: #000000; stroke-width: 0.8"/>
      </g>
     </g>
     <g id="text_4">
      <!-- Apr -->
      <g transform="translate(209.307598 398.795937) scale(0.1 -0.1)">
       <defs>
        <path id="DejaVuSans-41" d="M 2188 4044 
L 1331 1722 
L 3047 1722 
L 2188 4044 
z
M 1831 4666 
L 2547 4666 
L 4325 0 
L 3669 0 
L 3244 1197 
L 1141 1197 
L 716 0 
L 50 0 
L 1831 4666 
z
" transform="scale(0.015625)"/>
        <path id="DejaVuSans-70" d="M 1159 525 
L 1159 -1331 
L 581 -1331 
L 581 3500 
L 1159 3500 
L 1159 2969 
Q 1341 3281 1617 3432 
Q 1894 3584 2278 3584 
Q 2916 3584 3314 3078 
Q 3713 2572 3713 1747 
Q 3713 922 3314 415 
Q 2916 -91 2278 -91 
Q 1894 -91 1617 61 
Q 1341 213 1159 525 
z
M 3116 1747 
Q 3116 2381 2855 2742 
Q 2594 3103 2138 3103 
Q 1681 3103 1420 2742 
Q 1159 2381 1159 1747 
Q 1159 1113 1420 752 
Q 1681 391 2138 391 
Q 2594 391 2855 752 
Q 3116 1113 3116 1747 
z
" transform="scale(0.015625)"/>
       </defs>
       <use xlink:href="#DejaVuSans-41"/>
       <use xlink:href="#DejaVuSans-70" transform="translate(68.408203 0)"/>
       <use xlink:href="#DejaVuSans-72" transform="translate(131.884766 0)"/>
      </g>
     </g>
    </g>
    <g id="xtick_5">
     <g id="line2d_9">
      <path d="M 270.068047 384.1975 
L 270.068047 39.3575 
" clip-path="url(#p032aba7984)" style="fill: none; stroke-dasharray: 2.96,1.28; stroke-dashoffset: 0; stroke: #b0b0b0; stroke-opacity: 0.3; stroke-width: 0.8"/>
     </g>
     <g id="line2d_10">
      <g>
       <use xlink:href="#mcae3c371b8" x="270.068047" y="384.1975" style="stroke: #000000; stroke-width: 0.8"/>
      </g>
     </g>
     <g id="text_5">
      <!-- May -->
      <g transform="translate(259.730547 398.795937) scale(0.1 -0.1)">
       <defs>
        <path id="DejaVuSans-79" d="M 2059 -325 
Q 1816 -950 1584 -1140 
Q 1353 -1331 966 -1331 
L 506 -1331 
L 506 -850 
L 844 -850 
Q 1081 -850 1212 -737 
Q 1344 -625 1503 -206 
L 1606 56 
L 191 3500 
L 800 3500 
L 1894 763 
L 2988 3500 
L 3597 3500 
L 2059 -325 
z
" transform="scale(0.015625)"/>
       </defs>
       <use xlink:href="#DejaVuSans-4d"/>
       <use xlink:href="#DejaVuSans-61" transform="translate(86.279297 0)"/>
       <use xlink:href="#DejaVuSans-79" transform="translate(147.558594 0)"/>
      </g>
     </g>
    </g>
    <g id="xtick_6">
     <g id="line2d_11">
      <path d="M 323.915511 384.1975 
L 323.915511 39.3575 
" clip-path="url(#p032aba7984)" style="fill: none; stroke-dasharray: 2.96,1.28; stroke-dashoffset: 0; stroke: #b0b0b0; stroke-opacity: 0.3; stroke-width: 0.8"/>
     </g>
     <g id="line2d_12">
      <g>
       <use xlink:href="#mcae3c371b8" x="323.915511" y="384.1975" style="stroke: #000000; stroke-width: 0.8"/>
      </g>
     </g>
     <g id="text_6">
      <!-- Jun -->
      <g transform="translate(316.103011 398.795937) scale(0.1 -0.1)">
       <defs>
        <path id="DejaVuSans-75" d="M 544 1381 
L 544 3500 
L 1119 3500 
L 1119 1403 
Q 1119 906 1312 657 
Q 1506 409 1894 409 
Q 2359 409 2629 706 
Q 2900 1003 2900 1516 
L 2900 3500 
L 3475 3500 
L 3475 0 
L 2900 0 
L 2900 538 
Q 2691 219 2414 64 
Q 2138 -91 1772 -91 
Q 1169 -91 856 284 
Q 544 659 544 1381 
z
M 1991 3584 
L 1991 3584 
z
" transform="scale(0.015625)"/>
       </defs>
       <use xlink:href="#DejaVuSans-4a"/>
       <use xlink:href="#DejaVuSans-75" transform="translate(29.492188 0)"/>
       <use xlink:href="#DejaVuSans-6e" transform="translate(92.871094 0)"/>
      </g>
     </g>
    </g>
    <g id="xtick_7">
     <g id="line2d_13">
      <path d="M 376.02596 384.1975 
L 376.02596 39.3575 
" clip-path="url(#p032aba7984)" style="fill: none; stroke-dasharray: 2.96,1.28; stroke-dashoffset: 0; stroke: #b0b0b0; stroke-opacity: 0.3; stroke-width: 0.8"/>
     </g>
     <g id="line2d_14">
      <g>
       <use xlink:href="#mcae3c371b8" x="376.02596" y="384.1975" style="stroke: #000000; stroke-width: 0.8"/>
      </g>
     </g>
     <g id="text_7">
      <!-- Jul -->
      <g transform="translate(369.993148 398.795937) scale(0.1 -0.1)">
       <defs>
        <path id="DejaVuSans-6c" d="M 603 4863 
L 1178 4863 
L 1178 0 
L 603 0 
L 603 4863 
z
" transform="scale(0.015625)"/>
       </defs>
       <use xlink:href="#DejaVuSans-4a"/>
       <use xlink:href="#DejaVuSans-75" transform="translate(29.492188 0)"/>
       <use xlink:href="#DejaVuSans-6c" transform="translate(92.871094 0)"/>
      </g>
     </g>
    </g>
    <g id="xtick_8">
     <g id="line2d_15">
      <path d="M 429.873425 384.1975 
L 429.873425 39.3575 
" clip-path="url(#p032aba7984)" style="fill: none; stroke-dasharray: 2.96,1.28; stroke-dashoffset: 0; stroke: #b0b0b0; stroke-opacity: 0.3; stroke-width: 0.8"/>
     </g>
     <g id="line2d_16">
      <g>
       <use xlink:href="#mcae3c371b8" x="429.873425" y="384.1975" style="stroke: #000000; stroke-width: 0.8"/>
      </g>
     </g>
     <g id="text_8">
      <!-- Aug -->
      <g transform="translate(420.110143 398.795937) scale(0.1 -0.1)">
       <defs>
        <path id="DejaVuSans-67" d="M 2906 1791 
Q 2906 2416 2648 2759 
Q 2391 3103 1925 3103 
Q 1463 3103 1205 2759 
Q 947 2416 947 1791 
Q 947 1169 1205 825 
Q 1463 481 1925 481 
Q 2391 481 2648 825 
Q 2906 1169 2906 1791 
z
M 3481 434 
Q 3481 -459 3084 -895 
Q 2688 -1331 1869 -1331 
Q 1566 -1331 1297 -1286 
Q 1028 -1241 775 -1147 
L 775 -588 
Q 1028 -725 1275 -790 
Q 1522 -856 1778 -856 
Q 2344 -856 2625 -561 
Q 2906 -266 2906 331 
L 2906 616 
Q 2728 306 2450 153 
Q 2172 0 1784 0 
Q 1141 0 747 490 
Q 353 981 353 1791 
Q 353 2603 747 3093 
Q 1141 3584 1784 3584 
Q 2172 3584 2450 3431 
Q 2728 3278 2906 2969 
L 2906 3500 
L 3481 3500 
L 3481 434 
z
" transform="scale(0.015625)"/>
       </defs>
       <use xlink:href="#DejaVuSans-41"/>
       <use xlink:href="#DejaVuSans-75" transform="translate(68.408203 0)"/>
       <use xlink:href="#DejaVuSans-67" transform="translate(131.787109 0)"/>
      </g>
     </g>
    </g>
    <g id="xtick_9">
     <g id="line2d_17">
      <path d="M 483.720889 384.1975 
L 483.720889 39.3575 
" clip-path="url(#p032aba7984)" style="fill: none; stroke-dasharray: 2.96,1.28; stroke-dashoffset: 0; stroke: #b0b0b0; stroke-opacity: 0.3; stroke-width: 0.8"/>
     </g>
     <g id="line2d_18">
      <g>
       <use xlink:href="#mcae3c371b8" x="483.720889" y="384.1975" style="stroke: #000000; stroke-width: 0.8"/>
      </g>
     </g>
     <g id="text_9">
      <!-- Sep -->
      <g transform="translate(474.295889 398.795937) scale(0.1 -0.1)">
       <defs>
        <path id="DejaVuSans-53" d="M 3425 4513 
L 3425 3897 
Q 3066 4069 2747 4153 
Q 2428 4238 2131 4238 
Q 1616 4238 1336 4038 
Q 1056 3838 1056 3469 
Q 1056 3159 1242 3001 
Q 1428 2844 1947 2747 
L 2328 2669 
Q 3034 2534 3370 2195 
Q 3706 1856 3706 1288 
Q 3706 609 3251 259 
Q 2797 -91 1919 -91 
Q 1588 -91 1214 -16 
Q 841 59 441 206 
L 441 856 
Q 825 641 1194 531 
Q 1563 422 1919 422 
Q 2459 422 2753 634 
Q 3047 847 3047 1241 
Q 3047 1584 2836 1778 
Q 2625 1972 2144 2069 
L 1759 2144 
Q 1053 2284 737 2584 
Q 422 2884 422 3419 
Q 422 4038 858 4394 
Q 1294 4750 2059 4750 
Q 2388 4750 2728 4690 
Q 3069 4631 3425 4513 
z
" transform="scale(0.015625)"/>
       </defs>
       <use xlink:href="#DejaVuSans-53"/>
       <use xlink:href="#DejaVuSans-65" transform="translate(63.476562 0)"/>
       <use xlink:href="#DejaVuSans-70" transform="translate(125 0)"/>
      </g>
     </g>
    </g>
    <g id="xtick_10">
     <g id="line2d_19">
      <path d="M 535.831338 384.1975 
L 535.831338 39.3575 
" clip-path="url(#p032aba7984)" style="fill: none; stroke-dasharray: 2.96,1.28; stroke-dashoffset: 0; stroke: #b0b0b0; stroke-opacity: 0.3; stroke-width: 0.8"/>
     </g>
     <g id="line2d_20">
      <g>
       <use xlink:href="#mcae3c371b8" x="535.831338" y="384.1975" style="stroke: #000000; stroke-width: 0.8"/>
      </g>
     </g>
     <g id="text_10">
      <!-- Oct -->
      <g transform="translate(527.186026 398.795937) scale(0.1 -0.1)">
       <defs>
        <path id="DejaVuSans-4f" d="M 2522 4238 
Q 1834 4238 1429 3725 
Q 1025 3213 1025 2328 
Q 1025 1447 1429 934 
Q 1834 422 2522 422 
Q 3209 422 3611 934 
Q 4013 1447 4013 2328 
Q 4013 3213 3611 3725 
Q 3209 4238 2522 4238 
z
M 2522 4750 
Q 3503 4750 4090 4092 
Q 4678 3434 4678 2328 
Q 4678 1225 4090 567 
Q 3503 -91 2522 -91 
Q 1538 -91 948 565 
Q 359 1222 359 2328 
Q 359 3434 948 4092 
Q 1538 4750 2522 4750 
z
" transform="scale(0.015625)"/>
        <path id="DejaVuSans-63" d="M 3122 3366 
L 3122 2828 
Q 2878 2963 2633 3030 
Q 2388 3097 2138 3097 
Q 1578 3097 1268 2742 
Q 959 2388 959 1747 
Q 959 1106 1268 751 
Q 1578 397 2138 397 
Q 2388 397 2633 464 
Q 2878 531 3122 666 
L 3122 134 
Q 2881 22 2623 -34 
Q 2366 -91 2075 -91 
Q 1284 -91 818 406 
Q 353 903 353 1747 
Q 353 2603 823 3093 
Q 1294 3584 2113 3584 
Q 2378 3584 2631 3529 
Q 2884 3475 3122 3366 
z
" transform="scale(0.015625)"/>
        <path id="DejaVuSans-74" d="M 1172 4494 
L 1172 3500 
L 2356 3500 
L 2356 3053 
L 1172 3053 
L 1172 1153 
Q 1172 725 1289 603 
Q 1406 481 1766 481 
L 2356 481 
L 2356 0 
L 1766 0 
Q 1100 0 847 248 
Q 594 497 594 1153 
L 594 3053 
L 172 3053 
L 172 3500 
L 594 3500 
L 594 4494 
L 1172 4494 
z
" transform="scale(0.015625)"/>
       </defs>
       <use xlink:href="#DejaVuSans-4f"/>
       <use xlink:href="#DejaVuSans-63" transform="translate(78.710938 0)"/>
       <use xlink:href="#DejaVuSans-74" transform="translate(133.691406 0)"/>
      </g>
     </g>
    </g>
    <g id="xtick_11">
     <g id="line2d_21">
      <path d="M 589.678802 384.1975 
L 589.678802 39.3575 
" clip-path="url(#p032aba7984)" style="fill: none; stroke-dasharray: 2.96,1.28; stroke-dashoffset: 0; stroke: #b0b0b0; stroke-opacity: 0.3; stroke-width: 0.8"/>
     </g>
     <g id="line2d_22">
      <g>
       <use xlink:href="#mcae3c371b8" x="589.678802" y="384.1975" style="stroke: #000000; stroke-width: 0.8"/>
      </g>
     </g>
     <g id="text_11">
      <!-- Nov -->
      <g transform="translate(579.919427 398.795937) scale(0.1 -0.1)">
       <defs>
        <path id="DejaVuSans-4e" d="M 628 4666 
L 1478 4666 
L 3547 763 
L 3547 4666 
L 4159 4666 
L 4159 0 
L 3309 0 
L 1241 3903 
L 1241 0 
L 628 0 
L 628 4666 
z
" transform="scale(0.015625)"/>
        <path id="DejaVuSans-6f" d="M 1959 3097 
Q 1497 3097 1228 2736 
Q 959 2375 959 1747 
Q 959 1119 1226 758 
Q 1494 397 1959 397 
Q 2419 397 2687 759 
Q 2956 1122 2956 1747 
Q 2956 2369 2687 2733 
Q 2419 3097 1959 3097 
z
M 1959 3584 
Q 2709 3584 3137 3096 
Q 3566 2609 3566 1747 
Q 3566 888 3137 398 
Q 2709 -91 1959 -91 
Q 1206 -91 779 398 
Q 353 888 353 1747 
Q 353 2609 779 3096 
Q 1206 3584 1959 3584 
z
" transform="scale(0.015625)"/>
        <path id="DejaVuSans-76" d="M 191 3500 
L 800 3500 
L 1894 563 
L 2988 3500 
L 3597 3500 
L 2284 0 
L 1503 0 
L 191 3500 
z
" transform="scale(0.015625)"/>
       </defs>
       <use xlink:href="#DejaVuSans-4e"/>
       <use xlink:href="#DejaVuSans-6f" transform="translate(74.804688 0)"/>
       <use xlink:href="#DejaVuSans-76" transform="translate(135.986328 0)"/>
      </g>
     </g>
    </g>
    <g id="xtick_12">
     <g id="line2d_23">
      <path d="M 641.789251 384.1975 
L 641.789251 39.3575 
" clip-path="url(#p032aba7984)" style="fill: none; stroke-dasharray: 2.96,1.28; stroke-dashoffset: 0; stroke: #b0b0b0; stroke-opacity: 0.3; stroke-width: 0.8"/>
     </g>
     <g id="line2d_24">
      <g>
       <use xlink:href="#mcae3c371b8" x="641.789251" y="384.1975" style="stroke: #000000; stroke-width: 0.8"/>
      </g>
     </g>
     <g id="text_12">
      <!-- Dec -->
      <g transform="translate(632.11347 398.795937) scale(0.1 -0.1)">
       <defs>
        <path id="DejaVuSans-44" d="M 1259 4147 
L 1259 519 
L 2022 519 
Q 2988 519 3436 956 
Q 3884 1394 3884 2338 
Q 3884 3275 3436 3711 
Q 2988 4147 2022 4147 
L 1259 4147 
z
M 628 4666 
L 1925 4666 
Q 3281 4666 3915 4102 
Q 4550 3538 4550 2338 
Q 4550 1131 3912 565 
Q 3275 0 1925 0 
L 628 0 
L 628 4666 
z
" transform="scale(0.015625)"/>
       </defs>
       <use xlink:href="#DejaVuSans-44"/>
       <use xlink:href="#DejaVuSans-65" transform="translate(77.001953 0)"/>
       <use xlink:href="#DejaVuSans-63" transform="translate(138.525391 0)"/>
      </g>
     </g>
    </g>
    <g id="xtick_13">
     <g id="line2d_25">
      <path d="M 695.636716 384.1975 
L 695.636716 39.3575 
" clip-path="url(#p032aba7984)" style="fill: none; stroke-dasharray: 2.96,1.28; stroke-dashoffset: 0; stroke: #b0b0b0; stroke-opacity: 0.3; stroke-width: 0.8"/>
     </g>
     <g id="line2d_26">
      <g>
       <use xlink:href="#mcae3c371b8" x="695.636716" y="384.1975" style="stroke: #000000; stroke-width: 0.8"/>
      </g>
     </g>
     <g id="text_13">
      <!-- Jan -->
      <g transform="translate(687.928903 398.795937) scale(0.1 -0.1)">
       <use xlink:href="#DejaVuSans-4a"/>
       <use xlink:href="#DejaVuSans-61" transform="translate(29.492188 0)"/>
       <use xlink:href="#DejaVuSans-6e" transform="translate(90.771484 0)"/>
      </g>
     </g>
    </g>
    <g id="text_14">
     <!-- Day of the year -->
     <g transform="translate(336.388708 413.99375) scale(0.12 -0.12)">
      <defs>
       <path id="DejaVuSans-20" transform="scale(0.015625)"/>
       <path id="DejaVuSans-66" d="M 2375 4863 
L 2375 4384 
L 1825 4384 
Q 1516 4384 1395 4259 
Q 1275 4134 1275 3809 
L 1275 3500 
L 2222 3500 
L 2222 3053 
L 1275 3053 
L 1275 0 
L 697 0 
L 697 3053 
L 147 3053 
L 147 3500 
L 697 3500 
L 697 3744 
Q 697 4328 969 4595 
Q 1241 4863 1831 4863 
L 2375 4863 
z
" transform="scale(0.015625)"/>
       <path id="DejaVuSans-68" d="M 3513 2113 
L 3513 0 
L 2938 0 
L 2938 2094 
Q 2938 2591 2744 2837 
Q 2550 3084 2163 3084 
Q 1697 3084 1428 2787 
Q 1159 2491 1159 1978 
L 1159 0 
L 581 0 
L 581 4863 
L 1159 4863 
L 1159 2956 
Q 1366 3272 1645 3428 
Q 1925 3584 2291 3584 
Q 2894 3584 3203 3211 
Q 3513 2838 3513 2113 
z
" transform="scale(0.015625)"/>
      </defs>
      <use xlink:href="#DejaVuSans-44"/>
      <use xlink:href="#DejaVuSans-61" transform="translate(77.001953 0)"/>
      <use xlink:href="#DejaVuSans-79" transform="translate(138.28125 0)"/>
      <use xlink:href="#DejaVuSans-20" transform="translate(197.460938 0)"/>
      <use xlink:href="#DejaVuSans-6f" transform="translate(229.248047 0)"/>
      <use xlink:href="#DejaVuSans-66" transform="translate(290.429688 0)"/>
      <use xlink:href="#DejaVuSans-20" transform="translate(325.634766 0)"/>
      <use xlink:href="#DejaVuSans-74" transform="translate(357.421875 0)"/>
      <use xlink:href="#DejaVuSans-68" transform="translate(396.630859 0)"/>
      <use xlink:href="#DejaVuSans-65" transform="translate(460.009766 0)"/>
      <use xlink:href="#DejaVuSans-20" transform="translate(521.533203 0)"/>
      <use xlink:href="#DejaVuSans-79" transform="translate(553.320312 0)"/>
      <use xlink:href="#DejaVuSans-65" transform="translate(612.5 0)"/>
      <use xlink:href="#DejaVuSans-61" transform="translate(674.023438 0)"/>
      <use xlink:href="#DejaVuSans-72" transform="translate(735.302734 0)"/>
     </g>
    </g>
   </g>
   <g id="matplotlib.axis_2">
    <g id="ytick_1">
     <g id="line2d_27">
      <path d="M 61.62625 384.1975 
L 704.321791 384.1975 
" clip-path="url(#p032aba7984)" style="fill: none; stroke-dasharray: 2.96,1.28; stroke-dashoffset: 0; stroke: #b0b0b0; stroke-opacity: 0.3; stroke-width: 0.8"/>
     </g>
     <g id="line2d_28">
      <defs>
       <path id="m85f52be91c" d="M 0 0 
L -3.5 0 
" style="stroke: #000000; stroke-width: 0.8"/>
      </defs>
      <g>
       <use xlink:href="#m85f52be91c" x="61.62625" y="384.1975" style="stroke: #000000; stroke-width: 0.8"/>
      </g>
     </g>
     <g id="text_15">
      <!-- 0 -->
      <g transform="translate(48.26375 387.996719) scale(0.1 -0.1)">
       <defs>
        <path id="DejaVuSans-30" d="M 2034 4250 
Q 1547 4250 1301 3770 
Q 1056 3291 1056 2328 
Q 1056 1369 1301 889 
Q 1547 409 2034 409 
Q 2525 409 2770 889 
Q 3016 1369 3016 2328 
Q 3016 3291 2770 3770 
Q 2525 4250 2034 4250 
z
M 2034 4750 
Q 2819 4750 3233 4129 
Q 3647 3509 3647 2328 
Q 3647 1150 3233 529 
Q 2819 -91 2034 -91 
Q 1250 -91 836 529 
Q 422 1150 422 2328 
Q 422 3509 836 4129 
Q 1250 4750 2034 4750 
z
" transform="scale(0.015625)"/>
       </defs>
       <use xlink:href="#DejaVuSans-30"/>
      </g>
     </g>
    </g>
    <g id="ytick_2">
     <g id="line2d_29">
      <path d="M 61.62625 329.895922 
L 704.321791 329.895922 
" clip-path="url(#p032aba7984)" style="fill: none; stroke-dasharray: 2.96,1.28; stroke-dashoffset: 0; stroke: #b0b0b0; stroke-opacity: 0.3; stroke-width: 0.8"/>
     </g>
     <g id="line2d_30">
      <g>
       <use xlink:href="#m85f52be91c" x="61.62625" y="329.895922" style="stroke: #000000; stroke-width: 0.8"/>
      </g>
     </g>
     <g id="text_16">
      <!-- 5000 -->
      <g transform="translate(29.17625 333.695141) scale(0.1 -0.1)">
       <defs>
        <path id="DejaVuSans-35" d="M 691 4666 
L 3169 4666 
L 3169 4134 
L 1269 4134 
L 1269 2991 
Q 1406 3038 1543 3061 
Q 1681 3084 1819 3084 
Q 2600 3084 3056 2656 
Q 3513 2228 3513 1497 
Q 3513 744 3044 326 
Q 2575 -91 1722 -91 
Q 1428 -91 1123 -41 
Q 819 9 494 109 
L 494 744 
Q 775 591 1075 516 
Q 1375 441 1709 441 
Q 2250 441 2565 725 
Q 2881 1009 2881 1497 
Q 2881 1984 2565 2268 
Q 2250 2553 1709 2553 
Q 1456 2553 1204 2497 
Q 953 2441 691 2322 
L 691 4666 
z
" transform="scale(0.015625)"/>
       </defs>
       <use xlink:href="#DejaVuSans-35"/>
       <use xlink:href="#DejaVuSans-30" transform="translate(63.623047 0)"/>
       <use xlink:href="#DejaVuSans-30" transform="translate(127.246094 0)"/>
       <use xlink:href="#DejaVuSans-30" transform="translate(190.869141 0)"/>
      </g>
     </g>
    </g>
    <g id="ytick_3">
     <g id="line2d_31">
      <path d="M 61.62625 275.594344 
L 704.321791 275.594344 
" clip-path="url(#p032aba7984)" style="fill: none; stroke-dasharray: 2.96,1.28; stroke-dashoffset: 0; stroke: #b0b0b0; stroke-opacity: 0.3; stroke-width: 0.8"/>
     </g>
     <g id="line2d_32">
      <g>
       <use xlink:href="#m85f52be91c" x="61.62625" y="275.594344" style="stroke: #000000; stroke-width: 0.8"/>
      </g>
     </g>
     <g id="text_17">
      <!-- 10000 -->
      <g transform="translate(22.81375 279.393562) scale(0.1 -0.1)">
       <defs>
        <path id="DejaVuSans-31" d="M 794 531 
L 1825 531 
L 1825 4091 
L 703 3866 
L 703 4441 
L 1819 4666 
L 2450 4666 
L 2450 531 
L 3481 531 
L 3481 0 
L 794 0 
L 794 531 
z
" transform="scale(0.015625)"/>
       </defs>
       <use xlink:href="#DejaVuSans-31"/>
       <use xlink:href="#DejaVuSans-30" transform="translate(63.623047 0)"/>
       <use xlink:href="#DejaVuSans-30" transform="translate(127.246094 0)"/>
       <use xlink:href="#DejaVuSans-30" transform="translate(190.869141 0)"/>
       <use xlink:href="#DejaVuSans-30" transform="translate(254.492188 0)"/>
      </g>
     </g>
    </g>
    <g id="ytick_4">
     <g id="line2d_33">
      <path d="M 61.62625 221.292766 
L 704.321791 221.292766 
" clip-path="url(#p032aba7984)" style="fill: none; stroke-dasharray: 2.96,1.28; stroke-dashoffset: 0; stroke: #b0b0b0; stroke-opacity: 0.3; stroke-width: 0.8"/>
     </g>
     <g id="line2d_34">
      <g>
       <use xlink:href="#m85f52be91c" x="61.62625" y="221.292766" style="stroke: #000000; stroke-width: 0.8"/>
      </g>
     </g>
     <g id="text_18">
      <!-- 15000 -->
      <g transform="translate(22.81375 225.091984) scale(0.1 -0.1)">
       <use xlink:href="#DejaVuSans-31"/>
       <use xlink:href="#DejaVuSans-35" transform="translate(63.623047 0)"/>
       <use xlink:href="#DejaVuSans-30" transform="translate(127.246094 0)"/>
       <use xlink:href="#DejaVuSans-30" transform="translate(190.869141 0)"/>
       <use xlink:href="#DejaVuSans-30" transform="translate(254.492188 0)"/>
      </g>
     </g>
    </g>
    <g id="ytick_5">
     <g id="line2d_35">
      <path d="M 61.62625 166.991187 
L 704.321791 166.991187 
" clip-path="url(#p032aba7984)" style="fill: none; stroke-dasharray: 2.96,1.28; stroke-dashoffset: 0; stroke: #b0b0b0; stroke-opacity: 0.3; stroke-width: 0.8"/>
     </g>
     <g id="line2d_36">
      <g>
       <use xlink:href="#m85f52be91c" x="61.62625" y="166.991187" style="stroke: #000000; stroke-width: 0.8"/>
      </g>
     </g>
     <g id="text_19">
      <!-- 20000 -->
      <g transform="translate(22.81375 170.790406) scale(0.1 -0.1)">
       <defs>
        <path id="DejaVuSans-32" d="M 1228 531 
L 3431 531 
L 3431 0 
L 469 0 
L 469 531 
Q 828 903 1448 1529 
Q 2069 2156 2228 2338 
Q 2531 2678 2651 2914 
Q 2772 3150 2772 3378 
Q 2772 3750 2511 3984 
Q 2250 4219 1831 4219 
Q 1534 4219 1204 4116 
Q 875 4013 500 3803 
L 500 4441 
Q 881 4594 1212 4672 
Q 1544 4750 1819 4750 
Q 2544 4750 2975 4387 
Q 3406 4025 3406 3419 
Q 3406 3131 3298 2873 
Q 3191 2616 2906 2266 
Q 2828 2175 2409 1742 
Q 1991 1309 1228 531 
z
" transform="scale(0.015625)"/>
       </defs>
       <use xlink:href="#DejaVuSans-32"/>
       <use xlink:href="#DejaVuSans-30" transform="translate(63.623047 0)"/>
       <use xlink:href="#DejaVuSans-30" transform="translate(127.246094 0)"/>
       <use xlink:href="#DejaVuSans-30" transform="translate(190.869141 0)"/>
       <use xlink:href="#DejaVuSans-30" transform="translate(254.492188 0)"/>
      </g>
     </g>
    </g>
    <g id="ytick_6">
     <g id="line2d_37">
      <path d="M 61.62625 112.689609 
L 704.321791 112.689609 
" clip-path="url(#p032aba7984)" style="fill: none; stroke-dasharray: 2.96,1.28; stroke-dashoffset: 0; stroke: #b0b0b0; stroke-opacity: 0.3; stroke-width: 0.8"/>
     </g>
     <g id="line2d_38">
      <g>
       <use xlink:href="#m85f52be91c" x="61.62625" y="112.689609" style="stroke: #000000; stroke-width: 0.8"/>
      </g>
     </g>
     <g id="text_20">
      <!-- 25000 -->
      <g transform="translate(22.81375 116.488828) scale(0.1 -0.1)">
       <use xlink:href="#DejaVuSans-32"/>
       <use xlink:href="#DejaVuSans-35" transform="translate(63.623047 0)"/>
       <use xlink:href="#DejaVuSans-30" transform="translate(127.246094 0)"/>
       <use xlink:href="#DejaVuSans-30" transform="translate(190.869141 0)"/>
       <use xlink:href="#DejaVuSans-30" transform="translate(254.492188 0)"/>
      </g>
     </g>
    </g>
    <g id="ytick_7">
     <g id="line2d_39">
      <path d="M 61.62625 58.388031 
L 704.321791 58.388031 
" clip-path="url(#p032aba7984)" style="fill: none; stroke-dasharray: 2.96,1.28; stroke-dashoffset: 0; stroke: #b0b0b0; stroke-opacity: 0.3; stroke-width: 0.8"/>
     </g>
     <g id="line2d_40">
      <g>
       <use xlink:href="#m85f52be91c" x="61.62625" y="58.388031" style="stroke: #000000; stroke-width: 0.8"/>
      </g>
     </g>
     <g id="text_21">
      <!-- 30000 -->
      <g transform="translate(22.81375 62.18725) scale(0.1 -0.1)">
       <defs>
        <path id="DejaVuSans-33" d="M 2597 2516 
Q 3050 2419 3304 2112 
Q 3559 1806 3559 1356 
Q 3559 666 3084 287 
Q 2609 -91 1734 -91 
Q 1441 -91 1130 -33 
Q 819 25 488 141 
L 488 750 
Q 750 597 1062 519 
Q 1375 441 1716 441 
Q 2309 441 2620 675 
Q 2931 909 2931 1356 
Q 2931 1769 2642 2001 
Q 2353 2234 1838 2234 
L 1294 2234 
L 1294 2753 
L 1863 2753 
Q 2328 2753 2575 2939 
Q 2822 3125 2822 3475 
Q 2822 3834 2567 4026 
Q 2313 4219 1838 4219 
Q 1578 4219 1281 4162 
Q 984 4106 628 3988 
L 628 4550 
Q 988 4650 1302 4700 
Q 1616 4750 1894 4750 
Q 2613 4750 3031 4423 
Q 3450 4097 3450 3541 
Q 3450 3153 3228 2886 
Q 3006 2619 2597 2516 
z
" transform="scale(0.015625)"/>
       </defs>
       <use xlink:href="#DejaVuSans-33"/>
       <use xlink:href="#DejaVuSans-30" transform="translate(63.623047 0)"/>
       <use xlink:href="#DejaVuSans-30" transform="translate(127.246094 0)"/>
       <use xlink:href="#DejaVuSans-30" transform="translate(190.869141 0)"/>
       <use xlink:href="#DejaVuSans-30" transform="translate(254.492188 0)"/>
      </g>
     </g>
    </g>
    <g id="text_22">
     <!-- Daily pedestrian count -->
     <g transform="translate(16.318125 279.793125) rotate(-90) scale(0.12 -0.12)">
      <defs>
       <path id="DejaVuSans-69" d="M 603 3500 
L 1178 3500 
L 1178 0 
L 603 0 
L 603 3500 
z
M 603 4863 
L 1178 4863 
L 1178 4134 
L 603 4134 
L 603 4863 
z
" transform="scale(0.015625)"/>
       <path id="DejaVuSans-64" d="M 2906 2969 
L 2906 4863 
L 3481 4863 
L 3481 0 
L 2906 0 
L 2906 525 
Q 2725 213 2448 61 
Q 2172 -91 1784 -91 
Q 1150 -91 751 415 
Q 353 922 353 1747 
Q 353 2572 751 3078 
Q 1150 3584 1784 3584 
Q 2172 3584 2448 3432 
Q 2725 3281 2906 2969 
z
M 947 1747 
Q 947 1113 1208 752 
Q 1469 391 1925 391 
Q 2381 391 2643 752 
Q 2906 1113 2906 1747 
Q 2906 2381 2643 2742 
Q 2381 3103 1925 3103 
Q 1469 3103 1208 2742 
Q 947 2381 947 1747 
z
" transform="scale(0.015625)"/>
       <path id="DejaVuSans-73" d="M 2834 3397 
L 2834 2853 
Q 2591 2978 2328 3040 
Q 2066 3103 1784 3103 
Q 1356 3103 1142 2972 
Q 928 2841 928 2578 
Q 928 2378 1081 2264 
Q 1234 2150 1697 2047 
L 1894 2003 
Q 2506 1872 2764 1633 
Q 3022 1394 3022 966 
Q 3022 478 2636 193 
Q 2250 -91 1575 -91 
Q 1294 -91 989 -36 
Q 684 19 347 128 
L 347 722 
Q 666 556 975 473 
Q 1284 391 1588 391 
Q 1994 391 2212 530 
Q 2431 669 2431 922 
Q 2431 1156 2273 1281 
Q 2116 1406 1581 1522 
L 1381 1569 
Q 847 1681 609 1914 
Q 372 2147 372 2553 
Q 372 3047 722 3315 
Q 1072 3584 1716 3584 
Q 2034 3584 2315 3537 
Q 2597 3491 2834 3397 
z
" transform="scale(0.015625)"/>
      </defs>
      <use xlink:href="#DejaVuSans-44"/>
      <use xlink:href="#DejaVuSans-61" transform="translate(77.001953 0)"/>
      <use xlink:href="#DejaVuSans-69" transform="translate(138.28125 0)"/>
      <use xlink:href="#DejaVuSans-6c" transform="translate(166.064453 0)"/>
      <use xlink:href="#DejaVuSans-79" transform="translate(193.847656 0)"/>
      <use xlink:href="#DejaVuSans-20" transform="translate(253.027344 0)"/>
      <use xlink:href="#DejaVuSans-70" transform="translate(284.814453 0)"/>
      <use xlink:href="#DejaVuSans-65" transform="translate(348.291016 0)"/>
      <use xlink:href="#DejaVuSans-64" transform="translate(409.814453 0)"/>
      <use xlink:href="#DejaVuSans-65" transform="translate(473.291016 0)"/>
      <use xlink:href="#DejaVuSans-73" transform="translate(534.814453 0)"/>
      <use xlink:href="#DejaVuSans-74" transform="translate(586.914062 0)"/>
      <use xlink:href="#DejaVuSans-72" transform="translate(626.123047 0)"/>
      <use xlink:href="#DejaVuSans-69" transform="translate(667.236328 0)"/>
      <use xlink:href="#DejaVuSans-61" transform="translate(695.019531 0)"/>
      <use xlink:href="#DejaVuSans-6e" transform="translate(756.298828 0)"/>
      <use xlink:href="#DejaVuSans-20" transform="translate(819.677734 0)"/>
      <use xlink:href="#DejaVuSans-63" transform="translate(851.464844 0)"/>
      <use xlink:href="#DejaVuSans-6f" transform="translate(906.445312 0)"/>
      <use xlink:href="#DejaVuSans-75" transform="translate(967.626953 0)"/>
      <use xlink:href="#DejaVuSans-6e" transform="translate(1031.005859 0)"/>
      <use xlink:href="#DejaVuSans-74" transform="translate(1094.384766 0)"/>
     </g>
    </g>
   </g>
   <g id="line2d_41">
    <path d="M 63.363265 271.043871 
L 65.10028 206.881127 
L 66.837295 207.608768 
L 68.57431 244.327495 
L 70.311325 246.282352 
L 72.04834 274.997026 
L 73.785355 196.270598 
L 75.52237 198.627287 
L 77.259385 183.93328 
L 78.9964 182.760366 
L 80.733415 176.895795 
L 82.47043 238.061093 
L 84.207445 270.804945 
L 85.94446 197.193725 
L 87.681475 199.137722 
L 89.41849 178.676887 
L 91.155505 180.946693 
L 92.89252 160.768227 
L 94.629535 226.245069 
L 96.366549 255.024906 
L 98.103564 183.640051 
L 99.840579 174.191577 
L 101.577594 169.260993 
L 103.314609 186.35513 
L 105.051624 219.012099 
L 106.788639 216.61197 
L 108.525654 261.291308 
L 110.262669 290.103725 
L 111.999684 207.565327 
L 113.736699 208.912006 
L 115.473714 191.883031 
L 117.210729 175.961808 
L 118.947744 246.651603 
L 120.684759 294.621617 
L 122.421774 200.354077 
L 124.158789 184.606619 
L 125.895804 197.443512 
L 129.369834 168.685397 
L 131.106849 234.846439 
L 132.843864 235.682684 
L 134.580879 196.075113 
L 136.317894 198.095131 
L 138.054909 180.740347 
L 139.791924 160.344674 
L 141.528939 171.737145 
L 143.265954 234.444608 
L 145.002969 269.403964 
L 146.739984 199.76762 
L 148.476999 190.710117 
L 150.214014 177.427951 
L 151.951029 175.190726 
L 153.688044 162.223509 
L 155.425059 270.826665 
L 157.162074 246.640742 
L 158.899089 198.681588 
L 160.636104 187.093632 
L 162.373119 184.107045 
L 164.110133 185.3234 
L 165.847148 197.215446 
L 167.584163 257.598801 
L 169.321178 285.064539 
L 171.058193 205.556168 
L 172.795208 182.391115 
L 174.532223 186.615778 
L 176.269238 173.898348 
L 178.006253 166.969467 
L 179.743268 230.882424 
L 181.480283 250.311529 
L 183.217298 278.016194 
L 184.954313 194.098535 
L 186.691328 176.874075 
L 188.428343 171.096387 
L 190.165358 130.489667 
L 191.902373 226.560019 
L 193.639388 258.435045 
L 195.376403 188.0602 
L 197.113418 182.282512 
L 198.850433 181.000995 
L 200.587448 163.97202 
L 202.324463 156.348078 
L 204.061478 224.246771 
L 205.798493 269.197618 
L 207.535508 199.811061 
L 209.272523 179.263344 
L 211.009538 175.158145 
L 212.746553 162.017163 
L 214.483568 159.617033 
L 216.220583 225.376244 
L 217.957598 267.21018 
L 219.694613 205.458425 
L 221.431628 174.006951 
L 223.168643 177.319348 
L 224.905658 173.105545 
L 226.642673 154.056551 
L 230.116703 238.701851 
L 231.853717 185.366841 
L 233.590732 162.158347 
L 235.327747 157.998846 
L 237.064762 157.662176 
L 238.801777 113.721339 
L 240.538792 189.124511 
L 242.275807 245.337504 
L 244.012822 175.66858 
L 245.749837 143.185376 
L 247.486852 164.992889 
L 249.223867 143.33742 
L 250.960882 266.102428 
L 252.697897 204.459276 
L 254.434912 252.385849 
L 256.171927 267.861799 
L 257.908942 191.220552 
L 259.645957 178.177312 
L 261.382972 252.798541 
L 263.119987 181.804658 
L 264.857002 249.084313 
L 266.594017 286.161431 
L 268.331032 206.001441 
L 270.068047 191.709266 
L 271.805062 187.332559 
L 273.542077 187.473743 
L 275.279092 169.228412 
L 277.016107 239.299169 
L 278.753122 275.12735 
L 280.490137 205.306381 
L 282.227152 192.078516 
L 283.964167 199.09428 
L 285.701182 190.47119 
L 287.438197 189.808711 
L 289.175212 233.108789 
L 290.912227 279.482337 
L 292.649242 214.537649 
L 294.386257 190.047637 
L 296.123272 196.390062 
L 297.860287 184.96501 
L 299.597301 166.252686 
L 301.334316 233.619224 
L 303.071331 267.166739 
L 304.808346 207.521885 
L 306.545361 188.885584 
L 308.282376 182.651763 
L 310.019391 178.166452 
L 311.756406 171.88919 
L 313.493421 234.422887 
L 315.230436 271.782373 
L 316.967451 218.990379 
L 318.704466 201.179461 
L 320.441481 205.523587 
L 322.178496 188.7444 
L 323.915511 182.760366 
L 325.652526 231.121351 
L 327.389541 269.099875 
L 329.126556 219.533394 
L 330.863571 191.676685 
L 332.600586 188.874723 
L 334.337601 174.940938 
L 336.074616 157.575294 
L 337.811631 225.376244 
L 339.548646 244.870511 
L 341.285661 278.428886 
L 343.022676 199.691598 
L 344.759691 213.88603 
L 346.496706 182.076166 
L 348.233721 176.113853 
L 349.970736 231.914154 
L 351.707751 271.934417 
L 353.444766 199.800201 
L 355.181781 201.005696 
L 356.918796 198.583846 
L 358.655811 190.199682 
L 360.392826 165.253537 
L 362.129841 237.366033 
L 363.866856 270.761503 
L 365.603871 206.272949 
L 367.340886 189.569784 
L 369.0779 190.710117 
L 370.814915 173.398774 
L 372.55193 161.094036 
L 374.288945 249.605608 
L 376.02596 261.03066 
L 377.762975 194.902199 
L 379.49999 190.12366 
L 381.237005 182.358534 
L 382.97402 173.225009 
L 384.711035 145.248835 
L 386.44805 208.36899 
L 388.185065 264.755749 
L 389.92208 191.350875 
L 391.659095 176.895795 
L 393.39611 179.415388 
L 395.133125 173.724583 
L 396.87014 158.726487 
L 398.607155 228.167345 
L 400.34417 275.105629 
L 402.081185 196.552967 
L 403.8182 188.331708 
L 405.555215 195.162846 
L 407.29223 173.996091 
L 409.029245 155.902805 
L 410.76626 224.029565 
L 412.503275 266.840929 
L 414.24029 206.490155 
L 415.977305 192.339164 
L 417.71432 185.421143 
L 419.451335 177.460532 
L 421.18835 173.018663 
L 422.925365 211.192672 
L 424.66238 257.91375 
L 426.399395 199.713318 
L 428.13641 193.468637 
L 429.873425 194.522088 
L 431.61044 182.782086 
L 433.347455 164.938588 
L 435.08447 227.743793 
L 436.821484 265.961244 
L 438.558499 200.853652 
L 440.295514 195.65156 
L 442.032529 193.783586 
L 443.769544 192.730135 
L 445.506559 185.486305 
L 447.243574 230.708659 
L 448.980589 259.249569 
L 450.717604 197.36749 
L 452.454619 198.410081 
L 454.191634 190.775279 
L 455.928649 180.186471 
L 457.665664 168.696257 
L 459.402679 201.559572 
L 461.139694 261.399911 
L 462.876709 202.135169 
L 464.613724 199.691598 
L 466.350739 195.955649 
L 468.087754 168.696257 
L 469.824769 130.837197 
L 471.561784 204.404975 
L 473.298799 261.258727 
L 475.035814 195.28231 
L 476.772829 188.559774 
L 478.509844 202.917111 
L 480.246859 171.128968 
L 481.983874 150.602971 
L 483.720889 223.421387 
L 485.457904 272.770662 
L 487.194919 204.958851 
L 488.931934 183.292521 
L 490.668949 180.686045 
L 492.405964 173.301031 
L 494.142979 164.732242 
L 495.879994 231.056189 
L 497.617009 266.819209 
L 499.354024 211.225253 
L 501.091039 187.234816 
L 502.828054 181.750356 
L 504.565068 177.004398 
L 506.302083 159.931982 
L 508.039098 230.773821 
L 509.776113 277.266832 
L 511.513128 200.929674 
L 513.250143 190.112799 
L 514.987158 181.782937 
L 516.724173 179.198182 
L 518.461188 115.426409 
L 520.198203 231.946735 
L 521.935218 262.06239 
L 523.672233 194.283161 
L 525.409248 179.556573 
L 527.146263 168.967765 
L 528.883278 131.706022 
L 530.620293 240.135413 
L 532.357308 243.024257 
L 534.094323 265.754898 
L 535.831338 195.771024 
L 539.305368 160.149189 
L 541.042383 154.295478 
L 542.779398 159.410687 
L 544.516413 203.633892 
L 546.253428 255.622223 
L 547.990443 173.539958 
L 549.727458 176.320199 
L 551.464473 181.305083 
L 553.201488 171.107247 
L 554.938503 135.127021 
L 556.675518 206.577038 
L 558.412533 255.83943 
L 560.149548 192.860459 
L 561.886563 194.446065 
L 563.623578 185.931578 
L 565.360593 187.061051 
L 567.097608 162.082325 
L 568.834623 231.78383 
L 570.571638 266.927812 
L 572.308652 195.99909 
L 574.045667 185.258238 
L 575.782682 152.394923 
L 577.519697 176.602567 
L 579.256712 166.665378 
L 580.993727 240.276597 
L 582.730742 263.246165 
L 584.467757 183.053594 
L 586.204772 169.271854 
L 587.941787 174.973519 
L 589.678802 173.301031 
L 591.415817 168.12066 
L 593.152832 253.884573 
L 594.889847 264.625425 
L 596.626862 184.26995 
L 598.363877 285.477231 
L 600.100892 174.31104 
L 601.837907 188.299127 
L 603.574922 167.110651 
L 605.311937 223.095578 
L 607.048952 254.927163 
L 608.785967 178.155592 
L 610.522982 180.816369 
L 612.259997 171.595961 
L 615.734027 134.974977 
L 617.471042 203.286362 
L 619.208057 247.075155 
L 620.945072 168.435609 
L 622.682087 157.933684 
L 624.419102 169.195831 
L 626.156117 186.029321 
L 627.893132 127.51394 
L 629.630147 189.634945 
L 631.367162 245.706755 
L 633.104177 155.077421 
L 634.841192 145.466042 
L 636.578207 133.02012 
L 638.315222 114.286076 
L 640.052236 79.587367 
L 641.789251 157.966265 
L 643.526266 216.003792 
L 645.263281 155.066561 
L 647.000296 142.012461 
L 648.737311 137.255643 
L 650.474326 108.888499 
L 652.211341 105.891052 
L 653.948356 164.547616 
L 655.685371 206.359832 
L 657.422386 156.532703 
L 659.159401 136.46284 
L 660.896416 128.752016 
L 662.633431 111.266908 
L 664.370446 96.431717 
L 666.107461 150.657273 
L 667.844476 184.845546 
L 669.581491 100.265408 
L 671.318506 96.138488 
L 673.055521 132.67259 
L 674.792536 74.385276 
L 676.529551 164.580197 
L 678.266566 154.186875 
L 680.003581 156.587005 
L 681.740596 55.672952 
L 683.477611 124.76628 
L 685.214626 292.036862 
L 686.951641 147.670686 
L 688.688656 166.263546 
L 690.425671 209.226955 
L 692.162686 228.037022 
L 693.899701 226.038723 
L 695.636716 178.991836 
L 695.636716 178.991836 
" clip-path="url(#p032aba7984)" style="fill: none; stroke: #0d6efc; stroke-opacity: 0.8; stroke-width: 2.5; stroke-linecap: square"/>
   </g>
   <g id="line2d_42">
    <path d="M 63.363265 282.436343 
L 65.10028 239.407772 
L 66.837295 247.857098 
L 68.57431 278.298562 
L 70.311325 306.209573 
L 72.04834 293.166334 
L 73.785355 235.21569 
L 75.52237 235.802147 
L 77.259385 238.734432 
L 78.9964 235.356874 
L 80.733415 257.729124 
L 82.47043 300.681673 
L 84.207445 238.104534 
L 85.94446 226.657761 
L 87.681475 225.397965 
L 89.41849 205.480146 
L 91.155505 209.617926 
L 92.89252 235.020204 
L 94.629535 276.365426 
L 96.366549 233.119649 
L 98.103564 220.499962 
L 99.840579 217.111544 
L 101.577594 212.952043 
L 103.314609 218.099833 
L 105.051624 232.663516 
L 106.788639 259.846886 
L 108.525654 312.812645 
L 110.262669 234.618373 
L 111.999684 240.091972 
L 113.736699 235.802147 
L 115.473714 234.737836 
L 117.210729 257.772566 
L 118.947744 303.081803 
L 120.684759 265.027257 
L 122.421774 249.095174 
L 124.158789 221.509972 
L 125.895804 228.558317 
L 127.632819 216.742293 
L 129.369834 228.884126 
L 131.106849 276.593493 
L 132.843864 246.597301 
L 134.580879 229.253377 
L 136.317894 228.417133 
L 138.054909 226.299371 
L 139.791924 213.332154 
L 141.528939 243.078559 
L 143.265954 277.52748 
L 145.002969 238.756153 
L 146.739984 222.563422 
L 148.476999 231.121351 
L 150.214014 219.283607 
L 151.951029 219.772321 
L 153.688044 241.677578 
L 155.425059 277.136509 
L 157.162074 231.914154 
L 158.899089 217.774023 
L 160.636104 222.791489 
L 162.373119 208.282107 
L 165.847148 217.882626 
L 167.584163 272.173344 
L 169.321178 241.840483 
L 171.058193 225.57173 
L 172.795208 232.869862 
L 174.532223 217.839185 
L 176.269238 223.247622 
L 178.006253 238.810455 
L 179.743268 267.21018 
L 181.480283 287.605853 
L 183.217298 233.716967 
L 184.954313 215.721424 
L 186.691328 195.29317 
L 188.428343 208.694799 
L 190.165358 241.471232 
L 191.902373 311.140157 
L 193.639388 214.689694 
L 195.376403 226.96185 
L 197.113418 224.257632 
L 198.850433 243.654155 
L 200.587448 231.175653 
L 202.324463 234.87902 
L 204.061478 269.479986 
L 205.798493 251.799392 
L 207.535508 236.964201 
L 211.009538 220.608566 
L 212.746553 214.353024 
L 214.483568 219.652858 
L 216.220583 266.297914 
L 219.694613 232.305126 
L 221.431628 231.903294 
L 223.168643 229.394561 
L 224.905658 222.335356 
L 226.642673 220.988677 
L 228.379688 261.921206 
L 230.116703 237.181407 
L 231.853717 218.675429 
L 233.590732 217.231007 
L 235.327747 210.76912 
L 237.064762 205.414984 
L 238.801777 217.350471 
L 240.538792 253.070049 
L 244.012822 207.663069 
L 245.749837 197.638998 
L 247.486852 195.423494 
L 249.223867 276.16994 
L 250.960882 215.971211 
L 252.697897 263.41993 
L 254.434912 279.199968 
L 256.171927 241.797041 
L 257.908942 236.084515 
L 259.645957 219.913505 
L 261.382972 256.577931 
L 263.119987 226.820666 
L 264.857002 277.896731 
L 266.594017 258.891178 
L 268.331032 259.184407 
L 270.068047 247.303221 
L 271.805062 241.905645 
L 273.542077 242.122851 
L 275.279092 248.877967 
L 277.016107 290.798786 
L 278.753122 258.61967 
L 280.490137 249.64905 
L 282.227152 253.406719 
L 283.964167 234.564071 
L 285.701182 234.194821 
L 287.438197 230.133062 
L 289.175212 280.231698 
L 290.912227 264.028108 
L 292.649242 249.008291 
L 294.386257 250.441853 
L 296.123272 239.179705 
L 297.860287 234.596652 
L 299.597301 272.510014 
L 301.334316 281.893327 
L 303.071331 267.56857 
L 304.808346 251.73423 
L 306.545361 248.693342 
L 308.282376 240.971657 
L 310.019391 243.697597 
L 311.756406 232.750399 
L 313.493421 276.321985 
L 315.230436 266.906091 
L 316.967451 271.380541 
L 318.704466 261.258727 
L 320.441481 244.121149 
L 322.178496 241.74274 
L 323.915511 256.393306 
L 327.389541 335.380381 
L 329.126556 279.449756 
L 330.863571 258.109236 
L 332.600586 250.33325 
L 334.337601 258.587089 
L 336.074616 375.465806 
L 337.811631 269.773215 
L 339.548646 305.938066 
L 341.285661 258.554508 
L 343.022676 259.455915 
L 344.759691 240.928216 
L 346.496706 238.734432 
L 348.233721 257.870309 
L 349.970736 381.981996 
L 351.707751 278.537489 
L 355.181781 248.921409 
L 356.918796 248.98657 
L 358.655811 375.639571 
L 360.392826 258.174397 
L 362.129841 293.296658 
L 363.866856 270.587738 
L 365.603871 261.932067 
L 367.340886 282.968498 
L 369.0779 247.075155 
L 370.814915 240.634988 
L 372.55193 244.349216 
L 374.288945 294.817102 
L 376.02596 381.276075 
L 377.762975 264.951234 
L 379.49999 306.578824 
L 381.237005 378.658739 
L 382.97402 235.856449 
L 384.711035 243.990825 
L 386.44805 267.19932 
L 388.185065 244.577282 
L 389.92208 241.764461 
L 391.659095 232.859002 
L 393.39611 235.150528 
L 395.133125 222.400518 
L 396.87014 226.918409 
L 398.607155 273.867554 
L 400.34417 242.481241 
L 402.081185 236.334303 
L 403.8182 231.468881 
L 405.555215 228.916707 
L 407.29223 225.169898 
L 409.029245 248.812805 
L 410.76626 281.458914 
L 412.503275 264.658006 
L 414.24029 278.776416 
L 415.977305 251.71251 
L 417.71432 227.341961 
L 419.451335 227.667771 
L 421.18835 225.886679 
L 422.925365 275.46402 
L 424.66238 265.581133 
L 426.399395 254.82942 
L 428.13641 248.486996 
L 429.873425 243.415228 
L 431.61044 235.5415 
L 433.347455 239.310029 
L 435.08447 277.570921 
L 436.821484 264.017247 
L 438.558499 380.874243 
L 440.295514 252.483592 
L 442.032529 237.691842 
L 443.769544 233.814709 
L 445.506559 226.223349 
L 447.243574 270.967849 
L 448.980589 256.360725 
L 450.717604 269.327942 
L 452.454619 243.230603 
L 454.191634 237.442055 
L 455.928649 253.645646 
L 457.665664 240.091972 
L 459.402679 280.264279 
L 461.139694 259.857746 
L 462.876709 250.919707 
L 464.613724 243.002536 
L 466.350739 217.198427 
L 468.087754 210.584494 
L 469.824769 208.673079 
L 471.561784 246.56472 
L 473.298799 242.665867 
L 475.035814 257.816007 
L 476.772829 240.298318 
L 478.509844 233.380297 
L 481.983874 249.844535 
L 483.720889 272.086462 
L 485.457904 256.53449 
L 487.194919 247.95484 
L 488.931934 237.27915 
L 490.668949 229.752951 
L 492.405964 224.116448 
L 494.142979 236.041074 
L 495.879994 291.591589 
L 497.617009 252.255525 
L 499.354024 248.606459 
L 501.091039 245.913101 
L 502.828054 232.066199 
L 504.565068 233.173951 
L 506.302083 242.731029 
L 508.039098 282.566666 
L 509.776113 255.090068 
L 511.513128 251.538745 
L 513.250143 235.302573 
L 514.987158 230.621777 
L 516.724173 224.952692 
L 518.461188 232.630935 
L 520.198203 277.071347 
L 521.935218 252.103481 
L 523.672233 230.165643 
L 525.409248 231.675227 
L 527.146263 199.876223 
L 528.883278 252.146922 
L 530.620293 250.713361 
L 532.357308 273.520023 
L 534.094323 237.322591 
L 535.831338 227.754653 
L 537.568353 212.115799 
L 539.305368 217.372192 
L 541.042383 198.616427 
L 542.779398 217.274449 
L 544.516413 269.588589 
L 546.253428 243.882222 
L 547.990443 231.588345 
L 549.727458 229.742091 
L 551.464473 213.560221 
L 554.938503 226.896688 
L 556.675518 267.047275 
L 558.412533 243.599854 
L 560.149548 236.551509 
L 561.886563 238.223998 
L 563.623578 241.123702 
L 565.360593 230.795542 
L 567.097608 231.794691 
L 568.834623 270.500856 
L 570.571638 259.434194 
L 572.308652 232.348567 
L 574.045667 263.919504 
L 575.782682 225.854098 
L 577.519697 215.547659 
L 579.256712 233.630084 
L 580.993727 304.428482 
L 582.730742 249.67077 
L 584.467757 226.190768 
L 586.204772 226.103885 
L 587.941787 216.850896 
L 589.678802 214.591951 
L 591.415817 222.302775 
L 593.152832 257.978912 
L 594.889847 277.777267 
L 596.626862 284.988517 
L 598.363877 221.944384 
L 600.100892 224.616022 
L 601.837907 233.543202 
L 603.574922 297.543042 
L 605.311937 264.245314 
L 607.048952 246.521279 
L 608.785967 241.547254 
L 610.522982 203.318943 
L 612.259997 205.556168 
L 613.997012 203.264642 
L 615.734027 220.76061 
L 617.471042 267.753196 
L 619.208057 239.516375 
L 620.945072 216.188417 
L 622.682087 213.114948 
L 624.419102 211.192672 
L 626.156117 205.28466 
L 627.893132 221.585994 
L 629.630147 264.180152 
L 631.367162 229.861555 
L 633.104177 217.589398 
L 634.841192 222.758908 
L 636.578207 200.071709 
L 638.315222 204.491857 
L 640.052236 220.337058 
L 641.789251 254.058338 
L 643.526266 237.60496 
L 645.263281 213.125808 
L 647.000296 202.504419 
L 648.737311 202.428397 
L 650.474326 179.936684 
L 652.211341 215.688843 
L 653.948356 228.199926 
L 655.685371 219.403071 
L 657.422386 207.847695 
L 659.159401 197.161144 
L 660.896416 190.264844 
L 662.633431 186.746102 
L 664.370446 190.112799 
L 666.107461 223.443108 
L 667.844476 214.972062 
L 669.581491 195.130265 
L 671.318506 194.858757 
L 673.055521 206.034022 
L 674.792536 186.159644 
L 676.529551 175.67944 
L 678.266566 258.065794 
L 680.003581 150.450927 
L 681.740596 151.384914 
L 683.477611 206.97887 
L 685.214626 304.830313 
L 686.951641 218.219296 
L 688.688656 209.009749 
L 690.425671 225.973562 
L 692.162686 231.219094 
L 693.899701 230.285107 
L 695.636716 210.801701 
L 695.636716 210.801701 
" clip-path="url(#p032aba7984)" style="fill: none; stroke: #83c966; stroke-opacity: 0.8; stroke-width: 2.5; stroke-linecap: square"/>
   </g>
   <g id="patch_3">
    <path d="M 61.62625 384.1975 
L 61.62625 39.3575 
" style="fill: none; stroke: #000000; stroke-width: 0.8; stroke-linejoin: miter; stroke-linecap: square"/>
   </g>
   <g id="patch_4">
    <path d="M 61.62625 384.1975 
L 704.321791 384.1975 
" style="fill: none; stroke: #000000; stroke-width: 0.8; stroke-linejoin: miter; stroke-linecap: square"/>
   </g>
   <g id="text_23">
    <!-- Pedestrian Traffic at Collins Street (North) -->
    <g transform="translate(216.51777 19.3575) scale(0.16 -0.16)">
     <defs>
      <path id="DejaVuSans-50" d="M 1259 4147 
L 1259 2394 
L 2053 2394 
Q 2494 2394 2734 2622 
Q 2975 2850 2975 3272 
Q 2975 3691 2734 3919 
Q 2494 4147 2053 4147 
L 1259 4147 
z
M 628 4666 
L 2053 4666 
Q 2838 4666 3239 4311 
Q 3641 3956 3641 3272 
Q 3641 2581 3239 2228 
Q 2838 1875 2053 1875 
L 1259 1875 
L 1259 0 
L 628 0 
L 628 4666 
z
" transform="scale(0.015625)"/>
      <path id="DejaVuSans-54" d="M -19 4666 
L 3928 4666 
L 3928 4134 
L 2272 4134 
L 2272 0 
L 1638 0 
L 1638 4134 
L -19 4134 
L -19 4666 
z
" transform="scale(0.015625)"/>
      <path id="DejaVuSans-43" d="M 4122 4306 
L 4122 3641 
Q 3803 3938 3442 4084 
Q 3081 4231 2675 4231 
Q 1875 4231 1450 3742 
Q 1025 3253 1025 2328 
Q 1025 1406 1450 917 
Q 1875 428 2675 428 
Q 3081 428 3442 575 
Q 3803 722 4122 1019 
L 4122 359 
Q 3791 134 3420 21 
Q 3050 -91 2638 -91 
Q 1578 -91 968 557 
Q 359 1206 359 2328 
Q 359 3453 968 4101 
Q 1578 4750 2638 4750 
Q 3056 4750 3426 4639 
Q 3797 4528 4122 4306 
z
" transform="scale(0.015625)"/>
      <path id="DejaVuSans-28" d="M 1984 4856 
Q 1566 4138 1362 3434 
Q 1159 2731 1159 2009 
Q 1159 1288 1364 580 
Q 1569 -128 1984 -844 
L 1484 -844 
Q 1016 -109 783 600 
Q 550 1309 550 2009 
Q 550 2706 781 3412 
Q 1013 4119 1484 4856 
L 1984 4856 
z
" transform="scale(0.015625)"/>
      <path id="DejaVuSans-29" d="M 513 4856 
L 1013 4856 
Q 1481 4119 1714 3412 
Q 1947 2706 1947 2009 
Q 1947 1309 1714 600 
Q 1481 -109 1013 -844 
L 513 -844 
Q 928 -128 1133 580 
Q 1338 1288 1338 2009 
Q 1338 2731 1133 3434 
Q 928 4138 513 4856 
z
" transform="scale(0.015625)"/>
     </defs>
     <use xlink:href="#DejaVuSans-50"/>
     <use xlink:href="#DejaVuSans-65" transform="translate(56.677734 0)"/>
     <use xlink:href="#DejaVuSans-64" transform="translate(118.201172 0)"/>
     <use xlink:href="#DejaVuSans-65" transform="translate(181.677734 0)"/>
     <use xlink:href="#DejaVuSans-73" transform="translate(243.201172 0)"/>
     <use xlink:href="#DejaVuSans-74" transform="translate(295.300781 0)"/>
     <use xlink:href="#DejaVuSans-72" transform="translate(334.509766 0)"/>
     <use xlink:href="#DejaVuSans-69" transform="translate(375.623047 0)"/>
     <use xlink:href="#DejaVuSans-61" transform="translate(403.40625 0)"/>
     <use xlink:href="#DejaVuSans-6e" transform="translate(464.685547 0)"/>
     <use xlink:href="#DejaVuSans-20" transform="translate(528.064453 0)"/>
     <use xlink:href="#DejaVuSans-54" transform="translate(559.851562 0)"/>
     <use xlink:href="#DejaVuSans-72" transform="translate(606.185547 0)"/>
     <use xlink:href="#DejaVuSans-61" transform="translate(647.298828 0)"/>
     <use xlink:href="#DejaVuSans-66" transform="translate(708.578125 0)"/>
     <use xlink:href="#DejaVuSans-66" transform="translate(743.783203 0)"/>
     <use xlink:href="#DejaVuSans-69" transform="translate(778.988281 0)"/>
     <use xlink:href="#DejaVuSans-63" transform="translate(806.771484 0)"/>
     <use xlink:href="#DejaVuSans-20" transform="translate(861.751953 0)"/>
     <use xlink:href="#DejaVuSans-61" transform="translate(893.539062 0)"/>
     <use xlink:href="#DejaVuSans-74" transform="translate(954.818359 0)"/>
     <use xlink:href="#DejaVuSans-20" transform="translate(994.027344 0)"/>
     <use xlink:href="#DejaVuSans-43" transform="translate(1025.814453 0)"/>
     <use xlink:href="#DejaVuSans-6f" transform="translate(1095.638672 0)"/>
     <use xlink:href="#DejaVuSans-6c" transform="translate(1156.820312 0)"/>
     <use xlink:href="#DejaVuSans-6c" transform="translate(1184.603516 0)"/>
     <use xlink:href="#DejaVuSans-69" transform="translate(1212.386719 0)"/>
     <use xlink:href="#DejaVuSans-6e" transform="translate(1240.169922 0)"/>
     <use xlink:href="#DejaVuSans-73" transform="translate(1303.548828 0)"/>
     <use xlink:href="#DejaVuSans-20" transform="translate(1355.648438 0)"/>
     <use xlink:href="#DejaVuSans-53" transform="translate(1387.435547 0)"/>
     <use xlink:href="#DejaVuSans-74" transform="translate(1450.912109 0)"/>
     <use xlink:href="#DejaVuSans-72" transform="translate(1490.121094 0)"/>
     <use xlink:href="#DejaVuSans-65" transform="translate(1528.984375 0)"/>
     <use xlink:href="#DejaVuSans-65" transform="translate(1590.507812 0)"/>
     <use xlink:href="#DejaVuSans-74" transform="translate(1652.03125 0)"/>
     <use xlink:href="#DejaVuSans-20" transform="translate(1691.240234 0)"/>
     <use xlink:href="#DejaVuSans-28" transform="translate(1723.027344 0)"/>
     <use xlink:href="#DejaVuSans-4e" transform="translate(1762.041016 0)"/>
     <use xlink:href="#DejaVuSans-6f" transform="translate(1836.845703 0)"/>
     <use xlink:href="#DejaVuSans-72" transform="translate(1898.027344 0)"/>
     <use xlink:href="#DejaVuSans-74" transform="translate(1939.140625 0)"/>
     <use xlink:href="#DejaVuSans-68" transform="translate(1978.349609 0)"/>
     <use xlink:href="#DejaVuSans-29" transform="translate(2041.728516 0)"/>
    </g>
   </g>
   <g id="legend_1">
    <g id="patch_5">
     <path d="M 69.32625 80.449375 
L 132.52125 80.449375 
Q 134.72125 80.449375 134.72125 78.249375 
L 134.72125 47.0575 
Q 134.72125 44.8575 132.52125 44.8575 
L 69.32625 44.8575 
Q 67.12625 44.8575 67.12625 47.0575 
L 67.12625 78.249375 
Q 67.12625 80.449375 69.32625 80.449375 
z
" style="fill: #ffffff; opacity: 0.95; stroke: #cccccc; stroke-linejoin: miter"/>
    </g>
    <g id="line2d_43">
     <path d="M 71.52625 53.765781 
L 82.52625 53.765781 
L 93.52625 53.765781 
" style="fill: none; stroke: #0d6efc; stroke-opacity: 0.8; stroke-width: 2.5; stroke-linecap: square"/>
    </g>
    <g id="text_24">
     <!-- 2019 -->
     <g transform="translate(102.32625 57.615781) scale(0.11 -0.11)">
      <defs>
       <path id="DejaVuSans-39" d="M 703 97 
L 703 672 
Q 941 559 1184 500 
Q 1428 441 1663 441 
Q 2288 441 2617 861 
Q 2947 1281 2994 2138 
Q 2813 1869 2534 1725 
Q 2256 1581 1919 1581 
Q 1219 1581 811 2004 
Q 403 2428 403 3163 
Q 403 3881 828 4315 
Q 1253 4750 1959 4750 
Q 2769 4750 3195 4129 
Q 3622 3509 3622 2328 
Q 3622 1225 3098 567 
Q 2575 -91 1691 -91 
Q 1453 -91 1209 -44 
Q 966 3 703 97 
z
M 1959 2075 
Q 2384 2075 2632 2365 
Q 2881 2656 2881 3163 
Q 2881 3666 2632 3958 
Q 2384 4250 1959 4250 
Q 1534 4250 1286 3958 
Q 1038 3666 1038 3163 
Q 1038 2656 1286 2365 
Q 1534 2075 1959 2075 
z
" transform="scale(0.015625)"/>
      </defs>
      <use xlink:href="#DejaVuSans-32"/>
      <use xlink:href="#DejaVuSans-30" transform="translate(63.623047 0)"/>
      <use xlink:href="#DejaVuSans-31" transform="translate(127.246094 0)"/>
      <use xlink:href="#DejaVuSans-39" transform="translate(190.869141 0)"/>
     </g>
    </g>
    <g id="line2d_44">
     <path d="M 71.52625 69.911719 
L 82.52625 69.911719 
L 93.52625 69.911719 
" style="fill: none; stroke: #83c966; stroke-opacity: 0.8; stroke-width: 2.5; stroke-linecap: square"/>
    </g>
    <g id="text_25">
     <!-- 2025 -->
     <g transform="translate(102.32625 73.761719) scale(0.11 -0.11)">
      <use xlink:href="#DejaVuSans-32"/>
      <use xlink:href="#DejaVuSans-30" transform="translate(63.623047 0)"/>
      <use xlink:href="#DejaVuSans-32" transform="translate(127.246094 0)"/>
      <use xlink:href="#DejaVuSans-35" transform="translate(190.869141 0)"/>
     </g>
    </g>
   </g>
  </g>
 </g>
 <defs>
  <clipPath id="p032aba7984">
   <rect x="61.62625" y="39.3575" width="642.695541" height="344.84"/>
  </clipPath>
 </defs>
</svg>
