<?xml version="1.0" encoding="utf-8" standalone="no"?>
<!DOCTYPE svg PUBLIC "-//W3C//DTD SVG 1.1//EN"
  "http://www.w3.org/Graphics/SVG/1.1/DTD/svg11.dtd">
<svg xmlns:xlink="http://www.w3.org/1999/xlink" width="711.521791pt" height="423.689375pt" viewBox="0 0 711.521791 423.689375" xmlns="http://www.w3.org/2000/svg" version="1.1">
 <metadata>
  <rdf:RDF xmlns:dc="http://purl.org/dc/elements/1.1/" xmlns:cc="http://creativecommons.org/ns#" xmlns:rdf="http://www.w3.org/1999/02/22-rdf-syntax-ns#">
   <cc:Work>
    <dc:type rdf:resource="http://purl.org/dc/dcmitype/StillImage"/>
    <dc:date>2026-01-28T17:49:47.030450</dc:date>
    <dc:format>image/svg+xml</dc:format>
    <dc:creator>
     <cc:Agent>
      <dc:title>Matplotlib v3.10.8, https://matplotlib.org/</dc:title>
     </cc:Agent>
    </dc:creator>
   </cc:Work>
  </rdf:RDF>
 </metadata>
 <defs>
  <style type="text/css">*{stroke-linejoin: round; stroke-linecap: butt}</style>
 </defs>
 <g id="figure_1">
  <g id="patch_1">
   <path d="M 0 423.689375 
L 711.521791 423.689375 
L 711.521791 0 
L 0 0 
L 0 423.689375 
z
" style="fill: none"/>
  </g>
  <g id="axes_1">
   <g id="patch_2">
    <path d="M 61.62625 384.1975 
L 704.321791 384.1975 
L 704.321791 39.3575 
L 61.62625 39.3575 
L 61.62625 384.1975 
z
" style="fill: none"/>
   </g>
   <g id="matplotlib.axis_1">
    <g id="xtick_1">
     <g id="line2d_1">
      <path d="M 61.62625 384.1975 
L 61.62625 39.3575 
" clip-path="url(#p4c175c0889)" style="fill: none; stroke-dasharray: 2.96,1.28; stroke-dashoffset: 0; stroke: #b0b0b0; stroke-opacity: 0.3; stroke-width: 0.8"/>
     </g>
     <g id="line2d_2">
      <defs>
       <path id="mf6d2d9f7a8" d="M 0 0 
L 0 3.5 
" style="stroke: #000000; stroke-width: 0.8"/>
      </defs>
      <g>
       <use xlink:href="#mf6d2d9f7a8" x="61.62625" y="384.1975" style="stroke: #000000; stroke-width: 0.8"/>
      </g>
     </g>
     <g id="text_1">
      <!-- Jan -->
      <g transform="translate(53.918438 398.795937) scale(0.1 -0.1)">
       <defs>
        <path id="DejaVuSans-4a" d="M 628 4666 
L 1259 4666 
L 1259 325 
Q 1259 -519 939 -900 
Q 619 -1281 -91 -1281 
L -331 -1281 
L -331 -750 
L -134 -750 
Q 284 -750 456 -515 
Q 628 -281 628 325 
L 628 4666 
z
" transform="scale(0.015625)"/>
        <path id="DejaVuSans-61" d="M 2194 1759 
Q 1497 1759 1228 1600 
Q 959 1441 959 1056 
Q 959 750 1161 570 
Q 1363 391 1709 391 
Q 2188 391 2477 730 
Q 2766 1069 2766 1631 
L 2766 1759 
L 2194 1759 
z
M 3341 1997 
L 3341 0 
L 2766 0 
L 2766 531 
Q 2569 213 2275 61 
Q 1981 -91 1556 -91 
Q 1019 -91 701 211 
Q 384 513 384 1019 
Q 384 1609 779 1909 
Q 1175 2209 1959 2209 
L 2766 2209 
L 2766 2266 
Q 2766 2663 2505 2880 
Q 2244 3097 1772 3097 
Q 1472 3097 1187 3025 
Q 903 2953 641 2809 
L 641 3341 
Q 956 3463 1253 3523 
Q 1550 3584 1831 3584 
Q 2591 3584 2966 3190 
Q 3341 2797 3341 1997 
z
" transform="scale(0.015625)"/>
        <path id="DejaVuSans-6e" d="M 3513 2113 
L 3513 0 
L 2938 0 
L 2938 2094 
Q 2938 2591 2744 2837 
Q 2550 3084 2163 3084 
Q 1697 3084 1428 2787 
Q 1159 2491 1159 1978 
L 1159 0 
L 581 0 
L 581 3500 
L 1159 3500 
L 1159 2956 
Q 1366 3272 1645 3428 
Q 1925 3584 2291 3584 
Q 2894 3584 3203 3211 
Q 3513 2838 3513 2113 
z
" transform="scale(0.015625)"/>
       </defs>
       <use xlink:href="#DejaVuSans-4a"/>
       <use xlink:href="#DejaVuSans-61" transform="translate(29.492188 0)"/>
       <use xlink:href="#DejaVuSans-6e" transform="translate(90.771484 0)"/>
      </g>
     </g>
    </g>
    <g id="xtick_2">
     <g id="line2d_3">
      <path d="M 115.473714 384.1975 
L 115.473714 39.3575 
" clip-path="url(#p4c175c0889)" style="fill: none; stroke-dasharray: 2.96,1.28; stroke-dashoffset: 0; stroke: #b0b0b0; stroke-opacity: 0.3; stroke-width: 0.8"/>
     </g>
     <g id="line2d_4">
      <g>
       <use xlink:href="#mf6d2d9f7a8" x="115.473714" y="384.1975" style="stroke: #000000; stroke-width: 0.8"/>
      </g>
     </g>
     <g id="text_2">
      <!-- Feb -->
      <g transform="translate(106.622152 398.795937) scale(0.1 -0.1)">
       <defs>
        <path id="DejaVuSans-46" d="M 628 4666 
L 3309 4666 
L 3309 4134 
L 1259 4134 
L 1259 2759 
L 3109 2759 
L 3109 2228 
L 1259 2228 
L 1259 0 
L 628 0 
L 628 4666 
z
" transform="scale(0.015625)"/>
        <path id="DejaVuSans-65" d="M 3597 1894 
L 3597 1613 
L 953 1613 
Q 991 1019 1311 708 
Q 1631 397 2203 397 
Q 2534 397 2845 478 
Q 3156 559 3463 722 
L 3463 178 
Q 3153 47 2828 -22 
Q 2503 -91 2169 -91 
Q 1331 -91 842 396 
Q 353 884 353 1716 
Q 353 2575 817 3079 
Q 1281 3584 2069 3584 
Q 2775 3584 3186 3129 
Q 3597 2675 3597 1894 
z
M 3022 2063 
Q 3016 2534 2758 2815 
Q 2500 3097 2075 3097 
Q 1594 3097 1305 2825 
Q 1016 2553 972 2059 
L 3022 2063 
z
" transform="scale(0.015625)"/>
        <path id="DejaVuSans-62" d="M 3116 1747 
Q 3116 2381 2855 2742 
Q 2594 3103 2138 3103 
Q 1681 3103 1420 2742 
Q 1159 2381 1159 1747 
Q 1159 1113 1420 752 
Q 1681 391 2138 391 
Q 2594 391 2855 752 
Q 3116 1113 3116 1747 
z
M 1159 2969 
Q 1341 3281 1617 3432 
Q 1894 3584 2278 3584 
Q 2916 3584 3314 3078 
Q 3713 2572 3713 1747 
Q 3713 922 3314 415 
Q 2916 -91 2278 -91 
Q 1894 -91 1617 61 
Q 1341 213 1159 525 
L 1159 0 
L 581 0 
L 581 4863 
L 1159 4863 
L 1159 2969 
z
" transform="scale(0.015625)"/>
       </defs>
       <use xlink:href="#DejaVuSans-46"/>
       <use xlink:href="#DejaVuSans-65" transform="translate(52.019531 0)"/>
       <use xlink:href="#DejaVuSans-62" transform="translate(113.542969 0)"/>
      </g>
     </g>
    </g>
    <g id="xtick_3">
     <g id="line2d_5">
      <path d="M 164.110133 384.1975 
L 164.110133 39.3575 
" clip-path="url(#p4c175c0889)" style="fill: none; stroke-dasharray: 2.96,1.28; stroke-dashoffset: 0; stroke: #b0b0b0; stroke-opacity: 0.3; stroke-width: 0.8"/>
     </g>
     <g id="line2d_6">
      <g>
       <use xlink:href="#mf6d2d9f7a8" x="164.110133" y="384.1975" style="stroke: #000000; stroke-width: 0.8"/>
      </g>
     </g>
     <g id="text_3">
      <!-- Mar -->
      <g transform="translate(154.67654 398.795937) scale(0.1 -0.1)">
       <defs>
        <path id="DejaVuSans-4d" d="M 628 4666 
L 1569 4666 
L 2759 1491 
L 3956 4666 
L 4897 4666 
L 4897 0 
L 4281 0 
L 4281 4097 
L 3078 897 
L 2444 897 
L 1241 4097 
L 1241 0 
L 628 0 
L 628 4666 
z
" transform="scale(0.015625)"/>
        <path id="DejaVuSans-72" d="M 2631 2963 
Q 2534 3019 2420 3045 
Q 2306 3072 2169 3072 
Q 1681 3072 1420 2755 
Q 1159 2438 1159 1844 
L 1159 0 
L 581 0 
L 581 3500 
L 1159 3500 
L 1159 2956 
Q 1341 3275 1631 3429 
Q 1922 3584 2338 3584 
Q 2397 3584 2469 3576 
Q 2541 3569 2628 3553 
L 2631 2963 
z
" transform="scale(0.015625)"/>
       </defs>
       <use xlink:href="#DejaVuSans-4d"/>
       <use xlink:href="#DejaVuSans-61" transform="translate(86.279297 0)"/>
       <use xlink:href="#DejaVuSans-72" transform="translate(147.558594 0)"/>
      </g>
     </g>
    </g>
    <g id="xtick_4">
     <g id="line2d_7">
      <path d="M 217.957598 384.1975 
L 217.957598 39.3575 
" clip-path="url(#p4c175c0889)" style="fill: none; stroke-dasharray: 2.96,1.28; stroke-dashoffset: 0; stroke: #b0b0b0; stroke-opacity: 0.3; stroke-width: 0.8"/>
     </g>
     <g id="line2d_8">
      <g>
       <use xlink:href="#mf6d2d9f7a8" x="217.957598" y="384.1975" style="stroke: #000000; stroke-width: 0.8"/>
      </g>
     </g>
     <g id="text_4">
      <!-- Apr -->
      <g transform="translate(209.307598 398.795937) scale(0.1 -0.1)">
       <defs>
        <path id="DejaVuSans-41" d="M 2188 4044 
L 1331 1722 
L 3047 1722 
L 2188 4044 
z
M 1831 4666 
L 2547 4666 
L 4325 0 
L 3669 0 
L 3244 1197 
L 1141 1197 
L 716 0 
L 50 0 
L 1831 4666 
z
" transform="scale(0.015625)"/>
        <path id="DejaVuSans-70" d="M 1159 525 
L 1159 -1331 
L 581 -1331 
L 581 3500 
L 1159 3500 
L 1159 2969 
Q 1341 3281 1617 3432 
Q 1894 3584 2278 3584 
Q 2916 3584 3314 3078 
Q 3713 2572 3713 1747 
Q 3713 922 3314 415 
Q 2916 -91 2278 -91 
Q 1894 -91 1617 61 
Q 1341 213 1159 525 
z
M 3116 1747 
Q 3116 2381 2855 2742 
Q 2594 3103 2138 3103 
Q 1681 3103 1420 2742 
Q 1159 2381 1159 1747 
Q 1159 1113 1420 752 
Q 1681 391 2138 391 
Q 2594 391 2855 752 
Q 3116 1113 3116 1747 
z
" transform="scale(0.015625)"/>
       </defs>
       <use xlink:href="#DejaVuSans-41"/>
       <use xlink:href="#DejaVuSans-70" transform="translate(68.408203 0)"/>
       <use xlink:href="#DejaVuSans-72" transform="translate(131.884766 0)"/>
      </g>
     </g>
    </g>
    <g id="xtick_5">
     <g id="line2d_9">
      <path d="M 270.068047 384.1975 
L 270.068047 39.3575 
" clip-path="url(#p4c175c0889)" style="fill: none; stroke-dasharray: 2.96,1.28; stroke-dashoffset: 0; stroke: #b0b0b0; stroke-opacity: 0.3; stroke-width: 0.8"/>
     </g>
     <g id="line2d_10">
      <g>
       <use xlink:href="#mf6d2d9f7a8" x="270.068047" y="384.1975" style="stroke: #000000; stroke-width: 0.8"/>
      </g>
     </g>
     <g id="text_5">
      <!-- May -->
      <g transform="translate(259.730547 398.795937) scale(0.1 -0.1)">
       <defs>
        <path id="DejaVuSans-79" d="M 2059 -325 
Q 1816 -950 1584 -1140 
Q 1353 -1331 966 -1331 
L 506 -1331 
L 506 -850 
L 844 -850 
Q 1081 -850 1212 -737 
Q 1344 -625 1503 -206 
L 1606 56 
L 191 3500 
L 800 3500 
L 1894 763 
L 2988 3500 
L 3597 3500 
L 2059 -325 
z
" transform="scale(0.015625)"/>
       </defs>
       <use xlink:href="#DejaVuSans-4d"/>
       <use xlink:href="#DejaVuSans-61" transform="translate(86.279297 0)"/>
       <use xlink:href="#DejaVuSans-79" transform="translate(147.558594 0)"/>
      </g>
     </g>
    </g>
    <g id="xtick_6">
     <g id="line2d_11">
      <path d="M 323.915511 384.1975 
L 323.915511 39.3575 
" clip-path="url(#p4c175c0889)" style="fill: none; stroke-dasharray: 2.96,1.28; stroke-dashoffset: 0; stroke: #b0b0b0; stroke-opacity: 0.3; stroke-width: 0.8"/>
     </g>
     <g id="line2d_12">
      <g>
       <use xlink:href="#mf6d2d9f7a8" x="323.915511" y="384.1975" style="stroke: #000000; stroke-width: 0.8"/>
      </g>
     </g>
     <g id="text_6">
      <!-- Jun -->
      <g transform="translate(316.103011 398.795937) scale(0.1 -0.1)">
       <defs>
        <path id="DejaVuSans-75" d="M 544 1381 
L 544 3500 
L 1119 3500 
L 1119 1403 
Q 1119 906 1312 657 
Q 1506 409 1894 409 
Q 2359 409 2629 706 
Q 2900 1003 2900 1516 
L 2900 3500 
L 3475 3500 
L 3475 0 
L 2900 0 
L 2900 538 
Q 2691 219 2414 64 
Q 2138 -91 1772 -91 
Q 1169 -91 856 284 
Q 544 659 544 1381 
z
M 1991 3584 
L 1991 3584 
z
" transform="scale(0.015625)"/>
       </defs>
       <use xlink:href="#DejaVuSans-4a"/>
       <use xlink:href="#DejaVuSans-75" transform="translate(29.492188 0)"/>
       <use xlink:href="#DejaVuSans-6e" transform="translate(92.871094 0)"/>
      </g>
     </g>
    </g>
    <g id="xtick_7">
     <g id="line2d_13">
      <path d="M 376.02596 384.1975 
L 376.02596 39.3575 
" clip-path="url(#p4c175c0889)" style="fill: none; stroke-dasharray: 2.96,1.28; stroke-dashoffset: 0; stroke: #b0b0b0; stroke-opacity: 0.3; stroke-width: 0.8"/>
     </g>
     <g id="line2d_14">
      <g>
       <use xlink:href="#mf6d2d9f7a8" x="376.02596" y="384.1975" style="stroke: #000000; stroke-width: 0.8"/>
      </g>
     </g>
     <g id="text_7">
      <!-- Jul -->
      <g transform="translate(369.993148 398.795937) scale(0.1 -0.1)">
       <defs>
        <path id="DejaVuSans-6c" d="M 603 4863 
L 1178 4863 
L 1178 0 
L 603 0 
L 603 4863 
z
" transform="scale(0.015625)"/>
       </defs>
       <use xlink:href="#DejaVuSans-4a"/>
       <use xlink:href="#DejaVuSans-75" transform="translate(29.492188 0)"/>
       <use xlink:href="#DejaVuSans-6c" transform="translate(92.871094 0)"/>
      </g>
     </g>
    </g>
    <g id="xtick_8">
     <g id="line2d_15">
      <path d="M 429.873425 384.1975 
L 429.873425 39.3575 
" clip-path="url(#p4c175c0889)" style="fill: none; stroke-dasharray: 2.96,1.28; stroke-dashoffset: 0; stroke: #b0b0b0; stroke-opacity: 0.3; stroke-width: 0.8"/>
     </g>
     <g id="line2d_16">
      <g>
       <use xlink:href="#mf6d2d9f7a8" x="429.873425" y="384.1975" style="stroke: #000000; stroke-width: 0.8"/>
      </g>
     </g>
     <g id="text_8">
      <!-- Aug -->
      <g transform="translate(420.110143 398.795937) scale(0.1 -0.1)">
       <defs>
        <path id="DejaVuSans-67" d="M 2906 1791 
Q 2906 2416 2648 2759 
Q 2391 3103 1925 3103 
Q 1463 3103 1205 2759 
Q 947 2416 947 1791 
Q 947 1169 1205 825 
Q 1463 481 1925 481 
Q 2391 481 2648 825 
Q 2906 1169 2906 1791 
z
M 3481 434 
Q 3481 -459 3084 -895 
Q 2688 -1331 1869 -1331 
Q 1566 -1331 1297 -1286 
Q 1028 -1241 775 -1147 
L 775 -588 
Q 1028 -725 1275 -790 
Q 1522 -856 1778 -856 
Q 2344 -856 2625 -561 
Q 2906 -266 2906 331 
L 2906 616 
Q 2728 306 2450 153 
Q 2172 0 1784 0 
Q 1141 0 747 490 
Q 353 981 353 1791 
Q 353 2603 747 3093 
Q 1141 3584 1784 3584 
Q 2172 3584 2450 3431 
Q 2728 3278 2906 2969 
L 2906 3500 
L 3481 3500 
L 3481 434 
z
" transform="scale(0.015625)"/>
       </defs>
       <use xlink:href="#DejaVuSans-41"/>
       <use xlink:href="#DejaVuSans-75" transform="translate(68.408203 0)"/>
       <use xlink:href="#DejaVuSans-67" transform="translate(131.787109 0)"/>
      </g>
     </g>
    </g>
    <g id="xtick_9">
     <g id="line2d_17">
      <path d="M 483.720889 384.1975 
L 483.720889 39.3575 
" clip-path="url(#p4c175c0889)" style="fill: none; stroke-dasharray: 2.96,1.28; stroke-dashoffset: 0; stroke: #b0b0b0; stroke-opacity: 0.3; stroke-width: 0.8"/>
     </g>
     <g id="line2d_18">
      <g>
       <use xlink:href="#mf6d2d9f7a8" x="483.720889" y="384.1975" style="stroke: #000000; stroke-width: 0.8"/>
      </g>
     </g>
     <g id="text_9">
      <!-- Sep -->
      <g transform="translate(474.295889 398.795937) scale(0.1 -0.1)">
       <defs>
        <path id="DejaVuSans-53" d="M 3425 4513 
L 3425 3897 
Q 3066 4069 2747 4153 
Q 2428 4238 2131 4238 
Q 1616 4238 1336 4038 
Q 1056 3838 1056 3469 
Q 1056 3159 1242 3001 
Q 1428 2844 1947 2747 
L 2328 2669 
Q 3034 2534 3370 2195 
Q 3706 1856 3706 1288 
Q 3706 609 3251 259 
Q 2797 -91 1919 -91 
Q 1588 -91 1214 -16 
Q 841 59 441 206 
L 441 856 
Q 825 641 1194 531 
Q 1563 422 1919 422 
Q 2459 422 2753 634 
Q 3047 847 3047 1241 
Q 3047 1584 2836 1778 
Q 2625 1972 2144 2069 
L 1759 2144 
Q 1053 2284 737 2584 
Q 422 2884 422 3419 
Q 422 4038 858 4394 
Q 1294 4750 2059 4750 
Q 2388 4750 2728 4690 
Q 3069 4631 3425 4513 
z
" transform="scale(0.015625)"/>
       </defs>
       <use xlink:href="#DejaVuSans-53"/>
       <use xlink:href="#DejaVuSans-65" transform="translate(63.476562 0)"/>
       <use xlink:href="#DejaVuSans-70" transform="translate(125 0)"/>
      </g>
     </g>
    </g>
    <g id="xtick_10">
     <g id="line2d_19">
      <path d="M 535.831338 384.1975 
L 535.831338 39.3575 
" clip-path="url(#p4c175c0889)" style="fill: none; stroke-dasharray: 2.96,1.28; stroke-dashoffset: 0; stroke: #b0b0b0; stroke-opacity: 0.3; stroke-width: 0.8"/>
     </g>
     <g id="line2d_20">
      <g>
       <use xlink:href="#mf6d2d9f7a8" x="535.831338" y="384.1975" style="stroke: #000000; stroke-width: 0.8"/>
      </g>
     </g>
     <g id="text_10">
      <!-- Oct -->
      <g transform="translate(527.186026 398.795937) scale(0.1 -0.1)">
       <defs>
        <path id="DejaVuSans-4f" d="M 2522 4238 
Q 1834 4238 1429 3725 
Q 1025 3213 1025 2328 
Q 1025 1447 1429 934 
Q 1834 422 2522 422 
Q 3209 422 3611 934 
Q 4013 1447 4013 2328 
Q 4013 3213 3611 3725 
Q 3209 4238 2522 4238 
z
M 2522 4750 
Q 3503 4750 4090 4092 
Q 4678 3434 4678 2328 
Q 4678 1225 4090 567 
Q 3503 -91 2522 -91 
Q 1538 -91 948 565 
Q 359 1222 359 2328 
Q 359 3434 948 4092 
Q 1538 4750 2522 4750 
z
" transform="scale(0.015625)"/>
        <path id="DejaVuSans-63" d="M 3122 3366 
L 3122 2828 
Q 2878 2963 2633 3030 
Q 2388 3097 2138 3097 
Q 1578 3097 1268 2742 
Q 959 2388 959 1747 
Q 959 1106 1268 751 
Q 1578 397 2138 397 
Q 2388 397 2633 464 
Q 2878 531 3122 666 
L 3122 134 
Q 2881 22 2623 -34 
Q 2366 -91 2075 -91 
Q 1284 -91 818 406 
Q 353 903 353 1747 
Q 353 2603 823 3093 
Q 1294 3584 2113 3584 
Q 2378 3584 2631 3529 
Q 2884 3475 3122 3366 
z
" transform="scale(0.015625)"/>
        <path id="DejaVuSans-74" d="M 1172 4494 
L 1172 3500 
L 2356 3500 
L 2356 3053 
L 1172 3053 
L 1172 1153 
Q 1172 725 1289 603 
Q 1406 481 1766 481 
L 2356 481 
L 2356 0 
L 1766 0 
Q 1100 0 847 248 
Q 594 497 594 1153 
L 594 3053 
L 172 3053 
L 172 3500 
L 594 3500 
L 594 4494 
L 1172 4494 
z
" transform="scale(0.015625)"/>
       </defs>
       <use xlink:href="#DejaVuSans-4f"/>
       <use xlink:href="#DejaVuSans-63" transform="translate(78.710938 0)"/>
       <use xlink:href="#DejaVuSans-74" transform="translate(133.691406 0)"/>
      </g>
     </g>
    </g>
    <g id="xtick_11">
     <g id="line2d_21">
      <path d="M 589.678802 384.1975 
L 589.678802 39.3575 
" clip-path="url(#p4c175c0889)" style="fill: none; stroke-dasharray: 2.96,1.28; stroke-dashoffset: 0; stroke: #b0b0b0; stroke-opacity: 0.3; stroke-width: 0.8"/>
     </g>
     <g id="line2d_22">
      <g>
       <use xlink:href="#mf6d2d9f7a8" x="589.678802" y="384.1975" style="stroke: #000000; stroke-width: 0.8"/>
      </g>
     </g>
     <g id="text_11">
      <!-- Nov -->
      <g transform="translate(579.919427 398.795937) scale(0.1 -0.1)">
       <defs>
        <path id="DejaVuSans-4e" d="M 628 4666 
L 1478 4666 
L 3547 763 
L 3547 4666 
L 4159 4666 
L 4159 0 
L 3309 0 
L 1241 3903 
L 1241 0 
L 628 0 
L 628 4666 
z
" transform="scale(0.015625)"/>
        <path id="DejaVuSans-6f" d="M 1959 3097 
Q 1497 3097 1228 2736 
Q 959 2375 959 1747 
Q 959 1119 1226 758 
Q 1494 397 1959 397 
Q 2419 397 2687 759 
Q 2956 1122 2956 1747 
Q 2956 2369 2687 2733 
Q 2419 3097 1959 3097 
z
M 1959 3584 
Q 2709 3584 3137 3096 
Q 3566 2609 3566 1747 
Q 3566 888 3137 398 
Q 2709 -91 1959 -91 
Q 1206 -91 779 398 
Q 353 888 353 1747 
Q 353 2609 779 3096 
Q 1206 3584 1959 3584 
z
" transform="scale(0.015625)"/>
        <path id="DejaVuSans-76" d="M 191 3500 
L 800 3500 
L 1894 563 
L 2988 3500 
L 3597 3500 
L 2284 0 
L 1503 0 
L 191 3500 
z
" transform="scale(0.015625)"/>
       </defs>
       <use xlink:href="#DejaVuSans-4e"/>
       <use xlink:href="#DejaVuSans-6f" transform="translate(74.804688 0)"/>
       <use xlink:href="#DejaVuSans-76" transform="translate(135.986328 0)"/>
      </g>
     </g>
    </g>
    <g id="xtick_12">
     <g id="line2d_23">
      <path d="M 641.789251 384.1975 
L 641.789251 39.3575 
" clip-path="url(#p4c175c0889)" style="fill: none; stroke-dasharray: 2.96,1.28; stroke-dashoffset: 0; stroke: #b0b0b0; stroke-opacity: 0.3; stroke-width: 0.8"/>
     </g>
     <g id="line2d_24">
      <g>
       <use xlink:href="#mf6d2d9f7a8" x="641.789251" y="384.1975" style="stroke: #000000; stroke-width: 0.8"/>
      </g>
     </g>
     <g id="text_12">
      <!-- Dec -->
      <g transform="translate(632.11347 398.795937) scale(0.1 -0.1)">
       <defs>
        <path id="DejaVuSans-44" d="M 1259 4147 
L 1259 519 
L 2022 519 
Q 2988 519 3436 956 
Q 3884 1394 3884 2338 
Q 3884 3275 3436 3711 
Q 2988 4147 2022 4147 
L 1259 4147 
z
M 628 4666 
L 1925 4666 
Q 3281 4666 3915 4102 
Q 4550 3538 4550 2338 
Q 4550 1131 3912 565 
Q 3275 0 1925 0 
L 628 0 
L 628 4666 
z
" transform="scale(0.015625)"/>
       </defs>
       <use xlink:href="#DejaVuSans-44"/>
       <use xlink:href="#DejaVuSans-65" transform="translate(77.001953 0)"/>
       <use xlink:href="#DejaVuSans-63" transform="translate(138.525391 0)"/>
      </g>
     </g>
    </g>
    <g id="xtick_13">
     <g id="line2d_25">
      <path d="M 695.636716 384.1975 
L 695.636716 39.3575 
" clip-path="url(#p4c175c0889)" style="fill: none; stroke-dasharray: 2.96,1.28; stroke-dashoffset: 0; stroke: #b0b0b0; stroke-opacity: 0.3; stroke-width: 0.8"/>
     </g>
     <g id="line2d_26">
      <g>
       <use xlink:href="#mf6d2d9f7a8" x="695.636716" y="384.1975" style="stroke: #000000; stroke-width: 0.8"/>
      </g>
     </g>
     <g id="text_13">
      <!-- Jan -->
      <g transform="translate(687.928903 398.795937) scale(0.1 -0.1)">
       <use xlink:href="#DejaVuSans-4a"/>
       <use xlink:href="#DejaVuSans-61" transform="translate(29.492188 0)"/>
       <use xlink:href="#DejaVuSans-6e" transform="translate(90.771484 0)"/>
      </g>
     </g>
    </g>
    <g id="text_14">
     <!-- Day of the year -->
     <g transform="translate(336.388708 413.99375) scale(0.12 -0.12)">
      <defs>
       <path id="DejaVuSans-20" transform="scale(0.015625)"/>
       <path id="DejaVuSans-66" d="M 2375 4863 
L 2375 4384 
L 1825 4384 
Q 1516 4384 1395 4259 
Q 1275 4134 1275 3809 
L 1275 3500 
L 2222 3500 
L 2222 3053 
L 1275 3053 
L 1275 0 
L 697 0 
L 697 3053 
L 147 3053 
L 147 3500 
L 697 3500 
L 697 3744 
Q 697 4328 969 4595 
Q 1241 4863 1831 4863 
L 2375 4863 
z
" transform="scale(0.015625)"/>
       <path id="DejaVuSans-68" d="M 3513 2113 
L 3513 0 
L 2938 0 
L 2938 2094 
Q 2938 2591 2744 2837 
Q 2550 3084 2163 3084 
Q 1697 3084 1428 2787 
Q 1159 2491 1159 1978 
L 1159 0 
L 581 0 
L 581 4863 
L 1159 4863 
L 1159 2956 
Q 1366 3272 1645 3428 
Q 1925 3584 2291 3584 
Q 2894 3584 3203 3211 
Q 3513 2838 3513 2113 
z
" transform="scale(0.015625)"/>
      </defs>
      <use xlink:href="#DejaVuSans-44"/>
      <use xlink:href="#DejaVuSans-61" transform="translate(77.001953 0)"/>
      <use xlink:href="#DejaVuSans-79" transform="translate(138.28125 0)"/>
      <use xlink:href="#DejaVuSans-20" transform="translate(197.460938 0)"/>
      <use xlink:href="#DejaVuSans-6f" transform="translate(229.248047 0)"/>
      <use xlink:href="#DejaVuSans-66" transform="translate(290.429688 0)"/>
      <use xlink:href="#DejaVuSans-20" transform="translate(325.634766 0)"/>
      <use xlink:href="#DejaVuSans-74" transform="translate(357.421875 0)"/>
      <use xlink:href="#DejaVuSans-68" transform="translate(396.630859 0)"/>
      <use xlink:href="#DejaVuSans-65" transform="translate(460.009766 0)"/>
      <use xlink:href="#DejaVuSans-20" transform="translate(521.533203 0)"/>
      <use xlink:href="#DejaVuSans-79" transform="translate(553.320312 0)"/>
      <use xlink:href="#DejaVuSans-65" transform="translate(612.5 0)"/>
      <use xlink:href="#DejaVuSans-61" transform="translate(674.023438 0)"/>
      <use xlink:href="#DejaVuSans-72" transform="translate(735.302734 0)"/>
     </g>
    </g>
   </g>
   <g id="matplotlib.axis_2">
    <g id="ytick_1">
     <g id="line2d_27">
      <path d="M 61.62625 384.1975 
L 704.321791 384.1975 
" clip-path="url(#p4c175c0889)" style="fill: none; stroke-dasharray: 2.96,1.28; stroke-dashoffset: 0; stroke: #b0b0b0; stroke-opacity: 0.3; stroke-width: 0.8"/>
     </g>
     <g id="line2d_28">
      <defs>
       <path id="me7c969e739" d="M 0 0 
L -3.5 0 
" style="stroke: #000000; stroke-width: 0.8"/>
      </defs>
      <g>
       <use xlink:href="#me7c969e739" x="61.62625" y="384.1975" style="stroke: #000000; stroke-width: 0.8"/>
      </g>
     </g>
     <g id="text_15">
      <!-- 0 -->
      <g transform="translate(48.26375 387.996719) scale(0.1 -0.1)">
       <defs>
        <path id="DejaVuSans-30" d="M 2034 4250 
Q 1547 4250 1301 3770 
Q 1056 3291 1056 2328 
Q 1056 1369 1301 889 
Q 1547 409 2034 409 
Q 2525 409 2770 889 
Q 3016 1369 3016 2328 
Q 3016 3291 2770 3770 
Q 2525 4250 2034 4250 
z
M 2034 4750 
Q 2819 4750 3233 4129 
Q 3647 3509 3647 2328 
Q 3647 1150 3233 529 
Q 2819 -91 2034 -91 
Q 1250 -91 836 529 
Q 422 1150 422 2328 
Q 422 3509 836 4129 
Q 1250 4750 2034 4750 
z
" transform="scale(0.015625)"/>
       </defs>
       <use xlink:href="#DejaVuSans-30"/>
      </g>
     </g>
    </g>
    <g id="ytick_2">
     <g id="line2d_29">
      <path d="M 61.62625 330.513121 
L 704.321791 330.513121 
" clip-path="url(#p4c175c0889)" style="fill: none; stroke-dasharray: 2.96,1.28; stroke-dashoffset: 0; stroke: #b0b0b0; stroke-opacity: 0.3; stroke-width: 0.8"/>
     </g>
     <g id="line2d_30">
      <g>
       <use xlink:href="#me7c969e739" x="61.62625" y="330.513121" style="stroke: #000000; stroke-width: 0.8"/>
      </g>
     </g>
     <g id="text_16">
      <!-- 5000 -->
      <g transform="translate(29.17625 334.312339) scale(0.1 -0.1)">
       <defs>
        <path id="DejaVuSans-35" d="M 691 4666 
L 3169 4666 
L 3169 4134 
L 1269 4134 
L 1269 2991 
Q 1406 3038 1543 3061 
Q 1681 3084 1819 3084 
Q 2600 3084 3056 2656 
Q 3513 2228 3513 1497 
Q 3513 744 3044 326 
Q 2575 -91 1722 -91 
Q 1428 -91 1123 -41 
Q 819 9 494 109 
L 494 744 
Q 775 591 1075 516 
Q 1375 441 1709 441 
Q 2250 441 2565 725 
Q 2881 1009 2881 1497 
Q 2881 1984 2565 2268 
Q 2250 2553 1709 2553 
Q 1456 2553 1204 2497 
Q 953 2441 691 2322 
L 691 4666 
z
" transform="scale(0.015625)"/>
       </defs>
       <use xlink:href="#DejaVuSans-35"/>
       <use xlink:href="#DejaVuSans-30" transform="translate(63.623047 0)"/>
       <use xlink:href="#DejaVuSans-30" transform="translate(127.246094 0)"/>
       <use xlink:href="#DejaVuSans-30" transform="translate(190.869141 0)"/>
      </g>
     </g>
    </g>
    <g id="ytick_3">
     <g id="line2d_31">
      <path d="M 61.62625 276.828741 
L 704.321791 276.828741 
" clip-path="url(#p4c175c0889)" style="fill: none; stroke-dasharray: 2.96,1.28; stroke-dashoffset: 0; stroke: #b0b0b0; stroke-opacity: 0.3; stroke-width: 0.8"/>
     </g>
     <g id="line2d_32">
      <g>
       <use xlink:href="#me7c969e739" x="61.62625" y="276.828741" style="stroke: #000000; stroke-width: 0.8"/>
      </g>
     </g>
     <g id="text_17">
      <!-- 10000 -->
      <g transform="translate(22.81375 280.62796) scale(0.1 -0.1)">
       <defs>
        <path id="DejaVuSans-31" d="M 794 531 
L 1825 531 
L 1825 4091 
L 703 3866 
L 703 4441 
L 1819 4666 
L 2450 4666 
L 2450 531 
L 3481 531 
L 3481 0 
L 794 0 
L 794 531 
z
" transform="scale(0.015625)"/>
       </defs>
       <use xlink:href="#DejaVuSans-31"/>
       <use xlink:href="#DejaVuSans-30" transform="translate(63.623047 0)"/>
       <use xlink:href="#DejaVuSans-30" transform="translate(127.246094 0)"/>
       <use xlink:href="#DejaVuSans-30" transform="translate(190.869141 0)"/>
       <use xlink:href="#DejaVuSans-30" transform="translate(254.492188 0)"/>
      </g>
     </g>
    </g>
    <g id="ytick_4">
     <g id="line2d_33">
      <path d="M 61.62625 223.144362 
L 704.321791 223.144362 
" clip-path="url(#p4c175c0889)" style="fill: none; stroke-dasharray: 2.96,1.28; stroke-dashoffset: 0; stroke: #b0b0b0; stroke-opacity: 0.3; stroke-width: 0.8"/>
     </g>
     <g id="line2d_34">
      <g>
       <use xlink:href="#me7c969e739" x="61.62625" y="223.144362" style="stroke: #000000; stroke-width: 0.8"/>
      </g>
     </g>
     <g id="text_18">
      <!-- 15000 -->
      <g transform="translate(22.81375 226.943581) scale(0.1 -0.1)">
       <use xlink:href="#DejaVuSans-31"/>
       <use xlink:href="#DejaVuSans-35" transform="translate(63.623047 0)"/>
       <use xlink:href="#DejaVuSans-30" transform="translate(127.246094 0)"/>
       <use xlink:href="#DejaVuSans-30" transform="translate(190.869141 0)"/>
       <use xlink:href="#DejaVuSans-30" transform="translate(254.492188 0)"/>
      </g>
     </g>
    </g>
    <g id="ytick_5">
     <g id="line2d_35">
      <path d="M 61.62625 169.459983 
L 704.321791 169.459983 
" clip-path="url(#p4c175c0889)" style="fill: none; stroke-dasharray: 2.96,1.28; stroke-dashoffset: 0; stroke: #b0b0b0; stroke-opacity: 0.3; stroke-width: 0.8"/>
     </g>
     <g id="line2d_36">
      <g>
       <use xlink:href="#me7c969e739" x="61.62625" y="169.459983" style="stroke: #000000; stroke-width: 0.8"/>
      </g>
     </g>
     <g id="text_19">
      <!-- 20000 -->
      <g transform="translate(22.81375 173.259201) scale(0.1 -0.1)">
       <defs>
        <path id="DejaVuSans-32" d="M 1228 531 
L 3431 531 
L 3431 0 
L 469 0 
L 469 531 
Q 828 903 1448 1529 
Q 2069 2156 2228 2338 
Q 2531 2678 2651 2914 
Q 2772 3150 2772 3378 
Q 2772 3750 2511 3984 
Q 2250 4219 1831 4219 
Q 1534 4219 1204 4116 
Q 875 4013 500 3803 
L 500 4441 
Q 881 4594 1212 4672 
Q 1544 4750 1819 4750 
Q 2544 4750 2975 4387 
Q 3406 4025 3406 3419 
Q 3406 3131 3298 2873 
Q 3191 2616 2906 2266 
Q 2828 2175 2409 1742 
Q 1991 1309 1228 531 
z
" transform="scale(0.015625)"/>
       </defs>
       <use xlink:href="#DejaVuSans-32"/>
       <use xlink:href="#DejaVuSans-30" transform="translate(63.623047 0)"/>
       <use xlink:href="#DejaVuSans-30" transform="translate(127.246094 0)"/>
       <use xlink:href="#DejaVuSans-30" transform="translate(190.869141 0)"/>
       <use xlink:href="#DejaVuSans-30" transform="translate(254.492188 0)"/>
      </g>
     </g>
    </g>
    <g id="ytick_6">
     <g id="line2d_37">
      <path d="M 61.62625 115.775603 
L 704.321791 115.775603 
" clip-path="url(#p4c175c0889)" style="fill: none; stroke-dasharray: 2.96,1.28; stroke-dashoffset: 0; stroke: #b0b0b0; stroke-opacity: 0.3; stroke-width: 0.8"/>
     </g>
     <g id="line2d_38">
      <g>
       <use xlink:href="#me7c969e739" x="61.62625" y="115.775603" style="stroke: #000000; stroke-width: 0.8"/>
      </g>
     </g>
     <g id="text_20">
      <!-- 25000 -->
      <g transform="translate(22.81375 119.574822) scale(0.1 -0.1)">
       <use xlink:href="#DejaVuSans-32"/>
       <use xlink:href="#DejaVuSans-35" transform="translate(63.623047 0)"/>
       <use xlink:href="#DejaVuSans-30" transform="translate(127.246094 0)"/>
       <use xlink:href="#DejaVuSans-30" transform="translate(190.869141 0)"/>
       <use xlink:href="#DejaVuSans-30" transform="translate(254.492188 0)"/>
      </g>
     </g>
    </g>
    <g id="ytick_7">
     <g id="line2d_39">
      <path d="M 61.62625 62.091224 
L 704.321791 62.091224 
" clip-path="url(#p4c175c0889)" style="fill: none; stroke-dasharray: 2.96,1.28; stroke-dashoffset: 0; stroke: #b0b0b0; stroke-opacity: 0.3; stroke-width: 0.8"/>
     </g>
     <g id="line2d_40">
      <g>
       <use xlink:href="#me7c969e739" x="61.62625" y="62.091224" style="stroke: #000000; stroke-width: 0.8"/>
      </g>
     </g>
     <g id="text_21">
      <!-- 30000 -->
      <g transform="translate(22.81375 65.890443) scale(0.1 -0.1)">
       <defs>
        <path id="DejaVuSans-33" d="M 2597 2516 
Q 3050 2419 3304 2112 
Q 3559 1806 3559 1356 
Q 3559 666 3084 287 
Q 2609 -91 1734 -91 
Q 1441 -91 1130 -33 
Q 819 25 488 141 
L 488 750 
Q 750 597 1062 519 
Q 1375 441 1716 441 
Q 2309 441 2620 675 
Q 2931 909 2931 1356 
Q 2931 1769 2642 2001 
Q 2353 2234 1838 2234 
L 1294 2234 
L 1294 2753 
L 1863 2753 
Q 2328 2753 2575 2939 
Q 2822 3125 2822 3475 
Q 2822 3834 2567 4026 
Q 2313 4219 1838 4219 
Q 1578 4219 1281 4162 
Q 984 4106 628 3988 
L 628 4550 
Q 988 4650 1302 4700 
Q 1616 4750 1894 4750 
Q 2613 4750 3031 4423 
Q 3450 4097 3450 3541 
Q 3450 3153 3228 2886 
Q 3006 2619 2597 2516 
z
" transform="scale(0.015625)"/>
       </defs>
       <use xlink:href="#DejaVuSans-33"/>
       <use xlink:href="#DejaVuSans-30" transform="translate(63.623047 0)"/>
       <use xlink:href="#DejaVuSans-30" transform="translate(127.246094 0)"/>
       <use xlink:href="#DejaVuSans-30" transform="translate(190.869141 0)"/>
       <use xlink:href="#DejaVuSans-30" transform="translate(254.492188 0)"/>
      </g>
     </g>
    </g>
    <g id="text_22">
     <!-- Daily pedestrian count -->
     <g transform="translate(16.318125 279.793125) rotate(-90) scale(0.12 -0.12)">
      <defs>
       <path id="DejaVuSans-69" d="M 603 3500 
L 1178 3500 
L 1178 0 
L 603 0 
L 603 3500 
z
M 603 4863 
L 1178 4863 
L 1178 4134 
L 603 4134 
L 603 4863 
z
" transform="scale(0.015625)"/>
       <path id="DejaVuSans-64" d="M 2906 2969 
L 2906 4863 
L 3481 4863 
L 3481 0 
L 2906 0 
L 2906 525 
Q 2725 213 2448 61 
Q 2172 -91 1784 -91 
Q 1150 -91 751 415 
Q 353 922 353 1747 
Q 353 2572 751 3078 
Q 1150 3584 1784 3584 
Q 2172 3584 2448 3432 
Q 2725 3281 2906 2969 
z
M 947 1747 
Q 947 1113 1208 752 
Q 1469 391 1925 391 
Q 2381 391 2643 752 
Q 2906 1113 2906 1747 
Q 2906 2381 2643 2742 
Q 2381 3103 1925 3103 
Q 1469 3103 1208 2742 
Q 947 2381 947 1747 
z
" transform="scale(0.015625)"/>
       <path id="DejaVuSans-73" d="M 2834 3397 
L 2834 2853 
Q 2591 2978 2328 3040 
Q 2066 3103 1784 3103 
Q 1356 3103 1142 2972 
Q 928 2841 928 2578 
Q 928 2378 1081 2264 
Q 1234 2150 1697 2047 
L 1894 2003 
Q 2506 1872 2764 1633 
Q 3022 1394 3022 966 
Q 3022 478 2636 193 
Q 2250 -91 1575 -91 
Q 1294 -91 989 -36 
Q 684 19 347 128 
L 347 722 
Q 666 556 975 473 
Q 1284 391 1588 391 
Q 1994 391 2212 530 
Q 2431 669 2431 922 
Q 2431 1156 2273 1281 
Q 2116 1406 1581 1522 
L 1381 1569 
Q 847 1681 609 1914 
Q 372 2147 372 2553 
Q 372 3047 722 3315 
Q 1072 3584 1716 3584 
Q 2034 3584 2315 3537 
Q 2597 3491 2834 3397 
z
" transform="scale(0.015625)"/>
      </defs>
      <use xlink:href="#DejaVuSans-44"/>
      <use xlink:href="#DejaVuSans-61" transform="translate(77.001953 0)"/>
      <use xlink:href="#DejaVuSans-69" transform="translate(138.28125 0)"/>
      <use xlink:href="#DejaVuSans-6c" transform="translate(166.064453 0)"/>
      <use xlink:href="#DejaVuSans-79" transform="translate(193.847656 0)"/>
      <use xlink:href="#DejaVuSans-20" transform="translate(253.027344 0)"/>
      <use xlink:href="#DejaVuSans-70" transform="translate(284.814453 0)"/>
      <use xlink:href="#DejaVuSans-65" transform="translate(348.291016 0)"/>
      <use xlink:href="#DejaVuSans-64" transform="translate(409.814453 0)"/>
      <use xlink:href="#DejaVuSans-65" transform="translate(473.291016 0)"/>
      <use xlink:href="#DejaVuSans-73" transform="translate(534.814453 0)"/>
      <use xlink:href="#DejaVuSans-74" transform="translate(586.914062 0)"/>
      <use xlink:href="#DejaVuSans-72" transform="translate(626.123047 0)"/>
      <use xlink:href="#DejaVuSans-69" transform="translate(667.236328 0)"/>
      <use xlink:href="#DejaVuSans-61" transform="translate(695.019531 0)"/>
      <use xlink:href="#DejaVuSans-6e" transform="translate(756.298828 0)"/>
      <use xlink:href="#DejaVuSans-20" transform="translate(819.677734 0)"/>
      <use xlink:href="#DejaVuSans-63" transform="translate(851.464844 0)"/>
      <use xlink:href="#DejaVuSans-6f" transform="translate(906.445312 0)"/>
      <use xlink:href="#DejaVuSans-75" transform="translate(967.626953 0)"/>
      <use xlink:href="#DejaVuSans-6e" transform="translate(1031.005859 0)"/>
      <use xlink:href="#DejaVuSans-74" transform="translate(1094.384766 0)"/>
     </g>
    </g>
   </g>
   <g id="line2d_41">
    <path d="M 63.363265 258.296894 
L 65.10028 220.621196 
L 66.837295 214.919915 
L 68.57431 236.930511 
L 70.311325 278.031271 
L 72.04834 291.065839 
L 73.785355 168.805033 
L 75.52237 173.668838 
L 77.259385 165.626918 
L 78.9964 161.94417 
L 80.733415 152.409824 
L 82.47043 269.527666 
L 84.207445 277.76285 
L 85.94446 158.71237 
L 87.681475 156.13552 
L 89.41849 147.180965 
L 91.155505 146.03212 
L 92.89252 129.658384 
L 94.629535 230.57428 
L 96.366549 279.448539 
L 98.103564 145.098011 
L 99.840579 143.637796 
L 101.577594 137.700304 
L 103.314609 147.900336 
L 105.051624 170.50146 
L 106.788639 250.115394 
L 108.525654 286.942878 
L 110.262669 295.42501 
L 111.999684 158.218474 
L 113.736699 158.486896 
L 115.473714 152.946668 
L 117.210729 137.045355 
L 118.947744 259.574582 
L 120.684759 291.763736 
L 122.421774 130.377755 
L 124.158789 142.510424 
L 125.895804 149.972553 
L 127.632819 141.876949 
L 129.369834 131.999023 
L 131.106849 253.379404 
L 132.843864 273.897574 
L 134.580879 150.230238 
L 136.317894 156.919312 
L 138.054909 136.937986 
L 139.791924 130.259649 
L 141.528939 115.056233 
L 143.265954 251.564872 
L 145.002969 254.742988 
L 146.739984 144.657799 
L 148.476999 142.123897 
L 151.951029 128.080063 
L 153.688044 98.199338 
L 155.425059 226.333214 
L 157.162074 255.838149 
L 158.899089 141.211262 
L 160.636104 135.241559 
L 162.373119 131.204494 
L 164.110133 129.77649 
L 165.847148 124.182577 
L 167.584163 255.827412 
L 169.321178 275.04642 
L 171.058193 142.596319 
L 172.795208 139.922837 
L 174.532223 139.922837 
L 176.269238 132.911657 
L 178.006253 121.670148 
L 179.743268 234.439555 
L 181.480283 269.001559 
L 183.217298 273.038624 
L 184.954313 134.704716 
L 186.691328 138.773992 
L 188.428343 123.785313 
L 190.165358 104.276409 
L 191.902373 221.533831 
L 193.639388 259.381318 
L 195.376403 136.036088 
L 197.113418 124.99858 
L 198.850433 133.265974 
L 200.587448 123.65647 
L 202.324463 109.77369 
L 204.061478 225.323948 
L 205.798493 259.99332 
L 207.535508 154.675305 
L 209.272523 131.35481 
L 211.009538 127.392903 
L 212.746553 114.111388 
L 214.483568 121.949307 
L 216.220583 210.281585 
L 217.957598 260.433532 
L 219.694613 147.943284 
L 221.431628 138.967255 
L 223.168643 142.875478 
L 224.905658 130.560281 
L 226.642673 113.38128 
L 228.379688 209.326003 
L 230.116703 227.428376 
L 231.853717 147.06286 
L 233.590732 141.715896 
L 235.327747 131.515863 
L 237.064762 137.367461 
L 238.801777 107.905473 
L 240.538792 226.569425 
L 242.275807 246.572225 
L 244.012822 147.277597 
L 245.749837 127.854589 
L 247.486852 134.210819 
L 249.223867 132.943868 
L 250.960882 219.322034 
L 252.697897 210.335269 
L 256.171927 283.08834 
L 257.908942 170.050511 
L 259.645957 152.538666 
L 261.382972 254.571198 
L 263.119987 175.257896 
L 266.594017 285.83698 
L 268.331032 152.055507 
L 270.068047 140.663682 
L 271.805062 134.328925 
L 273.542077 141.297157 
L 275.279092 87.440988 
L 277.016107 220.148774 
L 278.753122 236.941248 
L 280.490137 150.251712 
L 282.227152 137.195671 
L 283.964167 143.616323 
L 285.701182 136.658827 
L 287.438197 148.415706 
L 289.175212 242.87874 
L 290.912227 270.730196 
L 292.649242 151.164346 
L 294.386257 141.146841 
L 296.123272 142.403056 
L 297.860287 140.008732 
L 299.597301 124.794579 
L 301.334316 207.414839 
L 303.071331 268.335873 
L 304.808346 151.089188 
L 306.545361 140.126838 
L 308.282376 130.055648 
L 310.019391 139.428941 
L 311.756406 128.423643 
L 313.493421 240.30189 
L 315.230436 251.414556 
L 316.967451 156.13552 
L 318.704466 146.536753 
L 320.441481 151.443505 
L 322.178496 143.390848 
L 323.915511 104.415989 
L 325.652526 251.532662 
L 327.389541 284.162028 
L 329.126556 181.592652 
L 330.863571 148.855918 
L 332.600586 144.196114 
L 334.337601 140.019469 
L 336.074616 124.837527 
L 337.811631 221.641199 
L 339.548646 271.417356 
L 341.285661 284.892135 
L 343.022676 146.54749 
L 344.759691 156.865627 
L 346.496706 138.795465 
L 348.233721 80.708967 
L 349.970736 222.156569 
L 351.707751 283.163498 
L 353.444766 153.193616 
L 355.181781 149.113603 
L 356.918796 142.166844 
L 358.655811 148.490864 
L 360.392826 121.981518 
L 362.129841 237.778724 
L 363.866856 256.93331 
L 365.603871 156.114046 
L 367.340886 143.766639 
L 369.0779 139.74031 
L 370.814915 106.187573 
L 372.55193 109.419373 
L 374.288945 221.705621 
L 376.02596 226.13995 
L 377.762975 154.632357 
L 379.49999 147.116544 
L 381.237005 140.835472 
L 382.97402 132.976079 
L 384.711035 108.270527 
L 386.44805 202.894614 
L 388.185065 277.236743 
L 389.92208 154.095513 
L 391.659095 141.995054 
L 393.39611 145.849593 
L 395.133125 147.492335 
L 396.87014 139.181993 
L 398.607155 212.063906 
L 400.34417 270.558406 
L 402.081185 153.21509 
L 403.8182 143.058005 
L 405.555215 143.036531 
L 407.29223 125.868267 
L 409.029245 116.162131 
L 410.76626 225.377632 
L 412.503275 263.117751 
L 414.24029 153.279511 
L 415.977305 154.954463 
L 417.71432 142.306424 
L 419.451335 133.673975 
L 421.18835 127.489535 
L 422.925365 214.909178 
L 424.66238 246.701068 
L 426.399395 154.610883 
L 428.13641 144.82959 
L 429.873425 141.189789 
L 431.61044 143.863271 
L 433.347455 94.022693 
L 435.08447 211.194219 
L 436.821484 247.82844 
L 438.558499 151.379084 
L 440.295514 152.538666 
L 442.032529 146.085804 
L 443.769544 142.327897 
L 445.506559 141.404526 
L 447.243574 216.047287 
L 448.980589 262.087011 
L 450.717604 153.998881 
L 452.454619 144.120956 
L 454.191634 139.160519 
L 455.928649 130.238175 
L 457.665664 129.475857 
L 459.402679 221.265409 
L 461.139694 258.006998 
L 462.876709 158.787528 
L 464.613724 146.601174 
L 466.350739 143.036531 
L 468.087754 89.556153 
L 469.824769 103.782513 
L 473.298799 272.941992 
L 475.035814 154.750463 
L 476.772829 144.765168 
L 478.509844 161.815327 
L 480.246859 138.226411 
L 481.983874 122.62573 
L 483.720889 254.163196 
L 485.457904 281.595914 
L 487.194919 157.262892 
L 488.931934 140.953577 
L 490.668949 139.557783 
L 492.405964 139.751047 
L 494.142979 123.79605 
L 495.879994 253.948459 
L 497.617009 286.32014 
L 499.354024 166.06713 
L 501.091039 146.5797 
L 502.828054 141.447474 
L 504.565068 136.99167 
L 506.302083 128.316274 
L 508.039098 257.062153 
L 509.776113 288.478252 
L 511.513128 161.396589 
L 513.250143 147.642651 
L 514.987158 141.468947 
L 516.724173 134.876506 
L 518.461188 120.338776 
L 520.198203 259.059212 
L 521.935218 271.546198 
L 523.672233 155.44836 
L 525.409248 139.214203 
L 527.146263 128.380696 
L 528.883278 101.76398 
L 530.620293 251.790347 
L 532.357308 264.728282 
L 534.094323 281.585177 
L 535.831338 155.609413 
L 537.568353 140.309365 
L 539.305368 133.663239 
L 541.042383 124.590579 
L 542.779398 130.603229 
L 544.516413 238.841675 
L 546.253428 223.412784 
L 547.990443 141.533369 
L 549.727458 144.17464 
L 551.464473 138.387464 
L 553.201488 119.222141 
L 554.938503 107.175366 
L 556.675518 212.300117 
L 558.412533 270.880512 
L 560.149548 146.934017 
L 561.886563 140.685155 
L 563.623578 146.687069 
L 565.360593 138.1942 
L 567.097608 113.327596 
L 568.834623 265.393969 
L 570.571638 282.57297 
L 572.308652 153.580143 
L 574.045667 139.36452 
L 575.782682 126.179636 
L 577.519697 127.940484 
L 579.256712 124.987843 
L 580.993727 252.574139 
L 582.730742 276.785794 
L 584.467757 150.122869 
L 586.204772 139.976522 
L 587.941787 134.994611 
L 589.678802 137.81841 
L 591.415817 127.693536 
L 593.152832 246.711805 
L 594.889847 278.557378 
L 596.626862 186.477931 
L 598.363877 269.312928 
L 600.100892 135.456297 
L 601.837907 132.621762 
L 603.574922 140.309365 
L 605.311937 244.08127 
L 607.048952 283.303078 
L 608.785967 136.594406 
L 610.522982 147.26686 
L 612.259997 129.969753 
L 613.997012 125.095212 
L 615.734027 55.606151 
L 617.471042 241.654736 
L 619.208057 274.616945 
L 620.945072 138.226411 
L 622.682087 136.422616 
L 624.419102 131.35481 
L 626.156117 138.623675 
L 627.893132 98.424812 
L 629.630147 217.829609 
L 631.367162 223.520153 
L 633.104177 139.096098 
L 634.841192 136.175668 
L 636.578207 116.065499 
L 638.315222 134.790611 
L 640.052236 119.200667 
L 641.789251 213.642227 
L 643.526266 277.76285 
L 645.263281 165.229654 
L 647.000296 141.468947 
L 648.737311 131.408495 
L 650.474326 127.811641 
L 652.211341 106.992839 
L 653.948356 237.617671 
L 655.685371 268.239241 
L 657.422386 152.431298 
L 659.159401 138.795465 
L 660.896416 123.699418 
L 662.633431 123.892682 
L 664.370446 112.887384 
L 666.107461 235.470296 
L 667.844476 268.647242 
L 669.581491 133.276711 
L 671.318506 127.929747 
L 673.055521 113.563807 
L 674.792536 132.471445 
L 676.529551 167.323344 
L 678.266566 266.456919 
L 680.003581 276.581793 
L 681.740596 206.920943 
L 683.477611 234.557661 
L 685.214626 288.177619 
L 686.951641 243.072004 
L 688.688656 235.609875 
L 690.425671 267.809766 
L 692.162686 263.815648 
L 693.899701 261.657536 
L 695.636716 219.12877 
L 695.636716 219.12877 
" clip-path="url(#p4c175c0889)" style="fill: none; stroke: #0d6efc; stroke-opacity: 0.8; stroke-width: 2.5; stroke-linecap: square"/>
   </g>
   <g id="line2d_42">
    <path d="M 63.363265 254.442355 
L 65.10028 236.747984 
L 66.837295 247.388228 
L 68.57431 279.802856 
L 70.311325 294.770061 
L 72.04834 251.758136 
L 73.785355 214.179071 
L 75.52237 209.154213 
L 77.259385 218.742243 
L 78.9964 222.618255 
L 80.733415 269.946404 
L 82.47043 260.712691 
L 84.207445 215.854023 
L 85.94446 191.406157 
L 87.681475 197.558387 
L 89.41849 188.120673 
L 91.155505 201.49882 
L 92.89252 233.687974 
L 94.629535 271.47104 
L 96.366549 221.125829 
L 98.103564 200.822397 
L 99.840579 193.80048 
L 101.577594 189.795626 
L 103.314609 211.924327 
L 105.051624 248.537073 
L 106.788639 269.37735 
L 108.525654 299.547971 
L 110.262669 206.169361 
L 111.999684 206.126414 
L 113.736699 204.204513 
L 115.473714 215.016547 
L 117.210729 265.329547 
L 118.947744 294.523113 
L 120.684759 235.481032 
L 122.421774 215.596338 
L 124.158789 191.116261 
L 125.895804 184.835189 
L 127.632819 141.479684 
L 129.369834 162.953436 
L 131.106849 257.974787 
L 132.843864 207.060522 
L 134.580879 182.183181 
L 136.317894 190.042574 
L 138.054909 198.696496 
L 139.791924 209.218634 
L 141.528939 252.058769 
L 143.265954 271.09525 
L 145.002969 213.481174 
L 146.739984 194.884905 
L 148.476999 187.798567 
L 150.214014 179.23054 
L 151.951029 201.745768 
L 153.688044 253.003614 
L 155.425059 277.698428 
L 157.162074 209.347477 
L 158.899089 180.314964 
L 160.636104 182.075812 
L 162.373119 165.648392 
L 164.110133 182.687814 
L 165.847148 161.171115 
L 167.584163 261.818589 
L 169.321178 209.615898 
L 171.058193 177.469692 
L 172.795208 183.385711 
L 174.532223 164.789442 
L 176.269238 196.839016 
L 178.006253 241.697684 
L 179.743268 253.862564 
L 181.480283 276.044949 
L 183.217298 182.011391 
L 184.954313 181.088019 
L 186.691328 152.141402 
L 188.428343 367.866712 
L 190.165358 202.615455 
L 191.902373 279.631066 
L 193.639388 187.44425 
L 195.376403 172.691782 
L 197.113418 174.377472 
L 198.850433 183.847396 
L 200.587448 187.766356 
L 202.324463 192.630161 
L 204.061478 234.428819 
L 207.535508 173.325258 
L 209.272523 174.559999 
L 211.009538 137.81841 
L 212.746553 133.523659 
L 214.483568 182.795183 
L 216.220583 257.233943 
L 217.957598 209.003897 
L 219.694613 187.197302 
L 221.431628 183.954765 
L 223.168643 179.026539 
L 224.905658 205.793571 
L 226.642673 208.327473 
L 228.379688 224.604577 
L 230.116703 211.666642 
L 231.853717 183.310553 
L 233.590732 182.204654 
L 235.327747 172.434097 
L 237.064762 196.774595 
L 238.801777 246.400435 
L 240.538792 269.828298 
L 242.275807 204.848726 
L 244.012822 177.093901 
L 245.749837 178.57559 
L 247.486852 172.240834 
L 249.223867 217.614871 
L 250.960882 226.086266 
L 252.697897 229.006696 
L 254.434912 267.498396 
L 256.171927 201.520294 
L 257.908942 195.572065 
L 259.645957 180.314964 
L 261.382972 233.172604 
L 263.119987 209.948742 
L 264.857002 249.932867 
L 266.594017 211.043903 
L 268.331032 190.504259 
L 270.068047 187.401302 
L 271.805062 144.732958 
L 273.542077 173.024626 
L 275.279092 242.857266 
L 277.016107 270.816091 
L 278.753122 211.065377 
L 280.490137 185.576033 
L 282.227152 195.464696 
L 283.964167 179.649278 
L 287.438197 197.837546 
L 289.175212 275.916107 
L 290.912227 214.028754 
L 292.649242 184.362766 
L 294.386257 189.817099 
L 296.123272 187.519408 
L 297.860287 195.464696 
L 299.597301 206.899469 
L 301.334316 264.062596 
L 303.071331 211.666642 
L 304.808346 174.355998 
L 306.545361 189.065518 
L 308.282376 176.331583 
L 310.019391 196.377331 
L 311.756406 155.437623 
L 313.493421 247.194964 
L 315.230436 216.927711 
L 316.967451 205.632518 
L 318.704466 209.283055 
L 320.441481 195.496907 
L 322.178496 196.377331 
L 323.915511 373.75052 
L 325.652526 282.422654 
L 327.389541 306.849046 
L 329.126556 213.363068 
L 330.863571 200.46808 
L 332.600586 160.956377 
L 334.337601 213.4597 
L 336.074616 369.767139 
L 337.811631 246.164224 
L 339.548646 285.922875 
L 341.285661 198.57839 
L 343.022676 198.589127 
L 344.759691 166.045656 
L 346.496706 201.15524 
L 348.233721 257.513102 
L 349.970736 380.525488 
L 351.707751 224.379103 
L 353.444766 201.037135 
L 355.181781 380.579173 
L 356.918796 195.980066 
L 358.655811 370.014087 
L 360.392826 196.119646 
L 362.129841 239.936836 
L 363.866856 221.909621 
L 365.603871 200.532501 
L 367.340886 221.512357 
L 369.0779 190.310996 
L 370.814915 202.304086 
L 372.55193 199.104497 
L 374.288945 281.016123 
L 376.02596 377.175583 
L 377.762975 199.501761 
L 379.49999 231.647968 
L 381.237005 363.325013 
L 382.97402 179.466751 
L 384.711035 157.724577 
L 386.44805 250.426764 
L 388.185065 205.278201 
L 389.92208 377.959375 
L 391.659095 178.317905 
L 393.39611 150.079922 
L 395.133125 151.744138 
L 396.87014 179.43454 
L 398.607155 235.137452 
L 400.34417 202.551034 
L 402.081185 180.143174 
L 403.8182 180.615597 
L 405.555215 159.195529 
L 407.29223 190.697523 
L 409.029245 368.961873 
L 410.76626 264.309544 
L 412.503275 221.168777 
L 414.24029 171.457042 
L 415.977305 188.539411 
L 417.71432 172.863572 
L 419.451335 161.128167 
L 421.18835 217.249817 
L 422.925365 249.417497 
L 424.66238 216.090235 
L 426.399395 198.717969 
L 428.13641 193.381742 
L 429.873425 162.545435 
L 431.61044 192.963004 
L 433.347455 207.092733 
L 435.08447 226.225845 
L 436.821484 214.844757 
L 438.558499 375.307367 
L 440.295514 187.519408 
L 442.032529 173.743996 
L 443.769544 202.067875 
L 445.506559 215.714444 
L 447.243574 259.639003 
L 448.980589 206.480731 
L 450.717604 201.176714 
L 452.454619 186.832248 
L 454.191634 174.313051 
L 455.928649 175.945056 
L 457.665664 201.273346 
L 459.402679 251.028029 
L 461.139694 211.237167 
L 462.876709 183.643396 
L 464.613724 185.114348 
L 466.350739 175.322317 
L 468.087754 185.060663 
L 469.824769 206.137151 
L 471.561784 221.50162 
L 473.298799 203.69988 
L 475.035814 197.021543 
L 476.772829 194.552062 
L 478.509844 153.945197 
L 480.246859 213.513384 
L 481.983874 257.749313 
L 483.720889 284.892135 
L 485.457904 219.354245 
L 487.194919 191.588684 
L 488.931934 196.731647 
L 490.668949 196.076698 
L 492.405964 199.40513 
L 494.142979 249.267181 
L 495.879994 293.921848 
L 497.617009 220.975513 
L 499.354024 207.565155 
L 501.091039 200.81166 
L 502.828054 193.11332 
L 504.565068 205.922413 
L 506.302083 254.227618 
L 508.039098 281.638862 
L 509.776113 215.478233 
L 511.513128 198.395863 
L 513.250143 196.828279 
L 514.987158 182.193918 
L 516.724173 205.857992 
L 520.198203 275.937581 
L 521.935218 219.622667 
L 523.672233 194.498377 
L 525.409248 192.490581 
L 527.146263 172.133465 
L 528.883278 241.601052 
L 530.620293 244.521482 
L 532.357308 270.010825 
L 534.094323 201.037135 
L 537.568353 177.265691 
L 539.305368 184.89961 
L 541.042383 185.479402 
L 542.779398 226.204372 
L 544.516413 275.647685 
L 546.253428 208.499263 
L 547.990443 185.651192 
L 549.727458 178.57559 
L 551.464473 174.162734 
L 553.201488 187.014775 
L 554.938503 234.589872 
L 556.675518 273.736521 
L 558.412533 209.326003 
L 560.149548 184.824452 
L 561.886563 182.966973 
L 563.623578 182.859604 
L 565.360593 200.618396 
L 567.097608 234.138923 
L 568.834623 278.267483 
L 570.571638 228.126272 
L 572.308652 192.952267 
L 574.045667 212.976541 
L 575.782682 181.12023 
L 577.519697 188.882991 
L 579.256712 195.86196 
L 580.993727 281.574441 
L 582.730742 214.49044 
L 584.467757 185.973298 
L 586.204772 182.462339 
L 587.941787 173.368206 
L 589.678802 118.352454 
L 591.415817 141.372315 
L 593.152832 251.167608 
L 594.889847 240.237468 
L 596.626862 195.733118 
L 598.363877 171.478515 
L 600.100892 169.706931 
L 601.837907 190.429101 
L 603.574922 191.126998 
L 605.311937 259.918162 
L 607.048952 215.231285 
L 608.785967 195.088905 
L 610.522982 162.502487 
L 612.259997 168.579559 
L 613.997012 194.552062 
L 615.734027 234.826083 
L 617.471042 261.152903 
L 619.208057 207.47926 
L 620.945072 180.46528 
L 622.682087 181.549705 
L 624.419102 172.154939 
L 626.156117 179.735173 
L 627.893132 197.279228 
L 629.630147 369.176611 
L 631.367162 210.592954 
L 633.104177 181.818127 
L 634.841192 187.970357 
L 636.578207 174.882105 
L 638.315222 189.044044 
L 640.052236 240.205258 
L 641.789251 266.510604 
L 643.526266 221.093619 
L 645.263281 189.634572 
L 647.000296 169.288193 
L 648.737311 163.479543 
L 650.474326 115.657498 
L 652.211341 176.600005 
L 653.948356 250.448237 
L 655.685371 196.635016 
L 657.422386 180.712229 
L 659.159401 171.39262 
L 660.896416 156.210678 
L 662.633431 265.694601 
L 664.370446 241.70842 
L 666.107461 262.752697 
L 667.844476 212.439697 
L 669.581491 270.161141 
L 671.318506 143.036531 
L 673.055521 198.846812 
L 674.792536 202.937562 
L 676.529551 270.193352 
L 678.266566 290.486047 
L 680.003581 225.001842 
L 681.740596 230.037436 
L 683.477611 377.379584 
L 685.214626 290.153204 
L 686.951641 231.046703 
L 688.688656 225.699739 
L 692.162686 249.567814 
L 693.899701 263.536489 
L 695.636716 228.190694 
L 695.636716 228.190694 
" clip-path="url(#p4c175c0889)" style="fill: none; stroke: #83c966; stroke-opacity: 0.8; stroke-width: 2.5; stroke-linecap: square"/>
   </g>
   <g id="patch_3">
    <path d="M 61.62625 384.1975 
L 61.62625 39.3575 
" style="fill: none; stroke: #000000; stroke-width: 0.8; stroke-linejoin: miter; stroke-linecap: square"/>
   </g>
   <g id="patch_4">
    <path d="M 61.62625 384.1975 
L 704.321791 384.1975 
" style="fill: none; stroke: #000000; stroke-width: 0.8; stroke-linejoin: miter; stroke-linecap: square"/>
   </g>
   <g id="text_23">
    <!-- Pedestrian Traffic at Bourke St - Spencer St (North) -->
    <g transform="translate(179.49777 19.3575) scale(0.16 -0.16)">
     <defs>
      <path id="DejaVuSans-50" d="M 1259 4147 
L 1259 2394 
L 2053 2394 
Q 2494 2394 2734 2622 
Q 2975 2850 2975 3272 
Q 2975 3691 2734 3919 
Q 2494 4147 2053 4147 
L 1259 4147 
z
M 628 4666 
L 2053 4666 
Q 2838 4666 3239 4311 
Q 3641 3956 3641 3272 
Q 3641 2581 3239 2228 
Q 2838 1875 2053 1875 
L 1259 1875 
L 1259 0 
L 628 0 
L 628 4666 
z
" transform="scale(0.015625)"/>
      <path id="DejaVuSans-54" d="M -19 4666 
L 3928 4666 
L 3928 4134 
L 2272 4134 
L 2272 0 
L 1638 0 
L 1638 4134 
L -19 4134 
L -19 4666 
z
" transform="scale(0.015625)"/>
      <path id="DejaVuSans-42" d="M 1259 2228 
L 1259 519 
L 2272 519 
Q 2781 519 3026 730 
Q 3272 941 3272 1375 
Q 3272 1813 3026 2020 
Q 2781 2228 2272 2228 
L 1259 2228 
z
M 1259 4147 
L 1259 2741 
L 2194 2741 
Q 2656 2741 2882 2914 
Q 3109 3088 3109 3444 
Q 3109 3797 2882 3972 
Q 2656 4147 2194 4147 
L 1259 4147 
z
M 628 4666 
L 2241 4666 
Q 2963 4666 3353 4366 
Q 3744 4066 3744 3513 
Q 3744 3084 3544 2831 
Q 3344 2578 2956 2516 
Q 3422 2416 3680 2098 
Q 3938 1781 3938 1306 
Q 3938 681 3513 340 
Q 3088 0 2303 0 
L 628 0 
L 628 4666 
z
" transform="scale(0.015625)"/>
      <path id="DejaVuSans-6b" d="M 581 4863 
L 1159 4863 
L 1159 1991 
L 2875 3500 
L 3609 3500 
L 1753 1863 
L 3688 0 
L 2938 0 
L 1159 1709 
L 1159 0 
L 581 0 
L 581 4863 
z
" transform="scale(0.015625)"/>
      <path id="DejaVuSans-2d" d="M 313 2009 
L 1997 2009 
L 1997 1497 
L 313 1497 
L 313 2009 
z
" transform="scale(0.015625)"/>
      <path id="DejaVuSans-28" d="M 1984 4856 
Q 1566 4138 1362 3434 
Q 1159 2731 1159 2009 
Q 1159 1288 1364 580 
Q 1569 -128 1984 -844 
L 1484 -844 
Q 1016 -109 783 600 
Q 550 1309 550 2009 
Q 550 2706 781 3412 
Q 1013 4119 1484 4856 
L 1984 4856 
z
" transform="scale(0.015625)"/>
      <path id="DejaVuSans-29" d="M 513 4856 
L 1013 4856 
Q 1481 4119 1714 3412 
Q 1947 2706 1947 2009 
Q 1947 1309 1714 600 
Q 1481 -109 1013 -844 
L 513 -844 
Q 928 -128 1133 580 
Q 1338 1288 1338 2009 
Q 1338 2731 1133 3434 
Q 928 4138 513 4856 
z
" transform="scale(0.015625)"/>
     </defs>
     <use xlink:href="#DejaVuSans-50"/>
     <use xlink:href="#DejaVuSans-65" transform="translate(56.677734 0)"/>
     <use xlink:href="#DejaVuSans-64" transform="translate(118.201172 0)"/>
     <use xlink:href="#DejaVuSans-65" transform="translate(181.677734 0)"/>
     <use xlink:href="#DejaVuSans-73" transform="translate(243.201172 0)"/>
     <use xlink:href="#DejaVuSans-74" transform="translate(295.300781 0)"/>
     <use xlink:href="#DejaVuSans-72" transform="translate(334.509766 0)"/>
     <use xlink:href="#DejaVuSans-69" transform="translate(375.623047 0)"/>
     <use xlink:href="#DejaVuSans-61" transform="translate(403.40625 0)"/>
     <use xlink:href="#DejaVuSans-6e" transform="translate(464.685547 0)"/>
     <use xlink:href="#DejaVuSans-20" transform="translate(528.064453 0)"/>
     <use xlink:href="#DejaVuSans-54" transform="translate(559.851562 0)"/>
     <use xlink:href="#DejaVuSans-72" transform="translate(606.185547 0)"/>
     <use xlink:href="#DejaVuSans-61" transform="translate(647.298828 0)"/>
     <use xlink:href="#DejaVuSans-66" transform="translate(708.578125 0)"/>
     <use xlink:href="#DejaVuSans-66" transform="translate(743.783203 0)"/>
     <use xlink:href="#DejaVuSans-69" transform="translate(778.988281 0)"/>
     <use xlink:href="#DejaVuSans-63" transform="translate(806.771484 0)"/>
     <use xlink:href="#DejaVuSans-20" transform="translate(861.751953 0)"/>
     <use xlink:href="#DejaVuSans-61" transform="translate(893.539062 0)"/>
     <use xlink:href="#DejaVuSans-74" transform="translate(954.818359 0)"/>
     <use xlink:href="#DejaVuSans-20" transform="translate(994.027344 0)"/>
     <use xlink:href="#DejaVuSans-42" transform="translate(1025.814453 0)"/>
     <use xlink:href="#DejaVuSans-6f" transform="translate(1094.417969 0)"/>
     <use xlink:href="#DejaVuSans-75" transform="translate(1155.599609 0)"/>
     <use xlink:href="#DejaVuSans-72" transform="translate(1218.978516 0)"/>
     <use xlink:href="#DejaVuSans-6b" transform="translate(1260.091797 0)"/>
     <use xlink:href="#DejaVuSans-65" transform="translate(1314.376953 0)"/>
     <use xlink:href="#DejaVuSans-20" transform="translate(1375.900391 0)"/>
     <use xlink:href="#DejaVuSans-53" transform="translate(1407.6875 0)"/>
     <use xlink:href="#DejaVuSans-74" transform="translate(1471.164062 0)"/>
     <use xlink:href="#DejaVuSans-20" transform="translate(1510.373047 0)"/>
     <use xlink:href="#DejaVuSans-2d" transform="translate(1542.160156 0)"/>
     <use xlink:href="#DejaVuSans-20" transform="translate(1578.244141 0)"/>
     <use xlink:href="#DejaVuSans-53" transform="translate(1610.03125 0)"/>
     <use xlink:href="#DejaVuSans-70" transform="translate(1673.507812 0)"/>
     <use xlink:href="#DejaVuSans-65" transform="translate(1736.984375 0)"/>
     <use xlink:href="#DejaVuSans-6e" transform="translate(1798.507812 0)"/>
     <use xlink:href="#DejaVuSans-63" transform="translate(1861.886719 0)"/>
     <use xlink:href="#DejaVuSans-65" transform="translate(1916.867188 0)"/>
     <use xlink:href="#DejaVuSans-72" transform="translate(1978.390625 0)"/>
     <use xlink:href="#DejaVuSans-20" transform="translate(2019.503906 0)"/>
     <use xlink:href="#DejaVuSans-53" transform="translate(2051.291016 0)"/>
     <use xlink:href="#DejaVuSans-74" transform="translate(2114.767578 0)"/>
     <use xlink:href="#DejaVuSans-20" transform="translate(2153.976562 0)"/>
     <use xlink:href="#DejaVuSans-28" transform="translate(2185.763672 0)"/>
     <use xlink:href="#DejaVuSans-4e" transform="translate(2224.777344 0)"/>
     <use xlink:href="#DejaVuSans-6f" transform="translate(2299.582031 0)"/>
     <use xlink:href="#DejaVuSans-72" transform="translate(2360.763672 0)"/>
     <use xlink:href="#DejaVuSans-74" transform="translate(2401.876953 0)"/>
     <use xlink:href="#DejaVuSans-68" transform="translate(2441.085938 0)"/>
     <use xlink:href="#DejaVuSans-29" transform="translate(2504.464844 0)"/>
    </g>
   </g>
   <g id="legend_1">
    <g id="patch_5">
     <path d="M 69.32625 80.449375 
L 132.52125 80.449375 
Q 134.72125 80.449375 134.72125 78.249375 
L 134.72125 47.0575 
Q 134.72125 44.8575 132.52125 44.8575 
L 69.32625 44.8575 
Q 67.12625 44.8575 67.12625 47.0575 
L 67.12625 78.249375 
Q 67.12625 80.449375 69.32625 80.449375 
z
" style="fill: #ffffff; opacity: 0.95; stroke: #cccccc; stroke-linejoin: miter"/>
    </g>
    <g id="line2d_43">
     <path d="M 71.52625 53.765781 
L 82.52625 53.765781 
L 93.52625 53.765781 
" style="fill: none; stroke: #0d6efc; stroke-opacity: 0.8; stroke-width: 2.5; stroke-linecap: square"/>
    </g>
    <g id="text_24">
     <!-- 2019 -->
     <g transform="translate(102.32625 57.615781) scale(0.11 -0.11)">
      <defs>
       <path id="DejaVuSans-39" d="M 703 97 
L 703 672 
Q 941 559 1184 500 
Q 1428 441 1663 441 
Q 2288 441 2617 861 
Q 2947 1281 2994 2138 
Q 2813 1869 2534 1725 
Q 2256 1581 1919 1581 
Q 1219 1581 811 2004 
Q 403 2428 403 3163 
Q 403 3881 828 4315 
Q 1253 4750 1959 4750 
Q 2769 4750 3195 4129 
Q 3622 3509 3622 2328 
Q 3622 1225 3098 567 
Q 2575 -91 1691 -91 
Q 1453 -91 1209 -44 
Q 966 3 703 97 
z
M 1959 2075 
Q 2384 2075 2632 2365 
Q 2881 2656 2881 3163 
Q 2881 3666 2632 3958 
Q 2384 4250 1959 4250 
Q 1534 4250 1286 3958 
Q 1038 3666 1038 3163 
Q 1038 2656 1286 2365 
Q 1534 2075 1959 2075 
z
" transform="scale(0.015625)"/>
      </defs>
      <use xlink:href="#DejaVuSans-32"/>
      <use xlink:href="#DejaVuSans-30" transform="translate(63.623047 0)"/>
      <use xlink:href="#DejaVuSans-31" transform="translate(127.246094 0)"/>
      <use xlink:href="#DejaVuSans-39" transform="translate(190.869141 0)"/>
     </g>
    </g>
    <g id="line2d_44">
     <path d="M 71.52625 69.911719 
L 82.52625 69.911719 
L 93.52625 69.911719 
" style="fill: none; stroke: #83c966; stroke-opacity: 0.8; stroke-width: 2.5; stroke-linecap: square"/>
    </g>
    <g id="text_25">
     <!-- 2025 -->
     <g transform="translate(102.32625 73.761719) scale(0.11 -0.11)">
      <use xlink:href="#DejaVuSans-32"/>
      <use xlink:href="#DejaVuSans-30" transform="translate(63.623047 0)"/>
      <use xlink:href="#DejaVuSans-32" transform="translate(127.246094 0)"/>
      <use xlink:href="#DejaVuSans-35" transform="translate(190.869141 0)"/>
     </g>
    </g>
   </g>
  </g>
 </g>
 <defs>
  <clipPath id="p4c175c0889">
   <rect x="61.62625" y="39.3575" width="642.695541" height="344.84"/>
  </clipPath>
 </defs>
</svg>
