<?xml version="1.0" encoding="utf-8" standalone="no"?>
<!DOCTYPE svg PUBLIC "-//W3C//DTD SVG 1.1//EN"
  "http://www.w3.org/Graphics/SVG/1.1/DTD/svg11.dtd">
<svg xmlns:xlink="http://www.w3.org/1999/xlink" width="855.67625pt" height="423.689375pt" viewBox="0 0 855.67625 423.689375" xmlns="http://www.w3.org/2000/svg" version="1.1">
 <metadata>
  <rdf:RDF xmlns:dc="http://purl.org/dc/elements/1.1/" xmlns:cc="http://creativecommons.org/ns#" xmlns:rdf="http://www.w3.org/1999/02/22-rdf-syntax-ns#">
   <cc:Work>
    <dc:type rdf:resource="http://purl.org/dc/dcmitype/StillImage"/>
    <dc:date>2026-01-27T16:22:03.152809</dc:date>
    <dc:format>image/svg+xml</dc:format>
    <dc:creator>
     <cc:Agent>
      <dc:title>Matplotlib v3.10.8, https://matplotlib.org/</dc:title>
     </cc:Agent>
    </dc:creator>
   </cc:Work>
  </rdf:RDF>
 </metadata>
 <defs>
  <style type="text/css">*{stroke-linejoin: round; stroke-linecap: butt}</style>
 </defs>
 <g id="figure_1">
  <g id="patch_1">
   <path d="M 0 423.689375 
L 855.67625 423.689375 
L 855.67625 0 
L 0 0 
L 0 423.689375 
z
" style="fill: none"/>
  </g>
  <g id="axes_1">
   <g id="patch_2">
    <path d="M 61.62625 384.1975 
L 848.47625 384.1975 
L 848.47625 39.3575 
L 61.62625 39.3575 
L 61.62625 384.1975 
z
" style="fill: none"/>
   </g>
   <g id="matplotlib.axis_1">
    <g id="xtick_1">
     <g id="line2d_1">
      <path d="M 61.62625 384.1975 
L 61.62625 39.3575 
" clip-path="url(#pe5b973771b)" style="fill: none; stroke-dasharray: 2.96,1.28; stroke-dashoffset: 0; stroke: #b0b0b0; stroke-opacity: 0.3; stroke-width: 0.8"/>
     </g>
     <g id="line2d_2">
      <defs>
       <path id="maedcfb5491" d="M 0 0 
L 0 3.5 
" style="stroke: #000000; stroke-width: 0.8"/>
      </defs>
      <g>
       <use xlink:href="#maedcfb5491" x="61.62625" y="384.1975" style="stroke: #000000; stroke-width: 0.8"/>
      </g>
     </g>
     <g id="text_1">
      <!-- Jan -->
      <g transform="translate(53.918438 398.795937) scale(0.1 -0.1)">
       <defs>
        <path id="DejaVuSans-4a" d="M 628 4666 
L 1259 4666 
L 1259 325 
Q 1259 -519 939 -900 
Q 619 -1281 -91 -1281 
L -331 -1281 
L -331 -750 
L -134 -750 
Q 284 -750 456 -515 
Q 628 -281 628 325 
L 628 4666 
z
" transform="scale(0.015625)"/>
        <path id="DejaVuSans-61" d="M 2194 1759 
Q 1497 1759 1228 1600 
Q 959 1441 959 1056 
Q 959 750 1161 570 
Q 1363 391 1709 391 
Q 2188 391 2477 730 
Q 2766 1069 2766 1631 
L 2766 1759 
L 2194 1759 
z
M 3341 1997 
L 3341 0 
L 2766 0 
L 2766 531 
Q 2569 213 2275 61 
Q 1981 -91 1556 -91 
Q 1019 -91 701 211 
Q 384 513 384 1019 
Q 384 1609 779 1909 
Q 1175 2209 1959 2209 
L 2766 2209 
L 2766 2266 
Q 2766 2663 2505 2880 
Q 2244 3097 1772 3097 
Q 1472 3097 1187 3025 
Q 903 2953 641 2809 
L 641 3341 
Q 956 3463 1253 3523 
Q 1550 3584 1831 3584 
Q 2591 3584 2966 3190 
Q 3341 2797 3341 1997 
z
" transform="scale(0.015625)"/>
        <path id="DejaVuSans-6e" d="M 3513 2113 
L 3513 0 
L 2938 0 
L 2938 2094 
Q 2938 2591 2744 2837 
Q 2550 3084 2163 3084 
Q 1697 3084 1428 2787 
Q 1159 2491 1159 1978 
L 1159 0 
L 581 0 
L 581 3500 
L 1159 3500 
L 1159 2956 
Q 1366 3272 1645 3428 
Q 1925 3584 2291 3584 
Q 2894 3584 3203 3211 
Q 3513 2838 3513 2113 
z
" transform="scale(0.015625)"/>
       </defs>
       <use xlink:href="#DejaVuSans-4a"/>
       <use xlink:href="#DejaVuSans-61" transform="translate(29.492188 0)"/>
       <use xlink:href="#DejaVuSans-6e" transform="translate(90.771484 0)"/>
      </g>
     </g>
    </g>
    <g id="xtick_2">
     <g id="line2d_3">
      <path d="M 127.55152 384.1975 
L 127.55152 39.3575 
" clip-path="url(#pe5b973771b)" style="fill: none; stroke-dasharray: 2.96,1.28; stroke-dashoffset: 0; stroke: #b0b0b0; stroke-opacity: 0.3; stroke-width: 0.8"/>
     </g>
     <g id="line2d_4">
      <g>
       <use xlink:href="#maedcfb5491" x="127.55152" y="384.1975" style="stroke: #000000; stroke-width: 0.8"/>
      </g>
     </g>
     <g id="text_2">
      <!-- Feb -->
      <g transform="translate(118.699958 398.795937) scale(0.1 -0.1)">
       <defs>
        <path id="DejaVuSans-46" d="M 628 4666 
L 3309 4666 
L 3309 4134 
L 1259 4134 
L 1259 2759 
L 3109 2759 
L 3109 2228 
L 1259 2228 
L 1259 0 
L 628 0 
L 628 4666 
z
" transform="scale(0.015625)"/>
        <path id="DejaVuSans-65" d="M 3597 1894 
L 3597 1613 
L 953 1613 
Q 991 1019 1311 708 
Q 1631 397 2203 397 
Q 2534 397 2845 478 
Q 3156 559 3463 722 
L 3463 178 
Q 3153 47 2828 -22 
Q 2503 -91 2169 -91 
Q 1331 -91 842 396 
Q 353 884 353 1716 
Q 353 2575 817 3079 
Q 1281 3584 2069 3584 
Q 2775 3584 3186 3129 
Q 3597 2675 3597 1894 
z
M 3022 2063 
Q 3016 2534 2758 2815 
Q 2500 3097 2075 3097 
Q 1594 3097 1305 2825 
Q 1016 2553 972 2059 
L 3022 2063 
z
" transform="scale(0.015625)"/>
        <path id="DejaVuSans-62" d="M 3116 1747 
Q 3116 2381 2855 2742 
Q 2594 3103 2138 3103 
Q 1681 3103 1420 2742 
Q 1159 2381 1159 1747 
Q 1159 1113 1420 752 
Q 1681 391 2138 391 
Q 2594 391 2855 752 
Q 3116 1113 3116 1747 
z
M 1159 2969 
Q 1341 3281 1617 3432 
Q 1894 3584 2278 3584 
Q 2916 3584 3314 3078 
Q 3713 2572 3713 1747 
Q 3713 922 3314 415 
Q 2916 -91 2278 -91 
Q 1894 -91 1617 61 
Q 1341 213 1159 525 
L 1159 0 
L 581 0 
L 581 4863 
L 1159 4863 
L 1159 2969 
z
" transform="scale(0.015625)"/>
       </defs>
       <use xlink:href="#DejaVuSans-46"/>
       <use xlink:href="#DejaVuSans-65" transform="translate(52.019531 0)"/>
       <use xlink:href="#DejaVuSans-62" transform="translate(113.542969 0)"/>
      </g>
     </g>
    </g>
    <g id="xtick_3">
     <g id="line2d_5">
      <path d="M 187.096926 384.1975 
L 187.096926 39.3575 
" clip-path="url(#pe5b973771b)" style="fill: none; stroke-dasharray: 2.96,1.28; stroke-dashoffset: 0; stroke: #b0b0b0; stroke-opacity: 0.3; stroke-width: 0.8"/>
     </g>
     <g id="line2d_6">
      <g>
       <use xlink:href="#maedcfb5491" x="187.096926" y="384.1975" style="stroke: #000000; stroke-width: 0.8"/>
      </g>
     </g>
     <g id="text_3">
      <!-- Mar -->
      <g transform="translate(177.663332 398.795937) scale(0.1 -0.1)">
       <defs>
        <path id="DejaVuSans-4d" d="M 628 4666 
L 1569 4666 
L 2759 1491 
L 3956 4666 
L 4897 4666 
L 4897 0 
L 4281 0 
L 4281 4097 
L 3078 897 
L 2444 897 
L 1241 4097 
L 1241 0 
L 628 0 
L 628 4666 
z
" transform="scale(0.015625)"/>
        <path id="DejaVuSans-72" d="M 2631 2963 
Q 2534 3019 2420 3045 
Q 2306 3072 2169 3072 
Q 1681 3072 1420 2755 
Q 1159 2438 1159 1844 
L 1159 0 
L 581 0 
L 581 3500 
L 1159 3500 
L 1159 2956 
Q 1341 3275 1631 3429 
Q 1922 3584 2338 3584 
Q 2397 3584 2469 3576 
Q 2541 3569 2628 3553 
L 2631 2963 
z
" transform="scale(0.015625)"/>
       </defs>
       <use xlink:href="#DejaVuSans-4d"/>
       <use xlink:href="#DejaVuSans-61" transform="translate(86.279297 0)"/>
       <use xlink:href="#DejaVuSans-72" transform="translate(147.558594 0)"/>
      </g>
     </g>
    </g>
    <g id="xtick_4">
     <g id="line2d_7">
      <path d="M 253.022196 384.1975 
L 253.022196 39.3575 
" clip-path="url(#pe5b973771b)" style="fill: none; stroke-dasharray: 2.96,1.28; stroke-dashoffset: 0; stroke: #b0b0b0; stroke-opacity: 0.3; stroke-width: 0.8"/>
     </g>
     <g id="line2d_8">
      <g>
       <use xlink:href="#maedcfb5491" x="253.022196" y="384.1975" style="stroke: #000000; stroke-width: 0.8"/>
      </g>
     </g>
     <g id="text_4">
      <!-- Apr -->
      <g transform="translate(244.372196 398.795937) scale(0.1 -0.1)">
       <defs>
        <path id="DejaVuSans-41" d="M 2188 4044 
L 1331 1722 
L 3047 1722 
L 2188 4044 
z
M 1831 4666 
L 2547 4666 
L 4325 0 
L 3669 0 
L 3244 1197 
L 1141 1197 
L 716 0 
L 50 0 
L 1831 4666 
z
" transform="scale(0.015625)"/>
        <path id="DejaVuSans-70" d="M 1159 525 
L 1159 -1331 
L 581 -1331 
L 581 3500 
L 1159 3500 
L 1159 2969 
Q 1341 3281 1617 3432 
Q 1894 3584 2278 3584 
Q 2916 3584 3314 3078 
Q 3713 2572 3713 1747 
Q 3713 922 3314 415 
Q 2916 -91 2278 -91 
Q 1894 -91 1617 61 
Q 1341 213 1159 525 
z
M 3116 1747 
Q 3116 2381 2855 2742 
Q 2594 3103 2138 3103 
Q 1681 3103 1420 2742 
Q 1159 2381 1159 1747 
Q 1159 1113 1420 752 
Q 1681 391 2138 391 
Q 2594 391 2855 752 
Q 3116 1113 3116 1747 
z
" transform="scale(0.015625)"/>
       </defs>
       <use xlink:href="#DejaVuSans-41"/>
       <use xlink:href="#DejaVuSans-70" transform="translate(68.408203 0)"/>
       <use xlink:href="#DejaVuSans-72" transform="translate(131.884766 0)"/>
      </g>
     </g>
    </g>
    <g id="xtick_5">
     <g id="line2d_9">
      <path d="M 316.820845 384.1975 
L 316.820845 39.3575 
" clip-path="url(#pe5b973771b)" style="fill: none; stroke-dasharray: 2.96,1.28; stroke-dashoffset: 0; stroke: #b0b0b0; stroke-opacity: 0.3; stroke-width: 0.8"/>
     </g>
     <g id="line2d_10">
      <g>
       <use xlink:href="#maedcfb5491" x="316.820845" y="384.1975" style="stroke: #000000; stroke-width: 0.8"/>
      </g>
     </g>
     <g id="text_5">
      <!-- May -->
      <g transform="translate(306.483345 398.795937) scale(0.1 -0.1)">
       <defs>
        <path id="DejaVuSans-79" d="M 2059 -325 
Q 1816 -950 1584 -1140 
Q 1353 -1331 966 -1331 
L 506 -1331 
L 506 -850 
L 844 -850 
Q 1081 -850 1212 -737 
Q 1344 -625 1503 -206 
L 1606 56 
L 191 3500 
L 800 3500 
L 1894 763 
L 2988 3500 
L 3597 3500 
L 2059 -325 
z
" transform="scale(0.015625)"/>
       </defs>
       <use xlink:href="#DejaVuSans-4d"/>
       <use xlink:href="#DejaVuSans-61" transform="translate(86.279297 0)"/>
       <use xlink:href="#DejaVuSans-79" transform="translate(147.558594 0)"/>
      </g>
     </g>
    </g>
    <g id="xtick_6">
     <g id="line2d_11">
      <path d="M 382.746115 384.1975 
L 382.746115 39.3575 
" clip-path="url(#pe5b973771b)" style="fill: none; stroke-dasharray: 2.96,1.28; stroke-dashoffset: 0; stroke: #b0b0b0; stroke-opacity: 0.3; stroke-width: 0.8"/>
     </g>
     <g id="line2d_12">
      <g>
       <use xlink:href="#maedcfb5491" x="382.746115" y="384.1975" style="stroke: #000000; stroke-width: 0.8"/>
      </g>
     </g>
     <g id="text_6">
      <!-- Jun -->
      <g transform="translate(374.933615 398.795937) scale(0.1 -0.1)">
       <defs>
        <path id="DejaVuSans-75" d="M 544 1381 
L 544 3500 
L 1119 3500 
L 1119 1403 
Q 1119 906 1312 657 
Q 1506 409 1894 409 
Q 2359 409 2629 706 
Q 2900 1003 2900 1516 
L 2900 3500 
L 3475 3500 
L 3475 0 
L 2900 0 
L 2900 538 
Q 2691 219 2414 64 
Q 2138 -91 1772 -91 
Q 1169 -91 856 284 
Q 544 659 544 1381 
z
M 1991 3584 
L 1991 3584 
z
" transform="scale(0.015625)"/>
       </defs>
       <use xlink:href="#DejaVuSans-4a"/>
       <use xlink:href="#DejaVuSans-75" transform="translate(29.492188 0)"/>
       <use xlink:href="#DejaVuSans-6e" transform="translate(92.871094 0)"/>
      </g>
     </g>
    </g>
    <g id="xtick_7">
     <g id="line2d_13">
      <path d="M 446.544764 384.1975 
L 446.544764 39.3575 
" clip-path="url(#pe5b973771b)" style="fill: none; stroke-dasharray: 2.96,1.28; stroke-dashoffset: 0; stroke: #b0b0b0; stroke-opacity: 0.3; stroke-width: 0.8"/>
     </g>
     <g id="line2d_14">
      <g>
       <use xlink:href="#maedcfb5491" x="446.544764" y="384.1975" style="stroke: #000000; stroke-width: 0.8"/>
      </g>
     </g>
     <g id="text_7">
      <!-- Jul -->
      <g transform="translate(440.511951 398.795937) scale(0.1 -0.1)">
       <defs>
        <path id="DejaVuSans-6c" d="M 603 4863 
L 1178 4863 
L 1178 0 
L 603 0 
L 603 4863 
z
" transform="scale(0.015625)"/>
       </defs>
       <use xlink:href="#DejaVuSans-4a"/>
       <use xlink:href="#DejaVuSans-75" transform="translate(29.492188 0)"/>
       <use xlink:href="#DejaVuSans-6c" transform="translate(92.871094 0)"/>
      </g>
     </g>
    </g>
    <g id="xtick_8">
     <g id="line2d_15">
      <path d="M 512.470034 384.1975 
L 512.470034 39.3575 
" clip-path="url(#pe5b973771b)" style="fill: none; stroke-dasharray: 2.96,1.28; stroke-dashoffset: 0; stroke: #b0b0b0; stroke-opacity: 0.3; stroke-width: 0.8"/>
     </g>
     <g id="line2d_16">
      <g>
       <use xlink:href="#maedcfb5491" x="512.470034" y="384.1975" style="stroke: #000000; stroke-width: 0.8"/>
      </g>
     </g>
     <g id="text_8">
      <!-- Aug -->
      <g transform="translate(502.706753 398.795937) scale(0.1 -0.1)">
       <defs>
        <path id="DejaVuSans-67" d="M 2906 1791 
Q 2906 2416 2648 2759 
Q 2391 3103 1925 3103 
Q 1463 3103 1205 2759 
Q 947 2416 947 1791 
Q 947 1169 1205 825 
Q 1463 481 1925 481 
Q 2391 481 2648 825 
Q 2906 1169 2906 1791 
z
M 3481 434 
Q 3481 -459 3084 -895 
Q 2688 -1331 1869 -1331 
Q 1566 -1331 1297 -1286 
Q 1028 -1241 775 -1147 
L 775 -588 
Q 1028 -725 1275 -790 
Q 1522 -856 1778 -856 
Q 2344 -856 2625 -561 
Q 2906 -266 2906 331 
L 2906 616 
Q 2728 306 2450 153 
Q 2172 0 1784 0 
Q 1141 0 747 490 
Q 353 981 353 1791 
Q 353 2603 747 3093 
Q 1141 3584 1784 3584 
Q 2172 3584 2450 3431 
Q 2728 3278 2906 2969 
L 2906 3500 
L 3481 3500 
L 3481 434 
z
" transform="scale(0.015625)"/>
       </defs>
       <use xlink:href="#DejaVuSans-41"/>
       <use xlink:href="#DejaVuSans-75" transform="translate(68.408203 0)"/>
       <use xlink:href="#DejaVuSans-67" transform="translate(131.787109 0)"/>
      </g>
     </g>
    </g>
    <g id="xtick_9">
     <g id="line2d_17">
      <path d="M 578.395304 384.1975 
L 578.395304 39.3575 
" clip-path="url(#pe5b973771b)" style="fill: none; stroke-dasharray: 2.96,1.28; stroke-dashoffset: 0; stroke: #b0b0b0; stroke-opacity: 0.3; stroke-width: 0.8"/>
     </g>
     <g id="line2d_18">
      <g>
       <use xlink:href="#maedcfb5491" x="578.395304" y="384.1975" style="stroke: #000000; stroke-width: 0.8"/>
      </g>
     </g>
     <g id="text_9">
      <!-- Sep -->
      <g transform="translate(568.970304 398.795937) scale(0.1 -0.1)">
       <defs>
        <path id="DejaVuSans-53" d="M 3425 4513 
L 3425 3897 
Q 3066 4069 2747 4153 
Q 2428 4238 2131 4238 
Q 1616 4238 1336 4038 
Q 1056 3838 1056 3469 
Q 1056 3159 1242 3001 
Q 1428 2844 1947 2747 
L 2328 2669 
Q 3034 2534 3370 2195 
Q 3706 1856 3706 1288 
Q 3706 609 3251 259 
Q 2797 -91 1919 -91 
Q 1588 -91 1214 -16 
Q 841 59 441 206 
L 441 856 
Q 825 641 1194 531 
Q 1563 422 1919 422 
Q 2459 422 2753 634 
Q 3047 847 3047 1241 
Q 3047 1584 2836 1778 
Q 2625 1972 2144 2069 
L 1759 2144 
Q 1053 2284 737 2584 
Q 422 2884 422 3419 
Q 422 4038 858 4394 
Q 1294 4750 2059 4750 
Q 2388 4750 2728 4690 
Q 3069 4631 3425 4513 
z
" transform="scale(0.015625)"/>
       </defs>
       <use xlink:href="#DejaVuSans-53"/>
       <use xlink:href="#DejaVuSans-65" transform="translate(63.476562 0)"/>
       <use xlink:href="#DejaVuSans-70" transform="translate(125 0)"/>
      </g>
     </g>
    </g>
    <g id="xtick_10">
     <g id="line2d_19">
      <path d="M 642.193953 384.1975 
L 642.193953 39.3575 
" clip-path="url(#pe5b973771b)" style="fill: none; stroke-dasharray: 2.96,1.28; stroke-dashoffset: 0; stroke: #b0b0b0; stroke-opacity: 0.3; stroke-width: 0.8"/>
     </g>
     <g id="line2d_20">
      <g>
       <use xlink:href="#maedcfb5491" x="642.193953" y="384.1975" style="stroke: #000000; stroke-width: 0.8"/>
      </g>
     </g>
     <g id="text_10">
      <!-- Oct -->
      <g transform="translate(633.54864 398.795937) scale(0.1 -0.1)">
       <defs>
        <path id="DejaVuSans-4f" d="M 2522 4238 
Q 1834 4238 1429 3725 
Q 1025 3213 1025 2328 
Q 1025 1447 1429 934 
Q 1834 422 2522 422 
Q 3209 422 3611 934 
Q 4013 1447 4013 2328 
Q 4013 3213 3611 3725 
Q 3209 4238 2522 4238 
z
M 2522 4750 
Q 3503 4750 4090 4092 
Q 4678 3434 4678 2328 
Q 4678 1225 4090 567 
Q 3503 -91 2522 -91 
Q 1538 -91 948 565 
Q 359 1222 359 2328 
Q 359 3434 948 4092 
Q 1538 4750 2522 4750 
z
" transform="scale(0.015625)"/>
        <path id="DejaVuSans-63" d="M 3122 3366 
L 3122 2828 
Q 2878 2963 2633 3030 
Q 2388 3097 2138 3097 
Q 1578 3097 1268 2742 
Q 959 2388 959 1747 
Q 959 1106 1268 751 
Q 1578 397 2138 397 
Q 2388 397 2633 464 
Q 2878 531 3122 666 
L 3122 134 
Q 2881 22 2623 -34 
Q 2366 -91 2075 -91 
Q 1284 -91 818 406 
Q 353 903 353 1747 
Q 353 2603 823 3093 
Q 1294 3584 2113 3584 
Q 2378 3584 2631 3529 
Q 2884 3475 3122 3366 
z
" transform="scale(0.015625)"/>
        <path id="DejaVuSans-74" d="M 1172 4494 
L 1172 3500 
L 2356 3500 
L 2356 3053 
L 1172 3053 
L 1172 1153 
Q 1172 725 1289 603 
Q 1406 481 1766 481 
L 2356 481 
L 2356 0 
L 1766 0 
Q 1100 0 847 248 
Q 594 497 594 1153 
L 594 3053 
L 172 3053 
L 172 3500 
L 594 3500 
L 594 4494 
L 1172 4494 
z
" transform="scale(0.015625)"/>
       </defs>
       <use xlink:href="#DejaVuSans-4f"/>
       <use xlink:href="#DejaVuSans-63" transform="translate(78.710938 0)"/>
       <use xlink:href="#DejaVuSans-74" transform="translate(133.691406 0)"/>
      </g>
     </g>
    </g>
    <g id="xtick_11">
     <g id="line2d_21">
      <path d="M 708.119223 384.1975 
L 708.119223 39.3575 
" clip-path="url(#pe5b973771b)" style="fill: none; stroke-dasharray: 2.96,1.28; stroke-dashoffset: 0; stroke: #b0b0b0; stroke-opacity: 0.3; stroke-width: 0.8"/>
     </g>
     <g id="line2d_22">
      <g>
       <use xlink:href="#maedcfb5491" x="708.119223" y="384.1975" style="stroke: #000000; stroke-width: 0.8"/>
      </g>
     </g>
     <g id="text_11">
      <!-- Nov -->
      <g transform="translate(698.359848 398.795937) scale(0.1 -0.1)">
       <defs>
        <path id="DejaVuSans-4e" d="M 628 4666 
L 1478 4666 
L 3547 763 
L 3547 4666 
L 4159 4666 
L 4159 0 
L 3309 0 
L 1241 3903 
L 1241 0 
L 628 0 
L 628 4666 
z
" transform="scale(0.015625)"/>
        <path id="DejaVuSans-6f" d="M 1959 3097 
Q 1497 3097 1228 2736 
Q 959 2375 959 1747 
Q 959 1119 1226 758 
Q 1494 397 1959 397 
Q 2419 397 2687 759 
Q 2956 1122 2956 1747 
Q 2956 2369 2687 2733 
Q 2419 3097 1959 3097 
z
M 1959 3584 
Q 2709 3584 3137 3096 
Q 3566 2609 3566 1747 
Q 3566 888 3137 398 
Q 2709 -91 1959 -91 
Q 1206 -91 779 398 
Q 353 888 353 1747 
Q 353 2609 779 3096 
Q 1206 3584 1959 3584 
z
" transform="scale(0.015625)"/>
        <path id="DejaVuSans-76" d="M 191 3500 
L 800 3500 
L 1894 563 
L 2988 3500 
L 3597 3500 
L 2284 0 
L 1503 0 
L 191 3500 
z
" transform="scale(0.015625)"/>
       </defs>
       <use xlink:href="#DejaVuSans-4e"/>
       <use xlink:href="#DejaVuSans-6f" transform="translate(74.804688 0)"/>
       <use xlink:href="#DejaVuSans-76" transform="translate(135.986328 0)"/>
      </g>
     </g>
    </g>
    <g id="xtick_12">
     <g id="line2d_23">
      <path d="M 771.917872 384.1975 
L 771.917872 39.3575 
" clip-path="url(#pe5b973771b)" style="fill: none; stroke-dasharray: 2.96,1.28; stroke-dashoffset: 0; stroke: #b0b0b0; stroke-opacity: 0.3; stroke-width: 0.8"/>
     </g>
     <g id="line2d_24">
      <g>
       <use xlink:href="#maedcfb5491" x="771.917872" y="384.1975" style="stroke: #000000; stroke-width: 0.8"/>
      </g>
     </g>
     <g id="text_12">
      <!-- Dec -->
      <g transform="translate(762.24209 398.795937) scale(0.1 -0.1)">
       <defs>
        <path id="DejaVuSans-44" d="M 1259 4147 
L 1259 519 
L 2022 519 
Q 2988 519 3436 956 
Q 3884 1394 3884 2338 
Q 3884 3275 3436 3711 
Q 2988 4147 2022 4147 
L 1259 4147 
z
M 628 4666 
L 1925 4666 
Q 3281 4666 3915 4102 
Q 4550 3538 4550 2338 
Q 4550 1131 3912 565 
Q 3275 0 1925 0 
L 628 0 
L 628 4666 
z
" transform="scale(0.015625)"/>
       </defs>
       <use xlink:href="#DejaVuSans-44"/>
       <use xlink:href="#DejaVuSans-65" transform="translate(77.001953 0)"/>
       <use xlink:href="#DejaVuSans-63" transform="translate(138.525391 0)"/>
      </g>
     </g>
    </g>
    <g id="xtick_13">
     <g id="line2d_25">
      <path d="M 837.843142 384.1975 
L 837.843142 39.3575 
" clip-path="url(#pe5b973771b)" style="fill: none; stroke-dasharray: 2.96,1.28; stroke-dashoffset: 0; stroke: #b0b0b0; stroke-opacity: 0.3; stroke-width: 0.8"/>
     </g>
     <g id="line2d_26">
      <g>
       <use xlink:href="#maedcfb5491" x="837.843142" y="384.1975" style="stroke: #000000; stroke-width: 0.8"/>
      </g>
     </g>
     <g id="text_13">
      <!-- Jan -->
      <g transform="translate(830.135329 398.795937) scale(0.1 -0.1)">
       <use xlink:href="#DejaVuSans-4a"/>
       <use xlink:href="#DejaVuSans-61" transform="translate(29.492188 0)"/>
       <use xlink:href="#DejaVuSans-6e" transform="translate(90.771484 0)"/>
      </g>
     </g>
    </g>
    <g id="text_14">
     <!-- Day of the year -->
     <g transform="translate(408.465938 413.99375) scale(0.12 -0.12)">
      <defs>
       <path id="DejaVuSans-20" transform="scale(0.015625)"/>
       <path id="DejaVuSans-66" d="M 2375 4863 
L 2375 4384 
L 1825 4384 
Q 1516 4384 1395 4259 
Q 1275 4134 1275 3809 
L 1275 3500 
L 2222 3500 
L 2222 3053 
L 1275 3053 
L 1275 0 
L 697 0 
L 697 3053 
L 147 3053 
L 147 3500 
L 697 3500 
L 697 3744 
Q 697 4328 969 4595 
Q 1241 4863 1831 4863 
L 2375 4863 
z
" transform="scale(0.015625)"/>
       <path id="DejaVuSans-68" d="M 3513 2113 
L 3513 0 
L 2938 0 
L 2938 2094 
Q 2938 2591 2744 2837 
Q 2550 3084 2163 3084 
Q 1697 3084 1428 2787 
Q 1159 2491 1159 1978 
L 1159 0 
L 581 0 
L 581 4863 
L 1159 4863 
L 1159 2956 
Q 1366 3272 1645 3428 
Q 1925 3584 2291 3584 
Q 2894 3584 3203 3211 
Q 3513 2838 3513 2113 
z
" transform="scale(0.015625)"/>
      </defs>
      <use xlink:href="#DejaVuSans-44"/>
      <use xlink:href="#DejaVuSans-61" transform="translate(77.001953 0)"/>
      <use xlink:href="#DejaVuSans-79" transform="translate(138.28125 0)"/>
      <use xlink:href="#DejaVuSans-20" transform="translate(197.460938 0)"/>
      <use xlink:href="#DejaVuSans-6f" transform="translate(229.248047 0)"/>
      <use xlink:href="#DejaVuSans-66" transform="translate(290.429688 0)"/>
      <use xlink:href="#DejaVuSans-20" transform="translate(325.634766 0)"/>
      <use xlink:href="#DejaVuSans-74" transform="translate(357.421875 0)"/>
      <use xlink:href="#DejaVuSans-68" transform="translate(396.630859 0)"/>
      <use xlink:href="#DejaVuSans-65" transform="translate(460.009766 0)"/>
      <use xlink:href="#DejaVuSans-20" transform="translate(521.533203 0)"/>
      <use xlink:href="#DejaVuSans-79" transform="translate(553.320312 0)"/>
      <use xlink:href="#DejaVuSans-65" transform="translate(612.5 0)"/>
      <use xlink:href="#DejaVuSans-61" transform="translate(674.023438 0)"/>
      <use xlink:href="#DejaVuSans-72" transform="translate(735.302734 0)"/>
     </g>
    </g>
   </g>
   <g id="matplotlib.axis_2">
    <g id="ytick_1">
     <g id="line2d_27">
      <path d="M 61.62625 373.473269 
L 848.47625 373.473269 
" clip-path="url(#pe5b973771b)" style="fill: none; stroke-dasharray: 2.96,1.28; stroke-dashoffset: 0; stroke: #b0b0b0; stroke-opacity: 0.3; stroke-width: 0.8"/>
     </g>
     <g id="line2d_28">
      <defs>
       <path id="mcb4b1c9585" d="M 0 0 
L -3.5 0 
" style="stroke: #000000; stroke-width: 0.8"/>
      </defs>
      <g>
       <use xlink:href="#mcb4b1c9585" x="61.62625" y="373.473269" style="stroke: #000000; stroke-width: 0.8"/>
      </g>
     </g>
     <g id="text_15">
      <!-- 0 -->
      <g transform="translate(48.26375 377.272488) scale(0.1 -0.1)">
       <defs>
        <path id="DejaVuSans-30" d="M 2034 4250 
Q 1547 4250 1301 3770 
Q 1056 3291 1056 2328 
Q 1056 1369 1301 889 
Q 1547 409 2034 409 
Q 2525 409 2770 889 
Q 3016 1369 3016 2328 
Q 3016 3291 2770 3770 
Q 2525 4250 2034 4250 
z
M 2034 4750 
Q 2819 4750 3233 4129 
Q 3647 3509 3647 2328 
Q 3647 1150 3233 529 
Q 2819 -91 2034 -91 
Q 1250 -91 836 529 
Q 422 1150 422 2328 
Q 422 3509 836 4129 
Q 1250 4750 2034 4750 
z
" transform="scale(0.015625)"/>
       </defs>
       <use xlink:href="#DejaVuSans-30"/>
      </g>
     </g>
    </g>
    <g id="ytick_2">
     <g id="line2d_29">
      <path d="M 61.62625 306.486601 
L 848.47625 306.486601 
" clip-path="url(#pe5b973771b)" style="fill: none; stroke-dasharray: 2.96,1.28; stroke-dashoffset: 0; stroke: #b0b0b0; stroke-opacity: 0.3; stroke-width: 0.8"/>
     </g>
     <g id="line2d_30">
      <g>
       <use xlink:href="#mcb4b1c9585" x="61.62625" y="306.486601" style="stroke: #000000; stroke-width: 0.8"/>
      </g>
     </g>
     <g id="text_16">
      <!-- 10000 -->
      <g transform="translate(22.81375 310.28582) scale(0.1 -0.1)">
       <defs>
        <path id="DejaVuSans-31" d="M 794 531 
L 1825 531 
L 1825 4091 
L 703 3866 
L 703 4441 
L 1819 4666 
L 2450 4666 
L 2450 531 
L 3481 531 
L 3481 0 
L 794 0 
L 794 531 
z
" transform="scale(0.015625)"/>
       </defs>
       <use xlink:href="#DejaVuSans-31"/>
       <use xlink:href="#DejaVuSans-30" transform="translate(63.623047 0)"/>
       <use xlink:href="#DejaVuSans-30" transform="translate(127.246094 0)"/>
       <use xlink:href="#DejaVuSans-30" transform="translate(190.869141 0)"/>
       <use xlink:href="#DejaVuSans-30" transform="translate(254.492188 0)"/>
      </g>
     </g>
    </g>
    <g id="ytick_3">
     <g id="line2d_31">
      <path d="M 61.62625 239.499933 
L 848.47625 239.499933 
" clip-path="url(#pe5b973771b)" style="fill: none; stroke-dasharray: 2.96,1.28; stroke-dashoffset: 0; stroke: #b0b0b0; stroke-opacity: 0.3; stroke-width: 0.8"/>
     </g>
     <g id="line2d_32">
      <g>
       <use xlink:href="#mcb4b1c9585" x="61.62625" y="239.499933" style="stroke: #000000; stroke-width: 0.8"/>
      </g>
     </g>
     <g id="text_17">
      <!-- 20000 -->
      <g transform="translate(22.81375 243.299151) scale(0.1 -0.1)">
       <defs>
        <path id="DejaVuSans-32" d="M 1228 531 
L 3431 531 
L 3431 0 
L 469 0 
L 469 531 
Q 828 903 1448 1529 
Q 2069 2156 2228 2338 
Q 2531 2678 2651 2914 
Q 2772 3150 2772 3378 
Q 2772 3750 2511 3984 
Q 2250 4219 1831 4219 
Q 1534 4219 1204 4116 
Q 875 4013 500 3803 
L 500 4441 
Q 881 4594 1212 4672 
Q 1544 4750 1819 4750 
Q 2544 4750 2975 4387 
Q 3406 4025 3406 3419 
Q 3406 3131 3298 2873 
Q 3191 2616 2906 2266 
Q 2828 2175 2409 1742 
Q 1991 1309 1228 531 
z
" transform="scale(0.015625)"/>
       </defs>
       <use xlink:href="#DejaVuSans-32"/>
       <use xlink:href="#DejaVuSans-30" transform="translate(63.623047 0)"/>
       <use xlink:href="#DejaVuSans-30" transform="translate(127.246094 0)"/>
       <use xlink:href="#DejaVuSans-30" transform="translate(190.869141 0)"/>
       <use xlink:href="#DejaVuSans-30" transform="translate(254.492188 0)"/>
      </g>
     </g>
    </g>
    <g id="ytick_4">
     <g id="line2d_33">
      <path d="M 61.62625 172.513264 
L 848.47625 172.513264 
" clip-path="url(#pe5b973771b)" style="fill: none; stroke-dasharray: 2.96,1.28; stroke-dashoffset: 0; stroke: #b0b0b0; stroke-opacity: 0.3; stroke-width: 0.8"/>
     </g>
     <g id="line2d_34">
      <g>
       <use xlink:href="#mcb4b1c9585" x="61.62625" y="172.513264" style="stroke: #000000; stroke-width: 0.8"/>
      </g>
     </g>
     <g id="text_18">
      <!-- 30000 -->
      <g transform="translate(22.81375 176.312483) scale(0.1 -0.1)">
       <defs>
        <path id="DejaVuSans-33" d="M 2597 2516 
Q 3050 2419 3304 2112 
Q 3559 1806 3559 1356 
Q 3559 666 3084 287 
Q 2609 -91 1734 -91 
Q 1441 -91 1130 -33 
Q 819 25 488 141 
L 488 750 
Q 750 597 1062 519 
Q 1375 441 1716 441 
Q 2309 441 2620 675 
Q 2931 909 2931 1356 
Q 2931 1769 2642 2001 
Q 2353 2234 1838 2234 
L 1294 2234 
L 1294 2753 
L 1863 2753 
Q 2328 2753 2575 2939 
Q 2822 3125 2822 3475 
Q 2822 3834 2567 4026 
Q 2313 4219 1838 4219 
Q 1578 4219 1281 4162 
Q 984 4106 628 3988 
L 628 4550 
Q 988 4650 1302 4700 
Q 1616 4750 1894 4750 
Q 2613 4750 3031 4423 
Q 3450 4097 3450 3541 
Q 3450 3153 3228 2886 
Q 3006 2619 2597 2516 
z
" transform="scale(0.015625)"/>
       </defs>
       <use xlink:href="#DejaVuSans-33"/>
       <use xlink:href="#DejaVuSans-30" transform="translate(63.623047 0)"/>
       <use xlink:href="#DejaVuSans-30" transform="translate(127.246094 0)"/>
       <use xlink:href="#DejaVuSans-30" transform="translate(190.869141 0)"/>
       <use xlink:href="#DejaVuSans-30" transform="translate(254.492188 0)"/>
      </g>
     </g>
    </g>
    <g id="ytick_5">
     <g id="line2d_35">
      <path d="M 61.62625 105.526596 
L 848.47625 105.526596 
" clip-path="url(#pe5b973771b)" style="fill: none; stroke-dasharray: 2.96,1.28; stroke-dashoffset: 0; stroke: #b0b0b0; stroke-opacity: 0.3; stroke-width: 0.8"/>
     </g>
     <g id="line2d_36">
      <g>
       <use xlink:href="#mcb4b1c9585" x="61.62625" y="105.526596" style="stroke: #000000; stroke-width: 0.8"/>
      </g>
     </g>
     <g id="text_19">
      <!-- 40000 -->
      <g transform="translate(22.81375 109.325815) scale(0.1 -0.1)">
       <defs>
        <path id="DejaVuSans-34" d="M 2419 4116 
L 825 1625 
L 2419 1625 
L 2419 4116 
z
M 2253 4666 
L 3047 4666 
L 3047 1625 
L 3713 1625 
L 3713 1100 
L 3047 1100 
L 3047 0 
L 2419 0 
L 2419 1100 
L 313 1100 
L 313 1709 
L 2253 4666 
z
" transform="scale(0.015625)"/>
       </defs>
       <use xlink:href="#DejaVuSans-34"/>
       <use xlink:href="#DejaVuSans-30" transform="translate(63.623047 0)"/>
       <use xlink:href="#DejaVuSans-30" transform="translate(127.246094 0)"/>
       <use xlink:href="#DejaVuSans-30" transform="translate(190.869141 0)"/>
       <use xlink:href="#DejaVuSans-30" transform="translate(254.492188 0)"/>
      </g>
     </g>
    </g>
    <g id="text_20">
     <!-- Daily pedestrian count -->
     <g transform="translate(16.318125 279.793125) rotate(-90) scale(0.12 -0.12)">
      <defs>
       <path id="DejaVuSans-69" d="M 603 3500 
L 1178 3500 
L 1178 0 
L 603 0 
L 603 3500 
z
M 603 4863 
L 1178 4863 
L 1178 4134 
L 603 4134 
L 603 4863 
z
" transform="scale(0.015625)"/>
       <path id="DejaVuSans-64" d="M 2906 2969 
L 2906 4863 
L 3481 4863 
L 3481 0 
L 2906 0 
L 2906 525 
Q 2725 213 2448 61 
Q 2172 -91 1784 -91 
Q 1150 -91 751 415 
Q 353 922 353 1747 
Q 353 2572 751 3078 
Q 1150 3584 1784 3584 
Q 2172 3584 2448 3432 
Q 2725 3281 2906 2969 
z
M 947 1747 
Q 947 1113 1208 752 
Q 1469 391 1925 391 
Q 2381 391 2643 752 
Q 2906 1113 2906 1747 
Q 2906 2381 2643 2742 
Q 2381 3103 1925 3103 
Q 1469 3103 1208 2742 
Q 947 2381 947 1747 
z
" transform="scale(0.015625)"/>
       <path id="DejaVuSans-73" d="M 2834 3397 
L 2834 2853 
Q 2591 2978 2328 3040 
Q 2066 3103 1784 3103 
Q 1356 3103 1142 2972 
Q 928 2841 928 2578 
Q 928 2378 1081 2264 
Q 1234 2150 1697 2047 
L 1894 2003 
Q 2506 1872 2764 1633 
Q 3022 1394 3022 966 
Q 3022 478 2636 193 
Q 2250 -91 1575 -91 
Q 1294 -91 989 -36 
Q 684 19 347 128 
L 347 722 
Q 666 556 975 473 
Q 1284 391 1588 391 
Q 1994 391 2212 530 
Q 2431 669 2431 922 
Q 2431 1156 2273 1281 
Q 2116 1406 1581 1522 
L 1381 1569 
Q 847 1681 609 1914 
Q 372 2147 372 2553 
Q 372 3047 722 3315 
Q 1072 3584 1716 3584 
Q 2034 3584 2315 3537 
Q 2597 3491 2834 3397 
z
" transform="scale(0.015625)"/>
      </defs>
      <use xlink:href="#DejaVuSans-44"/>
      <use xlink:href="#DejaVuSans-61" transform="translate(77.001953 0)"/>
      <use xlink:href="#DejaVuSans-69" transform="translate(138.28125 0)"/>
      <use xlink:href="#DejaVuSans-6c" transform="translate(166.064453 0)"/>
      <use xlink:href="#DejaVuSans-79" transform="translate(193.847656 0)"/>
      <use xlink:href="#DejaVuSans-20" transform="translate(253.027344 0)"/>
      <use xlink:href="#DejaVuSans-70" transform="translate(284.814453 0)"/>
      <use xlink:href="#DejaVuSans-65" transform="translate(348.291016 0)"/>
      <use xlink:href="#DejaVuSans-64" transform="translate(409.814453 0)"/>
      <use xlink:href="#DejaVuSans-65" transform="translate(473.291016 0)"/>
      <use xlink:href="#DejaVuSans-73" transform="translate(534.814453 0)"/>
      <use xlink:href="#DejaVuSans-74" transform="translate(586.914062 0)"/>
      <use xlink:href="#DejaVuSans-72" transform="translate(626.123047 0)"/>
      <use xlink:href="#DejaVuSans-69" transform="translate(667.236328 0)"/>
      <use xlink:href="#DejaVuSans-61" transform="translate(695.019531 0)"/>
      <use xlink:href="#DejaVuSans-6e" transform="translate(756.298828 0)"/>
      <use xlink:href="#DejaVuSans-20" transform="translate(819.677734 0)"/>
      <use xlink:href="#DejaVuSans-63" transform="translate(851.464844 0)"/>
      <use xlink:href="#DejaVuSans-6f" transform="translate(906.445312 0)"/>
      <use xlink:href="#DejaVuSans-75" transform="translate(967.626953 0)"/>
      <use xlink:href="#DejaVuSans-6e" transform="translate(1031.005859 0)"/>
      <use xlink:href="#DejaVuSans-74" transform="translate(1094.384766 0)"/>
     </g>
    </g>
   </g>
   <g id="line2d_37">
    <path d="M 155.197601 231.990727 
L 157.324223 227.321756 
L 159.450845 241.435847 
L 161.577466 293.397406 
L 163.704088 307.236852 
L 165.830709 229.961031 
L 167.957331 238.053021 
L 170.083953 249.119218 
L 172.210574 241.362162 
L 174.337196 240.571719 
L 176.463818 285.894899 
L 178.590439 299.70755 
L 180.717061 225.332252 
L 182.843682 209.329137 
L 184.970304 213.643079 
L 187.096926 197.499292 
L 189.223547 234.542919 
L 191.350169 277.715827 
L 193.476791 288.869107 
L 195.603412 67.67243 
L 197.730034 73.259118 
L 199.856655 86.274628 
L 201.983277 91.124462 
L 204.109899 101.360025 
L 206.23652 258.236104 
L 208.363142 273.288008 
L 210.489764 263.173021 
L 212.616385 75.697433 
L 214.743007 83.414297 
L 216.869628 102.043289 
L 218.99625 116.565999 
L 221.122872 196.661958 
L 223.249493 224.501618 
L 225.376115 209.161671 
L 227.502736 308.375625 
L 229.629358 344.722591 
L 231.75598 361.81089 
L 233.882601 363.385077 
L 236.009223 367.873184 
L 238.135845 368.522955 
L 240.262466 363.364981 
L 242.389088 363.525749 
L 244.515709 364.42337 
L 246.642331 364.604234 
L 248.768953 366.372682 
L 250.895574 270.729117 
L 253.022196 273.442078 
L 255.148818 106.049092 
L 257.275439 99.846127 
L 259.402061 72.99787 
L 261.528682 90.809625 
L 263.655304 116.619588 
L 265.781926 204.445809 
L 267.908547 225.901639 
L 270.035169 100.107375 
L 272.161791 98.981999 
L 274.288412 92.008686 
L 276.415034 117.302852 
L 278.541655 129.005423 
L 280.668277 211.975111 
L 282.794899 232.727581 
L 284.92152 111.140079 
L 287.048142 293.142857 
L 289.174764 332.088906 
L 291.301385 329.697482 
L 293.428007 361.301792 
L 295.554628 358.984053 
L 297.68125 357.637621 
L 299.807872 358.374474 
L 304.061115 349.994442 
L 306.187736 360.323786 
L 308.314358 356.719904 
L 312.567601 362.2664 
L 314.694223 335.069812 
L 316.820845 334.955935 
L 318.947466 330.434335 
L 321.074088 333.77697 
L 323.200709 338.687092 
L 325.327331 358.890272 
L 327.453953 358.562037 
L 329.580574 335.572212 
L 331.707196 346.189599 
L 333.833818 338.914847 
L 335.960439 330.152991 
L 338.087061 349.766687 
L 340.213682 358.602229 
L 342.340304 359.908469 
L 344.466926 337.360756 
L 346.593547 336.23538 
L 348.720169 333.401844 
L 350.846791 337.575114 
L 352.973412 343.885258 
L 355.100034 363.297994 
L 357.226655 361.187914 
L 359.353277 337.146399 
L 361.479899 334.299466 
L 363.60652 339.671796 
L 365.733142 342.880458 
L 367.859764 341.493834 
L 369.986385 360.2568 
L 372.113007 360.062538 
L 374.239628 342.706293 
L 376.36625 335.779871 
L 378.492872 344.139807 
L 380.619493 341.091914 
L 382.746115 348.380063 
L 384.872736 357.28929 
L 386.999358 361.717109 
L 389.12598 357.563936 
L 391.252601 348.701599 
L 393.379223 350.597322 
L 395.505845 349.686303 
L 397.632466 350.985845 
L 399.759088 361.991754 
L 401.885709 361.167818 
L 404.012331 359.211808 
L 406.138953 356.344778 
L 408.265574 360.45776 
L 410.392196 354.080629 
L 412.518818 351.079626 
L 414.645439 360.370677 
L 416.772061 360.491253 
L 418.898682 356.371573 
L 421.025304 356.130421 
L 423.151926 355.741898 
L 425.278547 357.965856 
L 427.405169 355.601226 
L 429.531791 361.06064 
L 431.658412 364.128629 
L 433.785034 358.14672 
L 435.911655 357.115125 
L 438.038277 357.537141 
L 440.164899 359.412768 
L 442.29152 357.068234 
L 444.418142 367.424373 
L 446.544764 362.36688 
L 448.671385 351.756191 
L 450.798007 352.647114 
L 452.924628 351.86337 
L 455.05125 355.447157 
L 457.177872 353.92656 
L 459.304493 362.340085 
L 461.431115 364.316192 
L 463.557736 353.960053 
L 465.684358 355.929461 
L 467.81098 358.052938 
L 469.937601 357.095029 
L 472.064223 357.738101 
L 474.190845 363.887477 
L 476.317466 367.096139 
L 478.444088 352.573429 
L 480.570709 353.450954 
L 482.697331 354.924661 
L 484.823953 348.487242 
L 486.950574 349.927455 
L 489.077196 360.377376 
L 491.203818 360.839584 
L 493.330439 337.166495 
L 495.457061 338.492831 
L 497.583682 338.606708 
L 499.710304 337.722484 
L 501.836926 348.708298 
L 506.090169 356.920864 
L 508.216791 331.184586 
L 510.343412 328.706079 
L 512.470034 331.653492 
L 514.596655 330.380746 
L 516.723277 333.448735 
L 518.849899 357.610826 
L 520.97652 358.762997 
L 523.103142 332.745375 
L 525.229764 337.29377 
L 527.356385 326.977823 
L 529.483007 333.602804 
L 531.609628 343.677599 
L 533.73625 361.636725 
L 535.862872 316.809247 
L 537.989493 335.297567 
L 540.116115 333.455434 
L 542.242736 333.133898 
L 544.369358 335.391348 
L 546.49598 347.649909 
L 548.622601 357.577333 
L 550.749223 361.991754 
L 552.875845 341.601013 
L 555.002466 336.985631 
L 557.129088 338.258378 
L 559.255709 337.990431 
L 561.382331 345.546527 
L 563.508953 359.674016 
L 565.635574 359.493152 
L 567.762196 340.823967 
L 569.888818 339.075615 
L 572.015439 344.849866 
L 574.142061 343.536927 
L 576.268682 341.949343 
L 578.395304 360.953461 
L 580.521926 362.092234 
L 582.648547 351.836575 
L 584.775169 352.586826 
L 586.901791 349.056629 
L 589.028412 348.741791 
L 591.155034 350.175306 
L 593.281655 361.877877 
L 595.408277 362.36688 
L 597.534899 342.01633 
L 599.66152 339.022026 
L 601.788142 344.401055 
L 603.914764 336.175092 
L 606.041385 338.526324 
L 608.168007 353.92656 
L 610.294628 361.36208 
L 612.42125 341.292874 
L 614.547872 342.485237 
L 616.674493 344.843167 
L 618.801115 344.977141 
L 620.927736 333.957834 
L 623.054358 358.006048 
L 625.18098 355.145717 
L 627.307601 341.091914 
L 629.434223 337.166495 
L 631.560845 335.773172 
L 633.687466 337.581812 
L 635.814088 360.149621 
L 637.940709 360.739104 
L 640.067331 356.478752 
L 642.193953 343.068021 
L 644.320574 343.543626 
L 646.447196 339.363658 
L 648.573818 341.741685 
L 652.827061 354.442357 
L 654.953682 356.98785 
L 657.080304 333.696586 
L 659.206926 339.390452 
L 661.333547 332.283167 
L 663.460169 338.104308 
L 665.586791 334.909044 
L 667.713412 352.787786 
L 669.840034 355.011744 
L 671.966655 331.318559 
L 674.093277 334.306164 
L 676.219899 331.492724 
L 678.34652 336.999028 
L 680.473142 338.767476 
L 682.599764 356.331381 
L 684.726385 357.054837 
L 686.853007 342.766581 
L 688.979628 341.453642 
L 691.10625 342.01633 
L 693.232872 346.792479 
L 695.359493 341.467039 
L 697.486115 357.517045 
L 699.612736 358.461557 
L 701.739358 350.148511 
L 703.86598 346.872863 
L 705.992601 348.199199 
L 710.245845 347.026933 
L 712.372466 363.941066 
L 714.499088 358.863477 
L 716.625709 355.574432 
L 718.752331 355.266293 
L 720.878953 349.056629 
L 723.005574 356.277792 
L 725.132196 349.210698 
L 727.258818 359.091232 
L 729.385439 357.64432 
L 731.512061 350.369567 
L 733.638682 347.14081 
L 737.891926 344.046026 
L 740.018547 344.12641 
L 742.145169 354.147616 
L 744.271791 358.19361 
L 746.398412 348.875765 
L 748.525034 348.520735 
L 750.651655 346.511135 
L 752.778277 347.04033 
L 754.904899 351.186805 
L 757.03152 354.382069 
L 759.158142 359.138122 
L 761.284764 346.591519 
L 765.538007 351.890165 
L 767.664628 349.55233 
L 769.79125 351.126517 
L 771.917872 357.148618 
L 774.044493 359.707509 
L 776.171115 348.554229 
L 778.297736 349.465247 
L 780.424358 351.883466 
L 782.55098 343.409653 
L 784.677601 348.105418 
L 786.804223 356.693109 
L 788.930845 359.171616 
L 791.057466 350.711199 
L 793.184088 350.329375 
L 795.310709 349.766687 
L 797.437331 347.958047 
L 799.563953 347.308277 
L 801.690574 355.246197 
L 803.817196 356.364874 
L 808.070439 349.291082 
L 810.197061 350.865269 
L 814.450304 359.292192 
L 816.576926 360.263498 
L 818.703547 362.695114 
L 820.830169 356.130421 
L 822.956791 358.69601 
L 825.083412 366.767904 
L 827.210034 361.154421 
L 829.336655 360.531445 
L 831.463277 360.779296 
L 833.589899 363.264501 
L 835.71652 364.12193 
L 837.843142 360.350581 
L 837.843142 360.350581 
" clip-path="url(#pe5b973771b)" style="fill: none; stroke: #0d6efc; stroke-opacity: 0.8; stroke-width: 2.5; stroke-linecap: square"/>
   </g>
   <g id="line2d_38">
    <path d="M 63.752872 320.25906 
L 65.879493 317.994911 
L 68.006115 317.713567 
L 70.132736 325.457225 
L 72.259358 328.766367 
L 74.38598 326.997919 
L 76.512601 310.787145 
L 78.639223 311.001502 
L 80.765845 312.850335 
L 82.892466 310.204361 
L 85.019088 316.300148 
L 87.145709 329.208479 
L 89.272331 305.4885 
L 91.398953 303.840628 
L 93.525574 315.040799 
L 95.652196 319.401631 
L 97.778818 321.230367 
L 99.905439 327.285962 
L 102.032061 330.869748 
L 104.158682 319.790153 
L 106.285304 319.542303 
L 108.411926 318.725065 
L 110.538547 320.372937 
L 112.665169 320.527007 
L 114.791791 330.487924 
L 116.918412 334.48033 
L 119.045034 343.402954 
L 121.171655 320.024607 
L 123.298277 314.612084 
L 125.424899 320.252361 
L 127.55152 320.848543 
L 129.678142 330.936735 
L 131.804764 339.109108 
L 133.931385 315.462815 
L 136.058007 324.693577 
L 138.184628 324.988319 
L 140.31125 307.370825 
L 142.437872 328.424735 
L 144.564493 343.208693 
L 146.691115 347.971445 
L 148.817736 315.569993 
L 150.944358 311.510601 
L 153.07098 316.494409 
L 155.197601 311.999604 
L 157.324223 317.673375 
L 159.450845 346.83937 
L 161.577466 350.362869 
L 163.704088 310.378526 
L 165.830709 308.335433 
L 167.957331 317.298249 
L 170.083953 310.284745 
L 172.210574 321.518409 
L 174.337196 340.663199 
L 176.463818 348.962847 
L 178.590439 298.970697 
L 180.717061 290.684446 
L 182.843682 286.64515 
L 184.970304 251.544136 
L 187.096926 282.733128 
L 189.223547 341.004831 
L 191.350169 346.162805 
L 193.476791 159.028848 
L 195.603412 170.637638 
L 197.730034 171.963974 
L 199.856655 181.63015 
L 201.983277 212.651676 
L 204.109899 339.571316 
L 206.23652 344.82977 
L 208.363142 341.286175 
L 210.489764 181.663643 
L 212.616385 175.614747 
L 214.743007 193.466694 
L 216.869628 208.056391 
L 218.99625 341.259381 
L 221.122872 357.202208 
L 223.249493 185.012977 
L 225.376115 195.9519 
L 227.502736 191.939398 
L 229.629358 216.483313 
L 231.75598 229.525618 
L 233.882601 333.770271 
L 236.009223 341.520629 
L 238.135845 204.546289 
L 240.262466 207.553991 
L 242.389088 208.297543 
L 244.515709 219.336946 
L 246.642331 207.801841 
L 248.768953 322.978719 
L 250.895574 332.1157 
L 253.022196 209.242055 
L 255.148818 196.474396 
L 257.275439 196.668657 
L 259.402061 204.633372 
L 261.528682 214.647879 
L 263.655304 319.749961 
L 265.781926 328.927135 
L 267.908547 208.377927 
L 270.035169 202.154865 
L 272.161791 206.80374 
L 274.288412 209.208561 
L 276.415034 224.0863 
L 278.541655 320.118388 
L 280.668277 328.712778 
L 282.794899 219.959922 
L 287.048142 208.679367 
L 289.174764 225.787762 
L 291.301385 329.677386 
L 293.428007 322.154783 
L 295.554628 333.07361 
L 297.68125 335.538719 
L 299.807872 328.056308 
L 301.934493 325.162484 
L 304.061115 318.758559 
L 306.187736 339.222986 
L 308.314358 327.888842 
L 310.44098 333.27457 
L 312.567601 218.305351 
L 314.694223 222.056604 
L 316.820845 208.505201 
L 318.947466 207.460209 
L 321.074088 221.393436 
L 323.200709 313.989108 
L 325.327331 321.384436 
L 327.453953 218.727367 
L 329.580574 206.756849 
L 331.707196 221.165682 
L 333.833818 223.5839 
L 335.960439 229.00982 
L 338.087061 313.004404 
L 340.213682 328.39794 
L 342.340304 223.121692 
L 344.466926 214.587591 
L 346.593547 213.348337 
L 348.720169 212.812444 
L 350.846791 217.75606 
L 352.973412 330.621898 
L 355.100034 319.843743 
L 357.226655 234.656797 
L 359.353277 220.556103 
L 361.479899 224.233671 
L 363.60652 222.826951 
L 365.733142 249.775688 
L 367.859764 311.510601 
L 369.986385 324.130889 
L 372.113007 229.023218 
L 374.239628 245.200498 
L 376.36625 229.71318 
L 378.492872 232.935239 
L 380.619493 245.6962 
L 382.746115 316.514505 
L 384.872736 325.557705 
L 386.999358 325.48402 
L 389.12598 292.446195 
L 391.252601 254.424562 
L 393.379223 265.249608 
L 395.505845 270.742515 
L 397.632466 366.412874 
L 399.759088 304.945908 
L 401.885709 309.434014 
L 404.012331 266.354888 
L 406.138953 248.462749 
L 408.265574 265.765405 
L 410.392196 266.401779 
L 412.518818 297.825225 
L 414.645439 367.625333 
L 416.772061 282.049864 
L 418.898682 269.375987 
L 421.025304 269.255411 
L 423.151926 280.750323 
L 425.278547 363.766901 
L 427.405169 300.759241 
L 429.531791 303.318132 
L 431.658412 293.069171 
L 433.785034 285.854707 
L 435.911655 306.553588 
L 438.038277 270.132936 
L 440.164899 351.776287 
L 442.29152 305.448308 
L 444.418142 309.534494 
L 446.544764 368.469365 
L 448.671385 289.096862 
L 450.798007 324.197876 
L 452.924628 365.160224 
L 455.05125 286.926494 
L 457.177872 296.19075 
L 459.304493 296.786931 
L 461.431115 281.138846 
L 463.557736 279.444083 
L 465.684358 280.328307 
L 467.81098 272.718622 
L 469.937601 273.314803 
L 472.064223 280.991475 
L 474.190845 302.648265 
L 476.317466 250.56613 
L 478.444088 243.726791 
L 480.570709 248.536434 
L 482.697331 242.480839 
L 484.823953 244.765085 
L 486.950574 300.497993 
L 489.077196 288.688243 
L 491.203818 146.864069 
L 493.330439 168.279707 
L 495.457061 145.926256 
L 497.583682 132.348058 
L 499.710304 190.793926 
L 501.836926 281.935987 
L 503.963547 298.146761 
L 506.090169 144.633413 
L 508.216791 127.297263 
L 510.343412 125.374746 
L 512.470034 125.080005 
L 514.596655 168.71512 
L 516.723277 271.070749 
L 518.849899 274.915784 
L 520.97652 151.03064 
L 523.103142 364.235808 
L 525.229764 138.336666 
L 527.356385 117.443524 
L 529.483007 163.048048 
L 531.609628 269.677427 
L 533.73625 55.032045 
L 535.862872 147.627717 
L 537.989493 180.344006 
L 540.116115 138.149104 
L 542.242736 135.295471 
L 544.369358 209.429617 
L 546.49598 266.843891 
L 548.622601 252.039837 
L 550.749223 171.796507 
L 552.875845 153.884272 
L 555.002466 153.730203 
L 557.129088 150.742597 
L 559.255709 181.322011 
L 561.382331 267.19892 
L 563.508953 270.508061 
L 565.635574 174.100848 
L 567.762196 185.160347 
L 569.888818 170.72472 
L 572.015439 170.054854 
L 574.142061 212.33014 
L 576.268682 289.498782 
L 578.395304 311.711561 
L 580.521926 276.436382 
L 582.648547 269.181725 
L 584.775169 269.148232 
L 586.901791 263.353885 
L 589.028412 264.559645 
L 591.155034 280.221128 
L 593.281655 282.92739 
L 595.408277 182.842609 
L 597.534899 179.225329 
L 599.66152 187.116358 
L 601.788142 182.748827 
L 603.914764 199.877318 
L 606.041385 276.684232 
L 608.168007 285.332211 
L 610.294628 189.420699 
L 612.42125 192.997788 
L 614.547872 179.506673 
L 616.674493 176.076955 
L 618.801115 204.03719 
L 620.927736 277.896691 
L 623.054358 289.780126 
L 625.18098 197.579676 
L 627.307601 184.363206 
L 629.434223 193.18535 
L 631.560845 175.293211 
L 633.687466 285.667144 
L 635.814088 287.797321 
L 637.940709 290.985886 
L 640.067331 202.18166 
L 642.193953 197.673457 
L 644.320574 185.388102 
L 646.447196 202.998897 
L 648.573818 211.767452 
L 650.700439 278.586654 
L 652.827061 295.527582 
L 654.953682 205.229553 
L 657.080304 173.156336 
L 659.206926 178.51527 
L 661.333547 164.334192 
L 663.460169 196.460998 
L 665.586791 268.826696 
L 667.713412 265.926173 
L 669.840034 180.893297 
L 671.966655 170.704624 
L 674.093277 167.958171 
L 676.219899 177.684635 
L 678.34652 189.293425 
L 680.473142 252.810184 
L 682.599764 268.692723 
L 684.726385 243.787079 
L 686.853007 209.322439 
L 688.979628 260.66772 
L 691.10625 205.39702 
L 693.232872 225.251868 
L 697.486115 309.923017 
L 699.612736 242.681799 
L 701.739358 231.917042 
L 703.86598 238.227186 
L 705.992601 231.146695 
L 708.119223 250.492445 
L 710.245845 285.044168 
L 712.372466 288.976286 
L 714.499088 303.37842 
L 716.625709 300.658761 
L 718.752331 249.889565 
L 720.878953 248.261789 
L 723.005574 259.555741 
L 725.132196 335.364554 
L 727.258818 288.239433 
L 729.385439 279.330206 
L 731.512061 272.3234 
L 733.638682 255.255197 
L 735.765304 248.288584 
L 737.891926 250.46565 
L 740.018547 275.826803 
L 742.145169 307.062686 
L 744.271791 277.80291 
L 746.398412 260.044744 
L 748.525034 256.99685 
L 750.651655 265.39028 
L 752.778277 262.161523 
L 754.904899 285.372403 
L 757.03152 303.043486 
L 759.158142 277.025864 
L 761.284764 268.022856 
L 765.538007 265.122333 
L 767.664628 273.515763 
L 769.79125 293.658654 
L 771.917872 287.489182 
L 774.044493 283.523571 
L 776.171115 275.116744 
L 778.297736 272.67843 
L 780.424358 269.067848 
L 782.55098 272.758814 
L 784.677601 298.126665 
L 786.804223 288.842313 
L 788.930845 282.150344 
L 791.057466 274.353096 
L 793.184088 271.841096 
L 795.310709 268.793203 
L 797.437331 281.06516 
L 799.563953 296.833822 
L 801.690574 294.629961 
L 803.817196 284.367603 
L 805.943818 277.823006 
L 808.070439 281.956083 
L 810.197061 295.239539 
L 812.323682 290.56387 
L 814.450304 290.925598 
L 816.576926 331.733876 
L 818.703547 289.987785 
L 820.830169 288.775326 
L 822.956791 299.613769 
L 825.083412 325.551007 
L 827.210034 309.748852 
L 829.336655 303.52579 
L 831.463277 307.09618 
L 833.589899 310.224457 
L 835.71652 304.349726 
L 837.843142 301.027188 
L 837.843142 301.027188 
" clip-path="url(#pe5b973771b)" style="fill: none; stroke: #83c966; stroke-opacity: 0.8; stroke-width: 2.5; stroke-linecap: square"/>
   </g>
   <g id="patch_3">
    <path d="M 61.62625 384.1975 
L 61.62625 39.3575 
" style="fill: none; stroke: #000000; stroke-width: 0.8; stroke-linejoin: miter; stroke-linecap: square"/>
   </g>
   <g id="patch_4">
    <path d="M 61.62625 384.1975 
L 848.47625 384.1975 
" style="fill: none; stroke: #000000; stroke-width: 0.8; stroke-linejoin: miter; stroke-linecap: square"/>
   </g>
   <g id="text_21">
    <!-- Pedestrian Traffic at Building 80 RMIT -->
    <g transform="translate(305.5625 19.3575) scale(0.16 -0.16)">
     <defs>
      <path id="DejaVuSans-50" d="M 1259 4147 
L 1259 2394 
L 2053 2394 
Q 2494 2394 2734 2622 
Q 2975 2850 2975 3272 
Q 2975 3691 2734 3919 
Q 2494 4147 2053 4147 
L 1259 4147 
z
M 628 4666 
L 2053 4666 
Q 2838 4666 3239 4311 
Q 3641 3956 3641 3272 
Q 3641 2581 3239 2228 
Q 2838 1875 2053 1875 
L 1259 1875 
L 1259 0 
L 628 0 
L 628 4666 
z
" transform="scale(0.015625)"/>
      <path id="DejaVuSans-54" d="M -19 4666 
L 3928 4666 
L 3928 4134 
L 2272 4134 
L 2272 0 
L 1638 0 
L 1638 4134 
L -19 4134 
L -19 4666 
z
" transform="scale(0.015625)"/>
      <path id="DejaVuSans-42" d="M 1259 2228 
L 1259 519 
L 2272 519 
Q 2781 519 3026 730 
Q 3272 941 3272 1375 
Q 3272 1813 3026 2020 
Q 2781 2228 2272 2228 
L 1259 2228 
z
M 1259 4147 
L 1259 2741 
L 2194 2741 
Q 2656 2741 2882 2914 
Q 3109 3088 3109 3444 
Q 3109 3797 2882 3972 
Q 2656 4147 2194 4147 
L 1259 4147 
z
M 628 4666 
L 2241 4666 
Q 2963 4666 3353 4366 
Q 3744 4066 3744 3513 
Q 3744 3084 3544 2831 
Q 3344 2578 2956 2516 
Q 3422 2416 3680 2098 
Q 3938 1781 3938 1306 
Q 3938 681 3513 340 
Q 3088 0 2303 0 
L 628 0 
L 628 4666 
z
" transform="scale(0.015625)"/>
      <path id="DejaVuSans-38" d="M 2034 2216 
Q 1584 2216 1326 1975 
Q 1069 1734 1069 1313 
Q 1069 891 1326 650 
Q 1584 409 2034 409 
Q 2484 409 2743 651 
Q 3003 894 3003 1313 
Q 3003 1734 2745 1975 
Q 2488 2216 2034 2216 
z
M 1403 2484 
Q 997 2584 770 2862 
Q 544 3141 544 3541 
Q 544 4100 942 4425 
Q 1341 4750 2034 4750 
Q 2731 4750 3128 4425 
Q 3525 4100 3525 3541 
Q 3525 3141 3298 2862 
Q 3072 2584 2669 2484 
Q 3125 2378 3379 2068 
Q 3634 1759 3634 1313 
Q 3634 634 3220 271 
Q 2806 -91 2034 -91 
Q 1263 -91 848 271 
Q 434 634 434 1313 
Q 434 1759 690 2068 
Q 947 2378 1403 2484 
z
M 1172 3481 
Q 1172 3119 1398 2916 
Q 1625 2713 2034 2713 
Q 2441 2713 2670 2916 
Q 2900 3119 2900 3481 
Q 2900 3844 2670 4047 
Q 2441 4250 2034 4250 
Q 1625 4250 1398 4047 
Q 1172 3844 1172 3481 
z
" transform="scale(0.015625)"/>
      <path id="DejaVuSans-52" d="M 2841 2188 
Q 3044 2119 3236 1894 
Q 3428 1669 3622 1275 
L 4263 0 
L 3584 0 
L 2988 1197 
Q 2756 1666 2539 1819 
Q 2322 1972 1947 1972 
L 1259 1972 
L 1259 0 
L 628 0 
L 628 4666 
L 2053 4666 
Q 2853 4666 3247 4331 
Q 3641 3997 3641 3322 
Q 3641 2881 3436 2590 
Q 3231 2300 2841 2188 
z
M 1259 4147 
L 1259 2491 
L 2053 2491 
Q 2509 2491 2742 2702 
Q 2975 2913 2975 3322 
Q 2975 3731 2742 3939 
Q 2509 4147 2053 4147 
L 1259 4147 
z
" transform="scale(0.015625)"/>
      <path id="DejaVuSans-49" d="M 628 4666 
L 1259 4666 
L 1259 0 
L 628 0 
L 628 4666 
z
" transform="scale(0.015625)"/>
     </defs>
     <use xlink:href="#DejaVuSans-50"/>
     <use xlink:href="#DejaVuSans-65" transform="translate(56.677734 0)"/>
     <use xlink:href="#DejaVuSans-64" transform="translate(118.201172 0)"/>
     <use xlink:href="#DejaVuSans-65" transform="translate(181.677734 0)"/>
     <use xlink:href="#DejaVuSans-73" transform="translate(243.201172 0)"/>
     <use xlink:href="#DejaVuSans-74" transform="translate(295.300781 0)"/>
     <use xlink:href="#DejaVuSans-72" transform="translate(334.509766 0)"/>
     <use xlink:href="#DejaVuSans-69" transform="translate(375.623047 0)"/>
     <use xlink:href="#DejaVuSans-61" transform="translate(403.40625 0)"/>
     <use xlink:href="#DejaVuSans-6e" transform="translate(464.685547 0)"/>
     <use xlink:href="#DejaVuSans-20" transform="translate(528.064453 0)"/>
     <use xlink:href="#DejaVuSans-54" transform="translate(559.851562 0)"/>
     <use xlink:href="#DejaVuSans-72" transform="translate(606.185547 0)"/>
     <use xlink:href="#DejaVuSans-61" transform="translate(647.298828 0)"/>
     <use xlink:href="#DejaVuSans-66" transform="translate(708.578125 0)"/>
     <use xlink:href="#DejaVuSans-66" transform="translate(743.783203 0)"/>
     <use xlink:href="#DejaVuSans-69" transform="translate(778.988281 0)"/>
     <use xlink:href="#DejaVuSans-63" transform="translate(806.771484 0)"/>
     <use xlink:href="#DejaVuSans-20" transform="translate(861.751953 0)"/>
     <use xlink:href="#DejaVuSans-61" transform="translate(893.539062 0)"/>
     <use xlink:href="#DejaVuSans-74" transform="translate(954.818359 0)"/>
     <use xlink:href="#DejaVuSans-20" transform="translate(994.027344 0)"/>
     <use xlink:href="#DejaVuSans-42" transform="translate(1025.814453 0)"/>
     <use xlink:href="#DejaVuSans-75" transform="translate(1094.417969 0)"/>
     <use xlink:href="#DejaVuSans-69" transform="translate(1157.796875 0)"/>
     <use xlink:href="#DejaVuSans-6c" transform="translate(1185.580078 0)"/>
     <use xlink:href="#DejaVuSans-64" transform="translate(1213.363281 0)"/>
     <use xlink:href="#DejaVuSans-69" transform="translate(1276.839844 0)"/>
     <use xlink:href="#DejaVuSans-6e" transform="translate(1304.623047 0)"/>
     <use xlink:href="#DejaVuSans-67" transform="translate(1368.001953 0)"/>
     <use xlink:href="#DejaVuSans-20" transform="translate(1431.478516 0)"/>
     <use xlink:href="#DejaVuSans-38" transform="translate(1463.265625 0)"/>
     <use xlink:href="#DejaVuSans-30" transform="translate(1526.888672 0)"/>
     <use xlink:href="#DejaVuSans-20" transform="translate(1590.511719 0)"/>
     <use xlink:href="#DejaVuSans-52" transform="translate(1622.298828 0)"/>
     <use xlink:href="#DejaVuSans-4d" transform="translate(1691.78125 0)"/>
     <use xlink:href="#DejaVuSans-49" transform="translate(1778.060547 0)"/>
     <use xlink:href="#DejaVuSans-54" transform="translate(1807.552734 0)"/>
    </g>
   </g>
   <g id="legend_1">
    <g id="patch_5">
     <path d="M 69.32625 80.449375 
L 132.52125 80.449375 
Q 134.72125 80.449375 134.72125 78.249375 
L 134.72125 47.0575 
Q 134.72125 44.8575 132.52125 44.8575 
L 69.32625 44.8575 
Q 67.12625 44.8575 67.12625 47.0575 
L 67.12625 78.249375 
Q 67.12625 80.449375 69.32625 80.449375 
z
" style="fill: #ffffff; opacity: 0.95; stroke: #cccccc; stroke-linejoin: miter"/>
    </g>
    <g id="line2d_39">
     <path d="M 71.52625 53.765781 
L 82.52625 53.765781 
L 93.52625 53.765781 
" style="fill: none; stroke: #0d6efc; stroke-opacity: 0.8; stroke-width: 2.5; stroke-linecap: square"/>
    </g>
    <g id="text_22">
     <!-- 2019 -->
     <g transform="translate(102.32625 57.615781) scale(0.11 -0.11)">
      <defs>
       <path id="DejaVuSans-39" d="M 703 97 
L 703 672 
Q 941 559 1184 500 
Q 1428 441 1663 441 
Q 2288 441 2617 861 
Q 2947 1281 2994 2138 
Q 2813 1869 2534 1725 
Q 2256 1581 1919 1581 
Q 1219 1581 811 2004 
Q 403 2428 403 3163 
Q 403 3881 828 4315 
Q 1253 4750 1959 4750 
Q 2769 4750 3195 4129 
Q 3622 3509 3622 2328 
Q 3622 1225 3098 567 
Q 2575 -91 1691 -91 
Q 1453 -91 1209 -44 
Q 966 3 703 97 
z
M 1959 2075 
Q 2384 2075 2632 2365 
Q 2881 2656 2881 3163 
Q 2881 3666 2632 3958 
Q 2384 4250 1959 4250 
Q 1534 4250 1286 3958 
Q 1038 3666 1038 3163 
Q 1038 2656 1286 2365 
Q 1534 2075 1959 2075 
z
" transform="scale(0.015625)"/>
      </defs>
      <use xlink:href="#DejaVuSans-32"/>
      <use xlink:href="#DejaVuSans-30" transform="translate(63.623047 0)"/>
      <use xlink:href="#DejaVuSans-31" transform="translate(127.246094 0)"/>
      <use xlink:href="#DejaVuSans-39" transform="translate(190.869141 0)"/>
     </g>
    </g>
    <g id="line2d_40">
     <path d="M 71.52625 69.911719 
L 82.52625 69.911719 
L 93.52625 69.911719 
" style="fill: none; stroke: #83c966; stroke-opacity: 0.8; stroke-width: 2.5; stroke-linecap: square"/>
    </g>
    <g id="text_23">
     <!-- 2025 -->
     <g transform="translate(102.32625 73.761719) scale(0.11 -0.11)">
      <defs>
       <path id="DejaVuSans-35" d="M 691 4666 
L 3169 4666 
L 3169 4134 
L 1269 4134 
L 1269 2991 
Q 1406 3038 1543 3061 
Q 1681 3084 1819 3084 
Q 2600 3084 3056 2656 
Q 3513 2228 3513 1497 
Q 3513 744 3044 326 
Q 2575 -91 1722 -91 
Q 1428 -91 1123 -41 
Q 819 9 494 109 
L 494 744 
Q 775 591 1075 516 
Q 1375 441 1709 441 
Q 2250 441 2565 725 
Q 2881 1009 2881 1497 
Q 2881 1984 2565 2268 
Q 2250 2553 1709 2553 
Q 1456 2553 1204 2497 
Q 953 2441 691 2322 
L 691 4666 
z
" transform="scale(0.015625)"/>
      </defs>
      <use xlink:href="#DejaVuSans-32"/>
      <use xlink:href="#DejaVuSans-30" transform="translate(63.623047 0)"/>
      <use xlink:href="#DejaVuSans-32" transform="translate(127.246094 0)"/>
      <use xlink:href="#DejaVuSans-35" transform="translate(190.869141 0)"/>
     </g>
    </g>
   </g>
  </g>
 </g>
 <defs>
  <clipPath id="pe5b973771b">
   <rect x="61.62625" y="39.3575" width="786.85" height="344.84"/>
  </clipPath>
 </defs>
</svg>
