<?xml version="1.0" encoding="utf-8" standalone="no"?>
<!DOCTYPE svg PUBLIC "-//W3C//DTD SVG 1.1//EN"
  "http://www.w3.org/Graphics/SVG/1.1/DTD/svg11.dtd">
<svg xmlns:xlink="http://www.w3.org/1999/xlink" width="711.521791pt" height="423.689375pt" viewBox="0 0 711.521791 423.689375" xmlns="http://www.w3.org/2000/svg" version="1.1">
 <metadata>
  <rdf:RDF xmlns:dc="http://purl.org/dc/elements/1.1/" xmlns:cc="http://creativecommons.org/ns#" xmlns:rdf="http://www.w3.org/1999/02/22-rdf-syntax-ns#">
   <cc:Work>
    <dc:type rdf:resource="http://purl.org/dc/dcmitype/StillImage"/>
    <dc:date>2026-01-28T17:49:41.085499</dc:date>
    <dc:format>image/svg+xml</dc:format>
    <dc:creator>
     <cc:Agent>
      <dc:title>Matplotlib v3.10.8, https://matplotlib.org/</dc:title>
     </cc:Agent>
    </dc:creator>
   </cc:Work>
  </rdf:RDF>
 </metadata>
 <defs>
  <style type="text/css">*{stroke-linejoin: round; stroke-linecap: butt}</style>
 </defs>
 <g id="figure_1">
  <g id="patch_1">
   <path d="M 0 423.689375 
L 711.521791 423.689375 
L 711.521791 0 
L 0 0 
L 0 423.689375 
z
" style="fill: none"/>
  </g>
  <g id="axes_1">
   <g id="patch_2">
    <path d="M 61.62625 384.1975 
L 704.321791 384.1975 
L 704.321791 39.3575 
L 61.62625 39.3575 
L 61.62625 384.1975 
z
" style="fill: none"/>
   </g>
   <g id="matplotlib.axis_1">
    <g id="xtick_1">
     <g id="line2d_1">
      <path d="M 61.62625 384.1975 
L 61.62625 39.3575 
" clip-path="url(#pf8fdcbc905)" style="fill: none; stroke-dasharray: 2.96,1.28; stroke-dashoffset: 0; stroke: #b0b0b0; stroke-opacity: 0.3; stroke-width: 0.8"/>
     </g>
     <g id="line2d_2">
      <defs>
       <path id="m0e9d6a6ce6" d="M 0 0 
L 0 3.5 
" style="stroke: #000000; stroke-width: 0.8"/>
      </defs>
      <g>
       <use xlink:href="#m0e9d6a6ce6" x="61.62625" y="384.1975" style="stroke: #000000; stroke-width: 0.8"/>
      </g>
     </g>
     <g id="text_1">
      <!-- Jan -->
      <g transform="translate(53.918438 398.795937) scale(0.1 -0.1)">
       <defs>
        <path id="DejaVuSans-4a" d="M 628 4666 
L 1259 4666 
L 1259 325 
Q 1259 -519 939 -900 
Q 619 -1281 -91 -1281 
L -331 -1281 
L -331 -750 
L -134 -750 
Q 284 -750 456 -515 
Q 628 -281 628 325 
L 628 4666 
z
" transform="scale(0.015625)"/>
        <path id="DejaVuSans-61" d="M 2194 1759 
Q 1497 1759 1228 1600 
Q 959 1441 959 1056 
Q 959 750 1161 570 
Q 1363 391 1709 391 
Q 2188 391 2477 730 
Q 2766 1069 2766 1631 
L 2766 1759 
L 2194 1759 
z
M 3341 1997 
L 3341 0 
L 2766 0 
L 2766 531 
Q 2569 213 2275 61 
Q 1981 -91 1556 -91 
Q 1019 -91 701 211 
Q 384 513 384 1019 
Q 384 1609 779 1909 
Q 1175 2209 1959 2209 
L 2766 2209 
L 2766 2266 
Q 2766 2663 2505 2880 
Q 2244 3097 1772 3097 
Q 1472 3097 1187 3025 
Q 903 2953 641 2809 
L 641 3341 
Q 956 3463 1253 3523 
Q 1550 3584 1831 3584 
Q 2591 3584 2966 3190 
Q 3341 2797 3341 1997 
z
" transform="scale(0.015625)"/>
        <path id="DejaVuSans-6e" d="M 3513 2113 
L 3513 0 
L 2938 0 
L 2938 2094 
Q 2938 2591 2744 2837 
Q 2550 3084 2163 3084 
Q 1697 3084 1428 2787 
Q 1159 2491 1159 1978 
L 1159 0 
L 581 0 
L 581 3500 
L 1159 3500 
L 1159 2956 
Q 1366 3272 1645 3428 
Q 1925 3584 2291 3584 
Q 2894 3584 3203 3211 
Q 3513 2838 3513 2113 
z
" transform="scale(0.015625)"/>
       </defs>
       <use xlink:href="#DejaVuSans-4a"/>
       <use xlink:href="#DejaVuSans-61" transform="translate(29.492188 0)"/>
       <use xlink:href="#DejaVuSans-6e" transform="translate(90.771484 0)"/>
      </g>
     </g>
    </g>
    <g id="xtick_2">
     <g id="line2d_3">
      <path d="M 115.473714 384.1975 
L 115.473714 39.3575 
" clip-path="url(#pf8fdcbc905)" style="fill: none; stroke-dasharray: 2.96,1.28; stroke-dashoffset: 0; stroke: #b0b0b0; stroke-opacity: 0.3; stroke-width: 0.8"/>
     </g>
     <g id="line2d_4">
      <g>
       <use xlink:href="#m0e9d6a6ce6" x="115.473714" y="384.1975" style="stroke: #000000; stroke-width: 0.8"/>
      </g>
     </g>
     <g id="text_2">
      <!-- Feb -->
      <g transform="translate(106.622152 398.795937) scale(0.1 -0.1)">
       <defs>
        <path id="DejaVuSans-46" d="M 628 4666 
L 3309 4666 
L 3309 4134 
L 1259 4134 
L 1259 2759 
L 3109 2759 
L 3109 2228 
L 1259 2228 
L 1259 0 
L 628 0 
L 628 4666 
z
" transform="scale(0.015625)"/>
        <path id="DejaVuSans-65" d="M 3597 1894 
L 3597 1613 
L 953 1613 
Q 991 1019 1311 708 
Q 1631 397 2203 397 
Q 2534 397 2845 478 
Q 3156 559 3463 722 
L 3463 178 
Q 3153 47 2828 -22 
Q 2503 -91 2169 -91 
Q 1331 -91 842 396 
Q 353 884 353 1716 
Q 353 2575 817 3079 
Q 1281 3584 2069 3584 
Q 2775 3584 3186 3129 
Q 3597 2675 3597 1894 
z
M 3022 2063 
Q 3016 2534 2758 2815 
Q 2500 3097 2075 3097 
Q 1594 3097 1305 2825 
Q 1016 2553 972 2059 
L 3022 2063 
z
" transform="scale(0.015625)"/>
        <path id="DejaVuSans-62" d="M 3116 1747 
Q 3116 2381 2855 2742 
Q 2594 3103 2138 3103 
Q 1681 3103 1420 2742 
Q 1159 2381 1159 1747 
Q 1159 1113 1420 752 
Q 1681 391 2138 391 
Q 2594 391 2855 752 
Q 3116 1113 3116 1747 
z
M 1159 2969 
Q 1341 3281 1617 3432 
Q 1894 3584 2278 3584 
Q 2916 3584 3314 3078 
Q 3713 2572 3713 1747 
Q 3713 922 3314 415 
Q 2916 -91 2278 -91 
Q 1894 -91 1617 61 
Q 1341 213 1159 525 
L 1159 0 
L 581 0 
L 581 4863 
L 1159 4863 
L 1159 2969 
z
" transform="scale(0.015625)"/>
       </defs>
       <use xlink:href="#DejaVuSans-46"/>
       <use xlink:href="#DejaVuSans-65" transform="translate(52.019531 0)"/>
       <use xlink:href="#DejaVuSans-62" transform="translate(113.542969 0)"/>
      </g>
     </g>
    </g>
    <g id="xtick_3">
     <g id="line2d_5">
      <path d="M 164.110133 384.1975 
L 164.110133 39.3575 
" clip-path="url(#pf8fdcbc905)" style="fill: none; stroke-dasharray: 2.96,1.28; stroke-dashoffset: 0; stroke: #b0b0b0; stroke-opacity: 0.3; stroke-width: 0.8"/>
     </g>
     <g id="line2d_6">
      <g>
       <use xlink:href="#m0e9d6a6ce6" x="164.110133" y="384.1975" style="stroke: #000000; stroke-width: 0.8"/>
      </g>
     </g>
     <g id="text_3">
      <!-- Mar -->
      <g transform="translate(154.67654 398.795937) scale(0.1 -0.1)">
       <defs>
        <path id="DejaVuSans-4d" d="M 628 4666 
L 1569 4666 
L 2759 1491 
L 3956 4666 
L 4897 4666 
L 4897 0 
L 4281 0 
L 4281 4097 
L 3078 897 
L 2444 897 
L 1241 4097 
L 1241 0 
L 628 0 
L 628 4666 
z
" transform="scale(0.015625)"/>
        <path id="DejaVuSans-72" d="M 2631 2963 
Q 2534 3019 2420 3045 
Q 2306 3072 2169 3072 
Q 1681 3072 1420 2755 
Q 1159 2438 1159 1844 
L 1159 0 
L 581 0 
L 581 3500 
L 1159 3500 
L 1159 2956 
Q 1341 3275 1631 3429 
Q 1922 3584 2338 3584 
Q 2397 3584 2469 3576 
Q 2541 3569 2628 3553 
L 2631 2963 
z
" transform="scale(0.015625)"/>
       </defs>
       <use xlink:href="#DejaVuSans-4d"/>
       <use xlink:href="#DejaVuSans-61" transform="translate(86.279297 0)"/>
       <use xlink:href="#DejaVuSans-72" transform="translate(147.558594 0)"/>
      </g>
     </g>
    </g>
    <g id="xtick_4">
     <g id="line2d_7">
      <path d="M 217.957598 384.1975 
L 217.957598 39.3575 
" clip-path="url(#pf8fdcbc905)" style="fill: none; stroke-dasharray: 2.96,1.28; stroke-dashoffset: 0; stroke: #b0b0b0; stroke-opacity: 0.3; stroke-width: 0.8"/>
     </g>
     <g id="line2d_8">
      <g>
       <use xlink:href="#m0e9d6a6ce6" x="217.957598" y="384.1975" style="stroke: #000000; stroke-width: 0.8"/>
      </g>
     </g>
     <g id="text_4">
      <!-- Apr -->
      <g transform="translate(209.307598 398.795937) scale(0.1 -0.1)">
       <defs>
        <path id="DejaVuSans-41" d="M 2188 4044 
L 1331 1722 
L 3047 1722 
L 2188 4044 
z
M 1831 4666 
L 2547 4666 
L 4325 0 
L 3669 0 
L 3244 1197 
L 1141 1197 
L 716 0 
L 50 0 
L 1831 4666 
z
" transform="scale(0.015625)"/>
        <path id="DejaVuSans-70" d="M 1159 525 
L 1159 -1331 
L 581 -1331 
L 581 3500 
L 1159 3500 
L 1159 2969 
Q 1341 3281 1617 3432 
Q 1894 3584 2278 3584 
Q 2916 3584 3314 3078 
Q 3713 2572 3713 1747 
Q 3713 922 3314 415 
Q 2916 -91 2278 -91 
Q 1894 -91 1617 61 
Q 1341 213 1159 525 
z
M 3116 1747 
Q 3116 2381 2855 2742 
Q 2594 3103 2138 3103 
Q 1681 3103 1420 2742 
Q 1159 2381 1159 1747 
Q 1159 1113 1420 752 
Q 1681 391 2138 391 
Q 2594 391 2855 752 
Q 3116 1113 3116 1747 
z
" transform="scale(0.015625)"/>
       </defs>
       <use xlink:href="#DejaVuSans-41"/>
       <use xlink:href="#DejaVuSans-70" transform="translate(68.408203 0)"/>
       <use xlink:href="#DejaVuSans-72" transform="translate(131.884766 0)"/>
      </g>
     </g>
    </g>
    <g id="xtick_5">
     <g id="line2d_9">
      <path d="M 270.068047 384.1975 
L 270.068047 39.3575 
" clip-path="url(#pf8fdcbc905)" style="fill: none; stroke-dasharray: 2.96,1.28; stroke-dashoffset: 0; stroke: #b0b0b0; stroke-opacity: 0.3; stroke-width: 0.8"/>
     </g>
     <g id="line2d_10">
      <g>
       <use xlink:href="#m0e9d6a6ce6" x="270.068047" y="384.1975" style="stroke: #000000; stroke-width: 0.8"/>
      </g>
     </g>
     <g id="text_5">
      <!-- May -->
      <g transform="translate(259.730547 398.795937) scale(0.1 -0.1)">
       <defs>
        <path id="DejaVuSans-79" d="M 2059 -325 
Q 1816 -950 1584 -1140 
Q 1353 -1331 966 -1331 
L 506 -1331 
L 506 -850 
L 844 -850 
Q 1081 -850 1212 -737 
Q 1344 -625 1503 -206 
L 1606 56 
L 191 3500 
L 800 3500 
L 1894 763 
L 2988 3500 
L 3597 3500 
L 2059 -325 
z
" transform="scale(0.015625)"/>
       </defs>
       <use xlink:href="#DejaVuSans-4d"/>
       <use xlink:href="#DejaVuSans-61" transform="translate(86.279297 0)"/>
       <use xlink:href="#DejaVuSans-79" transform="translate(147.558594 0)"/>
      </g>
     </g>
    </g>
    <g id="xtick_6">
     <g id="line2d_11">
      <path d="M 323.915511 384.1975 
L 323.915511 39.3575 
" clip-path="url(#pf8fdcbc905)" style="fill: none; stroke-dasharray: 2.96,1.28; stroke-dashoffset: 0; stroke: #b0b0b0; stroke-opacity: 0.3; stroke-width: 0.8"/>
     </g>
     <g id="line2d_12">
      <g>
       <use xlink:href="#m0e9d6a6ce6" x="323.915511" y="384.1975" style="stroke: #000000; stroke-width: 0.8"/>
      </g>
     </g>
     <g id="text_6">
      <!-- Jun -->
      <g transform="translate(316.103011 398.795937) scale(0.1 -0.1)">
       <defs>
        <path id="DejaVuSans-75" d="M 544 1381 
L 544 3500 
L 1119 3500 
L 1119 1403 
Q 1119 906 1312 657 
Q 1506 409 1894 409 
Q 2359 409 2629 706 
Q 2900 1003 2900 1516 
L 2900 3500 
L 3475 3500 
L 3475 0 
L 2900 0 
L 2900 538 
Q 2691 219 2414 64 
Q 2138 -91 1772 -91 
Q 1169 -91 856 284 
Q 544 659 544 1381 
z
M 1991 3584 
L 1991 3584 
z
" transform="scale(0.015625)"/>
       </defs>
       <use xlink:href="#DejaVuSans-4a"/>
       <use xlink:href="#DejaVuSans-75" transform="translate(29.492188 0)"/>
       <use xlink:href="#DejaVuSans-6e" transform="translate(92.871094 0)"/>
      </g>
     </g>
    </g>
    <g id="xtick_7">
     <g id="line2d_13">
      <path d="M 376.02596 384.1975 
L 376.02596 39.3575 
" clip-path="url(#pf8fdcbc905)" style="fill: none; stroke-dasharray: 2.96,1.28; stroke-dashoffset: 0; stroke: #b0b0b0; stroke-opacity: 0.3; stroke-width: 0.8"/>
     </g>
     <g id="line2d_14">
      <g>
       <use xlink:href="#m0e9d6a6ce6" x="376.02596" y="384.1975" style="stroke: #000000; stroke-width: 0.8"/>
      </g>
     </g>
     <g id="text_7">
      <!-- Jul -->
      <g transform="translate(369.993148 398.795937) scale(0.1 -0.1)">
       <defs>
        <path id="DejaVuSans-6c" d="M 603 4863 
L 1178 4863 
L 1178 0 
L 603 0 
L 603 4863 
z
" transform="scale(0.015625)"/>
       </defs>
       <use xlink:href="#DejaVuSans-4a"/>
       <use xlink:href="#DejaVuSans-75" transform="translate(29.492188 0)"/>
       <use xlink:href="#DejaVuSans-6c" transform="translate(92.871094 0)"/>
      </g>
     </g>
    </g>
    <g id="xtick_8">
     <g id="line2d_15">
      <path d="M 429.873425 384.1975 
L 429.873425 39.3575 
" clip-path="url(#pf8fdcbc905)" style="fill: none; stroke-dasharray: 2.96,1.28; stroke-dashoffset: 0; stroke: #b0b0b0; stroke-opacity: 0.3; stroke-width: 0.8"/>
     </g>
     <g id="line2d_16">
      <g>
       <use xlink:href="#m0e9d6a6ce6" x="429.873425" y="384.1975" style="stroke: #000000; stroke-width: 0.8"/>
      </g>
     </g>
     <g id="text_8">
      <!-- Aug -->
      <g transform="translate(420.110143 398.795937) scale(0.1 -0.1)">
       <defs>
        <path id="DejaVuSans-67" d="M 2906 1791 
Q 2906 2416 2648 2759 
Q 2391 3103 1925 3103 
Q 1463 3103 1205 2759 
Q 947 2416 947 1791 
Q 947 1169 1205 825 
Q 1463 481 1925 481 
Q 2391 481 2648 825 
Q 2906 1169 2906 1791 
z
M 3481 434 
Q 3481 -459 3084 -895 
Q 2688 -1331 1869 -1331 
Q 1566 -1331 1297 -1286 
Q 1028 -1241 775 -1147 
L 775 -588 
Q 1028 -725 1275 -790 
Q 1522 -856 1778 -856 
Q 2344 -856 2625 -561 
Q 2906 -266 2906 331 
L 2906 616 
Q 2728 306 2450 153 
Q 2172 0 1784 0 
Q 1141 0 747 490 
Q 353 981 353 1791 
Q 353 2603 747 3093 
Q 1141 3584 1784 3584 
Q 2172 3584 2450 3431 
Q 2728 3278 2906 2969 
L 2906 3500 
L 3481 3500 
L 3481 434 
z
" transform="scale(0.015625)"/>
       </defs>
       <use xlink:href="#DejaVuSans-41"/>
       <use xlink:href="#DejaVuSans-75" transform="translate(68.408203 0)"/>
       <use xlink:href="#DejaVuSans-67" transform="translate(131.787109 0)"/>
      </g>
     </g>
    </g>
    <g id="xtick_9">
     <g id="line2d_17">
      <path d="M 483.720889 384.1975 
L 483.720889 39.3575 
" clip-path="url(#pf8fdcbc905)" style="fill: none; stroke-dasharray: 2.96,1.28; stroke-dashoffset: 0; stroke: #b0b0b0; stroke-opacity: 0.3; stroke-width: 0.8"/>
     </g>
     <g id="line2d_18">
      <g>
       <use xlink:href="#m0e9d6a6ce6" x="483.720889" y="384.1975" style="stroke: #000000; stroke-width: 0.8"/>
      </g>
     </g>
     <g id="text_9">
      <!-- Sep -->
      <g transform="translate(474.295889 398.795937) scale(0.1 -0.1)">
       <defs>
        <path id="DejaVuSans-53" d="M 3425 4513 
L 3425 3897 
Q 3066 4069 2747 4153 
Q 2428 4238 2131 4238 
Q 1616 4238 1336 4038 
Q 1056 3838 1056 3469 
Q 1056 3159 1242 3001 
Q 1428 2844 1947 2747 
L 2328 2669 
Q 3034 2534 3370 2195 
Q 3706 1856 3706 1288 
Q 3706 609 3251 259 
Q 2797 -91 1919 -91 
Q 1588 -91 1214 -16 
Q 841 59 441 206 
L 441 856 
Q 825 641 1194 531 
Q 1563 422 1919 422 
Q 2459 422 2753 634 
Q 3047 847 3047 1241 
Q 3047 1584 2836 1778 
Q 2625 1972 2144 2069 
L 1759 2144 
Q 1053 2284 737 2584 
Q 422 2884 422 3419 
Q 422 4038 858 4394 
Q 1294 4750 2059 4750 
Q 2388 4750 2728 4690 
Q 3069 4631 3425 4513 
z
" transform="scale(0.015625)"/>
       </defs>
       <use xlink:href="#DejaVuSans-53"/>
       <use xlink:href="#DejaVuSans-65" transform="translate(63.476562 0)"/>
       <use xlink:href="#DejaVuSans-70" transform="translate(125 0)"/>
      </g>
     </g>
    </g>
    <g id="xtick_10">
     <g id="line2d_19">
      <path d="M 535.831338 384.1975 
L 535.831338 39.3575 
" clip-path="url(#pf8fdcbc905)" style="fill: none; stroke-dasharray: 2.96,1.28; stroke-dashoffset: 0; stroke: #b0b0b0; stroke-opacity: 0.3; stroke-width: 0.8"/>
     </g>
     <g id="line2d_20">
      <g>
       <use xlink:href="#m0e9d6a6ce6" x="535.831338" y="384.1975" style="stroke: #000000; stroke-width: 0.8"/>
      </g>
     </g>
     <g id="text_10">
      <!-- Oct -->
      <g transform="translate(527.186026 398.795937) scale(0.1 -0.1)">
       <defs>
        <path id="DejaVuSans-4f" d="M 2522 4238 
Q 1834 4238 1429 3725 
Q 1025 3213 1025 2328 
Q 1025 1447 1429 934 
Q 1834 422 2522 422 
Q 3209 422 3611 934 
Q 4013 1447 4013 2328 
Q 4013 3213 3611 3725 
Q 3209 4238 2522 4238 
z
M 2522 4750 
Q 3503 4750 4090 4092 
Q 4678 3434 4678 2328 
Q 4678 1225 4090 567 
Q 3503 -91 2522 -91 
Q 1538 -91 948 565 
Q 359 1222 359 2328 
Q 359 3434 948 4092 
Q 1538 4750 2522 4750 
z
" transform="scale(0.015625)"/>
        <path id="DejaVuSans-63" d="M 3122 3366 
L 3122 2828 
Q 2878 2963 2633 3030 
Q 2388 3097 2138 3097 
Q 1578 3097 1268 2742 
Q 959 2388 959 1747 
Q 959 1106 1268 751 
Q 1578 397 2138 397 
Q 2388 397 2633 464 
Q 2878 531 3122 666 
L 3122 134 
Q 2881 22 2623 -34 
Q 2366 -91 2075 -91 
Q 1284 -91 818 406 
Q 353 903 353 1747 
Q 353 2603 823 3093 
Q 1294 3584 2113 3584 
Q 2378 3584 2631 3529 
Q 2884 3475 3122 3366 
z
" transform="scale(0.015625)"/>
        <path id="DejaVuSans-74" d="M 1172 4494 
L 1172 3500 
L 2356 3500 
L 2356 3053 
L 1172 3053 
L 1172 1153 
Q 1172 725 1289 603 
Q 1406 481 1766 481 
L 2356 481 
L 2356 0 
L 1766 0 
Q 1100 0 847 248 
Q 594 497 594 1153 
L 594 3053 
L 172 3053 
L 172 3500 
L 594 3500 
L 594 4494 
L 1172 4494 
z
" transform="scale(0.015625)"/>
       </defs>
       <use xlink:href="#DejaVuSans-4f"/>
       <use xlink:href="#DejaVuSans-63" transform="translate(78.710938 0)"/>
       <use xlink:href="#DejaVuSans-74" transform="translate(133.691406 0)"/>
      </g>
     </g>
    </g>
    <g id="xtick_11">
     <g id="line2d_21">
      <path d="M 589.678802 384.1975 
L 589.678802 39.3575 
" clip-path="url(#pf8fdcbc905)" style="fill: none; stroke-dasharray: 2.96,1.28; stroke-dashoffset: 0; stroke: #b0b0b0; stroke-opacity: 0.3; stroke-width: 0.8"/>
     </g>
     <g id="line2d_22">
      <g>
       <use xlink:href="#m0e9d6a6ce6" x="589.678802" y="384.1975" style="stroke: #000000; stroke-width: 0.8"/>
      </g>
     </g>
     <g id="text_11">
      <!-- Nov -->
      <g transform="translate(579.919427 398.795937) scale(0.1 -0.1)">
       <defs>
        <path id="DejaVuSans-4e" d="M 628 4666 
L 1478 4666 
L 3547 763 
L 3547 4666 
L 4159 4666 
L 4159 0 
L 3309 0 
L 1241 3903 
L 1241 0 
L 628 0 
L 628 4666 
z
" transform="scale(0.015625)"/>
        <path id="DejaVuSans-6f" d="M 1959 3097 
Q 1497 3097 1228 2736 
Q 959 2375 959 1747 
Q 959 1119 1226 758 
Q 1494 397 1959 397 
Q 2419 397 2687 759 
Q 2956 1122 2956 1747 
Q 2956 2369 2687 2733 
Q 2419 3097 1959 3097 
z
M 1959 3584 
Q 2709 3584 3137 3096 
Q 3566 2609 3566 1747 
Q 3566 888 3137 398 
Q 2709 -91 1959 -91 
Q 1206 -91 779 398 
Q 353 888 353 1747 
Q 353 2609 779 3096 
Q 1206 3584 1959 3584 
z
" transform="scale(0.015625)"/>
        <path id="DejaVuSans-76" d="M 191 3500 
L 800 3500 
L 1894 563 
L 2988 3500 
L 3597 3500 
L 2284 0 
L 1503 0 
L 191 3500 
z
" transform="scale(0.015625)"/>
       </defs>
       <use xlink:href="#DejaVuSans-4e"/>
       <use xlink:href="#DejaVuSans-6f" transform="translate(74.804688 0)"/>
       <use xlink:href="#DejaVuSans-76" transform="translate(135.986328 0)"/>
      </g>
     </g>
    </g>
    <g id="xtick_12">
     <g id="line2d_23">
      <path d="M 641.789251 384.1975 
L 641.789251 39.3575 
" clip-path="url(#pf8fdcbc905)" style="fill: none; stroke-dasharray: 2.96,1.28; stroke-dashoffset: 0; stroke: #b0b0b0; stroke-opacity: 0.3; stroke-width: 0.8"/>
     </g>
     <g id="line2d_24">
      <g>
       <use xlink:href="#m0e9d6a6ce6" x="641.789251" y="384.1975" style="stroke: #000000; stroke-width: 0.8"/>
      </g>
     </g>
     <g id="text_12">
      <!-- Dec -->
      <g transform="translate(632.11347 398.795937) scale(0.1 -0.1)">
       <defs>
        <path id="DejaVuSans-44" d="M 1259 4147 
L 1259 519 
L 2022 519 
Q 2988 519 3436 956 
Q 3884 1394 3884 2338 
Q 3884 3275 3436 3711 
Q 2988 4147 2022 4147 
L 1259 4147 
z
M 628 4666 
L 1925 4666 
Q 3281 4666 3915 4102 
Q 4550 3538 4550 2338 
Q 4550 1131 3912 565 
Q 3275 0 1925 0 
L 628 0 
L 628 4666 
z
" transform="scale(0.015625)"/>
       </defs>
       <use xlink:href="#DejaVuSans-44"/>
       <use xlink:href="#DejaVuSans-65" transform="translate(77.001953 0)"/>
       <use xlink:href="#DejaVuSans-63" transform="translate(138.525391 0)"/>
      </g>
     </g>
    </g>
    <g id="xtick_13">
     <g id="line2d_25">
      <path d="M 695.636716 384.1975 
L 695.636716 39.3575 
" clip-path="url(#pf8fdcbc905)" style="fill: none; stroke-dasharray: 2.96,1.28; stroke-dashoffset: 0; stroke: #b0b0b0; stroke-opacity: 0.3; stroke-width: 0.8"/>
     </g>
     <g id="line2d_26">
      <g>
       <use xlink:href="#m0e9d6a6ce6" x="695.636716" y="384.1975" style="stroke: #000000; stroke-width: 0.8"/>
      </g>
     </g>
     <g id="text_13">
      <!-- Jan -->
      <g transform="translate(687.928903 398.795937) scale(0.1 -0.1)">
       <use xlink:href="#DejaVuSans-4a"/>
       <use xlink:href="#DejaVuSans-61" transform="translate(29.492188 0)"/>
       <use xlink:href="#DejaVuSans-6e" transform="translate(90.771484 0)"/>
      </g>
     </g>
    </g>
    <g id="text_14">
     <!-- Day of the year -->
     <g transform="translate(336.388708 413.99375) scale(0.12 -0.12)">
      <defs>
       <path id="DejaVuSans-20" transform="scale(0.015625)"/>
       <path id="DejaVuSans-66" d="M 2375 4863 
L 2375 4384 
L 1825 4384 
Q 1516 4384 1395 4259 
Q 1275 4134 1275 3809 
L 1275 3500 
L 2222 3500 
L 2222 3053 
L 1275 3053 
L 1275 0 
L 697 0 
L 697 3053 
L 147 3053 
L 147 3500 
L 697 3500 
L 697 3744 
Q 697 4328 969 4595 
Q 1241 4863 1831 4863 
L 2375 4863 
z
" transform="scale(0.015625)"/>
       <path id="DejaVuSans-68" d="M 3513 2113 
L 3513 0 
L 2938 0 
L 2938 2094 
Q 2938 2591 2744 2837 
Q 2550 3084 2163 3084 
Q 1697 3084 1428 2787 
Q 1159 2491 1159 1978 
L 1159 0 
L 581 0 
L 581 4863 
L 1159 4863 
L 1159 2956 
Q 1366 3272 1645 3428 
Q 1925 3584 2291 3584 
Q 2894 3584 3203 3211 
Q 3513 2838 3513 2113 
z
" transform="scale(0.015625)"/>
      </defs>
      <use xlink:href="#DejaVuSans-44"/>
      <use xlink:href="#DejaVuSans-61" transform="translate(77.001953 0)"/>
      <use xlink:href="#DejaVuSans-79" transform="translate(138.28125 0)"/>
      <use xlink:href="#DejaVuSans-20" transform="translate(197.460938 0)"/>
      <use xlink:href="#DejaVuSans-6f" transform="translate(229.248047 0)"/>
      <use xlink:href="#DejaVuSans-66" transform="translate(290.429688 0)"/>
      <use xlink:href="#DejaVuSans-20" transform="translate(325.634766 0)"/>
      <use xlink:href="#DejaVuSans-74" transform="translate(357.421875 0)"/>
      <use xlink:href="#DejaVuSans-68" transform="translate(396.630859 0)"/>
      <use xlink:href="#DejaVuSans-65" transform="translate(460.009766 0)"/>
      <use xlink:href="#DejaVuSans-20" transform="translate(521.533203 0)"/>
      <use xlink:href="#DejaVuSans-79" transform="translate(553.320312 0)"/>
      <use xlink:href="#DejaVuSans-65" transform="translate(612.5 0)"/>
      <use xlink:href="#DejaVuSans-61" transform="translate(674.023438 0)"/>
      <use xlink:href="#DejaVuSans-72" transform="translate(735.302734 0)"/>
     </g>
    </g>
   </g>
   <g id="matplotlib.axis_2">
    <g id="ytick_1">
     <g id="line2d_27">
      <path d="M 61.62625 384.1975 
L 704.321791 384.1975 
" clip-path="url(#pf8fdcbc905)" style="fill: none; stroke-dasharray: 2.96,1.28; stroke-dashoffset: 0; stroke: #b0b0b0; stroke-opacity: 0.3; stroke-width: 0.8"/>
     </g>
     <g id="line2d_28">
      <defs>
       <path id="m90e5def941" d="M 0 0 
L -3.5 0 
" style="stroke: #000000; stroke-width: 0.8"/>
      </defs>
      <g>
       <use xlink:href="#m90e5def941" x="61.62625" y="384.1975" style="stroke: #000000; stroke-width: 0.8"/>
      </g>
     </g>
     <g id="text_15">
      <!-- 0 -->
      <g transform="translate(48.26375 387.996719) scale(0.1 -0.1)">
       <defs>
        <path id="DejaVuSans-30" d="M 2034 4250 
Q 1547 4250 1301 3770 
Q 1056 3291 1056 2328 
Q 1056 1369 1301 889 
Q 1547 409 2034 409 
Q 2525 409 2770 889 
Q 3016 1369 3016 2328 
Q 3016 3291 2770 3770 
Q 2525 4250 2034 4250 
z
M 2034 4750 
Q 2819 4750 3233 4129 
Q 3647 3509 3647 2328 
Q 3647 1150 3233 529 
Q 2819 -91 2034 -91 
Q 1250 -91 836 529 
Q 422 1150 422 2328 
Q 422 3509 836 4129 
Q 1250 4750 2034 4750 
z
" transform="scale(0.015625)"/>
       </defs>
       <use xlink:href="#DejaVuSans-30"/>
      </g>
     </g>
    </g>
    <g id="ytick_2">
     <g id="line2d_29">
      <path d="M 61.62625 330.232098 
L 704.321791 330.232098 
" clip-path="url(#pf8fdcbc905)" style="fill: none; stroke-dasharray: 2.96,1.28; stroke-dashoffset: 0; stroke: #b0b0b0; stroke-opacity: 0.3; stroke-width: 0.8"/>
     </g>
     <g id="line2d_30">
      <g>
       <use xlink:href="#m90e5def941" x="61.62625" y="330.232098" style="stroke: #000000; stroke-width: 0.8"/>
      </g>
     </g>
     <g id="text_16">
      <!-- 10000 -->
      <g transform="translate(22.81375 334.031316) scale(0.1 -0.1)">
       <defs>
        <path id="DejaVuSans-31" d="M 794 531 
L 1825 531 
L 1825 4091 
L 703 3866 
L 703 4441 
L 1819 4666 
L 2450 4666 
L 2450 531 
L 3481 531 
L 3481 0 
L 794 0 
L 794 531 
z
" transform="scale(0.015625)"/>
       </defs>
       <use xlink:href="#DejaVuSans-31"/>
       <use xlink:href="#DejaVuSans-30" transform="translate(63.623047 0)"/>
       <use xlink:href="#DejaVuSans-30" transform="translate(127.246094 0)"/>
       <use xlink:href="#DejaVuSans-30" transform="translate(190.869141 0)"/>
       <use xlink:href="#DejaVuSans-30" transform="translate(254.492188 0)"/>
      </g>
     </g>
    </g>
    <g id="ytick_3">
     <g id="line2d_31">
      <path d="M 61.62625 276.266695 
L 704.321791 276.266695 
" clip-path="url(#pf8fdcbc905)" style="fill: none; stroke-dasharray: 2.96,1.28; stroke-dashoffset: 0; stroke: #b0b0b0; stroke-opacity: 0.3; stroke-width: 0.8"/>
     </g>
     <g id="line2d_32">
      <g>
       <use xlink:href="#m90e5def941" x="61.62625" y="276.266695" style="stroke: #000000; stroke-width: 0.8"/>
      </g>
     </g>
     <g id="text_17">
      <!-- 20000 -->
      <g transform="translate(22.81375 280.065914) scale(0.1 -0.1)">
       <defs>
        <path id="DejaVuSans-32" d="M 1228 531 
L 3431 531 
L 3431 0 
L 469 0 
L 469 531 
Q 828 903 1448 1529 
Q 2069 2156 2228 2338 
Q 2531 2678 2651 2914 
Q 2772 3150 2772 3378 
Q 2772 3750 2511 3984 
Q 2250 4219 1831 4219 
Q 1534 4219 1204 4116 
Q 875 4013 500 3803 
L 500 4441 
Q 881 4594 1212 4672 
Q 1544 4750 1819 4750 
Q 2544 4750 2975 4387 
Q 3406 4025 3406 3419 
Q 3406 3131 3298 2873 
Q 3191 2616 2906 2266 
Q 2828 2175 2409 1742 
Q 1991 1309 1228 531 
z
" transform="scale(0.015625)"/>
       </defs>
       <use xlink:href="#DejaVuSans-32"/>
       <use xlink:href="#DejaVuSans-30" transform="translate(63.623047 0)"/>
       <use xlink:href="#DejaVuSans-30" transform="translate(127.246094 0)"/>
       <use xlink:href="#DejaVuSans-30" transform="translate(190.869141 0)"/>
       <use xlink:href="#DejaVuSans-30" transform="translate(254.492188 0)"/>
      </g>
     </g>
    </g>
    <g id="ytick_4">
     <g id="line2d_33">
      <path d="M 61.62625 222.301293 
L 704.321791 222.301293 
" clip-path="url(#pf8fdcbc905)" style="fill: none; stroke-dasharray: 2.96,1.28; stroke-dashoffset: 0; stroke: #b0b0b0; stroke-opacity: 0.3; stroke-width: 0.8"/>
     </g>
     <g id="line2d_34">
      <g>
       <use xlink:href="#m90e5def941" x="61.62625" y="222.301293" style="stroke: #000000; stroke-width: 0.8"/>
      </g>
     </g>
     <g id="text_18">
      <!-- 30000 -->
      <g transform="translate(22.81375 226.100512) scale(0.1 -0.1)">
       <defs>
        <path id="DejaVuSans-33" d="M 2597 2516 
Q 3050 2419 3304 2112 
Q 3559 1806 3559 1356 
Q 3559 666 3084 287 
Q 2609 -91 1734 -91 
Q 1441 -91 1130 -33 
Q 819 25 488 141 
L 488 750 
Q 750 597 1062 519 
Q 1375 441 1716 441 
Q 2309 441 2620 675 
Q 2931 909 2931 1356 
Q 2931 1769 2642 2001 
Q 2353 2234 1838 2234 
L 1294 2234 
L 1294 2753 
L 1863 2753 
Q 2328 2753 2575 2939 
Q 2822 3125 2822 3475 
Q 2822 3834 2567 4026 
Q 2313 4219 1838 4219 
Q 1578 4219 1281 4162 
Q 984 4106 628 3988 
L 628 4550 
Q 988 4650 1302 4700 
Q 1616 4750 1894 4750 
Q 2613 4750 3031 4423 
Q 3450 4097 3450 3541 
Q 3450 3153 3228 2886 
Q 3006 2619 2597 2516 
z
" transform="scale(0.015625)"/>
       </defs>
       <use xlink:href="#DejaVuSans-33"/>
       <use xlink:href="#DejaVuSans-30" transform="translate(63.623047 0)"/>
       <use xlink:href="#DejaVuSans-30" transform="translate(127.246094 0)"/>
       <use xlink:href="#DejaVuSans-30" transform="translate(190.869141 0)"/>
       <use xlink:href="#DejaVuSans-30" transform="translate(254.492188 0)"/>
      </g>
     </g>
    </g>
    <g id="ytick_5">
     <g id="line2d_35">
      <path d="M 61.62625 168.335891 
L 704.321791 168.335891 
" clip-path="url(#pf8fdcbc905)" style="fill: none; stroke-dasharray: 2.96,1.28; stroke-dashoffset: 0; stroke: #b0b0b0; stroke-opacity: 0.3; stroke-width: 0.8"/>
     </g>
     <g id="line2d_36">
      <g>
       <use xlink:href="#m90e5def941" x="61.62625" y="168.335891" style="stroke: #000000; stroke-width: 0.8"/>
      </g>
     </g>
     <g id="text_19">
      <!-- 40000 -->
      <g transform="translate(22.81375 172.13511) scale(0.1 -0.1)">
       <defs>
        <path id="DejaVuSans-34" d="M 2419 4116 
L 825 1625 
L 2419 1625 
L 2419 4116 
z
M 2253 4666 
L 3047 4666 
L 3047 1625 
L 3713 1625 
L 3713 1100 
L 3047 1100 
L 3047 0 
L 2419 0 
L 2419 1100 
L 313 1100 
L 313 1709 
L 2253 4666 
z
" transform="scale(0.015625)"/>
       </defs>
       <use xlink:href="#DejaVuSans-34"/>
       <use xlink:href="#DejaVuSans-30" transform="translate(63.623047 0)"/>
       <use xlink:href="#DejaVuSans-30" transform="translate(127.246094 0)"/>
       <use xlink:href="#DejaVuSans-30" transform="translate(190.869141 0)"/>
       <use xlink:href="#DejaVuSans-30" transform="translate(254.492188 0)"/>
      </g>
     </g>
    </g>
    <g id="ytick_6">
     <g id="line2d_37">
      <path d="M 61.62625 114.370489 
L 704.321791 114.370489 
" clip-path="url(#pf8fdcbc905)" style="fill: none; stroke-dasharray: 2.96,1.28; stroke-dashoffset: 0; stroke: #b0b0b0; stroke-opacity: 0.3; stroke-width: 0.8"/>
     </g>
     <g id="line2d_38">
      <g>
       <use xlink:href="#m90e5def941" x="61.62625" y="114.370489" style="stroke: #000000; stroke-width: 0.8"/>
      </g>
     </g>
     <g id="text_20">
      <!-- 50000 -->
      <g transform="translate(22.81375 118.169707) scale(0.1 -0.1)">
       <defs>
        <path id="DejaVuSans-35" d="M 691 4666 
L 3169 4666 
L 3169 4134 
L 1269 4134 
L 1269 2991 
Q 1406 3038 1543 3061 
Q 1681 3084 1819 3084 
Q 2600 3084 3056 2656 
Q 3513 2228 3513 1497 
Q 3513 744 3044 326 
Q 2575 -91 1722 -91 
Q 1428 -91 1123 -41 
Q 819 9 494 109 
L 494 744 
Q 775 591 1075 516 
Q 1375 441 1709 441 
Q 2250 441 2565 725 
Q 2881 1009 2881 1497 
Q 2881 1984 2565 2268 
Q 2250 2553 1709 2553 
Q 1456 2553 1204 2497 
Q 953 2441 691 2322 
L 691 4666 
z
" transform="scale(0.015625)"/>
       </defs>
       <use xlink:href="#DejaVuSans-35"/>
       <use xlink:href="#DejaVuSans-30" transform="translate(63.623047 0)"/>
       <use xlink:href="#DejaVuSans-30" transform="translate(127.246094 0)"/>
       <use xlink:href="#DejaVuSans-30" transform="translate(190.869141 0)"/>
       <use xlink:href="#DejaVuSans-30" transform="translate(254.492188 0)"/>
      </g>
     </g>
    </g>
    <g id="ytick_7">
     <g id="line2d_39">
      <path d="M 61.62625 60.405086 
L 704.321791 60.405086 
" clip-path="url(#pf8fdcbc905)" style="fill: none; stroke-dasharray: 2.96,1.28; stroke-dashoffset: 0; stroke: #b0b0b0; stroke-opacity: 0.3; stroke-width: 0.8"/>
     </g>
     <g id="line2d_40">
      <g>
       <use xlink:href="#m90e5def941" x="61.62625" y="60.405086" style="stroke: #000000; stroke-width: 0.8"/>
      </g>
     </g>
     <g id="text_21">
      <!-- 60000 -->
      <g transform="translate(22.81375 64.204305) scale(0.1 -0.1)">
       <defs>
        <path id="DejaVuSans-36" d="M 2113 2584 
Q 1688 2584 1439 2293 
Q 1191 2003 1191 1497 
Q 1191 994 1439 701 
Q 1688 409 2113 409 
Q 2538 409 2786 701 
Q 3034 994 3034 1497 
Q 3034 2003 2786 2293 
Q 2538 2584 2113 2584 
z
M 3366 4563 
L 3366 3988 
Q 3128 4100 2886 4159 
Q 2644 4219 2406 4219 
Q 1781 4219 1451 3797 
Q 1122 3375 1075 2522 
Q 1259 2794 1537 2939 
Q 1816 3084 2150 3084 
Q 2853 3084 3261 2657 
Q 3669 2231 3669 1497 
Q 3669 778 3244 343 
Q 2819 -91 2113 -91 
Q 1303 -91 875 529 
Q 447 1150 447 2328 
Q 447 3434 972 4092 
Q 1497 4750 2381 4750 
Q 2619 4750 2861 4703 
Q 3103 4656 3366 4563 
z
" transform="scale(0.015625)"/>
       </defs>
       <use xlink:href="#DejaVuSans-36"/>
       <use xlink:href="#DejaVuSans-30" transform="translate(63.623047 0)"/>
       <use xlink:href="#DejaVuSans-30" transform="translate(127.246094 0)"/>
       <use xlink:href="#DejaVuSans-30" transform="translate(190.869141 0)"/>
       <use xlink:href="#DejaVuSans-30" transform="translate(254.492188 0)"/>
      </g>
     </g>
    </g>
    <g id="text_22">
     <!-- Daily pedestrian count -->
     <g transform="translate(16.318125 279.793125) rotate(-90) scale(0.12 -0.12)">
      <defs>
       <path id="DejaVuSans-69" d="M 603 3500 
L 1178 3500 
L 1178 0 
L 603 0 
L 603 3500 
z
M 603 4863 
L 1178 4863 
L 1178 4134 
L 603 4134 
L 603 4863 
z
" transform="scale(0.015625)"/>
       <path id="DejaVuSans-64" d="M 2906 2969 
L 2906 4863 
L 3481 4863 
L 3481 0 
L 2906 0 
L 2906 525 
Q 2725 213 2448 61 
Q 2172 -91 1784 -91 
Q 1150 -91 751 415 
Q 353 922 353 1747 
Q 353 2572 751 3078 
Q 1150 3584 1784 3584 
Q 2172 3584 2448 3432 
Q 2725 3281 2906 2969 
z
M 947 1747 
Q 947 1113 1208 752 
Q 1469 391 1925 391 
Q 2381 391 2643 752 
Q 2906 1113 2906 1747 
Q 2906 2381 2643 2742 
Q 2381 3103 1925 3103 
Q 1469 3103 1208 2742 
Q 947 2381 947 1747 
z
" transform="scale(0.015625)"/>
       <path id="DejaVuSans-73" d="M 2834 3397 
L 2834 2853 
Q 2591 2978 2328 3040 
Q 2066 3103 1784 3103 
Q 1356 3103 1142 2972 
Q 928 2841 928 2578 
Q 928 2378 1081 2264 
Q 1234 2150 1697 2047 
L 1894 2003 
Q 2506 1872 2764 1633 
Q 3022 1394 3022 966 
Q 3022 478 2636 193 
Q 2250 -91 1575 -91 
Q 1294 -91 989 -36 
Q 684 19 347 128 
L 347 722 
Q 666 556 975 473 
Q 1284 391 1588 391 
Q 1994 391 2212 530 
Q 2431 669 2431 922 
Q 2431 1156 2273 1281 
Q 2116 1406 1581 1522 
L 1381 1569 
Q 847 1681 609 1914 
Q 372 2147 372 2553 
Q 372 3047 722 3315 
Q 1072 3584 1716 3584 
Q 2034 3584 2315 3537 
Q 2597 3491 2834 3397 
z
" transform="scale(0.015625)"/>
      </defs>
      <use xlink:href="#DejaVuSans-44"/>
      <use xlink:href="#DejaVuSans-61" transform="translate(77.001953 0)"/>
      <use xlink:href="#DejaVuSans-69" transform="translate(138.28125 0)"/>
      <use xlink:href="#DejaVuSans-6c" transform="translate(166.064453 0)"/>
      <use xlink:href="#DejaVuSans-79" transform="translate(193.847656 0)"/>
      <use xlink:href="#DejaVuSans-20" transform="translate(253.027344 0)"/>
      <use xlink:href="#DejaVuSans-70" transform="translate(284.814453 0)"/>
      <use xlink:href="#DejaVuSans-65" transform="translate(348.291016 0)"/>
      <use xlink:href="#DejaVuSans-64" transform="translate(409.814453 0)"/>
      <use xlink:href="#DejaVuSans-65" transform="translate(473.291016 0)"/>
      <use xlink:href="#DejaVuSans-73" transform="translate(534.814453 0)"/>
      <use xlink:href="#DejaVuSans-74" transform="translate(586.914062 0)"/>
      <use xlink:href="#DejaVuSans-72" transform="translate(626.123047 0)"/>
      <use xlink:href="#DejaVuSans-69" transform="translate(667.236328 0)"/>
      <use xlink:href="#DejaVuSans-61" transform="translate(695.019531 0)"/>
      <use xlink:href="#DejaVuSans-6e" transform="translate(756.298828 0)"/>
      <use xlink:href="#DejaVuSans-20" transform="translate(819.677734 0)"/>
      <use xlink:href="#DejaVuSans-63" transform="translate(851.464844 0)"/>
      <use xlink:href="#DejaVuSans-6f" transform="translate(906.445312 0)"/>
      <use xlink:href="#DejaVuSans-75" transform="translate(967.626953 0)"/>
      <use xlink:href="#DejaVuSans-6e" transform="translate(1031.005859 0)"/>
      <use xlink:href="#DejaVuSans-74" transform="translate(1094.384766 0)"/>
     </g>
    </g>
   </g>
   <g id="line2d_41">
    <path d="M 63.363265 191.70291 
L 65.10028 126.302239 
L 66.837295 131.401969 
L 68.57431 187.86597 
L 70.311325 155.837504 
L 72.04834 180.478106 
L 73.785355 162.788247 
L 75.52237 153.867766 
L 77.259385 128.752268 
L 78.9964 147.17066 
L 80.733415 121.990403 
L 82.47043 148.805812 
L 84.207445 182.642119 
L 85.94446 299.989886 
L 87.681475 316.406162 
L 89.41849 309.833176 
L 91.155505 313.545995 
L 92.89252 289.293944 
L 94.629535 277.184107 
L 96.366549 302.024382 
L 98.103564 313.486633 
L 99.840579 310.939466 
L 101.577594 303.378914 
L 103.314609 321.646202 
L 105.051624 310.48076 
L 106.788639 284.787832 
L 108.525654 295.818361 
L 110.262669 327.792862 
L 111.999684 333.853176 
L 113.736699 342.072107 
L 115.473714 325.790745 
L 117.210729 296.27167 
L 118.947744 285.656675 
L 120.684759 322.16427 
L 122.421774 326.924019 
L 124.158789 317.944176 
L 125.895804 333.810004 
L 127.632819 312.596204 
L 129.369834 288.603186 
L 131.106849 287.777516 
L 132.843864 283.390129 
L 134.580879 324.17718 
L 136.317894 337.020945 
L 138.054909 318.284158 
L 139.791924 310.156968 
L 141.528939 292.402351 
L 143.265954 290.054856 
L 145.002969 314.166597 
L 146.739984 330.690804 
L 148.476999 330.420977 
L 150.214014 324.824764 
L 151.951029 326.260244 
L 153.688044 303.335741 
L 155.425059 290.324683 
L 157.162074 297.647788 
L 158.899089 328.111257 
L 160.636104 326.659588 
L 162.373119 314.484993 
L 164.110133 314.544355 
L 165.847148 298.932164 
L 167.584163 296.525307 
L 169.321178 320.442774 
L 171.058193 324.630489 
L 172.795208 321.689375 
L 174.532223 326.271037 
L 176.269238 313.972322 
L 178.006253 236.731642 
L 179.743268 126.334618 
L 183.217298 124.483605 
L 184.954313 316.988988 
L 186.691328 317.102315 
L 188.428343 312.563825 
L 190.165358 285.419228 
L 191.902373 267.767145 
L 193.639388 288.640962 
L 195.376403 314.717045 
L 197.113418 322.579804 
L 198.850433 323.016923 
L 200.587448 306.125752 
L 202.324463 263.789894 
L 204.061478 250.579164 
L 205.798493 175.232669 
L 207.535508 221.033106 
L 209.272523 207.903324 
L 211.009538 168.254943 
L 212.746553 135.654443 
L 214.483568 135.913477 
L 216.220583 203.300075 
L 217.957598 223.391394 
L 219.694613 207.48779 
L 221.431628 172.178227 
L 223.168643 182.728464 
L 224.905658 162.928557 
L 226.642673 115.984054 
L 228.379688 58.214091 
L 230.116703 94.872789 
L 231.853717 83.086745 
L 233.590732 112.470906 
L 235.327747 90.949504 
L 237.064762 91.564709 
L 238.801777 55.666924 
L 240.538792 70.636926 
L 242.275807 121.688197 
L 244.012822 102.249859 
L 245.749837 79.746286 
L 247.486852 94.700099 
L 249.223867 90.841573 
L 250.960882 109.33012 
L 252.697897 94.009342 
L 254.434912 132.740311 
L 256.171927 201.756664 
L 257.908942 148.962311 
L 259.645957 180.03559 
L 261.382972 98.396729 
L 263.119987 213.046227 
L 264.857002 202.522973 
L 266.594017 259.321559 
L 268.331032 233.477528 
L 270.068047 211.610747 
L 271.805062 219.775712 
L 273.542077 219.808092 
L 275.279092 178.249335 
L 277.016107 203.94766 
L 278.753122 238.938827 
L 280.490137 228.361608 
L 282.227152 214.91343 
L 283.964167 223.623445 
L 287.438197 229.203468 
L 289.175212 200.364357 
L 290.912227 230.660534 
L 292.649242 229.937398 
L 294.386257 220.13728 
L 296.123272 216.31653 
L 297.860287 214.406155 
L 299.597301 184.757563 
L 301.334316 172.091883 
L 303.071331 218.431974 
L 304.808346 231.685877 
L 306.545361 205.242829 
L 308.282376 200.82846 
L 310.019391 191.233411 
L 311.756406 194.309439 
L 313.493421 191.810841 
L 315.230436 248.582444 
L 316.967451 249.775079 
L 318.704466 237.897294 
L 320.441481 248.436737 
L 322.178496 243.466524 
L 323.915511 221.508002 
L 325.652526 208.335047 
L 327.389541 262.451552 
L 329.126556 276.531126 
L 330.863571 247.789153 
L 332.600586 233.5207 
L 334.337601 243.212886 
L 336.074616 187.358695 
L 337.811631 191.945754 
L 339.548646 214.19569 
L 341.285661 250.692491 
L 343.022676 231.815394 
L 344.759691 256.774392 
L 346.496706 236.850366 
L 348.233721 184.660425 
L 349.970736 99.999502 
L 351.707751 187.42885 
L 353.444766 239.926393 
L 355.181781 263.978773 
L 356.918796 240.93015 
L 358.655811 240.735875 
L 360.392826 207.590324 
L 362.129841 215.086119 
L 363.866856 263.779101 
L 365.603871 221.335312 
L 367.340886 228.728573 
L 369.0779 228.24828 
L 370.814915 224.643392 
L 372.55193 187.223782 
L 374.288945 255.846187 
L 376.02596 250.169027 
L 377.762975 226.974697 
L 379.49999 227.633075 
L 381.237005 200.364357 
L 382.97402 201.184631 
L 384.711035 154.531541 
L 386.44805 113.544818 
L 388.185065 219.943005 
L 389.92208 149.890516 
L 391.659095 161.174682 
L 393.39611 163.743435 
L 395.133125 178.168387 
L 396.87014 163.721849 
L 398.607155 190.159499 
L 400.34417 239.823859 
L 402.081185 249.909993 
L 403.8182 240.487634 
L 405.555215 245.992105 
L 407.29223 229.127916 
L 409.029245 182.820205 
L 410.76626 186.047336 
L 412.503275 243.185904 
L 414.24029 226.926128 
L 415.977305 258.663181 
L 417.71432 233.671803 
L 419.451335 232.905495 
L 421.18835 220.061729 
L 422.925365 183.834754 
L 424.66238 194.876076 
L 426.399395 250.530595 
L 428.13641 237.400813 
L 429.873425 239.332774 
L 431.61044 237.908087 
L 433.347455 194.946231 
L 435.08447 209.910837 
L 436.821484 221.912742 
L 438.558499 236.478004 
L 440.295514 249.499856 
L 442.032529 221.961311 
L 443.769544 220.720107 
L 445.506559 231.734445 
L 447.243574 220.261401 
L 448.980589 264.313359 
L 450.717604 243.525886 
L 452.454619 232.360444 
L 454.191634 234.39494 
L 455.928649 225.852217 
L 457.665664 216.122255 
L 459.402679 165.09257 
L 461.139694 263.185482 
L 462.876709 242.138975 
L 464.613724 250.994698 
L 466.350739 234.788887 
L 468.087754 197.741639 
L 469.824769 122.384351 
L 471.561784 129.820783 
L 473.298799 197.407053 
L 475.035814 235.145059 
L 476.772829 233.09977 
L 478.509844 266.137389 
L 480.246859 234.702543 
L 481.983874 152.194839 
L 483.720889 124.478208 
L 485.457904 214.935016 
L 487.194919 235.986919 
L 488.931934 222.657465 
L 490.668949 228.345418 
L 492.405964 227.077231 
L 494.142979 182.32912 
L 495.879994 216.715874 
L 497.617009 275.165801 
L 499.354024 257.146753 
L 501.091039 237.584295 
L 502.828054 210.9038 
L 504.565068 234.103527 
L 506.302083 191.325152 
L 508.039098 222.171776 
L 509.776113 269.672123 
L 511.513128 223.450756 
L 513.250143 232.565513 
L 514.987158 222.85174 
L 516.724173 199.560273 
L 518.461188 141.860464 
L 520.198203 211.907557 
L 521.935218 228.636831 
L 523.672233 233.164529 
L 525.409248 214.406155 
L 527.146263 194.185319 
L 528.883278 136.334407 
L 530.620293 212.166591 
L 532.357308 197.439432 
L 534.094323 227.357851 
L 535.831338 229.759312 
L 537.568353 204.724762 
L 539.305368 187.574557 
L 541.042383 172.086486 
L 542.779398 179.803539 
L 544.516413 161.940991 
L 546.253428 204.060987 
L 547.990443 195.766505 
L 549.727458 230.218018 
L 551.464473 221.842587 
L 553.201488 210.590801 
L 554.938503 163.279333 
L 556.675518 158.071671 
L 558.412533 169.80375 
L 560.149548 225.274787 
L 561.886563 222.652068 
L 563.623578 241.869148 
L 565.360593 234.438112 
L 567.097608 186.354939 
L 568.834623 206.705292 
L 570.571638 244.713125 
L 572.308652 213.105589 
L 574.045667 204.622227 
L 575.782682 188.572917 
L 577.519697 198.97205 
L 579.256712 187.844384 
L 580.993727 225.976337 
L 582.730742 246.434621 
L 584.467757 224.950994 
L 586.204772 211.448851 
L 587.941787 213.467157 
L 589.678802 224.751322 
L 591.415817 195.68016 
L 593.152832 253.800898 
L 594.889847 264.820634 
L 596.626862 232.614081 
L 598.363877 250.973111 
L 600.100892 230.860206 
L 601.837907 266.563716 
L 603.574922 264.399703 
L 605.311937 270.465415 
L 607.048952 269.553399 
L 608.785967 250.406475 
L 610.522982 296.816721 
L 612.259997 307.410129 
L 613.997012 286.973431 
L 615.734027 300.54573 
L 617.471042 279.639533 
L 619.208057 297.064961 
L 620.945072 293.929572 
L 622.682087 301.765348 
L 624.419102 262.942638 
L 626.156117 284.156437 
L 627.893132 240.838409 
L 629.630147 224.875443 
L 631.367162 243.353197 
L 633.104177 273.465891 
L 634.841192 284.156437 
L 636.578207 254.950361 
L 638.315222 231.011309 
L 641.789251 239.52705 
L 643.526266 298.095701 
L 645.263281 274.237596 
L 647.000296 261.334469 
L 648.737311 244.772487 
L 650.474326 225.711907 
L 652.211341 227.902902 
L 653.948356 181.59519 
L 655.685371 199.981203 
L 657.422386 223.218705 
L 659.159401 205.728518 
L 660.896416 191.880996 
L 662.633431 170.672593 
L 664.370446 145.530112 
L 666.107461 145.200923 
L 667.844476 163.802797 
L 669.581491 177.002734 
L 671.318506 189.182726 
L 673.055521 199.457738 
L 674.792536 171.903004 
L 676.529551 216.014324 
L 678.266566 170.748144 
L 680.003581 164.574502 
L 681.740596 173.21976 
L 683.477611 182.825601 
L 685.214626 211.152041 
L 686.951641 200.39134 
L 688.688656 160.640424 
L 690.425671 173.856551 
L 692.162686 188.556727 
L 693.899701 259.461869 
L 695.636716 143.382289 
L 695.636716 143.382289 
" clip-path="url(#pf8fdcbc905)" style="fill: none; stroke: #0d6efc; stroke-opacity: 0.8; stroke-width: 2.5; stroke-linecap: square"/>
   </g>
   <g id="line2d_42">
    <path d="M 63.363265 274.178234 
L 65.10028 253.973588 
L 66.837295 265.349495 
L 68.57431 307.059354 
L 70.311325 306.80032 
L 72.04834 336.999359 
L 73.785355 325.00285 
L 75.52237 277.092366 
L 77.259385 282.537475 
L 78.9964 291.625249 
L 80.733415 307.037768 
L 82.47043 317.517849 
L 84.207445 300.410816 
L 85.94446 300.189558 
L 87.681475 280.92391 
L 89.41849 257.017236 
L 91.155505 258.85206 
L 92.89252 223.477739 
L 94.629535 262.12776 
L 96.366549 334.489968 
L 98.103564 289.585357 
L 99.840579 266.250717 
L 101.577594 276.768574 
L 103.314609 279.806826 
L 105.051624 240.007342 
L 108.525654 315.904283 
L 110.262669 313.292358 
L 111.999684 322.002374 
L 113.736699 280.794393 
L 115.473714 277.07078 
L 117.210729 285.030677 
L 118.947744 313.357116 
L 120.684759 319.3095 
L 122.421774 321.856667 
L 124.158789 312.126705 
L 125.895804 328.084275 
L 127.632819 253.89264 
L 129.369834 259.434886 
L 131.106849 308.057714 
L 132.843864 365.498488 
L 134.580879 368.09962 
L 136.317894 364.899472 
L 138.054909 360.949205 
L 139.791924 329.579116 
L 141.528939 289.391081 
L 143.265954 300.82635 
L 145.002969 318.079089 
L 146.739984 297.815081 
L 148.476999 304.879152 
L 150.214014 283.303784 
L 151.951029 243.061783 
L 153.688044 307.183474 
L 155.425059 313.745667 
L 158.899089 288.381928 
L 160.636104 313.486633 
L 162.373119 309.35828 
L 164.110133 258.301613 
L 165.847148 271.129189 
L 167.584163 317.388332 
L 169.321178 300.281299 
L 171.058193 267.659214 
L 172.795208 305.936874 
L 174.532223 271.188551 
L 176.269238 266.288493 
L 178.006253 271.490757 
L 179.743268 249.472873 
L 181.480283 253.401554 
L 183.217298 310.135382 
L 184.954313 292.213472 
L 186.691328 290.416424 
L 188.428343 241.119029 
L 190.165358 250.115061 
L 191.902373 315.20813 
L 193.639388 277.011418 
L 195.376403 289.655512 
L 197.113418 270.465415 
L 198.850433 309.250349 
L 200.587448 297.431926 
L 202.324463 274.620751 
L 204.061478 307.777094 
L 205.798493 303.297965 
L 207.535508 284.674505 
L 209.272523 297.340185 
L 211.009538 294.41526 
L 212.746553 296.104377 
L 214.483568 279.898567 
L 217.957598 321.495099 
L 219.694613 309.530969 
L 221.431628 293.4169 
L 223.168643 299.633715 
L 224.905658 314.932906 
L 226.642673 264.318755 
L 228.379688 307.172681 
L 230.116703 368.83355 
L 231.853717 360.177499 
L 233.590732 361.105704 
L 235.327747 368.70943 
L 237.064762 285.72683 
L 238.801777 256.342669 
L 240.538792 263.622602 
L 242.275807 297.712546 
L 244.012822 306.341614 
L 245.749837 272.559272 
L 247.486852 284.976711 
L 249.223867 275.93211 
L 250.960882 265.657097 
L 252.697897 304.447428 
L 254.434912 303.745878 
L 256.171927 312.488273 
L 257.908942 332.784661 
L 259.645957 314.544355 
L 261.382972 292.985177 
L 263.119987 298.370924 
L 264.857002 332.4123 
L 266.594017 327.264001 
L 268.331032 341.214057 
L 270.068047 311.678792 
L 273.542077 320.275481 
L 275.279092 310.48076 
L 277.016107 318.974915 
L 278.753122 325.15935 
L 280.490137 322.115701 
L 282.227152 319.298707 
L 283.964167 326.848467 
L 285.701182 321.975391 
L 287.438197 298.209028 
L 289.175212 316.503299 
L 290.912227 323.297544 
L 292.649242 291.922059 
L 294.386257 335.666414 
L 296.123272 314.010098 
L 297.860287 328.899152 
L 299.597301 339.740802 
L 301.334316 315.839525 
L 303.071331 329.212152 
L 304.808346 328.456636 
L 306.545361 325.725987 
L 308.282376 327.577 
L 310.019391 322.730907 
L 311.756406 304.36648 
L 313.493421 308.052317 
L 315.230436 369.060205 
L 316.967451 375.514467 
L 318.704466 372.837783 
L 320.441481 368.623085 
L 322.178496 354.349236 
L 323.915511 304.949307 
L 325.652526 325.089195 
L 327.389541 331.635198 
L 329.126556 342.768261 
L 330.863571 334.290296 
L 332.600586 325.024436 
L 334.337601 338.866562 
L 336.074616 370.662977 
L 337.811631 283.039353 
L 339.548646 341.516263 
L 341.285661 340.949627 
L 343.022676 331.176492 
L 344.759691 302.450709 
L 346.496706 322.131891 
L 348.233721 303.0875 
L 349.970736 374.829106 
L 351.707751 310.880104 
L 353.444766 339.719215 
L 355.181781 305.111203 
L 356.918796 296.098981 
L 358.655811 362.659908 
L 360.392826 317.701331 
L 362.129841 300.98285 
L 363.866856 313.707892 
L 365.603871 335.213104 
L 367.340886 338.828786 
L 369.0779 304.862962 
L 370.814915 302.380554 
L 372.55193 279.159241 
L 374.288945 301.732969 
L 376.02596 381.855402 
L 377.762975 373.976453 
L 379.49999 374.629434 
L 381.237005 380.695145 
L 382.97402 320.534515 
L 384.711035 304.091257 
L 386.44805 293.719107 
L 388.185065 324.339076 
L 389.92208 317.226436 
L 391.659095 307.912007 
L 393.39611 314.873544 
L 395.133125 290.195166 
L 396.87014 307.334578 
L 398.607155 305.731805 
L 400.34417 320.664032 
L 402.081185 317.582607 
L 403.8182 294.722863 
L 405.555215 303.470655 
L 407.29223 296.082791 
L 409.029245 278.063743 
L 410.76626 300.335265 
L 412.503275 326.265641 
L 414.24029 328.721066 
L 415.977305 327.900792 
L 417.71432 294.231778 
L 419.451335 280.702651 
L 421.18835 301.608848 
L 422.925365 308.95354 
L 424.66238 308.057714 
L 426.399395 320.674825 
L 428.13641 299.660697 
L 429.873425 314.565941 
L 433.347455 279.434465 
L 435.08447 323.993697 
L 436.821484 302.418329 
L 438.558499 374.704986 
L 440.295514 307.06475 
L 442.032529 304.582342 
L 443.769544 282.76413 
L 447.243574 279.375103 
L 450.717604 330.318442 
L 452.454619 287.486103 
L 454.191634 281.987028 
L 455.928649 312.747307 
L 457.665664 329.212152 
L 459.402679 329.093428 
L 461.139694 285.74302 
L 462.876709 312.142895 
L 464.613724 299.477215 
L 466.350739 251.949885 
L 468.087754 298.430286 
L 469.824769 285.16559 
L 471.561784 312.63398 
L 473.298799 306.303838 
L 475.035814 319.946292 
L 476.772829 291.269077 
L 478.509844 317.03216 
L 480.246859 321.187496 
L 483.720889 307.847249 
L 485.457904 313.033324 
L 487.194919 334.500761 
L 488.931934 302.153899 
L 490.668949 306.487321 
L 492.405964 304.922324 
L 494.142979 267.939834 
L 495.879994 319.546948 
L 497.617009 281.555305 
L 499.354024 292.035386 
L 501.091039 310.77757 
L 502.828054 308.192627 
L 504.565068 296.071998 
L 506.302083 279.234793 
L 508.039098 314.360873 
L 509.776113 302.36976 
L 511.513128 321.333203 
L 513.250143 277.027608 
L 514.987158 309.002108 
L 516.724173 294.782225 
L 518.461188 250.287751 
L 520.198203 310.335054 
L 521.935218 320.507532 
L 523.672233 302.97957 
L 525.409248 314.528166 
L 527.146263 280.146808 
L 528.883278 253.164107 
L 530.620293 286.115381 
L 532.357308 288.17686 
L 534.094323 313.988512 
L 535.831338 301.776141 
L 537.568353 307.572025 
L 539.305368 329.244531 
L 541.042383 287.610223 
L 542.779398 239.268016 
L 544.516413 290.087235 
L 546.253428 318.424468 
L 547.990443 290.357062 
L 549.727458 301.306642 
L 551.464473 298.770268 
L 553.201488 284.928142 
L 554.938503 262.608052 
L 556.675518 255.079878 
L 558.412533 299.336905 
L 560.149548 333.507798 
L 561.886563 305.305478 
L 563.623578 309.347487 
L 565.360593 291.544301 
L 567.097608 298.586786 
L 568.834623 331.899629 
L 570.571638 296.098981 
L 572.308652 281.177547 
L 574.045667 336.324792 
L 575.782682 315.553508 
L 577.519697 323.475629 
L 579.256712 289.963115 
L 580.993727 338.888148 
L 582.730742 321.710961 
L 584.467757 298.273786 
L 586.204772 326.675778 
L 587.941787 301.12316 
L 589.678802 302.839259 
L 591.415817 212.069453 
L 593.152832 305.596892 
L 594.889847 334.484571 
L 596.626862 336.675567 
L 598.363877 318.861587 
L 601.837907 294.361295 
L 603.574922 349.07142 
L 605.311937 334.597899 
L 607.048952 321.230669 
L 608.785967 322.417907 
L 610.522982 315.699215 
L 612.259997 309.91952 
L 613.997012 268.787091 
L 615.734027 274.361717 
L 617.471042 295.812964 
L 619.208057 356.60499 
L 620.945072 362.406271 
L 622.682087 362.249771 
L 624.419102 356.200249 
L 626.156117 278.824655 
L 627.893132 282.116545 
L 629.630147 309.557952 
L 631.367162 301.970417 
L 633.104177 293.735296 
L 634.841192 324.981264 
L 636.578207 279.871584 
L 638.315222 299.919731 
L 640.052236 280.082049 
L 641.789251 329.233738 
L 643.526266 325.00285 
L 645.263281 304.846772 
L 647.000296 303.211621 
L 648.737311 292.040782 
L 650.474326 251.356266 
L 652.211341 266.795767 
L 653.948356 230.514827 
L 655.685371 287.653395 
L 657.422386 323.070889 
L 659.159401 304.495997 
L 660.896416 268.479488 
L 662.633431 225.080511 
L 664.370446 231.637308 
L 666.107461 225.215425 
L 667.844476 319.018087 
L 669.581491 284.253575 
L 673.055521 307.906611 
L 674.792536 263.072155 
L 676.529551 234.367957 
L 678.266566 317.156281 
L 680.003581 246.423828 
L 681.740596 235.576782 
L 683.477611 268.576626 
L 685.214626 288.058136 
L 686.951641 310.005865 
L 688.688656 224.789098 
L 690.425671 254.043743 
L 692.162686 299.455629 
L 693.899701 278.328174 
L 695.636716 303.643344 
L 695.636716 303.643344 
" clip-path="url(#pf8fdcbc905)" style="fill: none; stroke: #83c966; stroke-opacity: 0.8; stroke-width: 2.5; stroke-linecap: square"/>
   </g>
   <g id="patch_3">
    <path d="M 61.62625 384.1975 
L 61.62625 39.3575 
" style="fill: none; stroke: #000000; stroke-width: 0.8; stroke-linejoin: miter; stroke-linecap: square"/>
   </g>
   <g id="patch_4">
    <path d="M 61.62625 384.1975 
L 704.321791 384.1975 
" style="fill: none; stroke: #000000; stroke-width: 0.8; stroke-linejoin: miter; stroke-linecap: square"/>
   </g>
   <g id="text_23">
    <!-- Pedestrian Traffic at Princes Bridge -->
    <g transform="translate(243.53527 19.3575) scale(0.16 -0.16)">
     <defs>
      <path id="DejaVuSans-50" d="M 1259 4147 
L 1259 2394 
L 2053 2394 
Q 2494 2394 2734 2622 
Q 2975 2850 2975 3272 
Q 2975 3691 2734 3919 
Q 2494 4147 2053 4147 
L 1259 4147 
z
M 628 4666 
L 2053 4666 
Q 2838 4666 3239 4311 
Q 3641 3956 3641 3272 
Q 3641 2581 3239 2228 
Q 2838 1875 2053 1875 
L 1259 1875 
L 1259 0 
L 628 0 
L 628 4666 
z
" transform="scale(0.015625)"/>
      <path id="DejaVuSans-54" d="M -19 4666 
L 3928 4666 
L 3928 4134 
L 2272 4134 
L 2272 0 
L 1638 0 
L 1638 4134 
L -19 4134 
L -19 4666 
z
" transform="scale(0.015625)"/>
      <path id="DejaVuSans-42" d="M 1259 2228 
L 1259 519 
L 2272 519 
Q 2781 519 3026 730 
Q 3272 941 3272 1375 
Q 3272 1813 3026 2020 
Q 2781 2228 2272 2228 
L 1259 2228 
z
M 1259 4147 
L 1259 2741 
L 2194 2741 
Q 2656 2741 2882 2914 
Q 3109 3088 3109 3444 
Q 3109 3797 2882 3972 
Q 2656 4147 2194 4147 
L 1259 4147 
z
M 628 4666 
L 2241 4666 
Q 2963 4666 3353 4366 
Q 3744 4066 3744 3513 
Q 3744 3084 3544 2831 
Q 3344 2578 2956 2516 
Q 3422 2416 3680 2098 
Q 3938 1781 3938 1306 
Q 3938 681 3513 340 
Q 3088 0 2303 0 
L 628 0 
L 628 4666 
z
" transform="scale(0.015625)"/>
     </defs>
     <use xlink:href="#DejaVuSans-50"/>
     <use xlink:href="#DejaVuSans-65" transform="translate(56.677734 0)"/>
     <use xlink:href="#DejaVuSans-64" transform="translate(118.201172 0)"/>
     <use xlink:href="#DejaVuSans-65" transform="translate(181.677734 0)"/>
     <use xlink:href="#DejaVuSans-73" transform="translate(243.201172 0)"/>
     <use xlink:href="#DejaVuSans-74" transform="translate(295.300781 0)"/>
     <use xlink:href="#DejaVuSans-72" transform="translate(334.509766 0)"/>
     <use xlink:href="#DejaVuSans-69" transform="translate(375.623047 0)"/>
     <use xlink:href="#DejaVuSans-61" transform="translate(403.40625 0)"/>
     <use xlink:href="#DejaVuSans-6e" transform="translate(464.685547 0)"/>
     <use xlink:href="#DejaVuSans-20" transform="translate(528.064453 0)"/>
     <use xlink:href="#DejaVuSans-54" transform="translate(559.851562 0)"/>
     <use xlink:href="#DejaVuSans-72" transform="translate(606.185547 0)"/>
     <use xlink:href="#DejaVuSans-61" transform="translate(647.298828 0)"/>
     <use xlink:href="#DejaVuSans-66" transform="translate(708.578125 0)"/>
     <use xlink:href="#DejaVuSans-66" transform="translate(743.783203 0)"/>
     <use xlink:href="#DejaVuSans-69" transform="translate(778.988281 0)"/>
     <use xlink:href="#DejaVuSans-63" transform="translate(806.771484 0)"/>
     <use xlink:href="#DejaVuSans-20" transform="translate(861.751953 0)"/>
     <use xlink:href="#DejaVuSans-61" transform="translate(893.539062 0)"/>
     <use xlink:href="#DejaVuSans-74" transform="translate(954.818359 0)"/>
     <use xlink:href="#DejaVuSans-20" transform="translate(994.027344 0)"/>
     <use xlink:href="#DejaVuSans-50" transform="translate(1025.814453 0)"/>
     <use xlink:href="#DejaVuSans-72" transform="translate(1084.367188 0)"/>
     <use xlink:href="#DejaVuSans-69" transform="translate(1125.480469 0)"/>
     <use xlink:href="#DejaVuSans-6e" transform="translate(1153.263672 0)"/>
     <use xlink:href="#DejaVuSans-63" transform="translate(1216.642578 0)"/>
     <use xlink:href="#DejaVuSans-65" transform="translate(1271.623047 0)"/>
     <use xlink:href="#DejaVuSans-73" transform="translate(1333.146484 0)"/>
     <use xlink:href="#DejaVuSans-20" transform="translate(1385.246094 0)"/>
     <use xlink:href="#DejaVuSans-42" transform="translate(1417.033203 0)"/>
     <use xlink:href="#DejaVuSans-72" transform="translate(1485.636719 0)"/>
     <use xlink:href="#DejaVuSans-69" transform="translate(1526.75 0)"/>
     <use xlink:href="#DejaVuSans-64" transform="translate(1554.533203 0)"/>
     <use xlink:href="#DejaVuSans-67" transform="translate(1618.009766 0)"/>
     <use xlink:href="#DejaVuSans-65" transform="translate(1681.486328 0)"/>
    </g>
   </g>
   <g id="legend_1">
    <g id="patch_5">
     <path d="M 69.32625 80.449375 
L 132.52125 80.449375 
Q 134.72125 80.449375 134.72125 78.249375 
L 134.72125 47.0575 
Q 134.72125 44.8575 132.52125 44.8575 
L 69.32625 44.8575 
Q 67.12625 44.8575 67.12625 47.0575 
L 67.12625 78.249375 
Q 67.12625 80.449375 69.32625 80.449375 
z
" style="fill: #ffffff; opacity: 0.95; stroke: #cccccc; stroke-linejoin: miter"/>
    </g>
    <g id="line2d_43">
     <path d="M 71.52625 53.765781 
L 82.52625 53.765781 
L 93.52625 53.765781 
" style="fill: none; stroke: #0d6efc; stroke-opacity: 0.8; stroke-width: 2.5; stroke-linecap: square"/>
    </g>
    <g id="text_24">
     <!-- 2019 -->
     <g transform="translate(102.32625 57.615781) scale(0.11 -0.11)">
      <defs>
       <path id="DejaVuSans-39" d="M 703 97 
L 703 672 
Q 941 559 1184 500 
Q 1428 441 1663 441 
Q 2288 441 2617 861 
Q 2947 1281 2994 2138 
Q 2813 1869 2534 1725 
Q 2256 1581 1919 1581 
Q 1219 1581 811 2004 
Q 403 2428 403 3163 
Q 403 3881 828 4315 
Q 1253 4750 1959 4750 
Q 2769 4750 3195 4129 
Q 3622 3509 3622 2328 
Q 3622 1225 3098 567 
Q 2575 -91 1691 -91 
Q 1453 -91 1209 -44 
Q 966 3 703 97 
z
M 1959 2075 
Q 2384 2075 2632 2365 
Q 2881 2656 2881 3163 
Q 2881 3666 2632 3958 
Q 2384 4250 1959 4250 
Q 1534 4250 1286 3958 
Q 1038 3666 1038 3163 
Q 1038 2656 1286 2365 
Q 1534 2075 1959 2075 
z
" transform="scale(0.015625)"/>
      </defs>
      <use xlink:href="#DejaVuSans-32"/>
      <use xlink:href="#DejaVuSans-30" transform="translate(63.623047 0)"/>
      <use xlink:href="#DejaVuSans-31" transform="translate(127.246094 0)"/>
      <use xlink:href="#DejaVuSans-39" transform="translate(190.869141 0)"/>
     </g>
    </g>
    <g id="line2d_44">
     <path d="M 71.52625 69.911719 
L 82.52625 69.911719 
L 93.52625 69.911719 
" style="fill: none; stroke: #83c966; stroke-opacity: 0.8; stroke-width: 2.5; stroke-linecap: square"/>
    </g>
    <g id="text_25">
     <!-- 2025 -->
     <g transform="translate(102.32625 73.761719) scale(0.11 -0.11)">
      <use xlink:href="#DejaVuSans-32"/>
      <use xlink:href="#DejaVuSans-30" transform="translate(63.623047 0)"/>
      <use xlink:href="#DejaVuSans-32" transform="translate(127.246094 0)"/>
      <use xlink:href="#DejaVuSans-35" transform="translate(190.869141 0)"/>
     </g>
    </g>
   </g>
  </g>
 </g>
 <defs>
  <clipPath id="pf8fdcbc905">
   <rect x="61.62625" y="39.3575" width="642.695541" height="344.84"/>
  </clipPath>
 </defs>
</svg>
