<?xml version="1.0" encoding="utf-8" standalone="no"?>
<!DOCTYPE svg PUBLIC "-//W3C//DTD SVG 1.1//EN"
  "http://www.w3.org/Graphics/SVG/1.1/DTD/svg11.dtd">
<svg xmlns:xlink="http://www.w3.org/1999/xlink" width="855.67625pt" height="423.689375pt" viewBox="0 0 855.67625 423.689375" xmlns="http://www.w3.org/2000/svg" version="1.1">
 <metadata>
  <rdf:RDF xmlns:dc="http://purl.org/dc/elements/1.1/" xmlns:cc="http://creativecommons.org/ns#" xmlns:rdf="http://www.w3.org/1999/02/22-rdf-syntax-ns#">
   <cc:Work>
    <dc:type rdf:resource="http://purl.org/dc/dcmitype/StillImage"/>
    <dc:date>2026-01-22T17:08:40.116473</dc:date>
    <dc:format>image/svg+xml</dc:format>
    <dc:creator>
     <cc:Agent>
      <dc:title>Matplotlib v3.10.8, https://matplotlib.org/</dc:title>
     </cc:Agent>
    </dc:creator>
   </cc:Work>
  </rdf:RDF>
 </metadata>
 <defs>
  <style type="text/css">*{stroke-linejoin: round; stroke-linecap: butt}</style>
 </defs>
 <g id="figure_1">
  <g id="patch_1">
   <path d="M 0 423.689375 
L 855.67625 423.689375 
L 855.67625 0 
L 0 0 
L 0 423.689375 
z
" style="fill: none"/>
  </g>
  <g id="axes_1">
   <g id="patch_2">
    <path d="M 61.62625 384.1975 
L 848.47625 384.1975 
L 848.47625 39.3575 
L 61.62625 39.3575 
L 61.62625 384.1975 
z
" style="fill: none"/>
   </g>
   <g id="matplotlib.axis_1">
    <g id="xtick_1">
     <g id="line2d_1">
      <path d="M 61.62625 384.1975 
L 61.62625 39.3575 
" clip-path="url(#p66915cff42)" style="fill: none; stroke-dasharray: 2.96,1.28; stroke-dashoffset: 0; stroke: #b0b0b0; stroke-opacity: 0.3; stroke-width: 0.8"/>
     </g>
     <g id="line2d_2">
      <defs>
       <path id="m89d98a7bd6" d="M 0 0 
L 0 3.5 
" style="stroke: #000000; stroke-width: 0.8"/>
      </defs>
      <g>
       <use xlink:href="#m89d98a7bd6" x="61.62625" y="384.1975" style="stroke: #000000; stroke-width: 0.8"/>
      </g>
     </g>
     <g id="text_1">
      <!-- Jan -->
      <g transform="translate(53.918438 398.795937) scale(0.1 -0.1)">
       <defs>
        <path id="DejaVuSans-4a" d="M 628 4666 
L 1259 4666 
L 1259 325 
Q 1259 -519 939 -900 
Q 619 -1281 -91 -1281 
L -331 -1281 
L -331 -750 
L -134 -750 
Q 284 -750 456 -515 
Q 628 -281 628 325 
L 628 4666 
z
" transform="scale(0.015625)"/>
        <path id="DejaVuSans-61" d="M 2194 1759 
Q 1497 1759 1228 1600 
Q 959 1441 959 1056 
Q 959 750 1161 570 
Q 1363 391 1709 391 
Q 2188 391 2477 730 
Q 2766 1069 2766 1631 
L 2766 1759 
L 2194 1759 
z
M 3341 1997 
L 3341 0 
L 2766 0 
L 2766 531 
Q 2569 213 2275 61 
Q 1981 -91 1556 -91 
Q 1019 -91 701 211 
Q 384 513 384 1019 
Q 384 1609 779 1909 
Q 1175 2209 1959 2209 
L 2766 2209 
L 2766 2266 
Q 2766 2663 2505 2880 
Q 2244 3097 1772 3097 
Q 1472 3097 1187 3025 
Q 903 2953 641 2809 
L 641 3341 
Q 956 3463 1253 3523 
Q 1550 3584 1831 3584 
Q 2591 3584 2966 3190 
Q 3341 2797 3341 1997 
z
" transform="scale(0.015625)"/>
        <path id="DejaVuSans-6e" d="M 3513 2113 
L 3513 0 
L 2938 0 
L 2938 2094 
Q 2938 2591 2744 2837 
Q 2550 3084 2163 3084 
Q 1697 3084 1428 2787 
Q 1159 2491 1159 1978 
L 1159 0 
L 581 0 
L 581 3500 
L 1159 3500 
L 1159 2956 
Q 1366 3272 1645 3428 
Q 1925 3584 2291 3584 
Q 2894 3584 3203 3211 
Q 3513 2838 3513 2113 
z
" transform="scale(0.015625)"/>
       </defs>
       <use xlink:href="#DejaVuSans-4a"/>
       <use xlink:href="#DejaVuSans-61" transform="translate(29.492188 0)"/>
       <use xlink:href="#DejaVuSans-6e" transform="translate(90.771484 0)"/>
      </g>
     </g>
    </g>
    <g id="xtick_2">
     <g id="line2d_3">
      <path d="M 127.55152 384.1975 
L 127.55152 39.3575 
" clip-path="url(#p66915cff42)" style="fill: none; stroke-dasharray: 2.96,1.28; stroke-dashoffset: 0; stroke: #b0b0b0; stroke-opacity: 0.3; stroke-width: 0.8"/>
     </g>
     <g id="line2d_4">
      <g>
       <use xlink:href="#m89d98a7bd6" x="127.55152" y="384.1975" style="stroke: #000000; stroke-width: 0.8"/>
      </g>
     </g>
     <g id="text_2">
      <!-- Feb -->
      <g transform="translate(118.699958 398.795937) scale(0.1 -0.1)">
       <defs>
        <path id="DejaVuSans-46" d="M 628 4666 
L 3309 4666 
L 3309 4134 
L 1259 4134 
L 1259 2759 
L 3109 2759 
L 3109 2228 
L 1259 2228 
L 1259 0 
L 628 0 
L 628 4666 
z
" transform="scale(0.015625)"/>
        <path id="DejaVuSans-65" d="M 3597 1894 
L 3597 1613 
L 953 1613 
Q 991 1019 1311 708 
Q 1631 397 2203 397 
Q 2534 397 2845 478 
Q 3156 559 3463 722 
L 3463 178 
Q 3153 47 2828 -22 
Q 2503 -91 2169 -91 
Q 1331 -91 842 396 
Q 353 884 353 1716 
Q 353 2575 817 3079 
Q 1281 3584 2069 3584 
Q 2775 3584 3186 3129 
Q 3597 2675 3597 1894 
z
M 3022 2063 
Q 3016 2534 2758 2815 
Q 2500 3097 2075 3097 
Q 1594 3097 1305 2825 
Q 1016 2553 972 2059 
L 3022 2063 
z
" transform="scale(0.015625)"/>
        <path id="DejaVuSans-62" d="M 3116 1747 
Q 3116 2381 2855 2742 
Q 2594 3103 2138 3103 
Q 1681 3103 1420 2742 
Q 1159 2381 1159 1747 
Q 1159 1113 1420 752 
Q 1681 391 2138 391 
Q 2594 391 2855 752 
Q 3116 1113 3116 1747 
z
M 1159 2969 
Q 1341 3281 1617 3432 
Q 1894 3584 2278 3584 
Q 2916 3584 3314 3078 
Q 3713 2572 3713 1747 
Q 3713 922 3314 415 
Q 2916 -91 2278 -91 
Q 1894 -91 1617 61 
Q 1341 213 1159 525 
L 1159 0 
L 581 0 
L 581 4863 
L 1159 4863 
L 1159 2969 
z
" transform="scale(0.015625)"/>
       </defs>
       <use xlink:href="#DejaVuSans-46"/>
       <use xlink:href="#DejaVuSans-65" transform="translate(52.019531 0)"/>
       <use xlink:href="#DejaVuSans-62" transform="translate(113.542969 0)"/>
      </g>
     </g>
    </g>
    <g id="xtick_3">
     <g id="line2d_5">
      <path d="M 187.096926 384.1975 
L 187.096926 39.3575 
" clip-path="url(#p66915cff42)" style="fill: none; stroke-dasharray: 2.96,1.28; stroke-dashoffset: 0; stroke: #b0b0b0; stroke-opacity: 0.3; stroke-width: 0.8"/>
     </g>
     <g id="line2d_6">
      <g>
       <use xlink:href="#m89d98a7bd6" x="187.096926" y="384.1975" style="stroke: #000000; stroke-width: 0.8"/>
      </g>
     </g>
     <g id="text_3">
      <!-- Mar -->
      <g transform="translate(177.663332 398.795937) scale(0.1 -0.1)">
       <defs>
        <path id="DejaVuSans-4d" d="M 628 4666 
L 1569 4666 
L 2759 1491 
L 3956 4666 
L 4897 4666 
L 4897 0 
L 4281 0 
L 4281 4097 
L 3078 897 
L 2444 897 
L 1241 4097 
L 1241 0 
L 628 0 
L 628 4666 
z
" transform="scale(0.015625)"/>
        <path id="DejaVuSans-72" d="M 2631 2963 
Q 2534 3019 2420 3045 
Q 2306 3072 2169 3072 
Q 1681 3072 1420 2755 
Q 1159 2438 1159 1844 
L 1159 0 
L 581 0 
L 581 3500 
L 1159 3500 
L 1159 2956 
Q 1341 3275 1631 3429 
Q 1922 3584 2338 3584 
Q 2397 3584 2469 3576 
Q 2541 3569 2628 3553 
L 2631 2963 
z
" transform="scale(0.015625)"/>
       </defs>
       <use xlink:href="#DejaVuSans-4d"/>
       <use xlink:href="#DejaVuSans-61" transform="translate(86.279297 0)"/>
       <use xlink:href="#DejaVuSans-72" transform="translate(147.558594 0)"/>
      </g>
     </g>
    </g>
    <g id="xtick_4">
     <g id="line2d_7">
      <path d="M 253.022196 384.1975 
L 253.022196 39.3575 
" clip-path="url(#p66915cff42)" style="fill: none; stroke-dasharray: 2.96,1.28; stroke-dashoffset: 0; stroke: #b0b0b0; stroke-opacity: 0.3; stroke-width: 0.8"/>
     </g>
     <g id="line2d_8">
      <g>
       <use xlink:href="#m89d98a7bd6" x="253.022196" y="384.1975" style="stroke: #000000; stroke-width: 0.8"/>
      </g>
     </g>
     <g id="text_4">
      <!-- Apr -->
      <g transform="translate(244.372196 398.795937) scale(0.1 -0.1)">
       <defs>
        <path id="DejaVuSans-41" d="M 2188 4044 
L 1331 1722 
L 3047 1722 
L 2188 4044 
z
M 1831 4666 
L 2547 4666 
L 4325 0 
L 3669 0 
L 3244 1197 
L 1141 1197 
L 716 0 
L 50 0 
L 1831 4666 
z
" transform="scale(0.015625)"/>
        <path id="DejaVuSans-70" d="M 1159 525 
L 1159 -1331 
L 581 -1331 
L 581 3500 
L 1159 3500 
L 1159 2969 
Q 1341 3281 1617 3432 
Q 1894 3584 2278 3584 
Q 2916 3584 3314 3078 
Q 3713 2572 3713 1747 
Q 3713 922 3314 415 
Q 2916 -91 2278 -91 
Q 1894 -91 1617 61 
Q 1341 213 1159 525 
z
M 3116 1747 
Q 3116 2381 2855 2742 
Q 2594 3103 2138 3103 
Q 1681 3103 1420 2742 
Q 1159 2381 1159 1747 
Q 1159 1113 1420 752 
Q 1681 391 2138 391 
Q 2594 391 2855 752 
Q 3116 1113 3116 1747 
z
" transform="scale(0.015625)"/>
       </defs>
       <use xlink:href="#DejaVuSans-41"/>
       <use xlink:href="#DejaVuSans-70" transform="translate(68.408203 0)"/>
       <use xlink:href="#DejaVuSans-72" transform="translate(131.884766 0)"/>
      </g>
     </g>
    </g>
    <g id="xtick_5">
     <g id="line2d_9">
      <path d="M 316.820845 384.1975 
L 316.820845 39.3575 
" clip-path="url(#p66915cff42)" style="fill: none; stroke-dasharray: 2.96,1.28; stroke-dashoffset: 0; stroke: #b0b0b0; stroke-opacity: 0.3; stroke-width: 0.8"/>
     </g>
     <g id="line2d_10">
      <g>
       <use xlink:href="#m89d98a7bd6" x="316.820845" y="384.1975" style="stroke: #000000; stroke-width: 0.8"/>
      </g>
     </g>
     <g id="text_5">
      <!-- May -->
      <g transform="translate(306.483345 398.795937) scale(0.1 -0.1)">
       <defs>
        <path id="DejaVuSans-79" d="M 2059 -325 
Q 1816 -950 1584 -1140 
Q 1353 -1331 966 -1331 
L 506 -1331 
L 506 -850 
L 844 -850 
Q 1081 -850 1212 -737 
Q 1344 -625 1503 -206 
L 1606 56 
L 191 3500 
L 800 3500 
L 1894 763 
L 2988 3500 
L 3597 3500 
L 2059 -325 
z
" transform="scale(0.015625)"/>
       </defs>
       <use xlink:href="#DejaVuSans-4d"/>
       <use xlink:href="#DejaVuSans-61" transform="translate(86.279297 0)"/>
       <use xlink:href="#DejaVuSans-79" transform="translate(147.558594 0)"/>
      </g>
     </g>
    </g>
    <g id="xtick_6">
     <g id="line2d_11">
      <path d="M 382.746115 384.1975 
L 382.746115 39.3575 
" clip-path="url(#p66915cff42)" style="fill: none; stroke-dasharray: 2.96,1.28; stroke-dashoffset: 0; stroke: #b0b0b0; stroke-opacity: 0.3; stroke-width: 0.8"/>
     </g>
     <g id="line2d_12">
      <g>
       <use xlink:href="#m89d98a7bd6" x="382.746115" y="384.1975" style="stroke: #000000; stroke-width: 0.8"/>
      </g>
     </g>
     <g id="text_6">
      <!-- Jun -->
      <g transform="translate(374.933615 398.795937) scale(0.1 -0.1)">
       <defs>
        <path id="DejaVuSans-75" d="M 544 1381 
L 544 3500 
L 1119 3500 
L 1119 1403 
Q 1119 906 1312 657 
Q 1506 409 1894 409 
Q 2359 409 2629 706 
Q 2900 1003 2900 1516 
L 2900 3500 
L 3475 3500 
L 3475 0 
L 2900 0 
L 2900 538 
Q 2691 219 2414 64 
Q 2138 -91 1772 -91 
Q 1169 -91 856 284 
Q 544 659 544 1381 
z
M 1991 3584 
L 1991 3584 
z
" transform="scale(0.015625)"/>
       </defs>
       <use xlink:href="#DejaVuSans-4a"/>
       <use xlink:href="#DejaVuSans-75" transform="translate(29.492188 0)"/>
       <use xlink:href="#DejaVuSans-6e" transform="translate(92.871094 0)"/>
      </g>
     </g>
    </g>
    <g id="xtick_7">
     <g id="line2d_13">
      <path d="M 446.544764 384.1975 
L 446.544764 39.3575 
" clip-path="url(#p66915cff42)" style="fill: none; stroke-dasharray: 2.96,1.28; stroke-dashoffset: 0; stroke: #b0b0b0; stroke-opacity: 0.3; stroke-width: 0.8"/>
     </g>
     <g id="line2d_14">
      <g>
       <use xlink:href="#m89d98a7bd6" x="446.544764" y="384.1975" style="stroke: #000000; stroke-width: 0.8"/>
      </g>
     </g>
     <g id="text_7">
      <!-- Jul -->
      <g transform="translate(440.511951 398.795937) scale(0.1 -0.1)">
       <defs>
        <path id="DejaVuSans-6c" d="M 603 4863 
L 1178 4863 
L 1178 0 
L 603 0 
L 603 4863 
z
" transform="scale(0.015625)"/>
       </defs>
       <use xlink:href="#DejaVuSans-4a"/>
       <use xlink:href="#DejaVuSans-75" transform="translate(29.492188 0)"/>
       <use xlink:href="#DejaVuSans-6c" transform="translate(92.871094 0)"/>
      </g>
     </g>
    </g>
    <g id="xtick_8">
     <g id="line2d_15">
      <path d="M 512.470034 384.1975 
L 512.470034 39.3575 
" clip-path="url(#p66915cff42)" style="fill: none; stroke-dasharray: 2.96,1.28; stroke-dashoffset: 0; stroke: #b0b0b0; stroke-opacity: 0.3; stroke-width: 0.8"/>
     </g>
     <g id="line2d_16">
      <g>
       <use xlink:href="#m89d98a7bd6" x="512.470034" y="384.1975" style="stroke: #000000; stroke-width: 0.8"/>
      </g>
     </g>
     <g id="text_8">
      <!-- Aug -->
      <g transform="translate(502.706753 398.795937) scale(0.1 -0.1)">
       <defs>
        <path id="DejaVuSans-67" d="M 2906 1791 
Q 2906 2416 2648 2759 
Q 2391 3103 1925 3103 
Q 1463 3103 1205 2759 
Q 947 2416 947 1791 
Q 947 1169 1205 825 
Q 1463 481 1925 481 
Q 2391 481 2648 825 
Q 2906 1169 2906 1791 
z
M 3481 434 
Q 3481 -459 3084 -895 
Q 2688 -1331 1869 -1331 
Q 1566 -1331 1297 -1286 
Q 1028 -1241 775 -1147 
L 775 -588 
Q 1028 -725 1275 -790 
Q 1522 -856 1778 -856 
Q 2344 -856 2625 -561 
Q 2906 -266 2906 331 
L 2906 616 
Q 2728 306 2450 153 
Q 2172 0 1784 0 
Q 1141 0 747 490 
Q 353 981 353 1791 
Q 353 2603 747 3093 
Q 1141 3584 1784 3584 
Q 2172 3584 2450 3431 
Q 2728 3278 2906 2969 
L 2906 3500 
L 3481 3500 
L 3481 434 
z
" transform="scale(0.015625)"/>
       </defs>
       <use xlink:href="#DejaVuSans-41"/>
       <use xlink:href="#DejaVuSans-75" transform="translate(68.408203 0)"/>
       <use xlink:href="#DejaVuSans-67" transform="translate(131.787109 0)"/>
      </g>
     </g>
    </g>
    <g id="xtick_9">
     <g id="line2d_17">
      <path d="M 578.395304 384.1975 
L 578.395304 39.3575 
" clip-path="url(#p66915cff42)" style="fill: none; stroke-dasharray: 2.96,1.28; stroke-dashoffset: 0; stroke: #b0b0b0; stroke-opacity: 0.3; stroke-width: 0.8"/>
     </g>
     <g id="line2d_18">
      <g>
       <use xlink:href="#m89d98a7bd6" x="578.395304" y="384.1975" style="stroke: #000000; stroke-width: 0.8"/>
      </g>
     </g>
     <g id="text_9">
      <!-- Sep -->
      <g transform="translate(568.970304 398.795937) scale(0.1 -0.1)">
       <defs>
        <path id="DejaVuSans-53" d="M 3425 4513 
L 3425 3897 
Q 3066 4069 2747 4153 
Q 2428 4238 2131 4238 
Q 1616 4238 1336 4038 
Q 1056 3838 1056 3469 
Q 1056 3159 1242 3001 
Q 1428 2844 1947 2747 
L 2328 2669 
Q 3034 2534 3370 2195 
Q 3706 1856 3706 1288 
Q 3706 609 3251 259 
Q 2797 -91 1919 -91 
Q 1588 -91 1214 -16 
Q 841 59 441 206 
L 441 856 
Q 825 641 1194 531 
Q 1563 422 1919 422 
Q 2459 422 2753 634 
Q 3047 847 3047 1241 
Q 3047 1584 2836 1778 
Q 2625 1972 2144 2069 
L 1759 2144 
Q 1053 2284 737 2584 
Q 422 2884 422 3419 
Q 422 4038 858 4394 
Q 1294 4750 2059 4750 
Q 2388 4750 2728 4690 
Q 3069 4631 3425 4513 
z
" transform="scale(0.015625)"/>
       </defs>
       <use xlink:href="#DejaVuSans-53"/>
       <use xlink:href="#DejaVuSans-65" transform="translate(63.476562 0)"/>
       <use xlink:href="#DejaVuSans-70" transform="translate(125 0)"/>
      </g>
     </g>
    </g>
    <g id="xtick_10">
     <g id="line2d_19">
      <path d="M 642.193953 384.1975 
L 642.193953 39.3575 
" clip-path="url(#p66915cff42)" style="fill: none; stroke-dasharray: 2.96,1.28; stroke-dashoffset: 0; stroke: #b0b0b0; stroke-opacity: 0.3; stroke-width: 0.8"/>
     </g>
     <g id="line2d_20">
      <g>
       <use xlink:href="#m89d98a7bd6" x="642.193953" y="384.1975" style="stroke: #000000; stroke-width: 0.8"/>
      </g>
     </g>
     <g id="text_10">
      <!-- Oct -->
      <g transform="translate(633.54864 398.795937) scale(0.1 -0.1)">
       <defs>
        <path id="DejaVuSans-4f" d="M 2522 4238 
Q 1834 4238 1429 3725 
Q 1025 3213 1025 2328 
Q 1025 1447 1429 934 
Q 1834 422 2522 422 
Q 3209 422 3611 934 
Q 4013 1447 4013 2328 
Q 4013 3213 3611 3725 
Q 3209 4238 2522 4238 
z
M 2522 4750 
Q 3503 4750 4090 4092 
Q 4678 3434 4678 2328 
Q 4678 1225 4090 567 
Q 3503 -91 2522 -91 
Q 1538 -91 948 565 
Q 359 1222 359 2328 
Q 359 3434 948 4092 
Q 1538 4750 2522 4750 
z
" transform="scale(0.015625)"/>
        <path id="DejaVuSans-63" d="M 3122 3366 
L 3122 2828 
Q 2878 2963 2633 3030 
Q 2388 3097 2138 3097 
Q 1578 3097 1268 2742 
Q 959 2388 959 1747 
Q 959 1106 1268 751 
Q 1578 397 2138 397 
Q 2388 397 2633 464 
Q 2878 531 3122 666 
L 3122 134 
Q 2881 22 2623 -34 
Q 2366 -91 2075 -91 
Q 1284 -91 818 406 
Q 353 903 353 1747 
Q 353 2603 823 3093 
Q 1294 3584 2113 3584 
Q 2378 3584 2631 3529 
Q 2884 3475 3122 3366 
z
" transform="scale(0.015625)"/>
        <path id="DejaVuSans-74" d="M 1172 4494 
L 1172 3500 
L 2356 3500 
L 2356 3053 
L 1172 3053 
L 1172 1153 
Q 1172 725 1289 603 
Q 1406 481 1766 481 
L 2356 481 
L 2356 0 
L 1766 0 
Q 1100 0 847 248 
Q 594 497 594 1153 
L 594 3053 
L 172 3053 
L 172 3500 
L 594 3500 
L 594 4494 
L 1172 4494 
z
" transform="scale(0.015625)"/>
       </defs>
       <use xlink:href="#DejaVuSans-4f"/>
       <use xlink:href="#DejaVuSans-63" transform="translate(78.710938 0)"/>
       <use xlink:href="#DejaVuSans-74" transform="translate(133.691406 0)"/>
      </g>
     </g>
    </g>
    <g id="xtick_11">
     <g id="line2d_21">
      <path d="M 708.119223 384.1975 
L 708.119223 39.3575 
" clip-path="url(#p66915cff42)" style="fill: none; stroke-dasharray: 2.96,1.28; stroke-dashoffset: 0; stroke: #b0b0b0; stroke-opacity: 0.3; stroke-width: 0.8"/>
     </g>
     <g id="line2d_22">
      <g>
       <use xlink:href="#m89d98a7bd6" x="708.119223" y="384.1975" style="stroke: #000000; stroke-width: 0.8"/>
      </g>
     </g>
     <g id="text_11">
      <!-- Nov -->
      <g transform="translate(698.359848 398.795937) scale(0.1 -0.1)">
       <defs>
        <path id="DejaVuSans-4e" d="M 628 4666 
L 1478 4666 
L 3547 763 
L 3547 4666 
L 4159 4666 
L 4159 0 
L 3309 0 
L 1241 3903 
L 1241 0 
L 628 0 
L 628 4666 
z
" transform="scale(0.015625)"/>
        <path id="DejaVuSans-6f" d="M 1959 3097 
Q 1497 3097 1228 2736 
Q 959 2375 959 1747 
Q 959 1119 1226 758 
Q 1494 397 1959 397 
Q 2419 397 2687 759 
Q 2956 1122 2956 1747 
Q 2956 2369 2687 2733 
Q 2419 3097 1959 3097 
z
M 1959 3584 
Q 2709 3584 3137 3096 
Q 3566 2609 3566 1747 
Q 3566 888 3137 398 
Q 2709 -91 1959 -91 
Q 1206 -91 779 398 
Q 353 888 353 1747 
Q 353 2609 779 3096 
Q 1206 3584 1959 3584 
z
" transform="scale(0.015625)"/>
        <path id="DejaVuSans-76" d="M 191 3500 
L 800 3500 
L 1894 563 
L 2988 3500 
L 3597 3500 
L 2284 0 
L 1503 0 
L 191 3500 
z
" transform="scale(0.015625)"/>
       </defs>
       <use xlink:href="#DejaVuSans-4e"/>
       <use xlink:href="#DejaVuSans-6f" transform="translate(74.804688 0)"/>
       <use xlink:href="#DejaVuSans-76" transform="translate(135.986328 0)"/>
      </g>
     </g>
    </g>
    <g id="xtick_12">
     <g id="line2d_23">
      <path d="M 771.917872 384.1975 
L 771.917872 39.3575 
" clip-path="url(#p66915cff42)" style="fill: none; stroke-dasharray: 2.96,1.28; stroke-dashoffset: 0; stroke: #b0b0b0; stroke-opacity: 0.3; stroke-width: 0.8"/>
     </g>
     <g id="line2d_24">
      <g>
       <use xlink:href="#m89d98a7bd6" x="771.917872" y="384.1975" style="stroke: #000000; stroke-width: 0.8"/>
      </g>
     </g>
     <g id="text_12">
      <!-- Dec -->
      <g transform="translate(762.24209 398.795937) scale(0.1 -0.1)">
       <defs>
        <path id="DejaVuSans-44" d="M 1259 4147 
L 1259 519 
L 2022 519 
Q 2988 519 3436 956 
Q 3884 1394 3884 2338 
Q 3884 3275 3436 3711 
Q 2988 4147 2022 4147 
L 1259 4147 
z
M 628 4666 
L 1925 4666 
Q 3281 4666 3915 4102 
Q 4550 3538 4550 2338 
Q 4550 1131 3912 565 
Q 3275 0 1925 0 
L 628 0 
L 628 4666 
z
" transform="scale(0.015625)"/>
       </defs>
       <use xlink:href="#DejaVuSans-44"/>
       <use xlink:href="#DejaVuSans-65" transform="translate(77.001953 0)"/>
       <use xlink:href="#DejaVuSans-63" transform="translate(138.525391 0)"/>
      </g>
     </g>
    </g>
    <g id="xtick_13">
     <g id="line2d_25">
      <path d="M 837.843142 384.1975 
L 837.843142 39.3575 
" clip-path="url(#p66915cff42)" style="fill: none; stroke-dasharray: 2.96,1.28; stroke-dashoffset: 0; stroke: #b0b0b0; stroke-opacity: 0.3; stroke-width: 0.8"/>
     </g>
     <g id="line2d_26">
      <g>
       <use xlink:href="#m89d98a7bd6" x="837.843142" y="384.1975" style="stroke: #000000; stroke-width: 0.8"/>
      </g>
     </g>
     <g id="text_13">
      <!-- Jan -->
      <g transform="translate(830.135329 398.795937) scale(0.1 -0.1)">
       <use xlink:href="#DejaVuSans-4a"/>
       <use xlink:href="#DejaVuSans-61" transform="translate(29.492188 0)"/>
       <use xlink:href="#DejaVuSans-6e" transform="translate(90.771484 0)"/>
      </g>
     </g>
    </g>
    <g id="text_14">
     <!-- Day of the year -->
     <g transform="translate(408.465938 413.99375) scale(0.12 -0.12)">
      <defs>
       <path id="DejaVuSans-20" transform="scale(0.015625)"/>
       <path id="DejaVuSans-66" d="M 2375 4863 
L 2375 4384 
L 1825 4384 
Q 1516 4384 1395 4259 
Q 1275 4134 1275 3809 
L 1275 3500 
L 2222 3500 
L 2222 3053 
L 1275 3053 
L 1275 0 
L 697 0 
L 697 3053 
L 147 3053 
L 147 3500 
L 697 3500 
L 697 3744 
Q 697 4328 969 4595 
Q 1241 4863 1831 4863 
L 2375 4863 
z
" transform="scale(0.015625)"/>
       <path id="DejaVuSans-68" d="M 3513 2113 
L 3513 0 
L 2938 0 
L 2938 2094 
Q 2938 2591 2744 2837 
Q 2550 3084 2163 3084 
Q 1697 3084 1428 2787 
Q 1159 2491 1159 1978 
L 1159 0 
L 581 0 
L 581 4863 
L 1159 4863 
L 1159 2956 
Q 1366 3272 1645 3428 
Q 1925 3584 2291 3584 
Q 2894 3584 3203 3211 
Q 3513 2838 3513 2113 
z
" transform="scale(0.015625)"/>
      </defs>
      <use xlink:href="#DejaVuSans-44"/>
      <use xlink:href="#DejaVuSans-61" transform="translate(77.001953 0)"/>
      <use xlink:href="#DejaVuSans-79" transform="translate(138.28125 0)"/>
      <use xlink:href="#DejaVuSans-20" transform="translate(197.460938 0)"/>
      <use xlink:href="#DejaVuSans-6f" transform="translate(229.248047 0)"/>
      <use xlink:href="#DejaVuSans-66" transform="translate(290.429688 0)"/>
      <use xlink:href="#DejaVuSans-20" transform="translate(325.634766 0)"/>
      <use xlink:href="#DejaVuSans-74" transform="translate(357.421875 0)"/>
      <use xlink:href="#DejaVuSans-68" transform="translate(396.630859 0)"/>
      <use xlink:href="#DejaVuSans-65" transform="translate(460.009766 0)"/>
      <use xlink:href="#DejaVuSans-20" transform="translate(521.533203 0)"/>
      <use xlink:href="#DejaVuSans-79" transform="translate(553.320312 0)"/>
      <use xlink:href="#DejaVuSans-65" transform="translate(612.5 0)"/>
      <use xlink:href="#DejaVuSans-61" transform="translate(674.023438 0)"/>
      <use xlink:href="#DejaVuSans-72" transform="translate(735.302734 0)"/>
     </g>
    </g>
   </g>
   <g id="matplotlib.axis_2">
    <g id="ytick_1">
     <g id="line2d_27">
      <path d="M 61.62625 368.973057 
L 848.47625 368.973057 
" clip-path="url(#p66915cff42)" style="fill: none; stroke-dasharray: 2.96,1.28; stroke-dashoffset: 0; stroke: #b0b0b0; stroke-opacity: 0.3; stroke-width: 0.8"/>
     </g>
     <g id="line2d_28">
      <defs>
       <path id="m65516cc25e" d="M 0 0 
L -3.5 0 
" style="stroke: #000000; stroke-width: 0.8"/>
      </defs>
      <g>
       <use xlink:href="#m65516cc25e" x="61.62625" y="368.973057" style="stroke: #000000; stroke-width: 0.8"/>
      </g>
     </g>
     <g id="text_15">
      <!-- 0 -->
      <g transform="translate(48.26375 372.772275) scale(0.1 -0.1)">
       <defs>
        <path id="DejaVuSans-30" d="M 2034 4250 
Q 1547 4250 1301 3770 
Q 1056 3291 1056 2328 
Q 1056 1369 1301 889 
Q 1547 409 2034 409 
Q 2525 409 2770 889 
Q 3016 1369 3016 2328 
Q 3016 3291 2770 3770 
Q 2525 4250 2034 4250 
z
M 2034 4750 
Q 2819 4750 3233 4129 
Q 3647 3509 3647 2328 
Q 3647 1150 3233 529 
Q 2819 -91 2034 -91 
Q 1250 -91 836 529 
Q 422 1150 422 2328 
Q 422 3509 836 4129 
Q 1250 4750 2034 4750 
z
" transform="scale(0.015625)"/>
       </defs>
       <use xlink:href="#DejaVuSans-30"/>
      </g>
     </g>
    </g>
    <g id="ytick_2">
     <g id="line2d_29">
      <path d="M 61.62625 316.635598 
L 848.47625 316.635598 
" clip-path="url(#p66915cff42)" style="fill: none; stroke-dasharray: 2.96,1.28; stroke-dashoffset: 0; stroke: #b0b0b0; stroke-opacity: 0.3; stroke-width: 0.8"/>
     </g>
     <g id="line2d_30">
      <g>
       <use xlink:href="#m65516cc25e" x="61.62625" y="316.635598" style="stroke: #000000; stroke-width: 0.8"/>
      </g>
     </g>
     <g id="text_16">
      <!-- 5000 -->
      <g transform="translate(29.17625 320.434817) scale(0.1 -0.1)">
       <defs>
        <path id="DejaVuSans-35" d="M 691 4666 
L 3169 4666 
L 3169 4134 
L 1269 4134 
L 1269 2991 
Q 1406 3038 1543 3061 
Q 1681 3084 1819 3084 
Q 2600 3084 3056 2656 
Q 3513 2228 3513 1497 
Q 3513 744 3044 326 
Q 2575 -91 1722 -91 
Q 1428 -91 1123 -41 
Q 819 9 494 109 
L 494 744 
Q 775 591 1075 516 
Q 1375 441 1709 441 
Q 2250 441 2565 725 
Q 2881 1009 2881 1497 
Q 2881 1984 2565 2268 
Q 2250 2553 1709 2553 
Q 1456 2553 1204 2497 
Q 953 2441 691 2322 
L 691 4666 
z
" transform="scale(0.015625)"/>
       </defs>
       <use xlink:href="#DejaVuSans-35"/>
       <use xlink:href="#DejaVuSans-30" transform="translate(63.623047 0)"/>
       <use xlink:href="#DejaVuSans-30" transform="translate(127.246094 0)"/>
       <use xlink:href="#DejaVuSans-30" transform="translate(190.869141 0)"/>
      </g>
     </g>
    </g>
    <g id="ytick_3">
     <g id="line2d_31">
      <path d="M 61.62625 264.29814 
L 848.47625 264.29814 
" clip-path="url(#p66915cff42)" style="fill: none; stroke-dasharray: 2.96,1.28; stroke-dashoffset: 0; stroke: #b0b0b0; stroke-opacity: 0.3; stroke-width: 0.8"/>
     </g>
     <g id="line2d_32">
      <g>
       <use xlink:href="#m65516cc25e" x="61.62625" y="264.29814" style="stroke: #000000; stroke-width: 0.8"/>
      </g>
     </g>
     <g id="text_17">
      <!-- 10000 -->
      <g transform="translate(22.81375 268.097358) scale(0.1 -0.1)">
       <defs>
        <path id="DejaVuSans-31" d="M 794 531 
L 1825 531 
L 1825 4091 
L 703 3866 
L 703 4441 
L 1819 4666 
L 2450 4666 
L 2450 531 
L 3481 531 
L 3481 0 
L 794 0 
L 794 531 
z
" transform="scale(0.015625)"/>
       </defs>
       <use xlink:href="#DejaVuSans-31"/>
       <use xlink:href="#DejaVuSans-30" transform="translate(63.623047 0)"/>
       <use xlink:href="#DejaVuSans-30" transform="translate(127.246094 0)"/>
       <use xlink:href="#DejaVuSans-30" transform="translate(190.869141 0)"/>
       <use xlink:href="#DejaVuSans-30" transform="translate(254.492188 0)"/>
      </g>
     </g>
    </g>
    <g id="ytick_4">
     <g id="line2d_33">
      <path d="M 61.62625 211.960681 
L 848.47625 211.960681 
" clip-path="url(#p66915cff42)" style="fill: none; stroke-dasharray: 2.96,1.28; stroke-dashoffset: 0; stroke: #b0b0b0; stroke-opacity: 0.3; stroke-width: 0.8"/>
     </g>
     <g id="line2d_34">
      <g>
       <use xlink:href="#m65516cc25e" x="61.62625" y="211.960681" style="stroke: #000000; stroke-width: 0.8"/>
      </g>
     </g>
     <g id="text_18">
      <!-- 15000 -->
      <g transform="translate(22.81375 215.7599) scale(0.1 -0.1)">
       <use xlink:href="#DejaVuSans-31"/>
       <use xlink:href="#DejaVuSans-35" transform="translate(63.623047 0)"/>
       <use xlink:href="#DejaVuSans-30" transform="translate(127.246094 0)"/>
       <use xlink:href="#DejaVuSans-30" transform="translate(190.869141 0)"/>
       <use xlink:href="#DejaVuSans-30" transform="translate(254.492188 0)"/>
      </g>
     </g>
    </g>
    <g id="ytick_5">
     <g id="line2d_35">
      <path d="M 61.62625 159.623223 
L 848.47625 159.623223 
" clip-path="url(#p66915cff42)" style="fill: none; stroke-dasharray: 2.96,1.28; stroke-dashoffset: 0; stroke: #b0b0b0; stroke-opacity: 0.3; stroke-width: 0.8"/>
     </g>
     <g id="line2d_36">
      <g>
       <use xlink:href="#m65516cc25e" x="61.62625" y="159.623223" style="stroke: #000000; stroke-width: 0.8"/>
      </g>
     </g>
     <g id="text_19">
      <!-- 20000 -->
      <g transform="translate(22.81375 163.422441) scale(0.1 -0.1)">
       <defs>
        <path id="DejaVuSans-32" d="M 1228 531 
L 3431 531 
L 3431 0 
L 469 0 
L 469 531 
Q 828 903 1448 1529 
Q 2069 2156 2228 2338 
Q 2531 2678 2651 2914 
Q 2772 3150 2772 3378 
Q 2772 3750 2511 3984 
Q 2250 4219 1831 4219 
Q 1534 4219 1204 4116 
Q 875 4013 500 3803 
L 500 4441 
Q 881 4594 1212 4672 
Q 1544 4750 1819 4750 
Q 2544 4750 2975 4387 
Q 3406 4025 3406 3419 
Q 3406 3131 3298 2873 
Q 3191 2616 2906 2266 
Q 2828 2175 2409 1742 
Q 1991 1309 1228 531 
z
" transform="scale(0.015625)"/>
       </defs>
       <use xlink:href="#DejaVuSans-32"/>
       <use xlink:href="#DejaVuSans-30" transform="translate(63.623047 0)"/>
       <use xlink:href="#DejaVuSans-30" transform="translate(127.246094 0)"/>
       <use xlink:href="#DejaVuSans-30" transform="translate(190.869141 0)"/>
       <use xlink:href="#DejaVuSans-30" transform="translate(254.492188 0)"/>
      </g>
     </g>
    </g>
    <g id="ytick_6">
     <g id="line2d_37">
      <path d="M 61.62625 107.285764 
L 848.47625 107.285764 
" clip-path="url(#p66915cff42)" style="fill: none; stroke-dasharray: 2.96,1.28; stroke-dashoffset: 0; stroke: #b0b0b0; stroke-opacity: 0.3; stroke-width: 0.8"/>
     </g>
     <g id="line2d_38">
      <g>
       <use xlink:href="#m65516cc25e" x="61.62625" y="107.285764" style="stroke: #000000; stroke-width: 0.8"/>
      </g>
     </g>
     <g id="text_20">
      <!-- 25000 -->
      <g transform="translate(22.81375 111.084983) scale(0.1 -0.1)">
       <use xlink:href="#DejaVuSans-32"/>
       <use xlink:href="#DejaVuSans-35" transform="translate(63.623047 0)"/>
       <use xlink:href="#DejaVuSans-30" transform="translate(127.246094 0)"/>
       <use xlink:href="#DejaVuSans-30" transform="translate(190.869141 0)"/>
       <use xlink:href="#DejaVuSans-30" transform="translate(254.492188 0)"/>
      </g>
     </g>
    </g>
    <g id="ytick_7">
     <g id="line2d_39">
      <path d="M 61.62625 54.948306 
L 848.47625 54.948306 
" clip-path="url(#p66915cff42)" style="fill: none; stroke-dasharray: 2.96,1.28; stroke-dashoffset: 0; stroke: #b0b0b0; stroke-opacity: 0.3; stroke-width: 0.8"/>
     </g>
     <g id="line2d_40">
      <g>
       <use xlink:href="#m65516cc25e" x="61.62625" y="54.948306" style="stroke: #000000; stroke-width: 0.8"/>
      </g>
     </g>
     <g id="text_21">
      <!-- 30000 -->
      <g transform="translate(22.81375 58.747524) scale(0.1 -0.1)">
       <defs>
        <path id="DejaVuSans-33" d="M 2597 2516 
Q 3050 2419 3304 2112 
Q 3559 1806 3559 1356 
Q 3559 666 3084 287 
Q 2609 -91 1734 -91 
Q 1441 -91 1130 -33 
Q 819 25 488 141 
L 488 750 
Q 750 597 1062 519 
Q 1375 441 1716 441 
Q 2309 441 2620 675 
Q 2931 909 2931 1356 
Q 2931 1769 2642 2001 
Q 2353 2234 1838 2234 
L 1294 2234 
L 1294 2753 
L 1863 2753 
Q 2328 2753 2575 2939 
Q 2822 3125 2822 3475 
Q 2822 3834 2567 4026 
Q 2313 4219 1838 4219 
Q 1578 4219 1281 4162 
Q 984 4106 628 3988 
L 628 4550 
Q 988 4650 1302 4700 
Q 1616 4750 1894 4750 
Q 2613 4750 3031 4423 
Q 3450 4097 3450 3541 
Q 3450 3153 3228 2886 
Q 3006 2619 2597 2516 
z
" transform="scale(0.015625)"/>
       </defs>
       <use xlink:href="#DejaVuSans-33"/>
       <use xlink:href="#DejaVuSans-30" transform="translate(63.623047 0)"/>
       <use xlink:href="#DejaVuSans-30" transform="translate(127.246094 0)"/>
       <use xlink:href="#DejaVuSans-30" transform="translate(190.869141 0)"/>
       <use xlink:href="#DejaVuSans-30" transform="translate(254.492188 0)"/>
      </g>
     </g>
    </g>
    <g id="text_22">
     <!-- Daily pedestrian count -->
     <g transform="translate(16.318125 279.793125) rotate(-90) scale(0.12 -0.12)">
      <defs>
       <path id="DejaVuSans-69" d="M 603 3500 
L 1178 3500 
L 1178 0 
L 603 0 
L 603 3500 
z
M 603 4863 
L 1178 4863 
L 1178 4134 
L 603 4134 
L 603 4863 
z
" transform="scale(0.015625)"/>
       <path id="DejaVuSans-64" d="M 2906 2969 
L 2906 4863 
L 3481 4863 
L 3481 0 
L 2906 0 
L 2906 525 
Q 2725 213 2448 61 
Q 2172 -91 1784 -91 
Q 1150 -91 751 415 
Q 353 922 353 1747 
Q 353 2572 751 3078 
Q 1150 3584 1784 3584 
Q 2172 3584 2448 3432 
Q 2725 3281 2906 2969 
z
M 947 1747 
Q 947 1113 1208 752 
Q 1469 391 1925 391 
Q 2381 391 2643 752 
Q 2906 1113 2906 1747 
Q 2906 2381 2643 2742 
Q 2381 3103 1925 3103 
Q 1469 3103 1208 2742 
Q 947 2381 947 1747 
z
" transform="scale(0.015625)"/>
       <path id="DejaVuSans-73" d="M 2834 3397 
L 2834 2853 
Q 2591 2978 2328 3040 
Q 2066 3103 1784 3103 
Q 1356 3103 1142 2972 
Q 928 2841 928 2578 
Q 928 2378 1081 2264 
Q 1234 2150 1697 2047 
L 1894 2003 
Q 2506 1872 2764 1633 
Q 3022 1394 3022 966 
Q 3022 478 2636 193 
Q 2250 -91 1575 -91 
Q 1294 -91 989 -36 
Q 684 19 347 128 
L 347 722 
Q 666 556 975 473 
Q 1284 391 1588 391 
Q 1994 391 2212 530 
Q 2431 669 2431 922 
Q 2431 1156 2273 1281 
Q 2116 1406 1581 1522 
L 1381 1569 
Q 847 1681 609 1914 
Q 372 2147 372 2553 
Q 372 3047 722 3315 
Q 1072 3584 1716 3584 
Q 2034 3584 2315 3537 
Q 2597 3491 2834 3397 
z
" transform="scale(0.015625)"/>
      </defs>
      <use xlink:href="#DejaVuSans-44"/>
      <use xlink:href="#DejaVuSans-61" transform="translate(77.001953 0)"/>
      <use xlink:href="#DejaVuSans-69" transform="translate(138.28125 0)"/>
      <use xlink:href="#DejaVuSans-6c" transform="translate(166.064453 0)"/>
      <use xlink:href="#DejaVuSans-79" transform="translate(193.847656 0)"/>
      <use xlink:href="#DejaVuSans-20" transform="translate(253.027344 0)"/>
      <use xlink:href="#DejaVuSans-70" transform="translate(284.814453 0)"/>
      <use xlink:href="#DejaVuSans-65" transform="translate(348.291016 0)"/>
      <use xlink:href="#DejaVuSans-64" transform="translate(409.814453 0)"/>
      <use xlink:href="#DejaVuSans-65" transform="translate(473.291016 0)"/>
      <use xlink:href="#DejaVuSans-73" transform="translate(534.814453 0)"/>
      <use xlink:href="#DejaVuSans-74" transform="translate(586.914062 0)"/>
      <use xlink:href="#DejaVuSans-72" transform="translate(626.123047 0)"/>
      <use xlink:href="#DejaVuSans-69" transform="translate(667.236328 0)"/>
      <use xlink:href="#DejaVuSans-61" transform="translate(695.019531 0)"/>
      <use xlink:href="#DejaVuSans-6e" transform="translate(756.298828 0)"/>
      <use xlink:href="#DejaVuSans-20" transform="translate(819.677734 0)"/>
      <use xlink:href="#DejaVuSans-63" transform="translate(851.464844 0)"/>
      <use xlink:href="#DejaVuSans-6f" transform="translate(906.445312 0)"/>
      <use xlink:href="#DejaVuSans-75" transform="translate(967.626953 0)"/>
      <use xlink:href="#DejaVuSans-6e" transform="translate(1031.005859 0)"/>
      <use xlink:href="#DejaVuSans-74" transform="translate(1094.384766 0)"/>
     </g>
    </g>
   </g>
   <g id="line2d_41">
    <path d="M 63.752872 319.618833 
L 65.879493 233.701661 
L 68.006115 223.265572 
L 70.132736 259.859923 
L 72.259358 348.174151 
L 74.38598 349.283705 
L 76.512601 148.475344 
L 78.639223 139.892001 
L 80.765845 146.067821 
L 82.892466 139.222081 
L 85.019088 153.771895 
L 87.145709 348.917343 
L 89.272331 350.142039 
L 91.398953 121.291268 
L 93.525574 125.363122 
L 95.652196 125.614342 
L 97.778818 87.292855 
L 99.905439 109.159445 
L 102.032061 337.434504 
L 104.158682 346.46795 
L 106.285304 96.389105 
L 108.411926 98.189514 
L 110.538547 95.781991 
L 112.665169 100.303947 
L 114.791791 187.990125 
L 116.918412 328.380124 
L 119.045034 347.179739 
L 121.171655 345.274655 
L 123.298277 106.113405 
L 125.424899 106.542572 
L 127.55152 127.393816 
L 129.678142 106.626312 
L 131.804764 342.511238 
L 133.931385 349.252302 
L 136.058007 97.865022 
L 138.184628 70.293648 
L 140.31125 84.707384 
L 142.437872 64.086426 
L 144.564493 88.046514 
L 146.691115 336.209808 
L 148.817736 345.850368 
L 150.944358 76.427599 
L 153.07098 74.54345 
L 155.197601 79.473639 
L 157.324223 59.27138 
L 159.450845 72.094057 
L 161.577466 336.1156 
L 163.704088 339.821092 
L 165.830709 77.442945 
L 167.957331 67.142933 
L 170.083953 75.00402 
L 172.210574 67.69771 
L 174.337196 77.432478 
L 176.463818 337.486842 
L 178.590439 343.369572 
L 180.717061 75.946094 
L 182.843682 83.357078 
L 184.970304 76.176379 
L 187.096926 70.084299 
L 189.223547 99.95852 
L 191.350169 344.604736 
L 193.476791 351.492346 
L 195.603412 146.193431 
L 197.730034 108.531396 
L 199.856655 119.365249 
L 201.983277 82.090512 
L 204.109899 96.15882 
L 206.23652 341.914591 
L 208.363142 345.075773 
L 210.489764 333.373117 
L 212.616385 78.123332 
L 214.743007 84.121205 
L 216.869628 72.920989 
L 218.99625 82.519679 
L 221.122872 331.352891 
L 223.249493 342.092538 
L 225.376115 79.222419 
L 227.502736 74.491113 
L 229.629358 73.653713 
L 231.75598 70.021494 
L 233.882601 98.964108 
L 236.009223 341.516826 
L 238.135845 347.378621 
L 240.262466 134.480308 
L 242.389088 88.276799 
L 244.515709 85.230759 
L 246.642331 67.142933 
L 248.768953 93.11278 
L 250.895574 341.433086 
L 253.022196 346.698234 
L 255.148818 84.037465 
L 257.275439 72.125459 
L 259.402061 71.476475 
L 261.528682 75.872821 
L 263.655304 84.445697 
L 265.781926 336.57617 
L 267.908547 299.845741 
L 270.035169 102.104356 
L 272.161791 100.00039 
L 274.288412 103.957102 
L 276.415034 97.498659 
L 278.541655 112.05894 
L 280.668277 341.830851 
L 282.794899 343.411442 
L 284.92152 100.220207 
L 287.048142 106.605377 
L 289.174764 111.137801 
L 291.301385 141.336515 
L 293.428007 341.160931 
L 295.554628 340.784102 
L 297.68125 348.781265 
L 299.807872 349.2209 
L 301.934493 162.250563 
L 304.061115 150.275752 
L 306.187736 342.804327 
L 308.314358 192.344602 
L 310.44098 343.547519 
L 312.567601 350.005962 
L 314.694223 79.819066 
L 316.820845 68.587447 
L 318.947466 69.812144 
L 321.074088 57.764061 
L 323.200709 70.806555 
L 325.327331 336.147003 
L 327.453953 342.647315 
L 329.580574 70.031961 
L 331.707196 55.032045 
L 333.833818 69.184094 
L 335.960439 68.524642 
L 338.087061 103.716349 
L 340.213682 339.475665 
L 342.340304 348.435838 
L 344.466926 81.17984 
L 346.593547 71.62302 
L 348.720169 81.692747 
L 350.846791 72.952391 
L 352.973412 92.118369 
L 355.100034 336.942532 
L 357.226655 346.938987 
L 359.353277 78.646707 
L 361.479899 68.870069 
L 363.60652 87.27192 
L 365.733142 77.149855 
L 367.859764 87.931372 
L 369.986385 340.302597 
L 372.113007 345.79803 
L 374.239628 85.429641 
L 376.36625 76.082171 
L 378.492872 88.402409 
L 380.619493 77.411543 
L 382.746115 88.946719 
L 384.872736 344.887358 
L 386.999358 351.000373 
L 389.12598 95.530771 
L 391.252601 73.161741 
L 393.379223 85.890211 
L 395.505845 71.602085 
L 397.632466 93.636155 
L 399.759088 339.758287 
L 401.885709 346.457482 
L 404.012331 341.181866 
L 406.138953 78.814187 
L 408.265574 86.308911 
L 410.392196 75.516927 
L 412.518818 82.812768 
L 414.645439 339.182575 
L 416.772061 350.058299 
L 418.898682 82.509211 
L 421.025304 68.085008 
L 423.151926 80.562258 
L 425.278547 78.30128 
L 427.405169 77.893047 
L 429.531791 341.590098 
L 431.658412 345.850368 
L 433.785034 84.006062 
L 435.911655 72.010317 
L 438.038277 81.755552 
L 440.164899 72.209199 
L 442.29152 79.672521 
L 444.418142 336.010925 
L 446.544764 333.121898 
L 448.671385 100.094597 
L 450.798007 96.692662 
L 452.924628 100.743582 
L 455.05125 93.61522 
L 457.177872 104.072244 
L 459.304493 336.879727 
L 461.431115 351.199256 
L 463.557736 115.722562 
L 465.684358 101.036672 
L 467.81098 108.123163 
L 469.937601 107.065947 
L 472.064223 127.215868 
L 474.190845 339.66408 
L 476.317466 351.063178 
L 478.444088 81.870694 
L 480.570709 74.061945 
L 482.697331 81.117035 
L 484.823953 74.177088 
L 486.950574 84.780657 
L 489.077196 338.041619 
L 491.203818 346.551689 
L 493.330439 86.602 
L 495.457061 81.127502 
L 497.583682 81.891629 
L 499.710304 79.054939 
L 501.836926 104.082712 
L 503.963547 337.382167 
L 506.090169 343.809207 
L 508.216791 89.543366 
L 510.343412 75.621602 
L 512.470034 84.665514 
L 514.596655 78.772317 
L 516.723277 84.22588 
L 518.849899 337.256557 
L 520.97652 346.164392 
L 523.103142 82.938378 
L 525.229764 73.863063 
L 527.356385 86.581065 
L 529.483007 80.55179 
L 531.609628 107.516049 
L 533.73625 342.040201 
L 535.862872 349.869884 
L 537.989493 85.377304 
L 540.116115 77.08705 
L 542.242736 85.094682 
L 544.369358 87.31379 
L 546.49598 98.974576 
L 548.622601 336.188873 
L 550.749223 347.786853 
L 552.875845 87.533607 
L 555.002466 80.279635 
L 557.129088 87.763892 
L 559.255709 68.221085 
L 561.382331 91.270502 
L 563.508953 324.496684 
L 565.635574 347.629841 
L 567.762196 84.006062 
L 569.888818 75.443654 
L 572.015439 93.40587 
L 574.142061 81.30545 
L 576.268682 78.070995 
L 578.395304 349.210432 
L 580.521926 354.7268 
L 582.648547 86.93696 
L 584.775169 74.438775 
L 586.901791 84.361957 
L 589.028412 79.327094 
L 591.155034 93.82457 
L 593.281655 345.285123 
L 595.408277 352.246005 
L 597.534899 93.091845 
L 599.66152 67.750048 
L 601.788142 78.165202 
L 603.914764 78.646707 
L 606.041385 93.583817 
L 608.168007 341.328411 
L 610.294628 349.13716 
L 612.42125 95.436563 
L 614.547872 89.082796 
L 616.674493 89.825988 
L 618.801115 79.546911 
L 620.927736 75.747212 
L 623.054358 344.897826 
L 625.18098 349.210432 
L 627.307601 94.442152 
L 629.434223 83.074456 
L 631.560845 98.828031 
L 633.687466 70.084299 
L 635.814088 332.232161 
L 637.940709 348.687058 
L 640.067331 350.686349 
L 642.193953 119.794417 
L 644.320574 107.547451 
L 646.447196 101.685656 
L 648.573818 102.407913 
L 650.700439 123.834868 
L 652.827061 336.586637 
L 654.953682 326.925143 
L 657.080304 92.055564 
L 659.206926 83.712973 
L 661.333547 86.76948 
L 663.460169 66.609091 
L 665.586791 89.145601 
L 667.713412 335.183993 
L 669.840034 343.851077 
L 671.966655 88.381474 
L 674.093277 80.049351 
L 676.219899 80.729738 
L 678.34652 80.92862 
L 680.473142 97.100895 
L 682.599764 343.243962 
L 684.726385 349.817547 
L 686.853007 87.512672 
L 688.979628 72.617432 
L 691.10625 79.180549 
L 693.232872 67.561633 
L 695.359493 112.383433 
L 697.486115 343.547519 
L 699.612736 350.581674 
L 701.739358 92.254446 
L 703.86598 71.24619 
L 705.992601 85.555251 
L 708.119223 78.280345 
L 710.245845 120.213116 
L 712.372466 348.362566 
L 714.499088 351.659825 
L 716.625709 213.614545 
L 718.752331 339.475665 
L 720.878953 92.275381 
L 723.005574 90.506375 
L 725.132196 109.4316 
L 727.258818 340.794569 
L 729.385439 349.482587 
L 731.512061 93.19652 
L 733.638682 95.038799 
L 735.765304 93.102313 
L 737.891926 81.336852 
L 740.018547 80.698335 
L 742.145169 341.474956 
L 744.271791 349.38838 
L 746.398412 97.425387 
L 748.525034 83.47222 
L 750.651655 96.054145 
L 752.778277 134.522177 
L 754.904899 122.065862 
L 757.03152 341.317944 
L 759.158142 347.127401 
L 761.284764 77.54762 
L 763.411385 76.354326 
L 765.538007 92.526601 
L 767.664628 69.749339 
L 769.79125 88.402409 
L 771.917872 332.033278 
L 774.044493 348.739395 
L 776.171115 103.38139 
L 778.297736 78.552499 
L 780.424358 85.586654 
L 782.55098 63.269961 
L 784.677601 104.344399 
L 786.804223 338.512656 
L 788.930845 347.158804 
L 791.057466 105.286473 
L 793.184088 108.311578 
L 795.310709 95.195811 
L 797.437331 94.358412 
L 799.563953 122.379887 
L 801.690574 338.774343 
L 803.817196 347.598439 
L 805.943818 99.801507 
L 808.070439 98.880368 
L 810.197061 119.07216 
L 812.323682 108.76168 
L 814.450304 163.988167 
L 816.576926 351.073646 
L 818.703547 350.707284 
L 820.830169 245.812549 
L 822.956791 278.900291 
L 825.083412 352.403017 
L 827.210034 340.114182 
L 829.336655 314.636307 
L 831.463277 348.446305 
L 833.589899 348.132281 
L 835.71652 314.479295 
L 837.843142 286.960259 
L 837.843142 286.960259 
" clip-path="url(#p66915cff42)" style="fill: none; stroke: #0d6efc; stroke-opacity: 0.8; stroke-width: 2.5; stroke-linecap: square"/>
   </g>
   <g id="line2d_42">
    <path d="M 63.752872 293.868804 
L 65.879493 330.054923 
L 68.006115 336.356353 
L 70.132736 355.763082 
L 72.259358 355.909627 
L 74.38598 276.346223 
L 76.512601 220.659167 
L 78.639223 224.144841 
L 80.765845 220.554492 
L 82.892466 280.575089 
L 85.019088 347.849658 
L 87.145709 351.691228 
L 89.272331 209.83578 
L 91.398953 172.477302 
L 93.525574 194.291555 
L 95.652196 169.630145 
L 99.905439 341.506358 
L 102.032061 350.047832 
L 104.158682 197.557413 
L 106.285304 154.054517 
L 108.411926 163.632272 
L 110.538547 178.014606 
L 114.791791 344.562866 
L 116.918412 348.226488 
L 119.045034 355.763082 
L 121.171655 170.258194 
L 123.298277 177.417958 
L 125.424899 171.168866 
L 127.55152 248.586435 
L 129.678142 346.771507 
L 131.804764 355.428122 
L 133.931385 216.116275 
L 136.058007 155.258279 
L 138.184628 149.459288 
L 140.31125 149.270873 
L 142.437872 217.539854 
L 144.564493 319.943326 
L 146.691115 349.01155 
L 148.817736 195.233629 
L 150.944358 139.462834 
L 153.07098 161.727188 
L 155.197601 164.741826 
L 157.324223 240.830023 
L 159.450845 349.30464 
L 161.577466 352.05759 
L 163.704088 194.668385 
L 165.830709 138.133462 
L 167.957331 157.17383 
L 170.083953 156.189885 
L 172.210574 237.951463 
L 174.337196 348.488175 
L 176.463818 350.707284 
L 178.590439 181.322333 
L 180.717061 126.179587 
L 182.843682 148.014774 
L 184.970304 128.063735 
L 187.096926 217.634062 
L 189.223547 313.390676 
L 191.350169 350.518869 
L 193.476791 187.205063 
L 195.603412 120.453869 
L 197.730034 145.952678 
L 199.856655 137.93458 
L 201.983277 226.991999 
L 204.109899 344.897826 
L 206.23652 350.058299 
L 208.363142 313.87218 
L 210.489764 144.225542 
L 212.616385 138.562629 
L 214.743007 107.317167 
L 216.869628 211.280294 
L 218.99625 333.394052 
L 221.122872 348.655655 
L 223.249493 178.20302 
L 225.376115 115.031708 
L 227.502736 139.996676 
L 229.629358 145.732861 
L 231.75598 226.458157 
L 233.882601 336.49243 
L 236.009223 346.886649 
L 238.135845 182.965729 
L 240.262466 122.578769 
L 242.389088 148.862641 
L 244.515709 118.496448 
L 246.642331 207.229375 
L 248.768953 336.1156 
L 250.895574 349.629132 
L 253.022196 191.72702 
L 255.148818 129.686196 
L 257.275439 149.65817 
L 259.402061 123.960478 
L 261.528682 224.710086 
L 263.655304 338.973225 
L 265.781926 249.507574 
L 267.908547 189.717261 
L 270.035169 135.443317 
L 272.161791 156.817935 
L 274.288412 128.67085 
L 276.415034 229.891494 
L 278.541655 339.852495 
L 280.668277 337.507777 
L 282.794899 207.260777 
L 284.92152 156.566715 
L 287.048142 176.643364 
L 289.174764 205.868601 
L 291.301385 342.909002 
L 293.428007 345.536343 
L 295.554628 347.724049 
L 297.68125 351.72263 
L 299.807872 247.131453 
L 301.934493 228.070151 
L 304.061115 241.688358 
L 306.187736 347.033194 
L 308.314358 343.264897 
L 310.44098 349.419782 
L 312.567601 185.896627 
L 314.694223 134.281425 
L 316.820845 147.480932 
L 318.947466 116.005185 
L 321.074088 213.331923 
L 323.200709 342.479835 
L 325.327331 351.649358 
L 327.453953 183.457701 
L 329.580574 122.023992 
L 331.707196 148.705629 
L 333.833818 135.998094 
L 335.960439 224.218114 
L 338.087061 338.920888 
L 340.213682 351.209723 
L 342.340304 178.99855 
L 344.466926 113.430182 
L 346.593547 153.803297 
L 348.720169 150.589777 
L 350.846791 228.216696 
L 352.973412 344.573334 
L 355.100034 350.508401 
L 357.226655 198.782109 
L 359.353277 142.278589 
L 361.479899 159.194055 
L 363.60652 147.721685 
L 365.733142 247.330336 
L 367.859764 334.168647 
L 369.986385 349.524457 
L 372.113007 207.187505 
L 374.239628 164.815098 
L 376.36625 179.480054 
L 378.492872 161.298021 
L 380.619493 233.806336 
L 382.746115 347.085532 
L 384.872736 353.041534 
L 386.999358 294.486386 
L 389.12598 180.369791 
L 391.252601 179.731274 
L 393.379223 167.798334 
L 397.632466 367.32966 
L 399.759088 352.287875 
L 401.885709 343.694064 
L 404.012331 178.99855 
L 406.138953 180.045299 
L 408.265574 169.117238 
L 410.392196 250.627595 
L 412.518818 351.80637 
L 414.645439 367.727425 
L 416.772061 213.562207 
L 418.898682 173.722934 
L 421.025304 175.251188 
L 423.151926 177.763386 
L 425.278547 366.052627 
L 427.405169 340.072312 
L 429.531791 349.30464 
L 431.658412 204.486892 
L 433.785034 169.295185 
L 435.911655 200.341765 
L 438.038277 166.709714 
L 440.164899 242.546692 
L 442.29152 325.438759 
L 444.418142 353.324157 
L 446.544764 367.842568 
L 448.671385 166.448027 
L 450.798007 209.731105 
L 452.924628 366.104964 
L 455.05125 245.707874 
L 457.177872 297.961593 
L 459.304493 322.110096 
L 461.431115 213.907635 
L 463.557736 188.157605 
L 465.684358 188.26228 
L 467.81098 190.062688 
L 469.937601 252.407069 
L 472.064223 335.738771 
L 474.190845 346.719169 
L 476.317466 213.206313 
L 478.444088 171.702708 
L 480.570709 185.29998 
L 482.697331 190.669803 
L 484.823953 251.73715 
L 486.950574 368.522955 
L 489.077196 352.507692 
L 491.203818 196.280379 
L 493.330439 149.637235 
L 495.457061 165.652498 
L 497.583682 151.343437 
L 499.710304 234.183166 
L 501.836926 340.773634 
L 503.963547 351.576085 
L 506.090169 199.839326 
L 508.216791 144.717514 
L 510.343412 157.341309 
L 512.470034 146.476053 
L 514.596655 237.449023 
L 516.723277 343.903414 
L 518.849899 345.860835 
L 520.97652 213.656415 
L 523.103142 366.869091 
L 525.229764 182.913392 
L 527.356385 161.046801 
L 529.483007 248.408487 
L 531.609628 343.610324 
L 533.73625 348.603318 
L 535.862872 200.90701 
L 537.989493 178.066943 
L 540.116115 162.418043 
L 542.242736 154.944254 
L 544.369358 242.829314 
L 546.49598 342.071603 
L 548.622601 349.566327 
L 550.749223 191.214113 
L 552.875845 144.466295 
L 555.002466 153.573012 
L 557.129088 152.578601 
L 559.255709 230.697491 
L 561.382331 340.009507 
L 563.508953 339.465198 
L 565.635574 193.359948 
L 567.762196 171.556163 
L 569.888818 171.231671 
L 572.015439 148.977784 
L 574.142061 240.589271 
L 576.268682 351.858708 
L 578.395304 351.146918 
L 580.521926 199.462496 
L 582.648547 149.396483 
L 584.775169 161.789993 
L 586.901791 169.672015 
L 589.028412 236.287132 
L 591.155034 345.400265 
L 593.281655 352.622835 
L 595.408277 199.985871 
L 597.534899 161.245684 
L 599.66152 172.791327 
L 601.788142 172.309823 
L 603.914764 233.576051 
L 606.041385 345.829433 
L 608.168007 351.837773 
L 610.294628 194.18688 
L 612.42125 163.674142 
L 614.547872 154.00218 
L 616.674493 158.419461 
L 618.801115 241.081243 
L 620.927736 346.195795 
L 623.054358 353.282287 
L 625.18098 232.968937 
L 627.307601 184.96502 
L 629.434223 208.475006 
L 631.560845 207.239842 
L 633.687466 345.63055 
L 635.814088 349.660534 
L 637.940709 350.968971 
L 640.067331 223.213235 
L 642.193953 179.417249 
L 644.320574 185.456992 
L 646.447196 187.50862 
L 648.573818 251.48593 
L 650.700439 343.997621 
L 652.827061 352.76938 
L 654.953682 214.912514 
L 657.080304 156.912142 
L 659.206926 163.286845 
L 661.333547 142.969443 
L 665.586791 343.662662 
L 667.713412 335.351473 
L 669.840034 198.614629 
L 671.966655 143.98479 
L 674.093277 165.055851 
L 676.219899 159.67556 
L 678.34652 239.867014 
L 680.473142 337.863671 
L 682.599764 345.358395 
L 684.726385 220.240467 
L 686.853007 150.74679 
L 688.979628 204.476425 
L 691.10625 154.567424 
L 693.232872 233.900544 
L 695.359493 329.793235 
L 697.486115 355.532797 
L 699.612736 208.632019 
L 701.739358 153.489272 
L 703.86598 161.580644 
L 705.992601 153.018235 
L 708.119223 200.708128 
L 710.245845 366.869091 
L 712.372466 349.671002 
L 714.499088 303.844323 
L 716.625709 280.836777 
L 718.752331 171.807383 
L 720.878953 164.417334 
L 723.005574 238.851667 
L 725.132196 327.699737 
L 727.258818 351.565618 
L 729.385439 199.567171 
L 731.512061 169.504535 
L 733.638682 154.504619 
L 735.765304 145.753796 
L 737.891926 240.055429 
L 740.018547 346.143457 
L 742.145169 351.324866 
L 744.271791 199.200809 
L 746.398412 145.492109 
L 748.525034 154.023115 
L 750.651655 153.8347 
L 752.778277 233.324832 
L 754.904899 335.456148 
L 757.03152 352.947327 
L 759.158142 185.540732 
L 761.284764 142.571679 
L 763.411385 160.659504 
L 765.538007 139.379094 
L 767.664628 231.178996 
L 769.79125 346.310937 
L 771.917872 350.005962 
L 774.044493 201.817682 
L 776.171115 143.31487 
L 778.297736 160.994464 
L 780.424358 162.575055 
L 782.55098 197.327128 
L 784.677601 312.888236 
L 786.804223 347.190206 
L 788.930845 193.778648 
L 791.057466 152.924028 
L 793.184088 168.740408 
L 795.310709 150.087338 
L 797.437331 230.226454 
L 799.563953 342.741522 
L 801.690574 347.430959 
L 803.817196 205.805796 
L 805.943818 168.907888 
L 808.070439 165.401278 
L 810.197061 192.669094 
L 812.323682 264.831982 
L 814.450304 345.023436 
L 816.576926 353.554441 
L 818.703547 301.551943 
L 820.830169 309.433964 
L 822.956791 340.239792 
L 825.083412 354.234828 
L 827.210034 343.411442 
L 829.336655 348.184618 
L 831.463277 344.562866 
L 833.589899 340.428207 
L 835.71652 341.548228 
L 837.843142 227.463036 
L 837.843142 227.463036 
" clip-path="url(#p66915cff42)" style="fill: none; stroke: #83c966; stroke-opacity: 0.8; stroke-width: 2.5; stroke-linecap: square"/>
   </g>
   <g id="patch_3">
    <path d="M 61.62625 384.1975 
L 61.62625 39.3575 
" style="fill: none; stroke: #000000; stroke-width: 0.8; stroke-linejoin: miter; stroke-linecap: square"/>
   </g>
   <g id="patch_4">
    <path d="M 61.62625 384.1975 
L 848.47625 384.1975 
" style="fill: none; stroke: #000000; stroke-width: 0.8; stroke-linejoin: miter; stroke-linecap: square"/>
   </g>
   <g id="text_23">
    <!-- Pedestrian Traffic at Southern Cross Station -->
    <g transform="translate(281.14625 19.3575) scale(0.16 -0.16)">
     <defs>
      <path id="DejaVuSans-50" d="M 1259 4147 
L 1259 2394 
L 2053 2394 
Q 2494 2394 2734 2622 
Q 2975 2850 2975 3272 
Q 2975 3691 2734 3919 
Q 2494 4147 2053 4147 
L 1259 4147 
z
M 628 4666 
L 2053 4666 
Q 2838 4666 3239 4311 
Q 3641 3956 3641 3272 
Q 3641 2581 3239 2228 
Q 2838 1875 2053 1875 
L 1259 1875 
L 1259 0 
L 628 0 
L 628 4666 
z
" transform="scale(0.015625)"/>
      <path id="DejaVuSans-54" d="M -19 4666 
L 3928 4666 
L 3928 4134 
L 2272 4134 
L 2272 0 
L 1638 0 
L 1638 4134 
L -19 4134 
L -19 4666 
z
" transform="scale(0.015625)"/>
      <path id="DejaVuSans-43" d="M 4122 4306 
L 4122 3641 
Q 3803 3938 3442 4084 
Q 3081 4231 2675 4231 
Q 1875 4231 1450 3742 
Q 1025 3253 1025 2328 
Q 1025 1406 1450 917 
Q 1875 428 2675 428 
Q 3081 428 3442 575 
Q 3803 722 4122 1019 
L 4122 359 
Q 3791 134 3420 21 
Q 3050 -91 2638 -91 
Q 1578 -91 968 557 
Q 359 1206 359 2328 
Q 359 3453 968 4101 
Q 1578 4750 2638 4750 
Q 3056 4750 3426 4639 
Q 3797 4528 4122 4306 
z
" transform="scale(0.015625)"/>
     </defs>
     <use xlink:href="#DejaVuSans-50"/>
     <use xlink:href="#DejaVuSans-65" transform="translate(56.677734 0)"/>
     <use xlink:href="#DejaVuSans-64" transform="translate(118.201172 0)"/>
     <use xlink:href="#DejaVuSans-65" transform="translate(181.677734 0)"/>
     <use xlink:href="#DejaVuSans-73" transform="translate(243.201172 0)"/>
     <use xlink:href="#DejaVuSans-74" transform="translate(295.300781 0)"/>
     <use xlink:href="#DejaVuSans-72" transform="translate(334.509766 0)"/>
     <use xlink:href="#DejaVuSans-69" transform="translate(375.623047 0)"/>
     <use xlink:href="#DejaVuSans-61" transform="translate(403.40625 0)"/>
     <use xlink:href="#DejaVuSans-6e" transform="translate(464.685547 0)"/>
     <use xlink:href="#DejaVuSans-20" transform="translate(528.064453 0)"/>
     <use xlink:href="#DejaVuSans-54" transform="translate(559.851562 0)"/>
     <use xlink:href="#DejaVuSans-72" transform="translate(606.185547 0)"/>
     <use xlink:href="#DejaVuSans-61" transform="translate(647.298828 0)"/>
     <use xlink:href="#DejaVuSans-66" transform="translate(708.578125 0)"/>
     <use xlink:href="#DejaVuSans-66" transform="translate(743.783203 0)"/>
     <use xlink:href="#DejaVuSans-69" transform="translate(778.988281 0)"/>
     <use xlink:href="#DejaVuSans-63" transform="translate(806.771484 0)"/>
     <use xlink:href="#DejaVuSans-20" transform="translate(861.751953 0)"/>
     <use xlink:href="#DejaVuSans-61" transform="translate(893.539062 0)"/>
     <use xlink:href="#DejaVuSans-74" transform="translate(954.818359 0)"/>
     <use xlink:href="#DejaVuSans-20" transform="translate(994.027344 0)"/>
     <use xlink:href="#DejaVuSans-53" transform="translate(1025.814453 0)"/>
     <use xlink:href="#DejaVuSans-6f" transform="translate(1089.291016 0)"/>
     <use xlink:href="#DejaVuSans-75" transform="translate(1150.472656 0)"/>
     <use xlink:href="#DejaVuSans-74" transform="translate(1213.851562 0)"/>
     <use xlink:href="#DejaVuSans-68" transform="translate(1253.060547 0)"/>
     <use xlink:href="#DejaVuSans-65" transform="translate(1316.439453 0)"/>
     <use xlink:href="#DejaVuSans-72" transform="translate(1377.962891 0)"/>
     <use xlink:href="#DejaVuSans-6e" transform="translate(1417.326172 0)"/>
     <use xlink:href="#DejaVuSans-20" transform="translate(1480.705078 0)"/>
     <use xlink:href="#DejaVuSans-43" transform="translate(1512.492188 0)"/>
     <use xlink:href="#DejaVuSans-72" transform="translate(1582.316406 0)"/>
     <use xlink:href="#DejaVuSans-6f" transform="translate(1621.179688 0)"/>
     <use xlink:href="#DejaVuSans-73" transform="translate(1682.361328 0)"/>
     <use xlink:href="#DejaVuSans-73" transform="translate(1734.460938 0)"/>
     <use xlink:href="#DejaVuSans-20" transform="translate(1786.560547 0)"/>
     <use xlink:href="#DejaVuSans-53" transform="translate(1818.347656 0)"/>
     <use xlink:href="#DejaVuSans-74" transform="translate(1881.824219 0)"/>
     <use xlink:href="#DejaVuSans-61" transform="translate(1921.033203 0)"/>
     <use xlink:href="#DejaVuSans-74" transform="translate(1982.3125 0)"/>
     <use xlink:href="#DejaVuSans-69" transform="translate(2021.521484 0)"/>
     <use xlink:href="#DejaVuSans-6f" transform="translate(2049.304688 0)"/>
     <use xlink:href="#DejaVuSans-6e" transform="translate(2110.486328 0)"/>
    </g>
   </g>
   <g id="legend_1">
    <g id="patch_5">
     <path d="M 69.32625 80.449375 
L 132.52125 80.449375 
Q 134.72125 80.449375 134.72125 78.249375 
L 134.72125 47.0575 
Q 134.72125 44.8575 132.52125 44.8575 
L 69.32625 44.8575 
Q 67.12625 44.8575 67.12625 47.0575 
L 67.12625 78.249375 
Q 67.12625 80.449375 69.32625 80.449375 
z
" style="fill: #ffffff; opacity: 0.95; stroke: #cccccc; stroke-linejoin: miter"/>
    </g>
    <g id="line2d_43">
     <path d="M 71.52625 53.765781 
L 82.52625 53.765781 
L 93.52625 53.765781 
" style="fill: none; stroke: #0d6efc; stroke-opacity: 0.8; stroke-width: 2.5; stroke-linecap: square"/>
    </g>
    <g id="text_24">
     <!-- 2019 -->
     <g transform="translate(102.32625 57.615781) scale(0.11 -0.11)">
      <defs>
       <path id="DejaVuSans-39" d="M 703 97 
L 703 672 
Q 941 559 1184 500 
Q 1428 441 1663 441 
Q 2288 441 2617 861 
Q 2947 1281 2994 2138 
Q 2813 1869 2534 1725 
Q 2256 1581 1919 1581 
Q 1219 1581 811 2004 
Q 403 2428 403 3163 
Q 403 3881 828 4315 
Q 1253 4750 1959 4750 
Q 2769 4750 3195 4129 
Q 3622 3509 3622 2328 
Q 3622 1225 3098 567 
Q 2575 -91 1691 -91 
Q 1453 -91 1209 -44 
Q 966 3 703 97 
z
M 1959 2075 
Q 2384 2075 2632 2365 
Q 2881 2656 2881 3163 
Q 2881 3666 2632 3958 
Q 2384 4250 1959 4250 
Q 1534 4250 1286 3958 
Q 1038 3666 1038 3163 
Q 1038 2656 1286 2365 
Q 1534 2075 1959 2075 
z
" transform="scale(0.015625)"/>
      </defs>
      <use xlink:href="#DejaVuSans-32"/>
      <use xlink:href="#DejaVuSans-30" transform="translate(63.623047 0)"/>
      <use xlink:href="#DejaVuSans-31" transform="translate(127.246094 0)"/>
      <use xlink:href="#DejaVuSans-39" transform="translate(190.869141 0)"/>
     </g>
    </g>
    <g id="line2d_44">
     <path d="M 71.52625 69.911719 
L 82.52625 69.911719 
L 93.52625 69.911719 
" style="fill: none; stroke: #83c966; stroke-opacity: 0.8; stroke-width: 2.5; stroke-linecap: square"/>
    </g>
    <g id="text_25">
     <!-- 2025 -->
     <g transform="translate(102.32625 73.761719) scale(0.11 -0.11)">
      <use xlink:href="#DejaVuSans-32"/>
      <use xlink:href="#DejaVuSans-30" transform="translate(63.623047 0)"/>
      <use xlink:href="#DejaVuSans-32" transform="translate(127.246094 0)"/>
      <use xlink:href="#DejaVuSans-35" transform="translate(190.869141 0)"/>
     </g>
    </g>
   </g>
  </g>
 </g>
 <defs>
  <clipPath id="p66915cff42">
   <rect x="61.62625" y="39.3575" width="786.85" height="344.84"/>
  </clipPath>
 </defs>
</svg>
