<?xml version="1.0" encoding="utf-8" standalone="no"?>
<!DOCTYPE svg PUBLIC "-//W3C//DTD SVG 1.1//EN"
  "http://www.w3.org/Graphics/SVG/1.1/DTD/svg11.dtd">
<svg xmlns:xlink="http://www.w3.org/1999/xlink" width="712.81875pt" height="285.438125pt" viewBox="0 0 712.81875 285.438125" xmlns="http://www.w3.org/2000/svg" version="1.1">
 <metadata>
  <rdf:RDF xmlns:dc="http://purl.org/dc/elements/1.1/" xmlns:cc="http://creativecommons.org/ns#" xmlns:rdf="http://www.w3.org/1999/02/22-rdf-syntax-ns#">
   <cc:Work>
    <dc:type rdf:resource="http://purl.org/dc/dcmitype/StillImage"/>
    <dc:date>2026-01-28T19:49:03.383237</dc:date>
    <dc:format>image/svg+xml</dc:format>
    <dc:creator>
     <cc:Agent>
      <dc:title>Matplotlib v3.10.8, https://matplotlib.org/</dc:title>
     </cc:Agent>
    </dc:creator>
   </cc:Work>
  </rdf:RDF>
 </metadata>
 <defs>
  <style type="text/css">*{stroke-linejoin: round; stroke-linecap: butt}</style>
 </defs>
 <g id="figure_1">
  <g id="patch_1">
   <path d="M 0 285.438125 
L 712.81875 285.438125 
L 712.81875 0 
L 0 0 
L 0 285.438125 
z
" style="fill: none"/>
  </g>
  <g id="axes_1">
   <g id="patch_2">
    <path d="M 54.295938 261.56 
L 363.008438 261.56 
L 363.008438 54.24 
L 54.295938 54.24 
L 54.295938 261.56 
z
" style="fill: none"/>
   </g>
   <g id="matplotlib.axis_1">
    <g id="xtick_1">
     <g id="line2d_1">
      <defs>
       <path id="mee75f13115" d="M 0 0 
L 0 3.5 
" style="stroke: #000000; stroke-width: 0.8"/>
      </defs>
      <g>
       <use xlink:href="#mee75f13115" x="54.295938" y="261.56" style="stroke: #000000; stroke-width: 0.8"/>
      </g>
     </g>
     <g id="text_1">
      <!-- Jan -->
      <g transform="translate(46.588125 276.158437) scale(0.1 -0.1)">
       <defs>
        <path id="DejaVuSans-4a" d="M 628 4666 
L 1259 4666 
L 1259 325 
Q 1259 -519 939 -900 
Q 619 -1281 -91 -1281 
L -331 -1281 
L -331 -750 
L -134 -750 
Q 284 -750 456 -515 
Q 628 -281 628 325 
L 628 4666 
z
" transform="scale(0.015625)"/>
        <path id="DejaVuSans-61" d="M 2194 1759 
Q 1497 1759 1228 1600 
Q 959 1441 959 1056 
Q 959 750 1161 570 
Q 1363 391 1709 391 
Q 2188 391 2477 730 
Q 2766 1069 2766 1631 
L 2766 1759 
L 2194 1759 
z
M 3341 1997 
L 3341 0 
L 2766 0 
L 2766 531 
Q 2569 213 2275 61 
Q 1981 -91 1556 -91 
Q 1019 -91 701 211 
Q 384 513 384 1019 
Q 384 1609 779 1909 
Q 1175 2209 1959 2209 
L 2766 2209 
L 2766 2266 
Q 2766 2663 2505 2880 
Q 2244 3097 1772 3097 
Q 1472 3097 1187 3025 
Q 903 2953 641 2809 
L 641 3341 
Q 956 3463 1253 3523 
Q 1550 3584 1831 3584 
Q 2591 3584 2966 3190 
Q 3341 2797 3341 1997 
z
" transform="scale(0.015625)"/>
        <path id="DejaVuSans-6e" d="M 3513 2113 
L 3513 0 
L 2938 0 
L 2938 2094 
Q 2938 2591 2744 2837 
Q 2550 3084 2163 3084 
Q 1697 3084 1428 2787 
Q 1159 2491 1159 1978 
L 1159 0 
L 581 0 
L 581 3500 
L 1159 3500 
L 1159 2956 
Q 1366 3272 1645 3428 
Q 1925 3584 2291 3584 
Q 2894 3584 3203 3211 
Q 3513 2838 3513 2113 
z
" transform="scale(0.015625)"/>
       </defs>
       <use xlink:href="#DejaVuSans-4a"/>
       <use xlink:href="#DejaVuSans-61" transform="translate(29.492188 0)"/>
       <use xlink:href="#DejaVuSans-6e" transform="translate(90.771484 0)"/>
      </g>
     </g>
    </g>
    <g id="xtick_2">
     <g id="line2d_2">
      <g>
       <use xlink:href="#mee75f13115" x="80.515355" y="261.56" style="stroke: #000000; stroke-width: 0.8"/>
      </g>
     </g>
     <g id="text_2">
      <!-- Feb -->
      <g transform="translate(71.663793 276.158437) scale(0.1 -0.1)">
       <defs>
        <path id="DejaVuSans-46" d="M 628 4666 
L 3309 4666 
L 3309 4134 
L 1259 4134 
L 1259 2759 
L 3109 2759 
L 3109 2228 
L 1259 2228 
L 1259 0 
L 628 0 
L 628 4666 
z
" transform="scale(0.015625)"/>
        <path id="DejaVuSans-65" d="M 3597 1894 
L 3597 1613 
L 953 1613 
Q 991 1019 1311 708 
Q 1631 397 2203 397 
Q 2534 397 2845 478 
Q 3156 559 3463 722 
L 3463 178 
Q 3153 47 2828 -22 
Q 2503 -91 2169 -91 
Q 1331 -91 842 396 
Q 353 884 353 1716 
Q 353 2575 817 3079 
Q 1281 3584 2069 3584 
Q 2775 3584 3186 3129 
Q 3597 2675 3597 1894 
z
M 3022 2063 
Q 3016 2534 2758 2815 
Q 2500 3097 2075 3097 
Q 1594 3097 1305 2825 
Q 1016 2553 972 2059 
L 3022 2063 
z
" transform="scale(0.015625)"/>
        <path id="DejaVuSans-62" d="M 3116 1747 
Q 3116 2381 2855 2742 
Q 2594 3103 2138 3103 
Q 1681 3103 1420 2742 
Q 1159 2381 1159 1747 
Q 1159 1113 1420 752 
Q 1681 391 2138 391 
Q 2594 391 2855 752 
Q 3116 1113 3116 1747 
z
M 1159 2969 
Q 1341 3281 1617 3432 
Q 1894 3584 2278 3584 
Q 2916 3584 3314 3078 
Q 3713 2572 3713 1747 
Q 3713 922 3314 415 
Q 2916 -91 2278 -91 
Q 1894 -91 1617 61 
Q 1341 213 1159 525 
L 1159 0 
L 581 0 
L 581 4863 
L 1159 4863 
L 1159 2969 
z
" transform="scale(0.015625)"/>
       </defs>
       <use xlink:href="#DejaVuSans-46"/>
       <use xlink:href="#DejaVuSans-65" transform="translate(52.019531 0)"/>
       <use xlink:href="#DejaVuSans-62" transform="translate(113.542969 0)"/>
      </g>
     </g>
    </g>
    <g id="xtick_3">
     <g id="line2d_3">
      <g>
       <use xlink:href="#mee75f13115" x="104.19741" y="261.56" style="stroke: #000000; stroke-width: 0.8"/>
      </g>
     </g>
     <g id="text_3">
      <!-- Mar -->
      <g transform="translate(94.763816 276.158437) scale(0.1 -0.1)">
       <defs>
        <path id="DejaVuSans-4d" d="M 628 4666 
L 1569 4666 
L 2759 1491 
L 3956 4666 
L 4897 4666 
L 4897 0 
L 4281 0 
L 4281 4097 
L 3078 897 
L 2444 897 
L 1241 4097 
L 1241 0 
L 628 0 
L 628 4666 
z
" transform="scale(0.015625)"/>
        <path id="DejaVuSans-72" d="M 2631 2963 
Q 2534 3019 2420 3045 
Q 2306 3072 2169 3072 
Q 1681 3072 1420 2755 
Q 1159 2438 1159 1844 
L 1159 0 
L 581 0 
L 581 3500 
L 1159 3500 
L 1159 2956 
Q 1341 3275 1631 3429 
Q 1922 3584 2338 3584 
Q 2397 3584 2469 3576 
Q 2541 3569 2628 3553 
L 2631 2963 
z
" transform="scale(0.015625)"/>
       </defs>
       <use xlink:href="#DejaVuSans-4d"/>
       <use xlink:href="#DejaVuSans-61" transform="translate(86.279297 0)"/>
       <use xlink:href="#DejaVuSans-72" transform="translate(147.558594 0)"/>
      </g>
     </g>
    </g>
    <g id="xtick_4">
     <g id="line2d_4">
      <g>
       <use xlink:href="#mee75f13115" x="130.416828" y="261.56" style="stroke: #000000; stroke-width: 0.8"/>
      </g>
     </g>
     <g id="text_4">
      <!-- Apr -->
      <g transform="translate(121.766828 276.158437) scale(0.1 -0.1)">
       <defs>
        <path id="DejaVuSans-41" d="M 2188 4044 
L 1331 1722 
L 3047 1722 
L 2188 4044 
z
M 1831 4666 
L 2547 4666 
L 4325 0 
L 3669 0 
L 3244 1197 
L 1141 1197 
L 716 0 
L 50 0 
L 1831 4666 
z
" transform="scale(0.015625)"/>
        <path id="DejaVuSans-70" d="M 1159 525 
L 1159 -1331 
L 581 -1331 
L 581 3500 
L 1159 3500 
L 1159 2969 
Q 1341 3281 1617 3432 
Q 1894 3584 2278 3584 
Q 2916 3584 3314 3078 
Q 3713 2572 3713 1747 
Q 3713 922 3314 415 
Q 2916 -91 2278 -91 
Q 1894 -91 1617 61 
Q 1341 213 1159 525 
z
M 3116 1747 
Q 3116 2381 2855 2742 
Q 2594 3103 2138 3103 
Q 1681 3103 1420 2742 
Q 1159 2381 1159 1747 
Q 1159 1113 1420 752 
Q 1681 391 2138 391 
Q 2594 391 2855 752 
Q 3116 1113 3116 1747 
z
" transform="scale(0.015625)"/>
       </defs>
       <use xlink:href="#DejaVuSans-41"/>
       <use xlink:href="#DejaVuSans-70" transform="translate(68.408203 0)"/>
       <use xlink:href="#DejaVuSans-72" transform="translate(131.884766 0)"/>
      </g>
     </g>
    </g>
    <g id="xtick_5">
     <g id="line2d_5">
      <g>
       <use xlink:href="#mee75f13115" x="155.790458" y="261.56" style="stroke: #000000; stroke-width: 0.8"/>
      </g>
     </g>
     <g id="text_5">
      <!-- May -->
      <g transform="translate(145.452958 276.158437) scale(0.1 -0.1)">
       <defs>
        <path id="DejaVuSans-79" d="M 2059 -325 
Q 1816 -950 1584 -1140 
Q 1353 -1331 966 -1331 
L 506 -1331 
L 506 -850 
L 844 -850 
Q 1081 -850 1212 -737 
Q 1344 -625 1503 -206 
L 1606 56 
L 191 3500 
L 800 3500 
L 1894 763 
L 2988 3500 
L 3597 3500 
L 2059 -325 
z
" transform="scale(0.015625)"/>
       </defs>
       <use xlink:href="#DejaVuSans-4d"/>
       <use xlink:href="#DejaVuSans-61" transform="translate(86.279297 0)"/>
       <use xlink:href="#DejaVuSans-79" transform="translate(147.558594 0)"/>
      </g>
     </g>
    </g>
    <g id="xtick_6">
     <g id="line2d_6">
      <g>
       <use xlink:href="#mee75f13115" x="182.009876" y="261.56" style="stroke: #000000; stroke-width: 0.8"/>
      </g>
     </g>
     <g id="text_6">
      <!-- Jun -->
      <g transform="translate(174.197376 276.158437) scale(0.1 -0.1)">
       <defs>
        <path id="DejaVuSans-75" d="M 544 1381 
L 544 3500 
L 1119 3500 
L 1119 1403 
Q 1119 906 1312 657 
Q 1506 409 1894 409 
Q 2359 409 2629 706 
Q 2900 1003 2900 1516 
L 2900 3500 
L 3475 3500 
L 3475 0 
L 2900 0 
L 2900 538 
Q 2691 219 2414 64 
Q 2138 -91 1772 -91 
Q 1169 -91 856 284 
Q 544 659 544 1381 
z
M 1991 3584 
L 1991 3584 
z
" transform="scale(0.015625)"/>
       </defs>
       <use xlink:href="#DejaVuSans-4a"/>
       <use xlink:href="#DejaVuSans-75" transform="translate(29.492188 0)"/>
       <use xlink:href="#DejaVuSans-6e" transform="translate(92.871094 0)"/>
      </g>
     </g>
    </g>
    <g id="xtick_7">
     <g id="line2d_7">
      <g>
       <use xlink:href="#mee75f13115" x="207.383506" y="261.56" style="stroke: #000000; stroke-width: 0.8"/>
      </g>
     </g>
     <g id="text_7">
      <!-- Jul -->
      <g transform="translate(201.350693 276.158437) scale(0.1 -0.1)">
       <defs>
        <path id="DejaVuSans-6c" d="M 603 4863 
L 1178 4863 
L 1178 0 
L 603 0 
L 603 4863 
z
" transform="scale(0.015625)"/>
       </defs>
       <use xlink:href="#DejaVuSans-4a"/>
       <use xlink:href="#DejaVuSans-75" transform="translate(29.492188 0)"/>
       <use xlink:href="#DejaVuSans-6c" transform="translate(92.871094 0)"/>
      </g>
     </g>
    </g>
    <g id="xtick_8">
     <g id="line2d_8">
      <g>
       <use xlink:href="#mee75f13115" x="233.602924" y="261.56" style="stroke: #000000; stroke-width: 0.8"/>
      </g>
     </g>
     <g id="text_8">
      <!-- Aug -->
      <g transform="translate(223.839643 276.158437) scale(0.1 -0.1)">
       <defs>
        <path id="DejaVuSans-67" d="M 2906 1791 
Q 2906 2416 2648 2759 
Q 2391 3103 1925 3103 
Q 1463 3103 1205 2759 
Q 947 2416 947 1791 
Q 947 1169 1205 825 
Q 1463 481 1925 481 
Q 2391 481 2648 825 
Q 2906 1169 2906 1791 
z
M 3481 434 
Q 3481 -459 3084 -895 
Q 2688 -1331 1869 -1331 
Q 1566 -1331 1297 -1286 
Q 1028 -1241 775 -1147 
L 775 -588 
Q 1028 -725 1275 -790 
Q 1522 -856 1778 -856 
Q 2344 -856 2625 -561 
Q 2906 -266 2906 331 
L 2906 616 
Q 2728 306 2450 153 
Q 2172 0 1784 0 
Q 1141 0 747 490 
Q 353 981 353 1791 
Q 353 2603 747 3093 
Q 1141 3584 1784 3584 
Q 2172 3584 2450 3431 
Q 2728 3278 2906 2969 
L 2906 3500 
L 3481 3500 
L 3481 434 
z
" transform="scale(0.015625)"/>
       </defs>
       <use xlink:href="#DejaVuSans-41"/>
       <use xlink:href="#DejaVuSans-75" transform="translate(68.408203 0)"/>
       <use xlink:href="#DejaVuSans-67" transform="translate(131.787109 0)"/>
      </g>
     </g>
    </g>
    <g id="xtick_9">
     <g id="line2d_9">
      <g>
       <use xlink:href="#mee75f13115" x="259.822342" y="261.56" style="stroke: #000000; stroke-width: 0.8"/>
      </g>
     </g>
     <g id="text_9">
      <!-- Sep -->
      <g transform="translate(250.397342 276.158437) scale(0.1 -0.1)">
       <defs>
        <path id="DejaVuSans-53" d="M 3425 4513 
L 3425 3897 
Q 3066 4069 2747 4153 
Q 2428 4238 2131 4238 
Q 1616 4238 1336 4038 
Q 1056 3838 1056 3469 
Q 1056 3159 1242 3001 
Q 1428 2844 1947 2747 
L 2328 2669 
Q 3034 2534 3370 2195 
Q 3706 1856 3706 1288 
Q 3706 609 3251 259 
Q 2797 -91 1919 -91 
Q 1588 -91 1214 -16 
Q 841 59 441 206 
L 441 856 
Q 825 641 1194 531 
Q 1563 422 1919 422 
Q 2459 422 2753 634 
Q 3047 847 3047 1241 
Q 3047 1584 2836 1778 
Q 2625 1972 2144 2069 
L 1759 2144 
Q 1053 2284 737 2584 
Q 422 2884 422 3419 
Q 422 4038 858 4394 
Q 1294 4750 2059 4750 
Q 2388 4750 2728 4690 
Q 3069 4631 3425 4513 
z
" transform="scale(0.015625)"/>
       </defs>
       <use xlink:href="#DejaVuSans-53"/>
       <use xlink:href="#DejaVuSans-65" transform="translate(63.476562 0)"/>
       <use xlink:href="#DejaVuSans-70" transform="translate(125 0)"/>
      </g>
     </g>
    </g>
    <g id="xtick_10">
     <g id="line2d_10">
      <g>
       <use xlink:href="#mee75f13115" x="285.195972" y="261.56" style="stroke: #000000; stroke-width: 0.8"/>
      </g>
     </g>
     <g id="text_10">
      <!-- Oct -->
      <g transform="translate(276.550659 276.158437) scale(0.1 -0.1)">
       <defs>
        <path id="DejaVuSans-4f" d="M 2522 4238 
Q 1834 4238 1429 3725 
Q 1025 3213 1025 2328 
Q 1025 1447 1429 934 
Q 1834 422 2522 422 
Q 3209 422 3611 934 
Q 4013 1447 4013 2328 
Q 4013 3213 3611 3725 
Q 3209 4238 2522 4238 
z
M 2522 4750 
Q 3503 4750 4090 4092 
Q 4678 3434 4678 2328 
Q 4678 1225 4090 567 
Q 3503 -91 2522 -91 
Q 1538 -91 948 565 
Q 359 1222 359 2328 
Q 359 3434 948 4092 
Q 1538 4750 2522 4750 
z
" transform="scale(0.015625)"/>
        <path id="DejaVuSans-63" d="M 3122 3366 
L 3122 2828 
Q 2878 2963 2633 3030 
Q 2388 3097 2138 3097 
Q 1578 3097 1268 2742 
Q 959 2388 959 1747 
Q 959 1106 1268 751 
Q 1578 397 2138 397 
Q 2388 397 2633 464 
Q 2878 531 3122 666 
L 3122 134 
Q 2881 22 2623 -34 
Q 2366 -91 2075 -91 
Q 1284 -91 818 406 
Q 353 903 353 1747 
Q 353 2603 823 3093 
Q 1294 3584 2113 3584 
Q 2378 3584 2631 3529 
Q 2884 3475 3122 3366 
z
" transform="scale(0.015625)"/>
        <path id="DejaVuSans-74" d="M 1172 4494 
L 1172 3500 
L 2356 3500 
L 2356 3053 
L 1172 3053 
L 1172 1153 
Q 1172 725 1289 603 
Q 1406 481 1766 481 
L 2356 481 
L 2356 0 
L 1766 0 
Q 1100 0 847 248 
Q 594 497 594 1153 
L 594 3053 
L 172 3053 
L 172 3500 
L 594 3500 
L 594 4494 
L 1172 4494 
z
" transform="scale(0.015625)"/>
       </defs>
       <use xlink:href="#DejaVuSans-4f"/>
       <use xlink:href="#DejaVuSans-63" transform="translate(78.710938 0)"/>
       <use xlink:href="#DejaVuSans-74" transform="translate(133.691406 0)"/>
      </g>
     </g>
    </g>
    <g id="xtick_11">
     <g id="line2d_11">
      <g>
       <use xlink:href="#mee75f13115" x="311.41539" y="261.56" style="stroke: #000000; stroke-width: 0.8"/>
      </g>
     </g>
     <g id="text_11">
      <!-- Nov -->
      <g transform="translate(301.656015 276.158437) scale(0.1 -0.1)">
       <defs>
        <path id="DejaVuSans-4e" d="M 628 4666 
L 1478 4666 
L 3547 763 
L 3547 4666 
L 4159 4666 
L 4159 0 
L 3309 0 
L 1241 3903 
L 1241 0 
L 628 0 
L 628 4666 
z
" transform="scale(0.015625)"/>
        <path id="DejaVuSans-6f" d="M 1959 3097 
Q 1497 3097 1228 2736 
Q 959 2375 959 1747 
Q 959 1119 1226 758 
Q 1494 397 1959 397 
Q 2419 397 2687 759 
Q 2956 1122 2956 1747 
Q 2956 2369 2687 2733 
Q 2419 3097 1959 3097 
z
M 1959 3584 
Q 2709 3584 3137 3096 
Q 3566 2609 3566 1747 
Q 3566 888 3137 398 
Q 2709 -91 1959 -91 
Q 1206 -91 779 398 
Q 353 888 353 1747 
Q 353 2609 779 3096 
Q 1206 3584 1959 3584 
z
" transform="scale(0.015625)"/>
        <path id="DejaVuSans-76" d="M 191 3500 
L 800 3500 
L 1894 563 
L 2988 3500 
L 3597 3500 
L 2284 0 
L 1503 0 
L 191 3500 
z
" transform="scale(0.015625)"/>
       </defs>
       <use xlink:href="#DejaVuSans-4e"/>
       <use xlink:href="#DejaVuSans-6f" transform="translate(74.804688 0)"/>
       <use xlink:href="#DejaVuSans-76" transform="translate(135.986328 0)"/>
      </g>
     </g>
    </g>
    <g id="xtick_12">
     <g id="line2d_12">
      <g>
       <use xlink:href="#mee75f13115" x="336.78902" y="261.56" style="stroke: #000000; stroke-width: 0.8"/>
      </g>
     </g>
     <g id="text_12">
      <!-- Dec -->
      <g transform="translate(327.113238 276.158437) scale(0.1 -0.1)">
       <defs>
        <path id="DejaVuSans-44" d="M 1259 4147 
L 1259 519 
L 2022 519 
Q 2988 519 3436 956 
Q 3884 1394 3884 2338 
Q 3884 3275 3436 3711 
Q 2988 4147 2022 4147 
L 1259 4147 
z
M 628 4666 
L 1925 4666 
Q 3281 4666 3915 4102 
Q 4550 3538 4550 2338 
Q 4550 1131 3912 565 
Q 3275 0 1925 0 
L 628 0 
L 628 4666 
z
" transform="scale(0.015625)"/>
       </defs>
       <use xlink:href="#DejaVuSans-44"/>
       <use xlink:href="#DejaVuSans-65" transform="translate(77.001953 0)"/>
       <use xlink:href="#DejaVuSans-63" transform="translate(138.525391 0)"/>
      </g>
     </g>
    </g>
    <g id="xtick_13">
     <g id="line2d_13">
      <g>
       <use xlink:href="#mee75f13115" x="363.008438" y="261.56" style="stroke: #000000; stroke-width: 0.8"/>
      </g>
     </g>
     <g id="text_13">
      <!-- Jan -->
      <g transform="translate(355.300625 276.158437) scale(0.1 -0.1)">
       <use xlink:href="#DejaVuSans-4a"/>
       <use xlink:href="#DejaVuSans-61" transform="translate(29.492188 0)"/>
       <use xlink:href="#DejaVuSans-6e" transform="translate(90.771484 0)"/>
      </g>
     </g>
    </g>
   </g>
   <g id="matplotlib.axis_2">
    <g id="ytick_1">
     <g id="line2d_14">
      <path d="M 54.295938 239.459916 
L 363.008438 239.459916 
" clip-path="url(#pf13bf7ec42)" style="fill: none; stroke-dasharray: 2.96,1.28; stroke-dashoffset: 0; stroke: #b0b0b0; stroke-opacity: 0.3; stroke-width: 0.8"/>
     </g>
     <g id="line2d_15">
      <defs>
       <path id="mfe4de64550" d="M 0 0 
L -3.5 0 
" style="stroke: #000000; stroke-width: 0.8"/>
      </defs>
      <g>
       <use xlink:href="#mfe4de64550" x="54.295938" y="239.459916" style="stroke: #000000; stroke-width: 0.8"/>
      </g>
     </g>
     <g id="text_14">
      <!-- 1000 -->
      <g transform="translate(21.845938 243.259134) scale(0.1 -0.1)">
       <defs>
        <path id="DejaVuSans-31" d="M 794 531 
L 1825 531 
L 1825 4091 
L 703 3866 
L 703 4441 
L 1819 4666 
L 2450 4666 
L 2450 531 
L 3481 531 
L 3481 0 
L 794 0 
L 794 531 
z
" transform="scale(0.015625)"/>
        <path id="DejaVuSans-30" d="M 2034 4250 
Q 1547 4250 1301 3770 
Q 1056 3291 1056 2328 
Q 1056 1369 1301 889 
Q 1547 409 2034 409 
Q 2525 409 2770 889 
Q 3016 1369 3016 2328 
Q 3016 3291 2770 3770 
Q 2525 4250 2034 4250 
z
M 2034 4750 
Q 2819 4750 3233 4129 
Q 3647 3509 3647 2328 
Q 3647 1150 3233 529 
Q 2819 -91 2034 -91 
Q 1250 -91 836 529 
Q 422 1150 422 2328 
Q 422 3509 836 4129 
Q 1250 4750 2034 4750 
z
" transform="scale(0.015625)"/>
       </defs>
       <use xlink:href="#DejaVuSans-31"/>
       <use xlink:href="#DejaVuSans-30" transform="translate(63.623047 0)"/>
       <use xlink:href="#DejaVuSans-30" transform="translate(127.246094 0)"/>
       <use xlink:href="#DejaVuSans-30" transform="translate(190.869141 0)"/>
      </g>
     </g>
    </g>
    <g id="ytick_2">
     <g id="line2d_16">
      <path d="M 54.295938 212.460026 
L 363.008438 212.460026 
" clip-path="url(#pf13bf7ec42)" style="fill: none; stroke-dasharray: 2.96,1.28; stroke-dashoffset: 0; stroke: #b0b0b0; stroke-opacity: 0.3; stroke-width: 0.8"/>
     </g>
     <g id="line2d_17">
      <g>
       <use xlink:href="#mfe4de64550" x="54.295938" y="212.460026" style="stroke: #000000; stroke-width: 0.8"/>
      </g>
     </g>
     <g id="text_15">
      <!-- 2000 -->
      <g transform="translate(21.845938 216.259245) scale(0.1 -0.1)">
       <defs>
        <path id="DejaVuSans-32" d="M 1228 531 
L 3431 531 
L 3431 0 
L 469 0 
L 469 531 
Q 828 903 1448 1529 
Q 2069 2156 2228 2338 
Q 2531 2678 2651 2914 
Q 2772 3150 2772 3378 
Q 2772 3750 2511 3984 
Q 2250 4219 1831 4219 
Q 1534 4219 1204 4116 
Q 875 4013 500 3803 
L 500 4441 
Q 881 4594 1212 4672 
Q 1544 4750 1819 4750 
Q 2544 4750 2975 4387 
Q 3406 4025 3406 3419 
Q 3406 3131 3298 2873 
Q 3191 2616 2906 2266 
Q 2828 2175 2409 1742 
Q 1991 1309 1228 531 
z
" transform="scale(0.015625)"/>
       </defs>
       <use xlink:href="#DejaVuSans-32"/>
       <use xlink:href="#DejaVuSans-30" transform="translate(63.623047 0)"/>
       <use xlink:href="#DejaVuSans-30" transform="translate(127.246094 0)"/>
       <use xlink:href="#DejaVuSans-30" transform="translate(190.869141 0)"/>
      </g>
     </g>
    </g>
    <g id="ytick_3">
     <g id="line2d_18">
      <path d="M 54.295938 185.460137 
L 363.008438 185.460137 
" clip-path="url(#pf13bf7ec42)" style="fill: none; stroke-dasharray: 2.96,1.28; stroke-dashoffset: 0; stroke: #b0b0b0; stroke-opacity: 0.3; stroke-width: 0.8"/>
     </g>
     <g id="line2d_19">
      <g>
       <use xlink:href="#mfe4de64550" x="54.295938" y="185.460137" style="stroke: #000000; stroke-width: 0.8"/>
      </g>
     </g>
     <g id="text_16">
      <!-- 3000 -->
      <g transform="translate(21.845938 189.259356) scale(0.1 -0.1)">
       <defs>
        <path id="DejaVuSans-33" d="M 2597 2516 
Q 3050 2419 3304 2112 
Q 3559 1806 3559 1356 
Q 3559 666 3084 287 
Q 2609 -91 1734 -91 
Q 1441 -91 1130 -33 
Q 819 25 488 141 
L 488 750 
Q 750 597 1062 519 
Q 1375 441 1716 441 
Q 2309 441 2620 675 
Q 2931 909 2931 1356 
Q 2931 1769 2642 2001 
Q 2353 2234 1838 2234 
L 1294 2234 
L 1294 2753 
L 1863 2753 
Q 2328 2753 2575 2939 
Q 2822 3125 2822 3475 
Q 2822 3834 2567 4026 
Q 2313 4219 1838 4219 
Q 1578 4219 1281 4162 
Q 984 4106 628 3988 
L 628 4550 
Q 988 4650 1302 4700 
Q 1616 4750 1894 4750 
Q 2613 4750 3031 4423 
Q 3450 4097 3450 3541 
Q 3450 3153 3228 2886 
Q 3006 2619 2597 2516 
z
" transform="scale(0.015625)"/>
       </defs>
       <use xlink:href="#DejaVuSans-33"/>
       <use xlink:href="#DejaVuSans-30" transform="translate(63.623047 0)"/>
       <use xlink:href="#DejaVuSans-30" transform="translate(127.246094 0)"/>
       <use xlink:href="#DejaVuSans-30" transform="translate(190.869141 0)"/>
      </g>
     </g>
    </g>
    <g id="ytick_4">
     <g id="line2d_20">
      <path d="M 54.295938 158.460248 
L 363.008438 158.460248 
" clip-path="url(#pf13bf7ec42)" style="fill: none; stroke-dasharray: 2.96,1.28; stroke-dashoffset: 0; stroke: #b0b0b0; stroke-opacity: 0.3; stroke-width: 0.8"/>
     </g>
     <g id="line2d_21">
      <g>
       <use xlink:href="#mfe4de64550" x="54.295938" y="158.460248" style="stroke: #000000; stroke-width: 0.8"/>
      </g>
     </g>
     <g id="text_17">
      <!-- 4000 -->
      <g transform="translate(21.845938 162.259466) scale(0.1 -0.1)">
       <defs>
        <path id="DejaVuSans-34" d="M 2419 4116 
L 825 1625 
L 2419 1625 
L 2419 4116 
z
M 2253 4666 
L 3047 4666 
L 3047 1625 
L 3713 1625 
L 3713 1100 
L 3047 1100 
L 3047 0 
L 2419 0 
L 2419 1100 
L 313 1100 
L 313 1709 
L 2253 4666 
z
" transform="scale(0.015625)"/>
       </defs>
       <use xlink:href="#DejaVuSans-34"/>
       <use xlink:href="#DejaVuSans-30" transform="translate(63.623047 0)"/>
       <use xlink:href="#DejaVuSans-30" transform="translate(127.246094 0)"/>
       <use xlink:href="#DejaVuSans-30" transform="translate(190.869141 0)"/>
      </g>
     </g>
    </g>
    <g id="ytick_5">
     <g id="line2d_22">
      <path d="M 54.295938 131.460358 
L 363.008438 131.460358 
" clip-path="url(#pf13bf7ec42)" style="fill: none; stroke-dasharray: 2.96,1.28; stroke-dashoffset: 0; stroke: #b0b0b0; stroke-opacity: 0.3; stroke-width: 0.8"/>
     </g>
     <g id="line2d_23">
      <g>
       <use xlink:href="#mfe4de64550" x="54.295938" y="131.460358" style="stroke: #000000; stroke-width: 0.8"/>
      </g>
     </g>
     <g id="text_18">
      <!-- 5000 -->
      <g transform="translate(21.845938 135.259577) scale(0.1 -0.1)">
       <defs>
        <path id="DejaVuSans-35" d="M 691 4666 
L 3169 4666 
L 3169 4134 
L 1269 4134 
L 1269 2991 
Q 1406 3038 1543 3061 
Q 1681 3084 1819 3084 
Q 2600 3084 3056 2656 
Q 3513 2228 3513 1497 
Q 3513 744 3044 326 
Q 2575 -91 1722 -91 
Q 1428 -91 1123 -41 
Q 819 9 494 109 
L 494 744 
Q 775 591 1075 516 
Q 1375 441 1709 441 
Q 2250 441 2565 725 
Q 2881 1009 2881 1497 
Q 2881 1984 2565 2268 
Q 2250 2553 1709 2553 
Q 1456 2553 1204 2497 
Q 953 2441 691 2322 
L 691 4666 
z
" transform="scale(0.015625)"/>
       </defs>
       <use xlink:href="#DejaVuSans-35"/>
       <use xlink:href="#DejaVuSans-30" transform="translate(63.623047 0)"/>
       <use xlink:href="#DejaVuSans-30" transform="translate(127.246094 0)"/>
       <use xlink:href="#DejaVuSans-30" transform="translate(190.869141 0)"/>
      </g>
     </g>
    </g>
    <g id="ytick_6">
     <g id="line2d_24">
      <path d="M 54.295938 104.460469 
L 363.008438 104.460469 
" clip-path="url(#pf13bf7ec42)" style="fill: none; stroke-dasharray: 2.96,1.28; stroke-dashoffset: 0; stroke: #b0b0b0; stroke-opacity: 0.3; stroke-width: 0.8"/>
     </g>
     <g id="line2d_25">
      <g>
       <use xlink:href="#mfe4de64550" x="54.295938" y="104.460469" style="stroke: #000000; stroke-width: 0.8"/>
      </g>
     </g>
     <g id="text_19">
      <!-- 6000 -->
      <g transform="translate(21.845938 108.259688) scale(0.1 -0.1)">
       <defs>
        <path id="DejaVuSans-36" d="M 2113 2584 
Q 1688 2584 1439 2293 
Q 1191 2003 1191 1497 
Q 1191 994 1439 701 
Q 1688 409 2113 409 
Q 2538 409 2786 701 
Q 3034 994 3034 1497 
Q 3034 2003 2786 2293 
Q 2538 2584 2113 2584 
z
M 3366 4563 
L 3366 3988 
Q 3128 4100 2886 4159 
Q 2644 4219 2406 4219 
Q 1781 4219 1451 3797 
Q 1122 3375 1075 2522 
Q 1259 2794 1537 2939 
Q 1816 3084 2150 3084 
Q 2853 3084 3261 2657 
Q 3669 2231 3669 1497 
Q 3669 778 3244 343 
Q 2819 -91 2113 -91 
Q 1303 -91 875 529 
Q 447 1150 447 2328 
Q 447 3434 972 4092 
Q 1497 4750 2381 4750 
Q 2619 4750 2861 4703 
Q 3103 4656 3366 4563 
z
" transform="scale(0.015625)"/>
       </defs>
       <use xlink:href="#DejaVuSans-36"/>
       <use xlink:href="#DejaVuSans-30" transform="translate(63.623047 0)"/>
       <use xlink:href="#DejaVuSans-30" transform="translate(127.246094 0)"/>
       <use xlink:href="#DejaVuSans-30" transform="translate(190.869141 0)"/>
      </g>
     </g>
    </g>
    <g id="ytick_7">
     <g id="line2d_26">
      <path d="M 54.295938 77.46058 
L 363.008438 77.46058 
" clip-path="url(#pf13bf7ec42)" style="fill: none; stroke-dasharray: 2.96,1.28; stroke-dashoffset: 0; stroke: #b0b0b0; stroke-opacity: 0.3; stroke-width: 0.8"/>
     </g>
     <g id="line2d_27">
      <g>
       <use xlink:href="#mfe4de64550" x="54.295938" y="77.46058" style="stroke: #000000; stroke-width: 0.8"/>
      </g>
     </g>
     <g id="text_20">
      <!-- 7000 -->
      <g transform="translate(21.845938 81.259799) scale(0.1 -0.1)">
       <defs>
        <path id="DejaVuSans-37" d="M 525 4666 
L 3525 4666 
L 3525 4397 
L 1831 0 
L 1172 0 
L 2766 4134 
L 525 4134 
L 525 4666 
z
" transform="scale(0.015625)"/>
       </defs>
       <use xlink:href="#DejaVuSans-37"/>
       <use xlink:href="#DejaVuSans-30" transform="translate(63.623047 0)"/>
       <use xlink:href="#DejaVuSans-30" transform="translate(127.246094 0)"/>
       <use xlink:href="#DejaVuSans-30" transform="translate(190.869141 0)"/>
      </g>
     </g>
    </g>
    <g id="text_21">
     <!-- Daily pedestrian count -->
     <g transform="translate(15.558281 220.247656) rotate(-90) scale(0.11 -0.11)">
      <defs>
       <path id="DejaVuSans-69" d="M 603 3500 
L 1178 3500 
L 1178 0 
L 603 0 
L 603 3500 
z
M 603 4863 
L 1178 4863 
L 1178 4134 
L 603 4134 
L 603 4863 
z
" transform="scale(0.015625)"/>
       <path id="DejaVuSans-20" transform="scale(0.015625)"/>
       <path id="DejaVuSans-64" d="M 2906 2969 
L 2906 4863 
L 3481 4863 
L 3481 0 
L 2906 0 
L 2906 525 
Q 2725 213 2448 61 
Q 2172 -91 1784 -91 
Q 1150 -91 751 415 
Q 353 922 353 1747 
Q 353 2572 751 3078 
Q 1150 3584 1784 3584 
Q 2172 3584 2448 3432 
Q 2725 3281 2906 2969 
z
M 947 1747 
Q 947 1113 1208 752 
Q 1469 391 1925 391 
Q 2381 391 2643 752 
Q 2906 1113 2906 1747 
Q 2906 2381 2643 2742 
Q 2381 3103 1925 3103 
Q 1469 3103 1208 2742 
Q 947 2381 947 1747 
z
" transform="scale(0.015625)"/>
       <path id="DejaVuSans-73" d="M 2834 3397 
L 2834 2853 
Q 2591 2978 2328 3040 
Q 2066 3103 1784 3103 
Q 1356 3103 1142 2972 
Q 928 2841 928 2578 
Q 928 2378 1081 2264 
Q 1234 2150 1697 2047 
L 1894 2003 
Q 2506 1872 2764 1633 
Q 3022 1394 3022 966 
Q 3022 478 2636 193 
Q 2250 -91 1575 -91 
Q 1294 -91 989 -36 
Q 684 19 347 128 
L 347 722 
Q 666 556 975 473 
Q 1284 391 1588 391 
Q 1994 391 2212 530 
Q 2431 669 2431 922 
Q 2431 1156 2273 1281 
Q 2116 1406 1581 1522 
L 1381 1569 
Q 847 1681 609 1914 
Q 372 2147 372 2553 
Q 372 3047 722 3315 
Q 1072 3584 1716 3584 
Q 2034 3584 2315 3537 
Q 2597 3491 2834 3397 
z
" transform="scale(0.015625)"/>
      </defs>
      <use xlink:href="#DejaVuSans-44"/>
      <use xlink:href="#DejaVuSans-61" transform="translate(77.001953 0)"/>
      <use xlink:href="#DejaVuSans-69" transform="translate(138.28125 0)"/>
      <use xlink:href="#DejaVuSans-6c" transform="translate(166.064453 0)"/>
      <use xlink:href="#DejaVuSans-79" transform="translate(193.847656 0)"/>
      <use xlink:href="#DejaVuSans-20" transform="translate(253.027344 0)"/>
      <use xlink:href="#DejaVuSans-70" transform="translate(284.814453 0)"/>
      <use xlink:href="#DejaVuSans-65" transform="translate(348.291016 0)"/>
      <use xlink:href="#DejaVuSans-64" transform="translate(409.814453 0)"/>
      <use xlink:href="#DejaVuSans-65" transform="translate(473.291016 0)"/>
      <use xlink:href="#DejaVuSans-73" transform="translate(534.814453 0)"/>
      <use xlink:href="#DejaVuSans-74" transform="translate(586.914062 0)"/>
      <use xlink:href="#DejaVuSans-72" transform="translate(626.123047 0)"/>
      <use xlink:href="#DejaVuSans-69" transform="translate(667.236328 0)"/>
      <use xlink:href="#DejaVuSans-61" transform="translate(695.019531 0)"/>
      <use xlink:href="#DejaVuSans-6e" transform="translate(756.298828 0)"/>
      <use xlink:href="#DejaVuSans-20" transform="translate(819.677734 0)"/>
      <use xlink:href="#DejaVuSans-63" transform="translate(851.464844 0)"/>
      <use xlink:href="#DejaVuSans-6f" transform="translate(906.445312 0)"/>
      <use xlink:href="#DejaVuSans-75" transform="translate(967.626953 0)"/>
      <use xlink:href="#DejaVuSans-6e" transform="translate(1031.005859 0)"/>
      <use xlink:href="#DejaVuSans-74" transform="translate(1094.384766 0)"/>
     </g>
    </g>
   </g>
   <g id="line2d_28">
    <path d="M 55.141725 184.191142 
L 55.987513 187.741628 
L 56.833301 185.811136 
L 57.679088 187.660628 
L 60.216451 179.125963 
L 61.062239 172.48219 
L 61.908027 169.68063 
L 62.753814 165.476844 
L 63.599602 162.420231 
L 66.136965 159.564543 
L 68.674328 142.160415 
L 69.520116 134.943344 
L 72.057479 132.310855 
L 72.903266 129.637866 
L 73.749054 126.562578 
L 74.594842 123.946289 
L 75.440629 125.185584 
L 77.977992 135.820841 
L 80.515355 130.399263 
L 81.361143 129.924065 
L 83.898506 131.770857 
L 84.744294 131.452258 
L 85.590081 130.053664 
L 86.435869 129.243667 
L 87.281657 126.041481 
L 89.81902 113.97793 
L 90.664807 113.872631 
L 91.510595 113.127434 
L 92.356383 111.882739 
L 93.20217 111.358941 
L 95.739533 109.306949 
L 96.585321 108.847951 
L 97.431109 108.791251 
L 98.276896 109.16385 
L 99.122684 110.111546 
L 101.660047 108.445653 
L 102.505835 108.650852 
L 103.351622 108.475353 
L 104.19741 109.333949 
L 105.043198 109.339349 
L 107.580561 108.626552 
L 109.272136 109.976546 
L 110.117924 109.900947 
L 110.963711 109.541848 
L 113.501074 121.967197 
L 114.346862 124.173088 
L 115.19265 125.215284 
L 116.038438 125.663482 
L 116.884225 125.080285 
L 119.421588 125.344883 
L 121.958951 128.428271 
L 122.804739 126.813677 
L 125.342102 115.757223 
L 126.18789 113.386633 
L 127.879465 111.958338 
L 128.725253 112.916834 
L 131.262616 112.911434 
L 132.954191 107.171258 
L 133.799979 103.998771 
L 134.645766 102.754076 
L 138.028917 100.804684 
L 138.874705 100.723684 
L 139.720492 100.845184 
L 140.56628 100.029787 
L 143.103643 99.622089 
L 143.949431 100.696685 
L 144.795218 101.179983 
L 145.641006 104.938367 
L 146.486794 116.048822 
L 149.869944 134.692245 
L 150.715732 137.889032 
L 151.56152 151.820975 
L 152.407307 155.852058 
L 154.94467 155.978958 
L 155.790458 155.117661 
L 156.636246 155.260761 
L 157.482033 153.991766 
L 158.327821 142.284614 
L 160.865184 127.496775 
L 161.710972 121.629699 
L 162.556759 117.579715 
L 163.402547 102.457077 
L 164.248335 100.113487 
L 166.785698 99.25759 
L 167.631485 98.679793 
L 168.477273 98.820192 
L 169.323061 97.200199 
L 170.168848 98.355794 
L 172.706211 98.517793 
L 173.551999 99.46549 
L 174.397787 95.569406 
L 175.243574 95.483006 
L 176.089362 94.281511 
L 180.318301 96.471202 
L 181.164088 97.343298 
L 182.009876 97.624097 
L 184.547239 101.312282 
L 185.393027 101.503981 
L 186.238814 105.335266 
L 187.084602 105.705164 
L 187.93039 104.957267 
L 190.467753 117.069417 
L 191.31354 117.139617 
L 192.159328 117.944214 
L 193.005116 117.037018 
L 193.850903 115.506124 
L 196.388266 111.917839 
L 197.234054 111.866539 
L 198.079842 112.206737 
L 198.925629 113.554032 
L 199.771417 113.743031 
L 202.30878 100.159387 
L 203.154568 100.191787 
L 204.000355 97.858996 
L 204.846143 96.671001 
L 205.691931 92.307819 
L 209.920869 91.781321 
L 210.766657 90.679726 
L 211.612444 90.444827 
L 214.149807 91.99192 
L 214.995595 92.15122 
L 215.841383 93.846813 
L 216.68717 96.201203 
L 217.532958 104.13377 
L 220.070321 104.943767 
L 220.916109 104.754768 
L 221.761896 104.862767 
L 222.607684 103.318374 
L 223.453472 102.953875 
L 225.990835 100.499585 
L 226.836622 100.396986 
L 227.68241 98.234295 
L 228.528198 96.527902 
L 229.373985 95.094208 
L 231.911348 94.160011 
L 232.757136 93.968312 
L 233.602924 93.125916 
L 234.448711 94.689209 
L 235.294499 92.445518 
L 237.831862 93.107016 
L 238.67765 91.711121 
L 239.523438 92.372619 
L 240.369225 93.304115 
L 241.215013 93.900812 
L 244.598164 95.801605 
L 245.443951 95.577506 
L 246.289739 94.39221 
L 247.135527 96.8384 
L 249.67289 96.746601 
L 250.518677 97.553897 
L 251.364465 96.9518 
L 252.210253 92.764117 
L 253.05604 89.904829 
L 255.593403 89.092132 
L 256.439191 89.205532 
L 257.284979 91.252123 
L 258.130766 91.762421 
L 258.976554 94.37601 
L 261.513917 95.005108 
L 262.359705 95.067208 
L 263.205492 95.294007 
L 264.05128 98.933592 
L 264.897068 100.183687 
L 268.280218 101.215082 
L 269.126006 100.685885 
L 269.971794 102.424677 
L 270.817581 100.583285 
L 273.354944 101.971079 
L 275.892307 107.149658 
L 276.738095 108.577952 
L 279.275458 107.994755 
L 280.121246 108.075754 
L 280.967033 108.883051 
L 281.812821 106.922859 
L 282.658609 117.339416 
L 285.195972 118.94861 
L 286.041759 117.776815 
L 286.887547 115.527724 
L 287.733335 115.646523 
L 288.579122 115.206425 
L 291.962273 117.963114 
L 292.808061 117.633715 
L 293.653848 120.609103 
L 294.499636 110.751443 
L 297.036999 108.791251 
L 299.574362 111.47234 
L 300.42015 111.52904 
L 302.957513 110.692044 
L 303.803301 110.584044 
L 305.494876 107.538456 
L 306.340664 108.421353 
L 308.878027 107.932655 
L 309.723814 107.198258 
L 310.569602 107.916455 
L 311.41539 106.517861 
L 312.261177 107.948855 
L 314.79854 111.65324 
L 315.644328 124.016489 
L 316.490116 127.410375 
L 317.335903 128.063772 
L 318.181691 127.110676 
L 320.719054 125.568983 
L 321.564842 126.17918 
L 322.410629 125.874081 
L 323.256417 126.30608 
L 324.102205 123.098493 
L 326.639568 117.088317 
L 327.485355 103.977171 
L 328.331143 100.653485 
L 329.176931 100.874884 
L 330.022718 96.9761 
L 332.560081 98.566393 
L 334.251657 97.840096 
L 335.097444 96.484702 
L 335.943232 99.041591 
L 338.480595 102.764876 
L 339.326383 105.032867 
L 340.17217 106.183062 
L 341.017958 106.841859 
L 341.863746 112.168937 
L 344.401109 111.242841 
L 345.246896 110.389645 
L 346.092684 110.886443 
L 346.938472 112.093338 
L 347.784259 110.008946 
L 350.321622 106.428761 
L 351.16741 103.177974 
L 352.013198 98.404394 
L 352.858985 96.090503 
L 353.704773 94.629809 
L 356.242136 101.77398 
L 357.087924 111.221241 
L 358.779499 139.843824 
L 359.625287 150.011982 
L 362.16265 160.563539 
L 363.008438 167.065112 
L 363.008438 167.065112 
" clip-path="url(#pf13bf7ec42)" style="fill: none; stroke: #f36d43; stroke-opacity: 0.5; stroke-width: 1.5; stroke-linecap: square"/>
   </g>
   <g id="line2d_29">
    <path d="M 58.524876 237.434924 
L 59.370664 236.179429 
L 64.44539 234.860934 
L 65.291177 234.728185 
L 70.365903 227.593464 
L 71.211691 227.640714 
L 76.286417 215.166765 
L 77.132205 215.450264 
L 82.206931 220.188745 
L 83.052718 220.681493 
L 88.127444 228.68021 
L 88.973232 227.728464 
L 94.047958 225.237724 
L 94.893746 221.072991 
L 99.968472 220.208995 
L 100.814259 219.979495 
L 105.888985 222.476985 
L 106.734773 227.519215 
L 111.809499 231.0292 
L 112.655287 230.880701 
L 117.730013 227.741964 
L 118.575801 225.453723 
L 123.650527 224.852975 
L 124.496314 222.895484 
L 129.57104 223.442231 
L 130.416828 223.388232 
L 135.491554 221.005491 
L 136.337342 198.258085 
L 141.412068 198.791332 
L 142.257855 195.099097 
L 147.332581 195.416346 
L 148.178369 218.94675 
L 153.253095 220.904242 
L 154.098883 226.432469 
L 159.173609 227.593464 
L 160.019396 227.323465 
L 165.094122 226.499969 
L 165.93991 225.095975 
L 171.014636 224.036229 
L 171.860424 226.16247 
L 176.93515 226.641718 
L 177.780938 224.380477 
L 182.855664 229.159458 
L 183.701451 231.609698 
L 188.776177 229.625206 
L 189.621965 231.575948 
L 194.696691 227.154716 
L 195.542479 225.561723 
L 200.617205 228.092962 
L 201.462992 226.628218 
L 206.537718 223.955229 
L 207.383506 209.861287 
L 212.458232 205.257806 
L 213.30402 208.619292 
L 218.378746 210.489034 
L 219.224533 224.312978 
L 224.299259 226.668718 
L 225.145047 223.73248 
L 230.219773 224.785476 
L 231.065561 222.895484 
L 236.140287 221.22149 
L 236.986074 221.086491 
L 242.060801 222.065237 
L 242.906588 223.401731 
L 247.981314 224.596477 
L 248.827102 223.79998 
L 253.901828 217.191757 
L 254.747616 217.995004 
L 259.822342 219.331498 
L 260.668129 222.848234 
L 265.742855 231.940446 
L 266.588643 233.351191 
L 271.663369 235.072434 
L 272.509157 236.516928 
L 277.583883 236.969176 
L 278.42967 235.504432 
L 283.504396 236.894926 
L 284.350184 236.921926 
L 289.42491 231.805447 
L 290.270698 219.182999 
L 295.345424 214.242019 
L 296.191211 212.041528 
L 301.265938 216.233261 
L 302.111725 230.840201 
L 307.186451 234.201687 
L 308.032239 235.808181 
L 313.106965 235.207433 
L 313.952753 235.092684 
L 319.027479 230.192204 
L 319.873266 229.868205 
L 324.947992 227.991713 
L 325.79378 226.844217 
L 330.868506 226.682218 
L 331.714294 221.720988 
L 336.78902 217.266007 
L 337.634807 217.569755 
L 342.709533 221.22149 
L 343.555321 225.068975 
L 348.630047 230.509452 
L 349.475835 231.0292 
L 354.550561 234.545936 
L 355.396348 235.760931 
L 360.471074 239.142667 
L 361.316862 236.314429 
" clip-path="url(#pf13bf7ec42)" style="fill: none; stroke: #83c966; stroke-opacity: 0.5; stroke-width: 1.5; stroke-linecap: square"/>
   </g>
   <g id="line2d_30">
    <path d="M 54.295938 104.864841 
L 363.008438 104.864841 
" clip-path="url(#pf13bf7ec42)" style="fill: none; stroke-dasharray: 7.4,3.2; stroke-dashoffset: 0; stroke: #f36d43; stroke-width: 2"/>
   </g>
   <g id="line2d_31">
    <path d="M 54.295938 219.839265 
L 363.008438 219.839265 
" clip-path="url(#pf13bf7ec42)" style="fill: none; stroke-dasharray: 7.4,3.2; stroke-dashoffset: 0; stroke: #83c966; stroke-width: 2"/>
   </g>
   <g id="patch_3">
    <path d="M 54.295938 261.56 
L 54.295938 54.24 
" style="fill: none; stroke: #000000; stroke-width: 0.8; stroke-linejoin: miter; stroke-linecap: square"/>
   </g>
   <g id="patch_4">
    <path d="M 54.295938 261.56 
L 363.008438 261.56 
" style="fill: none; stroke: #000000; stroke-width: 0.8; stroke-linejoin: miter; stroke-linecap: square"/>
   </g>
   <g id="text_22">
    <!-- 2019 -->
    <g transform="translate(190.837188 48.24) scale(0.14 -0.14)">
     <defs>
      <path id="DejaVuSans-39" d="M 703 97 
L 703 672 
Q 941 559 1184 500 
Q 1428 441 1663 441 
Q 2288 441 2617 861 
Q 2947 1281 2994 2138 
Q 2813 1869 2534 1725 
Q 2256 1581 1919 1581 
Q 1219 1581 811 2004 
Q 403 2428 403 3163 
Q 403 3881 828 4315 
Q 1253 4750 1959 4750 
Q 2769 4750 3195 4129 
Q 3622 3509 3622 2328 
Q 3622 1225 3098 567 
Q 2575 -91 1691 -91 
Q 1453 -91 1209 -44 
Q 966 3 703 97 
z
M 1959 2075 
Q 2384 2075 2632 2365 
Q 2881 2656 2881 3163 
Q 2881 3666 2632 3958 
Q 2384 4250 1959 4250 
Q 1534 4250 1286 3958 
Q 1038 3666 1038 3163 
Q 1038 2656 1286 2365 
Q 1534 2075 1959 2075 
z
" transform="scale(0.015625)"/>
     </defs>
     <use xlink:href="#DejaVuSans-32"/>
     <use xlink:href="#DejaVuSans-30" transform="translate(63.623047 0)"/>
     <use xlink:href="#DejaVuSans-31" transform="translate(127.246094 0)"/>
     <use xlink:href="#DejaVuSans-39" transform="translate(190.869141 0)"/>
    </g>
   </g>
   <g id="legend_1">
    <g id="line2d_32">
     <path d="M 168.702734 137.417969 
L 177.702734 137.417969 
L 186.702734 137.417969 
" style="fill: none; stroke: #f36d43; stroke-opacity: 0.5; stroke-width: 1.5; stroke-linecap: square"/>
    </g>
    <g id="text_23">
     <!-- Weekday -->
     <g transform="translate(193.902734 140.567969) scale(0.09 -0.09)">
      <defs>
       <path id="DejaVuSans-57" d="M 213 4666 
L 850 4666 
L 1831 722 
L 2809 4666 
L 3519 4666 
L 4500 722 
L 5478 4666 
L 6119 4666 
L 4947 0 
L 4153 0 
L 3169 4050 
L 2175 0 
L 1381 0 
L 213 4666 
z
" transform="scale(0.015625)"/>
       <path id="DejaVuSans-6b" d="M 581 4863 
L 1159 4863 
L 1159 1991 
L 2875 3500 
L 3609 3500 
L 1753 1863 
L 3688 0 
L 2938 0 
L 1159 1709 
L 1159 0 
L 581 0 
L 581 4863 
z
" transform="scale(0.015625)"/>
      </defs>
      <use xlink:href="#DejaVuSans-57"/>
      <use xlink:href="#DejaVuSans-65" transform="translate(93.001953 0)"/>
      <use xlink:href="#DejaVuSans-65" transform="translate(154.525391 0)"/>
      <use xlink:href="#DejaVuSans-6b" transform="translate(216.048828 0)"/>
      <use xlink:href="#DejaVuSans-64" transform="translate(273.958984 0)"/>
      <use xlink:href="#DejaVuSans-61" transform="translate(337.435547 0)"/>
      <use xlink:href="#DejaVuSans-79" transform="translate(398.714844 0)"/>
     </g>
    </g>
    <g id="line2d_33">
     <path d="M 168.702734 150.628281 
L 177.702734 150.628281 
L 186.702734 150.628281 
" style="fill: none; stroke: #83c966; stroke-opacity: 0.5; stroke-width: 1.5; stroke-linecap: square"/>
    </g>
    <g id="text_24">
     <!-- Weekend -->
     <g transform="translate(193.902734 153.778281) scale(0.09 -0.09)">
      <use xlink:href="#DejaVuSans-57"/>
      <use xlink:href="#DejaVuSans-65" transform="translate(93.001953 0)"/>
      <use xlink:href="#DejaVuSans-65" transform="translate(154.525391 0)"/>
      <use xlink:href="#DejaVuSans-6b" transform="translate(216.048828 0)"/>
      <use xlink:href="#DejaVuSans-65" transform="translate(270.333984 0)"/>
      <use xlink:href="#DejaVuSans-6e" transform="translate(331.857422 0)"/>
      <use xlink:href="#DejaVuSans-64" transform="translate(395.236328 0)"/>
     </g>
    </g>
    <g id="line2d_34">
     <path d="M 168.702734 163.838594 
L 177.702734 163.838594 
L 186.702734 163.838594 
" style="fill: none; stroke-dasharray: 7.4,3.2; stroke-dashoffset: 0; stroke: #f36d43; stroke-width: 2"/>
    </g>
    <g id="text_25">
     <!-- Weekday Fit -->
     <g transform="translate(193.902734 166.988594) scale(0.09 -0.09)">
      <use xlink:href="#DejaVuSans-57"/>
      <use xlink:href="#DejaVuSans-65" transform="translate(93.001953 0)"/>
      <use xlink:href="#DejaVuSans-65" transform="translate(154.525391 0)"/>
      <use xlink:href="#DejaVuSans-6b" transform="translate(216.048828 0)"/>
      <use xlink:href="#DejaVuSans-64" transform="translate(273.958984 0)"/>
      <use xlink:href="#DejaVuSans-61" transform="translate(337.435547 0)"/>
      <use xlink:href="#DejaVuSans-79" transform="translate(398.714844 0)"/>
      <use xlink:href="#DejaVuSans-20" transform="translate(457.894531 0)"/>
      <use xlink:href="#DejaVuSans-46" transform="translate(489.681641 0)"/>
      <use xlink:href="#DejaVuSans-69" transform="translate(539.951172 0)"/>
      <use xlink:href="#DejaVuSans-74" transform="translate(567.734375 0)"/>
     </g>
    </g>
    <g id="line2d_35">
     <path d="M 168.702734 177.048906 
L 177.702734 177.048906 
L 186.702734 177.048906 
" style="fill: none; stroke-dasharray: 7.4,3.2; stroke-dashoffset: 0; stroke: #83c966; stroke-width: 2"/>
    </g>
    <g id="text_26">
     <!-- Weekend Fit -->
     <g transform="translate(193.902734 180.198906) scale(0.09 -0.09)">
      <use xlink:href="#DejaVuSans-57"/>
      <use xlink:href="#DejaVuSans-65" transform="translate(93.001953 0)"/>
      <use xlink:href="#DejaVuSans-65" transform="translate(154.525391 0)"/>
      <use xlink:href="#DejaVuSans-6b" transform="translate(216.048828 0)"/>
      <use xlink:href="#DejaVuSans-65" transform="translate(270.333984 0)"/>
      <use xlink:href="#DejaVuSans-6e" transform="translate(331.857422 0)"/>
      <use xlink:href="#DejaVuSans-64" transform="translate(395.236328 0)"/>
      <use xlink:href="#DejaVuSans-20" transform="translate(458.712891 0)"/>
      <use xlink:href="#DejaVuSans-46" transform="translate(490.5 0)"/>
      <use xlink:href="#DejaVuSans-69" transform="translate(540.769531 0)"/>
      <use xlink:href="#DejaVuSans-74" transform="translate(568.552734 0)"/>
     </g>
    </g>
   </g>
  </g>
  <g id="axes_2">
   <g id="patch_5">
    <path d="M 389.198438 261.56 
L 697.910938 261.56 
L 697.910938 54.24 
L 389.198438 54.24 
L 389.198438 261.56 
z
" style="fill: none"/>
   </g>
   <g id="matplotlib.axis_3">
    <g id="xtick_14">
     <g id="line2d_36">
      <g>
       <use xlink:href="#mee75f13115" x="389.198438" y="261.56" style="stroke: #000000; stroke-width: 0.8"/>
      </g>
     </g>
     <g id="text_27">
      <!-- Jan -->
      <g transform="translate(381.490625 276.158437) scale(0.1 -0.1)">
       <use xlink:href="#DejaVuSans-4a"/>
       <use xlink:href="#DejaVuSans-61" transform="translate(29.492188 0)"/>
       <use xlink:href="#DejaVuSans-6e" transform="translate(90.771484 0)"/>
      </g>
     </g>
    </g>
    <g id="xtick_15">
     <g id="line2d_37">
      <g>
       <use xlink:href="#mee75f13115" x="415.417855" y="261.56" style="stroke: #000000; stroke-width: 0.8"/>
      </g>
     </g>
     <g id="text_28">
      <!-- Feb -->
      <g transform="translate(406.566293 276.158437) scale(0.1 -0.1)">
       <use xlink:href="#DejaVuSans-46"/>
       <use xlink:href="#DejaVuSans-65" transform="translate(52.019531 0)"/>
       <use xlink:href="#DejaVuSans-62" transform="translate(113.542969 0)"/>
      </g>
     </g>
    </g>
    <g id="xtick_16">
     <g id="line2d_38">
      <g>
       <use xlink:href="#mee75f13115" x="439.09991" y="261.56" style="stroke: #000000; stroke-width: 0.8"/>
      </g>
     </g>
     <g id="text_29">
      <!-- Mar -->
      <g transform="translate(429.666316 276.158437) scale(0.1 -0.1)">
       <use xlink:href="#DejaVuSans-4d"/>
       <use xlink:href="#DejaVuSans-61" transform="translate(86.279297 0)"/>
       <use xlink:href="#DejaVuSans-72" transform="translate(147.558594 0)"/>
      </g>
     </g>
    </g>
    <g id="xtick_17">
     <g id="line2d_39">
      <g>
       <use xlink:href="#mee75f13115" x="465.319328" y="261.56" style="stroke: #000000; stroke-width: 0.8"/>
      </g>
     </g>
     <g id="text_30">
      <!-- Apr -->
      <g transform="translate(456.669328 276.158437) scale(0.1 -0.1)">
       <use xlink:href="#DejaVuSans-41"/>
       <use xlink:href="#DejaVuSans-70" transform="translate(68.408203 0)"/>
       <use xlink:href="#DejaVuSans-72" transform="translate(131.884766 0)"/>
      </g>
     </g>
    </g>
    <g id="xtick_18">
     <g id="line2d_40">
      <g>
       <use xlink:href="#mee75f13115" x="490.692958" y="261.56" style="stroke: #000000; stroke-width: 0.8"/>
      </g>
     </g>
     <g id="text_31">
      <!-- May -->
      <g transform="translate(480.355458 276.158437) scale(0.1 -0.1)">
       <use xlink:href="#DejaVuSans-4d"/>
       <use xlink:href="#DejaVuSans-61" transform="translate(86.279297 0)"/>
       <use xlink:href="#DejaVuSans-79" transform="translate(147.558594 0)"/>
      </g>
     </g>
    </g>
    <g id="xtick_19">
     <g id="line2d_41">
      <g>
       <use xlink:href="#mee75f13115" x="516.912376" y="261.56" style="stroke: #000000; stroke-width: 0.8"/>
      </g>
     </g>
     <g id="text_32">
      <!-- Jun -->
      <g transform="translate(509.099876 276.158437) scale(0.1 -0.1)">
       <use xlink:href="#DejaVuSans-4a"/>
       <use xlink:href="#DejaVuSans-75" transform="translate(29.492188 0)"/>
       <use xlink:href="#DejaVuSans-6e" transform="translate(92.871094 0)"/>
      </g>
     </g>
    </g>
    <g id="xtick_20">
     <g id="line2d_42">
      <g>
       <use xlink:href="#mee75f13115" x="542.286006" y="261.56" style="stroke: #000000; stroke-width: 0.8"/>
      </g>
     </g>
     <g id="text_33">
      <!-- Jul -->
      <g transform="translate(536.253193 276.158437) scale(0.1 -0.1)">
       <use xlink:href="#DejaVuSans-4a"/>
       <use xlink:href="#DejaVuSans-75" transform="translate(29.492188 0)"/>
       <use xlink:href="#DejaVuSans-6c" transform="translate(92.871094 0)"/>
      </g>
     </g>
    </g>
    <g id="xtick_21">
     <g id="line2d_43">
      <g>
       <use xlink:href="#mee75f13115" x="568.505424" y="261.56" style="stroke: #000000; stroke-width: 0.8"/>
      </g>
     </g>
     <g id="text_34">
      <!-- Aug -->
      <g transform="translate(558.742143 276.158437) scale(0.1 -0.1)">
       <use xlink:href="#DejaVuSans-41"/>
       <use xlink:href="#DejaVuSans-75" transform="translate(68.408203 0)"/>
       <use xlink:href="#DejaVuSans-67" transform="translate(131.787109 0)"/>
      </g>
     </g>
    </g>
    <g id="xtick_22">
     <g id="line2d_44">
      <g>
       <use xlink:href="#mee75f13115" x="594.724842" y="261.56" style="stroke: #000000; stroke-width: 0.8"/>
      </g>
     </g>
     <g id="text_35">
      <!-- Sep -->
      <g transform="translate(585.299842 276.158437) scale(0.1 -0.1)">
       <use xlink:href="#DejaVuSans-53"/>
       <use xlink:href="#DejaVuSans-65" transform="translate(63.476562 0)"/>
       <use xlink:href="#DejaVuSans-70" transform="translate(125 0)"/>
      </g>
     </g>
    </g>
    <g id="xtick_23">
     <g id="line2d_45">
      <g>
       <use xlink:href="#mee75f13115" x="620.098472" y="261.56" style="stroke: #000000; stroke-width: 0.8"/>
      </g>
     </g>
     <g id="text_36">
      <!-- Oct -->
      <g transform="translate(611.453159 276.158437) scale(0.1 -0.1)">
       <use xlink:href="#DejaVuSans-4f"/>
       <use xlink:href="#DejaVuSans-63" transform="translate(78.710938 0)"/>
       <use xlink:href="#DejaVuSans-74" transform="translate(133.691406 0)"/>
      </g>
     </g>
    </g>
    <g id="xtick_24">
     <g id="line2d_46">
      <g>
       <use xlink:href="#mee75f13115" x="646.31789" y="261.56" style="stroke: #000000; stroke-width: 0.8"/>
      </g>
     </g>
     <g id="text_37">
      <!-- Nov -->
      <g transform="translate(636.558515 276.158437) scale(0.1 -0.1)">
       <use xlink:href="#DejaVuSans-4e"/>
       <use xlink:href="#DejaVuSans-6f" transform="translate(74.804688 0)"/>
       <use xlink:href="#DejaVuSans-76" transform="translate(135.986328 0)"/>
      </g>
     </g>
    </g>
    <g id="xtick_25">
     <g id="line2d_47">
      <g>
       <use xlink:href="#mee75f13115" x="671.69152" y="261.56" style="stroke: #000000; stroke-width: 0.8"/>
      </g>
     </g>
     <g id="text_38">
      <!-- Dec -->
      <g transform="translate(662.015738 276.158437) scale(0.1 -0.1)">
       <use xlink:href="#DejaVuSans-44"/>
       <use xlink:href="#DejaVuSans-65" transform="translate(77.001953 0)"/>
       <use xlink:href="#DejaVuSans-63" transform="translate(138.525391 0)"/>
      </g>
     </g>
    </g>
    <g id="xtick_26">
     <g id="line2d_48">
      <g>
       <use xlink:href="#mee75f13115" x="697.910938" y="261.56" style="stroke: #000000; stroke-width: 0.8"/>
      </g>
     </g>
     <g id="text_39">
      <!-- Jan -->
      <g transform="translate(690.203125 276.158437) scale(0.1 -0.1)">
       <use xlink:href="#DejaVuSans-4a"/>
       <use xlink:href="#DejaVuSans-61" transform="translate(29.492188 0)"/>
       <use xlink:href="#DejaVuSans-6e" transform="translate(90.771484 0)"/>
      </g>
     </g>
    </g>
   </g>
   <g id="matplotlib.axis_4">
    <g id="ytick_8">
     <g id="line2d_49">
      <path d="M 389.198438 239.459916 
L 697.910938 239.459916 
" clip-path="url(#p2889a2613c)" style="fill: none; stroke-dasharray: 2.96,1.28; stroke-dashoffset: 0; stroke: #b0b0b0; stroke-opacity: 0.3; stroke-width: 0.8"/>
     </g>
     <g id="line2d_50">
      <g>
       <use xlink:href="#mfe4de64550" x="389.198438" y="239.459916" style="stroke: #000000; stroke-width: 0.8"/>
      </g>
     </g>
    </g>
    <g id="ytick_9">
     <g id="line2d_51">
      <path d="M 389.198438 212.460026 
L 697.910938 212.460026 
" clip-path="url(#p2889a2613c)" style="fill: none; stroke-dasharray: 2.96,1.28; stroke-dashoffset: 0; stroke: #b0b0b0; stroke-opacity: 0.3; stroke-width: 0.8"/>
     </g>
     <g id="line2d_52">
      <g>
       <use xlink:href="#mfe4de64550" x="389.198438" y="212.460026" style="stroke: #000000; stroke-width: 0.8"/>
      </g>
     </g>
    </g>
    <g id="ytick_10">
     <g id="line2d_53">
      <path d="M 389.198438 185.460137 
L 697.910938 185.460137 
" clip-path="url(#p2889a2613c)" style="fill: none; stroke-dasharray: 2.96,1.28; stroke-dashoffset: 0; stroke: #b0b0b0; stroke-opacity: 0.3; stroke-width: 0.8"/>
     </g>
     <g id="line2d_54">
      <g>
       <use xlink:href="#mfe4de64550" x="389.198438" y="185.460137" style="stroke: #000000; stroke-width: 0.8"/>
      </g>
     </g>
    </g>
    <g id="ytick_11">
     <g id="line2d_55">
      <path d="M 389.198438 158.460248 
L 697.910938 158.460248 
" clip-path="url(#p2889a2613c)" style="fill: none; stroke-dasharray: 2.96,1.28; stroke-dashoffset: 0; stroke: #b0b0b0; stroke-opacity: 0.3; stroke-width: 0.8"/>
     </g>
     <g id="line2d_56">
      <g>
       <use xlink:href="#mfe4de64550" x="389.198438" y="158.460248" style="stroke: #000000; stroke-width: 0.8"/>
      </g>
     </g>
    </g>
    <g id="ytick_12">
     <g id="line2d_57">
      <path d="M 389.198438 131.460358 
L 697.910938 131.460358 
" clip-path="url(#p2889a2613c)" style="fill: none; stroke-dasharray: 2.96,1.28; stroke-dashoffset: 0; stroke: #b0b0b0; stroke-opacity: 0.3; stroke-width: 0.8"/>
     </g>
     <g id="line2d_58">
      <g>
       <use xlink:href="#mfe4de64550" x="389.198438" y="131.460358" style="stroke: #000000; stroke-width: 0.8"/>
      </g>
     </g>
    </g>
    <g id="ytick_13">
     <g id="line2d_59">
      <path d="M 389.198438 104.460469 
L 697.910938 104.460469 
" clip-path="url(#p2889a2613c)" style="fill: none; stroke-dasharray: 2.96,1.28; stroke-dashoffset: 0; stroke: #b0b0b0; stroke-opacity: 0.3; stroke-width: 0.8"/>
     </g>
     <g id="line2d_60">
      <g>
       <use xlink:href="#mfe4de64550" x="389.198438" y="104.460469" style="stroke: #000000; stroke-width: 0.8"/>
      </g>
     </g>
    </g>
    <g id="ytick_14">
     <g id="line2d_61">
      <path d="M 389.198438 77.46058 
L 697.910938 77.46058 
" clip-path="url(#p2889a2613c)" style="fill: none; stroke-dasharray: 2.96,1.28; stroke-dashoffset: 0; stroke: #b0b0b0; stroke-opacity: 0.3; stroke-width: 0.8"/>
     </g>
     <g id="line2d_62">
      <g>
       <use xlink:href="#mfe4de64550" x="389.198438" y="77.46058" style="stroke: #000000; stroke-width: 0.8"/>
      </g>
     </g>
    </g>
   </g>
   <g id="line2d_63">
    <path d="M 390.044225 63.663636 
L 390.890013 143.056811 
L 391.735801 172.50019 
L 394.273164 187.343379 
L 395.118951 190.573916 
L 395.964739 192.916606 
L 396.810527 194.362386 
L 397.656314 196.438967 
L 400.193677 196.96509 
L 401.039465 195.944194 
L 401.885253 209.581838 
L 402.73104 206.123152 
L 403.576828 203.361064 
L 406.114191 200.094077 
L 406.959979 197.685687 
L 407.805766 195.644495 
L 408.651554 194.3944 
L 409.497342 194.059602 
L 412.034705 198.363384 
L 412.880492 198.690083 
L 413.72628 198.528083 
L 414.572068 199.43798 
L 415.417855 199.743078 
L 417.955218 200.858174 
L 418.801006 201.646571 
L 419.646794 201.78697 
L 420.492581 201.606071 
L 421.338369 194.086602 
L 423.875732 189.310321 
L 424.72152 188.300525 
L 425.567307 187.736228 
L 426.413095 187.628228 
L 427.258883 186.883031 
L 430.642033 185.246838 
L 431.487821 185.333238 
L 432.333609 185.273838 
L 433.179396 191.605312 
L 435.716759 191.872611 
L 436.562547 192.15611 
L 437.408335 191.173314 
L 438.254122 189.828719 
L 439.09991 189.853019 
L 441.637273 189.809819 
L 444.174636 190.465916 
L 445.020424 190.914115 
L 447.557787 195.112597 
L 449.249362 194.4106 
L 450.09515 193.403504 
L 450.940938 192.831107 
L 453.478301 193.489904 
L 454.324088 192.242509 
L 455.169876 191.869911 
L 456.015664 191.759211 
L 456.861451 192.496308 
L 459.398814 187.830727 
L 460.244602 187.585028 
L 461.09039 188.200626 
L 461.936177 187.590428 
L 462.781965 184.912039 
L 465.319328 184.247842 
L 466.165116 184.517841 
L 467.010903 183.759144 
L 467.856691 183.748344 
L 468.702479 183.389245 
L 471.239842 183.715944 
L 472.931417 184.81484 
L 473.777205 186.831731 
L 474.622992 190.355217 
L 477.160355 190.433517 
L 478.006143 190.884415 
L 478.851931 192.237109 
L 479.697718 192.914806 
L 480.543506 192.858107 
L 483.080869 197.553387 
L 483.926657 199.726879 
L 484.772444 200.547675 
L 485.618232 201.927369 
L 486.46402 205.888253 
L 489.001383 206.055653 
L 489.84717 206.833249 
L 490.692958 206.147452 
L 491.538746 203.433963 
L 492.384533 202.267568 
L 494.921896 197.442688 
L 495.767684 194.029902 
L 496.613472 193.975902 
L 497.459259 192.874307 
L 498.305047 189.269821 
L 500.84241 189.51822 
L 501.688198 189.013322 
L 502.533985 189.115922 
L 503.379773 191.049114 
L 504.225561 192.288409 
L 506.762924 192.507108 
L 507.608711 193.471004 
L 508.454499 192.742007 
L 510.146074 193.473704 
L 512.683438 193.857103 
L 514.375013 196.300593 
L 515.220801 196.351892 
L 516.066588 193.846303 
L 518.603951 197.736987 
L 519.449739 200.331676 
L 520.295527 200.496375 
L 521.141314 198.687383 
L 521.987102 198.914182 
L 524.524465 203.269264 
L 525.370253 203.533863 
L 527.061828 202.972265 
L 527.907616 205.877453 
L 530.444979 203.452863 
L 531.290766 202.135269 
L 532.136554 202.402568 
L 532.982342 205.132256 
L 533.828129 210.156936 
L 536.365492 206.301352 
L 537.21128 206.61185 
L 538.057068 209.301039 
L 538.902855 210.602434 
L 539.748643 210.516034 
L 542.286006 215.724313 
L 543.131794 215.662213 
L 543.977581 218.518801 
L 544.823369 224.312978 
L 545.669157 210.826533 
L 548.20652 209.908537 
L 549.052307 209.792437 
L 549.898095 207.594646 
L 550.743883 206.67665 
L 551.58967 204.886557 
L 554.127033 198.968182 
L 554.972821 199.092381 
L 555.818609 195.892894 
L 556.664396 188.972823 
L 557.510184 195.981994 
L 560.047547 195.369096 
L 561.739122 192.593508 
L 562.58491 192.455808 
L 563.430698 192.09941 
L 565.968061 192.193909 
L 566.813848 191.524312 
L 567.659636 191.578312 
L 568.505424 191.108514 
L 569.351211 191.759211 
L 571.888574 192.906706 
L 572.734362 200.841974 
L 573.58015 202.370168 
L 574.425938 203.209864 
L 575.271725 205.364455 
L 577.809088 204.935157 
L 578.654876 206.031353 
L 580.346451 207.192348 
L 581.192239 206.557851 
L 583.729602 206.079952 
L 584.57539 198.771082 
L 585.421177 197.299588 
L 586.266965 196.465292 
L 587.112753 196.114293 
L 589.650116 196.046794 
L 590.495903 196.581391 
L 591.341691 196.80549 
L 592.187479 196.292493 
L 593.033266 198.023185 
L 595.570629 198.511883 
L 596.416417 198.906082 
L 597.262205 200.112977 
L 598.107992 202.083969 
L 598.95378 202.310768 
L 601.491143 202.561867 
L 603.182718 201.79777 
L 604.028506 203.460963 
L 604.874294 202.294568 
L 607.411657 201.643871 
L 608.257444 201.90037 
L 609.103232 201.192973 
L 609.94902 199.41638 
L 610.794807 199.030281 
L 613.33217 199.041081 
L 614.177958 198.403884 
L 615.023746 198.609083 
L 615.869533 198.198685 
L 616.715321 201.141673 
L 619.252684 201.209172 
L 620.098472 200.631375 
L 620.944259 200.982373 
L 621.790047 202.048869 
L 622.635835 201.89497 
L 625.173198 201.88957 
L 626.018985 201.597971 
L 626.864773 200.226376 
L 627.710561 199.559479 
L 628.556348 196.257393 
L 631.093711 196.405892 
L 631.939499 195.814595 
L 632.785287 195.493296 
L 633.631074 194.267501 
L 634.476862 193.816603 
L 637.014225 194.764299 
L 637.860013 194.818299 
L 638.705801 197.242889 
L 639.551588 197.772087 
L 640.397376 197.742387 
L 642.934739 198.174385 
L 643.780527 198.433584 
L 644.626314 198.444384 
L 645.472102 198.792682 
L 646.31789 193.044406 
L 648.855253 194.4052 
L 649.70104 194.110902 
L 650.546828 192.682607 
L 651.392616 192.431508 
L 652.238403 191.753811 
L 654.775766 191.354213 
L 655.621554 192.11831 
L 656.467342 191.545912 
L 657.313129 191.111214 
L 658.158917 197.02959 
L 660.69628 194.753499 
L 661.542068 194.982998 
L 663.233643 192.728507 
L 664.079431 191.95901 
L 666.616794 191.94011 
L 667.462581 191.105814 
L 668.308369 192.458508 
L 669.154157 192.623208 
L 669.999944 193.017406 
L 672.537307 193.560104 
L 673.383095 193.152405 
L 674.228883 193.978602 
L 675.07467 194.353901 
L 675.920458 188.732524 
L 678.457821 188.608324 
L 679.303609 188.851323 
L 680.149396 187.385229 
L 680.995184 186.505033 
L 681.840972 184.76894 
L 684.378335 183.181346 
L 685.224122 183.270446 
L 686.06991 176.523174 
L 686.915698 177.39257 
L 687.761485 184.69604 
L 690.298848 185.921835 
L 691.144636 188.341025 
L 691.990424 192.912106 
L 693.681999 204.708358 
L 696.219362 208.040144 
L 697.06515 212.354727 
L 697.910938 203.045165 
L 697.910938 203.045165 
" clip-path="url(#p2889a2613c)" style="fill: none; stroke: #f36d43; stroke-opacity: 0.5; stroke-width: 1.5; stroke-linecap: square"/>
   </g>
   <g id="line2d_64">
    <path d="M 392.581588 239.405916 
L 393.427376 241.754906 
L 398.502102 236.759927 
L 399.34789 233.101442 
L 404.422616 226.850967 
L 405.268403 224.090229 
L 410.343129 223.280232 
L 411.188917 224.589727 
L 416.263643 226.466219 
L 417.109431 228.73421 
L 422.184157 205.406305 
L 423.029944 207.147798 
L 428.10467 209.530538 
L 428.950458 209.571038 
L 434.025184 233.276941 
L 434.870972 233.270191 
L 439.945698 217.711505 
L 440.791485 215.774263 
L 445.866211 216.49651 
L 446.711999 216.42901 
L 451.786725 226.567468 
L 452.632513 228.450711 
L 457.707239 223.226232 
L 458.553027 220.850242 
L 463.627753 218.123253 
L 464.47354 217.266007 
L 469.548266 217.954504 
L 470.394054 173.627436 
L 475.46878 180.404408 
L 476.314568 179.73616 
L 481.389294 182.523899 
L 482.235081 226.15572 
L 487.309807 223.448981 
L 488.155595 221.518489 
L 493.230321 223.961979 
L 494.076109 228.55871 
L 499.150835 227.741964 
L 499.996622 230.070704 
L 505.071348 226.742968 
L 505.917136 226.884717 
L 510.991862 221.39699 
L 511.83765 219.837746 
L 516.912376 223.300482 
L 517.758164 225.028475 
L 522.83289 243.725898 
L 523.678677 245.906139 
L 528.753403 247.708382 
L 529.599191 252.136364 
L 534.673917 238.49467 
L 535.519705 234.336687 
L 540.594431 227.687964 
L 541.440218 221.660239 
L 546.514944 178.642665 
L 547.360732 145.871549 
L 552.435458 144.649804 
L 553.281246 141.727066 
L 558.355972 190.941115 
L 559.201759 228.194212 
L 564.276485 231.265449 
L 565.122273 232.210445 
L 570.196999 229.699456 
L 571.042787 226.614718 
L 576.117513 227.708214 
L 576.963301 229.058208 
L 582.038027 229.584706 
L 582.883814 230.624202 
L 587.95854 230.219203 
L 588.804328 225.872221 
L 593.879054 227.721714 
L 594.724842 229.692706 
L 599.799568 231.386949 
L 600.645355 236.631677 
L 605.720081 235.94318 
L 606.565869 234.741685 
L 611.640595 233.58744 
L 612.486383 233.41869 
L 617.561109 233.648189 
L 618.406896 233.992438 
L 623.481622 233.290441 
L 624.32741 232.824693 
L 629.402136 229.368707 
L 630.247924 229.773705 
L 635.32265 221.727738 
L 636.168438 219.601497 
L 641.243164 208.113044 
L 642.088951 210.266285 
L 647.163677 202.159569 
L 648.009465 202.287818 
L 653.084191 202.584817 
L 653.929979 199.101831 
L 659.004705 215.578514 
L 659.850492 217.205257 
L 664.925218 219.884996 
L 665.771006 221.167491 
L 670.845732 222.294736 
L 671.69152 223.266732 
L 676.766246 214.512018 
L 677.612033 212.743525 
L 682.686759 211.52853 
L 683.532547 209.942287 
L 688.607273 229.422707 
L 689.453061 232.250945 
L 694.527787 235.504432 
L 695.373574 234.782185 
" clip-path="url(#p2889a2613c)" style="fill: none; stroke: #83c966; stroke-opacity: 0.5; stroke-width: 1.5; stroke-linecap: square"/>
   </g>
   <g id="line2d_65">
    <path d="M 389.198438 191.561842 
L 697.910938 191.561842 
" clip-path="url(#p2889a2613c)" style="fill: none; stroke-dasharray: 7.4,3.2; stroke-dashoffset: 0; stroke: #f36d43; stroke-width: 2"/>
   </g>
   <g id="line2d_66">
    <path d="M 389.198438 225.758857 
L 697.910938 225.758857 
" clip-path="url(#p2889a2613c)" style="fill: none; stroke-dasharray: 7.4,3.2; stroke-dashoffset: 0; stroke: #83c966; stroke-width: 2"/>
   </g>
   <g id="patch_6">
    <path d="M 389.198438 261.56 
L 389.198438 54.24 
" style="fill: none; stroke: #000000; stroke-width: 0.8; stroke-linejoin: miter; stroke-linecap: square"/>
   </g>
   <g id="patch_7">
    <path d="M 389.198438 261.56 
L 697.910938 261.56 
" style="fill: none; stroke: #000000; stroke-width: 0.8; stroke-linejoin: miter; stroke-linecap: square"/>
   </g>
   <g id="text_40">
    <!-- 2025 -->
    <g transform="translate(525.739688 48.24) scale(0.14 -0.14)">
     <use xlink:href="#DejaVuSans-32"/>
     <use xlink:href="#DejaVuSans-30" transform="translate(63.623047 0)"/>
     <use xlink:href="#DejaVuSans-32" transform="translate(127.246094 0)"/>
     <use xlink:href="#DejaVuSans-35" transform="translate(190.869141 0)"/>
    </g>
   </g>
  </g>
  <g id="text_41">
   <!-- Comparing Observed and Fitted Pedestrian Counts at Victoria Point -->
   <g transform="translate(87.665937 19.3575) scale(0.16 -0.16)">
    <defs>
     <path id="DejaVuSans-43" d="M 4122 4306 
L 4122 3641 
Q 3803 3938 3442 4084 
Q 3081 4231 2675 4231 
Q 1875 4231 1450 3742 
Q 1025 3253 1025 2328 
Q 1025 1406 1450 917 
Q 1875 428 2675 428 
Q 3081 428 3442 575 
Q 3803 722 4122 1019 
L 4122 359 
Q 3791 134 3420 21 
Q 3050 -91 2638 -91 
Q 1578 -91 968 557 
Q 359 1206 359 2328 
Q 359 3453 968 4101 
Q 1578 4750 2638 4750 
Q 3056 4750 3426 4639 
Q 3797 4528 4122 4306 
z
" transform="scale(0.015625)"/>
     <path id="DejaVuSans-6d" d="M 3328 2828 
Q 3544 3216 3844 3400 
Q 4144 3584 4550 3584 
Q 5097 3584 5394 3201 
Q 5691 2819 5691 2113 
L 5691 0 
L 5113 0 
L 5113 2094 
Q 5113 2597 4934 2840 
Q 4756 3084 4391 3084 
Q 3944 3084 3684 2787 
Q 3425 2491 3425 1978 
L 3425 0 
L 2847 0 
L 2847 2094 
Q 2847 2600 2669 2842 
Q 2491 3084 2119 3084 
Q 1678 3084 1418 2786 
Q 1159 2488 1159 1978 
L 1159 0 
L 581 0 
L 581 3500 
L 1159 3500 
L 1159 2956 
Q 1356 3278 1631 3431 
Q 1906 3584 2284 3584 
Q 2666 3584 2933 3390 
Q 3200 3197 3328 2828 
z
" transform="scale(0.015625)"/>
     <path id="DejaVuSans-50" d="M 1259 4147 
L 1259 2394 
L 2053 2394 
Q 2494 2394 2734 2622 
Q 2975 2850 2975 3272 
Q 2975 3691 2734 3919 
Q 2494 4147 2053 4147 
L 1259 4147 
z
M 628 4666 
L 2053 4666 
Q 2838 4666 3239 4311 
Q 3641 3956 3641 3272 
Q 3641 2581 3239 2228 
Q 2838 1875 2053 1875 
L 1259 1875 
L 1259 0 
L 628 0 
L 628 4666 
z
" transform="scale(0.015625)"/>
     <path id="DejaVuSans-56" d="M 1831 0 
L 50 4666 
L 709 4666 
L 2188 738 
L 3669 4666 
L 4325 4666 
L 2547 0 
L 1831 0 
z
" transform="scale(0.015625)"/>
    </defs>
    <use xlink:href="#DejaVuSans-43"/>
    <use xlink:href="#DejaVuSans-6f" transform="translate(69.824219 0)"/>
    <use xlink:href="#DejaVuSans-6d" transform="translate(131.005859 0)"/>
    <use xlink:href="#DejaVuSans-70" transform="translate(228.417969 0)"/>
    <use xlink:href="#DejaVuSans-61" transform="translate(291.894531 0)"/>
    <use xlink:href="#DejaVuSans-72" transform="translate(353.173828 0)"/>
    <use xlink:href="#DejaVuSans-69" transform="translate(394.287109 0)"/>
    <use xlink:href="#DejaVuSans-6e" transform="translate(422.070312 0)"/>
    <use xlink:href="#DejaVuSans-67" transform="translate(485.449219 0)"/>
    <use xlink:href="#DejaVuSans-20" transform="translate(548.925781 0)"/>
    <use xlink:href="#DejaVuSans-4f" transform="translate(580.712891 0)"/>
    <use xlink:href="#DejaVuSans-62" transform="translate(659.423828 0)"/>
    <use xlink:href="#DejaVuSans-73" transform="translate(722.900391 0)"/>
    <use xlink:href="#DejaVuSans-65" transform="translate(775 0)"/>
    <use xlink:href="#DejaVuSans-72" transform="translate(836.523438 0)"/>
    <use xlink:href="#DejaVuSans-76" transform="translate(877.636719 0)"/>
    <use xlink:href="#DejaVuSans-65" transform="translate(936.816406 0)"/>
    <use xlink:href="#DejaVuSans-64" transform="translate(998.339844 0)"/>
    <use xlink:href="#DejaVuSans-20" transform="translate(1061.816406 0)"/>
    <use xlink:href="#DejaVuSans-61" transform="translate(1093.603516 0)"/>
    <use xlink:href="#DejaVuSans-6e" transform="translate(1154.882812 0)"/>
    <use xlink:href="#DejaVuSans-64" transform="translate(1218.261719 0)"/>
    <use xlink:href="#DejaVuSans-20" transform="translate(1281.738281 0)"/>
    <use xlink:href="#DejaVuSans-46" transform="translate(1313.525391 0)"/>
    <use xlink:href="#DejaVuSans-69" transform="translate(1363.794922 0)"/>
    <use xlink:href="#DejaVuSans-74" transform="translate(1391.578125 0)"/>
    <use xlink:href="#DejaVuSans-74" transform="translate(1430.787109 0)"/>
    <use xlink:href="#DejaVuSans-65" transform="translate(1469.996094 0)"/>
    <use xlink:href="#DejaVuSans-64" transform="translate(1531.519531 0)"/>
    <use xlink:href="#DejaVuSans-20" transform="translate(1594.996094 0)"/>
    <use xlink:href="#DejaVuSans-50" transform="translate(1626.783203 0)"/>
    <use xlink:href="#DejaVuSans-65" transform="translate(1683.460938 0)"/>
    <use xlink:href="#DejaVuSans-64" transform="translate(1744.984375 0)"/>
    <use xlink:href="#DejaVuSans-65" transform="translate(1808.460938 0)"/>
    <use xlink:href="#DejaVuSans-73" transform="translate(1869.984375 0)"/>
    <use xlink:href="#DejaVuSans-74" transform="translate(1922.083984 0)"/>
    <use xlink:href="#DejaVuSans-72" transform="translate(1961.292969 0)"/>
    <use xlink:href="#DejaVuSans-69" transform="translate(2002.40625 0)"/>
    <use xlink:href="#DejaVuSans-61" transform="translate(2030.189453 0)"/>
    <use xlink:href="#DejaVuSans-6e" transform="translate(2091.46875 0)"/>
    <use xlink:href="#DejaVuSans-20" transform="translate(2154.847656 0)"/>
    <use xlink:href="#DejaVuSans-43" transform="translate(2186.634766 0)"/>
    <use xlink:href="#DejaVuSans-6f" transform="translate(2256.458984 0)"/>
    <use xlink:href="#DejaVuSans-75" transform="translate(2317.640625 0)"/>
    <use xlink:href="#DejaVuSans-6e" transform="translate(2381.019531 0)"/>
    <use xlink:href="#DejaVuSans-74" transform="translate(2444.398438 0)"/>
    <use xlink:href="#DejaVuSans-73" transform="translate(2483.607422 0)"/>
    <use xlink:href="#DejaVuSans-20" transform="translate(2535.707031 0)"/>
    <use xlink:href="#DejaVuSans-61" transform="translate(2567.494141 0)"/>
    <use xlink:href="#DejaVuSans-74" transform="translate(2628.773438 0)"/>
    <use xlink:href="#DejaVuSans-20" transform="translate(2667.982422 0)"/>
    <use xlink:href="#DejaVuSans-56" transform="translate(2699.769531 0)"/>
    <use xlink:href="#DejaVuSans-69" transform="translate(2765.927734 0)"/>
    <use xlink:href="#DejaVuSans-63" transform="translate(2793.710938 0)"/>
    <use xlink:href="#DejaVuSans-74" transform="translate(2848.691406 0)"/>
    <use xlink:href="#DejaVuSans-6f" transform="translate(2887.900391 0)"/>
    <use xlink:href="#DejaVuSans-72" transform="translate(2949.082031 0)"/>
    <use xlink:href="#DejaVuSans-69" transform="translate(2990.195312 0)"/>
    <use xlink:href="#DejaVuSans-61" transform="translate(3017.978516 0)"/>
    <use xlink:href="#DejaVuSans-20" transform="translate(3079.257812 0)"/>
    <use xlink:href="#DejaVuSans-50" transform="translate(3111.044922 0)"/>
    <use xlink:href="#DejaVuSans-6f" transform="translate(3167.722656 0)"/>
    <use xlink:href="#DejaVuSans-69" transform="translate(3228.904297 0)"/>
    <use xlink:href="#DejaVuSans-6e" transform="translate(3256.6875 0)"/>
    <use xlink:href="#DejaVuSans-74" transform="translate(3320.066406 0)"/>
   </g>
  </g>
 </g>
 <defs>
  <clipPath id="pf13bf7ec42">
   <rect x="54.295938" y="54.24" width="308.7125" height="207.32"/>
  </clipPath>
  <clipPath id="p2889a2613c">
   <rect x="389.198438" y="54.24" width="308.7125" height="207.32"/>
  </clipPath>
 </defs>
</svg>
