<?xml version="1.0" encoding="utf-8" standalone="no"?>
<!DOCTYPE svg PUBLIC "-//W3C//DTD SVG 1.1//EN"
  "http://www.w3.org/Graphics/SVG/1.1/DTD/svg11.dtd">
<svg xmlns:xlink="http://www.w3.org/1999/xlink" width="712.88125pt" height="285.438125pt" viewBox="0 0 712.88125 285.438125" xmlns="http://www.w3.org/2000/svg" version="1.1">
 <metadata>
  <rdf:RDF xmlns:dc="http://purl.org/dc/elements/1.1/" xmlns:cc="http://creativecommons.org/ns#" xmlns:rdf="http://www.w3.org/1999/02/22-rdf-syntax-ns#">
   <cc:Work>
    <dc:type rdf:resource="http://purl.org/dc/dcmitype/StillImage"/>
    <dc:date>2026-01-28T19:04:00.527217</dc:date>
    <dc:format>image/svg+xml</dc:format>
    <dc:creator>
     <cc:Agent>
      <dc:title>Matplotlib v3.10.8, https://matplotlib.org/</dc:title>
     </cc:Agent>
    </dc:creator>
   </cc:Work>
  </rdf:RDF>
 </metadata>
 <defs>
  <style type="text/css">*{stroke-linejoin: round; stroke-linecap: butt}</style>
 </defs>
 <g id="figure_1">
  <g id="patch_1">
   <path d="M 0 285.438125 
L 712.88125 285.438125 
L 712.88125 0 
L 0 0 
L 0 285.438125 
z
" style="fill: none"/>
  </g>
  <g id="axes_1">
   <g id="patch_2">
    <path d="M 60.658438 261.56 
L 366.220937 261.56 
L 366.220937 54.24 
L 60.658438 54.24 
L 60.658438 261.56 
z
" style="fill: none"/>
   </g>
   <g id="matplotlib.axis_1">
    <g id="xtick_1">
     <g id="line2d_1">
      <defs>
       <path id="m3e1238432c" d="M 0 0 
L 0 3.5 
" style="stroke: #000000; stroke-width: 0.8"/>
      </defs>
      <g>
       <use xlink:href="#m3e1238432c" x="60.658438" y="261.56" style="stroke: #000000; stroke-width: 0.8"/>
      </g>
     </g>
     <g id="text_1">
      <!-- Jan -->
      <g transform="translate(52.950625 276.158437) scale(0.1 -0.1)">
       <defs>
        <path id="DejaVuSans-4a" d="M 628 4666 
L 1259 4666 
L 1259 325 
Q 1259 -519 939 -900 
Q 619 -1281 -91 -1281 
L -331 -1281 
L -331 -750 
L -134 -750 
Q 284 -750 456 -515 
Q 628 -281 628 325 
L 628 4666 
z
" transform="scale(0.015625)"/>
        <path id="DejaVuSans-61" d="M 2194 1759 
Q 1497 1759 1228 1600 
Q 959 1441 959 1056 
Q 959 750 1161 570 
Q 1363 391 1709 391 
Q 2188 391 2477 730 
Q 2766 1069 2766 1631 
L 2766 1759 
L 2194 1759 
z
M 3341 1997 
L 3341 0 
L 2766 0 
L 2766 531 
Q 2569 213 2275 61 
Q 1981 -91 1556 -91 
Q 1019 -91 701 211 
Q 384 513 384 1019 
Q 384 1609 779 1909 
Q 1175 2209 1959 2209 
L 2766 2209 
L 2766 2266 
Q 2766 2663 2505 2880 
Q 2244 3097 1772 3097 
Q 1472 3097 1187 3025 
Q 903 2953 641 2809 
L 641 3341 
Q 956 3463 1253 3523 
Q 1550 3584 1831 3584 
Q 2591 3584 2966 3190 
Q 3341 2797 3341 1997 
z
" transform="scale(0.015625)"/>
        <path id="DejaVuSans-6e" d="M 3513 2113 
L 3513 0 
L 2938 0 
L 2938 2094 
Q 2938 2591 2744 2837 
Q 2550 3084 2163 3084 
Q 1697 3084 1428 2787 
Q 1159 2491 1159 1978 
L 1159 0 
L 581 0 
L 581 3500 
L 1159 3500 
L 1159 2956 
Q 1366 3272 1645 3428 
Q 1925 3584 2291 3584 
Q 2894 3584 3203 3211 
Q 3513 2838 3513 2113 
z
" transform="scale(0.015625)"/>
       </defs>
       <use xlink:href="#DejaVuSans-4a"/>
       <use xlink:href="#DejaVuSans-61" transform="translate(29.492188 0)"/>
       <use xlink:href="#DejaVuSans-6e" transform="translate(90.771484 0)"/>
      </g>
     </g>
    </g>
    <g id="xtick_2">
     <g id="line2d_2">
      <g>
       <use xlink:href="#m3e1238432c" x="86.610321" y="261.56" style="stroke: #000000; stroke-width: 0.8"/>
      </g>
     </g>
     <g id="text_2">
      <!-- Feb -->
      <g transform="translate(77.758759 276.158437) scale(0.1 -0.1)">
       <defs>
        <path id="DejaVuSans-46" d="M 628 4666 
L 3309 4666 
L 3309 4134 
L 1259 4134 
L 1259 2759 
L 3109 2759 
L 3109 2228 
L 1259 2228 
L 1259 0 
L 628 0 
L 628 4666 
z
" transform="scale(0.015625)"/>
        <path id="DejaVuSans-65" d="M 3597 1894 
L 3597 1613 
L 953 1613 
Q 991 1019 1311 708 
Q 1631 397 2203 397 
Q 2534 397 2845 478 
Q 3156 559 3463 722 
L 3463 178 
Q 3153 47 2828 -22 
Q 2503 -91 2169 -91 
Q 1331 -91 842 396 
Q 353 884 353 1716 
Q 353 2575 817 3079 
Q 1281 3584 2069 3584 
Q 2775 3584 3186 3129 
Q 3597 2675 3597 1894 
z
M 3022 2063 
Q 3016 2534 2758 2815 
Q 2500 3097 2075 3097 
Q 1594 3097 1305 2825 
Q 1016 2553 972 2059 
L 3022 2063 
z
" transform="scale(0.015625)"/>
        <path id="DejaVuSans-62" d="M 3116 1747 
Q 3116 2381 2855 2742 
Q 2594 3103 2138 3103 
Q 1681 3103 1420 2742 
Q 1159 2381 1159 1747 
Q 1159 1113 1420 752 
Q 1681 391 2138 391 
Q 2594 391 2855 752 
Q 3116 1113 3116 1747 
z
M 1159 2969 
Q 1341 3281 1617 3432 
Q 1894 3584 2278 3584 
Q 2916 3584 3314 3078 
Q 3713 2572 3713 1747 
Q 3713 922 3314 415 
Q 2916 -91 2278 -91 
Q 1894 -91 1617 61 
Q 1341 213 1159 525 
L 1159 0 
L 581 0 
L 581 4863 
L 1159 4863 
L 1159 2969 
z
" transform="scale(0.015625)"/>
       </defs>
       <use xlink:href="#DejaVuSans-46"/>
       <use xlink:href="#DejaVuSans-65" transform="translate(52.019531 0)"/>
       <use xlink:href="#DejaVuSans-62" transform="translate(113.542969 0)"/>
      </g>
     </g>
    </g>
    <g id="xtick_3">
     <g id="line2d_3">
      <g>
       <use xlink:href="#m3e1238432c" x="110.050732" y="261.56" style="stroke: #000000; stroke-width: 0.8"/>
      </g>
     </g>
     <g id="text_3">
      <!-- Mar -->
      <g transform="translate(100.617138 276.158437) scale(0.1 -0.1)">
       <defs>
        <path id="DejaVuSans-4d" d="M 628 4666 
L 1569 4666 
L 2759 1491 
L 3956 4666 
L 4897 4666 
L 4897 0 
L 4281 0 
L 4281 4097 
L 3078 897 
L 2444 897 
L 1241 4097 
L 1241 0 
L 628 0 
L 628 4666 
z
" transform="scale(0.015625)"/>
        <path id="DejaVuSans-72" d="M 2631 2963 
Q 2534 3019 2420 3045 
Q 2306 3072 2169 3072 
Q 1681 3072 1420 2755 
Q 1159 2438 1159 1844 
L 1159 0 
L 581 0 
L 581 3500 
L 1159 3500 
L 1159 2956 
Q 1341 3275 1631 3429 
Q 1922 3584 2338 3584 
Q 2397 3584 2469 3576 
Q 2541 3569 2628 3553 
L 2631 2963 
z
" transform="scale(0.015625)"/>
       </defs>
       <use xlink:href="#DejaVuSans-4d"/>
       <use xlink:href="#DejaVuSans-61" transform="translate(86.279297 0)"/>
       <use xlink:href="#DejaVuSans-72" transform="translate(147.558594 0)"/>
      </g>
     </g>
    </g>
    <g id="xtick_4">
     <g id="line2d_4">
      <g>
       <use xlink:href="#m3e1238432c" x="136.002616" y="261.56" style="stroke: #000000; stroke-width: 0.8"/>
      </g>
     </g>
     <g id="text_4">
      <!-- Apr -->
      <g transform="translate(127.352616 276.158437) scale(0.1 -0.1)">
       <defs>
        <path id="DejaVuSans-41" d="M 2188 4044 
L 1331 1722 
L 3047 1722 
L 2188 4044 
z
M 1831 4666 
L 2547 4666 
L 4325 0 
L 3669 0 
L 3244 1197 
L 1141 1197 
L 716 0 
L 50 0 
L 1831 4666 
z
" transform="scale(0.015625)"/>
        <path id="DejaVuSans-70" d="M 1159 525 
L 1159 -1331 
L 581 -1331 
L 581 3500 
L 1159 3500 
L 1159 2969 
Q 1341 3281 1617 3432 
Q 1894 3584 2278 3584 
Q 2916 3584 3314 3078 
Q 3713 2572 3713 1747 
Q 3713 922 3314 415 
Q 2916 -91 2278 -91 
Q 1894 -91 1617 61 
Q 1341 213 1159 525 
z
M 3116 1747 
Q 3116 2381 2855 2742 
Q 2594 3103 2138 3103 
Q 1681 3103 1420 2742 
Q 1159 2381 1159 1747 
Q 1159 1113 1420 752 
Q 1681 391 2138 391 
Q 2594 391 2855 752 
Q 3116 1113 3116 1747 
z
" transform="scale(0.015625)"/>
       </defs>
       <use xlink:href="#DejaVuSans-41"/>
       <use xlink:href="#DejaVuSans-70" transform="translate(68.408203 0)"/>
       <use xlink:href="#DejaVuSans-72" transform="translate(131.884766 0)"/>
      </g>
     </g>
    </g>
    <g id="xtick_5">
     <g id="line2d_5">
      <g>
       <use xlink:href="#m3e1238432c" x="161.117342" y="261.56" style="stroke: #000000; stroke-width: 0.8"/>
      </g>
     </g>
     <g id="text_5">
      <!-- May -->
      <g transform="translate(150.779842 276.158437) scale(0.1 -0.1)">
       <defs>
        <path id="DejaVuSans-79" d="M 2059 -325 
Q 1816 -950 1584 -1140 
Q 1353 -1331 966 -1331 
L 506 -1331 
L 506 -850 
L 844 -850 
Q 1081 -850 1212 -737 
Q 1344 -625 1503 -206 
L 1606 56 
L 191 3500 
L 800 3500 
L 1894 763 
L 2988 3500 
L 3597 3500 
L 2059 -325 
z
" transform="scale(0.015625)"/>
       </defs>
       <use xlink:href="#DejaVuSans-4d"/>
       <use xlink:href="#DejaVuSans-61" transform="translate(86.279297 0)"/>
       <use xlink:href="#DejaVuSans-79" transform="translate(147.558594 0)"/>
      </g>
     </g>
    </g>
    <g id="xtick_6">
     <g id="line2d_6">
      <g>
       <use xlink:href="#m3e1238432c" x="187.069225" y="261.56" style="stroke: #000000; stroke-width: 0.8"/>
      </g>
     </g>
     <g id="text_6">
      <!-- Jun -->
      <g transform="translate(179.256725 276.158437) scale(0.1 -0.1)">
       <defs>
        <path id="DejaVuSans-75" d="M 544 1381 
L 544 3500 
L 1119 3500 
L 1119 1403 
Q 1119 906 1312 657 
Q 1506 409 1894 409 
Q 2359 409 2629 706 
Q 2900 1003 2900 1516 
L 2900 3500 
L 3475 3500 
L 3475 0 
L 2900 0 
L 2900 538 
Q 2691 219 2414 64 
Q 2138 -91 1772 -91 
Q 1169 -91 856 284 
Q 544 659 544 1381 
z
M 1991 3584 
L 1991 3584 
z
" transform="scale(0.015625)"/>
       </defs>
       <use xlink:href="#DejaVuSans-4a"/>
       <use xlink:href="#DejaVuSans-75" transform="translate(29.492188 0)"/>
       <use xlink:href="#DejaVuSans-6e" transform="translate(92.871094 0)"/>
      </g>
     </g>
    </g>
    <g id="xtick_7">
     <g id="line2d_7">
      <g>
       <use xlink:href="#m3e1238432c" x="212.183951" y="261.56" style="stroke: #000000; stroke-width: 0.8"/>
      </g>
     </g>
     <g id="text_7">
      <!-- Jul -->
      <g transform="translate(206.151139 276.158437) scale(0.1 -0.1)">
       <defs>
        <path id="DejaVuSans-6c" d="M 603 4863 
L 1178 4863 
L 1178 0 
L 603 0 
L 603 4863 
z
" transform="scale(0.015625)"/>
       </defs>
       <use xlink:href="#DejaVuSans-4a"/>
       <use xlink:href="#DejaVuSans-75" transform="translate(29.492188 0)"/>
       <use xlink:href="#DejaVuSans-6c" transform="translate(92.871094 0)"/>
      </g>
     </g>
    </g>
    <g id="xtick_8">
     <g id="line2d_8">
      <g>
       <use xlink:href="#m3e1238432c" x="238.135835" y="261.56" style="stroke: #000000; stroke-width: 0.8"/>
      </g>
     </g>
     <g id="text_8">
      <!-- Aug -->
      <g transform="translate(228.372554 276.158437) scale(0.1 -0.1)">
       <defs>
        <path id="DejaVuSans-67" d="M 2906 1791 
Q 2906 2416 2648 2759 
Q 2391 3103 1925 3103 
Q 1463 3103 1205 2759 
Q 947 2416 947 1791 
Q 947 1169 1205 825 
Q 1463 481 1925 481 
Q 2391 481 2648 825 
Q 2906 1169 2906 1791 
z
M 3481 434 
Q 3481 -459 3084 -895 
Q 2688 -1331 1869 -1331 
Q 1566 -1331 1297 -1286 
Q 1028 -1241 775 -1147 
L 775 -588 
Q 1028 -725 1275 -790 
Q 1522 -856 1778 -856 
Q 2344 -856 2625 -561 
Q 2906 -266 2906 331 
L 2906 616 
Q 2728 306 2450 153 
Q 2172 0 1784 0 
Q 1141 0 747 490 
Q 353 981 353 1791 
Q 353 2603 747 3093 
Q 1141 3584 1784 3584 
Q 2172 3584 2450 3431 
Q 2728 3278 2906 2969 
L 2906 3500 
L 3481 3500 
L 3481 434 
z
" transform="scale(0.015625)"/>
       </defs>
       <use xlink:href="#DejaVuSans-41"/>
       <use xlink:href="#DejaVuSans-75" transform="translate(68.408203 0)"/>
       <use xlink:href="#DejaVuSans-67" transform="translate(131.787109 0)"/>
      </g>
     </g>
    </g>
    <g id="xtick_9">
     <g id="line2d_9">
      <g>
       <use xlink:href="#m3e1238432c" x="264.087718" y="261.56" style="stroke: #000000; stroke-width: 0.8"/>
      </g>
     </g>
     <g id="text_9">
      <!-- Sep -->
      <g transform="translate(254.662718 276.158437) scale(0.1 -0.1)">
       <defs>
        <path id="DejaVuSans-53" d="M 3425 4513 
L 3425 3897 
Q 3066 4069 2747 4153 
Q 2428 4238 2131 4238 
Q 1616 4238 1336 4038 
Q 1056 3838 1056 3469 
Q 1056 3159 1242 3001 
Q 1428 2844 1947 2747 
L 2328 2669 
Q 3034 2534 3370 2195 
Q 3706 1856 3706 1288 
Q 3706 609 3251 259 
Q 2797 -91 1919 -91 
Q 1588 -91 1214 -16 
Q 841 59 441 206 
L 441 856 
Q 825 641 1194 531 
Q 1563 422 1919 422 
Q 2459 422 2753 634 
Q 3047 847 3047 1241 
Q 3047 1584 2836 1778 
Q 2625 1972 2144 2069 
L 1759 2144 
Q 1053 2284 737 2584 
Q 422 2884 422 3419 
Q 422 4038 858 4394 
Q 1294 4750 2059 4750 
Q 2388 4750 2728 4690 
Q 3069 4631 3425 4513 
z
" transform="scale(0.015625)"/>
       </defs>
       <use xlink:href="#DejaVuSans-53"/>
       <use xlink:href="#DejaVuSans-65" transform="translate(63.476562 0)"/>
       <use xlink:href="#DejaVuSans-70" transform="translate(125 0)"/>
      </g>
     </g>
    </g>
    <g id="xtick_10">
     <g id="line2d_10">
      <g>
       <use xlink:href="#m3e1238432c" x="289.202444" y="261.56" style="stroke: #000000; stroke-width: 0.8"/>
      </g>
     </g>
     <g id="text_10">
      <!-- Oct -->
      <g transform="translate(280.557132 276.158437) scale(0.1 -0.1)">
       <defs>
        <path id="DejaVuSans-4f" d="M 2522 4238 
Q 1834 4238 1429 3725 
Q 1025 3213 1025 2328 
Q 1025 1447 1429 934 
Q 1834 422 2522 422 
Q 3209 422 3611 934 
Q 4013 1447 4013 2328 
Q 4013 3213 3611 3725 
Q 3209 4238 2522 4238 
z
M 2522 4750 
Q 3503 4750 4090 4092 
Q 4678 3434 4678 2328 
Q 4678 1225 4090 567 
Q 3503 -91 2522 -91 
Q 1538 -91 948 565 
Q 359 1222 359 2328 
Q 359 3434 948 4092 
Q 1538 4750 2522 4750 
z
" transform="scale(0.015625)"/>
        <path id="DejaVuSans-63" d="M 3122 3366 
L 3122 2828 
Q 2878 2963 2633 3030 
Q 2388 3097 2138 3097 
Q 1578 3097 1268 2742 
Q 959 2388 959 1747 
Q 959 1106 1268 751 
Q 1578 397 2138 397 
Q 2388 397 2633 464 
Q 2878 531 3122 666 
L 3122 134 
Q 2881 22 2623 -34 
Q 2366 -91 2075 -91 
Q 1284 -91 818 406 
Q 353 903 353 1747 
Q 353 2603 823 3093 
Q 1294 3584 2113 3584 
Q 2378 3584 2631 3529 
Q 2884 3475 3122 3366 
z
" transform="scale(0.015625)"/>
        <path id="DejaVuSans-74" d="M 1172 4494 
L 1172 3500 
L 2356 3500 
L 2356 3053 
L 1172 3053 
L 1172 1153 
Q 1172 725 1289 603 
Q 1406 481 1766 481 
L 2356 481 
L 2356 0 
L 1766 0 
Q 1100 0 847 248 
Q 594 497 594 1153 
L 594 3053 
L 172 3053 
L 172 3500 
L 594 3500 
L 594 4494 
L 1172 4494 
z
" transform="scale(0.015625)"/>
       </defs>
       <use xlink:href="#DejaVuSans-4f"/>
       <use xlink:href="#DejaVuSans-63" transform="translate(78.710938 0)"/>
       <use xlink:href="#DejaVuSans-74" transform="translate(133.691406 0)"/>
      </g>
     </g>
    </g>
    <g id="xtick_11">
     <g id="line2d_11">
      <g>
       <use xlink:href="#m3e1238432c" x="315.154328" y="261.56" style="stroke: #000000; stroke-width: 0.8"/>
      </g>
     </g>
     <g id="text_11">
      <!-- Nov -->
      <g transform="translate(305.394953 276.158437) scale(0.1 -0.1)">
       <defs>
        <path id="DejaVuSans-4e" d="M 628 4666 
L 1478 4666 
L 3547 763 
L 3547 4666 
L 4159 4666 
L 4159 0 
L 3309 0 
L 1241 3903 
L 1241 0 
L 628 0 
L 628 4666 
z
" transform="scale(0.015625)"/>
        <path id="DejaVuSans-6f" d="M 1959 3097 
Q 1497 3097 1228 2736 
Q 959 2375 959 1747 
Q 959 1119 1226 758 
Q 1494 397 1959 397 
Q 2419 397 2687 759 
Q 2956 1122 2956 1747 
Q 2956 2369 2687 2733 
Q 2419 3097 1959 3097 
z
M 1959 3584 
Q 2709 3584 3137 3096 
Q 3566 2609 3566 1747 
Q 3566 888 3137 398 
Q 2709 -91 1959 -91 
Q 1206 -91 779 398 
Q 353 888 353 1747 
Q 353 2609 779 3096 
Q 1206 3584 1959 3584 
z
" transform="scale(0.015625)"/>
        <path id="DejaVuSans-76" d="M 191 3500 
L 800 3500 
L 1894 563 
L 2988 3500 
L 3597 3500 
L 2284 0 
L 1503 0 
L 191 3500 
z
" transform="scale(0.015625)"/>
       </defs>
       <use xlink:href="#DejaVuSans-4e"/>
       <use xlink:href="#DejaVuSans-6f" transform="translate(74.804688 0)"/>
       <use xlink:href="#DejaVuSans-76" transform="translate(135.986328 0)"/>
      </g>
     </g>
    </g>
    <g id="xtick_12">
     <g id="line2d_12">
      <g>
       <use xlink:href="#m3e1238432c" x="340.269054" y="261.56" style="stroke: #000000; stroke-width: 0.8"/>
      </g>
     </g>
     <g id="text_12">
      <!-- Dec -->
      <g transform="translate(330.593273 276.158437) scale(0.1 -0.1)">
       <defs>
        <path id="DejaVuSans-44" d="M 1259 4147 
L 1259 519 
L 2022 519 
Q 2988 519 3436 956 
Q 3884 1394 3884 2338 
Q 3884 3275 3436 3711 
Q 2988 4147 2022 4147 
L 1259 4147 
z
M 628 4666 
L 1925 4666 
Q 3281 4666 3915 4102 
Q 4550 3538 4550 2338 
Q 4550 1131 3912 565 
Q 3275 0 1925 0 
L 628 0 
L 628 4666 
z
" transform="scale(0.015625)"/>
       </defs>
       <use xlink:href="#DejaVuSans-44"/>
       <use xlink:href="#DejaVuSans-65" transform="translate(77.001953 0)"/>
       <use xlink:href="#DejaVuSans-63" transform="translate(138.525391 0)"/>
      </g>
     </g>
    </g>
    <g id="xtick_13">
     <g id="line2d_13">
      <g>
       <use xlink:href="#m3e1238432c" x="366.220937" y="261.56" style="stroke: #000000; stroke-width: 0.8"/>
      </g>
     </g>
     <g id="text_13">
      <!-- Jan -->
      <g transform="translate(358.513125 276.158437) scale(0.1 -0.1)">
       <use xlink:href="#DejaVuSans-4a"/>
       <use xlink:href="#DejaVuSans-61" transform="translate(29.492188 0)"/>
       <use xlink:href="#DejaVuSans-6e" transform="translate(90.771484 0)"/>
      </g>
     </g>
    </g>
   </g>
   <g id="matplotlib.axis_2">
    <g id="ytick_1">
     <g id="line2d_14">
      <path d="M 60.658438 248.703098 
L 366.220937 248.703098 
" clip-path="url(#p9a91e2bd0c)" style="fill: none; stroke-dasharray: 2.96,1.28; stroke-dashoffset: 0; stroke: #b0b0b0; stroke-opacity: 0.3; stroke-width: 0.8"/>
     </g>
     <g id="line2d_15">
      <defs>
       <path id="m57ca5470fa" d="M 0 0 
L -3.5 0 
" style="stroke: #000000; stroke-width: 0.8"/>
      </defs>
      <g>
       <use xlink:href="#m57ca5470fa" x="60.658438" y="248.703098" style="stroke: #000000; stroke-width: 0.8"/>
      </g>
     </g>
     <g id="text_14">
      <!-- 10000 -->
      <g transform="translate(21.845938 252.502317) scale(0.1 -0.1)">
       <defs>
        <path id="DejaVuSans-31" d="M 794 531 
L 1825 531 
L 1825 4091 
L 703 3866 
L 703 4441 
L 1819 4666 
L 2450 4666 
L 2450 531 
L 3481 531 
L 3481 0 
L 794 0 
L 794 531 
z
" transform="scale(0.015625)"/>
        <path id="DejaVuSans-30" d="M 2034 4250 
Q 1547 4250 1301 3770 
Q 1056 3291 1056 2328 
Q 1056 1369 1301 889 
Q 1547 409 2034 409 
Q 2525 409 2770 889 
Q 3016 1369 3016 2328 
Q 3016 3291 2770 3770 
Q 2525 4250 2034 4250 
z
M 2034 4750 
Q 2819 4750 3233 4129 
Q 3647 3509 3647 2328 
Q 3647 1150 3233 529 
Q 2819 -91 2034 -91 
Q 1250 -91 836 529 
Q 422 1150 422 2328 
Q 422 3509 836 4129 
Q 1250 4750 2034 4750 
z
" transform="scale(0.015625)"/>
       </defs>
       <use xlink:href="#DejaVuSans-31"/>
       <use xlink:href="#DejaVuSans-30" transform="translate(63.623047 0)"/>
       <use xlink:href="#DejaVuSans-30" transform="translate(127.246094 0)"/>
       <use xlink:href="#DejaVuSans-30" transform="translate(190.869141 0)"/>
       <use xlink:href="#DejaVuSans-30" transform="translate(254.492188 0)"/>
      </g>
     </g>
    </g>
    <g id="ytick_2">
     <g id="line2d_16">
      <path d="M 60.658438 218.785435 
L 366.220937 218.785435 
" clip-path="url(#p9a91e2bd0c)" style="fill: none; stroke-dasharray: 2.96,1.28; stroke-dashoffset: 0; stroke: #b0b0b0; stroke-opacity: 0.3; stroke-width: 0.8"/>
     </g>
     <g id="line2d_17">
      <g>
       <use xlink:href="#m57ca5470fa" x="60.658438" y="218.785435" style="stroke: #000000; stroke-width: 0.8"/>
      </g>
     </g>
     <g id="text_15">
      <!-- 15000 -->
      <g transform="translate(21.845938 222.584654) scale(0.1 -0.1)">
       <defs>
        <path id="DejaVuSans-35" d="M 691 4666 
L 3169 4666 
L 3169 4134 
L 1269 4134 
L 1269 2991 
Q 1406 3038 1543 3061 
Q 1681 3084 1819 3084 
Q 2600 3084 3056 2656 
Q 3513 2228 3513 1497 
Q 3513 744 3044 326 
Q 2575 -91 1722 -91 
Q 1428 -91 1123 -41 
Q 819 9 494 109 
L 494 744 
Q 775 591 1075 516 
Q 1375 441 1709 441 
Q 2250 441 2565 725 
Q 2881 1009 2881 1497 
Q 2881 1984 2565 2268 
Q 2250 2553 1709 2553 
Q 1456 2553 1204 2497 
Q 953 2441 691 2322 
L 691 4666 
z
" transform="scale(0.015625)"/>
       </defs>
       <use xlink:href="#DejaVuSans-31"/>
       <use xlink:href="#DejaVuSans-35" transform="translate(63.623047 0)"/>
       <use xlink:href="#DejaVuSans-30" transform="translate(127.246094 0)"/>
       <use xlink:href="#DejaVuSans-30" transform="translate(190.869141 0)"/>
       <use xlink:href="#DejaVuSans-30" transform="translate(254.492188 0)"/>
      </g>
     </g>
    </g>
    <g id="ytick_3">
     <g id="line2d_18">
      <path d="M 60.658438 188.867773 
L 366.220937 188.867773 
" clip-path="url(#p9a91e2bd0c)" style="fill: none; stroke-dasharray: 2.96,1.28; stroke-dashoffset: 0; stroke: #b0b0b0; stroke-opacity: 0.3; stroke-width: 0.8"/>
     </g>
     <g id="line2d_19">
      <g>
       <use xlink:href="#m57ca5470fa" x="60.658438" y="188.867773" style="stroke: #000000; stroke-width: 0.8"/>
      </g>
     </g>
     <g id="text_16">
      <!-- 20000 -->
      <g transform="translate(21.845938 192.666991) scale(0.1 -0.1)">
       <defs>
        <path id="DejaVuSans-32" d="M 1228 531 
L 3431 531 
L 3431 0 
L 469 0 
L 469 531 
Q 828 903 1448 1529 
Q 2069 2156 2228 2338 
Q 2531 2678 2651 2914 
Q 2772 3150 2772 3378 
Q 2772 3750 2511 3984 
Q 2250 4219 1831 4219 
Q 1534 4219 1204 4116 
Q 875 4013 500 3803 
L 500 4441 
Q 881 4594 1212 4672 
Q 1544 4750 1819 4750 
Q 2544 4750 2975 4387 
Q 3406 4025 3406 3419 
Q 3406 3131 3298 2873 
Q 3191 2616 2906 2266 
Q 2828 2175 2409 1742 
Q 1991 1309 1228 531 
z
" transform="scale(0.015625)"/>
       </defs>
       <use xlink:href="#DejaVuSans-32"/>
       <use xlink:href="#DejaVuSans-30" transform="translate(63.623047 0)"/>
       <use xlink:href="#DejaVuSans-30" transform="translate(127.246094 0)"/>
       <use xlink:href="#DejaVuSans-30" transform="translate(190.869141 0)"/>
       <use xlink:href="#DejaVuSans-30" transform="translate(254.492188 0)"/>
      </g>
     </g>
    </g>
    <g id="ytick_4">
     <g id="line2d_20">
      <path d="M 60.658438 158.95011 
L 366.220937 158.95011 
" clip-path="url(#p9a91e2bd0c)" style="fill: none; stroke-dasharray: 2.96,1.28; stroke-dashoffset: 0; stroke: #b0b0b0; stroke-opacity: 0.3; stroke-width: 0.8"/>
     </g>
     <g id="line2d_21">
      <g>
       <use xlink:href="#m57ca5470fa" x="60.658438" y="158.95011" style="stroke: #000000; stroke-width: 0.8"/>
      </g>
     </g>
     <g id="text_17">
      <!-- 25000 -->
      <g transform="translate(21.845938 162.749329) scale(0.1 -0.1)">
       <use xlink:href="#DejaVuSans-32"/>
       <use xlink:href="#DejaVuSans-35" transform="translate(63.623047 0)"/>
       <use xlink:href="#DejaVuSans-30" transform="translate(127.246094 0)"/>
       <use xlink:href="#DejaVuSans-30" transform="translate(190.869141 0)"/>
       <use xlink:href="#DejaVuSans-30" transform="translate(254.492188 0)"/>
      </g>
     </g>
    </g>
    <g id="ytick_5">
     <g id="line2d_22">
      <path d="M 60.658438 129.032447 
L 366.220937 129.032447 
" clip-path="url(#p9a91e2bd0c)" style="fill: none; stroke-dasharray: 2.96,1.28; stroke-dashoffset: 0; stroke: #b0b0b0; stroke-opacity: 0.3; stroke-width: 0.8"/>
     </g>
     <g id="line2d_23">
      <g>
       <use xlink:href="#m57ca5470fa" x="60.658438" y="129.032447" style="stroke: #000000; stroke-width: 0.8"/>
      </g>
     </g>
     <g id="text_18">
      <!-- 30000 -->
      <g transform="translate(21.845938 132.831666) scale(0.1 -0.1)">
       <defs>
        <path id="DejaVuSans-33" d="M 2597 2516 
Q 3050 2419 3304 2112 
Q 3559 1806 3559 1356 
Q 3559 666 3084 287 
Q 2609 -91 1734 -91 
Q 1441 -91 1130 -33 
Q 819 25 488 141 
L 488 750 
Q 750 597 1062 519 
Q 1375 441 1716 441 
Q 2309 441 2620 675 
Q 2931 909 2931 1356 
Q 2931 1769 2642 2001 
Q 2353 2234 1838 2234 
L 1294 2234 
L 1294 2753 
L 1863 2753 
Q 2328 2753 2575 2939 
Q 2822 3125 2822 3475 
Q 2822 3834 2567 4026 
Q 2313 4219 1838 4219 
Q 1578 4219 1281 4162 
Q 984 4106 628 3988 
L 628 4550 
Q 988 4650 1302 4700 
Q 1616 4750 1894 4750 
Q 2613 4750 3031 4423 
Q 3450 4097 3450 3541 
Q 3450 3153 3228 2886 
Q 3006 2619 2597 2516 
z
" transform="scale(0.015625)"/>
       </defs>
       <use xlink:href="#DejaVuSans-33"/>
       <use xlink:href="#DejaVuSans-30" transform="translate(63.623047 0)"/>
       <use xlink:href="#DejaVuSans-30" transform="translate(127.246094 0)"/>
       <use xlink:href="#DejaVuSans-30" transform="translate(190.869141 0)"/>
       <use xlink:href="#DejaVuSans-30" transform="translate(254.492188 0)"/>
      </g>
     </g>
    </g>
    <g id="ytick_6">
     <g id="line2d_24">
      <path d="M 60.658438 99.114785 
L 366.220937 99.114785 
" clip-path="url(#p9a91e2bd0c)" style="fill: none; stroke-dasharray: 2.96,1.28; stroke-dashoffset: 0; stroke: #b0b0b0; stroke-opacity: 0.3; stroke-width: 0.8"/>
     </g>
     <g id="line2d_25">
      <g>
       <use xlink:href="#m57ca5470fa" x="60.658438" y="99.114785" style="stroke: #000000; stroke-width: 0.8"/>
      </g>
     </g>
     <g id="text_19">
      <!-- 35000 -->
      <g transform="translate(21.845938 102.914003) scale(0.1 -0.1)">
       <use xlink:href="#DejaVuSans-33"/>
       <use xlink:href="#DejaVuSans-35" transform="translate(63.623047 0)"/>
       <use xlink:href="#DejaVuSans-30" transform="translate(127.246094 0)"/>
       <use xlink:href="#DejaVuSans-30" transform="translate(190.869141 0)"/>
       <use xlink:href="#DejaVuSans-30" transform="translate(254.492188 0)"/>
      </g>
     </g>
    </g>
    <g id="ytick_7">
     <g id="line2d_26">
      <path d="M 60.658438 69.197122 
L 366.220937 69.197122 
" clip-path="url(#p9a91e2bd0c)" style="fill: none; stroke-dasharray: 2.96,1.28; stroke-dashoffset: 0; stroke: #b0b0b0; stroke-opacity: 0.3; stroke-width: 0.8"/>
     </g>
     <g id="line2d_27">
      <g>
       <use xlink:href="#m57ca5470fa" x="60.658438" y="69.197122" style="stroke: #000000; stroke-width: 0.8"/>
      </g>
     </g>
     <g id="text_20">
      <!-- 40000 -->
      <g transform="translate(21.845938 72.996341) scale(0.1 -0.1)">
       <defs>
        <path id="DejaVuSans-34" d="M 2419 4116 
L 825 1625 
L 2419 1625 
L 2419 4116 
z
M 2253 4666 
L 3047 4666 
L 3047 1625 
L 3713 1625 
L 3713 1100 
L 3047 1100 
L 3047 0 
L 2419 0 
L 2419 1100 
L 313 1100 
L 313 1709 
L 2253 4666 
z
" transform="scale(0.015625)"/>
       </defs>
       <use xlink:href="#DejaVuSans-34"/>
       <use xlink:href="#DejaVuSans-30" transform="translate(63.623047 0)"/>
       <use xlink:href="#DejaVuSans-30" transform="translate(127.246094 0)"/>
       <use xlink:href="#DejaVuSans-30" transform="translate(190.869141 0)"/>
       <use xlink:href="#DejaVuSans-30" transform="translate(254.492188 0)"/>
      </g>
     </g>
    </g>
    <g id="text_21">
     <!-- Daily pedestrian count -->
     <g transform="translate(15.558281 220.247656) rotate(-90) scale(0.11 -0.11)">
      <defs>
       <path id="DejaVuSans-69" d="M 603 3500 
L 1178 3500 
L 1178 0 
L 603 0 
L 603 3500 
z
M 603 4863 
L 1178 4863 
L 1178 4134 
L 603 4134 
L 603 4863 
z
" transform="scale(0.015625)"/>
       <path id="DejaVuSans-20" transform="scale(0.015625)"/>
       <path id="DejaVuSans-64" d="M 2906 2969 
L 2906 4863 
L 3481 4863 
L 3481 0 
L 2906 0 
L 2906 525 
Q 2725 213 2448 61 
Q 2172 -91 1784 -91 
Q 1150 -91 751 415 
Q 353 922 353 1747 
Q 353 2572 751 3078 
Q 1150 3584 1784 3584 
Q 2172 3584 2448 3432 
Q 2725 3281 2906 2969 
z
M 947 1747 
Q 947 1113 1208 752 
Q 1469 391 1925 391 
Q 2381 391 2643 752 
Q 2906 1113 2906 1747 
Q 2906 2381 2643 2742 
Q 2381 3103 1925 3103 
Q 1469 3103 1208 2742 
Q 947 2381 947 1747 
z
" transform="scale(0.015625)"/>
       <path id="DejaVuSans-73" d="M 2834 3397 
L 2834 2853 
Q 2591 2978 2328 3040 
Q 2066 3103 1784 3103 
Q 1356 3103 1142 2972 
Q 928 2841 928 2578 
Q 928 2378 1081 2264 
Q 1234 2150 1697 2047 
L 1894 2003 
Q 2506 1872 2764 1633 
Q 3022 1394 3022 966 
Q 3022 478 2636 193 
Q 2250 -91 1575 -91 
Q 1294 -91 989 -36 
Q 684 19 347 128 
L 347 722 
Q 666 556 975 473 
Q 1284 391 1588 391 
Q 1994 391 2212 530 
Q 2431 669 2431 922 
Q 2431 1156 2273 1281 
Q 2116 1406 1581 1522 
L 1381 1569 
Q 847 1681 609 1914 
Q 372 2147 372 2553 
Q 372 3047 722 3315 
Q 1072 3584 1716 3584 
Q 2034 3584 2315 3537 
Q 2597 3491 2834 3397 
z
" transform="scale(0.015625)"/>
      </defs>
      <use xlink:href="#DejaVuSans-44"/>
      <use xlink:href="#DejaVuSans-61" transform="translate(77.001953 0)"/>
      <use xlink:href="#DejaVuSans-69" transform="translate(138.28125 0)"/>
      <use xlink:href="#DejaVuSans-6c" transform="translate(166.064453 0)"/>
      <use xlink:href="#DejaVuSans-79" transform="translate(193.847656 0)"/>
      <use xlink:href="#DejaVuSans-20" transform="translate(253.027344 0)"/>
      <use xlink:href="#DejaVuSans-70" transform="translate(284.814453 0)"/>
      <use xlink:href="#DejaVuSans-65" transform="translate(348.291016 0)"/>
      <use xlink:href="#DejaVuSans-64" transform="translate(409.814453 0)"/>
      <use xlink:href="#DejaVuSans-65" transform="translate(473.291016 0)"/>
      <use xlink:href="#DejaVuSans-73" transform="translate(534.814453 0)"/>
      <use xlink:href="#DejaVuSans-74" transform="translate(586.914062 0)"/>
      <use xlink:href="#DejaVuSans-72" transform="translate(626.123047 0)"/>
      <use xlink:href="#DejaVuSans-69" transform="translate(667.236328 0)"/>
      <use xlink:href="#DejaVuSans-61" transform="translate(695.019531 0)"/>
      <use xlink:href="#DejaVuSans-6e" transform="translate(756.298828 0)"/>
      <use xlink:href="#DejaVuSans-20" transform="translate(819.677734 0)"/>
      <use xlink:href="#DejaVuSans-63" transform="translate(851.464844 0)"/>
      <use xlink:href="#DejaVuSans-6f" transform="translate(906.445312 0)"/>
      <use xlink:href="#DejaVuSans-75" transform="translate(967.626953 0)"/>
      <use xlink:href="#DejaVuSans-6e" transform="translate(1031.005859 0)"/>
      <use xlink:href="#DejaVuSans-74" transform="translate(1094.384766 0)"/>
     </g>
    </g>
   </g>
   <g id="line2d_28">
    <path d="M 75.727273 127.7883 
L 78.238746 126.176165 
L 79.913061 128.684548 
L 80.750218 125.476519 
L 81.587376 130.036826 
L 84.098848 132.816177 
L 84.936006 134.469769 
L 85.773164 137.26878 
L 87.447479 137.988513 
L 89.958951 140.693497 
L 90.796109 138.077411 
L 91.633266 137.649589 
L 92.470424 136.557594 
L 93.307581 136.206703 
L 95.819054 137.487179 
L 96.656211 139.44764 
L 97.493369 139.430117 
L 98.330527 135.73956 
L 99.167684 128.860207 
L 101.679157 126.975394 
L 102.516314 126.65442 
L 103.353472 123.523323 
L 104.190629 125.073058 
L 105.027787 116.868353 
L 107.539259 115.65626 
L 108.376417 114.037715 
L 109.213574 112.803397 
L 110.050732 113.737256 
L 110.88789 110.587781 
L 113.399362 108.678179 
L 114.23652 110.79293 
L 115.073677 114.03686 
L 115.910835 114.110799 
L 116.747992 109.938995 
L 119.259465 110.025756 
L 120.096622 112.352495 
L 120.93378 113.296184 
L 121.770938 115.284426 
L 122.608095 110.293305 
L 125.119568 109.499205 
L 125.956725 111.321618 
L 126.793883 113.505608 
L 127.63104 113.990274 
L 128.468198 109.65435 
L 130.97967 109.873176 
L 131.816828 109.770174 
L 132.653985 111.246824 
L 133.491143 112.328134 
L 134.328301 109.126944 
L 136.839773 108.297797 
L 137.676931 107.631061 
L 138.514088 110.111663 
L 139.351246 114.294152 
L 140.188403 111.158781 
L 142.699876 110.983121 
L 143.537033 109.258582 
L 144.374191 109.471852 
L 145.211348 110.685227 
L 146.048506 103.568242 
L 148.559979 102.338199 
L 149.397136 101.084222 
L 150.234294 101.686421 
L 151.071451 99.43875 
L 151.908609 101.110293 
L 154.420081 102.540784 
L 156.094396 102.089455 
L 156.931554 106.120646 
L 157.768711 104.467054 
L 160.280184 106.229205 
L 161.117342 107.508826 
L 161.954499 109.500487 
L 162.791657 114.410403 
L 163.628814 111.735764 
L 166.140287 114.728813 
L 166.977444 116.595675 
L 167.814602 121.380791 
L 168.651759 117.801784 
L 169.488917 116.249485 
L 172.00039 117.337633 
L 172.837547 119.752843 
L 173.674705 120.239219 
L 174.511862 121.026908 
L 175.34902 115.963557 
L 177.860492 116.721329 
L 178.69765 118.433047 
L 179.534807 118.611271 
L 180.371965 121.212825 
L 181.209122 117.16753 
L 184.557753 119.522904 
L 185.39491 122.025731 
L 186.232068 121.922728 
L 187.069225 118.880957 
L 189.580698 120.804235 
L 190.417855 120.447788 
L 191.255013 121.269241 
L 192.09217 124.519582 
L 192.929328 119.757117 
L 195.440801 120.30461 
L 196.277958 121.343181 
L 197.115116 125.194866 
L 197.952273 127.63401 
L 198.789431 123.203204 
L 201.300903 122.850176 
L 202.138061 123.191665 
L 203.812376 126.768535 
L 204.649533 120.211011 
L 207.161006 120.097324 
L 207.998164 119.701983 
L 208.835321 119.49085 
L 209.672479 120.925615 
L 210.509636 115.325029 
L 213.021109 114.557 
L 213.858266 111.801156 
L 214.695424 113.1607 
L 215.532581 115.481028 
L 216.369739 112.376002 
L 218.881211 111.576773 
L 219.718369 111.667381 
L 220.555527 113.725289 
L 221.392684 119.403661 
L 222.229842 118.780946 
L 224.741314 121.131193 
L 225.578472 124.296481 
L 227.252787 132.949951 
L 228.089944 131.054881 
L 230.601417 133.146981 
L 231.438574 135.360888 
L 232.275732 136.276796 
L 233.11289 138.924509 
L 233.950047 137.786783 
L 236.46152 138.715512 
L 237.298677 138.457366 
L 238.135835 137.258095 
L 238.972992 136.957209 
L 239.81015 131.227121 
L 242.321622 128.66275 
L 243.15878 127.183963 
L 243.995938 127.040786 
L 244.833095 128.390927 
L 245.670253 124.983305 
L 248.181725 123.124136 
L 249.018883 123.443828 
L 249.85604 123.148498 
L 250.693198 122.065478 
L 251.530355 117.815888 
L 254.041828 117.644075 
L 254.878985 118.035142 
L 255.716143 119.291256 
L 256.553301 121.332496 
L 257.390458 116.294361 
L 259.901931 116.53413 
L 265.762033 117.723143 
L 266.599191 118.72453 
L 267.436348 120.62302 
L 268.273506 118.840782 
L 269.110664 115.593861 
L 271.622136 117.272241 
L 273.296451 119.871232 
L 274.133609 118.31765 
L 274.970766 114.221495 
L 277.482239 114.789503 
L 278.319396 117.359003 
L 279.156554 122.321488 
L 279.993711 119.905851 
L 280.830869 113.845387 
L 283.342342 113.798373 
L 285.016657 113.036755 
L 286.690972 109.167547 
L 289.202444 108.935898 
L 290.039602 107.527204 
L 290.876759 104.856411 
L 291.713917 104.660664 
L 292.551074 101.246204 
L 295.062547 101.076956 
L 296.736862 103.97555 
L 297.57402 108.708952 
L 298.411177 104.241817 
L 300.92265 104.635021 
L 301.759807 106.265106 
L 302.596965 111.488302 
L 303.434122 112.086228 
L 304.27128 107.016894 
L 306.782753 109.799237 
L 307.61991 112.656373 
L 308.457068 113.734691 
L 309.294225 114.091994 
L 310.131383 110.242445 
L 313.480013 108.48927 
L 314.31717 107.514382 
L 315.154328 109.735982 
L 315.991485 106.842944 
L 318.502958 104.568774 
L 319.340116 105.08635 
L 320.177273 104.391833 
L 321.014431 110.355705 
L 321.851588 108.423024 
L 324.363061 106.842517 
L 325.200218 110.308264 
L 326.037376 111.454538 
L 326.874533 111.269049 
L 327.711691 108.010588 
L 330.223164 106.516414 
L 331.060321 105.570589 
L 331.897479 104.418331 
L 332.734636 107.549856 
L 333.571794 104.140952 
L 336.083266 101.668471 
L 336.920424 102.106123 
L 337.757581 97.881749 
L 338.594739 96.680342 
L 339.431896 91.033596 
L 341.943369 89.949295 
L 342.780527 89.848002 
L 343.617684 90.439945 
L 344.454842 90.7934 
L 345.291999 88.13543 
L 347.803472 90.303605 
L 348.640629 92.369206 
L 349.477787 89.821504 
L 350.314944 91.514843 
L 351.152102 87.650764 
L 353.663574 82.499369 
L 354.500732 80.420947 
L 355.33789 79.934144 
L 356.175047 80.653022 
L 357.012205 79.04217 
L 359.523677 72.305567 
L 360.360835 67.105877 
L 361.197992 70.893026 
L 362.03515 68.548763 
L 362.872307 63.663636 
L 365.38378 67.048606 
L 366.220937 65.911308 
L 366.220937 65.911308 
" clip-path="url(#p9a91e2bd0c)" style="fill: none; stroke: #0d6efc; stroke-opacity: 0.5; stroke-width: 1.5; stroke-linecap: square"/>
   </g>
   <g id="line2d_29">
    <path d="M 100.841999 137.345284 
L 105.864944 134.702272 
L 106.702102 132.277659 
L 111.725047 131.030947 
L 112.562205 133.909454 
L 117.58515 131.925913 
L 118.422307 129.199559 
L 123.445253 125.795356 
L 124.28241 123.757963 
L 129.305355 121.5385 
L 130.142513 117.44149 
L 135.165458 116.264016 
L 136.002616 118.054375 
L 141.025561 116.749537 
L 141.862718 113.941123 
L 146.885664 113.520139 
L 147.722821 113.825727 
L 152.745766 108.929487 
L 153.582924 103.721677 
L 158.605869 105.433395 
L 159.443027 108.552525 
L 164.465972 110.734805 
L 165.303129 110.97842 
L 170.326074 111.728926 
L 171.163232 113.259855 
L 176.186177 111.480182 
L 177.023335 111.07843 
L 182.04628 113.031199 
L 182.883438 115.448546 
L 187.906383 117.225655 
L 188.74354 119.851999 
L 193.766485 122.46552 
L 194.603643 122.685629 
L 199.626588 122.362091 
L 200.463746 121.257701 
L 205.486691 120.637551 
L 206.323848 120.786285 
L 211.346794 122.68221 
L 212.183951 120.163997 
L 217.206896 122.270628 
L 218.044054 124.039617 
L 223.066999 125.258548 
L 223.904157 127.113015 
L 228.927102 128.678137 
L 229.764259 129.141006 
L 234.787205 130.515509 
L 235.624362 132.75164 
L 240.647307 132.01994 
L 241.484465 131.482704 
L 246.50741 132.634534 
L 247.344568 132.769591 
L 252.367513 128.702926 
L 253.20467 131.342518 
L 258.227616 128.837982 
L 259.064773 127.442537 
L 264.924876 128.640526 
L 269.947821 124.397346 
L 270.784979 126.987789 
L 275.807924 122.576643 
L 276.645081 126.221042 
L 281.668027 124.564458 
L 282.505184 127.270297 
L 287.528129 126.905729 
L 288.365287 128.916623 
L 293.388232 125.360695 
L 294.22539 129.239734 
L 299.248335 124.277676 
L 300.085492 127.916518 
L 305.108437 125.282055 
L 305.945595 124.672162 
L 310.96854 125.306416 
L 311.805698 124.445642 
L 316.828643 127.672476 
L 317.665801 126.553128 
L 322.688746 126.393282 
L 323.525903 126.627922 
L 328.548848 122.991644 
L 329.386006 121.229066 
L 334.408951 119.98791 
L 335.246109 117.647067 
L 340.269054 116.510196 
L 341.106211 115.653696 
L 346.129157 111.33444 
L 346.966314 106.674978 
L 351.989259 102.053981 
L 352.826417 98.368125 
L 357.849362 93.513343 
L 358.68652 86.969923 
L 363.709465 84.764564 
L 364.546622 82.868211 
" clip-path="url(#p9a91e2bd0c)" style="fill: none; stroke: #83c966; stroke-opacity: 0.5; stroke-width: 1.5; stroke-linecap: square"/>
   </g>
   <g id="line2d_30">
    <path d="M 60.658438 91.05825 
L 366.220937 91.05825 
" clip-path="url(#p9a91e2bd0c)" style="fill: none; stroke-dasharray: 7.4,3.2; stroke-dashoffset: 0; stroke: #0d6efc; stroke-width: 2"/>
   </g>
   <g id="line2d_31">
    <path d="M 60.658438 100.50281 
L 366.220937 100.50281 
" clip-path="url(#p9a91e2bd0c)" style="fill: none; stroke-dasharray: 7.4,3.2; stroke-dashoffset: 0; stroke: #83c966; stroke-width: 2"/>
   </g>
   <g id="patch_3">
    <path d="M 60.658438 261.56 
L 60.658438 54.24 
" style="fill: none; stroke: #000000; stroke-width: 0.8; stroke-linejoin: miter; stroke-linecap: square"/>
   </g>
   <g id="patch_4">
    <path d="M 60.658438 261.56 
L 366.220937 261.56 
" style="fill: none; stroke: #000000; stroke-width: 0.8; stroke-linejoin: miter; stroke-linecap: square"/>
   </g>
   <g id="text_22">
    <!-- 2019 -->
    <g transform="translate(195.624687 48.24) scale(0.14 -0.14)">
     <defs>
      <path id="DejaVuSans-39" d="M 703 97 
L 703 672 
Q 941 559 1184 500 
Q 1428 441 1663 441 
Q 2288 441 2617 861 
Q 2947 1281 2994 2138 
Q 2813 1869 2534 1725 
Q 2256 1581 1919 1581 
Q 1219 1581 811 2004 
Q 403 2428 403 3163 
Q 403 3881 828 4315 
Q 1253 4750 1959 4750 
Q 2769 4750 3195 4129 
Q 3622 3509 3622 2328 
Q 3622 1225 3098 567 
Q 2575 -91 1691 -91 
Q 1453 -91 1209 -44 
Q 966 3 703 97 
z
M 1959 2075 
Q 2384 2075 2632 2365 
Q 2881 2656 2881 3163 
Q 2881 3666 2632 3958 
Q 2384 4250 1959 4250 
Q 1534 4250 1286 3958 
Q 1038 3666 1038 3163 
Q 1038 2656 1286 2365 
Q 1534 2075 1959 2075 
z
" transform="scale(0.015625)"/>
     </defs>
     <use xlink:href="#DejaVuSans-32"/>
     <use xlink:href="#DejaVuSans-30" transform="translate(63.623047 0)"/>
     <use xlink:href="#DejaVuSans-31" transform="translate(127.246094 0)"/>
     <use xlink:href="#DejaVuSans-39" transform="translate(190.869141 0)"/>
    </g>
   </g>
   <g id="legend_1">
    <g id="line2d_32">
     <path d="M 68.758437 208.807344 
L 77.758437 208.807344 
L 86.758437 208.807344 
" style="fill: none; stroke: #0d6efc; stroke-opacity: 0.5; stroke-width: 1.5; stroke-linecap: square"/>
    </g>
    <g id="text_23">
     <!-- Weekday -->
     <g transform="translate(93.958438 211.957344) scale(0.09 -0.09)">
      <defs>
       <path id="DejaVuSans-57" d="M 213 4666 
L 850 4666 
L 1831 722 
L 2809 4666 
L 3519 4666 
L 4500 722 
L 5478 4666 
L 6119 4666 
L 4947 0 
L 4153 0 
L 3169 4050 
L 2175 0 
L 1381 0 
L 213 4666 
z
" transform="scale(0.015625)"/>
       <path id="DejaVuSans-6b" d="M 581 4863 
L 1159 4863 
L 1159 1991 
L 2875 3500 
L 3609 3500 
L 1753 1863 
L 3688 0 
L 2938 0 
L 1159 1709 
L 1159 0 
L 581 0 
L 581 4863 
z
" transform="scale(0.015625)"/>
      </defs>
      <use xlink:href="#DejaVuSans-57"/>
      <use xlink:href="#DejaVuSans-65" transform="translate(93.001953 0)"/>
      <use xlink:href="#DejaVuSans-65" transform="translate(154.525391 0)"/>
      <use xlink:href="#DejaVuSans-6b" transform="translate(216.048828 0)"/>
      <use xlink:href="#DejaVuSans-64" transform="translate(273.958984 0)"/>
      <use xlink:href="#DejaVuSans-61" transform="translate(337.435547 0)"/>
      <use xlink:href="#DejaVuSans-79" transform="translate(398.714844 0)"/>
     </g>
    </g>
    <g id="line2d_33">
     <path d="M 68.758437 222.017656 
L 77.758437 222.017656 
L 86.758437 222.017656 
" style="fill: none; stroke: #83c966; stroke-opacity: 0.5; stroke-width: 1.5; stroke-linecap: square"/>
    </g>
    <g id="text_24">
     <!-- Weekend -->
     <g transform="translate(93.958438 225.167656) scale(0.09 -0.09)">
      <use xlink:href="#DejaVuSans-57"/>
      <use xlink:href="#DejaVuSans-65" transform="translate(93.001953 0)"/>
      <use xlink:href="#DejaVuSans-65" transform="translate(154.525391 0)"/>
      <use xlink:href="#DejaVuSans-6b" transform="translate(216.048828 0)"/>
      <use xlink:href="#DejaVuSans-65" transform="translate(270.333984 0)"/>
      <use xlink:href="#DejaVuSans-6e" transform="translate(331.857422 0)"/>
      <use xlink:href="#DejaVuSans-64" transform="translate(395.236328 0)"/>
     </g>
    </g>
    <g id="line2d_34">
     <path d="M 68.758437 235.227969 
L 77.758437 235.227969 
L 86.758437 235.227969 
" style="fill: none; stroke-dasharray: 7.4,3.2; stroke-dashoffset: 0; stroke: #0d6efc; stroke-width: 2"/>
    </g>
    <g id="text_25">
     <!-- Weekday Fit -->
     <g transform="translate(93.958438 238.377969) scale(0.09 -0.09)">
      <use xlink:href="#DejaVuSans-57"/>
      <use xlink:href="#DejaVuSans-65" transform="translate(93.001953 0)"/>
      <use xlink:href="#DejaVuSans-65" transform="translate(154.525391 0)"/>
      <use xlink:href="#DejaVuSans-6b" transform="translate(216.048828 0)"/>
      <use xlink:href="#DejaVuSans-64" transform="translate(273.958984 0)"/>
      <use xlink:href="#DejaVuSans-61" transform="translate(337.435547 0)"/>
      <use xlink:href="#DejaVuSans-79" transform="translate(398.714844 0)"/>
      <use xlink:href="#DejaVuSans-20" transform="translate(457.894531 0)"/>
      <use xlink:href="#DejaVuSans-46" transform="translate(489.681641 0)"/>
      <use xlink:href="#DejaVuSans-69" transform="translate(539.951172 0)"/>
      <use xlink:href="#DejaVuSans-74" transform="translate(567.734375 0)"/>
     </g>
    </g>
    <g id="line2d_35">
     <path d="M 68.758437 248.438281 
L 77.758437 248.438281 
L 86.758437 248.438281 
" style="fill: none; stroke-dasharray: 7.4,3.2; stroke-dashoffset: 0; stroke: #83c966; stroke-width: 2"/>
    </g>
    <g id="text_26">
     <!-- Weekend Fit -->
     <g transform="translate(93.958438 251.588281) scale(0.09 -0.09)">
      <use xlink:href="#DejaVuSans-57"/>
      <use xlink:href="#DejaVuSans-65" transform="translate(93.001953 0)"/>
      <use xlink:href="#DejaVuSans-65" transform="translate(154.525391 0)"/>
      <use xlink:href="#DejaVuSans-6b" transform="translate(216.048828 0)"/>
      <use xlink:href="#DejaVuSans-65" transform="translate(270.333984 0)"/>
      <use xlink:href="#DejaVuSans-6e" transform="translate(331.857422 0)"/>
      <use xlink:href="#DejaVuSans-64" transform="translate(395.236328 0)"/>
      <use xlink:href="#DejaVuSans-20" transform="translate(458.712891 0)"/>
      <use xlink:href="#DejaVuSans-46" transform="translate(490.5 0)"/>
      <use xlink:href="#DejaVuSans-69" transform="translate(540.769531 0)"/>
      <use xlink:href="#DejaVuSans-74" transform="translate(568.552734 0)"/>
     </g>
    </g>
   </g>
  </g>
  <g id="axes_2">
   <g id="patch_5">
    <path d="M 392.410937 261.56 
L 697.973437 261.56 
L 697.973437 54.24 
L 392.410937 54.24 
L 392.410937 261.56 
z
" style="fill: none"/>
   </g>
   <g id="matplotlib.axis_3">
    <g id="xtick_14">
     <g id="line2d_36">
      <g>
       <use xlink:href="#m3e1238432c" x="392.410937" y="261.56" style="stroke: #000000; stroke-width: 0.8"/>
      </g>
     </g>
     <g id="text_27">
      <!-- Jan -->
      <g transform="translate(384.703125 276.158437) scale(0.1 -0.1)">
       <use xlink:href="#DejaVuSans-4a"/>
       <use xlink:href="#DejaVuSans-61" transform="translate(29.492188 0)"/>
       <use xlink:href="#DejaVuSans-6e" transform="translate(90.771484 0)"/>
      </g>
     </g>
    </g>
    <g id="xtick_15">
     <g id="line2d_37">
      <g>
       <use xlink:href="#m3e1238432c" x="418.362821" y="261.56" style="stroke: #000000; stroke-width: 0.8"/>
      </g>
     </g>
     <g id="text_28">
      <!-- Feb -->
      <g transform="translate(409.511259 276.158437) scale(0.1 -0.1)">
       <use xlink:href="#DejaVuSans-46"/>
       <use xlink:href="#DejaVuSans-65" transform="translate(52.019531 0)"/>
       <use xlink:href="#DejaVuSans-62" transform="translate(113.542969 0)"/>
      </g>
     </g>
    </g>
    <g id="xtick_16">
     <g id="line2d_38">
      <g>
       <use xlink:href="#m3e1238432c" x="441.803232" y="261.56" style="stroke: #000000; stroke-width: 0.8"/>
      </g>
     </g>
     <g id="text_29">
      <!-- Mar -->
      <g transform="translate(432.369638 276.158437) scale(0.1 -0.1)">
       <use xlink:href="#DejaVuSans-4d"/>
       <use xlink:href="#DejaVuSans-61" transform="translate(86.279297 0)"/>
       <use xlink:href="#DejaVuSans-72" transform="translate(147.558594 0)"/>
      </g>
     </g>
    </g>
    <g id="xtick_17">
     <g id="line2d_39">
      <g>
       <use xlink:href="#m3e1238432c" x="467.755116" y="261.56" style="stroke: #000000; stroke-width: 0.8"/>
      </g>
     </g>
     <g id="text_30">
      <!-- Apr -->
      <g transform="translate(459.105116 276.158437) scale(0.1 -0.1)">
       <use xlink:href="#DejaVuSans-41"/>
       <use xlink:href="#DejaVuSans-70" transform="translate(68.408203 0)"/>
       <use xlink:href="#DejaVuSans-72" transform="translate(131.884766 0)"/>
      </g>
     </g>
    </g>
    <g id="xtick_18">
     <g id="line2d_40">
      <g>
       <use xlink:href="#m3e1238432c" x="492.869842" y="261.56" style="stroke: #000000; stroke-width: 0.8"/>
      </g>
     </g>
     <g id="text_31">
      <!-- May -->
      <g transform="translate(482.532342 276.158437) scale(0.1 -0.1)">
       <use xlink:href="#DejaVuSans-4d"/>
       <use xlink:href="#DejaVuSans-61" transform="translate(86.279297 0)"/>
       <use xlink:href="#DejaVuSans-79" transform="translate(147.558594 0)"/>
      </g>
     </g>
    </g>
    <g id="xtick_19">
     <g id="line2d_41">
      <g>
       <use xlink:href="#m3e1238432c" x="518.821725" y="261.56" style="stroke: #000000; stroke-width: 0.8"/>
      </g>
     </g>
     <g id="text_32">
      <!-- Jun -->
      <g transform="translate(511.009225 276.158437) scale(0.1 -0.1)">
       <use xlink:href="#DejaVuSans-4a"/>
       <use xlink:href="#DejaVuSans-75" transform="translate(29.492188 0)"/>
       <use xlink:href="#DejaVuSans-6e" transform="translate(92.871094 0)"/>
      </g>
     </g>
    </g>
    <g id="xtick_20">
     <g id="line2d_42">
      <g>
       <use xlink:href="#m3e1238432c" x="543.936451" y="261.56" style="stroke: #000000; stroke-width: 0.8"/>
      </g>
     </g>
     <g id="text_33">
      <!-- Jul -->
      <g transform="translate(537.903639 276.158437) scale(0.1 -0.1)">
       <use xlink:href="#DejaVuSans-4a"/>
       <use xlink:href="#DejaVuSans-75" transform="translate(29.492188 0)"/>
       <use xlink:href="#DejaVuSans-6c" transform="translate(92.871094 0)"/>
      </g>
     </g>
    </g>
    <g id="xtick_21">
     <g id="line2d_43">
      <g>
       <use xlink:href="#m3e1238432c" x="569.888335" y="261.56" style="stroke: #000000; stroke-width: 0.8"/>
      </g>
     </g>
     <g id="text_34">
      <!-- Aug -->
      <g transform="translate(560.125054 276.158437) scale(0.1 -0.1)">
       <use xlink:href="#DejaVuSans-41"/>
       <use xlink:href="#DejaVuSans-75" transform="translate(68.408203 0)"/>
       <use xlink:href="#DejaVuSans-67" transform="translate(131.787109 0)"/>
      </g>
     </g>
    </g>
    <g id="xtick_22">
     <g id="line2d_44">
      <g>
       <use xlink:href="#m3e1238432c" x="595.840218" y="261.56" style="stroke: #000000; stroke-width: 0.8"/>
      </g>
     </g>
     <g id="text_35">
      <!-- Sep -->
      <g transform="translate(586.415218 276.158437) scale(0.1 -0.1)">
       <use xlink:href="#DejaVuSans-53"/>
       <use xlink:href="#DejaVuSans-65" transform="translate(63.476562 0)"/>
       <use xlink:href="#DejaVuSans-70" transform="translate(125 0)"/>
      </g>
     </g>
    </g>
    <g id="xtick_23">
     <g id="line2d_45">
      <g>
       <use xlink:href="#m3e1238432c" x="620.954944" y="261.56" style="stroke: #000000; stroke-width: 0.8"/>
      </g>
     </g>
     <g id="text_36">
      <!-- Oct -->
      <g transform="translate(612.309632 276.158437) scale(0.1 -0.1)">
       <use xlink:href="#DejaVuSans-4f"/>
       <use xlink:href="#DejaVuSans-63" transform="translate(78.710938 0)"/>
       <use xlink:href="#DejaVuSans-74" transform="translate(133.691406 0)"/>
      </g>
     </g>
    </g>
    <g id="xtick_24">
     <g id="line2d_46">
      <g>
       <use xlink:href="#m3e1238432c" x="646.906828" y="261.56" style="stroke: #000000; stroke-width: 0.8"/>
      </g>
     </g>
     <g id="text_37">
      <!-- Nov -->
      <g transform="translate(637.147453 276.158437) scale(0.1 -0.1)">
       <use xlink:href="#DejaVuSans-4e"/>
       <use xlink:href="#DejaVuSans-6f" transform="translate(74.804688 0)"/>
       <use xlink:href="#DejaVuSans-76" transform="translate(135.986328 0)"/>
      </g>
     </g>
    </g>
    <g id="xtick_25">
     <g id="line2d_47">
      <g>
       <use xlink:href="#m3e1238432c" x="672.021554" y="261.56" style="stroke: #000000; stroke-width: 0.8"/>
      </g>
     </g>
     <g id="text_38">
      <!-- Dec -->
      <g transform="translate(662.345773 276.158437) scale(0.1 -0.1)">
       <use xlink:href="#DejaVuSans-44"/>
       <use xlink:href="#DejaVuSans-65" transform="translate(77.001953 0)"/>
       <use xlink:href="#DejaVuSans-63" transform="translate(138.525391 0)"/>
      </g>
     </g>
    </g>
    <g id="xtick_26">
     <g id="line2d_48">
      <g>
       <use xlink:href="#m3e1238432c" x="697.973437" y="261.56" style="stroke: #000000; stroke-width: 0.8"/>
      </g>
     </g>
     <g id="text_39">
      <!-- Jan -->
      <g transform="translate(690.265625 276.158437) scale(0.1 -0.1)">
       <use xlink:href="#DejaVuSans-4a"/>
       <use xlink:href="#DejaVuSans-61" transform="translate(29.492188 0)"/>
       <use xlink:href="#DejaVuSans-6e" transform="translate(90.771484 0)"/>
      </g>
     </g>
    </g>
   </g>
   <g id="matplotlib.axis_4">
    <g id="ytick_8">
     <g id="line2d_49">
      <path d="M 392.410937 248.703098 
L 697.973437 248.703098 
" clip-path="url(#p5d452907c0)" style="fill: none; stroke-dasharray: 2.96,1.28; stroke-dashoffset: 0; stroke: #b0b0b0; stroke-opacity: 0.3; stroke-width: 0.8"/>
     </g>
     <g id="line2d_50">
      <g>
       <use xlink:href="#m57ca5470fa" x="392.410937" y="248.703098" style="stroke: #000000; stroke-width: 0.8"/>
      </g>
     </g>
    </g>
    <g id="ytick_9">
     <g id="line2d_51">
      <path d="M 392.410937 218.785435 
L 697.973437 218.785435 
" clip-path="url(#p5d452907c0)" style="fill: none; stroke-dasharray: 2.96,1.28; stroke-dashoffset: 0; stroke: #b0b0b0; stroke-opacity: 0.3; stroke-width: 0.8"/>
     </g>
     <g id="line2d_52">
      <g>
       <use xlink:href="#m57ca5470fa" x="392.410937" y="218.785435" style="stroke: #000000; stroke-width: 0.8"/>
      </g>
     </g>
    </g>
    <g id="ytick_10">
     <g id="line2d_53">
      <path d="M 392.410937 188.867773 
L 697.973437 188.867773 
" clip-path="url(#p5d452907c0)" style="fill: none; stroke-dasharray: 2.96,1.28; stroke-dashoffset: 0; stroke: #b0b0b0; stroke-opacity: 0.3; stroke-width: 0.8"/>
     </g>
     <g id="line2d_54">
      <g>
       <use xlink:href="#m57ca5470fa" x="392.410937" y="188.867773" style="stroke: #000000; stroke-width: 0.8"/>
      </g>
     </g>
    </g>
    <g id="ytick_11">
     <g id="line2d_55">
      <path d="M 392.410937 158.95011 
L 697.973437 158.95011 
" clip-path="url(#p5d452907c0)" style="fill: none; stroke-dasharray: 2.96,1.28; stroke-dashoffset: 0; stroke: #b0b0b0; stroke-opacity: 0.3; stroke-width: 0.8"/>
     </g>
     <g id="line2d_56">
      <g>
       <use xlink:href="#m57ca5470fa" x="392.410937" y="158.95011" style="stroke: #000000; stroke-width: 0.8"/>
      </g>
     </g>
    </g>
    <g id="ytick_12">
     <g id="line2d_57">
      <path d="M 392.410937 129.032447 
L 697.973437 129.032447 
" clip-path="url(#p5d452907c0)" style="fill: none; stroke-dasharray: 2.96,1.28; stroke-dashoffset: 0; stroke: #b0b0b0; stroke-opacity: 0.3; stroke-width: 0.8"/>
     </g>
     <g id="line2d_58">
      <g>
       <use xlink:href="#m57ca5470fa" x="392.410937" y="129.032447" style="stroke: #000000; stroke-width: 0.8"/>
      </g>
     </g>
    </g>
    <g id="ytick_13">
     <g id="line2d_59">
      <path d="M 392.410937 99.114785 
L 697.973437 99.114785 
" clip-path="url(#p5d452907c0)" style="fill: none; stroke-dasharray: 2.96,1.28; stroke-dashoffset: 0; stroke: #b0b0b0; stroke-opacity: 0.3; stroke-width: 0.8"/>
     </g>
     <g id="line2d_60">
      <g>
       <use xlink:href="#m57ca5470fa" x="392.410937" y="99.114785" style="stroke: #000000; stroke-width: 0.8"/>
      </g>
     </g>
    </g>
    <g id="ytick_14">
     <g id="line2d_61">
      <path d="M 392.410937 69.197122 
L 697.973437 69.197122 
" clip-path="url(#p5d452907c0)" style="fill: none; stroke-dasharray: 2.96,1.28; stroke-dashoffset: 0; stroke: #b0b0b0; stroke-opacity: 0.3; stroke-width: 0.8"/>
     </g>
     <g id="line2d_62">
      <g>
       <use xlink:href="#m57ca5470fa" x="392.410937" y="69.197122" style="stroke: #000000; stroke-width: 0.8"/>
      </g>
     </g>
    </g>
   </g>
   <g id="line2d_63">
    <path d="M 409.154088 237.580139 
L 409.991246 238.201144 
L 410.828403 237.366014 
L 411.665561 237.833584 
L 412.502718 235.05466 
L 415.014191 234.638805 
L 415.851348 236.837326 
L 416.688506 236.927079 
L 417.525664 233.79128 
L 418.362821 235.342725 
L 420.874294 236.614653 
L 421.711451 237.591678 
L 422.548609 236.629184 
L 423.385766 239.29784 
L 424.222924 236.822367 
L 426.734396 237.105302 
L 427.571554 236.089812 
L 428.408711 238.101561 
L 429.245869 240.95656 
L 430.083027 240.954423 
L 432.594499 242.3956 
L 433.431657 242.31525 
L 434.268814 244.276139 
L 435.105972 245.139905 
L 435.943129 242.659303 
L 438.454602 242.381496 
L 439.291759 245.183499 
L 440.128917 243.823955 
L 440.966074 243.397414 
L 441.803232 244.011154 
L 444.314705 246.201554 
L 445.151862 242.890524 
L 445.98902 241.998123 
L 447.663335 238.711026 
L 451.011965 239.0944 
L 452.68628 237.510046 
L 453.523438 235.694898 
L 456.03491 234.598202 
L 456.872068 235.959456 
L 457.709225 239.08286 
L 458.546383 237.12368 
L 459.38354 233.137793 
L 461.895013 234.672142 
L 462.73217 234.386642 
L 464.406485 234.523836 
L 465.243643 231.817569 
L 467.755116 231.767991 
L 468.592273 233.083514 
L 469.429431 234.812755 
L 470.266588 236.179992 
L 471.103746 237.865639 
L 474.452376 232.99718 
L 475.289533 234.747363 
L 476.126691 233.780595 
L 476.963848 229.433986 
L 479.475321 228.189839 
L 480.312479 227.57268 
L 481.149636 228.504829 
L 481.986794 227.555157 
L 482.823951 228.582188 
L 485.335424 227.722269 
L 486.172581 230.113972 
L 487.009739 229.645547 
L 487.846896 227.041428 
L 488.684054 229.884033 
L 491.195527 230.411867 
L 492.032684 229.437833 
L 493.706999 236.54456 
L 497.892787 238.563147 
L 498.729944 243.917982 
L 499.567102 243.224319 
L 500.404259 240.481297 
L 503.75289 239.895766 
L 504.590047 241.474991 
L 505.427205 238.937973 
L 506.264362 238.097714 
L 508.775835 237.773321 
L 509.612992 239.224328 
L 510.45015 239.052942 
L 511.287307 240.32487 
L 512.124465 238.548189 
L 514.635937 241.589105 
L 515.473095 240.115447 
L 516.310253 242.595621 
L 517.14741 244.641989 
L 517.984568 245.393777 
L 521.333198 247.177725 
L 522.170355 248.014137 
L 523.007513 247.456386 
L 523.84467 246.629377 
L 526.356143 243.612394 
L 527.193301 245.522851 
L 528.030458 245.409591 
L 528.867616 247.61495 
L 529.704773 244.26289 
L 532.216246 244.410341 
L 533.053403 241.795965 
L 533.890561 240.320169 
L 534.727718 239.10423 
L 535.564876 242.696914 
L 538.076348 242.539632 
L 538.913506 243.235859 
L 539.750664 244.92236 
L 540.587821 244.93219 
L 541.424979 244.427009 
L 543.936451 248.106882 
L 544.773609 247.405099 
L 545.610766 247.505109 
L 546.447924 252.136364 
L 547.285081 251.329442 
L 550.633711 249.219819 
L 551.470869 246.678955 
L 552.308027 238.038734 
L 553.145184 237.483975 
L 555.656657 236.536867 
L 556.493814 234.523836 
L 557.330972 235.191427 
L 558.168129 236.757403 
L 559.005287 229.942587 
L 561.516759 231.183742 
L 562.353917 231.105529 
L 563.191074 226.637967 
L 564.028232 227.290172 
L 564.86539 229.239094 
L 567.376862 229.419028 
L 568.21402 232.096658 
L 569.051177 236.560801 
L 569.888335 236.966826 
L 570.725492 235.868421 
L 573.236965 237.271987 
L 574.074122 242.564421 
L 574.91128 242.63024 
L 575.748437 242.062659 
L 576.585595 236.745436 
L 579.097068 234.143454 
L 579.934225 233.694262 
L 580.771383 235.022606 
L 581.60854 232.025711 
L 582.445698 232.849729 
L 585.794328 231.756024 
L 586.631485 231.1628 
L 587.468643 230.412721 
L 588.305801 229.057451 
L 590.817273 223.39532 
L 591.654431 223.343178 
L 592.491588 224.156083 
L 593.328746 230.768314 
L 594.165903 230.815755 
L 596.677376 230.736259 
L 597.514533 228.782636 
L 598.351691 230.771733 
L 599.188848 231.399577 
L 600.026006 227.738082 
L 602.537479 228.733913 
L 603.374636 230.090038 
L 604.211794 234.475113 
L 605.048951 235.053806 
L 605.886109 234.393907 
L 608.397581 235.089279 
L 609.234739 236.187685 
L 610.071896 235.21878 
L 610.909054 236.32958 
L 611.746211 236.579606 
L 614.257684 237.845124 
L 615.094842 236.976657 
L 615.931999 235.299985 
L 616.769157 239.752588 
L 617.606314 237.628434 
L 620.117787 235.742767 
L 620.954944 235.535907 
L 621.792102 235.741057 
L 622.629259 235.67823 
L 623.466417 234.32125 
L 625.97789 234.00455 
L 626.815047 232.780491 
L 627.652205 233.010429 
L 628.489362 231.407697 
L 629.32652 227.773556 
L 631.837992 229.948998 
L 632.67515 232.149655 
L 633.512307 231.920999 
L 634.349465 232.319331 
L 635.186622 231.363248 
L 637.698095 230.545214 
L 638.535253 231.594042 
L 639.37241 234.450324 
L 640.209568 234.425962 
L 641.046725 234.081909 
L 643.558198 234.249875 
L 644.395355 233.671182 
L 645.232513 234.627693 
L 646.06967 236.300517 
L 646.906828 235.357684 
L 649.418301 232.859559 
L 650.255458 233.230965 
L 651.092616 230.460162 
L 651.929773 229.677174 
L 652.766931 227.526094 
L 655.278403 231.723115 
L 655.278403 231.723115 
" clip-path="url(#p5d452907c0)" style="fill: none; stroke: #0d6efc; stroke-opacity: 0.5; stroke-width: 1.5; stroke-linecap: square"/>
   </g>
   <g id="line2d_64">
    <path d="M 431.757342 231.606863 
L 436.780287 231.096981 
L 437.617444 229.216015 
L 442.64039 230.568721 
L 443.477547 230.550343 
L 448.500492 227.451728 
L 449.33765 226.175526 
L 454.360595 226.370418 
L 455.197753 228.969835 
L 460.220698 228.848455 
L 461.057855 226.907653 
L 466.080801 228.875808 
L 466.917958 228.361652 
L 471.940903 229.567761 
L 472.778061 232.227014 
L 477.801006 233.621604 
L 478.638164 234.837116 
L 483.661109 231.243578 
L 484.498266 230.839262 
L 489.521211 233.548092 
L 490.358369 232.581324 
L 495.381314 234.95636 
L 496.218472 235.43205 
L 501.241417 233.956255 
L 502.078574 235.82098 
L 507.10152 235.988091 
L 507.938677 235.211087 
L 512.961622 231.86501 
L 513.79878 234.245174 
L 518.821725 229.934894 
L 519.658883 230.898242 
L 524.681828 239.295703 
L 525.518985 239.679931 
L 530.541931 236.86126 
L 531.379088 241.702365 
L 536.402033 238.917458 
L 537.239191 237.841277 
L 542.262136 238.084465 
L 543.099294 238.622983 
L 548.122239 235.52565 
L 548.959396 237.69639 
L 553.982342 239.646594 
L 554.819499 238.976866 
L 559.842444 240.639006 
L 560.679602 237.103166 
L 565.702547 231.598316 
L 566.539705 231.823125 
L 571.56265 233.667763 
L 572.399807 228.730921 
L 577.422753 225.331847 
L 578.25991 221.890034 
L 583.282855 222.19092 
L 584.120013 222.240071 
L 589.142958 222.26315 
L 589.980116 220.708286 
L 595.003061 218.556352 
L 595.840218 219.158124 
L 600.863164 219.575262 
L 601.700321 223.795789 
L 606.723266 225.448099 
L 607.560424 225.91225 
L 612.583369 225.266456 
L 613.420527 225.366466 
L 618.443472 230.535384 
L 619.280629 234.03575 
L 624.303574 230.353313 
L 625.140732 230.082772 
L 630.163677 231.980407 
L 631.000835 233.651949 
L 636.02378 234.148155 
L 636.860937 231.903048 
L 641.883883 233.842568 
L 642.72104 232.770233 
L 647.743985 236.703978 
L 648.581143 235.730372 
L 653.604088 238.017364 
L 654.441246 234.161832 
" clip-path="url(#p5d452907c0)" style="fill: none; stroke: #83c966; stroke-opacity: 0.5; stroke-width: 1.5; stroke-linecap: square"/>
   </g>
   <g id="line2d_65">
    <path d="M 392.410937 233.975293 
L 697.973437 233.975293 
" clip-path="url(#p5d452907c0)" style="fill: none; stroke-dasharray: 7.4,3.2; stroke-dashoffset: 0; stroke: #0d6efc; stroke-width: 2"/>
   </g>
   <g id="line2d_66">
    <path d="M 392.410937 230.626659 
L 697.973437 230.626659 
" clip-path="url(#p5d452907c0)" style="fill: none; stroke-dasharray: 7.4,3.2; stroke-dashoffset: 0; stroke: #83c966; stroke-width: 2"/>
   </g>
   <g id="patch_6">
    <path d="M 392.410937 261.56 
L 392.410937 54.24 
" style="fill: none; stroke: #000000; stroke-width: 0.8; stroke-linejoin: miter; stroke-linecap: square"/>
   </g>
   <g id="patch_7">
    <path d="M 392.410937 261.56 
L 697.973437 261.56 
" style="fill: none; stroke: #000000; stroke-width: 0.8; stroke-linejoin: miter; stroke-linecap: square"/>
   </g>
   <g id="text_40">
    <!-- 2025 -->
    <g transform="translate(527.377187 48.24) scale(0.14 -0.14)">
     <use xlink:href="#DejaVuSans-32"/>
     <use xlink:href="#DejaVuSans-30" transform="translate(63.623047 0)"/>
     <use xlink:href="#DejaVuSans-32" transform="translate(127.246094 0)"/>
     <use xlink:href="#DejaVuSans-35" transform="translate(190.869141 0)"/>
    </g>
   </g>
  </g>
  <g id="text_41">
   <!-- Comparing Observed and Fitted Pedestrian Counts at Bourke Street Mall (North) -->
   <g transform="translate(35.679688 19.3575) scale(0.16 -0.16)">
    <defs>
     <path id="DejaVuSans-43" d="M 4122 4306 
L 4122 3641 
Q 3803 3938 3442 4084 
Q 3081 4231 2675 4231 
Q 1875 4231 1450 3742 
Q 1025 3253 1025 2328 
Q 1025 1406 1450 917 
Q 1875 428 2675 428 
Q 3081 428 3442 575 
Q 3803 722 4122 1019 
L 4122 359 
Q 3791 134 3420 21 
Q 3050 -91 2638 -91 
Q 1578 -91 968 557 
Q 359 1206 359 2328 
Q 359 3453 968 4101 
Q 1578 4750 2638 4750 
Q 3056 4750 3426 4639 
Q 3797 4528 4122 4306 
z
" transform="scale(0.015625)"/>
     <path id="DejaVuSans-6d" d="M 3328 2828 
Q 3544 3216 3844 3400 
Q 4144 3584 4550 3584 
Q 5097 3584 5394 3201 
Q 5691 2819 5691 2113 
L 5691 0 
L 5113 0 
L 5113 2094 
Q 5113 2597 4934 2840 
Q 4756 3084 4391 3084 
Q 3944 3084 3684 2787 
Q 3425 2491 3425 1978 
L 3425 0 
L 2847 0 
L 2847 2094 
Q 2847 2600 2669 2842 
Q 2491 3084 2119 3084 
Q 1678 3084 1418 2786 
Q 1159 2488 1159 1978 
L 1159 0 
L 581 0 
L 581 3500 
L 1159 3500 
L 1159 2956 
Q 1356 3278 1631 3431 
Q 1906 3584 2284 3584 
Q 2666 3584 2933 3390 
Q 3200 3197 3328 2828 
z
" transform="scale(0.015625)"/>
     <path id="DejaVuSans-50" d="M 1259 4147 
L 1259 2394 
L 2053 2394 
Q 2494 2394 2734 2622 
Q 2975 2850 2975 3272 
Q 2975 3691 2734 3919 
Q 2494 4147 2053 4147 
L 1259 4147 
z
M 628 4666 
L 2053 4666 
Q 2838 4666 3239 4311 
Q 3641 3956 3641 3272 
Q 3641 2581 3239 2228 
Q 2838 1875 2053 1875 
L 1259 1875 
L 1259 0 
L 628 0 
L 628 4666 
z
" transform="scale(0.015625)"/>
     <path id="DejaVuSans-42" d="M 1259 2228 
L 1259 519 
L 2272 519 
Q 2781 519 3026 730 
Q 3272 941 3272 1375 
Q 3272 1813 3026 2020 
Q 2781 2228 2272 2228 
L 1259 2228 
z
M 1259 4147 
L 1259 2741 
L 2194 2741 
Q 2656 2741 2882 2914 
Q 3109 3088 3109 3444 
Q 3109 3797 2882 3972 
Q 2656 4147 2194 4147 
L 1259 4147 
z
M 628 4666 
L 2241 4666 
Q 2963 4666 3353 4366 
Q 3744 4066 3744 3513 
Q 3744 3084 3544 2831 
Q 3344 2578 2956 2516 
Q 3422 2416 3680 2098 
Q 3938 1781 3938 1306 
Q 3938 681 3513 340 
Q 3088 0 2303 0 
L 628 0 
L 628 4666 
z
" transform="scale(0.015625)"/>
     <path id="DejaVuSans-28" d="M 1984 4856 
Q 1566 4138 1362 3434 
Q 1159 2731 1159 2009 
Q 1159 1288 1364 580 
Q 1569 -128 1984 -844 
L 1484 -844 
Q 1016 -109 783 600 
Q 550 1309 550 2009 
Q 550 2706 781 3412 
Q 1013 4119 1484 4856 
L 1984 4856 
z
" transform="scale(0.015625)"/>
     <path id="DejaVuSans-68" d="M 3513 2113 
L 3513 0 
L 2938 0 
L 2938 2094 
Q 2938 2591 2744 2837 
Q 2550 3084 2163 3084 
Q 1697 3084 1428 2787 
Q 1159 2491 1159 1978 
L 1159 0 
L 581 0 
L 581 4863 
L 1159 4863 
L 1159 2956 
Q 1366 3272 1645 3428 
Q 1925 3584 2291 3584 
Q 2894 3584 3203 3211 
Q 3513 2838 3513 2113 
z
" transform="scale(0.015625)"/>
     <path id="DejaVuSans-29" d="M 513 4856 
L 1013 4856 
Q 1481 4119 1714 3412 
Q 1947 2706 1947 2009 
Q 1947 1309 1714 600 
Q 1481 -109 1013 -844 
L 513 -844 
Q 928 -128 1133 580 
Q 1338 1288 1338 2009 
Q 1338 2731 1133 3434 
Q 928 4138 513 4856 
z
" transform="scale(0.015625)"/>
    </defs>
    <use xlink:href="#DejaVuSans-43"/>
    <use xlink:href="#DejaVuSans-6f" transform="translate(69.824219 0)"/>
    <use xlink:href="#DejaVuSans-6d" transform="translate(131.005859 0)"/>
    <use xlink:href="#DejaVuSans-70" transform="translate(228.417969 0)"/>
    <use xlink:href="#DejaVuSans-61" transform="translate(291.894531 0)"/>
    <use xlink:href="#DejaVuSans-72" transform="translate(353.173828 0)"/>
    <use xlink:href="#DejaVuSans-69" transform="translate(394.287109 0)"/>
    <use xlink:href="#DejaVuSans-6e" transform="translate(422.070312 0)"/>
    <use xlink:href="#DejaVuSans-67" transform="translate(485.449219 0)"/>
    <use xlink:href="#DejaVuSans-20" transform="translate(548.925781 0)"/>
    <use xlink:href="#DejaVuSans-4f" transform="translate(580.712891 0)"/>
    <use xlink:href="#DejaVuSans-62" transform="translate(659.423828 0)"/>
    <use xlink:href="#DejaVuSans-73" transform="translate(722.900391 0)"/>
    <use xlink:href="#DejaVuSans-65" transform="translate(775 0)"/>
    <use xlink:href="#DejaVuSans-72" transform="translate(836.523438 0)"/>
    <use xlink:href="#DejaVuSans-76" transform="translate(877.636719 0)"/>
    <use xlink:href="#DejaVuSans-65" transform="translate(936.816406 0)"/>
    <use xlink:href="#DejaVuSans-64" transform="translate(998.339844 0)"/>
    <use xlink:href="#DejaVuSans-20" transform="translate(1061.816406 0)"/>
    <use xlink:href="#DejaVuSans-61" transform="translate(1093.603516 0)"/>
    <use xlink:href="#DejaVuSans-6e" transform="translate(1154.882812 0)"/>
    <use xlink:href="#DejaVuSans-64" transform="translate(1218.261719 0)"/>
    <use xlink:href="#DejaVuSans-20" transform="translate(1281.738281 0)"/>
    <use xlink:href="#DejaVuSans-46" transform="translate(1313.525391 0)"/>
    <use xlink:href="#DejaVuSans-69" transform="translate(1363.794922 0)"/>
    <use xlink:href="#DejaVuSans-74" transform="translate(1391.578125 0)"/>
    <use xlink:href="#DejaVuSans-74" transform="translate(1430.787109 0)"/>
    <use xlink:href="#DejaVuSans-65" transform="translate(1469.996094 0)"/>
    <use xlink:href="#DejaVuSans-64" transform="translate(1531.519531 0)"/>
    <use xlink:href="#DejaVuSans-20" transform="translate(1594.996094 0)"/>
    <use xlink:href="#DejaVuSans-50" transform="translate(1626.783203 0)"/>
    <use xlink:href="#DejaVuSans-65" transform="translate(1683.460938 0)"/>
    <use xlink:href="#DejaVuSans-64" transform="translate(1744.984375 0)"/>
    <use xlink:href="#DejaVuSans-65" transform="translate(1808.460938 0)"/>
    <use xlink:href="#DejaVuSans-73" transform="translate(1869.984375 0)"/>
    <use xlink:href="#DejaVuSans-74" transform="translate(1922.083984 0)"/>
    <use xlink:href="#DejaVuSans-72" transform="translate(1961.292969 0)"/>
    <use xlink:href="#DejaVuSans-69" transform="translate(2002.40625 0)"/>
    <use xlink:href="#DejaVuSans-61" transform="translate(2030.189453 0)"/>
    <use xlink:href="#DejaVuSans-6e" transform="translate(2091.46875 0)"/>
    <use xlink:href="#DejaVuSans-20" transform="translate(2154.847656 0)"/>
    <use xlink:href="#DejaVuSans-43" transform="translate(2186.634766 0)"/>
    <use xlink:href="#DejaVuSans-6f" transform="translate(2256.458984 0)"/>
    <use xlink:href="#DejaVuSans-75" transform="translate(2317.640625 0)"/>
    <use xlink:href="#DejaVuSans-6e" transform="translate(2381.019531 0)"/>
    <use xlink:href="#DejaVuSans-74" transform="translate(2444.398438 0)"/>
    <use xlink:href="#DejaVuSans-73" transform="translate(2483.607422 0)"/>
    <use xlink:href="#DejaVuSans-20" transform="translate(2535.707031 0)"/>
    <use xlink:href="#DejaVuSans-61" transform="translate(2567.494141 0)"/>
    <use xlink:href="#DejaVuSans-74" transform="translate(2628.773438 0)"/>
    <use xlink:href="#DejaVuSans-20" transform="translate(2667.982422 0)"/>
    <use xlink:href="#DejaVuSans-42" transform="translate(2699.769531 0)"/>
    <use xlink:href="#DejaVuSans-6f" transform="translate(2768.373047 0)"/>
    <use xlink:href="#DejaVuSans-75" transform="translate(2829.554688 0)"/>
    <use xlink:href="#DejaVuSans-72" transform="translate(2892.933594 0)"/>
    <use xlink:href="#DejaVuSans-6b" transform="translate(2934.046875 0)"/>
    <use xlink:href="#DejaVuSans-65" transform="translate(2988.332031 0)"/>
    <use xlink:href="#DejaVuSans-20" transform="translate(3049.855469 0)"/>
    <use xlink:href="#DejaVuSans-53" transform="translate(3081.642578 0)"/>
    <use xlink:href="#DejaVuSans-74" transform="translate(3145.119141 0)"/>
    <use xlink:href="#DejaVuSans-72" transform="translate(3184.328125 0)"/>
    <use xlink:href="#DejaVuSans-65" transform="translate(3223.191406 0)"/>
    <use xlink:href="#DejaVuSans-65" transform="translate(3284.714844 0)"/>
    <use xlink:href="#DejaVuSans-74" transform="translate(3346.238281 0)"/>
    <use xlink:href="#DejaVuSans-20" transform="translate(3385.447266 0)"/>
    <use xlink:href="#DejaVuSans-4d" transform="translate(3417.234375 0)"/>
    <use xlink:href="#DejaVuSans-61" transform="translate(3503.513672 0)"/>
    <use xlink:href="#DejaVuSans-6c" transform="translate(3564.792969 0)"/>
    <use xlink:href="#DejaVuSans-6c" transform="translate(3592.576172 0)"/>
    <use xlink:href="#DejaVuSans-20" transform="translate(3620.359375 0)"/>
    <use xlink:href="#DejaVuSans-28" transform="translate(3652.146484 0)"/>
    <use xlink:href="#DejaVuSans-4e" transform="translate(3691.160156 0)"/>
    <use xlink:href="#DejaVuSans-6f" transform="translate(3765.964844 0)"/>
    <use xlink:href="#DejaVuSans-72" transform="translate(3827.146484 0)"/>
    <use xlink:href="#DejaVuSans-74" transform="translate(3868.259766 0)"/>
    <use xlink:href="#DejaVuSans-68" transform="translate(3907.46875 0)"/>
    <use xlink:href="#DejaVuSans-29" transform="translate(3970.847656 0)"/>
   </g>
  </g>
 </g>
 <defs>
  <clipPath id="p9a91e2bd0c">
   <rect x="60.658438" y="54.24" width="305.5625" height="207.32"/>
  </clipPath>
  <clipPath id="p5d452907c0">
   <rect x="392.410937" y="54.24" width="305.5625" height="207.32"/>
  </clipPath>
 </defs>
</svg>
