<?xml version="1.0" encoding="utf-8" standalone="no"?>
<!DOCTYPE svg PUBLIC "-//W3C//DTD SVG 1.1//EN"
  "http://www.w3.org/Graphics/SVG/1.1/DTD/svg11.dtd">
<svg xmlns:xlink="http://www.w3.org/1999/xlink" width="712.88125pt" height="285.438125pt" viewBox="0 0 712.88125 285.438125" xmlns="http://www.w3.org/2000/svg" version="1.1">
 <metadata>
  <rdf:RDF xmlns:dc="http://purl.org/dc/elements/1.1/" xmlns:cc="http://creativecommons.org/ns#" xmlns:rdf="http://www.w3.org/1999/02/22-rdf-syntax-ns#">
   <cc:Work>
    <dc:type rdf:resource="http://purl.org/dc/dcmitype/StillImage"/>
    <dc:date>2026-01-28T19:04:05.346035</dc:date>
    <dc:format>image/svg+xml</dc:format>
    <dc:creator>
     <cc:Agent>
      <dc:title>Matplotlib v3.10.8, https://matplotlib.org/</dc:title>
     </cc:Agent>
    </dc:creator>
   </cc:Work>
  </rdf:RDF>
 </metadata>
 <defs>
  <style type="text/css">*{stroke-linejoin: round; stroke-linecap: butt}</style>
 </defs>
 <g id="figure_1">
  <g id="patch_1">
   <path d="M 0 285.438125 
L 712.88125 285.438125 
L 712.88125 0 
L 0 0 
L 0 285.438125 
z
" style="fill: none"/>
  </g>
  <g id="axes_1">
   <g id="patch_2">
    <path d="M 60.658438 261.56 
L 366.220937 261.56 
L 366.220937 54.24 
L 60.658438 54.24 
L 60.658438 261.56 
z
" style="fill: none"/>
   </g>
   <g id="matplotlib.axis_1">
    <g id="xtick_1">
     <g id="line2d_1">
      <defs>
       <path id="m84360eb349" d="M 0 0 
L 0 3.5 
" style="stroke: #000000; stroke-width: 0.8"/>
      </defs>
      <g>
       <use xlink:href="#m84360eb349" x="60.658438" y="261.56" style="stroke: #000000; stroke-width: 0.8"/>
      </g>
     </g>
     <g id="text_1">
      <!-- Jan -->
      <g transform="translate(52.950625 276.158437) scale(0.1 -0.1)">
       <defs>
        <path id="DejaVuSans-4a" d="M 628 4666 
L 1259 4666 
L 1259 325 
Q 1259 -519 939 -900 
Q 619 -1281 -91 -1281 
L -331 -1281 
L -331 -750 
L -134 -750 
Q 284 -750 456 -515 
Q 628 -281 628 325 
L 628 4666 
z
" transform="scale(0.015625)"/>
        <path id="DejaVuSans-61" d="M 2194 1759 
Q 1497 1759 1228 1600 
Q 959 1441 959 1056 
Q 959 750 1161 570 
Q 1363 391 1709 391 
Q 2188 391 2477 730 
Q 2766 1069 2766 1631 
L 2766 1759 
L 2194 1759 
z
M 3341 1997 
L 3341 0 
L 2766 0 
L 2766 531 
Q 2569 213 2275 61 
Q 1981 -91 1556 -91 
Q 1019 -91 701 211 
Q 384 513 384 1019 
Q 384 1609 779 1909 
Q 1175 2209 1959 2209 
L 2766 2209 
L 2766 2266 
Q 2766 2663 2505 2880 
Q 2244 3097 1772 3097 
Q 1472 3097 1187 3025 
Q 903 2953 641 2809 
L 641 3341 
Q 956 3463 1253 3523 
Q 1550 3584 1831 3584 
Q 2591 3584 2966 3190 
Q 3341 2797 3341 1997 
z
" transform="scale(0.015625)"/>
        <path id="DejaVuSans-6e" d="M 3513 2113 
L 3513 0 
L 2938 0 
L 2938 2094 
Q 2938 2591 2744 2837 
Q 2550 3084 2163 3084 
Q 1697 3084 1428 2787 
Q 1159 2491 1159 1978 
L 1159 0 
L 581 0 
L 581 3500 
L 1159 3500 
L 1159 2956 
Q 1366 3272 1645 3428 
Q 1925 3584 2291 3584 
Q 2894 3584 3203 3211 
Q 3513 2838 3513 2113 
z
" transform="scale(0.015625)"/>
       </defs>
       <use xlink:href="#DejaVuSans-4a"/>
       <use xlink:href="#DejaVuSans-61" transform="translate(29.492188 0)"/>
       <use xlink:href="#DejaVuSans-6e" transform="translate(90.771484 0)"/>
      </g>
     </g>
    </g>
    <g id="xtick_2">
     <g id="line2d_2">
      <g>
       <use xlink:href="#m84360eb349" x="86.610321" y="261.56" style="stroke: #000000; stroke-width: 0.8"/>
      </g>
     </g>
     <g id="text_2">
      <!-- Feb -->
      <g transform="translate(77.758759 276.158437) scale(0.1 -0.1)">
       <defs>
        <path id="DejaVuSans-46" d="M 628 4666 
L 3309 4666 
L 3309 4134 
L 1259 4134 
L 1259 2759 
L 3109 2759 
L 3109 2228 
L 1259 2228 
L 1259 0 
L 628 0 
L 628 4666 
z
" transform="scale(0.015625)"/>
        <path id="DejaVuSans-65" d="M 3597 1894 
L 3597 1613 
L 953 1613 
Q 991 1019 1311 708 
Q 1631 397 2203 397 
Q 2534 397 2845 478 
Q 3156 559 3463 722 
L 3463 178 
Q 3153 47 2828 -22 
Q 2503 -91 2169 -91 
Q 1331 -91 842 396 
Q 353 884 353 1716 
Q 353 2575 817 3079 
Q 1281 3584 2069 3584 
Q 2775 3584 3186 3129 
Q 3597 2675 3597 1894 
z
M 3022 2063 
Q 3016 2534 2758 2815 
Q 2500 3097 2075 3097 
Q 1594 3097 1305 2825 
Q 1016 2553 972 2059 
L 3022 2063 
z
" transform="scale(0.015625)"/>
        <path id="DejaVuSans-62" d="M 3116 1747 
Q 3116 2381 2855 2742 
Q 2594 3103 2138 3103 
Q 1681 3103 1420 2742 
Q 1159 2381 1159 1747 
Q 1159 1113 1420 752 
Q 1681 391 2138 391 
Q 2594 391 2855 752 
Q 3116 1113 3116 1747 
z
M 1159 2969 
Q 1341 3281 1617 3432 
Q 1894 3584 2278 3584 
Q 2916 3584 3314 3078 
Q 3713 2572 3713 1747 
Q 3713 922 3314 415 
Q 2916 -91 2278 -91 
Q 1894 -91 1617 61 
Q 1341 213 1159 525 
L 1159 0 
L 581 0 
L 581 4863 
L 1159 4863 
L 1159 2969 
z
" transform="scale(0.015625)"/>
       </defs>
       <use xlink:href="#DejaVuSans-46"/>
       <use xlink:href="#DejaVuSans-65" transform="translate(52.019531 0)"/>
       <use xlink:href="#DejaVuSans-62" transform="translate(113.542969 0)"/>
      </g>
     </g>
    </g>
    <g id="xtick_3">
     <g id="line2d_3">
      <g>
       <use xlink:href="#m84360eb349" x="110.050732" y="261.56" style="stroke: #000000; stroke-width: 0.8"/>
      </g>
     </g>
     <g id="text_3">
      <!-- Mar -->
      <g transform="translate(100.617138 276.158437) scale(0.1 -0.1)">
       <defs>
        <path id="DejaVuSans-4d" d="M 628 4666 
L 1569 4666 
L 2759 1491 
L 3956 4666 
L 4897 4666 
L 4897 0 
L 4281 0 
L 4281 4097 
L 3078 897 
L 2444 897 
L 1241 4097 
L 1241 0 
L 628 0 
L 628 4666 
z
" transform="scale(0.015625)"/>
        <path id="DejaVuSans-72" d="M 2631 2963 
Q 2534 3019 2420 3045 
Q 2306 3072 2169 3072 
Q 1681 3072 1420 2755 
Q 1159 2438 1159 1844 
L 1159 0 
L 581 0 
L 581 3500 
L 1159 3500 
L 1159 2956 
Q 1341 3275 1631 3429 
Q 1922 3584 2338 3584 
Q 2397 3584 2469 3576 
Q 2541 3569 2628 3553 
L 2631 2963 
z
" transform="scale(0.015625)"/>
       </defs>
       <use xlink:href="#DejaVuSans-4d"/>
       <use xlink:href="#DejaVuSans-61" transform="translate(86.279297 0)"/>
       <use xlink:href="#DejaVuSans-72" transform="translate(147.558594 0)"/>
      </g>
     </g>
    </g>
    <g id="xtick_4">
     <g id="line2d_4">
      <g>
       <use xlink:href="#m84360eb349" x="136.002616" y="261.56" style="stroke: #000000; stroke-width: 0.8"/>
      </g>
     </g>
     <g id="text_4">
      <!-- Apr -->
      <g transform="translate(127.352616 276.158437) scale(0.1 -0.1)">
       <defs>
        <path id="DejaVuSans-41" d="M 2188 4044 
L 1331 1722 
L 3047 1722 
L 2188 4044 
z
M 1831 4666 
L 2547 4666 
L 4325 0 
L 3669 0 
L 3244 1197 
L 1141 1197 
L 716 0 
L 50 0 
L 1831 4666 
z
" transform="scale(0.015625)"/>
        <path id="DejaVuSans-70" d="M 1159 525 
L 1159 -1331 
L 581 -1331 
L 581 3500 
L 1159 3500 
L 1159 2969 
Q 1341 3281 1617 3432 
Q 1894 3584 2278 3584 
Q 2916 3584 3314 3078 
Q 3713 2572 3713 1747 
Q 3713 922 3314 415 
Q 2916 -91 2278 -91 
Q 1894 -91 1617 61 
Q 1341 213 1159 525 
z
M 3116 1747 
Q 3116 2381 2855 2742 
Q 2594 3103 2138 3103 
Q 1681 3103 1420 2742 
Q 1159 2381 1159 1747 
Q 1159 1113 1420 752 
Q 1681 391 2138 391 
Q 2594 391 2855 752 
Q 3116 1113 3116 1747 
z
" transform="scale(0.015625)"/>
       </defs>
       <use xlink:href="#DejaVuSans-41"/>
       <use xlink:href="#DejaVuSans-70" transform="translate(68.408203 0)"/>
       <use xlink:href="#DejaVuSans-72" transform="translate(131.884766 0)"/>
      </g>
     </g>
    </g>
    <g id="xtick_5">
     <g id="line2d_5">
      <g>
       <use xlink:href="#m84360eb349" x="161.117342" y="261.56" style="stroke: #000000; stroke-width: 0.8"/>
      </g>
     </g>
     <g id="text_5">
      <!-- May -->
      <g transform="translate(150.779842 276.158437) scale(0.1 -0.1)">
       <defs>
        <path id="DejaVuSans-79" d="M 2059 -325 
Q 1816 -950 1584 -1140 
Q 1353 -1331 966 -1331 
L 506 -1331 
L 506 -850 
L 844 -850 
Q 1081 -850 1212 -737 
Q 1344 -625 1503 -206 
L 1606 56 
L 191 3500 
L 800 3500 
L 1894 763 
L 2988 3500 
L 3597 3500 
L 2059 -325 
z
" transform="scale(0.015625)"/>
       </defs>
       <use xlink:href="#DejaVuSans-4d"/>
       <use xlink:href="#DejaVuSans-61" transform="translate(86.279297 0)"/>
       <use xlink:href="#DejaVuSans-79" transform="translate(147.558594 0)"/>
      </g>
     </g>
    </g>
    <g id="xtick_6">
     <g id="line2d_6">
      <g>
       <use xlink:href="#m84360eb349" x="187.069225" y="261.56" style="stroke: #000000; stroke-width: 0.8"/>
      </g>
     </g>
     <g id="text_6">
      <!-- Jun -->
      <g transform="translate(179.256725 276.158437) scale(0.1 -0.1)">
       <defs>
        <path id="DejaVuSans-75" d="M 544 1381 
L 544 3500 
L 1119 3500 
L 1119 1403 
Q 1119 906 1312 657 
Q 1506 409 1894 409 
Q 2359 409 2629 706 
Q 2900 1003 2900 1516 
L 2900 3500 
L 3475 3500 
L 3475 0 
L 2900 0 
L 2900 538 
Q 2691 219 2414 64 
Q 2138 -91 1772 -91 
Q 1169 -91 856 284 
Q 544 659 544 1381 
z
M 1991 3584 
L 1991 3584 
z
" transform="scale(0.015625)"/>
       </defs>
       <use xlink:href="#DejaVuSans-4a"/>
       <use xlink:href="#DejaVuSans-75" transform="translate(29.492188 0)"/>
       <use xlink:href="#DejaVuSans-6e" transform="translate(92.871094 0)"/>
      </g>
     </g>
    </g>
    <g id="xtick_7">
     <g id="line2d_7">
      <g>
       <use xlink:href="#m84360eb349" x="212.183951" y="261.56" style="stroke: #000000; stroke-width: 0.8"/>
      </g>
     </g>
     <g id="text_7">
      <!-- Jul -->
      <g transform="translate(206.151139 276.158437) scale(0.1 -0.1)">
       <defs>
        <path id="DejaVuSans-6c" d="M 603 4863 
L 1178 4863 
L 1178 0 
L 603 0 
L 603 4863 
z
" transform="scale(0.015625)"/>
       </defs>
       <use xlink:href="#DejaVuSans-4a"/>
       <use xlink:href="#DejaVuSans-75" transform="translate(29.492188 0)"/>
       <use xlink:href="#DejaVuSans-6c" transform="translate(92.871094 0)"/>
      </g>
     </g>
    </g>
    <g id="xtick_8">
     <g id="line2d_8">
      <g>
       <use xlink:href="#m84360eb349" x="238.135835" y="261.56" style="stroke: #000000; stroke-width: 0.8"/>
      </g>
     </g>
     <g id="text_8">
      <!-- Aug -->
      <g transform="translate(228.372554 276.158437) scale(0.1 -0.1)">
       <defs>
        <path id="DejaVuSans-67" d="M 2906 1791 
Q 2906 2416 2648 2759 
Q 2391 3103 1925 3103 
Q 1463 3103 1205 2759 
Q 947 2416 947 1791 
Q 947 1169 1205 825 
Q 1463 481 1925 481 
Q 2391 481 2648 825 
Q 2906 1169 2906 1791 
z
M 3481 434 
Q 3481 -459 3084 -895 
Q 2688 -1331 1869 -1331 
Q 1566 -1331 1297 -1286 
Q 1028 -1241 775 -1147 
L 775 -588 
Q 1028 -725 1275 -790 
Q 1522 -856 1778 -856 
Q 2344 -856 2625 -561 
Q 2906 -266 2906 331 
L 2906 616 
Q 2728 306 2450 153 
Q 2172 0 1784 0 
Q 1141 0 747 490 
Q 353 981 353 1791 
Q 353 2603 747 3093 
Q 1141 3584 1784 3584 
Q 2172 3584 2450 3431 
Q 2728 3278 2906 2969 
L 2906 3500 
L 3481 3500 
L 3481 434 
z
" transform="scale(0.015625)"/>
       </defs>
       <use xlink:href="#DejaVuSans-41"/>
       <use xlink:href="#DejaVuSans-75" transform="translate(68.408203 0)"/>
       <use xlink:href="#DejaVuSans-67" transform="translate(131.787109 0)"/>
      </g>
     </g>
    </g>
    <g id="xtick_9">
     <g id="line2d_9">
      <g>
       <use xlink:href="#m84360eb349" x="264.087718" y="261.56" style="stroke: #000000; stroke-width: 0.8"/>
      </g>
     </g>
     <g id="text_9">
      <!-- Sep -->
      <g transform="translate(254.662718 276.158437) scale(0.1 -0.1)">
       <defs>
        <path id="DejaVuSans-53" d="M 3425 4513 
L 3425 3897 
Q 3066 4069 2747 4153 
Q 2428 4238 2131 4238 
Q 1616 4238 1336 4038 
Q 1056 3838 1056 3469 
Q 1056 3159 1242 3001 
Q 1428 2844 1947 2747 
L 2328 2669 
Q 3034 2534 3370 2195 
Q 3706 1856 3706 1288 
Q 3706 609 3251 259 
Q 2797 -91 1919 -91 
Q 1588 -91 1214 -16 
Q 841 59 441 206 
L 441 856 
Q 825 641 1194 531 
Q 1563 422 1919 422 
Q 2459 422 2753 634 
Q 3047 847 3047 1241 
Q 3047 1584 2836 1778 
Q 2625 1972 2144 2069 
L 1759 2144 
Q 1053 2284 737 2584 
Q 422 2884 422 3419 
Q 422 4038 858 4394 
Q 1294 4750 2059 4750 
Q 2388 4750 2728 4690 
Q 3069 4631 3425 4513 
z
" transform="scale(0.015625)"/>
       </defs>
       <use xlink:href="#DejaVuSans-53"/>
       <use xlink:href="#DejaVuSans-65" transform="translate(63.476562 0)"/>
       <use xlink:href="#DejaVuSans-70" transform="translate(125 0)"/>
      </g>
     </g>
    </g>
    <g id="xtick_10">
     <g id="line2d_10">
      <g>
       <use xlink:href="#m84360eb349" x="289.202444" y="261.56" style="stroke: #000000; stroke-width: 0.8"/>
      </g>
     </g>
     <g id="text_10">
      <!-- Oct -->
      <g transform="translate(280.557132 276.158437) scale(0.1 -0.1)">
       <defs>
        <path id="DejaVuSans-4f" d="M 2522 4238 
Q 1834 4238 1429 3725 
Q 1025 3213 1025 2328 
Q 1025 1447 1429 934 
Q 1834 422 2522 422 
Q 3209 422 3611 934 
Q 4013 1447 4013 2328 
Q 4013 3213 3611 3725 
Q 3209 4238 2522 4238 
z
M 2522 4750 
Q 3503 4750 4090 4092 
Q 4678 3434 4678 2328 
Q 4678 1225 4090 567 
Q 3503 -91 2522 -91 
Q 1538 -91 948 565 
Q 359 1222 359 2328 
Q 359 3434 948 4092 
Q 1538 4750 2522 4750 
z
" transform="scale(0.015625)"/>
        <path id="DejaVuSans-63" d="M 3122 3366 
L 3122 2828 
Q 2878 2963 2633 3030 
Q 2388 3097 2138 3097 
Q 1578 3097 1268 2742 
Q 959 2388 959 1747 
Q 959 1106 1268 751 
Q 1578 397 2138 397 
Q 2388 397 2633 464 
Q 2878 531 3122 666 
L 3122 134 
Q 2881 22 2623 -34 
Q 2366 -91 2075 -91 
Q 1284 -91 818 406 
Q 353 903 353 1747 
Q 353 2603 823 3093 
Q 1294 3584 2113 3584 
Q 2378 3584 2631 3529 
Q 2884 3475 3122 3366 
z
" transform="scale(0.015625)"/>
        <path id="DejaVuSans-74" d="M 1172 4494 
L 1172 3500 
L 2356 3500 
L 2356 3053 
L 1172 3053 
L 1172 1153 
Q 1172 725 1289 603 
Q 1406 481 1766 481 
L 2356 481 
L 2356 0 
L 1766 0 
Q 1100 0 847 248 
Q 594 497 594 1153 
L 594 3053 
L 172 3053 
L 172 3500 
L 594 3500 
L 594 4494 
L 1172 4494 
z
" transform="scale(0.015625)"/>
       </defs>
       <use xlink:href="#DejaVuSans-4f"/>
       <use xlink:href="#DejaVuSans-63" transform="translate(78.710938 0)"/>
       <use xlink:href="#DejaVuSans-74" transform="translate(133.691406 0)"/>
      </g>
     </g>
    </g>
    <g id="xtick_11">
     <g id="line2d_11">
      <g>
       <use xlink:href="#m84360eb349" x="315.154328" y="261.56" style="stroke: #000000; stroke-width: 0.8"/>
      </g>
     </g>
     <g id="text_11">
      <!-- Nov -->
      <g transform="translate(305.394953 276.158437) scale(0.1 -0.1)">
       <defs>
        <path id="DejaVuSans-4e" d="M 628 4666 
L 1478 4666 
L 3547 763 
L 3547 4666 
L 4159 4666 
L 4159 0 
L 3309 0 
L 1241 3903 
L 1241 0 
L 628 0 
L 628 4666 
z
" transform="scale(0.015625)"/>
        <path id="DejaVuSans-6f" d="M 1959 3097 
Q 1497 3097 1228 2736 
Q 959 2375 959 1747 
Q 959 1119 1226 758 
Q 1494 397 1959 397 
Q 2419 397 2687 759 
Q 2956 1122 2956 1747 
Q 2956 2369 2687 2733 
Q 2419 3097 1959 3097 
z
M 1959 3584 
Q 2709 3584 3137 3096 
Q 3566 2609 3566 1747 
Q 3566 888 3137 398 
Q 2709 -91 1959 -91 
Q 1206 -91 779 398 
Q 353 888 353 1747 
Q 353 2609 779 3096 
Q 1206 3584 1959 3584 
z
" transform="scale(0.015625)"/>
        <path id="DejaVuSans-76" d="M 191 3500 
L 800 3500 
L 1894 563 
L 2988 3500 
L 3597 3500 
L 2284 0 
L 1503 0 
L 191 3500 
z
" transform="scale(0.015625)"/>
       </defs>
       <use xlink:href="#DejaVuSans-4e"/>
       <use xlink:href="#DejaVuSans-6f" transform="translate(74.804688 0)"/>
       <use xlink:href="#DejaVuSans-76" transform="translate(135.986328 0)"/>
      </g>
     </g>
    </g>
    <g id="xtick_12">
     <g id="line2d_12">
      <g>
       <use xlink:href="#m84360eb349" x="340.269054" y="261.56" style="stroke: #000000; stroke-width: 0.8"/>
      </g>
     </g>
     <g id="text_12">
      <!-- Dec -->
      <g transform="translate(330.593273 276.158437) scale(0.1 -0.1)">
       <defs>
        <path id="DejaVuSans-44" d="M 1259 4147 
L 1259 519 
L 2022 519 
Q 2988 519 3436 956 
Q 3884 1394 3884 2338 
Q 3884 3275 3436 3711 
Q 2988 4147 2022 4147 
L 1259 4147 
z
M 628 4666 
L 1925 4666 
Q 3281 4666 3915 4102 
Q 4550 3538 4550 2338 
Q 4550 1131 3912 565 
Q 3275 0 1925 0 
L 628 0 
L 628 4666 
z
" transform="scale(0.015625)"/>
       </defs>
       <use xlink:href="#DejaVuSans-44"/>
       <use xlink:href="#DejaVuSans-65" transform="translate(77.001953 0)"/>
       <use xlink:href="#DejaVuSans-63" transform="translate(138.525391 0)"/>
      </g>
     </g>
    </g>
    <g id="xtick_13">
     <g id="line2d_13">
      <g>
       <use xlink:href="#m84360eb349" x="366.220937" y="261.56" style="stroke: #000000; stroke-width: 0.8"/>
      </g>
     </g>
     <g id="text_13">
      <!-- Jan -->
      <g transform="translate(358.513125 276.158437) scale(0.1 -0.1)">
       <use xlink:href="#DejaVuSans-4a"/>
       <use xlink:href="#DejaVuSans-61" transform="translate(29.492188 0)"/>
       <use xlink:href="#DejaVuSans-6e" transform="translate(90.771484 0)"/>
      </g>
     </g>
    </g>
   </g>
   <g id="matplotlib.axis_2">
    <g id="ytick_1">
     <g id="line2d_14">
      <path d="M 60.658438 239.859239 
L 366.220937 239.859239 
" clip-path="url(#pf67f587d72)" style="fill: none; stroke-dasharray: 2.96,1.28; stroke-dashoffset: 0; stroke: #b0b0b0; stroke-opacity: 0.3; stroke-width: 0.8"/>
     </g>
     <g id="line2d_15">
      <defs>
       <path id="m7c1bdc94c4" d="M 0 0 
L -3.5 0 
" style="stroke: #000000; stroke-width: 0.8"/>
      </defs>
      <g>
       <use xlink:href="#m7c1bdc94c4" x="60.658438" y="239.859239" style="stroke: #000000; stroke-width: 0.8"/>
      </g>
     </g>
     <g id="text_14">
      <!-- 15000 -->
      <g transform="translate(21.845938 243.658458) scale(0.1 -0.1)">
       <defs>
        <path id="DejaVuSans-31" d="M 794 531 
L 1825 531 
L 1825 4091 
L 703 3866 
L 703 4441 
L 1819 4666 
L 2450 4666 
L 2450 531 
L 3481 531 
L 3481 0 
L 794 0 
L 794 531 
z
" transform="scale(0.015625)"/>
        <path id="DejaVuSans-35" d="M 691 4666 
L 3169 4666 
L 3169 4134 
L 1269 4134 
L 1269 2991 
Q 1406 3038 1543 3061 
Q 1681 3084 1819 3084 
Q 2600 3084 3056 2656 
Q 3513 2228 3513 1497 
Q 3513 744 3044 326 
Q 2575 -91 1722 -91 
Q 1428 -91 1123 -41 
Q 819 9 494 109 
L 494 744 
Q 775 591 1075 516 
Q 1375 441 1709 441 
Q 2250 441 2565 725 
Q 2881 1009 2881 1497 
Q 2881 1984 2565 2268 
Q 2250 2553 1709 2553 
Q 1456 2553 1204 2497 
Q 953 2441 691 2322 
L 691 4666 
z
" transform="scale(0.015625)"/>
        <path id="DejaVuSans-30" d="M 2034 4250 
Q 1547 4250 1301 3770 
Q 1056 3291 1056 2328 
Q 1056 1369 1301 889 
Q 1547 409 2034 409 
Q 2525 409 2770 889 
Q 3016 1369 3016 2328 
Q 3016 3291 2770 3770 
Q 2525 4250 2034 4250 
z
M 2034 4750 
Q 2819 4750 3233 4129 
Q 3647 3509 3647 2328 
Q 3647 1150 3233 529 
Q 2819 -91 2034 -91 
Q 1250 -91 836 529 
Q 422 1150 422 2328 
Q 422 3509 836 4129 
Q 1250 4750 2034 4750 
z
" transform="scale(0.015625)"/>
       </defs>
       <use xlink:href="#DejaVuSans-31"/>
       <use xlink:href="#DejaVuSans-35" transform="translate(63.623047 0)"/>
       <use xlink:href="#DejaVuSans-30" transform="translate(127.246094 0)"/>
       <use xlink:href="#DejaVuSans-30" transform="translate(190.869141 0)"/>
       <use xlink:href="#DejaVuSans-30" transform="translate(254.492188 0)"/>
      </g>
     </g>
    </g>
    <g id="ytick_2">
     <g id="line2d_16">
      <path d="M 60.658438 209.735551 
L 366.220937 209.735551 
" clip-path="url(#pf67f587d72)" style="fill: none; stroke-dasharray: 2.96,1.28; stroke-dashoffset: 0; stroke: #b0b0b0; stroke-opacity: 0.3; stroke-width: 0.8"/>
     </g>
     <g id="line2d_17">
      <g>
       <use xlink:href="#m7c1bdc94c4" x="60.658438" y="209.735551" style="stroke: #000000; stroke-width: 0.8"/>
      </g>
     </g>
     <g id="text_15">
      <!-- 20000 -->
      <g transform="translate(21.845938 213.53477) scale(0.1 -0.1)">
       <defs>
        <path id="DejaVuSans-32" d="M 1228 531 
L 3431 531 
L 3431 0 
L 469 0 
L 469 531 
Q 828 903 1448 1529 
Q 2069 2156 2228 2338 
Q 2531 2678 2651 2914 
Q 2772 3150 2772 3378 
Q 2772 3750 2511 3984 
Q 2250 4219 1831 4219 
Q 1534 4219 1204 4116 
Q 875 4013 500 3803 
L 500 4441 
Q 881 4594 1212 4672 
Q 1544 4750 1819 4750 
Q 2544 4750 2975 4387 
Q 3406 4025 3406 3419 
Q 3406 3131 3298 2873 
Q 3191 2616 2906 2266 
Q 2828 2175 2409 1742 
Q 1991 1309 1228 531 
z
" transform="scale(0.015625)"/>
       </defs>
       <use xlink:href="#DejaVuSans-32"/>
       <use xlink:href="#DejaVuSans-30" transform="translate(63.623047 0)"/>
       <use xlink:href="#DejaVuSans-30" transform="translate(127.246094 0)"/>
       <use xlink:href="#DejaVuSans-30" transform="translate(190.869141 0)"/>
       <use xlink:href="#DejaVuSans-30" transform="translate(254.492188 0)"/>
      </g>
     </g>
    </g>
    <g id="ytick_3">
     <g id="line2d_18">
      <path d="M 60.658438 179.611863 
L 366.220937 179.611863 
" clip-path="url(#pf67f587d72)" style="fill: none; stroke-dasharray: 2.96,1.28; stroke-dashoffset: 0; stroke: #b0b0b0; stroke-opacity: 0.3; stroke-width: 0.8"/>
     </g>
     <g id="line2d_19">
      <g>
       <use xlink:href="#m7c1bdc94c4" x="60.658438" y="179.611863" style="stroke: #000000; stroke-width: 0.8"/>
      </g>
     </g>
     <g id="text_16">
      <!-- 25000 -->
      <g transform="translate(21.845938 183.411082) scale(0.1 -0.1)">
       <use xlink:href="#DejaVuSans-32"/>
       <use xlink:href="#DejaVuSans-35" transform="translate(63.623047 0)"/>
       <use xlink:href="#DejaVuSans-30" transform="translate(127.246094 0)"/>
       <use xlink:href="#DejaVuSans-30" transform="translate(190.869141 0)"/>
       <use xlink:href="#DejaVuSans-30" transform="translate(254.492188 0)"/>
      </g>
     </g>
    </g>
    <g id="ytick_4">
     <g id="line2d_20">
      <path d="M 60.658438 149.488175 
L 366.220937 149.488175 
" clip-path="url(#pf67f587d72)" style="fill: none; stroke-dasharray: 2.96,1.28; stroke-dashoffset: 0; stroke: #b0b0b0; stroke-opacity: 0.3; stroke-width: 0.8"/>
     </g>
     <g id="line2d_21">
      <g>
       <use xlink:href="#m7c1bdc94c4" x="60.658438" y="149.488175" style="stroke: #000000; stroke-width: 0.8"/>
      </g>
     </g>
     <g id="text_17">
      <!-- 30000 -->
      <g transform="translate(21.845938 153.287394) scale(0.1 -0.1)">
       <defs>
        <path id="DejaVuSans-33" d="M 2597 2516 
Q 3050 2419 3304 2112 
Q 3559 1806 3559 1356 
Q 3559 666 3084 287 
Q 2609 -91 1734 -91 
Q 1441 -91 1130 -33 
Q 819 25 488 141 
L 488 750 
Q 750 597 1062 519 
Q 1375 441 1716 441 
Q 2309 441 2620 675 
Q 2931 909 2931 1356 
Q 2931 1769 2642 2001 
Q 2353 2234 1838 2234 
L 1294 2234 
L 1294 2753 
L 1863 2753 
Q 2328 2753 2575 2939 
Q 2822 3125 2822 3475 
Q 2822 3834 2567 4026 
Q 2313 4219 1838 4219 
Q 1578 4219 1281 4162 
Q 984 4106 628 3988 
L 628 4550 
Q 988 4650 1302 4700 
Q 1616 4750 1894 4750 
Q 2613 4750 3031 4423 
Q 3450 4097 3450 3541 
Q 3450 3153 3228 2886 
Q 3006 2619 2597 2516 
z
" transform="scale(0.015625)"/>
       </defs>
       <use xlink:href="#DejaVuSans-33"/>
       <use xlink:href="#DejaVuSans-30" transform="translate(63.623047 0)"/>
       <use xlink:href="#DejaVuSans-30" transform="translate(127.246094 0)"/>
       <use xlink:href="#DejaVuSans-30" transform="translate(190.869141 0)"/>
       <use xlink:href="#DejaVuSans-30" transform="translate(254.492188 0)"/>
      </g>
     </g>
    </g>
    <g id="ytick_5">
     <g id="line2d_22">
      <path d="M 60.658438 119.364487 
L 366.220937 119.364487 
" clip-path="url(#pf67f587d72)" style="fill: none; stroke-dasharray: 2.96,1.28; stroke-dashoffset: 0; stroke: #b0b0b0; stroke-opacity: 0.3; stroke-width: 0.8"/>
     </g>
     <g id="line2d_23">
      <g>
       <use xlink:href="#m7c1bdc94c4" x="60.658438" y="119.364487" style="stroke: #000000; stroke-width: 0.8"/>
      </g>
     </g>
     <g id="text_18">
      <!-- 35000 -->
      <g transform="translate(21.845938 123.163706) scale(0.1 -0.1)">
       <use xlink:href="#DejaVuSans-33"/>
       <use xlink:href="#DejaVuSans-35" transform="translate(63.623047 0)"/>
       <use xlink:href="#DejaVuSans-30" transform="translate(127.246094 0)"/>
       <use xlink:href="#DejaVuSans-30" transform="translate(190.869141 0)"/>
       <use xlink:href="#DejaVuSans-30" transform="translate(254.492188 0)"/>
      </g>
     </g>
    </g>
    <g id="ytick_6">
     <g id="line2d_24">
      <path d="M 60.658438 89.240799 
L 366.220937 89.240799 
" clip-path="url(#pf67f587d72)" style="fill: none; stroke-dasharray: 2.96,1.28; stroke-dashoffset: 0; stroke: #b0b0b0; stroke-opacity: 0.3; stroke-width: 0.8"/>
     </g>
     <g id="line2d_25">
      <g>
       <use xlink:href="#m7c1bdc94c4" x="60.658438" y="89.240799" style="stroke: #000000; stroke-width: 0.8"/>
      </g>
     </g>
     <g id="text_19">
      <!-- 40000 -->
      <g transform="translate(21.845938 93.040018) scale(0.1 -0.1)">
       <defs>
        <path id="DejaVuSans-34" d="M 2419 4116 
L 825 1625 
L 2419 1625 
L 2419 4116 
z
M 2253 4666 
L 3047 4666 
L 3047 1625 
L 3713 1625 
L 3713 1100 
L 3047 1100 
L 3047 0 
L 2419 0 
L 2419 1100 
L 313 1100 
L 313 1709 
L 2253 4666 
z
" transform="scale(0.015625)"/>
       </defs>
       <use xlink:href="#DejaVuSans-34"/>
       <use xlink:href="#DejaVuSans-30" transform="translate(63.623047 0)"/>
       <use xlink:href="#DejaVuSans-30" transform="translate(127.246094 0)"/>
       <use xlink:href="#DejaVuSans-30" transform="translate(190.869141 0)"/>
       <use xlink:href="#DejaVuSans-30" transform="translate(254.492188 0)"/>
      </g>
     </g>
    </g>
    <g id="ytick_7">
     <g id="line2d_26">
      <path d="M 60.658438 59.117111 
L 366.220937 59.117111 
" clip-path="url(#pf67f587d72)" style="fill: none; stroke-dasharray: 2.96,1.28; stroke-dashoffset: 0; stroke: #b0b0b0; stroke-opacity: 0.3; stroke-width: 0.8"/>
     </g>
     <g id="line2d_27">
      <g>
       <use xlink:href="#m7c1bdc94c4" x="60.658438" y="59.117111" style="stroke: #000000; stroke-width: 0.8"/>
      </g>
     </g>
     <g id="text_20">
      <!-- 45000 -->
      <g transform="translate(21.845938 62.91633) scale(0.1 -0.1)">
       <use xlink:href="#DejaVuSans-34"/>
       <use xlink:href="#DejaVuSans-35" transform="translate(63.623047 0)"/>
       <use xlink:href="#DejaVuSans-30" transform="translate(127.246094 0)"/>
       <use xlink:href="#DejaVuSans-30" transform="translate(190.869141 0)"/>
       <use xlink:href="#DejaVuSans-30" transform="translate(254.492188 0)"/>
      </g>
     </g>
    </g>
    <g id="text_21">
     <!-- Daily pedestrian count -->
     <g transform="translate(15.558281 220.247656) rotate(-90) scale(0.11 -0.11)">
      <defs>
       <path id="DejaVuSans-69" d="M 603 3500 
L 1178 3500 
L 1178 0 
L 603 0 
L 603 3500 
z
M 603 4863 
L 1178 4863 
L 1178 4134 
L 603 4134 
L 603 4863 
z
" transform="scale(0.015625)"/>
       <path id="DejaVuSans-20" transform="scale(0.015625)"/>
       <path id="DejaVuSans-64" d="M 2906 2969 
L 2906 4863 
L 3481 4863 
L 3481 0 
L 2906 0 
L 2906 525 
Q 2725 213 2448 61 
Q 2172 -91 1784 -91 
Q 1150 -91 751 415 
Q 353 922 353 1747 
Q 353 2572 751 3078 
Q 1150 3584 1784 3584 
Q 2172 3584 2448 3432 
Q 2725 3281 2906 2969 
z
M 947 1747 
Q 947 1113 1208 752 
Q 1469 391 1925 391 
Q 2381 391 2643 752 
Q 2906 1113 2906 1747 
Q 2906 2381 2643 2742 
Q 2381 3103 1925 3103 
Q 1469 3103 1208 2742 
Q 947 2381 947 1747 
z
" transform="scale(0.015625)"/>
       <path id="DejaVuSans-73" d="M 2834 3397 
L 2834 2853 
Q 2591 2978 2328 3040 
Q 2066 3103 1784 3103 
Q 1356 3103 1142 2972 
Q 928 2841 928 2578 
Q 928 2378 1081 2264 
Q 1234 2150 1697 2047 
L 1894 2003 
Q 2506 1872 2764 1633 
Q 3022 1394 3022 966 
Q 3022 478 2636 193 
Q 2250 -91 1575 -91 
Q 1294 -91 989 -36 
Q 684 19 347 128 
L 347 722 
Q 666 556 975 473 
Q 1284 391 1588 391 
Q 1994 391 2212 530 
Q 2431 669 2431 922 
Q 2431 1156 2273 1281 
Q 2116 1406 1581 1522 
L 1381 1569 
Q 847 1681 609 1914 
Q 372 2147 372 2553 
Q 372 3047 722 3315 
Q 1072 3584 1716 3584 
Q 2034 3584 2315 3537 
Q 2597 3491 2834 3397 
z
" transform="scale(0.015625)"/>
      </defs>
      <use xlink:href="#DejaVuSans-44"/>
      <use xlink:href="#DejaVuSans-61" transform="translate(77.001953 0)"/>
      <use xlink:href="#DejaVuSans-69" transform="translate(138.28125 0)"/>
      <use xlink:href="#DejaVuSans-6c" transform="translate(166.064453 0)"/>
      <use xlink:href="#DejaVuSans-79" transform="translate(193.847656 0)"/>
      <use xlink:href="#DejaVuSans-20" transform="translate(253.027344 0)"/>
      <use xlink:href="#DejaVuSans-70" transform="translate(284.814453 0)"/>
      <use xlink:href="#DejaVuSans-65" transform="translate(348.291016 0)"/>
      <use xlink:href="#DejaVuSans-64" transform="translate(409.814453 0)"/>
      <use xlink:href="#DejaVuSans-65" transform="translate(473.291016 0)"/>
      <use xlink:href="#DejaVuSans-73" transform="translate(534.814453 0)"/>
      <use xlink:href="#DejaVuSans-74" transform="translate(586.914062 0)"/>
      <use xlink:href="#DejaVuSans-72" transform="translate(626.123047 0)"/>
      <use xlink:href="#DejaVuSans-69" transform="translate(667.236328 0)"/>
      <use xlink:href="#DejaVuSans-61" transform="translate(695.019531 0)"/>
      <use xlink:href="#DejaVuSans-6e" transform="translate(756.298828 0)"/>
      <use xlink:href="#DejaVuSans-20" transform="translate(819.677734 0)"/>
      <use xlink:href="#DejaVuSans-63" transform="translate(851.464844 0)"/>
      <use xlink:href="#DejaVuSans-6f" transform="translate(906.445312 0)"/>
      <use xlink:href="#DejaVuSans-75" transform="translate(967.626953 0)"/>
      <use xlink:href="#DejaVuSans-6e" transform="translate(1031.005859 0)"/>
      <use xlink:href="#DejaVuSans-74" transform="translate(1094.384766 0)"/>
     </g>
    </g>
   </g>
   <g id="line2d_28">
    <path d="M 75.727273 132.043978 
L 78.238746 123.713917 
L 79.913061 111.886497 
L 80.750218 105.144815 
L 81.587376 106.559768 
L 84.098848 115.271108 
L 86.610321 112.950293 
L 87.447479 111.672188 
L 89.958951 110.677246 
L 91.633266 108.338787 
L 92.470424 107.016357 
L 93.307581 105.911679 
L 96.656211 105.525665 
L 97.493369 104.377092 
L 98.330527 99.54224 
L 99.167684 87.120522 
L 101.679157 85.853175 
L 102.516314 84.610788 
L 103.353472 83.116223 
L 104.190629 82.231017 
L 105.027787 80.281154 
L 108.376417 78.997885 
L 109.213574 77.968085 
L 110.050732 77.264482 
L 110.88789 76.856521 
L 114.23652 76.411551 
L 115.073677 77.319134 
L 115.910835 77.479651 
L 116.747992 76.602191 
L 119.259465 86.614014 
L 120.096622 86.339888 
L 120.93378 85.866946 
L 121.770938 85.215844 
L 122.608095 82.381205 
L 125.119568 81.758505 
L 125.956725 82.116547 
L 126.793883 82.095891 
L 128.468198 79.78067 
L 130.97967 81.333331 
L 131.816828 81.020045 
L 132.653985 81.012299 
L 133.491143 80.195947 
L 134.328301 69.778315 
L 136.839773 70.54776 
L 137.676931 71.099454 
L 138.514088 72.74808 
L 139.351246 75.424785 
L 140.188403 75.375726 
L 142.699876 76.561309 
L 145.211348 80.211439 
L 146.048506 78.606707 
L 148.559979 80.268244 
L 149.397136 81.958613 
L 150.234294 84.733865 
L 151.071451 86.299436 
L 151.908609 94.740954 
L 155.257239 109.452503 
L 156.094396 111.683807 
L 156.931554 123.325322 
L 157.768711 125.89143 
L 160.280184 126.1208 
L 161.117342 126.0825 
L 161.954499 125.756734 
L 162.791657 128.924455 
L 163.628814 125.692183 
L 166.140287 125.220963 
L 167.814602 122.215049 
L 168.651759 113.00968 
L 169.488917 101.862624 
L 172.00039 99.606791 
L 172.837547 98.110504 
L 173.674705 87.756132 
L 174.511862 84.690401 
L 175.34902 83.565927 
L 177.860492 84.250165 
L 178.69765 84.743333 
L 179.534807 82.249952 
L 180.371965 83.831446 
L 181.209122 82.817999 
L 184.557753 84.770874 
L 185.39491 85.474478 
L 186.232068 85.556672 
L 187.069225 83.34172 
L 189.580698 84.330208 
L 190.417855 84.04059 
L 191.255013 84.096964 
L 192.09217 84.306539 
L 192.929328 83.186368 
L 195.440801 93.789476 
L 196.277958 93.783882 
L 197.115116 94.796038 
L 197.952273 95.072745 
L 198.789431 91.687273 
L 201.300903 91.904164 
L 202.975218 91.745799 
L 203.812376 93.517072 
L 204.649533 91.985498 
L 208.835321 91.880925 
L 209.672479 90.81928 
L 210.509636 90.481034 
L 213.021109 91.822399 
L 213.858266 81.64963 
L 214.695424 82.172061 
L 216.369739 81.462863 
L 218.881211 85.237361 
L 219.718369 85.613046 
L 220.555527 85.836822 
L 221.392684 86.3429 
L 222.229842 86.499544 
L 225.578472 87.882651 
L 226.415629 88.741607 
L 227.252787 88.906426 
L 228.089944 86.879532 
L 230.601417 86.994002 
L 231.438574 86.188409 
L 232.275732 85.813154 
L 233.11289 85.842847 
L 233.950047 83.096428 
L 236.46152 82.697934 
L 237.298677 82.102776 
L 238.135835 81.70084 
L 238.972992 81.547209 
L 239.81015 79.809503 
L 242.321622 80.295785 
L 243.15878 80.31515 
L 243.995938 80.953342 
L 244.833095 82.157429 
L 245.670253 81.540754 
L 248.181725 81.546779 
L 249.018883 80.739034 
L 249.85604 80.613805 
L 250.693198 81.174106 
L 251.530355 79.757432 
L 254.041828 80.964101 
L 254.878985 80.820368 
L 255.716143 80.145597 
L 256.553301 79.295248 
L 257.390458 77.115584 
L 259.901931 77.532152 
L 260.739088 77.272658 
L 261.576246 77.634573 
L 262.413403 77.308376 
L 263.250561 77.588526 
L 266.599191 80.303531 
L 267.436348 80.741616 
L 268.273506 81.737849 
L 269.110664 79.946781 
L 272.459294 81.435752 
L 273.296451 83.593038 
L 274.133609 85.123321 
L 274.970766 84.441235 
L 277.482239 85.409927 
L 278.319396 84.939567 
L 279.156554 85.297608 
L 279.993711 85.268345 
L 280.830869 83.280182 
L 284.179499 83.880504 
L 285.016657 83.731177 
L 285.853814 83.734189 
L 286.690972 91.970436 
L 289.202444 95.18119 
L 290.039602 97.299746 
L 291.713917 101.05617 
L 292.551074 101.631963 
L 295.062547 101.995599 
L 295.899705 101.581614 
L 296.736862 100.988177 
L 297.57402 100.939118 
L 298.411177 98.965156 
L 301.759807 99.968705 
L 302.596965 100.689952 
L 303.434122 91.395504 
L 304.27128 87.801748 
L 306.782753 86.124289 
L 308.457068 82.352803 
L 309.294225 80.165393 
L 310.131383 79.851246 
L 313.480013 80.987339 
L 315.154328 83.424776 
L 315.991485 82.617031 
L 318.502958 86.132895 
L 319.340116 96.356014 
L 320.177273 96.174842 
L 321.014431 95.597328 
L 321.851588 94.681137 
L 324.363061 94.739663 
L 325.200218 95.082643 
L 326.037376 95.049937 
L 326.874533 94.270594 
L 327.711691 90.808092 
L 330.223164 90.981088 
L 331.060321 90.175925 
L 331.897479 89.137948 
L 332.734636 89.594968 
L 333.571794 84.317298 
L 336.083266 73.601871 
L 336.920424 74.168627 
L 337.757581 72.491168 
L 338.594739 69.468901 
L 339.431896 64.449865 
L 341.943369 64.792844 
L 342.780527 64.272565 
L 343.617684 63.969607 
L 344.454842 65.230498 
L 345.291999 63.663636 
L 347.803472 64.376707 
L 348.640629 65.089778 
L 349.477787 63.796181 
L 350.314944 64.668046 
L 351.152102 63.923991 
L 353.663574 63.745401 
L 354.500732 66.086442 
L 355.33789 69.32775 
L 356.175047 74.857599 
L 357.012205 77.080297 
L 359.523677 82.965605 
L 360.360835 90.651018 
L 361.197992 103.438093 
L 362.03515 114.084235 
L 362.872307 121.394824 
L 365.38378 130.496911 
L 366.220937 137.203735 
L 366.220937 137.203735 
" clip-path="url(#pf67f587d72)" style="fill: none; stroke: #0d6efc; stroke-opacity: 0.5; stroke-width: 1.5; stroke-linecap: square"/>
   </g>
   <g id="line2d_29">
    <path d="M 100.841999 223.28949 
L 105.864944 219.281318 
L 106.702102 215.99009 
L 111.725047 215.048079 
L 112.562205 214.563948 
L 117.58515 213.194181 
L 118.422307 212.168685 
L 123.445253 207.510702 
L 124.28241 202.54933 
L 129.305355 201.501456 
L 130.142513 200.944168 
L 135.165458 200.151055 
L 136.002616 201.246266 
L 141.025561 200.095541 
L 141.862718 198.953853 
L 146.885664 199.828301 
L 147.722821 200.936422 
L 152.745766 201.181715 
L 153.582924 201.397315 
L 158.605869 202.699949 
L 159.443027 203.978915 
L 164.465972 207.744806 
L 165.303129 210.669816 
L 170.326074 211.202145 
L 171.163232 211.546415 
L 176.186177 211.059272 
L 177.023335 211.088105 
L 182.04628 212.549965 
L 182.883438 213.618495 
L 187.906383 214.308327 
L 188.74354 215.396653 
L 193.766485 214.202464 
L 194.603643 213.636999 
L 199.626588 213.692513 
L 200.463746 213.939527 
L 205.486691 214.257547 
L 211.346794 213.141249 
L 212.183951 213.529415 
L 217.206896 210.915539 
L 218.044054 214.271318 
L 223.066999 212.439798 
L 223.904157 214.450339 
L 228.927102 212.911018 
L 229.764259 214.581162 
L 234.787205 212.072289 
L 235.624362 214.56653 
L 240.647307 212.51855 
L 241.484465 213.616773 
L 246.50741 210.634959 
L 247.344568 212.212579 
L 252.367513 211.290794 
L 253.20467 211.939314 
L 258.227616 210.40817 
L 259.064773 209.940823 
L 264.087718 209.996767 
L 264.924876 210.512312 
L 269.947821 211.680681 
L 270.784979 212.304241 
L 275.807924 213.09133 
L 276.645081 213.721776 
L 281.668027 215.043345 
L 282.505184 215.917362 
L 287.528129 217.098641 
L 288.365287 217.970077 
L 293.388232 218.66077 
L 294.22539 217.767387 
L 299.248335 217.925321 
L 300.085492 217.044849 
L 305.108437 217.954154 
L 305.945595 218.198586 
L 310.96854 218.182233 
L 311.805698 217.899071 
L 316.828643 217.813003 
L 317.665801 217.852594 
L 322.688746 217.150712 
L 323.525903 217.260879 
L 328.548848 216.624839 
L 329.386006 216.105851 
L 334.408951 216.904989 
L 335.246109 218.785138 
L 340.269054 215.498643 
L 341.106211 215.371263 
L 346.129157 214.106499 
L 346.966314 212.936839 
L 351.989259 211.985791 
L 352.826417 211.929847 
L 357.849362 212.943724 
L 358.68652 212.270675 
L 363.709465 213.796655 
L 364.546622 213.025058 
" clip-path="url(#pf67f587d72)" style="fill: none; stroke: #83c966; stroke-opacity: 0.5; stroke-width: 1.5; stroke-linecap: square"/>
   </g>
   <g id="line2d_30">
    <path d="M 60.658438 68.512 
L 366.220937 68.512 
" clip-path="url(#pf67f587d72)" style="fill: none; stroke-dasharray: 7.4,3.2; stroke-dashoffset: 0; stroke: #0d6efc; stroke-width: 2"/>
   </g>
   <g id="line2d_31">
    <path d="M 60.658438 200.438604 
L 366.220937 200.438604 
" clip-path="url(#pf67f587d72)" style="fill: none; stroke-dasharray: 7.4,3.2; stroke-dashoffset: 0; stroke: #83c966; stroke-width: 2"/>
   </g>
   <g id="patch_3">
    <path d="M 60.658438 261.56 
L 60.658438 54.24 
" style="fill: none; stroke: #000000; stroke-width: 0.8; stroke-linejoin: miter; stroke-linecap: square"/>
   </g>
   <g id="patch_4">
    <path d="M 60.658438 261.56 
L 366.220937 261.56 
" style="fill: none; stroke: #000000; stroke-width: 0.8; stroke-linejoin: miter; stroke-linecap: square"/>
   </g>
   <g id="text_22">
    <!-- 2019 -->
    <g transform="translate(195.624687 48.24) scale(0.14 -0.14)">
     <defs>
      <path id="DejaVuSans-39" d="M 703 97 
L 703 672 
Q 941 559 1184 500 
Q 1428 441 1663 441 
Q 2288 441 2617 861 
Q 2947 1281 2994 2138 
Q 2813 1869 2534 1725 
Q 2256 1581 1919 1581 
Q 1219 1581 811 2004 
Q 403 2428 403 3163 
Q 403 3881 828 4315 
Q 1253 4750 1959 4750 
Q 2769 4750 3195 4129 
Q 3622 3509 3622 2328 
Q 3622 1225 3098 567 
Q 2575 -91 1691 -91 
Q 1453 -91 1209 -44 
Q 966 3 703 97 
z
M 1959 2075 
Q 2384 2075 2632 2365 
Q 2881 2656 2881 3163 
Q 2881 3666 2632 3958 
Q 2384 4250 1959 4250 
Q 1534 4250 1286 3958 
Q 1038 3666 1038 3163 
Q 1038 2656 1286 2365 
Q 1534 2075 1959 2075 
z
" transform="scale(0.015625)"/>
     </defs>
     <use xlink:href="#DejaVuSans-32"/>
     <use xlink:href="#DejaVuSans-30" transform="translate(63.623047 0)"/>
     <use xlink:href="#DejaVuSans-31" transform="translate(127.246094 0)"/>
     <use xlink:href="#DejaVuSans-39" transform="translate(190.869141 0)"/>
    </g>
   </g>
   <g id="legend_1">
    <g id="line2d_32">
     <path d="M 278.222031 137.417969 
L 287.222031 137.417969 
L 296.222031 137.417969 
" style="fill: none; stroke: #0d6efc; stroke-opacity: 0.5; stroke-width: 1.5; stroke-linecap: square"/>
    </g>
    <g id="text_23">
     <!-- Weekday -->
     <g transform="translate(303.422031 140.567969) scale(0.09 -0.09)">
      <defs>
       <path id="DejaVuSans-57" d="M 213 4666 
L 850 4666 
L 1831 722 
L 2809 4666 
L 3519 4666 
L 4500 722 
L 5478 4666 
L 6119 4666 
L 4947 0 
L 4153 0 
L 3169 4050 
L 2175 0 
L 1381 0 
L 213 4666 
z
" transform="scale(0.015625)"/>
       <path id="DejaVuSans-6b" d="M 581 4863 
L 1159 4863 
L 1159 1991 
L 2875 3500 
L 3609 3500 
L 1753 1863 
L 3688 0 
L 2938 0 
L 1159 1709 
L 1159 0 
L 581 0 
L 581 4863 
z
" transform="scale(0.015625)"/>
      </defs>
      <use xlink:href="#DejaVuSans-57"/>
      <use xlink:href="#DejaVuSans-65" transform="translate(93.001953 0)"/>
      <use xlink:href="#DejaVuSans-65" transform="translate(154.525391 0)"/>
      <use xlink:href="#DejaVuSans-6b" transform="translate(216.048828 0)"/>
      <use xlink:href="#DejaVuSans-64" transform="translate(273.958984 0)"/>
      <use xlink:href="#DejaVuSans-61" transform="translate(337.435547 0)"/>
      <use xlink:href="#DejaVuSans-79" transform="translate(398.714844 0)"/>
     </g>
    </g>
    <g id="line2d_33">
     <path d="M 278.222031 150.628281 
L 287.222031 150.628281 
L 296.222031 150.628281 
" style="fill: none; stroke: #83c966; stroke-opacity: 0.5; stroke-width: 1.5; stroke-linecap: square"/>
    </g>
    <g id="text_24">
     <!-- Weekend -->
     <g transform="translate(303.422031 153.778281) scale(0.09 -0.09)">
      <use xlink:href="#DejaVuSans-57"/>
      <use xlink:href="#DejaVuSans-65" transform="translate(93.001953 0)"/>
      <use xlink:href="#DejaVuSans-65" transform="translate(154.525391 0)"/>
      <use xlink:href="#DejaVuSans-6b" transform="translate(216.048828 0)"/>
      <use xlink:href="#DejaVuSans-65" transform="translate(270.333984 0)"/>
      <use xlink:href="#DejaVuSans-6e" transform="translate(331.857422 0)"/>
      <use xlink:href="#DejaVuSans-64" transform="translate(395.236328 0)"/>
     </g>
    </g>
    <g id="line2d_34">
     <path d="M 278.222031 163.838594 
L 287.222031 163.838594 
L 296.222031 163.838594 
" style="fill: none; stroke-dasharray: 7.4,3.2; stroke-dashoffset: 0; stroke: #0d6efc; stroke-width: 2"/>
    </g>
    <g id="text_25">
     <!-- Weekday Fit -->
     <g transform="translate(303.422031 166.988594) scale(0.09 -0.09)">
      <use xlink:href="#DejaVuSans-57"/>
      <use xlink:href="#DejaVuSans-65" transform="translate(93.001953 0)"/>
      <use xlink:href="#DejaVuSans-65" transform="translate(154.525391 0)"/>
      <use xlink:href="#DejaVuSans-6b" transform="translate(216.048828 0)"/>
      <use xlink:href="#DejaVuSans-64" transform="translate(273.958984 0)"/>
      <use xlink:href="#DejaVuSans-61" transform="translate(337.435547 0)"/>
      <use xlink:href="#DejaVuSans-79" transform="translate(398.714844 0)"/>
      <use xlink:href="#DejaVuSans-20" transform="translate(457.894531 0)"/>
      <use xlink:href="#DejaVuSans-46" transform="translate(489.681641 0)"/>
      <use xlink:href="#DejaVuSans-69" transform="translate(539.951172 0)"/>
      <use xlink:href="#DejaVuSans-74" transform="translate(567.734375 0)"/>
     </g>
    </g>
    <g id="line2d_35">
     <path d="M 278.222031 177.048906 
L 287.222031 177.048906 
L 296.222031 177.048906 
" style="fill: none; stroke-dasharray: 7.4,3.2; stroke-dashoffset: 0; stroke: #83c966; stroke-width: 2"/>
    </g>
    <g id="text_26">
     <!-- Weekend Fit -->
     <g transform="translate(303.422031 180.198906) scale(0.09 -0.09)">
      <use xlink:href="#DejaVuSans-57"/>
      <use xlink:href="#DejaVuSans-65" transform="translate(93.001953 0)"/>
      <use xlink:href="#DejaVuSans-65" transform="translate(154.525391 0)"/>
      <use xlink:href="#DejaVuSans-6b" transform="translate(216.048828 0)"/>
      <use xlink:href="#DejaVuSans-65" transform="translate(270.333984 0)"/>
      <use xlink:href="#DejaVuSans-6e" transform="translate(331.857422 0)"/>
      <use xlink:href="#DejaVuSans-64" transform="translate(395.236328 0)"/>
      <use xlink:href="#DejaVuSans-20" transform="translate(458.712891 0)"/>
      <use xlink:href="#DejaVuSans-46" transform="translate(490.5 0)"/>
      <use xlink:href="#DejaVuSans-69" transform="translate(540.769531 0)"/>
      <use xlink:href="#DejaVuSans-74" transform="translate(568.552734 0)"/>
     </g>
    </g>
   </g>
  </g>
  <g id="axes_2">
   <g id="patch_5">
    <path d="M 392.410937 261.56 
L 697.973437 261.56 
L 697.973437 54.24 
L 392.410937 54.24 
L 392.410937 261.56 
z
" style="fill: none"/>
   </g>
   <g id="matplotlib.axis_3">
    <g id="xtick_14">
     <g id="line2d_36">
      <g>
       <use xlink:href="#m84360eb349" x="392.410937" y="261.56" style="stroke: #000000; stroke-width: 0.8"/>
      </g>
     </g>
     <g id="text_27">
      <!-- Jan -->
      <g transform="translate(384.703125 276.158437) scale(0.1 -0.1)">
       <use xlink:href="#DejaVuSans-4a"/>
       <use xlink:href="#DejaVuSans-61" transform="translate(29.492188 0)"/>
       <use xlink:href="#DejaVuSans-6e" transform="translate(90.771484 0)"/>
      </g>
     </g>
    </g>
    <g id="xtick_15">
     <g id="line2d_37">
      <g>
       <use xlink:href="#m84360eb349" x="418.362821" y="261.56" style="stroke: #000000; stroke-width: 0.8"/>
      </g>
     </g>
     <g id="text_28">
      <!-- Feb -->
      <g transform="translate(409.511259 276.158437) scale(0.1 -0.1)">
       <use xlink:href="#DejaVuSans-46"/>
       <use xlink:href="#DejaVuSans-65" transform="translate(52.019531 0)"/>
       <use xlink:href="#DejaVuSans-62" transform="translate(113.542969 0)"/>
      </g>
     </g>
    </g>
    <g id="xtick_16">
     <g id="line2d_38">
      <g>
       <use xlink:href="#m84360eb349" x="441.803232" y="261.56" style="stroke: #000000; stroke-width: 0.8"/>
      </g>
     </g>
     <g id="text_29">
      <!-- Mar -->
      <g transform="translate(432.369638 276.158437) scale(0.1 -0.1)">
       <use xlink:href="#DejaVuSans-4d"/>
       <use xlink:href="#DejaVuSans-61" transform="translate(86.279297 0)"/>
       <use xlink:href="#DejaVuSans-72" transform="translate(147.558594 0)"/>
      </g>
     </g>
    </g>
    <g id="xtick_17">
     <g id="line2d_39">
      <g>
       <use xlink:href="#m84360eb349" x="467.755116" y="261.56" style="stroke: #000000; stroke-width: 0.8"/>
      </g>
     </g>
     <g id="text_30">
      <!-- Apr -->
      <g transform="translate(459.105116 276.158437) scale(0.1 -0.1)">
       <use xlink:href="#DejaVuSans-41"/>
       <use xlink:href="#DejaVuSans-70" transform="translate(68.408203 0)"/>
       <use xlink:href="#DejaVuSans-72" transform="translate(131.884766 0)"/>
      </g>
     </g>
    </g>
    <g id="xtick_18">
     <g id="line2d_40">
      <g>
       <use xlink:href="#m84360eb349" x="492.869842" y="261.56" style="stroke: #000000; stroke-width: 0.8"/>
      </g>
     </g>
     <g id="text_31">
      <!-- May -->
      <g transform="translate(482.532342 276.158437) scale(0.1 -0.1)">
       <use xlink:href="#DejaVuSans-4d"/>
       <use xlink:href="#DejaVuSans-61" transform="translate(86.279297 0)"/>
       <use xlink:href="#DejaVuSans-79" transform="translate(147.558594 0)"/>
      </g>
     </g>
    </g>
    <g id="xtick_19">
     <g id="line2d_41">
      <g>
       <use xlink:href="#m84360eb349" x="518.821725" y="261.56" style="stroke: #000000; stroke-width: 0.8"/>
      </g>
     </g>
     <g id="text_32">
      <!-- Jun -->
      <g transform="translate(511.009225 276.158437) scale(0.1 -0.1)">
       <use xlink:href="#DejaVuSans-4a"/>
       <use xlink:href="#DejaVuSans-75" transform="translate(29.492188 0)"/>
       <use xlink:href="#DejaVuSans-6e" transform="translate(92.871094 0)"/>
      </g>
     </g>
    </g>
    <g id="xtick_20">
     <g id="line2d_42">
      <g>
       <use xlink:href="#m84360eb349" x="543.936451" y="261.56" style="stroke: #000000; stroke-width: 0.8"/>
      </g>
     </g>
     <g id="text_33">
      <!-- Jul -->
      <g transform="translate(537.903639 276.158437) scale(0.1 -0.1)">
       <use xlink:href="#DejaVuSans-4a"/>
       <use xlink:href="#DejaVuSans-75" transform="translate(29.492188 0)"/>
       <use xlink:href="#DejaVuSans-6c" transform="translate(92.871094 0)"/>
      </g>
     </g>
    </g>
    <g id="xtick_21">
     <g id="line2d_43">
      <g>
       <use xlink:href="#m84360eb349" x="569.888335" y="261.56" style="stroke: #000000; stroke-width: 0.8"/>
      </g>
     </g>
     <g id="text_34">
      <!-- Aug -->
      <g transform="translate(560.125054 276.158437) scale(0.1 -0.1)">
       <use xlink:href="#DejaVuSans-41"/>
       <use xlink:href="#DejaVuSans-75" transform="translate(68.408203 0)"/>
       <use xlink:href="#DejaVuSans-67" transform="translate(131.787109 0)"/>
      </g>
     </g>
    </g>
    <g id="xtick_22">
     <g id="line2d_44">
      <g>
       <use xlink:href="#m84360eb349" x="595.840218" y="261.56" style="stroke: #000000; stroke-width: 0.8"/>
      </g>
     </g>
     <g id="text_35">
      <!-- Sep -->
      <g transform="translate(586.415218 276.158437) scale(0.1 -0.1)">
       <use xlink:href="#DejaVuSans-53"/>
       <use xlink:href="#DejaVuSans-65" transform="translate(63.476562 0)"/>
       <use xlink:href="#DejaVuSans-70" transform="translate(125 0)"/>
      </g>
     </g>
    </g>
    <g id="xtick_23">
     <g id="line2d_45">
      <g>
       <use xlink:href="#m84360eb349" x="620.954944" y="261.56" style="stroke: #000000; stroke-width: 0.8"/>
      </g>
     </g>
     <g id="text_36">
      <!-- Oct -->
      <g transform="translate(612.309632 276.158437) scale(0.1 -0.1)">
       <use xlink:href="#DejaVuSans-4f"/>
       <use xlink:href="#DejaVuSans-63" transform="translate(78.710938 0)"/>
       <use xlink:href="#DejaVuSans-74" transform="translate(133.691406 0)"/>
      </g>
     </g>
    </g>
    <g id="xtick_24">
     <g id="line2d_46">
      <g>
       <use xlink:href="#m84360eb349" x="646.906828" y="261.56" style="stroke: #000000; stroke-width: 0.8"/>
      </g>
     </g>
     <g id="text_37">
      <!-- Nov -->
      <g transform="translate(637.147453 276.158437) scale(0.1 -0.1)">
       <use xlink:href="#DejaVuSans-4e"/>
       <use xlink:href="#DejaVuSans-6f" transform="translate(74.804688 0)"/>
       <use xlink:href="#DejaVuSans-76" transform="translate(135.986328 0)"/>
      </g>
     </g>
    </g>
    <g id="xtick_25">
     <g id="line2d_47">
      <g>
       <use xlink:href="#m84360eb349" x="672.021554" y="261.56" style="stroke: #000000; stroke-width: 0.8"/>
      </g>
     </g>
     <g id="text_38">
      <!-- Dec -->
      <g transform="translate(662.345773 276.158437) scale(0.1 -0.1)">
       <use xlink:href="#DejaVuSans-44"/>
       <use xlink:href="#DejaVuSans-65" transform="translate(77.001953 0)"/>
       <use xlink:href="#DejaVuSans-63" transform="translate(138.525391 0)"/>
      </g>
     </g>
    </g>
    <g id="xtick_26">
     <g id="line2d_48">
      <g>
       <use xlink:href="#m84360eb349" x="697.973437" y="261.56" style="stroke: #000000; stroke-width: 0.8"/>
      </g>
     </g>
     <g id="text_39">
      <!-- Jan -->
      <g transform="translate(690.265625 276.158437) scale(0.1 -0.1)">
       <use xlink:href="#DejaVuSans-4a"/>
       <use xlink:href="#DejaVuSans-61" transform="translate(29.492188 0)"/>
       <use xlink:href="#DejaVuSans-6e" transform="translate(90.771484 0)"/>
      </g>
     </g>
    </g>
   </g>
   <g id="matplotlib.axis_4">
    <g id="ytick_8">
     <g id="line2d_49">
      <path d="M 392.410937 239.859239 
L 697.973437 239.859239 
" clip-path="url(#p21677b1ff9)" style="fill: none; stroke-dasharray: 2.96,1.28; stroke-dashoffset: 0; stroke: #b0b0b0; stroke-opacity: 0.3; stroke-width: 0.8"/>
     </g>
     <g id="line2d_50">
      <g>
       <use xlink:href="#m7c1bdc94c4" x="392.410937" y="239.859239" style="stroke: #000000; stroke-width: 0.8"/>
      </g>
     </g>
    </g>
    <g id="ytick_9">
     <g id="line2d_51">
      <path d="M 392.410937 209.735551 
L 697.973437 209.735551 
" clip-path="url(#p21677b1ff9)" style="fill: none; stroke-dasharray: 2.96,1.28; stroke-dashoffset: 0; stroke: #b0b0b0; stroke-opacity: 0.3; stroke-width: 0.8"/>
     </g>
     <g id="line2d_52">
      <g>
       <use xlink:href="#m7c1bdc94c4" x="392.410937" y="209.735551" style="stroke: #000000; stroke-width: 0.8"/>
      </g>
     </g>
    </g>
    <g id="ytick_10">
     <g id="line2d_53">
      <path d="M 392.410937 179.611863 
L 697.973437 179.611863 
" clip-path="url(#p21677b1ff9)" style="fill: none; stroke-dasharray: 2.96,1.28; stroke-dashoffset: 0; stroke: #b0b0b0; stroke-opacity: 0.3; stroke-width: 0.8"/>
     </g>
     <g id="line2d_54">
      <g>
       <use xlink:href="#m7c1bdc94c4" x="392.410937" y="179.611863" style="stroke: #000000; stroke-width: 0.8"/>
      </g>
     </g>
    </g>
    <g id="ytick_11">
     <g id="line2d_55">
      <path d="M 392.410937 149.488175 
L 697.973437 149.488175 
" clip-path="url(#p21677b1ff9)" style="fill: none; stroke-dasharray: 2.96,1.28; stroke-dashoffset: 0; stroke: #b0b0b0; stroke-opacity: 0.3; stroke-width: 0.8"/>
     </g>
     <g id="line2d_56">
      <g>
       <use xlink:href="#m7c1bdc94c4" x="392.410937" y="149.488175" style="stroke: #000000; stroke-width: 0.8"/>
      </g>
     </g>
    </g>
    <g id="ytick_12">
     <g id="line2d_57">
      <path d="M 392.410937 119.364487 
L 697.973437 119.364487 
" clip-path="url(#p21677b1ff9)" style="fill: none; stroke-dasharray: 2.96,1.28; stroke-dashoffset: 0; stroke: #b0b0b0; stroke-opacity: 0.3; stroke-width: 0.8"/>
     </g>
     <g id="line2d_58">
      <g>
       <use xlink:href="#m7c1bdc94c4" x="392.410937" y="119.364487" style="stroke: #000000; stroke-width: 0.8"/>
      </g>
     </g>
    </g>
    <g id="ytick_13">
     <g id="line2d_59">
      <path d="M 392.410937 89.240799 
L 697.973437 89.240799 
" clip-path="url(#p21677b1ff9)" style="fill: none; stroke-dasharray: 2.96,1.28; stroke-dashoffset: 0; stroke: #b0b0b0; stroke-opacity: 0.3; stroke-width: 0.8"/>
     </g>
     <g id="line2d_60">
      <g>
       <use xlink:href="#m7c1bdc94c4" x="392.410937" y="89.240799" style="stroke: #000000; stroke-width: 0.8"/>
      </g>
     </g>
    </g>
    <g id="ytick_14">
     <g id="line2d_61">
      <path d="M 392.410937 59.117111 
L 697.973437 59.117111 
" clip-path="url(#p21677b1ff9)" style="fill: none; stroke-dasharray: 2.96,1.28; stroke-dashoffset: 0; stroke: #b0b0b0; stroke-opacity: 0.3; stroke-width: 0.8"/>
     </g>
     <g id="line2d_62">
      <g>
       <use xlink:href="#m7c1bdc94c4" x="392.410937" y="59.117111" style="stroke: #000000; stroke-width: 0.8"/>
      </g>
     </g>
    </g>
   </g>
   <g id="line2d_63">
    <path d="M 409.154088 205.516944 
L 409.991246 201.808288 
L 410.828403 198.884569 
L 411.665561 195.487908 
L 412.502718 195.320506 
L 415.014191 199.915229 
L 415.851348 199.489624 
L 416.688506 198.461546 
L 417.525664 196.884356 
L 418.362821 197.166227 
L 420.874294 199.325235 
L 421.711451 200.473808 
L 422.548609 200.588278 
L 423.385766 199.079512 
L 424.222924 196.834436 
L 426.734396 196.77505 
L 427.571554 195.696622 
L 428.408711 195.062733 
L 429.245869 192.906308 
L 430.083027 187.574845 
L 432.594499 187.864463 
L 434.268814 186.62767 
L 435.105972 184.435957 
L 435.943129 182.828213 
L 438.454602 182.213689 
L 439.291759 181.764416 
L 441.803232 181.746342 
L 444.314705 183.313204 
L 445.151862 182.938809 
L 445.98902 183.174205 
L 446.826177 181.394325 
L 447.663335 180.868451 
L 450.174807 190.628526 
L 451.011965 192.886512 
L 451.849122 193.084468 
L 452.68628 188.863709 
L 453.523438 183.595506 
L 456.03491 183.983671 
L 457.709225 182.817884 
L 458.546383 181.138704 
L 459.38354 180.019824 
L 461.895013 181.698574 
L 462.73217 181.003578 
L 463.569328 181.771732 
L 464.406485 179.541288 
L 465.243643 169.231671 
L 468.592273 167.763356 
L 469.429431 170.517522 
L 470.266588 174.285995 
L 471.103746 175.586478 
L 473.615218 177.560871 
L 475.289533 180.036607 
L 476.126691 179.468561 
L 476.963848 179.329992 
L 479.475321 181.025525 
L 480.312479 180.558608 
L 481.149636 181.319016 
L 481.986794 181.467052 
L 482.823951 184.599485 
L 485.335424 190.085009 
L 486.172581 191.156552 
L 487.009739 190.955153 
L 487.846896 189.285871 
L 488.684054 191.91782 
L 491.195527 193.146867 
L 492.032684 192.624436 
L 492.869842 192.880487 
L 493.706999 190.351388 
L 494.544157 190.053164 
L 497.055629 191.746546 
L 497.892787 191.839499 
L 498.729944 192.309428 
L 499.567102 187.61917 
L 500.404259 183.607125 
L 502.915732 184.284478 
L 504.590047 184.194537 
L 505.427205 180.071034 
L 506.264362 179.568829 
L 508.775835 180.959683 
L 509.612992 180.284913 
L 510.45015 181.325901 
L 511.287307 180.219931 
L 512.124465 179.438007 
L 514.635937 181.134831 
L 515.473095 180.7273 
L 516.310253 180.812077 
L 517.14741 179.520632 
L 517.984568 178.570444 
L 520.49604 185.033266 
L 521.333198 184.899431 
L 522.170355 185.451125 
L 523.007513 183.896312 
L 523.84467 184.720841 
L 526.356143 191.290387 
L 527.193301 192.087374 
L 528.030458 193.411094 
L 528.867616 192.189364 
L 529.704773 191.990117 
L 532.216246 193.627124 
L 533.053403 193.593988 
L 533.890561 193.791944 
L 534.727718 194.480055 
L 535.564876 198.311358 
L 538.076348 199.960845 
L 538.913506 200.108021 
L 539.750664 200.814636 
L 540.587821 198.51749 
L 541.424979 194.146973 
L 543.936451 204.158796 
L 544.773609 202.810115 
L 545.610766 204.096397 
L 546.447924 213.034095 
L 547.285081 212.091224 
L 549.796554 213.14168 
L 550.633711 213.259593 
L 551.470869 211.900584 
L 552.308027 200.217757 
L 553.145184 198.52997 
L 555.656657 199.198716 
L 556.493814 198.321256 
L 557.330972 198.347937 
L 558.168129 195.966014 
L 559.005287 185.806154 
L 561.516759 188.003032 
L 562.353917 186.660376 
L 563.191074 176.362808 
L 564.028232 175.291266 
L 564.86539 175.218108 
L 567.376862 175.515042 
L 568.21402 175.744412 
L 569.051177 177.072867 
L 569.888335 176.278892 
L 570.725492 175.895461 
L 573.236965 178.067379 
L 574.074122 188.808625 
L 574.91128 189.6792 
L 576.585595 188.00045 
L 579.097068 189.685655 
L 579.934225 189.220029 
L 580.771383 189.580222 
L 581.60854 188.335253 
L 582.445698 188.345581 
L 584.95717 190.102653 
L 585.794328 190.029926 
L 586.631485 190.46758 
L 587.468643 189.026807 
L 588.305801 188.095124 
L 590.817273 178.808852 
L 591.654431 178.880718 
L 592.491588 179.472864 
L 593.328746 177.549251 
L 594.165903 178.086314 
L 596.677376 180.216058 
L 597.514533 180.669635 
L 598.351691 180.838758 
L 599.188848 179.153983 
L 600.026006 178.291155 
L 602.537479 180.335262 
L 604.211794 182.466298 
L 605.048951 181.786794 
L 605.886109 182.259736 
L 608.397581 187.245636 
L 610.071896 188.348163 
L 610.909054 186.721914 
L 611.746211 186.299322 
L 614.257684 187.420354 
L 615.094842 188.225086 
L 615.931999 189.66629 
L 616.769157 188.542676 
L 617.606314 191.157843 
L 620.117787 192.529761 
L 620.954944 192.136002 
L 621.792102 192.721692 
L 622.629259 191.148806 
L 623.466417 187.481031 
L 625.97789 187.977211 
L 626.815047 187.839934 
L 627.652205 187.920837 
L 628.489362 186.20766 
L 629.32652 185.54623 
L 631.837992 185.968822 
L 632.67515 185.806585 
L 633.512307 186.061775 
L 634.349465 181.732141 
L 635.186622 181.671033 
L 637.698095 182.592387 
L 638.535253 182.633269 
L 639.37241 182.870386 
L 640.209568 181.773883 
L 641.046725 182.104814 
L 643.558198 184.228964 
L 644.395355 184.384316 
L 645.232513 184.743218 
L 646.06967 183.104059 
L 646.906828 180.696746 
L 649.418301 183.196152 
L 650.255458 186.842409 
L 651.092616 187.190553 
L 651.929773 185.016053 
L 652.766931 185.586251 
L 655.278403 186.345799 
L 656.115561 185.993782 
L 656.952718 185.143863 
L 657.789876 183.044673 
L 658.627033 182.739563 
L 661.975664 184.552579 
L 663.649979 185.53375 
L 664.487136 183.663499 
L 666.998609 181.045751 
L 667.835766 180.611109 
L 668.672924 180.767752 
L 669.510081 178.79336 
L 670.347239 178.650918 
L 672.858711 180.16657 
L 673.695869 181.040156 
L 674.533027 181.221759 
L 676.207342 176.578408 
L 679.555972 178.245969 
L 680.393129 179.142364 
L 681.230287 177.469639 
L 682.067444 176.321926 
L 684.578917 178.054469 
L 685.416074 182.915571 
L 686.253232 182.424555 
L 687.09039 181.710193 
L 687.927547 182.149139 
L 690.43902 185.123207 
L 691.276177 188.807765 
L 692.113335 194.52438 
L 692.950492 202.041101 
L 693.78765 205.738138 
L 696.299122 210.084125 
L 697.973437 220.153614 
L 697.973437 220.153614 
" clip-path="url(#p21677b1ff9)" style="fill: none; stroke: #0d6efc; stroke-opacity: 0.5; stroke-width: 1.5; stroke-linecap: square"/>
   </g>
   <g id="line2d_64">
    <path d="M 431.757342 242.993394 
L 436.780287 241.924864 
L 437.617444 241.307758 
L 442.64039 239.044609 
L 443.477547 238.940467 
L 448.500492 238.695604 
L 449.33765 237.856014 
L 454.360595 233.433426 
L 455.197753 230.860433 
L 460.220698 228.929935 
L 461.057855 227.503363 
L 466.080801 228.091206 
L 466.917958 228.334777 
L 471.940903 227.255919 
L 472.778061 226.392229 
L 477.801006 226.140051 
L 478.638164 225.651187 
L 483.661109 227.520146 
L 484.498266 227.423751 
L 489.521211 226.950378 
L 490.358369 227.527462 
L 495.381314 231.485715 
L 496.218472 234.011371 
L 501.241417 234.680117 
L 502.078574 235.386732 
L 507.10152 235.077319 
L 507.938677 235.10357 
L 512.961622 233.661075 
L 513.79878 234.307444 
L 518.821725 234.721429 
L 519.658883 235.267529 
L 524.681828 241.48807 
L 525.518985 240.857194 
L 530.541931 241.976935 
L 531.379088 247.713776 
L 536.402033 246.578543 
L 537.239191 246.452884 
L 542.262136 250.475257 
L 543.099294 250.671922 
L 548.122239 250.831578 
L 548.959396 251.035988 
L 553.982342 251.799839 
L 554.819499 252.136364 
L 559.842444 251.209415 
L 560.679602 250.436957 
L 565.702547 244.227605 
L 566.539705 244.317976 
L 571.56265 242.546272 
L 572.399807 235.941008 
L 577.422753 236.652358 
L 578.25991 236.458275 
L 583.282855 231.548114 
L 584.120013 231.138862 
L 589.142958 231.397926 
L 589.980116 230.505404 
L 595.003061 232.525843 
L 595.840218 233.779849 
L 600.863164 234.54413 
L 601.700321 235.462472 
L 606.723266 242.371125 
L 612.583369 242.400818 
L 613.420527 245.387797 
L 618.443472 245.730777 
L 619.280629 247.577789 
L 624.303574 246.19253 
L 625.140732 248.528837 
L 630.163677 247.387149 
L 631.000835 249.358529 
L 636.02378 249.526792 
L 636.860937 250.112052 
L 641.883883 247.145729 
L 642.72104 248.373915 
L 647.743985 243.635889 
L 648.581143 237.337456 
L 653.604088 235.378556 
L 654.441246 234.987378 
L 659.464191 234.589746 
L 660.301348 233.992866 
L 665.324294 233.935631 
L 666.161451 233.920569 
L 671.184396 234.035039 
L 672.021554 234.081946 
L 677.044499 231.833428 
L 677.881657 231.285177 
L 682.904602 231.968124 
L 683.741759 231.21288 
L 688.764705 234.20072 
L 689.601862 235.054942 
L 694.624807 237.081835 
L 695.461965 236.246549 
" clip-path="url(#p21677b1ff9)" style="fill: none; stroke: #83c966; stroke-opacity: 0.5; stroke-width: 1.5; stroke-linecap: square"/>
   </g>
   <g id="line2d_65">
    <path d="M 392.410937 178.691148 
L 697.973437 178.691148 
" clip-path="url(#p21677b1ff9)" style="fill: none; stroke-dasharray: 7.4,3.2; stroke-dashoffset: 0; stroke: #0d6efc; stroke-width: 2"/>
   </g>
   <g id="line2d_66">
    <path d="M 392.410937 234.511695 
L 697.973437 234.511695 
" clip-path="url(#p21677b1ff9)" style="fill: none; stroke-dasharray: 7.4,3.2; stroke-dashoffset: 0; stroke: #83c966; stroke-width: 2"/>
   </g>
   <g id="patch_6">
    <path d="M 392.410937 261.56 
L 392.410937 54.24 
" style="fill: none; stroke: #000000; stroke-width: 0.8; stroke-linejoin: miter; stroke-linecap: square"/>
   </g>
   <g id="patch_7">
    <path d="M 392.410937 261.56 
L 697.973437 261.56 
" style="fill: none; stroke: #000000; stroke-width: 0.8; stroke-linejoin: miter; stroke-linecap: square"/>
   </g>
   <g id="text_40">
    <!-- 2025 -->
    <g transform="translate(527.377187 48.24) scale(0.14 -0.14)">
     <use xlink:href="#DejaVuSans-32"/>
     <use xlink:href="#DejaVuSans-30" transform="translate(63.623047 0)"/>
     <use xlink:href="#DejaVuSans-32" transform="translate(127.246094 0)"/>
     <use xlink:href="#DejaVuSans-35" transform="translate(190.869141 0)"/>
    </g>
   </g>
  </g>
  <g id="text_41">
   <!-- Comparing Observed and Fitted Pedestrian Counts at Spencer St-Collins St (North) -->
   <g transform="translate(25.779687 19.3575) scale(0.16 -0.16)">
    <defs>
     <path id="DejaVuSans-43" d="M 4122 4306 
L 4122 3641 
Q 3803 3938 3442 4084 
Q 3081 4231 2675 4231 
Q 1875 4231 1450 3742 
Q 1025 3253 1025 2328 
Q 1025 1406 1450 917 
Q 1875 428 2675 428 
Q 3081 428 3442 575 
Q 3803 722 4122 1019 
L 4122 359 
Q 3791 134 3420 21 
Q 3050 -91 2638 -91 
Q 1578 -91 968 557 
Q 359 1206 359 2328 
Q 359 3453 968 4101 
Q 1578 4750 2638 4750 
Q 3056 4750 3426 4639 
Q 3797 4528 4122 4306 
z
" transform="scale(0.015625)"/>
     <path id="DejaVuSans-6d" d="M 3328 2828 
Q 3544 3216 3844 3400 
Q 4144 3584 4550 3584 
Q 5097 3584 5394 3201 
Q 5691 2819 5691 2113 
L 5691 0 
L 5113 0 
L 5113 2094 
Q 5113 2597 4934 2840 
Q 4756 3084 4391 3084 
Q 3944 3084 3684 2787 
Q 3425 2491 3425 1978 
L 3425 0 
L 2847 0 
L 2847 2094 
Q 2847 2600 2669 2842 
Q 2491 3084 2119 3084 
Q 1678 3084 1418 2786 
Q 1159 2488 1159 1978 
L 1159 0 
L 581 0 
L 581 3500 
L 1159 3500 
L 1159 2956 
Q 1356 3278 1631 3431 
Q 1906 3584 2284 3584 
Q 2666 3584 2933 3390 
Q 3200 3197 3328 2828 
z
" transform="scale(0.015625)"/>
     <path id="DejaVuSans-50" d="M 1259 4147 
L 1259 2394 
L 2053 2394 
Q 2494 2394 2734 2622 
Q 2975 2850 2975 3272 
Q 2975 3691 2734 3919 
Q 2494 4147 2053 4147 
L 1259 4147 
z
M 628 4666 
L 2053 4666 
Q 2838 4666 3239 4311 
Q 3641 3956 3641 3272 
Q 3641 2581 3239 2228 
Q 2838 1875 2053 1875 
L 1259 1875 
L 1259 0 
L 628 0 
L 628 4666 
z
" transform="scale(0.015625)"/>
     <path id="DejaVuSans-2d" d="M 313 2009 
L 1997 2009 
L 1997 1497 
L 313 1497 
L 313 2009 
z
" transform="scale(0.015625)"/>
     <path id="DejaVuSans-28" d="M 1984 4856 
Q 1566 4138 1362 3434 
Q 1159 2731 1159 2009 
Q 1159 1288 1364 580 
Q 1569 -128 1984 -844 
L 1484 -844 
Q 1016 -109 783 600 
Q 550 1309 550 2009 
Q 550 2706 781 3412 
Q 1013 4119 1484 4856 
L 1984 4856 
z
" transform="scale(0.015625)"/>
     <path id="DejaVuSans-68" d="M 3513 2113 
L 3513 0 
L 2938 0 
L 2938 2094 
Q 2938 2591 2744 2837 
Q 2550 3084 2163 3084 
Q 1697 3084 1428 2787 
Q 1159 2491 1159 1978 
L 1159 0 
L 581 0 
L 581 4863 
L 1159 4863 
L 1159 2956 
Q 1366 3272 1645 3428 
Q 1925 3584 2291 3584 
Q 2894 3584 3203 3211 
Q 3513 2838 3513 2113 
z
" transform="scale(0.015625)"/>
     <path id="DejaVuSans-29" d="M 513 4856 
L 1013 4856 
Q 1481 4119 1714 3412 
Q 1947 2706 1947 2009 
Q 1947 1309 1714 600 
Q 1481 -109 1013 -844 
L 513 -844 
Q 928 -128 1133 580 
Q 1338 1288 1338 2009 
Q 1338 2731 1133 3434 
Q 928 4138 513 4856 
z
" transform="scale(0.015625)"/>
    </defs>
    <use xlink:href="#DejaVuSans-43"/>
    <use xlink:href="#DejaVuSans-6f" transform="translate(69.824219 0)"/>
    <use xlink:href="#DejaVuSans-6d" transform="translate(131.005859 0)"/>
    <use xlink:href="#DejaVuSans-70" transform="translate(228.417969 0)"/>
    <use xlink:href="#DejaVuSans-61" transform="translate(291.894531 0)"/>
    <use xlink:href="#DejaVuSans-72" transform="translate(353.173828 0)"/>
    <use xlink:href="#DejaVuSans-69" transform="translate(394.287109 0)"/>
    <use xlink:href="#DejaVuSans-6e" transform="translate(422.070312 0)"/>
    <use xlink:href="#DejaVuSans-67" transform="translate(485.449219 0)"/>
    <use xlink:href="#DejaVuSans-20" transform="translate(548.925781 0)"/>
    <use xlink:href="#DejaVuSans-4f" transform="translate(580.712891 0)"/>
    <use xlink:href="#DejaVuSans-62" transform="translate(659.423828 0)"/>
    <use xlink:href="#DejaVuSans-73" transform="translate(722.900391 0)"/>
    <use xlink:href="#DejaVuSans-65" transform="translate(775 0)"/>
    <use xlink:href="#DejaVuSans-72" transform="translate(836.523438 0)"/>
    <use xlink:href="#DejaVuSans-76" transform="translate(877.636719 0)"/>
    <use xlink:href="#DejaVuSans-65" transform="translate(936.816406 0)"/>
    <use xlink:href="#DejaVuSans-64" transform="translate(998.339844 0)"/>
    <use xlink:href="#DejaVuSans-20" transform="translate(1061.816406 0)"/>
    <use xlink:href="#DejaVuSans-61" transform="translate(1093.603516 0)"/>
    <use xlink:href="#DejaVuSans-6e" transform="translate(1154.882812 0)"/>
    <use xlink:href="#DejaVuSans-64" transform="translate(1218.261719 0)"/>
    <use xlink:href="#DejaVuSans-20" transform="translate(1281.738281 0)"/>
    <use xlink:href="#DejaVuSans-46" transform="translate(1313.525391 0)"/>
    <use xlink:href="#DejaVuSans-69" transform="translate(1363.794922 0)"/>
    <use xlink:href="#DejaVuSans-74" transform="translate(1391.578125 0)"/>
    <use xlink:href="#DejaVuSans-74" transform="translate(1430.787109 0)"/>
    <use xlink:href="#DejaVuSans-65" transform="translate(1469.996094 0)"/>
    <use xlink:href="#DejaVuSans-64" transform="translate(1531.519531 0)"/>
    <use xlink:href="#DejaVuSans-20" transform="translate(1594.996094 0)"/>
    <use xlink:href="#DejaVuSans-50" transform="translate(1626.783203 0)"/>
    <use xlink:href="#DejaVuSans-65" transform="translate(1683.460938 0)"/>
    <use xlink:href="#DejaVuSans-64" transform="translate(1744.984375 0)"/>
    <use xlink:href="#DejaVuSans-65" transform="translate(1808.460938 0)"/>
    <use xlink:href="#DejaVuSans-73" transform="translate(1869.984375 0)"/>
    <use xlink:href="#DejaVuSans-74" transform="translate(1922.083984 0)"/>
    <use xlink:href="#DejaVuSans-72" transform="translate(1961.292969 0)"/>
    <use xlink:href="#DejaVuSans-69" transform="translate(2002.40625 0)"/>
    <use xlink:href="#DejaVuSans-61" transform="translate(2030.189453 0)"/>
    <use xlink:href="#DejaVuSans-6e" transform="translate(2091.46875 0)"/>
    <use xlink:href="#DejaVuSans-20" transform="translate(2154.847656 0)"/>
    <use xlink:href="#DejaVuSans-43" transform="translate(2186.634766 0)"/>
    <use xlink:href="#DejaVuSans-6f" transform="translate(2256.458984 0)"/>
    <use xlink:href="#DejaVuSans-75" transform="translate(2317.640625 0)"/>
    <use xlink:href="#DejaVuSans-6e" transform="translate(2381.019531 0)"/>
    <use xlink:href="#DejaVuSans-74" transform="translate(2444.398438 0)"/>
    <use xlink:href="#DejaVuSans-73" transform="translate(2483.607422 0)"/>
    <use xlink:href="#DejaVuSans-20" transform="translate(2535.707031 0)"/>
    <use xlink:href="#DejaVuSans-61" transform="translate(2567.494141 0)"/>
    <use xlink:href="#DejaVuSans-74" transform="translate(2628.773438 0)"/>
    <use xlink:href="#DejaVuSans-20" transform="translate(2667.982422 0)"/>
    <use xlink:href="#DejaVuSans-53" transform="translate(2699.769531 0)"/>
    <use xlink:href="#DejaVuSans-70" transform="translate(2763.246094 0)"/>
    <use xlink:href="#DejaVuSans-65" transform="translate(2826.722656 0)"/>
    <use xlink:href="#DejaVuSans-6e" transform="translate(2888.246094 0)"/>
    <use xlink:href="#DejaVuSans-63" transform="translate(2951.625 0)"/>
    <use xlink:href="#DejaVuSans-65" transform="translate(3006.605469 0)"/>
    <use xlink:href="#DejaVuSans-72" transform="translate(3068.128906 0)"/>
    <use xlink:href="#DejaVuSans-20" transform="translate(3109.242188 0)"/>
    <use xlink:href="#DejaVuSans-53" transform="translate(3141.029297 0)"/>
    <use xlink:href="#DejaVuSans-74" transform="translate(3204.505859 0)"/>
    <use xlink:href="#DejaVuSans-2d" transform="translate(3243.714844 0)"/>
    <use xlink:href="#DejaVuSans-43" transform="translate(3279.798828 0)"/>
    <use xlink:href="#DejaVuSans-6f" transform="translate(3349.623047 0)"/>
    <use xlink:href="#DejaVuSans-6c" transform="translate(3410.804688 0)"/>
    <use xlink:href="#DejaVuSans-6c" transform="translate(3438.587891 0)"/>
    <use xlink:href="#DejaVuSans-69" transform="translate(3466.371094 0)"/>
    <use xlink:href="#DejaVuSans-6e" transform="translate(3494.154297 0)"/>
    <use xlink:href="#DejaVuSans-73" transform="translate(3557.533203 0)"/>
    <use xlink:href="#DejaVuSans-20" transform="translate(3609.632812 0)"/>
    <use xlink:href="#DejaVuSans-53" transform="translate(3641.419922 0)"/>
    <use xlink:href="#DejaVuSans-74" transform="translate(3704.896484 0)"/>
    <use xlink:href="#DejaVuSans-20" transform="translate(3744.105469 0)"/>
    <use xlink:href="#DejaVuSans-28" transform="translate(3775.892578 0)"/>
    <use xlink:href="#DejaVuSans-4e" transform="translate(3814.90625 0)"/>
    <use xlink:href="#DejaVuSans-6f" transform="translate(3889.710938 0)"/>
    <use xlink:href="#DejaVuSans-72" transform="translate(3950.892578 0)"/>
    <use xlink:href="#DejaVuSans-74" transform="translate(3992.005859 0)"/>
    <use xlink:href="#DejaVuSans-68" transform="translate(4031.214844 0)"/>
    <use xlink:href="#DejaVuSans-29" transform="translate(4094.59375 0)"/>
   </g>
  </g>
 </g>
 <defs>
  <clipPath id="pf67f587d72">
   <rect x="60.658438" y="54.24" width="305.5625" height="207.32"/>
  </clipPath>
  <clipPath id="p21677b1ff9">
   <rect x="392.410937" y="54.24" width="305.5625" height="207.32"/>
  </clipPath>
 </defs>
</svg>
