<?xml version="1.0" encoding="utf-8" standalone="no"?>
<!DOCTYPE svg PUBLIC "-//W3C//DTD SVG 1.1//EN"
  "http://www.w3.org/Graphics/SVG/1.1/DTD/svg11.dtd">
<svg xmlns:xlink="http://www.w3.org/1999/xlink" width="712.81875pt" height="285.438125pt" viewBox="0 0 712.81875 285.438125" xmlns="http://www.w3.org/2000/svg" version="1.1">
 <metadata>
  <rdf:RDF xmlns:dc="http://purl.org/dc/elements/1.1/" xmlns:cc="http://creativecommons.org/ns#" xmlns:rdf="http://www.w3.org/1999/02/22-rdf-syntax-ns#">
   <cc:Work>
    <dc:type rdf:resource="http://purl.org/dc/dcmitype/StillImage"/>
    <dc:date>2026-01-28T19:41:11.233845</dc:date>
    <dc:format>image/svg+xml</dc:format>
    <dc:creator>
     <cc:Agent>
      <dc:title>Matplotlib v3.10.8, https://matplotlib.org/</dc:title>
     </cc:Agent>
    </dc:creator>
   </cc:Work>
  </rdf:RDF>
 </metadata>
 <defs>
  <style type="text/css">*{stroke-linejoin: round; stroke-linecap: butt}</style>
 </defs>
 <g id="figure_1">
  <g id="patch_1">
   <path d="M 0 285.438125 
L 712.81875 285.438125 
L 712.81875 0 
L 0 0 
L 0 285.438125 
z
" style="fill: none"/>
  </g>
  <g id="axes_1">
   <g id="patch_2">
    <path d="M 54.295938 261.56 
L 363.008438 261.56 
L 363.008438 54.24 
L 54.295938 54.24 
L 54.295938 261.56 
z
" style="fill: none"/>
   </g>
   <g id="matplotlib.axis_1">
    <g id="xtick_1">
     <g id="line2d_1">
      <defs>
       <path id="m268f38834f" d="M 0 0 
L 0 3.5 
" style="stroke: #000000; stroke-width: 0.8"/>
      </defs>
      <g>
       <use xlink:href="#m268f38834f" x="54.295938" y="261.56" style="stroke: #000000; stroke-width: 0.8"/>
      </g>
     </g>
     <g id="text_1">
      <!-- Jan -->
      <g transform="translate(46.588125 276.158437) scale(0.1 -0.1)">
       <defs>
        <path id="DejaVuSans-4a" d="M 628 4666 
L 1259 4666 
L 1259 325 
Q 1259 -519 939 -900 
Q 619 -1281 -91 -1281 
L -331 -1281 
L -331 -750 
L -134 -750 
Q 284 -750 456 -515 
Q 628 -281 628 325 
L 628 4666 
z
" transform="scale(0.015625)"/>
        <path id="DejaVuSans-61" d="M 2194 1759 
Q 1497 1759 1228 1600 
Q 959 1441 959 1056 
Q 959 750 1161 570 
Q 1363 391 1709 391 
Q 2188 391 2477 730 
Q 2766 1069 2766 1631 
L 2766 1759 
L 2194 1759 
z
M 3341 1997 
L 3341 0 
L 2766 0 
L 2766 531 
Q 2569 213 2275 61 
Q 1981 -91 1556 -91 
Q 1019 -91 701 211 
Q 384 513 384 1019 
Q 384 1609 779 1909 
Q 1175 2209 1959 2209 
L 2766 2209 
L 2766 2266 
Q 2766 2663 2505 2880 
Q 2244 3097 1772 3097 
Q 1472 3097 1187 3025 
Q 903 2953 641 2809 
L 641 3341 
Q 956 3463 1253 3523 
Q 1550 3584 1831 3584 
Q 2591 3584 2966 3190 
Q 3341 2797 3341 1997 
z
" transform="scale(0.015625)"/>
        <path id="DejaVuSans-6e" d="M 3513 2113 
L 3513 0 
L 2938 0 
L 2938 2094 
Q 2938 2591 2744 2837 
Q 2550 3084 2163 3084 
Q 1697 3084 1428 2787 
Q 1159 2491 1159 1978 
L 1159 0 
L 581 0 
L 581 3500 
L 1159 3500 
L 1159 2956 
Q 1366 3272 1645 3428 
Q 1925 3584 2291 3584 
Q 2894 3584 3203 3211 
Q 3513 2838 3513 2113 
z
" transform="scale(0.015625)"/>
       </defs>
       <use xlink:href="#DejaVuSans-4a"/>
       <use xlink:href="#DejaVuSans-61" transform="translate(29.492188 0)"/>
       <use xlink:href="#DejaVuSans-6e" transform="translate(90.771484 0)"/>
      </g>
     </g>
    </g>
    <g id="xtick_2">
     <g id="line2d_2">
      <g>
       <use xlink:href="#m268f38834f" x="80.515355" y="261.56" style="stroke: #000000; stroke-width: 0.8"/>
      </g>
     </g>
     <g id="text_2">
      <!-- Feb -->
      <g transform="translate(71.663793 276.158437) scale(0.1 -0.1)">
       <defs>
        <path id="DejaVuSans-46" d="M 628 4666 
L 3309 4666 
L 3309 4134 
L 1259 4134 
L 1259 2759 
L 3109 2759 
L 3109 2228 
L 1259 2228 
L 1259 0 
L 628 0 
L 628 4666 
z
" transform="scale(0.015625)"/>
        <path id="DejaVuSans-65" d="M 3597 1894 
L 3597 1613 
L 953 1613 
Q 991 1019 1311 708 
Q 1631 397 2203 397 
Q 2534 397 2845 478 
Q 3156 559 3463 722 
L 3463 178 
Q 3153 47 2828 -22 
Q 2503 -91 2169 -91 
Q 1331 -91 842 396 
Q 353 884 353 1716 
Q 353 2575 817 3079 
Q 1281 3584 2069 3584 
Q 2775 3584 3186 3129 
Q 3597 2675 3597 1894 
z
M 3022 2063 
Q 3016 2534 2758 2815 
Q 2500 3097 2075 3097 
Q 1594 3097 1305 2825 
Q 1016 2553 972 2059 
L 3022 2063 
z
" transform="scale(0.015625)"/>
        <path id="DejaVuSans-62" d="M 3116 1747 
Q 3116 2381 2855 2742 
Q 2594 3103 2138 3103 
Q 1681 3103 1420 2742 
Q 1159 2381 1159 1747 
Q 1159 1113 1420 752 
Q 1681 391 2138 391 
Q 2594 391 2855 752 
Q 3116 1113 3116 1747 
z
M 1159 2969 
Q 1341 3281 1617 3432 
Q 1894 3584 2278 3584 
Q 2916 3584 3314 3078 
Q 3713 2572 3713 1747 
Q 3713 922 3314 415 
Q 2916 -91 2278 -91 
Q 1894 -91 1617 61 
Q 1341 213 1159 525 
L 1159 0 
L 581 0 
L 581 4863 
L 1159 4863 
L 1159 2969 
z
" transform="scale(0.015625)"/>
       </defs>
       <use xlink:href="#DejaVuSans-46"/>
       <use xlink:href="#DejaVuSans-65" transform="translate(52.019531 0)"/>
       <use xlink:href="#DejaVuSans-62" transform="translate(113.542969 0)"/>
      </g>
     </g>
    </g>
    <g id="xtick_3">
     <g id="line2d_3">
      <g>
       <use xlink:href="#m268f38834f" x="104.19741" y="261.56" style="stroke: #000000; stroke-width: 0.8"/>
      </g>
     </g>
     <g id="text_3">
      <!-- Mar -->
      <g transform="translate(94.763816 276.158437) scale(0.1 -0.1)">
       <defs>
        <path id="DejaVuSans-4d" d="M 628 4666 
L 1569 4666 
L 2759 1491 
L 3956 4666 
L 4897 4666 
L 4897 0 
L 4281 0 
L 4281 4097 
L 3078 897 
L 2444 897 
L 1241 4097 
L 1241 0 
L 628 0 
L 628 4666 
z
" transform="scale(0.015625)"/>
        <path id="DejaVuSans-72" d="M 2631 2963 
Q 2534 3019 2420 3045 
Q 2306 3072 2169 3072 
Q 1681 3072 1420 2755 
Q 1159 2438 1159 1844 
L 1159 0 
L 581 0 
L 581 3500 
L 1159 3500 
L 1159 2956 
Q 1341 3275 1631 3429 
Q 1922 3584 2338 3584 
Q 2397 3584 2469 3576 
Q 2541 3569 2628 3553 
L 2631 2963 
z
" transform="scale(0.015625)"/>
       </defs>
       <use xlink:href="#DejaVuSans-4d"/>
       <use xlink:href="#DejaVuSans-61" transform="translate(86.279297 0)"/>
       <use xlink:href="#DejaVuSans-72" transform="translate(147.558594 0)"/>
      </g>
     </g>
    </g>
    <g id="xtick_4">
     <g id="line2d_4">
      <g>
       <use xlink:href="#m268f38834f" x="130.416828" y="261.56" style="stroke: #000000; stroke-width: 0.8"/>
      </g>
     </g>
     <g id="text_4">
      <!-- Apr -->
      <g transform="translate(121.766828 276.158437) scale(0.1 -0.1)">
       <defs>
        <path id="DejaVuSans-41" d="M 2188 4044 
L 1331 1722 
L 3047 1722 
L 2188 4044 
z
M 1831 4666 
L 2547 4666 
L 4325 0 
L 3669 0 
L 3244 1197 
L 1141 1197 
L 716 0 
L 50 0 
L 1831 4666 
z
" transform="scale(0.015625)"/>
        <path id="DejaVuSans-70" d="M 1159 525 
L 1159 -1331 
L 581 -1331 
L 581 3500 
L 1159 3500 
L 1159 2969 
Q 1341 3281 1617 3432 
Q 1894 3584 2278 3584 
Q 2916 3584 3314 3078 
Q 3713 2572 3713 1747 
Q 3713 922 3314 415 
Q 2916 -91 2278 -91 
Q 1894 -91 1617 61 
Q 1341 213 1159 525 
z
M 3116 1747 
Q 3116 2381 2855 2742 
Q 2594 3103 2138 3103 
Q 1681 3103 1420 2742 
Q 1159 2381 1159 1747 
Q 1159 1113 1420 752 
Q 1681 391 2138 391 
Q 2594 391 2855 752 
Q 3116 1113 3116 1747 
z
" transform="scale(0.015625)"/>
       </defs>
       <use xlink:href="#DejaVuSans-41"/>
       <use xlink:href="#DejaVuSans-70" transform="translate(68.408203 0)"/>
       <use xlink:href="#DejaVuSans-72" transform="translate(131.884766 0)"/>
      </g>
     </g>
    </g>
    <g id="xtick_5">
     <g id="line2d_5">
      <g>
       <use xlink:href="#m268f38834f" x="155.790458" y="261.56" style="stroke: #000000; stroke-width: 0.8"/>
      </g>
     </g>
     <g id="text_5">
      <!-- May -->
      <g transform="translate(145.452958 276.158437) scale(0.1 -0.1)">
       <defs>
        <path id="DejaVuSans-79" d="M 2059 -325 
Q 1816 -950 1584 -1140 
Q 1353 -1331 966 -1331 
L 506 -1331 
L 506 -850 
L 844 -850 
Q 1081 -850 1212 -737 
Q 1344 -625 1503 -206 
L 1606 56 
L 191 3500 
L 800 3500 
L 1894 763 
L 2988 3500 
L 3597 3500 
L 2059 -325 
z
" transform="scale(0.015625)"/>
       </defs>
       <use xlink:href="#DejaVuSans-4d"/>
       <use xlink:href="#DejaVuSans-61" transform="translate(86.279297 0)"/>
       <use xlink:href="#DejaVuSans-79" transform="translate(147.558594 0)"/>
      </g>
     </g>
    </g>
    <g id="xtick_6">
     <g id="line2d_6">
      <g>
       <use xlink:href="#m268f38834f" x="182.009876" y="261.56" style="stroke: #000000; stroke-width: 0.8"/>
      </g>
     </g>
     <g id="text_6">
      <!-- Jun -->
      <g transform="translate(174.197376 276.158437) scale(0.1 -0.1)">
       <defs>
        <path id="DejaVuSans-75" d="M 544 1381 
L 544 3500 
L 1119 3500 
L 1119 1403 
Q 1119 906 1312 657 
Q 1506 409 1894 409 
Q 2359 409 2629 706 
Q 2900 1003 2900 1516 
L 2900 3500 
L 3475 3500 
L 3475 0 
L 2900 0 
L 2900 538 
Q 2691 219 2414 64 
Q 2138 -91 1772 -91 
Q 1169 -91 856 284 
Q 544 659 544 1381 
z
M 1991 3584 
L 1991 3584 
z
" transform="scale(0.015625)"/>
       </defs>
       <use xlink:href="#DejaVuSans-4a"/>
       <use xlink:href="#DejaVuSans-75" transform="translate(29.492188 0)"/>
       <use xlink:href="#DejaVuSans-6e" transform="translate(92.871094 0)"/>
      </g>
     </g>
    </g>
    <g id="xtick_7">
     <g id="line2d_7">
      <g>
       <use xlink:href="#m268f38834f" x="207.383506" y="261.56" style="stroke: #000000; stroke-width: 0.8"/>
      </g>
     </g>
     <g id="text_7">
      <!-- Jul -->
      <g transform="translate(201.350693 276.158437) scale(0.1 -0.1)">
       <defs>
        <path id="DejaVuSans-6c" d="M 603 4863 
L 1178 4863 
L 1178 0 
L 603 0 
L 603 4863 
z
" transform="scale(0.015625)"/>
       </defs>
       <use xlink:href="#DejaVuSans-4a"/>
       <use xlink:href="#DejaVuSans-75" transform="translate(29.492188 0)"/>
       <use xlink:href="#DejaVuSans-6c" transform="translate(92.871094 0)"/>
      </g>
     </g>
    </g>
    <g id="xtick_8">
     <g id="line2d_8">
      <g>
       <use xlink:href="#m268f38834f" x="233.602924" y="261.56" style="stroke: #000000; stroke-width: 0.8"/>
      </g>
     </g>
     <g id="text_8">
      <!-- Aug -->
      <g transform="translate(223.839643 276.158437) scale(0.1 -0.1)">
       <defs>
        <path id="DejaVuSans-67" d="M 2906 1791 
Q 2906 2416 2648 2759 
Q 2391 3103 1925 3103 
Q 1463 3103 1205 2759 
Q 947 2416 947 1791 
Q 947 1169 1205 825 
Q 1463 481 1925 481 
Q 2391 481 2648 825 
Q 2906 1169 2906 1791 
z
M 3481 434 
Q 3481 -459 3084 -895 
Q 2688 -1331 1869 -1331 
Q 1566 -1331 1297 -1286 
Q 1028 -1241 775 -1147 
L 775 -588 
Q 1028 -725 1275 -790 
Q 1522 -856 1778 -856 
Q 2344 -856 2625 -561 
Q 2906 -266 2906 331 
L 2906 616 
Q 2728 306 2450 153 
Q 2172 0 1784 0 
Q 1141 0 747 490 
Q 353 981 353 1791 
Q 353 2603 747 3093 
Q 1141 3584 1784 3584 
Q 2172 3584 2450 3431 
Q 2728 3278 2906 2969 
L 2906 3500 
L 3481 3500 
L 3481 434 
z
" transform="scale(0.015625)"/>
       </defs>
       <use xlink:href="#DejaVuSans-41"/>
       <use xlink:href="#DejaVuSans-75" transform="translate(68.408203 0)"/>
       <use xlink:href="#DejaVuSans-67" transform="translate(131.787109 0)"/>
      </g>
     </g>
    </g>
    <g id="xtick_9">
     <g id="line2d_9">
      <g>
       <use xlink:href="#m268f38834f" x="259.822342" y="261.56" style="stroke: #000000; stroke-width: 0.8"/>
      </g>
     </g>
     <g id="text_9">
      <!-- Sep -->
      <g transform="translate(250.397342 276.158437) scale(0.1 -0.1)">
       <defs>
        <path id="DejaVuSans-53" d="M 3425 4513 
L 3425 3897 
Q 3066 4069 2747 4153 
Q 2428 4238 2131 4238 
Q 1616 4238 1336 4038 
Q 1056 3838 1056 3469 
Q 1056 3159 1242 3001 
Q 1428 2844 1947 2747 
L 2328 2669 
Q 3034 2534 3370 2195 
Q 3706 1856 3706 1288 
Q 3706 609 3251 259 
Q 2797 -91 1919 -91 
Q 1588 -91 1214 -16 
Q 841 59 441 206 
L 441 856 
Q 825 641 1194 531 
Q 1563 422 1919 422 
Q 2459 422 2753 634 
Q 3047 847 3047 1241 
Q 3047 1584 2836 1778 
Q 2625 1972 2144 2069 
L 1759 2144 
Q 1053 2284 737 2584 
Q 422 2884 422 3419 
Q 422 4038 858 4394 
Q 1294 4750 2059 4750 
Q 2388 4750 2728 4690 
Q 3069 4631 3425 4513 
z
" transform="scale(0.015625)"/>
       </defs>
       <use xlink:href="#DejaVuSans-53"/>
       <use xlink:href="#DejaVuSans-65" transform="translate(63.476562 0)"/>
       <use xlink:href="#DejaVuSans-70" transform="translate(125 0)"/>
      </g>
     </g>
    </g>
    <g id="xtick_10">
     <g id="line2d_10">
      <g>
       <use xlink:href="#m268f38834f" x="285.195972" y="261.56" style="stroke: #000000; stroke-width: 0.8"/>
      </g>
     </g>
     <g id="text_10">
      <!-- Oct -->
      <g transform="translate(276.550659 276.158437) scale(0.1 -0.1)">
       <defs>
        <path id="DejaVuSans-4f" d="M 2522 4238 
Q 1834 4238 1429 3725 
Q 1025 3213 1025 2328 
Q 1025 1447 1429 934 
Q 1834 422 2522 422 
Q 3209 422 3611 934 
Q 4013 1447 4013 2328 
Q 4013 3213 3611 3725 
Q 3209 4238 2522 4238 
z
M 2522 4750 
Q 3503 4750 4090 4092 
Q 4678 3434 4678 2328 
Q 4678 1225 4090 567 
Q 3503 -91 2522 -91 
Q 1538 -91 948 565 
Q 359 1222 359 2328 
Q 359 3434 948 4092 
Q 1538 4750 2522 4750 
z
" transform="scale(0.015625)"/>
        <path id="DejaVuSans-63" d="M 3122 3366 
L 3122 2828 
Q 2878 2963 2633 3030 
Q 2388 3097 2138 3097 
Q 1578 3097 1268 2742 
Q 959 2388 959 1747 
Q 959 1106 1268 751 
Q 1578 397 2138 397 
Q 2388 397 2633 464 
Q 2878 531 3122 666 
L 3122 134 
Q 2881 22 2623 -34 
Q 2366 -91 2075 -91 
Q 1284 -91 818 406 
Q 353 903 353 1747 
Q 353 2603 823 3093 
Q 1294 3584 2113 3584 
Q 2378 3584 2631 3529 
Q 2884 3475 3122 3366 
z
" transform="scale(0.015625)"/>
        <path id="DejaVuSans-74" d="M 1172 4494 
L 1172 3500 
L 2356 3500 
L 2356 3053 
L 1172 3053 
L 1172 1153 
Q 1172 725 1289 603 
Q 1406 481 1766 481 
L 2356 481 
L 2356 0 
L 1766 0 
Q 1100 0 847 248 
Q 594 497 594 1153 
L 594 3053 
L 172 3053 
L 172 3500 
L 594 3500 
L 594 4494 
L 1172 4494 
z
" transform="scale(0.015625)"/>
       </defs>
       <use xlink:href="#DejaVuSans-4f"/>
       <use xlink:href="#DejaVuSans-63" transform="translate(78.710938 0)"/>
       <use xlink:href="#DejaVuSans-74" transform="translate(133.691406 0)"/>
      </g>
     </g>
    </g>
    <g id="xtick_11">
     <g id="line2d_11">
      <g>
       <use xlink:href="#m268f38834f" x="311.41539" y="261.56" style="stroke: #000000; stroke-width: 0.8"/>
      </g>
     </g>
     <g id="text_11">
      <!-- Nov -->
      <g transform="translate(301.656015 276.158437) scale(0.1 -0.1)">
       <defs>
        <path id="DejaVuSans-4e" d="M 628 4666 
L 1478 4666 
L 3547 763 
L 3547 4666 
L 4159 4666 
L 4159 0 
L 3309 0 
L 1241 3903 
L 1241 0 
L 628 0 
L 628 4666 
z
" transform="scale(0.015625)"/>
        <path id="DejaVuSans-6f" d="M 1959 3097 
Q 1497 3097 1228 2736 
Q 959 2375 959 1747 
Q 959 1119 1226 758 
Q 1494 397 1959 397 
Q 2419 397 2687 759 
Q 2956 1122 2956 1747 
Q 2956 2369 2687 2733 
Q 2419 3097 1959 3097 
z
M 1959 3584 
Q 2709 3584 3137 3096 
Q 3566 2609 3566 1747 
Q 3566 888 3137 398 
Q 2709 -91 1959 -91 
Q 1206 -91 779 398 
Q 353 888 353 1747 
Q 353 2609 779 3096 
Q 1206 3584 1959 3584 
z
" transform="scale(0.015625)"/>
        <path id="DejaVuSans-76" d="M 191 3500 
L 800 3500 
L 1894 563 
L 2988 3500 
L 3597 3500 
L 2284 0 
L 1503 0 
L 191 3500 
z
" transform="scale(0.015625)"/>
       </defs>
       <use xlink:href="#DejaVuSans-4e"/>
       <use xlink:href="#DejaVuSans-6f" transform="translate(74.804688 0)"/>
       <use xlink:href="#DejaVuSans-76" transform="translate(135.986328 0)"/>
      </g>
     </g>
    </g>
    <g id="xtick_12">
     <g id="line2d_12">
      <g>
       <use xlink:href="#m268f38834f" x="336.78902" y="261.56" style="stroke: #000000; stroke-width: 0.8"/>
      </g>
     </g>
     <g id="text_12">
      <!-- Dec -->
      <g transform="translate(327.113238 276.158437) scale(0.1 -0.1)">
       <defs>
        <path id="DejaVuSans-44" d="M 1259 4147 
L 1259 519 
L 2022 519 
Q 2988 519 3436 956 
Q 3884 1394 3884 2338 
Q 3884 3275 3436 3711 
Q 2988 4147 2022 4147 
L 1259 4147 
z
M 628 4666 
L 1925 4666 
Q 3281 4666 3915 4102 
Q 4550 3538 4550 2338 
Q 4550 1131 3912 565 
Q 3275 0 1925 0 
L 628 0 
L 628 4666 
z
" transform="scale(0.015625)"/>
       </defs>
       <use xlink:href="#DejaVuSans-44"/>
       <use xlink:href="#DejaVuSans-65" transform="translate(77.001953 0)"/>
       <use xlink:href="#DejaVuSans-63" transform="translate(138.525391 0)"/>
      </g>
     </g>
    </g>
    <g id="xtick_13">
     <g id="line2d_13">
      <g>
       <use xlink:href="#m268f38834f" x="363.008438" y="261.56" style="stroke: #000000; stroke-width: 0.8"/>
      </g>
     </g>
     <g id="text_13">
      <!-- Jan -->
      <g transform="translate(355.300625 276.158437) scale(0.1 -0.1)">
       <use xlink:href="#DejaVuSans-4a"/>
       <use xlink:href="#DejaVuSans-61" transform="translate(29.492188 0)"/>
       <use xlink:href="#DejaVuSans-6e" transform="translate(90.771484 0)"/>
      </g>
     </g>
    </g>
   </g>
   <g id="matplotlib.axis_2">
    <g id="ytick_1">
     <g id="line2d_14">
      <path d="M 54.295938 225.24898 
L 363.008438 225.24898 
" clip-path="url(#pea13b5ea2a)" style="fill: none; stroke-dasharray: 2.96,1.28; stroke-dashoffset: 0; stroke: #b0b0b0; stroke-opacity: 0.3; stroke-width: 0.8"/>
     </g>
     <g id="line2d_15">
      <defs>
       <path id="m24795d60f6" d="M 0 0 
L -3.5 0 
" style="stroke: #000000; stroke-width: 0.8"/>
      </defs>
      <g>
       <use xlink:href="#m24795d60f6" x="54.295938" y="225.24898" style="stroke: #000000; stroke-width: 0.8"/>
      </g>
     </g>
     <g id="text_14">
      <!-- 1000 -->
      <g transform="translate(21.845938 229.048199) scale(0.1 -0.1)">
       <defs>
        <path id="DejaVuSans-31" d="M 794 531 
L 1825 531 
L 1825 4091 
L 703 3866 
L 703 4441 
L 1819 4666 
L 2450 4666 
L 2450 531 
L 3481 531 
L 3481 0 
L 794 0 
L 794 531 
z
" transform="scale(0.015625)"/>
        <path id="DejaVuSans-30" d="M 2034 4250 
Q 1547 4250 1301 3770 
Q 1056 3291 1056 2328 
Q 1056 1369 1301 889 
Q 1547 409 2034 409 
Q 2525 409 2770 889 
Q 3016 1369 3016 2328 
Q 3016 3291 2770 3770 
Q 2525 4250 2034 4250 
z
M 2034 4750 
Q 2819 4750 3233 4129 
Q 3647 3509 3647 2328 
Q 3647 1150 3233 529 
Q 2819 -91 2034 -91 
Q 1250 -91 836 529 
Q 422 1150 422 2328 
Q 422 3509 836 4129 
Q 1250 4750 2034 4750 
z
" transform="scale(0.015625)"/>
       </defs>
       <use xlink:href="#DejaVuSans-31"/>
       <use xlink:href="#DejaVuSans-30" transform="translate(63.623047 0)"/>
       <use xlink:href="#DejaVuSans-30" transform="translate(127.246094 0)"/>
       <use xlink:href="#DejaVuSans-30" transform="translate(190.869141 0)"/>
      </g>
     </g>
    </g>
    <g id="ytick_2">
     <g id="line2d_16">
      <path d="M 54.295938 181.741887 
L 363.008438 181.741887 
" clip-path="url(#pea13b5ea2a)" style="fill: none; stroke-dasharray: 2.96,1.28; stroke-dashoffset: 0; stroke: #b0b0b0; stroke-opacity: 0.3; stroke-width: 0.8"/>
     </g>
     <g id="line2d_17">
      <g>
       <use xlink:href="#m24795d60f6" x="54.295938" y="181.741887" style="stroke: #000000; stroke-width: 0.8"/>
      </g>
     </g>
     <g id="text_15">
      <!-- 2000 -->
      <g transform="translate(21.845938 185.541106) scale(0.1 -0.1)">
       <defs>
        <path id="DejaVuSans-32" d="M 1228 531 
L 3431 531 
L 3431 0 
L 469 0 
L 469 531 
Q 828 903 1448 1529 
Q 2069 2156 2228 2338 
Q 2531 2678 2651 2914 
Q 2772 3150 2772 3378 
Q 2772 3750 2511 3984 
Q 2250 4219 1831 4219 
Q 1534 4219 1204 4116 
Q 875 4013 500 3803 
L 500 4441 
Q 881 4594 1212 4672 
Q 1544 4750 1819 4750 
Q 2544 4750 2975 4387 
Q 3406 4025 3406 3419 
Q 3406 3131 3298 2873 
Q 3191 2616 2906 2266 
Q 2828 2175 2409 1742 
Q 1991 1309 1228 531 
z
" transform="scale(0.015625)"/>
       </defs>
       <use xlink:href="#DejaVuSans-32"/>
       <use xlink:href="#DejaVuSans-30" transform="translate(63.623047 0)"/>
       <use xlink:href="#DejaVuSans-30" transform="translate(127.246094 0)"/>
       <use xlink:href="#DejaVuSans-30" transform="translate(190.869141 0)"/>
      </g>
     </g>
    </g>
    <g id="ytick_3">
     <g id="line2d_18">
      <path d="M 54.295938 138.234794 
L 363.008438 138.234794 
" clip-path="url(#pea13b5ea2a)" style="fill: none; stroke-dasharray: 2.96,1.28; stroke-dashoffset: 0; stroke: #b0b0b0; stroke-opacity: 0.3; stroke-width: 0.8"/>
     </g>
     <g id="line2d_19">
      <g>
       <use xlink:href="#m24795d60f6" x="54.295938" y="138.234794" style="stroke: #000000; stroke-width: 0.8"/>
      </g>
     </g>
     <g id="text_16">
      <!-- 3000 -->
      <g transform="translate(21.845938 142.034013) scale(0.1 -0.1)">
       <defs>
        <path id="DejaVuSans-33" d="M 2597 2516 
Q 3050 2419 3304 2112 
Q 3559 1806 3559 1356 
Q 3559 666 3084 287 
Q 2609 -91 1734 -91 
Q 1441 -91 1130 -33 
Q 819 25 488 141 
L 488 750 
Q 750 597 1062 519 
Q 1375 441 1716 441 
Q 2309 441 2620 675 
Q 2931 909 2931 1356 
Q 2931 1769 2642 2001 
Q 2353 2234 1838 2234 
L 1294 2234 
L 1294 2753 
L 1863 2753 
Q 2328 2753 2575 2939 
Q 2822 3125 2822 3475 
Q 2822 3834 2567 4026 
Q 2313 4219 1838 4219 
Q 1578 4219 1281 4162 
Q 984 4106 628 3988 
L 628 4550 
Q 988 4650 1302 4700 
Q 1616 4750 1894 4750 
Q 2613 4750 3031 4423 
Q 3450 4097 3450 3541 
Q 3450 3153 3228 2886 
Q 3006 2619 2597 2516 
z
" transform="scale(0.015625)"/>
       </defs>
       <use xlink:href="#DejaVuSans-33"/>
       <use xlink:href="#DejaVuSans-30" transform="translate(63.623047 0)"/>
       <use xlink:href="#DejaVuSans-30" transform="translate(127.246094 0)"/>
       <use xlink:href="#DejaVuSans-30" transform="translate(190.869141 0)"/>
      </g>
     </g>
    </g>
    <g id="ytick_4">
     <g id="line2d_20">
      <path d="M 54.295938 94.727701 
L 363.008438 94.727701 
" clip-path="url(#pea13b5ea2a)" style="fill: none; stroke-dasharray: 2.96,1.28; stroke-dashoffset: 0; stroke: #b0b0b0; stroke-opacity: 0.3; stroke-width: 0.8"/>
     </g>
     <g id="line2d_21">
      <g>
       <use xlink:href="#m24795d60f6" x="54.295938" y="94.727701" style="stroke: #000000; stroke-width: 0.8"/>
      </g>
     </g>
     <g id="text_17">
      <!-- 4000 -->
      <g transform="translate(21.845938 98.52692) scale(0.1 -0.1)">
       <defs>
        <path id="DejaVuSans-34" d="M 2419 4116 
L 825 1625 
L 2419 1625 
L 2419 4116 
z
M 2253 4666 
L 3047 4666 
L 3047 1625 
L 3713 1625 
L 3713 1100 
L 3047 1100 
L 3047 0 
L 2419 0 
L 2419 1100 
L 313 1100 
L 313 1709 
L 2253 4666 
z
" transform="scale(0.015625)"/>
       </defs>
       <use xlink:href="#DejaVuSans-34"/>
       <use xlink:href="#DejaVuSans-30" transform="translate(63.623047 0)"/>
       <use xlink:href="#DejaVuSans-30" transform="translate(127.246094 0)"/>
       <use xlink:href="#DejaVuSans-30" transform="translate(190.869141 0)"/>
      </g>
     </g>
    </g>
    <g id="text_18">
     <!-- Daily pedestrian count -->
     <g transform="translate(15.558281 220.247656) rotate(-90) scale(0.11 -0.11)">
      <defs>
       <path id="DejaVuSans-69" d="M 603 3500 
L 1178 3500 
L 1178 0 
L 603 0 
L 603 3500 
z
M 603 4863 
L 1178 4863 
L 1178 4134 
L 603 4134 
L 603 4863 
z
" transform="scale(0.015625)"/>
       <path id="DejaVuSans-20" transform="scale(0.015625)"/>
       <path id="DejaVuSans-64" d="M 2906 2969 
L 2906 4863 
L 3481 4863 
L 3481 0 
L 2906 0 
L 2906 525 
Q 2725 213 2448 61 
Q 2172 -91 1784 -91 
Q 1150 -91 751 415 
Q 353 922 353 1747 
Q 353 2572 751 3078 
Q 1150 3584 1784 3584 
Q 2172 3584 2448 3432 
Q 2725 3281 2906 2969 
z
M 947 1747 
Q 947 1113 1208 752 
Q 1469 391 1925 391 
Q 2381 391 2643 752 
Q 2906 1113 2906 1747 
Q 2906 2381 2643 2742 
Q 2381 3103 1925 3103 
Q 1469 3103 1208 2742 
Q 947 2381 947 1747 
z
" transform="scale(0.015625)"/>
       <path id="DejaVuSans-73" d="M 2834 3397 
L 2834 2853 
Q 2591 2978 2328 3040 
Q 2066 3103 1784 3103 
Q 1356 3103 1142 2972 
Q 928 2841 928 2578 
Q 928 2378 1081 2264 
Q 1234 2150 1697 2047 
L 1894 2003 
Q 2506 1872 2764 1633 
Q 3022 1394 3022 966 
Q 3022 478 2636 193 
Q 2250 -91 1575 -91 
Q 1294 -91 989 -36 
Q 684 19 347 128 
L 347 722 
Q 666 556 975 473 
Q 1284 391 1588 391 
Q 1994 391 2212 530 
Q 2431 669 2431 922 
Q 2431 1156 2273 1281 
Q 2116 1406 1581 1522 
L 1381 1569 
Q 847 1681 609 1914 
Q 372 2147 372 2553 
Q 372 3047 722 3315 
Q 1072 3584 1716 3584 
Q 2034 3584 2315 3537 
Q 2597 3491 2834 3397 
z
" transform="scale(0.015625)"/>
      </defs>
      <use xlink:href="#DejaVuSans-44"/>
      <use xlink:href="#DejaVuSans-61" transform="translate(77.001953 0)"/>
      <use xlink:href="#DejaVuSans-69" transform="translate(138.28125 0)"/>
      <use xlink:href="#DejaVuSans-6c" transform="translate(166.064453 0)"/>
      <use xlink:href="#DejaVuSans-79" transform="translate(193.847656 0)"/>
      <use xlink:href="#DejaVuSans-20" transform="translate(253.027344 0)"/>
      <use xlink:href="#DejaVuSans-70" transform="translate(284.814453 0)"/>
      <use xlink:href="#DejaVuSans-65" transform="translate(348.291016 0)"/>
      <use xlink:href="#DejaVuSans-64" transform="translate(409.814453 0)"/>
      <use xlink:href="#DejaVuSans-65" transform="translate(473.291016 0)"/>
      <use xlink:href="#DejaVuSans-73" transform="translate(534.814453 0)"/>
      <use xlink:href="#DejaVuSans-74" transform="translate(586.914062 0)"/>
      <use xlink:href="#DejaVuSans-72" transform="translate(626.123047 0)"/>
      <use xlink:href="#DejaVuSans-69" transform="translate(667.236328 0)"/>
      <use xlink:href="#DejaVuSans-61" transform="translate(695.019531 0)"/>
      <use xlink:href="#DejaVuSans-6e" transform="translate(756.298828 0)"/>
      <use xlink:href="#DejaVuSans-20" transform="translate(819.677734 0)"/>
      <use xlink:href="#DejaVuSans-63" transform="translate(851.464844 0)"/>
      <use xlink:href="#DejaVuSans-6f" transform="translate(906.445312 0)"/>
      <use xlink:href="#DejaVuSans-75" transform="translate(967.626953 0)"/>
      <use xlink:href="#DejaVuSans-6e" transform="translate(1031.005859 0)"/>
      <use xlink:href="#DejaVuSans-74" transform="translate(1094.384766 0)"/>
     </g>
    </g>
   </g>
   <g id="line2d_22">
    <path d="M 55.141725 249.308403 
L 55.987513 234.320209 
L 56.833301 229.338647 
L 57.679088 229.055851 
L 60.216451 220.550214 
L 61.908027 209.772886 
L 63.599602 204.689462 
L 66.136965 202.642695 
L 66.982753 196.864953 
L 67.82854 192.98412 
L 68.674328 189.973429 
L 69.520116 186.431952 
L 72.057479 186.436302 
L 72.903266 185.901165 
L 73.749054 185.544407 
L 74.594842 185.409535 
L 75.440629 187.532681 
L 77.977992 192.775286 
L 78.82378 192.440281 
L 79.669568 193.219058 
L 80.515355 192.457684 
L 81.361143 191.161173 
L 84.744294 190.660841 
L 85.590081 191.622348 
L 86.435869 190.582528 
L 87.281657 187.850283 
L 90.664807 178.330931 
L 91.510595 174.258667 
L 92.356383 171.126156 
L 93.20217 168.57229 
L 95.739533 165.574651 
L 96.585321 162.020122 
L 97.431109 157.573697 
L 98.276896 155.063338 
L 99.122684 152.065699 
L 101.660047 152.448561 
L 102.505835 150.882306 
L 103.351622 152.248429 
L 104.19741 152.922789 
L 105.043198 154.032219 
L 107.580561 148.802667 
L 108.426348 142.50719 
L 109.272136 137.277638 
L 110.117924 130.999564 
L 110.963711 126.413917 
L 113.501074 123.081273 
L 114.346862 115.598053 
L 116.038438 94.866924 
L 116.884225 85.434586 
L 119.421588 80.387763 
L 120.267376 74.853661 
L 121.958951 69.811189 
L 122.804739 68.057853 
L 125.342102 63.707143 
L 126.18789 63.663636 
L 127.033677 65.168982 
L 127.879465 68.475521 
L 128.725253 72.604344 
L 131.262616 76.615698 
L 132.108403 80.744521 
L 133.799979 83.289686 
L 134.645766 83.977098 
L 137.183129 84.925553 
L 138.028917 84.333856 
L 138.874705 84.029307 
L 139.720492 82.032331 
L 140.56628 80.783677 
L 143.103643 82.876369 
L 143.949431 85.073477 
L 144.795218 87.91449 
L 145.641006 91.464669 
L 146.486794 105.186806 
L 149.024157 117.551522 
L 150.715732 139.470395 
L 151.56152 154.837101 
L 152.407307 162.020122 
L 154.94467 160.275487 
L 155.790458 161.750378 
L 156.636246 159.731649 
L 157.482033 156.973299 
L 158.327821 144.356242 
L 160.865184 131.89581 
L 162.556759 113.383542 
L 163.402547 99.043604 
L 164.248335 92.63501 
L 166.785698 93.535606 
L 167.631485 91.738764 
L 168.477273 91.647399 
L 170.168848 91.895389 
L 172.706211 92.056365 
L 173.551999 91.725711 
L 174.397787 91.821427 
L 175.243574 92.030261 
L 176.089362 91.373304 
L 178.626725 91.22538 
L 179.472513 91.364603 
L 180.318301 92.521891 
L 181.164088 92.20864 
L 182.009876 90.755503 
L 184.547239 92.891702 
L 185.393027 95.741416 
L 187.084602 102.885281 
L 187.93039 104.729982 
L 190.467753 111.169031 
L 191.31354 114.031798 
L 192.159328 116.046176 
L 193.005116 120.636175 
L 193.850903 124.138496 
L 197.234054 123.964467 
L 204.846143 150.0796 
L 205.691931 164.70886 
L 208.229294 181.502598 
L 209.075081 203.745599 
L 209.920869 200.797994 
L 210.766657 199.6088 
L 211.612444 198.976911 
L 214.149807 196.354832 
L 215.841383 192.583855 
L 216.68717 186.109999 
L 217.532958 184.839592 
L 220.070321 182.659887 
L 220.916109 178.50931 
L 222.607684 175.429008 
L 223.453472 182.751252 
L 225.990835 181.741887 
L 226.836622 180.615053 
L 227.68241 177.978523 
L 228.528198 174.619776 
L 229.373985 171.809218 
L 231.911348 166.54921 
L 232.757136 160.406009 
L 233.602924 153.153376 
L 234.448711 143.986432 
L 235.294499 127.836599 
L 237.831862 120.784099 
L 238.67765 111.869496 
L 239.523438 104.999726 
L 240.369225 100.418429 
L 241.215013 96.476686 
L 243.752376 93.98808 
L 244.598164 91.886688 
L 245.443951 88.989115 
L 246.289739 88.8934 
L 247.135527 88.293002 
L 249.67289 88.536641 
L 250.518677 87.705656 
L 251.364465 94.375293 
L 252.210253 93.37028 
L 261.513917 104.636441 
L 262.359705 110.107458 
L 263.205492 101.536561 
L 264.05128 106.017791 
L 264.897068 109.285174 
L 267.434431 111.521439 
L 268.280218 111.95651 
L 269.971794 114.943997 
L 270.817581 117.934384 
L 273.354944 120.044478 
L 274.200732 123.198743 
L 275.04652 124.682334 
L 275.892307 127.075225 
L 276.738095 128.954731 
L 280.121246 131.643469 
L 280.967033 132.604976 
L 281.812821 133.231478 
L 282.658609 141.980755 
L 285.195972 147.031928 
L 286.887547 155.485356 
L 287.733335 159.727298 
L 288.579122 162.972927 
L 291.116485 162.846756 
L 291.962273 162.920719 
L 293.653848 161.654662 
L 294.499636 153.162078 
L 297.036999 148.350193 
L 298.728574 139.365978 
L 299.574362 135.372027 
L 300.42015 132.822512 
L 302.957513 132.561469 
L 303.803301 133.074853 
L 304.649088 132.948682 
L 305.494876 133.348947 
L 306.340664 133.174919 
L 308.878027 134.662862 
L 309.723814 136.49451 
L 310.569602 137.760567 
L 311.41539 138.661163 
L 312.261177 139.344225 
L 314.79854 142.237446 
L 315.644328 146.823094 
L 316.490116 148.920136 
L 317.335903 150.160088 
L 318.181691 152.217974 
L 320.719054 151.378287 
L 321.564842 150.873604 
L 322.410629 151.356533 
L 323.256417 152.792267 
L 324.102205 151.64368 
L 326.639568 148.667795 
L 327.485355 146.035616 
L 328.331143 145.839834 
L 329.176931 149.111567 
L 330.022718 148.167463 
L 332.560081 150.756135 
L 333.405869 153.205585 
L 334.251657 153.866892 
L 335.097444 154.911063 
L 335.943232 157.65636 
L 338.480595 161.545894 
L 339.326383 162.450842 
L 340.17217 164.091059 
L 341.017958 163.186112 
L 341.863746 164.408661 
L 344.401109 165.970566 
L 345.246896 167.697797 
L 346.092684 171.426355 
L 346.938472 172.522734 
L 347.784259 174.511008 
L 350.321622 174.698089 
L 351.16741 176.590647 
L 352.858985 181.354674 
L 353.704773 185.300767 
L 356.242136 189.229458 
L 357.933711 202.816723 
L 358.779499 210.765469 
L 359.625287 216.408339 
L 362.16265 223.848052 
L 363.008438 231.279063 
L 363.008438 231.279063 
" clip-path="url(#pea13b5ea2a)" style="fill: none; stroke: #0d6efc; stroke-opacity: 0.5; stroke-width: 1.5; stroke-linecap: square"/>
   </g>
   <g id="line2d_23">
    <path d="M 58.524876 239.388785 
L 59.370664 239.17125 
L 64.44539 236.908881 
L 65.291177 235.929971 
L 70.365903 233.352176 
L 71.211691 231.263836 
L 76.286417 230.187035 
L 77.132205 229.414784 
L 82.206931 231.220329 
L 83.052718 233.134641 
L 88.127444 234.831417 
L 88.973232 234.75528 
L 94.047958 231.448741 
L 94.893746 228.033434 
L 99.968472 223.084502 
L 100.814259 222.845213 
L 105.888985 219.897608 
L 106.734773 217.76576 
L 111.809499 214.807278 
L 112.655287 210.075881 
L 117.730013 206.312518 
L 118.575801 203.462803 
L 123.650527 201.548491 
L 124.496314 199.655933 
L 129.57104 199.895222 
L 130.416828 198.600886 
L 135.491554 197.806881 
L 136.337342 196.751834 
L 141.412068 192.21622 
L 142.257855 189.246861 
L 147.332581 196.033967 
L 148.178369 205.170457 
L 153.253095 214.209055 
L 154.098883 218.820807 
L 159.173609 210.880763 
L 160.019396 201.907425 
L 165.094122 194.326314 
L 165.93991 191.346078 
L 171.014636 190.834869 
L 171.860424 189.82333 
L 176.93515 188.724775 
L 177.780938 188.224444 
L 182.855664 188.561624 
L 183.701451 188.746529 
L 188.776177 188.104799 
L 189.621965 185.10281 
L 194.696691 180.697717 
L 195.542479 177.053998 
L 206.537718 209.390645 
L 207.383506 233.580588 
L 212.458232 231.122438 
L 213.30402 231.742414 
L 218.378746 229.730211 
L 219.224533 231.111561 
L 230.219773 221.246328 
L 231.065561 214.39396 
L 236.140287 209.586427 
L 236.986074 208.085432 
L 242.060801 205.779556 
L 242.906588 202.146714 
L 247.981314 200.156264 
L 248.827102 193.042854 
L 259.822342 176.281747 
L 260.668129 191.443969 
L 265.742855 190.762358 
L 266.588643 192.879703 
L 271.663369 199.742947 
L 272.509157 201.548491 
L 277.583883 208.1942 
L 278.42967 212.621046 
L 283.504396 218.80993 
L 284.350184 222.584171 
L 289.42491 222.236114 
L 290.270698 223.780616 
L 295.345424 216.797727 
L 296.191211 213.338913 
L 301.265938 212.240359 
L 302.111725 209.836592 
L 307.186451 213.447681 
L 308.032239 213.708724 
L 313.106965 212.414388 
L 313.952753 209.771332 
L 319.027479 207.324058 
L 319.873266 206.040599 
L 324.947992 208.466119 
L 325.79378 208.879436 
L 330.868506 211.827042 
L 331.714294 216.243012 
L 336.78902 219.016589 
L 337.634807 227.902913 
L 342.709533 231.38348 
L 343.555321 233.06938 
L 348.630047 234.157057 
L 349.475835 232.666939 
L 354.550561 236.093123 
L 355.396348 239.193003 
L 360.471074 244.859802 
L 361.316862 249.645583 
" clip-path="url(#pea13b5ea2a)" style="fill: none; stroke: #83c966; stroke-opacity: 0.5; stroke-width: 1.5; stroke-linecap: square"/>
   </g>
   <g id="line2d_24">
    <path d="M 54.295938 140.406528 
L 363.008438 140.406528 
" clip-path="url(#pea13b5ea2a)" style="fill: none; stroke-dasharray: 7.4,3.2; stroke-dashoffset: 0; stroke: #0d6efc; stroke-width: 2"/>
   </g>
   <g id="line2d_25">
    <path d="M 54.295938 210.579316 
L 363.008438 210.579316 
" clip-path="url(#pea13b5ea2a)" style="fill: none; stroke-dasharray: 7.4,3.2; stroke-dashoffset: 0; stroke: #83c966; stroke-width: 2"/>
   </g>
   <g id="patch_3">
    <path d="M 54.295938 261.56 
L 54.295938 54.24 
" style="fill: none; stroke: #000000; stroke-width: 0.8; stroke-linejoin: miter; stroke-linecap: square"/>
   </g>
   <g id="patch_4">
    <path d="M 54.295938 261.56 
L 363.008438 261.56 
" style="fill: none; stroke: #000000; stroke-width: 0.8; stroke-linejoin: miter; stroke-linecap: square"/>
   </g>
   <g id="text_19">
    <!-- 2019 -->
    <g transform="translate(190.837188 48.24) scale(0.14 -0.14)">
     <defs>
      <path id="DejaVuSans-39" d="M 703 97 
L 703 672 
Q 941 559 1184 500 
Q 1428 441 1663 441 
Q 2288 441 2617 861 
Q 2947 1281 2994 2138 
Q 2813 1869 2534 1725 
Q 2256 1581 1919 1581 
Q 1219 1581 811 2004 
Q 403 2428 403 3163 
Q 403 3881 828 4315 
Q 1253 4750 1959 4750 
Q 2769 4750 3195 4129 
Q 3622 3509 3622 2328 
Q 3622 1225 3098 567 
Q 2575 -91 1691 -91 
Q 1453 -91 1209 -44 
Q 966 3 703 97 
z
M 1959 2075 
Q 2384 2075 2632 2365 
Q 2881 2656 2881 3163 
Q 2881 3666 2632 3958 
Q 2384 4250 1959 4250 
Q 1534 4250 1286 3958 
Q 1038 3666 1038 3163 
Q 1038 2656 1286 2365 
Q 1534 2075 1959 2075 
z
" transform="scale(0.015625)"/>
     </defs>
     <use xlink:href="#DejaVuSans-32"/>
     <use xlink:href="#DejaVuSans-30" transform="translate(63.623047 0)"/>
     <use xlink:href="#DejaVuSans-31" transform="translate(127.246094 0)"/>
     <use xlink:href="#DejaVuSans-39" transform="translate(190.869141 0)"/>
    </g>
   </g>
   <g id="legend_1">
    <g id="line2d_26">
     <path d="M 275.009531 66.028594 
L 284.009531 66.028594 
L 293.009531 66.028594 
" style="fill: none; stroke: #0d6efc; stroke-opacity: 0.5; stroke-width: 1.5; stroke-linecap: square"/>
    </g>
    <g id="text_20">
     <!-- Weekday -->
     <g transform="translate(300.209531 69.178594) scale(0.09 -0.09)">
      <defs>
       <path id="DejaVuSans-57" d="M 213 4666 
L 850 4666 
L 1831 722 
L 2809 4666 
L 3519 4666 
L 4500 722 
L 5478 4666 
L 6119 4666 
L 4947 0 
L 4153 0 
L 3169 4050 
L 2175 0 
L 1381 0 
L 213 4666 
z
" transform="scale(0.015625)"/>
       <path id="DejaVuSans-6b" d="M 581 4863 
L 1159 4863 
L 1159 1991 
L 2875 3500 
L 3609 3500 
L 1753 1863 
L 3688 0 
L 2938 0 
L 1159 1709 
L 1159 0 
L 581 0 
L 581 4863 
z
" transform="scale(0.015625)"/>
      </defs>
      <use xlink:href="#DejaVuSans-57"/>
      <use xlink:href="#DejaVuSans-65" transform="translate(93.001953 0)"/>
      <use xlink:href="#DejaVuSans-65" transform="translate(154.525391 0)"/>
      <use xlink:href="#DejaVuSans-6b" transform="translate(216.048828 0)"/>
      <use xlink:href="#DejaVuSans-64" transform="translate(273.958984 0)"/>
      <use xlink:href="#DejaVuSans-61" transform="translate(337.435547 0)"/>
      <use xlink:href="#DejaVuSans-79" transform="translate(398.714844 0)"/>
     </g>
    </g>
    <g id="line2d_27">
     <path d="M 275.009531 79.238906 
L 284.009531 79.238906 
L 293.009531 79.238906 
" style="fill: none; stroke: #83c966; stroke-opacity: 0.5; stroke-width: 1.5; stroke-linecap: square"/>
    </g>
    <g id="text_21">
     <!-- Weekend -->
     <g transform="translate(300.209531 82.388906) scale(0.09 -0.09)">
      <use xlink:href="#DejaVuSans-57"/>
      <use xlink:href="#DejaVuSans-65" transform="translate(93.001953 0)"/>
      <use xlink:href="#DejaVuSans-65" transform="translate(154.525391 0)"/>
      <use xlink:href="#DejaVuSans-6b" transform="translate(216.048828 0)"/>
      <use xlink:href="#DejaVuSans-65" transform="translate(270.333984 0)"/>
      <use xlink:href="#DejaVuSans-6e" transform="translate(331.857422 0)"/>
      <use xlink:href="#DejaVuSans-64" transform="translate(395.236328 0)"/>
     </g>
    </g>
    <g id="line2d_28">
     <path d="M 275.009531 92.449219 
L 284.009531 92.449219 
L 293.009531 92.449219 
" style="fill: none; stroke-dasharray: 7.4,3.2; stroke-dashoffset: 0; stroke: #0d6efc; stroke-width: 2"/>
    </g>
    <g id="text_22">
     <!-- Weekday Fit -->
     <g transform="translate(300.209531 95.599219) scale(0.09 -0.09)">
      <use xlink:href="#DejaVuSans-57"/>
      <use xlink:href="#DejaVuSans-65" transform="translate(93.001953 0)"/>
      <use xlink:href="#DejaVuSans-65" transform="translate(154.525391 0)"/>
      <use xlink:href="#DejaVuSans-6b" transform="translate(216.048828 0)"/>
      <use xlink:href="#DejaVuSans-64" transform="translate(273.958984 0)"/>
      <use xlink:href="#DejaVuSans-61" transform="translate(337.435547 0)"/>
      <use xlink:href="#DejaVuSans-79" transform="translate(398.714844 0)"/>
      <use xlink:href="#DejaVuSans-20" transform="translate(457.894531 0)"/>
      <use xlink:href="#DejaVuSans-46" transform="translate(489.681641 0)"/>
      <use xlink:href="#DejaVuSans-69" transform="translate(539.951172 0)"/>
      <use xlink:href="#DejaVuSans-74" transform="translate(567.734375 0)"/>
     </g>
    </g>
    <g id="line2d_29">
     <path d="M 275.009531 105.659531 
L 284.009531 105.659531 
L 293.009531 105.659531 
" style="fill: none; stroke-dasharray: 7.4,3.2; stroke-dashoffset: 0; stroke: #83c966; stroke-width: 2"/>
    </g>
    <g id="text_23">
     <!-- Weekend Fit -->
     <g transform="translate(300.209531 108.809531) scale(0.09 -0.09)">
      <use xlink:href="#DejaVuSans-57"/>
      <use xlink:href="#DejaVuSans-65" transform="translate(93.001953 0)"/>
      <use xlink:href="#DejaVuSans-65" transform="translate(154.525391 0)"/>
      <use xlink:href="#DejaVuSans-6b" transform="translate(216.048828 0)"/>
      <use xlink:href="#DejaVuSans-65" transform="translate(270.333984 0)"/>
      <use xlink:href="#DejaVuSans-6e" transform="translate(331.857422 0)"/>
      <use xlink:href="#DejaVuSans-64" transform="translate(395.236328 0)"/>
      <use xlink:href="#DejaVuSans-20" transform="translate(458.712891 0)"/>
      <use xlink:href="#DejaVuSans-46" transform="translate(490.5 0)"/>
      <use xlink:href="#DejaVuSans-69" transform="translate(540.769531 0)"/>
      <use xlink:href="#DejaVuSans-74" transform="translate(568.552734 0)"/>
     </g>
    </g>
   </g>
  </g>
  <g id="axes_2">
   <g id="patch_5">
    <path d="M 389.198438 261.56 
L 697.910938 261.56 
L 697.910938 54.24 
L 389.198438 54.24 
L 389.198438 261.56 
z
" style="fill: none"/>
   </g>
   <g id="matplotlib.axis_3">
    <g id="xtick_14">
     <g id="line2d_30">
      <g>
       <use xlink:href="#m268f38834f" x="389.198438" y="261.56" style="stroke: #000000; stroke-width: 0.8"/>
      </g>
     </g>
     <g id="text_24">
      <!-- Jan -->
      <g transform="translate(381.490625 276.158437) scale(0.1 -0.1)">
       <use xlink:href="#DejaVuSans-4a"/>
       <use xlink:href="#DejaVuSans-61" transform="translate(29.492188 0)"/>
       <use xlink:href="#DejaVuSans-6e" transform="translate(90.771484 0)"/>
      </g>
     </g>
    </g>
    <g id="xtick_15">
     <g id="line2d_31">
      <g>
       <use xlink:href="#m268f38834f" x="415.417855" y="261.56" style="stroke: #000000; stroke-width: 0.8"/>
      </g>
     </g>
     <g id="text_25">
      <!-- Feb -->
      <g transform="translate(406.566293 276.158437) scale(0.1 -0.1)">
       <use xlink:href="#DejaVuSans-46"/>
       <use xlink:href="#DejaVuSans-65" transform="translate(52.019531 0)"/>
       <use xlink:href="#DejaVuSans-62" transform="translate(113.542969 0)"/>
      </g>
     </g>
    </g>
    <g id="xtick_16">
     <g id="line2d_32">
      <g>
       <use xlink:href="#m268f38834f" x="439.09991" y="261.56" style="stroke: #000000; stroke-width: 0.8"/>
      </g>
     </g>
     <g id="text_26">
      <!-- Mar -->
      <g transform="translate(429.666316 276.158437) scale(0.1 -0.1)">
       <use xlink:href="#DejaVuSans-4d"/>
       <use xlink:href="#DejaVuSans-61" transform="translate(86.279297 0)"/>
       <use xlink:href="#DejaVuSans-72" transform="translate(147.558594 0)"/>
      </g>
     </g>
    </g>
    <g id="xtick_17">
     <g id="line2d_33">
      <g>
       <use xlink:href="#m268f38834f" x="465.319328" y="261.56" style="stroke: #000000; stroke-width: 0.8"/>
      </g>
     </g>
     <g id="text_27">
      <!-- Apr -->
      <g transform="translate(456.669328 276.158437) scale(0.1 -0.1)">
       <use xlink:href="#DejaVuSans-41"/>
       <use xlink:href="#DejaVuSans-70" transform="translate(68.408203 0)"/>
       <use xlink:href="#DejaVuSans-72" transform="translate(131.884766 0)"/>
      </g>
     </g>
    </g>
    <g id="xtick_18">
     <g id="line2d_34">
      <g>
       <use xlink:href="#m268f38834f" x="490.692958" y="261.56" style="stroke: #000000; stroke-width: 0.8"/>
      </g>
     </g>
     <g id="text_28">
      <!-- May -->
      <g transform="translate(480.355458 276.158437) scale(0.1 -0.1)">
       <use xlink:href="#DejaVuSans-4d"/>
       <use xlink:href="#DejaVuSans-61" transform="translate(86.279297 0)"/>
       <use xlink:href="#DejaVuSans-79" transform="translate(147.558594 0)"/>
      </g>
     </g>
    </g>
    <g id="xtick_19">
     <g id="line2d_35">
      <g>
       <use xlink:href="#m268f38834f" x="516.912376" y="261.56" style="stroke: #000000; stroke-width: 0.8"/>
      </g>
     </g>
     <g id="text_29">
      <!-- Jun -->
      <g transform="translate(509.099876 276.158437) scale(0.1 -0.1)">
       <use xlink:href="#DejaVuSans-4a"/>
       <use xlink:href="#DejaVuSans-75" transform="translate(29.492188 0)"/>
       <use xlink:href="#DejaVuSans-6e" transform="translate(92.871094 0)"/>
      </g>
     </g>
    </g>
    <g id="xtick_20">
     <g id="line2d_36">
      <g>
       <use xlink:href="#m268f38834f" x="542.286006" y="261.56" style="stroke: #000000; stroke-width: 0.8"/>
      </g>
     </g>
     <g id="text_30">
      <!-- Jul -->
      <g transform="translate(536.253193 276.158437) scale(0.1 -0.1)">
       <use xlink:href="#DejaVuSans-4a"/>
       <use xlink:href="#DejaVuSans-75" transform="translate(29.492188 0)"/>
       <use xlink:href="#DejaVuSans-6c" transform="translate(92.871094 0)"/>
      </g>
     </g>
    </g>
    <g id="xtick_21">
     <g id="line2d_37">
      <g>
       <use xlink:href="#m268f38834f" x="568.505424" y="261.56" style="stroke: #000000; stroke-width: 0.8"/>
      </g>
     </g>
     <g id="text_31">
      <!-- Aug -->
      <g transform="translate(558.742143 276.158437) scale(0.1 -0.1)">
       <use xlink:href="#DejaVuSans-41"/>
       <use xlink:href="#DejaVuSans-75" transform="translate(68.408203 0)"/>
       <use xlink:href="#DejaVuSans-67" transform="translate(131.787109 0)"/>
      </g>
     </g>
    </g>
    <g id="xtick_22">
     <g id="line2d_38">
      <g>
       <use xlink:href="#m268f38834f" x="594.724842" y="261.56" style="stroke: #000000; stroke-width: 0.8"/>
      </g>
     </g>
     <g id="text_32">
      <!-- Sep -->
      <g transform="translate(585.299842 276.158437) scale(0.1 -0.1)">
       <use xlink:href="#DejaVuSans-53"/>
       <use xlink:href="#DejaVuSans-65" transform="translate(63.476562 0)"/>
       <use xlink:href="#DejaVuSans-70" transform="translate(125 0)"/>
      </g>
     </g>
    </g>
    <g id="xtick_23">
     <g id="line2d_39">
      <g>
       <use xlink:href="#m268f38834f" x="620.098472" y="261.56" style="stroke: #000000; stroke-width: 0.8"/>
      </g>
     </g>
     <g id="text_33">
      <!-- Oct -->
      <g transform="translate(611.453159 276.158437) scale(0.1 -0.1)">
       <use xlink:href="#DejaVuSans-4f"/>
       <use xlink:href="#DejaVuSans-63" transform="translate(78.710938 0)"/>
       <use xlink:href="#DejaVuSans-74" transform="translate(133.691406 0)"/>
      </g>
     </g>
    </g>
    <g id="xtick_24">
     <g id="line2d_40">
      <g>
       <use xlink:href="#m268f38834f" x="646.31789" y="261.56" style="stroke: #000000; stroke-width: 0.8"/>
      </g>
     </g>
     <g id="text_34">
      <!-- Nov -->
      <g transform="translate(636.558515 276.158437) scale(0.1 -0.1)">
       <use xlink:href="#DejaVuSans-4e"/>
       <use xlink:href="#DejaVuSans-6f" transform="translate(74.804688 0)"/>
       <use xlink:href="#DejaVuSans-76" transform="translate(135.986328 0)"/>
      </g>
     </g>
    </g>
    <g id="xtick_25">
     <g id="line2d_41">
      <g>
       <use xlink:href="#m268f38834f" x="671.69152" y="261.56" style="stroke: #000000; stroke-width: 0.8"/>
      </g>
     </g>
     <g id="text_35">
      <!-- Dec -->
      <g transform="translate(662.015738 276.158437) scale(0.1 -0.1)">
       <use xlink:href="#DejaVuSans-44"/>
       <use xlink:href="#DejaVuSans-65" transform="translate(77.001953 0)"/>
       <use xlink:href="#DejaVuSans-63" transform="translate(138.525391 0)"/>
      </g>
     </g>
    </g>
    <g id="xtick_26">
     <g id="line2d_42">
      <g>
       <use xlink:href="#m268f38834f" x="697.910938" y="261.56" style="stroke: #000000; stroke-width: 0.8"/>
      </g>
     </g>
     <g id="text_36">
      <!-- Jan -->
      <g transform="translate(690.203125 276.158437) scale(0.1 -0.1)">
       <use xlink:href="#DejaVuSans-4a"/>
       <use xlink:href="#DejaVuSans-61" transform="translate(29.492188 0)"/>
       <use xlink:href="#DejaVuSans-6e" transform="translate(90.771484 0)"/>
      </g>
     </g>
    </g>
   </g>
   <g id="matplotlib.axis_4">
    <g id="ytick_5">
     <g id="line2d_43">
      <path d="M 389.198438 225.24898 
L 697.910938 225.24898 
" clip-path="url(#p5016826cb9)" style="fill: none; stroke-dasharray: 2.96,1.28; stroke-dashoffset: 0; stroke: #b0b0b0; stroke-opacity: 0.3; stroke-width: 0.8"/>
     </g>
     <g id="line2d_44">
      <g>
       <use xlink:href="#m24795d60f6" x="389.198438" y="225.24898" style="stroke: #000000; stroke-width: 0.8"/>
      </g>
     </g>
    </g>
    <g id="ytick_6">
     <g id="line2d_45">
      <path d="M 389.198438 181.741887 
L 697.910938 181.741887 
" clip-path="url(#p5016826cb9)" style="fill: none; stroke-dasharray: 2.96,1.28; stroke-dashoffset: 0; stroke: #b0b0b0; stroke-opacity: 0.3; stroke-width: 0.8"/>
     </g>
     <g id="line2d_46">
      <g>
       <use xlink:href="#m24795d60f6" x="389.198438" y="181.741887" style="stroke: #000000; stroke-width: 0.8"/>
      </g>
     </g>
    </g>
    <g id="ytick_7">
     <g id="line2d_47">
      <path d="M 389.198438 138.234794 
L 697.910938 138.234794 
" clip-path="url(#p5016826cb9)" style="fill: none; stroke-dasharray: 2.96,1.28; stroke-dashoffset: 0; stroke: #b0b0b0; stroke-opacity: 0.3; stroke-width: 0.8"/>
     </g>
     <g id="line2d_48">
      <g>
       <use xlink:href="#m24795d60f6" x="389.198438" y="138.234794" style="stroke: #000000; stroke-width: 0.8"/>
      </g>
     </g>
    </g>
    <g id="ytick_8">
     <g id="line2d_49">
      <path d="M 389.198438 94.727701 
L 697.910938 94.727701 
" clip-path="url(#p5016826cb9)" style="fill: none; stroke-dasharray: 2.96,1.28; stroke-dashoffset: 0; stroke: #b0b0b0; stroke-opacity: 0.3; stroke-width: 0.8"/>
     </g>
     <g id="line2d_50">
      <g>
       <use xlink:href="#m24795d60f6" x="389.198438" y="94.727701" style="stroke: #000000; stroke-width: 0.8"/>
      </g>
     </g>
    </g>
   </g>
   <g id="line2d_51">
    <path d="M 390.044225 252.136364 
L 390.890013 243.543713 
L 391.735801 241.651154 
L 394.273164 241.237837 
L 395.118951 236.639137 
L 396.810527 231.37105 
L 397.656314 230.551407 
L 400.193677 228.68604 
L 401.039465 226.723871 
L 401.885253 223.143237 
L 402.73104 220.415342 
L 403.576828 218.766423 
L 406.114191 216.29522 
L 408.651554 213.158359 
L 409.497342 212.714587 
L 412.034705 215.929761 
L 412.880492 215.468586 
L 413.72628 214.298245 
L 414.572068 214.385259 
L 415.417855 213.362842 
L 417.955218 213.658691 
L 418.801006 214.072008 
L 419.646794 213.658691 
L 420.492581 211.69217 
L 421.338369 209.229668 
L 423.875732 203.299652 
L 424.72152 200.319416 
L 425.567307 199.17953 
L 426.413095 197.608924 
L 427.258883 196.830147 
L 429.796246 193.493153 
L 430.642033 190.678244 
L 431.487821 189.629723 
L 433.179396 189.36433 
L 435.716759 188.968415 
L 436.562547 189.555761 
L 437.408335 188.624709 
L 438.254122 187.332548 
L 439.09991 184.935308 
L 441.637273 177.086628 
L 442.483061 169.577304 
L 443.328848 160.871534 
L 444.174636 154.750086 
L 445.020424 150.616913 
L 447.557787 154.767489 
L 448.403574 148.693899 
L 450.09515 134.47143 
L 450.940938 131.273659 
L 454.324088 133.514274 
L 455.169876 134.327857 
L 456.015664 136.350937 
L 456.861451 137.121012 
L 459.398814 127.397177 
L 460.244602 126.940353 
L 461.09039 127.72348 
L 461.936177 127.358021 
L 462.781965 127.901859 
L 465.319328 128.850314 
L 466.165116 129.354996 
L 467.010903 129.55948 
L 467.856691 126.600997 
L 468.702479 126.009301 
L 471.239842 127.210097 
L 472.085629 129.646494 
L 472.931417 130.342607 
L 473.777205 133.396805 
L 474.622992 134.649809 
L 477.160355 135.915866 
L 478.006143 138.521941 
L 479.697718 162.668377 
L 480.543506 170.469199 
L 483.080869 180.184333 
L 483.926657 188.468084 
L 484.772444 199.275246 
L 486.46402 214.615847 
L 489.001383 215.92541 
L 489.84717 217.439457 
L 491.538746 198.344194 
L 492.384533 191.287343 
L 494.921896 182.851318 
L 497.459259 159.222616 
L 498.305047 151.861215 
L 500.84241 151.217311 
L 501.688198 151.313026 
L 502.533985 153.675461 
L 503.379773 154.763139 
L 504.225561 157.090768 
L 506.762924 159.196511 
L 507.608711 160.710558 
L 508.454499 160.989004 
L 509.300287 162.172397 
L 510.146074 164.652301 
L 512.683438 164.121514 
L 513.529225 164.721912 
L 514.375013 163.877875 
L 515.220801 163.608131 
L 516.066588 162.577013 
L 518.603951 169.050868 
L 519.449739 173.636516 
L 520.295527 175.459463 
L 521.141314 178.026381 
L 521.987102 178.50931 
L 524.524465 186.745203 
L 525.370253 188.320159 
L 526.21604 190.308434 
L 527.061828 193.47575 
L 527.907616 195.120318 
L 530.444979 190.665192 
L 531.290766 190.556424 
L 532.982342 194.110954 
L 533.828129 200.902411 
L 536.365492 198.770563 
L 537.21128 201.259169 
L 538.057068 206.393006 
L 542.286006 219.488641 
L 543.131794 221.185418 
L 543.977581 226.580297 
L 544.823369 233.845982 
L 545.669157 228.555519 
L 548.20652 228.74695 
L 549.052307 229.034097 
L 549.898095 227.33297 
L 550.743883 227.894211 
L 551.58967 226.937055 
L 554.127033 221.472564 
L 554.972821 221.159313 
L 555.818609 218.640253 
L 556.664396 213.884927 
L 557.510184 214.185126 
L 560.047547 214.507079 
L 560.893335 215.68177 
L 561.739122 214.885591 
L 562.58491 213.789212 
L 563.430698 213.876226 
L 565.968061 211.291905 
L 568.505424 193.762897 
L 569.351211 190.10395 
L 571.888574 185.701032 
L 572.734362 190.282329 
L 574.425938 180.806485 
L 575.271725 177.251955 
L 577.809088 174.219511 
L 578.654876 175.102705 
L 579.500664 174.15425 
L 580.346451 172.022402 
L 581.192239 172.931701 
L 583.729602 173.5408 
L 584.57539 161.045563 
L 585.421177 159.827364 
L 586.266965 158.926767 
L 589.650116 160.262435 
L 590.495903 160.410359 
L 591.341691 160.410359 
L 592.187479 162.329022 
L 593.033266 161.428425 
L 595.570629 160.854132 
L 596.416417 161.846093 
L 597.262205 162.585714 
L 598.107992 161.345762 
L 598.95378 160.71926 
L 602.336931 160.249383 
L 603.182718 160.736662 
L 604.028506 159.653336 
L 604.874294 159.279175 
L 607.411657 155.842114 
L 608.257444 154.167091 
L 609.103232 153.497082 
L 609.94902 151.530562 
L 610.794807 148.219672 
L 613.33217 148.132658 
L 614.177958 145.130668 
L 615.023746 145.970355 
L 615.869533 146.287957 
L 616.715321 151.121595 
L 619.252684 157.53454 
L 620.098472 163.525467 
L 620.944259 168.26774 
L 621.790047 176.072913 
L 622.635835 182.150854 
L 625.173198 182.137802 
L 626.018985 179.348997 
L 627.710561 165.561599 
L 628.556348 155.124247 
L 631.093711 145.861587 
L 632.785287 123.203093 
L 633.631074 112.38723 
L 634.476862 104.055622 
L 637.014225 100.074723 
L 637.860013 97.190202 
L 638.705801 101.118893 
L 639.551588 100.85785 
L 640.397376 101.127594 
L 642.934739 106.914038 
L 643.780527 111.891249 
L 645.472102 125.543775 
L 646.31789 132.008929 
L 648.855253 141.763219 
L 649.70104 153.923452 
L 650.546828 156.333745 
L 651.392616 162.420387 
L 652.238403 167.419352 
L 654.775766 167.515068 
L 655.621554 172.187729 
L 656.467342 172.61845 
L 657.313129 173.240601 
L 658.158917 172.074611 
L 660.69628 168.924697 
L 661.542068 166.845058 
L 663.233643 174.162951 
L 664.079431 176.36441 
L 666.616794 178.774703 
L 667.462581 178.809509 
L 668.308369 181.728835 
L 669.999944 186.462407 
L 672.537307 187.872036 
L 673.383095 188.006908 
L 674.228883 188.024311 
L 675.07467 188.75523 
L 675.920458 189.116339 
L 678.457821 190.060443 
L 679.303609 192.270604 
L 680.995184 194.476413 
L 681.840972 195.450972 
L 684.378335 195.546688 
L 686.915698 199.662459 
L 687.761485 201.189558 
L 690.298848 203.421472 
L 691.144636 205.984039 
L 691.990424 210.121564 
L 692.836211 215.951514 
L 693.681999 220.254366 
L 696.219362 224.013379 
L 697.910938 232.727849 
L 697.910938 232.727849 
" clip-path="url(#p5016826cb9)" style="fill: none; stroke: #0d6efc; stroke-opacity: 0.5; stroke-width: 1.5; stroke-linecap: square"/>
   </g>
   <g id="line2d_52">
    <path d="M 392.581588 245.566793 
L 393.427376 247.502858 
L 398.502102 245.015703 
L 399.34789 246.752361 
L 404.422616 244.218073 
L 405.268403 242.510419 
L 410.343129 242.445159 
L 411.188917 240.258927 
L 416.263643 240.498216 
L 417.109431 241.335728 
L 422.184157 240.781012 
L 423.029944 240.193667 
L 428.10467 240.92241 
L 428.950458 239.769472 
L 434.025184 239.367032 
L 434.870972 236.060493 
L 439.945698 232.05784 
L 440.791485 227.663624 
L 445.866211 224.422345 
L 446.711999 225.760188 
L 451.786725 226.96751 
L 452.632513 232.710447 
L 457.707239 230.382817 
L 458.553027 227.97905 
L 463.627753 224.9118 
L 464.47354 219.777963 
L 469.548266 220.974408 
L 470.394054 221.84455 
L 475.46878 223.606587 
L 476.314568 225.390378 
L 481.389294 229.621443 
L 482.235081 233.74374 
L 487.309807 237.626748 
L 488.155595 238.83407 
L 493.230321 235.788573 
L 494.076109 232.231869 
L 499.150835 228.599026 
L 499.996622 227.076278 
L 505.071348 233.841631 
L 505.917136 235.79945 
L 510.991862 235.864711 
L 511.83765 234.494237 
L 516.912376 228.631657 
L 517.758164 226.478055 
L 523.678677 230.817888 
L 528.753403 231.702532 
L 534.673917 234.08092 
L 535.519705 234.574 
L 540.594431 240.490965 
L 541.440218 242.477789 
L 546.514944 243.456699 
L 547.360732 244.489992 
L 552.435458 242.858476 
L 553.281246 242.27113 
L 558.355972 243.260917 
L 559.201759 243.184779 
L 564.276485 242.891106 
L 565.122273 242.706201 
L 570.196999 240.161036 
L 571.042787 238.562151 
L 576.117513 236.691346 
L 576.963301 233.178148 
L 582.038027 233.199901 
L 582.883814 215.546898 
L 587.95854 213.621709 
L 588.804328 214.05678 
L 593.879054 214.045904 
L 594.724842 234.276702 
L 599.799568 235.647175 
L 600.645355 237.311322 
L 605.720081 235.440517 
L 606.565869 228.99059 
L 611.640595 228.642533 
L 612.486383 228.087818 
L 617.561109 228.696917 
L 618.406896 232.525541 
L 623.481622 231.894689 
L 624.32741 230.589476 
L 629.402136 222.225237 
L 630.247924 215.786187 
L 635.32265 206.682328 
L 636.168438 197.03463 
L 641.243164 197.589346 
L 642.088951 201.559368 
L 647.163677 210.92427 
L 648.009465 213.839245 
L 653.084191 227.902913 
L 653.929979 223.595711 
L 659.004705 221.13756 
L 659.850492 227.739761 
L 664.925218 221.289835 
L 665.771006 228.392368 
L 670.845732 233.014996 
L 671.69152 233.819877 
L 676.766246 237.202554 
L 677.612033 235.973479 
L 682.686759 235.418763 
L 683.532547 235.244735 
L 688.607273 233.265162 
L 689.453061 238.083573 
L 694.527787 239.105989 
L 695.373574 241.749045 
" clip-path="url(#p5016826cb9)" style="fill: none; stroke: #83c966; stroke-opacity: 0.5; stroke-width: 1.5; stroke-linecap: square"/>
   </g>
   <g id="line2d_53">
    <path d="M 389.198438 183.575119 
L 697.910938 183.575119 
" clip-path="url(#p5016826cb9)" style="fill: none; stroke-dasharray: 7.4,3.2; stroke-dashoffset: 0; stroke: #0d6efc; stroke-width: 2"/>
   </g>
   <g id="line2d_54">
    <path d="M 389.198438 228.547677 
L 697.910938 228.547677 
" clip-path="url(#p5016826cb9)" style="fill: none; stroke-dasharray: 7.4,3.2; stroke-dashoffset: 0; stroke: #83c966; stroke-width: 2"/>
   </g>
   <g id="patch_6">
    <path d="M 389.198438 261.56 
L 389.198438 54.24 
" style="fill: none; stroke: #000000; stroke-width: 0.8; stroke-linejoin: miter; stroke-linecap: square"/>
   </g>
   <g id="patch_7">
    <path d="M 389.198438 261.56 
L 697.910938 261.56 
" style="fill: none; stroke: #000000; stroke-width: 0.8; stroke-linejoin: miter; stroke-linecap: square"/>
   </g>
   <g id="text_37">
    <!-- 2025 -->
    <g transform="translate(525.739688 48.24) scale(0.14 -0.14)">
     <defs>
      <path id="DejaVuSans-35" d="M 691 4666 
L 3169 4666 
L 3169 4134 
L 1269 4134 
L 1269 2991 
Q 1406 3038 1543 3061 
Q 1681 3084 1819 3084 
Q 2600 3084 3056 2656 
Q 3513 2228 3513 1497 
Q 3513 744 3044 326 
Q 2575 -91 1722 -91 
Q 1428 -91 1123 -41 
Q 819 9 494 109 
L 494 744 
Q 775 591 1075 516 
Q 1375 441 1709 441 
Q 2250 441 2565 725 
Q 2881 1009 2881 1497 
Q 2881 1984 2565 2268 
Q 2250 2553 1709 2553 
Q 1456 2553 1204 2497 
Q 953 2441 691 2322 
L 691 4666 
z
" transform="scale(0.015625)"/>
     </defs>
     <use xlink:href="#DejaVuSans-32"/>
     <use xlink:href="#DejaVuSans-30" transform="translate(63.623047 0)"/>
     <use xlink:href="#DejaVuSans-32" transform="translate(127.246094 0)"/>
     <use xlink:href="#DejaVuSans-35" transform="translate(190.869141 0)"/>
    </g>
   </g>
  </g>
  <g id="text_38">
   <!-- Comparing Observed and Fitted Pedestrian Counts at Pelham St (South) -->
   <g transform="translate(68.188437 19.3575) scale(0.16 -0.16)">
    <defs>
     <path id="DejaVuSans-43" d="M 4122 4306 
L 4122 3641 
Q 3803 3938 3442 4084 
Q 3081 4231 2675 4231 
Q 1875 4231 1450 3742 
Q 1025 3253 1025 2328 
Q 1025 1406 1450 917 
Q 1875 428 2675 428 
Q 3081 428 3442 575 
Q 3803 722 4122 1019 
L 4122 359 
Q 3791 134 3420 21 
Q 3050 -91 2638 -91 
Q 1578 -91 968 557 
Q 359 1206 359 2328 
Q 359 3453 968 4101 
Q 1578 4750 2638 4750 
Q 3056 4750 3426 4639 
Q 3797 4528 4122 4306 
z
" transform="scale(0.015625)"/>
     <path id="DejaVuSans-6d" d="M 3328 2828 
Q 3544 3216 3844 3400 
Q 4144 3584 4550 3584 
Q 5097 3584 5394 3201 
Q 5691 2819 5691 2113 
L 5691 0 
L 5113 0 
L 5113 2094 
Q 5113 2597 4934 2840 
Q 4756 3084 4391 3084 
Q 3944 3084 3684 2787 
Q 3425 2491 3425 1978 
L 3425 0 
L 2847 0 
L 2847 2094 
Q 2847 2600 2669 2842 
Q 2491 3084 2119 3084 
Q 1678 3084 1418 2786 
Q 1159 2488 1159 1978 
L 1159 0 
L 581 0 
L 581 3500 
L 1159 3500 
L 1159 2956 
Q 1356 3278 1631 3431 
Q 1906 3584 2284 3584 
Q 2666 3584 2933 3390 
Q 3200 3197 3328 2828 
z
" transform="scale(0.015625)"/>
     <path id="DejaVuSans-50" d="M 1259 4147 
L 1259 2394 
L 2053 2394 
Q 2494 2394 2734 2622 
Q 2975 2850 2975 3272 
Q 2975 3691 2734 3919 
Q 2494 4147 2053 4147 
L 1259 4147 
z
M 628 4666 
L 2053 4666 
Q 2838 4666 3239 4311 
Q 3641 3956 3641 3272 
Q 3641 2581 3239 2228 
Q 2838 1875 2053 1875 
L 1259 1875 
L 1259 0 
L 628 0 
L 628 4666 
z
" transform="scale(0.015625)"/>
     <path id="DejaVuSans-68" d="M 3513 2113 
L 3513 0 
L 2938 0 
L 2938 2094 
Q 2938 2591 2744 2837 
Q 2550 3084 2163 3084 
Q 1697 3084 1428 2787 
Q 1159 2491 1159 1978 
L 1159 0 
L 581 0 
L 581 4863 
L 1159 4863 
L 1159 2956 
Q 1366 3272 1645 3428 
Q 1925 3584 2291 3584 
Q 2894 3584 3203 3211 
Q 3513 2838 3513 2113 
z
" transform="scale(0.015625)"/>
     <path id="DejaVuSans-28" d="M 1984 4856 
Q 1566 4138 1362 3434 
Q 1159 2731 1159 2009 
Q 1159 1288 1364 580 
Q 1569 -128 1984 -844 
L 1484 -844 
Q 1016 -109 783 600 
Q 550 1309 550 2009 
Q 550 2706 781 3412 
Q 1013 4119 1484 4856 
L 1984 4856 
z
" transform="scale(0.015625)"/>
     <path id="DejaVuSans-29" d="M 513 4856 
L 1013 4856 
Q 1481 4119 1714 3412 
Q 1947 2706 1947 2009 
Q 1947 1309 1714 600 
Q 1481 -109 1013 -844 
L 513 -844 
Q 928 -128 1133 580 
Q 1338 1288 1338 2009 
Q 1338 2731 1133 3434 
Q 928 4138 513 4856 
z
" transform="scale(0.015625)"/>
    </defs>
    <use xlink:href="#DejaVuSans-43"/>
    <use xlink:href="#DejaVuSans-6f" transform="translate(69.824219 0)"/>
    <use xlink:href="#DejaVuSans-6d" transform="translate(131.005859 0)"/>
    <use xlink:href="#DejaVuSans-70" transform="translate(228.417969 0)"/>
    <use xlink:href="#DejaVuSans-61" transform="translate(291.894531 0)"/>
    <use xlink:href="#DejaVuSans-72" transform="translate(353.173828 0)"/>
    <use xlink:href="#DejaVuSans-69" transform="translate(394.287109 0)"/>
    <use xlink:href="#DejaVuSans-6e" transform="translate(422.070312 0)"/>
    <use xlink:href="#DejaVuSans-67" transform="translate(485.449219 0)"/>
    <use xlink:href="#DejaVuSans-20" transform="translate(548.925781 0)"/>
    <use xlink:href="#DejaVuSans-4f" transform="translate(580.712891 0)"/>
    <use xlink:href="#DejaVuSans-62" transform="translate(659.423828 0)"/>
    <use xlink:href="#DejaVuSans-73" transform="translate(722.900391 0)"/>
    <use xlink:href="#DejaVuSans-65" transform="translate(775 0)"/>
    <use xlink:href="#DejaVuSans-72" transform="translate(836.523438 0)"/>
    <use xlink:href="#DejaVuSans-76" transform="translate(877.636719 0)"/>
    <use xlink:href="#DejaVuSans-65" transform="translate(936.816406 0)"/>
    <use xlink:href="#DejaVuSans-64" transform="translate(998.339844 0)"/>
    <use xlink:href="#DejaVuSans-20" transform="translate(1061.816406 0)"/>
    <use xlink:href="#DejaVuSans-61" transform="translate(1093.603516 0)"/>
    <use xlink:href="#DejaVuSans-6e" transform="translate(1154.882812 0)"/>
    <use xlink:href="#DejaVuSans-64" transform="translate(1218.261719 0)"/>
    <use xlink:href="#DejaVuSans-20" transform="translate(1281.738281 0)"/>
    <use xlink:href="#DejaVuSans-46" transform="translate(1313.525391 0)"/>
    <use xlink:href="#DejaVuSans-69" transform="translate(1363.794922 0)"/>
    <use xlink:href="#DejaVuSans-74" transform="translate(1391.578125 0)"/>
    <use xlink:href="#DejaVuSans-74" transform="translate(1430.787109 0)"/>
    <use xlink:href="#DejaVuSans-65" transform="translate(1469.996094 0)"/>
    <use xlink:href="#DejaVuSans-64" transform="translate(1531.519531 0)"/>
    <use xlink:href="#DejaVuSans-20" transform="translate(1594.996094 0)"/>
    <use xlink:href="#DejaVuSans-50" transform="translate(1626.783203 0)"/>
    <use xlink:href="#DejaVuSans-65" transform="translate(1683.460938 0)"/>
    <use xlink:href="#DejaVuSans-64" transform="translate(1744.984375 0)"/>
    <use xlink:href="#DejaVuSans-65" transform="translate(1808.460938 0)"/>
    <use xlink:href="#DejaVuSans-73" transform="translate(1869.984375 0)"/>
    <use xlink:href="#DejaVuSans-74" transform="translate(1922.083984 0)"/>
    <use xlink:href="#DejaVuSans-72" transform="translate(1961.292969 0)"/>
    <use xlink:href="#DejaVuSans-69" transform="translate(2002.40625 0)"/>
    <use xlink:href="#DejaVuSans-61" transform="translate(2030.189453 0)"/>
    <use xlink:href="#DejaVuSans-6e" transform="translate(2091.46875 0)"/>
    <use xlink:href="#DejaVuSans-20" transform="translate(2154.847656 0)"/>
    <use xlink:href="#DejaVuSans-43" transform="translate(2186.634766 0)"/>
    <use xlink:href="#DejaVuSans-6f" transform="translate(2256.458984 0)"/>
    <use xlink:href="#DejaVuSans-75" transform="translate(2317.640625 0)"/>
    <use xlink:href="#DejaVuSans-6e" transform="translate(2381.019531 0)"/>
    <use xlink:href="#DejaVuSans-74" transform="translate(2444.398438 0)"/>
    <use xlink:href="#DejaVuSans-73" transform="translate(2483.607422 0)"/>
    <use xlink:href="#DejaVuSans-20" transform="translate(2535.707031 0)"/>
    <use xlink:href="#DejaVuSans-61" transform="translate(2567.494141 0)"/>
    <use xlink:href="#DejaVuSans-74" transform="translate(2628.773438 0)"/>
    <use xlink:href="#DejaVuSans-20" transform="translate(2667.982422 0)"/>
    <use xlink:href="#DejaVuSans-50" transform="translate(2699.769531 0)"/>
    <use xlink:href="#DejaVuSans-65" transform="translate(2756.447266 0)"/>
    <use xlink:href="#DejaVuSans-6c" transform="translate(2817.970703 0)"/>
    <use xlink:href="#DejaVuSans-68" transform="translate(2845.753906 0)"/>
    <use xlink:href="#DejaVuSans-61" transform="translate(2909.132812 0)"/>
    <use xlink:href="#DejaVuSans-6d" transform="translate(2970.412109 0)"/>
    <use xlink:href="#DejaVuSans-20" transform="translate(3067.824219 0)"/>
    <use xlink:href="#DejaVuSans-53" transform="translate(3099.611328 0)"/>
    <use xlink:href="#DejaVuSans-74" transform="translate(3163.087891 0)"/>
    <use xlink:href="#DejaVuSans-20" transform="translate(3202.296875 0)"/>
    <use xlink:href="#DejaVuSans-28" transform="translate(3234.083984 0)"/>
    <use xlink:href="#DejaVuSans-53" transform="translate(3273.097656 0)"/>
    <use xlink:href="#DejaVuSans-6f" transform="translate(3336.574219 0)"/>
    <use xlink:href="#DejaVuSans-75" transform="translate(3397.755859 0)"/>
    <use xlink:href="#DejaVuSans-74" transform="translate(3461.134766 0)"/>
    <use xlink:href="#DejaVuSans-68" transform="translate(3500.34375 0)"/>
    <use xlink:href="#DejaVuSans-29" transform="translate(3563.722656 0)"/>
   </g>
  </g>
 </g>
 <defs>
  <clipPath id="pea13b5ea2a">
   <rect x="54.295938" y="54.24" width="308.7125" height="207.32"/>
  </clipPath>
  <clipPath id="p5016826cb9">
   <rect x="389.198438" y="54.24" width="308.7125" height="207.32"/>
  </clipPath>
 </defs>
</svg>
