<?xml version="1.0" encoding="utf-8" standalone="no"?>
<!DOCTYPE svg PUBLIC "-//W3C//DTD SVG 1.1//EN"
  "http://www.w3.org/Graphics/SVG/1.1/DTD/svg11.dtd">
<svg xmlns:xlink="http://www.w3.org/1999/xlink" width="747.1675pt" height="285.438125pt" viewBox="0 0 747.1675 285.438125" xmlns="http://www.w3.org/2000/svg" version="1.1">
 <metadata>
  <rdf:RDF xmlns:dc="http://purl.org/dc/elements/1.1/" xmlns:cc="http://creativecommons.org/ns#" xmlns:rdf="http://www.w3.org/1999/02/22-rdf-syntax-ns#">
   <cc:Work>
    <dc:type rdf:resource="http://purl.org/dc/dcmitype/StillImage"/>
    <dc:date>2026-01-28T19:41:11.478557</dc:date>
    <dc:format>image/svg+xml</dc:format>
    <dc:creator>
     <cc:Agent>
      <dc:title>Matplotlib v3.10.8, https://matplotlib.org/</dc:title>
     </cc:Agent>
    </dc:creator>
   </cc:Work>
  </rdf:RDF>
 </metadata>
 <defs>
  <style type="text/css">*{stroke-linejoin: round; stroke-linecap: butt}</style>
 </defs>
 <g id="figure_1">
  <g id="patch_1">
   <path d="M 0 285.438125 
L 747.1675 285.438125 
L 747.1675 0 
L 0 0 
L 0 285.438125 
z
" style="fill: none"/>
  </g>
  <g id="axes_1">
   <g id="patch_2">
    <path d="M 77.86375 261.56 
L 383.38125 261.56 
L 383.38125 54.24 
L 77.86375 54.24 
L 77.86375 261.56 
z
" style="fill: none"/>
   </g>
   <g id="matplotlib.axis_1">
    <g id="xtick_1">
     <g id="line2d_1">
      <defs>
       <path id="mb4653e560d" d="M 0 0 
L 0 3.5 
" style="stroke: #000000; stroke-width: 0.8"/>
      </defs>
      <g>
       <use xlink:href="#mb4653e560d" x="77.86375" y="261.56" style="stroke: #000000; stroke-width: 0.8"/>
      </g>
     </g>
     <g id="text_1">
      <!-- Jan -->
      <g transform="translate(70.155938 276.158437) scale(0.1 -0.1)">
       <defs>
        <path id="DejaVuSans-4a" d="M 628 4666 
L 1259 4666 
L 1259 325 
Q 1259 -519 939 -900 
Q 619 -1281 -91 -1281 
L -331 -1281 
L -331 -750 
L -134 -750 
Q 284 -750 456 -515 
Q 628 -281 628 325 
L 628 4666 
z
" transform="scale(0.015625)"/>
        <path id="DejaVuSans-61" d="M 2194 1759 
Q 1497 1759 1228 1600 
Q 959 1441 959 1056 
Q 959 750 1161 570 
Q 1363 391 1709 391 
Q 2188 391 2477 730 
Q 2766 1069 2766 1631 
L 2766 1759 
L 2194 1759 
z
M 3341 1997 
L 3341 0 
L 2766 0 
L 2766 531 
Q 2569 213 2275 61 
Q 1981 -91 1556 -91 
Q 1019 -91 701 211 
Q 384 513 384 1019 
Q 384 1609 779 1909 
Q 1175 2209 1959 2209 
L 2766 2209 
L 2766 2266 
Q 2766 2663 2505 2880 
Q 2244 3097 1772 3097 
Q 1472 3097 1187 3025 
Q 903 2953 641 2809 
L 641 3341 
Q 956 3463 1253 3523 
Q 1550 3584 1831 3584 
Q 2591 3584 2966 3190 
Q 3341 2797 3341 1997 
z
" transform="scale(0.015625)"/>
        <path id="DejaVuSans-6e" d="M 3513 2113 
L 3513 0 
L 2938 0 
L 2938 2094 
Q 2938 2591 2744 2837 
Q 2550 3084 2163 3084 
Q 1697 3084 1428 2787 
Q 1159 2491 1159 1978 
L 1159 0 
L 581 0 
L 581 3500 
L 1159 3500 
L 1159 2956 
Q 1366 3272 1645 3428 
Q 1925 3584 2291 3584 
Q 2894 3584 3203 3211 
Q 3513 2838 3513 2113 
z
" transform="scale(0.015625)"/>
       </defs>
       <use xlink:href="#DejaVuSans-4a"/>
       <use xlink:href="#DejaVuSans-61" transform="translate(29.492188 0)"/>
       <use xlink:href="#DejaVuSans-6e" transform="translate(90.771484 0)"/>
      </g>
     </g>
    </g>
    <g id="xtick_2">
     <g id="line2d_2">
      <g>
       <use xlink:href="#mb4653e560d" x="103.811812" y="261.56" style="stroke: #000000; stroke-width: 0.8"/>
      </g>
     </g>
     <g id="text_2">
      <!-- Feb -->
      <g transform="translate(94.960249 276.158437) scale(0.1 -0.1)">
       <defs>
        <path id="DejaVuSans-46" d="M 628 4666 
L 3309 4666 
L 3309 4134 
L 1259 4134 
L 1259 2759 
L 3109 2759 
L 3109 2228 
L 1259 2228 
L 1259 0 
L 628 0 
L 628 4666 
z
" transform="scale(0.015625)"/>
        <path id="DejaVuSans-65" d="M 3597 1894 
L 3597 1613 
L 953 1613 
Q 991 1019 1311 708 
Q 1631 397 2203 397 
Q 2534 397 2845 478 
Q 3156 559 3463 722 
L 3463 178 
Q 3153 47 2828 -22 
Q 2503 -91 2169 -91 
Q 1331 -91 842 396 
Q 353 884 353 1716 
Q 353 2575 817 3079 
Q 1281 3584 2069 3584 
Q 2775 3584 3186 3129 
Q 3597 2675 3597 1894 
z
M 3022 2063 
Q 3016 2534 2758 2815 
Q 2500 3097 2075 3097 
Q 1594 3097 1305 2825 
Q 1016 2553 972 2059 
L 3022 2063 
z
" transform="scale(0.015625)"/>
        <path id="DejaVuSans-62" d="M 3116 1747 
Q 3116 2381 2855 2742 
Q 2594 3103 2138 3103 
Q 1681 3103 1420 2742 
Q 1159 2381 1159 1747 
Q 1159 1113 1420 752 
Q 1681 391 2138 391 
Q 2594 391 2855 752 
Q 3116 1113 3116 1747 
z
M 1159 2969 
Q 1341 3281 1617 3432 
Q 1894 3584 2278 3584 
Q 2916 3584 3314 3078 
Q 3713 2572 3713 1747 
Q 3713 922 3314 415 
Q 2916 -91 2278 -91 
Q 1894 -91 1617 61 
Q 1341 213 1159 525 
L 1159 0 
L 581 0 
L 581 4863 
L 1159 4863 
L 1159 2969 
z
" transform="scale(0.015625)"/>
       </defs>
       <use xlink:href="#DejaVuSans-46"/>
       <use xlink:href="#DejaVuSans-65" transform="translate(52.019531 0)"/>
       <use xlink:href="#DejaVuSans-62" transform="translate(113.542969 0)"/>
      </g>
     </g>
    </g>
    <g id="xtick_3">
     <g id="line2d_3">
      <g>
       <use xlink:href="#mb4653e560d" x="127.248771" y="261.56" style="stroke: #000000; stroke-width: 0.8"/>
      </g>
     </g>
     <g id="text_3">
      <!-- Mar -->
      <g transform="translate(117.815177 276.158437) scale(0.1 -0.1)">
       <defs>
        <path id="DejaVuSans-4d" d="M 628 4666 
L 1569 4666 
L 2759 1491 
L 3956 4666 
L 4897 4666 
L 4897 0 
L 4281 0 
L 4281 4097 
L 3078 897 
L 2444 897 
L 1241 4097 
L 1241 0 
L 628 0 
L 628 4666 
z
" transform="scale(0.015625)"/>
        <path id="DejaVuSans-72" d="M 2631 2963 
Q 2534 3019 2420 3045 
Q 2306 3072 2169 3072 
Q 1681 3072 1420 2755 
Q 1159 2438 1159 1844 
L 1159 0 
L 581 0 
L 581 3500 
L 1159 3500 
L 1159 2956 
Q 1341 3275 1631 3429 
Q 1922 3584 2338 3584 
Q 2397 3584 2469 3576 
Q 2541 3569 2628 3553 
L 2631 2963 
z
" transform="scale(0.015625)"/>
       </defs>
       <use xlink:href="#DejaVuSans-4d"/>
       <use xlink:href="#DejaVuSans-61" transform="translate(86.279297 0)"/>
       <use xlink:href="#DejaVuSans-72" transform="translate(147.558594 0)"/>
      </g>
     </g>
    </g>
    <g id="xtick_4">
     <g id="line2d_4">
      <g>
       <use xlink:href="#mb4653e560d" x="153.196832" y="261.56" style="stroke: #000000; stroke-width: 0.8"/>
      </g>
     </g>
     <g id="text_4">
      <!-- Apr -->
      <g transform="translate(144.546832 276.158437) scale(0.1 -0.1)">
       <defs>
        <path id="DejaVuSans-41" d="M 2188 4044 
L 1331 1722 
L 3047 1722 
L 2188 4044 
z
M 1831 4666 
L 2547 4666 
L 4325 0 
L 3669 0 
L 3244 1197 
L 1141 1197 
L 716 0 
L 50 0 
L 1831 4666 
z
" transform="scale(0.015625)"/>
        <path id="DejaVuSans-70" d="M 1159 525 
L 1159 -1331 
L 581 -1331 
L 581 3500 
L 1159 3500 
L 1159 2969 
Q 1341 3281 1617 3432 
Q 1894 3584 2278 3584 
Q 2916 3584 3314 3078 
Q 3713 2572 3713 1747 
Q 3713 922 3314 415 
Q 2916 -91 2278 -91 
Q 1894 -91 1617 61 
Q 1341 213 1159 525 
z
M 3116 1747 
Q 3116 2381 2855 2742 
Q 2594 3103 2138 3103 
Q 1681 3103 1420 2742 
Q 1159 2381 1159 1747 
Q 1159 1113 1420 752 
Q 1681 391 2138 391 
Q 2594 391 2855 752 
Q 3116 1113 3116 1747 
z
" transform="scale(0.015625)"/>
       </defs>
       <use xlink:href="#DejaVuSans-41"/>
       <use xlink:href="#DejaVuSans-70" transform="translate(68.408203 0)"/>
       <use xlink:href="#DejaVuSans-72" transform="translate(131.884766 0)"/>
      </g>
     </g>
    </g>
    <g id="xtick_5">
     <g id="line2d_5">
      <g>
       <use xlink:href="#mb4653e560d" x="178.30786" y="261.56" style="stroke: #000000; stroke-width: 0.8"/>
      </g>
     </g>
     <g id="text_5">
      <!-- May -->
      <g transform="translate(167.97036 276.158437) scale(0.1 -0.1)">
       <defs>
        <path id="DejaVuSans-79" d="M 2059 -325 
Q 1816 -950 1584 -1140 
Q 1353 -1331 966 -1331 
L 506 -1331 
L 506 -850 
L 844 -850 
Q 1081 -850 1212 -737 
Q 1344 -625 1503 -206 
L 1606 56 
L 191 3500 
L 800 3500 
L 1894 763 
L 2988 3500 
L 3597 3500 
L 2059 -325 
z
" transform="scale(0.015625)"/>
       </defs>
       <use xlink:href="#DejaVuSans-4d"/>
       <use xlink:href="#DejaVuSans-61" transform="translate(86.279297 0)"/>
       <use xlink:href="#DejaVuSans-79" transform="translate(147.558594 0)"/>
      </g>
     </g>
    </g>
    <g id="xtick_6">
     <g id="line2d_6">
      <g>
       <use xlink:href="#mb4653e560d" x="204.255921" y="261.56" style="stroke: #000000; stroke-width: 0.8"/>
      </g>
     </g>
     <g id="text_6">
      <!-- Jun -->
      <g transform="translate(196.443421 276.158437) scale(0.1 -0.1)">
       <defs>
        <path id="DejaVuSans-75" d="M 544 1381 
L 544 3500 
L 1119 3500 
L 1119 1403 
Q 1119 906 1312 657 
Q 1506 409 1894 409 
Q 2359 409 2629 706 
Q 2900 1003 2900 1516 
L 2900 3500 
L 3475 3500 
L 3475 0 
L 2900 0 
L 2900 538 
Q 2691 219 2414 64 
Q 2138 -91 1772 -91 
Q 1169 -91 856 284 
Q 544 659 544 1381 
z
M 1991 3584 
L 1991 3584 
z
" transform="scale(0.015625)"/>
       </defs>
       <use xlink:href="#DejaVuSans-4a"/>
       <use xlink:href="#DejaVuSans-75" transform="translate(29.492188 0)"/>
       <use xlink:href="#DejaVuSans-6e" transform="translate(92.871094 0)"/>
      </g>
     </g>
    </g>
    <g id="xtick_7">
     <g id="line2d_7">
      <g>
       <use xlink:href="#mb4653e560d" x="229.366949" y="261.56" style="stroke: #000000; stroke-width: 0.8"/>
      </g>
     </g>
     <g id="text_7">
      <!-- Jul -->
      <g transform="translate(223.334136 276.158437) scale(0.1 -0.1)">
       <defs>
        <path id="DejaVuSans-6c" d="M 603 4863 
L 1178 4863 
L 1178 0 
L 603 0 
L 603 4863 
z
" transform="scale(0.015625)"/>
       </defs>
       <use xlink:href="#DejaVuSans-4a"/>
       <use xlink:href="#DejaVuSans-75" transform="translate(29.492188 0)"/>
       <use xlink:href="#DejaVuSans-6c" transform="translate(92.871094 0)"/>
      </g>
     </g>
    </g>
    <g id="xtick_8">
     <g id="line2d_8">
      <g>
       <use xlink:href="#mb4653e560d" x="255.31501" y="261.56" style="stroke: #000000; stroke-width: 0.8"/>
      </g>
     </g>
     <g id="text_8">
      <!-- Aug -->
      <g transform="translate(245.551729 276.158437) scale(0.1 -0.1)">
       <defs>
        <path id="DejaVuSans-67" d="M 2906 1791 
Q 2906 2416 2648 2759 
Q 2391 3103 1925 3103 
Q 1463 3103 1205 2759 
Q 947 2416 947 1791 
Q 947 1169 1205 825 
Q 1463 481 1925 481 
Q 2391 481 2648 825 
Q 2906 1169 2906 1791 
z
M 3481 434 
Q 3481 -459 3084 -895 
Q 2688 -1331 1869 -1331 
Q 1566 -1331 1297 -1286 
Q 1028 -1241 775 -1147 
L 775 -588 
Q 1028 -725 1275 -790 
Q 1522 -856 1778 -856 
Q 2344 -856 2625 -561 
Q 2906 -266 2906 331 
L 2906 616 
Q 2728 306 2450 153 
Q 2172 0 1784 0 
Q 1141 0 747 490 
Q 353 981 353 1791 
Q 353 2603 747 3093 
Q 1141 3584 1784 3584 
Q 2172 3584 2450 3431 
Q 2728 3278 2906 2969 
L 2906 3500 
L 3481 3500 
L 3481 434 
z
" transform="scale(0.015625)"/>
       </defs>
       <use xlink:href="#DejaVuSans-41"/>
       <use xlink:href="#DejaVuSans-75" transform="translate(68.408203 0)"/>
       <use xlink:href="#DejaVuSans-67" transform="translate(131.787109 0)"/>
      </g>
     </g>
    </g>
    <g id="xtick_9">
     <g id="line2d_9">
      <g>
       <use xlink:href="#mb4653e560d" x="281.263072" y="261.56" style="stroke: #000000; stroke-width: 0.8"/>
      </g>
     </g>
     <g id="text_9">
      <!-- Sep -->
      <g transform="translate(271.838072 276.158437) scale(0.1 -0.1)">
       <defs>
        <path id="DejaVuSans-53" d="M 3425 4513 
L 3425 3897 
Q 3066 4069 2747 4153 
Q 2428 4238 2131 4238 
Q 1616 4238 1336 4038 
Q 1056 3838 1056 3469 
Q 1056 3159 1242 3001 
Q 1428 2844 1947 2747 
L 2328 2669 
Q 3034 2534 3370 2195 
Q 3706 1856 3706 1288 
Q 3706 609 3251 259 
Q 2797 -91 1919 -91 
Q 1588 -91 1214 -16 
Q 841 59 441 206 
L 441 856 
Q 825 641 1194 531 
Q 1563 422 1919 422 
Q 2459 422 2753 634 
Q 3047 847 3047 1241 
Q 3047 1584 2836 1778 
Q 2625 1972 2144 2069 
L 1759 2144 
Q 1053 2284 737 2584 
Q 422 2884 422 3419 
Q 422 4038 858 4394 
Q 1294 4750 2059 4750 
Q 2388 4750 2728 4690 
Q 3069 4631 3425 4513 
z
" transform="scale(0.015625)"/>
       </defs>
       <use xlink:href="#DejaVuSans-53"/>
       <use xlink:href="#DejaVuSans-65" transform="translate(63.476562 0)"/>
       <use xlink:href="#DejaVuSans-70" transform="translate(125 0)"/>
      </g>
     </g>
    </g>
    <g id="xtick_10">
     <g id="line2d_10">
      <g>
       <use xlink:href="#mb4653e560d" x="306.374099" y="261.56" style="stroke: #000000; stroke-width: 0.8"/>
      </g>
     </g>
     <g id="text_10">
      <!-- Oct -->
      <g transform="translate(297.728787 276.158437) scale(0.1 -0.1)">
       <defs>
        <path id="DejaVuSans-4f" d="M 2522 4238 
Q 1834 4238 1429 3725 
Q 1025 3213 1025 2328 
Q 1025 1447 1429 934 
Q 1834 422 2522 422 
Q 3209 422 3611 934 
Q 4013 1447 4013 2328 
Q 4013 3213 3611 3725 
Q 3209 4238 2522 4238 
z
M 2522 4750 
Q 3503 4750 4090 4092 
Q 4678 3434 4678 2328 
Q 4678 1225 4090 567 
Q 3503 -91 2522 -91 
Q 1538 -91 948 565 
Q 359 1222 359 2328 
Q 359 3434 948 4092 
Q 1538 4750 2522 4750 
z
" transform="scale(0.015625)"/>
        <path id="DejaVuSans-63" d="M 3122 3366 
L 3122 2828 
Q 2878 2963 2633 3030 
Q 2388 3097 2138 3097 
Q 1578 3097 1268 2742 
Q 959 2388 959 1747 
Q 959 1106 1268 751 
Q 1578 397 2138 397 
Q 2388 397 2633 464 
Q 2878 531 3122 666 
L 3122 134 
Q 2881 22 2623 -34 
Q 2366 -91 2075 -91 
Q 1284 -91 818 406 
Q 353 903 353 1747 
Q 353 2603 823 3093 
Q 1294 3584 2113 3584 
Q 2378 3584 2631 3529 
Q 2884 3475 3122 3366 
z
" transform="scale(0.015625)"/>
        <path id="DejaVuSans-74" d="M 1172 4494 
L 1172 3500 
L 2356 3500 
L 2356 3053 
L 1172 3053 
L 1172 1153 
Q 1172 725 1289 603 
Q 1406 481 1766 481 
L 2356 481 
L 2356 0 
L 1766 0 
Q 1100 0 847 248 
Q 594 497 594 1153 
L 594 3053 
L 172 3053 
L 172 3500 
L 594 3500 
L 594 4494 
L 1172 4494 
z
" transform="scale(0.015625)"/>
       </defs>
       <use xlink:href="#DejaVuSans-4f"/>
       <use xlink:href="#DejaVuSans-63" transform="translate(78.710938 0)"/>
       <use xlink:href="#DejaVuSans-74" transform="translate(133.691406 0)"/>
      </g>
     </g>
    </g>
    <g id="xtick_11">
     <g id="line2d_11">
      <g>
       <use xlink:href="#mb4653e560d" x="332.322161" y="261.56" style="stroke: #000000; stroke-width: 0.8"/>
      </g>
     </g>
     <g id="text_11">
      <!-- Nov -->
      <g transform="translate(322.562786 276.158437) scale(0.1 -0.1)">
       <defs>
        <path id="DejaVuSans-4e" d="M 628 4666 
L 1478 4666 
L 3547 763 
L 3547 4666 
L 4159 4666 
L 4159 0 
L 3309 0 
L 1241 3903 
L 1241 0 
L 628 0 
L 628 4666 
z
" transform="scale(0.015625)"/>
        <path id="DejaVuSans-6f" d="M 1959 3097 
Q 1497 3097 1228 2736 
Q 959 2375 959 1747 
Q 959 1119 1226 758 
Q 1494 397 1959 397 
Q 2419 397 2687 759 
Q 2956 1122 2956 1747 
Q 2956 2369 2687 2733 
Q 2419 3097 1959 3097 
z
M 1959 3584 
Q 2709 3584 3137 3096 
Q 3566 2609 3566 1747 
Q 3566 888 3137 398 
Q 2709 -91 1959 -91 
Q 1206 -91 779 398 
Q 353 888 353 1747 
Q 353 2609 779 3096 
Q 1206 3584 1959 3584 
z
" transform="scale(0.015625)"/>
        <path id="DejaVuSans-76" d="M 191 3500 
L 800 3500 
L 1894 563 
L 2988 3500 
L 3597 3500 
L 2284 0 
L 1503 0 
L 191 3500 
z
" transform="scale(0.015625)"/>
       </defs>
       <use xlink:href="#DejaVuSans-4e"/>
       <use xlink:href="#DejaVuSans-6f" transform="translate(74.804688 0)"/>
       <use xlink:href="#DejaVuSans-76" transform="translate(135.986328 0)"/>
      </g>
     </g>
    </g>
    <g id="xtick_12">
     <g id="line2d_12">
      <g>
       <use xlink:href="#mb4653e560d" x="357.433188" y="261.56" style="stroke: #000000; stroke-width: 0.8"/>
      </g>
     </g>
     <g id="text_12">
      <!-- Dec -->
      <g transform="translate(347.757407 276.158437) scale(0.1 -0.1)">
       <defs>
        <path id="DejaVuSans-44" d="M 1259 4147 
L 1259 519 
L 2022 519 
Q 2988 519 3436 956 
Q 3884 1394 3884 2338 
Q 3884 3275 3436 3711 
Q 2988 4147 2022 4147 
L 1259 4147 
z
M 628 4666 
L 1925 4666 
Q 3281 4666 3915 4102 
Q 4550 3538 4550 2338 
Q 4550 1131 3912 565 
Q 3275 0 1925 0 
L 628 0 
L 628 4666 
z
" transform="scale(0.015625)"/>
       </defs>
       <use xlink:href="#DejaVuSans-44"/>
       <use xlink:href="#DejaVuSans-65" transform="translate(77.001953 0)"/>
       <use xlink:href="#DejaVuSans-63" transform="translate(138.525391 0)"/>
      </g>
     </g>
    </g>
    <g id="xtick_13">
     <g id="line2d_13">
      <g>
       <use xlink:href="#mb4653e560d" x="383.38125" y="261.56" style="stroke: #000000; stroke-width: 0.8"/>
      </g>
     </g>
     <g id="text_13">
      <!-- Jan -->
      <g transform="translate(375.673438 276.158437) scale(0.1 -0.1)">
       <use xlink:href="#DejaVuSans-4a"/>
       <use xlink:href="#DejaVuSans-61" transform="translate(29.492188 0)"/>
       <use xlink:href="#DejaVuSans-6e" transform="translate(90.771484 0)"/>
      </g>
     </g>
    </g>
   </g>
   <g id="matplotlib.axis_2">
    <g id="ytick_1">
     <g id="line2d_14">
      <path d="M 77.86375 252.258126 
L 383.38125 252.258126 
" clip-path="url(#p7993f5f2ea)" style="fill: none; stroke-dasharray: 2.96,1.28; stroke-dashoffset: 0; stroke: #b0b0b0; stroke-opacity: 0.3; stroke-width: 0.8"/>
     </g>
     <g id="line2d_15">
      <defs>
       <path id="m7e9277ec3b" d="M 0 0 
L -3.5 0 
" style="stroke: #000000; stroke-width: 0.8"/>
      </defs>
      <g>
       <use xlink:href="#m7e9277ec3b" x="77.86375" y="252.258126" style="stroke: #000000; stroke-width: 0.8"/>
      </g>
     </g>
     <g id="text_14">
      <!-- 12000 -->
      <g transform="translate(39.05125 256.057345) scale(0.1 -0.1)">
       <defs>
        <path id="DejaVuSans-31" d="M 794 531 
L 1825 531 
L 1825 4091 
L 703 3866 
L 703 4441 
L 1819 4666 
L 2450 4666 
L 2450 531 
L 3481 531 
L 3481 0 
L 794 0 
L 794 531 
z
" transform="scale(0.015625)"/>
        <path id="DejaVuSans-32" d="M 1228 531 
L 3431 531 
L 3431 0 
L 469 0 
L 469 531 
Q 828 903 1448 1529 
Q 2069 2156 2228 2338 
Q 2531 2678 2651 2914 
Q 2772 3150 2772 3378 
Q 2772 3750 2511 3984 
Q 2250 4219 1831 4219 
Q 1534 4219 1204 4116 
Q 875 4013 500 3803 
L 500 4441 
Q 881 4594 1212 4672 
Q 1544 4750 1819 4750 
Q 2544 4750 2975 4387 
Q 3406 4025 3406 3419 
Q 3406 3131 3298 2873 
Q 3191 2616 2906 2266 
Q 2828 2175 2409 1742 
Q 1991 1309 1228 531 
z
" transform="scale(0.015625)"/>
        <path id="DejaVuSans-30" d="M 2034 4250 
Q 1547 4250 1301 3770 
Q 1056 3291 1056 2328 
Q 1056 1369 1301 889 
Q 1547 409 2034 409 
Q 2525 409 2770 889 
Q 3016 1369 3016 2328 
Q 3016 3291 2770 3770 
Q 2525 4250 2034 4250 
z
M 2034 4750 
Q 2819 4750 3233 4129 
Q 3647 3509 3647 2328 
Q 3647 1150 3233 529 
Q 2819 -91 2034 -91 
Q 1250 -91 836 529 
Q 422 1150 422 2328 
Q 422 3509 836 4129 
Q 1250 4750 2034 4750 
z
" transform="scale(0.015625)"/>
       </defs>
       <use xlink:href="#DejaVuSans-31"/>
       <use xlink:href="#DejaVuSans-32" transform="translate(63.623047 0)"/>
       <use xlink:href="#DejaVuSans-30" transform="translate(127.246094 0)"/>
       <use xlink:href="#DejaVuSans-30" transform="translate(190.869141 0)"/>
       <use xlink:href="#DejaVuSans-30" transform="translate(254.492188 0)"/>
      </g>
     </g>
    </g>
    <g id="ytick_2">
     <g id="line2d_16">
      <path d="M 77.86375 227.9056 
L 383.38125 227.9056 
" clip-path="url(#p7993f5f2ea)" style="fill: none; stroke-dasharray: 2.96,1.28; stroke-dashoffset: 0; stroke: #b0b0b0; stroke-opacity: 0.3; stroke-width: 0.8"/>
     </g>
     <g id="line2d_17">
      <g>
       <use xlink:href="#m7e9277ec3b" x="77.86375" y="227.9056" style="stroke: #000000; stroke-width: 0.8"/>
      </g>
     </g>
     <g id="text_15">
      <!-- 14000 -->
      <g transform="translate(39.05125 231.704818) scale(0.1 -0.1)">
       <defs>
        <path id="DejaVuSans-34" d="M 2419 4116 
L 825 1625 
L 2419 1625 
L 2419 4116 
z
M 2253 4666 
L 3047 4666 
L 3047 1625 
L 3713 1625 
L 3713 1100 
L 3047 1100 
L 3047 0 
L 2419 0 
L 2419 1100 
L 313 1100 
L 313 1709 
L 2253 4666 
z
" transform="scale(0.015625)"/>
       </defs>
       <use xlink:href="#DejaVuSans-31"/>
       <use xlink:href="#DejaVuSans-34" transform="translate(63.623047 0)"/>
       <use xlink:href="#DejaVuSans-30" transform="translate(127.246094 0)"/>
       <use xlink:href="#DejaVuSans-30" transform="translate(190.869141 0)"/>
       <use xlink:href="#DejaVuSans-30" transform="translate(254.492188 0)"/>
      </g>
     </g>
    </g>
    <g id="ytick_3">
     <g id="line2d_18">
      <path d="M 77.86375 203.553073 
L 383.38125 203.553073 
" clip-path="url(#p7993f5f2ea)" style="fill: none; stroke-dasharray: 2.96,1.28; stroke-dashoffset: 0; stroke: #b0b0b0; stroke-opacity: 0.3; stroke-width: 0.8"/>
     </g>
     <g id="line2d_19">
      <g>
       <use xlink:href="#m7e9277ec3b" x="77.86375" y="203.553073" style="stroke: #000000; stroke-width: 0.8"/>
      </g>
     </g>
     <g id="text_16">
      <!-- 16000 -->
      <g transform="translate(39.05125 207.352292) scale(0.1 -0.1)">
       <defs>
        <path id="DejaVuSans-36" d="M 2113 2584 
Q 1688 2584 1439 2293 
Q 1191 2003 1191 1497 
Q 1191 994 1439 701 
Q 1688 409 2113 409 
Q 2538 409 2786 701 
Q 3034 994 3034 1497 
Q 3034 2003 2786 2293 
Q 2538 2584 2113 2584 
z
M 3366 4563 
L 3366 3988 
Q 3128 4100 2886 4159 
Q 2644 4219 2406 4219 
Q 1781 4219 1451 3797 
Q 1122 3375 1075 2522 
Q 1259 2794 1537 2939 
Q 1816 3084 2150 3084 
Q 2853 3084 3261 2657 
Q 3669 2231 3669 1497 
Q 3669 778 3244 343 
Q 2819 -91 2113 -91 
Q 1303 -91 875 529 
Q 447 1150 447 2328 
Q 447 3434 972 4092 
Q 1497 4750 2381 4750 
Q 2619 4750 2861 4703 
Q 3103 4656 3366 4563 
z
" transform="scale(0.015625)"/>
       </defs>
       <use xlink:href="#DejaVuSans-31"/>
       <use xlink:href="#DejaVuSans-36" transform="translate(63.623047 0)"/>
       <use xlink:href="#DejaVuSans-30" transform="translate(127.246094 0)"/>
       <use xlink:href="#DejaVuSans-30" transform="translate(190.869141 0)"/>
       <use xlink:href="#DejaVuSans-30" transform="translate(254.492188 0)"/>
      </g>
     </g>
    </g>
    <g id="ytick_4">
     <g id="line2d_20">
      <path d="M 77.86375 179.200546 
L 383.38125 179.200546 
" clip-path="url(#p7993f5f2ea)" style="fill: none; stroke-dasharray: 2.96,1.28; stroke-dashoffset: 0; stroke: #b0b0b0; stroke-opacity: 0.3; stroke-width: 0.8"/>
     </g>
     <g id="line2d_21">
      <g>
       <use xlink:href="#m7e9277ec3b" x="77.86375" y="179.200546" style="stroke: #000000; stroke-width: 0.8"/>
      </g>
     </g>
     <g id="text_17">
      <!-- 18000 -->
      <g transform="translate(39.05125 182.999765) scale(0.1 -0.1)">
       <defs>
        <path id="DejaVuSans-38" d="M 2034 2216 
Q 1584 2216 1326 1975 
Q 1069 1734 1069 1313 
Q 1069 891 1326 650 
Q 1584 409 2034 409 
Q 2484 409 2743 651 
Q 3003 894 3003 1313 
Q 3003 1734 2745 1975 
Q 2488 2216 2034 2216 
z
M 1403 2484 
Q 997 2584 770 2862 
Q 544 3141 544 3541 
Q 544 4100 942 4425 
Q 1341 4750 2034 4750 
Q 2731 4750 3128 4425 
Q 3525 4100 3525 3541 
Q 3525 3141 3298 2862 
Q 3072 2584 2669 2484 
Q 3125 2378 3379 2068 
Q 3634 1759 3634 1313 
Q 3634 634 3220 271 
Q 2806 -91 2034 -91 
Q 1263 -91 848 271 
Q 434 634 434 1313 
Q 434 1759 690 2068 
Q 947 2378 1403 2484 
z
M 1172 3481 
Q 1172 3119 1398 2916 
Q 1625 2713 2034 2713 
Q 2441 2713 2670 2916 
Q 2900 3119 2900 3481 
Q 2900 3844 2670 4047 
Q 2441 4250 2034 4250 
Q 1625 4250 1398 4047 
Q 1172 3844 1172 3481 
z
" transform="scale(0.015625)"/>
       </defs>
       <use xlink:href="#DejaVuSans-31"/>
       <use xlink:href="#DejaVuSans-38" transform="translate(63.623047 0)"/>
       <use xlink:href="#DejaVuSans-30" transform="translate(127.246094 0)"/>
       <use xlink:href="#DejaVuSans-30" transform="translate(190.869141 0)"/>
       <use xlink:href="#DejaVuSans-30" transform="translate(254.492188 0)"/>
      </g>
     </g>
    </g>
    <g id="ytick_5">
     <g id="line2d_22">
      <path d="M 77.86375 154.84802 
L 383.38125 154.84802 
" clip-path="url(#p7993f5f2ea)" style="fill: none; stroke-dasharray: 2.96,1.28; stroke-dashoffset: 0; stroke: #b0b0b0; stroke-opacity: 0.3; stroke-width: 0.8"/>
     </g>
     <g id="line2d_23">
      <g>
       <use xlink:href="#m7e9277ec3b" x="77.86375" y="154.84802" style="stroke: #000000; stroke-width: 0.8"/>
      </g>
     </g>
     <g id="text_18">
      <!-- 20000 -->
      <g transform="translate(39.05125 158.647238) scale(0.1 -0.1)">
       <use xlink:href="#DejaVuSans-32"/>
       <use xlink:href="#DejaVuSans-30" transform="translate(63.623047 0)"/>
       <use xlink:href="#DejaVuSans-30" transform="translate(127.246094 0)"/>
       <use xlink:href="#DejaVuSans-30" transform="translate(190.869141 0)"/>
       <use xlink:href="#DejaVuSans-30" transform="translate(254.492188 0)"/>
      </g>
     </g>
    </g>
    <g id="ytick_6">
     <g id="line2d_24">
      <path d="M 77.86375 130.495493 
L 383.38125 130.495493 
" clip-path="url(#p7993f5f2ea)" style="fill: none; stroke-dasharray: 2.96,1.28; stroke-dashoffset: 0; stroke: #b0b0b0; stroke-opacity: 0.3; stroke-width: 0.8"/>
     </g>
     <g id="line2d_25">
      <g>
       <use xlink:href="#m7e9277ec3b" x="77.86375" y="130.495493" style="stroke: #000000; stroke-width: 0.8"/>
      </g>
     </g>
     <g id="text_19">
      <!-- 22000 -->
      <g transform="translate(39.05125 134.294712) scale(0.1 -0.1)">
       <use xlink:href="#DejaVuSans-32"/>
       <use xlink:href="#DejaVuSans-32" transform="translate(63.623047 0)"/>
       <use xlink:href="#DejaVuSans-30" transform="translate(127.246094 0)"/>
       <use xlink:href="#DejaVuSans-30" transform="translate(190.869141 0)"/>
       <use xlink:href="#DejaVuSans-30" transform="translate(254.492188 0)"/>
      </g>
     </g>
    </g>
    <g id="ytick_7">
     <g id="line2d_26">
      <path d="M 77.86375 106.142966 
L 383.38125 106.142966 
" clip-path="url(#p7993f5f2ea)" style="fill: none; stroke-dasharray: 2.96,1.28; stroke-dashoffset: 0; stroke: #b0b0b0; stroke-opacity: 0.3; stroke-width: 0.8"/>
     </g>
     <g id="line2d_27">
      <g>
       <use xlink:href="#m7e9277ec3b" x="77.86375" y="106.142966" style="stroke: #000000; stroke-width: 0.8"/>
      </g>
     </g>
     <g id="text_20">
      <!-- 24000 -->
      <g transform="translate(39.05125 109.942185) scale(0.1 -0.1)">
       <use xlink:href="#DejaVuSans-32"/>
       <use xlink:href="#DejaVuSans-34" transform="translate(63.623047 0)"/>
       <use xlink:href="#DejaVuSans-30" transform="translate(127.246094 0)"/>
       <use xlink:href="#DejaVuSans-30" transform="translate(190.869141 0)"/>
       <use xlink:href="#DejaVuSans-30" transform="translate(254.492188 0)"/>
      </g>
     </g>
    </g>
    <g id="ytick_8">
     <g id="line2d_28">
      <path d="M 77.86375 81.79044 
L 383.38125 81.79044 
" clip-path="url(#p7993f5f2ea)" style="fill: none; stroke-dasharray: 2.96,1.28; stroke-dashoffset: 0; stroke: #b0b0b0; stroke-opacity: 0.3; stroke-width: 0.8"/>
     </g>
     <g id="line2d_29">
      <g>
       <use xlink:href="#m7e9277ec3b" x="77.86375" y="81.79044" style="stroke: #000000; stroke-width: 0.8"/>
      </g>
     </g>
     <g id="text_21">
      <!-- 26000 -->
      <g transform="translate(39.05125 85.589658) scale(0.1 -0.1)">
       <use xlink:href="#DejaVuSans-32"/>
       <use xlink:href="#DejaVuSans-36" transform="translate(63.623047 0)"/>
       <use xlink:href="#DejaVuSans-30" transform="translate(127.246094 0)"/>
       <use xlink:href="#DejaVuSans-30" transform="translate(190.869141 0)"/>
       <use xlink:href="#DejaVuSans-30" transform="translate(254.492188 0)"/>
      </g>
     </g>
    </g>
    <g id="ytick_9">
     <g id="line2d_30">
      <path d="M 77.86375 57.437913 
L 383.38125 57.437913 
" clip-path="url(#p7993f5f2ea)" style="fill: none; stroke-dasharray: 2.96,1.28; stroke-dashoffset: 0; stroke: #b0b0b0; stroke-opacity: 0.3; stroke-width: 0.8"/>
     </g>
     <g id="line2d_31">
      <g>
       <use xlink:href="#m7e9277ec3b" x="77.86375" y="57.437913" style="stroke: #000000; stroke-width: 0.8"/>
      </g>
     </g>
     <g id="text_22">
      <!-- 28000 -->
      <g transform="translate(39.05125 61.237132) scale(0.1 -0.1)">
       <use xlink:href="#DejaVuSans-32"/>
       <use xlink:href="#DejaVuSans-38" transform="translate(63.623047 0)"/>
       <use xlink:href="#DejaVuSans-30" transform="translate(127.246094 0)"/>
       <use xlink:href="#DejaVuSans-30" transform="translate(190.869141 0)"/>
       <use xlink:href="#DejaVuSans-30" transform="translate(254.492188 0)"/>
      </g>
     </g>
    </g>
    <g id="text_23">
     <!-- Daily pedestrian count -->
     <g transform="translate(32.763594 220.247656) rotate(-90) scale(0.11 -0.11)">
      <defs>
       <path id="DejaVuSans-69" d="M 603 3500 
L 1178 3500 
L 1178 0 
L 603 0 
L 603 3500 
z
M 603 4863 
L 1178 4863 
L 1178 4134 
L 603 4134 
L 603 4863 
z
" transform="scale(0.015625)"/>
       <path id="DejaVuSans-20" transform="scale(0.015625)"/>
       <path id="DejaVuSans-64" d="M 2906 2969 
L 2906 4863 
L 3481 4863 
L 3481 0 
L 2906 0 
L 2906 525 
Q 2725 213 2448 61 
Q 2172 -91 1784 -91 
Q 1150 -91 751 415 
Q 353 922 353 1747 
Q 353 2572 751 3078 
Q 1150 3584 1784 3584 
Q 2172 3584 2448 3432 
Q 2725 3281 2906 2969 
z
M 947 1747 
Q 947 1113 1208 752 
Q 1469 391 1925 391 
Q 2381 391 2643 752 
Q 2906 1113 2906 1747 
Q 2906 2381 2643 2742 
Q 2381 3103 1925 3103 
Q 1469 3103 1208 2742 
Q 947 2381 947 1747 
z
" transform="scale(0.015625)"/>
       <path id="DejaVuSans-73" d="M 2834 3397 
L 2834 2853 
Q 2591 2978 2328 3040 
Q 2066 3103 1784 3103 
Q 1356 3103 1142 2972 
Q 928 2841 928 2578 
Q 928 2378 1081 2264 
Q 1234 2150 1697 2047 
L 1894 2003 
Q 2506 1872 2764 1633 
Q 3022 1394 3022 966 
Q 3022 478 2636 193 
Q 2250 -91 1575 -91 
Q 1294 -91 989 -36 
Q 684 19 347 128 
L 347 722 
Q 666 556 975 473 
Q 1284 391 1588 391 
Q 1994 391 2212 530 
Q 2431 669 2431 922 
Q 2431 1156 2273 1281 
Q 2116 1406 1581 1522 
L 1381 1569 
Q 847 1681 609 1914 
Q 372 2147 372 2553 
Q 372 3047 722 3315 
Q 1072 3584 1716 3584 
Q 2034 3584 2315 3537 
Q 2597 3491 2834 3397 
z
" transform="scale(0.015625)"/>
      </defs>
      <use xlink:href="#DejaVuSans-44"/>
      <use xlink:href="#DejaVuSans-61" transform="translate(77.001953 0)"/>
      <use xlink:href="#DejaVuSans-69" transform="translate(138.28125 0)"/>
      <use xlink:href="#DejaVuSans-6c" transform="translate(166.064453 0)"/>
      <use xlink:href="#DejaVuSans-79" transform="translate(193.847656 0)"/>
      <use xlink:href="#DejaVuSans-20" transform="translate(253.027344 0)"/>
      <use xlink:href="#DejaVuSans-70" transform="translate(284.814453 0)"/>
      <use xlink:href="#DejaVuSans-65" transform="translate(348.291016 0)"/>
      <use xlink:href="#DejaVuSans-64" transform="translate(409.814453 0)"/>
      <use xlink:href="#DejaVuSans-65" transform="translate(473.291016 0)"/>
      <use xlink:href="#DejaVuSans-73" transform="translate(534.814453 0)"/>
      <use xlink:href="#DejaVuSans-74" transform="translate(586.914062 0)"/>
      <use xlink:href="#DejaVuSans-72" transform="translate(626.123047 0)"/>
      <use xlink:href="#DejaVuSans-69" transform="translate(667.236328 0)"/>
      <use xlink:href="#DejaVuSans-61" transform="translate(695.019531 0)"/>
      <use xlink:href="#DejaVuSans-6e" transform="translate(756.298828 0)"/>
      <use xlink:href="#DejaVuSans-20" transform="translate(819.677734 0)"/>
      <use xlink:href="#DejaVuSans-63" transform="translate(851.464844 0)"/>
      <use xlink:href="#DejaVuSans-6f" transform="translate(906.445312 0)"/>
      <use xlink:href="#DejaVuSans-75" transform="translate(967.626953 0)"/>
      <use xlink:href="#DejaVuSans-6e" transform="translate(1031.005859 0)"/>
      <use xlink:href="#DejaVuSans-74" transform="translate(1094.384766 0)"/>
     </g>
    </g>
   </g>
   <g id="line2d_32">
    <path d="M 78.700784 151.158612 
L 79.537818 130.623344 
L 80.374853 128.048064 
L 81.211887 141.852903 
L 83.72299 138.013118 
L 84.560024 133.551735 
L 85.397058 127.980225 
L 86.234092 124.427148 
L 87.071127 121.631173 
L 89.582229 122.808618 
L 90.419264 120.564533 
L 91.256298 120.004424 
L 92.093332 118.251043 
L 92.930366 108.815656 
L 95.441469 108.559955 
L 97.115538 110.422923 
L 98.789606 116.752145 
L 101.300709 125.150113 
L 102.137743 126.795126 
L 102.974777 133.184012 
L 103.811812 133.598005 
L 104.648846 132.172164 
L 107.159949 132.94901 
L 107.996983 132.033355 
L 108.834017 135.41105 
L 109.671051 131.868975 
L 110.508086 126.217972 
L 113.019188 115.371356 
L 113.856223 114.593293 
L 114.693257 106.882065 
L 115.530291 103.600562 
L 116.367325 103.290068 
L 118.878428 100.483439 
L 119.715462 99.76504 
L 120.552497 95.637286 
L 121.389531 93.770665 
L 122.226565 90.290689 
L 124.737668 90.97743 
L 125.574702 86.850895 
L 126.411736 88.259688 
L 127.248771 91.922308 
L 128.085805 93.974009 
L 130.596908 94.724067 
L 131.433942 94.633962 
L 133.10801 94.974898 
L 133.945045 97.198283 
L 137.293182 103.57621 
L 138.130216 103.19144 
L 138.96725 99.766257 
L 139.804284 94.560905 
L 142.315387 94.966374 
L 143.989455 97.988523 
L 144.82649 99.247548 
L 145.663524 99.881932 
L 148.174627 96.355686 
L 149.011661 97.170278 
L 149.848695 98.671611 
L 150.685729 99.864885 
L 151.522764 104.646503 
L 154.033866 107.701528 
L 154.870901 108.90576 
L 155.707935 110.348648 
L 156.544969 111.23508 
L 157.382003 111.638114 
L 159.893106 111.446947 
L 160.73014 110.863704 
L 161.567175 110.823522 
L 162.404209 111.003731 
L 163.241243 106.737168 
L 165.752346 104.167976 
L 166.58938 102.351278 
L 167.426414 99.967165 
L 168.263449 95.284175 
L 169.100483 102.598456 
L 171.611586 107.464091 
L 172.44862 107.636994 
L 173.285654 106.358486 
L 174.959723 119.054676 
L 177.470825 122.01229 
L 178.30786 123.870388 
L 179.144894 124.473113 
L 179.981928 131.855582 
L 180.818962 123.91057 
L 183.330065 120.480516 
L 184.167099 121.76633 
L 185.004134 124.773867 
L 185.841168 120.87381 
L 186.678202 123.955622 
L 189.189305 123.296886 
L 190.026339 123.780284 
L 190.863373 126.657535 
L 191.700408 126.963159 
L 192.537442 128.017623 
L 195.048545 128.566773 
L 195.885579 129.147581 
L 196.722613 128.273325 
L 197.559647 128.095551 
L 198.396682 122.035425 
L 200.907784 124.850577 
L 201.744818 126.226495 
L 202.581853 130.305543 
L 203.418887 130.838864 
L 204.255921 135.126126 
L 206.767024 138.771699 
L 207.604058 138.772917 
L 208.441092 139.278232 
L 209.278127 139.088282 
L 210.115161 137.667312 
L 212.626264 140.915939 
L 213.463298 139.975932 
L 214.300332 138.383276 
L 215.137366 137.364123 
L 215.974401 134.958093 
L 218.485503 130.823034 
L 219.322538 134.625681 
L 220.159572 135.674058 
L 220.996606 138.562267 
L 221.83364 140.715031 
L 224.344743 135.336775 
L 225.181777 134.788843 
L 226.018812 130.521063 
L 227.69288 125.204907 
L 230.203983 123.977539 
L 232.715086 110.460669 
L 233.55212 105.872653 
L 236.063223 103.876964 
L 236.900257 101.920238 
L 237.737291 101.981119 
L 238.574325 103.007578 
L 239.41136 107.584636 
L 241.922462 108.184926 
L 242.759497 110.379088 
L 243.596531 114.123289 
L 244.433565 114.645651 
L 245.270599 117.514379 
L 247.781702 118.216949 
L 248.618736 123.691397 
L 249.455771 123.108154 
L 250.292805 122.942557 
L 251.129839 123.86917 
L 253.640942 124.5413 
L 254.477976 123.883782 
L 255.31501 122.358096 
L 256.152045 123.371161 
L 256.989079 123.092325 
L 259.500182 121.79677 
L 260.337216 118.834286 
L 261.17425 118.897602 
L 262.011284 120.51461 
L 262.848318 120.044606 
L 265.359421 118.259566 
L 266.196455 116.248047 
L 267.03349 116.603594 
L 267.870524 115.490684 
L 268.707558 119.371259 
L 271.218661 122.478641 
L 272.055695 121.015054 
L 272.892729 121.396171 
L 273.729764 119.160609 
L 274.566798 110.388829 
L 277.077901 111.086529 
L 277.914935 111.918168 
L 278.751969 117.988035 
L 279.589003 117.868708 
L 280.426038 111.043912 
L 282.93714 109.529185 
L 283.774175 109.187032 
L 284.611209 109.520662 
L 285.448243 109.333147 
L 286.285277 115.047468 
L 288.79638 118.202337 
L 289.633414 118.563972 
L 290.470449 110.953808 
L 291.307483 110.985466 
L 292.144517 114.007615 
L 294.65562 115.086432 
L 295.492654 116.383204 
L 296.329688 115.949729 
L 297.166723 115.165577 
L 298.003757 110.033282 
L 300.51486 107.514014 
L 301.351894 106.112526 
L 302.188928 104.415154 
L 303.025962 96.336204 
L 303.862997 105.004486 
L 306.374099 101.953114 
L 308.048168 91.884562 
L 308.885202 89.43348 
L 309.722236 95.133189 
L 312.233339 91.488833 
L 313.907408 95.359667 
L 314.744442 103.153694 
L 315.581476 92.568868 
L 318.092579 92.758818 
L 318.929613 96.919447 
L 319.766647 103.252321 
L 320.603682 110.654272 
L 321.440716 107.975494 
L 323.951818 109.534056 
L 324.788853 106.54113 
L 325.625887 104.444378 
L 326.462921 104.837671 
L 327.299955 108.063163 
L 329.811058 107.253441 
L 330.648092 106.724992 
L 332.322161 101.049635 
L 333.159195 104.055955 
L 335.670298 105.31011 
L 336.507332 113.684944 
L 337.344366 115.607576 
L 338.181401 121.072283 
L 339.018435 124.5413 
L 341.529538 125.247523 
L 342.366572 126.650229 
L 343.203606 126.010975 
L 344.877675 116.368592 
L 347.388777 111.893815 
L 348.225812 100.584502 
L 349.062846 98.631429 
L 349.89988 93.099753 
L 350.736914 85.153524 
L 353.248017 82.371247 
L 354.085051 78.11199 
L 354.922086 75.666997 
L 355.75912 71.523414 
L 356.596154 65.963733 
L 359.107257 68.434296 
L 359.944291 71.178826 
L 360.781325 71.106986 
L 361.61836 65.483988 
L 362.455394 65.868758 
L 364.966497 69.061374 
L 365.803531 67.393226 
L 366.640565 67.058379 
L 367.477599 69.399874 
L 368.314634 74.507816 
L 370.825736 68.882383 
L 371.662771 64.850822 
L 372.499805 66.89887 
L 373.336839 65.324479 
L 374.173873 74.830487 
L 376.684976 64.663308 
L 377.52201 63.663636 
L 378.359045 77.016127 
L 379.196079 66.391119 
L 380.033113 69.700628 
L 382.544216 82.499098 
L 383.38125 75.758319 
L 383.38125 75.758319 
" clip-path="url(#p7993f5f2ea)" style="fill: none; stroke: #0d6efc; stroke-opacity: 0.5; stroke-width: 1.5; stroke-linecap: square"/>
   </g>
   <g id="line2d_33">
    <path d="M 82.048921 137.862132 
L 82.885955 154.251383 
L 87.908161 146.949683 
L 88.745195 153.761288 
L 93.767401 147.243943 
L 94.604435 143.432773 
L 99.62664 142.92137 
L 100.463675 137.737326 
L 105.48588 154.753654 
L 106.322914 172.464029 
L 111.34512 173.797329 
L 112.182154 167.873577 
L 117.20436 153.018536 
L 118.041394 134.212297 
L 123.063599 116.264485 
L 123.900634 115.424323 
L 128.922839 125.427123 
L 129.759873 134.047918 
L 134.782079 139.959494 
L 135.619113 138.553135 
L 140.641318 122.769654 
L 141.478353 114.836818 
L 146.500558 127.533617 
L 147.337592 139.575941 
L 152.359798 150.364111 
L 153.196832 153.319899 
L 158.219038 147.313957 
L 159.056072 142.747858 
L 164.078277 131.393492 
L 164.915312 126.322079 
L 169.937517 117.801738 
L 170.774551 112.946453 
L 175.796757 121.536807 
L 176.633791 133.076861 
L 181.655997 146.431178 
L 182.493031 155.672961 
L 187.515236 150.461521 
L 188.352271 145.432724 
L 193.374476 141.938136 
L 194.21151 141.070578 
L 199.233716 148.40982 
L 200.07075 150.8055 
L 205.092955 147.444851 
L 205.92999 150.838985 
L 210.952195 144.345992 
L 211.789229 133.847009 
L 216.811435 141.548496 
L 217.648469 144.272935 
L 222.670675 152.163154 
L 223.507709 163.20398 
L 228.529914 173.553804 
L 229.366949 163.036557 
L 234.389154 155.539023 
L 235.226188 154.741477 
L 240.248394 146.811686 
L 241.085428 160.342558 
L 246.107634 160.677406 
L 246.944668 154.397498 
L 251.966873 142.126868 
L 252.803908 127.137888 
L 257.826113 126.352519 
L 258.663147 127.567102 
L 263.685353 136.07831 
L 264.522387 144.266847 
L 269.544592 136.845414 
L 270.381627 143.420596 
L 275.403832 128.623392 
L 276.240866 124.306907 
L 281.263072 128.894314 
L 282.100106 128.729935 
L 287.122312 151.542164 
L 287.959346 162.123337 
L 292.981551 162.324245 
L 293.818586 164.293756 
L 298.840791 161.341012 
L 299.677825 150.519358 
L 304.700031 162.272496 
L 305.537065 154.902813 
L 310.559271 137.174173 
L 311.396305 136.480126 
L 316.41851 115.485204 
L 317.255545 108.861317 
L 322.27775 123.454569 
L 323.114784 122.830535 
L 328.13699 140.620056 
L 328.974024 147.359618 
L 333.996229 157.742926 
L 334.833264 163.74278 
L 339.855469 164.497708 
L 340.692503 161.304483 
L 345.714709 136.766269 
L 346.551743 128.955196 
L 351.573949 111.616197 
L 352.410983 106.012071 
L 357.433188 103.503761 
L 358.270223 106.654369 
L 363.292428 110.721241 
L 364.129462 107.573677 
L 369.151668 107.77763 
L 369.988702 97.223853 
L 375.010908 96.249752 
L 375.847942 86.746179 
L 380.870147 97.659155 
L 381.707182 104.322615 
" clip-path="url(#p7993f5f2ea)" style="fill: none; stroke: #83c966; stroke-opacity: 0.5; stroke-width: 1.5; stroke-linecap: square"/>
   </g>
   <g id="line2d_34">
    <path d="M 77.86375 76.049309 
L 383.38125 76.049309 
" clip-path="url(#p7993f5f2ea)" style="fill: none; stroke-dasharray: 7.4,3.2; stroke-dashoffset: 0; stroke: #0d6efc; stroke-width: 2"/>
   </g>
   <g id="line2d_35">
    <path d="M 77.86375 108.376759 
L 383.38125 108.376759 
" clip-path="url(#p7993f5f2ea)" style="fill: none; stroke-dasharray: 7.4,3.2; stroke-dashoffset: 0; stroke: #83c966; stroke-width: 2"/>
   </g>
   <g id="patch_3">
    <path d="M 77.86375 261.56 
L 77.86375 54.24 
" style="fill: none; stroke: #000000; stroke-width: 0.8; stroke-linejoin: miter; stroke-linecap: square"/>
   </g>
   <g id="patch_4">
    <path d="M 77.86375 261.56 
L 383.38125 261.56 
" style="fill: none; stroke: #000000; stroke-width: 0.8; stroke-linejoin: miter; stroke-linecap: square"/>
   </g>
   <g id="text_24">
    <!-- 2019 -->
    <g transform="translate(212.8075 48.24) scale(0.14 -0.14)">
     <defs>
      <path id="DejaVuSans-39" d="M 703 97 
L 703 672 
Q 941 559 1184 500 
Q 1428 441 1663 441 
Q 2288 441 2617 861 
Q 2947 1281 2994 2138 
Q 2813 1869 2534 1725 
Q 2256 1581 1919 1581 
Q 1219 1581 811 2004 
Q 403 2428 403 3163 
Q 403 3881 828 4315 
Q 1253 4750 1959 4750 
Q 2769 4750 3195 4129 
Q 3622 3509 3622 2328 
Q 3622 1225 3098 567 
Q 2575 -91 1691 -91 
Q 1453 -91 1209 -44 
Q 966 3 703 97 
z
M 1959 2075 
Q 2384 2075 2632 2365 
Q 2881 2656 2881 3163 
Q 2881 3666 2632 3958 
Q 2384 4250 1959 4250 
Q 1534 4250 1286 3958 
Q 1038 3666 1038 3163 
Q 1038 2656 1286 2365 
Q 1534 2075 1959 2075 
z
" transform="scale(0.015625)"/>
     </defs>
     <use xlink:href="#DejaVuSans-32"/>
     <use xlink:href="#DejaVuSans-30" transform="translate(63.623047 0)"/>
     <use xlink:href="#DejaVuSans-31" transform="translate(127.246094 0)"/>
     <use xlink:href="#DejaVuSans-39" transform="translate(190.869141 0)"/>
    </g>
   </g>
   <g id="legend_1">
    <g id="line2d_36">
     <path d="M 85.96375 208.807344 
L 94.96375 208.807344 
L 103.96375 208.807344 
" style="fill: none; stroke: #0d6efc; stroke-opacity: 0.5; stroke-width: 1.5; stroke-linecap: square"/>
    </g>
    <g id="text_25">
     <!-- Weekday -->
     <g transform="translate(111.16375 211.957344) scale(0.09 -0.09)">
      <defs>
       <path id="DejaVuSans-57" d="M 213 4666 
L 850 4666 
L 1831 722 
L 2809 4666 
L 3519 4666 
L 4500 722 
L 5478 4666 
L 6119 4666 
L 4947 0 
L 4153 0 
L 3169 4050 
L 2175 0 
L 1381 0 
L 213 4666 
z
" transform="scale(0.015625)"/>
       <path id="DejaVuSans-6b" d="M 581 4863 
L 1159 4863 
L 1159 1991 
L 2875 3500 
L 3609 3500 
L 1753 1863 
L 3688 0 
L 2938 0 
L 1159 1709 
L 1159 0 
L 581 0 
L 581 4863 
z
" transform="scale(0.015625)"/>
      </defs>
      <use xlink:href="#DejaVuSans-57"/>
      <use xlink:href="#DejaVuSans-65" transform="translate(93.001953 0)"/>
      <use xlink:href="#DejaVuSans-65" transform="translate(154.525391 0)"/>
      <use xlink:href="#DejaVuSans-6b" transform="translate(216.048828 0)"/>
      <use xlink:href="#DejaVuSans-64" transform="translate(273.958984 0)"/>
      <use xlink:href="#DejaVuSans-61" transform="translate(337.435547 0)"/>
      <use xlink:href="#DejaVuSans-79" transform="translate(398.714844 0)"/>
     </g>
    </g>
    <g id="line2d_37">
     <path d="M 85.96375 222.017656 
L 94.96375 222.017656 
L 103.96375 222.017656 
" style="fill: none; stroke: #83c966; stroke-opacity: 0.5; stroke-width: 1.5; stroke-linecap: square"/>
    </g>
    <g id="text_26">
     <!-- Weekend -->
     <g transform="translate(111.16375 225.167656) scale(0.09 -0.09)">
      <use xlink:href="#DejaVuSans-57"/>
      <use xlink:href="#DejaVuSans-65" transform="translate(93.001953 0)"/>
      <use xlink:href="#DejaVuSans-65" transform="translate(154.525391 0)"/>
      <use xlink:href="#DejaVuSans-6b" transform="translate(216.048828 0)"/>
      <use xlink:href="#DejaVuSans-65" transform="translate(270.333984 0)"/>
      <use xlink:href="#DejaVuSans-6e" transform="translate(331.857422 0)"/>
      <use xlink:href="#DejaVuSans-64" transform="translate(395.236328 0)"/>
     </g>
    </g>
    <g id="line2d_38">
     <path d="M 85.96375 235.227969 
L 94.96375 235.227969 
L 103.96375 235.227969 
" style="fill: none; stroke-dasharray: 7.4,3.2; stroke-dashoffset: 0; stroke: #0d6efc; stroke-width: 2"/>
    </g>
    <g id="text_27">
     <!-- Weekday Fit -->
     <g transform="translate(111.16375 238.377969) scale(0.09 -0.09)">
      <use xlink:href="#DejaVuSans-57"/>
      <use xlink:href="#DejaVuSans-65" transform="translate(93.001953 0)"/>
      <use xlink:href="#DejaVuSans-65" transform="translate(154.525391 0)"/>
      <use xlink:href="#DejaVuSans-6b" transform="translate(216.048828 0)"/>
      <use xlink:href="#DejaVuSans-64" transform="translate(273.958984 0)"/>
      <use xlink:href="#DejaVuSans-61" transform="translate(337.435547 0)"/>
      <use xlink:href="#DejaVuSans-79" transform="translate(398.714844 0)"/>
      <use xlink:href="#DejaVuSans-20" transform="translate(457.894531 0)"/>
      <use xlink:href="#DejaVuSans-46" transform="translate(489.681641 0)"/>
      <use xlink:href="#DejaVuSans-69" transform="translate(539.951172 0)"/>
      <use xlink:href="#DejaVuSans-74" transform="translate(567.734375 0)"/>
     </g>
    </g>
    <g id="line2d_39">
     <path d="M 85.96375 248.438281 
L 94.96375 248.438281 
L 103.96375 248.438281 
" style="fill: none; stroke-dasharray: 7.4,3.2; stroke-dashoffset: 0; stroke: #83c966; stroke-width: 2"/>
    </g>
    <g id="text_28">
     <!-- Weekend Fit -->
     <g transform="translate(111.16375 251.588281) scale(0.09 -0.09)">
      <use xlink:href="#DejaVuSans-57"/>
      <use xlink:href="#DejaVuSans-65" transform="translate(93.001953 0)"/>
      <use xlink:href="#DejaVuSans-65" transform="translate(154.525391 0)"/>
      <use xlink:href="#DejaVuSans-6b" transform="translate(216.048828 0)"/>
      <use xlink:href="#DejaVuSans-65" transform="translate(270.333984 0)"/>
      <use xlink:href="#DejaVuSans-6e" transform="translate(331.857422 0)"/>
      <use xlink:href="#DejaVuSans-64" transform="translate(395.236328 0)"/>
      <use xlink:href="#DejaVuSans-20" transform="translate(458.712891 0)"/>
      <use xlink:href="#DejaVuSans-46" transform="translate(490.5 0)"/>
      <use xlink:href="#DejaVuSans-69" transform="translate(540.769531 0)"/>
      <use xlink:href="#DejaVuSans-74" transform="translate(568.552734 0)"/>
     </g>
    </g>
   </g>
  </g>
  <g id="axes_2">
   <g id="patch_5">
    <path d="M 409.57125 261.56 
L 715.08875 261.56 
L 715.08875 54.24 
L 409.57125 54.24 
L 409.57125 261.56 
z
" style="fill: none"/>
   </g>
   <g id="matplotlib.axis_3">
    <g id="xtick_14">
     <g id="line2d_40">
      <g>
       <use xlink:href="#mb4653e560d" x="409.57125" y="261.56" style="stroke: #000000; stroke-width: 0.8"/>
      </g>
     </g>
     <g id="text_29">
      <!-- Jan -->
      <g transform="translate(401.863438 276.158437) scale(0.1 -0.1)">
       <use xlink:href="#DejaVuSans-4a"/>
       <use xlink:href="#DejaVuSans-61" transform="translate(29.492188 0)"/>
       <use xlink:href="#DejaVuSans-6e" transform="translate(90.771484 0)"/>
      </g>
     </g>
    </g>
    <g id="xtick_15">
     <g id="line2d_41">
      <g>
       <use xlink:href="#mb4653e560d" x="435.519312" y="261.56" style="stroke: #000000; stroke-width: 0.8"/>
      </g>
     </g>
     <g id="text_30">
      <!-- Feb -->
      <g transform="translate(426.667749 276.158437) scale(0.1 -0.1)">
       <use xlink:href="#DejaVuSans-46"/>
       <use xlink:href="#DejaVuSans-65" transform="translate(52.019531 0)"/>
       <use xlink:href="#DejaVuSans-62" transform="translate(113.542969 0)"/>
      </g>
     </g>
    </g>
    <g id="xtick_16">
     <g id="line2d_42">
      <g>
       <use xlink:href="#mb4653e560d" x="458.956271" y="261.56" style="stroke: #000000; stroke-width: 0.8"/>
      </g>
     </g>
     <g id="text_31">
      <!-- Mar -->
      <g transform="translate(449.522677 276.158437) scale(0.1 -0.1)">
       <use xlink:href="#DejaVuSans-4d"/>
       <use xlink:href="#DejaVuSans-61" transform="translate(86.279297 0)"/>
       <use xlink:href="#DejaVuSans-72" transform="translate(147.558594 0)"/>
      </g>
     </g>
    </g>
    <g id="xtick_17">
     <g id="line2d_43">
      <g>
       <use xlink:href="#mb4653e560d" x="484.904332" y="261.56" style="stroke: #000000; stroke-width: 0.8"/>
      </g>
     </g>
     <g id="text_32">
      <!-- Apr -->
      <g transform="translate(476.254332 276.158437) scale(0.1 -0.1)">
       <use xlink:href="#DejaVuSans-41"/>
       <use xlink:href="#DejaVuSans-70" transform="translate(68.408203 0)"/>
       <use xlink:href="#DejaVuSans-72" transform="translate(131.884766 0)"/>
      </g>
     </g>
    </g>
    <g id="xtick_18">
     <g id="line2d_44">
      <g>
       <use xlink:href="#mb4653e560d" x="510.01536" y="261.56" style="stroke: #000000; stroke-width: 0.8"/>
      </g>
     </g>
     <g id="text_33">
      <!-- May -->
      <g transform="translate(499.67786 276.158437) scale(0.1 -0.1)">
       <use xlink:href="#DejaVuSans-4d"/>
       <use xlink:href="#DejaVuSans-61" transform="translate(86.279297 0)"/>
       <use xlink:href="#DejaVuSans-79" transform="translate(147.558594 0)"/>
      </g>
     </g>
    </g>
    <g id="xtick_19">
     <g id="line2d_45">
      <g>
       <use xlink:href="#mb4653e560d" x="535.963421" y="261.56" style="stroke: #000000; stroke-width: 0.8"/>
      </g>
     </g>
     <g id="text_34">
      <!-- Jun -->
      <g transform="translate(528.150921 276.158437) scale(0.1 -0.1)">
       <use xlink:href="#DejaVuSans-4a"/>
       <use xlink:href="#DejaVuSans-75" transform="translate(29.492188 0)"/>
       <use xlink:href="#DejaVuSans-6e" transform="translate(92.871094 0)"/>
      </g>
     </g>
    </g>
    <g id="xtick_20">
     <g id="line2d_46">
      <g>
       <use xlink:href="#mb4653e560d" x="561.074449" y="261.56" style="stroke: #000000; stroke-width: 0.8"/>
      </g>
     </g>
     <g id="text_35">
      <!-- Jul -->
      <g transform="translate(555.041636 276.158437) scale(0.1 -0.1)">
       <use xlink:href="#DejaVuSans-4a"/>
       <use xlink:href="#DejaVuSans-75" transform="translate(29.492188 0)"/>
       <use xlink:href="#DejaVuSans-6c" transform="translate(92.871094 0)"/>
      </g>
     </g>
    </g>
    <g id="xtick_21">
     <g id="line2d_47">
      <g>
       <use xlink:href="#mb4653e560d" x="587.02251" y="261.56" style="stroke: #000000; stroke-width: 0.8"/>
      </g>
     </g>
     <g id="text_36">
      <!-- Aug -->
      <g transform="translate(577.259229 276.158437) scale(0.1 -0.1)">
       <use xlink:href="#DejaVuSans-41"/>
       <use xlink:href="#DejaVuSans-75" transform="translate(68.408203 0)"/>
       <use xlink:href="#DejaVuSans-67" transform="translate(131.787109 0)"/>
      </g>
     </g>
    </g>
    <g id="xtick_22">
     <g id="line2d_48">
      <g>
       <use xlink:href="#mb4653e560d" x="612.970572" y="261.56" style="stroke: #000000; stroke-width: 0.8"/>
      </g>
     </g>
     <g id="text_37">
      <!-- Sep -->
      <g transform="translate(603.545572 276.158437) scale(0.1 -0.1)">
       <use xlink:href="#DejaVuSans-53"/>
       <use xlink:href="#DejaVuSans-65" transform="translate(63.476562 0)"/>
       <use xlink:href="#DejaVuSans-70" transform="translate(125 0)"/>
      </g>
     </g>
    </g>
    <g id="xtick_23">
     <g id="line2d_49">
      <g>
       <use xlink:href="#mb4653e560d" x="638.081599" y="261.56" style="stroke: #000000; stroke-width: 0.8"/>
      </g>
     </g>
     <g id="text_38">
      <!-- Oct -->
      <g transform="translate(629.436287 276.158437) scale(0.1 -0.1)">
       <use xlink:href="#DejaVuSans-4f"/>
       <use xlink:href="#DejaVuSans-63" transform="translate(78.710938 0)"/>
       <use xlink:href="#DejaVuSans-74" transform="translate(133.691406 0)"/>
      </g>
     </g>
    </g>
    <g id="xtick_24">
     <g id="line2d_50">
      <g>
       <use xlink:href="#mb4653e560d" x="664.029661" y="261.56" style="stroke: #000000; stroke-width: 0.8"/>
      </g>
     </g>
     <g id="text_39">
      <!-- Nov -->
      <g transform="translate(654.270286 276.158437) scale(0.1 -0.1)">
       <use xlink:href="#DejaVuSans-4e"/>
       <use xlink:href="#DejaVuSans-6f" transform="translate(74.804688 0)"/>
       <use xlink:href="#DejaVuSans-76" transform="translate(135.986328 0)"/>
      </g>
     </g>
    </g>
    <g id="xtick_25">
     <g id="line2d_51">
      <g>
       <use xlink:href="#mb4653e560d" x="689.140688" y="261.56" style="stroke: #000000; stroke-width: 0.8"/>
      </g>
     </g>
     <g id="text_40">
      <!-- Dec -->
      <g transform="translate(679.464907 276.158437) scale(0.1 -0.1)">
       <use xlink:href="#DejaVuSans-44"/>
       <use xlink:href="#DejaVuSans-65" transform="translate(77.001953 0)"/>
       <use xlink:href="#DejaVuSans-63" transform="translate(138.525391 0)"/>
      </g>
     </g>
    </g>
    <g id="xtick_26">
     <g id="line2d_52">
      <g>
       <use xlink:href="#mb4653e560d" x="715.08875" y="261.56" style="stroke: #000000; stroke-width: 0.8"/>
      </g>
     </g>
     <g id="text_41">
      <!-- Jan -->
      <g transform="translate(707.380938 276.158437) scale(0.1 -0.1)">
       <use xlink:href="#DejaVuSans-4a"/>
       <use xlink:href="#DejaVuSans-61" transform="translate(29.492188 0)"/>
       <use xlink:href="#DejaVuSans-6e" transform="translate(90.771484 0)"/>
      </g>
     </g>
    </g>
   </g>
   <g id="matplotlib.axis_4">
    <g id="ytick_10">
     <g id="line2d_53">
      <path d="M 409.57125 252.258126 
L 715.08875 252.258126 
" clip-path="url(#p674e16faf9)" style="fill: none; stroke-dasharray: 2.96,1.28; stroke-dashoffset: 0; stroke: #b0b0b0; stroke-opacity: 0.3; stroke-width: 0.8"/>
     </g>
     <g id="line2d_54">
      <g>
       <use xlink:href="#m7e9277ec3b" x="409.57125" y="252.258126" style="stroke: #000000; stroke-width: 0.8"/>
      </g>
     </g>
    </g>
    <g id="ytick_11">
     <g id="line2d_55">
      <path d="M 409.57125 227.9056 
L 715.08875 227.9056 
" clip-path="url(#p674e16faf9)" style="fill: none; stroke-dasharray: 2.96,1.28; stroke-dashoffset: 0; stroke: #b0b0b0; stroke-opacity: 0.3; stroke-width: 0.8"/>
     </g>
     <g id="line2d_56">
      <g>
       <use xlink:href="#m7e9277ec3b" x="409.57125" y="227.9056" style="stroke: #000000; stroke-width: 0.8"/>
      </g>
     </g>
    </g>
    <g id="ytick_12">
     <g id="line2d_57">
      <path d="M 409.57125 203.553073 
L 715.08875 203.553073 
" clip-path="url(#p674e16faf9)" style="fill: none; stroke-dasharray: 2.96,1.28; stroke-dashoffset: 0; stroke: #b0b0b0; stroke-opacity: 0.3; stroke-width: 0.8"/>
     </g>
     <g id="line2d_58">
      <g>
       <use xlink:href="#m7e9277ec3b" x="409.57125" y="203.553073" style="stroke: #000000; stroke-width: 0.8"/>
      </g>
     </g>
    </g>
    <g id="ytick_13">
     <g id="line2d_59">
      <path d="M 409.57125 179.200546 
L 715.08875 179.200546 
" clip-path="url(#p674e16faf9)" style="fill: none; stroke-dasharray: 2.96,1.28; stroke-dashoffset: 0; stroke: #b0b0b0; stroke-opacity: 0.3; stroke-width: 0.8"/>
     </g>
     <g id="line2d_60">
      <g>
       <use xlink:href="#m7e9277ec3b" x="409.57125" y="179.200546" style="stroke: #000000; stroke-width: 0.8"/>
      </g>
     </g>
    </g>
    <g id="ytick_14">
     <g id="line2d_61">
      <path d="M 409.57125 154.84802 
L 715.08875 154.84802 
" clip-path="url(#p674e16faf9)" style="fill: none; stroke-dasharray: 2.96,1.28; stroke-dashoffset: 0; stroke: #b0b0b0; stroke-opacity: 0.3; stroke-width: 0.8"/>
     </g>
     <g id="line2d_62">
      <g>
       <use xlink:href="#m7e9277ec3b" x="409.57125" y="154.84802" style="stroke: #000000; stroke-width: 0.8"/>
      </g>
     </g>
    </g>
    <g id="ytick_15">
     <g id="line2d_63">
      <path d="M 409.57125 130.495493 
L 715.08875 130.495493 
" clip-path="url(#p674e16faf9)" style="fill: none; stroke-dasharray: 2.96,1.28; stroke-dashoffset: 0; stroke: #b0b0b0; stroke-opacity: 0.3; stroke-width: 0.8"/>
     </g>
     <g id="line2d_64">
      <g>
       <use xlink:href="#m7e9277ec3b" x="409.57125" y="130.495493" style="stroke: #000000; stroke-width: 0.8"/>
      </g>
     </g>
    </g>
    <g id="ytick_16">
     <g id="line2d_65">
      <path d="M 409.57125 106.142966 
L 715.08875 106.142966 
" clip-path="url(#p674e16faf9)" style="fill: none; stroke-dasharray: 2.96,1.28; stroke-dashoffset: 0; stroke: #b0b0b0; stroke-opacity: 0.3; stroke-width: 0.8"/>
     </g>
     <g id="line2d_66">
      <g>
       <use xlink:href="#m7e9277ec3b" x="409.57125" y="106.142966" style="stroke: #000000; stroke-width: 0.8"/>
      </g>
     </g>
    </g>
    <g id="ytick_17">
     <g id="line2d_67">
      <path d="M 409.57125 81.79044 
L 715.08875 81.79044 
" clip-path="url(#p674e16faf9)" style="fill: none; stroke-dasharray: 2.96,1.28; stroke-dashoffset: 0; stroke: #b0b0b0; stroke-opacity: 0.3; stroke-width: 0.8"/>
     </g>
     <g id="line2d_68">
      <g>
       <use xlink:href="#m7e9277ec3b" x="409.57125" y="81.79044" style="stroke: #000000; stroke-width: 0.8"/>
      </g>
     </g>
    </g>
    <g id="ytick_18">
     <g id="line2d_69">
      <path d="M 409.57125 57.437913 
L 715.08875 57.437913 
" clip-path="url(#p674e16faf9)" style="fill: none; stroke-dasharray: 2.96,1.28; stroke-dashoffset: 0; stroke: #b0b0b0; stroke-opacity: 0.3; stroke-width: 0.8"/>
     </g>
     <g id="line2d_70">
      <g>
       <use xlink:href="#m7e9277ec3b" x="409.57125" y="57.437913" style="stroke: #000000; stroke-width: 0.8"/>
      </g>
     </g>
    </g>
   </g>
   <g id="line2d_71">
    <path d="M 410.408284 98.642388 
L 411.245318 116.85199 
L 412.082353 131.684708 
L 414.593455 150.851161 
L 415.43049 150.919957 
L 416.267524 153.222488 
L 417.104558 154.543613 
L 417.941592 155.43248 
L 420.452695 156.449875 
L 421.289729 155.825774 
L 422.126764 162.538548 
L 422.963798 160.65975 
L 423.800832 156.797439 
L 426.311935 154.039516 
L 427.148969 154.432809 
L 427.986003 152.913211 
L 428.823038 150.51814 
L 429.660072 147.044252 
L 432.171175 155.562766 
L 433.008209 156.589225 
L 433.845243 156.738993 
L 434.682277 160.979986 
L 435.519312 164.117809 
L 438.030414 167.496722 
L 438.867449 172.379404 
L 440.541517 177.327837 
L 441.378551 177.773488 
L 443.889654 170.434854 
L 445.563723 171.839995 
L 446.400757 173.467961 
L 447.237791 170.537135 
L 449.748894 166.051399 
L 450.585928 161.117578 
L 451.422962 159.050048 
L 452.259997 155.21209 
L 453.097031 154.097962 
L 455.608134 151.847788 
L 456.445168 147.833274 
L 457.282202 145.200766 
L 458.119236 138.641413 
L 458.956271 136.251213 
L 461.467373 133.998604 
L 463.141442 131.512211 
L 463.978476 131.16884 
L 464.81551 129.773441 
L 467.326613 133.776996 
L 468.163647 137.723323 
L 469.000682 139.286755 
L 469.837716 138.642631 
L 470.67475 139.599685 
L 473.185853 137.007359 
L 474.022887 134.747444 
L 474.859921 134.002257 
L 475.696955 138.0119 
L 476.53399 139.143075 
L 479.045092 137.238708 
L 479.882127 135.738592 
L 480.719161 135.132214 
L 481.556195 136.398545 
L 482.393229 134.463737 
L 484.904332 139.032271 
L 485.741366 141.354285 
L 486.578401 143.113755 
L 487.415435 142.609657 
L 488.252469 142.769166 
L 490.763572 141.260527 
L 491.600606 138.993307 
L 492.43764 134.651252 
L 493.274675 133.69298 
L 494.111709 133.833007 
L 496.622812 131.691202 
L 498.29688 124.760473 
L 499.133914 116.360069 
L 499.970949 119.754811 
L 502.482051 121.161169 
L 503.319086 122.292344 
L 504.15612 124.015286 
L 504.993154 123.860647 
L 505.830188 131.302779 
L 508.341291 132.433954 
L 509.178325 135.495067 
L 510.01536 135.412268 
L 510.852394 139.936968 
L 511.689428 134.990969 
L 514.200531 133.250981 
L 515.037565 134.016868 
L 515.874599 138.093481 
L 516.711634 140.884281 
L 517.548668 134.861901 
L 520.059771 135.776338 
L 520.896805 135.760509 
L 521.733839 139.065147 
L 522.570873 140.492205 
L 523.407908 138.575661 
L 525.91901 139.262403 
L 526.756045 138.771699 
L 527.593079 136.117274 
L 528.430113 135.569342 
L 529.267147 137.52972 
L 531.77825 138.358924 
L 532.615284 143.453472 
L 533.452318 145.920383 
L 534.289353 145.740175 
L 535.126387 148.879215 
L 537.63749 158.940462 
L 538.474524 163.871848 
L 539.311558 161.812842 
L 540.148592 162.19883 
L 540.985627 164.435609 
L 543.496729 165.86145 
L 544.333764 163.437156 
L 545.170798 161.692297 
L 546.007832 163.319046 
L 546.844866 163.194848 
L 549.355969 155.932925 
L 550.193003 153.039844 
L 551.030038 154.905248 
L 551.867072 156.301865 
L 552.704106 178.581992 
L 555.215209 177.4289 
L 556.052243 177.421594 
L 556.889277 183.100603 
L 557.726312 181.369139 
L 558.563346 181.802614 
L 561.074449 201.265153 
L 561.911483 201.802126 
L 562.748517 210.43875 
L 563.585551 234.064354 
L 564.422586 207.177947 
L 566.933688 201.508678 
L 567.770723 198.575416 
L 568.607757 189.471224 
L 569.444791 189.385991 
L 570.281825 186.719389 
L 572.792928 161.497477 
L 573.629962 156.387099 
L 574.466997 143.145413 
L 575.304031 115.558871 
L 576.141065 111.991226 
L 578.652168 116.55976 
L 579.489202 122.311826 
L 580.326236 125.555583 
L 581.163271 124.63384 
L 582.000305 125.589676 
L 584.511408 130.006007 
L 585.348442 133.9085 
L 586.185476 139.139422 
L 587.02251 141.508923 
L 587.859545 145.426027 
L 590.370647 145.320094 
L 591.207682 164.187214 
L 592.044716 163.870631 
L 593.718784 160.906928 
L 596.229887 157.736229 
L 597.066921 160.200705 
L 598.74099 154.015163 
L 599.578024 157.154204 
L 602.089127 157.095758 
L 602.926161 132.470483 
L 603.763195 128.626437 
L 604.600229 127.669382 
L 605.437264 127.731481 
L 607.948366 127.590236 
L 608.785401 128.350035 
L 610.459469 135.41105 
L 611.296503 136.547096 
L 613.807606 138.026512 
L 614.64464 140.195104 
L 615.481675 144.863484 
L 616.318709 150.97475 
L 617.155743 153.606041 
L 619.666846 155.349682 
L 620.50388 152.840154 
L 622.177949 157.092105 
L 623.014983 155.074498 
L 625.526086 153.856872 
L 626.36312 155.949971 
L 627.200154 156.813268 
L 628.037188 153.954282 
L 628.874223 154.938124 
L 631.385325 155.660176 
L 632.22236 152.545488 
L 633.059394 150.382984 
L 633.896428 143.755444 
L 634.733462 143.709174 
L 637.244565 140.153705 
L 638.081599 135.955329 
L 638.918634 130.826687 
L 639.755668 131.073865 
L 640.592702 127.660859 
L 643.103805 125.491049 
L 643.940839 119.569732 
L 644.777873 112.845999 
L 645.614908 111.004948 
L 646.451942 104.15093 
L 648.963045 103.376519 
L 649.800079 100.642948 
L 650.637113 99.318171 
L 651.474147 96.800119 
L 652.311182 96.540765 
L 654.822284 97.757174 
L 655.659318 102.088271 
L 656.496353 111.948609 
L 657.333387 115.793873 
L 658.170421 118.422728 
L 660.681524 123.362638 
L 661.518558 126.557689 
L 662.355592 128.457186 
L 663.192627 127.177461 
L 664.029661 129.079394 
L 666.540764 134.425991 
L 667.377798 141.393249 
L 668.214832 137.494409 
L 669.051866 140.304691 
L 669.888901 145.842455 
L 672.400003 147.291431 
L 673.237038 150.68739 
L 674.074072 151.590869 
L 674.911106 154.116226 
L 675.74814 152.594193 
L 678.259243 148.4153 
L 679.096277 143.302487 
L 679.933312 141.557628 
L 680.770346 138.948255 
L 681.60738 134.217777 
L 684.118483 129.557921 
L 684.955517 124.432931 
L 685.792551 125.330322 
L 686.629586 123.344373 
L 687.46662 122.177887 
L 689.977723 121.040624 
L 690.814757 121.21718 
L 691.651791 120.372148 
L 692.488825 120.327095 
L 693.32586 119.060764 
L 696.673997 118.833068 
L 697.511031 116.540278 
L 698.348065 115.680633 
L 699.185099 118.085445 
L 701.696202 115.538171 
L 702.533236 112.796077 
L 703.370271 112.263974 
L 704.207305 115.871801 
L 705.044339 118.016041 
L 707.555442 110.729765 
L 708.392476 102.866334 
L 709.22951 99.150138 
L 710.066545 109.124933 
L 710.903579 97.613494 
L 713.414682 99.804004 
L 714.251716 100.859686 
L 715.08875 91.18808 
L 715.08875 91.18808 
" clip-path="url(#p674e16faf9)" style="fill: none; stroke: #0d6efc; stroke-opacity: 0.5; stroke-width: 1.5; stroke-linecap: square"/>
   </g>
   <g id="line2d_72">
    <path d="M 412.919387 200.496831 
L 413.756421 210.390045 
L 418.778627 196.19861 
L 419.615661 202.633765 
L 424.637866 187.90353 
L 425.474901 178.460838 
L 430.497106 169.112512 
L 431.33414 154.39141 
L 436.356346 161.359276 
L 437.19338 171.246402 
L 442.215586 165.937551 
L 443.05262 164.217654 
L 448.074825 157.389815 
L 448.91186 143.317098 
L 453.934065 146.257666 
L 454.771099 145.353578 
L 459.793305 130.477229 
L 460.630339 121.226312 
L 465.652545 116.355807 
L 466.489579 109.369676 
L 471.511784 119.485107 
L 472.348818 142.927458 
L 477.371024 136.044825 
L 478.208058 136.629286 
L 483.230264 128.955196 
L 484.067298 110.328557 
L 489.089503 115.30256 
L 489.926538 120.915818 
L 494.948743 121.10455 
L 495.785777 116.404512 
L 500.807983 109.585805 
L 501.645017 103.881225 
L 506.667223 107.05923 
L 507.504257 117.034634 
L 512.526462 122.291736 
L 513.363497 123.545891 
L 518.385702 116.145767 
L 519.222736 104.276954 
L 524.244942 119.893012 
L 525.081976 120.757526 
L 530.104182 117.476023 
L 530.941216 117.810871 
L 535.963421 99.363832 
L 536.800455 103.302853 
L 541.822661 181.437935 
L 542.659695 181.160925 
L 547.681901 193.300659 
L 548.518935 252.136364 
L 553.54114 183.160876 
L 554.378175 189.200303 
L 559.40038 180.369468 
L 560.237414 122.997959 
L 565.25962 115.20515 
L 566.096654 109.092666 
L 571.11886 102.41703 
L 571.955894 111.530963 
L 576.978099 121.168475 
L 577.815134 126.18814 
L 582.837339 136.349232 
L 583.674373 130.778591 
L 588.696579 124.258202 
L 589.533613 114.267578 
L 594.555818 105.872044 
L 595.392853 84.724919 
L 600.415058 85.330688 
L 601.252092 89.400604 
L 606.274298 84.463129 
L 607.111332 87.966849 
L 612.133538 99.509947 
L 612.970572 119.63731 
L 617.992777 125.579327 
L 618.829812 141.725052 
L 623.852017 138.677942 
L 624.689051 124.827442 
L 629.711257 133.101213 
L 630.548291 131.274774 
L 635.570497 134.61107 
L 636.407531 136.903252 
L 641.429736 126.212492 
L 642.266771 123.853341 
L 647.288976 101.019803 
L 648.12601 90.606054 
L 653.148216 87.096246 
L 653.98525 83.047639 
L 659.007455 94.505503 
L 659.84449 118.504918 
L 664.866695 123.902046 
L 665.703729 126.389048 
L 670.725935 167.325645 
L 671.562969 152.927214 
L 676.585175 151.545208 
L 677.422209 158.102126 
L 682.444414 113.369579 
L 683.281449 109.442734 
L 688.303654 108.416883 
L 689.140688 96.484145 
L 694.162894 104.672682 
L 694.999928 93.144805 
L 700.022134 92.423362 
L 700.859168 85.814695 
L 705.881373 73.242703 
L 706.718408 99.887411 
L 711.740613 99.044205 
L 712.577647 99.376008 
" clip-path="url(#p674e16faf9)" style="fill: none; stroke: #83c966; stroke-opacity: 0.5; stroke-width: 1.5; stroke-linecap: square"/>
   </g>
   <g id="line2d_73">
    <path d="M 409.57125 120.221033 
L 715.08875 120.221033 
" clip-path="url(#p674e16faf9)" style="fill: none; stroke-dasharray: 7.4,3.2; stroke-dashoffset: 0; stroke: #0d6efc; stroke-width: 2"/>
   </g>
   <g id="line2d_74">
    <path d="M 409.57125 108.883886 
L 715.08875 108.883886 
" clip-path="url(#p674e16faf9)" style="fill: none; stroke-dasharray: 7.4,3.2; stroke-dashoffset: 0; stroke: #83c966; stroke-width: 2"/>
   </g>
   <g id="patch_6">
    <path d="M 409.57125 261.56 
L 409.57125 54.24 
" style="fill: none; stroke: #000000; stroke-width: 0.8; stroke-linejoin: miter; stroke-linecap: square"/>
   </g>
   <g id="patch_7">
    <path d="M 409.57125 261.56 
L 715.08875 261.56 
" style="fill: none; stroke: #000000; stroke-width: 0.8; stroke-linejoin: miter; stroke-linecap: square"/>
   </g>
   <g id="text_42">
    <!-- 2025 -->
    <g transform="translate(544.515 48.24) scale(0.14 -0.14)">
     <defs>
      <path id="DejaVuSans-35" d="M 691 4666 
L 3169 4666 
L 3169 4134 
L 1269 4134 
L 1269 2991 
Q 1406 3038 1543 3061 
Q 1681 3084 1819 3084 
Q 2600 3084 3056 2656 
Q 3513 2228 3513 1497 
Q 3513 744 3044 326 
Q 2575 -91 1722 -91 
Q 1428 -91 1123 -41 
Q 819 9 494 109 
L 494 744 
Q 775 591 1075 516 
Q 1375 441 1709 441 
Q 2250 441 2565 725 
Q 2881 1009 2881 1497 
Q 2881 1984 2565 2268 
Q 2250 2553 1709 2553 
Q 1456 2553 1204 2497 
Q 953 2441 691 2322 
L 691 4666 
z
" transform="scale(0.015625)"/>
     </defs>
     <use xlink:href="#DejaVuSans-32"/>
     <use xlink:href="#DejaVuSans-30" transform="translate(63.623047 0)"/>
     <use xlink:href="#DejaVuSans-32" transform="translate(127.246094 0)"/>
     <use xlink:href="#DejaVuSans-35" transform="translate(190.869141 0)"/>
    </g>
   </g>
  </g>
  <g id="text_43">
   <!-- Comparing Observed and Fitted Pedestrian Counts at Melbourne Central-Elizabeth St (East) -->
   <g transform="translate(7.2 19.3575) scale(0.16 -0.16)">
    <defs>
     <path id="DejaVuSans-43" d="M 4122 4306 
L 4122 3641 
Q 3803 3938 3442 4084 
Q 3081 4231 2675 4231 
Q 1875 4231 1450 3742 
Q 1025 3253 1025 2328 
Q 1025 1406 1450 917 
Q 1875 428 2675 428 
Q 3081 428 3442 575 
Q 3803 722 4122 1019 
L 4122 359 
Q 3791 134 3420 21 
Q 3050 -91 2638 -91 
Q 1578 -91 968 557 
Q 359 1206 359 2328 
Q 359 3453 968 4101 
Q 1578 4750 2638 4750 
Q 3056 4750 3426 4639 
Q 3797 4528 4122 4306 
z
" transform="scale(0.015625)"/>
     <path id="DejaVuSans-6d" d="M 3328 2828 
Q 3544 3216 3844 3400 
Q 4144 3584 4550 3584 
Q 5097 3584 5394 3201 
Q 5691 2819 5691 2113 
L 5691 0 
L 5113 0 
L 5113 2094 
Q 5113 2597 4934 2840 
Q 4756 3084 4391 3084 
Q 3944 3084 3684 2787 
Q 3425 2491 3425 1978 
L 3425 0 
L 2847 0 
L 2847 2094 
Q 2847 2600 2669 2842 
Q 2491 3084 2119 3084 
Q 1678 3084 1418 2786 
Q 1159 2488 1159 1978 
L 1159 0 
L 581 0 
L 581 3500 
L 1159 3500 
L 1159 2956 
Q 1356 3278 1631 3431 
Q 1906 3584 2284 3584 
Q 2666 3584 2933 3390 
Q 3200 3197 3328 2828 
z
" transform="scale(0.015625)"/>
     <path id="DejaVuSans-50" d="M 1259 4147 
L 1259 2394 
L 2053 2394 
Q 2494 2394 2734 2622 
Q 2975 2850 2975 3272 
Q 2975 3691 2734 3919 
Q 2494 4147 2053 4147 
L 1259 4147 
z
M 628 4666 
L 2053 4666 
Q 2838 4666 3239 4311 
Q 3641 3956 3641 3272 
Q 3641 2581 3239 2228 
Q 2838 1875 2053 1875 
L 1259 1875 
L 1259 0 
L 628 0 
L 628 4666 
z
" transform="scale(0.015625)"/>
     <path id="DejaVuSans-2d" d="M 313 2009 
L 1997 2009 
L 1997 1497 
L 313 1497 
L 313 2009 
z
" transform="scale(0.015625)"/>
     <path id="DejaVuSans-45" d="M 628 4666 
L 3578 4666 
L 3578 4134 
L 1259 4134 
L 1259 2753 
L 3481 2753 
L 3481 2222 
L 1259 2222 
L 1259 531 
L 3634 531 
L 3634 0 
L 628 0 
L 628 4666 
z
" transform="scale(0.015625)"/>
     <path id="DejaVuSans-7a" d="M 353 3500 
L 3084 3500 
L 3084 2975 
L 922 459 
L 3084 459 
L 3084 0 
L 275 0 
L 275 525 
L 2438 3041 
L 353 3041 
L 353 3500 
z
" transform="scale(0.015625)"/>
     <path id="DejaVuSans-68" d="M 3513 2113 
L 3513 0 
L 2938 0 
L 2938 2094 
Q 2938 2591 2744 2837 
Q 2550 3084 2163 3084 
Q 1697 3084 1428 2787 
Q 1159 2491 1159 1978 
L 1159 0 
L 581 0 
L 581 4863 
L 1159 4863 
L 1159 2956 
Q 1366 3272 1645 3428 
Q 1925 3584 2291 3584 
Q 2894 3584 3203 3211 
Q 3513 2838 3513 2113 
z
" transform="scale(0.015625)"/>
     <path id="DejaVuSans-28" d="M 1984 4856 
Q 1566 4138 1362 3434 
Q 1159 2731 1159 2009 
Q 1159 1288 1364 580 
Q 1569 -128 1984 -844 
L 1484 -844 
Q 1016 -109 783 600 
Q 550 1309 550 2009 
Q 550 2706 781 3412 
Q 1013 4119 1484 4856 
L 1984 4856 
z
" transform="scale(0.015625)"/>
     <path id="DejaVuSans-29" d="M 513 4856 
L 1013 4856 
Q 1481 4119 1714 3412 
Q 1947 2706 1947 2009 
Q 1947 1309 1714 600 
Q 1481 -109 1013 -844 
L 513 -844 
Q 928 -128 1133 580 
Q 1338 1288 1338 2009 
Q 1338 2731 1133 3434 
Q 928 4138 513 4856 
z
" transform="scale(0.015625)"/>
    </defs>
    <use xlink:href="#DejaVuSans-43"/>
    <use xlink:href="#DejaVuSans-6f" transform="translate(69.824219 0)"/>
    <use xlink:href="#DejaVuSans-6d" transform="translate(131.005859 0)"/>
    <use xlink:href="#DejaVuSans-70" transform="translate(228.417969 0)"/>
    <use xlink:href="#DejaVuSans-61" transform="translate(291.894531 0)"/>
    <use xlink:href="#DejaVuSans-72" transform="translate(353.173828 0)"/>
    <use xlink:href="#DejaVuSans-69" transform="translate(394.287109 0)"/>
    <use xlink:href="#DejaVuSans-6e" transform="translate(422.070312 0)"/>
    <use xlink:href="#DejaVuSans-67" transform="translate(485.449219 0)"/>
    <use xlink:href="#DejaVuSans-20" transform="translate(548.925781 0)"/>
    <use xlink:href="#DejaVuSans-4f" transform="translate(580.712891 0)"/>
    <use xlink:href="#DejaVuSans-62" transform="translate(659.423828 0)"/>
    <use xlink:href="#DejaVuSans-73" transform="translate(722.900391 0)"/>
    <use xlink:href="#DejaVuSans-65" transform="translate(775 0)"/>
    <use xlink:href="#DejaVuSans-72" transform="translate(836.523438 0)"/>
    <use xlink:href="#DejaVuSans-76" transform="translate(877.636719 0)"/>
    <use xlink:href="#DejaVuSans-65" transform="translate(936.816406 0)"/>
    <use xlink:href="#DejaVuSans-64" transform="translate(998.339844 0)"/>
    <use xlink:href="#DejaVuSans-20" transform="translate(1061.816406 0)"/>
    <use xlink:href="#DejaVuSans-61" transform="translate(1093.603516 0)"/>
    <use xlink:href="#DejaVuSans-6e" transform="translate(1154.882812 0)"/>
    <use xlink:href="#DejaVuSans-64" transform="translate(1218.261719 0)"/>
    <use xlink:href="#DejaVuSans-20" transform="translate(1281.738281 0)"/>
    <use xlink:href="#DejaVuSans-46" transform="translate(1313.525391 0)"/>
    <use xlink:href="#DejaVuSans-69" transform="translate(1363.794922 0)"/>
    <use xlink:href="#DejaVuSans-74" transform="translate(1391.578125 0)"/>
    <use xlink:href="#DejaVuSans-74" transform="translate(1430.787109 0)"/>
    <use xlink:href="#DejaVuSans-65" transform="translate(1469.996094 0)"/>
    <use xlink:href="#DejaVuSans-64" transform="translate(1531.519531 0)"/>
    <use xlink:href="#DejaVuSans-20" transform="translate(1594.996094 0)"/>
    <use xlink:href="#DejaVuSans-50" transform="translate(1626.783203 0)"/>
    <use xlink:href="#DejaVuSans-65" transform="translate(1683.460938 0)"/>
    <use xlink:href="#DejaVuSans-64" transform="translate(1744.984375 0)"/>
    <use xlink:href="#DejaVuSans-65" transform="translate(1808.460938 0)"/>
    <use xlink:href="#DejaVuSans-73" transform="translate(1869.984375 0)"/>
    <use xlink:href="#DejaVuSans-74" transform="translate(1922.083984 0)"/>
    <use xlink:href="#DejaVuSans-72" transform="translate(1961.292969 0)"/>
    <use xlink:href="#DejaVuSans-69" transform="translate(2002.40625 0)"/>
    <use xlink:href="#DejaVuSans-61" transform="translate(2030.189453 0)"/>
    <use xlink:href="#DejaVuSans-6e" transform="translate(2091.46875 0)"/>
    <use xlink:href="#DejaVuSans-20" transform="translate(2154.847656 0)"/>
    <use xlink:href="#DejaVuSans-43" transform="translate(2186.634766 0)"/>
    <use xlink:href="#DejaVuSans-6f" transform="translate(2256.458984 0)"/>
    <use xlink:href="#DejaVuSans-75" transform="translate(2317.640625 0)"/>
    <use xlink:href="#DejaVuSans-6e" transform="translate(2381.019531 0)"/>
    <use xlink:href="#DejaVuSans-74" transform="translate(2444.398438 0)"/>
    <use xlink:href="#DejaVuSans-73" transform="translate(2483.607422 0)"/>
    <use xlink:href="#DejaVuSans-20" transform="translate(2535.707031 0)"/>
    <use xlink:href="#DejaVuSans-61" transform="translate(2567.494141 0)"/>
    <use xlink:href="#DejaVuSans-74" transform="translate(2628.773438 0)"/>
    <use xlink:href="#DejaVuSans-20" transform="translate(2667.982422 0)"/>
    <use xlink:href="#DejaVuSans-4d" transform="translate(2699.769531 0)"/>
    <use xlink:href="#DejaVuSans-65" transform="translate(2786.048828 0)"/>
    <use xlink:href="#DejaVuSans-6c" transform="translate(2847.572266 0)"/>
    <use xlink:href="#DejaVuSans-62" transform="translate(2875.355469 0)"/>
    <use xlink:href="#DejaVuSans-6f" transform="translate(2938.832031 0)"/>
    <use xlink:href="#DejaVuSans-75" transform="translate(3000.013672 0)"/>
    <use xlink:href="#DejaVuSans-72" transform="translate(3063.392578 0)"/>
    <use xlink:href="#DejaVuSans-6e" transform="translate(3102.755859 0)"/>
    <use xlink:href="#DejaVuSans-65" transform="translate(3166.134766 0)"/>
    <use xlink:href="#DejaVuSans-20" transform="translate(3227.658203 0)"/>
    <use xlink:href="#DejaVuSans-43" transform="translate(3259.445312 0)"/>
    <use xlink:href="#DejaVuSans-65" transform="translate(3329.269531 0)"/>
    <use xlink:href="#DejaVuSans-6e" transform="translate(3390.792969 0)"/>
    <use xlink:href="#DejaVuSans-74" transform="translate(3454.171875 0)"/>
    <use xlink:href="#DejaVuSans-72" transform="translate(3493.380859 0)"/>
    <use xlink:href="#DejaVuSans-61" transform="translate(3534.494141 0)"/>
    <use xlink:href="#DejaVuSans-6c" transform="translate(3595.773438 0)"/>
    <use xlink:href="#DejaVuSans-2d" transform="translate(3623.556641 0)"/>
    <use xlink:href="#DejaVuSans-45" transform="translate(3659.640625 0)"/>
    <use xlink:href="#DejaVuSans-6c" transform="translate(3722.824219 0)"/>
    <use xlink:href="#DejaVuSans-69" transform="translate(3750.607422 0)"/>
    <use xlink:href="#DejaVuSans-7a" transform="translate(3778.390625 0)"/>
    <use xlink:href="#DejaVuSans-61" transform="translate(3830.880859 0)"/>
    <use xlink:href="#DejaVuSans-62" transform="translate(3892.160156 0)"/>
    <use xlink:href="#DejaVuSans-65" transform="translate(3955.636719 0)"/>
    <use xlink:href="#DejaVuSans-74" transform="translate(4017.160156 0)"/>
    <use xlink:href="#DejaVuSans-68" transform="translate(4056.369141 0)"/>
    <use xlink:href="#DejaVuSans-20" transform="translate(4119.748047 0)"/>
    <use xlink:href="#DejaVuSans-53" transform="translate(4151.535156 0)"/>
    <use xlink:href="#DejaVuSans-74" transform="translate(4215.011719 0)"/>
    <use xlink:href="#DejaVuSans-20" transform="translate(4254.220703 0)"/>
    <use xlink:href="#DejaVuSans-28" transform="translate(4286.007812 0)"/>
    <use xlink:href="#DejaVuSans-45" transform="translate(4325.021484 0)"/>
    <use xlink:href="#DejaVuSans-61" transform="translate(4388.205078 0)"/>
    <use xlink:href="#DejaVuSans-73" transform="translate(4449.484375 0)"/>
    <use xlink:href="#DejaVuSans-74" transform="translate(4501.583984 0)"/>
    <use xlink:href="#DejaVuSans-29" transform="translate(4540.792969 0)"/>
   </g>
  </g>
 </g>
 <defs>
  <clipPath id="p7993f5f2ea">
   <rect x="77.86375" y="54.24" width="305.5175" height="207.32"/>
  </clipPath>
  <clipPath id="p674e16faf9">
   <rect x="409.57125" y="54.24" width="305.5175" height="207.32"/>
  </clipPath>
 </defs>
</svg>
