<?xml version="1.0" encoding="utf-8" standalone="no"?>
<!DOCTYPE svg PUBLIC "-//W3C//DTD SVG 1.1//EN"
  "http://www.w3.org/Graphics/SVG/1.1/DTD/svg11.dtd">
<svg xmlns:xlink="http://www.w3.org/1999/xlink" width="712.88125pt" height="285.438125pt" viewBox="0 0 712.88125 285.438125" xmlns="http://www.w3.org/2000/svg" version="1.1">
 <metadata>
  <rdf:RDF xmlns:dc="http://purl.org/dc/elements/1.1/" xmlns:cc="http://creativecommons.org/ns#" xmlns:rdf="http://www.w3.org/1999/02/22-rdf-syntax-ns#">
   <cc:Work>
    <dc:type rdf:resource="http://purl.org/dc/dcmitype/StillImage"/>
    <dc:date>2026-01-28T19:04:10.834362</dc:date>
    <dc:format>image/svg+xml</dc:format>
    <dc:creator>
     <cc:Agent>
      <dc:title>Matplotlib v3.10.8, https://matplotlib.org/</dc:title>
     </cc:Agent>
    </dc:creator>
   </cc:Work>
  </rdf:RDF>
 </metadata>
 <defs>
  <style type="text/css">*{stroke-linejoin: round; stroke-linecap: butt}</style>
 </defs>
 <g id="figure_1">
  <g id="patch_1">
   <path d="M 0 285.438125 
L 712.88125 285.438125 
L 712.88125 0 
L 0 0 
L 0 285.438125 
z
" style="fill: none"/>
  </g>
  <g id="axes_1">
   <g id="patch_2">
    <path d="M 60.658438 261.56 
L 366.220937 261.56 
L 366.220937 54.24 
L 60.658438 54.24 
L 60.658438 261.56 
z
" style="fill: none"/>
   </g>
   <g id="matplotlib.axis_1">
    <g id="xtick_1">
     <g id="line2d_1">
      <defs>
       <path id="m540c89187e" d="M 0 0 
L 0 3.5 
" style="stroke: #000000; stroke-width: 0.8"/>
      </defs>
      <g>
       <use xlink:href="#m540c89187e" x="60.658438" y="261.56" style="stroke: #000000; stroke-width: 0.8"/>
      </g>
     </g>
     <g id="text_1">
      <!-- Jan -->
      <g transform="translate(52.950625 276.158437) scale(0.1 -0.1)">
       <defs>
        <path id="DejaVuSans-4a" d="M 628 4666 
L 1259 4666 
L 1259 325 
Q 1259 -519 939 -900 
Q 619 -1281 -91 -1281 
L -331 -1281 
L -331 -750 
L -134 -750 
Q 284 -750 456 -515 
Q 628 -281 628 325 
L 628 4666 
z
" transform="scale(0.015625)"/>
        <path id="DejaVuSans-61" d="M 2194 1759 
Q 1497 1759 1228 1600 
Q 959 1441 959 1056 
Q 959 750 1161 570 
Q 1363 391 1709 391 
Q 2188 391 2477 730 
Q 2766 1069 2766 1631 
L 2766 1759 
L 2194 1759 
z
M 3341 1997 
L 3341 0 
L 2766 0 
L 2766 531 
Q 2569 213 2275 61 
Q 1981 -91 1556 -91 
Q 1019 -91 701 211 
Q 384 513 384 1019 
Q 384 1609 779 1909 
Q 1175 2209 1959 2209 
L 2766 2209 
L 2766 2266 
Q 2766 2663 2505 2880 
Q 2244 3097 1772 3097 
Q 1472 3097 1187 3025 
Q 903 2953 641 2809 
L 641 3341 
Q 956 3463 1253 3523 
Q 1550 3584 1831 3584 
Q 2591 3584 2966 3190 
Q 3341 2797 3341 1997 
z
" transform="scale(0.015625)"/>
        <path id="DejaVuSans-6e" d="M 3513 2113 
L 3513 0 
L 2938 0 
L 2938 2094 
Q 2938 2591 2744 2837 
Q 2550 3084 2163 3084 
Q 1697 3084 1428 2787 
Q 1159 2491 1159 1978 
L 1159 0 
L 581 0 
L 581 3500 
L 1159 3500 
L 1159 2956 
Q 1366 3272 1645 3428 
Q 1925 3584 2291 3584 
Q 2894 3584 3203 3211 
Q 3513 2838 3513 2113 
z
" transform="scale(0.015625)"/>
       </defs>
       <use xlink:href="#DejaVuSans-4a"/>
       <use xlink:href="#DejaVuSans-61" transform="translate(29.492188 0)"/>
       <use xlink:href="#DejaVuSans-6e" transform="translate(90.771484 0)"/>
      </g>
     </g>
    </g>
    <g id="xtick_2">
     <g id="line2d_2">
      <g>
       <use xlink:href="#m540c89187e" x="86.610321" y="261.56" style="stroke: #000000; stroke-width: 0.8"/>
      </g>
     </g>
     <g id="text_2">
      <!-- Feb -->
      <g transform="translate(77.758759 276.158437) scale(0.1 -0.1)">
       <defs>
        <path id="DejaVuSans-46" d="M 628 4666 
L 3309 4666 
L 3309 4134 
L 1259 4134 
L 1259 2759 
L 3109 2759 
L 3109 2228 
L 1259 2228 
L 1259 0 
L 628 0 
L 628 4666 
z
" transform="scale(0.015625)"/>
        <path id="DejaVuSans-65" d="M 3597 1894 
L 3597 1613 
L 953 1613 
Q 991 1019 1311 708 
Q 1631 397 2203 397 
Q 2534 397 2845 478 
Q 3156 559 3463 722 
L 3463 178 
Q 3153 47 2828 -22 
Q 2503 -91 2169 -91 
Q 1331 -91 842 396 
Q 353 884 353 1716 
Q 353 2575 817 3079 
Q 1281 3584 2069 3584 
Q 2775 3584 3186 3129 
Q 3597 2675 3597 1894 
z
M 3022 2063 
Q 3016 2534 2758 2815 
Q 2500 3097 2075 3097 
Q 1594 3097 1305 2825 
Q 1016 2553 972 2059 
L 3022 2063 
z
" transform="scale(0.015625)"/>
        <path id="DejaVuSans-62" d="M 3116 1747 
Q 3116 2381 2855 2742 
Q 2594 3103 2138 3103 
Q 1681 3103 1420 2742 
Q 1159 2381 1159 1747 
Q 1159 1113 1420 752 
Q 1681 391 2138 391 
Q 2594 391 2855 752 
Q 3116 1113 3116 1747 
z
M 1159 2969 
Q 1341 3281 1617 3432 
Q 1894 3584 2278 3584 
Q 2916 3584 3314 3078 
Q 3713 2572 3713 1747 
Q 3713 922 3314 415 
Q 2916 -91 2278 -91 
Q 1894 -91 1617 61 
Q 1341 213 1159 525 
L 1159 0 
L 581 0 
L 581 4863 
L 1159 4863 
L 1159 2969 
z
" transform="scale(0.015625)"/>
       </defs>
       <use xlink:href="#DejaVuSans-46"/>
       <use xlink:href="#DejaVuSans-65" transform="translate(52.019531 0)"/>
       <use xlink:href="#DejaVuSans-62" transform="translate(113.542969 0)"/>
      </g>
     </g>
    </g>
    <g id="xtick_3">
     <g id="line2d_3">
      <g>
       <use xlink:href="#m540c89187e" x="110.050732" y="261.56" style="stroke: #000000; stroke-width: 0.8"/>
      </g>
     </g>
     <g id="text_3">
      <!-- Mar -->
      <g transform="translate(100.617138 276.158437) scale(0.1 -0.1)">
       <defs>
        <path id="DejaVuSans-4d" d="M 628 4666 
L 1569 4666 
L 2759 1491 
L 3956 4666 
L 4897 4666 
L 4897 0 
L 4281 0 
L 4281 4097 
L 3078 897 
L 2444 897 
L 1241 4097 
L 1241 0 
L 628 0 
L 628 4666 
z
" transform="scale(0.015625)"/>
        <path id="DejaVuSans-72" d="M 2631 2963 
Q 2534 3019 2420 3045 
Q 2306 3072 2169 3072 
Q 1681 3072 1420 2755 
Q 1159 2438 1159 1844 
L 1159 0 
L 581 0 
L 581 3500 
L 1159 3500 
L 1159 2956 
Q 1341 3275 1631 3429 
Q 1922 3584 2338 3584 
Q 2397 3584 2469 3576 
Q 2541 3569 2628 3553 
L 2631 2963 
z
" transform="scale(0.015625)"/>
       </defs>
       <use xlink:href="#DejaVuSans-4d"/>
       <use xlink:href="#DejaVuSans-61" transform="translate(86.279297 0)"/>
       <use xlink:href="#DejaVuSans-72" transform="translate(147.558594 0)"/>
      </g>
     </g>
    </g>
    <g id="xtick_4">
     <g id="line2d_4">
      <g>
       <use xlink:href="#m540c89187e" x="136.002616" y="261.56" style="stroke: #000000; stroke-width: 0.8"/>
      </g>
     </g>
     <g id="text_4">
      <!-- Apr -->
      <g transform="translate(127.352616 276.158437) scale(0.1 -0.1)">
       <defs>
        <path id="DejaVuSans-41" d="M 2188 4044 
L 1331 1722 
L 3047 1722 
L 2188 4044 
z
M 1831 4666 
L 2547 4666 
L 4325 0 
L 3669 0 
L 3244 1197 
L 1141 1197 
L 716 0 
L 50 0 
L 1831 4666 
z
" transform="scale(0.015625)"/>
        <path id="DejaVuSans-70" d="M 1159 525 
L 1159 -1331 
L 581 -1331 
L 581 3500 
L 1159 3500 
L 1159 2969 
Q 1341 3281 1617 3432 
Q 1894 3584 2278 3584 
Q 2916 3584 3314 3078 
Q 3713 2572 3713 1747 
Q 3713 922 3314 415 
Q 2916 -91 2278 -91 
Q 1894 -91 1617 61 
Q 1341 213 1159 525 
z
M 3116 1747 
Q 3116 2381 2855 2742 
Q 2594 3103 2138 3103 
Q 1681 3103 1420 2742 
Q 1159 2381 1159 1747 
Q 1159 1113 1420 752 
Q 1681 391 2138 391 
Q 2594 391 2855 752 
Q 3116 1113 3116 1747 
z
" transform="scale(0.015625)"/>
       </defs>
       <use xlink:href="#DejaVuSans-41"/>
       <use xlink:href="#DejaVuSans-70" transform="translate(68.408203 0)"/>
       <use xlink:href="#DejaVuSans-72" transform="translate(131.884766 0)"/>
      </g>
     </g>
    </g>
    <g id="xtick_5">
     <g id="line2d_5">
      <g>
       <use xlink:href="#m540c89187e" x="161.117342" y="261.56" style="stroke: #000000; stroke-width: 0.8"/>
      </g>
     </g>
     <g id="text_5">
      <!-- May -->
      <g transform="translate(150.779842 276.158437) scale(0.1 -0.1)">
       <defs>
        <path id="DejaVuSans-79" d="M 2059 -325 
Q 1816 -950 1584 -1140 
Q 1353 -1331 966 -1331 
L 506 -1331 
L 506 -850 
L 844 -850 
Q 1081 -850 1212 -737 
Q 1344 -625 1503 -206 
L 1606 56 
L 191 3500 
L 800 3500 
L 1894 763 
L 2988 3500 
L 3597 3500 
L 2059 -325 
z
" transform="scale(0.015625)"/>
       </defs>
       <use xlink:href="#DejaVuSans-4d"/>
       <use xlink:href="#DejaVuSans-61" transform="translate(86.279297 0)"/>
       <use xlink:href="#DejaVuSans-79" transform="translate(147.558594 0)"/>
      </g>
     </g>
    </g>
    <g id="xtick_6">
     <g id="line2d_6">
      <g>
       <use xlink:href="#m540c89187e" x="187.069225" y="261.56" style="stroke: #000000; stroke-width: 0.8"/>
      </g>
     </g>
     <g id="text_6">
      <!-- Jun -->
      <g transform="translate(179.256725 276.158437) scale(0.1 -0.1)">
       <defs>
        <path id="DejaVuSans-75" d="M 544 1381 
L 544 3500 
L 1119 3500 
L 1119 1403 
Q 1119 906 1312 657 
Q 1506 409 1894 409 
Q 2359 409 2629 706 
Q 2900 1003 2900 1516 
L 2900 3500 
L 3475 3500 
L 3475 0 
L 2900 0 
L 2900 538 
Q 2691 219 2414 64 
Q 2138 -91 1772 -91 
Q 1169 -91 856 284 
Q 544 659 544 1381 
z
M 1991 3584 
L 1991 3584 
z
" transform="scale(0.015625)"/>
       </defs>
       <use xlink:href="#DejaVuSans-4a"/>
       <use xlink:href="#DejaVuSans-75" transform="translate(29.492188 0)"/>
       <use xlink:href="#DejaVuSans-6e" transform="translate(92.871094 0)"/>
      </g>
     </g>
    </g>
    <g id="xtick_7">
     <g id="line2d_7">
      <g>
       <use xlink:href="#m540c89187e" x="212.183951" y="261.56" style="stroke: #000000; stroke-width: 0.8"/>
      </g>
     </g>
     <g id="text_7">
      <!-- Jul -->
      <g transform="translate(206.151139 276.158437) scale(0.1 -0.1)">
       <defs>
        <path id="DejaVuSans-6c" d="M 603 4863 
L 1178 4863 
L 1178 0 
L 603 0 
L 603 4863 
z
" transform="scale(0.015625)"/>
       </defs>
       <use xlink:href="#DejaVuSans-4a"/>
       <use xlink:href="#DejaVuSans-75" transform="translate(29.492188 0)"/>
       <use xlink:href="#DejaVuSans-6c" transform="translate(92.871094 0)"/>
      </g>
     </g>
    </g>
    <g id="xtick_8">
     <g id="line2d_8">
      <g>
       <use xlink:href="#m540c89187e" x="238.135835" y="261.56" style="stroke: #000000; stroke-width: 0.8"/>
      </g>
     </g>
     <g id="text_8">
      <!-- Aug -->
      <g transform="translate(228.372554 276.158437) scale(0.1 -0.1)">
       <defs>
        <path id="DejaVuSans-67" d="M 2906 1791 
Q 2906 2416 2648 2759 
Q 2391 3103 1925 3103 
Q 1463 3103 1205 2759 
Q 947 2416 947 1791 
Q 947 1169 1205 825 
Q 1463 481 1925 481 
Q 2391 481 2648 825 
Q 2906 1169 2906 1791 
z
M 3481 434 
Q 3481 -459 3084 -895 
Q 2688 -1331 1869 -1331 
Q 1566 -1331 1297 -1286 
Q 1028 -1241 775 -1147 
L 775 -588 
Q 1028 -725 1275 -790 
Q 1522 -856 1778 -856 
Q 2344 -856 2625 -561 
Q 2906 -266 2906 331 
L 2906 616 
Q 2728 306 2450 153 
Q 2172 0 1784 0 
Q 1141 0 747 490 
Q 353 981 353 1791 
Q 353 2603 747 3093 
Q 1141 3584 1784 3584 
Q 2172 3584 2450 3431 
Q 2728 3278 2906 2969 
L 2906 3500 
L 3481 3500 
L 3481 434 
z
" transform="scale(0.015625)"/>
       </defs>
       <use xlink:href="#DejaVuSans-41"/>
       <use xlink:href="#DejaVuSans-75" transform="translate(68.408203 0)"/>
       <use xlink:href="#DejaVuSans-67" transform="translate(131.787109 0)"/>
      </g>
     </g>
    </g>
    <g id="xtick_9">
     <g id="line2d_9">
      <g>
       <use xlink:href="#m540c89187e" x="264.087718" y="261.56" style="stroke: #000000; stroke-width: 0.8"/>
      </g>
     </g>
     <g id="text_9">
      <!-- Sep -->
      <g transform="translate(254.662718 276.158437) scale(0.1 -0.1)">
       <defs>
        <path id="DejaVuSans-53" d="M 3425 4513 
L 3425 3897 
Q 3066 4069 2747 4153 
Q 2428 4238 2131 4238 
Q 1616 4238 1336 4038 
Q 1056 3838 1056 3469 
Q 1056 3159 1242 3001 
Q 1428 2844 1947 2747 
L 2328 2669 
Q 3034 2534 3370 2195 
Q 3706 1856 3706 1288 
Q 3706 609 3251 259 
Q 2797 -91 1919 -91 
Q 1588 -91 1214 -16 
Q 841 59 441 206 
L 441 856 
Q 825 641 1194 531 
Q 1563 422 1919 422 
Q 2459 422 2753 634 
Q 3047 847 3047 1241 
Q 3047 1584 2836 1778 
Q 2625 1972 2144 2069 
L 1759 2144 
Q 1053 2284 737 2584 
Q 422 2884 422 3419 
Q 422 4038 858 4394 
Q 1294 4750 2059 4750 
Q 2388 4750 2728 4690 
Q 3069 4631 3425 4513 
z
" transform="scale(0.015625)"/>
       </defs>
       <use xlink:href="#DejaVuSans-53"/>
       <use xlink:href="#DejaVuSans-65" transform="translate(63.476562 0)"/>
       <use xlink:href="#DejaVuSans-70" transform="translate(125 0)"/>
      </g>
     </g>
    </g>
    <g id="xtick_10">
     <g id="line2d_10">
      <g>
       <use xlink:href="#m540c89187e" x="289.202444" y="261.56" style="stroke: #000000; stroke-width: 0.8"/>
      </g>
     </g>
     <g id="text_10">
      <!-- Oct -->
      <g transform="translate(280.557132 276.158437) scale(0.1 -0.1)">
       <defs>
        <path id="DejaVuSans-4f" d="M 2522 4238 
Q 1834 4238 1429 3725 
Q 1025 3213 1025 2328 
Q 1025 1447 1429 934 
Q 1834 422 2522 422 
Q 3209 422 3611 934 
Q 4013 1447 4013 2328 
Q 4013 3213 3611 3725 
Q 3209 4238 2522 4238 
z
M 2522 4750 
Q 3503 4750 4090 4092 
Q 4678 3434 4678 2328 
Q 4678 1225 4090 567 
Q 3503 -91 2522 -91 
Q 1538 -91 948 565 
Q 359 1222 359 2328 
Q 359 3434 948 4092 
Q 1538 4750 2522 4750 
z
" transform="scale(0.015625)"/>
        <path id="DejaVuSans-63" d="M 3122 3366 
L 3122 2828 
Q 2878 2963 2633 3030 
Q 2388 3097 2138 3097 
Q 1578 3097 1268 2742 
Q 959 2388 959 1747 
Q 959 1106 1268 751 
Q 1578 397 2138 397 
Q 2388 397 2633 464 
Q 2878 531 3122 666 
L 3122 134 
Q 2881 22 2623 -34 
Q 2366 -91 2075 -91 
Q 1284 -91 818 406 
Q 353 903 353 1747 
Q 353 2603 823 3093 
Q 1294 3584 2113 3584 
Q 2378 3584 2631 3529 
Q 2884 3475 3122 3366 
z
" transform="scale(0.015625)"/>
        <path id="DejaVuSans-74" d="M 1172 4494 
L 1172 3500 
L 2356 3500 
L 2356 3053 
L 1172 3053 
L 1172 1153 
Q 1172 725 1289 603 
Q 1406 481 1766 481 
L 2356 481 
L 2356 0 
L 1766 0 
Q 1100 0 847 248 
Q 594 497 594 1153 
L 594 3053 
L 172 3053 
L 172 3500 
L 594 3500 
L 594 4494 
L 1172 4494 
z
" transform="scale(0.015625)"/>
       </defs>
       <use xlink:href="#DejaVuSans-4f"/>
       <use xlink:href="#DejaVuSans-63" transform="translate(78.710938 0)"/>
       <use xlink:href="#DejaVuSans-74" transform="translate(133.691406 0)"/>
      </g>
     </g>
    </g>
    <g id="xtick_11">
     <g id="line2d_11">
      <g>
       <use xlink:href="#m540c89187e" x="315.154328" y="261.56" style="stroke: #000000; stroke-width: 0.8"/>
      </g>
     </g>
     <g id="text_11">
      <!-- Nov -->
      <g transform="translate(305.394953 276.158437) scale(0.1 -0.1)">
       <defs>
        <path id="DejaVuSans-4e" d="M 628 4666 
L 1478 4666 
L 3547 763 
L 3547 4666 
L 4159 4666 
L 4159 0 
L 3309 0 
L 1241 3903 
L 1241 0 
L 628 0 
L 628 4666 
z
" transform="scale(0.015625)"/>
        <path id="DejaVuSans-6f" d="M 1959 3097 
Q 1497 3097 1228 2736 
Q 959 2375 959 1747 
Q 959 1119 1226 758 
Q 1494 397 1959 397 
Q 2419 397 2687 759 
Q 2956 1122 2956 1747 
Q 2956 2369 2687 2733 
Q 2419 3097 1959 3097 
z
M 1959 3584 
Q 2709 3584 3137 3096 
Q 3566 2609 3566 1747 
Q 3566 888 3137 398 
Q 2709 -91 1959 -91 
Q 1206 -91 779 398 
Q 353 888 353 1747 
Q 353 2609 779 3096 
Q 1206 3584 1959 3584 
z
" transform="scale(0.015625)"/>
        <path id="DejaVuSans-76" d="M 191 3500 
L 800 3500 
L 1894 563 
L 2988 3500 
L 3597 3500 
L 2284 0 
L 1503 0 
L 191 3500 
z
" transform="scale(0.015625)"/>
       </defs>
       <use xlink:href="#DejaVuSans-4e"/>
       <use xlink:href="#DejaVuSans-6f" transform="translate(74.804688 0)"/>
       <use xlink:href="#DejaVuSans-76" transform="translate(135.986328 0)"/>
      </g>
     </g>
    </g>
    <g id="xtick_12">
     <g id="line2d_12">
      <g>
       <use xlink:href="#m540c89187e" x="340.269054" y="261.56" style="stroke: #000000; stroke-width: 0.8"/>
      </g>
     </g>
     <g id="text_12">
      <!-- Dec -->
      <g transform="translate(330.593273 276.158437) scale(0.1 -0.1)">
       <defs>
        <path id="DejaVuSans-44" d="M 1259 4147 
L 1259 519 
L 2022 519 
Q 2988 519 3436 956 
Q 3884 1394 3884 2338 
Q 3884 3275 3436 3711 
Q 2988 4147 2022 4147 
L 1259 4147 
z
M 628 4666 
L 1925 4666 
Q 3281 4666 3915 4102 
Q 4550 3538 4550 2338 
Q 4550 1131 3912 565 
Q 3275 0 1925 0 
L 628 0 
L 628 4666 
z
" transform="scale(0.015625)"/>
       </defs>
       <use xlink:href="#DejaVuSans-44"/>
       <use xlink:href="#DejaVuSans-65" transform="translate(77.001953 0)"/>
       <use xlink:href="#DejaVuSans-63" transform="translate(138.525391 0)"/>
      </g>
     </g>
    </g>
    <g id="xtick_13">
     <g id="line2d_13">
      <g>
       <use xlink:href="#m540c89187e" x="366.220937" y="261.56" style="stroke: #000000; stroke-width: 0.8"/>
      </g>
     </g>
     <g id="text_13">
      <!-- Jan -->
      <g transform="translate(358.513125 276.158437) scale(0.1 -0.1)">
       <use xlink:href="#DejaVuSans-4a"/>
       <use xlink:href="#DejaVuSans-61" transform="translate(29.492188 0)"/>
       <use xlink:href="#DejaVuSans-6e" transform="translate(90.771484 0)"/>
      </g>
     </g>
    </g>
   </g>
   <g id="matplotlib.axis_2">
    <g id="ytick_1">
     <g id="line2d_14">
      <path d="M 60.658438 233.548789 
L 366.220937 233.548789 
" clip-path="url(#p813b21b7be)" style="fill: none; stroke-dasharray: 2.96,1.28; stroke-dashoffset: 0; stroke: #b0b0b0; stroke-opacity: 0.3; stroke-width: 0.8"/>
     </g>
     <g id="line2d_15">
      <defs>
       <path id="mffcf1b3902" d="M 0 0 
L -3.5 0 
" style="stroke: #000000; stroke-width: 0.8"/>
      </defs>
      <g>
       <use xlink:href="#mffcf1b3902" x="60.658438" y="233.548789" style="stroke: #000000; stroke-width: 0.8"/>
      </g>
     </g>
     <g id="text_14">
      <!-- 4000 -->
      <g transform="translate(28.208438 237.348007) scale(0.1 -0.1)">
       <defs>
        <path id="DejaVuSans-34" d="M 2419 4116 
L 825 1625 
L 2419 1625 
L 2419 4116 
z
M 2253 4666 
L 3047 4666 
L 3047 1625 
L 3713 1625 
L 3713 1100 
L 3047 1100 
L 3047 0 
L 2419 0 
L 2419 1100 
L 313 1100 
L 313 1709 
L 2253 4666 
z
" transform="scale(0.015625)"/>
        <path id="DejaVuSans-30" d="M 2034 4250 
Q 1547 4250 1301 3770 
Q 1056 3291 1056 2328 
Q 1056 1369 1301 889 
Q 1547 409 2034 409 
Q 2525 409 2770 889 
Q 3016 1369 3016 2328 
Q 3016 3291 2770 3770 
Q 2525 4250 2034 4250 
z
M 2034 4750 
Q 2819 4750 3233 4129 
Q 3647 3509 3647 2328 
Q 3647 1150 3233 529 
Q 2819 -91 2034 -91 
Q 1250 -91 836 529 
Q 422 1150 422 2328 
Q 422 3509 836 4129 
Q 1250 4750 2034 4750 
z
" transform="scale(0.015625)"/>
       </defs>
       <use xlink:href="#DejaVuSans-34"/>
       <use xlink:href="#DejaVuSans-30" transform="translate(63.623047 0)"/>
       <use xlink:href="#DejaVuSans-30" transform="translate(127.246094 0)"/>
       <use xlink:href="#DejaVuSans-30" transform="translate(190.869141 0)"/>
      </g>
     </g>
    </g>
    <g id="ytick_2">
     <g id="line2d_16">
      <path d="M 60.658438 190.032726 
L 366.220937 190.032726 
" clip-path="url(#p813b21b7be)" style="fill: none; stroke-dasharray: 2.96,1.28; stroke-dashoffset: 0; stroke: #b0b0b0; stroke-opacity: 0.3; stroke-width: 0.8"/>
     </g>
     <g id="line2d_17">
      <g>
       <use xlink:href="#mffcf1b3902" x="60.658438" y="190.032726" style="stroke: #000000; stroke-width: 0.8"/>
      </g>
     </g>
     <g id="text_15">
      <!-- 6000 -->
      <g transform="translate(28.208438 193.831945) scale(0.1 -0.1)">
       <defs>
        <path id="DejaVuSans-36" d="M 2113 2584 
Q 1688 2584 1439 2293 
Q 1191 2003 1191 1497 
Q 1191 994 1439 701 
Q 1688 409 2113 409 
Q 2538 409 2786 701 
Q 3034 994 3034 1497 
Q 3034 2003 2786 2293 
Q 2538 2584 2113 2584 
z
M 3366 4563 
L 3366 3988 
Q 3128 4100 2886 4159 
Q 2644 4219 2406 4219 
Q 1781 4219 1451 3797 
Q 1122 3375 1075 2522 
Q 1259 2794 1537 2939 
Q 1816 3084 2150 3084 
Q 2853 3084 3261 2657 
Q 3669 2231 3669 1497 
Q 3669 778 3244 343 
Q 2819 -91 2113 -91 
Q 1303 -91 875 529 
Q 447 1150 447 2328 
Q 447 3434 972 4092 
Q 1497 4750 2381 4750 
Q 2619 4750 2861 4703 
Q 3103 4656 3366 4563 
z
" transform="scale(0.015625)"/>
       </defs>
       <use xlink:href="#DejaVuSans-36"/>
       <use xlink:href="#DejaVuSans-30" transform="translate(63.623047 0)"/>
       <use xlink:href="#DejaVuSans-30" transform="translate(127.246094 0)"/>
       <use xlink:href="#DejaVuSans-30" transform="translate(190.869141 0)"/>
      </g>
     </g>
    </g>
    <g id="ytick_3">
     <g id="line2d_18">
      <path d="M 60.658438 146.516664 
L 366.220937 146.516664 
" clip-path="url(#p813b21b7be)" style="fill: none; stroke-dasharray: 2.96,1.28; stroke-dashoffset: 0; stroke: #b0b0b0; stroke-opacity: 0.3; stroke-width: 0.8"/>
     </g>
     <g id="line2d_19">
      <g>
       <use xlink:href="#mffcf1b3902" x="60.658438" y="146.516664" style="stroke: #000000; stroke-width: 0.8"/>
      </g>
     </g>
     <g id="text_16">
      <!-- 8000 -->
      <g transform="translate(28.208438 150.315883) scale(0.1 -0.1)">
       <defs>
        <path id="DejaVuSans-38" d="M 2034 2216 
Q 1584 2216 1326 1975 
Q 1069 1734 1069 1313 
Q 1069 891 1326 650 
Q 1584 409 2034 409 
Q 2484 409 2743 651 
Q 3003 894 3003 1313 
Q 3003 1734 2745 1975 
Q 2488 2216 2034 2216 
z
M 1403 2484 
Q 997 2584 770 2862 
Q 544 3141 544 3541 
Q 544 4100 942 4425 
Q 1341 4750 2034 4750 
Q 2731 4750 3128 4425 
Q 3525 4100 3525 3541 
Q 3525 3141 3298 2862 
Q 3072 2584 2669 2484 
Q 3125 2378 3379 2068 
Q 3634 1759 3634 1313 
Q 3634 634 3220 271 
Q 2806 -91 2034 -91 
Q 1263 -91 848 271 
Q 434 634 434 1313 
Q 434 1759 690 2068 
Q 947 2378 1403 2484 
z
M 1172 3481 
Q 1172 3119 1398 2916 
Q 1625 2713 2034 2713 
Q 2441 2713 2670 2916 
Q 2900 3119 2900 3481 
Q 2900 3844 2670 4047 
Q 2441 4250 2034 4250 
Q 1625 4250 1398 4047 
Q 1172 3844 1172 3481 
z
" transform="scale(0.015625)"/>
       </defs>
       <use xlink:href="#DejaVuSans-38"/>
       <use xlink:href="#DejaVuSans-30" transform="translate(63.623047 0)"/>
       <use xlink:href="#DejaVuSans-30" transform="translate(127.246094 0)"/>
       <use xlink:href="#DejaVuSans-30" transform="translate(190.869141 0)"/>
      </g>
     </g>
    </g>
    <g id="ytick_4">
     <g id="line2d_20">
      <path d="M 60.658438 103.000602 
L 366.220937 103.000602 
" clip-path="url(#p813b21b7be)" style="fill: none; stroke-dasharray: 2.96,1.28; stroke-dashoffset: 0; stroke: #b0b0b0; stroke-opacity: 0.3; stroke-width: 0.8"/>
     </g>
     <g id="line2d_21">
      <g>
       <use xlink:href="#mffcf1b3902" x="60.658438" y="103.000602" style="stroke: #000000; stroke-width: 0.8"/>
      </g>
     </g>
     <g id="text_17">
      <!-- 10000 -->
      <g transform="translate(21.845938 106.799821) scale(0.1 -0.1)">
       <defs>
        <path id="DejaVuSans-31" d="M 794 531 
L 1825 531 
L 1825 4091 
L 703 3866 
L 703 4441 
L 1819 4666 
L 2450 4666 
L 2450 531 
L 3481 531 
L 3481 0 
L 794 0 
L 794 531 
z
" transform="scale(0.015625)"/>
       </defs>
       <use xlink:href="#DejaVuSans-31"/>
       <use xlink:href="#DejaVuSans-30" transform="translate(63.623047 0)"/>
       <use xlink:href="#DejaVuSans-30" transform="translate(127.246094 0)"/>
       <use xlink:href="#DejaVuSans-30" transform="translate(190.869141 0)"/>
       <use xlink:href="#DejaVuSans-30" transform="translate(254.492188 0)"/>
      </g>
     </g>
    </g>
    <g id="ytick_5">
     <g id="line2d_22">
      <path d="M 60.658438 59.48454 
L 366.220937 59.48454 
" clip-path="url(#p813b21b7be)" style="fill: none; stroke-dasharray: 2.96,1.28; stroke-dashoffset: 0; stroke: #b0b0b0; stroke-opacity: 0.3; stroke-width: 0.8"/>
     </g>
     <g id="line2d_23">
      <g>
       <use xlink:href="#mffcf1b3902" x="60.658438" y="59.48454" style="stroke: #000000; stroke-width: 0.8"/>
      </g>
     </g>
     <g id="text_18">
      <!-- 12000 -->
      <g transform="translate(21.845938 63.283759) scale(0.1 -0.1)">
       <defs>
        <path id="DejaVuSans-32" d="M 1228 531 
L 3431 531 
L 3431 0 
L 469 0 
L 469 531 
Q 828 903 1448 1529 
Q 2069 2156 2228 2338 
Q 2531 2678 2651 2914 
Q 2772 3150 2772 3378 
Q 2772 3750 2511 3984 
Q 2250 4219 1831 4219 
Q 1534 4219 1204 4116 
Q 875 4013 500 3803 
L 500 4441 
Q 881 4594 1212 4672 
Q 1544 4750 1819 4750 
Q 2544 4750 2975 4387 
Q 3406 4025 3406 3419 
Q 3406 3131 3298 2873 
Q 3191 2616 2906 2266 
Q 2828 2175 2409 1742 
Q 1991 1309 1228 531 
z
" transform="scale(0.015625)"/>
       </defs>
       <use xlink:href="#DejaVuSans-31"/>
       <use xlink:href="#DejaVuSans-32" transform="translate(63.623047 0)"/>
       <use xlink:href="#DejaVuSans-30" transform="translate(127.246094 0)"/>
       <use xlink:href="#DejaVuSans-30" transform="translate(190.869141 0)"/>
       <use xlink:href="#DejaVuSans-30" transform="translate(254.492188 0)"/>
      </g>
     </g>
    </g>
    <g id="text_19">
     <!-- Daily pedestrian count -->
     <g transform="translate(15.558281 220.247656) rotate(-90) scale(0.11 -0.11)">
      <defs>
       <path id="DejaVuSans-69" d="M 603 3500 
L 1178 3500 
L 1178 0 
L 603 0 
L 603 3500 
z
M 603 4863 
L 1178 4863 
L 1178 4134 
L 603 4134 
L 603 4863 
z
" transform="scale(0.015625)"/>
       <path id="DejaVuSans-20" transform="scale(0.015625)"/>
       <path id="DejaVuSans-64" d="M 2906 2969 
L 2906 4863 
L 3481 4863 
L 3481 0 
L 2906 0 
L 2906 525 
Q 2725 213 2448 61 
Q 2172 -91 1784 -91 
Q 1150 -91 751 415 
Q 353 922 353 1747 
Q 353 2572 751 3078 
Q 1150 3584 1784 3584 
Q 2172 3584 2448 3432 
Q 2725 3281 2906 2969 
z
M 947 1747 
Q 947 1113 1208 752 
Q 1469 391 1925 391 
Q 2381 391 2643 752 
Q 2906 1113 2906 1747 
Q 2906 2381 2643 2742 
Q 2381 3103 1925 3103 
Q 1469 3103 1208 2742 
Q 947 2381 947 1747 
z
" transform="scale(0.015625)"/>
       <path id="DejaVuSans-73" d="M 2834 3397 
L 2834 2853 
Q 2591 2978 2328 3040 
Q 2066 3103 1784 3103 
Q 1356 3103 1142 2972 
Q 928 2841 928 2578 
Q 928 2378 1081 2264 
Q 1234 2150 1697 2047 
L 1894 2003 
Q 2506 1872 2764 1633 
Q 3022 1394 3022 966 
Q 3022 478 2636 193 
Q 2250 -91 1575 -91 
Q 1294 -91 989 -36 
Q 684 19 347 128 
L 347 722 
Q 666 556 975 473 
Q 1284 391 1588 391 
Q 1994 391 2212 530 
Q 2431 669 2431 922 
Q 2431 1156 2273 1281 
Q 2116 1406 1581 1522 
L 1381 1569 
Q 847 1681 609 1914 
Q 372 2147 372 2553 
Q 372 3047 722 3315 
Q 1072 3584 1716 3584 
Q 2034 3584 2315 3537 
Q 2597 3491 2834 3397 
z
" transform="scale(0.015625)"/>
      </defs>
      <use xlink:href="#DejaVuSans-44"/>
      <use xlink:href="#DejaVuSans-61" transform="translate(77.001953 0)"/>
      <use xlink:href="#DejaVuSans-69" transform="translate(138.28125 0)"/>
      <use xlink:href="#DejaVuSans-6c" transform="translate(166.064453 0)"/>
      <use xlink:href="#DejaVuSans-79" transform="translate(193.847656 0)"/>
      <use xlink:href="#DejaVuSans-20" transform="translate(253.027344 0)"/>
      <use xlink:href="#DejaVuSans-70" transform="translate(284.814453 0)"/>
      <use xlink:href="#DejaVuSans-65" transform="translate(348.291016 0)"/>
      <use xlink:href="#DejaVuSans-64" transform="translate(409.814453 0)"/>
      <use xlink:href="#DejaVuSans-65" transform="translate(473.291016 0)"/>
      <use xlink:href="#DejaVuSans-73" transform="translate(534.814453 0)"/>
      <use xlink:href="#DejaVuSans-74" transform="translate(586.914062 0)"/>
      <use xlink:href="#DejaVuSans-72" transform="translate(626.123047 0)"/>
      <use xlink:href="#DejaVuSans-69" transform="translate(667.236328 0)"/>
      <use xlink:href="#DejaVuSans-61" transform="translate(695.019531 0)"/>
      <use xlink:href="#DejaVuSans-6e" transform="translate(756.298828 0)"/>
      <use xlink:href="#DejaVuSans-20" transform="translate(819.677734 0)"/>
      <use xlink:href="#DejaVuSans-63" transform="translate(851.464844 0)"/>
      <use xlink:href="#DejaVuSans-6f" transform="translate(906.445312 0)"/>
      <use xlink:href="#DejaVuSans-75" transform="translate(967.626953 0)"/>
      <use xlink:href="#DejaVuSans-6e" transform="translate(1031.005859 0)"/>
      <use xlink:href="#DejaVuSans-74" transform="translate(1094.384766 0)"/>
     </g>
    </g>
   </g>
   <g id="line2d_24">
    <path d="M 75.727273 240.89057 
L 78.238746 241.635005 
L 79.075903 243.921153 
L 80.750218 243.004207 
L 81.587376 242.586142 
L 84.098848 245.910458 
L 84.936006 249.918599 
L 85.773164 251.819318 
L 86.610321 252.088185 
L 87.447479 248.740557 
L 89.958951 250.193682 
L 90.796109 251.768031 
L 91.633266 250.91636 
L 92.470424 251.399699 
L 93.307581 248.54318 
L 95.819054 249.808254 
L 96.656211 252.136364 
L 97.493369 250.420587 
L 98.330527 248.148427 
L 99.167684 244.485307 
L 101.679157 245.58875 
L 102.516314 244.676467 
L 103.353472 243.140972 
L 104.190629 242.573709 
L 105.027787 238.933901 
L 107.539259 240.365269 
L 108.376417 239.620833 
L 109.213574 237.205692 
L 110.050732 237.748089 
L 110.88789 236.041637 
L 113.399362 236.465919 
L 114.23652 237.704572 
L 115.073677 236.349358 
L 115.910835 236.39132 
L 116.747992 233.432228 
L 119.259465 235.488362 
L 120.096622 236.985003 
L 120.93378 237.201029 
L 121.770938 237.751197 
L 122.608095 234.950627 
L 125.119568 237.796267 
L 125.956725 239.959637 
L 126.793883 238.730308 
L 127.63104 237.703018 
L 128.468198 235.500795 
L 130.97967 237.769847 
L 132.653985 241.268227 
L 133.491143 241.45317 
L 134.328301 238.641722 
L 136.839773 240.962061 
L 137.676931 241.162545 
L 138.514088 243.128539 
L 139.351246 243.493763 
L 140.188403 240.121268 
L 143.537033 242.760206 
L 144.374191 242.624996 
L 145.211348 242.640537 
L 146.048506 238.683684 
L 148.559979 240.564199 
L 149.397136 239.498056 
L 150.234294 238.683684 
L 151.071451 237.235221 
L 151.908609 236.167523 
L 154.420081 239.163915 
L 155.257239 237.825796 
L 156.094396 237.242991 
L 156.931554 240.164784 
L 157.768711 237.485438 
L 161.117342 240.833067 
L 161.954499 240.8455 
L 162.791657 242.513097 
L 163.628814 239.869497 
L 166.140287 242.761761 
L 166.977444 244.259956 
L 167.814602 246.255479 
L 168.651759 245.713082 
L 169.488917 244.59876 
L 172.00039 247.040322 
L 172.837547 248.038083 
L 173.674705 247.626235 
L 174.511862 248.10802 
L 175.34902 244.606531 
L 178.69765 247.021672 
L 179.534807 248.664404 
L 180.371965 249.383973 
L 181.209122 246.768347 
L 183.720595 249.286062 
L 184.557753 249.586012 
L 185.39491 251.741611 
L 186.232068 251.158806 
L 187.069225 249.104227 
L 189.580698 252.00737 
L 191.255013 248.86178 
L 192.09217 249.814471 
L 192.929328 246.606715 
L 195.440801 248.821372 
L 196.277958 246.902003 
L 197.115116 246.603607 
L 197.952273 246.699964 
L 198.789431 243.986427 
L 201.300903 245.77991 
L 202.975218 242.373224 
L 203.812376 243.448693 
L 204.649533 240.167892 
L 207.161006 242.746219 
L 207.998164 243.991089 
L 208.835321 239.252501 
L 209.672479 240.268912 
L 210.509636 236.742557 
L 213.021109 238.974309 
L 213.858266 239.229189 
L 214.695424 232.108096 
L 215.532581 231.020195 
L 216.369739 226.533378 
L 218.881211 227.694324 
L 219.718369 228.233612 
L 220.555527 222.160013 
L 221.392684 222.116497 
L 222.229842 219.001991 
L 224.741314 221.979733 
L 225.578472 227.158144 
L 226.415629 224.261218 
L 227.252787 224.889092 
L 228.089944 221.319221 
L 230.601417 223.829165 
L 231.438574 231.595228 
L 232.275732 228.065765 
L 233.11289 230.278867 
L 233.950047 228.140364 
L 236.46152 230.642537 
L 237.298677 235.056309 
L 238.135835 232.003968 
L 238.972992 232.661372 
L 239.81015 228.923653 
L 242.321622 230.857009 
L 243.15878 234.642907 
L 243.995938 233.074774 
L 244.833095 234.919545 
L 245.670253 232.928685 
L 248.181725 234.558983 
L 249.018883 238.96343 
L 249.85604 234.927315 
L 250.693198 234.226396 
L 251.530355 231.565699 
L 254.041828 233.918675 
L 254.878985 237.103118 
L 255.716143 234.049223 
L 256.553301 234.234167 
L 257.390458 229.47382 
L 259.901931 230.8912 
L 260.739088 233.183564 
L 261.576246 231.14608 
L 262.413403 230.592805 
L 263.250561 227.097532 
L 265.762033 229.840598 
L 266.599191 232.944226 
L 267.436348 234.998806 
L 268.273506 234.793659 
L 269.110664 231.951127 
L 271.622136 234.857379 
L 272.459294 237.647069 
L 273.296451 239.605292 
L 274.133609 241.129908 
L 274.970766 237.626865 
L 277.482239 239.516706 
L 278.319396 240.306211 
L 279.156554 238.57334 
L 279.993711 238.89971 
L 280.830869 235.278552 
L 297.57402 235.953051 
L 298.411177 232.784149 
L 300.92265 235.292539 
L 301.759807 235.370247 
L 302.596965 233.141603 
L 303.434122 234.150243 
L 304.27128 231.975994 
L 306.782753 234.684869 
L 307.61991 235.259902 
L 308.457068 231.644961 
L 309.294225 231.756859 
L 310.131383 232.843207 
L 312.642855 235.014347 
L 314.31717 236.952366 
L 315.154328 238.629289 
L 315.991485 236.044746 
L 318.502958 235.674859 
L 320.177273 236.100695 
L 321.014431 237.623757 
L 321.851588 235.741687 
L 325.200218 238.393059 
L 326.037376 239.670566 
L 326.874533 237.976548 
L 327.711691 233.940433 
L 330.223164 234.863595 
L 331.060321 232.596098 
L 331.897479 230.857009 
L 332.734636 231.003099 
L 333.571794 230.698486 
L 336.083266 231.652732 
L 336.920424 230.80106 
L 337.757581 228.542887 
L 338.594739 227.557559 
L 339.431896 225.419056 
L 341.943369 228.5289 
L 342.780527 227.661687 
L 343.617684 229.03866 
L 344.454842 231.130539 
L 345.291999 229.363476 
L 347.803472 233.733732 
L 348.640629 234.43776 
L 349.477787 234.31032 
L 350.314944 234.684869 
L 351.152102 231.466234 
L 353.663574 233.223972 
L 354.500732 234.59162 
L 355.33789 235.374909 
L 356.175047 235.424642 
L 357.012205 234.680206 
L 359.523677 233.637375 
L 360.360835 232.265065 
L 361.197992 235.404438 
L 362.03515 237.488546 
L 362.872307 233.18201 
L 365.38378 237.177717 
L 366.220937 235.048539 
L 366.220937 235.048539 
" clip-path="url(#p813b21b7be)" style="fill: none; stroke: #0d6efc; stroke-opacity: 0.5; stroke-width: 1.5; stroke-linecap: square"/>
   </g>
   <g id="line2d_25">
    <path d="M 100.841999 213.826688 
L 105.864944 212.483906 
L 106.702102 213.363552 
L 111.725047 215.051354 
L 112.562205 215.728961 
L 117.58515 215.230081 
L 118.422307 215.593751 
L 123.445253 214.683021 
L 124.28241 214.701671 
L 129.305355 213.999198 
L 130.142513 210.632919 
L 135.165458 210.794551 
L 136.002616 211.175316 
L 141.025561 211.231265 
L 141.862718 209.049246 
L 146.885664 208.783487 
L 147.722821 206.927838 
L 152.745766 203.507164 
L 153.582924 202.543594 
L 158.605869 203.873943 
L 159.443027 204.75048 
L 164.465972 205.71405 
L 165.303129 206.163198 
L 170.326074 205.494916 
L 171.163232 207.92249 
L 176.186177 205.945618 
L 177.023335 204.694531 
L 182.04628 205.039551 
L 182.883438 208.063918 
L 187.906383 209.203106 
L 188.74354 211.40533 
L 193.766485 212.435728 
L 194.603643 210.796105 
L 199.626588 210.082752 
L 200.463746 209.475081 
L 205.486691 209.172023 
L 206.323848 209.022825 
L 211.346794 211.298094 
L 212.183951 209.697324 
L 217.206896 207.630311 
L 218.044054 207.429826 
L 223.066999 207.350565 
L 223.904157 208.230211 
L 228.927102 207.37854 
L 229.764259 206.121236 
L 234.787205 204.599728 
L 235.624362 205.465387 
L 240.647307 205.829057 
L 241.484465 205.485591 
L 246.50741 206.231581 
L 247.344568 206.217593 
L 252.367513 200.980124 
L 253.20467 202.15195 
L 258.227616 203.6144 
L 259.064773 203.230526 
L 264.087718 202.427033 
L 264.924876 201.649961 
L 269.947821 202.804691 
L 270.784979 204.262479 
L 275.807924 205.238482 
L 276.645081 206.598359 
L 281.668027 207.192042 
L 282.505184 205.581948 
L 299.248335 201.248991 
L 300.085492 200.272988 
L 305.108437 202.947672 
L 305.945595 202.1706 
L 310.96854 203.808668 
L 311.805698 204.228288 
L 316.828643 207.64119 
L 317.665801 207.289953 
L 322.688746 207.473342 
L 323.525903 206.540855 
L 328.548848 205.190303 
L 329.386006 202.207899 
L 334.408951 201.109118 
L 335.246109 202.033835 
L 340.269054 204.537562 
L 341.106211 206.565722 
L 346.129157 206.034204 
L 346.966314 205.944064 
L 351.989259 205.339501 
L 352.826417 205.709388 
L 357.849362 201.993427 
L 358.68652 200.496785 
L 363.709465 199.963714 
L 364.546622 200.364683 
" clip-path="url(#p813b21b7be)" style="fill: none; stroke: #83c966; stroke-opacity: 0.5; stroke-width: 1.5; stroke-linecap: square"/>
   </g>
   <g id="line2d_26">
    <path d="M 60.658438 230.527381 
L 366.220937 230.527381 
" clip-path="url(#p813b21b7be)" style="fill: none; stroke-dasharray: 7.4,3.2; stroke-dashoffset: 0; stroke: #0d6efc; stroke-width: 2"/>
   </g>
   <g id="line2d_27">
    <path d="M 60.658438 195.859699 
L 366.220937 195.859699 
" clip-path="url(#p813b21b7be)" style="fill: none; stroke-dasharray: 7.4,3.2; stroke-dashoffset: 0; stroke: #83c966; stroke-width: 2"/>
   </g>
   <g id="patch_3">
    <path d="M 60.658438 261.56 
L 60.658438 54.24 
" style="fill: none; stroke: #000000; stroke-width: 0.8; stroke-linejoin: miter; stroke-linecap: square"/>
   </g>
   <g id="patch_4">
    <path d="M 60.658438 261.56 
L 366.220937 261.56 
" style="fill: none; stroke: #000000; stroke-width: 0.8; stroke-linejoin: miter; stroke-linecap: square"/>
   </g>
   <g id="text_20">
    <!-- 2019 -->
    <g transform="translate(195.624687 48.24) scale(0.14 -0.14)">
     <defs>
      <path id="DejaVuSans-39" d="M 703 97 
L 703 672 
Q 941 559 1184 500 
Q 1428 441 1663 441 
Q 2288 441 2617 861 
Q 2947 1281 2994 2138 
Q 2813 1869 2534 1725 
Q 2256 1581 1919 1581 
Q 1219 1581 811 2004 
Q 403 2428 403 3163 
Q 403 3881 828 4315 
Q 1253 4750 1959 4750 
Q 2769 4750 3195 4129 
Q 3622 3509 3622 2328 
Q 3622 1225 3098 567 
Q 2575 -91 1691 -91 
Q 1453 -91 1209 -44 
Q 966 3 703 97 
z
M 1959 2075 
Q 2384 2075 2632 2365 
Q 2881 2656 2881 3163 
Q 2881 3666 2632 3958 
Q 2384 4250 1959 4250 
Q 1534 4250 1286 3958 
Q 1038 3666 1038 3163 
Q 1038 2656 1286 2365 
Q 1534 2075 1959 2075 
z
" transform="scale(0.015625)"/>
     </defs>
     <use xlink:href="#DejaVuSans-32"/>
     <use xlink:href="#DejaVuSans-30" transform="translate(63.623047 0)"/>
     <use xlink:href="#DejaVuSans-31" transform="translate(127.246094 0)"/>
     <use xlink:href="#DejaVuSans-39" transform="translate(190.869141 0)"/>
    </g>
   </g>
   <g id="legend_1">
    <g id="line2d_28">
     <path d="M 278.222031 66.028594 
L 287.222031 66.028594 
L 296.222031 66.028594 
" style="fill: none; stroke: #0d6efc; stroke-opacity: 0.5; stroke-width: 1.5; stroke-linecap: square"/>
    </g>
    <g id="text_21">
     <!-- Weekday -->
     <g transform="translate(303.422031 69.178594) scale(0.09 -0.09)">
      <defs>
       <path id="DejaVuSans-57" d="M 213 4666 
L 850 4666 
L 1831 722 
L 2809 4666 
L 3519 4666 
L 4500 722 
L 5478 4666 
L 6119 4666 
L 4947 0 
L 4153 0 
L 3169 4050 
L 2175 0 
L 1381 0 
L 213 4666 
z
" transform="scale(0.015625)"/>
       <path id="DejaVuSans-6b" d="M 581 4863 
L 1159 4863 
L 1159 1991 
L 2875 3500 
L 3609 3500 
L 1753 1863 
L 3688 0 
L 2938 0 
L 1159 1709 
L 1159 0 
L 581 0 
L 581 4863 
z
" transform="scale(0.015625)"/>
      </defs>
      <use xlink:href="#DejaVuSans-57"/>
      <use xlink:href="#DejaVuSans-65" transform="translate(93.001953 0)"/>
      <use xlink:href="#DejaVuSans-65" transform="translate(154.525391 0)"/>
      <use xlink:href="#DejaVuSans-6b" transform="translate(216.048828 0)"/>
      <use xlink:href="#DejaVuSans-64" transform="translate(273.958984 0)"/>
      <use xlink:href="#DejaVuSans-61" transform="translate(337.435547 0)"/>
      <use xlink:href="#DejaVuSans-79" transform="translate(398.714844 0)"/>
     </g>
    </g>
    <g id="line2d_29">
     <path d="M 278.222031 79.238906 
L 287.222031 79.238906 
L 296.222031 79.238906 
" style="fill: none; stroke: #83c966; stroke-opacity: 0.5; stroke-width: 1.5; stroke-linecap: square"/>
    </g>
    <g id="text_22">
     <!-- Weekend -->
     <g transform="translate(303.422031 82.388906) scale(0.09 -0.09)">
      <use xlink:href="#DejaVuSans-57"/>
      <use xlink:href="#DejaVuSans-65" transform="translate(93.001953 0)"/>
      <use xlink:href="#DejaVuSans-65" transform="translate(154.525391 0)"/>
      <use xlink:href="#DejaVuSans-6b" transform="translate(216.048828 0)"/>
      <use xlink:href="#DejaVuSans-65" transform="translate(270.333984 0)"/>
      <use xlink:href="#DejaVuSans-6e" transform="translate(331.857422 0)"/>
      <use xlink:href="#DejaVuSans-64" transform="translate(395.236328 0)"/>
     </g>
    </g>
    <g id="line2d_30">
     <path d="M 278.222031 92.449219 
L 287.222031 92.449219 
L 296.222031 92.449219 
" style="fill: none; stroke-dasharray: 7.4,3.2; stroke-dashoffset: 0; stroke: #0d6efc; stroke-width: 2"/>
    </g>
    <g id="text_23">
     <!-- Weekday Fit -->
     <g transform="translate(303.422031 95.599219) scale(0.09 -0.09)">
      <use xlink:href="#DejaVuSans-57"/>
      <use xlink:href="#DejaVuSans-65" transform="translate(93.001953 0)"/>
      <use xlink:href="#DejaVuSans-65" transform="translate(154.525391 0)"/>
      <use xlink:href="#DejaVuSans-6b" transform="translate(216.048828 0)"/>
      <use xlink:href="#DejaVuSans-64" transform="translate(273.958984 0)"/>
      <use xlink:href="#DejaVuSans-61" transform="translate(337.435547 0)"/>
      <use xlink:href="#DejaVuSans-79" transform="translate(398.714844 0)"/>
      <use xlink:href="#DejaVuSans-20" transform="translate(457.894531 0)"/>
      <use xlink:href="#DejaVuSans-46" transform="translate(489.681641 0)"/>
      <use xlink:href="#DejaVuSans-69" transform="translate(539.951172 0)"/>
      <use xlink:href="#DejaVuSans-74" transform="translate(567.734375 0)"/>
     </g>
    </g>
    <g id="line2d_31">
     <path d="M 278.222031 105.659531 
L 287.222031 105.659531 
L 296.222031 105.659531 
" style="fill: none; stroke-dasharray: 7.4,3.2; stroke-dashoffset: 0; stroke: #83c966; stroke-width: 2"/>
    </g>
    <g id="text_24">
     <!-- Weekend Fit -->
     <g transform="translate(303.422031 108.809531) scale(0.09 -0.09)">
      <use xlink:href="#DejaVuSans-57"/>
      <use xlink:href="#DejaVuSans-65" transform="translate(93.001953 0)"/>
      <use xlink:href="#DejaVuSans-65" transform="translate(154.525391 0)"/>
      <use xlink:href="#DejaVuSans-6b" transform="translate(216.048828 0)"/>
      <use xlink:href="#DejaVuSans-65" transform="translate(270.333984 0)"/>
      <use xlink:href="#DejaVuSans-6e" transform="translate(331.857422 0)"/>
      <use xlink:href="#DejaVuSans-64" transform="translate(395.236328 0)"/>
      <use xlink:href="#DejaVuSans-20" transform="translate(458.712891 0)"/>
      <use xlink:href="#DejaVuSans-46" transform="translate(490.5 0)"/>
      <use xlink:href="#DejaVuSans-69" transform="translate(540.769531 0)"/>
      <use xlink:href="#DejaVuSans-74" transform="translate(568.552734 0)"/>
     </g>
    </g>
   </g>
  </g>
  <g id="axes_2">
   <g id="patch_5">
    <path d="M 392.410937 261.56 
L 697.973437 261.56 
L 697.973437 54.24 
L 392.410937 54.24 
L 392.410937 261.56 
z
" style="fill: none"/>
   </g>
   <g id="matplotlib.axis_3">
    <g id="xtick_14">
     <g id="line2d_32">
      <g>
       <use xlink:href="#m540c89187e" x="392.410937" y="261.56" style="stroke: #000000; stroke-width: 0.8"/>
      </g>
     </g>
     <g id="text_25">
      <!-- Jan -->
      <g transform="translate(384.703125 276.158437) scale(0.1 -0.1)">
       <use xlink:href="#DejaVuSans-4a"/>
       <use xlink:href="#DejaVuSans-61" transform="translate(29.492188 0)"/>
       <use xlink:href="#DejaVuSans-6e" transform="translate(90.771484 0)"/>
      </g>
     </g>
    </g>
    <g id="xtick_15">
     <g id="line2d_33">
      <g>
       <use xlink:href="#m540c89187e" x="418.362821" y="261.56" style="stroke: #000000; stroke-width: 0.8"/>
      </g>
     </g>
     <g id="text_26">
      <!-- Feb -->
      <g transform="translate(409.511259 276.158437) scale(0.1 -0.1)">
       <use xlink:href="#DejaVuSans-46"/>
       <use xlink:href="#DejaVuSans-65" transform="translate(52.019531 0)"/>
       <use xlink:href="#DejaVuSans-62" transform="translate(113.542969 0)"/>
      </g>
     </g>
    </g>
    <g id="xtick_16">
     <g id="line2d_34">
      <g>
       <use xlink:href="#m540c89187e" x="441.803232" y="261.56" style="stroke: #000000; stroke-width: 0.8"/>
      </g>
     </g>
     <g id="text_27">
      <!-- Mar -->
      <g transform="translate(432.369638 276.158437) scale(0.1 -0.1)">
       <use xlink:href="#DejaVuSans-4d"/>
       <use xlink:href="#DejaVuSans-61" transform="translate(86.279297 0)"/>
       <use xlink:href="#DejaVuSans-72" transform="translate(147.558594 0)"/>
      </g>
     </g>
    </g>
    <g id="xtick_17">
     <g id="line2d_35">
      <g>
       <use xlink:href="#m540c89187e" x="467.755116" y="261.56" style="stroke: #000000; stroke-width: 0.8"/>
      </g>
     </g>
     <g id="text_28">
      <!-- Apr -->
      <g transform="translate(459.105116 276.158437) scale(0.1 -0.1)">
       <use xlink:href="#DejaVuSans-41"/>
       <use xlink:href="#DejaVuSans-70" transform="translate(68.408203 0)"/>
       <use xlink:href="#DejaVuSans-72" transform="translate(131.884766 0)"/>
      </g>
     </g>
    </g>
    <g id="xtick_18">
     <g id="line2d_36">
      <g>
       <use xlink:href="#m540c89187e" x="492.869842" y="261.56" style="stroke: #000000; stroke-width: 0.8"/>
      </g>
     </g>
     <g id="text_29">
      <!-- May -->
      <g transform="translate(482.532342 276.158437) scale(0.1 -0.1)">
       <use xlink:href="#DejaVuSans-4d"/>
       <use xlink:href="#DejaVuSans-61" transform="translate(86.279297 0)"/>
       <use xlink:href="#DejaVuSans-79" transform="translate(147.558594 0)"/>
      </g>
     </g>
    </g>
    <g id="xtick_19">
     <g id="line2d_37">
      <g>
       <use xlink:href="#m540c89187e" x="518.821725" y="261.56" style="stroke: #000000; stroke-width: 0.8"/>
      </g>
     </g>
     <g id="text_30">
      <!-- Jun -->
      <g transform="translate(511.009225 276.158437) scale(0.1 -0.1)">
       <use xlink:href="#DejaVuSans-4a"/>
       <use xlink:href="#DejaVuSans-75" transform="translate(29.492188 0)"/>
       <use xlink:href="#DejaVuSans-6e" transform="translate(92.871094 0)"/>
      </g>
     </g>
    </g>
    <g id="xtick_20">
     <g id="line2d_38">
      <g>
       <use xlink:href="#m540c89187e" x="543.936451" y="261.56" style="stroke: #000000; stroke-width: 0.8"/>
      </g>
     </g>
     <g id="text_31">
      <!-- Jul -->
      <g transform="translate(537.903639 276.158437) scale(0.1 -0.1)">
       <use xlink:href="#DejaVuSans-4a"/>
       <use xlink:href="#DejaVuSans-75" transform="translate(29.492188 0)"/>
       <use xlink:href="#DejaVuSans-6c" transform="translate(92.871094 0)"/>
      </g>
     </g>
    </g>
    <g id="xtick_21">
     <g id="line2d_39">
      <g>
       <use xlink:href="#m540c89187e" x="569.888335" y="261.56" style="stroke: #000000; stroke-width: 0.8"/>
      </g>
     </g>
     <g id="text_32">
      <!-- Aug -->
      <g transform="translate(560.125054 276.158437) scale(0.1 -0.1)">
       <use xlink:href="#DejaVuSans-41"/>
       <use xlink:href="#DejaVuSans-75" transform="translate(68.408203 0)"/>
       <use xlink:href="#DejaVuSans-67" transform="translate(131.787109 0)"/>
      </g>
     </g>
    </g>
    <g id="xtick_22">
     <g id="line2d_40">
      <g>
       <use xlink:href="#m540c89187e" x="595.840218" y="261.56" style="stroke: #000000; stroke-width: 0.8"/>
      </g>
     </g>
     <g id="text_33">
      <!-- Sep -->
      <g transform="translate(586.415218 276.158437) scale(0.1 -0.1)">
       <use xlink:href="#DejaVuSans-53"/>
       <use xlink:href="#DejaVuSans-65" transform="translate(63.476562 0)"/>
       <use xlink:href="#DejaVuSans-70" transform="translate(125 0)"/>
      </g>
     </g>
    </g>
    <g id="xtick_23">
     <g id="line2d_41">
      <g>
       <use xlink:href="#m540c89187e" x="620.954944" y="261.56" style="stroke: #000000; stroke-width: 0.8"/>
      </g>
     </g>
     <g id="text_34">
      <!-- Oct -->
      <g transform="translate(612.309632 276.158437) scale(0.1 -0.1)">
       <use xlink:href="#DejaVuSans-4f"/>
       <use xlink:href="#DejaVuSans-63" transform="translate(78.710938 0)"/>
       <use xlink:href="#DejaVuSans-74" transform="translate(133.691406 0)"/>
      </g>
     </g>
    </g>
    <g id="xtick_24">
     <g id="line2d_42">
      <g>
       <use xlink:href="#m540c89187e" x="646.906828" y="261.56" style="stroke: #000000; stroke-width: 0.8"/>
      </g>
     </g>
     <g id="text_35">
      <!-- Nov -->
      <g transform="translate(637.147453 276.158437) scale(0.1 -0.1)">
       <use xlink:href="#DejaVuSans-4e"/>
       <use xlink:href="#DejaVuSans-6f" transform="translate(74.804688 0)"/>
       <use xlink:href="#DejaVuSans-76" transform="translate(135.986328 0)"/>
      </g>
     </g>
    </g>
    <g id="xtick_25">
     <g id="line2d_43">
      <g>
       <use xlink:href="#m540c89187e" x="672.021554" y="261.56" style="stroke: #000000; stroke-width: 0.8"/>
      </g>
     </g>
     <g id="text_36">
      <!-- Dec -->
      <g transform="translate(662.345773 276.158437) scale(0.1 -0.1)">
       <use xlink:href="#DejaVuSans-44"/>
       <use xlink:href="#DejaVuSans-65" transform="translate(77.001953 0)"/>
       <use xlink:href="#DejaVuSans-63" transform="translate(138.525391 0)"/>
      </g>
     </g>
    </g>
    <g id="xtick_26">
     <g id="line2d_44">
      <g>
       <use xlink:href="#m540c89187e" x="697.973437" y="261.56" style="stroke: #000000; stroke-width: 0.8"/>
      </g>
     </g>
     <g id="text_37">
      <!-- Jan -->
      <g transform="translate(690.265625 276.158437) scale(0.1 -0.1)">
       <use xlink:href="#DejaVuSans-4a"/>
       <use xlink:href="#DejaVuSans-61" transform="translate(29.492188 0)"/>
       <use xlink:href="#DejaVuSans-6e" transform="translate(90.771484 0)"/>
      </g>
     </g>
    </g>
   </g>
   <g id="matplotlib.axis_4">
    <g id="ytick_6">
     <g id="line2d_45">
      <path d="M 392.410937 233.548789 
L 697.973437 233.548789 
" clip-path="url(#p4573255cc4)" style="fill: none; stroke-dasharray: 2.96,1.28; stroke-dashoffset: 0; stroke: #b0b0b0; stroke-opacity: 0.3; stroke-width: 0.8"/>
     </g>
     <g id="line2d_46">
      <g>
       <use xlink:href="#mffcf1b3902" x="392.410937" y="233.548789" style="stroke: #000000; stroke-width: 0.8"/>
      </g>
     </g>
    </g>
    <g id="ytick_7">
     <g id="line2d_47">
      <path d="M 392.410937 190.032726 
L 697.973437 190.032726 
" clip-path="url(#p4573255cc4)" style="fill: none; stroke-dasharray: 2.96,1.28; stroke-dashoffset: 0; stroke: #b0b0b0; stroke-opacity: 0.3; stroke-width: 0.8"/>
     </g>
     <g id="line2d_48">
      <g>
       <use xlink:href="#mffcf1b3902" x="392.410937" y="190.032726" style="stroke: #000000; stroke-width: 0.8"/>
      </g>
     </g>
    </g>
    <g id="ytick_8">
     <g id="line2d_49">
      <path d="M 392.410937 146.516664 
L 697.973437 146.516664 
" clip-path="url(#p4573255cc4)" style="fill: none; stroke-dasharray: 2.96,1.28; stroke-dashoffset: 0; stroke: #b0b0b0; stroke-opacity: 0.3; stroke-width: 0.8"/>
     </g>
     <g id="line2d_50">
      <g>
       <use xlink:href="#mffcf1b3902" x="392.410937" y="146.516664" style="stroke: #000000; stroke-width: 0.8"/>
      </g>
     </g>
    </g>
    <g id="ytick_9">
     <g id="line2d_51">
      <path d="M 392.410937 103.000602 
L 697.973437 103.000602 
" clip-path="url(#p4573255cc4)" style="fill: none; stroke-dasharray: 2.96,1.28; stroke-dashoffset: 0; stroke: #b0b0b0; stroke-opacity: 0.3; stroke-width: 0.8"/>
     </g>
     <g id="line2d_52">
      <g>
       <use xlink:href="#mffcf1b3902" x="392.410937" y="103.000602" style="stroke: #000000; stroke-width: 0.8"/>
      </g>
     </g>
    </g>
    <g id="ytick_10">
     <g id="line2d_53">
      <path d="M 392.410937 59.48454 
L 697.973437 59.48454 
" clip-path="url(#p4573255cc4)" style="fill: none; stroke-dasharray: 2.96,1.28; stroke-dashoffset: 0; stroke: #b0b0b0; stroke-opacity: 0.3; stroke-width: 0.8"/>
     </g>
     <g id="line2d_54">
      <g>
       <use xlink:href="#mffcf1b3902" x="392.410937" y="59.48454" style="stroke: #000000; stroke-width: 0.8"/>
      </g>
     </g>
    </g>
   </g>
   <g id="line2d_55">
    <path d="M 409.154088 163.265686 
L 409.991246 161.563897 
L 411.665561 166.398842 
L 412.502718 160.811691 
L 415.014191 167.629725 
L 415.851348 168.694315 
L 416.688506 168.240504 
L 417.525664 167.937446 
L 418.362821 164.479473 
L 420.874294 168.887029 
L 421.711451 169.695184 
L 422.548609 169.968714 
L 423.385766 170.924513 
L 424.222924 166.053822 
L 426.734396 167.761828 
L 427.571554 169.162112 
L 428.408711 169.121705 
L 429.245869 171.244667 
L 430.083027 164.042758 
L 432.594499 165.968344 
L 433.431657 165.390202 
L 434.268814 164.316288 
L 435.105972 163.494145 
L 435.943129 157.659885 
L 438.454602 156.666786 
L 440.128917 153.507209 
L 440.966074 152.848251 
L 441.803232 146.625455 
L 444.314705 146.404766 
L 445.151862 144.252275 
L 445.98902 139.348947 
L 446.826177 139.790325 
L 447.663335 134.601034 
L 450.174807 138.315441 
L 451.011965 139.145354 
L 451.849122 137.581884 
L 452.68628 137.244635 
L 453.523438 132.663015 
L 456.03491 135.228909 
L 456.872068 133.903223 
L 457.709225 134.759557 
L 458.546383 136.587232 
L 459.38354 133.856599 
L 461.895013 137.120303 
L 462.73217 137.818114 
L 463.569328 139.812083 
L 464.406485 139.440642 
L 465.243643 133.149463 
L 467.755116 134.256014 
L 468.592273 134.294868 
L 469.429431 135.160526 
L 470.266588 135.612783 
L 471.103746 132.838634 
L 473.615218 138.360511 
L 474.452376 136.057268 
L 475.289533 134.510894 
L 476.126691 133.778891 
L 476.963848 128.569397 
L 479.475321 133.177437 
L 480.312479 130.605327 
L 481.149636 130.897506 
L 481.986794 130.540053 
L 482.823951 130.529174 
L 485.335424 135.640757 
L 486.172581 135.19938 
L 487.009739 134.904092 
L 487.846896 134.87301 
L 488.684054 134.013567 
L 491.195527 138.878041 
L 492.032684 141.136214 
L 492.869842 142.168166 
L 493.706999 143.397495 
L 494.544157 138.279696 
L 497.892787 143.801573 
L 498.729944 145.904331 
L 499.567102 143.475202 
L 500.404259 137.602088 
L 502.915732 140.427524 
L 503.75289 141.773414 
L 504.590047 144.045574 
L 505.427205 140.750786 
L 506.264362 134.807735 
L 508.775835 136.811028 
L 509.612992 136.27174 
L 510.45015 137.392279 
L 511.287307 137.28038 
L 512.124465 132.720519 
L 514.635937 135.031532 
L 515.473095 134.678741 
L 516.310253 135.443381 
L 517.14741 135.539738 
L 517.984568 130.000765 
L 520.49604 137.833656 
L 521.333198 137.392279 
L 522.170355 134.838818 
L 523.007513 137.277272 
L 523.84467 134.89943 
L 526.356143 141.150201 
L 527.193301 142.441696 
L 528.030458 140.85336 
L 528.867616 141.967682 
L 529.704773 139.184208 
L 532.216246 143.375737 
L 533.053403 143.74407 
L 533.890561 140.149332 
L 534.727718 143.498515 
L 535.564876 147.781738 
L 538.076348 151.309648 
L 538.913506 156.464747 
L 539.750664 157.474941 
L 540.587821 157.877465 
L 541.424979 152.966366 
L 543.936451 163.996134 
L 544.773609 168.846621 
L 545.610766 171.696923 
L 546.447924 184.733092 
L 547.285081 180.894353 
L 549.796554 183.197596 
L 550.633711 189.305387 
L 551.470869 180.66434 
L 552.308027 168.953857 
L 553.145184 162.692206 
L 555.656657 163.761458 
L 556.493814 162.196434 
L 557.330972 151.373368 
L 558.168129 149.760165 
L 559.005287 135.521088 
L 561.516759 138.031032 
L 562.353917 138.602958 
L 563.191074 123.557279 
L 564.028232 123.134552 
L 564.86539 118.496983 
L 567.376862 120.296683 
L 568.21402 128.005242 
L 569.051177 122.929405 
L 569.888335 123.911624 
L 570.725492 118.078918 
L 573.236965 121.168558 
L 574.074122 143.479865 
L 574.91128 140.522327 
L 575.748437 141.013437 
L 576.585595 134.297976 
L 579.097068 133.349947 
L 579.934225 134.911863 
L 580.771383 129.860892 
L 581.60854 129.013883 
L 582.445698 124.062376 
L 584.95717 127.063431 
L 585.794328 130.515187 
L 586.631485 126.632932 
L 587.468643 127.179991 
L 588.305801 122.248689 
L 590.817273 112.967335 
L 591.654431 118.455021 
L 592.491588 116.681741 
L 593.328746 118.739429 
L 594.165903 116.641334 
L 596.677376 121.460738 
L 597.514533 127.075864 
L 598.351691 130.967443 
L 599.188848 132.846404 
L 600.026006 127.67421 
L 602.537479 132.18123 
L 603.374636 137.522827 
L 604.211794 141.534075 
L 605.048951 143.165928 
L 605.886109 139.003927 
L 608.397581 141.35224 
L 609.234739 144.763589 
L 610.071896 146.227593 
L 610.909054 145.040227 
L 611.746211 140.722812 
L 614.257684 143.395941 
L 615.094842 140.828493 
L 615.931999 140.798965 
L 616.769157 139.802758 
L 617.606314 135.129443 
L 620.117787 137.348763 
L 620.954944 134.949163 
L 621.792102 135.659407 
L 622.629259 136.663385 
L 623.466417 131.523827 
L 625.97789 133.780446 
L 626.815047 128.875564 
L 627.652205 127.108501 
L 628.489362 123.739114 
L 629.32652 117.729235 
L 631.837992 119.314463 
L 632.67515 116.546531 
L 633.512307 116.695729 
L 634.349465 115.455521 
L 635.186622 107.358425 
L 637.698095 108.31267 
L 638.535253 103.942414 
L 639.37241 104.525219 
L 640.209568 101.976421 
L 641.046725 94.998309 
L 643.558198 102.501722 
L 644.395355 103.384476 
L 645.232513 107.492082 
L 646.06967 108.959195 
L 646.906828 108.043803 
L 649.418301 115.750809 
L 650.255458 121.790216 
L 651.092616 125.476648 
L 651.929773 128.605142 
L 652.766931 126.726181 
L 655.278403 134.773544 
L 656.115561 134.992679 
L 656.952718 140.419753 
L 657.789876 142.778946 
L 658.627033 136.082134 
L 661.138506 142.626639 
L 661.975664 142.892398 
L 662.812821 144.592633 
L 663.649979 144.337753 
L 664.487136 138.181784 
L 666.998609 138.874933 
L 667.835766 137.954879 
L 668.672924 142.433925 
L 669.510081 145.391463 
L 670.347239 142.478996 
L 672.858711 146.881888 
L 673.695869 146.491798 
L 674.533027 149.495961 
L 675.370184 155.159265 
L 676.207342 150.437772 
L 678.718814 154.693022 
L 679.555972 155.471648 
L 680.393129 157.453183 
L 681.230287 158.548856 
L 682.067444 155.16859 
L 684.578917 158.545747 
L 685.416074 161.664916 
L 686.253232 160.079688 
L 687.09039 161.195565 
L 687.927547 159.395865 
L 690.43902 162.347186 
L 691.276177 157.819962 
L 692.113335 155.516719 
L 692.950492 161.941554 
L 693.78765 161.553018 
L 696.299122 165.979223 
L 697.13628 163.783216 
L 697.973437 163.060539 
L 697.973437 163.060539 
" clip-path="url(#p4573255cc4)" style="fill: none; stroke: #0d6efc; stroke-opacity: 0.5; stroke-width: 1.5; stroke-linecap: square"/>
   </g>
   <g id="line2d_56">
    <path d="M 431.757342 133.578407 
L 436.780287 132.659907 
L 437.617444 130.389301 
L 442.64039 127.408451 
L 443.477547 121.889682 
L 448.500492 120.433448 
L 449.33765 119.023838 
L 454.360595 119.765165 
L 455.197753 122.135236 
L 460.220698 116.715933 
L 461.057855 109.271578 
L 466.080801 105.959695 
L 466.917958 105.278979 
L 471.940903 102.374282 
L 472.778061 101.493082 
L 477.801006 97.390139 
L 478.638164 93.781414 
L 483.661109 93.127119 
L 484.498266 94.110893 
L 489.521211 92.594047 
L 490.358369 91.983268 
L 495.381314 88.727334 
L 496.218472 83.782044 
L 501.241417 84.459652 
L 502.078574 86.072854 
L 507.10152 87.387661 
L 507.938677 86.649442 
L 512.961622 87.151431 
L 513.79878 85.859936 
L 518.821725 84.315116 
L 519.658883 83.741637 
L 524.681828 100.594786 
L 525.518985 99.965357 
L 530.541931 102.382053 
L 531.379088 116.77499 
L 536.402033 118.796933 
L 537.239191 118.995863 
L 542.262136 121.390801 
L 543.099294 123.364565 
L 548.122239 122.469378 
L 548.959396 122.780207 
L 553.982342 120.016937 
L 554.819499 120.172351 
L 559.842444 124.429155 
L 560.679602 125.102099 
L 565.702547 108.956086 
L 566.539705 109.453413 
L 571.56265 106.356002 
L 572.399807 89.432916 
L 577.422753 85.774458 
L 578.25991 83.349992 
L 583.282855 80.519894 
L 584.120013 77.692904 
L 589.142958 75.210934 
L 589.980116 74.503798 
L 595.003061 78.019274 
L 595.840218 82.308715 
L 600.863164 78.964195 
L 601.700321 80.305422 
L 606.723266 82.377097 
L 607.560424 81.175743 
L 612.583369 82.7532 
L 613.420527 84.796901 
L 618.443472 87.303737 
L 619.280629 88.203587 
L 624.303574 88.006211 
L 625.140732 89.188915 
L 630.163677 88.682264 
L 631.000835 87.849242 
L 636.02378 78.521263 
L 636.860937 71.198132 
L 641.883883 70.149084 
L 642.72104 70.037185 
L 647.743985 65.108991 
L 648.581143 63.663636 
L 653.604088 66.577658 
L 654.441246 66.091211 
L 659.464191 64.395639 
L 660.301348 67.671777 
L 665.324294 70.360447 
L 666.161451 72.993169 
L 671.184396 77.567018 
L 672.021554 81.540967 
L 677.044499 92.923526 
L 677.881657 96.426569 
L 682.904602 99.727573 
L 683.741759 99.015774 
L 688.764705 104.501906 
L 689.601862 110.444957 
L 694.624807 107.697229 
L 695.461965 108.009612 
" clip-path="url(#p4573255cc4)" style="fill: none; stroke: #83c966; stroke-opacity: 0.5; stroke-width: 1.5; stroke-linecap: square"/>
   </g>
   <g id="line2d_57">
    <path d="M 392.410937 131.092553 
L 697.973437 131.092553 
" clip-path="url(#p4573255cc4)" style="fill: none; stroke-dasharray: 7.4,3.2; stroke-dashoffset: 0; stroke: #0d6efc; stroke-width: 2"/>
   </g>
   <g id="line2d_58">
    <path d="M 392.410937 79.648663 
L 697.973437 79.648663 
" clip-path="url(#p4573255cc4)" style="fill: none; stroke-dasharray: 7.4,3.2; stroke-dashoffset: 0; stroke: #83c966; stroke-width: 2"/>
   </g>
   <g id="patch_6">
    <path d="M 392.410937 261.56 
L 392.410937 54.24 
" style="fill: none; stroke: #000000; stroke-width: 0.8; stroke-linejoin: miter; stroke-linecap: square"/>
   </g>
   <g id="patch_7">
    <path d="M 392.410937 261.56 
L 697.973437 261.56 
" style="fill: none; stroke: #000000; stroke-width: 0.8; stroke-linejoin: miter; stroke-linecap: square"/>
   </g>
   <g id="text_38">
    <!-- 2025 -->
    <g transform="translate(527.377187 48.24) scale(0.14 -0.14)">
     <defs>
      <path id="DejaVuSans-35" d="M 691 4666 
L 3169 4666 
L 3169 4134 
L 1269 4134 
L 1269 2991 
Q 1406 3038 1543 3061 
Q 1681 3084 1819 3084 
Q 2600 3084 3056 2656 
Q 3513 2228 3513 1497 
Q 3513 744 3044 326 
Q 2575 -91 1722 -91 
Q 1428 -91 1123 -41 
Q 819 9 494 109 
L 494 744 
Q 775 591 1075 516 
Q 1375 441 1709 441 
Q 2250 441 2565 725 
Q 2881 1009 2881 1497 
Q 2881 1984 2565 2268 
Q 2250 2553 1709 2553 
Q 1456 2553 1204 2497 
Q 953 2441 691 2322 
L 691 4666 
z
" transform="scale(0.015625)"/>
     </defs>
     <use xlink:href="#DejaVuSans-32"/>
     <use xlink:href="#DejaVuSans-30" transform="translate(63.623047 0)"/>
     <use xlink:href="#DejaVuSans-32" transform="translate(127.246094 0)"/>
     <use xlink:href="#DejaVuSans-35" transform="translate(190.869141 0)"/>
    </g>
   </g>
  </g>
  <g id="text_39">
   <!-- Comparing Observed and Fitted Pedestrian Counts at QVM-Therry St (South) -->
   <g transform="translate(50.814687 19.3575) scale(0.16 -0.16)">
    <defs>
     <path id="DejaVuSans-43" d="M 4122 4306 
L 4122 3641 
Q 3803 3938 3442 4084 
Q 3081 4231 2675 4231 
Q 1875 4231 1450 3742 
Q 1025 3253 1025 2328 
Q 1025 1406 1450 917 
Q 1875 428 2675 428 
Q 3081 428 3442 575 
Q 3803 722 4122 1019 
L 4122 359 
Q 3791 134 3420 21 
Q 3050 -91 2638 -91 
Q 1578 -91 968 557 
Q 359 1206 359 2328 
Q 359 3453 968 4101 
Q 1578 4750 2638 4750 
Q 3056 4750 3426 4639 
Q 3797 4528 4122 4306 
z
" transform="scale(0.015625)"/>
     <path id="DejaVuSans-6d" d="M 3328 2828 
Q 3544 3216 3844 3400 
Q 4144 3584 4550 3584 
Q 5097 3584 5394 3201 
Q 5691 2819 5691 2113 
L 5691 0 
L 5113 0 
L 5113 2094 
Q 5113 2597 4934 2840 
Q 4756 3084 4391 3084 
Q 3944 3084 3684 2787 
Q 3425 2491 3425 1978 
L 3425 0 
L 2847 0 
L 2847 2094 
Q 2847 2600 2669 2842 
Q 2491 3084 2119 3084 
Q 1678 3084 1418 2786 
Q 1159 2488 1159 1978 
L 1159 0 
L 581 0 
L 581 3500 
L 1159 3500 
L 1159 2956 
Q 1356 3278 1631 3431 
Q 1906 3584 2284 3584 
Q 2666 3584 2933 3390 
Q 3200 3197 3328 2828 
z
" transform="scale(0.015625)"/>
     <path id="DejaVuSans-50" d="M 1259 4147 
L 1259 2394 
L 2053 2394 
Q 2494 2394 2734 2622 
Q 2975 2850 2975 3272 
Q 2975 3691 2734 3919 
Q 2494 4147 2053 4147 
L 1259 4147 
z
M 628 4666 
L 2053 4666 
Q 2838 4666 3239 4311 
Q 3641 3956 3641 3272 
Q 3641 2581 3239 2228 
Q 2838 1875 2053 1875 
L 1259 1875 
L 1259 0 
L 628 0 
L 628 4666 
z
" transform="scale(0.015625)"/>
     <path id="DejaVuSans-51" d="M 2522 4238 
Q 1834 4238 1429 3725 
Q 1025 3213 1025 2328 
Q 1025 1447 1429 934 
Q 1834 422 2522 422 
Q 3209 422 3611 934 
Q 4013 1447 4013 2328 
Q 4013 3213 3611 3725 
Q 3209 4238 2522 4238 
z
M 3406 84 
L 4238 -825 
L 3475 -825 
L 2784 -78 
Q 2681 -84 2626 -87 
Q 2572 -91 2522 -91 
Q 1538 -91 948 567 
Q 359 1225 359 2328 
Q 359 3434 948 4092 
Q 1538 4750 2522 4750 
Q 3503 4750 4090 4092 
Q 4678 3434 4678 2328 
Q 4678 1516 4351 937 
Q 4025 359 3406 84 
z
" transform="scale(0.015625)"/>
     <path id="DejaVuSans-56" d="M 1831 0 
L 50 4666 
L 709 4666 
L 2188 738 
L 3669 4666 
L 4325 4666 
L 2547 0 
L 1831 0 
z
" transform="scale(0.015625)"/>
     <path id="DejaVuSans-2d" d="M 313 2009 
L 1997 2009 
L 1997 1497 
L 313 1497 
L 313 2009 
z
" transform="scale(0.015625)"/>
     <path id="DejaVuSans-54" d="M -19 4666 
L 3928 4666 
L 3928 4134 
L 2272 4134 
L 2272 0 
L 1638 0 
L 1638 4134 
L -19 4134 
L -19 4666 
z
" transform="scale(0.015625)"/>
     <path id="DejaVuSans-68" d="M 3513 2113 
L 3513 0 
L 2938 0 
L 2938 2094 
Q 2938 2591 2744 2837 
Q 2550 3084 2163 3084 
Q 1697 3084 1428 2787 
Q 1159 2491 1159 1978 
L 1159 0 
L 581 0 
L 581 4863 
L 1159 4863 
L 1159 2956 
Q 1366 3272 1645 3428 
Q 1925 3584 2291 3584 
Q 2894 3584 3203 3211 
Q 3513 2838 3513 2113 
z
" transform="scale(0.015625)"/>
     <path id="DejaVuSans-28" d="M 1984 4856 
Q 1566 4138 1362 3434 
Q 1159 2731 1159 2009 
Q 1159 1288 1364 580 
Q 1569 -128 1984 -844 
L 1484 -844 
Q 1016 -109 783 600 
Q 550 1309 550 2009 
Q 550 2706 781 3412 
Q 1013 4119 1484 4856 
L 1984 4856 
z
" transform="scale(0.015625)"/>
     <path id="DejaVuSans-29" d="M 513 4856 
L 1013 4856 
Q 1481 4119 1714 3412 
Q 1947 2706 1947 2009 
Q 1947 1309 1714 600 
Q 1481 -109 1013 -844 
L 513 -844 
Q 928 -128 1133 580 
Q 1338 1288 1338 2009 
Q 1338 2731 1133 3434 
Q 928 4138 513 4856 
z
" transform="scale(0.015625)"/>
    </defs>
    <use xlink:href="#DejaVuSans-43"/>
    <use xlink:href="#DejaVuSans-6f" transform="translate(69.824219 0)"/>
    <use xlink:href="#DejaVuSans-6d" transform="translate(131.005859 0)"/>
    <use xlink:href="#DejaVuSans-70" transform="translate(228.417969 0)"/>
    <use xlink:href="#DejaVuSans-61" transform="translate(291.894531 0)"/>
    <use xlink:href="#DejaVuSans-72" transform="translate(353.173828 0)"/>
    <use xlink:href="#DejaVuSans-69" transform="translate(394.287109 0)"/>
    <use xlink:href="#DejaVuSans-6e" transform="translate(422.070312 0)"/>
    <use xlink:href="#DejaVuSans-67" transform="translate(485.449219 0)"/>
    <use xlink:href="#DejaVuSans-20" transform="translate(548.925781 0)"/>
    <use xlink:href="#DejaVuSans-4f" transform="translate(580.712891 0)"/>
    <use xlink:href="#DejaVuSans-62" transform="translate(659.423828 0)"/>
    <use xlink:href="#DejaVuSans-73" transform="translate(722.900391 0)"/>
    <use xlink:href="#DejaVuSans-65" transform="translate(775 0)"/>
    <use xlink:href="#DejaVuSans-72" transform="translate(836.523438 0)"/>
    <use xlink:href="#DejaVuSans-76" transform="translate(877.636719 0)"/>
    <use xlink:href="#DejaVuSans-65" transform="translate(936.816406 0)"/>
    <use xlink:href="#DejaVuSans-64" transform="translate(998.339844 0)"/>
    <use xlink:href="#DejaVuSans-20" transform="translate(1061.816406 0)"/>
    <use xlink:href="#DejaVuSans-61" transform="translate(1093.603516 0)"/>
    <use xlink:href="#DejaVuSans-6e" transform="translate(1154.882812 0)"/>
    <use xlink:href="#DejaVuSans-64" transform="translate(1218.261719 0)"/>
    <use xlink:href="#DejaVuSans-20" transform="translate(1281.738281 0)"/>
    <use xlink:href="#DejaVuSans-46" transform="translate(1313.525391 0)"/>
    <use xlink:href="#DejaVuSans-69" transform="translate(1363.794922 0)"/>
    <use xlink:href="#DejaVuSans-74" transform="translate(1391.578125 0)"/>
    <use xlink:href="#DejaVuSans-74" transform="translate(1430.787109 0)"/>
    <use xlink:href="#DejaVuSans-65" transform="translate(1469.996094 0)"/>
    <use xlink:href="#DejaVuSans-64" transform="translate(1531.519531 0)"/>
    <use xlink:href="#DejaVuSans-20" transform="translate(1594.996094 0)"/>
    <use xlink:href="#DejaVuSans-50" transform="translate(1626.783203 0)"/>
    <use xlink:href="#DejaVuSans-65" transform="translate(1683.460938 0)"/>
    <use xlink:href="#DejaVuSans-64" transform="translate(1744.984375 0)"/>
    <use xlink:href="#DejaVuSans-65" transform="translate(1808.460938 0)"/>
    <use xlink:href="#DejaVuSans-73" transform="translate(1869.984375 0)"/>
    <use xlink:href="#DejaVuSans-74" transform="translate(1922.083984 0)"/>
    <use xlink:href="#DejaVuSans-72" transform="translate(1961.292969 0)"/>
    <use xlink:href="#DejaVuSans-69" transform="translate(2002.40625 0)"/>
    <use xlink:href="#DejaVuSans-61" transform="translate(2030.189453 0)"/>
    <use xlink:href="#DejaVuSans-6e" transform="translate(2091.46875 0)"/>
    <use xlink:href="#DejaVuSans-20" transform="translate(2154.847656 0)"/>
    <use xlink:href="#DejaVuSans-43" transform="translate(2186.634766 0)"/>
    <use xlink:href="#DejaVuSans-6f" transform="translate(2256.458984 0)"/>
    <use xlink:href="#DejaVuSans-75" transform="translate(2317.640625 0)"/>
    <use xlink:href="#DejaVuSans-6e" transform="translate(2381.019531 0)"/>
    <use xlink:href="#DejaVuSans-74" transform="translate(2444.398438 0)"/>
    <use xlink:href="#DejaVuSans-73" transform="translate(2483.607422 0)"/>
    <use xlink:href="#DejaVuSans-20" transform="translate(2535.707031 0)"/>
    <use xlink:href="#DejaVuSans-61" transform="translate(2567.494141 0)"/>
    <use xlink:href="#DejaVuSans-74" transform="translate(2628.773438 0)"/>
    <use xlink:href="#DejaVuSans-20" transform="translate(2667.982422 0)"/>
    <use xlink:href="#DejaVuSans-51" transform="translate(2699.769531 0)"/>
    <use xlink:href="#DejaVuSans-56" transform="translate(2778.480469 0)"/>
    <use xlink:href="#DejaVuSans-4d" transform="translate(2846.888672 0)"/>
    <use xlink:href="#DejaVuSans-2d" transform="translate(2933.167969 0)"/>
    <use xlink:href="#DejaVuSans-54" transform="translate(2960.126953 0)"/>
    <use xlink:href="#DejaVuSans-68" transform="translate(3021.210938 0)"/>
    <use xlink:href="#DejaVuSans-65" transform="translate(3084.589844 0)"/>
    <use xlink:href="#DejaVuSans-72" transform="translate(3146.113281 0)"/>
    <use xlink:href="#DejaVuSans-72" transform="translate(3185.476562 0)"/>
    <use xlink:href="#DejaVuSans-79" transform="translate(3226.589844 0)"/>
    <use xlink:href="#DejaVuSans-20" transform="translate(3285.769531 0)"/>
    <use xlink:href="#DejaVuSans-53" transform="translate(3317.556641 0)"/>
    <use xlink:href="#DejaVuSans-74" transform="translate(3381.033203 0)"/>
    <use xlink:href="#DejaVuSans-20" transform="translate(3420.242188 0)"/>
    <use xlink:href="#DejaVuSans-28" transform="translate(3452.029297 0)"/>
    <use xlink:href="#DejaVuSans-53" transform="translate(3491.042969 0)"/>
    <use xlink:href="#DejaVuSans-6f" transform="translate(3554.519531 0)"/>
    <use xlink:href="#DejaVuSans-75" transform="translate(3615.701172 0)"/>
    <use xlink:href="#DejaVuSans-74" transform="translate(3679.080078 0)"/>
    <use xlink:href="#DejaVuSans-68" transform="translate(3718.289062 0)"/>
    <use xlink:href="#DejaVuSans-29" transform="translate(3781.667969 0)"/>
   </g>
  </g>
 </g>
 <defs>
  <clipPath id="p813b21b7be">
   <rect x="60.658438" y="54.24" width="305.5625" height="207.32"/>
  </clipPath>
  <clipPath id="p4573255cc4">
   <rect x="392.410937" y="54.24" width="305.5625" height="207.32"/>
  </clipPath>
 </defs>
</svg>
