<?xml version="1.0" encoding="utf-8" standalone="no"?>
<!DOCTYPE svg PUBLIC "-//W3C//DTD SVG 1.1//EN"
  "http://www.w3.org/Graphics/SVG/1.1/DTD/svg11.dtd">
<svg xmlns:xlink="http://www.w3.org/1999/xlink" width="712.88125pt" height="285.438125pt" viewBox="0 0 712.88125 285.438125" xmlns="http://www.w3.org/2000/svg" version="1.1">
 <metadata>
  <rdf:RDF xmlns:dc="http://purl.org/dc/elements/1.1/" xmlns:cc="http://creativecommons.org/ns#" xmlns:rdf="http://www.w3.org/1999/02/22-rdf-syntax-ns#">
   <cc:Work>
    <dc:type rdf:resource="http://purl.org/dc/dcmitype/StillImage"/>
    <dc:date>2026-01-28T19:49:11.588964</dc:date>
    <dc:format>image/svg+xml</dc:format>
    <dc:creator>
     <cc:Agent>
      <dc:title>Matplotlib v3.10.8, https://matplotlib.org/</dc:title>
     </cc:Agent>
    </dc:creator>
   </cc:Work>
  </rdf:RDF>
 </metadata>
 <defs>
  <style type="text/css">*{stroke-linejoin: round; stroke-linecap: butt}</style>
 </defs>
 <g id="figure_1">
  <g id="patch_1">
   <path d="M 0 285.438125 
L 712.88125 285.438125 
L 712.88125 0 
L 0 0 
L 0 285.438125 
z
" style="fill: none"/>
  </g>
  <g id="axes_1">
   <g id="patch_2">
    <path d="M 60.658438 261.56 
L 366.220937 261.56 
L 366.220937 54.24 
L 60.658438 54.24 
L 60.658438 261.56 
z
" style="fill: none"/>
   </g>
   <g id="matplotlib.axis_1">
    <g id="xtick_1">
     <g id="line2d_1">
      <defs>
       <path id="mefc83fad5d" d="M 0 0 
L 0 3.5 
" style="stroke: #000000; stroke-width: 0.8"/>
      </defs>
      <g>
       <use xlink:href="#mefc83fad5d" x="60.658438" y="261.56" style="stroke: #000000; stroke-width: 0.8"/>
      </g>
     </g>
     <g id="text_1">
      <!-- Jan -->
      <g transform="translate(52.950625 276.158437) scale(0.1 -0.1)">
       <defs>
        <path id="DejaVuSans-4a" d="M 628 4666 
L 1259 4666 
L 1259 325 
Q 1259 -519 939 -900 
Q 619 -1281 -91 -1281 
L -331 -1281 
L -331 -750 
L -134 -750 
Q 284 -750 456 -515 
Q 628 -281 628 325 
L 628 4666 
z
" transform="scale(0.015625)"/>
        <path id="DejaVuSans-61" d="M 2194 1759 
Q 1497 1759 1228 1600 
Q 959 1441 959 1056 
Q 959 750 1161 570 
Q 1363 391 1709 391 
Q 2188 391 2477 730 
Q 2766 1069 2766 1631 
L 2766 1759 
L 2194 1759 
z
M 3341 1997 
L 3341 0 
L 2766 0 
L 2766 531 
Q 2569 213 2275 61 
Q 1981 -91 1556 -91 
Q 1019 -91 701 211 
Q 384 513 384 1019 
Q 384 1609 779 1909 
Q 1175 2209 1959 2209 
L 2766 2209 
L 2766 2266 
Q 2766 2663 2505 2880 
Q 2244 3097 1772 3097 
Q 1472 3097 1187 3025 
Q 903 2953 641 2809 
L 641 3341 
Q 956 3463 1253 3523 
Q 1550 3584 1831 3584 
Q 2591 3584 2966 3190 
Q 3341 2797 3341 1997 
z
" transform="scale(0.015625)"/>
        <path id="DejaVuSans-6e" d="M 3513 2113 
L 3513 0 
L 2938 0 
L 2938 2094 
Q 2938 2591 2744 2837 
Q 2550 3084 2163 3084 
Q 1697 3084 1428 2787 
Q 1159 2491 1159 1978 
L 1159 0 
L 581 0 
L 581 3500 
L 1159 3500 
L 1159 2956 
Q 1366 3272 1645 3428 
Q 1925 3584 2291 3584 
Q 2894 3584 3203 3211 
Q 3513 2838 3513 2113 
z
" transform="scale(0.015625)"/>
       </defs>
       <use xlink:href="#DejaVuSans-4a"/>
       <use xlink:href="#DejaVuSans-61" transform="translate(29.492188 0)"/>
       <use xlink:href="#DejaVuSans-6e" transform="translate(90.771484 0)"/>
      </g>
     </g>
    </g>
    <g id="xtick_2">
     <g id="line2d_2">
      <g>
       <use xlink:href="#mefc83fad5d" x="86.610321" y="261.56" style="stroke: #000000; stroke-width: 0.8"/>
      </g>
     </g>
     <g id="text_2">
      <!-- Feb -->
      <g transform="translate(77.758759 276.158437) scale(0.1 -0.1)">
       <defs>
        <path id="DejaVuSans-46" d="M 628 4666 
L 3309 4666 
L 3309 4134 
L 1259 4134 
L 1259 2759 
L 3109 2759 
L 3109 2228 
L 1259 2228 
L 1259 0 
L 628 0 
L 628 4666 
z
" transform="scale(0.015625)"/>
        <path id="DejaVuSans-65" d="M 3597 1894 
L 3597 1613 
L 953 1613 
Q 991 1019 1311 708 
Q 1631 397 2203 397 
Q 2534 397 2845 478 
Q 3156 559 3463 722 
L 3463 178 
Q 3153 47 2828 -22 
Q 2503 -91 2169 -91 
Q 1331 -91 842 396 
Q 353 884 353 1716 
Q 353 2575 817 3079 
Q 1281 3584 2069 3584 
Q 2775 3584 3186 3129 
Q 3597 2675 3597 1894 
z
M 3022 2063 
Q 3016 2534 2758 2815 
Q 2500 3097 2075 3097 
Q 1594 3097 1305 2825 
Q 1016 2553 972 2059 
L 3022 2063 
z
" transform="scale(0.015625)"/>
        <path id="DejaVuSans-62" d="M 3116 1747 
Q 3116 2381 2855 2742 
Q 2594 3103 2138 3103 
Q 1681 3103 1420 2742 
Q 1159 2381 1159 1747 
Q 1159 1113 1420 752 
Q 1681 391 2138 391 
Q 2594 391 2855 752 
Q 3116 1113 3116 1747 
z
M 1159 2969 
Q 1341 3281 1617 3432 
Q 1894 3584 2278 3584 
Q 2916 3584 3314 3078 
Q 3713 2572 3713 1747 
Q 3713 922 3314 415 
Q 2916 -91 2278 -91 
Q 1894 -91 1617 61 
Q 1341 213 1159 525 
L 1159 0 
L 581 0 
L 581 4863 
L 1159 4863 
L 1159 2969 
z
" transform="scale(0.015625)"/>
       </defs>
       <use xlink:href="#DejaVuSans-46"/>
       <use xlink:href="#DejaVuSans-65" transform="translate(52.019531 0)"/>
       <use xlink:href="#DejaVuSans-62" transform="translate(113.542969 0)"/>
      </g>
     </g>
    </g>
    <g id="xtick_3">
     <g id="line2d_3">
      <g>
       <use xlink:href="#mefc83fad5d" x="110.050732" y="261.56" style="stroke: #000000; stroke-width: 0.8"/>
      </g>
     </g>
     <g id="text_3">
      <!-- Mar -->
      <g transform="translate(100.617138 276.158437) scale(0.1 -0.1)">
       <defs>
        <path id="DejaVuSans-4d" d="M 628 4666 
L 1569 4666 
L 2759 1491 
L 3956 4666 
L 4897 4666 
L 4897 0 
L 4281 0 
L 4281 4097 
L 3078 897 
L 2444 897 
L 1241 4097 
L 1241 0 
L 628 0 
L 628 4666 
z
" transform="scale(0.015625)"/>
        <path id="DejaVuSans-72" d="M 2631 2963 
Q 2534 3019 2420 3045 
Q 2306 3072 2169 3072 
Q 1681 3072 1420 2755 
Q 1159 2438 1159 1844 
L 1159 0 
L 581 0 
L 581 3500 
L 1159 3500 
L 1159 2956 
Q 1341 3275 1631 3429 
Q 1922 3584 2338 3584 
Q 2397 3584 2469 3576 
Q 2541 3569 2628 3553 
L 2631 2963 
z
" transform="scale(0.015625)"/>
       </defs>
       <use xlink:href="#DejaVuSans-4d"/>
       <use xlink:href="#DejaVuSans-61" transform="translate(86.279297 0)"/>
       <use xlink:href="#DejaVuSans-72" transform="translate(147.558594 0)"/>
      </g>
     </g>
    </g>
    <g id="xtick_4">
     <g id="line2d_4">
      <g>
       <use xlink:href="#mefc83fad5d" x="136.002616" y="261.56" style="stroke: #000000; stroke-width: 0.8"/>
      </g>
     </g>
     <g id="text_4">
      <!-- Apr -->
      <g transform="translate(127.352616 276.158437) scale(0.1 -0.1)">
       <defs>
        <path id="DejaVuSans-41" d="M 2188 4044 
L 1331 1722 
L 3047 1722 
L 2188 4044 
z
M 1831 4666 
L 2547 4666 
L 4325 0 
L 3669 0 
L 3244 1197 
L 1141 1197 
L 716 0 
L 50 0 
L 1831 4666 
z
" transform="scale(0.015625)"/>
        <path id="DejaVuSans-70" d="M 1159 525 
L 1159 -1331 
L 581 -1331 
L 581 3500 
L 1159 3500 
L 1159 2969 
Q 1341 3281 1617 3432 
Q 1894 3584 2278 3584 
Q 2916 3584 3314 3078 
Q 3713 2572 3713 1747 
Q 3713 922 3314 415 
Q 2916 -91 2278 -91 
Q 1894 -91 1617 61 
Q 1341 213 1159 525 
z
M 3116 1747 
Q 3116 2381 2855 2742 
Q 2594 3103 2138 3103 
Q 1681 3103 1420 2742 
Q 1159 2381 1159 1747 
Q 1159 1113 1420 752 
Q 1681 391 2138 391 
Q 2594 391 2855 752 
Q 3116 1113 3116 1747 
z
" transform="scale(0.015625)"/>
       </defs>
       <use xlink:href="#DejaVuSans-41"/>
       <use xlink:href="#DejaVuSans-70" transform="translate(68.408203 0)"/>
       <use xlink:href="#DejaVuSans-72" transform="translate(131.884766 0)"/>
      </g>
     </g>
    </g>
    <g id="xtick_5">
     <g id="line2d_5">
      <g>
       <use xlink:href="#mefc83fad5d" x="161.117342" y="261.56" style="stroke: #000000; stroke-width: 0.8"/>
      </g>
     </g>
     <g id="text_5">
      <!-- May -->
      <g transform="translate(150.779842 276.158437) scale(0.1 -0.1)">
       <defs>
        <path id="DejaVuSans-79" d="M 2059 -325 
Q 1816 -950 1584 -1140 
Q 1353 -1331 966 -1331 
L 506 -1331 
L 506 -850 
L 844 -850 
Q 1081 -850 1212 -737 
Q 1344 -625 1503 -206 
L 1606 56 
L 191 3500 
L 800 3500 
L 1894 763 
L 2988 3500 
L 3597 3500 
L 2059 -325 
z
" transform="scale(0.015625)"/>
       </defs>
       <use xlink:href="#DejaVuSans-4d"/>
       <use xlink:href="#DejaVuSans-61" transform="translate(86.279297 0)"/>
       <use xlink:href="#DejaVuSans-79" transform="translate(147.558594 0)"/>
      </g>
     </g>
    </g>
    <g id="xtick_6">
     <g id="line2d_6">
      <g>
       <use xlink:href="#mefc83fad5d" x="187.069225" y="261.56" style="stroke: #000000; stroke-width: 0.8"/>
      </g>
     </g>
     <g id="text_6">
      <!-- Jun -->
      <g transform="translate(179.256725 276.158437) scale(0.1 -0.1)">
       <defs>
        <path id="DejaVuSans-75" d="M 544 1381 
L 544 3500 
L 1119 3500 
L 1119 1403 
Q 1119 906 1312 657 
Q 1506 409 1894 409 
Q 2359 409 2629 706 
Q 2900 1003 2900 1516 
L 2900 3500 
L 3475 3500 
L 3475 0 
L 2900 0 
L 2900 538 
Q 2691 219 2414 64 
Q 2138 -91 1772 -91 
Q 1169 -91 856 284 
Q 544 659 544 1381 
z
M 1991 3584 
L 1991 3584 
z
" transform="scale(0.015625)"/>
       </defs>
       <use xlink:href="#DejaVuSans-4a"/>
       <use xlink:href="#DejaVuSans-75" transform="translate(29.492188 0)"/>
       <use xlink:href="#DejaVuSans-6e" transform="translate(92.871094 0)"/>
      </g>
     </g>
    </g>
    <g id="xtick_7">
     <g id="line2d_7">
      <g>
       <use xlink:href="#mefc83fad5d" x="212.183951" y="261.56" style="stroke: #000000; stroke-width: 0.8"/>
      </g>
     </g>
     <g id="text_7">
      <!-- Jul -->
      <g transform="translate(206.151139 276.158437) scale(0.1 -0.1)">
       <defs>
        <path id="DejaVuSans-6c" d="M 603 4863 
L 1178 4863 
L 1178 0 
L 603 0 
L 603 4863 
z
" transform="scale(0.015625)"/>
       </defs>
       <use xlink:href="#DejaVuSans-4a"/>
       <use xlink:href="#DejaVuSans-75" transform="translate(29.492188 0)"/>
       <use xlink:href="#DejaVuSans-6c" transform="translate(92.871094 0)"/>
      </g>
     </g>
    </g>
    <g id="xtick_8">
     <g id="line2d_8">
      <g>
       <use xlink:href="#mefc83fad5d" x="238.135835" y="261.56" style="stroke: #000000; stroke-width: 0.8"/>
      </g>
     </g>
     <g id="text_8">
      <!-- Aug -->
      <g transform="translate(228.372554 276.158437) scale(0.1 -0.1)">
       <defs>
        <path id="DejaVuSans-67" d="M 2906 1791 
Q 2906 2416 2648 2759 
Q 2391 3103 1925 3103 
Q 1463 3103 1205 2759 
Q 947 2416 947 1791 
Q 947 1169 1205 825 
Q 1463 481 1925 481 
Q 2391 481 2648 825 
Q 2906 1169 2906 1791 
z
M 3481 434 
Q 3481 -459 3084 -895 
Q 2688 -1331 1869 -1331 
Q 1566 -1331 1297 -1286 
Q 1028 -1241 775 -1147 
L 775 -588 
Q 1028 -725 1275 -790 
Q 1522 -856 1778 -856 
Q 2344 -856 2625 -561 
Q 2906 -266 2906 331 
L 2906 616 
Q 2728 306 2450 153 
Q 2172 0 1784 0 
Q 1141 0 747 490 
Q 353 981 353 1791 
Q 353 2603 747 3093 
Q 1141 3584 1784 3584 
Q 2172 3584 2450 3431 
Q 2728 3278 2906 2969 
L 2906 3500 
L 3481 3500 
L 3481 434 
z
" transform="scale(0.015625)"/>
       </defs>
       <use xlink:href="#DejaVuSans-41"/>
       <use xlink:href="#DejaVuSans-75" transform="translate(68.408203 0)"/>
       <use xlink:href="#DejaVuSans-67" transform="translate(131.787109 0)"/>
      </g>
     </g>
    </g>
    <g id="xtick_9">
     <g id="line2d_9">
      <g>
       <use xlink:href="#mefc83fad5d" x="264.087718" y="261.56" style="stroke: #000000; stroke-width: 0.8"/>
      </g>
     </g>
     <g id="text_9">
      <!-- Sep -->
      <g transform="translate(254.662718 276.158437) scale(0.1 -0.1)">
       <defs>
        <path id="DejaVuSans-53" d="M 3425 4513 
L 3425 3897 
Q 3066 4069 2747 4153 
Q 2428 4238 2131 4238 
Q 1616 4238 1336 4038 
Q 1056 3838 1056 3469 
Q 1056 3159 1242 3001 
Q 1428 2844 1947 2747 
L 2328 2669 
Q 3034 2534 3370 2195 
Q 3706 1856 3706 1288 
Q 3706 609 3251 259 
Q 2797 -91 1919 -91 
Q 1588 -91 1214 -16 
Q 841 59 441 206 
L 441 856 
Q 825 641 1194 531 
Q 1563 422 1919 422 
Q 2459 422 2753 634 
Q 3047 847 3047 1241 
Q 3047 1584 2836 1778 
Q 2625 1972 2144 2069 
L 1759 2144 
Q 1053 2284 737 2584 
Q 422 2884 422 3419 
Q 422 4038 858 4394 
Q 1294 4750 2059 4750 
Q 2388 4750 2728 4690 
Q 3069 4631 3425 4513 
z
" transform="scale(0.015625)"/>
       </defs>
       <use xlink:href="#DejaVuSans-53"/>
       <use xlink:href="#DejaVuSans-65" transform="translate(63.476562 0)"/>
       <use xlink:href="#DejaVuSans-70" transform="translate(125 0)"/>
      </g>
     </g>
    </g>
    <g id="xtick_10">
     <g id="line2d_10">
      <g>
       <use xlink:href="#mefc83fad5d" x="289.202444" y="261.56" style="stroke: #000000; stroke-width: 0.8"/>
      </g>
     </g>
     <g id="text_10">
      <!-- Oct -->
      <g transform="translate(280.557132 276.158437) scale(0.1 -0.1)">
       <defs>
        <path id="DejaVuSans-4f" d="M 2522 4238 
Q 1834 4238 1429 3725 
Q 1025 3213 1025 2328 
Q 1025 1447 1429 934 
Q 1834 422 2522 422 
Q 3209 422 3611 934 
Q 4013 1447 4013 2328 
Q 4013 3213 3611 3725 
Q 3209 4238 2522 4238 
z
M 2522 4750 
Q 3503 4750 4090 4092 
Q 4678 3434 4678 2328 
Q 4678 1225 4090 567 
Q 3503 -91 2522 -91 
Q 1538 -91 948 565 
Q 359 1222 359 2328 
Q 359 3434 948 4092 
Q 1538 4750 2522 4750 
z
" transform="scale(0.015625)"/>
        <path id="DejaVuSans-63" d="M 3122 3366 
L 3122 2828 
Q 2878 2963 2633 3030 
Q 2388 3097 2138 3097 
Q 1578 3097 1268 2742 
Q 959 2388 959 1747 
Q 959 1106 1268 751 
Q 1578 397 2138 397 
Q 2388 397 2633 464 
Q 2878 531 3122 666 
L 3122 134 
Q 2881 22 2623 -34 
Q 2366 -91 2075 -91 
Q 1284 -91 818 406 
Q 353 903 353 1747 
Q 353 2603 823 3093 
Q 1294 3584 2113 3584 
Q 2378 3584 2631 3529 
Q 2884 3475 3122 3366 
z
" transform="scale(0.015625)"/>
        <path id="DejaVuSans-74" d="M 1172 4494 
L 1172 3500 
L 2356 3500 
L 2356 3053 
L 1172 3053 
L 1172 1153 
Q 1172 725 1289 603 
Q 1406 481 1766 481 
L 2356 481 
L 2356 0 
L 1766 0 
Q 1100 0 847 248 
Q 594 497 594 1153 
L 594 3053 
L 172 3053 
L 172 3500 
L 594 3500 
L 594 4494 
L 1172 4494 
z
" transform="scale(0.015625)"/>
       </defs>
       <use xlink:href="#DejaVuSans-4f"/>
       <use xlink:href="#DejaVuSans-63" transform="translate(78.710938 0)"/>
       <use xlink:href="#DejaVuSans-74" transform="translate(133.691406 0)"/>
      </g>
     </g>
    </g>
    <g id="xtick_11">
     <g id="line2d_11">
      <g>
       <use xlink:href="#mefc83fad5d" x="315.154328" y="261.56" style="stroke: #000000; stroke-width: 0.8"/>
      </g>
     </g>
     <g id="text_11">
      <!-- Nov -->
      <g transform="translate(305.394953 276.158437) scale(0.1 -0.1)">
       <defs>
        <path id="DejaVuSans-4e" d="M 628 4666 
L 1478 4666 
L 3547 763 
L 3547 4666 
L 4159 4666 
L 4159 0 
L 3309 0 
L 1241 3903 
L 1241 0 
L 628 0 
L 628 4666 
z
" transform="scale(0.015625)"/>
        <path id="DejaVuSans-6f" d="M 1959 3097 
Q 1497 3097 1228 2736 
Q 959 2375 959 1747 
Q 959 1119 1226 758 
Q 1494 397 1959 397 
Q 2419 397 2687 759 
Q 2956 1122 2956 1747 
Q 2956 2369 2687 2733 
Q 2419 3097 1959 3097 
z
M 1959 3584 
Q 2709 3584 3137 3096 
Q 3566 2609 3566 1747 
Q 3566 888 3137 398 
Q 2709 -91 1959 -91 
Q 1206 -91 779 398 
Q 353 888 353 1747 
Q 353 2609 779 3096 
Q 1206 3584 1959 3584 
z
" transform="scale(0.015625)"/>
        <path id="DejaVuSans-76" d="M 191 3500 
L 800 3500 
L 1894 563 
L 2988 3500 
L 3597 3500 
L 2284 0 
L 1503 0 
L 191 3500 
z
" transform="scale(0.015625)"/>
       </defs>
       <use xlink:href="#DejaVuSans-4e"/>
       <use xlink:href="#DejaVuSans-6f" transform="translate(74.804688 0)"/>
       <use xlink:href="#DejaVuSans-76" transform="translate(135.986328 0)"/>
      </g>
     </g>
    </g>
    <g id="xtick_12">
     <g id="line2d_12">
      <g>
       <use xlink:href="#mefc83fad5d" x="340.269054" y="261.56" style="stroke: #000000; stroke-width: 0.8"/>
      </g>
     </g>
     <g id="text_12">
      <!-- Dec -->
      <g transform="translate(330.593273 276.158437) scale(0.1 -0.1)">
       <defs>
        <path id="DejaVuSans-44" d="M 1259 4147 
L 1259 519 
L 2022 519 
Q 2988 519 3436 956 
Q 3884 1394 3884 2338 
Q 3884 3275 3436 3711 
Q 2988 4147 2022 4147 
L 1259 4147 
z
M 628 4666 
L 1925 4666 
Q 3281 4666 3915 4102 
Q 4550 3538 4550 2338 
Q 4550 1131 3912 565 
Q 3275 0 1925 0 
L 628 0 
L 628 4666 
z
" transform="scale(0.015625)"/>
       </defs>
       <use xlink:href="#DejaVuSans-44"/>
       <use xlink:href="#DejaVuSans-65" transform="translate(77.001953 0)"/>
       <use xlink:href="#DejaVuSans-63" transform="translate(138.525391 0)"/>
      </g>
     </g>
    </g>
    <g id="xtick_13">
     <g id="line2d_13">
      <g>
       <use xlink:href="#mefc83fad5d" x="366.220937" y="261.56" style="stroke: #000000; stroke-width: 0.8"/>
      </g>
     </g>
     <g id="text_13">
      <!-- Jan -->
      <g transform="translate(358.513125 276.158437) scale(0.1 -0.1)">
       <use xlink:href="#DejaVuSans-4a"/>
       <use xlink:href="#DejaVuSans-61" transform="translate(29.492188 0)"/>
       <use xlink:href="#DejaVuSans-6e" transform="translate(90.771484 0)"/>
      </g>
     </g>
    </g>
   </g>
   <g id="matplotlib.axis_2">
    <g id="ytick_1">
     <g id="line2d_14">
      <path d="M 60.658438 227.346037 
L 366.220937 227.346037 
" clip-path="url(#pa124fb0f17)" style="fill: none; stroke-dasharray: 2.96,1.28; stroke-dashoffset: 0; stroke: #b0b0b0; stroke-opacity: 0.3; stroke-width: 0.8"/>
     </g>
     <g id="line2d_15">
      <defs>
       <path id="m764285b40b" d="M 0 0 
L -3.5 0 
" style="stroke: #000000; stroke-width: 0.8"/>
      </defs>
      <g>
       <use xlink:href="#m764285b40b" x="60.658438" y="227.346037" style="stroke: #000000; stroke-width: 0.8"/>
      </g>
     </g>
     <g id="text_14">
      <!-- 4000 -->
      <g transform="translate(28.208438 231.145256) scale(0.1 -0.1)">
       <defs>
        <path id="DejaVuSans-34" d="M 2419 4116 
L 825 1625 
L 2419 1625 
L 2419 4116 
z
M 2253 4666 
L 3047 4666 
L 3047 1625 
L 3713 1625 
L 3713 1100 
L 3047 1100 
L 3047 0 
L 2419 0 
L 2419 1100 
L 313 1100 
L 313 1709 
L 2253 4666 
z
" transform="scale(0.015625)"/>
        <path id="DejaVuSans-30" d="M 2034 4250 
Q 1547 4250 1301 3770 
Q 1056 3291 1056 2328 
Q 1056 1369 1301 889 
Q 1547 409 2034 409 
Q 2525 409 2770 889 
Q 3016 1369 3016 2328 
Q 3016 3291 2770 3770 
Q 2525 4250 2034 4250 
z
M 2034 4750 
Q 2819 4750 3233 4129 
Q 3647 3509 3647 2328 
Q 3647 1150 3233 529 
Q 2819 -91 2034 -91 
Q 1250 -91 836 529 
Q 422 1150 422 2328 
Q 422 3509 836 4129 
Q 1250 4750 2034 4750 
z
" transform="scale(0.015625)"/>
       </defs>
       <use xlink:href="#DejaVuSans-34"/>
       <use xlink:href="#DejaVuSans-30" transform="translate(63.623047 0)"/>
       <use xlink:href="#DejaVuSans-30" transform="translate(127.246094 0)"/>
       <use xlink:href="#DejaVuSans-30" transform="translate(190.869141 0)"/>
      </g>
     </g>
    </g>
    <g id="ytick_2">
     <g id="line2d_16">
      <path d="M 60.658438 192.479193 
L 366.220937 192.479193 
" clip-path="url(#pa124fb0f17)" style="fill: none; stroke-dasharray: 2.96,1.28; stroke-dashoffset: 0; stroke: #b0b0b0; stroke-opacity: 0.3; stroke-width: 0.8"/>
     </g>
     <g id="line2d_17">
      <g>
       <use xlink:href="#m764285b40b" x="60.658438" y="192.479193" style="stroke: #000000; stroke-width: 0.8"/>
      </g>
     </g>
     <g id="text_15">
      <!-- 6000 -->
      <g transform="translate(28.208438 196.278412) scale(0.1 -0.1)">
       <defs>
        <path id="DejaVuSans-36" d="M 2113 2584 
Q 1688 2584 1439 2293 
Q 1191 2003 1191 1497 
Q 1191 994 1439 701 
Q 1688 409 2113 409 
Q 2538 409 2786 701 
Q 3034 994 3034 1497 
Q 3034 2003 2786 2293 
Q 2538 2584 2113 2584 
z
M 3366 4563 
L 3366 3988 
Q 3128 4100 2886 4159 
Q 2644 4219 2406 4219 
Q 1781 4219 1451 3797 
Q 1122 3375 1075 2522 
Q 1259 2794 1537 2939 
Q 1816 3084 2150 3084 
Q 2853 3084 3261 2657 
Q 3669 2231 3669 1497 
Q 3669 778 3244 343 
Q 2819 -91 2113 -91 
Q 1303 -91 875 529 
Q 447 1150 447 2328 
Q 447 3434 972 4092 
Q 1497 4750 2381 4750 
Q 2619 4750 2861 4703 
Q 3103 4656 3366 4563 
z
" transform="scale(0.015625)"/>
       </defs>
       <use xlink:href="#DejaVuSans-36"/>
       <use xlink:href="#DejaVuSans-30" transform="translate(63.623047 0)"/>
       <use xlink:href="#DejaVuSans-30" transform="translate(127.246094 0)"/>
       <use xlink:href="#DejaVuSans-30" transform="translate(190.869141 0)"/>
      </g>
     </g>
    </g>
    <g id="ytick_3">
     <g id="line2d_18">
      <path d="M 60.658438 157.612349 
L 366.220937 157.612349 
" clip-path="url(#pa124fb0f17)" style="fill: none; stroke-dasharray: 2.96,1.28; stroke-dashoffset: 0; stroke: #b0b0b0; stroke-opacity: 0.3; stroke-width: 0.8"/>
     </g>
     <g id="line2d_19">
      <g>
       <use xlink:href="#m764285b40b" x="60.658438" y="157.612349" style="stroke: #000000; stroke-width: 0.8"/>
      </g>
     </g>
     <g id="text_16">
      <!-- 8000 -->
      <g transform="translate(28.208438 161.411567) scale(0.1 -0.1)">
       <defs>
        <path id="DejaVuSans-38" d="M 2034 2216 
Q 1584 2216 1326 1975 
Q 1069 1734 1069 1313 
Q 1069 891 1326 650 
Q 1584 409 2034 409 
Q 2484 409 2743 651 
Q 3003 894 3003 1313 
Q 3003 1734 2745 1975 
Q 2488 2216 2034 2216 
z
M 1403 2484 
Q 997 2584 770 2862 
Q 544 3141 544 3541 
Q 544 4100 942 4425 
Q 1341 4750 2034 4750 
Q 2731 4750 3128 4425 
Q 3525 4100 3525 3541 
Q 3525 3141 3298 2862 
Q 3072 2584 2669 2484 
Q 3125 2378 3379 2068 
Q 3634 1759 3634 1313 
Q 3634 634 3220 271 
Q 2806 -91 2034 -91 
Q 1263 -91 848 271 
Q 434 634 434 1313 
Q 434 1759 690 2068 
Q 947 2378 1403 2484 
z
M 1172 3481 
Q 1172 3119 1398 2916 
Q 1625 2713 2034 2713 
Q 2441 2713 2670 2916 
Q 2900 3119 2900 3481 
Q 2900 3844 2670 4047 
Q 2441 4250 2034 4250 
Q 1625 4250 1398 4047 
Q 1172 3844 1172 3481 
z
" transform="scale(0.015625)"/>
       </defs>
       <use xlink:href="#DejaVuSans-38"/>
       <use xlink:href="#DejaVuSans-30" transform="translate(63.623047 0)"/>
       <use xlink:href="#DejaVuSans-30" transform="translate(127.246094 0)"/>
       <use xlink:href="#DejaVuSans-30" transform="translate(190.869141 0)"/>
      </g>
     </g>
    </g>
    <g id="ytick_4">
     <g id="line2d_20">
      <path d="M 60.658438 122.745504 
L 366.220937 122.745504 
" clip-path="url(#pa124fb0f17)" style="fill: none; stroke-dasharray: 2.96,1.28; stroke-dashoffset: 0; stroke: #b0b0b0; stroke-opacity: 0.3; stroke-width: 0.8"/>
     </g>
     <g id="line2d_21">
      <g>
       <use xlink:href="#m764285b40b" x="60.658438" y="122.745504" style="stroke: #000000; stroke-width: 0.8"/>
      </g>
     </g>
     <g id="text_17">
      <!-- 10000 -->
      <g transform="translate(21.845938 126.544723) scale(0.1 -0.1)">
       <defs>
        <path id="DejaVuSans-31" d="M 794 531 
L 1825 531 
L 1825 4091 
L 703 3866 
L 703 4441 
L 1819 4666 
L 2450 4666 
L 2450 531 
L 3481 531 
L 3481 0 
L 794 0 
L 794 531 
z
" transform="scale(0.015625)"/>
       </defs>
       <use xlink:href="#DejaVuSans-31"/>
       <use xlink:href="#DejaVuSans-30" transform="translate(63.623047 0)"/>
       <use xlink:href="#DejaVuSans-30" transform="translate(127.246094 0)"/>
       <use xlink:href="#DejaVuSans-30" transform="translate(190.869141 0)"/>
       <use xlink:href="#DejaVuSans-30" transform="translate(254.492188 0)"/>
      </g>
     </g>
    </g>
    <g id="ytick_5">
     <g id="line2d_22">
      <path d="M 60.658438 87.87866 
L 366.220937 87.87866 
" clip-path="url(#pa124fb0f17)" style="fill: none; stroke-dasharray: 2.96,1.28; stroke-dashoffset: 0; stroke: #b0b0b0; stroke-opacity: 0.3; stroke-width: 0.8"/>
     </g>
     <g id="line2d_23">
      <g>
       <use xlink:href="#m764285b40b" x="60.658438" y="87.87866" style="stroke: #000000; stroke-width: 0.8"/>
      </g>
     </g>
     <g id="text_18">
      <!-- 12000 -->
      <g transform="translate(21.845938 91.677879) scale(0.1 -0.1)">
       <defs>
        <path id="DejaVuSans-32" d="M 1228 531 
L 3431 531 
L 3431 0 
L 469 0 
L 469 531 
Q 828 903 1448 1529 
Q 2069 2156 2228 2338 
Q 2531 2678 2651 2914 
Q 2772 3150 2772 3378 
Q 2772 3750 2511 3984 
Q 2250 4219 1831 4219 
Q 1534 4219 1204 4116 
Q 875 4013 500 3803 
L 500 4441 
Q 881 4594 1212 4672 
Q 1544 4750 1819 4750 
Q 2544 4750 2975 4387 
Q 3406 4025 3406 3419 
Q 3406 3131 3298 2873 
Q 3191 2616 2906 2266 
Q 2828 2175 2409 1742 
Q 1991 1309 1228 531 
z
" transform="scale(0.015625)"/>
       </defs>
       <use xlink:href="#DejaVuSans-31"/>
       <use xlink:href="#DejaVuSans-32" transform="translate(63.623047 0)"/>
       <use xlink:href="#DejaVuSans-30" transform="translate(127.246094 0)"/>
       <use xlink:href="#DejaVuSans-30" transform="translate(190.869141 0)"/>
       <use xlink:href="#DejaVuSans-30" transform="translate(254.492188 0)"/>
      </g>
     </g>
    </g>
    <g id="text_19">
     <!-- Daily pedestrian count -->
     <g transform="translate(15.558281 220.247656) rotate(-90) scale(0.11 -0.11)">
      <defs>
       <path id="DejaVuSans-69" d="M 603 3500 
L 1178 3500 
L 1178 0 
L 603 0 
L 603 3500 
z
M 603 4863 
L 1178 4863 
L 1178 4134 
L 603 4134 
L 603 4863 
z
" transform="scale(0.015625)"/>
       <path id="DejaVuSans-20" transform="scale(0.015625)"/>
       <path id="DejaVuSans-64" d="M 2906 2969 
L 2906 4863 
L 3481 4863 
L 3481 0 
L 2906 0 
L 2906 525 
Q 2725 213 2448 61 
Q 2172 -91 1784 -91 
Q 1150 -91 751 415 
Q 353 922 353 1747 
Q 353 2572 751 3078 
Q 1150 3584 1784 3584 
Q 2172 3584 2448 3432 
Q 2725 3281 2906 2969 
z
M 947 1747 
Q 947 1113 1208 752 
Q 1469 391 1925 391 
Q 2381 391 2643 752 
Q 2906 1113 2906 1747 
Q 2906 2381 2643 2742 
Q 2381 3103 1925 3103 
Q 1469 3103 1208 2742 
Q 947 2381 947 1747 
z
" transform="scale(0.015625)"/>
       <path id="DejaVuSans-73" d="M 2834 3397 
L 2834 2853 
Q 2591 2978 2328 3040 
Q 2066 3103 1784 3103 
Q 1356 3103 1142 2972 
Q 928 2841 928 2578 
Q 928 2378 1081 2264 
Q 1234 2150 1697 2047 
L 1894 2003 
Q 2506 1872 2764 1633 
Q 3022 1394 3022 966 
Q 3022 478 2636 193 
Q 2250 -91 1575 -91 
Q 1294 -91 989 -36 
Q 684 19 347 128 
L 347 722 
Q 666 556 975 473 
Q 1284 391 1588 391 
Q 1994 391 2212 530 
Q 2431 669 2431 922 
Q 2431 1156 2273 1281 
Q 2116 1406 1581 1522 
L 1381 1569 
Q 847 1681 609 1914 
Q 372 2147 372 2553 
Q 372 3047 722 3315 
Q 1072 3584 1716 3584 
Q 2034 3584 2315 3537 
Q 2597 3491 2834 3397 
z
" transform="scale(0.015625)"/>
      </defs>
      <use xlink:href="#DejaVuSans-44"/>
      <use xlink:href="#DejaVuSans-61" transform="translate(77.001953 0)"/>
      <use xlink:href="#DejaVuSans-69" transform="translate(138.28125 0)"/>
      <use xlink:href="#DejaVuSans-6c" transform="translate(166.064453 0)"/>
      <use xlink:href="#DejaVuSans-79" transform="translate(193.847656 0)"/>
      <use xlink:href="#DejaVuSans-20" transform="translate(253.027344 0)"/>
      <use xlink:href="#DejaVuSans-70" transform="translate(284.814453 0)"/>
      <use xlink:href="#DejaVuSans-65" transform="translate(348.291016 0)"/>
      <use xlink:href="#DejaVuSans-64" transform="translate(409.814453 0)"/>
      <use xlink:href="#DejaVuSans-65" transform="translate(473.291016 0)"/>
      <use xlink:href="#DejaVuSans-73" transform="translate(534.814453 0)"/>
      <use xlink:href="#DejaVuSans-74" transform="translate(586.914062 0)"/>
      <use xlink:href="#DejaVuSans-72" transform="translate(626.123047 0)"/>
      <use xlink:href="#DejaVuSans-69" transform="translate(667.236328 0)"/>
      <use xlink:href="#DejaVuSans-61" transform="translate(695.019531 0)"/>
      <use xlink:href="#DejaVuSans-6e" transform="translate(756.298828 0)"/>
      <use xlink:href="#DejaVuSans-20" transform="translate(819.677734 0)"/>
      <use xlink:href="#DejaVuSans-63" transform="translate(851.464844 0)"/>
      <use xlink:href="#DejaVuSans-6f" transform="translate(906.445312 0)"/>
      <use xlink:href="#DejaVuSans-75" transform="translate(967.626953 0)"/>
      <use xlink:href="#DejaVuSans-6e" transform="translate(1031.005859 0)"/>
      <use xlink:href="#DejaVuSans-74" transform="translate(1094.384766 0)"/>
     </g>
    </g>
   </g>
   <g id="line2d_24">
    <path d="M 61.495595 252.136364 
L 62.332753 234.188655 
L 63.16991 230.321341 
L 64.007068 233.709236 
L 66.51854 237.928125 
L 67.355698 235.731513 
L 68.192855 230.551296 
L 69.030013 229.466377 
L 69.86717 229.207539 
L 72.378643 232.842795 
L 73.215801 231.803763 
L 74.052958 232.227395 
L 74.890116 234.300229 
L 75.727273 233.036306 
L 78.238746 233.604636 
L 80.750218 238.801539 
L 81.587376 241.099264 
L 84.098848 240.747109 
L 84.936006 241.015584 
L 85.773164 243.287159 
L 86.610321 241.970935 
L 87.447479 241.648417 
L 89.958951 241.404349 
L 90.796109 241.02953 
L 91.633266 242.722316 
L 92.470424 242.453841 
L 93.307581 240.286867 
L 96.656211 239.542459 
L 97.493369 237.232531 
L 98.330527 236.679892 
L 99.167684 235.973838 
L 101.679157 235.850061 
L 102.516314 235.332288 
L 103.353472 233.248994 
L 104.190629 231.747976 
L 105.027787 230.625264 
L 107.539259 230.436983 
L 108.376417 228.683181 
L 109.213574 227.630202 
L 110.050732 228.62042 
L 110.88789 230.219065 
L 113.399362 229.309041 
L 114.23652 229.411898 
L 115.073677 229.061486 
L 115.910835 229.038823 
L 116.747992 229.678629 
L 119.259465 229.86168 
L 120.096622 230.292286 
L 120.93378 231.742746 
L 121.770938 230.628751 
L 122.608095 229.213157 
L 125.119568 230.175482 
L 125.956725 230.159792 
L 126.793883 231.291221 
L 127.63104 231.690446 
L 128.468198 231.629429 
L 131.816828 232.021681 
L 132.653985 233.601149 
L 134.328301 234.002118 
L 136.839773 233.843474 
L 137.676931 233.092093 
L 138.514088 235.562409 
L 139.351246 235.70885 
L 140.188403 235.358438 
L 143.537033 234.809285 
L 144.374191 233.212384 
L 145.211348 232.961343 
L 146.048506 232.018194 
L 148.559979 231.575386 
L 149.397136 231.73403 
L 150.234294 228.845312 
L 151.071451 226.981679 
L 151.908609 229.408411 
L 155.257239 230.027298 
L 156.094396 229.671656 
L 156.931554 232.581294 
L 157.768711 233.599406 
L 160.280184 234.213062 
L 161.117342 234.709915 
L 161.954499 235.386332 
L 162.791657 237.938585 
L 163.628814 235.728027 
L 166.140287 235.769867 
L 166.977444 236.062748 
L 167.814602 237.09132 
L 168.651759 235.632143 
L 169.488917 237.851417 
L 172.00039 237.888028 
L 172.837547 237.75379 
L 173.674705 240.187496 
L 177.860492 238.737035 
L 178.69765 238.484251 
L 179.534807 240.640765 
L 180.371965 239.845801 
L 181.209122 238.203573 
L 183.720595 238.581878 
L 184.557753 238.827689 
L 185.39491 240.248513 
L 186.232068 241.273598 
L 187.069225 242.93326 
L 189.580698 244.097813 
L 190.417855 244.022849 
L 191.255013 240.096842 
L 192.09217 240.009675 
L 192.929328 238.555728 
L 195.440801 237.962991 
L 196.277958 237.630013 
L 197.115116 234.082312 
L 197.952273 233.201924 
L 201.300903 231.842117 
L 202.138061 233.146137 
L 202.975218 233.995145 
L 203.812376 235.79253 
L 204.649533 236.875146 
L 207.161006 237.208124 
L 207.998164 236.831562 
L 208.835321 231.763666 
L 209.672479 231.341778 
L 210.509636 229.837273 
L 213.021109 229.995917 
L 213.858266 228.608217 
L 214.695424 221.687148 
L 215.532581 218.899544 
L 216.369739 216.547776 
L 218.881211 216.261867 
L 219.718369 216.319398 
L 220.555527 216.619253 
L 221.392684 216.512909 
L 222.229842 217.307873 
L 224.741314 217.768115 
L 225.578472 218.223127 
L 226.415629 222.539643 
L 227.252787 222.959788 
L 228.089944 224.147004 
L 230.601417 224.272525 
L 231.438574 225.457998 
L 232.275732 225.524245 
L 233.11289 225.703809 
L 233.950047 226.51272 
L 236.46152 226.036787 
L 237.298677 225.478918 
L 238.135835 225.19824 
L 238.972992 226.026327 
L 239.81015 226.298289 
L 243.15878 225.958337 
L 243.995938 228.57858 
L 244.833095 229.352624 
L 245.670253 229.643762 
L 249.018883 229.907007 
L 249.85604 228.983036 
L 250.693198 228.268265 
L 251.530355 229.000469 
L 254.041828 228.913302 
L 255.716143 227.119403 
L 256.553301 225.529475 
L 257.390458 222.231071 
L 259.901931 221.844049 
L 260.739088 222.095091 
L 261.576246 225.111073 
L 262.413403 225.567828 
L 263.250561 224.839111 
L 265.762033 225.332477 
L 266.599191 224.317852 
L 267.436348 229.333447 
L 268.273506 229.628072 
L 269.110664 231.692189 
L 271.622136 232.40696 
L 272.459294 232.126282 
L 273.296451 235.018486 
L 274.133609 234.050931 
L 274.970766 233.655193 
L 277.482239 232.949139 
L 278.319396 233.369285 
L 279.156554 229.577515 
L 279.993711 229.445021 
L 280.830869 229.064973 
L 297.57402 225.707296 
L 298.411177 218.75136 
L 300.92265 229.676305 
L 301.759807 228.156691 
L 303.434122 231.38478 
L 304.27128 229.475405 
L 306.782753 231.987686 
L 307.61991 230.75524 
L 308.457068 228.873205 
L 309.294225 228.662261 
L 310.131383 229.643762 
L 312.642855 229.132963 
L 313.480013 229.826813 
L 314.31717 229.821583 
L 315.154328 228.902842 
L 315.991485 229.354368 
L 318.502958 226.341872 
L 319.340116 228.141001 
L 320.177273 231.104683 
L 321.014431 232.255289 
L 321.851588 232.940422 
L 324.363061 232.724248 
L 325.200218 231.502165 
L 326.037376 231.711366 
L 326.874533 228.911559 
L 327.711691 226.772478 
L 330.223164 228.916789 
L 331.897479 223.020805 
L 333.571794 220.684727 
L 336.083266 221.218189 
L 336.920424 222.588456 
L 337.757581 219.772959 
L 338.594739 221.253056 
L 339.431896 223.165503 
L 341.943369 224.396302 
L 342.780527 226.176255 
L 343.617684 226.871848 
L 344.454842 226.915432 
L 345.291999 227.419258 
L 347.803472 228.402503 
L 348.640629 227.100226 
L 349.477787 228.397273 
L 350.314944 228.679694 
L 351.152102 228.001534 
L 353.663574 227.855093 
L 354.500732 227.546522 
L 355.33789 228.360662 
L 356.175047 227.982357 
L 357.012205 230.360276 
L 360.360835 224.434656 
L 361.197992 228.142745 
L 362.03515 230.564247 
L 362.872307 230.327152 
L 365.38378 231.535289 
L 366.220937 228.909815 
L 366.220937 228.909815 
" clip-path="url(#pa124fb0f17)" style="fill: none; stroke: #f36d43; stroke-opacity: 0.5; stroke-width: 1.5; stroke-linecap: square"/>
   </g>
   <g id="line2d_25">
    <path d="M 64.844225 213.486467 
L 65.681383 207.803171 
L 70.704328 207.559103 
L 71.541485 208.443849 
L 76.564431 205.793969 
L 77.401588 206.399781 
L 82.424533 208.212856 
L 83.261691 207.214793 
L 88.284636 212.514553 
L 89.121794 219.33538 
L 94.144739 221.388165 
L 94.981896 223.013832 
L 100.004842 218.019156 
L 100.841999 210.766853 
L 105.864944 204.739247 
L 106.702102 204.33392 
L 111.725047 209.808015 
L 112.562205 213.778476 
L 117.58515 213.495183 
L 118.422307 212.654021 
L 123.445253 207.179926 
L 124.28241 204.33392 
L 129.305355 209.062736 
L 130.142513 205.423509 
L 135.165458 210.48356 
L 136.002616 213.124723 
L 141.025561 210.256925 
L 141.862718 206.325688 
L 146.885664 199.099535 
L 147.722821 192.422534 
L 152.745766 188.146987 
L 153.582924 195.5344 
L 158.605869 199.727138 
L 159.443027 206.547965 
L 164.465972 213.368791 
L 165.303129 214.48453 
L 170.326074 213.608501 
L 171.163232 214.318913 
L 176.186177 211.132955 
L 177.023335 209.006077 
L 182.04628 208.979927 
L 182.883438 206.722299 
L 187.906383 208.234648 
L 188.74354 211.241914 
L 193.766485 208.888402 
L 194.603643 203.196389 
L 199.626588 202.193967 
L 200.463746 201.134887 
L 205.486691 204.216244 
L 206.323848 209.511646 
L 211.346794 217.016735 
L 212.183951 214.942157 
L 217.206896 206.809466 
L 218.044054 204.538763 
L 223.066999 197.909704 
L 223.904157 202.608011 
L 228.927102 207.528595 
L 229.764259 207.572178 
L 234.787205 201.174112 
L 235.624362 195.442875 
L 240.647307 197.848687 
L 241.484465 199.35232 
L 246.50741 208.792518 
L 247.344568 211.62109 
L 252.367513 203.418665 
L 253.20467 205.593485 
L 258.227616 199.469995 
L 259.064773 196.162003 
L 264.087718 201.967333 
L 264.924876 201.200262 
L 269.947821 205.257891 
L 270.784979 210.466126 
L 275.807924 209.058377 
L 276.645081 209.319879 
L 281.668027 210.152325 
L 282.505184 203.052563 
L 299.248335 171.280152 
L 300.085492 185.427374 
L 305.108437 192.113091 
L 305.945595 196.026894 
L 310.96854 206.648207 
L 311.805698 207.254018 
L 316.828643 215.129567 
L 317.665801 215.556686 
L 322.688746 215.534894 
L 323.525903 216.951359 
L 328.548848 202.185251 
L 329.386006 195.068056 
L 334.408951 192.304859 
L 335.246109 190.413332 
L 340.269054 195.77411 
L 341.106211 206.103412 
L 346.129157 205.327625 
L 346.966314 206.992517 
L 351.989259 208.897118 
L 352.826417 204.852564 
L 357.849362 203.797842 
L 358.68652 200.280649 
L 363.709465 200.459342 
L 364.546622 201.962975 
" clip-path="url(#pa124fb0f17)" style="fill: none; stroke: #83c966; stroke-opacity: 0.5; stroke-width: 1.5; stroke-linecap: square"/>
   </g>
   <g id="line2d_26">
    <path d="M 60.658438 224.925162 
L 366.220937 224.925162 
" clip-path="url(#pa124fb0f17)" style="fill: none; stroke-dasharray: 7.4,3.2; stroke-dashoffset: 0; stroke: #f36d43; stroke-width: 2"/>
   </g>
   <g id="line2d_27">
    <path d="M 60.658438 197.148001 
L 366.220937 197.148001 
" clip-path="url(#pa124fb0f17)" style="fill: none; stroke-dasharray: 7.4,3.2; stroke-dashoffset: 0; stroke: #83c966; stroke-width: 2"/>
   </g>
   <g id="patch_3">
    <path d="M 60.658438 261.56 
L 60.658438 54.24 
" style="fill: none; stroke: #000000; stroke-width: 0.8; stroke-linejoin: miter; stroke-linecap: square"/>
   </g>
   <g id="patch_4">
    <path d="M 60.658438 261.56 
L 366.220937 261.56 
" style="fill: none; stroke: #000000; stroke-width: 0.8; stroke-linejoin: miter; stroke-linecap: square"/>
   </g>
   <g id="text_20">
    <!-- 2019 -->
    <g transform="translate(195.624687 48.24) scale(0.14 -0.14)">
     <defs>
      <path id="DejaVuSans-39" d="M 703 97 
L 703 672 
Q 941 559 1184 500 
Q 1428 441 1663 441 
Q 2288 441 2617 861 
Q 2947 1281 2994 2138 
Q 2813 1869 2534 1725 
Q 2256 1581 1919 1581 
Q 1219 1581 811 2004 
Q 403 2428 403 3163 
Q 403 3881 828 4315 
Q 1253 4750 1959 4750 
Q 2769 4750 3195 4129 
Q 3622 3509 3622 2328 
Q 3622 1225 3098 567 
Q 2575 -91 1691 -91 
Q 1453 -91 1209 -44 
Q 966 3 703 97 
z
M 1959 2075 
Q 2384 2075 2632 2365 
Q 2881 2656 2881 3163 
Q 2881 3666 2632 3958 
Q 2384 4250 1959 4250 
Q 1534 4250 1286 3958 
Q 1038 3666 1038 3163 
Q 1038 2656 1286 2365 
Q 1534 2075 1959 2075 
z
" transform="scale(0.015625)"/>
     </defs>
     <use xlink:href="#DejaVuSans-32"/>
     <use xlink:href="#DejaVuSans-30" transform="translate(63.623047 0)"/>
     <use xlink:href="#DejaVuSans-31" transform="translate(127.246094 0)"/>
     <use xlink:href="#DejaVuSans-39" transform="translate(190.869141 0)"/>
    </g>
   </g>
   <g id="legend_1">
    <g id="line2d_28">
     <path d="M 278.222031 66.028594 
L 287.222031 66.028594 
L 296.222031 66.028594 
" style="fill: none; stroke: #f36d43; stroke-opacity: 0.5; stroke-width: 1.5; stroke-linecap: square"/>
    </g>
    <g id="text_21">
     <!-- Weekday -->
     <g transform="translate(303.422031 69.178594) scale(0.09 -0.09)">
      <defs>
       <path id="DejaVuSans-57" d="M 213 4666 
L 850 4666 
L 1831 722 
L 2809 4666 
L 3519 4666 
L 4500 722 
L 5478 4666 
L 6119 4666 
L 4947 0 
L 4153 0 
L 3169 4050 
L 2175 0 
L 1381 0 
L 213 4666 
z
" transform="scale(0.015625)"/>
       <path id="DejaVuSans-6b" d="M 581 4863 
L 1159 4863 
L 1159 1991 
L 2875 3500 
L 3609 3500 
L 1753 1863 
L 3688 0 
L 2938 0 
L 1159 1709 
L 1159 0 
L 581 0 
L 581 4863 
z
" transform="scale(0.015625)"/>
      </defs>
      <use xlink:href="#DejaVuSans-57"/>
      <use xlink:href="#DejaVuSans-65" transform="translate(93.001953 0)"/>
      <use xlink:href="#DejaVuSans-65" transform="translate(154.525391 0)"/>
      <use xlink:href="#DejaVuSans-6b" transform="translate(216.048828 0)"/>
      <use xlink:href="#DejaVuSans-64" transform="translate(273.958984 0)"/>
      <use xlink:href="#DejaVuSans-61" transform="translate(337.435547 0)"/>
      <use xlink:href="#DejaVuSans-79" transform="translate(398.714844 0)"/>
     </g>
    </g>
    <g id="line2d_29">
     <path d="M 278.222031 79.238906 
L 287.222031 79.238906 
L 296.222031 79.238906 
" style="fill: none; stroke: #83c966; stroke-opacity: 0.5; stroke-width: 1.5; stroke-linecap: square"/>
    </g>
    <g id="text_22">
     <!-- Weekend -->
     <g transform="translate(303.422031 82.388906) scale(0.09 -0.09)">
      <use xlink:href="#DejaVuSans-57"/>
      <use xlink:href="#DejaVuSans-65" transform="translate(93.001953 0)"/>
      <use xlink:href="#DejaVuSans-65" transform="translate(154.525391 0)"/>
      <use xlink:href="#DejaVuSans-6b" transform="translate(216.048828 0)"/>
      <use xlink:href="#DejaVuSans-65" transform="translate(270.333984 0)"/>
      <use xlink:href="#DejaVuSans-6e" transform="translate(331.857422 0)"/>
      <use xlink:href="#DejaVuSans-64" transform="translate(395.236328 0)"/>
     </g>
    </g>
    <g id="line2d_30">
     <path d="M 278.222031 92.449219 
L 287.222031 92.449219 
L 296.222031 92.449219 
" style="fill: none; stroke-dasharray: 7.4,3.2; stroke-dashoffset: 0; stroke: #f36d43; stroke-width: 2"/>
    </g>
    <g id="text_23">
     <!-- Weekday Fit -->
     <g transform="translate(303.422031 95.599219) scale(0.09 -0.09)">
      <use xlink:href="#DejaVuSans-57"/>
      <use xlink:href="#DejaVuSans-65" transform="translate(93.001953 0)"/>
      <use xlink:href="#DejaVuSans-65" transform="translate(154.525391 0)"/>
      <use xlink:href="#DejaVuSans-6b" transform="translate(216.048828 0)"/>
      <use xlink:href="#DejaVuSans-64" transform="translate(273.958984 0)"/>
      <use xlink:href="#DejaVuSans-61" transform="translate(337.435547 0)"/>
      <use xlink:href="#DejaVuSans-79" transform="translate(398.714844 0)"/>
      <use xlink:href="#DejaVuSans-20" transform="translate(457.894531 0)"/>
      <use xlink:href="#DejaVuSans-46" transform="translate(489.681641 0)"/>
      <use xlink:href="#DejaVuSans-69" transform="translate(539.951172 0)"/>
      <use xlink:href="#DejaVuSans-74" transform="translate(567.734375 0)"/>
     </g>
    </g>
    <g id="line2d_31">
     <path d="M 278.222031 105.659531 
L 287.222031 105.659531 
L 296.222031 105.659531 
" style="fill: none; stroke-dasharray: 7.4,3.2; stroke-dashoffset: 0; stroke: #83c966; stroke-width: 2"/>
    </g>
    <g id="text_24">
     <!-- Weekend Fit -->
     <g transform="translate(303.422031 108.809531) scale(0.09 -0.09)">
      <use xlink:href="#DejaVuSans-57"/>
      <use xlink:href="#DejaVuSans-65" transform="translate(93.001953 0)"/>
      <use xlink:href="#DejaVuSans-65" transform="translate(154.525391 0)"/>
      <use xlink:href="#DejaVuSans-6b" transform="translate(216.048828 0)"/>
      <use xlink:href="#DejaVuSans-65" transform="translate(270.333984 0)"/>
      <use xlink:href="#DejaVuSans-6e" transform="translate(331.857422 0)"/>
      <use xlink:href="#DejaVuSans-64" transform="translate(395.236328 0)"/>
      <use xlink:href="#DejaVuSans-20" transform="translate(458.712891 0)"/>
      <use xlink:href="#DejaVuSans-46" transform="translate(490.5 0)"/>
      <use xlink:href="#DejaVuSans-69" transform="translate(540.769531 0)"/>
      <use xlink:href="#DejaVuSans-74" transform="translate(568.552734 0)"/>
     </g>
    </g>
   </g>
  </g>
  <g id="axes_2">
   <g id="patch_5">
    <path d="M 392.410937 261.56 
L 697.973437 261.56 
L 697.973437 54.24 
L 392.410937 54.24 
L 392.410937 261.56 
z
" style="fill: none"/>
   </g>
   <g id="matplotlib.axis_3">
    <g id="xtick_14">
     <g id="line2d_32">
      <g>
       <use xlink:href="#mefc83fad5d" x="392.410937" y="261.56" style="stroke: #000000; stroke-width: 0.8"/>
      </g>
     </g>
     <g id="text_25">
      <!-- Jan -->
      <g transform="translate(384.703125 276.158437) scale(0.1 -0.1)">
       <use xlink:href="#DejaVuSans-4a"/>
       <use xlink:href="#DejaVuSans-61" transform="translate(29.492188 0)"/>
       <use xlink:href="#DejaVuSans-6e" transform="translate(90.771484 0)"/>
      </g>
     </g>
    </g>
    <g id="xtick_15">
     <g id="line2d_33">
      <g>
       <use xlink:href="#mefc83fad5d" x="418.362821" y="261.56" style="stroke: #000000; stroke-width: 0.8"/>
      </g>
     </g>
     <g id="text_26">
      <!-- Feb -->
      <g transform="translate(409.511259 276.158437) scale(0.1 -0.1)">
       <use xlink:href="#DejaVuSans-46"/>
       <use xlink:href="#DejaVuSans-65" transform="translate(52.019531 0)"/>
       <use xlink:href="#DejaVuSans-62" transform="translate(113.542969 0)"/>
      </g>
     </g>
    </g>
    <g id="xtick_16">
     <g id="line2d_34">
      <g>
       <use xlink:href="#mefc83fad5d" x="441.803232" y="261.56" style="stroke: #000000; stroke-width: 0.8"/>
      </g>
     </g>
     <g id="text_27">
      <!-- Mar -->
      <g transform="translate(432.369638 276.158437) scale(0.1 -0.1)">
       <use xlink:href="#DejaVuSans-4d"/>
       <use xlink:href="#DejaVuSans-61" transform="translate(86.279297 0)"/>
       <use xlink:href="#DejaVuSans-72" transform="translate(147.558594 0)"/>
      </g>
     </g>
    </g>
    <g id="xtick_17">
     <g id="line2d_35">
      <g>
       <use xlink:href="#mefc83fad5d" x="467.755116" y="261.56" style="stroke: #000000; stroke-width: 0.8"/>
      </g>
     </g>
     <g id="text_28">
      <!-- Apr -->
      <g transform="translate(459.105116 276.158437) scale(0.1 -0.1)">
       <use xlink:href="#DejaVuSans-41"/>
       <use xlink:href="#DejaVuSans-70" transform="translate(68.408203 0)"/>
       <use xlink:href="#DejaVuSans-72" transform="translate(131.884766 0)"/>
      </g>
     </g>
    </g>
    <g id="xtick_18">
     <g id="line2d_36">
      <g>
       <use xlink:href="#mefc83fad5d" x="492.869842" y="261.56" style="stroke: #000000; stroke-width: 0.8"/>
      </g>
     </g>
     <g id="text_29">
      <!-- May -->
      <g transform="translate(482.532342 276.158437) scale(0.1 -0.1)">
       <use xlink:href="#DejaVuSans-4d"/>
       <use xlink:href="#DejaVuSans-61" transform="translate(86.279297 0)"/>
       <use xlink:href="#DejaVuSans-79" transform="translate(147.558594 0)"/>
      </g>
     </g>
    </g>
    <g id="xtick_19">
     <g id="line2d_37">
      <g>
       <use xlink:href="#mefc83fad5d" x="518.821725" y="261.56" style="stroke: #000000; stroke-width: 0.8"/>
      </g>
     </g>
     <g id="text_30">
      <!-- Jun -->
      <g transform="translate(511.009225 276.158437) scale(0.1 -0.1)">
       <use xlink:href="#DejaVuSans-4a"/>
       <use xlink:href="#DejaVuSans-75" transform="translate(29.492188 0)"/>
       <use xlink:href="#DejaVuSans-6e" transform="translate(92.871094 0)"/>
      </g>
     </g>
    </g>
    <g id="xtick_20">
     <g id="line2d_38">
      <g>
       <use xlink:href="#mefc83fad5d" x="543.936451" y="261.56" style="stroke: #000000; stroke-width: 0.8"/>
      </g>
     </g>
     <g id="text_31">
      <!-- Jul -->
      <g transform="translate(537.903639 276.158437) scale(0.1 -0.1)">
       <use xlink:href="#DejaVuSans-4a"/>
       <use xlink:href="#DejaVuSans-75" transform="translate(29.492188 0)"/>
       <use xlink:href="#DejaVuSans-6c" transform="translate(92.871094 0)"/>
      </g>
     </g>
    </g>
    <g id="xtick_21">
     <g id="line2d_39">
      <g>
       <use xlink:href="#mefc83fad5d" x="569.888335" y="261.56" style="stroke: #000000; stroke-width: 0.8"/>
      </g>
     </g>
     <g id="text_32">
      <!-- Aug -->
      <g transform="translate(560.125054 276.158437) scale(0.1 -0.1)">
       <use xlink:href="#DejaVuSans-41"/>
       <use xlink:href="#DejaVuSans-75" transform="translate(68.408203 0)"/>
       <use xlink:href="#DejaVuSans-67" transform="translate(131.787109 0)"/>
      </g>
     </g>
    </g>
    <g id="xtick_22">
     <g id="line2d_40">
      <g>
       <use xlink:href="#mefc83fad5d" x="595.840218" y="261.56" style="stroke: #000000; stroke-width: 0.8"/>
      </g>
     </g>
     <g id="text_33">
      <!-- Sep -->
      <g transform="translate(586.415218 276.158437) scale(0.1 -0.1)">
       <use xlink:href="#DejaVuSans-53"/>
       <use xlink:href="#DejaVuSans-65" transform="translate(63.476562 0)"/>
       <use xlink:href="#DejaVuSans-70" transform="translate(125 0)"/>
      </g>
     </g>
    </g>
    <g id="xtick_23">
     <g id="line2d_41">
      <g>
       <use xlink:href="#mefc83fad5d" x="620.954944" y="261.56" style="stroke: #000000; stroke-width: 0.8"/>
      </g>
     </g>
     <g id="text_34">
      <!-- Oct -->
      <g transform="translate(612.309632 276.158437) scale(0.1 -0.1)">
       <use xlink:href="#DejaVuSans-4f"/>
       <use xlink:href="#DejaVuSans-63" transform="translate(78.710938 0)"/>
       <use xlink:href="#DejaVuSans-74" transform="translate(133.691406 0)"/>
      </g>
     </g>
    </g>
    <g id="xtick_24">
     <g id="line2d_42">
      <g>
       <use xlink:href="#mefc83fad5d" x="646.906828" y="261.56" style="stroke: #000000; stroke-width: 0.8"/>
      </g>
     </g>
     <g id="text_35">
      <!-- Nov -->
      <g transform="translate(637.147453 276.158437) scale(0.1 -0.1)">
       <use xlink:href="#DejaVuSans-4e"/>
       <use xlink:href="#DejaVuSans-6f" transform="translate(74.804688 0)"/>
       <use xlink:href="#DejaVuSans-76" transform="translate(135.986328 0)"/>
      </g>
     </g>
    </g>
    <g id="xtick_25">
     <g id="line2d_43">
      <g>
       <use xlink:href="#mefc83fad5d" x="672.021554" y="261.56" style="stroke: #000000; stroke-width: 0.8"/>
      </g>
     </g>
     <g id="text_36">
      <!-- Dec -->
      <g transform="translate(662.345773 276.158437) scale(0.1 -0.1)">
       <use xlink:href="#DejaVuSans-44"/>
       <use xlink:href="#DejaVuSans-65" transform="translate(77.001953 0)"/>
       <use xlink:href="#DejaVuSans-63" transform="translate(138.525391 0)"/>
      </g>
     </g>
    </g>
    <g id="xtick_26">
     <g id="line2d_44">
      <g>
       <use xlink:href="#mefc83fad5d" x="697.973437" y="261.56" style="stroke: #000000; stroke-width: 0.8"/>
      </g>
     </g>
     <g id="text_37">
      <!-- Jan -->
      <g transform="translate(690.265625 276.158437) scale(0.1 -0.1)">
       <use xlink:href="#DejaVuSans-4a"/>
       <use xlink:href="#DejaVuSans-61" transform="translate(29.492188 0)"/>
       <use xlink:href="#DejaVuSans-6e" transform="translate(90.771484 0)"/>
      </g>
     </g>
    </g>
   </g>
   <g id="matplotlib.axis_4">
    <g id="ytick_6">
     <g id="line2d_45">
      <path d="M 392.410937 227.346037 
L 697.973437 227.346037 
" clip-path="url(#p195ef772e3)" style="fill: none; stroke-dasharray: 2.96,1.28; stroke-dashoffset: 0; stroke: #b0b0b0; stroke-opacity: 0.3; stroke-width: 0.8"/>
     </g>
     <g id="line2d_46">
      <g>
       <use xlink:href="#m764285b40b" x="392.410937" y="227.346037" style="stroke: #000000; stroke-width: 0.8"/>
      </g>
     </g>
    </g>
    <g id="ytick_7">
     <g id="line2d_47">
      <path d="M 392.410937 192.479193 
L 697.973437 192.479193 
" clip-path="url(#p195ef772e3)" style="fill: none; stroke-dasharray: 2.96,1.28; stroke-dashoffset: 0; stroke: #b0b0b0; stroke-opacity: 0.3; stroke-width: 0.8"/>
     </g>
     <g id="line2d_48">
      <g>
       <use xlink:href="#m764285b40b" x="392.410937" y="192.479193" style="stroke: #000000; stroke-width: 0.8"/>
      </g>
     </g>
    </g>
    <g id="ytick_8">
     <g id="line2d_49">
      <path d="M 392.410937 157.612349 
L 697.973437 157.612349 
" clip-path="url(#p195ef772e3)" style="fill: none; stroke-dasharray: 2.96,1.28; stroke-dashoffset: 0; stroke: #b0b0b0; stroke-opacity: 0.3; stroke-width: 0.8"/>
     </g>
     <g id="line2d_50">
      <g>
       <use xlink:href="#m764285b40b" x="392.410937" y="157.612349" style="stroke: #000000; stroke-width: 0.8"/>
      </g>
     </g>
    </g>
    <g id="ytick_9">
     <g id="line2d_51">
      <path d="M 392.410937 122.745504 
L 697.973437 122.745504 
" clip-path="url(#p195ef772e3)" style="fill: none; stroke-dasharray: 2.96,1.28; stroke-dashoffset: 0; stroke: #b0b0b0; stroke-opacity: 0.3; stroke-width: 0.8"/>
     </g>
     <g id="line2d_52">
      <g>
       <use xlink:href="#m764285b40b" x="392.410937" y="122.745504" style="stroke: #000000; stroke-width: 0.8"/>
      </g>
     </g>
    </g>
    <g id="ytick_10">
     <g id="line2d_53">
      <path d="M 392.410937 87.87866 
L 697.973437 87.87866 
" clip-path="url(#p195ef772e3)" style="fill: none; stroke-dasharray: 2.96,1.28; stroke-dashoffset: 0; stroke: #b0b0b0; stroke-opacity: 0.3; stroke-width: 0.8"/>
     </g>
     <g id="line2d_54">
      <g>
       <use xlink:href="#m764285b40b" x="392.410937" y="87.87866" style="stroke: #000000; stroke-width: 0.8"/>
      </g>
     </g>
    </g>
   </g>
   <g id="line2d_55">
    <path d="M 393.248095 197.953287 
L 394.085253 164.167315 
L 394.92241 157.21138 
L 397.433883 173.346012 
L 398.27104 167.256518 
L 399.108198 165.068042 
L 399.945355 165.512179 
L 400.782513 165.511868 
L 403.293985 169.623976 
L 404.131143 169.376422 
L 404.968301 167.993951 
L 405.805458 170.391047 
L 406.642616 171.255745 
L 409.154088 170.106882 
L 409.991246 173.703397 
L 411.665561 174.264753 
L 412.502718 173.62146 
L 415.014191 175.307272 
L 415.851348 175.199185 
L 416.688506 173.094971 
L 417.525664 173.870758 
L 418.362821 175.049257 
L 420.874294 175.682091 
L 421.711451 177.115118 
L 422.548609 177.193568 
L 423.385766 176.332357 
L 424.222924 175.987176 
L 426.734396 173.851581 
L 427.571554 174.479185 
L 428.408711 175.253228 
L 429.245869 177.331292 
L 430.083027 174.817393 
L 432.594499 171.925188 
L 433.431657 168.265913 
L 435.105972 166.714338 
L 435.943129 166.266299 
L 438.454602 164.669398 
L 439.291759 161.318694 
L 440.128917 158.816998 
L 440.966074 155.351234 
L 441.803232 154.313945 
L 444.314705 152.533993 
L 445.151862 151.542031 
L 445.98902 149.3245 
L 446.826177 148.227937 
L 447.663335 146.05922 
L 450.174807 147.680528 
L 451.011965 149.734185 
L 451.849122 148.850311 
L 452.68628 148.763143 
L 453.523438 149.007211 
L 456.03491 148.78232 
L 456.872068 147.208082 
L 457.709225 150.203144 
L 458.546383 150.720917 
L 459.38354 151.698932 
L 461.895013 150.201401 
L 462.73217 147.835685 
L 463.569328 150.729633 
L 464.406485 148.522562 
L 465.243643 148.226194 
L 467.755116 148.642853 
L 468.592273 149.289633 
L 469.429431 149.212926 
L 470.266588 147.914136 
L 471.103746 147.640431 
L 473.615218 148.599269 
L 474.452376 148.227937 
L 475.289533 144.774376 
L 476.126691 145.347936 
L 476.963848 145.063771 
L 479.475321 146.625806 
L 480.312479 146.590939 
L 481.149636 143.740574 
L 481.986794 142.535925 
L 482.823951 146.052246 
L 485.335424 146.238784 
L 486.172581 148.250601 
L 487.009739 148.355201 
L 487.846896 148.867744 
L 488.684054 154.706197 
L 491.195527 154.622517 
L 492.032684 156.587263 
L 493.706999 159.486441 
L 494.544157 155.319854 
L 497.055629 154.031524 
L 497.892787 153.389974 
L 498.729944 154.875301 
L 499.567102 155.701645 
L 500.404259 150.264161 
L 502.915732 149.988713 
L 503.75289 149.069972 
L 504.590047 150.973701 
L 505.427205 151.737285 
L 506.264362 150.72789 
L 508.775835 150.459415 
L 509.612992 149.544161 
L 510.45015 149.938156 
L 511.287307 148.370891 
L 512.124465 148.555686 
L 515.473095 146.916944 
L 516.310253 146.052246 
L 517.14741 144.418735 
L 517.984568 144.596556 
L 521.333198 152.230651 
L 522.170355 148.872974 
L 523.007513 150.724403 
L 523.84467 152.903581 
L 526.356143 156.407699 
L 527.193301 158.64615 
L 528.030458 154.439466 
L 528.867616 155.766149 
L 529.704773 157.638499 
L 532.216246 153.133702 
L 533.053403 153.177286 
L 533.890561 150.375735 
L 534.727718 151.575154 
L 535.564876 164.667654 
L 538.076348 163.626879 
L 538.913506 164.603151 
L 539.750664 169.369448 
L 540.587821 170.750175 
L 541.424979 171.867658 
L 543.936451 181.776815 
L 544.773609 182.597929 
L 545.610766 191.154253 
L 546.447924 203.892854 
L 547.285081 190.277352 
L 549.796554 188.947182 
L 550.633711 187.214299 
L 551.470869 177.587564 
L 552.308027 177.092454 
L 553.145184 174.536715 
L 555.656657 164.339906 
L 556.493814 161.909687 
L 558.168129 132.637228 
L 559.005287 130.879939 
L 561.516759 131.932918 
L 562.353917 134.279456 
L 563.191074 139.833745 
L 564.028232 138.880136 
L 564.86539 139.371759 
L 567.376862 138.458248 
L 568.21402 139.234035 
L 569.051177 145.185805 
L 569.888335 145.541447 
L 570.725492 144.774376 
L 573.236965 142.994424 
L 574.074122 153.423097 
L 574.91128 151.667552 
L 575.748437 150.935348 
L 576.585595 149.657478 
L 579.097068 148.921788 
L 579.934225 147.581157 
L 580.771383 146.655443 
L 581.60854 145.095151 
L 582.445698 145.170115 
L 584.95717 145.846532 
L 585.794328 130.642844 
L 587.468643 129.256887 
L 588.305801 129.478292 
L 590.817273 130.559164 
L 592.491588 136.151806 
L 593.328746 138.132243 
L 594.165903 140.597328 
L 596.677376 141.296409 
L 597.514533 142.797426 
L 598.351691 149.957333 
L 599.188848 151.526341 
L 600.026006 151.93254 
L 602.537479 152.195784 
L 603.374636 151.350263 
L 604.211794 157.134673 
L 605.048951 156.878401 
L 605.886109 155.644115 
L 608.397581 155.520338 
L 609.234739 155.992784 
L 610.071896 155.25012 
L 610.909054 154.275592 
L 611.746211 155.93351 
L 614.257684 155.377384 
L 615.094842 153.665422 
L 615.931999 150.70174 
L 616.769157 148.159947 
L 620.117787 146.859414 
L 620.954944 146.125467 
L 621.792102 145.023674 
L 622.629259 146.247501 
L 623.466417 145.201495 
L 625.97789 145.206725 
L 627.652205 138.91849 
L 628.489362 137.914325 
L 629.32652 135.858924 
L 631.837992 133.435679 
L 633.512307 126.887685 
L 634.349465 124.059984 
L 635.186622 119.752186 
L 637.698095 117.557318 
L 638.535253 117.055235 
L 639.37241 120.914995 
L 640.209568 120.789474 
L 641.046725 119.708602 
L 644.395355 124.154125 
L 645.232513 127.590252 
L 646.06967 128.571754 
L 646.906828 134.204493 
L 649.418301 138.402461 
L 650.255458 146.908227 
L 651.092616 147.561981 
L 651.929773 149.622611 
L 652.766931 153.147649 
L 655.278403 153.255736 
L 656.115561 156.371089 
L 656.952718 157.725666 
L 657.789876 157.645472 
L 658.627033 154.434236 
L 661.138506 154.301742 
L 661.975664 151.261353 
L 662.812821 150.014863 
L 663.649979 151.852346 
L 664.487136 151.252636 
L 666.998609 151.508907 
L 667.835766 150.884791 
L 668.672924 151.881983 
L 670.347239 160.431333 
L 672.858711 161.14436 
L 673.695869 161.763246 
L 674.533027 163.145717 
L 675.370184 166.573128 
L 676.207342 168.049738 
L 678.718814 169.00509 
L 679.555972 169.664073 
L 680.393129 168.700005 
L 681.230287 166.011771 
L 682.067444 165.743297 
L 684.578917 163.968574 
L 685.416074 168.902233 
L 686.253232 167.950368 
L 687.09039 167.202474 
L 687.927547 171.192984 
L 690.43902 170.349207 
L 691.276177 165.779907 
L 692.113335 164.400923 
L 692.950492 171.855454 
L 693.78765 176.16674 
L 696.299122 178.002479 
L 697.13628 171.07618 
L 697.973437 169.355502 
L 697.973437 169.355502 
" clip-path="url(#p195ef772e3)" style="fill: none; stroke: #f36d43; stroke-opacity: 0.5; stroke-width: 1.5; stroke-linecap: square"/>
   </g>
   <g id="line2d_56">
    <path d="M 395.759568 154.230265 
L 396.596725 168.490804 
L 401.61967 158.094673 
L 402.456828 163.78378 
L 407.479773 158.61477 
L 408.316931 149.989585 
L 413.339876 147.514039 
L 414.177033 137.908223 
L 419.199979 140.527595 
L 420.037136 148.590553 
L 425.060081 152.761499 
L 425.897239 148.11985 
L 430.920184 144.9121 
L 431.757342 132.534371 
L 436.780287 132.495146 
L 437.617444 140.850113 
L 442.64039 134.016212 
L 443.477547 131.004588 
L 448.500492 124.327587 
L 449.33765 118.116931 
L 454.360595 126.079646 
L 455.197753 138.596843 
L 460.220698 130.102408 
L 461.057855 121.241871 
L 466.080801 114.046226 
L 466.917958 100.849126 
L 471.940903 104.693195 
L 472.778061 110.720801 
L 477.801006 108.463173 
L 478.638164 108.606999 
L 483.661109 108.083996 
L 484.498266 110.302399 
L 489.521211 110.877702 
L 490.358369 113.074313 
L 495.381314 113.741142 
L 496.218472 109.631212 
L 501.241417 107.290775 
L 502.078574 104.667045 
L 507.10152 110.289324 
L 507.938677 108.890292 
L 512.961622 112.241867 
L 513.79878 110.123706 
L 518.821725 99.846704 
L 519.658883 100.452516 
L 524.681828 145.783772 
L 525.518985 149.858834 
L 530.541931 161.543585 
L 531.379088 205.71116 
L 536.402033 164.786202 
L 537.239191 162.999276 
L 542.262136 160.597822 
L 543.099294 123.146473 
L 548.122239 120.588118 
L 548.959396 119.502888 
L 553.982342 108.389081 
L 554.819499 101.171644 
L 559.842444 105.34259 
L 560.679602 106.963899 
L 565.702547 114.765355 
L 566.539705 119.799256 
L 571.56265 110.860269 
L 572.399807 105.682542 
L 577.422753 99.77697 
L 578.25991 89.796336 
L 583.282855 88.144519 
L 584.120013 90.223455 
L 589.142958 90.964376 
L 589.980116 94.695128 
L 595.003061 101.376487 
L 595.840218 114.11596 
L 600.863164 115.868019 
L 601.700321 123.23364 
L 606.723266 126.986184 
L 607.560424 116.622015 
L 612.583369 121.485939 
L 613.420527 118.27819 
L 618.443472 113.592958 
L 619.280629 109.50482 
L 624.303574 102.875761 
L 625.140732 102.540168 
L 630.163677 94.830237 
L 631.000835 93.701423 
L 636.02378 74.777443 
L 636.860937 63.663636 
L 641.883883 63.894629 
L 642.72104 73.282527 
L 647.743985 89.373576 
L 648.581143 95.492707 
L 653.604088 111.470438 
L 654.441246 107.212325 
L 659.464191 111.592472 
L 660.301348 120.745019 
L 665.324294 113.483999 
L 666.161451 121.895625 
L 671.184396 131.7673 
L 672.021554 132.595388 
L 677.044499 138.052049 
L 677.881657 129.378921 
L 682.904602 126.040421 
L 683.741759 122.287877 
L 688.764705 121.843325 
L 689.601862 134.805074 
L 694.624807 133.820086 
L 695.461965 132.434129 
" clip-path="url(#p195ef772e3)" style="fill: none; stroke: #83c966; stroke-opacity: 0.5; stroke-width: 1.5; stroke-linecap: square"/>
   </g>
   <g id="line2d_57">
    <path d="M 392.410937 145.253921 
L 697.973437 145.253921 
" clip-path="url(#p195ef772e3)" style="fill: none; stroke-dasharray: 7.4,3.2; stroke-dashoffset: 0; stroke: #f36d43; stroke-width: 2"/>
   </g>
   <g id="line2d_58">
    <path d="M 392.410937 104.034977 
L 697.973437 104.034977 
" clip-path="url(#p195ef772e3)" style="fill: none; stroke-dasharray: 7.4,3.2; stroke-dashoffset: 0; stroke: #83c966; stroke-width: 2"/>
   </g>
   <g id="patch_6">
    <path d="M 392.410937 261.56 
L 392.410937 54.24 
" style="fill: none; stroke: #000000; stroke-width: 0.8; stroke-linejoin: miter; stroke-linecap: square"/>
   </g>
   <g id="patch_7">
    <path d="M 392.410937 261.56 
L 697.973437 261.56 
" style="fill: none; stroke: #000000; stroke-width: 0.8; stroke-linejoin: miter; stroke-linecap: square"/>
   </g>
   <g id="text_38">
    <!-- 2025 -->
    <g transform="translate(527.377187 48.24) scale(0.14 -0.14)">
     <defs>
      <path id="DejaVuSans-35" d="M 691 4666 
L 3169 4666 
L 3169 4134 
L 1269 4134 
L 1269 2991 
Q 1406 3038 1543 3061 
Q 1681 3084 1819 3084 
Q 2600 3084 3056 2656 
Q 3513 2228 3513 1497 
Q 3513 744 3044 326 
Q 2575 -91 1722 -91 
Q 1428 -91 1123 -41 
Q 819 9 494 109 
L 494 744 
Q 775 591 1075 516 
Q 1375 441 1709 441 
Q 2250 441 2565 725 
Q 2881 1009 2881 1497 
Q 2881 1984 2565 2268 
Q 2250 2553 1709 2553 
Q 1456 2553 1204 2497 
Q 953 2441 691 2322 
L 691 4666 
z
" transform="scale(0.015625)"/>
     </defs>
     <use xlink:href="#DejaVuSans-32"/>
     <use xlink:href="#DejaVuSans-30" transform="translate(63.623047 0)"/>
     <use xlink:href="#DejaVuSans-32" transform="translate(127.246094 0)"/>
     <use xlink:href="#DejaVuSans-35" transform="translate(190.869141 0)"/>
    </g>
   </g>
  </g>
  <g id="text_39">
   <!-- Comparing Observed and Fitted Pedestrian Counts at QVM-Therry St (South) -->
   <g transform="translate(50.814687 19.3575) scale(0.16 -0.16)">
    <defs>
     <path id="DejaVuSans-43" d="M 4122 4306 
L 4122 3641 
Q 3803 3938 3442 4084 
Q 3081 4231 2675 4231 
Q 1875 4231 1450 3742 
Q 1025 3253 1025 2328 
Q 1025 1406 1450 917 
Q 1875 428 2675 428 
Q 3081 428 3442 575 
Q 3803 722 4122 1019 
L 4122 359 
Q 3791 134 3420 21 
Q 3050 -91 2638 -91 
Q 1578 -91 968 557 
Q 359 1206 359 2328 
Q 359 3453 968 4101 
Q 1578 4750 2638 4750 
Q 3056 4750 3426 4639 
Q 3797 4528 4122 4306 
z
" transform="scale(0.015625)"/>
     <path id="DejaVuSans-6d" d="M 3328 2828 
Q 3544 3216 3844 3400 
Q 4144 3584 4550 3584 
Q 5097 3584 5394 3201 
Q 5691 2819 5691 2113 
L 5691 0 
L 5113 0 
L 5113 2094 
Q 5113 2597 4934 2840 
Q 4756 3084 4391 3084 
Q 3944 3084 3684 2787 
Q 3425 2491 3425 1978 
L 3425 0 
L 2847 0 
L 2847 2094 
Q 2847 2600 2669 2842 
Q 2491 3084 2119 3084 
Q 1678 3084 1418 2786 
Q 1159 2488 1159 1978 
L 1159 0 
L 581 0 
L 581 3500 
L 1159 3500 
L 1159 2956 
Q 1356 3278 1631 3431 
Q 1906 3584 2284 3584 
Q 2666 3584 2933 3390 
Q 3200 3197 3328 2828 
z
" transform="scale(0.015625)"/>
     <path id="DejaVuSans-50" d="M 1259 4147 
L 1259 2394 
L 2053 2394 
Q 2494 2394 2734 2622 
Q 2975 2850 2975 3272 
Q 2975 3691 2734 3919 
Q 2494 4147 2053 4147 
L 1259 4147 
z
M 628 4666 
L 2053 4666 
Q 2838 4666 3239 4311 
Q 3641 3956 3641 3272 
Q 3641 2581 3239 2228 
Q 2838 1875 2053 1875 
L 1259 1875 
L 1259 0 
L 628 0 
L 628 4666 
z
" transform="scale(0.015625)"/>
     <path id="DejaVuSans-51" d="M 2522 4238 
Q 1834 4238 1429 3725 
Q 1025 3213 1025 2328 
Q 1025 1447 1429 934 
Q 1834 422 2522 422 
Q 3209 422 3611 934 
Q 4013 1447 4013 2328 
Q 4013 3213 3611 3725 
Q 3209 4238 2522 4238 
z
M 3406 84 
L 4238 -825 
L 3475 -825 
L 2784 -78 
Q 2681 -84 2626 -87 
Q 2572 -91 2522 -91 
Q 1538 -91 948 567 
Q 359 1225 359 2328 
Q 359 3434 948 4092 
Q 1538 4750 2522 4750 
Q 3503 4750 4090 4092 
Q 4678 3434 4678 2328 
Q 4678 1516 4351 937 
Q 4025 359 3406 84 
z
" transform="scale(0.015625)"/>
     <path id="DejaVuSans-56" d="M 1831 0 
L 50 4666 
L 709 4666 
L 2188 738 
L 3669 4666 
L 4325 4666 
L 2547 0 
L 1831 0 
z
" transform="scale(0.015625)"/>
     <path id="DejaVuSans-2d" d="M 313 2009 
L 1997 2009 
L 1997 1497 
L 313 1497 
L 313 2009 
z
" transform="scale(0.015625)"/>
     <path id="DejaVuSans-54" d="M -19 4666 
L 3928 4666 
L 3928 4134 
L 2272 4134 
L 2272 0 
L 1638 0 
L 1638 4134 
L -19 4134 
L -19 4666 
z
" transform="scale(0.015625)"/>
     <path id="DejaVuSans-68" d="M 3513 2113 
L 3513 0 
L 2938 0 
L 2938 2094 
Q 2938 2591 2744 2837 
Q 2550 3084 2163 3084 
Q 1697 3084 1428 2787 
Q 1159 2491 1159 1978 
L 1159 0 
L 581 0 
L 581 4863 
L 1159 4863 
L 1159 2956 
Q 1366 3272 1645 3428 
Q 1925 3584 2291 3584 
Q 2894 3584 3203 3211 
Q 3513 2838 3513 2113 
z
" transform="scale(0.015625)"/>
     <path id="DejaVuSans-28" d="M 1984 4856 
Q 1566 4138 1362 3434 
Q 1159 2731 1159 2009 
Q 1159 1288 1364 580 
Q 1569 -128 1984 -844 
L 1484 -844 
Q 1016 -109 783 600 
Q 550 1309 550 2009 
Q 550 2706 781 3412 
Q 1013 4119 1484 4856 
L 1984 4856 
z
" transform="scale(0.015625)"/>
     <path id="DejaVuSans-29" d="M 513 4856 
L 1013 4856 
Q 1481 4119 1714 3412 
Q 1947 2706 1947 2009 
Q 1947 1309 1714 600 
Q 1481 -109 1013 -844 
L 513 -844 
Q 928 -128 1133 580 
Q 1338 1288 1338 2009 
Q 1338 2731 1133 3434 
Q 928 4138 513 4856 
z
" transform="scale(0.015625)"/>
    </defs>
    <use xlink:href="#DejaVuSans-43"/>
    <use xlink:href="#DejaVuSans-6f" transform="translate(69.824219 0)"/>
    <use xlink:href="#DejaVuSans-6d" transform="translate(131.005859 0)"/>
    <use xlink:href="#DejaVuSans-70" transform="translate(228.417969 0)"/>
    <use xlink:href="#DejaVuSans-61" transform="translate(291.894531 0)"/>
    <use xlink:href="#DejaVuSans-72" transform="translate(353.173828 0)"/>
    <use xlink:href="#DejaVuSans-69" transform="translate(394.287109 0)"/>
    <use xlink:href="#DejaVuSans-6e" transform="translate(422.070312 0)"/>
    <use xlink:href="#DejaVuSans-67" transform="translate(485.449219 0)"/>
    <use xlink:href="#DejaVuSans-20" transform="translate(548.925781 0)"/>
    <use xlink:href="#DejaVuSans-4f" transform="translate(580.712891 0)"/>
    <use xlink:href="#DejaVuSans-62" transform="translate(659.423828 0)"/>
    <use xlink:href="#DejaVuSans-73" transform="translate(722.900391 0)"/>
    <use xlink:href="#DejaVuSans-65" transform="translate(775 0)"/>
    <use xlink:href="#DejaVuSans-72" transform="translate(836.523438 0)"/>
    <use xlink:href="#DejaVuSans-76" transform="translate(877.636719 0)"/>
    <use xlink:href="#DejaVuSans-65" transform="translate(936.816406 0)"/>
    <use xlink:href="#DejaVuSans-64" transform="translate(998.339844 0)"/>
    <use xlink:href="#DejaVuSans-20" transform="translate(1061.816406 0)"/>
    <use xlink:href="#DejaVuSans-61" transform="translate(1093.603516 0)"/>
    <use xlink:href="#DejaVuSans-6e" transform="translate(1154.882812 0)"/>
    <use xlink:href="#DejaVuSans-64" transform="translate(1218.261719 0)"/>
    <use xlink:href="#DejaVuSans-20" transform="translate(1281.738281 0)"/>
    <use xlink:href="#DejaVuSans-46" transform="translate(1313.525391 0)"/>
    <use xlink:href="#DejaVuSans-69" transform="translate(1363.794922 0)"/>
    <use xlink:href="#DejaVuSans-74" transform="translate(1391.578125 0)"/>
    <use xlink:href="#DejaVuSans-74" transform="translate(1430.787109 0)"/>
    <use xlink:href="#DejaVuSans-65" transform="translate(1469.996094 0)"/>
    <use xlink:href="#DejaVuSans-64" transform="translate(1531.519531 0)"/>
    <use xlink:href="#DejaVuSans-20" transform="translate(1594.996094 0)"/>
    <use xlink:href="#DejaVuSans-50" transform="translate(1626.783203 0)"/>
    <use xlink:href="#DejaVuSans-65" transform="translate(1683.460938 0)"/>
    <use xlink:href="#DejaVuSans-64" transform="translate(1744.984375 0)"/>
    <use xlink:href="#DejaVuSans-65" transform="translate(1808.460938 0)"/>
    <use xlink:href="#DejaVuSans-73" transform="translate(1869.984375 0)"/>
    <use xlink:href="#DejaVuSans-74" transform="translate(1922.083984 0)"/>
    <use xlink:href="#DejaVuSans-72" transform="translate(1961.292969 0)"/>
    <use xlink:href="#DejaVuSans-69" transform="translate(2002.40625 0)"/>
    <use xlink:href="#DejaVuSans-61" transform="translate(2030.189453 0)"/>
    <use xlink:href="#DejaVuSans-6e" transform="translate(2091.46875 0)"/>
    <use xlink:href="#DejaVuSans-20" transform="translate(2154.847656 0)"/>
    <use xlink:href="#DejaVuSans-43" transform="translate(2186.634766 0)"/>
    <use xlink:href="#DejaVuSans-6f" transform="translate(2256.458984 0)"/>
    <use xlink:href="#DejaVuSans-75" transform="translate(2317.640625 0)"/>
    <use xlink:href="#DejaVuSans-6e" transform="translate(2381.019531 0)"/>
    <use xlink:href="#DejaVuSans-74" transform="translate(2444.398438 0)"/>
    <use xlink:href="#DejaVuSans-73" transform="translate(2483.607422 0)"/>
    <use xlink:href="#DejaVuSans-20" transform="translate(2535.707031 0)"/>
    <use xlink:href="#DejaVuSans-61" transform="translate(2567.494141 0)"/>
    <use xlink:href="#DejaVuSans-74" transform="translate(2628.773438 0)"/>
    <use xlink:href="#DejaVuSans-20" transform="translate(2667.982422 0)"/>
    <use xlink:href="#DejaVuSans-51" transform="translate(2699.769531 0)"/>
    <use xlink:href="#DejaVuSans-56" transform="translate(2778.480469 0)"/>
    <use xlink:href="#DejaVuSans-4d" transform="translate(2846.888672 0)"/>
    <use xlink:href="#DejaVuSans-2d" transform="translate(2933.167969 0)"/>
    <use xlink:href="#DejaVuSans-54" transform="translate(2960.126953 0)"/>
    <use xlink:href="#DejaVuSans-68" transform="translate(3021.210938 0)"/>
    <use xlink:href="#DejaVuSans-65" transform="translate(3084.589844 0)"/>
    <use xlink:href="#DejaVuSans-72" transform="translate(3146.113281 0)"/>
    <use xlink:href="#DejaVuSans-72" transform="translate(3185.476562 0)"/>
    <use xlink:href="#DejaVuSans-79" transform="translate(3226.589844 0)"/>
    <use xlink:href="#DejaVuSans-20" transform="translate(3285.769531 0)"/>
    <use xlink:href="#DejaVuSans-53" transform="translate(3317.556641 0)"/>
    <use xlink:href="#DejaVuSans-74" transform="translate(3381.033203 0)"/>
    <use xlink:href="#DejaVuSans-20" transform="translate(3420.242188 0)"/>
    <use xlink:href="#DejaVuSans-28" transform="translate(3452.029297 0)"/>
    <use xlink:href="#DejaVuSans-53" transform="translate(3491.042969 0)"/>
    <use xlink:href="#DejaVuSans-6f" transform="translate(3554.519531 0)"/>
    <use xlink:href="#DejaVuSans-75" transform="translate(3615.701172 0)"/>
    <use xlink:href="#DejaVuSans-74" transform="translate(3679.080078 0)"/>
    <use xlink:href="#DejaVuSans-68" transform="translate(3718.289062 0)"/>
    <use xlink:href="#DejaVuSans-29" transform="translate(3781.667969 0)"/>
   </g>
  </g>
 </g>
 <defs>
  <clipPath id="pa124fb0f17">
   <rect x="60.658438" y="54.24" width="305.5625" height="207.32"/>
  </clipPath>
  <clipPath id="p195ef772e3">
   <rect x="392.410937" y="54.24" width="305.5625" height="207.32"/>
  </clipPath>
 </defs>
</svg>
